<svg width="128" height="18" version="1.1" xmlns="http://www.w3.org/2000/svg" desc="Created with imagetracer.js version 1.2.6" ><path fill="rgb(142,167,205)" stroke="rgb(142,167,205)" stroke-width="1" opacity="1" d="M 3.5 2 L 16.5 2 L 19 3 L 19 14.5 L 17.5 16 L 4.5 16 L 3 14.5 L 4.5 15 L 18 15 L 18 4.5 L 16.5 3 L 3 3 L 2.5 13 L 2 3.5 L 3.5 2 Z " /><path fill="rgb(142,167,205)" stroke="rgb(142,167,205)" stroke-width="1" opacity="1" d="M 8.5 4 L 9 5.5 L 8 6.5 L 8.5 8 L 4 6.5 L 8 6 L 8.5 4 Z " /><path fill="rgb(142,167,205)" stroke="rgb(142,167,205)" stroke-width="1" opacity="1" d="M 11 4 L 13 4.5 L 10.5 9 L 10 7.5 Q 11.75 6.58 11 4 Z " /><path fill="rgb(142,167,205)" stroke="rgb(142,167,205)" stroke-width="1" opacity="1" d="M 5.5 8 L 6 10 Q 8.58 9.25 9.5 11 L 11 10.5 Q 9.75 13.25 8.5 11 Q 3 12.5 5.5 8 Z " /><path fill="rgb(142,167,205)" stroke="rgb(142,167,205)" stroke-width="1" opacity="1" d="M 13.5 8 L 14 9.5 Q 13 12 12 10.5 L 13.5 8 Z " /><path fill="rgb(142,167,205)" stroke="rgb(142,167,205)" stroke-width="1" opacity="1" d="M 16.5 8 L 17 9.5 Q 15 10.5 17 11.5 L 16.5 13 L 15 10.5 L 16.5 8 Z " /><path fill="rgb(142,167,205)" stroke="rgb(142,167,205)" stroke-width="1" opacity="1" d="M 13.5 12 L 13.5 13 L 13.5 12 Z " /><path fill="rgb(142,167,205)" stroke="rgb(142,167,205)" stroke-width="1" opacity="1" d="M 9.5 13 L 9.5 14 L 9.5 13 Z " /><path fill="rgb(0,0,0)" stroke="rgb(0,0,0)" stroke-width="1" opacity="0" d="M 0 0 L 127.5 0 L 128 0.5 L 128 18 L 0.5 18 L 0 17.5 L 0 0 Z M 1 1 L 1 16 L 4 17 L 21 17 L 21 6 Q 19 5 20 2 L 18 1 L 1 1 Z M 26 6 L 26 8 L 26 13 L 29 13 Q 28 10 31 11 L 32 11 Q 31 15 35 13 L 36 8 L 36 13 L 39 13 Q 38 10 41 11 Q 42 8 39 9 L 39 8 L 43 9 L 44 9 L 43 12 L 43 13 L 47 13 L 46 9 L 48 9 L 49 9 L 49 13 Q 52 14 51 11 Q 55 10 54 13 L 57 13 Q 55 11 56 8 L 57 6 Q 52 4 53 8 L 54 9 L 51 9 Q 51 6 51 6 L 26 6 Z M 59 6 Q 58 9 61 8 L 62 8 L 62 11 L 61 13 L 65 13 L 65 8 L 67 8 L 68 8 L 68 13 Q 71 14 70 11 L 72 11 L 73 13 L 78 13 L 79 8 L 79 13 Q 82 14 83 12 L 84 13 L 92 13 Q 94 12 93 8 Q 92 5 87 6 Q 86 8 85 6 L 73 6 Q 72 6 72 9 L 70 9 Q 70 6 70 6 L 59 6 Z M 97 6 L 97 8 L 97 13 L 107 13 L 108 12 Q 110 14 115 13 L 116 11 Q 117 14 120 13 L 119 8 L 121 8 L 121 13 L 127 13 Q 128 10 125 10 Q 127 9 127 6 L 118 6 Q 117 6 117 9 Q 116 10 115 8 L 115 6 L 112 6 L 112 10 L 110 6 L 106 6 L 106 10 L 105 10 L 105 6 L 97 6 Z " /><path fill="rgb(0,0,0)" stroke="rgb(0,0,0)" stroke-width="1" opacity="0" d="M 28.5 7 L 31 7.5 L 28.5 8 L 28.5 7 Z " /><path fill="rgb(0,0,0)" stroke="rgb(0,0,0)" stroke-width="1" opacity="0" d="M 99.5 7 L 103 7.5 L 99.5 8 L 99.5 7 Z " /><path fill="rgb(0,0,0)" stroke="rgb(0,0,0)" stroke-width="1" opacity="0" d="M 75.5 8 L 76 10.5 L 75 10.5 L 75.5 8 Z " /><path fill="rgb(0,0,0)" stroke="rgb(0,0,0)" stroke-width="1" opacity="0" d="M 81.5 8 L 83 8.5 L 81.5 9 L 81.5 8 Z " /><path fill="rgb(0,0,0)" stroke="rgb(0,0,0)" stroke-width="1" opacity="0" d="M 88 8 L 91 9.5 L 91 11 L 88 11 L 88 8 Z " /><path fill="rgb(0,0,0)" stroke="rgb(0,0,0)" stroke-width="1" opacity="0" d="M 85.5 10 L 85.5 11 L 85.5 10 Z " /><path fill="rgb(0,0,0)" stroke="rgb(0,0,0)" stroke-width="1" opacity="0" d="M 99.5 10 L 103 10.5 L 99.5 11 L 99.5 10 Z " /><path fill="rgb(27,69,156)" stroke="rgb(27,69,156)" stroke-width="1" opacity="0.9215686274509803" d="M 26.5 6 L 28 6.5 L 26.5 7 L 26.5 6 Z " /><path fill="rgb(27,69,156)" stroke="rgb(27,69,156)" stroke-width="1" opacity="0.9215686274509803" d="M 63.5 6 L 63.5 7 L 63.5 6 Z " /><path fill="rgb(27,69,156)" stroke="rgb(27,69,156)" stroke-width="1" opacity="0.9215686274509803" d="M 98.5 6 L 98.5 7 L 98.5 6 Z " /><path fill="rgb(27,69,156)" stroke="rgb(27,69,156)" stroke-width="1" opacity="0.9215686274509803" d="M 36.5 7 L 36.5 8 L 36.5 7 Z " /><path fill="rgb(27,69,156)" stroke="rgb(27,69,156)" stroke-width="1" opacity="0.9215686274509803" d="M 42.5 7 L 42.5 8 L 42.5 7 Z " /><path fill="rgb(27,69,156)" stroke="rgb(27,69,156)" stroke-width="1" opacity="0.9215686274509803" d="M 44.5 7 L 46 7.5 L 44.5 8 L 44.5 7 Z " /><path fill="rgb(27,69,156)" stroke="rgb(27,69,156)" stroke-width="1" opacity="0.9215686274509803" d="M 68.5 7 L 68.5 8 L 68.5 7 Z " /><path fill="rgb(27,69,156)" stroke="rgb(27,69,156)" stroke-width="1" opacity="0.9215686274509803" d="M 80.5 7 L 80.5 8 L 80.5 7 Z " /><path fill="rgb(27,69,156)" stroke="rgb(27,69,156)" stroke-width="1" opacity="0.9215686274509803" d="M 84.5 7 L 85 9.5 Q 84 12 83 10.5 L 84.5 7 Z " /><path fill="rgb(27,69,156)" stroke="rgb(27,69,156)" stroke-width="1" opacity="0.9215686274509803" d="M 87.5 7 L 87.5 8 L 87.5 7 Z " /><path fill="rgb(27,69,156)" stroke="rgb(27,69,156)" stroke-width="1" opacity="0.9215686274509803" d="M 91.5 7 L 91.5 8 L 91.5 7 Z " /><path fill="rgb(27,69,156)" stroke="rgb(27,69,156)" stroke-width="1" opacity="0.9215686274509803" d="M 107.5 7 L 108 8.5 L 107 8.5 L 107.5 7 Z " /><path fill="rgb(27,69,156)" stroke="rgb(27,69,156)" stroke-width="1" opacity="0.9215686274509803" d="M 118.5 7 L 119 12 L 117 11.5 L 118.5 7 Z " /><path fill="rgb(27,69,156)" stroke="rgb(27,69,156)" stroke-width="1" opacity="0.9215686274509803" d="M 121.5 7 L 123 9.5 L 121.5 12 L 121.5 7 Z " /><path fill="rgb(27,69,156)" stroke="rgb(27,69,156)" stroke-width="1" opacity="0.9215686274509803" d="M 54.5 8 L 54 9.5 L 55 10.5 L 54.5 12 L 54 10 L 52 9.5 L 54.5 8 Z " /><path fill="rgb(27,69,156)" stroke="rgb(27,69,156)" stroke-width="1" opacity="0.9215686274509803" d="M 103.5 8 L 103.5 9 L 103.5 8 Z " /><path fill="rgb(27,69,156)" stroke="rgb(27,69,156)" stroke-width="1" opacity="0.9215686274509803" d="M 114.5 8 L 114.5 9 L 114.5 8 Z " /><path fill="rgb(27,69,156)" stroke="rgb(27,69,156)" stroke-width="1" opacity="0.9215686274509803" d="M 30.5 9 L 30.5 10 L 30.5 9 Z " /><path fill="rgb(27,69,156)" stroke="rgb(27,69,156)" stroke-width="1" opacity="0.9215686274509803" d="M 50.5 9 L 50.5 10 L 50.5 9 Z " /><path fill="rgb(27,69,156)" stroke="rgb(27,69,156)" stroke-width="1" opacity="0.9215686274509803" d="M 69.5 9 L 69.5 10 L 69.5 9 Z " /><path fill="rgb(27,69,156)" stroke="rgb(27,69,156)" stroke-width="1" opacity="0.9215686274509803" d="M 71.5 9 L 73 9.5 L 71.5 10 L 71.5 9 Z " /><path fill="rgb(27,69,156)" stroke="rgb(27,69,156)" stroke-width="1" opacity="0.9215686274509803" d="M 80.5 9 L 80.5 10 L 80.5 9 Z " /><path fill="rgb(27,69,156)" stroke="rgb(27,69,156)" stroke-width="1" opacity="0.9215686274509803" d="M 92.5 9 L 93 10.5 Q 92 13 91 11.5 L 92.5 9 Z " /><path fill="rgb(27,69,156)" stroke="rgb(27,69,156)" stroke-width="1" opacity="0.9215686274509803" d="M 103.5 11 L 103.5 12 L 103.5 11 Z " /><path fill="rgb(31,72,157)" stroke="rgb(31,72,157)" stroke-width="1" opacity="0.996078431372549" d="M 4.5 3 L 9 3.5 L 4.5 4 L 4.5 3 Z " /><path fill="rgb(31,72,157)" stroke="rgb(31,72,157)" stroke-width="1" opacity="0.996078431372549" d="M 11.5 3 L 13 3.5 L 11.5 4 L 11.5 3 Z " /><path fill="rgb(31,72,157)" stroke="rgb(31,72,157)" stroke-width="1" opacity="0.996078431372549" d="M 17.5 4 L 17.5 5 L 17.5 4 Z " /><path fill="rgb(31,72,157)" stroke="rgb(31,72,157)" stroke-width="1" opacity="0.996078431372549" d="M 12.5 5 L 12.5 6 L 12.5 5 Z " /><path fill="rgb(31,72,157)" stroke="rgb(31,72,157)" stroke-width="1" opacity="0.996078431372549" d="M 8.5 6 L 8.5 7 L 8.5 6 Z " /><path fill="rgb(31,72,157)" stroke="rgb(31,72,157)" stroke-width="1" opacity="0.996078431372549" d="M 10.5 6 L 10.5 7 L 10.5 6 Z " /><path fill="rgb(31,72,157)" stroke="rgb(31,72,157)" stroke-width="1" opacity="0.996078431372549" d="M 4.5 7 L 4.5 8 L 4.5 7 Z " /><path fill="rgb(31,72,157)" stroke="rgb(31,72,157)" stroke-width="1" opacity="0.996078431372549" d="M 12.5 7 Q 14 8 11.5 9 Q 10 8 12.5 7 Z " /><path fill="rgb(31,72,157)" stroke="rgb(31,72,157)" stroke-width="1" opacity="0.996078431372549" d="M 16.5 7 L 16.5 8 L 16.5 7 Z " /><path fill="rgb(31,72,157)" stroke="rgb(31,72,157)" stroke-width="1" opacity="0.996078431372549" d="M 9.5 8 L 11 11.5 Q 10 13 9 10.5 L 9.5 8 Z " /><path fill="rgb(31,72,157)" stroke="rgb(31,72,157)" stroke-width="1" opacity="0.996078431372549" d="M 4.5 10 L 4.5 11 L 4.5 10 Z " /><path fill="rgb(31,72,157)" stroke="rgb(31,72,157)" stroke-width="1" opacity="0.996078431372549" d="M 16.5 10 L 16.5 11 L 16.5 10 Z " /><path fill="rgb(31,72,157)" stroke="rgb(31,72,157)" stroke-width="1" opacity="0.996078431372549" d="M 12.5 11 L 12.5 12 L 12.5 11 Z " /><path fill="rgb(31,72,157)" stroke="rgb(31,72,157)" stroke-width="1" opacity="0.996078431372549" d="M 3.5 13 L 3.5 14 L 3.5 13 Z " /><path fill="rgb(31,72,157)" stroke="rgb(31,72,157)" stroke-width="1" opacity="0.996078431372549" d="M 8.5 13 Q 11 14 9.5 15 Q 6.71 15.67 8.5 13 Z " /><path fill="rgb(31,72,157)" stroke="rgb(31,72,157)" stroke-width="1" opacity="0.996078431372549" d="M 12.5 13 L 12.5 14 L 12.5 13 Z " /><path fill="rgb(31,72,157)" stroke="rgb(31,72,157)" stroke-width="1" opacity="0.996078431372549" d="M 16.5 13 L 16.5 14 L 16.5 13 Z " /><path fill="rgb(26,68,151)" stroke="rgb(26,68,151)" stroke-width="1" opacity="0.6509803921568628" d="M 28.5 6 L 32 6.5 L 28 7 L 27.5 9 L 27 7.5 L 28.5 6 Z " /><path fill="rgb(26,68,151)" stroke="rgb(26,68,151)" stroke-width="1" opacity="0.6509803921568628" d="M 61.5 6 L 61.5 7 L 61.5 6 Z " /><path fill="rgb(26,68,151)" stroke="rgb(26,68,151)" stroke-width="1" opacity="0.6509803921568628" d="M 64.5 6 L 66 6.5 L 64.5 7 L 64.5 6 Z " /><path fill="rgb(26,68,151)" stroke="rgb(26,68,151)" stroke-width="1" opacity="0.6509803921568628" d="M 97.5 6 L 97.5 7 L 97.5 6 Z " /><path fill="rgb(26,68,151)" stroke="rgb(26,68,151)" stroke-width="1" opacity="0.6509803921568628" d="M 38.5 7 L 41 7.5 L 38.5 8 L 38.5 7 Z " /><path fill="rgb(26,68,151)" stroke="rgb(26,68,151)" stroke-width="1" opacity="0.6509803921568628" d="M 43.5 7 Q 45.75 7.75 45 11.5 L 44 11.5 L 44 8.5 L 43.5 7 Z " /><path fill="rgb(26,68,151)" stroke="rgb(26,68,151)" stroke-width="1" opacity="0.6509803921568628" d="M 46.5 7 L 46.5 8 L 46.5 7 Z " /><path fill="rgb(26,68,151)" stroke="rgb(26,68,151)" stroke-width="1" opacity="0.6509803921568628" d="M 81.5 7 L 83 7.5 L 81 8.5 L 83 9 L 82.5 11 L 80 8.5 L 81.5 7 Z " /><path fill="rgb(26,68,151)" stroke="rgb(26,68,151)" stroke-width="1" opacity="0.6509803921568628" d="M 88.5 7 L 90 7.5 L 88 8 L 87.5 11 L 87 8.5 L 88.5 7 Z " /><path fill="rgb(26,68,151)" stroke="rgb(26,68,151)" stroke-width="1" opacity="0.6509803921568628" d="M 104.5 7 L 104.5 8 L 104.5 7 Z " /><path fill="rgb(26,68,151)" stroke="rgb(26,68,151)" stroke-width="1" opacity="0.6509803921568628" d="M 114.5 7 L 114.5 8 L 114.5 7 Z " /><path fill="rgb(26,68,151)" stroke="rgb(26,68,151)" stroke-width="1" opacity="0.6509803921568628" d="M 91.5 8 L 91.5 9 L 91.5 8 Z " /><path fill="rgb(26,68,151)" stroke="rgb(26,68,151)" stroke-width="1" opacity="0.6509803921568628" d="M 99 8 L 103 8 L 103 9.5 Q 105.25 10.75 102.5 12 L 102.5 10 Q 97.69 11.33 99 8 Z " /><path fill="rgb(26,68,151)" stroke="rgb(26,68,151)" stroke-width="1" opacity="0.6509803921568628" d="M 108.5 8 L 108.5 9 L 108.5 8 Z " /><path fill="rgb(26,68,151)" stroke="rgb(26,68,151)" stroke-width="1" opacity="0.6509803921568628" d="M 124.5 8 L 124.5 9 L 124.5 8 Z " /><path fill="rgb(26,68,151)" stroke="rgb(26,68,151)" stroke-width="1" opacity="0.6509803921568628" d="M 27.5 10 L 27.5 11 L 27.5 10 Z " /><path fill="rgb(26,68,151)" stroke="rgb(26,68,151)" stroke-width="1" opacity="0.6509803921568628" d="M 37.5 10 L 37.5 11 L 37.5 10 Z " /><path fill="rgb(26,68,151)" stroke="rgb(26,68,151)" stroke-width="1" opacity="0.6509803921568628" d="M 50.5 10 L 50.5 11 L 50.5 10 Z " /><path fill="rgb(26,68,151)" stroke="rgb(26,68,151)" stroke-width="1" opacity="0.6509803921568628" d="M 117.5 10 L 117.5 11 L 117.5 10 Z " /><path fill="rgb(26,68,151)" stroke="rgb(26,68,151)" stroke-width="1" opacity="0.6509803921568628" d="M 122.5 10 L 122.5 11 L 122.5 10 Z " /><path fill="rgb(26,68,151)" stroke="rgb(26,68,151)" stroke-width="1" opacity="0.6509803921568628" d="M 106.5 11 L 106.5 12 L 106.5 11 Z " /><path fill="rgb(26,68,151)" stroke="rgb(26,68,151)" stroke-width="1" opacity="0.6509803921568628" d="M 124.5 11 L 124.5 12 L 124.5 11 Z " /><path fill="rgb(9,23,52)" stroke="rgb(9,23,52)" stroke-width="1" opacity="0.1607843137254902" d="M 34.5 6 L 34.5 7 L 34.5 6 Z " /><path fill="rgb(9,23,52)" stroke="rgb(9,23,52)" stroke-width="1" opacity="0.1607843137254902" d="M 53.5 6 L 53.5 7 L 53.5 6 Z " /><path fill="rgb(9,23,52)" stroke="rgb(9,23,52)" stroke-width="1" opacity="0.1607843137254902" d="M 59.5 6 L 59.5 7 L 59.5 6 Z " /><path fill="rgb(9,23,52)" stroke="rgb(9,23,52)" stroke-width="1" opacity="0.1607843137254902" d="M 69.5 6 L 69.5 7 L 69.5 6 Z " /><path fill="rgb(9,23,52)" stroke="rgb(9,23,52)" stroke-width="1" opacity="0.1607843137254902" d="M 72.5 6 L 72.5 7 L 72.5 6 Z " /><path fill="rgb(9,23,52)" stroke="rgb(9,23,52)" stroke-width="1" opacity="0.1607843137254902" d="M 74.5 6 L 74.5 7 L 74.5 6 Z " /><path fill="rgb(9,23,52)" stroke="rgb(9,23,52)" stroke-width="1" opacity="0.1607843137254902" d="M 77.5 6 L 77.5 7 L 77.5 6 Z " /><path fill="rgb(9,23,52)" stroke="rgb(9,23,52)" stroke-width="1" opacity="0.1607843137254902" d="M 83.5 6 L 83.5 7 L 83.5 6 Z " /><path fill="rgb(9,23,52)" stroke="rgb(9,23,52)" stroke-width="1" opacity="0.1607843137254902" d="M 86.5 6 L 86.5 7 L 86.5 6 Z " /><path fill="rgb(9,23,52)" stroke="rgb(9,23,52)" stroke-width="1" opacity="0.1607843137254902" d="M 90.5 6 L 90.5 7 L 90.5 6 Z " /><path fill="rgb(9,23,52)" stroke="rgb(9,23,52)" stroke-width="1" opacity="0.1607843137254902" d="M 107.5 6 L 110 6.5 L 107.5 7 L 107.5 6 Z " /><path fill="rgb(9,23,52)" stroke="rgb(9,23,52)" stroke-width="1" opacity="0.1607843137254902" d="M 112.5 6 L 112.5 7 L 112.5 6 Z " /><path fill="rgb(9,23,52)" stroke="rgb(9,23,52)" stroke-width="1" opacity="0.1607843137254902" d="M 119.5 6 L 119.5 7 L 119.5 6 Z " /><path fill="rgb(9,23,52)" stroke="rgb(9,23,52)" stroke-width="1" opacity="0.1607843137254902" d="M 124.5 6 L 124.5 7 L 124.5 6 Z " /><path fill="rgb(9,23,52)" stroke="rgb(9,23,52)" stroke-width="1" opacity="0.1607843137254902" d="M 126.5 6 L 126.5 7 L 126.5 6 Z " /><path fill="rgb(9,23,52)" stroke="rgb(9,23,52)" stroke-width="1" opacity="0.1607843137254902" d="M 31.5 9 L 31.5 10 L 31.5 9 Z " /><path fill="rgb(9,23,52)" stroke="rgb(9,23,52)" stroke-width="1" opacity="0.1607843137254902" d="M 105.5 10 L 105.5 11 L 105.5 10 Z " /><path fill="rgb(9,23,52)" stroke="rgb(9,23,52)" stroke-width="1" opacity="0.1607843137254902" d="M 114.5 10 L 114.5 11 L 114.5 10 Z " /><path fill="rgb(9,23,52)" stroke="rgb(9,23,52)" stroke-width="1" opacity="0.1607843137254902" d="M 85.5 11 Q 88 12 86.5 13 Q 84 12 85.5 11 Z " /><path fill="rgb(9,23,52)" stroke="rgb(9,23,52)" stroke-width="1" opacity="0.1607843137254902" d="M 108.5 11 L 108.5 12 L 108.5 11 Z " /><path fill="rgb(9,23,52)" stroke="rgb(9,23,52)" stroke-width="1" opacity="0.1607843137254902" d="M 32.5 12 L 32.5 13 L 32.5 12 Z " /><path fill="rgb(9,23,52)" stroke="rgb(9,23,52)" stroke-width="1" opacity="0.1607843137254902" d="M 97.5 12 L 97.5 13 L 97.5 12 Z " /><path fill="rgb(9,23,52)" stroke="rgb(9,23,52)" stroke-width="1" opacity="0.1607843137254902" d="M 114.5 12 L 114.5 13 L 114.5 12 Z " /><path fill="rgb(3,14,25)" stroke="rgb(3,14,25)" stroke-width="1" opacity="0.027450980392156862" d="M 19.5 2 L 19.5 3 L 19.5 2 Z " /><path fill="rgb(3,14,25)" stroke="rgb(3,14,25)" stroke-width="1" opacity="0.027450980392156862" d="M 20.5 5 L 20.5 6 L 20.5 5 Z " /><path fill="rgb(3,14,25)" stroke="rgb(3,14,25)" stroke-width="1" opacity="0.027450980392156862" d="M 35.5 6 L 35.5 7 L 35.5 6 Z " /><path fill="rgb(3,14,25)" stroke="rgb(3,14,25)" stroke-width="1" opacity="0.027450980392156862" d="M 56.5 6 L 56.5 7 L 56.5 6 Z " /><path fill="rgb(3,14,25)" stroke="rgb(3,14,25)" stroke-width="1" opacity="0.027450980392156862" d="M 67.5 6 L 67.5 7 L 67.5 6 Z " /><path fill="rgb(3,14,25)" stroke="rgb(3,14,25)" stroke-width="1" opacity="0.027450980392156862" d="M 75.5 6 L 75.5 7 L 75.5 6 Z " /><path fill="rgb(3,14,25)" stroke="rgb(3,14,25)" stroke-width="1" opacity="0.027450980392156862" d="M 78.5 6 L 78.5 7 L 78.5 6 Z " /><path fill="rgb(3,14,25)" stroke="rgb(3,14,25)" stroke-width="1" opacity="0.027450980392156862" d="M 91.5 6 L 91.5 7 L 91.5 6 Z " /><path fill="rgb(3,14,25)" stroke="rgb(3,14,25)" stroke-width="1" opacity="0.027450980392156862" d="M 96.5 6 L 96.5 7 L 96.5 6 Z " /><path fill="rgb(3,14,25)" stroke="rgb(3,14,25)" stroke-width="1" opacity="0.027450980392156862" d="M 106.5 6 L 106.5 7 L 106.5 6 Z " /><path fill="rgb(3,14,25)" stroke="rgb(3,14,25)" stroke-width="1" opacity="0.027450980392156862" d="M 114.5 6 L 114.5 7 L 114.5 6 Z " /><path fill="rgb(3,14,25)" stroke="rgb(3,14,25)" stroke-width="1" opacity="0.027450980392156862" d="M 123.5 6 L 124 7.5 L 123 7.5 L 123.5 6 Z " /><path fill="rgb(3,14,25)" stroke="rgb(3,14,25)" stroke-width="1" opacity="0.027450980392156862" d="M 59.5 7 L 59.5 8 L 59.5 7 Z " /><path fill="rgb(3,14,25)" stroke="rgb(3,14,25)" stroke-width="1" opacity="0.027450980392156862" d="M 31.5 8 L 31.5 9 L 31.5 8 Z " /><path fill="rgb(3,14,25)" stroke="rgb(3,14,25)" stroke-width="1" opacity="0.027450980392156862" d="M 90.5 8 L 90.5 9 L 90.5 8 Z " /><path fill="rgb(3,14,25)" stroke="rgb(3,14,25)" stroke-width="1" opacity="0.027450980392156862" d="M 38.5 11 L 38.5 12 L 38.5 11 Z " /><path fill="rgb(3,14,25)" stroke="rgb(3,14,25)" stroke-width="1" opacity="0.027450980392156862" d="M 43.5 11 L 43.5 12 L 43.5 11 Z " /><path fill="rgb(3,14,25)" stroke="rgb(3,14,25)" stroke-width="1" opacity="0.027450980392156862" d="M 46.5 11 L 46.5 12 L 46.5 11 Z " /><path fill="rgb(3,14,25)" stroke="rgb(3,14,25)" stroke-width="1" opacity="0.027450980392156862" d="M 75.5 11 L 75.5 12 L 75.5 11 Z " /><path fill="rgb(3,14,25)" stroke="rgb(3,14,25)" stroke-width="1" opacity="0.027450980392156862" d="M 81.5 11 L 83 11.5 L 81.5 12 L 81.5 11 Z " /><path fill="rgb(3,14,25)" stroke="rgb(3,14,25)" stroke-width="1" opacity="0.027450980392156862" d="M 119.5 11 L 119.5 12 L 119.5 11 Z " /><path fill="rgb(3,14,25)" stroke="rgb(3,14,25)" stroke-width="1" opacity="0.027450980392156862" d="M 123.5 11 Q 126 12 124.5 13 Q 121.71 13.67 123.5 11 Z " /><path fill="rgb(3,14,25)" stroke="rgb(3,14,25)" stroke-width="1" opacity="0.027450980392156862" d="M 1.5 15 L 1.5 16 L 1.5 15 Z " /><path fill="rgb(27,69,156)" stroke="rgb(27,69,156)" stroke-width="1" opacity="0.7764705882352941" d="M 60.5 6 L 60.5 7 L 60.5 6 Z " /><path fill="rgb(27,69,156)" stroke="rgb(27,69,156)" stroke-width="1" opacity="0.7764705882352941" d="M 62.5 6 L 62.5 7 L 62.5 6 Z " /><path fill="rgb(27,69,156)" stroke="rgb(27,69,156)" stroke-width="1" opacity="0.7764705882352941" d="M 66.5 6 L 66.5 7 L 66.5 6 Z " /><path fill="rgb(27,69,156)" stroke="rgb(27,69,156)" stroke-width="1" opacity="0.7764705882352941" d="M 99.5 6 L 104 6 L 104 7.5 L 102.5 7 Q 98.5 7.75 99.5 6 Z " /><path fill="rgb(27,69,156)" stroke="rgb(27,69,156)" stroke-width="1" opacity="0.7764705882352941" d="M 26.5 7 L 28 11.5 L 26 12 L 26.5 7 Z " /><path fill="rgb(27,69,156)" stroke="rgb(27,69,156)" stroke-width="1" opacity="0.7764705882352941" d="M 37.5 7 L 37 8.5 L 38 9.5 L 37 10.5 L 36.5 12 L 36 8.5 L 37.5 7 Z " /><path fill="rgb(27,69,156)" stroke="rgb(27,69,156)" stroke-width="1" opacity="0.7764705882352941" d="M 47.5 7 L 47.5 8 L 47.5 7 Z " /><path fill="rgb(27,69,156)" stroke="rgb(27,69,156)" stroke-width="1" opacity="0.7764705882352941" d="M 76.5 7 L 77 11.5 L 76 11.5 L 76.5 7 Z " /><path fill="rgb(27,69,156)" stroke="rgb(27,69,156)" stroke-width="1" opacity="0.7764705882352941" d="M 79.5 7 L 81 12 L 79 12 L 79.5 7 Z " /><path fill="rgb(27,69,156)" stroke="rgb(27,69,156)" stroke-width="1" opacity="0.7764705882352941" d="M 83.5 7 L 83.5 8 L 83.5 7 Z " /><path fill="rgb(27,69,156)" stroke="rgb(27,69,156)" stroke-width="1" opacity="0.7764705882352941" d="M 90.5 7 L 90.5 8 L 90.5 7 Z " /><path fill="rgb(27,69,156)" stroke="rgb(27,69,156)" stroke-width="1" opacity="0.7764705882352941" d="M 124.5 7 L 126 7.5 L 124.5 8 L 124.5 7 Z " /><path fill="rgb(27,69,156)" stroke="rgb(27,69,156)" stroke-width="1" opacity="0.7764705882352941" d="M 45.5 8 L 46 11.5 L 45 11.5 L 45.5 8 Z " /><path fill="rgb(27,69,156)" stroke="rgb(27,69,156)" stroke-width="1" opacity="0.7764705882352941" d="M 68.5 8 L 69 11.5 L 68 11.5 L 68.5 8 Z " /><path fill="rgb(27,69,156)" stroke="rgb(27,69,156)" stroke-width="1" opacity="0.7764705882352941" d="M 92.5 8 L 92.5 9 L 92.5 8 Z " /><path fill="rgb(27,69,156)" stroke="rgb(27,69,156)" stroke-width="1" opacity="0.7764705882352941" d="M 109.5 8 L 109.5 9 L 109.5 8 Z " /><path fill="rgb(27,69,156)" stroke="rgb(27,69,156)" stroke-width="1" opacity="0.7764705882352941" d="M 83.5 9 L 83.5 10 L 83.5 9 Z " /><path fill="rgb(27,69,156)" stroke="rgb(27,69,156)" stroke-width="1" opacity="0.7764705882352941" d="M 103.5 9 Q 106 10 104.5 11 Q 102 10 103.5 9 Z " /><path fill="rgb(27,69,156)" stroke="rgb(27,69,156)" stroke-width="1" opacity="0.7764705882352941" d="M 106.5 9 L 109 10.5 L 107.5 11 Q 105 10 106.5 9 Z " /><path fill="rgb(27,69,156)" stroke="rgb(27,69,156)" stroke-width="1" opacity="0.7764705882352941" d="M 110.5 10 L 110.5 11 L 110.5 10 Z " /><path fill="rgb(27,69,156)" stroke="rgb(27,69,156)" stroke-width="1" opacity="0.7764705882352941" d="M 124.5 10 Q 127 11 125.5 12 Q 123 11 124.5 10 Z " /><path fill="rgb(27,69,156)" stroke="rgb(27,69,156)" stroke-width="1" opacity="0.7764705882352941" d="M 83.5 11 L 85 11.5 L 83.5 12 L 83.5 11 Z " /><path fill="rgb(27,69,156)" stroke="rgb(27,69,156)" stroke-width="1" opacity="0.7764705882352941" d="M 87.5 11 L 87.5 12 L 87.5 11 Z " /><path fill="rgb(9,23,52)" stroke="rgb(9,23,52)" stroke-width="1" opacity="0.2196078431372549" d="M 33.5 6 L 33.5 7 L 33.5 6 Z " /><path fill="rgb(9,23,52)" stroke="rgb(9,23,52)" stroke-width="1" opacity="0.2196078431372549" d="M 36.5 6 L 41 6.5 L 36.5 7 L 36.5 6 Z " /><path fill="rgb(9,23,52)" stroke="rgb(9,23,52)" stroke-width="1" opacity="0.2196078431372549" d="M 42.5 6 L 48 6.5 L 42.5 7 L 42.5 6 Z " /><path fill="rgb(9,23,52)" stroke="rgb(9,23,52)" stroke-width="1" opacity="0.2196078431372549" d="M 49.5 6 L 51 6.5 L 49.5 7 L 49.5 6 Z " /><path fill="rgb(9,23,52)" stroke="rgb(9,23,52)" stroke-width="1" opacity="0.2196078431372549" d="M 54.5 6 L 56 6.5 L 54.5 7 L 54.5 6 Z " /><path fill="rgb(9,23,52)" stroke="rgb(9,23,52)" stroke-width="1" opacity="0.2196078431372549" d="M 68.5 6 L 68.5 7 L 68.5 6 Z " /><path fill="rgb(9,23,52)" stroke="rgb(9,23,52)" stroke-width="1" opacity="0.2196078431372549" d="M 73.5 6 L 73.5 7 L 73.5 6 Z " /><path fill="rgb(9,23,52)" stroke="rgb(9,23,52)" stroke-width="1" opacity="0.2196078431372549" d="M 76.5 6 L 76.5 7 L 76.5 6 Z " /><path fill="rgb(9,23,52)" stroke="rgb(9,23,52)" stroke-width="1" opacity="0.2196078431372549" d="M 79.5 6 L 83 6.5 L 79.5 7 L 79.5 6 Z " /><path fill="rgb(9,23,52)" stroke="rgb(9,23,52)" stroke-width="1" opacity="0.2196078431372549" d="M 87.5 6 L 90 6.5 L 87.5 7 L 87.5 6 Z " /><path fill="rgb(9,23,52)" stroke="rgb(9,23,52)" stroke-width="1" opacity="0.2196078431372549" d="M 113.5 6 L 113.5 7 L 113.5 6 Z " /><path fill="rgb(9,23,52)" stroke="rgb(9,23,52)" stroke-width="1" opacity="0.2196078431372549" d="M 117.5 6 L 119 6.5 L 117.5 7 L 117.5 6 Z " /><path fill="rgb(9,23,52)" stroke="rgb(9,23,52)" stroke-width="1" opacity="0.2196078431372549" d="M 121.5 6 L 123 6.5 L 121.5 7 L 121.5 6 Z " /><path fill="rgb(9,23,52)" stroke="rgb(9,23,52)" stroke-width="1" opacity="0.2196078431372549" d="M 125.5 6 L 125.5 7 L 125.5 6 Z " /><path fill="rgb(9,23,52)" stroke="rgb(9,23,52)" stroke-width="1" opacity="0.2196078431372549" d="M 32.5 8 L 33 10.5 L 32 10.5 L 32.5 8 Z " /><path fill="rgb(9,23,52)" stroke="rgb(9,23,52)" stroke-width="1" opacity="0.2196078431372549" d="M 107.5 11 L 107.5 12 L 107.5 11 Z " /><path fill="rgb(220,226,240)" stroke="rgb(220,226,240)" stroke-width="1" opacity="1" d="M 2.5 2 L 2.5 3 L 2.5 2 Z " /><path fill="rgb(220,226,240)" stroke="rgb(220,226,240)" stroke-width="1" opacity="1" d="M 4.5 4 L 5 5.5 L 4 5.5 L 4.5 4 Z " /><path fill="rgb(220,226,240)" stroke="rgb(220,226,240)" stroke-width="1" opacity="1" d="M 5.5 7 L 5.5 8 L 5.5 7 Z " /><path fill="rgb(220,226,240)" stroke="rgb(220,226,240)" stroke-width="1" opacity="1" d="M 13.5 7 L 13.5 8 L 13.5 7 Z " /><path fill="rgb(220,226,240)" stroke="rgb(220,226,240)" stroke-width="1" opacity="1" d="M 15.5 7 L 15.5 8 L 15.5 7 Z " /><path fill="rgb(220,226,240)" stroke="rgb(220,226,240)" stroke-width="1" opacity="1" d="M 10.5 9 L 10.5 10 L 10.5 9 Z " /><path fill="rgb(220,226,240)" stroke="rgb(220,226,240)" stroke-width="1" opacity="1" d="M 13.5 11 L 13.5 12 L 13.5 11 Z " /><path fill="rgb(220,226,240)" stroke="rgb(220,226,240)" stroke-width="1" opacity="1" d="M 9.5 12 L 9.5 13 L 9.5 12 Z " /><path fill="rgb(220,226,240)" stroke="rgb(220,226,240)" stroke-width="1" opacity="1" d="M 2.5 13 L 2.5 14 L 2.5 13 Z " /><path fill="rgb(220,226,240)" stroke="rgb(220,226,240)" stroke-width="1" opacity="1" d="M 13.5 13 L 16 13.5 L 13.5 14 L 13.5 13 Z " /><path fill="rgb(220,226,240)" stroke="rgb(220,226,240)" stroke-width="1" opacity="1" d="M 18.5 15 L 18.5 16 L 18.5 15 Z " /><path fill="rgb(0,89,49)" stroke="rgb(0,89,49)" stroke-width="1" opacity="0.058823529411764705" d="M 17.5 1 L 17.5 2 L 17.5 1 Z " /><path fill="rgb(0,89,49)" stroke="rgb(0,89,49)" stroke-width="1" opacity="0.058823529411764705" d="M 20.5 6 L 21 16.5 L 20 16.5 L 20.5 6 Z " /><path fill="rgb(0,89,49)" stroke="rgb(0,89,49)" stroke-width="1" opacity="0.058823529411764705" d="M 3.5 16 L 3.5 17 L 3.5 16 Z " /><path fill="rgb(8,19,42)" stroke="rgb(8,19,42)" stroke-width="1" opacity="0.09019607843137255" d="M 41.5 6 L 41.5 7 L 41.5 6 Z " /><path fill="rgb(8,19,42)" stroke="rgb(8,19,42)" stroke-width="1" opacity="0.09019607843137255" d="M 48.5 6 L 48.5 7 L 48.5 6 Z " /><path fill="rgb(8,19,42)" stroke="rgb(8,19,42)" stroke-width="1" opacity="0.09019607843137255" d="M 120.5 6 L 121 8 L 119 7.5 L 120.5 6 Z " /><path fill="rgb(8,19,42)" stroke="rgb(8,19,42)" stroke-width="1" opacity="0.09019607843137255" d="M 31.5 7 L 31.5 8 L 31.5 7 Z " /><path fill="rgb(8,19,42)" stroke="rgb(8,19,42)" stroke-width="1" opacity="0.09019607843137255" d="M 35.5 7 L 35.5 8 L 35.5 7 Z " /><path fill="rgb(8,19,42)" stroke="rgb(8,19,42)" stroke-width="1" opacity="0.09019607843137255" d="M 53.5 7 L 53.5 8 L 53.5 7 Z " /><path fill="rgb(8,19,42)" stroke="rgb(8,19,42)" stroke-width="1" opacity="0.09019607843137255" d="M 60.5 7 L 60.5 8 L 60.5 7 Z " /><path fill="rgb(8,19,42)" stroke="rgb(8,19,42)" stroke-width="1" opacity="0.09019607843137255" d="M 66.5 7 L 66.5 8 L 66.5 7 Z " /><path fill="rgb(8,19,42)" stroke="rgb(8,19,42)" stroke-width="1" opacity="0.09019607843137255" d="M 42.5 8 L 42.5 9 L 42.5 8 Z " /><path fill="rgb(8,19,42)" stroke="rgb(8,19,42)" stroke-width="1" opacity="0.09019607843137255" d="M 47.5 8 L 49 8.5 L 47.5 9 L 47.5 8 Z " /><path fill="rgb(8,19,42)" stroke="rgb(8,19,42)" stroke-width="1" opacity="0.09019607843137255" d="M 125.5 10 L 125.5 11 L 125.5 10 Z " /><path fill="rgb(8,19,42)" stroke="rgb(8,19,42)" stroke-width="1" opacity="0.09019607843137255" d="M 28.5 11 L 28.5 12 L 28.5 11 Z " /><path fill="rgb(8,19,42)" stroke="rgb(8,19,42)" stroke-width="1" opacity="0.09019607843137255" d="M 38.5 12 L 38.5 13 L 38.5 12 Z " /><path fill="rgb(8,19,42)" stroke="rgb(8,19,42)" stroke-width="1" opacity="0.09019607843137255" d="M 43.5 12 L 43.5 13 L 43.5 12 Z " /><path fill="rgb(8,19,42)" stroke="rgb(8,19,42)" stroke-width="1" opacity="0.09019607843137255" d="M 49.5 12 L 49.5 13 L 49.5 12 Z " /><path fill="rgb(8,19,42)" stroke="rgb(8,19,42)" stroke-width="1" opacity="0.09019607843137255" d="M 75.5 12 L 75.5 13 L 75.5 12 Z " /><path fill="rgb(8,19,42)" stroke="rgb(8,19,42)" stroke-width="1" opacity="0.09019607843137255" d="M 81.5 12 L 81.5 13 L 81.5 12 Z " /><path fill="rgb(8,19,42)" stroke="rgb(8,19,42)" stroke-width="1" opacity="0.09019607843137255" d="M 83.5 12 L 83.5 13 L 83.5 12 Z " /><path fill="rgb(8,19,42)" stroke="rgb(8,19,42)" stroke-width="1" opacity="0.09019607843137255" d="M 109.5 12 L 109.5 13 L 109.5 12 Z " /><path fill="rgb(8,19,42)" stroke="rgb(8,19,42)" stroke-width="1" opacity="0.09019607843137255" d="M 117.5 12 L 117.5 13 L 117.5 12 Z " /><path fill="rgb(15,52,95)" stroke="rgb(15,52,95)" stroke-width="1" opacity="0.4745098039215686" d="M 18.5 2 Q 21 3 19.5 4 Q 17 3 18.5 2 Z " /><path fill="rgb(15,52,95)" stroke="rgb(15,52,95)" stroke-width="1" opacity="0.4745098039215686" d="M 41.5 7 L 41.5 8 L 41.5 7 Z " /><path fill="rgb(15,52,95)" stroke="rgb(15,52,95)" stroke-width="1" opacity="0.4745098039215686" d="M 55.5 7 L 55.5 8 L 55.5 7 Z " /><path fill="rgb(15,52,95)" stroke="rgb(15,52,95)" stroke-width="1" opacity="0.4745098039215686" d="M 97.5 7 L 98 11.5 L 97 11.5 L 97.5 7 Z " /><path fill="rgb(15,52,95)" stroke="rgb(15,52,95)" stroke-width="1" opacity="0.4745098039215686" d="M 117.5 7 L 117.5 8 L 117.5 7 Z " /><path fill="rgb(15,52,95)" stroke="rgb(15,52,95)" stroke-width="1" opacity="0.4745098039215686" d="M 122.5 7 L 122.5 8 L 122.5 7 Z " /><path fill="rgb(15,52,95)" stroke="rgb(15,52,95)" stroke-width="1" opacity="0.4745098039215686" d="M 37.5 8 L 37.5 9 L 37.5 8 Z " /><path fill="rgb(15,52,95)" stroke="rgb(15,52,95)" stroke-width="1" opacity="0.4745098039215686" d="M 49 8 L 51 8.5 L 49.5 12 L 49 8 Z " /><path fill="rgb(15,52,95)" stroke="rgb(15,52,95)" stroke-width="1" opacity="0.4745098039215686" d="M 77.5 8 L 78 10.5 L 77 10.5 L 77.5 8 Z " /><path fill="rgb(15,52,95)" stroke="rgb(15,52,95)" stroke-width="1" opacity="0.4745098039215686" d="M 86.5 8 L 87 11.5 L 86 11.5 L 86.5 8 Z " /><path fill="rgb(15,52,95)" stroke="rgb(15,52,95)" stroke-width="1" opacity="0.4745098039215686" d="M 115.5 8 Q 118.5 9.5 115.5 11 L 115.5 8 Z " /><path fill="rgb(15,52,95)" stroke="rgb(15,52,95)" stroke-width="1" opacity="0.4745098039215686" d="M 107.5 9 L 107.5 10 L 107.5 9 Z " /><path fill="rgb(15,52,95)" stroke="rgb(15,52,95)" stroke-width="1" opacity="0.4745098039215686" d="M 37.5 11 L 37.5 12 L 37.5 11 Z " /><path fill="rgb(15,52,95)" stroke="rgb(15,52,95)" stroke-width="1" opacity="0.4745098039215686" d="M 55.5 11 L 55.5 12 L 55.5 11 Z " /><path fill="rgb(15,52,95)" stroke="rgb(15,52,95)" stroke-width="1" opacity="0.4745098039215686" d="M 62.5 11 L 62.5 12 L 62.5 11 Z " /><path fill="rgb(15,52,95)" stroke="rgb(15,52,95)" stroke-width="1" opacity="0.4745098039215686" d="M 88.5 11 L 90 11.5 L 88.5 12 L 88.5 11 Z " /><path fill="rgb(15,52,95)" stroke="rgb(15,52,95)" stroke-width="1" opacity="0.4745098039215686" d="M 99.5 11 L 102 11.5 L 99.5 12 L 99.5 11 Z " /><path fill="rgb(15,52,95)" stroke="rgb(15,52,95)" stroke-width="1" opacity="0.4745098039215686" d="M 111.5 11 L 111.5 12 L 111.5 11 Z " /><path fill="rgb(15,52,95)" stroke="rgb(15,52,95)" stroke-width="1" opacity="0.4745098039215686" d="M 122.5 11 L 122.5 12 L 122.5 11 Z " /><path fill="rgb(15,52,95)" stroke="rgb(15,52,95)" stroke-width="1" opacity="0.4745098039215686" d="M 2.5 15 L 2.5 16 L 2.5 15 Z " /><path fill="rgb(23,61,137)" stroke="rgb(23,61,137)" stroke-width="1" opacity="0.5294117647058824" d="M 49.5 7 L 51 7.5 L 49.5 8 L 49.5 7 Z " /><path fill="rgb(23,61,137)" stroke="rgb(23,61,137)" stroke-width="1" opacity="0.5294117647058824" d="M 77.5 7 L 77.5 8 L 77.5 7 Z " /><path fill="rgb(23,61,137)" stroke="rgb(23,61,137)" stroke-width="1" opacity="0.5294117647058824" d="M 86.5 7 L 86.5 8 L 86.5 7 Z " /><path fill="rgb(23,61,137)" stroke="rgb(23,61,137)" stroke-width="1" opacity="0.5294117647058824" d="M 109.5 7 L 109.5 8 L 109.5 7 Z " /><path fill="rgb(23,61,137)" stroke="rgb(23,61,137)" stroke-width="1" opacity="0.5294117647058824" d="M 123.5 8 L 123.5 9 L 123.5 8 Z " /><path fill="rgb(23,61,137)" stroke="rgb(23,61,137)" stroke-width="1" opacity="0.5294117647058824" d="M 38.5 9 L 41 9.5 L 38.5 10 L 38.5 9 Z " /><path fill="rgb(23,61,137)" stroke="rgb(23,61,137)" stroke-width="1" opacity="0.5294117647058824" d="M 114.5 9 L 114.5 10 L 114.5 9 Z " /><path fill="rgb(23,61,137)" stroke="rgb(23,61,137)" stroke-width="1" opacity="0.5294117647058824" d="M 91.5 10 Q 93 11 90.5 12 Q 89 11 91.5 10 Z " /><path fill="rgb(23,61,137)" stroke="rgb(23,61,137)" stroke-width="1" opacity="0.5294117647058824" d="M 123.5 10 L 123.5 11 L 123.5 10 Z " /><path fill="rgb(23,61,137)" stroke="rgb(23,61,137)" stroke-width="1" opacity="0.5294117647058824" d="M 50.5 11 L 50.5 12 L 50.5 11 Z " /><path fill="rgb(23,61,137)" stroke="rgb(23,61,137)" stroke-width="1" opacity="0.5294117647058824" d="M 77.5 11 L 77.5 12 L 77.5 11 Z " /><path fill="rgb(23,61,137)" stroke="rgb(23,61,137)" stroke-width="1" opacity="0.5294117647058824" d="M 104.5 11 L 106 11.5 L 104.5 12 L 104.5 11 Z " /><path fill="rgb(27,69,156)" stroke="rgb(27,69,156)" stroke-width="1" opacity="1" d="M 3.5 3 L 5 9.5 L 4.5 11 L 9 11 L 9 12.5 L 8 15 L 4 15 L 4 13.5 L 3 12.5 L 3.5 3 Z " /><path fill="rgb(27,69,156)" stroke="rgb(27,69,156)" stroke-width="1" opacity="1" d="M 9 3 Q 12 1.75 11 5.5 L 9.5 8 L 9 3 Z " /><path fill="rgb(27,69,156)" stroke="rgb(27,69,156)" stroke-width="1" opacity="1" d="M 13 3 L 17 3 L 17 4.5 L 18 5.5 L 18 15 L 10 15 L 10 12.5 L 12.5 8 L 13 9.5 L 12 11.5 L 13 12.5 L 12.5 14 L 17 14 L 17 7 L 12 6.5 Q 13.75 5.58 13 3 Z " /><path fill="rgb(27,69,156)" stroke="rgb(27,69,156)" stroke-width="1" opacity="1" d="M 33.5 7 L 34 11.5 L 33 11.5 L 33.5 7 Z " /><path fill="rgb(27,69,156)" stroke="rgb(27,69,156)" stroke-width="1" opacity="1" d="M 54.5 7 L 54.5 8 L 54.5 7 Z " /><path fill="rgb(27,69,156)" stroke="rgb(27,69,156)" stroke-width="1" opacity="1" d="M 63.5 7 L 64 11.5 L 63 11.5 L 63.5 7 Z " /><path fill="rgb(27,69,156)" stroke="rgb(27,69,156)" stroke-width="1" opacity="1" d="M 73.5 7 L 74 11.5 L 73 11.5 L 73.5 7 Z " /><path fill="rgb(27,69,156)" stroke="rgb(27,69,156)" stroke-width="1" opacity="1" d="M 98.5 7 L 99 11.5 L 98 11.5 L 98.5 7 Z " /><path fill="rgb(27,69,156)" stroke="rgb(27,69,156)" stroke-width="1" opacity="1" d="M 108.5 7 L 108.5 8 L 108.5 7 Z " /><path fill="rgb(27,69,156)" stroke="rgb(27,69,156)" stroke-width="1" opacity="1" d="M 113.5 7 L 114 11.5 L 113 11.5 L 113.5 7 Z " /><path fill="rgb(27,69,156)" stroke="rgb(27,69,156)" stroke-width="1" opacity="1" d="M 27.5 9 L 30 9.5 L 27.5 10 L 27.5 9 Z " /><path fill="rgb(27,69,156)" stroke="rgb(27,69,156)" stroke-width="1" opacity="1" d="M 51.5 9 L 51.5 10 L 51.5 9 Z " /><path fill="rgb(27,69,156)" stroke="rgb(27,69,156)" stroke-width="1" opacity="1" d="M 54.5 9 L 54.5 10 L 54.5 9 Z " /><path fill="rgb(27,69,156)" stroke="rgb(27,69,156)" stroke-width="1" opacity="1" d="M 70.5 9 L 70.5 10 L 70.5 9 Z " /><path fill="rgb(27,69,156)" stroke="rgb(27,69,156)" stroke-width="1" opacity="1" d="M 109.5 9 L 111 11.5 Q 110 13 109 10.5 L 109.5 9 Z " /><path fill="rgb(27,69,156)" stroke="rgb(27,69,156)" stroke-width="1" opacity="1" d="M 115.5 9 Q 118 10 116.5 11 Q 114 10 115.5 9 Z " /><path fill="rgb(27,69,156)" stroke="rgb(27,69,156)" stroke-width="1" opacity="1" d="M 123.5 9 L 123.5 10 L 123.5 9 Z " /><path fill="rgb(27,69,156)" stroke="rgb(27,69,156)" stroke-width="1" opacity="1" d="M 106.5 10 L 106.5 11 L 106.5 10 Z " /><path fill="rgb(254,254,254)" stroke="rgb(254,254,254)" stroke-width="1" opacity="1" d="M 14.5 7 L 14.5 8 L 14.5 7 Z " /><path fill="rgb(254,254,254)" stroke="rgb(254,254,254)" stroke-width="1" opacity="1" d="M 13.5 10 L 13.5 11 L 13.5 10 Z " /><path fill="rgb(254,254,254)" stroke="rgb(254,254,254)" stroke-width="1" opacity="1" d="M 15.5 11 L 15.5 12 L 15.5 11 Z " /><path fill="rgb(14,36,79)" stroke="rgb(14,36,79)" stroke-width="1" opacity="0.050980392156862744" d="M 28.5 8 L 31 8.5 L 28.5 9 L 28.5 8 Z " /><path fill="rgb(14,36,79)" stroke="rgb(14,36,79)" stroke-width="1" opacity="0.050980392156862744" d="M 34.5 8 L 35 10.5 L 34 10.5 L 34.5 8 Z " /><path fill="rgb(14,36,79)" stroke="rgb(14,36,79)" stroke-width="1" opacity="0.050980392156862744" d="M 83.5 8 L 83.5 9 L 83.5 8 Z " /><path fill="rgb(14,36,79)" stroke="rgb(14,36,79)" stroke-width="1" opacity="0.050980392156862744" d="M 112.5 8 L 113 12.5 L 112 12.5 L 112.5 8 Z " /><path fill="rgb(14,36,79)" stroke="rgb(14,36,79)" stroke-width="1" opacity="0.050980392156862744" d="M 28.5 10 L 30 10.5 L 28.5 11 L 28.5 10 Z " /><path fill="rgb(13,34,80)" stroke="rgb(13,34,80)" stroke-width="1" opacity="0.12549019607843137" d="M 25.5 6 L 25.5 7 L 25.5 6 Z " /><path fill="rgb(13,34,80)" stroke="rgb(13,34,80)" stroke-width="1" opacity="0.12549019607843137" d="M 48.5 7 L 48.5 8 L 48.5 7 Z " /><path fill="rgb(13,34,80)" stroke="rgb(13,34,80)" stroke-width="1" opacity="0.12549019607843137" d="M 64.5 7 L 65 10.5 L 64 10.5 L 64.5 7 Z " /><path fill="rgb(13,34,80)" stroke="rgb(13,34,80)" stroke-width="1" opacity="0.12549019607843137" d="M 85.5 7 L 85.5 8 L 85.5 7 Z " /><path fill="rgb(13,34,80)" stroke="rgb(13,34,80)" stroke-width="1" opacity="0.12549019607843137" d="M 126.5 7 L 126.5 8 L 126.5 7 Z " /><path fill="rgb(13,34,80)" stroke="rgb(13,34,80)" stroke-width="1" opacity="0.12549019607843137" d="M 69.5 8 L 69.5 9 L 69.5 8 Z " /><path fill="rgb(13,34,80)" stroke="rgb(13,34,80)" stroke-width="1" opacity="0.12549019607843137" d="M 72.5 8 L 72.5 9 L 72.5 8 Z " /><path fill="rgb(13,34,80)" stroke="rgb(13,34,80)" stroke-width="1" opacity="0.12549019607843137" d="M 85.5 9 Q 87 10 84.5 11 Q 83 10 85.5 9 Z " /><path fill="rgb(13,34,80)" stroke="rgb(13,34,80)" stroke-width="1" opacity="0.12549019607843137" d="M 124.5 9 L 124.5 10 L 124.5 9 Z " /><path fill="rgb(13,34,80)" stroke="rgb(13,34,80)" stroke-width="1" opacity="0.12549019607843137" d="M 51.5 10 L 53 10.5 L 51.5 11 L 51.5 10 Z " /><path fill="rgb(13,34,80)" stroke="rgb(13,34,80)" stroke-width="1" opacity="0.12549019607843137" d="M 70.5 10 L 73 11.5 L 71.5 11 Q 69.13 10.87 70.5 10 Z " /><path fill="rgb(13,34,80)" stroke="rgb(13,34,80)" stroke-width="1" opacity="0.12549019607843137" d="M 114.5 11 L 114.5 12 L 114.5 11 Z " /><path fill="rgb(13,34,80)" stroke="rgb(13,34,80)" stroke-width="1" opacity="0.12549019607843137" d="M 46.5 12 L 46.5 13 L 46.5 12 Z " /><path fill="rgb(13,34,80)" stroke="rgb(13,34,80)" stroke-width="1" opacity="0.12549019607843137" d="M 64.5 12 L 64.5 13 L 64.5 12 Z " /><path fill="rgb(13,34,80)" stroke="rgb(13,34,80)" stroke-width="1" opacity="0.12549019607843137" d="M 103.5 12 L 103.5 13 L 103.5 12 Z " /><path fill="rgb(13,34,80)" stroke="rgb(13,34,80)" stroke-width="1" opacity="0.12549019607843137" d="M 119.5 12 L 119.5 13 L 119.5 12 Z " /><path fill="rgb(255,255,255)" stroke="rgb(255,255,255)" stroke-width="1" opacity="1" d="M 5 4 Q 9.13 2.67 8 6 Q 3.88 7.33 5 4 Z " /><path fill="rgb(255,255,255)" stroke="rgb(255,255,255)" stroke-width="1" opacity="1" d="M 6 7 L 9 8.5 L 9 10 L 6 10 L 6 7 Z " /><path fill="rgb(255,255,255)" stroke="rgb(255,255,255)" stroke-width="1" opacity="1" d="M 14 8 Q 16.67 6.88 16 9.5 L 15 11.5 L 15.5 13 L 14 13 L 14 8 Z " /><path fill="rgb(13,37,82)" stroke="rgb(13,37,82)" stroke-width="1" opacity="0.17647058823529413" d="M 32.5 6 L 32.5 7 L 32.5 6 Z " /><path fill="rgb(13,37,82)" stroke="rgb(13,37,82)" stroke-width="1" opacity="0.17647058823529413" d="M 92.5 7 L 92.5 8 L 92.5 7 Z " /><path fill="rgb(13,37,82)" stroke="rgb(13,37,82)" stroke-width="1" opacity="0.17647058823529413" d="M 108.5 9 L 108.5 10 L 108.5 9 Z " /><path fill="rgb(13,37,82)" stroke="rgb(13,37,82)" stroke-width="1" opacity="0.17647058823529413" d="M 40.5 10 L 40.5 11 L 40.5 10 Z " /><path fill="rgb(13,37,82)" stroke="rgb(13,37,82)" stroke-width="1" opacity="0.17647058823529413" d="M 53.5 10 L 53.5 11 L 53.5 10 Z " /><path fill="rgb(13,37,82)" stroke="rgb(13,37,82)" stroke-width="1" opacity="0.17647058823529413" d="M 126.5 11 L 126.5 12 L 126.5 11 Z " /><path fill="rgb(13,37,82)" stroke="rgb(13,37,82)" stroke-width="1" opacity="0.17647058823529413" d="M 28.5 12 L 28.5 13 L 28.5 12 Z " /><path fill="rgb(13,37,82)" stroke="rgb(13,37,82)" stroke-width="1" opacity="0.17647058823529413" d="M 34.5 12 L 34.5 13 L 34.5 12 Z " /><path fill="rgb(13,37,82)" stroke="rgb(13,37,82)" stroke-width="1" opacity="0.17647058823529413" d="M 62.5 12 L 64 12.5 L 62.5 13 L 62.5 12 Z " /><path fill="rgb(13,37,82)" stroke="rgb(13,37,82)" stroke-width="1" opacity="0.17647058823529413" d="M 69.5 12 L 69.5 13 L 69.5 12 Z " /><path fill="rgb(13,37,82)" stroke="rgb(13,37,82)" stroke-width="1" opacity="0.17647058823529413" d="M 79.5 12 L 79.5 13 L 79.5 12 Z " /><path fill="rgb(13,37,82)" stroke="rgb(13,37,82)" stroke-width="1" opacity="0.17647058823529413" d="M 85.5 12 L 85.5 13 L 85.5 12 Z " /><path fill="rgb(6,13,46)" stroke="rgb(6,13,46)" stroke-width="1" opacity="0.0196078431372549" d="M 84.5 6 L 84.5 7 L 84.5 6 Z " /><path fill="rgb(6,13,46)" stroke="rgb(6,13,46)" stroke-width="1" opacity="0.0196078431372549" d="M 67.5 7 L 67.5 8 L 67.5 7 Z " /><path fill="rgb(6,13,46)" stroke="rgb(6,13,46)" stroke-width="1" opacity="0.0196078431372549" d="M 75.5 7 L 75.5 8 L 75.5 7 Z " /><path fill="rgb(6,13,46)" stroke="rgb(6,13,46)" stroke-width="1" opacity="0.0196078431372549" d="M 78.5 7 L 78.5 8 L 78.5 7 Z " /><path fill="rgb(6,13,46)" stroke="rgb(6,13,46)" stroke-width="1" opacity="0.0196078431372549" d="M 106.5 7 L 106.5 8 L 106.5 7 Z " /><path fill="rgb(6,13,46)" stroke="rgb(6,13,46)" stroke-width="1" opacity="0.0196078431372549" d="M 41.5 8 L 41.5 9 L 41.5 8 Z " /><path fill="rgb(6,13,46)" stroke="rgb(6,13,46)" stroke-width="1" opacity="0.0196078431372549" d="M 110.5 8 L 110.5 9 L 110.5 8 Z " /><path fill="rgb(6,13,46)" stroke="rgb(6,13,46)" stroke-width="1" opacity="0.0196078431372549" d="M 125.5 8 L 125.5 9 L 125.5 8 Z " /><path fill="rgb(6,13,46)" stroke="rgb(6,13,46)" stroke-width="1" opacity="0.0196078431372549" d="M 30.5 10 L 30.5 11 L 30.5 10 Z " /><path fill="rgb(6,13,46)" stroke="rgb(6,13,46)" stroke-width="1" opacity="0.0196078431372549" d="M 111.5 10 L 111.5 11 L 111.5 10 Z " /><path fill="rgb(6,13,46)" stroke="rgb(6,13,46)" stroke-width="1" opacity="0.0196078431372549" d="M 61.5 11 L 62 12.5 L 61 12.5 L 61.5 11 Z " /><path fill="rgb(6,13,46)" stroke="rgb(6,13,46)" stroke-width="1" opacity="0.0196078431372549" d="M 56.5 12 L 56.5 13 L 56.5 12 Z " /><path fill="rgb(6,13,46)" stroke="rgb(6,13,46)" stroke-width="1" opacity="0.0196078431372549" d="M 72.5 12 L 72.5 13 L 72.5 12 Z " /><path fill="rgb(6,13,46)" stroke="rgb(6,13,46)" stroke-width="1" opacity="0.0196078431372549" d="M 91.5 12 L 91.5 13 L 91.5 12 Z " /><path fill="rgb(6,13,46)" stroke="rgb(6,13,46)" stroke-width="1" opacity="0.0196078431372549" d="M 104.5 12 L 104.5 13 L 104.5 12 Z " /><path fill="rgb(15,43,92)" stroke="rgb(15,43,92)" stroke-width="1" opacity="0.2196078431372549" d="M 32.5 7 L 32.5 8 L 32.5 7 Z " /><path fill="rgb(15,43,92)" stroke="rgb(15,43,92)" stroke-width="1" opacity="0.2196078431372549" d="M 34.5 7 L 34.5 8 L 34.5 7 Z " /><path fill="rgb(15,43,92)" stroke="rgb(15,43,92)" stroke-width="1" opacity="0.2196078431372549" d="M 69.5 7 L 69.5 8 L 69.5 7 Z " /><path fill="rgb(15,43,92)" stroke="rgb(15,43,92)" stroke-width="1" opacity="0.2196078431372549" d="M 72.5 7 L 72.5 8 L 72.5 7 Z " /><path fill="rgb(15,43,92)" stroke="rgb(15,43,92)" stroke-width="1" opacity="0.2196078431372549" d="M 112.5 7 L 112.5 8 L 112.5 7 Z " /><path fill="rgb(15,43,92)" stroke="rgb(15,43,92)" stroke-width="1" opacity="0.2196078431372549" d="M 104.5 8 L 105 9.5 L 104 9.5 L 104.5 8 Z " /><path fill="rgb(15,43,92)" stroke="rgb(15,43,92)" stroke-width="1" opacity="0.2196078431372549" d="M 72.5 10 L 72.5 11 L 72.5 10 Z " /><path fill="rgb(15,43,92)" stroke="rgb(15,43,92)" stroke-width="1" opacity="0.2196078431372549" d="M 34.5 11 L 34.5 12 L 34.5 11 Z " /><path fill="rgb(15,43,92)" stroke="rgb(15,43,92)" stroke-width="1" opacity="0.2196078431372549" d="M 64.5 11 L 64.5 12 L 64.5 11 Z " /><path fill="rgb(15,43,92)" stroke="rgb(15,43,92)" stroke-width="1" opacity="0.2196078431372549" d="M 69.5 11 L 69.5 12 L 69.5 11 Z " /><path fill="rgb(15,38,86)" stroke="rgb(15,38,86)" stroke-width="1" opacity="0.3333333333333333" d="M 74.5 7 L 74.5 8 L 74.5 7 Z " /><path fill="rgb(15,38,86)" stroke="rgb(15,38,86)" stroke-width="1" opacity="0.3333333333333333" d="M 55.5 8 L 56 10.5 L 55 10.5 L 55.5 8 Z " /><path fill="rgb(15,38,86)" stroke="rgb(15,38,86)" stroke-width="1" opacity="0.3333333333333333" d="M 85.5 8 L 85.5 9 L 85.5 8 Z " /><path fill="rgb(15,38,86)" stroke="rgb(15,38,86)" stroke-width="1" opacity="0.3333333333333333" d="M 122.5 8 L 122.5 9 L 122.5 8 Z " /><path fill="rgb(15,38,86)" stroke="rgb(15,38,86)" stroke-width="1" opacity="0.3333333333333333" d="M 91.5 9 L 91.5 10 L 91.5 9 Z " /><path fill="rgb(15,38,86)" stroke="rgb(15,38,86)" stroke-width="1" opacity="0.3333333333333333" d="M 38.5 10 L 40 10.5 L 38.5 11 L 38.5 10 Z " /><path fill="rgb(15,38,86)" stroke="rgb(15,38,86)" stroke-width="1" opacity="0.3333333333333333" d="M 69.5 10 L 69.5 11 L 69.5 10 Z " /><path fill="rgb(15,38,86)" stroke="rgb(15,38,86)" stroke-width="1" opacity="0.3333333333333333" d="M 74.5 11 L 74.5 12 L 74.5 11 Z " /><path fill="rgb(15,38,86)" stroke="rgb(15,38,86)" stroke-width="1" opacity="0.3333333333333333" d="M 92.5 11 L 92.5 12 L 92.5 11 Z " /><path fill="rgb(15,38,86)" stroke="rgb(15,38,86)" stroke-width="1" opacity="0.3333333333333333" d="M 109.5 11 L 109.5 12 L 109.5 11 Z " /><path fill="rgb(15,38,86)" stroke="rgb(15,38,86)" stroke-width="1" opacity="0.3333333333333333" d="M 98.5 12 L 102 12.5 L 98.5 13 L 98.5 12 Z " /><path fill="rgb(15,38,86)" stroke="rgb(15,38,86)" stroke-width="1" opacity="0.3333333333333333" d="M 1.5 14 L 1.5 15 L 1.5 14 Z " /><path fill="rgb(13,35,81)" stroke="rgb(13,35,81)" stroke-width="1" opacity="0.25882352941176473" d="M 104.5 6 L 104.5 7 L 104.5 6 Z " /><path fill="rgb(13,35,81)" stroke="rgb(13,35,81)" stroke-width="1" opacity="0.25882352941176473" d="M 62.5 7 L 63 10.5 L 62 10.5 L 62.5 7 Z " /><path fill="rgb(13,35,81)" stroke="rgb(13,35,81)" stroke-width="1" opacity="0.25882352941176473" d="M 74.5 8 L 75 10.5 L 74 10.5 L 74.5 8 Z " /><path fill="rgb(13,35,81)" stroke="rgb(13,35,81)" stroke-width="1" opacity="0.25882352941176473" d="M 106.5 8 L 106.5 9 L 106.5 8 Z " /><path fill="rgb(13,35,81)" stroke="rgb(13,35,81)" stroke-width="1" opacity="0.25882352941176473" d="M 117.5 8 L 118 9.5 L 117 9.5 L 117.5 8 Z " /><path fill="rgb(13,35,81)" stroke="rgb(13,35,81)" stroke-width="1" opacity="0.25882352941176473" d="M 110.5 9 L 110.5 10 L 110.5 9 Z " /><path fill="rgb(13,35,81)" stroke="rgb(13,35,81)" stroke-width="1" opacity="0.25882352941176473" d="M 81.5 10 L 81.5 11 L 81.5 10 Z " /><path fill="rgb(13,35,81)" stroke="rgb(13,35,81)" stroke-width="1" opacity="0.25882352941176473" d="M 32.5 11 Q 35 12 33.5 13 Q 31 12 32.5 11 Z " /><path fill="rgb(13,35,81)" stroke="rgb(13,35,81)" stroke-width="1" opacity="0.25882352941176473" d="M 116.5 11 L 116.5 12 L 116.5 11 Z " /><path fill="rgb(13,35,81)" stroke="rgb(13,35,81)" stroke-width="1" opacity="0.25882352941176473" d="M 26.5 12 L 28 12.5 L 26.5 13 L 26.5 12 Z " /><path fill="rgb(13,35,81)" stroke="rgb(13,35,81)" stroke-width="1" opacity="0.25882352941176473" d="M 36.5 12 L 38 12.5 L 36.5 13 L 36.5 12 Z " /><path fill="rgb(13,35,81)" stroke="rgb(13,35,81)" stroke-width="1" opacity="0.25882352941176473" d="M 44.5 12 L 46 12.5 L 44.5 13 L 44.5 12 Z " /><path fill="rgb(13,35,81)" stroke="rgb(13,35,81)" stroke-width="1" opacity="0.25882352941176473" d="M 50.5 12 L 50.5 13 L 50.5 12 Z " /><path fill="rgb(13,35,81)" stroke="rgb(13,35,81)" stroke-width="1" opacity="0.25882352941176473" d="M 54.5 12 L 56 12.5 L 54.5 13 L 54.5 12 Z " /><path fill="rgb(13,35,81)" stroke="rgb(13,35,81)" stroke-width="1" opacity="0.25882352941176473" d="M 68.5 12 L 68.5 13 L 68.5 12 Z " /><path fill="rgb(13,35,81)" stroke="rgb(13,35,81)" stroke-width="1" opacity="0.25882352941176473" d="M 73.5 12 L 75 12.5 L 73.5 13 L 73.5 12 Z " /><path fill="rgb(13,35,81)" stroke="rgb(13,35,81)" stroke-width="1" opacity="0.25882352941176473" d="M 76.5 12 L 78 12.5 L 76.5 13 L 76.5 12 Z " /><path fill="rgb(13,35,81)" stroke="rgb(13,35,81)" stroke-width="1" opacity="0.25882352941176473" d="M 80.5 12 L 80.5 13 L 80.5 12 Z " /><path fill="rgb(13,35,81)" stroke="rgb(13,35,81)" stroke-width="1" opacity="0.25882352941176473" d="M 84.5 12 L 84.5 13 L 84.5 12 Z " /><path fill="rgb(13,35,81)" stroke="rgb(13,35,81)" stroke-width="1" opacity="0.25882352941176473" d="M 87.5 12 L 91 12.5 L 87.5 13 L 87.5 12 Z " /><path fill="rgb(13,35,81)" stroke="rgb(13,35,81)" stroke-width="1" opacity="0.25882352941176473" d="M 102.5 12 L 102.5 13 L 102.5 12 Z " /><path fill="rgb(13,35,81)" stroke="rgb(13,35,81)" stroke-width="1" opacity="0.25882352941176473" d="M 105.5 12 L 107 12.5 L 105.5 13 L 105.5 12 Z " /><path fill="rgb(13,35,81)" stroke="rgb(13,35,81)" stroke-width="1" opacity="0.25882352941176473" d="M 110.5 12 L 112 12.5 L 110.5 13 L 110.5 12 Z " /><path fill="rgb(13,35,81)" stroke="rgb(13,35,81)" stroke-width="1" opacity="0.25882352941176473" d="M 113.5 12 L 113.5 13 L 113.5 12 Z " /><path fill="rgb(13,35,81)" stroke="rgb(13,35,81)" stroke-width="1" opacity="0.25882352941176473" d="M 118.5 12 L 118.5 13 L 118.5 12 Z " /><path fill="rgb(13,35,81)" stroke="rgb(13,35,81)" stroke-width="1" opacity="0.25882352941176473" d="M 121.5 12 L 123 12.5 L 121.5 13 L 121.5 12 Z " /><path fill="rgb(13,35,81)" stroke="rgb(13,35,81)" stroke-width="1" opacity="0.25882352941176473" d="M 125.5 12 L 127 12.5 L 125.5 13 L 125.5 12 Z " /><path fill="rgb(8,176,105)" stroke="rgb(8,176,105)" stroke-width="1" opacity="0.9411764705882353" d="M 1 1 L 16.5 1 L 18 2.5 L 16.5 2 L 2 2 L 2 13.5 L 4.5 16 L 19 16 L 19.5 4 L 20 17 L 4.5 17 L 1 13.5 L 1 1 Z " /></svg>