<svg width="16" height="16" version="1.1" xmlns="http://www.w3.org/2000/svg" desc="Created with imagetracer.js version 1.2.6" ><path fill="rgb(63,63,63)" stroke="rgb(63,63,63)" stroke-width="1" opacity="1" d="M 14.5 1 L 14.5 2 L 14.5 1 Z " /><path fill="rgb(63,63,63)" stroke="rgb(63,63,63)" stroke-width="1" opacity="1" d="M 11.5 2 L 11.5 3 L 11.5 2 Z " /><path fill="rgb(63,63,63)" stroke="rgb(63,63,63)" stroke-width="1" opacity="1" d="M 2.5 8 L 2.5 9 L 2.5 8 Z " /><path fill="rgb(63,63,63)" stroke="rgb(63,63,63)" stroke-width="1" opacity="1" d="M 4.5 8 L 4.5 9 L 4.5 8 Z " /><path fill="rgb(255,255,255)" stroke="rgb(255,255,255)" stroke-width="1" opacity="1" d="M 0 0 Q 3.33 -1.31 2 3.5 L 0.5 8 L 0 0 Z " /><path fill="rgb(255,255,255)" stroke="rgb(255,255,255)" stroke-width="1" opacity="1" d="M 10.5 10 L 10.5 11 L 10.5 10 Z " /><path fill="rgb(255,255,255)" stroke="rgb(255,255,255)" stroke-width="1" opacity="1" d="M 13.5 10 L 16 10.5 L 13.5 11 L 13.5 10 Z " /><path fill="rgb(250,250,250)" stroke="rgb(250,250,250)" stroke-width="1" opacity="1" d="M 3.5 0 L 3.5 1 L 3.5 0 Z " /><path fill="rgb(250,250,250)" stroke="rgb(250,250,250)" stroke-width="1" opacity="1" d="M 3.5 2 L 3.5 3 L 3.5 2 Z " /><path fill="rgb(250,250,250)" stroke="rgb(250,250,250)" stroke-width="1" opacity="1" d="M 9.5 2 Q 12.13 1.17 11 4.5 L 10 4.5 L 9.5 2 Z " /><path fill="rgb(250,250,250)" stroke="rgb(250,250,250)" stroke-width="1" opacity="1" d="M 2.5 5 L 2.5 6 L 2.5 5 Z " /><path fill="rgb(250,250,250)" stroke="rgb(250,250,250)" stroke-width="1" opacity="1" d="M 9.5 6 L 11 8.5 Q 10 10 9 7.5 L 9.5 6 Z " /><path fill="rgb(250,250,250)" stroke="rgb(250,250,250)" stroke-width="1" opacity="1" d="M 0.5 11 L 0.5 12 L 0.5 11 Z " /><path fill="rgb(250,250,250)" stroke="rgb(250,250,250)" stroke-width="1" opacity="1" d="M 10.5 11 L 11 12.5 L 10 12.5 L 10.5 11 Z " /><path fill="rgb(250,250,250)" stroke="rgb(250,250,250)" stroke-width="1" opacity="1" d="M 4.5 13 L 4.5 14 L 4.5 13 Z " /><path fill="rgb(250,250,250)" stroke="rgb(250,250,250)" stroke-width="1" opacity="1" d="M 0.5 15 L 0.5 16 L 0.5 15 Z " /><path fill="rgb(250,250,250)" stroke="rgb(250,250,250)" stroke-width="1" opacity="1" d="M 4.5 15 L 4.5 16 L 4.5 15 Z " /><path fill="rgb(250,250,250)" stroke="rgb(250,250,250)" stroke-width="1" opacity="1" d="M 10.5 15 L 10.5 16 L 10.5 15 Z " /><path fill="rgb(0,0,0)" stroke="rgb(0,0,0)" stroke-width="1" opacity="1" d="M 5.5 2 Q 7.75 1.25 7 3.5 Q 5.5 6.5 4 3.5 L 5.5 2 Z " /><path fill="rgb(0,0,0)" stroke="rgb(0,0,0)" stroke-width="1" opacity="1" d="M 13.5 2 L 13.5 3 L 13.5 2 Z " /><path fill="rgb(0,0,0)" stroke="rgb(0,0,0)" stroke-width="1" opacity="1" d="M 8.5 4 L 8.5 5 L 8.5 4 Z " /><path fill="rgb(0,0,0)" stroke="rgb(0,0,0)" stroke-width="1" opacity="1" d="M 13.5 7 L 13.5 8 L 13.5 7 Z " /><path fill="rgb(0,0,0)" stroke="rgb(0,0,0)" stroke-width="1" opacity="1" d="M 3 9 L 9 9.5 Q 6.58 10.58 6.5 14 L 6 11 Q 1.87 12.33 3 9 Z " /><path fill="rgb(0,0,0)" stroke="rgb(0,0,0)" stroke-width="1" opacity="1" d="M 13.5 13 L 13.5 14 L 13.5 13 Z " /><path fill="rgb(150,150,150)" stroke="rgb(150,150,150)" stroke-width="1" opacity="1" d="M 7.5 1 L 8 2.5 L 7 2.5 L 7.5 1 Z " /><path fill="rgb(150,150,150)" stroke="rgb(150,150,150)" stroke-width="1" opacity="1" d="M 4.5 6 L 4.5 7 L 4.5 6 Z " /><path fill="rgb(150,150,150)" stroke="rgb(150,150,150)" stroke-width="1" opacity="1" d="M 14.5 14 L 14.5 15 L 14.5 14 Z " /><path fill="rgb(251,251,251)" stroke="rgb(251,251,251)" stroke-width="1" opacity="1" d="M 15.5 0 L 15.5 1 L 15.5 0 Z " /><path fill="rgb(251,251,251)" stroke="rgb(251,251,251)" stroke-width="1" opacity="1" d="M 8.5 2 L 8.5 3 L 8.5 2 Z " /><path fill="rgb(251,251,251)" stroke="rgb(251,251,251)" stroke-width="1" opacity="1" d="M 15.5 5 L 15.5 6 L 15.5 5 Z " /><path fill="rgb(251,251,251)" stroke="rgb(251,251,251)" stroke-width="1" opacity="1" d="M 1.5 7 L 1.5 8 L 1.5 7 Z " /><path fill="rgb(251,251,251)" stroke="rgb(251,251,251)" stroke-width="1" opacity="1" d="M 8.5 7 L 8.5 8 L 8.5 7 Z " /><path fill="rgb(251,251,251)" stroke="rgb(251,251,251)" stroke-width="1" opacity="1" d="M 0.5 9 L 1 10.5 L 0 10.5 L 0.5 9 Z " /><path fill="rgb(251,251,251)" stroke="rgb(251,251,251)" stroke-width="1" opacity="1" d="M 15.5 12 L 15.5 13 L 15.5 12 Z " /><path fill="rgb(251,251,251)" stroke="rgb(251,251,251)" stroke-width="1" opacity="1" d="M 9.5 13 L 9.5 14 L 9.5 13 Z " /><path fill="rgb(251,251,251)" stroke="rgb(251,251,251)" stroke-width="1" opacity="1" d="M 15.5 14 L 15.5 15 L 15.5 14 Z " /><path fill="rgb(251,251,251)" stroke="rgb(251,251,251)" stroke-width="1" opacity="1" d="M 1.5 15 L 3 15.5 L 1.5 16 L 1.5 15 Z " /><path fill="rgb(251,251,251)" stroke="rgb(251,251,251)" stroke-width="1" opacity="1" d="M 5.5 15 L 5.5 16 L 5.5 15 Z " /><path fill="rgb(251,251,251)" stroke="rgb(251,251,251)" stroke-width="1" opacity="1" d="M 7.5 15 L 7.5 16 L 7.5 15 Z " /><path fill="rgb(50,50,50)" stroke="rgb(50,50,50)" stroke-width="1" opacity="1" d="M 12.5 3 L 12.5 4 L 12.5 3 Z " /><path fill="rgb(50,50,50)" stroke="rgb(50,50,50)" stroke-width="1" opacity="1" d="M 3.5 5 L 3.5 6 L 3.5 5 Z " /><path fill="rgb(50,50,50)" stroke="rgb(50,50,50)" stroke-width="1" opacity="1" d="M 5.5 5 L 5.5 6 L 5.5 5 Z " /><path fill="rgb(50,50,50)" stroke="rgb(50,50,50)" stroke-width="1" opacity="1" d="M 8.5 5 L 8.5 6 L 8.5 5 Z " /><path fill="rgb(50,50,50)" stroke="rgb(50,50,50)" stroke-width="1" opacity="1" d="M 5.5 11 L 5.5 12 L 5.5 11 Z " /><path fill="rgb(107,107,107)" stroke="rgb(107,107,107)" stroke-width="1" opacity="1" d="M 4.5 1 L 4.5 2 L 4.5 1 Z " /><path fill="rgb(107,107,107)" stroke="rgb(107,107,107)" stroke-width="1" opacity="1" d="M 7.5 3 L 7.5 4 L 7.5 3 Z " /><path fill="rgb(107,107,107)" stroke="rgb(107,107,107)" stroke-width="1" opacity="1" d="M 14.5 3 L 14.5 4 L 14.5 3 Z " /><path fill="rgb(107,107,107)" stroke="rgb(107,107,107)" stroke-width="1" opacity="1" d="M 11.5 8 L 11.5 9 L 11.5 8 Z " /><path fill="rgb(107,107,107)" stroke="rgb(107,107,107)" stroke-width="1" opacity="1" d="M 9.5 9 L 9.5 10 L 9.5 9 Z " /><path fill="rgb(254,254,254)" stroke="rgb(254,254,254)" stroke-width="1" opacity="1" d="M 2.5 0 L 3 1.5 L 2 1.5 L 2.5 0 Z " /><path fill="rgb(254,254,254)" stroke="rgb(254,254,254)" stroke-width="1" opacity="1" d="M 9.5 1 L 9.5 2 L 9.5 1 Z " /><path fill="rgb(254,254,254)" stroke="rgb(254,254,254)" stroke-width="1" opacity="1" d="M 2.5 3 Q 4 4 1.5 5 Q 0 4 2.5 3 Z " /><path fill="rgb(254,254,254)" stroke="rgb(254,254,254)" stroke-width="1" opacity="1" d="M 13.5 4 L 13.5 5 L 13.5 4 Z " /><path fill="rgb(254,254,254)" stroke="rgb(254,254,254)" stroke-width="1" opacity="1" d="M 0.5 8 L 0.5 9 L 0.5 8 Z " /><path fill="rgb(254,254,254)" stroke="rgb(254,254,254)" stroke-width="1" opacity="1" d="M 13.5 9 L 16 9.5 L 13.5 10 L 13.5 9 Z " /><path fill="rgb(254,254,254)" stroke="rgb(254,254,254)" stroke-width="1" opacity="1" d="M 9.5 14 L 10 15.5 L 9 15.5 L 9.5 14 Z " /><path fill="rgb(123,123,123)" stroke="rgb(123,123,123)" stroke-width="1" opacity="1" d="M 11.5 3 L 11.5 4 L 11.5 3 Z " /><path fill="rgb(123,123,123)" stroke="rgb(123,123,123)" stroke-width="1" opacity="1" d="M 3.5 4 L 3.5 5 L 3.5 4 Z " /><path fill="rgb(123,123,123)" stroke="rgb(123,123,123)" stroke-width="1" opacity="1" d="M 5.5 8 L 5.5 9 L 5.5 8 Z " /><path fill="rgb(123,123,123)" stroke="rgb(123,123,123)" stroke-width="1" opacity="1" d="M 5.5 12 L 6 13.5 L 5 13.5 L 5.5 12 Z " /><path fill="rgb(1,1,1)" stroke="rgb(1,1,1)" stroke-width="1" opacity="1" d="M 12.5 2 L 12.5 3 L 12.5 2 Z " /><path fill="rgb(1,1,1)" stroke="rgb(1,1,1)" stroke-width="1" opacity="1" d="M 4.5 4 L 4.5 5 L 4.5 4 Z " /><path fill="rgb(1,1,1)" stroke="rgb(1,1,1)" stroke-width="1" opacity="1" d="M 6 4 L 8 4.5 Q 7 7 6 5.5 L 6 4 Z " /><path fill="rgb(1,1,1)" stroke="rgb(1,1,1)" stroke-width="1" opacity="1" d="M 3.5 7 L 4 8.5 L 3 8.5 L 3.5 7 Z " /><path fill="rgb(1,1,1)" stroke="rgb(1,1,1)" stroke-width="1" opacity="1" d="M 12.5 7 L 12.5 8 L 12.5 7 Z " /><path fill="rgb(1,1,1)" stroke="rgb(1,1,1)" stroke-width="1" opacity="1" d="M 6.5 8 L 6.5 9 L 6.5 8 Z " /><path fill="rgb(1,1,1)" stroke="rgb(1,1,1)" stroke-width="1" opacity="1" d="M 2.5 10 L 3 12.5 Q 2 15 1 13.5 L 2.5 10 Z " /><path fill="rgb(1,1,1)" stroke="rgb(1,1,1)" stroke-width="1" opacity="1" d="M 8.5 10 L 8.5 11 L 8.5 10 Z " /><path fill="rgb(1,1,1)" stroke="rgb(1,1,1)" stroke-width="1" opacity="1" d="M 12.5 13 L 12.5 14 L 12.5 13 Z " /><path fill="rgb(26,26,26)" stroke="rgb(26,26,26)" stroke-width="1" opacity="1" d="M 4.5 2 L 4.5 3 L 4.5 2 Z " /><path fill="rgb(26,26,26)" stroke="rgb(26,26,26)" stroke-width="1" opacity="1" d="M 4.5 5 L 4.5 6 L 4.5 5 Z " /><path fill="rgb(26,26,26)" stroke="rgb(26,26,26)" stroke-width="1" opacity="1" d="M 7.5 5 L 7 6.5 L 6.5 8 L 6 6.5 L 7.5 5 Z " /><path fill="rgb(26,26,26)" stroke="rgb(26,26,26)" stroke-width="1" opacity="1" d="M 2.5 13 L 2.5 14 L 2.5 13 Z " /><path fill="rgb(241,241,241)" stroke="rgb(241,241,241)" stroke-width="1" opacity="1" d="M 9.5 3 L 9.5 4 L 9.5 3 Z " /><path fill="rgb(241,241,241)" stroke="rgb(241,241,241)" stroke-width="1" opacity="1" d="M 10.5 5 L 10.5 6 L 10.5 5 Z " /><path fill="rgb(241,241,241)" stroke="rgb(241,241,241)" stroke-width="1" opacity="1" d="M 8.5 6 L 8.5 7 L 8.5 6 Z " /><path fill="rgb(241,241,241)" stroke="rgb(241,241,241)" stroke-width="1" opacity="1" d="M 5.5 7 L 5.5 8 L 5.5 7 Z " /><path fill="rgb(241,241,241)" stroke="rgb(241,241,241)" stroke-width="1" opacity="1" d="M 3.5 13 L 3.5 14 L 3.5 13 Z " /><path fill="rgb(136,136,136)" stroke="rgb(136,136,136)" stroke-width="1" opacity="1" d="M 12.5 5 L 12.5 6 L 12.5 5 Z " /><path fill="rgb(136,136,136)" stroke="rgb(136,136,136)" stroke-width="1" opacity="1" d="M 7.5 6 L 9 8.5 Q 8 10 7 7.5 L 7.5 6 Z " /><path fill="rgb(136,136,136)" stroke="rgb(136,136,136)" stroke-width="1" opacity="1" d="M 2.5 7 L 2.5 8 L 2.5 7 Z " /><path fill="rgb(136,136,136)" stroke="rgb(136,136,136)" stroke-width="1" opacity="1" d="M 13.5 8 L 13.5 9 L 13.5 8 Z " /><path fill="rgb(136,136,136)" stroke="rgb(136,136,136)" stroke-width="1" opacity="1" d="M 11.5 12 L 11.5 13 L 11.5 12 Z " /><path fill="rgb(136,136,136)" stroke="rgb(136,136,136)" stroke-width="1" opacity="1" d="M 1.5 14 L 1.5 15 L 1.5 14 Z " /><path fill="rgb(216,216,216)" stroke="rgb(216,216,216)" stroke-width="1" opacity="1" d="M 5.5 0 L 7 0.5 L 5.5 1 L 5.5 0 Z " /><path fill="rgb(216,216,216)" stroke="rgb(216,216,216)" stroke-width="1" opacity="1" d="M 10.5 0 L 14 0.5 L 10.5 1 L 10.5 0 Z " /><path fill="rgb(216,216,216)" stroke="rgb(216,216,216)" stroke-width="1" opacity="1" d="M 13.5 5 L 13.5 6 L 13.5 5 Z " /><path fill="rgb(216,216,216)" stroke="rgb(216,216,216)" stroke-width="1" opacity="1" d="M 2.5 6 L 2.5 7 L 2.5 6 Z " /><path fill="rgb(216,216,216)" stroke="rgb(216,216,216)" stroke-width="1" opacity="1" d="M 11.5 10 L 11.5 11 L 11.5 10 Z " /><path fill="rgb(253,253,253)" stroke="rgb(253,253,253)" stroke-width="1" opacity="1" d="M 9.5 0 L 9.5 1 L 9.5 0 Z " /><path fill="rgb(253,253,253)" stroke="rgb(253,253,253)" stroke-width="1" opacity="1" d="M 2.5 2 L 2.5 3 L 2.5 2 Z " /><path fill="rgb(253,253,253)" stroke="rgb(253,253,253)" stroke-width="1" opacity="1" d="M 2.5 4 L 2.5 5 L 2.5 4 Z " /><path fill="rgb(253,253,253)" stroke="rgb(253,253,253)" stroke-width="1" opacity="1" d="M 1.5 6 L 1.5 7 L 1.5 6 Z " /><path fill="rgb(253,253,253)" stroke="rgb(253,253,253)" stroke-width="1" opacity="1" d="M 10.5 9 L 10.5 10 L 10.5 9 Z " /><path fill="rgb(253,253,253)" stroke="rgb(253,253,253)" stroke-width="1" opacity="1" d="M 8.5 14 L 8.5 15 L 8.5 14 Z " /><path fill="rgb(253,253,253)" stroke="rgb(253,253,253)" stroke-width="1" opacity="1" d="M 6.5 15 L 6.5 16 L 6.5 15 Z " /><path fill="rgb(253,253,253)" stroke="rgb(253,253,253)" stroke-width="1" opacity="1" d="M 12.5 15 L 12.5 16 L 12.5 15 Z " /><path fill="rgb(6,6,6)" stroke="rgb(6,6,6)" stroke-width="1" opacity="1" d="M 5.5 1 L 7 1.5 L 5.5 2 L 5.5 1 Z " /><path fill="rgb(6,6,6)" stroke="rgb(6,6,6)" stroke-width="1" opacity="1" d="M 11.5 1 L 14 1.5 L 11.5 2 L 11.5 1 Z " /><path fill="rgb(6,6,6)" stroke="rgb(6,6,6)" stroke-width="1" opacity="1" d="M 3.5 6 L 3.5 7 L 3.5 6 Z " /><path fill="rgb(6,6,6)" stroke="rgb(6,6,6)" stroke-width="1" opacity="1" d="M 11 6 L 14 6.5 L 11.5 8 L 11 6 Z " /><path fill="rgb(6,6,6)" stroke="rgb(6,6,6)" stroke-width="1" opacity="1" d="M 2.5 9 L 2.5 10 L 2.5 9 Z " /><path fill="rgb(6,6,6)" stroke="rgb(6,6,6)" stroke-width="1" opacity="1" d="M 1.5 12 L 1.5 13 L 1.5 12 Z " /><path fill="rgb(6,6,6)" stroke="rgb(6,6,6)" stroke-width="1" opacity="1" d="M 12.5 12 L 14 12.5 L 12.5 13 L 12.5 12 Z " /><path fill="rgb(160,160,160)" stroke="rgb(160,160,160)" stroke-width="1" opacity="1" d="M 10.5 1 L 10.5 2 L 10.5 1 Z " /><path fill="rgb(160,160,160)" stroke="rgb(160,160,160)" stroke-width="1" opacity="1" d="M 9.5 4 L 9.5 5 L 9.5 4 Z " /><path fill="rgb(160,160,160)" stroke="rgb(160,160,160)" stroke-width="1" opacity="1" d="M 12.5 4 L 12.5 5 L 12.5 4 Z " /><path fill="rgb(160,160,160)" stroke="rgb(160,160,160)" stroke-width="1" opacity="1" d="M 1.5 10 L 1.5 11 L 1.5 10 Z " /><path fill="rgb(160,160,160)" stroke="rgb(160,160,160)" stroke-width="1" opacity="1" d="M 2.5 14 L 2.5 15 L 2.5 14 Z " /><path fill="rgb(93,93,93)" stroke="rgb(93,93,93)" stroke-width="1" opacity="1" d="M 14.5 6 L 15 7.5 L 14 7.5 L 14.5 6 Z " /><path fill="rgb(93,93,93)" stroke="rgb(93,93,93)" stroke-width="1" opacity="1" d="M 12.5 8 L 12.5 9 L 12.5 8 Z " /><path fill="rgb(93,93,93)" stroke="rgb(93,93,93)" stroke-width="1" opacity="1" d="M 9.5 10 L 9.5 11 L 9.5 10 Z " /><path fill="rgb(93,93,93)" stroke="rgb(93,93,93)" stroke-width="1" opacity="1" d="M 4.5 11 L 4.5 12 L 4.5 11 Z " /><path fill="rgb(228,228,228)" stroke="rgb(228,228,228)" stroke-width="1" opacity="1" d="M 4.5 0 L 4.5 1 L 4.5 0 Z " /><path fill="rgb(228,228,228)" stroke="rgb(228,228,228)" stroke-width="1" opacity="1" d="M 7.5 0 L 7.5 1 L 7.5 0 Z " /><path fill="rgb(228,228,228)" stroke="rgb(228,228,228)" stroke-width="1" opacity="1" d="M 14.5 0 L 14.5 1 L 14.5 0 Z " /><path fill="rgb(228,228,228)" stroke="rgb(228,228,228)" stroke-width="1" opacity="1" d="M 14.5 5 L 14.5 6 L 14.5 5 Z " /><path fill="rgb(228,228,228)" stroke="rgb(228,228,228)" stroke-width="1" opacity="1" d="M 5.5 6 L 5.5 7 L 5.5 6 Z " /><path fill="rgb(228,228,228)" stroke="rgb(228,228,228)" stroke-width="1" opacity="1" d="M 9.5 8 L 9.5 9 L 9.5 8 Z " /><path fill="rgb(228,228,228)" stroke="rgb(228,228,228)" stroke-width="1" opacity="1" d="M 1.5 9 L 1.5 10 L 1.5 9 Z " /><path fill="rgb(228,228,228)" stroke="rgb(228,228,228)" stroke-width="1" opacity="1" d="M 0.5 12 L 0.5 13 L 0.5 12 Z " /><path fill="rgb(228,228,228)" stroke="rgb(228,228,228)" stroke-width="1" opacity="1" d="M 10.5 13 L 10.5 14 L 10.5 13 Z " /><path fill="rgb(167,167,167)" stroke="rgb(167,167,167)" stroke-width="1" opacity="1" d="M 10.5 7 L 10.5 8 L 10.5 7 Z " /><path fill="rgb(167,167,167)" stroke="rgb(167,167,167)" stroke-width="1" opacity="1" d="M 12.5 9 L 13 10.5 L 12 10.5 L 12.5 9 Z " /><path fill="rgb(167,167,167)" stroke="rgb(167,167,167)" stroke-width="1" opacity="1" d="M 0.5 13 L 0.5 14 L 0.5 13 Z " /><path fill="rgb(74,74,74)" stroke="rgb(74,74,74)" stroke-width="1" opacity="1" d="M 13.5 3 L 13.5 4 L 13.5 3 Z " /><path fill="rgb(74,74,74)" stroke="rgb(74,74,74)" stroke-width="1" opacity="1" d="M 11.5 5 L 11.5 6 L 11.5 5 Z " /><path fill="rgb(74,74,74)" stroke="rgb(74,74,74)" stroke-width="1" opacity="1" d="M 7.5 8 L 7.5 9 L 7.5 8 Z " /><path fill="rgb(74,74,74)" stroke="rgb(74,74,74)" stroke-width="1" opacity="1" d="M 1.5 11 L 1.5 12 L 1.5 11 Z " /><path fill="rgb(74,74,74)" stroke="rgb(74,74,74)" stroke-width="1" opacity="1" d="M 8.5 11 L 8.5 12 L 8.5 11 Z " /><path fill="rgb(55,55,55)" stroke="rgb(55,55,55)" stroke-width="1" opacity="1" d="M 14.5 2 L 14.5 3 L 14.5 2 Z " /><path fill="rgb(55,55,55)" stroke="rgb(55,55,55)" stroke-width="1" opacity="1" d="M 3.5 11 L 3.5 12 L 3.5 11 Z " /><path fill="rgb(39,39,39)" stroke="rgb(39,39,39)" stroke-width="1" opacity="1" d="M 7.5 11 L 7.5 12 L 7.5 11 Z " /><path fill="rgb(39,39,39)" stroke="rgb(39,39,39)" stroke-width="1" opacity="1" d="M 14.5 12 L 15 13.5 L 14 13.5 L 14.5 12 Z " /><path fill="rgb(39,39,39)" stroke="rgb(39,39,39)" stroke-width="1" opacity="1" d="M 11.5 13 L 11.5 14 L 11.5 13 Z " /><path fill="rgb(252,252,252)" stroke="rgb(252,252,252)" stroke-width="1" opacity="1" d="M 8.5 0 L 9 1.5 L 8 1.5 L 8.5 0 Z " /><path fill="rgb(252,252,252)" stroke="rgb(252,252,252)" stroke-width="1" opacity="1" d="M 3.5 1 L 3.5 2 L 3.5 1 Z " /><path fill="rgb(252,252,252)" stroke="rgb(252,252,252)" stroke-width="1" opacity="1" d="M 15.5 1 L 16 5 L 14 4.5 L 15.5 1 Z " /><path fill="rgb(252,252,252)" stroke="rgb(252,252,252)" stroke-width="1" opacity="1" d="M 1.5 5 L 1.5 6 L 1.5 5 Z " /><path fill="rgb(252,252,252)" stroke="rgb(252,252,252)" stroke-width="1" opacity="1" d="M 15.5 6 L 16 8.5 L 15 8.5 L 15.5 6 Z " /><path fill="rgb(252,252,252)" stroke="rgb(252,252,252)" stroke-width="1" opacity="1" d="M 1.5 8 L 1.5 9 L 1.5 8 Z " /><path fill="rgb(252,252,252)" stroke="rgb(252,252,252)" stroke-width="1" opacity="1" d="M 15.5 11 L 15.5 12 L 15.5 11 Z " /><path fill="rgb(252,252,252)" stroke="rgb(252,252,252)" stroke-width="1" opacity="1" d="M 4.5 12 L 4.5 13 L 4.5 12 Z " /><path fill="rgb(252,252,252)" stroke="rgb(252,252,252)" stroke-width="1" opacity="1" d="M 8 12 L 10 12.5 Q 9 15 8 13.5 L 8 12 Z " /><path fill="rgb(252,252,252)" stroke="rgb(252,252,252)" stroke-width="1" opacity="1" d="M 15.5 13 L 15.5 14 L 15.5 13 Z " /><path fill="rgb(252,252,252)" stroke="rgb(252,252,252)" stroke-width="1" opacity="1" d="M 3 14 L 5 14.5 Q 4 17 3 15.5 L 3 14 Z " /><path fill="rgb(252,252,252)" stroke="rgb(252,252,252)" stroke-width="1" opacity="1" d="M 8.5 15 L 8.5 16 L 8.5 15 Z " /><path fill="rgb(252,252,252)" stroke="rgb(252,252,252)" stroke-width="1" opacity="1" d="M 11.5 15 L 11.5 16 L 11.5 15 Z " /><path fill="rgb(252,252,252)" stroke="rgb(252,252,252)" stroke-width="1" opacity="1" d="M 13.5 15 L 16 15.5 L 13.5 16 L 13.5 15 Z " /><path fill="rgb(202,202,202)" stroke="rgb(202,202,202)" stroke-width="1" opacity="1" d="M 3.5 3 L 3.5 4 L 3.5 3 Z " /><path fill="rgb(202,202,202)" stroke="rgb(202,202,202)" stroke-width="1" opacity="1" d="M 8.5 3 L 8.5 4 L 8.5 3 Z " /><path fill="rgb(202,202,202)" stroke="rgb(202,202,202)" stroke-width="1" opacity="1" d="M 11.5 9 L 11.5 10 L 11.5 9 Z " /><path fill="rgb(202,202,202)" stroke="rgb(202,202,202)" stroke-width="1" opacity="1" d="M 11.5 11 L 11.5 12 L 11.5 11 Z " /><path fill="rgb(202,202,202)" stroke="rgb(202,202,202)" stroke-width="1" opacity="1" d="M 13.5 11 L 15 11.5 L 13.5 12 L 13.5 11 Z " /><path fill="rgb(189,189,189)" stroke="rgb(189,189,189)" stroke-width="1" opacity="1" d="M 9.5 5 L 9.5 6 L 9.5 5 Z " /><path fill="rgb(189,189,189)" stroke="rgb(189,189,189)" stroke-width="1" opacity="1" d="M 3.5 12 L 3.5 13 L 3.5 12 Z " /><path fill="rgb(189,189,189)" stroke="rgb(189,189,189)" stroke-width="1" opacity="1" d="M 0.5 14 L 0.5 15 L 0.5 14 Z " /><path fill="rgb(189,189,189)" stroke="rgb(189,189,189)" stroke-width="1" opacity="1" d="M 5.5 14 L 5.5 15 L 5.5 14 Z " /><path fill="rgb(189,189,189)" stroke="rgb(189,189,189)" stroke-width="1" opacity="1" d="M 7.5 14 L 7.5 15 L 7.5 14 Z " /><path fill="rgb(179,179,179)" stroke="rgb(179,179,179)" stroke-width="1" opacity="1" d="M 10.5 6 L 10.5 7 L 10.5 6 Z " /><path fill="rgb(179,179,179)" stroke="rgb(179,179,179)" stroke-width="1" opacity="1" d="M 4.5 7 L 4.5 8 L 4.5 7 Z " /><path fill="rgb(179,179,179)" stroke="rgb(179,179,179)" stroke-width="1" opacity="1" d="M 14.5 8 L 14.5 9 L 14.5 8 Z " /><path fill="rgb(179,179,179)" stroke="rgb(179,179,179)" stroke-width="1" opacity="1" d="M 9.5 11 L 9.5 12 L 9.5 11 Z " /><path fill="rgb(179,179,179)" stroke="rgb(179,179,179)" stroke-width="1" opacity="1" d="M 10.5 14 L 10.5 15 L 10.5 14 Z " /><path fill="rgb(131,131,131)" stroke="rgb(131,131,131)" stroke-width="1" opacity="1" d="M 11.5 4 L 11.5 5 L 11.5 4 Z " /><path fill="rgb(131,131,131)" stroke="rgb(131,131,131)" stroke-width="1" opacity="1" d="M 12.5 11 L 12.5 12 L 12.5 11 Z " /><path fill="rgb(131,131,131)" stroke="rgb(131,131,131)" stroke-width="1" opacity="1" d="M 7.5 12 L 8 13.5 Q 7 16 6 14.5 L 7.5 12 Z " /><path fill="rgb(131,131,131)" stroke="rgb(131,131,131)" stroke-width="1" opacity="1" d="M 11.5 14 L 14 14.5 L 11.5 15 L 11.5 14 Z " /></svg>