<svg width="128" height="128" version="1.1" xmlns="http://www.w3.org/2000/svg" desc="Created with imagetracer.js version 1.2.6" ><path fill="rgb(254,245,246)" stroke="rgb(254,245,246)" stroke-width="1" opacity="1" d="M 53.5 19 L 75 19.5 L 53.5 20 L 53.5 19 Z " /><path fill="rgb(254,245,246)" stroke="rgb(254,245,246)" stroke-width="1" opacity="1" d="M 44.5 20 L 47 20.5 L 44.5 21 L 44.5 20 Z " /><path fill="rgb(254,245,246)" stroke="rgb(254,245,246)" stroke-width="1" opacity="1" d="M 81.5 20 L 84 20.5 L 81.5 21 L 81.5 20 Z " /><path fill="rgb(254,245,246)" stroke="rgb(254,245,246)" stroke-width="1" opacity="1" d="M 39.5 21 L 39.5 22 L 39.5 21 Z " /><path fill="rgb(254,245,246)" stroke="rgb(254,245,246)" stroke-width="1" opacity="1" d="M 88.5 21 L 88.5 22 L 88.5 21 Z " /><path fill="rgb(254,245,246)" stroke="rgb(254,245,246)" stroke-width="1" opacity="1" d="M 35.5 22 L 35.5 23 L 35.5 22 Z " /><path fill="rgb(254,245,246)" stroke="rgb(254,245,246)" stroke-width="1" opacity="1" d="M 92.5 22 L 92.5 23 L 92.5 22 Z " /><path fill="rgb(254,245,246)" stroke="rgb(254,245,246)" stroke-width="1" opacity="1" d="M 27.5 24 L 29 24.5 L 27.5 25 L 27.5 24 Z " /><path fill="rgb(254,245,246)" stroke="rgb(254,245,246)" stroke-width="1" opacity="1" d="M 99.5 24 L 101 24.5 L 99.5 25 L 99.5 24 Z " /><path fill="rgb(254,245,246)" stroke="rgb(254,245,246)" stroke-width="1" opacity="1" d="M 24.5 26 L 24.5 27 L 24.5 26 Z " /><path fill="rgb(254,245,246)" stroke="rgb(254,245,246)" stroke-width="1" opacity="1" d="M 103.5 26 L 103.5 27 L 103.5 26 Z " /><path fill="rgb(254,245,246)" stroke="rgb(254,245,246)" stroke-width="1" opacity="1" d="M 24.5 43 L 25 51.5 L 24 51.5 L 24.5 43 Z " /><path fill="rgb(254,245,246)" stroke="rgb(254,245,246)" stroke-width="1" opacity="1" d="M 103.5 43 L 104 51.5 L 103 51.5 L 103.5 43 Z " /><path fill="rgb(254,245,246)" stroke="rgb(254,245,246)" stroke-width="1" opacity="1" d="M 56.5 52 L 56.5 53 L 56.5 52 Z " /><path fill="rgb(254,245,246)" stroke="rgb(254,245,246)" stroke-width="1" opacity="1" d="M 71.5 52 L 71.5 53 L 71.5 52 Z " /><path fill="rgb(254,245,246)" stroke="rgb(254,245,246)" stroke-width="1" opacity="1" d="M 25.5 58 L 26 60.5 L 25 60.5 L 25.5 58 Z " /><path fill="rgb(254,245,246)" stroke="rgb(254,245,246)" stroke-width="1" opacity="1" d="M 102.5 58 L 103 60.5 L 102 60.5 L 102.5 58 Z " /><path fill="rgb(254,245,246)" stroke="rgb(254,245,246)" stroke-width="1" opacity="1" d="M 26.5 64 L 27 65.5 L 26 65.5 L 26.5 64 Z " /><path fill="rgb(254,245,246)" stroke="rgb(254,245,246)" stroke-width="1" opacity="1" d="M 101.5 64 L 102 65.5 L 101 65.5 L 101.5 64 Z " /><path fill="rgb(254,245,246)" stroke="rgb(254,245,246)" stroke-width="1" opacity="1" d="M 56.5 66 L 56.5 67 L 56.5 66 Z " /><path fill="rgb(254,245,246)" stroke="rgb(254,245,246)" stroke-width="1" opacity="1" d="M 71.5 66 L 71.5 67 L 71.5 66 Z " /><path fill="rgb(254,245,246)" stroke="rgb(254,245,246)" stroke-width="1" opacity="1" d="M 30.5 76 L 30.5 77 L 30.5 76 Z " /><path fill="rgb(254,245,246)" stroke="rgb(254,245,246)" stroke-width="1" opacity="1" d="M 97.5 76 L 97.5 77 L 97.5 76 Z " /><path fill="rgb(254,245,246)" stroke="rgb(254,245,246)" stroke-width="1" opacity="1" d="M 31.5 78 L 31.5 79 L 31.5 78 Z " /><path fill="rgb(254,245,246)" stroke="rgb(254,245,246)" stroke-width="1" opacity="1" d="M 96.5 78 L 96.5 79 L 96.5 78 Z " /><path fill="rgb(254,245,246)" stroke="rgb(254,245,246)" stroke-width="1" opacity="1" d="M 32.5 80 L 32.5 81 L 32.5 80 Z " /><path fill="rgb(254,245,246)" stroke="rgb(254,245,246)" stroke-width="1" opacity="1" d="M 95.5 80 L 95.5 81 L 95.5 80 Z " /><path fill="rgb(254,245,246)" stroke="rgb(254,245,246)" stroke-width="1" opacity="1" d="M 33.5 82 L 33.5 83 L 33.5 82 Z " /><path fill="rgb(254,245,246)" stroke="rgb(254,245,246)" stroke-width="1" opacity="1" d="M 94.5 82 L 94.5 83 L 94.5 82 Z " /><path fill="rgb(254,245,246)" stroke="rgb(254,245,246)" stroke-width="1" opacity="1" d="M 34.5 84 L 34.5 85 L 34.5 84 Z " /><path fill="rgb(254,245,246)" stroke="rgb(254,245,246)" stroke-width="1" opacity="1" d="M 93.5 84 L 93.5 85 L 93.5 84 Z " /><path fill="rgb(254,245,246)" stroke="rgb(254,245,246)" stroke-width="1" opacity="1" d="M 36.5 87 Q 39 88 37.5 89 Q 35 88 36.5 87 Z " /><path fill="rgb(254,245,246)" stroke="rgb(254,245,246)" stroke-width="1" opacity="1" d="M 91.5 87 Q 93 88 90.5 89 Q 89 88 91.5 87 Z " /><path fill="rgb(254,245,246)" stroke="rgb(254,245,246)" stroke-width="1" opacity="1" d="M 41.5 93 L 44 95.5 L 43.5 96 L 41 93.5 L 41.5 93 Z " /><path fill="rgb(254,245,246)" stroke="rgb(254,245,246)" stroke-width="1" opacity="1" d="M 86.5 93 L 87 93.5 L 84.5 96 L 84 95.5 L 86.5 93 Z " /><path fill="rgb(254,245,246)" stroke="rgb(254,245,246)" stroke-width="1" opacity="1" d="M 50.5 101 L 50.5 102 L 50.5 101 Z " /><path fill="rgb(254,245,246)" stroke="rgb(254,245,246)" stroke-width="1" opacity="1" d="M 77.5 101 L 77.5 102 L 77.5 101 Z " /><path fill="rgb(254,245,246)" stroke="rgb(254,245,246)" stroke-width="1" opacity="1" d="M 58.5 106 L 58.5 107 L 58.5 106 Z " /><path fill="rgb(254,245,246)" stroke="rgb(254,245,246)" stroke-width="1" opacity="1" d="M 69.5 106 L 69.5 107 L 69.5 106 Z " /><path fill="rgb(254,245,246)" stroke="rgb(254,245,246)" stroke-width="1" opacity="1" d="M 63.5 108 L 65 108.5 L 63.5 109 L 63.5 108 Z " /><path fill="rgb(255,255,255)" stroke="rgb(255,255,255)" stroke-width="1" opacity="1" d="M 0 0 L 128 0 L 128 128 L 0 128 L 0 0 Z M 54 19 L 53 20 L 45 20 L 44 21 L 36 22 L 32 24 L 28 24 L 24 27 L 24 52 L 25 53 L 25 61 Q 27 62 26 66 L 34 85 L 41 94 L 51 102 L 64 109 L 70 107 L 85 96 L 94 85 L 102 66 Q 101 61 103 61 L 103 53 L 104 52 L 104 27 L 101 24 L 97 24 L 93 22 L 85 21 L 84 20 L 76 20 L 75 19 L 54 19 Z " /><path fill="rgb(255,255,255)" stroke="rgb(255,255,255)" stroke-width="1" opacity="1" d="M 57 34 L 71 34 L 71 53 L 89 53 L 89 66 L 71 66 L 71 85 L 57 85 L 57 66 L 39 66 L 39 53 L 57 53 L 57 34 Z " /><path fill="rgb(219,0,11)" stroke="rgb(219,0,11)" stroke-width="1" opacity="1" d="M 57.5 21 L 71 21.5 L 57.5 22 L 57.5 21 Z " /><path fill="rgb(219,0,11)" stroke="rgb(219,0,11)" stroke-width="1" opacity="1" d="M 47.5 22 L 50 22.5 L 47.5 23 L 47.5 22 Z " /><path fill="rgb(219,0,11)" stroke="rgb(219,0,11)" stroke-width="1" opacity="1" d="M 78.5 22 L 81 22.5 L 78.5 23 L 78.5 22 Z " /><path fill="rgb(219,0,11)" stroke="rgb(219,0,11)" stroke-width="1" opacity="1" d="M 33.5 24 L 36 24.5 L 33.5 25 L 33.5 24 Z " /><path fill="rgb(219,0,11)" stroke="rgb(219,0,11)" stroke-width="1" opacity="1" d="M 92.5 24 L 95 24.5 L 92.5 25 L 92.5 24 Z " /><path fill="rgb(219,0,11)" stroke="rgb(219,0,11)" stroke-width="1" opacity="1" d="M 30.5 25 L 30.5 26 L 30.5 25 Z " /><path fill="rgb(219,0,11)" stroke="rgb(219,0,11)" stroke-width="1" opacity="1" d="M 97.5 25 L 97.5 26 L 97.5 25 Z " /><path fill="rgb(219,0,11)" stroke="rgb(219,0,11)" stroke-width="1" opacity="1" d="M 27.5 26 L 27.5 27 L 27.5 26 Z " /><path fill="rgb(219,0,11)" stroke="rgb(219,0,11)" stroke-width="1" opacity="1" d="M 100.5 26 L 100.5 27 L 100.5 26 Z " /><path fill="rgb(219,0,11)" stroke="rgb(219,0,11)" stroke-width="1" opacity="1" d="M 25.5 27 L 26 32.5 L 25 32.5 L 25.5 27 Z " /><path fill="rgb(219,0,11)" stroke="rgb(219,0,11)" stroke-width="1" opacity="1" d="M 102.5 27 L 103 41.5 L 102 41.5 L 102.5 27 Z " /><path fill="rgb(219,0,11)" stroke="rgb(219,0,11)" stroke-width="1" opacity="1" d="M 55.5 33 L 56 51 L 38 50.5 L 55 50 L 55.5 33 Z " /><path fill="rgb(219,0,11)" stroke="rgb(219,0,11)" stroke-width="1" opacity="1" d="M 72.5 33 L 73 50 L 90 50.5 L 72 51 L 72.5 33 Z " /><path fill="rgb(219,0,11)" stroke="rgb(219,0,11)" stroke-width="1" opacity="1" d="M 25.5 35 L 26 41.5 L 25 41.5 L 25.5 35 Z " /><path fill="rgb(219,0,11)" stroke="rgb(219,0,11)" stroke-width="1" opacity="1" d="M 26.5 47 L 27 53.5 L 26 53.5 L 26.5 47 Z " /><path fill="rgb(219,0,11)" stroke="rgb(219,0,11)" stroke-width="1" opacity="1" d="M 101.5 47 L 102 53.5 L 101 53.5 L 101.5 47 Z " /><path fill="rgb(219,0,11)" stroke="rgb(219,0,11)" stroke-width="1" opacity="1" d="M 36.5 53 L 37 65.5 L 36 65.5 L 36.5 53 Z " /><path fill="rgb(219,0,11)" stroke="rgb(219,0,11)" stroke-width="1" opacity="1" d="M 91.5 53 L 92 65.5 L 91 65.5 L 91.5 53 Z " /><path fill="rgb(219,0,11)" stroke="rgb(219,0,11)" stroke-width="1" opacity="1" d="M 27.5 56 L 28 59.5 L 27 59.5 L 27.5 56 Z " /><path fill="rgb(219,0,11)" stroke="rgb(219,0,11)" stroke-width="1" opacity="1" d="M 100.5 56 L 101 59.5 L 100 59.5 L 100.5 56 Z " /><path fill="rgb(219,0,11)" stroke="rgb(219,0,11)" stroke-width="1" opacity="1" d="M 28.5 63 L 29 64.5 L 28 64.5 L 28.5 63 Z " /><path fill="rgb(219,0,11)" stroke="rgb(219,0,11)" stroke-width="1" opacity="1" d="M 99.5 63 L 100 64.5 L 99 64.5 L 99.5 63 Z " /><path fill="rgb(219,0,11)" stroke="rgb(219,0,11)" stroke-width="1" opacity="1" d="M 29.5 67 L 29.5 68 L 29.5 67 Z " /><path fill="rgb(219,0,11)" stroke="rgb(219,0,11)" stroke-width="1" opacity="1" d="M 98.5 67 L 98.5 68 L 98.5 67 Z " /><path fill="rgb(219,0,11)" stroke="rgb(219,0,11)" stroke-width="1" opacity="1" d="M 38.5 68 L 56 68 L 56 85.5 L 55 85.5 L 55 69 L 38.5 69 L 38.5 68 Z " /><path fill="rgb(219,0,11)" stroke="rgb(219,0,11)" stroke-width="1" opacity="1" d="M 72 68 L 90 68.5 L 73 69 L 72.5 86 L 72 68 Z " /><path fill="rgb(219,0,11)" stroke="rgb(219,0,11)" stroke-width="1" opacity="1" d="M 32.5 76 L 34 78.5 Q 33 80 32 77.5 L 32.5 76 Z " /><path fill="rgb(219,0,11)" stroke="rgb(219,0,11)" stroke-width="1" opacity="1" d="M 95.5 76 L 96 77.5 Q 95 80 94 78.5 L 95.5 76 Z " /><path fill="rgb(219,0,11)" stroke="rgb(219,0,11)" stroke-width="1" opacity="1" d="M 34.5 80 L 34.5 81 L 34.5 80 Z " /><path fill="rgb(219,0,11)" stroke="rgb(219,0,11)" stroke-width="1" opacity="1" d="M 93.5 80 L 93.5 81 L 93.5 80 Z " /><path fill="rgb(219,0,11)" stroke="rgb(219,0,11)" stroke-width="1" opacity="1" d="M 38.5 86 L 38.5 87 L 38.5 86 Z " /><path fill="rgb(219,0,11)" stroke="rgb(219,0,11)" stroke-width="1" opacity="1" d="M 89.5 86 L 89.5 87 L 89.5 86 Z " /><path fill="rgb(219,0,11)" stroke="rgb(219,0,11)" stroke-width="1" opacity="1" d="M 40.5 89 L 44 92.5 L 43.5 93 L 40 89.5 L 40.5 89 Z " /><path fill="rgb(219,0,11)" stroke="rgb(219,0,11)" stroke-width="1" opacity="1" d="M 87.5 89 L 88 89.5 L 84.5 93 L 84 92.5 L 87.5 89 Z " /><path fill="rgb(219,0,11)" stroke="rgb(219,0,11)" stroke-width="1" opacity="1" d="M 45.5 94 Q 48 95 46.5 96 Q 44 95 45.5 94 Z " /><path fill="rgb(219,0,11)" stroke="rgb(219,0,11)" stroke-width="1" opacity="1" d="M 82.5 94 Q 84 95 81.5 96 Q 80 95 82.5 94 Z " /><path fill="rgb(219,0,11)" stroke="rgb(219,0,11)" stroke-width="1" opacity="1" d="M 48.5 97 L 48.5 98 L 48.5 97 Z " /><path fill="rgb(219,0,11)" stroke="rgb(219,0,11)" stroke-width="1" opacity="1" d="M 79.5 97 L 79.5 98 L 79.5 97 Z " /><path fill="rgb(219,0,11)" stroke="rgb(219,0,11)" stroke-width="1" opacity="1" d="M 51.5 99 Q 54 100 52.5 101 Q 50 100 51.5 99 Z " /><path fill="rgb(219,0,11)" stroke="rgb(219,0,11)" stroke-width="1" opacity="1" d="M 76.5 99 Q 78 100 75.5 101 Q 74 100 76.5 99 Z " /><path fill="rgb(219,0,11)" stroke="rgb(219,0,11)" stroke-width="1" opacity="1" d="M 55.5 102 L 58 103.5 L 56.5 104 Q 54 103 55.5 102 Z " /><path fill="rgb(219,0,11)" stroke="rgb(219,0,11)" stroke-width="1" opacity="1" d="M 72.5 102 Q 74 103 71.5 104 L 70 103.5 L 72.5 102 Z " /><path fill="rgb(220,0,24)" stroke="rgb(220,0,24)" stroke-width="1" opacity="1" d="M 52.5 21 Q 56.5 20 57.5 22 L 70.5 22 Q 71.5 20 75.5 21 L 78.5 23 L 80.5 23 Q 81.25 21.25 84.5 22 Q 85.75 24.25 90.5 23 Q 91 25.5 94.5 25 L 95.5 24 L 97.5 26 L 98.5 25 L 100.5 27 L 102 26.5 L 102 41.5 L 103 43.5 L 101 47.5 L 101 53.5 L 102 56 Q 98.67 54.69 100 59.5 Q 102 60.5 100 61.5 L 99 64.5 L 100 65.5 Q 96.5 67 99 68.5 L 97 76 Q 94.33 74.88 95 77.5 L 94 78.5 L 94.5 80 L 93 80.5 Q 95.5 82 92 83.5 L 90.5 86 L 89 86.5 Q 91.25 87.75 88.5 89 L 84 92.5 L 85 93.5 L 82.5 96 L 81 95.5 L 81 97 Q 78.33 95.88 79 98.5 L 77.5 100 Q 76.25 97.75 75 100.5 Q 75.83 103.13 72.5 102 L 70 103 Q 71.13 105.67 68.5 105 L 63.5 107 L 58 105 Q 59.13 102.33 56.5 103 Q 55.58 101.25 53 102 L 51.5 99 Q 50.25 101.25 49 98.5 L 49 97 Q 46.33 98.13 47 95.5 L 45.5 96 L 43 93.5 L 44 92.5 L 40.5 89 L 38 87.5 L 38.5 86 L 36 84.5 L 34 81.5 L 34.5 80 L 33 79.5 Q 35 78.5 33 77.5 Q 33.67 74.88 31 76 L 31 73.5 L 29 68.5 L 30 67.5 Q 26.5 66 29 64.5 L 27 60.5 Q 29 59.37 28 56 Q 25.33 57.13 26 54.5 L 27 53.5 L 27 47.5 L 25 42.5 L 26 41.5 L 26 35.5 L 25 33.5 L 26 32.5 L 26.5 26 L 27.5 27 L 29.5 25 L 30.5 26 Q 32 22.5 33.5 25 Q 37 25.5 37.5 23 L 46.5 22 L 49.5 23 L 52.5 21 Z M 55 33 L 55 50 L 38 50 L 38 69 L 55 69 L 55 86 L 73 86 L 73 69 L 90 69 L 90 50 L 73 50 L 73 33 L 55 33 Z M 37 53 L 36 66 L 37 66 L 37 53 Z M 92 53 L 91 66 L 92 66 L 92 53 Z M 46 94 L 46 95 L 46 94 Z M 83 94 L 83 95 L 83 94 Z " /><path fill="rgb(238,142,150)" stroke="rgb(238,142,150)" stroke-width="1" opacity="1" d="M 54.5 20 L 74 20.5 L 54.5 21 L 54.5 20 Z " /><path fill="rgb(238,142,150)" stroke="rgb(238,142,150)" stroke-width="1" opacity="1" d="M 44.5 21 L 47 21.5 L 44.5 22 L 44.5 21 Z " /><path fill="rgb(238,142,150)" stroke="rgb(238,142,150)" stroke-width="1" opacity="1" d="M 81.5 21 L 84 21.5 L 81.5 22 L 81.5 21 Z " /><path fill="rgb(238,142,150)" stroke="rgb(238,142,150)" stroke-width="1" opacity="1" d="M 39.5 22 L 39.5 23 L 39.5 22 Z " /><path fill="rgb(238,142,150)" stroke="rgb(238,142,150)" stroke-width="1" opacity="1" d="M 88.5 22 L 88.5 23 L 88.5 22 Z " /><path fill="rgb(238,142,150)" stroke="rgb(238,142,150)" stroke-width="1" opacity="1" d="M 34.5 23 L 34.5 24 L 34.5 23 Z " /><path fill="rgb(238,142,150)" stroke="rgb(238,142,150)" stroke-width="1" opacity="1" d="M 93.5 23 L 93.5 24 L 93.5 23 Z " /><path fill="rgb(238,142,150)" stroke="rgb(238,142,150)" stroke-width="1" opacity="1" d="M 30.5 24 L 30.5 25 L 30.5 24 Z " /><path fill="rgb(238,142,150)" stroke="rgb(238,142,150)" stroke-width="1" opacity="1" d="M 97.5 24 L 97.5 25 L 97.5 24 Z " /><path fill="rgb(238,142,150)" stroke="rgb(238,142,150)" stroke-width="1" opacity="1" d="M 27.5 25 L 27.5 26 L 27.5 25 Z " /><path fill="rgb(238,142,150)" stroke="rgb(238,142,150)" stroke-width="1" opacity="1" d="M 100.5 25 L 100.5 26 L 100.5 25 Z " /><path fill="rgb(238,142,150)" stroke="rgb(238,142,150)" stroke-width="1" opacity="1" d="M 58.5 33 L 70 33.5 L 58.5 34 L 58.5 33 Z " /><path fill="rgb(238,142,150)" stroke="rgb(238,142,150)" stroke-width="1" opacity="1" d="M 25.5 49 L 26 50.5 L 25 50.5 L 25.5 49 Z " /><path fill="rgb(238,142,150)" stroke="rgb(238,142,150)" stroke-width="1" opacity="1" d="M 102.5 49 L 103 50.5 L 102 50.5 L 102.5 49 Z " /><path fill="rgb(238,142,150)" stroke="rgb(238,142,150)" stroke-width="1" opacity="1" d="M 26.5 58 L 26.5 59 L 26.5 58 Z " /><path fill="rgb(238,142,150)" stroke="rgb(238,142,150)" stroke-width="1" opacity="1" d="M 101.5 58 L 101.5 59 L 101.5 58 Z " /><path fill="rgb(238,142,150)" stroke="rgb(238,142,150)" stroke-width="1" opacity="1" d="M 27.5 64 L 27.5 65 L 27.5 64 Z " /><path fill="rgb(238,142,150)" stroke="rgb(238,142,150)" stroke-width="1" opacity="1" d="M 100.5 64 L 100.5 65 L 100.5 64 Z " /><path fill="rgb(238,142,150)" stroke="rgb(238,142,150)" stroke-width="1" opacity="1" d="M 28.5 68 L 28.5 69 L 28.5 68 Z " /><path fill="rgb(238,142,150)" stroke="rgb(238,142,150)" stroke-width="1" opacity="1" d="M 99.5 68 L 99.5 69 L 99.5 68 Z " /><path fill="rgb(238,142,150)" stroke="rgb(238,142,150)" stroke-width="1" opacity="1" d="M 30.5 74 L 30.5 75 L 30.5 74 Z " /><path fill="rgb(238,142,150)" stroke="rgb(238,142,150)" stroke-width="1" opacity="1" d="M 97.5 74 L 97.5 75 L 97.5 74 Z " /><path fill="rgb(238,142,150)" stroke="rgb(238,142,150)" stroke-width="1" opacity="1" d="M 34.5 82 L 34.5 83 L 34.5 82 Z " /><path fill="rgb(238,142,150)" stroke="rgb(238,142,150)" stroke-width="1" opacity="1" d="M 93.5 82 L 93.5 83 L 93.5 82 Z " /><path fill="rgb(238,142,150)" stroke="rgb(238,142,150)" stroke-width="1" opacity="1" d="M 36.5 85 L 36.5 86 L 36.5 85 Z " /><path fill="rgb(238,142,150)" stroke="rgb(238,142,150)" stroke-width="1" opacity="1" d="M 57.5 85 L 71 85.5 L 57.5 86 L 57.5 85 Z " /><path fill="rgb(238,142,150)" stroke="rgb(238,142,150)" stroke-width="1" opacity="1" d="M 91.5 85 L 91.5 86 L 91.5 85 Z " /><path fill="rgb(238,142,150)" stroke="rgb(238,142,150)" stroke-width="1" opacity="1" d="M 38.5 88 L 38.5 89 L 38.5 88 Z " /><path fill="rgb(238,142,150)" stroke="rgb(238,142,150)" stroke-width="1" opacity="1" d="M 89.5 88 L 89.5 89 L 89.5 88 Z " /><path fill="rgb(238,142,150)" stroke="rgb(238,142,150)" stroke-width="1" opacity="1" d="M 49.5 99 L 49.5 100 L 49.5 99 Z " /><path fill="rgb(238,142,150)" stroke="rgb(238,142,150)" stroke-width="1" opacity="1" d="M 78.5 99 L 78.5 100 L 78.5 99 Z " /><path fill="rgb(238,142,150)" stroke="rgb(238,142,150)" stroke-width="1" opacity="1" d="M 53.5 102 L 53.5 103 L 53.5 102 Z " /><path fill="rgb(238,142,150)" stroke="rgb(238,142,150)" stroke-width="1" opacity="1" d="M 74.5 102 L 74.5 103 L 74.5 102 Z " /><path fill="rgb(238,142,150)" stroke="rgb(238,142,150)" stroke-width="1" opacity="1" d="M 63.5 107 L 65 107.5 L 63.5 108 L 63.5 107 Z " /><path fill="rgb(243,174,183)" stroke="rgb(243,174,183)" stroke-width="1" opacity="1" d="M 51.5 20 L 51.5 21 L 51.5 20 Z " /><path fill="rgb(243,174,183)" stroke="rgb(243,174,183)" stroke-width="1" opacity="1" d="M 76.5 20 L 76.5 21 L 76.5 20 Z " /><path fill="rgb(243,174,183)" stroke="rgb(243,174,183)" stroke-width="1" opacity="1" d="M 43.5 21 L 43.5 22 L 43.5 21 Z " /><path fill="rgb(243,174,183)" stroke="rgb(243,174,183)" stroke-width="1" opacity="1" d="M 84.5 21 L 84.5 22 L 84.5 21 Z " /><path fill="rgb(243,174,183)" stroke="rgb(243,174,183)" stroke-width="1" opacity="1" d="M 37.5 22 L 37.5 23 L 37.5 22 Z " /><path fill="rgb(243,174,183)" stroke="rgb(243,174,183)" stroke-width="1" opacity="1" d="M 90.5 22 L 90.5 23 L 90.5 22 Z " /><path fill="rgb(243,174,183)" stroke="rgb(243,174,183)" stroke-width="1" opacity="1" d="M 26.5 25 L 26.5 26 L 26.5 25 Z " /><path fill="rgb(243,174,183)" stroke="rgb(243,174,183)" stroke-width="1" opacity="1" d="M 101.5 25 L 101.5 26 L 101.5 25 Z " /><path fill="rgb(243,174,183)" stroke="rgb(243,174,183)" stroke-width="1" opacity="1" d="M 25.5 52 L 25.5 53 L 25.5 52 Z " /><path fill="rgb(243,174,183)" stroke="rgb(243,174,183)" stroke-width="1" opacity="1" d="M 102.5 52 L 102.5 53 L 102.5 52 Z " /><path fill="rgb(243,174,183)" stroke="rgb(243,174,183)" stroke-width="1" opacity="1" d="M 26.5 61 L 26.5 62 L 26.5 61 Z " /><path fill="rgb(243,174,183)" stroke="rgb(243,174,183)" stroke-width="1" opacity="1" d="M 101.5 61 L 101.5 62 L 101.5 61 Z " /><path fill="rgb(243,174,183)" stroke="rgb(243,174,183)" stroke-width="1" opacity="1" d="M 27.5 66 L 27.5 67 L 27.5 66 Z " /><path fill="rgb(243,174,183)" stroke="rgb(243,174,183)" stroke-width="1" opacity="1" d="M 100.5 66 L 100.5 67 L 100.5 66 Z " /><path fill="rgb(243,174,183)" stroke="rgb(243,174,183)" stroke-width="1" opacity="1" d="M 31.5 77 L 31.5 78 L 31.5 77 Z " /><path fill="rgb(243,174,183)" stroke="rgb(243,174,183)" stroke-width="1" opacity="1" d="M 96.5 77 L 96.5 78 L 96.5 77 Z " /><path fill="rgb(243,174,183)" stroke="rgb(243,174,183)" stroke-width="1" opacity="1" d="M 33.5 81 L 33.5 82 L 33.5 81 Z " /><path fill="rgb(243,174,183)" stroke="rgb(243,174,183)" stroke-width="1" opacity="1" d="M 94.5 81 L 94.5 82 L 94.5 81 Z " /><path fill="rgb(243,174,183)" stroke="rgb(243,174,183)" stroke-width="1" opacity="1" d="M 40.5 91 Q 43 92 41.5 93 Q 39 92 40.5 91 Z " /><path fill="rgb(243,174,183)" stroke="rgb(243,174,183)" stroke-width="1" opacity="1" d="M 87.5 91 Q 89 92 86.5 93 Q 85 92 87.5 91 Z " /><path fill="rgb(243,174,183)" stroke="rgb(243,174,183)" stroke-width="1" opacity="1" d="M 45.5 96 Q 48 97 46.5 98 Q 44 97 45.5 96 Z " /><path fill="rgb(243,174,183)" stroke="rgb(243,174,183)" stroke-width="1" opacity="1" d="M 82.5 96 Q 84 97 81.5 98 Q 80 97 82.5 96 Z " /><path fill="rgb(243,174,183)" stroke="rgb(243,174,183)" stroke-width="1" opacity="1" d="M 62.5 107 L 62.5 108 L 62.5 107 Z " /><path fill="rgb(243,174,183)" stroke="rgb(243,174,183)" stroke-width="1" opacity="1" d="M 65.5 107 L 65.5 108 L 65.5 107 Z " /><path fill="rgb(249,213,217)" stroke="rgb(249,213,217)" stroke-width="1" opacity="1" d="M 49.5 20 L 51 20.5 L 49.5 21 L 49.5 20 Z " /><path fill="rgb(249,213,217)" stroke="rgb(249,213,217)" stroke-width="1" opacity="1" d="M 77.5 20 L 79 20.5 L 77.5 21 L 77.5 20 Z " /><path fill="rgb(249,213,217)" stroke="rgb(249,213,217)" stroke-width="1" opacity="1" d="M 41.5 21 L 43 21.5 L 41.5 22 L 41.5 21 Z " /><path fill="rgb(249,213,217)" stroke="rgb(249,213,217)" stroke-width="1" opacity="1" d="M 85.5 21 L 87 21.5 L 85.5 22 L 85.5 21 Z " /><path fill="rgb(249,213,217)" stroke="rgb(249,213,217)" stroke-width="1" opacity="1" d="M 36.5 22 L 36.5 23 L 36.5 22 Z " /><path fill="rgb(249,213,217)" stroke="rgb(249,213,217)" stroke-width="1" opacity="1" d="M 91.5 22 L 91.5 23 L 91.5 22 Z " /><path fill="rgb(249,213,217)" stroke="rgb(249,213,217)" stroke-width="1" opacity="1" d="M 32.5 23 L 32.5 24 L 32.5 23 Z " /><path fill="rgb(249,213,217)" stroke="rgb(249,213,217)" stroke-width="1" opacity="1" d="M 95.5 23 L 95.5 24 L 95.5 23 Z " /><path fill="rgb(249,213,217)" stroke="rgb(249,213,217)" stroke-width="1" opacity="1" d="M 29.5 24 L 29.5 25 L 29.5 24 Z " /><path fill="rgb(249,213,217)" stroke="rgb(249,213,217)" stroke-width="1" opacity="1" d="M 98.5 24 L 98.5 25 L 98.5 24 Z " /><path fill="rgb(249,213,217)" stroke="rgb(249,213,217)" stroke-width="1" opacity="1" d="M 24.5 33 L 25 34.5 L 24 34.5 L 24.5 33 Z " /><path fill="rgb(249,213,217)" stroke="rgb(249,213,217)" stroke-width="1" opacity="1" d="M 56.5 51 L 56.5 52 L 56.5 51 Z " /><path fill="rgb(249,213,217)" stroke="rgb(249,213,217)" stroke-width="1" opacity="1" d="M 71.5 51 L 71.5 52 L 71.5 51 Z " /><path fill="rgb(249,213,217)" stroke="rgb(249,213,217)" stroke-width="1" opacity="1" d="M 38.5 52 L 38.5 53 L 38.5 52 Z " /><path fill="rgb(249,213,217)" stroke="rgb(249,213,217)" stroke-width="1" opacity="1" d="M 89.5 52 L 89.5 53 L 89.5 52 Z " /><path fill="rgb(249,213,217)" stroke="rgb(249,213,217)" stroke-width="1" opacity="1" d="M 25.5 53 L 26 56.5 L 25 56.5 L 25.5 53 Z " /><path fill="rgb(249,213,217)" stroke="rgb(249,213,217)" stroke-width="1" opacity="1" d="M 102.5 53 L 103 56.5 L 102 56.5 L 102.5 53 Z " /><path fill="rgb(249,213,217)" stroke="rgb(249,213,217)" stroke-width="1" opacity="1" d="M 26.5 62 L 26.5 63 L 26.5 62 Z " /><path fill="rgb(249,213,217)" stroke="rgb(249,213,217)" stroke-width="1" opacity="1" d="M 101.5 62 L 101.5 63 L 101.5 62 Z " /><path fill="rgb(249,213,217)" stroke="rgb(249,213,217)" stroke-width="1" opacity="1" d="M 38.5 66 L 55.5 66 L 57 67.5 L 55.5 67 L 38.5 67 L 38.5 66 Z " /><path fill="rgb(249,213,217)" stroke="rgb(249,213,217)" stroke-width="1" opacity="1" d="M 72.5 66 L 90 66.5 L 72.5 67 L 71.5 68 Q 70 67 72.5 66 Z " /><path fill="rgb(249,213,217)" stroke="rgb(249,213,217)" stroke-width="1" opacity="1" d="M 27.5 67 L 27.5 68 L 27.5 67 Z " /><path fill="rgb(249,213,217)" stroke="rgb(249,213,217)" stroke-width="1" opacity="1" d="M 100.5 67 L 100.5 68 L 100.5 67 Z " /><path fill="rgb(249,213,217)" stroke="rgb(249,213,217)" stroke-width="1" opacity="1" d="M 28.5 70 L 28.5 71 L 28.5 70 Z " /><path fill="rgb(249,213,217)" stroke="rgb(249,213,217)" stroke-width="1" opacity="1" d="M 99.5 70 L 99.5 71 L 99.5 70 Z " /><path fill="rgb(249,213,217)" stroke="rgb(249,213,217)" stroke-width="1" opacity="1" d="M 29.5 73 L 29.5 74 L 29.5 73 Z " /><path fill="rgb(249,213,217)" stroke="rgb(249,213,217)" stroke-width="1" opacity="1" d="M 98.5 73 L 98.5 74 L 98.5 73 Z " /><path fill="rgb(249,213,217)" stroke="rgb(249,213,217)" stroke-width="1" opacity="1" d="M 30.5 75 L 30.5 76 L 30.5 75 Z " /><path fill="rgb(249,213,217)" stroke="rgb(249,213,217)" stroke-width="1" opacity="1" d="M 97.5 75 L 97.5 76 L 97.5 75 Z " /><path fill="rgb(249,213,217)" stroke="rgb(249,213,217)" stroke-width="1" opacity="1" d="M 34.5 83 L 34.5 84 L 34.5 83 Z " /><path fill="rgb(249,213,217)" stroke="rgb(249,213,217)" stroke-width="1" opacity="1" d="M 93.5 83 L 93.5 84 L 93.5 83 Z " /><path fill="rgb(249,213,217)" stroke="rgb(249,213,217)" stroke-width="1" opacity="1" d="M 36.5 86 L 36.5 87 L 36.5 86 Z " /><path fill="rgb(249,213,217)" stroke="rgb(249,213,217)" stroke-width="1" opacity="1" d="M 91.5 86 L 91.5 87 L 91.5 86 Z " /><path fill="rgb(249,213,217)" stroke="rgb(249,213,217)" stroke-width="1" opacity="1" d="M 39.5 90 L 39.5 91 L 39.5 90 Z " /><path fill="rgb(249,213,217)" stroke="rgb(249,213,217)" stroke-width="1" opacity="1" d="M 88.5 90 L 88.5 91 L 88.5 90 Z " /><path fill="rgb(249,213,217)" stroke="rgb(249,213,217)" stroke-width="1" opacity="1" d="M 47.5 98 L 47.5 99 L 47.5 98 Z " /><path fill="rgb(249,213,217)" stroke="rgb(249,213,217)" stroke-width="1" opacity="1" d="M 80.5 98 L 80.5 99 L 80.5 98 Z " /><path fill="rgb(249,213,217)" stroke="rgb(249,213,217)" stroke-width="1" opacity="1" d="M 51.5 101 L 51.5 102 L 51.5 101 Z " /><path fill="rgb(249,213,217)" stroke="rgb(249,213,217)" stroke-width="1" opacity="1" d="M 76.5 101 L 76.5 102 L 76.5 101 Z " /><path fill="rgb(249,213,217)" stroke="rgb(249,213,217)" stroke-width="1" opacity="1" d="M 54.5 103 L 54.5 104 L 54.5 103 Z " /><path fill="rgb(249,213,217)" stroke="rgb(249,213,217)" stroke-width="1" opacity="1" d="M 73.5 103 L 73.5 104 L 73.5 103 Z " /><path fill="rgb(249,213,217)" stroke="rgb(249,213,217)" stroke-width="1" opacity="1" d="M 59.5 106 L 59.5 107 L 59.5 106 Z " /><path fill="rgb(249,213,217)" stroke="rgb(249,213,217)" stroke-width="1" opacity="1" d="M 68.5 106 L 68.5 107 L 68.5 106 Z " /><path fill="rgb(243,169,178)" stroke="rgb(243,169,178)" stroke-width="1" opacity="1" d="M 52.5 20 L 54 20.5 L 52.5 21 L 52.5 20 Z " /><path fill="rgb(243,169,178)" stroke="rgb(243,169,178)" stroke-width="1" opacity="1" d="M 74.5 20 L 76 20.5 L 74.5 21 L 74.5 20 Z " /><path fill="rgb(243,169,178)" stroke="rgb(243,169,178)" stroke-width="1" opacity="1" d="M 38.5 22 L 38.5 23 L 38.5 22 Z " /><path fill="rgb(243,169,178)" stroke="rgb(243,169,178)" stroke-width="1" opacity="1" d="M 89.5 22 L 89.5 23 L 89.5 22 Z " /><path fill="rgb(243,169,178)" stroke="rgb(243,169,178)" stroke-width="1" opacity="1" d="M 33.5 23 L 33.5 24 L 33.5 23 Z " /><path fill="rgb(243,169,178)" stroke="rgb(243,169,178)" stroke-width="1" opacity="1" d="M 94.5 23 L 94.5 24 L 94.5 23 Z " /><path fill="rgb(243,169,178)" stroke="rgb(243,169,178)" stroke-width="1" opacity="1" d="M 57.5 33 L 57 34.5 L 56.5 51 L 56 34.5 L 57.5 33 Z " /><path fill="rgb(243,169,178)" stroke="rgb(243,169,178)" stroke-width="1" opacity="1" d="M 70.5 33 L 72 34.5 L 72 50.5 L 71 50.5 L 71 34.5 L 70.5 33 Z " /><path fill="rgb(243,169,178)" stroke="rgb(243,169,178)" stroke-width="1" opacity="1" d="M 25.5 51 L 25.5 52 L 25.5 51 Z " /><path fill="rgb(243,169,178)" stroke="rgb(243,169,178)" stroke-width="1" opacity="1" d="M 102.5 51 L 102.5 52 L 102.5 51 Z " /><path fill="rgb(243,169,178)" stroke="rgb(243,169,178)" stroke-width="1" opacity="1" d="M 26.5 59 L 27 60.5 L 26 60.5 L 26.5 59 Z " /><path fill="rgb(243,169,178)" stroke="rgb(243,169,178)" stroke-width="1" opacity="1" d="M 101.5 59 L 102 60.5 L 101 60.5 L 101.5 59 Z " /><path fill="rgb(243,169,178)" stroke="rgb(243,169,178)" stroke-width="1" opacity="1" d="M 27.5 65 L 27.5 66 L 27.5 65 Z " /><path fill="rgb(243,169,178)" stroke="rgb(243,169,178)" stroke-width="1" opacity="1" d="M 100.5 65 L 100.5 66 L 100.5 65 Z " /><path fill="rgb(243,169,178)" stroke="rgb(243,169,178)" stroke-width="1" opacity="1" d="M 56.5 68 L 57 84.5 L 56 84.5 L 56.5 68 Z " /><path fill="rgb(243,169,178)" stroke="rgb(243,169,178)" stroke-width="1" opacity="1" d="M 71.5 68 L 72 84.5 L 71 84.5 L 71.5 68 Z " /><path fill="rgb(243,169,178)" stroke="rgb(243,169,178)" stroke-width="1" opacity="1" d="M 28.5 69 L 28.5 70 L 28.5 69 Z " /><path fill="rgb(243,169,178)" stroke="rgb(243,169,178)" stroke-width="1" opacity="1" d="M 99.5 69 L 99.5 70 L 99.5 69 Z " /><path fill="rgb(243,169,178)" stroke="rgb(243,169,178)" stroke-width="1" opacity="1" d="M 29.5 72 L 29.5 73 L 29.5 72 Z " /><path fill="rgb(243,169,178)" stroke="rgb(243,169,178)" stroke-width="1" opacity="1" d="M 98.5 72 L 98.5 73 L 98.5 72 Z " /><path fill="rgb(243,169,178)" stroke="rgb(243,169,178)" stroke-width="1" opacity="1" d="M 32.5 79 L 32.5 80 L 32.5 79 Z " /><path fill="rgb(243,169,178)" stroke="rgb(243,169,178)" stroke-width="1" opacity="1" d="M 95.5 79 L 95.5 80 L 95.5 79 Z " /><path fill="rgb(243,169,178)" stroke="rgb(243,169,178)" stroke-width="1" opacity="1" d="M 35.5 84 L 35.5 85 L 35.5 84 Z " /><path fill="rgb(243,169,178)" stroke="rgb(243,169,178)" stroke-width="1" opacity="1" d="M 92.5 84 L 92.5 85 L 92.5 84 Z " /><path fill="rgb(243,169,178)" stroke="rgb(243,169,178)" stroke-width="1" opacity="1" d="M 37.5 87 L 37.5 88 L 37.5 87 Z " /><path fill="rgb(243,169,178)" stroke="rgb(243,169,178)" stroke-width="1" opacity="1" d="M 90.5 87 L 90.5 88 L 90.5 87 Z " /><path fill="rgb(243,169,178)" stroke="rgb(243,169,178)" stroke-width="1" opacity="1" d="M 42.5 93 L 45 95.5 L 44.5 96 L 42 93.5 L 42.5 93 Z " /><path fill="rgb(243,169,178)" stroke="rgb(243,169,178)" stroke-width="1" opacity="1" d="M 85.5 93 L 86 93.5 L 83.5 96 L 83 95.5 L 85.5 93 Z " /><path fill="rgb(243,169,178)" stroke="rgb(243,169,178)" stroke-width="1" opacity="1" d="M 50.5 100 L 50.5 101 L 50.5 100 Z " /><path fill="rgb(243,169,178)" stroke="rgb(243,169,178)" stroke-width="1" opacity="1" d="M 77.5 100 L 77.5 101 L 77.5 100 Z " /><path fill="rgb(243,169,178)" stroke="rgb(243,169,178)" stroke-width="1" opacity="1" d="M 56.5 104 L 56.5 105 L 56.5 104 Z " /><path fill="rgb(243,169,178)" stroke="rgb(243,169,178)" stroke-width="1" opacity="1" d="M 71.5 104 L 71.5 105 L 71.5 104 Z " /><path fill="rgb(243,169,178)" stroke="rgb(243,169,178)" stroke-width="1" opacity="1" d="M 58.5 105 L 58.5 106 L 58.5 105 Z " /><path fill="rgb(243,169,178)" stroke="rgb(243,169,178)" stroke-width="1" opacity="1" d="M 69.5 105 L 69.5 106 L 69.5 105 Z " /><path fill="rgb(243,169,178)" stroke="rgb(243,169,178)" stroke-width="1" opacity="1" d="M 60.5 106 L 60.5 107 L 60.5 106 Z " /><path fill="rgb(243,169,178)" stroke="rgb(243,169,178)" stroke-width="1" opacity="1" d="M 67.5 106 L 67.5 107 L 67.5 106 Z " /><path fill="rgb(252,233,235)" stroke="rgb(252,233,235)" stroke-width="1" opacity="1" d="M 47.5 20 L 49 20.5 L 47.5 21 L 47.5 20 Z " /><path fill="rgb(252,233,235)" stroke="rgb(252,233,235)" stroke-width="1" opacity="1" d="M 79.5 20 L 81 20.5 L 79.5 21 L 79.5 20 Z " /><path fill="rgb(252,233,235)" stroke="rgb(252,233,235)" stroke-width="1" opacity="1" d="M 40.5 21 L 40.5 22 L 40.5 21 Z " /><path fill="rgb(252,233,235)" stroke="rgb(252,233,235)" stroke-width="1" opacity="1" d="M 87.5 21 L 87.5 22 L 87.5 21 Z " /><path fill="rgb(252,233,235)" stroke="rgb(252,233,235)" stroke-width="1" opacity="1" d="M 25.5 25 L 25.5 26 L 25.5 25 Z " /><path fill="rgb(252,233,235)" stroke="rgb(252,233,235)" stroke-width="1" opacity="1" d="M 102.5 25 L 102.5 26 L 102.5 25 Z " /><path fill="rgb(252,233,235)" stroke="rgb(252,233,235)" stroke-width="1" opacity="1" d="M 24.5 27 L 25 32.5 L 24 32.5 L 24.5 27 Z " /><path fill="rgb(252,233,235)" stroke="rgb(252,233,235)" stroke-width="1" opacity="1" d="M 103.5 27 L 104 42.5 L 103 42.5 L 103.5 27 Z " /><path fill="rgb(252,233,235)" stroke="rgb(252,233,235)" stroke-width="1" opacity="1" d="M 24.5 35 L 25 42.5 L 24 42.5 L 24.5 35 Z " /><path fill="rgb(252,233,235)" stroke="rgb(252,233,235)" stroke-width="1" opacity="1" d="M 39.5 52 L 56 52.5 L 39 53 L 38.5 66 L 38 53.5 L 39.5 52 Z " /><path fill="rgb(252,233,235)" stroke="rgb(252,233,235)" stroke-width="1" opacity="1" d="M 72.5 52 L 88.5 52 L 90 53.5 L 89.5 66 L 89 53 L 72.5 53 L 72.5 52 Z " /><path fill="rgb(252,233,235)" stroke="rgb(252,233,235)" stroke-width="1" opacity="1" d="M 25.5 57 L 25.5 58 L 25.5 57 Z " /><path fill="rgb(252,233,235)" stroke="rgb(252,233,235)" stroke-width="1" opacity="1" d="M 102.5 57 L 102.5 58 L 102.5 57 Z " /><path fill="rgb(252,233,235)" stroke="rgb(252,233,235)" stroke-width="1" opacity="1" d="M 26.5 63 L 26.5 64 L 26.5 63 Z " /><path fill="rgb(252,233,235)" stroke="rgb(252,233,235)" stroke-width="1" opacity="1" d="M 101.5 63 L 101.5 64 L 101.5 63 Z " /><path fill="rgb(252,233,235)" stroke="rgb(252,233,235)" stroke-width="1" opacity="1" d="M 27.5 68 L 27.5 69 L 27.5 68 Z " /><path fill="rgb(252,233,235)" stroke="rgb(252,233,235)" stroke-width="1" opacity="1" d="M 100.5 68 L 100.5 69 L 100.5 68 Z " /><path fill="rgb(252,233,235)" stroke="rgb(252,233,235)" stroke-width="1" opacity="1" d="M 28.5 71 L 28.5 72 L 28.5 71 Z " /><path fill="rgb(252,233,235)" stroke="rgb(252,233,235)" stroke-width="1" opacity="1" d="M 99.5 71 L 99.5 72 L 99.5 71 Z " /><path fill="rgb(252,233,235)" stroke="rgb(252,233,235)" stroke-width="1" opacity="1" d="M 35.5 85 L 35.5 86 L 35.5 85 Z " /><path fill="rgb(252,233,235)" stroke="rgb(252,233,235)" stroke-width="1" opacity="1" d="M 92.5 85 L 92.5 86 L 92.5 85 Z " /><path fill="rgb(252,233,235)" stroke="rgb(252,233,235)" stroke-width="1" opacity="1" d="M 38.5 89 L 38.5 90 L 38.5 89 Z " /><path fill="rgb(252,233,235)" stroke="rgb(252,233,235)" stroke-width="1" opacity="1" d="M 89.5 89 L 89.5 90 L 89.5 89 Z " /><path fill="rgb(252,233,235)" stroke="rgb(252,233,235)" stroke-width="1" opacity="1" d="M 48.5 99 Q 51 100 49.5 101 Q 47 100 48.5 99 Z " /><path fill="rgb(252,233,235)" stroke="rgb(252,233,235)" stroke-width="1" opacity="1" d="M 79.5 99 Q 81 100 78.5 101 Q 77 100 79.5 99 Z " /><path fill="rgb(252,233,235)" stroke="rgb(252,233,235)" stroke-width="1" opacity="1" d="M 52.5 102 L 52.5 103 L 52.5 102 Z " /><path fill="rgb(252,233,235)" stroke="rgb(252,233,235)" stroke-width="1" opacity="1" d="M 75.5 102 L 75.5 103 L 75.5 102 Z " /><path fill="rgb(252,233,235)" stroke="rgb(252,233,235)" stroke-width="1" opacity="1" d="M 57.5 105 L 57.5 106 L 57.5 105 Z " /><path fill="rgb(252,233,235)" stroke="rgb(252,233,235)" stroke-width="1" opacity="1" d="M 70.5 105 L 70.5 106 L 70.5 105 Z " /><path fill="rgb(252,233,235)" stroke="rgb(252,233,235)" stroke-width="1" opacity="1" d="M 61.5 107 L 61.5 108 L 61.5 107 Z " /><path fill="rgb(252,233,235)" stroke="rgb(252,233,235)" stroke-width="1" opacity="1" d="M 66.5 107 L 66.5 108 L 66.5 107 Z " /><path fill="rgb(229,81,94)" stroke="rgb(229,81,94)" stroke-width="1" opacity="1" d="M 49.5 21 L 52 21.5 L 49.5 22 L 49.5 21 Z " /><path fill="rgb(229,81,94)" stroke="rgb(229,81,94)" stroke-width="1" opacity="1" d="M 76.5 21 L 79 21.5 L 76.5 22 L 76.5 21 Z " /><path fill="rgb(229,81,94)" stroke="rgb(229,81,94)" stroke-width="1" opacity="1" d="M 41.5 22 L 43 22.5 L 41.5 23 L 41.5 22 Z " /><path fill="rgb(229,81,94)" stroke="rgb(229,81,94)" stroke-width="1" opacity="1" d="M 85.5 22 L 87 22.5 L 85.5 23 L 85.5 22 Z " /><path fill="rgb(229,81,94)" stroke="rgb(229,81,94)" stroke-width="1" opacity="1" d="M 35.5 23 L 37 23.5 L 35.5 24 L 35.5 23 Z " /><path fill="rgb(229,81,94)" stroke="rgb(229,81,94)" stroke-width="1" opacity="1" d="M 91.5 23 L 93 23.5 L 91.5 24 L 91.5 23 Z " /><path fill="rgb(229,81,94)" stroke="rgb(229,81,94)" stroke-width="1" opacity="1" d="M 31.5 24 L 31.5 25 L 31.5 24 Z " /><path fill="rgb(229,81,94)" stroke="rgb(229,81,94)" stroke-width="1" opacity="1" d="M 96.5 24 L 96.5 25 L 96.5 24 Z " /><path fill="rgb(229,81,94)" stroke="rgb(229,81,94)" stroke-width="1" opacity="1" d="M 28.5 25 L 28.5 26 L 28.5 25 Z " /><path fill="rgb(229,81,94)" stroke="rgb(229,81,94)" stroke-width="1" opacity="1" d="M 99.5 25 L 99.5 26 L 99.5 25 Z " /><path fill="rgb(229,81,94)" stroke="rgb(229,81,94)" stroke-width="1" opacity="1" d="M 25.5 26 L 25.5 27 L 25.5 26 Z " /><path fill="rgb(229,81,94)" stroke="rgb(229,81,94)" stroke-width="1" opacity="1" d="M 102.5 26 L 102.5 27 L 102.5 26 Z " /><path fill="rgb(229,81,94)" stroke="rgb(229,81,94)" stroke-width="1" opacity="1" d="M 25.5 44 L 26 46.5 L 25 46.5 L 25.5 44 Z " /><path fill="rgb(229,81,94)" stroke="rgb(229,81,94)" stroke-width="1" opacity="1" d="M 102.5 44 L 103 46.5 L 102 46.5 L 102.5 44 Z " /><path fill="rgb(229,81,94)" stroke="rgb(229,81,94)" stroke-width="1" opacity="1" d="M 26.5 56 L 26.5 57 L 26.5 56 Z " /><path fill="rgb(229,81,94)" stroke="rgb(229,81,94)" stroke-width="1" opacity="1" d="M 101.5 56 L 101.5 57 L 101.5 56 Z " /><path fill="rgb(229,81,94)" stroke="rgb(229,81,94)" stroke-width="1" opacity="1" d="M 27.5 61 L 28 62.5 L 27 62.5 L 27.5 61 Z " /><path fill="rgb(229,81,94)" stroke="rgb(229,81,94)" stroke-width="1" opacity="1" d="M 100.5 61 L 101 62.5 L 100 62.5 L 100.5 61 Z " /><path fill="rgb(229,81,94)" stroke="rgb(229,81,94)" stroke-width="1" opacity="1" d="M 28.5 66 L 29 67.5 L 28 67.5 L 28.5 66 Z " /><path fill="rgb(229,81,94)" stroke="rgb(229,81,94)" stroke-width="1" opacity="1" d="M 99.5 66 L 100 67.5 L 99 67.5 L 99.5 66 Z " /><path fill="rgb(229,81,94)" stroke="rgb(229,81,94)" stroke-width="1" opacity="1" d="M 38.5 67 L 56 67.5 L 38.5 68 L 38.5 67 Z " /><path fill="rgb(229,81,94)" stroke="rgb(229,81,94)" stroke-width="1" opacity="1" d="M 72.5 67 L 90 67.5 L 72.5 68 L 72.5 67 Z " /><path fill="rgb(229,81,94)" stroke="rgb(229,81,94)" stroke-width="1" opacity="1" d="M 29.5 70 L 29.5 71 L 29.5 70 Z " /><path fill="rgb(229,81,94)" stroke="rgb(229,81,94)" stroke-width="1" opacity="1" d="M 98.5 70 L 98.5 71 L 98.5 70 Z " /><path fill="rgb(229,81,94)" stroke="rgb(229,81,94)" stroke-width="1" opacity="1" d="M 30.5 73 L 30.5 74 L 30.5 73 Z " /><path fill="rgb(229,81,94)" stroke="rgb(229,81,94)" stroke-width="1" opacity="1" d="M 97.5 73 L 97.5 74 L 97.5 73 Z " /><path fill="rgb(229,81,94)" stroke="rgb(229,81,94)" stroke-width="1" opacity="1" d="M 32.5 78 L 32.5 79 L 32.5 78 Z " /><path fill="rgb(229,81,94)" stroke="rgb(229,81,94)" stroke-width="1" opacity="1" d="M 95.5 78 L 95.5 79 L 95.5 78 Z " /><path fill="rgb(229,81,94)" stroke="rgb(229,81,94)" stroke-width="1" opacity="1" d="M 35.5 83 L 35.5 84 L 35.5 83 Z " /><path fill="rgb(229,81,94)" stroke="rgb(229,81,94)" stroke-width="1" opacity="1" d="M 92.5 83 L 92.5 84 L 92.5 83 Z " /><path fill="rgb(229,81,94)" stroke="rgb(229,81,94)" stroke-width="1" opacity="1" d="M 37.5 86 L 37.5 87 L 37.5 86 Z " /><path fill="rgb(229,81,94)" stroke="rgb(229,81,94)" stroke-width="1" opacity="1" d="M 90.5 86 L 90.5 87 L 90.5 86 Z " /><path fill="rgb(229,81,94)" stroke="rgb(229,81,94)" stroke-width="1" opacity="1" d="M 40.5 90 L 43 92.5 L 42.5 93 L 40 90.5 L 40.5 90 Z " /><path fill="rgb(229,81,94)" stroke="rgb(229,81,94)" stroke-width="1" opacity="1" d="M 87.5 90 L 88 90.5 L 85.5 93 L 85 92.5 L 87.5 90 Z " /><path fill="rgb(229,81,94)" stroke="rgb(229,81,94)" stroke-width="1" opacity="1" d="M 46.5 96 Q 49 97 47.5 98 Q 45 97 46.5 96 Z " /><path fill="rgb(229,81,94)" stroke="rgb(229,81,94)" stroke-width="1" opacity="1" d="M 81.5 96 Q 83 97 80.5 98 Q 79 97 81.5 96 Z " /><path fill="rgb(229,81,94)" stroke="rgb(229,81,94)" stroke-width="1" opacity="1" d="M 51.5 100 L 51.5 101 L 51.5 100 Z " /><path fill="rgb(229,81,94)" stroke="rgb(229,81,94)" stroke-width="1" opacity="1" d="M 76.5 100 L 76.5 101 L 76.5 100 Z " /><path fill="rgb(229,81,94)" stroke="rgb(229,81,94)" stroke-width="1" opacity="1" d="M 54.5 102 L 54.5 103 L 54.5 102 Z " /><path fill="rgb(229,81,94)" stroke="rgb(229,81,94)" stroke-width="1" opacity="1" d="M 73.5 102 L 73.5 103 L 73.5 102 Z " /><path fill="rgb(229,81,94)" stroke="rgb(229,81,94)" stroke-width="1" opacity="1" d="M 57.5 104 L 57.5 105 L 57.5 104 Z " /><path fill="rgb(229,81,94)" stroke="rgb(229,81,94)" stroke-width="1" opacity="1" d="M 70.5 104 L 70.5 105 L 70.5 104 Z " /><path fill="rgb(229,81,94)" stroke="rgb(229,81,94)" stroke-width="1" opacity="1" d="M 59.5 105 L 59.5 106 L 59.5 105 Z " /><path fill="rgb(229,81,94)" stroke="rgb(229,81,94)" stroke-width="1" opacity="1" d="M 68.5 105 L 68.5 106 L 68.5 105 Z " /><path fill="rgb(229,81,94)" stroke="rgb(229,81,94)" stroke-width="1" opacity="1" d="M 62.5 106 L 62.5 107 L 62.5 106 Z " /><path fill="rgb(229,81,94)" stroke="rgb(229,81,94)" stroke-width="1" opacity="1" d="M 65.5 106 L 65.5 107 L 65.5 106 Z " /><path fill="rgb(228,89,97)" stroke="rgb(228,89,97)" stroke-width="1" opacity="1" d="M 47.5 21 L 49 21.5 L 47.5 22 L 47.5 21 Z " /><path fill="rgb(228,89,97)" stroke="rgb(228,89,97)" stroke-width="1" opacity="1" d="M 79.5 21 L 81 21.5 L 79.5 22 L 79.5 21 Z " /><path fill="rgb(228,89,97)" stroke="rgb(228,89,97)" stroke-width="1" opacity="1" d="M 40.5 22 L 40.5 23 L 40.5 22 Z " /><path fill="rgb(228,89,97)" stroke="rgb(228,89,97)" stroke-width="1" opacity="1" d="M 87.5 22 L 87.5 23 L 87.5 22 Z " /><path fill="rgb(228,89,97)" stroke="rgb(228,89,97)" stroke-width="1" opacity="1" d="M 56.5 33 L 56.5 34 L 56.5 33 Z " /><path fill="rgb(228,89,97)" stroke="rgb(228,89,97)" stroke-width="1" opacity="1" d="M 71.5 33 L 71.5 34 L 71.5 33 Z " /><path fill="rgb(228,89,97)" stroke="rgb(228,89,97)" stroke-width="1" opacity="1" d="M 25.5 47 L 26 48.5 L 25 48.5 L 25.5 47 Z " /><path fill="rgb(228,89,97)" stroke="rgb(228,89,97)" stroke-width="1" opacity="1" d="M 102.5 47 L 103 48.5 L 102 48.5 L 102.5 47 Z " /><path fill="rgb(228,89,97)" stroke="rgb(228,89,97)" stroke-width="1" opacity="1" d="M 38.5 51 L 56 51.5 L 38.5 52 L 38.5 51 Z " /><path fill="rgb(228,89,97)" stroke="rgb(228,89,97)" stroke-width="1" opacity="1" d="M 72.5 51 L 90 51.5 L 72.5 52 L 72.5 51 Z " /><path fill="rgb(228,89,97)" stroke="rgb(228,89,97)" stroke-width="1" opacity="1" d="M 26.5 57 L 26.5 58 L 26.5 57 Z " /><path fill="rgb(228,89,97)" stroke="rgb(228,89,97)" stroke-width="1" opacity="1" d="M 101.5 57 L 101.5 58 L 101.5 57 Z " /><path fill="rgb(228,89,97)" stroke="rgb(228,89,97)" stroke-width="1" opacity="1" d="M 27.5 63 L 27.5 64 L 27.5 63 Z " /><path fill="rgb(228,89,97)" stroke="rgb(228,89,97)" stroke-width="1" opacity="1" d="M 100.5 63 L 100.5 64 L 100.5 63 Z " /><path fill="rgb(228,89,97)" stroke="rgb(228,89,97)" stroke-width="1" opacity="1" d="M 29.5 71 L 29.5 72 L 29.5 71 Z " /><path fill="rgb(228,89,97)" stroke="rgb(228,89,97)" stroke-width="1" opacity="1" d="M 98.5 71 L 98.5 72 L 98.5 71 Z " /><path fill="rgb(228,89,97)" stroke="rgb(228,89,97)" stroke-width="1" opacity="1" d="M 31.5 76 L 31.5 77 L 31.5 76 Z " /><path fill="rgb(228,89,97)" stroke="rgb(228,89,97)" stroke-width="1" opacity="1" d="M 96.5 76 L 96.5 77 L 96.5 76 Z " /><path fill="rgb(228,89,97)" stroke="rgb(228,89,97)" stroke-width="1" opacity="1" d="M 33.5 80 L 33.5 81 L 33.5 80 Z " /><path fill="rgb(228,89,97)" stroke="rgb(228,89,97)" stroke-width="1" opacity="1" d="M 94.5 80 L 94.5 81 L 94.5 80 Z " /><path fill="rgb(228,89,97)" stroke="rgb(228,89,97)" stroke-width="1" opacity="1" d="M 56.5 85 L 56.5 86 L 56.5 85 Z " /><path fill="rgb(228,89,97)" stroke="rgb(228,89,97)" stroke-width="1" opacity="1" d="M 71.5 85 L 71.5 86 L 71.5 85 Z " /><path fill="rgb(228,89,97)" stroke="rgb(228,89,97)" stroke-width="1" opacity="1" d="M 39.5 89 L 39.5 90 L 39.5 89 Z " /><path fill="rgb(228,89,97)" stroke="rgb(228,89,97)" stroke-width="1" opacity="1" d="M 88.5 89 L 88.5 90 L 88.5 89 Z " /><path fill="rgb(228,89,97)" stroke="rgb(228,89,97)" stroke-width="1" opacity="1" d="M 48.5 98 L 48.5 99 L 48.5 98 Z " /><path fill="rgb(228,89,97)" stroke="rgb(228,89,97)" stroke-width="1" opacity="1" d="M 79.5 98 L 79.5 99 L 79.5 98 Z " /><path fill="rgb(228,89,97)" stroke="rgb(228,89,97)" stroke-width="1" opacity="1" d="M 52.5 101 L 52.5 102 L 52.5 101 Z " /><path fill="rgb(228,89,97)" stroke="rgb(228,89,97)" stroke-width="1" opacity="1" d="M 75.5 101 L 75.5 102 L 75.5 101 Z " /><path fill="rgb(228,89,97)" stroke="rgb(228,89,97)" stroke-width="1" opacity="1" d="M 55.5 103 L 55.5 104 L 55.5 103 Z " /><path fill="rgb(228,89,97)" stroke="rgb(228,89,97)" stroke-width="1" opacity="1" d="M 72.5 103 L 72.5 104 L 72.5 103 Z " /><path fill="rgb(228,89,97)" stroke="rgb(228,89,97)" stroke-width="1" opacity="1" d="M 61.5 106 L 61.5 107 L 61.5 106 Z " /><path fill="rgb(228,89,97)" stroke="rgb(228,89,97)" stroke-width="1" opacity="1" d="M 66.5 106 L 66.5 107 L 66.5 106 Z " /></svg>