<svg width="128" height="128" version="1.1" xmlns="http://www.w3.org/2000/svg" desc="Created with imagetracer.js version 1.2.6" ><path fill="rgb(255,255,255)" stroke="rgb(255,255,255)" stroke-width="1" opacity="1" d="M 0 0 L 127.5 0 L 128 0.5 L 128 19 L 0.5 19 L 0 18.5 L 0 0 Z " /><path fill="rgb(255,255,255)" stroke="rgb(255,255,255)" stroke-width="1" opacity="1" d="M 26.5 20 L 27.5 21 L 29 20.5 L 28 21.5 L 28.5 23 Q 27.5 21 26.5 23 L 25 21.5 L 26.5 20 Z M 27 21 L 27 22 L 27 21 Z " /><path fill="rgb(255,255,255)" stroke="rgb(255,255,255)" stroke-width="1" opacity="1" d="M 30.5 20 L 30.5 21 L 30.5 20 Z " /><path fill="rgb(255,255,255)" stroke="rgb(255,255,255)" stroke-width="1" opacity="1" d="M 43.5 20 Q 45 23.5 46.5 21 L 86.5 21 L 88.5 20 Q 91 21 89.5 22 L 87.5 21 L 86.5 22 L 46.5 22 L 45.5 23 L 44.5 22 L 43 22.5 L 44 21.5 L 43.5 20 Z " /><path fill="rgb(255,255,255)" stroke="rgb(255,255,255)" stroke-width="1" opacity="1" d="M 92.5 20 L 97 20.5 L 92.5 21 L 92.5 20 Z " /><path fill="rgb(255,255,255)" stroke="rgb(255,255,255)" stroke-width="1" opacity="1" d="M 102.5 20 L 102.5 21 L 102.5 20 Z " /><path fill="rgb(255,255,255)" stroke="rgb(255,255,255)" stroke-width="1" opacity="1" d="M 107.5 20 L 107.5 23 Q 104.5 21.5 107.5 20 Z " /><path fill="rgb(255,255,255)" stroke="rgb(255,255,255)" stroke-width="1" opacity="1" d="M 125.5 20 L 125.5 21 L 125.5 20 Z " /><path fill="rgb(255,255,255)" stroke="rgb(255,255,255)" stroke-width="1" opacity="1" d="M 87.5 23 L 88 24.5 L 87 24.5 L 87.5 23 Z " /><path fill="rgb(255,255,255)" stroke="rgb(255,255,255)" stroke-width="1" opacity="1" d="M 104.5 23 L 104.5 24 L 104.5 23 Z " /><path fill="rgb(255,255,255)" stroke="rgb(255,255,255)" stroke-width="1" opacity="1" d="M 42.5 24 L 42.5 25 L 42.5 24 Z " /><path fill="rgb(255,255,255)" stroke="rgb(255,255,255)" stroke-width="1" opacity="1" d="M 89.5 24 L 89.5 25 L 89.5 24 Z " /><path fill="rgb(255,255,255)" stroke="rgb(255,255,255)" stroke-width="1" opacity="1" d="M 106.5 24 Q 109 25 107.5 26 Q 105 25 106.5 24 Z " /><path fill="rgb(255,255,255)" stroke="rgb(255,255,255)" stroke-width="1" opacity="1" d="M 25.5 25 Q 28.25 26.25 26 27.5 L 27 29.5 Q 26 31 25 28.5 L 26 26.5 L 25.5 25 Z " /><path fill="rgb(255,255,255)" stroke="rgb(255,255,255)" stroke-width="1" opacity="1" d="M 125.5 25 L 125.5 26 L 125.5 25 Z " /><path fill="rgb(255,255,255)" stroke="rgb(255,255,255)" stroke-width="1" opacity="1" d="M 107.5 27 L 108 28.5 Q 107 31 106 29.5 L 107.5 27 Z " /><path fill="rgb(255,255,255)" stroke="rgb(255,255,255)" stroke-width="1" opacity="1" d="M 46.5 30 L 72 30.5 L 46.5 31 L 46.5 30 Z " /><path fill="rgb(255,255,255)" stroke="rgb(255,255,255)" stroke-width="1" opacity="1" d="M 73.5 30 L 73.5 31 L 73.5 30 Z " /><path fill="rgb(255,255,255)" stroke="rgb(255,255,255)" stroke-width="1" opacity="1" d="M 75.5 30 L 75.5 31 L 75.5 30 Z " /><path fill="rgb(255,255,255)" stroke="rgb(255,255,255)" stroke-width="1" opacity="1" d="M 78.5 30 L 78.5 31 L 78.5 30 Z " /><path fill="rgb(255,255,255)" stroke="rgb(255,255,255)" stroke-width="1" opacity="1" d="M 21.5 31 L 21.5 34 Q 18.5 32.5 21.5 31 Z " /><path fill="rgb(255,255,255)" stroke="rgb(255,255,255)" stroke-width="1" opacity="1" d="M 23.5 32 L 24 33.5 L 23 33.5 L 23.5 32 Z " /><path fill="rgb(255,255,255)" stroke="rgb(255,255,255)" stroke-width="1" opacity="1" d="M 77.5 32 L 77.5 33 L 77.5 32 Z " /><path fill="rgb(255,255,255)" stroke="rgb(255,255,255)" stroke-width="1" opacity="1" d="M 81.5 32 Q 84 33 82.5 34 L 79 33.5 L 81.5 32 Z " /><path fill="rgb(255,255,255)" stroke="rgb(255,255,255)" stroke-width="1" opacity="1" d="M 107.5 32 L 107.5 33 L 107.5 32 Z " /><path fill="rgb(255,255,255)" stroke="rgb(255,255,255)" stroke-width="1" opacity="1" d="M 77.5 34 Q 80 35 78.5 36 Q 76 35 77.5 34 Z " /><path fill="rgb(255,255,255)" stroke="rgb(255,255,255)" stroke-width="1" opacity="1" d="M 20.5 35 Q 23 36 21.5 37 Q 19 36 20.5 35 Z " /><path fill="rgb(255,255,255)" stroke="rgb(255,255,255)" stroke-width="1" opacity="1" d="M 80.5 35 L 82 35.5 L 80.5 36 L 80.5 35 Z " /><path fill="rgb(255,255,255)" stroke="rgb(255,255,255)" stroke-width="1" opacity="1" d="M 84.5 35 L 85 37.5 Q 84 39 83 36.5 L 84.5 35 Z " /><path fill="rgb(255,255,255)" stroke="rgb(255,255,255)" stroke-width="1" opacity="1" d="M 107.5 35 L 107.5 36 L 107.5 35 Z " /><path fill="rgb(255,255,255)" stroke="rgb(255,255,255)" stroke-width="1" opacity="1" d="M 110.5 36 L 111.5 37 L 113 36.5 L 112 38.5 Q 114.25 39.75 111.5 41 Q 109.1 39.23 110.5 36 Z " /><path fill="rgb(255,255,255)" stroke="rgb(255,255,255)" stroke-width="1" opacity="1" d="M 20.5 38 L 23 39.5 L 21.5 42 L 20.5 38 Z " /><path fill="rgb(255,255,255)" stroke="rgb(255,255,255)" stroke-width="1" opacity="1" d="M 86.5 39 L 87 40.5 L 86 40.5 L 86.5 39 Z " /><path fill="rgb(255,255,255)" stroke="rgb(255,255,255)" stroke-width="1" opacity="1" d="M 82.5 40 L 82.5 41 L 82.5 40 Z " /><path fill="rgb(255,255,255)" stroke="rgb(255,255,255)" stroke-width="1" opacity="1" d="M 109.5 40 L 109.5 41 L 109.5 40 Z " /><path fill="rgb(255,255,255)" stroke="rgb(255,255,255)" stroke-width="1" opacity="1" d="M 87.5 42 Q 90.5 43.5 87.5 45 L 87.5 42 Z " /><path fill="rgb(255,255,255)" stroke="rgb(255,255,255)" stroke-width="1" opacity="1" d="M 110.5 42 L 111.5 43 L 113 42.5 L 111.5 44 Q 109 43 110.5 42 Z " /><path fill="rgb(255,255,255)" stroke="rgb(255,255,255)" stroke-width="1" opacity="1" d="M 20.5 43 L 20.5 44 L 20.5 43 Z " /><path fill="rgb(255,255,255)" stroke="rgb(255,255,255)" stroke-width="1" opacity="1" d="M 20.5 45 Q 22 46 19.5 47 Q 18 46 20.5 45 Z " /><path fill="rgb(255,255,255)" stroke="rgb(255,255,255)" stroke-width="1" opacity="1" d="M 112.5 45 L 112.5 46 L 112.5 45 Z " /><path fill="rgb(255,255,255)" stroke="rgb(255,255,255)" stroke-width="1" opacity="1" d="M 15.5 46 L 16.5 47 L 18 46.5 L 17 47.5 L 17.5 49 L 16 49.5 L 17 51.5 L 16 51.5 L 15 49.5 Q 17 48.5 15 47.5 L 15.5 46 Z " /><path fill="rgb(255,255,255)" stroke="rgb(255,255,255)" stroke-width="1" opacity="1" d="M 87.5 46 L 87.5 47 L 87.5 46 Z " /><path fill="rgb(255,255,255)" stroke="rgb(255,255,255)" stroke-width="1" opacity="1" d="M 110.5 46 L 110.5 47 L 110.5 46 Z " /><path fill="rgb(255,255,255)" stroke="rgb(255,255,255)" stroke-width="1" opacity="1" d="M 112.5 48 L 112.5 49 L 112.5 48 Z " /><path fill="rgb(255,255,255)" stroke="rgb(255,255,255)" stroke-width="1" opacity="1" d="M 112.5 50 L 115 51 L 114.5 53 L 112 52 L 112.5 50 Z " /><path fill="rgb(255,255,255)" stroke="rgb(255,255,255)" stroke-width="1" opacity="1" d="M 83.5 51 L 83.5 52 L 83.5 51 Z " /><path fill="rgb(255,255,255)" stroke="rgb(255,255,255)" stroke-width="1" opacity="1" d="M 88.5 51 L 88.5 52 L 88.5 51 Z " /><path fill="rgb(255,255,255)" stroke="rgb(255,255,255)" stroke-width="1" opacity="1" d="M 117.5 51 L 117.5 52 L 117.5 51 Z " /><path fill="rgb(255,255,255)" stroke="rgb(255,255,255)" stroke-width="1" opacity="1" d="M 85.5 52 L 86 53.5 L 85 53.5 L 85.5 52 Z " /><path fill="rgb(255,255,255)" stroke="rgb(255,255,255)" stroke-width="1" opacity="1" d="M 17.5 53 L 18 54.5 Q 16 55.5 18 56.5 L 16.5 59 Q 14.25 58 15 55 Q 17.75 56 17.5 53 Z M 17 57 L 17 58 L 17 57 Z " /><path fill="rgb(255,255,255)" stroke="rgb(255,255,255)" stroke-width="1" opacity="1" d="M 83.5 53 L 83.5 54 L 83.5 53 Z " /><path fill="rgb(255,255,255)" stroke="rgb(255,255,255)" stroke-width="1" opacity="1" d="M 83.5 55 L 83.5 56 L 83.5 55 Z " /><path fill="rgb(255,255,255)" stroke="rgb(255,255,255)" stroke-width="1" opacity="1" d="M 73.5 56 Q 76.5 57.5 73.5 59 L 73.5 56 Z " /><path fill="rgb(255,255,255)" stroke="rgb(255,255,255)" stroke-width="1" opacity="1" d="M 79.5 56 L 79.5 57 L 79.5 56 Z " /><path fill="rgb(255,255,255)" stroke="rgb(255,255,255)" stroke-width="1" opacity="1" d="M 81.5 56 L 81.5 57 L 81.5 56 Z " /><path fill="rgb(255,255,255)" stroke="rgb(255,255,255)" stroke-width="1" opacity="1" d="M 115.5 56 L 118 57.5 L 117 59.5 L 118 62.5 L 117.5 65 L 116 61.5 Q 118 60.5 116 59.5 L 117 57.5 L 115.5 57 L 114 57.5 L 115.5 56 Z " /><path fill="rgb(255,255,255)" stroke="rgb(255,255,255)" stroke-width="1" opacity="1" d="M 46.5 57 L 72 57.5 L 46.5 58 L 46.5 57 Z " /><path fill="rgb(255,255,255)" stroke="rgb(255,255,255)" stroke-width="1" opacity="1" d="M 77.5 57 Q 79 58 76.5 59 Q 75 58 77.5 57 Z " /><path fill="rgb(255,255,255)" stroke="rgb(255,255,255)" stroke-width="1" opacity="1" d="M 15.5 60 L 15.5 61 L 15.5 60 Z " /><path fill="rgb(255,255,255)" stroke="rgb(255,255,255)" stroke-width="1" opacity="1" d="M 12.5 61 L 15 64.5 L 13.5 64 L 11.5 65 L 10 62.5 L 11 62.5 L 11.5 64 L 13 62.5 L 12.5 61 Z " /><path fill="rgb(255,255,255)" stroke="rgb(255,255,255)" stroke-width="1" opacity="1" d="M 71.5 65 L 71.5 66 L 71.5 65 Z " /><path fill="rgb(255,255,255)" stroke="rgb(255,255,255)" stroke-width="1" opacity="1" d="M 12.5 66 L 13 67.5 L 12 67.5 L 12.5 66 Z " /><path fill="rgb(255,255,255)" stroke="rgb(255,255,255)" stroke-width="1" opacity="1" d="M 73.5 66 L 73.5 67 L 73.5 66 Z " /><path fill="rgb(255,255,255)" stroke="rgb(255,255,255)" stroke-width="1" opacity="1" d="M 75.5 66 L 75.5 67 L 75.5 66 Z " /><path fill="rgb(255,255,255)" stroke="rgb(255,255,255)" stroke-width="1" opacity="1" d="M 78.5 66 L 78.5 67 L 78.5 66 Z " /><path fill="rgb(255,255,255)" stroke="rgb(255,255,255)" stroke-width="1" opacity="1" d="M 10.5 68 L 10.5 69 L 10.5 68 Z " /><path fill="rgb(255,255,255)" stroke="rgb(255,255,255)" stroke-width="1" opacity="1" d="M 117.5 69 L 117.5 70 L 117.5 69 Z " /><path fill="rgb(255,255,255)" stroke="rgb(255,255,255)" stroke-width="1" opacity="1" d="M 12.5 70 L 12.5 71 L 12.5 70 Z " /><path fill="rgb(255,255,255)" stroke="rgb(255,255,255)" stroke-width="1" opacity="1" d="M 79.5 70 Q 82 71 80.5 72 Q 77.71 72.67 79.5 70 Z " /><path fill="rgb(255,255,255)" stroke="rgb(255,255,255)" stroke-width="1" opacity="1" d="M 85.5 71 L 85.5 72 L 85.5 71 Z " /><path fill="rgb(255,255,255)" stroke="rgb(255,255,255)" stroke-width="1" opacity="1" d="M 122.5 71 L 123 72.5 L 122 72.5 L 122.5 71 Z " /><path fill="rgb(255,255,255)" stroke="rgb(255,255,255)" stroke-width="1" opacity="1" d="M 11.5 72 L 11.5 73 L 11.5 72 Z " /><path fill="rgb(255,255,255)" stroke="rgb(255,255,255)" stroke-width="1" opacity="1" d="M 119.5 73 Q 121.75 72.25 121 74.5 L 122 76.5 L 119 76.5 L 120 74.5 L 119.5 73 Z " /><path fill="rgb(255,255,255)" stroke="rgb(255,255,255)" stroke-width="1" opacity="1" d="M 10.5 76 L 10.5 77 L 10.5 76 Z " /><path fill="rgb(255,255,255)" stroke="rgb(255,255,255)" stroke-width="1" opacity="1" d="M 88.5 76 L 88.5 77 L 88.5 76 Z " /><path fill="rgb(255,255,255)" stroke="rgb(255,255,255)" stroke-width="1" opacity="1" d="M 5.5 77 L 5.5 78 L 5.5 77 Z " /><path fill="rgb(255,255,255)" stroke="rgb(255,255,255)" stroke-width="1" opacity="1" d="M 122.5 79 L 122 80.5 L 121.5 82 L 121 80.5 L 122.5 79 Z " /><path fill="rgb(255,255,255)" stroke="rgb(255,255,255)" stroke-width="1" opacity="1" d="M 87.5 81 L 87.5 82 L 87.5 81 Z " /><path fill="rgb(255,255,255)" stroke="rgb(255,255,255)" stroke-width="1" opacity="1" d="M 5.5 82 L 5.5 83 L 5.5 82 Z " /><path fill="rgb(255,255,255)" stroke="rgb(255,255,255)" stroke-width="1" opacity="1" d="M 6.5 84 Q 8 85 5.5 86 Q 4 85 6.5 84 Z " /><path fill="rgb(255,255,255)" stroke="rgb(255,255,255)" stroke-width="1" opacity="1" d="M 122.5 84 L 122.5 87 Q 119.5 85.5 122.5 84 Z " /><path fill="rgb(255,255,255)" stroke="rgb(255,255,255)" stroke-width="1" opacity="1" d="M 127.5 87 L 127.5 88 L 127.5 87 Z " /><path fill="rgb(255,255,255)" stroke="rgb(255,255,255)" stroke-width="1" opacity="1" d="M 82.5 91 L 85 91.5 L 83.5 93 Q 81 92 82.5 91 Z " /><path fill="rgb(255,255,255)" stroke="rgb(255,255,255)" stroke-width="1" opacity="1" d="M 125.5 91 L 125 92.5 L 124.5 94 L 124 92.5 L 125.5 91 Z " /><path fill="rgb(255,255,255)" stroke="rgb(255,255,255)" stroke-width="1" opacity="1" d="M 79.5 92 L 79.5 93 L 79.5 92 Z " /><path fill="rgb(255,255,255)" stroke="rgb(255,255,255)" stroke-width="1" opacity="1" d="M 127.5 92 Q 129 93 126.5 94 Q 125 93 127.5 92 Z " /><path fill="rgb(255,255,255)" stroke="rgb(255,255,255)" stroke-width="1" opacity="1" d="M 5.5 93 L 5.5 94 L 5.5 93 Z " /><path fill="rgb(255,255,255)" stroke="rgb(255,255,255)" stroke-width="1" opacity="1" d="M 77.5 94 L 79 94.5 L 77.5 95 L 77.5 94 Z " /><path fill="rgb(255,255,255)" stroke="rgb(255,255,255)" stroke-width="1" opacity="1" d="M 81.5 94 Q 83 95 80.5 96 Q 79 95 81.5 94 Z " /><path fill="rgb(255,255,255)" stroke="rgb(255,255,255)" stroke-width="1" opacity="1" d="M 5.5 95 L 5.5 96 L 5.5 95 Z " /><path fill="rgb(255,255,255)" stroke="rgb(255,255,255)" stroke-width="1" opacity="1" d="M 125.5 95 L 125.5 96 L 125.5 95 Z " /><path fill="rgb(255,255,255)" stroke="rgb(255,255,255)" stroke-width="1" opacity="1" d="M 1.5 97 Q 4.5 98.5 1.5 100 L 0 99.5 L 1.5 97 Z " /><path fill="rgb(255,255,255)" stroke="rgb(255,255,255)" stroke-width="1" opacity="1" d="M 75.5 97 L 75.5 98 L 75.5 97 Z " /><path fill="rgb(255,255,255)" stroke="rgb(255,255,255)" stroke-width="1" opacity="1" d="M 126.5 97 L 126.5 98 L 126.5 97 Z " /><path fill="rgb(255,255,255)" stroke="rgb(255,255,255)" stroke-width="1" opacity="1" d="M 3.5 100 L 3.5 101 L 3.5 100 Z " /><path fill="rgb(255,255,255)" stroke="rgb(255,255,255)" stroke-width="1" opacity="1" d="M 127.5 101 L 127.5 102 L 127.5 101 Z " /><path fill="rgb(255,255,255)" stroke="rgb(255,255,255)" stroke-width="1" opacity="1" d="M 45.5 104 L 87 104.5 L 45 105.5 L 46.5 107 L 87.5 107 L 89.5 108 L 92.5 107 L 122.5 107 L 123.5 108 L 126.5 107 L 128 108.5 L 128 127.5 L 127.5 128 L 0 128 L 0 107.5 L 1.5 106 Q 3.5 109 9.5 108 L 10.5 107 L 36.5 107 L 38.5 108 L 40.5 107 L 42.5 108 L 42 106.5 L 43.5 105 L 45.5 104 Z M 44 106 Q 42 107 45 108 L 46 108 L 44 106 Z M 2 107 L 2 108 L 2 107 Z " /><path fill="rgb(2,2,2)" stroke="rgb(2,2,2)" stroke-width="1" opacity="1" d="M 102.5 23 L 103 25.5 L 102 25.5 L 102.5 23 Z " /><path fill="rgb(2,2,2)" stroke="rgb(2,2,2)" stroke-width="1" opacity="1" d="M 30.5 25 L 30 26.5 L 29 28.5 L 30 29.5 L 29 30.5 L 29.5 32 L 28 31.5 L 29 34.5 Q 27.5 37.5 26 34.5 L 29 29.5 Q 27 28.5 29 27.5 L 30.5 25 Z M 28 34 L 28 35 L 28 34 Z " /><path fill="rgb(2,2,2)" stroke="rgb(2,2,2)" stroke-width="1" opacity="1" d="M 42.5 26 L 44 26.5 L 42 27 Q 40.87 29.67 43.5 29 L 45.5 26 L 46 27.5 L 44 29.5 L 44.5 31 Q 41.5 31.5 41 29.5 Q 40.5 26.5 42.5 26 Z " /><path fill="rgb(2,2,2)" stroke="rgb(2,2,2)" stroke-width="1" opacity="1" d="M 71 26 L 74 27.5 L 71.5 29 L 71 26 Z " /><path fill="rgb(2,2,2)" stroke="rgb(2,2,2)" stroke-width="1" opacity="1" d="M 75.5 26 L 76 28.5 L 75 28.5 L 75.5 26 Z " /><path fill="rgb(2,2,2)" stroke="rgb(2,2,2)" stroke-width="1" opacity="1" d="M 77.5 26 L 78 28.5 L 77 28.5 L 77.5 26 Z " /><path fill="rgb(2,2,2)" stroke="rgb(2,2,2)" stroke-width="1" opacity="1" d="M 80.5 26 L 82 27.5 L 81 28.5 L 81.5 30 L 79 28.5 L 80.5 26 Z M 81 27 L 81 28 L 81 27 Z " /><path fill="rgb(2,2,2)" stroke="rgb(2,2,2)" stroke-width="1" opacity="1" d="M 103.5 28 L 103.5 29 L 103.5 28 Z " /><path fill="rgb(2,2,2)" stroke="rgb(2,2,2)" stroke-width="1" opacity="1" d="M 103 30 Q 106 28.75 105 32.5 Q 103.5 35.5 102 32.5 L 103 30 Z M 104 32 L 104 33 L 104 32 Z " /><path fill="rgb(2,2,2)" stroke="rgb(2,2,2)" stroke-width="1" opacity="1" d="M 84.5 31 L 86.5 32 Q 87.42 30.25 90 31 L 88.5 35 L 84 31.5 L 84.5 31 Z " /><path fill="rgb(2,2,2)" stroke="rgb(2,2,2)" stroke-width="1" opacity="1" d="M 91.5 32 L 91.5 33 L 91.5 32 Z " /><path fill="rgb(2,2,2)" stroke="rgb(2,2,2)" stroke-width="1" opacity="1" d="M 91.5 34 L 92 35.5 Q 91 38 90 36.5 L 91.5 34 Z " /><path fill="rgb(2,2,2)" stroke="rgb(2,2,2)" stroke-width="1" opacity="1" d="M 30.5 35 L 30.5 36 L 30.5 35 Z " /><path fill="rgb(2,2,2)" stroke="rgb(2,2,2)" stroke-width="1" opacity="1" d="M 103.5 35 L 104 36.5 L 103 36.5 L 103.5 35 Z " /><path fill="rgb(2,2,2)" stroke="rgb(2,2,2)" stroke-width="1" opacity="1" d="M 105.5 36 L 107 38.5 L 105.5 41 L 105 39.5 L 106 37.5 L 105.5 36 Z " /><path fill="rgb(2,2,2)" stroke="rgb(2,2,2)" stroke-width="1" opacity="1" d="M 25.5 38 L 26 39.5 L 25 39.5 L 25.5 38 Z " /><path fill="rgb(2,2,2)" stroke="rgb(2,2,2)" stroke-width="1" opacity="1" d="M 91.5 38 L 92 44.5 L 91 44.5 L 91.5 38 Z " /><path fill="rgb(2,2,2)" stroke="rgb(2,2,2)" stroke-width="1" opacity="1" d="M 103.5 40 L 103.5 41 L 103.5 40 Z " /><path fill="rgb(2,2,2)" stroke="rgb(2,2,2)" stroke-width="1" opacity="1" d="M 24.5 41 L 26 41.5 L 24.5 42 L 24.5 41 Z " /><path fill="rgb(2,2,2)" stroke="rgb(2,2,2)" stroke-width="1" opacity="1" d="M 107.5 41 L 107.5 42 L 107.5 41 Z " /><path fill="rgb(2,2,2)" stroke="rgb(2,2,2)" stroke-width="1" opacity="1" d="M 23 43 L 25 43.5 L 23.5 46 L 23 43 Z " /><path fill="rgb(2,2,2)" stroke="rgb(2,2,2)" stroke-width="1" opacity="1" d="M 108.5 45 L 109 46.5 L 108 46.5 L 108.5 45 Z " /><path fill="rgb(2,2,2)" stroke="rgb(2,2,2)" stroke-width="1" opacity="1" d="M 91.5 46 L 92 48.5 L 90.5 51 L 90 49.5 L 91.5 46 Z " /><path fill="rgb(2,2,2)" stroke="rgb(2,2,2)" stroke-width="1" opacity="1" d="M 24.5 47 L 24.5 48 L 24.5 47 Z " /><path fill="rgb(2,2,2)" stroke="rgb(2,2,2)" stroke-width="1" opacity="1" d="M 22.5 48 Q 25 49 23.5 50 L 22 49.5 L 21.5 51 L 21 49.5 L 22.5 48 Z " /><path fill="rgb(2,2,2)" stroke="rgb(2,2,2)" stroke-width="1" opacity="1" d="M 108.5 48 Q 113.5 50.5 108.5 53 L 108.5 48 Z " /><path fill="rgb(2,2,2)" stroke="rgb(2,2,2)" stroke-width="1" opacity="1" d="M 91.5 52 L 91.5 53 L 91.5 52 Z " /><path fill="rgb(2,2,2)" stroke="rgb(2,2,2)" stroke-width="1" opacity="1" d="M 20.5 53 L 21 54.5 Q 20 57 19 55.5 L 20.5 53 Z " /><path fill="rgb(2,2,2)" stroke="rgb(2,2,2)" stroke-width="1" opacity="1" d="M 89.5 53 Q 91.5 53.5 91 56.5 L 89.5 56 L 88.5 57 L 87 55.5 L 89 55 L 89.5 53 Z " /><path fill="rgb(2,2,2)" stroke="rgb(2,2,2)" stroke-width="1" opacity="1" d="M 110.5 53 L 110.5 54 L 110.5 53 Z " /><path fill="rgb(2,2,2)" stroke="rgb(2,2,2)" stroke-width="1" opacity="1" d="M 108.5 55 L 109 56.5 L 108 56.5 L 108.5 55 Z " /><path fill="rgb(2,2,2)" stroke="rgb(2,2,2)" stroke-width="1" opacity="1" d="M 111.5 55 L 111.5 56 L 111.5 55 Z " /><path fill="rgb(2,2,2)" stroke="rgb(2,2,2)" stroke-width="1" opacity="1" d="M 19.5 57 L 19.5 58 L 19.5 57 Z " /><path fill="rgb(2,2,2)" stroke="rgb(2,2,2)" stroke-width="1" opacity="1" d="M 85.5 57 Q 88.5 56.12 87 60.5 L 84.5 62 L 84.5 61 Q 87.13 61.83 86 58.5 L 85 58.5 L 84.5 60 L 83 59.5 L 81.5 62 L 80 62.5 L 82 63 Q 83 66 80 65 L 78.5 62 Q 76.25 62.75 77 60.5 L 78.5 61 L 79.5 60 L 80.5 61 L 83.5 58 L 85.5 57 Z M 80 61 L 80 62 L 80 61 Z " /><path fill="rgb(2,2,2)" stroke="rgb(2,2,2)" stroke-width="1" opacity="1" d="M 43.5 58 L 44 60.5 Q 43 62 42 59.5 L 43.5 58 Z " /><path fill="rgb(2,2,2)" stroke="rgb(2,2,2)" stroke-width="1" opacity="1" d="M 18.5 59 L 18.5 60 L 18.5 59 Z " /><path fill="rgb(2,2,2)" stroke="rgb(2,2,2)" stroke-width="1" opacity="1" d="M 112.5 59 L 113 61.5 L 112 61.5 L 112.5 59 Z " /><path fill="rgb(2,2,2)" stroke="rgb(2,2,2)" stroke-width="1" opacity="1" d="M 17.5 61 Q 19.75 60.25 19 62.5 L 21 65.5 L 19.5 65 L 17 63.5 L 18 62.5 L 17.5 61 Z M 19 63 L 19 64 L 19 63 Z " /><path fill="rgb(2,2,2)" stroke="rgb(2,2,2)" stroke-width="1" opacity="1" d="M 41.5 61 L 42 63 Q 44.5 63.5 45.5 61 L 45.5 64 L 41.5 66 L 41.5 65 L 43 64.5 L 41 64 L 41.5 61 Z " /><path fill="rgb(2,2,2)" stroke="rgb(2,2,2)" stroke-width="1" opacity="1" d="M 72.5 61 Q 75.13 60.33 74 63 L 77.5 63 L 77.5 64 L 71 63.5 L 73 62.5 L 72.5 61 Z " /><path fill="rgb(2,2,2)" stroke="rgb(2,2,2)" stroke-width="1" opacity="1" d="M 75.5 61 L 75.5 62 L 75.5 61 Z " /><path fill="rgb(2,2,2)" stroke="rgb(2,2,2)" stroke-width="1" opacity="1" d="M 113.5 63 L 116 69.5 L 115 70.5 L 115.5 72 Q 113.25 72.75 114 70.5 Q 116 69.5 114 68.5 L 113.5 63 Z " /><path fill="rgb(2,2,2)" stroke="rgb(2,2,2)" stroke-width="1" opacity="1" d="M 16.5 65 L 17 66.5 L 16 66.5 L 16.5 65 Z " /><path fill="rgb(2,2,2)" stroke="rgb(2,2,2)" stroke-width="1" opacity="1" d="M 84.5 66 L 85 67.5 L 84 67.5 L 84.5 66 Z " /><path fill="rgb(2,2,2)" stroke="rgb(2,2,2)" stroke-width="1" opacity="1" d="M 91.5 66 L 92 67.5 L 91 68.5 L 91.5 70 L 90 69.5 L 90.5 73 L 92 72.5 L 91 74.5 L 92 75.5 L 91 76.5 L 91.5 78 L 90 76.5 Q 92 75.5 90 74.5 Q 89.25 70.25 86 68.5 L 91 68 L 91.5 66 Z " /><path fill="rgb(2,2,2)" stroke="rgb(2,2,2)" stroke-width="1" opacity="1" d="M 112.5 68 L 112.5 69 L 112.5 68 Z " /><path fill="rgb(2,2,2)" stroke="rgb(2,2,2)" stroke-width="1" opacity="1" d="M 15.5 69 L 16 70.5 L 15 70.5 L 15.5 69 Z " /><path fill="rgb(2,2,2)" stroke="rgb(2,2,2)" stroke-width="1" opacity="1" d="M 15.5 72 L 15.5 73 L 15.5 72 Z " /><path fill="rgb(2,2,2)" stroke="rgb(2,2,2)" stroke-width="1" opacity="1" d="M 113.5 73 L 114 74.5 L 113 74.5 L 113.5 73 Z " /><path fill="rgb(2,2,2)" stroke="rgb(2,2,2)" stroke-width="1" opacity="1" d="M 116.5 73 L 118 75.5 Q 117 78 116 76.5 L 116.5 73 Z " /><path fill="rgb(2,2,2)" stroke="rgb(2,2,2)" stroke-width="1" opacity="1" d="M 13 74 Q 15.67 72.88 15 75.5 L 12.5 78 L 12 77.5 Q 13.75 76.58 13 74 Z " /><path fill="rgb(2,2,2)" stroke="rgb(2,2,2)" stroke-width="1" opacity="1" d="M 112.5 76 L 112.5 77 L 112.5 76 Z " /><path fill="rgb(2,2,2)" stroke="rgb(2,2,2)" stroke-width="1" opacity="1" d="M 14.5 78 L 14 79.5 L 13.5 82 L 12.5 80 L 11 83.5 L 11.5 85 Q 8.75 83.75 11 82.5 Q 10.5 79.5 12.5 79 L 14.5 78 Z " /><path fill="rgb(2,2,2)" stroke="rgb(2,2,2)" stroke-width="1" opacity="1" d="M 15.5 80 L 15.5 81 L 15.5 80 Z " /><path fill="rgb(2,2,2)" stroke="rgb(2,2,2)" stroke-width="1" opacity="1" d="M 118.5 80 L 120 87.5 L 123 93.5 Q 122 95 121 92.5 L 119.5 89 L 118 89.5 Q 120 88.5 119 84.5 Q 116.87 83.37 118.5 80 Z " /><path fill="rgb(2,2,2)" stroke="rgb(2,2,2)" stroke-width="1" opacity="1" d="M 91.5 83 L 92 86.5 L 91 86.5 L 91.5 83 Z " /><path fill="rgb(2,2,2)" stroke="rgb(2,2,2)" stroke-width="1" opacity="1" d="M 9.5 88 L 10 89.5 L 8 95.5 L 8.5 99 L 9.5 97 L 10 98.5 L 9 99.5 L 9.5 101 L 8 100.5 Q 8.75 102.75 6.5 102 L 7 100.5 L 6 99.5 L 7 98.5 L 6 97.5 L 7 92.5 L 9.5 88 Z M 8 99 L 8 100 L 8 99 Z " /><path fill="rgb(2,2,2)" stroke="rgb(2,2,2)" stroke-width="1" opacity="1" d="M 90.5 88 Q 93 89 91.5 90 L 90.5 89 L 89 89.5 L 90.5 88 Z " /><path fill="rgb(2,2,2)" stroke="rgb(2,2,2)" stroke-width="1" opacity="1" d="M 89.5 91 L 92 91.5 L 89 92 Q 90 95 87 94 Q 85.88 91.33 88.5 92 L 89.5 91 Z " /><path fill="rgb(2,2,2)" stroke="rgb(2,2,2)" stroke-width="1" opacity="1" d="M 119.5 92 L 119.5 93 L 119.5 92 Z " /><path fill="rgb(2,2,2)" stroke="rgb(2,2,2)" stroke-width="1" opacity="1" d="M 120.5 94 L 120.5 95 L 120.5 94 Z " /><path fill="rgb(2,2,2)" stroke="rgb(2,2,2)" stroke-width="1" opacity="1" d="M 122.5 95 L 122.5 96 L 122.5 95 Z " /><path fill="rgb(2,2,2)" stroke="rgb(2,2,2)" stroke-width="1" opacity="1" d="M 83.5 96 L 85 96.5 L 82.5 99 L 80.5 99 L 77.5 101 Q 76.5 99 75.5 101 Q 72.88 101.67 74 99 Q 76.58 98.25 77.5 100 L 83.5 96 Z " /><path fill="rgb(2,2,2)" stroke="rgb(2,2,2)" stroke-width="1" opacity="1" d="M 123.5 97 L 125 103 L 123 103 L 123.5 97 Z " /><path fill="rgb(2,2,2)" stroke="rgb(2,2,2)" stroke-width="1" opacity="1" d="M 42.5 98 L 44 98.5 L 43.5 100 L 45.5 99 L 46 102 L 80.5 102 L 81 100.5 L 82 100.5 L 82.5 102 L 89.5 102 L 89.5 103 L 41.5 103 L 41 105 L 39 105 Q 37.88 102.33 40.5 103 Q 43.25 101.75 41 100.5 L 42.5 98 Z M 45 101 L 45 102 L 45 101 Z " /><path fill="rgb(2,2,2)" stroke="rgb(2,2,2)" stroke-width="1" opacity="1" d="M 71.5 100 L 73 100.5 L 71.5 101 L 71.5 100 Z " /><path fill="rgb(2,2,2)" stroke="rgb(2,2,2)" stroke-width="1" opacity="1" d="M 91.5 102 L 92 105.5 L 91 105.5 L 91.5 102 Z " /><path fill="rgb(2,2,2)" stroke="rgb(2,2,2)" stroke-width="1" opacity="1" d="M 4.5 103 L 5 104.5 Q 4 107 3 105.5 L 4.5 103 Z " /><path fill="rgb(2,2,2)" stroke="rgb(2,2,2)" stroke-width="1" opacity="1" d="M 125.5 104 Q 127 105 124.5 106 L 123 105.5 L 125.5 104 Z " /><path fill="rgb(0,0,0)" stroke="rgb(0,0,0)" stroke-width="1" opacity="1" d="M 30.5 22 L 31.5 23 L 36 23 L 36 25 L 41 25 L 41 29.5 L 44 31 L 44 55.5 L 42 56 L 41.5 31 L 41 60 L 43 60.5 L 41 61 L 41 101.5 L 39.5 102 L 38 104.5 L 38.5 106 L 5.5 106 L 5 104 L 10 104 L 10 100.5 L 8 97.5 L 9 97.5 L 9.5 99 L 10 95.5 L 8 93.5 L 8.5 93 L 10 93.5 L 10.5 85 L 11.5 87 L 13 84.5 L 11 83.5 L 12.5 80 L 13.5 84 L 15 81.5 Q 13 80.5 15 79.5 L 16 75.5 Q 14 74.5 16 73.5 L 17 71.5 L 17.5 64 L 18 67 L 20 66.5 Q 17.5 65 21 63.5 L 20.5 60 L 19.5 63 L 19 60.5 L 20 59.5 L 19 58.5 L 20 57.5 L 19.5 56 L 21 56.5 L 22 51 Q 25 51.75 26 49.5 L 24 46.5 L 26 45.5 L 25 43.5 L 27 40.5 L 27 36.5 Q 29.5 35.5 29 33 L 31 32.5 L 30 30.5 Q 32 29.5 30 28.5 L 31 25.5 L 30 24.5 L 31 23.5 L 30.5 22 Z M 31 34 L 30 36 L 31 36 L 31 34 Z M 21 58 L 21 59 L 21 58 Z M 21 65 L 21 66 L 21 65 Z M 16 80 L 16 81 L 16 80 Z M 16 82 L 16 83 L 16 82 Z M 15 85 Q 12 86 14 87 L 16 86 L 15 85 Z " /><path fill="rgb(0,0,0)" stroke="rgb(0,0,0)" stroke-width="1" opacity="1" d="M 97.5 23 Q 101.67 21.88 100 26 L 103 26 L 103 28.5 Q 101 29.5 103 30.5 L 102 32.5 L 103 35.5 Q 102.5 39 105 39.5 L 102 38.5 L 103.5 41 Q 106.83 42.13 106 39.5 L 107 39.5 Q 105.5 46 109 47.5 Q 107 48.5 108 52.5 L 108.5 54 L 107 53.5 L 108 57 Q 111 58.25 110 54.5 L 111 54.5 L 111 61.5 L 112.5 62 L 114 61.5 L 112 65.5 L 112 68.5 L 113 68.5 L 113.5 67 L 114 70 Q 111 68.75 112 72.5 L 114.5 77 L 115 75.5 L 114.5 74 Q 117.13 73.17 116 76.5 L 118 76.5 L 118 84.5 L 119 85.5 Q 116.75 86.75 118 91.5 Q 120 92.5 118 93.5 L 119 97 Q 121.58 97.75 122.5 96 L 123 106 L 92.5 106 Q 91.63 106.13 92 102.5 L 90.5 103 L 89.5 102 L 82.5 102 L 82 100.5 L 80 100.5 Q 81 98.25 84 99 Q 83.5 96.13 86.5 95 L 89.5 94 L 91 94.5 L 92 91.5 L 92 77.5 L 91 76.5 L 92 73.5 L 92 66.5 L 90.5 66 L 90.5 68 L 86.5 68 L 84.5 66 L 81 65.5 L 82 63 L 80 62.5 L 85.5 60 L 87 60.5 Q 85.5 56.12 88.5 57 Q 89.5 55 90.5 57 L 92 57 L 92 54 L 90 53.5 L 92 52.5 Q 90 51.5 92 50.5 L 91.5 31 L 90.5 36 L 90 31 L 82.5 31 L 82 29.5 L 81.5 28 L 86.5 28 L 87.5 27 L 92 27 Q 90.2 22.13 96.5 24 L 97.5 23 Z M 108 47 L 108 48 L 108 47 Z M 85 61 L 85 62 L 86 62 L 85 61 Z M 87 66 L 87 67 L 89 67 L 87 66 Z M 113 76 L 113 77 L 113 76 Z M 87 96 L 87 97 L 90 97 L 87 96 Z " /><path fill="rgb(0,0,0)" stroke="rgb(0,0,0)" stroke-width="1" opacity="1" d="M 44.5 26 L 44.5 27 L 44.5 26 Z " /><path fill="rgb(0,0,0)" stroke="rgb(0,0,0)" stroke-width="1" opacity="1" d="M 46.5 26 L 71 26.5 L 46.5 27 L 46.5 26 Z " /><path fill="rgb(0,0,0)" stroke="rgb(0,0,0)" stroke-width="1" opacity="1" d="M 73.5 26 L 75 26.5 L 73.5 27 L 73.5 26 Z " /><path fill="rgb(0,0,0)" stroke="rgb(0,0,0)" stroke-width="1" opacity="1" d="M 76.5 26 L 77 27.5 L 76 27.5 L 76.5 26 Z " /><path fill="rgb(0,0,0)" stroke="rgb(0,0,0)" stroke-width="1" opacity="1" d="M 78 26 L 80 26.5 L 78.5 29 L 78 26 Z " /><path fill="rgb(0,0,0)" stroke="rgb(0,0,0)" stroke-width="1" opacity="1" d="M 28.5 27 L 28.5 28 L 28.5 27 Z " /><path fill="rgb(0,0,0)" stroke="rgb(0,0,0)" stroke-width="1" opacity="1" d="M 42.5 28 L 42.5 29 L 42.5 28 Z " /><path fill="rgb(0,0,0)" stroke="rgb(0,0,0)" stroke-width="1" opacity="1" d="M 45.5 28 L 45.5 29 L 45.5 28 Z " /><path fill="rgb(0,0,0)" stroke="rgb(0,0,0)" stroke-width="1" opacity="1" d="M 74.5 28 L 74.5 29 L 74.5 28 Z " /><path fill="rgb(0,0,0)" stroke="rgb(0,0,0)" stroke-width="1" opacity="1" d="M 28.5 31 L 28.5 32 L 28.5 31 Z " /><path fill="rgb(0,0,0)" stroke="rgb(0,0,0)" stroke-width="1" opacity="1" d="M 26.5 33 L 26.5 34 L 26.5 33 Z " /><path fill="rgb(0,0,0)" stroke="rgb(0,0,0)" stroke-width="1" opacity="1" d="M 104.5 33 L 104.5 34 L 104.5 33 Z " /><path fill="rgb(0,0,0)" stroke="rgb(0,0,0)" stroke-width="1" opacity="1" d="M 104.5 35 L 104.5 36 L 104.5 35 Z " /><path fill="rgb(0,0,0)" stroke="rgb(0,0,0)" stroke-width="1" opacity="1" d="M 90.5 37 L 91 38.5 L 90 38.5 L 90.5 37 Z " /><path fill="rgb(0,0,0)" stroke="rgb(0,0,0)" stroke-width="1" opacity="1" d="M 105.5 37 L 105.5 38 L 105.5 37 Z " /><path fill="rgb(0,0,0)" stroke="rgb(0,0,0)" stroke-width="1" opacity="1" d="M 110.5 51 L 110.5 52 L 110.5 51 Z " /><path fill="rgb(0,0,0)" stroke="rgb(0,0,0)" stroke-width="1" opacity="1" d="M 42.5 58 L 42.5 59 L 42.5 58 Z " /><path fill="rgb(0,0,0)" stroke="rgb(0,0,0)" stroke-width="1" opacity="1" d="M 44.5 60 L 44.5 61 L 44.5 60 Z " /><path fill="rgb(0,0,0)" stroke="rgb(0,0,0)" stroke-width="1" opacity="1" d="M 78.5 60 L 78.5 61 L 78.5 60 Z " /><path fill="rgb(0,0,0)" stroke="rgb(0,0,0)" stroke-width="1" opacity="1" d="M 80.5 60 L 80.5 61 L 80.5 60 Z " /><path fill="rgb(0,0,0)" stroke="rgb(0,0,0)" stroke-width="1" opacity="1" d="M 74.5 61 Q 75.5 63 76.5 61 L 79 63.5 L 77.5 63 Q 72.35 64.33 74.5 61 Z " /><path fill="rgb(0,0,0)" stroke="rgb(0,0,0)" stroke-width="1" opacity="1" d="M 17.5 62 L 17.5 63 L 17.5 62 Z " /><path fill="rgb(0,0,0)" stroke="rgb(0,0,0)" stroke-width="1" opacity="1" d="M 42.5 62 L 44 62.5 L 42.5 63 L 42.5 62 Z " /><path fill="rgb(0,0,0)" stroke="rgb(0,0,0)" stroke-width="1" opacity="1" d="M 46.5 62 L 73 62.5 L 46.5 63 L 46.5 62 Z " /><path fill="rgb(0,0,0)" stroke="rgb(0,0,0)" stroke-width="1" opacity="1" d="M 42.5 64 L 44 65.5 Q 42 66.5 44 67.5 L 44 96.5 L 42.5 98 L 42 66.5 L 43 65.5 L 42.5 64 Z " /><path fill="rgb(0,0,0)" stroke="rgb(0,0,0)" stroke-width="1" opacity="1" d="M 115.5 68 L 115.5 69 L 115.5 68 Z " /><path fill="rgb(0,0,0)" stroke="rgb(0,0,0)" stroke-width="1" opacity="1" d="M 90.5 69 L 90.5 70 L 90.5 69 Z " /><path fill="rgb(0,0,0)" stroke="rgb(0,0,0)" stroke-width="1" opacity="1" d="M 115.5 70 L 115.5 71 L 115.5 70 Z " /><path fill="rgb(0,0,0)" stroke="rgb(0,0,0)" stroke-width="1" opacity="1" d="M 90.5 71 L 91 72.5 L 90 72.5 L 90.5 71 Z " /><path fill="rgb(0,0,0)" stroke="rgb(0,0,0)" stroke-width="1" opacity="1" d="M 113.5 71 L 113.5 72 L 113.5 71 Z " /><path fill="rgb(0,0,0)" stroke="rgb(0,0,0)" stroke-width="1" opacity="1" d="M 14.5 72 L 14.5 73 L 14.5 72 Z " /><path fill="rgb(0,0,0)" stroke="rgb(0,0,0)" stroke-width="1" opacity="1" d="M 115.5 72 L 115.5 73 L 115.5 72 Z " /><path fill="rgb(0,0,0)" stroke="rgb(0,0,0)" stroke-width="1" opacity="1" d="M 14.5 76 L 14.5 77 L 14.5 76 Z " /><path fill="rgb(0,0,0)" stroke="rgb(0,0,0)" stroke-width="1" opacity="1" d="M 12.5 78 L 12.5 79 L 12.5 78 Z " /><path fill="rgb(0,0,0)" stroke="rgb(0,0,0)" stroke-width="1" opacity="1" d="M 90.5 85 L 91 87.5 L 90 87.5 L 90.5 85 Z " /><path fill="rgb(0,0,0)" stroke="rgb(0,0,0)" stroke-width="1" opacity="1" d="M 124.5 100 L 124.5 101 L 124.5 100 Z " /><path fill="rgb(0,0,0)" stroke="rgb(0,0,0)" stroke-width="1" opacity="1" d="M 44.5 101 L 44.5 102 L 44.5 101 Z " /><path fill="rgb(0,0,0)" stroke="rgb(0,0,0)" stroke-width="1" opacity="1" d="M 46.5 101 L 79 101.5 L 46.5 102 L 46.5 101 Z " /><path fill="rgb(0,0,0)" stroke="rgb(0,0,0)" stroke-width="1" opacity="1" d="M 6.5 102 L 8 102.5 L 6.5 103 L 6.5 102 Z " /><path fill="rgb(0,0,0)" stroke="rgb(0,0,0)" stroke-width="1" opacity="1" d="M 124.5 103 L 125 104.5 L 124 104.5 L 124.5 103 Z " /><path fill="rgb(253,253,253)" stroke="rgb(253,253,253)" stroke-width="1" opacity="1" d="M 29.5 20 L 30 20.5 L 28 22.5 L 28.5 24 L 27 23.5 L 28 26.5 L 26 29.5 Q 28 30.5 26 31.5 L 24.5 34 L 25 32.5 L 26 30.5 Q 24 29.5 26 28.5 L 25 26.5 L 27 22.5 L 26.5 21 Q 28 23.5 29.5 20 Z M 27 26 L 27 27 L 27 26 Z " /><path fill="rgb(253,253,253)" stroke="rgb(253,253,253)" stroke-width="1" opacity="1" d="M 41.5 20 L 45 22.5 L 43.5 25 L 42 23.5 L 41.5 20 Z M 44 22 L 44 23 L 44 22 Z " /><path fill="rgb(253,253,253)" stroke="rgb(253,253,253)" stroke-width="1" opacity="1" d="M 45.5 20 L 45.5 21 L 45.5 20 Z " /><path fill="rgb(253,253,253)" stroke="rgb(253,253,253)" stroke-width="1" opacity="1" d="M 90.5 20 L 91 24.5 L 90 24.5 L 90.5 20 Z " /><path fill="rgb(253,253,253)" stroke="rgb(253,253,253)" stroke-width="1" opacity="1" d="M 103.5 20 L 107 22.5 L 106 24.5 L 108 24.5 L 107 27.5 L 106 29.5 Q 107.75 30.25 107 33.5 L 106 33.5 L 105 25.5 L 104 24.5 L 104.5 23 Q 101.37 23.75 103.5 20 Z M 107 26 L 107 27 L 107 26 Z " /><path fill="rgb(253,253,253)" stroke="rgb(253,253,253)" stroke-width="1" opacity="1" d="M 87 21 L 89 21.5 Q 87 22.5 89 23.5 L 88.5 25 L 87 21 Z " /><path fill="rgb(253,253,253)" stroke="rgb(253,253,253)" stroke-width="1" opacity="1" d="M 126 22 Q 129 21 128 24 Q 125 25 126 22 Z " /><path fill="rgb(253,253,253)" stroke="rgb(253,253,253)" stroke-width="1" opacity="1" d="M 74.5 30 L 74.5 31 L 74.5 30 Z " /><path fill="rgb(253,253,253)" stroke="rgb(253,253,253)" stroke-width="1" opacity="1" d="M 76.5 30 L 78 30.5 L 76.5 31 L 76.5 30 Z " /><path fill="rgb(253,253,253)" stroke="rgb(253,253,253)" stroke-width="1" opacity="1" d="M 79.5 30 L 86 33 Q 85.5 36.25 89 37.5 L 90 43.5 Q 88 44.5 90 45.5 L 89 47.5 Q 91.5 49 88 50.5 L 87 52.5 L 88 53.5 L 84.5 57 L 79 59 L 80.5 56 L 82.5 57 L 84 55.5 Q 81.75 54.25 84.5 53 L 86 53.5 Q 86.75 51.25 84.5 52 L 84.5 51 Q 88.5 51.5 89 48.5 L 87 45.5 Q 90.5 44 88 42.5 L 87 40.5 Q 89.5 39 86 37.5 Q 87.13 34.17 84.5 35 Q 83.5 37 82.5 35 L 81 34.5 L 83 33.5 L 80.5 32 L 78.5 34 L 78 33.5 L 79.5 30 Z M 81 57 L 81 58 L 81 57 Z " /><path fill="rgb(253,253,253)" stroke="rgb(253,253,253)" stroke-width="1" opacity="1" d="M 23.5 31 L 23.5 32 L 23.5 31 Z " /><path fill="rgb(253,253,253)" stroke="rgb(253,253,253)" stroke-width="1" opacity="1" d="M 21.5 32 L 23 34.5 L 22.5 36 L 24.5 35 L 25 37 L 23 37.5 L 23.5 39 Q 22.5 37 21.5 39 L 20 37.5 L 22 37.5 L 21 35.5 L 22 33.5 L 21.5 32 Z " /><path fill="rgb(253,253,253)" stroke="rgb(253,253,253)" stroke-width="1" opacity="1" d="M 77.5 35 L 77.5 36 L 77.5 35 Z " /><path fill="rgb(253,253,253)" stroke="rgb(253,253,253)" stroke-width="1" opacity="1" d="M 107.5 36 L 110 37.5 L 109 40.5 L 111 40.5 L 113 43.5 L 112 46.5 Q 114 47.5 112 48.5 L 111.5 50 L 111 48.5 Q 113 47.5 111 46.5 L 108 40.5 L 108 37.5 L 107.5 36 Z M 111 42 L 111 43 L 111 42 Z M 112 43 L 112 44 L 112 43 Z " /><path fill="rgb(253,253,253)" stroke="rgb(253,253,253)" stroke-width="1" opacity="1" d="M 111.5 36 L 111.5 37 L 111.5 36 Z " /><path fill="rgb(253,253,253)" stroke="rgb(253,253,253)" stroke-width="1" opacity="1" d="M 20.5 41 L 21.5 42 L 23 41.5 Q 23.75 43.75 21.5 43 Q 19 42 20.5 41 Z " /><path fill="rgb(253,253,253)" stroke="rgb(253,253,253)" stroke-width="1" opacity="1" d="M 21.5 45 L 22 46.5 L 19.5 51 L 18 47.5 L 19.5 48 L 21 46.5 L 21.5 45 Z " /><path fill="rgb(253,253,253)" stroke="rgb(253,253,253)" stroke-width="1" opacity="1" d="M 16.5 46 L 16.5 47 L 16.5 46 Z " /><path fill="rgb(253,253,253)" stroke="rgb(253,253,253)" stroke-width="1" opacity="1" d="M 16.5 49 L 16.5 50 L 16.5 49 Z " /><path fill="rgb(253,253,253)" stroke="rgb(253,253,253)" stroke-width="1" opacity="1" d="M 82.5 51 L 83 52.5 L 82 52.5 L 82.5 51 Z " /><path fill="rgb(253,253,253)" stroke="rgb(253,253,253)" stroke-width="1" opacity="1" d="M 17.5 52 L 18.5 53 L 20 52.5 L 18.5 55 L 17.5 52 Z " /><path fill="rgb(253,253,253)" stroke="rgb(253,253,253)" stroke-width="1" opacity="1" d="M 112.5 52 L 115 56.5 Q 114 59 113 57.5 L 112.5 52 Z " /><path fill="rgb(253,253,253)" stroke="rgb(253,253,253)" stroke-width="1" opacity="1" d="M 16.5 54 L 16.5 55 L 16.5 54 Z " /><path fill="rgb(253,253,253)" stroke="rgb(253,253,253)" stroke-width="1" opacity="1" d="M 16.5 57 Q 18 58 15.5 59 Q 14 58 16.5 57 Z " /><path fill="rgb(253,253,253)" stroke="rgb(253,253,253)" stroke-width="1" opacity="1" d="M 76.5 57 L 76.5 58 L 76.5 57 Z " /><path fill="rgb(253,253,253)" stroke="rgb(253,253,253)" stroke-width="1" opacity="1" d="M 116.5 57 L 118 59.5 L 117 59.5 L 116.5 57 Z " /><path fill="rgb(253,253,253)" stroke="rgb(253,253,253)" stroke-width="1" opacity="1" d="M 71.5 58 L 73.5 59 Q 74.5 57 75.5 59 L 77 59.5 L 46.5 60 L 46.5 59 L 70.5 59 L 71.5 58 Z " /><path fill="rgb(253,253,253)" stroke="rgb(253,253,253)" stroke-width="1" opacity="1" d="M 115.5 59 Q 117 60 114.5 61 Q 113 60 115.5 59 Z " /><path fill="rgb(253,253,253)" stroke="rgb(253,253,253)" stroke-width="1" opacity="1" d="M 16.5 60 L 16 61.5 L 14.5 64 L 14.5 61 L 16.5 60 Z " /><path fill="rgb(253,253,253)" stroke="rgb(253,253,253)" stroke-width="1" opacity="1" d="M 10.5 61 Q 13 62 11.5 63 Q 9 62 10.5 61 Z " /><path fill="rgb(253,253,253)" stroke="rgb(253,253,253)" stroke-width="1" opacity="1" d="M 117.5 61 Q 119 62 116.5 63 L 115 62.5 L 117.5 61 Z " /><path fill="rgb(253,253,253)" stroke="rgb(253,253,253)" stroke-width="1" opacity="1" d="M 10.5 64 L 10.5 65 L 10.5 64 Z " /><path fill="rgb(253,253,253)" stroke="rgb(253,253,253)" stroke-width="1" opacity="1" d="M 115.5 64 L 118 68.5 Q 117 70 116 67.5 L 115.5 64 Z " /><path fill="rgb(253,253,253)" stroke="rgb(253,253,253)" stroke-width="1" opacity="1" d="M 12.5 65 L 12.5 66 L 12.5 65 Z " /><path fill="rgb(253,253,253)" stroke="rgb(253,253,253)" stroke-width="1" opacity="1" d="M 14.5 65 L 15 67.5 L 14 67.5 L 14.5 65 Z " /><path fill="rgb(253,253,253)" stroke="rgb(253,253,253)" stroke-width="1" opacity="1" d="M 72.5 65 L 72.5 66 L 72.5 65 Z " /><path fill="rgb(253,253,253)" stroke="rgb(253,253,253)" stroke-width="1" opacity="1" d="M 74.5 65 L 78.5 65 Q 83.33 66.67 86 70.5 L 84 71 L 83.5 69 L 81 70 Q 81.5 67.13 78.5 66 L 76.5 67 L 74 65.5 L 74.5 65 Z " /><path fill="rgb(253,253,253)" stroke="rgb(253,253,253)" stroke-width="1" opacity="1" d="M 10.5 66 Q 13 67 11.5 68 Q 8.71 68.67 10.5 66 Z " /><path fill="rgb(253,253,253)" stroke="rgb(253,253,253)" stroke-width="1" opacity="1" d="M 10 69 L 13 69.5 L 10.5 71 L 10 69 Z " /><path fill="rgb(253,253,253)" stroke="rgb(253,253,253)" stroke-width="1" opacity="1" d="M 117.5 70 L 118 71.5 L 117 71.5 L 117.5 70 Z " /><path fill="rgb(253,253,253)" stroke="rgb(253,253,253)" stroke-width="1" opacity="1" d="M 12.5 71 L 13 74 L 11 74.5 L 11.5 76 L 10 73 Q 12.75 74 12.5 71 Z " /><path fill="rgb(253,253,253)" stroke="rgb(253,253,253)" stroke-width="1" opacity="1" d="M 87.5 73 L 89 76 L 87 75.5 L 88 74.5 L 87.5 73 Z " /><path fill="rgb(253,253,253)" stroke="rgb(253,253,253)" stroke-width="1" opacity="1" d="M 118.5 73 L 119 74.5 L 118 74.5 L 118.5 73 Z " /><path fill="rgb(253,253,253)" stroke="rgb(253,253,253)" stroke-width="1" opacity="1" d="M 121.5 74 L 121.5 75 L 121.5 74 Z " /><path fill="rgb(253,253,253)" stroke="rgb(253,253,253)" stroke-width="1" opacity="1" d="M 120.5 76 L 121.5 79 L 123 78.5 L 121 81.5 L 123 81.5 Q 123.5 84.5 121.5 85 L 119 77.5 L 120.5 76 Z " /><path fill="rgb(253,253,253)" stroke="rgb(253,253,253)" stroke-width="1" opacity="1" d="M 122.5 76 L 122.5 77 L 122.5 76 Z " /><path fill="rgb(253,253,253)" stroke="rgb(253,253,253)" stroke-width="1" opacity="1" d="M 10.5 77 L 11 79.5 L 9.5 82 L 9 79.5 L 10.5 77 Z " /><path fill="rgb(253,253,253)" stroke="rgb(253,253,253)" stroke-width="1" opacity="1" d="M 88 78 Q 90.67 76.88 90 79.5 Q 88 80.5 90 81.5 Q 91.67 86.31 87.5 85 L 87.5 84 L 89 84 L 89 81 L 87 80.5 L 88 78 Z " /><path fill="rgb(253,253,253)" stroke="rgb(253,253,253)" stroke-width="1" opacity="1" d="M 7.5 82 L 7.5 83 L 7.5 82 Z " /><path fill="rgb(253,253,253)" stroke="rgb(253,253,253)" stroke-width="1" opacity="1" d="M 7.5 84 Q 9.75 83.25 9 85.5 L 7 85.5 L 8 87.5 L 6 87.5 L 7 91.5 Q 6 94 5 92.5 L 6 90.5 Q 4.25 89.75 5 86.5 L 7.5 84 Z " /><path fill="rgb(253,253,253)" stroke="rgb(253,253,253)" stroke-width="1" opacity="1" d="M 88.5 86 L 89 88.5 Q 86.15 90.35 86 94 L 84.5 94 L 78.5 98 L 77 95.5 L 78 95.5 L 78.5 97 L 81 95.5 L 77 94 Q 75.88 91.33 78.5 92 Q 79.75 95.5 83 95 L 82 92.5 L 83.5 93 L 85 93 L 85 90 L 87 90 L 87 87.5 L 88.5 86 Z " /><path fill="rgb(253,253,253)" stroke="rgb(253,253,253)" stroke-width="1" opacity="1" d="M 122.5 87 L 123 89 L 125 89 L 125 92 L 126.5 92 Q 129.25 93.25 127 94.5 L 125.5 100 L 124 96.5 L 126 95.5 L 125.5 94 L 127 93.5 L 124.5 92 L 123 92.5 L 122 89.5 L 122.5 87 Z " /><path fill="rgb(253,253,253)" stroke="rgb(253,253,253)" stroke-width="1" opacity="1" d="M 82.5 89 L 82.5 90 L 82.5 89 Z " /><path fill="rgb(253,253,253)" stroke="rgb(253,253,253)" stroke-width="1" opacity="1" d="M 5.5 94 L 5.5 95 L 5.5 94 Z " /><path fill="rgb(253,253,253)" stroke="rgb(253,253,253)" stroke-width="1" opacity="1" d="M 3 97 L 5 97.5 L 4 100 L 2 99.5 L 3 97 Z " /><path fill="rgb(253,253,253)" stroke="rgb(253,253,253)" stroke-width="1" opacity="1" d="M 46.5 97 L 72 97.5 L 46.5 98 L 46.5 97 Z " /><path fill="rgb(253,253,253)" stroke="rgb(253,253,253)" stroke-width="1" opacity="1" d="M 74.5 97 L 74.5 98 L 74.5 97 Z " /><path fill="rgb(253,253,253)" stroke="rgb(253,253,253)" stroke-width="1" opacity="1" d="M 127.5 97 L 127.5 98 L 127.5 97 Z " /><path fill="rgb(253,253,253)" stroke="rgb(253,253,253)" stroke-width="1" opacity="1" d="M 127.5 99 L 128 100.5 L 127 102.5 L 128 104.5 L 127 104.5 L 126 101.5 L 127.5 99 Z " /><path fill="rgb(253,253,253)" stroke="rgb(253,253,253)" stroke-width="1" opacity="1" d="M 0.5 100 L 0.5 101 L 0.5 100 Z " /><path fill="rgb(253,253,253)" stroke="rgb(253,253,253)" stroke-width="1" opacity="1" d="M 3.5 101 L 3 102.5 L 1 106.5 L 1.5 108 L 0 105.5 Q 2 104.5 0 103.5 L 1.5 102 L 3.5 101 Z M 2 103 L 2 104 L 2 103 Z " /><path fill="rgb(253,253,253)" stroke="rgb(253,253,253)" stroke-width="1" opacity="1" d="M 42.5 103 L 88.5 103 L 90 104.5 Q 91 108.25 88 107 Q 88.38 104.04 87.5 104 L 45.5 104 Q 44.5 106 43.5 104 Q 41.13 103.87 42.5 103 Z " /><path fill="rgb(253,253,253)" stroke="rgb(253,253,253)" stroke-width="1" opacity="1" d="M 42.5 105 L 45 106 L 44.5 108 L 42.5 106 L 41 106.5 L 42.5 105 Z " /><path fill="rgb(253,253,253)" stroke="rgb(253,253,253)" stroke-width="1" opacity="1" d="M 125.5 107 L 125.5 108 L 125.5 107 Z " /><path fill="rgb(253,253,253)" stroke="rgb(253,253,253)" stroke-width="1" opacity="1" d="M 127.5 107 L 127.5 108 L 127.5 107 Z " /><path fill="rgb(254,254,254)" stroke="rgb(254,254,254)" stroke-width="1" opacity="1" d="M 0 19 L 127.5 19 Q 128.38 19.04 128 22 Q 125 21 126 24 L 128 24.5 L 128 86.5 Q 126 87.5 128 88.5 Q 129.5 92.88 126.5 92 L 125 89 Q 122 90.25 123 86.5 Q 121 85.5 123 84.5 Q 123.75 81.25 122 80.5 L 123 78.5 L 121 78.5 Q 120.25 76.25 122.5 77 L 122 75.5 L 120.5 73 L 118 73 L 118 67.5 L 115 63.5 L 117 63 L 117.5 65 L 118 57.5 Q 117 55.25 114 56 Q 114.75 53.42 113 52.5 L 115 52.5 Q 115.75 50.25 113.5 51 Q 110.75 49.75 113 48.5 L 112.5 47 L 111 47.5 L 113 45.5 Q 111 44.5 113 43.5 Q 113.75 41.25 111.5 42 L 111 41.5 L 113 39.5 L 112 38.5 L 113 36.5 L 110.5 36 L 109.5 37 L 107 34.5 L 108 32.5 L 107 29.5 L 108 28.5 L 108 24 L 106 23.5 L 108 22.5 L 106.5 21 L 102.5 20 Q 101.5 22 97.5 21 Q 96.5 19 92.5 20 L 91.5 21 L 88.5 20 L 86.5 21 L 46 21.5 L 87 22 Q 87.38 24.96 86.5 25 L 44 25 Q 42.88 22.33 45.5 23 L 46 22.5 L 43.5 20 L 40.5 21 L 31.5 21 L 28.5 20 Q 27.5 22 26.5 20 L 25 21.5 L 26 24.5 Q 24 25.5 25 29.5 Q 27 30.5 25 31.5 L 24.5 33 L 23.5 31 L 22.5 33 L 21.5 31 L 20 32.5 L 22.5 35 L 24.5 34 Q 26 35 23.5 36 L 20.5 35 L 20 35.5 L 22.5 38 L 24 37.5 L 22.5 39 L 20.5 37 L 20 37.5 L 21 40.5 Q 18.5 42 22 43.5 Q 22.75 45.75 20.5 45 L 21 46.5 L 19 48.5 L 20 51.5 L 18.5 53 L 17 52.5 L 15 55.5 L 15 59 L 17 59.5 L 14 61.5 L 16 63.5 L 15.5 64 Q 13.75 60.25 12 63.5 L 14 64 L 13.5 70 L 11 68.5 L 13 68 L 12.5 65 L 11.5 67 L 10 66.5 L 10.5 71 L 12 70.5 L 10 74.5 L 12 74.5 L 9 79.5 L 9 84 Q 6 83.25 5 85.5 L 5.5 90 L 7.5 85 L 8 86.5 L 5 92.5 L 5 97 L 2.5 98 L 1 97.5 L 0.5 99 L 0 19 Z M 46 20 L 46 21 L 46 20 Z M 108 20 L 108 21 L 108 20 Z M 126 20 L 126 21 L 126 20 Z M 126 25 L 126 26 L 126 25 Z M 21 43 L 21 44 L 21 43 Z M 15 46 L 15 48 Q 17 49 15 50 L 17 52 L 17 50 L 18 47 L 15 46 Z M 20 46 L 20 47 L 20 46 Z M 19 47 L 19 48 L 19 47 Z M 118 51 L 118 52 L 118 51 Z M 11 61 L 10 65 L 12 65 L 11 64 L 12 63 L 11 61 Z M 13 61 L 13 62 L 13 61 Z M 123 71 L 122 73 L 123 73 L 123 71 Z M 6 77 L 6 78 L 6 77 Z M 6 82 L 6 83 L 6 82 Z M 8 82 L 8 83 L 8 82 Z " /><path fill="rgb(254,254,254)" stroke="rgb(254,254,254)" stroke-width="1" opacity="1" d="M 88.5 22 Q 90.75 21.25 90 23.5 L 89.5 24 Q 87 23 88.5 22 Z " /><path fill="rgb(254,254,254)" stroke="rgb(254,254,254)" stroke-width="1" opacity="1" d="M 27.5 23 L 28 24.5 L 27 24.5 L 27.5 23 Z " /><path fill="rgb(254,254,254)" stroke="rgb(254,254,254)" stroke-width="1" opacity="1" d="M 106.5 26 L 106.5 27 L 106.5 26 Z " /><path fill="rgb(254,254,254)" stroke="rgb(254,254,254)" stroke-width="1" opacity="1" d="M 72.5 30 L 73.5 31 L 79 31 L 78 33.5 L 81 34.5 L 80.5 36 L 82.5 35 L 84.5 38 L 85.5 35 Q 85.58 38.42 88 39.5 L 86 39.5 Q 85.25 41.75 87.5 41 L 87 42.5 L 88 43.5 L 87 44.5 Q 86.5 47.5 88.5 48 L 90 47.5 L 88 49.5 L 88.5 51 Q 87.5 49 86.5 51 L 82 51 L 82 52.5 L 83.5 52 L 85 52.5 L 83 53 L 82.5 57 Q 81.58 55.25 79 56 L 79 59 L 77.5 59 L 77.5 57 Q 75.25 56.25 76 58.5 L 75 58.5 L 74.5 57 L 72.5 59 L 72 58.5 L 71.5 57 L 46 57 L 46 31 L 71.5 31 L 72.5 30 Z M 78 32 L 78 33 L 78 32 Z M 78 34 Q 76 37 79 36 Q 80 35 78 34 Z M 83 40 L 83 41 L 83 40 Z M 74 56 L 74 57 L 74 56 Z " /><path fill="rgb(254,254,254)" stroke="rgb(254,254,254)" stroke-width="1" opacity="1" d="M 80.5 32 L 80.5 33 L 80.5 32 Z " /><path fill="rgb(254,254,254)" stroke="rgb(254,254,254)" stroke-width="1" opacity="1" d="M 109.5 39 L 111 39.5 L 109.5 40 L 109.5 39 Z " /><path fill="rgb(254,254,254)" stroke="rgb(254,254,254)" stroke-width="1" opacity="1" d="M 22.5 40 L 22.5 41 L 22.5 40 Z " /><path fill="rgb(254,254,254)" stroke="rgb(254,254,254)" stroke-width="1" opacity="1" d="M 89.5 44 L 89.5 45 L 89.5 44 Z " /><path fill="rgb(254,254,254)" stroke="rgb(254,254,254)" stroke-width="1" opacity="1" d="M 110.5 45 L 110.5 46 L 110.5 45 Z " /><path fill="rgb(254,254,254)" stroke="rgb(254,254,254)" stroke-width="1" opacity="1" d="M 87.5 52 L 87.5 53 L 87.5 52 Z " /><path fill="rgb(254,254,254)" stroke="rgb(254,254,254)" stroke-width="1" opacity="1" d="M 17.5 55 L 17.5 56 L 17.5 55 Z " /><path fill="rgb(254,254,254)" stroke="rgb(254,254,254)" stroke-width="1" opacity="1" d="M 80.5 57 L 80.5 58 L 80.5 57 Z " /><path fill="rgb(254,254,254)" stroke="rgb(254,254,254)" stroke-width="1" opacity="1" d="M 115.5 57 L 116 58.5 L 115.5 60 L 117 60.5 Q 116 63 115 61.5 L 114 58.5 L 115.5 57 Z " /><path fill="rgb(254,254,254)" stroke="rgb(254,254,254)" stroke-width="1" opacity="1" d="M 46.5 58 L 71 58.5 L 46.5 59 L 46.5 58 Z " /><path fill="rgb(254,254,254)" stroke="rgb(254,254,254)" stroke-width="1" opacity="1" d="M 46 65 L 70.5 65 L 72.5 66 Q 74 63.5 75.5 67 Q 80 66 81 68.5 Q 80.25 70.75 82.5 70 L 84 69.5 L 85.5 72 L 87 71.5 L 88 74.5 L 87 75.5 Q 90.5 77 88 78.5 L 87 81.5 L 90 80.5 Q 88.25 81.42 89 84 L 87 84.5 L 89 85.5 Q 86.25 86.58 87 90 L 82 91 L 83 94.5 L 81.5 94 Q 78.88 94.67 80 92 L 77 92 L 77.5 97 L 78 95 L 80 95.5 L 76.5 98 L 74.5 97 L 72.5 98 L 71.5 97 L 46 97 L 46 65 Z M 74 66 L 74 67 L 74 66 Z M 80 70 Q 78 73 81 72 Q 82 71 80 70 Z M 83 89 L 83 90 L 83 89 Z " /><path fill="rgb(254,254,254)" stroke="rgb(254,254,254)" stroke-width="1" opacity="1" d="M 119.5 74 L 120 75.5 L 119 75.5 L 119.5 74 Z " /><path fill="rgb(254,254,254)" stroke="rgb(254,254,254)" stroke-width="1" opacity="1" d="M 84.5 92 L 84.5 93 L 84.5 92 Z " /><path fill="rgb(254,254,254)" stroke="rgb(254,254,254)" stroke-width="1" opacity="1" d="M 125.5 93 L 125 94.5 L 124.5 96 L 124 94.5 L 125.5 93 Z " /><path fill="rgb(254,254,254)" stroke="rgb(254,254,254)" stroke-width="1" opacity="1" d="M 127.5 94 L 128 97 L 126 96.5 L 127.5 94 Z " /><path fill="rgb(254,254,254)" stroke="rgb(254,254,254)" stroke-width="1" opacity="1" d="M 126 98 L 128 98.5 L 126.5 101 L 126 98 Z " /><path fill="rgb(254,254,254)" stroke="rgb(254,254,254)" stroke-width="1" opacity="1" d="M 1.5 100 Q 4.13 99.33 3 102 L 1 102.5 L 2 103.5 L 1 104.5 L 1.5 106 L 0 104.5 Q 2 103.5 0 102.5 L 1.5 100 Z " /><path fill="rgb(254,254,254)" stroke="rgb(254,254,254)" stroke-width="1" opacity="1" d="M 127.5 102 L 127.5 103 L 127.5 102 Z " /><path fill="rgb(254,254,254)" stroke="rgb(254,254,254)" stroke-width="1" opacity="1" d="M 42.5 104 L 44 104.5 L 42.5 105 L 42.5 104 Z " /><path fill="rgb(254,254,254)" stroke="rgb(254,254,254)" stroke-width="1" opacity="1" d="M 87.5 104 L 88 107 L 90 107.5 L 88.5 108 L 87.5 107 L 46.5 107 L 45 107.5 L 46 106.5 L 45.5 105 L 86.5 105 L 87.5 104 Z " /><path fill="rgb(254,254,254)" stroke="rgb(254,254,254)" stroke-width="1" opacity="1" d="M 4.5 107 L 10 107.5 L 4.5 108 L 4.5 107 Z " /><path fill="rgb(254,254,254)" stroke="rgb(254,254,254)" stroke-width="1" opacity="1" d="M 37.5 107 L 39 107.5 L 37.5 108 L 37.5 107 Z " /><path fill="rgb(254,254,254)" stroke="rgb(254,254,254)" stroke-width="1" opacity="1" d="M 41.5 107 L 43 107.5 L 41.5 108 L 41.5 107 Z " /><path fill="rgb(254,254,254)" stroke="rgb(254,254,254)" stroke-width="1" opacity="1" d="M 91.5 107 L 91.5 108 L 91.5 107 Z " /><path fill="rgb(254,254,254)" stroke="rgb(254,254,254)" stroke-width="1" opacity="1" d="M 123.5 107 L 123.5 108 L 123.5 107 Z " /><path fill="rgb(1,1,1)" stroke="rgb(1,1,1)" stroke-width="1" opacity="1" d="M 31.5 22 L 40.5 22 Q 41.38 22.04 41 25 L 36 25 L 35.5 23 L 31.5 23 L 30 23.5 L 31.5 22 Z " /><path fill="rgb(1,1,1)" stroke="rgb(1,1,1)" stroke-width="1" opacity="1" d="M 92 22 L 102 22 L 102 26 Q 98.67 27.13 100 23 L 97.5 23 L 96.5 24 L 92 24 L 92 22 Z " /><path fill="rgb(1,1,1)" stroke="rgb(1,1,1)" stroke-width="1" opacity="1" d="M 29.5 25 L 29.5 26 L 29.5 25 Z " /><path fill="rgb(1,1,1)" stroke="rgb(1,1,1)" stroke-width="1" opacity="1" d="M 41.5 26 L 45 27.5 L 43.5 29 L 41 26.5 L 41.5 26 Z " /><path fill="rgb(1,1,1)" stroke="rgb(1,1,1)" stroke-width="1" opacity="1" d="M 81.5 26 L 92 26.5 L 87.5 27 L 86.5 28 L 82.5 28 L 81.5 27 L 80 27.5 L 81.5 26 Z " /><path fill="rgb(1,1,1)" stroke="rgb(1,1,1)" stroke-width="1" opacity="1" d="M 46 27 L 70.5 27 L 71 29 L 46.5 29 L 46 27 Z " /><path fill="rgb(1,1,1)" stroke="rgb(1,1,1)" stroke-width="1" opacity="1" d="M 74.5 27 Q 76 28 73.5 29 L 72 28.5 L 74.5 27 Z " /><path fill="rgb(1,1,1)" stroke="rgb(1,1,1)" stroke-width="1" opacity="1" d="M 29.5 28 Q 32.5 29.5 29.5 31 Q 26.5 29.5 29.5 28 Z M 30 29 L 30 30 L 30 29 Z " /><path fill="rgb(1,1,1)" stroke="rgb(1,1,1)" stroke-width="1" opacity="1" d="M 76.5 28 L 76.5 29 L 76.5 28 Z " /><path fill="rgb(1,1,1)" stroke="rgb(1,1,1)" stroke-width="1" opacity="1" d="M 102.5 29 L 104 29.5 L 102.5 30 L 102.5 29 Z " /><path fill="rgb(1,1,1)" stroke="rgb(1,1,1)" stroke-width="1" opacity="1" d="M 41.5 31 L 42 56 Q 45 55 44 58 Q 41.33 56.88 42 59.5 L 41 59.5 L 41.5 31 Z " /><path fill="rgb(1,1,1)" stroke="rgb(1,1,1)" stroke-width="1" opacity="1" d="M 86.5 31 L 86.5 32 L 86.5 31 Z " /><path fill="rgb(1,1,1)" stroke="rgb(1,1,1)" stroke-width="1" opacity="1" d="M 91.5 31 L 91.5 32 L 91.5 31 Z " /><path fill="rgb(1,1,1)" stroke="rgb(1,1,1)" stroke-width="1" opacity="1" d="M 28.5 32 L 31 32.5 L 28.5 33 L 28.5 32 Z " /><path fill="rgb(1,1,1)" stroke="rgb(1,1,1)" stroke-width="1" opacity="1" d="M 103.5 32 L 103.5 33 L 103.5 32 Z " /><path fill="rgb(1,1,1)" stroke="rgb(1,1,1)" stroke-width="1" opacity="1" d="M 89.5 33 L 90 36.5 L 89 36.5 L 89.5 33 Z " /><path fill="rgb(1,1,1)" stroke="rgb(1,1,1)" stroke-width="1" opacity="1" d="M 91.5 33 L 91.5 34 L 91.5 33 Z " /><path fill="rgb(1,1,1)" stroke="rgb(1,1,1)" stroke-width="1" opacity="1" d="M 27.5 34 L 27 35.5 L 27 40.5 L 25.5 41 L 26 39.5 L 25 37.5 L 27.5 34 Z " /><path fill="rgb(1,1,1)" stroke="rgb(1,1,1)" stroke-width="1" opacity="1" d="M 30.5 34 L 30.5 35 L 30.5 34 Z " /><path fill="rgb(1,1,1)" stroke="rgb(1,1,1)" stroke-width="1" opacity="1" d="M 102.5 34 Q 105.5 33.5 106 35.5 L 105 37.5 L 105.5 39 L 104 39.5 L 104.5 41 L 102 40 Q 101.5 36.75 105 35.5 L 102.5 35 L 102.5 34 Z M 104 38 L 104 39 L 104 38 Z " /><path fill="rgb(1,1,1)" stroke="rgb(1,1,1)" stroke-width="1" opacity="1" d="M 91.5 36 L 92 37.5 L 91 37.5 L 91.5 36 Z " /><path fill="rgb(1,1,1)" stroke="rgb(1,1,1)" stroke-width="1" opacity="1" d="M 90.5 39 L 90.5 40 L 90.5 39 Z " /><path fill="rgb(1,1,1)" stroke="rgb(1,1,1)" stroke-width="1" opacity="1" d="M 24.5 42 L 26 42.5 L 24.5 43 L 24.5 42 Z " /><path fill="rgb(1,1,1)" stroke="rgb(1,1,1)" stroke-width="1" opacity="1" d="M 107.5 42 L 109 44.5 Q 108 47 107 45.5 L 107.5 42 Z " /><path fill="rgb(1,1,1)" stroke="rgb(1,1,1)" stroke-width="1" opacity="1" d="M 24.5 44 Q 27 45 25.5 46 Q 22.88 45.33 24 48 Q 26.67 46.88 26 49.5 Q 25 51.75 22 51 L 21.5 54 L 21 51.5 L 24.5 44 Z M 24 49 L 24 50 L 24 49 Z " /><path fill="rgb(1,1,1)" stroke="rgb(1,1,1)" stroke-width="1" opacity="1" d="M 91.5 45 L 91.5 46 L 91.5 45 Z " /><path fill="rgb(1,1,1)" stroke="rgb(1,1,1)" stroke-width="1" opacity="1" d="M 107.5 47 L 107.5 48 L 107.5 47 Z " /><path fill="rgb(1,1,1)" stroke="rgb(1,1,1)" stroke-width="1" opacity="1" d="M 109.5 48 Q 111 49 108.5 50 Q 107 49 109.5 48 Z " /><path fill="rgb(1,1,1)" stroke="rgb(1,1,1)" stroke-width="1" opacity="1" d="M 91.5 49 L 92 50.5 L 91 50.5 L 91.5 49 Z " /><path fill="rgb(1,1,1)" stroke="rgb(1,1,1)" stroke-width="1" opacity="1" d="M 108.5 51 Q 111 52 110 56.5 L 109 56.5 L 109 55 Q 106.33 56.13 107 53.5 L 109 53.5 L 108.5 51 Z " /><path fill="rgb(1,1,1)" stroke="rgb(1,1,1)" stroke-width="1" opacity="1" d="M 90.5 52 L 90.5 53 L 90.5 52 Z " /><path fill="rgb(1,1,1)" stroke="rgb(1,1,1)" stroke-width="1" opacity="1" d="M 20.5 55 L 21 56.5 L 20 56.5 L 20.5 55 Z " /><path fill="rgb(1,1,1)" stroke="rgb(1,1,1)" stroke-width="1" opacity="1" d="M 91.5 55 L 92 56.5 L 91 56.5 L 91.5 55 Z " /><path fill="rgb(1,1,1)" stroke="rgb(1,1,1)" stroke-width="1" opacity="1" d="M 87.5 56 L 87.5 57 L 87.5 56 Z " /><path fill="rgb(1,1,1)" stroke="rgb(1,1,1)" stroke-width="1" opacity="1" d="M 111.5 56 L 112 61.5 L 111 61.5 L 111.5 56 Z " /><path fill="rgb(1,1,1)" stroke="rgb(1,1,1)" stroke-width="1" opacity="1" d="M 20.5 58 L 20 59.5 L 21 60.5 L 20.5 64 L 19.5 60 L 18 60.5 L 20.5 58 Z " /><path fill="rgb(1,1,1)" stroke="rgb(1,1,1)" stroke-width="1" opacity="1" d="M 85.5 59 L 85.5 60 L 85.5 59 Z " /><path fill="rgb(1,1,1)" stroke="rgb(1,1,1)" stroke-width="1" opacity="1" d="M 42.5 61 L 45.5 62 L 46.5 61 L 71.5 61 L 71.5 62 L 46 62.5 L 71 63.5 L 46.5 64 Q 46 61.5 42.5 62 L 42.5 61 Z " /><path fill="rgb(1,1,1)" stroke="rgb(1,1,1)" stroke-width="1" opacity="1" d="M 79.5 61 L 79.5 64 Q 76.5 62.5 79.5 61 Z " /><path fill="rgb(1,1,1)" stroke="rgb(1,1,1)" stroke-width="1" opacity="1" d="M 82.5 61 L 82.5 62 L 82.5 61 Z " /><path fill="rgb(1,1,1)" stroke="rgb(1,1,1)" stroke-width="1" opacity="1" d="M 18.5 63 L 18.5 64 L 18.5 63 Z " /><path fill="rgb(1,1,1)" stroke="rgb(1,1,1)" stroke-width="1" opacity="1" d="M 41.5 64 L 41.5 65 L 41.5 64 Z " /><path fill="rgb(1,1,1)" stroke="rgb(1,1,1)" stroke-width="1" opacity="1" d="M 18.5 65 Q 21 66 19.5 67 Q 16.71 67.67 18.5 65 Z " /><path fill="rgb(1,1,1)" stroke="rgb(1,1,1)" stroke-width="1" opacity="1" d="M 44.5 65 Q 46 66 43.5 67 Q 42 66 44.5 65 Z " /><path fill="rgb(1,1,1)" stroke="rgb(1,1,1)" stroke-width="1" opacity="1" d="M 112 65 Q 114.67 63.87 114 66.5 Q 113 69 112 67.5 L 112 65 Z " /><path fill="rgb(1,1,1)" stroke="rgb(1,1,1)" stroke-width="1" opacity="1" d="M 41.5 66 L 42 98.5 L 41 98.5 L 41.5 66 Z " /><path fill="rgb(1,1,1)" stroke="rgb(1,1,1)" stroke-width="1" opacity="1" d="M 86.5 66 L 89 66.5 L 86.5 67 L 86.5 66 Z " /><path fill="rgb(1,1,1)" stroke="rgb(1,1,1)" stroke-width="1" opacity="1" d="M 90.5 66 L 90.5 67 L 90.5 66 Z " /><path fill="rgb(1,1,1)" stroke="rgb(1,1,1)" stroke-width="1" opacity="1" d="M 16.5 67 L 17 72 L 14 71.5 L 16 71 L 16.5 67 Z " /><path fill="rgb(1,1,1)" stroke="rgb(1,1,1)" stroke-width="1" opacity="1" d="M 91.5 68 L 91.5 69 L 91.5 68 Z " /><path fill="rgb(1,1,1)" stroke="rgb(1,1,1)" stroke-width="1" opacity="1" d="M 114.5 69 L 113.5 72 L 116 73.5 L 114.5 74 L 112 73 L 112 70 L 113.5 70 L 114.5 69 Z " /><path fill="rgb(1,1,1)" stroke="rgb(1,1,1)" stroke-width="1" opacity="1" d="M 90.5 70 Q 92.75 69.25 92 71.5 L 91.5 72 Q 89 71 90.5 70 Z " /><path fill="rgb(1,1,1)" stroke="rgb(1,1,1)" stroke-width="1" opacity="1" d="M 14.5 73 L 16 73.5 L 14.5 74 L 14.5 73 Z " /><path fill="rgb(1,1,1)" stroke="rgb(1,1,1)" stroke-width="1" opacity="1" d="M 91.5 73 L 91.5 74 L 91.5 73 Z " /><path fill="rgb(1,1,1)" stroke="rgb(1,1,1)" stroke-width="1" opacity="1" d="M 15.5 75 L 16 78 L 14 78.5 L 14.5 80 L 12 76.5 L 13.5 77 L 15 77 L 15.5 75 Z " /><path fill="rgb(1,1,1)" stroke="rgb(1,1,1)" stroke-width="1" opacity="1" d="M 90.5 75 L 90.5 76 L 90.5 75 Z " /><path fill="rgb(1,1,1)" stroke="rgb(1,1,1)" stroke-width="1" opacity="1" d="M 113.5 75 Q 115.75 74.25 115 76.5 L 114.5 77 Q 112 76 113.5 75 Z " /><path fill="rgb(1,1,1)" stroke="rgb(1,1,1)" stroke-width="1" opacity="1" d="M 91.5 78 L 92 82.5 L 91 82.5 L 91.5 78 Z " /><path fill="rgb(1,1,1)" stroke="rgb(1,1,1)" stroke-width="1" opacity="1" d="M 14.5 81 Q 17 82 15.5 83 L 14 82.5 L 11.5 87 L 10 84.5 L 11.5 85 L 13 83.5 L 14.5 81 Z " /><path fill="rgb(1,1,1)" stroke="rgb(1,1,1)" stroke-width="1" opacity="1" d="M 118.5 84 L 118.5 85 L 118.5 84 Z " /><path fill="rgb(1,1,1)" stroke="rgb(1,1,1)" stroke-width="1" opacity="1" d="M 14.5 85 L 16 85.5 L 13.5 87 Q 12 86 14.5 85 Z " /><path fill="rgb(1,1,1)" stroke="rgb(1,1,1)" stroke-width="1" opacity="1" d="M 118.5 86 Q 119.31 91.69 123 94.5 L 122 97 L 119 97 L 119 95.5 L 118 93 L 120 92.5 L 118 92 L 119 89.5 Q 117.08 88.58 118.5 86 Z M 121 94 L 121 95 L 121 94 Z " /><path fill="rgb(1,1,1)" stroke="rgb(1,1,1)" stroke-width="1" opacity="1" d="M 9.5 87 L 9.5 88 L 9.5 87 Z " /><path fill="rgb(1,1,1)" stroke="rgb(1,1,1)" stroke-width="1" opacity="1" d="M 91.5 87 L 92 88.5 L 91 89.5 L 91.5 91 L 90.5 90 L 89 90.5 L 91.5 87 Z " /><path fill="rgb(1,1,1)" stroke="rgb(1,1,1)" stroke-width="1" opacity="1" d="M 120.5 87 L 120.5 88 L 120.5 87 Z " /><path fill="rgb(1,1,1)" stroke="rgb(1,1,1)" stroke-width="1" opacity="1" d="M 9.5 90 L 9.5 91 L 9.5 90 Z " /><path fill="rgb(1,1,1)" stroke="rgb(1,1,1)" stroke-width="1" opacity="1" d="M 9.5 92 L 10 93.5 L 9 93.5 L 9.5 92 Z " /><path fill="rgb(1,1,1)" stroke="rgb(1,1,1)" stroke-width="1" opacity="1" d="M 89 92 Q 92 90.75 91 94.5 Q 90 96 89 93.5 L 89 92 Z " /><path fill="rgb(1,1,1)" stroke="rgb(1,1,1)" stroke-width="1" opacity="1" d="M 87.5 94 L 87.5 95 L 87.5 94 Z " /><path fill="rgb(1,1,1)" stroke="rgb(1,1,1)" stroke-width="1" opacity="1" d="M 8 95 Q 11 94 10 97 Q 7 98 8 95 Z " /><path fill="rgb(1,1,1)" stroke="rgb(1,1,1)" stroke-width="1" opacity="1" d="M 86.5 96 L 90 96.5 L 86.5 97 L 86.5 96 Z " /><path fill="rgb(1,1,1)" stroke="rgb(1,1,1)" stroke-width="1" opacity="1" d="M 43.5 97 L 43.5 98 L 43.5 97 Z " /><path fill="rgb(1,1,1)" stroke="rgb(1,1,1)" stroke-width="1" opacity="1" d="M 6.5 98 L 10 101.5 L 10 104 L 5 104 L 5 99.5 L 6.5 98 Z M 7 99 L 7 100 L 7 99 Z M 8 100 L 6 102 Q 5 104 8 103 L 8 100 Z " /><path fill="rgb(1,1,1)" stroke="rgb(1,1,1)" stroke-width="1" opacity="1" d="M 83.5 98 L 83.5 99 L 83.5 98 Z " /><path fill="rgb(1,1,1)" stroke="rgb(1,1,1)" stroke-width="1" opacity="1" d="M 43.5 99 L 45 99.5 L 43.5 100 L 43.5 99 Z " /><path fill="rgb(1,1,1)" stroke="rgb(1,1,1)" stroke-width="1" opacity="1" d="M 77.5 99 L 81 101.5 L 79.5 102 L 77.5 100 L 76 100.5 L 77.5 99 Z " /><path fill="rgb(1,1,1)" stroke="rgb(1,1,1)" stroke-width="1" opacity="1" d="M 46.5 100 L 71 100.5 L 46.5 101 L 46.5 100 Z " /><path fill="rgb(1,1,1)" stroke="rgb(1,1,1)" stroke-width="1" opacity="1" d="M 73.5 100 L 73.5 101 L 73.5 100 Z " /><path fill="rgb(1,1,1)" stroke="rgb(1,1,1)" stroke-width="1" opacity="1" d="M 41.5 101 Q 43 102 40.5 103 Q 37.88 102.33 39 105 L 41 105.5 L 39.5 106 L 38 103.5 L 41.5 101 Z " /><path fill="rgb(1,1,1)" stroke="rgb(1,1,1)" stroke-width="1" opacity="1" d="M 123.5 103 L 124 104.5 L 123 104.5 L 123.5 103 Z " /><path fill="rgb(1,1,1)" stroke="rgb(1,1,1)" stroke-width="1" opacity="1" d="M 4.5 105 L 4.5 106 L 4.5 105 Z " /><path fill="rgb(1,1,1)" stroke="rgb(1,1,1)" stroke-width="1" opacity="1" d="M 125.5 105 L 125.5 106 L 125.5 105 Z " /><path fill="rgb(9,9,9)" stroke="rgb(9,9,9)" stroke-width="1" opacity="1" d="M 91.5 22 L 92 25.5 L 91 25.5 L 91.5 22 Z " /><path fill="rgb(9,9,9)" stroke="rgb(9,9,9)" stroke-width="1" opacity="1" d="M 102.5 22 L 102.5 23 L 102.5 22 Z " /><path fill="rgb(9,9,9)" stroke="rgb(9,9,9)" stroke-width="1" opacity="1" d="M 29.5 23 L 30 24.5 L 29 24.5 L 29.5 23 Z " /><path fill="rgb(9,9,9)" stroke="rgb(9,9,9)" stroke-width="1" opacity="1" d="M 28.5 26 L 28.5 27 L 28.5 26 Z " /><path fill="rgb(9,9,9)" stroke="rgb(9,9,9)" stroke-width="1" opacity="1" d="M 103.5 26 L 104 27.5 L 103 27.5 L 103.5 26 Z " /><path fill="rgb(9,9,9)" stroke="rgb(9,9,9)" stroke-width="1" opacity="1" d="M 44.5 29 L 44.5 30 L 44.5 29 Z " /><path fill="rgb(9,9,9)" stroke="rgb(9,9,9)" stroke-width="1" opacity="1" d="M 79.5 29 L 79.5 30 L 79.5 29 Z " /><path fill="rgb(9,9,9)" stroke="rgb(9,9,9)" stroke-width="1" opacity="1" d="M 104.5 29 L 104.5 30 L 104.5 29 Z " /><path fill="rgb(9,9,9)" stroke="rgb(9,9,9)" stroke-width="1" opacity="1" d="M 27.5 30 L 27.5 31 L 27.5 30 Z " /><path fill="rgb(9,9,9)" stroke="rgb(9,9,9)" stroke-width="1" opacity="1" d="M 81.5 30 L 81.5 31 L 81.5 30 Z " /><path fill="rgb(9,9,9)" stroke="rgb(9,9,9)" stroke-width="1" opacity="1" d="M 44.5 31 L 45 60 L 77 60.5 L 45.5 61 L 44 59.5 L 44.5 31 Z " /><path fill="rgb(9,9,9)" stroke="rgb(9,9,9)" stroke-width="1" opacity="1" d="M 83.5 31 L 83.5 32 L 83.5 31 Z " /><path fill="rgb(9,9,9)" stroke="rgb(9,9,9)" stroke-width="1" opacity="1" d="M 26.5 32 L 26.5 33 L 26.5 32 Z " /><path fill="rgb(9,9,9)" stroke="rgb(9,9,9)" stroke-width="1" opacity="1" d="M 85.5 32 L 89 35.5 L 88.5 36 L 85 32.5 L 85.5 32 Z " /><path fill="rgb(9,9,9)" stroke="rgb(9,9,9)" stroke-width="1" opacity="1" d="M 105.5 33 L 106 34.5 L 105 34.5 L 105.5 33 Z " /><path fill="rgb(9,9,9)" stroke="rgb(9,9,9)" stroke-width="1" opacity="1" d="M 25.5 36 L 25.5 37 L 25.5 36 Z " /><path fill="rgb(9,9,9)" stroke="rgb(9,9,9)" stroke-width="1" opacity="1" d="M 106.5 36 L 106.5 37 L 106.5 36 Z " /><path fill="rgb(9,9,9)" stroke="rgb(9,9,9)" stroke-width="1" opacity="1" d="M 89.5 37 L 89.5 38 L 89.5 37 Z " /><path fill="rgb(9,9,9)" stroke="rgb(9,9,9)" stroke-width="1" opacity="1" d="M 24.5 40 L 24.5 41 L 24.5 40 Z " /><path fill="rgb(9,9,9)" stroke="rgb(9,9,9)" stroke-width="1" opacity="1" d="M 90.5 40 L 90.5 41 L 90.5 40 Z " /><path fill="rgb(9,9,9)" stroke="rgb(9,9,9)" stroke-width="1" opacity="1" d="M 107.5 40 L 107.5 41 L 107.5 40 Z " /><path fill="rgb(9,9,9)" stroke="rgb(9,9,9)" stroke-width="1" opacity="1" d="M 23.5 42 L 23.5 43 L 23.5 42 Z " /><path fill="rgb(9,9,9)" stroke="rgb(9,9,9)" stroke-width="1" opacity="1" d="M 108.5 43 L 108.5 44 L 108.5 43 Z " /><path fill="rgb(9,9,9)" stroke="rgb(9,9,9)" stroke-width="1" opacity="1" d="M 22.5 46 L 23 47.5 Q 22 50 21 48.5 L 22.5 46 Z " /><path fill="rgb(9,9,9)" stroke="rgb(9,9,9)" stroke-width="1" opacity="1" d="M 109.5 47 L 109.5 48 L 109.5 47 Z " /><path fill="rgb(9,9,9)" stroke="rgb(9,9,9)" stroke-width="1" opacity="1" d="M 90.5 48 L 90.5 49 L 90.5 48 Z " /><path fill="rgb(9,9,9)" stroke="rgb(9,9,9)" stroke-width="1" opacity="1" d="M 110.5 49 L 110.5 50 L 110.5 49 Z " /><path fill="rgb(9,9,9)" stroke="rgb(9,9,9)" stroke-width="1" opacity="1" d="M 90.5 51 Q 92 52 89.5 53 Q 88 52 90.5 51 Z " /><path fill="rgb(9,9,9)" stroke="rgb(9,9,9)" stroke-width="1" opacity="1" d="M 20.5 52 L 20.5 53 L 20.5 52 Z " /><path fill="rgb(9,9,9)" stroke="rgb(9,9,9)" stroke-width="1" opacity="1" d="M 110.5 52 L 112 54.5 L 111 54.5 L 110.5 52 Z " /><path fill="rgb(9,9,9)" stroke="rgb(9,9,9)" stroke-width="1" opacity="1" d="M 19.5 54 L 19.5 55 L 19.5 54 Z " /><path fill="rgb(9,9,9)" stroke="rgb(9,9,9)" stroke-width="1" opacity="1" d="M 88.5 54 L 88.5 55 L 88.5 54 Z " /><path fill="rgb(9,9,9)" stroke="rgb(9,9,9)" stroke-width="1" opacity="1" d="M 91.5 54 L 91.5 55 L 91.5 54 Z " /><path fill="rgb(9,9,9)" stroke="rgb(9,9,9)" stroke-width="1" opacity="1" d="M 86.5 56 L 86.5 57 L 86.5 56 Z " /><path fill="rgb(9,9,9)" stroke="rgb(9,9,9)" stroke-width="1" opacity="1" d="M 18.5 58 L 18.5 59 L 18.5 58 Z " /><path fill="rgb(9,9,9)" stroke="rgb(9,9,9)" stroke-width="1" opacity="1" d="M 82.5 58 L 84 60.5 L 83 60.5 L 82.5 59 L 80.5 60 L 80.5 59 L 82.5 58 Z " /><path fill="rgb(9,9,9)" stroke="rgb(9,9,9)" stroke-width="1" opacity="1" d="M 85.5 58 L 85.5 59 L 85.5 58 Z " /><path fill="rgb(9,9,9)" stroke="rgb(9,9,9)" stroke-width="1" opacity="1" d="M 112.5 58 L 112.5 59 L 112.5 58 Z " /><path fill="rgb(9,9,9)" stroke="rgb(9,9,9)" stroke-width="1" opacity="1" d="M 17.5 60 L 17.5 61 L 17.5 60 Z " /><path fill="rgb(9,9,9)" stroke="rgb(9,9,9)" stroke-width="1" opacity="1" d="M 113.5 60 L 113.5 61 L 113.5 60 Z " /><path fill="rgb(9,9,9)" stroke="rgb(9,9,9)" stroke-width="1" opacity="1" d="M 113.5 62 L 113.5 63 L 113.5 62 Z " /><path fill="rgb(9,9,9)" stroke="rgb(9,9,9)" stroke-width="1" opacity="1" d="M 16.5 64 L 16.5 65 L 16.5 64 Z " /><path fill="rgb(9,9,9)" stroke="rgb(9,9,9)" stroke-width="1" opacity="1" d="M 44.5 64 L 44.5 65 L 44.5 64 Z " /><path fill="rgb(9,9,9)" stroke="rgb(9,9,9)" stroke-width="1" opacity="1" d="M 79.5 64 Q 82 65 80.5 66 Q 78 65 79.5 64 Z " /><path fill="rgb(9,9,9)" stroke="rgb(9,9,9)" stroke-width="1" opacity="1" d="M 114.5 64 L 114.5 65 L 114.5 64 Z " /><path fill="rgb(9,9,9)" stroke="rgb(9,9,9)" stroke-width="1" opacity="1" d="M 44.5 66 L 45 98.5 L 44 98.5 L 44.5 66 Z " /><path fill="rgb(9,9,9)" stroke="rgb(9,9,9)" stroke-width="1" opacity="1" d="M 82.5 66 L 84 66.5 L 82.5 67 L 82.5 66 Z " /><path fill="rgb(9,9,9)" stroke="rgb(9,9,9)" stroke-width="1" opacity="1" d="M 15.5 67 L 16 68.5 L 15 68.5 L 15.5 67 Z " /><path fill="rgb(9,9,9)" stroke="rgb(9,9,9)" stroke-width="1" opacity="1" d="M 85.5 67 L 89 71.5 L 88.5 72 L 85 68.5 L 85.5 67 Z " /><path fill="rgb(9,9,9)" stroke="rgb(9,9,9)" stroke-width="1" opacity="1" d="M 115.5 67 L 115.5 68 L 115.5 67 Z " /><path fill="rgb(9,9,9)" stroke="rgb(9,9,9)" stroke-width="1" opacity="1" d="M 14.5 70 L 14.5 71 L 14.5 70 Z " /><path fill="rgb(9,9,9)" stroke="rgb(9,9,9)" stroke-width="1" opacity="1" d="M 116.5 71 L 117 72.5 L 116 72.5 L 116.5 71 Z " /><path fill="rgb(9,9,9)" stroke="rgb(9,9,9)" stroke-width="1" opacity="1" d="M 13.5 73 L 13.5 74 L 13.5 73 Z " /><path fill="rgb(9,9,9)" stroke="rgb(9,9,9)" stroke-width="1" opacity="1" d="M 89.5 73 L 90 74.5 L 89 74.5 L 89.5 73 Z " /><path fill="rgb(9,9,9)" stroke="rgb(9,9,9)" stroke-width="1" opacity="1" d="M 117.5 74 L 117.5 75 L 117.5 74 Z " /><path fill="rgb(9,9,9)" stroke="rgb(9,9,9)" stroke-width="1" opacity="1" d="M 90.5 77 L 91 78.5 L 90 78.5 L 90.5 77 Z " /><path fill="rgb(9,9,9)" stroke="rgb(9,9,9)" stroke-width="1" opacity="1" d="M 118.5 78 L 119 79.5 L 118 79.5 L 118.5 78 Z " /><path fill="rgb(9,9,9)" stroke="rgb(9,9,9)" stroke-width="1" opacity="1" d="M 11.5 79 L 11.5 80 L 11.5 79 Z " /><path fill="rgb(9,9,9)" stroke="rgb(9,9,9)" stroke-width="1" opacity="1" d="M 10.5 81 L 11 82.5 L 10 82.5 L 10.5 81 Z " /><path fill="rgb(9,9,9)" stroke="rgb(9,9,9)" stroke-width="1" opacity="1" d="M 119.5 83 L 119.5 84 L 119.5 83 Z " /><path fill="rgb(9,9,9)" stroke="rgb(9,9,9)" stroke-width="1" opacity="1" d="M 90.5 84 L 90.5 85 L 90.5 84 Z " /><path fill="rgb(9,9,9)" stroke="rgb(9,9,9)" stroke-width="1" opacity="1" d="M 9.5 85 L 10 86.5 L 9 86.5 L 9.5 85 Z " /><path fill="rgb(9,9,9)" stroke="rgb(9,9,9)" stroke-width="1" opacity="1" d="M 120.5 85 L 121 86.5 L 120 86.5 L 120.5 85 Z " /><path fill="rgb(9,9,9)" stroke="rgb(9,9,9)" stroke-width="1" opacity="1" d="M 89.5 88 L 89.5 89 L 89.5 88 Z " /><path fill="rgb(9,9,9)" stroke="rgb(9,9,9)" stroke-width="1" opacity="1" d="M 8.5 89 L 8.5 90 L 8.5 89 Z " /><path fill="rgb(9,9,9)" stroke="rgb(9,9,9)" stroke-width="1" opacity="1" d="M 121.5 89 L 122 90.5 L 121 90.5 L 121.5 89 Z " /><path fill="rgb(9,9,9)" stroke="rgb(9,9,9)" stroke-width="1" opacity="1" d="M 90.5 90 L 90.5 91 L 90.5 90 Z " /><path fill="rgb(9,9,9)" stroke="rgb(9,9,9)" stroke-width="1" opacity="1" d="M 7.5 91 L 7.5 92 L 7.5 91 Z " /><path fill="rgb(9,9,9)" stroke="rgb(9,9,9)" stroke-width="1" opacity="1" d="M 88.5 91 L 88.5 92 L 88.5 91 Z " /><path fill="rgb(9,9,9)" stroke="rgb(9,9,9)" stroke-width="1" opacity="1" d="M 122.5 92 L 122.5 93 L 122.5 92 Z " /><path fill="rgb(9,9,9)" stroke="rgb(9,9,9)" stroke-width="1" opacity="1" d="M 85 94 L 87 94.5 Q 86 97 85 95.5 L 85 94 Z " /><path fill="rgb(9,9,9)" stroke="rgb(9,9,9)" stroke-width="1" opacity="1" d="M 6.5 95 L 6.5 96 L 6.5 95 Z " /><path fill="rgb(9,9,9)" stroke="rgb(9,9,9)" stroke-width="1" opacity="1" d="M 123.5 96 L 123.5 97 L 123.5 96 Z " /><path fill="rgb(9,9,9)" stroke="rgb(9,9,9)" stroke-width="1" opacity="1" d="M 5.5 97 L 6 98.5 L 5 98.5 L 5.5 97 Z " /><path fill="rgb(9,9,9)" stroke="rgb(9,9,9)" stroke-width="1" opacity="1" d="M 80.5 97 L 80.5 100 Q 77.5 98.5 80.5 97 Z " /><path fill="rgb(9,9,9)" stroke="rgb(9,9,9)" stroke-width="1" opacity="1" d="M 46.5 99 L 74 99.5 L 46.5 100 L 46.5 99 Z " /><path fill="rgb(9,9,9)" stroke="rgb(9,9,9)" stroke-width="1" opacity="1" d="M 124.5 99 L 124.5 100 L 124.5 99 Z " /><path fill="rgb(9,9,9)" stroke="rgb(9,9,9)" stroke-width="1" opacity="1" d="M 4.5 101 L 5 102.5 L 3.5 105 L 3 103.5 L 4.5 101 Z " /><path fill="rgb(9,9,9)" stroke="rgb(9,9,9)" stroke-width="1" opacity="1" d="M 90.5 103 L 91 105.5 L 90 105.5 L 90.5 103 Z " /><path fill="rgb(9,9,9)" stroke="rgb(9,9,9)" stroke-width="1" opacity="1" d="M 125.5 103 L 125.5 104 L 125.5 103 Z " /><path fill="rgb(9,9,9)" stroke="rgb(9,9,9)" stroke-width="1" opacity="1" d="M 126.5 105 L 126.5 106 L 126.5 105 Z " /><path fill="rgb(214,214,214)" stroke="rgb(214,214,214)" stroke-width="1" opacity="1" d="M 29.5 21 L 42 21.5 L 29.5 22 L 29.5 21 Z " /><path fill="rgb(214,214,214)" stroke="rgb(214,214,214)" stroke-width="1" opacity="1" d="M 103.5 23 L 103.5 24 L 103.5 23 Z " /><path fill="rgb(214,214,214)" stroke="rgb(214,214,214)" stroke-width="1" opacity="1" d="M 28.5 24 L 28.5 25 L 28.5 24 Z " /><path fill="rgb(214,214,214)" stroke="rgb(214,214,214)" stroke-width="1" opacity="1" d="M 104.5 25 L 105 26.5 L 104 26.5 L 104.5 25 Z " /><path fill="rgb(214,214,214)" stroke="rgb(214,214,214)" stroke-width="1" opacity="1" d="M 27.5 27 L 27.5 28 L 27.5 27 Z " /><path fill="rgb(214,214,214)" stroke="rgb(214,214,214)" stroke-width="1" opacity="1" d="M 45.5 30 L 46 59.5 L 45 59.5 L 45.5 30 Z " /><path fill="rgb(214,214,214)" stroke="rgb(214,214,214)" stroke-width="1" opacity="1" d="M 105.5 30 L 105.5 31 L 105.5 30 Z " /><path fill="rgb(214,214,214)" stroke="rgb(214,214,214)" stroke-width="1" opacity="1" d="M 84.5 32 L 84.5 33 L 84.5 32 Z " /><path fill="rgb(214,214,214)" stroke="rgb(214,214,214)" stroke-width="1" opacity="1" d="M 25.5 33 L 25.5 34 L 25.5 33 Z " /><path fill="rgb(214,214,214)" stroke="rgb(214,214,214)" stroke-width="1" opacity="1" d="M 86.5 34 L 86.5 35 L 86.5 34 Z " /><path fill="rgb(214,214,214)" stroke="rgb(214,214,214)" stroke-width="1" opacity="1" d="M 106.5 34 L 106.5 35 L 106.5 34 Z " /><path fill="rgb(214,214,214)" stroke="rgb(214,214,214)" stroke-width="1" opacity="1" d="M 24.5 37 L 24.5 38 L 24.5 37 Z " /><path fill="rgb(214,214,214)" stroke="rgb(214,214,214)" stroke-width="1" opacity="1" d="M 107.5 37 L 107.5 38 L 107.5 37 Z " /><path fill="rgb(214,214,214)" stroke="rgb(214,214,214)" stroke-width="1" opacity="1" d="M 23.5 39 L 23.5 40 L 23.5 39 Z " /><path fill="rgb(214,214,214)" stroke="rgb(214,214,214)" stroke-width="1" opacity="1" d="M 89.5 39 L 90 40.5 L 89 40.5 L 89.5 39 Z " /><path fill="rgb(214,214,214)" stroke="rgb(214,214,214)" stroke-width="1" opacity="1" d="M 108.5 41 L 108.5 42 L 108.5 41 Z " /><path fill="rgb(214,214,214)" stroke="rgb(214,214,214)" stroke-width="1" opacity="1" d="M 22.5 43 L 22.5 44 L 22.5 43 Z " /><path fill="rgb(214,214,214)" stroke="rgb(214,214,214)" stroke-width="1" opacity="1" d="M 90.5 43 L 91 46.5 L 90 46.5 L 90.5 43 Z " /><path fill="rgb(214,214,214)" stroke="rgb(214,214,214)" stroke-width="1" opacity="1" d="M 109.5 43 L 110 44.5 L 109 44.5 L 109.5 43 Z " /><path fill="rgb(214,214,214)" stroke="rgb(214,214,214)" stroke-width="1" opacity="1" d="M 21.5 47 L 21.5 48 L 21.5 47 Z " /><path fill="rgb(214,214,214)" stroke="rgb(214,214,214)" stroke-width="1" opacity="1" d="M 110.5 47 L 110.5 48 L 110.5 47 Z " /><path fill="rgb(214,214,214)" stroke="rgb(214,214,214)" stroke-width="1" opacity="1" d="M 20.5 49 L 20.5 50 L 20.5 49 Z " /><path fill="rgb(214,214,214)" stroke="rgb(214,214,214)" stroke-width="1" opacity="1" d="M 89.5 49 L 89.5 50 L 89.5 49 Z " /><path fill="rgb(214,214,214)" stroke="rgb(214,214,214)" stroke-width="1" opacity="1" d="M 111.5 50 L 111.5 51 L 111.5 50 Z " /><path fill="rgb(214,214,214)" stroke="rgb(214,214,214)" stroke-width="1" opacity="1" d="M 88.5 52 L 88.5 53 L 88.5 52 Z " /><path fill="rgb(214,214,214)" stroke="rgb(214,214,214)" stroke-width="1" opacity="1" d="M 19.5 53 L 19.5 54 L 19.5 53 Z " /><path fill="rgb(214,214,214)" stroke="rgb(214,214,214)" stroke-width="1" opacity="1" d="M 112.5 54 L 113 55.5 L 112 55.5 L 112.5 54 Z " /><path fill="rgb(214,214,214)" stroke="rgb(214,214,214)" stroke-width="1" opacity="1" d="M 18.5 55 L 18.5 56 L 18.5 55 Z " /><path fill="rgb(214,214,214)" stroke="rgb(214,214,214)" stroke-width="1" opacity="1" d="M 17.5 58 L 17.5 59 L 17.5 58 Z " /><path fill="rgb(214,214,214)" stroke="rgb(214,214,214)" stroke-width="1" opacity="1" d="M 81.5 58 L 81.5 59 L 81.5 58 Z " /><path fill="rgb(214,214,214)" stroke="rgb(214,214,214)" stroke-width="1" opacity="1" d="M 113.5 58 L 113.5 59 L 113.5 58 Z " /><path fill="rgb(214,214,214)" stroke="rgb(214,214,214)" stroke-width="1" opacity="1" d="M 77.5 59 L 79 59.5 L 77.5 60 L 77.5 59 Z " /><path fill="rgb(214,214,214)" stroke="rgb(214,214,214)" stroke-width="1" opacity="1" d="M 16.5 61 L 16.5 62 L 16.5 61 Z " /><path fill="rgb(214,214,214)" stroke="rgb(214,214,214)" stroke-width="1" opacity="1" d="M 114.5 61 L 115 62.5 L 114 62.5 L 114.5 61 Z " /><path fill="rgb(214,214,214)" stroke="rgb(214,214,214)" stroke-width="1" opacity="1" d="M 15.5 64 L 16 65.5 L 15 65.5 L 15.5 64 Z " /><path fill="rgb(214,214,214)" stroke="rgb(214,214,214)" stroke-width="1" opacity="1" d="M 45 64 L 77 64.5 L 46 65 L 46 98 L 76.5 98 L 76.5 99 L 45 99 L 45 64 Z " /><path fill="rgb(214,214,214)" stroke="rgb(214,214,214)" stroke-width="1" opacity="1" d="M 79.5 65 L 79.5 66 L 79.5 65 Z " /><path fill="rgb(214,214,214)" stroke="rgb(214,214,214)" stroke-width="1" opacity="1" d="M 115.5 65 L 115.5 66 L 115.5 65 Z " /><path fill="rgb(214,214,214)" stroke="rgb(214,214,214)" stroke-width="1" opacity="1" d="M 14.5 68 L 14.5 69 L 14.5 68 Z " /><path fill="rgb(214,214,214)" stroke="rgb(214,214,214)" stroke-width="1" opacity="1" d="M 84.5 68 L 87 70.5 L 86.5 71 L 84 68.5 L 84.5 68 Z " /><path fill="rgb(214,214,214)" stroke="rgb(214,214,214)" stroke-width="1" opacity="1" d="M 116.5 68 L 116.5 69 L 116.5 68 Z " /><path fill="rgb(214,214,214)" stroke="rgb(214,214,214)" stroke-width="1" opacity="1" d="M 13.5 70 L 13.5 71 L 13.5 70 Z " /><path fill="rgb(214,214,214)" stroke="rgb(214,214,214)" stroke-width="1" opacity="1" d="M 87.5 72 Q 90 73 88.5 74 Q 86 73 87.5 72 Z " /><path fill="rgb(214,214,214)" stroke="rgb(214,214,214)" stroke-width="1" opacity="1" d="M 117.5 72 L 117.5 73 L 117.5 72 Z " /><path fill="rgb(214,214,214)" stroke="rgb(214,214,214)" stroke-width="1" opacity="1" d="M 12.5 74 L 12.5 75 L 12.5 74 Z " /><path fill="rgb(214,214,214)" stroke="rgb(214,214,214)" stroke-width="1" opacity="1" d="M 118.5 75 L 118.5 76 L 118.5 75 Z " /><path fill="rgb(214,214,214)" stroke="rgb(214,214,214)" stroke-width="1" opacity="1" d="M 11.5 76 L 12 77.5 L 11 77.5 L 11.5 76 Z " /><path fill="rgb(214,214,214)" stroke="rgb(214,214,214)" stroke-width="1" opacity="1" d="M 89.5 76 L 90 77.5 L 89 77.5 L 89.5 76 Z " /><path fill="rgb(214,214,214)" stroke="rgb(214,214,214)" stroke-width="1" opacity="1" d="M 119.5 79 L 120 80.5 L 119 80.5 L 119.5 79 Z " /><path fill="rgb(214,214,214)" stroke="rgb(214,214,214)" stroke-width="1" opacity="1" d="M 10.5 80 L 10.5 81 L 10.5 80 Z " /><path fill="rgb(214,214,214)" stroke="rgb(214,214,214)" stroke-width="1" opacity="1" d="M 9.5 82 L 9.5 83 L 9.5 82 Z " /><path fill="rgb(214,214,214)" stroke="rgb(214,214,214)" stroke-width="1" opacity="1" d="M 120.5 82 L 120.5 83 L 120.5 82 Z " /><path fill="rgb(214,214,214)" stroke="rgb(214,214,214)" stroke-width="1" opacity="1" d="M 89.5 85 L 89.5 86 L 89.5 85 Z " /><path fill="rgb(214,214,214)" stroke="rgb(214,214,214)" stroke-width="1" opacity="1" d="M 8.5 86 L 8.5 87 L 8.5 86 Z " /><path fill="rgb(214,214,214)" stroke="rgb(214,214,214)" stroke-width="1" opacity="1" d="M 121.5 86 L 122 87.5 L 121 87.5 L 121.5 86 Z " /><path fill="rgb(214,214,214)" stroke="rgb(214,214,214)" stroke-width="1" opacity="1" d="M 7.5 88 L 7.5 89 L 7.5 88 Z " /><path fill="rgb(214,214,214)" stroke="rgb(214,214,214)" stroke-width="1" opacity="1" d="M 88.5 89 Q 90 90 87.5 91 Q 86 90 88.5 89 Z " /><path fill="rgb(214,214,214)" stroke="rgb(214,214,214)" stroke-width="1" opacity="1" d="M 122.5 90 L 122.5 91 L 122.5 90 Z " /><path fill="rgb(214,214,214)" stroke="rgb(214,214,214)" stroke-width="1" opacity="1" d="M 6.5 92 L 6.5 93 L 6.5 92 Z " /><path fill="rgb(214,214,214)" stroke="rgb(214,214,214)" stroke-width="1" opacity="1" d="M 86.5 92 L 86.5 93 L 86.5 92 Z " /><path fill="rgb(214,214,214)" stroke="rgb(214,214,214)" stroke-width="1" opacity="1" d="M 123.5 93 L 124 94.5 L 123 94.5 L 123.5 93 Z " /><path fill="rgb(214,214,214)" stroke="rgb(214,214,214)" stroke-width="1" opacity="1" d="M 84.5 94 Q 86 95 83.5 96 Q 82 95 84.5 94 Z " /><path fill="rgb(214,214,214)" stroke="rgb(214,214,214)" stroke-width="1" opacity="1" d="M 5.5 96 L 5.5 97 L 5.5 96 Z " /><path fill="rgb(214,214,214)" stroke="rgb(214,214,214)" stroke-width="1" opacity="1" d="M 81.5 96 L 81.5 97 L 81.5 96 Z " /><path fill="rgb(214,214,214)" stroke="rgb(214,214,214)" stroke-width="1" opacity="1" d="M 79.5 97 L 79.5 98 L 79.5 97 Z " /><path fill="rgb(214,214,214)" stroke="rgb(214,214,214)" stroke-width="1" opacity="1" d="M 124.5 97 L 124.5 98 L 124.5 97 Z " /><path fill="rgb(214,214,214)" stroke="rgb(214,214,214)" stroke-width="1" opacity="1" d="M 4.5 98 L 5 99.5 L 4 99.5 L 4.5 98 Z " /><path fill="rgb(214,214,214)" stroke="rgb(214,214,214)" stroke-width="1" opacity="1" d="M 125.5 100 L 125.5 101 L 125.5 100 Z " /><path fill="rgb(214,214,214)" stroke="rgb(214,214,214)" stroke-width="1" opacity="1" d="M 3.5 102 L 3.5 103 L 3.5 102 Z " /><path fill="rgb(214,214,214)" stroke="rgb(214,214,214)" stroke-width="1" opacity="1" d="M 41.5 103 L 42 105.5 L 41 105.5 L 41.5 103 Z " /><path fill="rgb(214,214,214)" stroke="rgb(214,214,214)" stroke-width="1" opacity="1" d="M 89.5 103 L 89.5 104 L 89.5 103 Z " /><path fill="rgb(214,214,214)" stroke="rgb(214,214,214)" stroke-width="1" opacity="1" d="M 126.5 103 L 126.5 104 L 126.5 103 Z " /><path fill="rgb(214,214,214)" stroke="rgb(214,214,214)" stroke-width="1" opacity="1" d="M 2.5 104 L 2.5 105 L 2.5 104 Z " /><path fill="rgb(214,214,214)" stroke="rgb(214,214,214)" stroke-width="1" opacity="1" d="M 127.5 105 L 128 106.5 L 127 106.5 L 127.5 105 Z " /><path fill="rgb(214,214,214)" stroke="rgb(214,214,214)" stroke-width="1" opacity="1" d="M 2.5 106 L 2.5 107 L 2.5 106 Z " /><path fill="rgb(101,101,101)" stroke="rgb(101,101,101)" stroke-width="1" opacity="1" d="M 91.5 21 L 103 21.5 L 91.5 22 L 91.5 21 Z " /><path fill="rgb(101,101,101)" stroke="rgb(101,101,101)" stroke-width="1" opacity="1" d="M 29.5 22 L 29.5 23 L 29.5 22 Z " /><path fill="rgb(101,101,101)" stroke="rgb(101,101,101)" stroke-width="1" opacity="1" d="M 41.5 22 L 42 25 L 91 25.5 L 41 26 L 41.5 22 Z " /><path fill="rgb(101,101,101)" stroke="rgb(101,101,101)" stroke-width="1" opacity="1" d="M 103.5 24 L 104 25.5 L 103 25.5 L 103.5 24 Z " /><path fill="rgb(101,101,101)" stroke="rgb(101,101,101)" stroke-width="1" opacity="1" d="M 28.5 25 L 28.5 26 L 28.5 25 Z " /><path fill="rgb(101,101,101)" stroke="rgb(101,101,101)" stroke-width="1" opacity="1" d="M 104.5 27 L 105 28.5 L 104 28.5 L 104.5 27 Z " /><path fill="rgb(101,101,101)" stroke="rgb(101,101,101)" stroke-width="1" opacity="1" d="M 27.5 28 L 28 29.5 L 27 29.5 L 27.5 28 Z " /><path fill="rgb(101,101,101)" stroke="rgb(101,101,101)" stroke-width="1" opacity="1" d="M 45.5 29 L 79 29.5 L 45.5 30 L 45.5 29 Z " /><path fill="rgb(101,101,101)" stroke="rgb(101,101,101)" stroke-width="1" opacity="1" d="M 80.5 30 L 80.5 31 L 80.5 30 Z " /><path fill="rgb(101,101,101)" stroke="rgb(101,101,101)" stroke-width="1" opacity="1" d="M 26.5 31 L 26.5 32 L 26.5 31 Z " /><path fill="rgb(101,101,101)" stroke="rgb(101,101,101)" stroke-width="1" opacity="1" d="M 82.5 31 L 82.5 32 L 82.5 31 Z " /><path fill="rgb(101,101,101)" stroke="rgb(101,101,101)" stroke-width="1" opacity="1" d="M 105.5 31 L 106 32.5 L 105 32.5 L 105.5 31 Z " /><path fill="rgb(101,101,101)" stroke="rgb(101,101,101)" stroke-width="1" opacity="1" d="M 25.5 34 L 26 35.5 L 25 35.5 L 25.5 34 Z " /><path fill="rgb(101,101,101)" stroke="rgb(101,101,101)" stroke-width="1" opacity="1" d="M 87.5 35 Q 90 36 88.5 37 Q 86 36 87.5 35 Z " /><path fill="rgb(101,101,101)" stroke="rgb(101,101,101)" stroke-width="1" opacity="1" d="M 106.5 35 L 106.5 36 L 106.5 35 Z " /><path fill="rgb(101,101,101)" stroke="rgb(101,101,101)" stroke-width="1" opacity="1" d="M 24.5 38 L 25 39.5 L 23.5 42 L 23 40.5 L 24.5 38 Z " /><path fill="rgb(101,101,101)" stroke="rgb(101,101,101)" stroke-width="1" opacity="1" d="M 89.5 38 L 89.5 39 L 89.5 38 Z " /><path fill="rgb(101,101,101)" stroke="rgb(101,101,101)" stroke-width="1" opacity="1" d="M 107.5 38 L 108 39.5 L 107 39.5 L 107.5 38 Z " /><path fill="rgb(101,101,101)" stroke="rgb(101,101,101)" stroke-width="1" opacity="1" d="M 90.5 41 L 91 42.5 L 90 42.5 L 90.5 41 Z " /><path fill="rgb(101,101,101)" stroke="rgb(101,101,101)" stroke-width="1" opacity="1" d="M 108.5 42 L 108.5 43 L 108.5 42 Z " /><path fill="rgb(101,101,101)" stroke="rgb(101,101,101)" stroke-width="1" opacity="1" d="M 22.5 44 L 23 45.5 L 22 45.5 L 22.5 44 Z " /><path fill="rgb(101,101,101)" stroke="rgb(101,101,101)" stroke-width="1" opacity="1" d="M 109.5 45 L 110 46.5 L 109 46.5 L 109.5 45 Z " /><path fill="rgb(101,101,101)" stroke="rgb(101,101,101)" stroke-width="1" opacity="1" d="M 90.5 47 L 90.5 48 L 90.5 47 Z " /><path fill="rgb(101,101,101)" stroke="rgb(101,101,101)" stroke-width="1" opacity="1" d="M 110.5 48 L 110.5 49 L 110.5 48 Z " /><path fill="rgb(101,101,101)" stroke="rgb(101,101,101)" stroke-width="1" opacity="1" d="M 20.5 50 L 21 51.5 L 20 51.5 L 20.5 50 Z " /><path fill="rgb(101,101,101)" stroke="rgb(101,101,101)" stroke-width="1" opacity="1" d="M 89.5 50 L 90 51.5 L 89 51.5 L 89.5 50 Z " /><path fill="rgb(101,101,101)" stroke="rgb(101,101,101)" stroke-width="1" opacity="1" d="M 111.5 51 L 112 52.5 L 111 52.5 L 111.5 51 Z " /><path fill="rgb(101,101,101)" stroke="rgb(101,101,101)" stroke-width="1" opacity="1" d="M 88.5 53 L 89 53.5 L 84.5 58 L 83 57.5 L 88.5 53 Z " /><path fill="rgb(101,101,101)" stroke="rgb(101,101,101)" stroke-width="1" opacity="1" d="M 18.5 56 L 19 57.5 L 18 57.5 L 18.5 56 Z " /><path fill="rgb(101,101,101)" stroke="rgb(101,101,101)" stroke-width="1" opacity="1" d="M 112.5 56 L 113 57.5 L 112 57.5 L 112.5 56 Z " /><path fill="rgb(101,101,101)" stroke="rgb(101,101,101)" stroke-width="1" opacity="1" d="M 17.5 59 L 17.5 60 L 17.5 59 Z " /><path fill="rgb(101,101,101)" stroke="rgb(101,101,101)" stroke-width="1" opacity="1" d="M 79.5 59 L 79.5 60 L 79.5 59 Z " /><path fill="rgb(101,101,101)" stroke="rgb(101,101,101)" stroke-width="1" opacity="1" d="M 113.5 59 L 113.5 60 L 113.5 59 Z " /><path fill="rgb(101,101,101)" stroke="rgb(101,101,101)" stroke-width="1" opacity="1" d="M 16.5 62 L 17 63.5 L 16 63.5 L 16.5 62 Z " /><path fill="rgb(101,101,101)" stroke="rgb(101,101,101)" stroke-width="1" opacity="1" d="M 114.5 63 L 114.5 64 L 114.5 63 Z " /><path fill="rgb(101,101,101)" stroke="rgb(101,101,101)" stroke-width="1" opacity="1" d="M 77.5 64 L 79 64.5 L 77.5 65 L 77.5 64 Z " /><path fill="rgb(101,101,101)" stroke="rgb(101,101,101)" stroke-width="1" opacity="1" d="M 15.5 66 L 15.5 67 L 15.5 66 Z " /><path fill="rgb(101,101,101)" stroke="rgb(101,101,101)" stroke-width="1" opacity="1" d="M 81.5 66 L 81.5 67 L 81.5 66 Z " /><path fill="rgb(101,101,101)" stroke="rgb(101,101,101)" stroke-width="1" opacity="1" d="M 115.5 66 L 115.5 67 L 115.5 66 Z " /><path fill="rgb(101,101,101)" stroke="rgb(101,101,101)" stroke-width="1" opacity="1" d="M 83.5 67 L 83.5 68 L 83.5 67 Z " /><path fill="rgb(101,101,101)" stroke="rgb(101,101,101)" stroke-width="1" opacity="1" d="M 14.5 69 L 14.5 70 L 14.5 69 Z " /><path fill="rgb(101,101,101)" stroke="rgb(101,101,101)" stroke-width="1" opacity="1" d="M 116.5 69 L 117 70.5 L 116 70.5 L 116.5 69 Z " /><path fill="rgb(101,101,101)" stroke="rgb(101,101,101)" stroke-width="1" opacity="1" d="M 13.5 71 L 14 72.5 L 13 72.5 L 13.5 71 Z " /><path fill="rgb(101,101,101)" stroke="rgb(101,101,101)" stroke-width="1" opacity="1" d="M 87.5 71 Q 90 72 88.5 73 Q 86 72 87.5 71 Z " /><path fill="rgb(101,101,101)" stroke="rgb(101,101,101)" stroke-width="1" opacity="1" d="M 117.5 73 L 117.5 74 L 117.5 73 Z " /><path fill="rgb(101,101,101)" stroke="rgb(101,101,101)" stroke-width="1" opacity="1" d="M 12.5 75 L 12.5 76 L 12.5 75 Z " /><path fill="rgb(101,101,101)" stroke="rgb(101,101,101)" stroke-width="1" opacity="1" d="M 89.5 75 L 89.5 76 L 89.5 75 Z " /><path fill="rgb(101,101,101)" stroke="rgb(101,101,101)" stroke-width="1" opacity="1" d="M 118.5 76 L 119 77.5 L 118 77.5 L 118.5 76 Z " /><path fill="rgb(101,101,101)" stroke="rgb(101,101,101)" stroke-width="1" opacity="1" d="M 11.5 78 L 11.5 79 L 11.5 78 Z " /><path fill="rgb(101,101,101)" stroke="rgb(101,101,101)" stroke-width="1" opacity="1" d="M 90.5 79 L 91 83.5 L 90 83.5 L 90.5 79 Z " /><path fill="rgb(101,101,101)" stroke="rgb(101,101,101)" stroke-width="1" opacity="1" d="M 119.5 81 L 121 84.5 L 120 84.5 Q 118.29 82.96 119.5 81 Z " /><path fill="rgb(101,101,101)" stroke="rgb(101,101,101)" stroke-width="1" opacity="1" d="M 9.5 83 L 10 84.5 L 9 84.5 L 9.5 83 Z " /><path fill="rgb(101,101,101)" stroke="rgb(101,101,101)" stroke-width="1" opacity="1" d="M 89.5 86 L 90 87.5 L 89 87.5 L 89.5 86 Z " /><path fill="rgb(101,101,101)" stroke="rgb(101,101,101)" stroke-width="1" opacity="1" d="M 8.5 87 L 9 88.5 L 7.5 91 L 7 89.5 L 8.5 87 Z " /><path fill="rgb(101,101,101)" stroke="rgb(101,101,101)" stroke-width="1" opacity="1" d="M 121.5 88 L 121.5 89 L 121.5 88 Z " /><path fill="rgb(101,101,101)" stroke="rgb(101,101,101)" stroke-width="1" opacity="1" d="M 88.5 90 Q 90 91 87.5 92 Q 86 91 88.5 90 Z " /><path fill="rgb(101,101,101)" stroke="rgb(101,101,101)" stroke-width="1" opacity="1" d="M 122.5 91 L 122.5 92 L 122.5 91 Z " /><path fill="rgb(101,101,101)" stroke="rgb(101,101,101)" stroke-width="1" opacity="1" d="M 6.5 93 L 7 94.5 L 6 94.5 L 6.5 93 Z " /><path fill="rgb(101,101,101)" stroke="rgb(101,101,101)" stroke-width="1" opacity="1" d="M 86.5 93 L 86.5 94 L 86.5 93 Z " /><path fill="rgb(101,101,101)" stroke="rgb(101,101,101)" stroke-width="1" opacity="1" d="M 84.5 95 L 84.5 96 L 84.5 95 Z " /><path fill="rgb(101,101,101)" stroke="rgb(101,101,101)" stroke-width="1" opacity="1" d="M 123.5 95 L 123.5 96 L 123.5 95 Z " /><path fill="rgb(101,101,101)" stroke="rgb(101,101,101)" stroke-width="1" opacity="1" d="M 82.5 96 L 82.5 97 L 82.5 96 Z " /><path fill="rgb(101,101,101)" stroke="rgb(101,101,101)" stroke-width="1" opacity="1" d="M 77.5 98 L 79 98.5 L 77.5 99 L 77.5 98 Z " /><path fill="rgb(101,101,101)" stroke="rgb(101,101,101)" stroke-width="1" opacity="1" d="M 124.5 98 L 124.5 99 L 124.5 98 Z " /><path fill="rgb(101,101,101)" stroke="rgb(101,101,101)" stroke-width="1" opacity="1" d="M 4.5 100 L 4.5 101 L 4.5 100 Z " /><path fill="rgb(101,101,101)" stroke="rgb(101,101,101)" stroke-width="1" opacity="1" d="M 125.5 101 L 126 102.5 L 125 102.5 L 125.5 101 Z " /><path fill="rgb(101,101,101)" stroke="rgb(101,101,101)" stroke-width="1" opacity="1" d="M 126.5 104 L 126.5 105 L 126.5 104 Z " /><path fill="rgb(101,101,101)" stroke="rgb(101,101,101)" stroke-width="1" opacity="1" d="M 2.5 105 L 3.5 106 L 41 106.5 L 3.5 107 Q 1 106 2.5 105 Z " /><path fill="rgb(101,101,101)" stroke="rgb(101,101,101)" stroke-width="1" opacity="1" d="M 90.5 106 L 127 106.5 L 90.5 107 L 90.5 106 Z " /></svg>