<svg width="16" height="16" version="1.1" xmlns="http://www.w3.org/2000/svg" desc="Created with imagetracer.js version 1.2.6" ><path fill="rgb(255,255,255)" stroke="rgb(255,255,255)" stroke-width="1" opacity="0" d="M 0 0 L 16 0 L 16 16 L 13 16 L 13 14.5 Q 16.2 12.2 15 5.5 Q 13 4.5 15 3.5 L 14.5 2 L 8.5 2 L 6.5 1 L 0.5 4 L 0 0 Z " /><path fill="rgb(255,255,255)" stroke="rgb(255,255,255)" stroke-width="1" opacity="0" d="M 0 5 L 2 5 L 2 10.5 L 5 15.5 L 0 16 L 0 5 Z " /><path fill="rgb(0,0,0)" stroke="rgb(0,0,0)" stroke-width="1" opacity="0.06274509803921569" d="M 3.5 12 L 3.5 13 L 3.5 12 Z " /><path fill="rgb(0,0,0)" stroke="rgb(0,0,0)" stroke-width="1" opacity="0.4196078431372549" d="M 6.5 1 Q 8 2 5.5 3 L 4 2.5 L 6.5 1 Z " /><path fill="rgb(0,0,0)" stroke="rgb(0,0,0)" stroke-width="1" opacity="0.4196078431372549" d="M 9.5 2 L 9.5 3 L 9.5 2 Z " /><path fill="rgb(0,0,0)" stroke="rgb(0,0,0)" stroke-width="1" opacity="0.4196078431372549" d="M 14.5 2 L 14.5 3 L 14.5 2 Z " /><path fill="rgb(153,155,158)" stroke="rgb(153,155,158)" stroke-width="1" opacity="0.996078431372549" d="M 7.5 2 Q 9 3 6.5 4 Q 5 3 7.5 2 Z " /><path fill="rgb(153,155,158)" stroke="rgb(153,155,158)" stroke-width="1" opacity="0.996078431372549" d="M 3.5 3 L 3.5 4 L 3.5 3 Z " /><path fill="rgb(153,155,158)" stroke="rgb(153,155,158)" stroke-width="1" opacity="0.996078431372549" d="M 13.5 3 L 13.5 4 L 13.5 3 Z " /><path fill="rgb(65,54,54)" stroke="rgb(65,54,54)" stroke-width="1" opacity="0.5607843137254902" d="M 8.5 2 L 8.5 3 L 8.5 2 Z " /><path fill="rgb(65,54,54)" stroke="rgb(65,54,54)" stroke-width="1" opacity="0.5607843137254902" d="M 14.5 5 L 14.5 6 L 14.5 5 Z " /><path fill="rgb(65,54,54)" stroke="rgb(65,54,54)" stroke-width="1" opacity="0.5607843137254902" d="M 13.5 13 L 13.5 14 L 13.5 13 Z " /><path fill="rgb(114,115,117)" stroke="rgb(114,115,117)" stroke-width="1" opacity="0.9529411764705882" d="M 10.5 2 L 10.5 3 L 10.5 2 Z " /><path fill="rgb(114,115,117)" stroke="rgb(114,115,117)" stroke-width="1" opacity="0.9529411764705882" d="M 2.5 3 Q 5 4 3.5 5 Q 0.71 5.67 2.5 3 Z " /><path fill="rgb(222,214,214)" stroke="rgb(222,214,214)" stroke-width="1" opacity="1" d="M 4.5 3 L 4.5 4 L 4.5 3 Z " /><path fill="rgb(222,214,214)" stroke="rgb(222,214,214)" stroke-width="1" opacity="1" d="M 10.5 3 L 10.5 4 L 10.5 3 Z " /><path fill="rgb(222,214,214)" stroke="rgb(222,214,214)" stroke-width="1" opacity="1" d="M 11.5 5 L 11.5 6 L 11.5 5 Z " /><path fill="rgb(179,181,183)" stroke="rgb(179,181,183)" stroke-width="1" opacity="1" d="M 5.5 3 L 5.5 4 L 5.5 3 Z " /><path fill="rgb(179,181,183)" stroke="rgb(179,181,183)" stroke-width="1" opacity="1" d="M 9.5 3 L 9.5 4 L 9.5 3 Z " /><path fill="rgb(179,181,183)" stroke="rgb(179,181,183)" stroke-width="1" opacity="1" d="M 11.5 3 L 13 3.5 L 11.5 4 L 11.5 3 Z " /><path fill="rgb(58,51,51)" stroke="rgb(58,51,51)" stroke-width="1" opacity="0.9490196078431372" d="M 7.5 3 L 10 4.5 L 8.5 5 L 7.5 4 L 6 4.5 L 7.5 3 Z " /><path fill="rgb(58,51,51)" stroke="rgb(58,51,51)" stroke-width="1" opacity="0.9490196078431372" d="M 14.5 3 L 14.5 4 L 14.5 3 Z " /><path fill="rgb(58,51,51)" stroke="rgb(58,51,51)" stroke-width="1" opacity="0.9490196078431372" d="M 4.5 4 L 4.5 5 L 4.5 4 Z " /><path fill="rgb(0,0,0)" stroke="rgb(0,0,0)" stroke-width="1" opacity="0.12156862745098039" d="M 3.5 2 L 3.5 3 L 3.5 2 Z " /><path fill="rgb(0,0,0)" stroke="rgb(0,0,0)" stroke-width="1" opacity="0.12156862745098039" d="M 6.5 2 L 6.5 3 L 6.5 2 Z " /><path fill="rgb(0,0,0)" stroke="rgb(0,0,0)" stroke-width="1" opacity="0.12156862745098039" d="M 0.5 4 L 0.5 5 L 0.5 4 Z " /><path fill="rgb(0,0,0)" stroke="rgb(0,0,0)" stroke-width="1" opacity="0.7372549019607844" d="M 13.5 2 L 13.5 3 L 13.5 2 Z " /><path fill="rgb(0,0,0)" stroke="rgb(0,0,0)" stroke-width="1" opacity="0.7372549019607844" d="M 1.5 4 L 1.5 5 L 1.5 4 Z " /><path fill="rgb(86,86,88)" stroke="rgb(86,86,88)" stroke-width="1" opacity="0.8980392156862745" d="M 7.5 1 L 7.5 2 L 7.5 1 Z " /><path fill="rgb(86,86,88)" stroke="rgb(86,86,88)" stroke-width="1" opacity="0.8980392156862745" d="M 11.5 2 L 13 2.5 L 11.5 3 L 11.5 2 Z " /><path fill="rgb(9,8,8)" stroke="rgb(9,8,8)" stroke-width="1" opacity="0.9529411764705882" d="M 8.5 3 L 8.5 4 L 8.5 3 Z " /><path fill="rgb(9,8,8)" stroke="rgb(9,8,8)" stroke-width="1" opacity="0.9529411764705882" d="M 5.5 4 L 5.5 5 L 5.5 4 Z " /><path fill="rgb(0,0,0)" stroke="rgb(0,0,0)" stroke-width="1" opacity="1" d="M 7.5 4 L 7.5 5 L 7.5 4 Z " /><path fill="rgb(139,18,39)" stroke="rgb(139,18,39)" stroke-width="1" opacity="0.9921568627450981" d="M 9.5 5 L 9.5 6 L 9.5 5 Z " /><path fill="rgb(139,18,39)" stroke="rgb(139,18,39)" stroke-width="1" opacity="0.9921568627450981" d="M 3.5 10 L 3.5 11 L 3.5 10 Z " /><path fill="rgb(139,18,39)" stroke="rgb(139,18,39)" stroke-width="1" opacity="0.9921568627450981" d="M 9.5 15 L 11 15.5 L 9.5 16 L 9.5 15 Z " /><path fill="rgb(4,0,1)" stroke="rgb(4,0,1)" stroke-width="1" opacity="1" d="M 8.5 5 L 8.5 6 L 8.5 5 Z " /><path fill="rgb(243,122,119)" stroke="rgb(243,122,119)" stroke-width="1" opacity="1" d="M 10.5 5 L 10.5 6 L 10.5 5 Z " /><path fill="rgb(243,122,119)" stroke="rgb(243,122,119)" stroke-width="1" opacity="1" d="M 4.5 6 L 4.5 7 L 4.5 6 Z " /><path fill="rgb(243,122,119)" stroke="rgb(243,122,119)" stroke-width="1" opacity="1" d="M 13.5 7 L 13.5 8 L 13.5 7 Z " /><path fill="rgb(249,182,173)" stroke="rgb(249,182,173)" stroke-width="1" opacity="1" d="M 12.5 5 Q 15 6 13.5 7 Q 10.71 7.67 12.5 5 Z " /><path fill="rgb(249,182,173)" stroke="rgb(249,182,173)" stroke-width="1" opacity="1" d="M 4.5 7 L 4.5 8 L 4.5 7 Z " /><path fill="rgb(111,73,71)" stroke="rgb(111,73,71)" stroke-width="1" opacity="0.3333333333333333" d="M 13.5 4 L 13.5 5 L 13.5 4 Z " /><path fill="rgb(111,73,71)" stroke="rgb(111,73,71)" stroke-width="1" opacity="0.3333333333333333" d="M 2.5 5 L 2.5 6 L 2.5 5 Z " /><path fill="rgb(111,73,71)" stroke="rgb(111,73,71)" stroke-width="1" opacity="0.3333333333333333" d="M 2.5 10 L 2.5 11 L 2.5 10 Z " /><path fill="rgb(111,73,71)" stroke="rgb(111,73,71)" stroke-width="1" opacity="0.3333333333333333" d="M 14.5 11 L 14.5 12 L 14.5 11 Z " /><path fill="rgb(111,73,71)" stroke="rgb(111,73,71)" stroke-width="1" opacity="0.3333333333333333" d="M 4.5 14 Q 7 15 5.5 16 Q 3 15 4.5 14 Z " /><path fill="rgb(240,84,94)" stroke="rgb(240,84,94)" stroke-width="1" opacity="1" d="M 3.5 8 L 5 8.5 L 3.5 9 L 3.5 8 Z " /><path fill="rgb(246,157,149)" stroke="rgb(246,157,149)" stroke-width="1" opacity="1" d="M 3.5 7 L 3.5 8 L 3.5 7 Z " /><path fill="rgb(238,46,78)" stroke="rgb(238,46,78)" stroke-width="1" opacity="0.06274509803921569" d="M 12.5 15 L 12.5 16 L 12.5 15 Z " /><path fill="rgb(238,46,78)" stroke="rgb(238,46,78)" stroke-width="1" opacity="1" d="M 5.5 5 L 8.5 7 L 11.5 6 Q 14.5 6.5 14 10.5 L 10.5 15 L 6 15 L 6 13.5 L 4 9.5 L 5.5 5 Z " /><path fill="rgb(238,46,78)" stroke="rgb(238,46,78)" stroke-width="1" opacity="1" d="M 3.5 6 L 3.5 7 L 3.5 6 Z " /><path fill="rgb(126,37,43)" stroke="rgb(126,37,43)" stroke-width="1" opacity="0.9176470588235294" d="M 11.5 4 L 11.5 5 L 11.5 4 Z " /><path fill="rgb(126,37,43)" stroke="rgb(126,37,43)" stroke-width="1" opacity="0.9176470588235294" d="M 14.5 7 L 15 9.5 L 14 9.5 L 14.5 7 Z " /><path fill="rgb(126,37,43)" stroke="rgb(126,37,43)" stroke-width="1" opacity="0.9176470588235294" d="M 2.5 8 L 2.5 9 L 2.5 8 Z " /><path fill="rgb(126,37,43)" stroke="rgb(126,37,43)" stroke-width="1" opacity="0.9176470588235294" d="M 4.5 12 L 4.5 13 L 4.5 12 Z " /><path fill="rgb(126,37,43)" stroke="rgb(126,37,43)" stroke-width="1" opacity="0.9176470588235294" d="M 7.5 15 L 7.5 16 L 7.5 15 Z " /><path fill="rgb(174,26,54)" stroke="rgb(174,26,54)" stroke-width="1" opacity="1" d="M 4.5 5 L 4.5 6 L 4.5 5 Z " /><path fill="rgb(174,26,54)" stroke="rgb(174,26,54)" stroke-width="1" opacity="1" d="M 13.5 5 L 13.5 6 L 13.5 5 Z " /><path fill="rgb(174,26,54)" stroke="rgb(174,26,54)" stroke-width="1" opacity="1" d="M 8.5 6 L 8.5 7 L 8.5 6 Z " /><path fill="rgb(174,26,54)" stroke="rgb(174,26,54)" stroke-width="1" opacity="1" d="M 13.5 11 L 13.5 12 L 13.5 11 Z " /><path fill="rgb(174,26,54)" stroke="rgb(174,26,54)" stroke-width="1" opacity="1" d="M 12.5 13 L 12.5 14 L 12.5 13 Z " /><path fill="rgb(81,55,54)" stroke="rgb(81,55,54)" stroke-width="1" opacity="0.7490196078431373" d="M 1.5 3 L 1.5 4 L 1.5 3 Z " /><path fill="rgb(81,55,54)" stroke="rgb(81,55,54)" stroke-width="1" opacity="0.7490196078431373" d="M 2.5 6 L 2.5 7 L 2.5 6 Z " /><path fill="rgb(111,49,48)" stroke="rgb(111,49,48)" stroke-width="1" opacity="0.7803921568627451" d="M 14.5 6 L 14.5 7 L 14.5 6 Z " /><path fill="rgb(111,49,48)" stroke="rgb(111,49,48)" stroke-width="1" opacity="0.7803921568627451" d="M 2.5 7 L 2.5 8 L 2.5 7 Z " /><path fill="rgb(111,49,48)" stroke="rgb(111,49,48)" stroke-width="1" opacity="0.7803921568627451" d="M 2.5 9 L 2.5 10 L 2.5 9 Z " /><path fill="rgb(111,49,48)" stroke="rgb(111,49,48)" stroke-width="1" opacity="0.7803921568627451" d="M 14.5 10 L 14.5 11 L 14.5 10 Z " /><path fill="rgb(111,49,48)" stroke="rgb(111,49,48)" stroke-width="1" opacity="0.7803921568627451" d="M 3.5 11 L 3.5 12 L 3.5 11 Z " /><path fill="rgb(111,49,48)" stroke="rgb(111,49,48)" stroke-width="1" opacity="0.7803921568627451" d="M 4.5 13 L 4.5 14 L 4.5 13 Z " /><path fill="rgb(111,49,48)" stroke="rgb(111,49,48)" stroke-width="1" opacity="0.7803921568627451" d="M 11.5 15 L 11.5 16 L 11.5 15 Z " /><path fill="rgb(216,44,72)" stroke="rgb(216,44,72)" stroke-width="1" opacity="1" d="M 6.5 5 L 6.5 6 L 6.5 5 Z " /><path fill="rgb(216,44,72)" stroke="rgb(216,44,72)" stroke-width="1" opacity="1" d="M 3.5 9 L 3.5 10 L 3.5 9 Z " /><path fill="rgb(216,44,72)" stroke="rgb(216,44,72)" stroke-width="1" opacity="1" d="M 4.5 11 L 4.5 12 L 4.5 11 Z " /><path fill="rgb(216,44,72)" stroke="rgb(216,44,72)" stroke-width="1" opacity="1" d="M 5.5 13 L 5.5 14 L 5.5 13 Z " /><path fill="rgb(216,44,72)" stroke="rgb(216,44,72)" stroke-width="1" opacity="1" d="M 11.5 14 L 11.5 15 L 11.5 14 Z " /><path fill="rgb(105,11,20)" stroke="rgb(105,11,20)" stroke-width="1" opacity="0.9882352941176471" d="M 7.5 5 L 7.5 6 L 7.5 5 Z " /><path fill="rgb(105,11,20)" stroke="rgb(105,11,20)" stroke-width="1" opacity="0.9882352941176471" d="M 5.5 14 L 5.5 15 L 5.5 14 Z " /><path fill="rgb(96,28,30)" stroke="rgb(96,28,30)" stroke-width="1" opacity="0.9137254901960784" d="M 10.5 4 L 10.5 5 L 10.5 4 Z " /><path fill="rgb(96,28,30)" stroke="rgb(96,28,30)" stroke-width="1" opacity="0.9137254901960784" d="M 12.5 4 L 12.5 5 L 12.5 4 Z " /><path fill="rgb(96,28,30)" stroke="rgb(96,28,30)" stroke-width="1" opacity="0.9137254901960784" d="M 3.5 5 L 3.5 6 L 3.5 5 Z " /><path fill="rgb(96,28,30)" stroke="rgb(96,28,30)" stroke-width="1" opacity="0.9137254901960784" d="M 13.5 12 L 13.5 13 L 13.5 12 Z " /><path fill="rgb(96,28,30)" stroke="rgb(96,28,30)" stroke-width="1" opacity="0.9137254901960784" d="M 12.5 14 L 12.5 15 L 12.5 14 Z " /><path fill="rgb(96,28,30)" stroke="rgb(96,28,30)" stroke-width="1" opacity="0.9137254901960784" d="M 6.5 15 L 6.5 16 L 6.5 15 Z " /><path fill="rgb(96,28,30)" stroke="rgb(96,28,30)" stroke-width="1" opacity="0.9137254901960784" d="M 8.5 15 L 8.5 16 L 8.5 15 Z " /></svg>