<svg width="16" height="16" version="1.1" xmlns="http://www.w3.org/2000/svg" desc="Created with imagetracer.js version 1.2.6" ><path fill="rgb(255,255,255)" stroke="rgb(255,255,255)" stroke-width="1" opacity="1" d="M 0 0 L 10.5 1 L 11.5 0 L 16 0 Q 17 3.37 15 4.5 L 16 6.5 L 15 6.5 L 13 3.5 L 13.5 2 L 11.5 3 Q 10.25 0.75 5.5 2 L 4.5 3 L 3 2.5 L 0.5 7 L 0 0 Z M 5 1 L 5 2 L 5 1 Z M 12 1 L 12 2 L 12 1 Z M 15 3 L 15 4 L 15 3 Z " /><path fill="rgb(255,255,255)" stroke="rgb(255,255,255)" stroke-width="1" opacity="1" d="M 6.5 4 L 6.5 5 L 6.5 4 Z " /><path fill="rgb(255,255,255)" stroke="rgb(255,255,255)" stroke-width="1" opacity="1" d="M 6.5 6 L 6.5 7 L 6.5 6 Z " /><path fill="rgb(255,255,255)" stroke="rgb(255,255,255)" stroke-width="1" opacity="1" d="M 2.5 8 L 2.5 9 L 2.5 8 Z " /><path fill="rgb(255,255,255)" stroke="rgb(255,255,255)" stroke-width="1" opacity="1" d="M 4.5 8 L 4.5 9 L 4.5 8 Z " /><path fill="rgb(255,255,255)" stroke="rgb(255,255,255)" stroke-width="1" opacity="1" d="M 11.5 8 L 11.5 9 L 11.5 8 Z " /><path fill="rgb(255,255,255)" stroke="rgb(255,255,255)" stroke-width="1" opacity="1" d="M 13.5 8 L 13.5 9 L 13.5 8 Z " /><path fill="rgb(255,255,255)" stroke="rgb(255,255,255)" stroke-width="1" opacity="1" d="M 0.5 11 L 16 11.5 L 0.5 12 L 0.5 11 Z " /><path fill="rgb(255,255,255)" stroke="rgb(255,255,255)" stroke-width="1" opacity="1" d="M 0 13 L 15.5 13 Q 16.38 13.04 16 16 L 0.5 16 Q -0.38 15.96 0 13 Z " /><path fill="rgb(254,253,253)" stroke="rgb(254,253,253)" stroke-width="1" opacity="1" d="M 6.5 0 L 10.5 0 L 16 4.5 L 15.5 5 L 13.5 3 L 10.5 1 L 6.5 1 L 6.5 0 Z " /><path fill="rgb(254,253,253)" stroke="rgb(254,253,253)" stroke-width="1" opacity="1" d="M 4.5 1 Q 6 2 3.5 3 Q 2 2 4.5 1 Z " /><path fill="rgb(254,253,253)" stroke="rgb(254,253,253)" stroke-width="1" opacity="1" d="M 0.5 12 L 0.5 13 L 0.5 12 Z " /><path fill="rgb(254,253,253)" stroke="rgb(254,253,253)" stroke-width="1" opacity="1" d="M 15.5 12 L 15.5 13 L 15.5 12 Z " /><path fill="rgb(249,246,247)" stroke="rgb(249,246,247)" stroke-width="1" opacity="1" d="M 5.5 2 L 5.5 3 L 5.5 2 Z " /><path fill="rgb(249,246,247)" stroke="rgb(249,246,247)" stroke-width="1" opacity="1" d="M 3.5 3 L 3.5 4 L 3.5 3 Z " /><path fill="rgb(249,246,247)" stroke="rgb(249,246,247)" stroke-width="1" opacity="1" d="M 1.5 5 L 1.5 6 L 1.5 5 Z " /><path fill="rgb(207,181,179)" stroke="rgb(207,181,179)" stroke-width="1" opacity="1" d="M 7.5 2 L 7.5 3 L 7.5 2 Z " /><path fill="rgb(207,181,179)" stroke="rgb(207,181,179)" stroke-width="1" opacity="1" d="M 1.5 8 L 1.5 9 L 1.5 8 Z " /><path fill="rgb(209,193,181)" stroke="rgb(209,193,181)" stroke-width="1" opacity="1" d="M 8.5 2 L 8.5 3 L 8.5 2 Z " /><path fill="rgb(209,193,181)" stroke="rgb(209,193,181)" stroke-width="1" opacity="1" d="M 4.5 4 L 4.5 5 L 4.5 4 Z " /><path fill="rgb(209,193,181)" stroke="rgb(209,193,181)" stroke-width="1" opacity="1" d="M 11.5 4 L 11.5 5 L 11.5 4 Z " /><path fill="rgb(209,193,181)" stroke="rgb(209,193,181)" stroke-width="1" opacity="1" d="M 2.5 6 L 4 6.5 L 2.5 7 L 2.5 6 Z " /><path fill="rgb(209,193,181)" stroke="rgb(209,193,181)" stroke-width="1" opacity="1" d="M 0.5 10 L 0.5 11 L 0.5 10 Z " /><path fill="rgb(240,234,236)" stroke="rgb(240,234,236)" stroke-width="1" opacity="1" d="M 2.5 4 L 2.5 5 L 2.5 4 Z " /><path fill="rgb(240,234,236)" stroke="rgb(240,234,236)" stroke-width="1" opacity="1" d="M 14.5 5 L 14.5 6 L 14.5 5 Z " /><path fill="rgb(240,234,236)" stroke="rgb(240,234,236)" stroke-width="1" opacity="1" d="M 0.5 7 L 0.5 8 L 0.5 7 Z " /><path fill="rgb(162,130,121)" stroke="rgb(162,130,121)" stroke-width="1" opacity="1" d="M 10.5 3 L 10.5 4 L 10.5 3 Z " /><path fill="rgb(162,130,121)" stroke="rgb(162,130,121)" stroke-width="1" opacity="1" d="M 14.5 6 L 14.5 7 L 14.5 6 Z " /><path fill="rgb(162,130,121)" stroke="rgb(162,130,121)" stroke-width="1" opacity="1" d="M 1.5 7 L 1.5 8 L 1.5 7 Z " /><path fill="rgb(245,238,239)" stroke="rgb(245,238,239)" stroke-width="1" opacity="1" d="M 10.5 2 L 10.5 3 L 10.5 2 Z " /><path fill="rgb(245,238,239)" stroke="rgb(245,238,239)" stroke-width="1" opacity="1" d="M 12.5 3 L 12.5 4 L 12.5 3 Z " /><path fill="rgb(176,137,131)" stroke="rgb(176,137,131)" stroke-width="1" opacity="1" d="M 5.5 3 L 5.5 4 L 5.5 3 Z " /><path fill="rgb(176,137,131)" stroke="rgb(176,137,131)" stroke-width="1" opacity="1" d="M 3.5 4 L 3.5 5 L 3.5 4 Z " /><path fill="rgb(176,137,131)" stroke="rgb(176,137,131)" stroke-width="1" opacity="1" d="M 11.5 7 Q 13 8 10.5 9 Q 9 8 11.5 7 Z " /><path fill="rgb(176,137,131)" stroke="rgb(176,137,131)" stroke-width="1" opacity="1" d="M 2.5 9 L 2.5 10 L 2.5 9 Z " /><path fill="rgb(252,246,224)" stroke="rgb(252,246,224)" stroke-width="1" opacity="1" d="M 5.5 4 L 5.5 5 L 5.5 4 Z " /><path fill="rgb(252,246,224)" stroke="rgb(252,246,224)" stroke-width="1" opacity="1" d="M 6.5 7 L 6.5 8 L 6.5 7 Z " /><path fill="rgb(140,113,103)" stroke="rgb(140,113,103)" stroke-width="1" opacity="1" d="M 7.5 4 L 7.5 5 L 7.5 4 Z " /><path fill="rgb(140,113,103)" stroke="rgb(140,113,103)" stroke-width="1" opacity="1" d="M 7.5 7 L 7.5 8 L 7.5 7 Z " /><path fill="rgb(140,102,93)" stroke="rgb(140,102,93)" stroke-width="1" opacity="1" d="M 7.5 5 L 8 6.5 L 7 6.5 L 7.5 5 Z " /><path fill="rgb(140,102,93)" stroke="rgb(140,102,93)" stroke-width="1" opacity="1" d="M 6.5 8 L 8 8.5 L 6.5 9 L 6.5 8 Z " /><path fill="rgb(137,65,68)" stroke="rgb(137,65,68)" stroke-width="1" opacity="1" d="M 8.5 4 L 9 7.5 L 8 7.5 L 8.5 4 Z " /><path fill="rgb(253,253,231)" stroke="rgb(253,253,231)" stroke-width="1" opacity="1" d="M 10.5 4 L 11 7 Q 8.33 8.13 9 5.5 L 10.5 4 Z " /><path fill="rgb(253,253,231)" stroke="rgb(253,253,231)" stroke-width="1" opacity="1" d="M 6.5 5 L 6.5 6 L 6.5 5 Z " /><path fill="rgb(253,253,231)" stroke="rgb(253,253,231)" stroke-width="1" opacity="1" d="M 2.5 7 L 2.5 8 L 2.5 7 Z " /><path fill="rgb(141,83,80)" stroke="rgb(141,83,80)" stroke-width="1" opacity="1" d="M 11.5 6 L 11.5 7 L 11.5 6 Z " /><path fill="rgb(141,83,80)" stroke="rgb(141,83,80)" stroke-width="1" opacity="1" d="M 9.5 9 L 9.5 10 L 9.5 9 Z " /><path fill="rgb(232,222,205)" stroke="rgb(232,222,205)" stroke-width="1" opacity="1" d="M 4.5 5 Q 7 6 5.5 7 Q 3 6 4.5 5 Z " /><path fill="rgb(232,222,205)" stroke="rgb(232,222,205)" stroke-width="1" opacity="1" d="M 13.5 6 L 13.5 7 L 13.5 6 Z " /><path fill="rgb(179,150,146)" stroke="rgb(179,150,146)" stroke-width="1" opacity="1" d="M 11.5 3 L 11.5 4 L 11.5 3 Z " /><path fill="rgb(179,150,146)" stroke="rgb(179,150,146)" stroke-width="1" opacity="1" d="M 1.5 6 L 1.5 7 L 1.5 6 Z " /><path fill="rgb(179,150,146)" stroke="rgb(179,150,146)" stroke-width="1" opacity="1" d="M 15.5 8 L 15.5 9 L 15.5 8 Z " /><path fill="rgb(217,204,199)" stroke="rgb(217,204,199)" stroke-width="1" opacity="1" d="M 6.5 2 L 6.5 3 L 6.5 2 Z " /><path fill="rgb(217,204,199)" stroke="rgb(217,204,199)" stroke-width="1" opacity="1" d="M 9.5 2 L 9.5 3 L 9.5 2 Z " /><path fill="rgb(217,204,199)" stroke="rgb(217,204,199)" stroke-width="1" opacity="1" d="M 13.5 4 L 13.5 5 L 13.5 4 Z " /><path fill="rgb(217,204,199)" stroke="rgb(217,204,199)" stroke-width="1" opacity="1" d="M 15.5 7 Q 17 8 14.5 9 Q 13 8 15.5 7 Z " /><path fill="rgb(255,255,245)" stroke="rgb(255,255,245)" stroke-width="1" opacity="1" d="M 9.5 4 L 9.5 5 L 9.5 4 Z " /><path fill="rgb(255,255,245)" stroke="rgb(255,255,245)" stroke-width="1" opacity="1" d="M 3.5 8 L 3.5 9 L 3.5 8 Z " /><path fill="rgb(255,255,245)" stroke="rgb(255,255,245)" stroke-width="1" opacity="1" d="M 12.5 8 L 12.5 9 L 12.5 8 Z " /><path fill="rgb(117,64,56)" stroke="rgb(117,64,56)" stroke-width="1" opacity="1" d="M 3.5 5 L 6 7.5 L 5.5 8 L 3 5.5 L 3.5 5 Z " /><path fill="rgb(117,64,56)" stroke="rgb(117,64,56)" stroke-width="1" opacity="1" d="M 6.5 9 L 6.5 10 L 6.5 9 Z " /><path fill="rgb(156,117,110)" stroke="rgb(156,117,110)" stroke-width="1" opacity="1" d="M 12.5 4 L 12.5 5 L 12.5 4 Z " /><path fill="rgb(156,117,110)" stroke="rgb(156,117,110)" stroke-width="1" opacity="1" d="M 2.5 5 L 2.5 6 L 2.5 5 Z " /><path fill="rgb(156,117,110)" stroke="rgb(156,117,110)" stroke-width="1" opacity="1" d="M 14.5 9 L 14.5 10 L 14.5 9 Z " /><path fill="rgb(140,92,85)" stroke="rgb(140,92,85)" stroke-width="1" opacity="1" d="M 12.5 5 L 14 5.5 L 12.5 6 L 12.5 5 Z " /><path fill="rgb(140,92,85)" stroke="rgb(140,92,85)" stroke-width="1" opacity="1" d="M 10.5 7 L 10.5 8 L 10.5 7 Z " /><path fill="rgb(255,255,241)" stroke="rgb(255,255,241)" stroke-width="1" opacity="1" d="M 5.5 5 L 5.5 6 L 5.5 5 Z " /><path fill="rgb(255,255,241)" stroke="rgb(255,255,241)" stroke-width="1" opacity="1" d="M 11.5 5 L 11.5 6 L 11.5 5 Z " /><path fill="rgb(255,255,241)" stroke="rgb(255,255,241)" stroke-width="1" opacity="1" d="M 3.5 7 L 3.5 8 L 3.5 7 Z " /><path fill="rgb(255,255,241)" stroke="rgb(255,255,241)" stroke-width="1" opacity="1" d="M 9.5 7 L 9.5 8 L 9.5 7 Z " /><path fill="rgb(255,255,241)" stroke="rgb(255,255,241)" stroke-width="1" opacity="1" d="M 12.5 7 L 14 7.5 L 12.5 8 L 12.5 7 Z " /><path fill="rgb(166,140,139)" stroke="rgb(166,140,139)" stroke-width="1" opacity="1" d="M 14.5 7 L 14.5 8 L 14.5 7 Z " /><path fill="rgb(166,140,139)" stroke="rgb(166,140,139)" stroke-width="1" opacity="1" d="M 6.5 10 L 10 10.5 L 6.5 11 L 6.5 10 Z " /><path fill="rgb(192,174,166)" stroke="rgb(192,174,166)" stroke-width="1" opacity="1" d="M 4.5 3 L 4.5 4 L 4.5 3 Z " /><path fill="rgb(192,174,166)" stroke="rgb(192,174,166)" stroke-width="1" opacity="1" d="M 12.5 6 L 12.5 7 L 12.5 6 Z " /><path fill="rgb(192,174,166)" stroke="rgb(192,174,166)" stroke-width="1" opacity="1" d="M 4.5 7 Q 7 8 5.5 9 Q 3 8 4.5 7 Z " /><path fill="rgb(192,174,166)" stroke="rgb(192,174,166)" stroke-width="1" opacity="1" d="M 0.5 8 L 0.5 9 L 0.5 8 Z " /><path fill="rgb(192,174,166)" stroke="rgb(192,174,166)" stroke-width="1" opacity="1" d="M 15.5 10 L 15.5 11 L 15.5 10 Z " /><path fill="rgb(157,128,131)" stroke="rgb(157,128,131)" stroke-width="1" opacity="1" d="M 0.5 9 L 1.5 10 L 6 10.5 L 1.5 11 Q -1 10 0.5 9 Z " /><path fill="rgb(157,128,131)" stroke="rgb(157,128,131)" stroke-width="1" opacity="1" d="M 10.5 10 L 15 10.5 L 10.5 11 L 10.5 10 Z " /><path fill="rgb(156,101,95)" stroke="rgb(156,101,95)" stroke-width="1" opacity="1" d="M 8.5 8 L 8.5 9 L 8.5 8 Z " /><path fill="rgb(156,101,95)" stroke="rgb(156,101,95)" stroke-width="1" opacity="1" d="M 1.5 9 L 1.5 10 L 1.5 9 Z " /><path fill="rgb(156,101,95)" stroke="rgb(156,101,95)" stroke-width="1" opacity="1" d="M 15.5 9 L 15.5 10 L 15.5 9 Z " /><path fill="rgb(176,134,124)" stroke="rgb(176,134,124)" stroke-width="1" opacity="1" d="M 9.5 8 L 9.5 9 L 9.5 8 Z " /><path fill="rgb(176,134,124)" stroke="rgb(176,134,124)" stroke-width="1" opacity="1" d="M 3.5 9 L 5 9.5 L 3.5 10 L 3.5 9 Z " /><path fill="rgb(176,134,124)" stroke="rgb(176,134,124)" stroke-width="1" opacity="1" d="M 11.5 9 L 14 9.5 L 11.5 10 L 11.5 9 Z " /><path fill="rgb(186,163,146)" stroke="rgb(186,163,146)" stroke-width="1" opacity="1" d="M 6.5 3 L 6.5 4 L 6.5 3 Z " /><path fill="rgb(186,163,146)" stroke="rgb(186,163,146)" stroke-width="1" opacity="1" d="M 9.5 3 L 9.5 4 L 9.5 3 Z " /><path fill="rgb(101,10,19)" stroke="rgb(101,10,19)" stroke-width="1" opacity="1" d="M 7.5 9 L 7.5 10 L 7.5 9 Z " /><path fill="rgb(119,44,47)" stroke="rgb(119,44,47)" stroke-width="1" opacity="1" d="M 7.5 3 L 9 3.5 L 7.5 4 L 7.5 3 Z " /><path fill="rgb(119,44,47)" stroke="rgb(119,44,47)" stroke-width="1" opacity="1" d="M 8.5 9 L 8.5 10 L 8.5 9 Z " /><path fill="rgb(187,150,137)" stroke="rgb(187,150,137)" stroke-width="1" opacity="1" d="M 5.5 9 L 5.5 10 L 5.5 9 Z " /><path fill="rgb(187,150,137)" stroke="rgb(187,150,137)" stroke-width="1" opacity="1" d="M 10.5 9 L 10.5 10 L 10.5 9 Z " /><path fill="rgb(252,251,251)" stroke="rgb(252,251,251)" stroke-width="1" opacity="1" d="M 1.5 12 L 15 12.5 L 1.5 13 L 1.5 12 Z " /></svg>