<svg width="128" height="128" version="1.1" xmlns="http://www.w3.org/2000/svg" desc="Created with imagetracer.js version 1.2.6" ><path fill="rgb(218,219,233)" stroke="rgb(218,219,233)" stroke-width="1" opacity="1" d="M 75.5 17 L 75.5 18 L 75.5 17 Z " /><path fill="rgb(218,219,233)" stroke="rgb(218,219,233)" stroke-width="1" opacity="1" d="M 23.5 18 L 23.5 19 L 23.5 18 Z " /><path fill="rgb(218,219,233)" stroke="rgb(218,219,233)" stroke-width="1" opacity="1" d="M 81.5 19 Q 84 20 82.5 21 Q 80 20 81.5 19 Z " /><path fill="rgb(218,219,233)" stroke="rgb(218,219,233)" stroke-width="1" opacity="1" d="M 22.5 20 L 22.5 21 L 22.5 20 Z " /><path fill="rgb(218,219,233)" stroke="rgb(218,219,233)" stroke-width="1" opacity="1" d="M 21.5 22 L 21.5 23 L 21.5 22 Z " /><path fill="rgb(218,219,233)" stroke="rgb(218,219,233)" stroke-width="1" opacity="1" d="M 85.5 24 L 85.5 25 L 85.5 24 Z " /><path fill="rgb(218,219,233)" stroke="rgb(218,219,233)" stroke-width="1" opacity="1" d="M 20.5 25 L 21 26.5 L 19.5 29 L 19 27.5 L 20.5 25 Z " /><path fill="rgb(218,219,233)" stroke="rgb(218,219,233)" stroke-width="1" opacity="1" d="M 86.5 26 L 86.5 27 L 86.5 26 Z " /><path fill="rgb(218,219,233)" stroke="rgb(218,219,233)" stroke-width="1" opacity="1" d="M 87.5 29 L 88 32.5 L 87 32.5 L 87.5 29 Z " /><path fill="rgb(218,219,233)" stroke="rgb(218,219,233)" stroke-width="1" opacity="1" d="M 19.5 31 L 19.5 32 L 19.5 31 Z " /><path fill="rgb(218,219,233)" stroke="rgb(218,219,233)" stroke-width="1" opacity="1" d="M 48.5 31 L 55 31.5 L 48.5 32 L 48.5 31 Z " /><path fill="rgb(218,219,233)" stroke="rgb(218,219,233)" stroke-width="1" opacity="1" d="M 57.5 32 Q 60 33 58.5 34 Q 56 33 57.5 32 Z " /><path fill="rgb(218,219,233)" stroke="rgb(218,219,233)" stroke-width="1" opacity="1" d="M 24.5 33 L 24.5 34 L 24.5 33 Z " /><path fill="rgb(218,219,233)" stroke="rgb(218,219,233)" stroke-width="1" opacity="1" d="M 47.5 33 L 47.5 34 L 47.5 33 Z " /><path fill="rgb(218,219,233)" stroke="rgb(218,219,233)" stroke-width="1" opacity="1" d="M 23.5 35 L 23.5 36 L 23.5 35 Z " /><path fill="rgb(218,219,233)" stroke="rgb(218,219,233)" stroke-width="1" opacity="1" d="M 58.5 35 L 58.5 36 L 58.5 35 Z " /><path fill="rgb(218,219,233)" stroke="rgb(218,219,233)" stroke-width="1" opacity="1" d="M 86.5 35 L 87 36.5 L 86 36.5 L 86.5 35 Z " /><path fill="rgb(218,219,233)" stroke="rgb(218,219,233)" stroke-width="1" opacity="1" d="M 46.5 36 L 46.5 37 L 46.5 36 Z " /><path fill="rgb(218,219,233)" stroke="rgb(218,219,233)" stroke-width="1" opacity="1" d="M 57.5 37 L 58 37.5 L 55.5 40 L 55 39.5 L 57.5 37 Z " /><path fill="rgb(218,219,233)" stroke="rgb(218,219,233)" stroke-width="1" opacity="1" d="M 22.5 38 L 22.5 39 L 22.5 38 Z " /><path fill="rgb(218,219,233)" stroke="rgb(218,219,233)" stroke-width="1" opacity="1" d="M 45.5 38 L 45.5 39 L 45.5 38 Z " /><path fill="rgb(218,219,233)" stroke="rgb(218,219,233)" stroke-width="1" opacity="1" d="M 85.5 38 L 85.5 39 L 85.5 38 Z " /><path fill="rgb(218,219,233)" stroke="rgb(218,219,233)" stroke-width="1" opacity="1" d="M 46.5 40 L 53 40.5 L 46.5 41 L 46.5 40 Z " /><path fill="rgb(218,219,233)" stroke="rgb(218,219,233)" stroke-width="1" opacity="1" d="M 84.5 40 L 84.5 41 L 84.5 40 Z " /><path fill="rgb(218,219,233)" stroke="rgb(218,219,233)" stroke-width="1" opacity="1" d="M 21.5 41 L 21.5 42 L 21.5 41 Z " /><path fill="rgb(218,219,233)" stroke="rgb(218,219,233)" stroke-width="1" opacity="1" d="M 83.5 42 L 84 42.5 L 81.5 45 L 81 44.5 L 83.5 42 Z " /><path fill="rgb(218,219,233)" stroke="rgb(218,219,233)" stroke-width="1" opacity="1" d="M 20.5 44 L 20.5 45 L 20.5 44 Z " /><path fill="rgb(218,219,233)" stroke="rgb(218,219,233)" stroke-width="1" opacity="1" d="M 78.5 45 L 78.5 46 L 78.5 45 Z " /><path fill="rgb(218,219,233)" stroke="rgb(218,219,233)" stroke-width="1" opacity="1" d="M 19.5 46 L 20 47.5 L 19 47.5 L 19.5 46 Z " /><path fill="rgb(218,219,233)" stroke="rgb(218,219,233)" stroke-width="1" opacity="1" d="M 76.5 47 Q 79 48 77.5 49 Q 75 48 76.5 47 Z " /><path fill="rgb(218,219,233)" stroke="rgb(218,219,233)" stroke-width="1" opacity="1" d="M 105.5 49 L 105.5 50 L 105.5 49 Z " /><path fill="rgb(218,219,233)" stroke="rgb(218,219,233)" stroke-width="1" opacity="1" d="M 108.5 50 L 108.5 51 L 108.5 50 Z " /><path fill="rgb(218,219,233)" stroke="rgb(218,219,233)" stroke-width="1" opacity="1" d="M 18.5 51 L 18.5 52 L 18.5 51 Z " /><path fill="rgb(218,219,233)" stroke="rgb(218,219,233)" stroke-width="1" opacity="1" d="M 42.5 51 L 50 51.5 L 42.5 52 L 42.5 51 Z " /><path fill="rgb(218,219,233)" stroke="rgb(218,219,233)" stroke-width="1" opacity="1" d="M 111.5 51 L 111.5 52 L 111.5 51 Z " /><path fill="rgb(218,219,233)" stroke="rgb(218,219,233)" stroke-width="1" opacity="1" d="M 51.5 52 Q 53.5 52.5 53 55.5 L 51.5 58 L 51 56.5 L 52 53.5 L 51.5 52 Z " /><path fill="rgb(218,219,233)" stroke="rgb(218,219,233)" stroke-width="1" opacity="1" d="M 113.5 52 L 113.5 53 L 113.5 52 Z " /><path fill="rgb(218,219,233)" stroke="rgb(218,219,233)" stroke-width="1" opacity="1" d="M 17.5 54 L 17.5 55 L 17.5 54 Z " /><path fill="rgb(218,219,233)" stroke="rgb(218,219,233)" stroke-width="1" opacity="1" d="M 41.5 54 L 41.5 55 L 41.5 54 Z " /><path fill="rgb(218,219,233)" stroke="rgb(218,219,233)" stroke-width="1" opacity="1" d="M 115.5 54 Q 118 55 116.5 56 Q 114 55 115.5 54 Z " /><path fill="rgb(218,219,233)" stroke="rgb(218,219,233)" stroke-width="1" opacity="1" d="M 16.5 57 L 16.5 58 L 16.5 57 Z " /><path fill="rgb(218,219,233)" stroke="rgb(218,219,233)" stroke-width="1" opacity="1" d="M 40.5 57 L 40.5 58 L 40.5 57 Z " /><path fill="rgb(218,219,233)" stroke="rgb(218,219,233)" stroke-width="1" opacity="1" d="M 117.5 58 L 117.5 59 L 117.5 58 Z " /><path fill="rgb(218,219,233)" stroke="rgb(218,219,233)" stroke-width="1" opacity="1" d="M 15.5 59 L 15.5 60 L 15.5 59 Z " /><path fill="rgb(218,219,233)" stroke="rgb(218,219,233)" stroke-width="1" opacity="1" d="M 39.5 59 L 40.5 60 L 46 60.5 L 40.5 61 Q 38 60 39.5 59 Z " /><path fill="rgb(218,219,233)" stroke="rgb(218,219,233)" stroke-width="1" opacity="1" d="M 48.5 59 L 50 59.5 L 48.5 60 L 48.5 59 Z " /><path fill="rgb(218,219,233)" stroke="rgb(218,219,233)" stroke-width="1" opacity="1" d="M 14.5 61 L 15 62.5 L 14 62.5 L 14.5 61 Z " /><path fill="rgb(218,219,233)" stroke="rgb(218,219,233)" stroke-width="1" opacity="1" d="M 80.5 62 L 89 62.5 L 80.5 63 L 80.5 62 Z " /><path fill="rgb(218,219,233)" stroke="rgb(218,219,233)" stroke-width="1" opacity="1" d="M 13.5 64 L 13.5 65 L 13.5 64 Z " /><path fill="rgb(218,219,233)" stroke="rgb(218,219,233)" stroke-width="1" opacity="1" d="M 79.5 64 L 79.5 65 L 79.5 64 Z " /><path fill="rgb(218,219,233)" stroke="rgb(218,219,233)" stroke-width="1" opacity="1" d="M 90.5 66 L 90.5 67 L 90.5 66 Z " /><path fill="rgb(218,219,233)" stroke="rgb(218,219,233)" stroke-width="1" opacity="1" d="M 12.5 67 L 13 68.5 L 12 68.5 L 12.5 67 Z " /><path fill="rgb(218,219,233)" stroke="rgb(218,219,233)" stroke-width="1" opacity="1" d="M 78.5 67 L 78.5 68 L 78.5 67 Z " /><path fill="rgb(218,219,233)" stroke="rgb(218,219,233)" stroke-width="1" opacity="1" d="M 89.5 68 L 89.5 69 L 89.5 68 Z " /><path fill="rgb(218,219,233)" stroke="rgb(218,219,233)" stroke-width="1" opacity="1" d="M 117.5 68 L 117.5 69 L 117.5 68 Z " /><path fill="rgb(218,219,233)" stroke="rgb(218,219,233)" stroke-width="1" opacity="1" d="M 77.5 69 L 77.5 70 L 77.5 69 Z " /><path fill="rgb(218,219,233)" stroke="rgb(218,219,233)" stroke-width="1" opacity="1" d="M 11.5 70 L 12 71.5 L 11 71.5 L 11.5 70 Z " /><path fill="rgb(218,219,233)" stroke="rgb(218,219,233)" stroke-width="1" opacity="1" d="M 86.5 70 L 86.5 71 L 86.5 70 Z " /><path fill="rgb(218,219,233)" stroke="rgb(218,219,233)" stroke-width="1" opacity="1" d="M 78.5 71 L 84 71.5 L 78.5 72 L 78.5 71 Z " /><path fill="rgb(218,219,233)" stroke="rgb(218,219,233)" stroke-width="1" opacity="1" d="M 116.5 71 L 117 72.5 Q 116 75 115 73.5 L 116.5 71 Z " /><path fill="rgb(218,219,233)" stroke="rgb(218,219,233)" stroke-width="1" opacity="1" d="M 10.5 75 L 10.5 76 L 10.5 75 Z " /><path fill="rgb(218,219,233)" stroke="rgb(218,219,233)" stroke-width="1" opacity="1" d="M 114.5 75 Q 116 76 113.5 77 Q 112 76 114.5 75 Z " /><path fill="rgb(218,219,233)" stroke="rgb(218,219,233)" stroke-width="1" opacity="1" d="M 109.5 79 L 109.5 80 L 109.5 79 Z " /><path fill="rgb(218,219,233)" stroke="rgb(218,219,233)" stroke-width="1" opacity="1" d="M 50.5 81 L 50.5 82 L 50.5 81 Z " /><path fill="rgb(218,219,233)" stroke="rgb(218,219,233)" stroke-width="1" opacity="1" d="M 107.5 81 L 107.5 82 L 107.5 81 Z " /><path fill="rgb(218,219,233)" stroke="rgb(218,219,233)" stroke-width="1" opacity="1" d="M 49.5 83 L 49.5 84 L 49.5 83 Z " /><path fill="rgb(218,219,233)" stroke="rgb(218,219,233)" stroke-width="1" opacity="1" d="M 74.5 85 L 80 85.5 L 74 86 L 73.5 88 L 73 86.5 L 74.5 85 Z " /><path fill="rgb(218,219,233)" stroke="rgb(218,219,233)" stroke-width="1" opacity="1" d="M 105.5 85 L 105.5 86 L 105.5 85 Z " /><path fill="rgb(218,219,233)" stroke="rgb(218,219,233)" stroke-width="1" opacity="1" d="M 48.5 86 L 48.5 87 L 48.5 86 Z " /><path fill="rgb(218,219,233)" stroke="rgb(218,219,233)" stroke-width="1" opacity="1" d="M 47.5 89 L 47.5 90 L 47.5 89 Z " /><path fill="rgb(218,219,233)" stroke="rgb(218,219,233)" stroke-width="1" opacity="1" d="M 80.5 89 L 81 90.5 L 80 90.5 L 80.5 89 Z " /><path fill="rgb(218,219,233)" stroke="rgb(218,219,233)" stroke-width="1" opacity="1" d="M 106.5 89 L 106.5 90 L 106.5 89 Z " /><path fill="rgb(218,219,233)" stroke="rgb(218,219,233)" stroke-width="1" opacity="1" d="M 72.5 90 L 72.5 91 L 72.5 90 Z " /><path fill="rgb(218,219,233)" stroke="rgb(218,219,233)" stroke-width="1" opacity="1" d="M 46.5 91 L 46.5 92 L 46.5 91 Z " /><path fill="rgb(218,219,233)" stroke="rgb(218,219,233)" stroke-width="1" opacity="1" d="M 71.5 92 L 71.5 93 L 71.5 92 Z " /><path fill="rgb(218,219,233)" stroke="rgb(218,219,233)" stroke-width="1" opacity="1" d="M 107.5 92 L 108 93.5 L 107 93.5 L 107.5 92 Z " /><path fill="rgb(218,219,233)" stroke="rgb(218,219,233)" stroke-width="1" opacity="1" d="M 81.5 93 L 82 94.5 L 81 94.5 L 81.5 93 Z " /><path fill="rgb(218,219,233)" stroke="rgb(218,219,233)" stroke-width="1" opacity="1" d="M 45.5 94 L 45.5 95 L 45.5 94 Z " /><path fill="rgb(218,219,233)" stroke="rgb(218,219,233)" stroke-width="1" opacity="1" d="M 70.5 95 L 70.5 96 L 70.5 95 Z " /><path fill="rgb(218,219,233)" stroke="rgb(218,219,233)" stroke-width="1" opacity="1" d="M 108.5 95 L 109 97.5 L 108 97.5 L 108.5 95 Z " /><path fill="rgb(218,219,233)" stroke="rgb(218,219,233)" stroke-width="1" opacity="1" d="M 44.5 97 L 45 98.5 L 43.5 101 L 43 99.5 L 44.5 97 Z " /><path fill="rgb(218,219,233)" stroke="rgb(218,219,233)" stroke-width="1" opacity="1" d="M 69.5 98 L 69.5 99 L 69.5 98 Z " /><path fill="rgb(218,219,233)" stroke="rgb(218,219,233)" stroke-width="1" opacity="1" d="M 82.5 98 L 82.5 99 L 82.5 98 Z " /><path fill="rgb(218,219,233)" stroke="rgb(218,219,233)" stroke-width="1" opacity="1" d="M 109.5 101 L 110 102.5 L 109 102.5 L 109.5 101 Z " /><path fill="rgb(218,219,233)" stroke="rgb(218,219,233)" stroke-width="1" opacity="1" d="M 68.5 102 L 69 103.5 L 68 103.5 L 68.5 102 Z " /><path fill="rgb(218,219,233)" stroke="rgb(218,219,233)" stroke-width="1" opacity="1" d="M 42.5 104 L 43 105.5 L 42 105.5 L 42.5 104 Z " /><path fill="rgb(218,219,233)" stroke="rgb(218,219,233)" stroke-width="1" opacity="1" d="M 67.5 105 L 68 106.5 L 67 106.5 L 67.5 105 Z " /><path fill="rgb(218,219,233)" stroke="rgb(218,219,233)" stroke-width="1" opacity="1" d="M 83.5 105 L 84 107.5 L 83 107.5 L 83.5 105 Z " /><path fill="rgb(218,219,233)" stroke="rgb(218,219,233)" stroke-width="1" opacity="1" d="M 110.5 105 L 110.5 106 L 110.5 105 Z " /><path fill="rgb(218,219,233)" stroke="rgb(218,219,233)" stroke-width="1" opacity="1" d="M 41.5 107 L 41.5 108 L 41.5 107 Z " /><path fill="rgb(218,219,233)" stroke="rgb(218,219,233)" stroke-width="1" opacity="1" d="M 111.5 108 L 111.5 109 L 111.5 108 Z " /><path fill="rgb(218,219,233)" stroke="rgb(218,219,233)" stroke-width="1" opacity="1" d="M 40.5 109 L 40.5 110 L 40.5 109 Z " /><path fill="rgb(218,219,233)" stroke="rgb(218,219,233)" stroke-width="1" opacity="1" d="M 66.5 109 L 66.5 110 L 66.5 109 Z " /><path fill="rgb(218,219,233)" stroke="rgb(218,219,233)" stroke-width="1" opacity="1" d="M 84.5 109 L 84.5 110 L 84.5 109 Z " /><path fill="rgb(255,255,255)" stroke="rgb(255,255,255)" stroke-width="1" opacity="1" d="M 0 0 L 128 0 L 128 128 L 0 128 L 0 0 Z M 25 17 L 19 28 L 19 32 L 25 33 L 19 47 L 19 51 L 14 62 L 11 71 L 11 75 L 10 76 Q 10 78 11 78 L 51 78 L 51 81 L 46 92 L 45 97 L 43 100 L 42 107 L 40 110 L 67 110 L 67 108 L 69 104 L 69 100 L 74 88 L 75 86 L 80 86 L 80 91 L 83 100 L 83 108 L 84 109 L 85 110 L 112 110 L 110 105 L 110 102 L 109 101 L 109 96 L 105 84 L 114 77 L 117 73 Q 116 69 118 69 L 118 59 L 117 56 L 114 52 L 106 49 L 79 49 L 77 46 L 82 45 L 84 43 L 88 33 L 88 30 L 85 23 L 82 19 Q 77 20 76 17 L 25 17 Z " /><path fill="rgb(255,255,255)" stroke="rgb(255,255,255)" stroke-width="1" opacity="1" d="M 48 32 L 56.5 32 L 59 34.5 L 54.5 40 L 46.5 40 L 45.5 41 L 45 39.5 L 47 36.5 L 48 32 Z " /><path fill="rgb(255,255,255)" stroke="rgb(255,255,255)" stroke-width="1" opacity="1" d="M 42 52 L 50.5 52 L 52 53.5 L 51 59 Q 48.42 58.25 47.5 60 L 40 60 L 42 52 Z " /><path fill="rgb(255,255,255)" stroke="rgb(255,255,255)" stroke-width="1" opacity="1" d="M 80 63 L 89.5 63 L 91 64.5 Q 90.38 68.38 87.5 70 Q 84.33 72.33 77.5 71 L 78 69.5 L 80 63 Z " /><path fill="rgb(14,49,120)" stroke="rgb(14,49,120)" stroke-width="1" opacity="1" d="M 25.5 17 L 72.5 17 L 82.5 21 L 85 23.5 L 85 25.5 L 87 28.5 L 87 33.5 L 83 43 L 75 46 L 76.5 49 L 78.5 50 L 106.5 50 L 115 54.5 L 118 61.5 L 118 65.5 L 115 72.5 L 115 75 L 113.5 75 L 104 83.5 L 107 91.5 L 107 96.5 L 109 100.5 L 109 104.5 L 111 110 L 85.5 110 Q 84.63 110.13 85 106.5 L 84 105.5 L 84 101.5 L 83 100.5 L 83 95.5 L 81 90.5 L 81 86.5 L 79.5 85 L 73 85 L 73 87.5 L 69 96.5 L 69 99.5 L 67 103.5 L 67 107.5 L 66 110 L 41 109.5 L 43 106.5 Q 42.4 101.9 45 100.5 L 45 96.5 L 52 78.5 L 50.5 77 L 11 77 L 11 74.5 L 13 70.5 L 13 67.5 L 17 58.5 L 23 37.5 L 26 31 L 20.5 31 L 20 29.5 L 21 28.5 L 22 22.5 L 25.5 17 Z M 49 31 L 45 38 L 45 41 L 55 41 L 59 37 L 59 32 Q 56 30 49 31 Z M 42 51 L 39 59 L 39 61 L 49 61 L 51 60 Q 54 58 53 53 L 52 51 L 42 51 Z M 79 62 L 79 65 L 77 69 L 77 72 L 86 72 L 88 71 L 91 68 L 91 64 L 90 62 L 79 62 Z " /><path fill="rgb(114,124,172)" stroke="rgb(114,124,172)" stroke-width="1" opacity="1" d="M 24.5 17 L 24.5 18 L 24.5 17 Z " /><path fill="rgb(114,124,172)" stroke="rgb(114,124,172)" stroke-width="1" opacity="1" d="M 73.5 17 L 75 17.5 L 73.5 18 L 73.5 17 Z " /><path fill="rgb(114,124,172)" stroke="rgb(114,124,172)" stroke-width="1" opacity="1" d="M 77.5 18 L 77.5 19 L 77.5 18 Z " /><path fill="rgb(114,124,172)" stroke="rgb(114,124,172)" stroke-width="1" opacity="1" d="M 23.5 19 L 23.5 20 L 23.5 19 Z " /><path fill="rgb(114,124,172)" stroke="rgb(114,124,172)" stroke-width="1" opacity="1" d="M 79.5 19 L 82 20.5 L 80.5 20 Q 78.13 19.87 79.5 19 Z " /><path fill="rgb(114,124,172)" stroke="rgb(114,124,172)" stroke-width="1" opacity="1" d="M 22.5 21 L 22.5 22 L 22.5 21 Z " /><path fill="rgb(114,124,172)" stroke="rgb(114,124,172)" stroke-width="1" opacity="1" d="M 83.5 21 Q 86 22 84.5 23 Q 82 22 83.5 21 Z " /><path fill="rgb(114,124,172)" stroke="rgb(114,124,172)" stroke-width="1" opacity="1" d="M 21.5 23 L 22 24.5 L 21 24.5 L 21.5 23 Z " /><path fill="rgb(114,124,172)" stroke="rgb(114,124,172)" stroke-width="1" opacity="1" d="M 85.5 25 L 85.5 26 L 85.5 25 Z " /><path fill="rgb(114,124,172)" stroke="rgb(114,124,172)" stroke-width="1" opacity="1" d="M 20.5 27 L 21 28.5 L 20 31 L 25.5 31 L 26 32.5 L 24.5 32 Q 20 33 19 30.5 L 20.5 27 Z " /><path fill="rgb(114,124,172)" stroke="rgb(114,124,172)" stroke-width="1" opacity="1" d="M 86.5 27 L 86.5 28 L 86.5 27 Z " /><path fill="rgb(114,124,172)" stroke="rgb(114,124,172)" stroke-width="1" opacity="1" d="M 55.5 31 L 57 31.5 L 55.5 32 L 55.5 31 Z " /><path fill="rgb(114,124,172)" stroke="rgb(114,124,172)" stroke-width="1" opacity="1" d="M 47.5 32 L 47.5 33 L 47.5 32 Z " /><path fill="rgb(114,124,172)" stroke="rgb(114,124,172)" stroke-width="1" opacity="1" d="M 58.5 32 L 58.5 33 L 58.5 32 Z " /><path fill="rgb(114,124,172)" stroke="rgb(114,124,172)" stroke-width="1" opacity="1" d="M 24.5 34 L 24.5 35 L 24.5 34 Z " /><path fill="rgb(114,124,172)" stroke="rgb(114,124,172)" stroke-width="1" opacity="1" d="M 86.5 34 L 86.5 35 L 86.5 34 Z " /><path fill="rgb(114,124,172)" stroke="rgb(114,124,172)" stroke-width="1" opacity="1" d="M 46.5 35 L 46.5 36 L 46.5 35 Z " /><path fill="rgb(114,124,172)" stroke="rgb(114,124,172)" stroke-width="1" opacity="1" d="M 23.5 36 L 23.5 37 L 23.5 36 Z " /><path fill="rgb(114,124,172)" stroke="rgb(114,124,172)" stroke-width="1" opacity="1" d="M 58.5 36 L 58.5 37 L 58.5 36 Z " /><path fill="rgb(114,124,172)" stroke="rgb(114,124,172)" stroke-width="1" opacity="1" d="M 45.5 37 L 45.5 38 L 45.5 37 Z " /><path fill="rgb(114,124,172)" stroke="rgb(114,124,172)" stroke-width="1" opacity="1" d="M 85.5 37 L 85.5 38 L 85.5 37 Z " /><path fill="rgb(114,124,172)" stroke="rgb(114,124,172)" stroke-width="1" opacity="1" d="M 22.5 39 L 22.5 40 L 22.5 39 Z " /><path fill="rgb(114,124,172)" stroke="rgb(114,124,172)" stroke-width="1" opacity="1" d="M 84.5 39 L 84.5 40 L 84.5 39 Z " /><path fill="rgb(114,124,172)" stroke="rgb(114,124,172)" stroke-width="1" opacity="1" d="M 53.5 40 L 55 40.5 L 53.5 41 L 53.5 40 Z " /><path fill="rgb(114,124,172)" stroke="rgb(114,124,172)" stroke-width="1" opacity="1" d="M 83.5 41 L 83.5 42 L 83.5 41 Z " /><path fill="rgb(114,124,172)" stroke="rgb(114,124,172)" stroke-width="1" opacity="1" d="M 21.5 42 L 21.5 43 L 21.5 42 Z " /><path fill="rgb(114,124,172)" stroke="rgb(114,124,172)" stroke-width="1" opacity="1" d="M 81.5 43 Q 83 44 80.5 45 L 79 44.5 L 81.5 43 Z " /><path fill="rgb(114,124,172)" stroke="rgb(114,124,172)" stroke-width="1" opacity="1" d="M 20.5 45 L 21 46.5 L 20 46.5 L 20.5 45 Z " /><path fill="rgb(114,124,172)" stroke="rgb(114,124,172)" stroke-width="1" opacity="1" d="M 77.5 45 L 78 45.5 L 76 47.5 L 76.5 49 L 75 46 L 77.5 45 Z " /><path fill="rgb(114,124,172)" stroke="rgb(114,124,172)" stroke-width="1" opacity="1" d="M 19.5 48 L 20 49.5 L 19 49.5 L 19.5 48 Z " /><path fill="rgb(114,124,172)" stroke="rgb(114,124,172)" stroke-width="1" opacity="1" d="M 78.5 49 L 105 49.5 L 78.5 50 L 78.5 49 Z " /><path fill="rgb(114,124,172)" stroke="rgb(114,124,172)" stroke-width="1" opacity="1" d="M 107.5 50 L 107.5 51 L 107.5 50 Z " /><path fill="rgb(114,124,172)" stroke="rgb(114,124,172)" stroke-width="1" opacity="1" d="M 50.5 51 L 53 52.5 L 51.5 52 Q 49.13 51.88 50.5 51 Z " /><path fill="rgb(114,124,172)" stroke="rgb(114,124,172)" stroke-width="1" opacity="1" d="M 109.5 51 L 113 52.5 L 111.5 53 L 109 51.5 L 109.5 51 Z " /><path fill="rgb(114,124,172)" stroke="rgb(114,124,172)" stroke-width="1" opacity="1" d="M 18.5 52 L 18.5 53 L 18.5 52 Z " /><path fill="rgb(114,124,172)" stroke="rgb(114,124,172)" stroke-width="1" opacity="1" d="M 41.5 53 L 41.5 54 L 41.5 53 Z " /><path fill="rgb(114,124,172)" stroke="rgb(114,124,172)" stroke-width="1" opacity="1" d="M 114.5 53 L 114.5 54 L 114.5 53 Z " /><path fill="rgb(114,124,172)" stroke="rgb(114,124,172)" stroke-width="1" opacity="1" d="M 17.5 55 L 17.5 56 L 17.5 55 Z " /><path fill="rgb(114,124,172)" stroke="rgb(114,124,172)" stroke-width="1" opacity="1" d="M 40.5 55 L 41 56.5 L 40 56.5 L 40.5 55 Z " /><path fill="rgb(114,124,172)" stroke="rgb(114,124,172)" stroke-width="1" opacity="1" d="M 115.5 55 L 117 57.5 L 116 57.5 L 115.5 55 Z " /><path fill="rgb(114,124,172)" stroke="rgb(114,124,172)" stroke-width="1" opacity="1" d="M 52.5 56 L 52.5 57 L 52.5 56 Z " /><path fill="rgb(114,124,172)" stroke="rgb(114,124,172)" stroke-width="1" opacity="1" d="M 16.5 58 L 16.5 59 L 16.5 58 Z " /><path fill="rgb(114,124,172)" stroke="rgb(114,124,172)" stroke-width="1" opacity="1" d="M 39.5 58 L 39.5 59 L 39.5 58 Z " /><path fill="rgb(114,124,172)" stroke="rgb(114,124,172)" stroke-width="1" opacity="1" d="M 51.5 58 Q 53 59 50.5 60 Q 49 59 51.5 58 Z " /><path fill="rgb(114,124,172)" stroke="rgb(114,124,172)" stroke-width="1" opacity="1" d="M 117.5 59 L 118 60.5 L 117 60.5 L 117.5 59 Z " /><path fill="rgb(114,124,172)" stroke="rgb(114,124,172)" stroke-width="1" opacity="1" d="M 15.5 60 L 15.5 61 L 15.5 60 Z " /><path fill="rgb(114,124,172)" stroke="rgb(114,124,172)" stroke-width="1" opacity="1" d="M 39.5 60 L 39.5 61 L 39.5 60 Z " /><path fill="rgb(114,124,172)" stroke="rgb(114,124,172)" stroke-width="1" opacity="1" d="M 46.5 60 L 49 60.5 L 46.5 61 L 46.5 60 Z " /><path fill="rgb(114,124,172)" stroke="rgb(114,124,172)" stroke-width="1" opacity="1" d="M 79.5 62 L 80 63.5 L 79 63.5 L 79.5 62 Z " /><path fill="rgb(114,124,172)" stroke="rgb(114,124,172)" stroke-width="1" opacity="1" d="M 89.5 62 Q 92 63 90.5 64 Q 88 63 89.5 62 Z " /><path fill="rgb(114,124,172)" stroke="rgb(114,124,172)" stroke-width="1" opacity="1" d="M 14.5 63 L 14.5 64 L 14.5 63 Z " /><path fill="rgb(114,124,172)" stroke="rgb(114,124,172)" stroke-width="1" opacity="1" d="M 13.5 65 L 14 66.5 L 13 66.5 L 13.5 65 Z " /><path fill="rgb(114,124,172)" stroke="rgb(114,124,172)" stroke-width="1" opacity="1" d="M 78.5 65 L 79 66.5 L 78 66.5 L 78.5 65 Z " /><path fill="rgb(114,124,172)" stroke="rgb(114,124,172)" stroke-width="1" opacity="1" d="M 117.5 66 L 118 67.5 L 117 67.5 L 117.5 66 Z " /><path fill="rgb(114,124,172)" stroke="rgb(114,124,172)" stroke-width="1" opacity="1" d="M 90.5 67 L 90.5 68 L 90.5 67 Z " /><path fill="rgb(114,124,172)" stroke="rgb(114,124,172)" stroke-width="1" opacity="1" d="M 77.5 68 L 77.5 69 L 77.5 68 Z " /><path fill="rgb(114,124,172)" stroke="rgb(114,124,172)" stroke-width="1" opacity="1" d="M 12.5 69 L 13 70.5 L 12 70.5 L 12.5 69 Z " /><path fill="rgb(114,124,172)" stroke="rgb(114,124,172)" stroke-width="1" opacity="1" d="M 88.5 69 Q 90 70 87.5 71 Q 86 70 88.5 69 Z " /><path fill="rgb(114,124,172)" stroke="rgb(114,124,172)" stroke-width="1" opacity="1" d="M 116.5 70 L 116.5 71 L 116.5 70 Z " /><path fill="rgb(114,124,172)" stroke="rgb(114,124,172)" stroke-width="1" opacity="1" d="M 77.5 71 L 77.5 72 L 77.5 71 Z " /><path fill="rgb(114,124,172)" stroke="rgb(114,124,172)" stroke-width="1" opacity="1" d="M 84.5 71 L 86 71.5 L 84.5 72 L 84.5 71 Z " /><path fill="rgb(114,124,172)" stroke="rgb(114,124,172)" stroke-width="1" opacity="1" d="M 11.5 72 L 12 73.5 L 11 73.5 L 11.5 72 Z " /><path fill="rgb(114,124,172)" stroke="rgb(114,124,172)" stroke-width="1" opacity="1" d="M 115.5 72 L 115.5 73 L 115.5 72 Z " /><path fill="rgb(114,124,172)" stroke="rgb(114,124,172)" stroke-width="1" opacity="1" d="M 113.5 75 L 114 75.5 L 110.5 79 L 110 78.5 L 113.5 75 Z " /><path fill="rgb(114,124,172)" stroke="rgb(114,124,172)" stroke-width="1" opacity="1" d="M 10.5 76 L 11.5 77 L 50.5 77 L 52 78.5 L 51.5 80 L 51 78 L 10.5 78 L 10.5 76 Z " /><path fill="rgb(114,124,172)" stroke="rgb(114,124,172)" stroke-width="1" opacity="1" d="M 108.5 80 L 108.5 81 L 108.5 80 Z " /><path fill="rgb(114,124,172)" stroke="rgb(114,124,172)" stroke-width="1" opacity="1" d="M 50.5 82 L 50.5 83 L 50.5 82 Z " /><path fill="rgb(114,124,172)" stroke="rgb(114,124,172)" stroke-width="1" opacity="1" d="M 105.5 82 L 105 83.5 L 104.5 85 L 104 83.5 L 105.5 82 Z " /><path fill="rgb(114,124,172)" stroke="rgb(114,124,172)" stroke-width="1" opacity="1" d="M 49.5 84 L 49.5 85 L 49.5 84 Z " /><path fill="rgb(114,124,172)" stroke="rgb(114,124,172)" stroke-width="1" opacity="1" d="M 73.5 85 L 73.5 86 L 73.5 85 Z " /><path fill="rgb(114,124,172)" stroke="rgb(114,124,172)" stroke-width="1" opacity="1" d="M 80.5 86 L 81 88.5 L 80 88.5 L 80.5 86 Z " /><path fill="rgb(114,124,172)" stroke="rgb(114,124,172)" stroke-width="1" opacity="1" d="M 105.5 86 L 106 87.5 L 105 87.5 L 105.5 86 Z " /><path fill="rgb(114,124,172)" stroke="rgb(114,124,172)" stroke-width="1" opacity="1" d="M 48.5 87 L 48.5 88 L 48.5 87 Z " /><path fill="rgb(114,124,172)" stroke="rgb(114,124,172)" stroke-width="1" opacity="1" d="M 72.5 88 L 73 89.5 L 72 89.5 L 72.5 88 Z " /><path fill="rgb(114,124,172)" stroke="rgb(114,124,172)" stroke-width="1" opacity="1" d="M 47.5 90 L 47.5 91 L 47.5 90 Z " /><path fill="rgb(114,124,172)" stroke="rgb(114,124,172)" stroke-width="1" opacity="1" d="M 106.5 90 L 106.5 91 L 106.5 90 Z " /><path fill="rgb(114,124,172)" stroke="rgb(114,124,172)" stroke-width="1" opacity="1" d="M 71.5 91 L 71.5 92 L 71.5 91 Z " /><path fill="rgb(114,124,172)" stroke="rgb(114,124,172)" stroke-width="1" opacity="1" d="M 81.5 91 L 82 92.5 L 81 92.5 L 81.5 91 Z " /><path fill="rgb(114,124,172)" stroke="rgb(114,124,172)" stroke-width="1" opacity="1" d="M 46.5 92 L 46.5 93 L 46.5 92 Z " /><path fill="rgb(114,124,172)" stroke="rgb(114,124,172)" stroke-width="1" opacity="1" d="M 70.5 93 L 71 94.5 L 70 94.5 L 70.5 93 Z " /><path fill="rgb(114,124,172)" stroke="rgb(114,124,172)" stroke-width="1" opacity="1" d="M 107.5 94 L 108 96.5 L 107 96.5 L 107.5 94 Z " /><path fill="rgb(114,124,172)" stroke="rgb(114,124,172)" stroke-width="1" opacity="1" d="M 45.5 95 L 45.5 96 L 45.5 95 Z " /><path fill="rgb(114,124,172)" stroke="rgb(114,124,172)" stroke-width="1" opacity="1" d="M 82.5 95 L 83 97.5 L 82 97.5 L 82.5 95 Z " /><path fill="rgb(114,124,172)" stroke="rgb(114,124,172)" stroke-width="1" opacity="1" d="M 69.5 96 L 70 97.5 L 69 97.5 L 69.5 96 Z " /><path fill="rgb(114,124,172)" stroke="rgb(114,124,172)" stroke-width="1" opacity="1" d="M 108.5 98 L 109 99.5 L 108 99.5 L 108.5 98 Z " /><path fill="rgb(114,124,172)" stroke="rgb(114,124,172)" stroke-width="1" opacity="1" d="M 44.5 99 L 45 100.5 L 43.5 103 L 43 101.5 L 44.5 99 Z " /><path fill="rgb(114,124,172)" stroke="rgb(114,124,172)" stroke-width="1" opacity="1" d="M 68.5 100 L 69 101.5 L 68 101.5 L 68.5 100 Z " /><path fill="rgb(114,124,172)" stroke="rgb(114,124,172)" stroke-width="1" opacity="1" d="M 83.5 101 L 84 104.5 L 83 104.5 L 83.5 101 Z " /><path fill="rgb(114,124,172)" stroke="rgb(114,124,172)" stroke-width="1" opacity="1" d="M 67.5 103 L 68 104.5 L 67 104.5 L 67.5 103 Z " /><path fill="rgb(114,124,172)" stroke="rgb(114,124,172)" stroke-width="1" opacity="1" d="M 109.5 103 L 110 104.5 L 109 104.5 L 109.5 103 Z " /><path fill="rgb(114,124,172)" stroke="rgb(114,124,172)" stroke-width="1" opacity="1" d="M 42.5 106 L 42.5 107 L 42.5 106 Z " /><path fill="rgb(114,124,172)" stroke="rgb(114,124,172)" stroke-width="1" opacity="1" d="M 84.5 106 L 85 108.5 L 84 108.5 L 84.5 106 Z " /><path fill="rgb(114,124,172)" stroke="rgb(114,124,172)" stroke-width="1" opacity="1" d="M 110.5 106 L 111 107.5 L 110 107.5 L 110.5 106 Z " /><path fill="rgb(114,124,172)" stroke="rgb(114,124,172)" stroke-width="1" opacity="1" d="M 41.5 108 L 41.5 109 L 41.5 108 Z " /><path fill="rgb(114,124,172)" stroke="rgb(114,124,172)" stroke-width="1" opacity="1" d="M 66.5 108 L 66.5 109 L 66.5 108 Z " /><path fill="rgb(114,124,172)" stroke="rgb(114,124,172)" stroke-width="1" opacity="1" d="M 111.5 109 L 111.5 110 L 111.5 109 Z " /></svg>