<svg width="48" height="48" version="1.1" xmlns="http://www.w3.org/2000/svg" desc="Created with imagetracer.js version 1.2.6" ><path fill="rgb(27,104,56)" stroke="rgb(27,104,56)" stroke-width="1" opacity="0.5843137254901961" d="M 42.5 3 L 42.5 4 L 42.5 3 Z " /><path fill="rgb(27,104,56)" stroke="rgb(27,104,56)" stroke-width="1" opacity="0.5843137254901961" d="M 21.5 5 L 21.5 6 L 21.5 5 Z " /><path fill="rgb(27,104,56)" stroke="rgb(27,104,56)" stroke-width="1" opacity="0.5843137254901961" d="M 38.5 5 L 38.5 6 L 38.5 5 Z " /><path fill="rgb(27,104,56)" stroke="rgb(27,104,56)" stroke-width="1" opacity="0.5843137254901961" d="M 34.5 6 L 34.5 7 L 34.5 6 Z " /><path fill="rgb(27,104,56)" stroke="rgb(27,104,56)" stroke-width="1" opacity="0.5843137254901961" d="M 28.5 7 L 28.5 8 L 28.5 7 Z " /><path fill="rgb(27,104,56)" stroke="rgb(27,104,56)" stroke-width="1" opacity="0.5843137254901961" d="M 44.5 7 L 44.5 8 L 44.5 7 Z " /><path fill="rgb(27,104,56)" stroke="rgb(27,104,56)" stroke-width="1" opacity="0.5843137254901961" d="M 23.5 10 L 23.5 11 L 23.5 10 Z " /><path fill="rgb(27,104,56)" stroke="rgb(27,104,56)" stroke-width="1" opacity="0.5843137254901961" d="M 27.5 12 L 27.5 13 L 27.5 12 Z " /><path fill="rgb(27,104,56)" stroke="rgb(27,104,56)" stroke-width="1" opacity="0.5843137254901961" d="M 23.5 13 L 25 13.5 L 23.5 14 L 23.5 13 Z " /><path fill="rgb(0,0,0)" stroke="rgb(0,0,0)" stroke-width="1" opacity="0" d="M 0 0 L 44 0.5 L 40.5 4 L 34.5 5 L 33.5 6 L 28.5 6 L 25 8.5 L 24.5 11 L 23 5.5 L 21.5 4 Q 17.12 2.5 18 5.5 Q 20.6 6.9 20 11.5 L 22 13.5 L 19.5 14 L 18.5 13 L 10.5 13 L 6 16.5 L 3 22.5 L 2 30.5 L 6 41.5 L 10.5 47 L 12 47.5 L 0 48 L 0 0 Z " /><path fill="rgb(0,0,0)" stroke="rgb(0,0,0)" stroke-width="1" opacity="0" d="M 46 0 L 48 0.5 L 48 48 L 26 47.5 L 33 41.5 L 36 34.5 L 37 24.5 L 35 18.5 L 30.5 14 L 28 13.5 L 39.5 13 L 42.5 12 L 45 9.5 L 46 6.5 L 46 0 Z " /><path fill="rgb(27,104,56)" stroke="rgb(27,104,56)" stroke-width="1" opacity="0.10196078431372549" d="M 44.5 0 L 46 0.5 L 46 6.5 L 45 6.5 L 44.5 1 L 41.5 4 L 41 3.5 L 44.5 0 Z " /><path fill="rgb(27,104,56)" stroke="rgb(27,104,56)" stroke-width="1" opacity="0.10196078431372549" d="M 18 4 L 20 4.5 Q 19 7 18 5.5 L 18 4 Z " /><path fill="rgb(27,104,56)" stroke="rgb(27,104,56)" stroke-width="1" opacity="0.10196078431372549" d="M 21.5 4 L 23 6.5 L 22 6.5 L 21.5 4 Z " /><path fill="rgb(27,104,56)" stroke="rgb(27,104,56)" stroke-width="1" opacity="0.10196078431372549" d="M 38.5 4 L 40 4.5 L 38.5 5 L 38.5 4 Z " /><path fill="rgb(27,104,56)" stroke="rgb(27,104,56)" stroke-width="1" opacity="0.10196078431372549" d="M 34.5 5 L 37 5.5 L 34.5 6 L 34.5 5 Z " /><path fill="rgb(27,104,56)" stroke="rgb(27,104,56)" stroke-width="1" opacity="0.10196078431372549" d="M 28.5 6 L 32 6.5 L 26 8 L 26 13 L 27.5 13 L 28.5 12 L 39.5 12 L 39.5 13 L 28.5 13 Q 27.58 14.75 25 14 L 24 11.5 L 26.5 7 L 28.5 6 Z " /><path fill="rgb(27,104,56)" stroke="rgb(27,104,56)" stroke-width="1" opacity="0.10196078431372549" d="M 19.5 7 L 19.5 8 L 19.5 7 Z " /><path fill="rgb(27,104,56)" stroke="rgb(27,104,56)" stroke-width="1" opacity="0.10196078431372549" d="M 23.5 8 L 24 9.5 L 23 9.5 L 23.5 8 Z " /><path fill="rgb(27,104,56)" stroke="rgb(27,104,56)" stroke-width="1" opacity="0.10196078431372549" d="M 44.5 8 L 45 9.5 L 41.5 12 L 41.5 11 L 44 9.5 L 44.5 8 Z " /><path fill="rgb(27,104,56)" stroke="rgb(27,104,56)" stroke-width="1" opacity="0.10196078431372549" d="M 20.5 9 L 21 11.5 L 20 11.5 L 20.5 9 Z " /><path fill="rgb(27,104,56)" stroke="rgb(27,104,56)" stroke-width="1" opacity="0.10196078431372549" d="M 22.5 13 L 22.5 14 L 22.5 13 Z " /><path fill="rgb(29,104,56)" stroke="rgb(29,104,56)" stroke-width="1" opacity="0.9803921568627451" d="M 43.5 3 L 43.5 4 L 43.5 3 Z " /><path fill="rgb(29,104,56)" stroke="rgb(29,104,56)" stroke-width="1" opacity="0.9803921568627451" d="M 40.5 5 L 40.5 6 L 40.5 5 Z " /><path fill="rgb(29,104,56)" stroke="rgb(29,104,56)" stroke-width="1" opacity="0.9803921568627451" d="M 37.5 6 L 37.5 7 L 37.5 6 Z " /><path fill="rgb(29,104,56)" stroke="rgb(29,104,56)" stroke-width="1" opacity="0.9803921568627451" d="M 31.5 7 L 31.5 8 L 31.5 7 Z " /><path fill="rgb(29,104,56)" stroke="rgb(29,104,56)" stroke-width="1" opacity="0.9803921568627451" d="M 27.5 8 L 27.5 9 L 27.5 8 Z " /><path fill="rgb(29,104,56)" stroke="rgb(29,104,56)" stroke-width="1" opacity="0.9803921568627451" d="M 21.5 9 L 23 9.5 L 21.5 10 L 21.5 9 Z " /><path fill="rgb(29,104,56)" stroke="rgb(29,104,56)" stroke-width="1" opacity="0.9803921568627451" d="M 42.5 9 L 42.5 10 L 42.5 9 Z " /><path fill="rgb(29,104,56)" stroke="rgb(29,104,56)" stroke-width="1" opacity="0.9803921568627451" d="M 26.5 10 L 27 11.5 L 26 11.5 L 26.5 10 Z " /><path fill="rgb(29,104,56)" stroke="rgb(29,104,56)" stroke-width="1" opacity="0.9803921568627451" d="M 28.5 11 L 28.5 12 L 28.5 11 Z " /><path fill="rgb(29,104,56)" stroke="rgb(29,104,56)" stroke-width="1" opacity="1" d="M 42.5 4 Q 45.5 3.12 44 7.5 L 40.5 11 L 28.5 11 L 27.5 12 L 27 9.5 L 28.5 8 L 40.5 6 L 42.5 4 Z " /><path fill="rgb(29,104,56)" stroke="rgb(29,104,56)" stroke-width="1" opacity="1" d="M 20.5 5 L 22 8.5 L 21 8.5 L 20.5 5 Z " /><path fill="rgb(29,104,56)" stroke="rgb(29,104,56)" stroke-width="1" opacity="1" d="M 22.5 10 L 24 12.5 Q 23 14 22 11.5 L 22.5 10 Z " /><path fill="rgb(29,104,56)" stroke="rgb(29,104,56)" stroke-width="1" opacity="0.4392156862745098" d="M 44.5 1 Q 46 2 43.5 3 Q 42 2 44.5 1 Z " /><path fill="rgb(29,104,56)" stroke="rgb(29,104,56)" stroke-width="1" opacity="0.4392156862745098" d="M 20.5 4 L 20.5 5 L 20.5 4 Z " /><path fill="rgb(29,104,56)" stroke="rgb(29,104,56)" stroke-width="1" opacity="0.4392156862745098" d="M 40.5 4 L 40.5 5 L 40.5 4 Z " /><path fill="rgb(29,104,56)" stroke="rgb(29,104,56)" stroke-width="1" opacity="0.4392156862745098" d="M 37.5 5 L 37.5 6 L 37.5 5 Z " /><path fill="rgb(29,104,56)" stroke="rgb(29,104,56)" stroke-width="1" opacity="0.4392156862745098" d="M 19.5 6 L 19.5 7 L 19.5 6 Z " /><path fill="rgb(29,104,56)" stroke="rgb(29,104,56)" stroke-width="1" opacity="0.4392156862745098" d="M 32.5 6 L 34 6.5 L 32.5 7 L 32.5 6 Z " /><path fill="rgb(29,104,56)" stroke="rgb(29,104,56)" stroke-width="1" opacity="0.4392156862745098" d="M 22.5 7 L 22.5 8 L 22.5 7 Z " /><path fill="rgb(29,104,56)" stroke="rgb(29,104,56)" stroke-width="1" opacity="0.4392156862745098" d="M 20.5 8 L 20.5 9 L 20.5 8 Z " /><path fill="rgb(29,104,56)" stroke="rgb(29,104,56)" stroke-width="1" opacity="0.4392156862745098" d="M 26.5 8 L 26.5 9 L 26.5 8 Z " /><path fill="rgb(29,104,56)" stroke="rgb(29,104,56)" stroke-width="1" opacity="0.4392156862745098" d="M 43.5 9 Q 45 10 42.5 11 Q 41 10 43.5 9 Z " /><path fill="rgb(29,104,56)" stroke="rgb(29,104,56)" stroke-width="1" opacity="0.4392156862745098" d="M 40.5 11 L 40.5 12 L 40.5 11 Z " /><path fill="rgb(29,104,56)" stroke="rgb(29,104,56)" stroke-width="1" opacity="0.4392156862745098" d="M 21.5 12 L 21.5 13 L 21.5 12 Z " /><path fill="rgb(29,104,56)" stroke="rgb(29,104,56)" stroke-width="1" opacity="0.4392156862745098" d="M 24.5 12 L 24.5 13 L 24.5 12 Z " /><path fill="rgb(29,104,56)" stroke="rgb(29,104,56)" stroke-width="1" opacity="0.7647058823529411" d="M 44.5 2 L 44.5 3 L 44.5 2 Z " /><path fill="rgb(29,104,56)" stroke="rgb(29,104,56)" stroke-width="1" opacity="0.7647058823529411" d="M 41.5 4 L 41.5 5 L 41.5 4 Z " /><path fill="rgb(29,104,56)" stroke="rgb(29,104,56)" stroke-width="1" opacity="0.7647058823529411" d="M 19.5 5 L 19.5 6 L 19.5 5 Z " /><path fill="rgb(29,104,56)" stroke="rgb(29,104,56)" stroke-width="1" opacity="0.7647058823529411" d="M 35.5 6 L 35.5 7 L 35.5 6 Z " /><path fill="rgb(29,104,56)" stroke="rgb(29,104,56)" stroke-width="1" opacity="0.7647058823529411" d="M 44.5 6 L 44.5 7 L 44.5 6 Z " /><path fill="rgb(29,104,56)" stroke="rgb(29,104,56)" stroke-width="1" opacity="0.7647058823529411" d="M 20.5 7 L 20.5 8 L 20.5 7 Z " /><path fill="rgb(29,104,56)" stroke="rgb(29,104,56)" stroke-width="1" opacity="0.7647058823529411" d="M 29.5 7 L 29.5 8 L 29.5 7 Z " /><path fill="rgb(29,104,56)" stroke="rgb(29,104,56)" stroke-width="1" opacity="0.7647058823529411" d="M 22.5 8 L 22.5 9 L 22.5 8 Z " /><path fill="rgb(29,104,56)" stroke="rgb(29,104,56)" stroke-width="1" opacity="0.7647058823529411" d="M 21.5 11 L 21.5 12 L 21.5 11 Z " /><path fill="rgb(29,104,56)" stroke="rgb(29,104,56)" stroke-width="1" opacity="0.7647058823529411" d="M 29.5 11 L 33 11.5 L 29.5 12 L 29.5 11 Z " /><path fill="rgb(29,104,56)" stroke="rgb(29,104,56)" stroke-width="1" opacity="0.7647058823529411" d="M 38.5 11 L 40 11.5 L 38.5 12 L 38.5 11 Z " /><path fill="rgb(29,104,56)" stroke="rgb(29,104,56)" stroke-width="1" opacity="0.7647058823529411" d="M 26.5 12 L 26.5 13 L 26.5 12 Z " /><path fill="rgb(29,104,56)" stroke="rgb(29,104,56)" stroke-width="1" opacity="0.9019607843137255" d="M 44.5 3 L 45 5.5 L 44 5.5 L 44.5 3 Z " /><path fill="rgb(29,104,56)" stroke="rgb(29,104,56)" stroke-width="1" opacity="0.9019607843137255" d="M 39.5 5 L 39.5 6 L 39.5 5 Z " /><path fill="rgb(29,104,56)" stroke="rgb(29,104,56)" stroke-width="1" opacity="0.9019607843137255" d="M 21.5 6 L 21.5 7 L 21.5 6 Z " /><path fill="rgb(29,104,56)" stroke="rgb(29,104,56)" stroke-width="1" opacity="0.9019607843137255" d="M 36.5 6 L 36.5 7 L 36.5 6 Z " /><path fill="rgb(29,104,56)" stroke="rgb(29,104,56)" stroke-width="1" opacity="0.9019607843137255" d="M 30.5 7 L 30.5 8 L 30.5 7 Z " /><path fill="rgb(29,104,56)" stroke="rgb(29,104,56)" stroke-width="1" opacity="0.9019607843137255" d="M 43.5 8 L 43.5 9 L 43.5 8 Z " /><path fill="rgb(29,104,56)" stroke="rgb(29,104,56)" stroke-width="1" opacity="0.9019607843137255" d="M 26.5 9 L 26.5 10 L 26.5 9 Z " /><path fill="rgb(29,104,56)" stroke="rgb(29,104,56)" stroke-width="1" opacity="0.9019607843137255" d="M 21.5 10 L 21.5 11 L 21.5 10 Z " /><path fill="rgb(29,104,56)" stroke="rgb(29,104,56)" stroke-width="1" opacity="0.9019607843137255" d="M 41.5 10 L 41.5 11 L 41.5 10 Z " /><path fill="rgb(29,104,56)" stroke="rgb(29,104,56)" stroke-width="1" opacity="0.9019607843137255" d="M 23.5 11 Q 25 12 22.5 13 Q 21 12 23.5 11 Z " /><path fill="rgb(29,104,56)" stroke="rgb(29,104,56)" stroke-width="1" opacity="0.9019607843137255" d="M 33.5 11 L 38 11.5 L 33.5 12 L 33.5 11 Z " /><path fill="rgb(226,27,36)" stroke="rgb(226,27,36)" stroke-width="1" opacity="0.9176470588235294" d="M 11.5 14 L 13 14.5 L 11.5 15 L 11.5 14 Z " /><path fill="rgb(226,27,36)" stroke="rgb(226,27,36)" stroke-width="1" opacity="0.9176470588235294" d="M 17.5 14 L 19 14.5 L 17.5 15 L 17.5 14 Z " /><path fill="rgb(226,27,36)" stroke="rgb(226,27,36)" stroke-width="1" opacity="0.9176470588235294" d="M 9.5 15 L 10 15.5 L 6.5 19 L 6 18.5 L 9.5 15 Z " /><path fill="rgb(226,27,36)" stroke="rgb(226,27,36)" stroke-width="1" opacity="0.9176470588235294" d="M 22.5 15 L 24 15.5 L 22.5 16 L 22.5 15 Z " /><path fill="rgb(226,27,36)" stroke="rgb(226,27,36)" stroke-width="1" opacity="0.9176470588235294" d="M 28.5 15 L 30 15.5 L 28.5 16 L 28.5 15 Z " /><path fill="rgb(226,27,36)" stroke="rgb(226,27,36)" stroke-width="1" opacity="0.9176470588235294" d="M 31.5 16 Q 34 17 32.5 18 Q 30 17 31.5 16 Z " /><path fill="rgb(226,27,36)" stroke="rgb(226,27,36)" stroke-width="1" opacity="0.9176470588235294" d="M 5.5 20 L 5.5 21 L 5.5 20 Z " /><path fill="rgb(226,27,36)" stroke="rgb(226,27,36)" stroke-width="1" opacity="0.9176470588235294" d="M 34.5 21 L 34.5 22 L 34.5 21 Z " /><path fill="rgb(226,27,36)" stroke="rgb(226,27,36)" stroke-width="1" opacity="0.9176470588235294" d="M 4.5 22 L 5 23.5 L 4 23.5 L 4.5 22 Z " /><path fill="rgb(226,27,36)" stroke="rgb(226,27,36)" stroke-width="1" opacity="0.9176470588235294" d="M 3.5 27 L 4 28.5 L 3 28.5 L 3.5 27 Z " /><path fill="rgb(226,27,36)" stroke="rgb(226,27,36)" stroke-width="1" opacity="0.9176470588235294" d="M 4.5 33 L 5 34.5 L 4 34.5 L 4.5 33 Z " /><path fill="rgb(226,27,36)" stroke="rgb(226,27,36)" stroke-width="1" opacity="0.9176470588235294" d="M 34.5 33 L 34.5 34 L 34.5 33 Z " /><path fill="rgb(226,27,36)" stroke="rgb(226,27,36)" stroke-width="1" opacity="0.9176470588235294" d="M 33.5 36 L 33.5 37 L 33.5 36 Z " /><path fill="rgb(226,27,36)" stroke="rgb(226,27,36)" stroke-width="1" opacity="0.9176470588235294" d="M 5.5 37 L 5.5 38 L 5.5 37 Z " /><path fill="rgb(226,27,36)" stroke="rgb(226,27,36)" stroke-width="1" opacity="0.9176470588235294" d="M 6.5 39 L 6.5 40 L 6.5 39 Z " /><path fill="rgb(226,27,36)" stroke="rgb(226,27,36)" stroke-width="1" opacity="0.9176470588235294" d="M 31.5 40 L 31.5 41 L 31.5 40 Z " /><path fill="rgb(226,27,36)" stroke="rgb(226,27,36)" stroke-width="1" opacity="0.9176470588235294" d="M 8.5 42 Q 11 43 9.5 44 Q 7 43 8.5 42 Z " /><path fill="rgb(226,27,36)" stroke="rgb(226,27,36)" stroke-width="1" opacity="0.9176470588235294" d="M 29.5 43 Q 31 44 28.5 45 Q 27 44 29.5 43 Z " /><path fill="rgb(226,27,36)" stroke="rgb(226,27,36)" stroke-width="1" opacity="0.9176470588235294" d="M 11.5 45 L 11.5 46 L 11.5 45 Z " /><path fill="rgb(226,27,36)" stroke="rgb(226,27,36)" stroke-width="1" opacity="0.9176470588235294" d="M 13.5 46 L 13.5 47 L 13.5 46 Z " /><path fill="rgb(226,27,36)" stroke="rgb(226,27,36)" stroke-width="1" opacity="0.9176470588235294" d="M 18.5 46 L 25 46.5 L 18.5 47 L 18.5 46 Z " /><path fill="rgb(226,28,37)" stroke="rgb(226,28,37)" stroke-width="1" opacity="1" d="M 13.5 14 L 23.5 16 Q 24.25 14.25 27.5 15 L 30.5 16 L 34 19.5 L 35 22.5 L 35 32.5 L 33 38.5 L 26.5 46 L 18.5 46 Q 17.75 47.75 14.5 47 L 10 45 L 10 43.5 L 5 36.5 L 5 34 L 6.5 34 L 10 37.5 L 10.5 39 L 13 36.5 L 12.5 36 L 11 35.5 L 11.5 34 L 10 33.5 L 11 31.5 L 9 31.5 L 10 28.5 L 10 23.5 L 9 21 L 5.5 22 L 6 20.5 L 10.5 15 L 13.5 14 Z M 8 36 L 8 37 L 8 36 Z " /><path fill="rgb(226,28,37)" stroke="rgb(226,28,37)" stroke-width="1" opacity="1" d="M 5.5 23 L 5.5 24 L 5.5 23 Z " /><path fill="rgb(226,28,37)" stroke="rgb(226,28,37)" stroke-width="1" opacity="1" d="M 4.5 26 L 5 29.5 L 4 29.5 L 4.5 26 Z " /><path fill="rgb(226,28,37)" stroke="rgb(226,28,37)" stroke-width="1" opacity="1" d="M 4.5 32 L 6 32.5 L 4.5 33 L 4.5 32 Z " /><path fill="rgb(226,27,37)" stroke="rgb(226,27,37)" stroke-width="1" opacity="0.11764705882352941" d="M 10.5 13 L 14 13.5 L 9.5 15 Q 8 14 10.5 13 Z " /><path fill="rgb(226,27,37)" stroke="rgb(226,27,37)" stroke-width="1" opacity="0.11764705882352941" d="M 16.5 13 L 19 13.5 L 16.5 14 L 16.5 13 Z " /><path fill="rgb(226,27,37)" stroke="rgb(226,27,37)" stroke-width="1" opacity="0.11764705882352941" d="M 21.5 14 L 24 14.5 L 21.5 15 L 21.5 14 Z " /><path fill="rgb(226,27,37)" stroke="rgb(226,27,37)" stroke-width="1" opacity="0.11764705882352941" d="M 28.5 14 L 30.5 14 L 35 18.5 L 34.5 19 L 30.5 15 Q 27.5 15.5 28.5 14 Z " /><path fill="rgb(226,27,37)" stroke="rgb(226,27,37)" stroke-width="1" opacity="0.11764705882352941" d="M 7.5 15 Q 9 16 6.5 17 Q 5 16 7.5 15 Z " /><path fill="rgb(226,27,37)" stroke="rgb(226,27,37)" stroke-width="1" opacity="0.11764705882352941" d="M 5.5 18 L 5 19.5 L 4.5 21 L 4 19.5 L 5.5 18 Z " /><path fill="rgb(226,27,37)" stroke="rgb(226,27,37)" stroke-width="1" opacity="0.11764705882352941" d="M 35.5 20 L 36 21.5 L 35 21.5 L 35.5 20 Z " /><path fill="rgb(226,27,37)" stroke="rgb(226,27,37)" stroke-width="1" opacity="0.11764705882352941" d="M 3.5 22 L 4 23.5 L 3 23.5 L 3.5 22 Z " /><path fill="rgb(226,27,37)" stroke="rgb(226,27,37)" stroke-width="1" opacity="0.11764705882352941" d="M 36.5 24 L 37 28.5 L 36 28.5 L 36.5 24 Z " /><path fill="rgb(226,27,37)" stroke="rgb(226,27,37)" stroke-width="1" opacity="0.11764705882352941" d="M 2.5 26 L 3 30.5 L 2 30.5 L 2.5 26 Z " /><path fill="rgb(226,27,37)" stroke="rgb(226,27,37)" stroke-width="1" opacity="0.11764705882352941" d="M 35.5 32 L 36 34.5 L 35 34.5 L 35.5 32 Z " /><path fill="rgb(226,27,37)" stroke="rgb(226,27,37)" stroke-width="1" opacity="0.11764705882352941" d="M 3.5 33 L 4 34.5 L 3 34.5 L 3.5 33 Z " /><path fill="rgb(226,27,37)" stroke="rgb(226,27,37)" stroke-width="1" opacity="0.11764705882352941" d="M 4.5 36 L 5 37.5 L 4 37.5 L 4.5 36 Z " /><path fill="rgb(226,27,37)" stroke="rgb(226,27,37)" stroke-width="1" opacity="0.11764705882352941" d="M 34.5 36 L 35 37.5 Q 32.67 43.67 27.5 47 Q 24.33 49.33 17.5 48 L 17.5 47 L 25.5 47 L 32 41.5 L 34.5 36 Z " /><path fill="rgb(226,27,37)" stroke="rgb(226,27,37)" stroke-width="1" opacity="0.11764705882352941" d="M 5.5 39 L 5.5 40 L 5.5 39 Z " /><path fill="rgb(226,27,37)" stroke="rgb(226,27,37)" stroke-width="1" opacity="0.11764705882352941" d="M 6.5 41 Q 9 42 7.5 43 Q 5 42 6.5 41 Z " /><path fill="rgb(226,27,37)" stroke="rgb(226,27,37)" stroke-width="1" opacity="0.11764705882352941" d="M 8.5 44 Q 10.5 47 15 47.5 L 12.5 48 L 8 44.5 L 8.5 44 Z " /><path fill="rgb(226,24,34)" stroke="rgb(226,24,34)" stroke-width="1" opacity="1" d="M 4.5 24 L 5 25.5 L 4 25.5 L 4.5 24 Z " /><path fill="rgb(226,24,34)" stroke="rgb(226,24,34)" stroke-width="1" opacity="1" d="M 9.5 24 L 9.5 25 L 9.5 24 Z " /><path fill="rgb(226,24,34)" stroke="rgb(226,24,34)" stroke-width="1" opacity="1" d="M 9.5 27 L 10 28.5 L 9 28.5 L 9.5 27 Z " /><path fill="rgb(226,24,34)" stroke="rgb(226,24,34)" stroke-width="1" opacity="1" d="M 4.5 31 L 4.5 32 L 4.5 31 Z " /><path fill="rgb(226,24,34)" stroke="rgb(226,24,34)" stroke-width="1" opacity="1" d="M 10.5 32 L 10.5 33 L 10.5 32 Z " /><path fill="rgb(226,24,34)" stroke="rgb(226,24,34)" stroke-width="1" opacity="1" d="M 5.5 33 L 5.5 34 L 5.5 33 Z " /><path fill="rgb(226,24,34)" stroke="rgb(226,24,34)" stroke-width="1" opacity="1" d="M 11.5 34 L 11.5 35 L 11.5 34 Z " /><path fill="rgb(249,215,217)" stroke="rgb(249,215,217)" stroke-width="1" opacity="1" d="M 7.5 22 L 9 22.5 Q 6.75 23.75 8 28.5 L 11 36.5 L 9.5 36 Q 7.25 36.75 8 34.5 L 6 32.5 L 5 27.5 Q 6.75 26.75 6 23.5 L 7.5 22 Z " /><path fill="rgb(235,102,109)" stroke="rgb(235,102,109)" stroke-width="1" opacity="1" d="M 7.5 21 L 9 21.5 L 6.5 23 Q 5 22 7.5 21 Z " /><path fill="rgb(235,102,109)" stroke="rgb(235,102,109)" stroke-width="1" opacity="1" d="M 8.5 23 L 9 28.5 L 8 28.5 L 8.5 23 Z " /><path fill="rgb(235,102,109)" stroke="rgb(235,102,109)" stroke-width="1" opacity="1" d="M 5.5 24 L 6 26.5 L 5 26.5 L 5.5 24 Z " /><path fill="rgb(235,102,109)" stroke="rgb(235,102,109)" stroke-width="1" opacity="1" d="M 5.5 30 L 6 31.5 L 5 31.5 L 5.5 30 Z " /><path fill="rgb(235,102,109)" stroke="rgb(235,102,109)" stroke-width="1" opacity="1" d="M 9.5 32 L 9.5 33 L 9.5 32 Z " /><path fill="rgb(235,102,109)" stroke="rgb(235,102,109)" stroke-width="1" opacity="1" d="M 6.5 33 Q 9 34 7.5 35 Q 5 34 6.5 33 Z " /><path fill="rgb(235,102,109)" stroke="rgb(235,102,109)" stroke-width="1" opacity="1" d="M 10.5 34 L 10.5 35 L 10.5 34 Z " /><path fill="rgb(235,102,109)" stroke="rgb(235,102,109)" stroke-width="1" opacity="1" d="M 9.5 36 L 10.5 37 L 12 36.5 Q 12.75 38.75 10.5 38 Q 8 37 9.5 36 Z " /><path fill="rgb(226,24,33)" stroke="rgb(226,24,33)" stroke-width="1" opacity="1" d="M 9.5 25 L 10 26.5 L 9 26.5 L 9.5 25 Z " /><path fill="rgb(225,28,37)" stroke="rgb(225,28,37)" stroke-width="1" opacity="0.5372549019607843" d="M 14.5 13 L 16 13.5 L 14.5 14 L 14.5 13 Z " /><path fill="rgb(225,28,37)" stroke="rgb(225,28,37)" stroke-width="1" opacity="0.5372549019607843" d="M 10.5 14 L 10.5 15 L 10.5 14 Z " /><path fill="rgb(225,28,37)" stroke="rgb(225,28,37)" stroke-width="1" opacity="0.5372549019607843" d="M 19.5 14 L 21 14.5 L 19.5 15 L 19.5 14 Z " /><path fill="rgb(225,28,37)" stroke="rgb(225,28,37)" stroke-width="1" opacity="0.5372549019607843" d="M 24.5 14 L 28 14.5 L 24.5 15 L 24.5 14 Z " /><path fill="rgb(225,28,37)" stroke="rgb(225,28,37)" stroke-width="1" opacity="0.5372549019607843" d="M 8.5 15 L 9 15.5 L 6.5 18 L 6 17.5 L 8.5 15 Z " /><path fill="rgb(225,28,37)" stroke="rgb(225,28,37)" stroke-width="1" opacity="0.5372549019607843" d="M 30.5 15 L 30.5 16 L 30.5 15 Z " /><path fill="rgb(225,28,37)" stroke="rgb(225,28,37)" stroke-width="1" opacity="0.5372549019607843" d="M 33.5 18 L 35 20.5 L 34 20.5 L 33.5 18 Z " /><path fill="rgb(225,28,37)" stroke="rgb(225,28,37)" stroke-width="1" opacity="0.5372549019607843" d="M 5.5 19 L 5.5 20 L 5.5 19 Z " /><path fill="rgb(225,28,37)" stroke="rgb(225,28,37)" stroke-width="1" opacity="0.5372549019607843" d="M 4.5 21 L 4.5 22 L 4.5 21 Z " /><path fill="rgb(225,28,37)" stroke="rgb(225,28,37)" stroke-width="1" opacity="0.5372549019607843" d="M 35.5 22 L 36 31.5 L 35 31.5 L 35.5 22 Z " /><path fill="rgb(225,28,37)" stroke="rgb(225,28,37)" stroke-width="1" opacity="0.5372549019607843" d="M 3.5 24 L 4 26.5 L 3 26.5 L 3.5 24 Z " /><path fill="rgb(225,28,37)" stroke="rgb(225,28,37)" stroke-width="1" opacity="0.5372549019607843" d="M 3.5 29 L 4 32.5 L 3 32.5 L 3.5 29 Z " /><path fill="rgb(225,28,37)" stroke="rgb(225,28,37)" stroke-width="1" opacity="0.5372549019607843" d="M 34.5 34 L 35 35.5 L 34 35.5 L 34.5 34 Z " /><path fill="rgb(225,28,37)" stroke="rgb(225,28,37)" stroke-width="1" opacity="0.5372549019607843" d="M 4.5 35 L 4.5 36 L 4.5 35 Z " /><path fill="rgb(225,28,37)" stroke="rgb(225,28,37)" stroke-width="1" opacity="0.5372549019607843" d="M 33.5 37 L 33.5 38 L 33.5 37 Z " /><path fill="rgb(225,28,37)" stroke="rgb(225,28,37)" stroke-width="1" opacity="0.5372549019607843" d="M 5.5 38 L 5.5 39 L 5.5 38 Z " /><path fill="rgb(225,28,37)" stroke="rgb(225,28,37)" stroke-width="1" opacity="0.5372549019607843" d="M 32.5 39 L 32.5 40 L 32.5 39 Z " /><path fill="rgb(225,28,37)" stroke="rgb(225,28,37)" stroke-width="1" opacity="0.5372549019607843" d="M 6.5 40 Q 9 41 7.5 42 Q 5 41 6.5 40 Z " /><path fill="rgb(225,28,37)" stroke="rgb(225,28,37)" stroke-width="1" opacity="0.5372549019607843" d="M 31.5 41 Q 33 42 30.5 43 Q 29 42 31.5 41 Z " /><path fill="rgb(225,28,37)" stroke="rgb(225,28,37)" stroke-width="1" opacity="0.5372549019607843" d="M 8.5 43 L 11 45.5 L 10.5 46 L 8 43.5 L 8.5 43 Z " /><path fill="rgb(225,28,37)" stroke="rgb(225,28,37)" stroke-width="1" opacity="0.5372549019607843" d="M 27.5 45 L 27.5 46 L 27.5 45 Z " /><path fill="rgb(225,28,37)" stroke="rgb(225,28,37)" stroke-width="1" opacity="0.5372549019607843" d="M 12.5 46 L 12.5 47 L 12.5 46 Z " /><path fill="rgb(225,28,37)" stroke="rgb(225,28,37)" stroke-width="1" opacity="0.5372549019607843" d="M 25.5 46 L 25.5 47 L 25.5 46 Z " /><path fill="rgb(225,28,37)" stroke="rgb(225,28,37)" stroke-width="1" opacity="0.5372549019607843" d="M 15.5 47 L 17 47.5 L 15.5 48 L 15.5 47 Z " /><path fill="rgb(226,26,35)" stroke="rgb(226,26,35)" stroke-width="1" opacity="1" d="M 5.5 22 L 5.5 23 L 5.5 22 Z " /><path fill="rgb(226,26,35)" stroke="rgb(226,26,35)" stroke-width="1" opacity="1" d="M 9.5 23 L 9.5 24 L 9.5 23 Z " /><path fill="rgb(226,26,35)" stroke="rgb(226,26,35)" stroke-width="1" opacity="1" d="M 4.5 30 L 4.5 31 L 4.5 30 Z " /><path fill="rgb(226,26,35)" stroke="rgb(226,26,35)" stroke-width="1" opacity="1" d="M 10.5 31 L 10.5 32 L 10.5 31 Z " /><path fill="rgb(226,26,35)" stroke="rgb(226,26,35)" stroke-width="1" opacity="1" d="M 7.5 36 L 7.5 37 L 7.5 36 Z " /><path fill="rgb(226,26,35)" stroke="rgb(226,26,35)" stroke-width="1" opacity="1" d="M 12.5 36 L 12.5 37 L 12.5 36 Z " /><path fill="rgb(226,26,35)" stroke="rgb(226,26,35)" stroke-width="1" opacity="1" d="M 10.5 38 L 10.5 39 L 10.5 38 Z " /></svg>