<svg width="48" height="48" version="1.1" xmlns="http://www.w3.org/2000/svg" desc="Created with imagetracer.js version 1.2.6" ><path fill="rgb(252,251,245)" stroke="rgb(252,251,245)" stroke-width="1" opacity="1" d="M 10.5 1 L 11 3.5 L 10 3.5 L 10.5 1 Z " /><path fill="rgb(252,251,245)" stroke="rgb(252,251,245)" stroke-width="1" opacity="1" d="M 37.5 2 L 38 3.5 L 37 3.5 L 37.5 2 Z " /><path fill="rgb(252,251,245)" stroke="rgb(252,251,245)" stroke-width="1" opacity="1" d="M 45.5 8 L 45.5 9 L 45.5 8 Z " /><path fill="rgb(252,251,245)" stroke="rgb(252,251,245)" stroke-width="1" opacity="1" d="M 5.5 10 Q 8 11 6.5 12 Q 4 11 5.5 10 Z " /><path fill="rgb(252,251,245)" stroke="rgb(252,251,245)" stroke-width="1" opacity="1" d="M 30.5 11 L 31 43.5 L 30 43.5 L 30.5 11 Z " /><path fill="rgb(252,251,245)" stroke="rgb(252,251,245)" stroke-width="1" opacity="1" d="M 41.5 11 L 41.5 12 L 41.5 11 Z " /><path fill="rgb(252,251,245)" stroke="rgb(252,251,245)" stroke-width="1" opacity="1" d="M 2.5 12 L 2.5 13 L 2.5 12 Z " /><path fill="rgb(252,251,245)" stroke="rgb(252,251,245)" stroke-width="1" opacity="1" d="M 12.5 12 L 13 45.5 L 12 45.5 L 12.5 12 Z " /><path fill="rgb(252,251,245)" stroke="rgb(252,251,245)" stroke-width="1" opacity="1" d="M 44.5 13 L 44.5 14 L 44.5 13 Z " /><path fill="rgb(252,251,245)" stroke="rgb(252,251,245)" stroke-width="1" opacity="1" d="M 4.5 14 L 4.5 15 L 4.5 14 Z " /><path fill="rgb(252,251,245)" stroke="rgb(252,251,245)" stroke-width="1" opacity="1" d="M 8.5 14 L 8.5 15 L 8.5 14 Z " /><path fill="rgb(252,251,245)" stroke="rgb(252,251,245)" stroke-width="1" opacity="1" d="M 17.5 14 L 18 46.5 L 17 46.5 L 17.5 14 Z " /><path fill="rgb(252,251,245)" stroke="rgb(252,251,245)" stroke-width="1" opacity="1" d="M 39.5 14 L 39.5 15 L 39.5 14 Z " /><path fill="rgb(252,251,245)" stroke="rgb(252,251,245)" stroke-width="1" opacity="1" d="M 25.5 46 L 25.5 47 L 25.5 46 Z " /><path fill="rgb(253,254,254)" stroke="rgb(253,254,254)" stroke-width="1" opacity="1" d="M 37.5 1 L 37.5 2 L 37.5 1 Z " /><path fill="rgb(253,254,254)" stroke="rgb(253,254,254)" stroke-width="1" opacity="1" d="M 11.5 4 L 37 4.5 L 11.5 5 L 11.5 4 Z " /><path fill="rgb(253,254,254)" stroke="rgb(253,254,254)" stroke-width="1" opacity="1" d="M 3.5 6 L 3.5 7 L 3.5 6 Z " /><path fill="rgb(253,254,254)" stroke="rgb(253,254,254)" stroke-width="1" opacity="1" d="M 44.5 6 L 44.5 7 L 44.5 6 Z " /><path fill="rgb(253,254,254)" stroke="rgb(253,254,254)" stroke-width="1" opacity="1" d="M 7.5 10 L 7.5 11 L 7.5 10 Z " /><path fill="rgb(253,254,254)" stroke="rgb(253,254,254)" stroke-width="1" opacity="1" d="M 13.5 10 Q 15 11 12.5 12 Q 11 11 13.5 10 Z " /><path fill="rgb(253,254,254)" stroke="rgb(253,254,254)" stroke-width="1" opacity="1" d="M 20.5 10 L 20.5 11 L 20.5 10 Z " /><path fill="rgb(253,254,254)" stroke="rgb(253,254,254)" stroke-width="1" opacity="1" d="M 32.5 10 L 32.5 11 L 32.5 10 Z " /><path fill="rgb(253,254,254)" stroke="rgb(253,254,254)" stroke-width="1" opacity="1" d="M 36.5 10 L 36.5 11 L 36.5 10 Z " /><path fill="rgb(253,254,254)" stroke="rgb(253,254,254)" stroke-width="1" opacity="1" d="M 45.5 12 L 45.5 13 L 45.5 12 Z " /><path fill="rgb(253,254,254)" stroke="rgb(253,254,254)" stroke-width="1" opacity="1" d="M 43.5 14 L 43.5 15 L 43.5 14 Z " /><path fill="rgb(253,254,254)" stroke="rgb(253,254,254)" stroke-width="1" opacity="1" d="M 12.5 46 Q 15 47 13.5 48 Q 11 47 12.5 46 Z " /><path fill="rgb(253,254,254)" stroke="rgb(253,254,254)" stroke-width="1" opacity="1" d="M 17.5 47 L 17.5 48 L 17.5 47 Z " /><path fill="rgb(253,254,254)" stroke="rgb(253,254,254)" stroke-width="1" opacity="1" d="M 25.5 47 L 25.5 48 L 25.5 47 Z " /><path fill="rgb(253,254,254)" stroke="rgb(253,254,254)" stroke-width="1" opacity="1" d="M 27.5 47 L 29 47.5 L 27.5 48 L 27.5 47 Z " /><path fill="rgb(254,255,255)" stroke="rgb(254,255,255)" stroke-width="1" opacity="1" d="M 37.5 4 L 42 5.5 L 7.5 6 L 7.5 5 L 36.5 5 L 37.5 4 Z " /><path fill="rgb(254,255,255)" stroke="rgb(254,255,255)" stroke-width="1" opacity="1" d="M 2.5 7 L 2.5 8 L 2.5 7 Z " /><path fill="rgb(254,255,255)" stroke="rgb(254,255,255)" stroke-width="1" opacity="1" d="M 6.5 9 L 7 10.5 L 6 10.5 L 6.5 9 Z " /><path fill="rgb(254,255,255)" stroke="rgb(254,255,255)" stroke-width="1" opacity="1" d="M 12.5 10 L 12.5 11 L 12.5 10 Z " /><path fill="rgb(254,255,255)" stroke="rgb(254,255,255)" stroke-width="1" opacity="1" d="M 14.5 10 L 20 10.5 L 14.5 11 L 14.5 10 Z " /><path fill="rgb(254,255,255)" stroke="rgb(254,255,255)" stroke-width="1" opacity="1" d="M 23.5 10 L 30 10.5 L 23.5 11 L 23.5 10 Z " /><path fill="rgb(254,255,255)" stroke="rgb(254,255,255)" stroke-width="1" opacity="1" d="M 33.5 10 L 35 10.5 L 33.5 11 L 33.5 10 Z " /><path fill="rgb(254,255,255)" stroke="rgb(254,255,255)" stroke-width="1" opacity="1" d="M 40.5 10 L 40.5 11 L 40.5 10 Z " /><path fill="rgb(254,255,255)" stroke="rgb(254,255,255)" stroke-width="1" opacity="1" d="M 21.5 11 L 21.5 12 L 21.5 11 Z " /><path fill="rgb(254,255,255)" stroke="rgb(254,255,255)" stroke-width="1" opacity="1" d="M 36.5 11 L 36.5 12 L 36.5 11 Z " /><path fill="rgb(254,255,255)" stroke="rgb(254,255,255)" stroke-width="1" opacity="1" d="M 2.5 13 Q 5 14 3.5 15 Q 1 14 2.5 13 Z " /><path fill="rgb(254,255,255)" stroke="rgb(254,255,255)" stroke-width="1" opacity="1" d="M 10.5 13 L 10.5 14 L 10.5 13 Z " /><path fill="rgb(254,255,255)" stroke="rgb(254,255,255)" stroke-width="1" opacity="1" d="M 37.5 13 Q 40 14 38.5 15 Q 36 14 37.5 13 Z " /><path fill="rgb(254,255,255)" stroke="rgb(254,255,255)" stroke-width="1" opacity="1" d="M 16.5 14 L 16.5 15 L 16.5 14 Z " /><path fill="rgb(254,255,255)" stroke="rgb(254,255,255)" stroke-width="1" opacity="1" d="M 26.5 14 L 26.5 15 L 26.5 14 Z " /><path fill="rgb(254,255,255)" stroke="rgb(254,255,255)" stroke-width="1" opacity="1" d="M 21.5 43 L 21.5 44 L 21.5 43 Z " /><path fill="rgb(254,255,255)" stroke="rgb(254,255,255)" stroke-width="1" opacity="1" d="M 31.5 43 L 31.5 44 L 31.5 43 Z " /><path fill="rgb(254,255,255)" stroke="rgb(254,255,255)" stroke-width="1" opacity="1" d="M 12.5 47 L 12.5 48 L 12.5 47 Z " /><path fill="rgb(254,255,255)" stroke="rgb(254,255,255)" stroke-width="1" opacity="1" d="M 14.5 47 L 16 47.5 L 14.5 48 L 14.5 47 Z " /><path fill="rgb(254,255,255)" stroke="rgb(254,255,255)" stroke-width="1" opacity="1" d="M 18.5 47 L 18.5 48 L 18.5 47 Z " /><path fill="rgb(254,255,255)" stroke="rgb(254,255,255)" stroke-width="1" opacity="1" d="M 24.5 47 L 24.5 48 L 24.5 47 Z " /><path fill="rgb(254,255,255)" stroke="rgb(254,255,255)" stroke-width="1" opacity="1" d="M 33.5 47 L 35 47.5 L 33.5 48 L 33.5 47 Z " /><path fill="rgb(254,254,254)" stroke="rgb(254,254,254)" stroke-width="1" opacity="0.4588235294117647" d="M 1.5 0 L 2 47.5 L 1 47.5 L 1.5 0 Z " /><path fill="rgb(254,254,254)" stroke="rgb(254,254,254)" stroke-width="1" opacity="0.4588235294117647" d="M 46.5 0 L 47 47.5 L 46 47.5 L 46.5 0 Z " /><path fill="rgb(0,0,0)" stroke="rgb(0,0,0)" stroke-width="1" opacity="0" d="M 0.5 0 L 1 47.5 L 0 47.5 L 0.5 0 Z " /><path fill="rgb(0,0,0)" stroke="rgb(0,0,0)" stroke-width="1" opacity="0" d="M 47.5 0 L 48 47.5 L 47 47.5 L 47.5 0 Z " /><path fill="rgb(243,217,157)" stroke="rgb(243,217,157)" stroke-width="1" opacity="1" d="M 12.5 1 L 36 1.5 L 12.5 2 L 12.5 1 Z " /><path fill="rgb(243,217,157)" stroke="rgb(243,217,157)" stroke-width="1" opacity="1" d="M 5.5 6 L 5.5 7 L 5.5 6 Z " /><path fill="rgb(243,217,157)" stroke="rgb(243,217,157)" stroke-width="1" opacity="1" d="M 42.5 6 L 42.5 7 L 42.5 6 Z " /><path fill="rgb(243,217,157)" stroke="rgb(243,217,157)" stroke-width="1" opacity="1" d="M 29.5 11 L 29.5 12 L 29.5 11 Z " /><path fill="rgb(243,217,157)" stroke="rgb(243,217,157)" stroke-width="1" opacity="1" d="M 42.5 11 L 42.5 12 L 42.5 11 Z " /><path fill="rgb(243,217,157)" stroke="rgb(243,217,157)" stroke-width="1" opacity="1" d="M 18.5 46 L 18.5 47 L 18.5 46 Z " /><path fill="rgb(230,177,54)" stroke="rgb(230,177,54)" stroke-width="1" opacity="1" d="M 11.5 2 L 36 2.5 L 11.5 3 L 11.5 2 Z " /><path fill="rgb(230,177,54)" stroke="rgb(230,177,54)" stroke-width="1" opacity="1" d="M 4 7 L 43.5 7 L 44 8.5 L 45 11.5 Q 44.5 14.5 40.5 14 L 38 13 Q 36.88 10.33 39.5 11 Q 40.42 12.75 43 12 Q 43.75 9 41.5 8 L 6.5 8 L 4 10.5 Q 4.5 12.5 7.5 12 L 9.5 11 L 10 11.5 L 7.5 14 Q 3.5 14.5 3 11.5 L 4 7 Z " /><path fill="rgb(230,177,54)" stroke="rgb(230,177,54)" stroke-width="1" opacity="1" d="M 14 12 L 19.5 12 L 20 12.5 L 20 44.5 Q 20.04 45.38 23 45 L 23 12.5 L 23.5 12 L 29 12 L 29 43.5 L 30.5 45 Q 33.25 45.25 33 44.5 L 33 12.5 L 34 12.5 L 34 45.5 L 33.5 46 L 28 46 L 28 13.5 Q 27.96 12.63 25 13 L 25 45.5 L 24.5 46 L 18 46 L 18 13.5 Q 17.96 12.63 15 13 L 14.5 46 L 14 12 Z " /><path fill="rgb(247,233,198)" stroke="rgb(247,233,198)" stroke-width="1" opacity="0.9882352941176471" d="M 3.5 7 L 3.5 8 L 3.5 7 Z " /><path fill="rgb(247,233,198)" stroke="rgb(247,233,198)" stroke-width="1" opacity="0.9882352941176471" d="M 44.5 7 L 44.5 8 L 44.5 7 Z " /><path fill="rgb(247,233,198)" stroke="rgb(247,233,198)" stroke-width="1" opacity="0.9882352941176471" d="M 42.5 9 L 42.5 10 L 42.5 9 Z " /><path fill="rgb(247,233,198)" stroke="rgb(247,233,198)" stroke-width="1" opacity="0.9882352941176471" d="M 45.5 9 L 45.5 10 L 45.5 9 Z " /><path fill="rgb(247,233,198)" stroke="rgb(247,233,198)" stroke-width="1" opacity="0.9882352941176471" d="M 10.5 10 L 10.5 11 L 10.5 10 Z " /><path fill="rgb(247,233,198)" stroke="rgb(247,233,198)" stroke-width="1" opacity="0.9882352941176471" d="M 39.5 10 Q 42 11 40.5 12 Q 38 11 39.5 10 Z " /><path fill="rgb(247,233,198)" stroke="rgb(247,233,198)" stroke-width="1" opacity="0.9882352941176471" d="M 2.5 11 L 2.5 12 L 2.5 11 Z " /><path fill="rgb(247,233,198)" stroke="rgb(247,233,198)" stroke-width="1" opacity="0.9882352941176471" d="M 7.5 11 L 7.5 12 L 7.5 11 Z " /><path fill="rgb(247,233,198)" stroke="rgb(247,233,198)" stroke-width="1" opacity="0.9882352941176471" d="M 32.5 11 L 32.5 12 L 32.5 11 Z " /><path fill="rgb(247,233,198)" stroke="rgb(247,233,198)" stroke-width="1" opacity="0.9882352941176471" d="M 20.5 12 L 21 43.5 L 20 43.5 L 20.5 12 Z " /><path fill="rgb(247,233,198)" stroke="rgb(247,233,198)" stroke-width="1" opacity="0.9882352941176471" d="M 38.5 13 L 38.5 14 L 38.5 13 Z " /><path fill="rgb(247,233,198)" stroke="rgb(247,233,198)" stroke-width="1" opacity="0.9882352941176471" d="M 7.5 14 L 7.5 15 L 7.5 14 Z " /><path fill="rgb(247,233,198)" stroke="rgb(247,233,198)" stroke-width="1" opacity="0.9882352941176471" d="M 40.5 14 L 42 14.5 L 40.5 15 L 40.5 14 Z " /><path fill="rgb(247,233,198)" stroke="rgb(247,233,198)" stroke-width="1" opacity="0.9882352941176471" d="M 15.5 46 L 15.5 47 L 15.5 46 Z " /><path fill="rgb(250,243,224)" stroke="rgb(250,243,224)" stroke-width="1" opacity="0.996078431372549" d="M 4.5 6 L 4.5 7 L 4.5 6 Z " /><path fill="rgb(250,243,224)" stroke="rgb(250,243,224)" stroke-width="1" opacity="0.996078431372549" d="M 43.5 6 L 43.5 7 L 43.5 6 Z " /><path fill="rgb(250,243,224)" stroke="rgb(250,243,224)" stroke-width="1" opacity="0.996078431372549" d="M 2.5 8 L 2.5 9 L 2.5 8 Z " /><path fill="rgb(250,243,224)" stroke="rgb(250,243,224)" stroke-width="1" opacity="0.996078431372549" d="M 5.5 9 L 5.5 10 L 5.5 9 Z " /><path fill="rgb(250,243,224)" stroke="rgb(250,243,224)" stroke-width="1" opacity="0.996078431372549" d="M 42.5 10 L 42.5 11 L 42.5 10 Z " /><path fill="rgb(250,243,224)" stroke="rgb(250,243,224)" stroke-width="1" opacity="0.996078431372549" d="M 20.5 11 L 20.5 12 L 20.5 11 Z " /><path fill="rgb(250,243,224)" stroke="rgb(250,243,224)" stroke-width="1" opacity="0.996078431372549" d="M 22.5 11 L 23 43.5 L 22 43.5 L 22.5 11 Z " /><path fill="rgb(250,243,224)" stroke="rgb(250,243,224)" stroke-width="1" opacity="0.996078431372549" d="M 45.5 11 L 45.5 12 L 45.5 11 Z " /><path fill="rgb(250,243,224)" stroke="rgb(250,243,224)" stroke-width="1" opacity="0.996078431372549" d="M 10.5 12 Q 12 13 9.5 14 Q 8 13 10.5 12 Z " /><path fill="rgb(250,243,224)" stroke="rgb(250,243,224)" stroke-width="1" opacity="0.996078431372549" d="M 37.5 12 L 37.5 13 L 37.5 12 Z " /><path fill="rgb(250,243,224)" stroke="rgb(250,243,224)" stroke-width="1" opacity="0.996078431372549" d="M 3.5 13 L 3.5 14 L 3.5 13 Z " /><path fill="rgb(250,243,224)" stroke="rgb(250,243,224)" stroke-width="1" opacity="0.996078431372549" d="M 5.5 14 L 5.5 15 L 5.5 14 Z " /><path fill="rgb(250,243,224)" stroke="rgb(250,243,224)" stroke-width="1" opacity="0.996078431372549" d="M 25.5 14 L 26 45.5 L 25 45.5 L 25.5 14 Z " /><path fill="rgb(250,243,224)" stroke="rgb(250,243,224)" stroke-width="1" opacity="0.996078431372549" d="M 42.5 14 L 42.5 15 L 42.5 14 Z " /><path fill="rgb(250,243,224)" stroke="rgb(250,243,224)" stroke-width="1" opacity="0.996078431372549" d="M 27.5 46 L 27.5 47 L 27.5 46 Z " /><path fill="rgb(245,226,181)" stroke="rgb(245,226,181)" stroke-width="1" opacity="0.996078431372549" d="M 36.5 1 L 36.5 2 L 36.5 1 Z " /><path fill="rgb(245,226,181)" stroke="rgb(245,226,181)" stroke-width="1" opacity="0.996078431372549" d="M 2.5 9 L 2.5 10 L 2.5 9 Z " /><path fill="rgb(245,226,181)" stroke="rgb(245,226,181)" stroke-width="1" opacity="0.996078431372549" d="M 8.5 10 L 8.5 11 L 8.5 10 Z " /><path fill="rgb(245,226,181)" stroke="rgb(245,226,181)" stroke-width="1" opacity="0.996078431372549" d="M 37.5 10 L 37.5 11 L 37.5 10 Z " /><path fill="rgb(245,226,181)" stroke="rgb(245,226,181)" stroke-width="1" opacity="0.996078431372549" d="M 45.5 10 L 45.5 11 L 45.5 10 Z " /><path fill="rgb(245,226,181)" stroke="rgb(245,226,181)" stroke-width="1" opacity="0.996078431372549" d="M 34.5 11 L 34.5 12 L 34.5 11 Z " /><path fill="rgb(245,226,181)" stroke="rgb(245,226,181)" stroke-width="1" opacity="0.996078431372549" d="M 6.5 14 L 6.5 15 L 6.5 14 Z " /><path fill="rgb(245,226,181)" stroke="rgb(245,226,181)" stroke-width="1" opacity="0.996078431372549" d="M 27.5 14 L 28 45.5 L 27 45.5 L 27.5 14 Z " /><path fill="rgb(245,226,181)" stroke="rgb(245,226,181)" stroke-width="1" opacity="0.996078431372549" d="M 34.5 46 L 34.5 47 L 34.5 46 Z " /><path fill="rgb(244,221,170)" stroke="rgb(244,221,170)" stroke-width="1" opacity="0.9921568627450981" d="M 11.5 1 L 11.5 2 L 11.5 1 Z " /><path fill="rgb(244,221,170)" stroke="rgb(244,221,170)" stroke-width="1" opacity="0.9921568627450981" d="M 2.5 10 L 2.5 11 L 2.5 10 Z " /><path fill="rgb(244,221,170)" stroke="rgb(244,221,170)" stroke-width="1" opacity="0.9921568627450981" d="M 5.5 11 L 5.5 12 L 5.5 11 Z " /><path fill="rgb(244,221,170)" stroke="rgb(244,221,170)" stroke-width="1" opacity="0.9921568627450981" d="M 10.5 11 L 10.5 12 L 10.5 11 Z " /><path fill="rgb(244,221,170)" stroke="rgb(244,221,170)" stroke-width="1" opacity="0.9921568627450981" d="M 13.5 11 L 13.5 12 L 13.5 11 Z " /><path fill="rgb(244,221,170)" stroke="rgb(244,221,170)" stroke-width="1" opacity="0.9921568627450981" d="M 15.5 14 L 16 45.5 L 15 45.5 L 15.5 14 Z " /><path fill="rgb(244,221,170)" stroke="rgb(244,221,170)" stroke-width="1" opacity="0.9921568627450981" d="M 13.5 46 L 13.5 47 L 13.5 46 Z " /><path fill="rgb(240,209,137)" stroke="rgb(240,209,137)" stroke-width="1" opacity="1" d="M 11.5 3 L 11.5 4 L 11.5 3 Z " /><path fill="rgb(240,209,137)" stroke="rgb(240,209,137)" stroke-width="1" opacity="1" d="M 41.5 6 L 41.5 7 L 41.5 6 Z " /><path fill="rgb(240,209,137)" stroke="rgb(240,209,137)" stroke-width="1" opacity="1" d="M 41.5 8 L 41.5 9 L 41.5 8 Z " /><path fill="rgb(240,209,137)" stroke="rgb(240,209,137)" stroke-width="1" opacity="1" d="M 14.5 11 L 20 11.5 L 14.5 12 L 14.5 11 Z " /><path fill="rgb(240,209,137)" stroke="rgb(240,209,137)" stroke-width="1" opacity="1" d="M 23.5 11 L 29 11.5 L 23.5 12 L 23.5 11 Z " /><path fill="rgb(240,209,137)" stroke="rgb(240,209,137)" stroke-width="1" opacity="1" d="M 33.5 11 L 33.5 12 L 33.5 11 Z " /><path fill="rgb(240,209,137)" stroke="rgb(240,209,137)" stroke-width="1" opacity="1" d="M 44.5 12 Q 46 13 43.5 14 Q 42 13 44.5 12 Z " /><path fill="rgb(240,209,137)" stroke="rgb(240,209,137)" stroke-width="1" opacity="1" d="M 16.5 13 L 18 13.5 L 16.5 14 L 16.5 13 Z " /><path fill="rgb(240,209,137)" stroke="rgb(240,209,137)" stroke-width="1" opacity="1" d="M 26.5 13 L 26.5 14 L 26.5 13 Z " /><path fill="rgb(240,209,137)" stroke="rgb(240,209,137)" stroke-width="1" opacity="1" d="M 21.5 44 L 21.5 45 L 21.5 44 Z " /><path fill="rgb(240,209,137)" stroke="rgb(240,209,137)" stroke-width="1" opacity="1" d="M 31.5 44 L 31.5 45 L 31.5 44 Z " /><path fill="rgb(240,209,137)" stroke="rgb(240,209,137)" stroke-width="1" opacity="1" d="M 14.5 46 L 14.5 47 L 14.5 46 Z " /><path fill="rgb(240,209,137)" stroke="rgb(240,209,137)" stroke-width="1" opacity="1" d="M 19.5 46 L 24 46.5 L 19.5 47 L 19.5 46 Z " /><path fill="rgb(240,209,137)" stroke="rgb(240,209,137)" stroke-width="1" opacity="1" d="M 28.5 46 L 34 46.5 L 28.5 47 L 28.5 46 Z " /><path fill="rgb(237,202,118)" stroke="rgb(237,202,118)" stroke-width="1" opacity="1" d="M 36.5 2 Q 38 3 35.5 4 L 12 3.5 L 35.5 3 L 36.5 2 Z " /><path fill="rgb(237,202,118)" stroke="rgb(237,202,118)" stroke-width="1" opacity="1" d="M 6.5 6 L 41 6.5 L 6.5 7 L 6.5 6 Z " /><path fill="rgb(237,202,118)" stroke="rgb(237,202,118)" stroke-width="1" opacity="1" d="M 3.5 8 L 3.5 9 L 3.5 8 Z " /><path fill="rgb(237,202,118)" stroke="rgb(237,202,118)" stroke-width="1" opacity="1" d="M 44.5 8 L 44.5 9 L 44.5 8 Z " /><path fill="rgb(237,202,118)" stroke="rgb(237,202,118)" stroke-width="1" opacity="1" d="M 4.5 10 L 4.5 11 L 4.5 10 Z " /><path fill="rgb(237,202,118)" stroke="rgb(237,202,118)" stroke-width="1" opacity="1" d="M 3.5 12 Q 6 13 4.5 14 Q 2 13 3.5 12 Z " /><path fill="rgb(237,202,118)" stroke="rgb(237,202,118)" stroke-width="1" opacity="1" d="M 9.5 12 Q 11 13 8.5 14 Q 7 13 9.5 12 Z " /><path fill="rgb(237,202,118)" stroke="rgb(237,202,118)" stroke-width="1" opacity="1" d="M 13.5 12 L 14 45.5 L 13 45.5 L 13.5 12 Z " /><path fill="rgb(237,202,118)" stroke="rgb(237,202,118)" stroke-width="1" opacity="1" d="M 29.5 12 L 30 43.5 L 31 44.5 Q 30 46 29 43.5 L 29.5 12 Z " /><path fill="rgb(237,202,118)" stroke="rgb(237,202,118)" stroke-width="1" opacity="1" d="M 34.5 12 L 35 45.5 L 34 45.5 L 34.5 12 Z " /><path fill="rgb(237,202,118)" stroke="rgb(237,202,118)" stroke-width="1" opacity="1" d="M 15.5 13 L 15.5 14 L 15.5 13 Z " /><path fill="rgb(237,202,118)" stroke="rgb(237,202,118)" stroke-width="1" opacity="1" d="M 25.5 13 L 25.5 14 L 25.5 13 Z " /><path fill="rgb(237,202,118)" stroke="rgb(237,202,118)" stroke-width="1" opacity="1" d="M 27.5 13 L 27.5 14 L 27.5 13 Z " /><path fill="rgb(237,202,118)" stroke="rgb(237,202,118)" stroke-width="1" opacity="1" d="M 39.5 13 L 39.5 14 L 39.5 13 Z " /><path fill="rgb(237,202,118)" stroke="rgb(237,202,118)" stroke-width="1" opacity="1" d="M 20.5 44 L 20.5 45 L 20.5 44 Z " /><path fill="rgb(237,202,118)" stroke="rgb(237,202,118)" stroke-width="1" opacity="1" d="M 22.5 44 L 22.5 45 L 22.5 44 Z " /><path fill="rgb(237,202,118)" stroke="rgb(237,202,118)" stroke-width="1" opacity="1" d="M 32.5 44 L 32.5 45 L 32.5 44 Z " /><path fill="rgb(255,255,254)" stroke="rgb(255,255,254)" stroke-width="1" opacity="1" d="M 21.5 10 L 21.5 11 L 21.5 10 Z " /><path fill="rgb(255,255,254)" stroke="rgb(255,255,254)" stroke-width="1" opacity="1" d="M 35.5 11 L 36 46.5 L 35 46.5 L 35.5 11 Z " /><path fill="rgb(255,255,255)" stroke="rgb(255,255,255)" stroke-width="1" opacity="1" d="M 2 0 L 45.5 0 L 46 0.5 L 46 7.5 L 45 7.5 Q 45.83 4.88 42.5 6 Q 41.37 4 38 5 Q 38.5 1.13 37.5 1 L 10 1 Q 9.25 3.58 11 4.5 L 3.5 6 L 2.5 7 L 2 0 Z " /><path fill="rgb(255,255,255)" stroke="rgb(255,255,255)" stroke-width="1" opacity="1" d="M 7.5 9 L 41.5 9 L 42 10.5 L 40.5 10 Q 36.5 9 35.5 11 Q 34.58 9.25 32 10 L 31.5 43 L 31 11.5 L 29.5 10 L 23.5 10 L 22.5 11 L 21.5 10 L 12 10 L 12 47.5 L 11.5 48 L 2 48 L 2.5 14 Q 3.75 16.25 8.5 15 L 11 14 L 11 10 L 7.5 10 L 7.5 9 Z " /><path fill="rgb(255,255,255)" stroke="rgb(255,255,255)" stroke-width="1" opacity="1" d="M 21.5 12 L 22 42.5 L 21 42.5 L 21.5 12 Z " /><path fill="rgb(255,255,255)" stroke="rgb(255,255,255)" stroke-width="1" opacity="1" d="M 36.5 12 L 38.5 15 Q 44.25 16.25 45.5 13 L 46 48 L 35 47.5 L 36 46.5 L 36.5 12 Z " /><path fill="rgb(255,255,255)" stroke="rgb(255,255,255)" stroke-width="1" opacity="1" d="M 16.5 15 L 17 47.5 L 16 47.5 L 16.5 15 Z " /><path fill="rgb(255,255,255)" stroke="rgb(255,255,255)" stroke-width="1" opacity="1" d="M 26.5 15 L 27 47.5 L 26 47.5 L 26.5 15 Z " /><path fill="rgb(255,255,255)" stroke="rgb(255,255,255)" stroke-width="1" opacity="1" d="M 19.5 47 L 24 47.5 L 19.5 48 L 19.5 47 Z " /><path fill="rgb(255,255,255)" stroke="rgb(255,255,255)" stroke-width="1" opacity="1" d="M 29.5 47 L 33 47.5 L 29.5 48 L 29.5 47 Z " /><path fill="rgb(240,213,149)" stroke="rgb(240,213,149)" stroke-width="1" opacity="1" d="M 36.5 3 L 36.5 4 L 36.5 3 Z " /><path fill="rgb(240,213,149)" stroke="rgb(240,213,149)" stroke-width="1" opacity="1" d="M 7.5 8 L 41 8.5 L 7.5 9 L 7.5 8 Z " /><path fill="rgb(240,213,149)" stroke="rgb(240,213,149)" stroke-width="1" opacity="1" d="M 37.5 11 L 37.5 12 L 37.5 11 Z " /><path fill="rgb(240,213,149)" stroke="rgb(240,213,149)" stroke-width="1" opacity="1" d="M 24.5 46 L 24.5 47 L 24.5 46 Z " /><path fill="rgb(241,212,146)" stroke="rgb(241,212,146)" stroke-width="1" opacity="1" d="M 6.5 8 L 6.5 9 L 6.5 8 Z " /><path fill="rgb(241,212,146)" stroke="rgb(241,212,146)" stroke-width="1" opacity="1" d="M 9.5 10 L 9.5 11 L 9.5 10 Z " /><path fill="rgb(241,212,146)" stroke="rgb(241,212,146)" stroke-width="1" opacity="1" d="M 38.5 10 L 38.5 11 L 38.5 10 Z " /><path fill="rgb(241,212,146)" stroke="rgb(241,212,146)" stroke-width="1" opacity="1" d="M 32.5 12 L 32.5 13 L 32.5 12 Z " /><path fill="rgb(241,213,147)" stroke="rgb(241,213,147)" stroke-width="1" opacity="1" d="M 32.5 13 L 33 43.5 L 32 43.5 L 32.5 13 Z " /></svg>