<svg width="16" height="16" version="1.1" xmlns="http://www.w3.org/2000/svg" desc="Created with imagetracer.js version 1.2.6" ><path fill="rgb(0,0,0)" stroke="rgb(0,0,0)" stroke-width="1" opacity="0" d="M 4 0 L 15.5 0 Q 16.38 0.04 16 3 L 4.5 3 Q 3.63 2.96 4 0 Z " /><path fill="rgb(0,0,0)" stroke="rgb(0,0,0)" stroke-width="1" opacity="0" d="M 14 7 Q 17 6 16 9 Q 13 10 14 7 Z " /><path fill="rgb(0,99,167)" stroke="rgb(0,99,167)" stroke-width="1" opacity="0.16862745098039217" d="M 2.5 12 L 2.5 13 L 2.5 12 Z " /><path fill="rgb(0,99,167)" stroke="rgb(0,99,167)" stroke-width="1" opacity="0.16862745098039217" d="M 5.5 12 L 5.5 13 L 5.5 12 Z " /><path fill="rgb(0,99,167)" stroke="rgb(0,99,167)" stroke-width="1" opacity="0.9137254901960784" d="M 1.5 2 L 3 4.5 Q 0.75 5.75 2 10.5 L 2.5 12 Q -0.25 10.75 1 5.5 Q 3 4.5 1 3.5 L 1.5 2 Z " /><path fill="rgb(0,99,167)" stroke="rgb(0,99,167)" stroke-width="1" opacity="0.9137254901960784" d="M 6.5 5 L 6.5 6 L 6.5 5 Z " /><path fill="rgb(0,99,167)" stroke="rgb(0,99,167)" stroke-width="1" opacity="0.9137254901960784" d="M 11.5 7 L 11.5 8 L 11.5 7 Z " /><path fill="rgb(0,99,167)" stroke="rgb(0,99,167)" stroke-width="1" opacity="0.9137254901960784" d="M 5.5 9 Q 8 10 6.5 11 Q 4 10 5.5 9 Z " /><path fill="rgb(0,99,167)" stroke="rgb(0,99,167)" stroke-width="1" opacity="0" d="M 3.5 0 L 4 2.5 L 3 2.5 L 3.5 0 Z " /><path fill="rgb(0,99,167)" stroke="rgb(0,99,167)" stroke-width="1" opacity="0" d="M 5.5 3 L 5.5 4 L 5.5 3 Z " /><path fill="rgb(0,99,167)" stroke="rgb(0,99,167)" stroke-width="1" opacity="0" d="M 10.5 3 L 10.5 4 L 10.5 3 Z " /><path fill="rgb(0,99,167)" stroke="rgb(0,99,167)" stroke-width="1" opacity="0" d="M 15.5 3 L 15.5 4 L 15.5 3 Z " /><path fill="rgb(0,99,167)" stroke="rgb(0,99,167)" stroke-width="1" opacity="0" d="M 3.5 6 L 3.5 7 L 3.5 6 Z " /><path fill="rgb(0,99,167)" stroke="rgb(0,99,167)" stroke-width="1" opacity="0" d="M 13.5 6 L 14 9.5 L 13 9.5 L 13.5 6 Z " /><path fill="rgb(0,99,167)" stroke="rgb(0,99,167)" stroke-width="1" opacity="0" d="M 3.5 9 L 3.5 10 L 3.5 9 Z " /><path fill="rgb(0,99,167)" stroke="rgb(0,99,167)" stroke-width="1" opacity="0" d="M 0.5 12 L 0.5 13 L 0.5 12 Z " /><path fill="rgb(0,99,167)" stroke="rgb(0,99,167)" stroke-width="1" opacity="0.07450980392156863" d="M 3.5 3 L 3.5 4 L 3.5 3 Z " /><path fill="rgb(0,99,167)" stroke="rgb(0,99,167)" stroke-width="1" opacity="0.07450980392156863" d="M 7.5 3 L 7.5 4 L 7.5 3 Z " /><path fill="rgb(0,99,167)" stroke="rgb(0,99,167)" stroke-width="1" opacity="0.07450980392156863" d="M 12.5 3 L 14 3.5 L 12.5 4 L 12.5 3 Z " /><path fill="rgb(0,99,167)" stroke="rgb(0,99,167)" stroke-width="1" opacity="0.07450980392156863" d="M 15.5 5 L 15.5 6 L 15.5 5 Z " /><path fill="rgb(0,99,167)" stroke="rgb(0,99,167)" stroke-width="1" opacity="0.07450980392156863" d="M 8.5 6 L 8.5 7 L 8.5 6 Z " /><path fill="rgb(0,99,167)" stroke="rgb(0,99,167)" stroke-width="1" opacity="0.07450980392156863" d="M 12.5 6 L 12.5 7 L 12.5 6 Z " /><path fill="rgb(0,99,167)" stroke="rgb(0,99,167)" stroke-width="1" opacity="0.07450980392156863" d="M 3.5 8 L 3.5 9 L 3.5 8 Z " /><path fill="rgb(0,99,167)" stroke="rgb(0,99,167)" stroke-width="1" opacity="0.07450980392156863" d="M 15.5 10 L 15.5 11 L 15.5 10 Z " /><path fill="rgb(0,99,167)" stroke="rgb(0,99,167)" stroke-width="1" opacity="0.07450980392156863" d="M 6.5 12 L 6.5 13 L 6.5 12 Z " /><path fill="rgb(0,99,167)" stroke="rgb(0,99,167)" stroke-width="1" opacity="0.07450980392156863" d="M 0.5 13 L 1 14.5 L 0 14.5 L 0.5 13 Z " /><path fill="rgb(0,99,167)" stroke="rgb(0,99,167)" stroke-width="1" opacity="0.023529411764705882" d="M 0.5 0 L 0.5 1 L 0.5 0 Z " /><path fill="rgb(0,99,167)" stroke="rgb(0,99,167)" stroke-width="1" opacity="0.023529411764705882" d="M 9.5 3 L 9.5 4 L 9.5 3 Z " /><path fill="rgb(0,99,167)" stroke="rgb(0,99,167)" stroke-width="1" opacity="0.023529411764705882" d="M 11.5 3 L 11.5 4 L 11.5 3 Z " /><path fill="rgb(0,99,167)" stroke="rgb(0,99,167)" stroke-width="1" opacity="0.023529411764705882" d="M 14.5 3 Q 17 4 15.5 5 Q 13 4 14.5 3 Z " /><path fill="rgb(0,99,167)" stroke="rgb(0,99,167)" stroke-width="1" opacity="0.023529411764705882" d="M 15.5 6 L 15.5 7 L 15.5 6 Z " /><path fill="rgb(0,99,167)" stroke="rgb(0,99,167)" stroke-width="1" opacity="0.023529411764705882" d="M 14.5 9 L 14.5 10 L 14.5 9 Z " /><path fill="rgb(0,99,167)" stroke="rgb(0,99,167)" stroke-width="1" opacity="0.023529411764705882" d="M 15.5 14 L 16 15.5 L 15 15.5 L 15.5 14 Z " /><path fill="rgb(0,99,167)" stroke="rgb(0,99,167)" stroke-width="1" opacity="0.17254901960784313" d="M 0.5 2 L 1 10.5 L 0 10.5 L 0.5 2 Z " /><path fill="rgb(0,99,167)" stroke="rgb(0,99,167)" stroke-width="1" opacity="0.9019607843137255" d="M 1.5 4 L 1.5 5 L 1.5 4 Z " /><path fill="rgb(0,99,167)" stroke="rgb(0,99,167)" stroke-width="1" opacity="0.9019607843137255" d="M 5.5 6 L 5.5 7 L 5.5 6 Z " /><path fill="rgb(0,99,167)" stroke="rgb(0,99,167)" stroke-width="1" opacity="0.9019607843137255" d="M 10.5 9 L 10.5 10 L 10.5 9 Z " /><path fill="rgb(0,99,167)" stroke="rgb(0,99,167)" stroke-width="1" opacity="0.9019607843137255" d="M 4.5 11 L 4.5 12 L 4.5 11 Z " /><path fill="rgb(0,99,167)" stroke="rgb(0,99,167)" stroke-width="1" opacity="0.8470588235294118" d="M 3.5 4 L 3.5 5 L 3.5 4 Z " /><path fill="rgb(0,99,167)" stroke="rgb(0,99,167)" stroke-width="1" opacity="0.8470588235294118" d="M 8.5 4 Q 11 5 9.5 6 Q 7 5 8.5 4 Z " /><path fill="rgb(0,99,167)" stroke="rgb(0,99,167)" stroke-width="1" opacity="0.8470588235294118" d="M 12.5 4 L 14 4.5 L 12.5 5 L 12.5 4 Z " /><path fill="rgb(0,99,167)" stroke="rgb(0,99,167)" stroke-width="1" opacity="0.8470588235294118" d="M 6.5 7 L 6.5 8 L 6.5 7 Z " /><path fill="rgb(0,99,167)" stroke="rgb(0,99,167)" stroke-width="1" opacity="0.8470588235294118" d="M 4.5 8 L 4.5 9 L 4.5 8 Z " /><path fill="rgb(0,99,167)" stroke="rgb(0,99,167)" stroke-width="1" opacity="0.8470588235294118" d="M 9.5 9 L 9.5 10 L 9.5 9 Z " /><path fill="rgb(0,99,167)" stroke="rgb(0,99,167)" stroke-width="1" opacity="0.8470588235294118" d="M 11.5 9 L 11.5 10 L 11.5 9 Z " /><path fill="rgb(0,99,167)" stroke="rgb(0,99,167)" stroke-width="1" opacity="0.8470588235294118" d="M 9.5 11 L 9.5 12 L 9.5 11 Z " /><path fill="rgb(0,99,167)" stroke="rgb(0,99,167)" stroke-width="1" opacity="0.8470588235294118" d="M 11.5 11 L 11.5 12 L 11.5 11 Z " /><path fill="rgb(0,99,167)" stroke="rgb(0,99,167)" stroke-width="1" opacity="0.4627450980392157" d="M 2.5 1 L 3 2.5 L 2 2.5 L 2.5 1 Z " /><path fill="rgb(0,99,167)" stroke="rgb(0,99,167)" stroke-width="1" opacity="0.4627450980392157" d="M 5.5 4 L 5.5 5 L 5.5 4 Z " /><path fill="rgb(0,99,167)" stroke="rgb(0,99,167)" stroke-width="1" opacity="0.4627450980392157" d="M 2.5 6 L 3 9.5 L 2 9.5 L 2.5 6 Z " /><path fill="rgb(0,99,167)" stroke="rgb(0,99,167)" stroke-width="1" opacity="0.4627450980392157" d="M 8.5 13 L 8.5 14 L 8.5 13 Z " /><path fill="rgb(0,99,167)" stroke="rgb(0,99,167)" stroke-width="1" opacity="0.4627450980392157" d="M 13.5 13 L 13.5 14 L 13.5 13 Z " /><path fill="rgb(0,99,167)" stroke="rgb(0,99,167)" stroke-width="1" opacity="0.4627450980392157" d="M 6.5 14 L 6.5 15 L 6.5 14 Z " /><path fill="rgb(0,99,167)" stroke="rgb(0,99,167)" stroke-width="1" opacity="0.4627450980392157" d="M 11.5 14 L 11.5 15 L 11.5 14 Z " /><path fill="rgb(0,99,167)" stroke="rgb(0,99,167)" stroke-width="1" opacity="0.803921568627451" d="M 4.5 4 L 4.5 5 L 4.5 4 Z " /><path fill="rgb(0,99,167)" stroke="rgb(0,99,167)" stroke-width="1" opacity="0.803921568627451" d="M 7.5 4 L 7.5 5 L 7.5 4 Z " /><path fill="rgb(0,99,167)" stroke="rgb(0,99,167)" stroke-width="1" opacity="0.803921568627451" d="M 2.5 5 L 2.5 6 L 2.5 5 Z " /><path fill="rgb(0,99,167)" stroke="rgb(0,99,167)" stroke-width="1" opacity="0.803921568627451" d="M 11.5 5 L 12 6.5 L 11 6.5 L 11.5 5 Z " /><path fill="rgb(0,99,167)" stroke="rgb(0,99,167)" stroke-width="1" opacity="0.803921568627451" d="M 9.5 6 L 9.5 7 L 9.5 6 Z " /><path fill="rgb(0,99,167)" stroke="rgb(0,99,167)" stroke-width="1" opacity="0.803921568627451" d="M 4.5 7 L 4.5 8 L 4.5 7 Z " /><path fill="rgb(0,99,167)" stroke="rgb(0,99,167)" stroke-width="1" opacity="0.803921568627451" d="M 6.5 8 L 6.5 9 L 6.5 8 Z " /><path fill="rgb(0,99,167)" stroke="rgb(0,99,167)" stroke-width="1" opacity="0.803921568627451" d="M 11.5 10 L 11.5 11 L 11.5 10 Z " /><path fill="rgb(0,99,167)" stroke="rgb(0,99,167)" stroke-width="1" opacity="0.6" d="M 10.5 11 L 10.5 12 L 10.5 11 Z " /><path fill="rgb(0,99,167)" stroke="rgb(0,99,167)" stroke-width="1" opacity="0.6" d="M 3.5 15 L 3.5 16 L 3.5 15 Z " /><path fill="rgb(0,99,167)" stroke="rgb(0,99,167)" stroke-width="1" opacity="0.6" d="M 8.5 15 L 8.5 16 L 8.5 15 Z " /><path fill="rgb(0,99,167)" stroke="rgb(0,99,167)" stroke-width="1" opacity="0.5568627450980392" d="M 6.5 4 L 6.5 5 L 6.5 4 Z " /><path fill="rgb(0,99,167)" stroke="rgb(0,99,167)" stroke-width="1" opacity="0.5568627450980392" d="M 8.5 5 L 8.5 6 L 8.5 5 Z " /><path fill="rgb(0,99,167)" stroke="rgb(0,99,167)" stroke-width="1" opacity="0.5568627450980392" d="M 4.5 6 L 4.5 7 L 4.5 6 Z " /><path fill="rgb(0,99,167)" stroke="rgb(0,99,167)" stroke-width="1" opacity="0.5568627450980392" d="M 7.5 8 L 7.5 9 L 7.5 8 Z " /><path fill="rgb(0,99,167)" stroke="rgb(0,99,167)" stroke-width="1" opacity="0.5568627450980392" d="M 10.5 8 L 10.5 9 L 10.5 8 Z " /><path fill="rgb(0,99,167)" stroke="rgb(0,99,167)" stroke-width="1" opacity="0.5568627450980392" d="M 4.5 10 L 4.5 11 L 4.5 10 Z " /><path fill="rgb(0,99,167)" stroke="rgb(0,99,167)" stroke-width="1" opacity="0.9725490196078431" d="M 5.5 5 L 5.5 6 L 5.5 5 Z " /><path fill="rgb(0,99,167)" stroke="rgb(0,99,167)" stroke-width="1" opacity="0.9725490196078431" d="M 10.5 5 L 11 6.5 L 10 6.5 L 10.5 5 Z " /><path fill="rgb(0,99,167)" stroke="rgb(0,99,167)" stroke-width="1" opacity="0.9725490196078431" d="M 5.5 10 L 5.5 11 L 5.5 10 Z " /><path fill="rgb(0,99,167)" stroke="rgb(0,99,167)" stroke-width="1" opacity="0.9725490196078431" d="M 10.5 10 L 10.5 11 L 10.5 10 Z " /><path fill="rgb(0,99,167)" stroke="rgb(0,99,167)" stroke-width="1" opacity="0.9725490196078431" d="M 13.5 11 L 13.5 12 L 13.5 11 Z " /><path fill="rgb(0,99,167)" stroke="rgb(0,99,167)" stroke-width="1" opacity="0.5254901960784314" d="M 14.5 4 L 14.5 5 L 14.5 4 Z " /><path fill="rgb(0,99,167)" stroke="rgb(0,99,167)" stroke-width="1" opacity="0.5254901960784314" d="M 3.5 5 L 3.5 6 L 3.5 5 Z " /><path fill="rgb(0,99,167)" stroke="rgb(0,99,167)" stroke-width="1" opacity="0.5254901960784314" d="M 12.5 5 L 12.5 6 L 12.5 5 Z " /><path fill="rgb(0,99,167)" stroke="rgb(0,99,167)" stroke-width="1" opacity="0.5254901960784314" d="M 14.5 13 L 14.5 14 L 14.5 13 Z " /><path fill="rgb(0,99,167)" stroke="rgb(0,99,167)" stroke-width="1" opacity="0.7019607843137254" d="M 9.5 4 L 9.5 5 L 9.5 4 Z " /><path fill="rgb(0,99,167)" stroke="rgb(0,99,167)" stroke-width="1" opacity="0.7019607843137254" d="M 14.5 5 L 14.5 6 L 14.5 5 Z " /><path fill="rgb(0,99,167)" stroke="rgb(0,99,167)" stroke-width="1" opacity="0.7019607843137254" d="M 5.5 7 L 5.5 8 L 5.5 7 Z " /><path fill="rgb(0,99,167)" stroke="rgb(0,99,167)" stroke-width="1" opacity="0.7019607843137254" d="M 14.5 11 L 14.5 12 L 14.5 11 Z " /><path fill="rgb(0,99,167)" stroke="rgb(0,99,167)" stroke-width="1" opacity="0.7019607843137254" d="M 9.5 13 L 9.5 14 L 9.5 13 Z " /><path fill="rgb(0,99,167)" stroke="rgb(0,99,167)" stroke-width="1" opacity="0.7019607843137254" d="M 2.5 15 L 2.5 16 L 2.5 15 Z " /><path fill="rgb(0,99,167)" stroke="rgb(0,99,167)" stroke-width="1" opacity="0.7019607843137254" d="M 6.5 15 L 6.5 16 L 6.5 15 Z " /><path fill="rgb(0,99,167)" stroke="rgb(0,99,167)" stroke-width="1" opacity="0.7019607843137254" d="M 11.5 15 L 11.5 16 L 11.5 15 Z " /><path fill="rgb(0,99,167)" stroke="rgb(0,99,167)" stroke-width="1" opacity="0.050980392156862744" d="M 4.5 3 L 4.5 4 L 4.5 3 Z " /><path fill="rgb(0,99,167)" stroke="rgb(0,99,167)" stroke-width="1" opacity="0.050980392156862744" d="M 3.5 7 L 3.5 8 L 3.5 7 Z " /><path fill="rgb(0,99,167)" stroke="rgb(0,99,167)" stroke-width="1" opacity="0.050980392156862744" d="M 15.5 11 L 15.5 12 L 15.5 11 Z " /><path fill="rgb(0,99,167)" stroke="rgb(0,99,167)" stroke-width="1" opacity="0.050980392156862744" d="M 1.5 12 L 1.5 13 L 1.5 12 Z " /><path fill="rgb(0,99,167)" stroke="rgb(0,99,167)" stroke-width="1" opacity="0.050980392156862744" d="M 15.5 13 L 15.5 14 L 15.5 13 Z " /><path fill="rgb(0,99,167)" stroke="rgb(0,99,167)" stroke-width="1" opacity="0.7333333333333333" d="M 4.5 5 L 4.5 6 L 4.5 5 Z " /><path fill="rgb(0,99,167)" stroke="rgb(0,99,167)" stroke-width="1" opacity="0.7333333333333333" d="M 9.5 10 L 9.5 11 L 9.5 10 Z " /><path fill="rgb(0,99,167)" stroke="rgb(0,99,167)" stroke-width="1" opacity="0.7333333333333333" d="M 6.5 11 L 6.5 12 L 6.5 11 Z " /><path fill="rgb(0,99,167)" stroke="rgb(0,99,167)" stroke-width="1" opacity="0.7333333333333333" d="M 4.5 13 L 4.5 14 L 4.5 13 Z " /><path fill="rgb(0,99,167)" stroke="rgb(0,99,167)" stroke-width="1" opacity="0.7333333333333333" d="M 7.5 15 L 7.5 16 L 7.5 15 Z " /><path fill="rgb(0,99,167)" stroke="rgb(0,99,167)" stroke-width="1" opacity="0.7333333333333333" d="M 12.5 15 L 12.5 16 L 12.5 15 Z " /><path fill="rgb(0,99,167)" stroke="rgb(0,99,167)" stroke-width="1" opacity="0.5019607843137255" d="M 2.5 3 L 2.5 4 L 2.5 3 Z " /><path fill="rgb(0,99,167)" stroke="rgb(0,99,167)" stroke-width="1" opacity="0.21176470588235294" d="M 7.5 12 L 7.5 13 L 7.5 12 Z " /><path fill="rgb(0,99,167)" stroke="rgb(0,99,167)" stroke-width="1" opacity="0.21176470588235294" d="M 9.5 12 L 9.5 13 L 9.5 12 Z " /><path fill="rgb(0,99,167)" stroke="rgb(0,99,167)" stroke-width="1" opacity="0.6627450980392157" d="M 11.5 4 L 11.5 5 L 11.5 4 Z " /><path fill="rgb(0,99,167)" stroke="rgb(0,99,167)" stroke-width="1" opacity="0.6627450980392157" d="M 10.5 7 L 10.5 8 L 10.5 7 Z " /><path fill="rgb(0,99,167)" stroke="rgb(0,99,167)" stroke-width="1" opacity="0.6627450980392157" d="M 10.5 13 L 10.5 14 L 10.5 13 Z " /><path fill="rgb(0,99,167)" stroke="rgb(0,99,167)" stroke-width="1" opacity="0.23529411764705882" d="M 8.5 7 L 8.5 8 L 8.5 7 Z " /><path fill="rgb(0,99,167)" stroke="rgb(0,99,167)" stroke-width="1" opacity="0.23529411764705882" d="M 12.5 7 L 12.5 8 L 12.5 7 Z " /><path fill="rgb(0,99,167)" stroke="rgb(0,99,167)" stroke-width="1" opacity="0.23529411764705882" d="M 3.5 12 L 3.5 13 L 3.5 12 Z " /><path fill="rgb(0,99,167)" stroke="rgb(0,99,167)" stroke-width="1" opacity="0.3607843137254902" d="M 7.5 9 L 7.5 10 L 7.5 9 Z " /><path fill="rgb(0,99,167)" stroke="rgb(0,99,167)" stroke-width="1" opacity="0.3607843137254902" d="M 13.5 10 L 13.5 11 L 13.5 10 Z " /><path fill="rgb(0,99,167)" stroke="rgb(0,99,167)" stroke-width="1" opacity="0.3607843137254902" d="M 6.5 13 L 6.5 14 L 6.5 13 Z " /><path fill="rgb(0,99,167)" stroke="rgb(0,99,167)" stroke-width="1" opacity="0.3607843137254902" d="M 11.5 13 L 13 13.5 L 11.5 14 L 11.5 13 Z " /><path fill="rgb(0,99,167)" stroke="rgb(0,99,167)" stroke-width="1" opacity="0.3607843137254902" d="M 1.5 14 L 1.5 15 L 1.5 14 Z " /><path fill="rgb(0,99,167)" stroke="rgb(0,99,167)" stroke-width="1" opacity="0.3607843137254902" d="M 10.5 15 L 10.5 16 L 10.5 15 Z " /><path fill="rgb(0,99,167)" stroke="rgb(0,99,167)" stroke-width="1" opacity="0.10588235294117647" d="M 8.5 9 L 8.5 10 L 8.5 9 Z " /><path fill="rgb(0,99,167)" stroke="rgb(0,99,167)" stroke-width="1" opacity="0.8862745098039215" d="M 1.5 1 L 1.5 2 L 1.5 1 Z " /><path fill="rgb(0,99,167)" stroke="rgb(0,99,167)" stroke-width="1" opacity="0.8862745098039215" d="M 6.5 9 L 6.5 10 L 6.5 9 Z " /><path fill="rgb(0,99,167)" stroke="rgb(0,99,167)" stroke-width="1" opacity="0.13333333333333333" d="M 12.5 9 L 12.5 10 L 12.5 9 Z " /><path fill="rgb(0,99,167)" stroke="rgb(0,99,167)" stroke-width="1" opacity="0.13333333333333333" d="M 11.5 12 L 11.5 13 L 11.5 12 Z " /><path fill="rgb(0,99,167)" stroke="rgb(0,99,167)" stroke-width="1" opacity="0.34509803921568627" d="M 12.5 10 L 12.5 11 L 12.5 10 Z " /><path fill="rgb(0,99,167)" stroke="rgb(0,99,167)" stroke-width="1" opacity="0.34509803921568627" d="M 14.5 14 L 14.5 15 L 14.5 14 Z " /><path fill="rgb(0,99,167)" stroke="rgb(0,99,167)" stroke-width="1" opacity="0.5098039215686274" d="M 7.5 7 L 7.5 8 L 7.5 7 Z " /><path fill="rgb(0,99,167)" stroke="rgb(0,99,167)" stroke-width="1" opacity="0.5098039215686274" d="M 14.5 10 L 14.5 11 L 14.5 10 Z " /><path fill="rgb(0,99,167)" stroke="rgb(0,99,167)" stroke-width="1" opacity="0.09019607843137255" d="M 8.5 3 L 8.5 4 L 8.5 3 Z " /><path fill="rgb(0,99,167)" stroke="rgb(0,99,167)" stroke-width="1" opacity="0.09019607843137255" d="M 0.5 11 L 0.5 12 L 0.5 11 Z " /><path fill="rgb(0,99,167)" stroke="rgb(0,99,167)" stroke-width="1" opacity="0.6470588235294118" d="M 5.5 8 Q 7 9 4.5 10 Q 3 9 5.5 8 Z " /><path fill="rgb(0,99,167)" stroke="rgb(0,99,167)" stroke-width="1" opacity="0.6470588235294118" d="M 1.5 11 L 1.5 12 L 1.5 11 Z " /><path fill="rgb(0,99,167)" stroke="rgb(0,99,167)" stroke-width="1" opacity="0.9254901960784314" d="M 9.5 7 L 10 8.5 L 9 8.5 L 9.5 7 Z " /><path fill="rgb(0,99,167)" stroke="rgb(0,99,167)" stroke-width="1" opacity="0.9254901960784314" d="M 11.5 8 L 11.5 9 L 11.5 8 Z " /><path fill="rgb(0,99,167)" stroke="rgb(0,99,167)" stroke-width="1" opacity="0.6431372549019608" d="M 2.5 10 L 2.5 11 L 2.5 10 Z " /><path fill="rgb(0,99,167)" stroke="rgb(0,99,167)" stroke-width="1" opacity="0.6431372549019608" d="M 5.5 11 L 5.5 12 L 5.5 11 Z " /><path fill="rgb(0,99,167)" stroke="rgb(0,99,167)" stroke-width="1" opacity="0.9372549019607843" d="M 6.5 6 L 6.5 7 L 6.5 6 Z " /><path fill="rgb(0,99,167)" stroke="rgb(0,99,167)" stroke-width="1" opacity="0.9372549019607843" d="M 3.5 11 L 3.5 12 L 3.5 11 Z " /><path fill="rgb(0,99,167)" stroke="rgb(0,99,167)" stroke-width="1" opacity="0.9372549019607843" d="M 7.5 11 L 7.5 12 L 7.5 11 Z " /><path fill="rgb(0,99,167)" stroke="rgb(0,99,167)" stroke-width="1" opacity="0.9568627450980393" d="M 8.5 11 L 8.5 12 L 8.5 11 Z " /><path fill="rgb(0,99,167)" stroke="rgb(0,99,167)" stroke-width="1" opacity="0.9568627450980393" d="M 12.5 11 L 12.5 12 L 12.5 11 Z " /><path fill="rgb(0,99,167)" stroke="rgb(0,99,167)" stroke-width="1" opacity="0.2627450980392157" d="M 7.5 6 L 7.5 7 L 7.5 6 Z " /><path fill="rgb(0,99,167)" stroke="rgb(0,99,167)" stroke-width="1" opacity="0.2627450980392157" d="M 8.5 8 L 8.5 9 L 8.5 8 Z " /><path fill="rgb(0,99,167)" stroke="rgb(0,99,167)" stroke-width="1" opacity="0.2627450980392157" d="M 12.5 8 L 12.5 9 L 12.5 8 Z " /><path fill="rgb(0,99,167)" stroke="rgb(0,99,167)" stroke-width="1" opacity="0.2627450980392157" d="M 3.5 10 L 3.5 11 L 3.5 10 Z " /><path fill="rgb(0,99,167)" stroke="rgb(0,99,167)" stroke-width="1" opacity="0.2627450980392157" d="M 8.5 10 L 8.5 11 L 8.5 10 Z " /><path fill="rgb(0,99,167)" stroke="rgb(0,99,167)" stroke-width="1" opacity="0.2627450980392157" d="M 4.5 12 L 4.5 13 L 4.5 12 Z " /><path fill="rgb(0,99,167)" stroke="rgb(0,99,167)" stroke-width="1" opacity="0.2627450980392157" d="M 8.5 12 L 8.5 13 L 8.5 12 Z " /><path fill="rgb(0,99,167)" stroke="rgb(0,99,167)" stroke-width="1" opacity="0.2627450980392157" d="M 12.5 12 L 14 12.5 L 12.5 13 L 12.5 12 Z " /><path fill="rgb(0,99,167)" stroke="rgb(0,99,167)" stroke-width="1" opacity="0.14901960784313725" d="M 0.5 1 L 0.5 2 L 0.5 1 Z " /><path fill="rgb(0,99,167)" stroke="rgb(0,99,167)" stroke-width="1" opacity="0.14901960784313725" d="M 10.5 12 L 10.5 13 L 10.5 12 Z " /><path fill="rgb(0,99,167)" stroke="rgb(0,99,167)" stroke-width="1" opacity="0.11372549019607843" d="M 14.5 12 L 14.5 13 L 14.5 12 Z " /><path fill="rgb(0,99,167)" stroke="rgb(0,99,167)" stroke-width="1" opacity="0.00784313725490196" d="M 6.5 3 L 6.5 4 L 6.5 3 Z " /><path fill="rgb(0,99,167)" stroke="rgb(0,99,167)" stroke-width="1" opacity="0.00784313725490196" d="M 15.5 9 L 15.5 10 L 15.5 9 Z " /><path fill="rgb(0,99,167)" stroke="rgb(0,99,167)" stroke-width="1" opacity="0.00784313725490196" d="M 15.5 12 L 15.5 13 L 15.5 12 Z " /><path fill="rgb(0,99,167)" stroke="rgb(0,99,167)" stroke-width="1" opacity="0.3843137254901961" d="M 1.5 13 L 1.5 14 L 1.5 13 Z " /><path fill="rgb(0,99,167)" stroke="rgb(0,99,167)" stroke-width="1" opacity="0.3843137254901961" d="M 7.5 13 L 7.5 14 L 7.5 13 Z " /><path fill="rgb(0,99,167)" stroke="rgb(0,99,167)" stroke-width="1" opacity="0.3843137254901961" d="M 5.5 15 L 5.5 16 L 5.5 15 Z " /><path fill="rgb(0,99,167)" stroke="rgb(0,99,167)" stroke-width="1" opacity="0.49019607843137253" d="M 3.5 13 L 3.5 14 L 3.5 13 Z " /><path fill="rgb(0,99,167)" stroke="rgb(0,99,167)" stroke-width="1" opacity="0.6196078431372549" d="M 7.5 5 L 7.5 6 L 7.5 5 Z " /><path fill="rgb(0,99,167)" stroke="rgb(0,99,167)" stroke-width="1" opacity="0.6196078431372549" d="M 13.5 5 L 13.5 6 L 13.5 5 Z " /><path fill="rgb(0,99,167)" stroke="rgb(0,99,167)" stroke-width="1" opacity="0.6196078431372549" d="M 5.5 13 L 5.5 14 L 5.5 13 Z " /><path fill="rgb(0,99,167)" stroke="rgb(0,99,167)" stroke-width="1" opacity="0.6196078431372549" d="M 13.5 15 L 13.5 16 L 13.5 15 Z " /><path fill="rgb(0,99,167)" stroke="rgb(0,99,167)" stroke-width="1" opacity="0.43529411764705883" d="M 7.5 10 L 7.5 11 L 7.5 10 Z " /><path fill="rgb(0,99,167)" stroke="rgb(0,99,167)" stroke-width="1" opacity="0.43529411764705883" d="M 5.5 14 L 5.5 15 L 5.5 14 Z " /><path fill="rgb(0,99,167)" stroke="rgb(0,99,167)" stroke-width="1" opacity="0.43529411764705883" d="M 10.5 14 Q 12 15 9.5 16 Q 8 15 10.5 14 Z " /><path fill="rgb(0,99,167)" stroke="rgb(0,99,167)" stroke-width="1" opacity="0.4" d="M 2.5 0 L 2.5 1 L 2.5 0 Z " /><path fill="rgb(0,99,167)" stroke="rgb(0,99,167)" stroke-width="1" opacity="0.4" d="M 2.5 13 L 2.5 14 L 2.5 13 Z " /><path fill="rgb(0,99,167)" stroke="rgb(0,99,167)" stroke-width="1" opacity="0.4" d="M 14.5 15 L 14.5 16 L 14.5 15 Z " /><path fill="rgb(0,99,167)" stroke="rgb(0,99,167)" stroke-width="1" opacity="0.4470588235294118" d="M 1.5 0 L 1.5 1 L 1.5 0 Z " /><path fill="rgb(0,99,167)" stroke="rgb(0,99,167)" stroke-width="1" opacity="0.4470588235294118" d="M 3.5 14 L 3.5 15 L 3.5 14 Z " /><path fill="rgb(0,99,167)" stroke="rgb(0,99,167)" stroke-width="1" opacity="0.4470588235294118" d="M 8.5 14 L 8.5 15 L 8.5 14 Z " /><path fill="rgb(0,99,167)" stroke="rgb(0,99,167)" stroke-width="1" opacity="0.4470588235294118" d="M 13.5 14 L 13.5 15 L 13.5 14 Z " /><path fill="rgb(0,99,167)" stroke="rgb(0,99,167)" stroke-width="1" opacity="0.4196078431372549" d="M 10.5 4 L 10.5 5 L 10.5 4 Z " /><path fill="rgb(0,99,167)" stroke="rgb(0,99,167)" stroke-width="1" opacity="0.4196078431372549" d="M 2.5 14 L 2.5 15 L 2.5 14 Z " /><path fill="rgb(0,99,167)" stroke="rgb(0,99,167)" stroke-width="1" opacity="0.4196078431372549" d="M 9.5 14 L 9.5 15 L 9.5 14 Z " /><path fill="rgb(0,99,167)" stroke="rgb(0,99,167)" stroke-width="1" opacity="0.4196078431372549" d="M 4.5 15 L 4.5 16 L 4.5 15 Z " /><path fill="rgb(0,99,167)" stroke="rgb(0,99,167)" stroke-width="1" opacity="0.403921568627451" d="M 4.5 14 L 4.5 15 L 4.5 14 Z " /><path fill="rgb(0,99,167)" stroke="rgb(0,99,167)" stroke-width="1" opacity="0.403921568627451" d="M 7.5 14 L 7.5 15 L 7.5 14 Z " /><path fill="rgb(0,99,167)" stroke="rgb(0,99,167)" stroke-width="1" opacity="0.403921568627451" d="M 12.5 14 L 12.5 15 L 12.5 14 Z " /><path fill="rgb(0,99,167)" stroke="rgb(0,99,167)" stroke-width="1" opacity="0.10980392156862745" d="M 14.5 6 L 14.5 7 L 14.5 6 Z " /><path fill="rgb(0,99,167)" stroke="rgb(0,99,167)" stroke-width="1" opacity="0.10980392156862745" d="M 0.5 15 L 0.5 16 L 0.5 15 Z " /><path fill="rgb(0,99,167)" stroke="rgb(0,99,167)" stroke-width="1" opacity="0.6352941176470588" d="M 1.5 15 L 1.5 16 L 1.5 15 Z " /></svg>