<svg width="16" height="16" version="1.1" xmlns="http://www.w3.org/2000/svg" desc="Created with imagetracer.js version 1.2.6" ><path fill="rgb(255,255,255)" stroke="rgb(255,255,255)" stroke-width="1" opacity="0" d="M 0 0 L 4 0.5 L 2 1 L 0.5 4 L 0 0 Z " /><path fill="rgb(255,255,255)" stroke="rgb(255,255,255)" stroke-width="1" opacity="0" d="M 12.5 0 Q 17.75 -1.75 16 3.5 L 15 3.5 L 13.5 1 Q 11.13 0.87 12.5 0 Z " /><path fill="rgb(255,255,255)" stroke="rgb(255,255,255)" stroke-width="1" opacity="0" d="M 8.5 4 L 11 5.5 L 7.5 6 Q 6 5 8.5 4 Z " /><path fill="rgb(255,255,255)" stroke="rgb(255,255,255)" stroke-width="1" opacity="0" d="M 6.5 7 L 6.5 8 L 6.5 7 Z " /><path fill="rgb(255,255,255)" stroke="rgb(255,255,255)" stroke-width="1" opacity="0" d="M 8.5 8 L 10 8.5 L 8.5 9 L 8.5 8 Z " /><path fill="rgb(255,255,255)" stroke="rgb(255,255,255)" stroke-width="1" opacity="0" d="M 7.5 10 L 9.5 11 L 11 10.5 Q 11.83 13.13 8.5 12 Q 6 11 7.5 10 Z " /><path fill="rgb(255,255,255)" stroke="rgb(255,255,255)" stroke-width="1" opacity="0" d="M 0.5 12 L 2.5 15 L 4 15.5 L 0 16 L 0.5 12 Z " /><path fill="rgb(255,255,255)" stroke="rgb(255,255,255)" stroke-width="1" opacity="0" d="M 6.5 12 L 7.5 13 L 12 13.5 L 10.5 15 L 6 15 L 6.5 12 Z " /><path fill="rgb(255,255,255)" stroke="rgb(255,255,255)" stroke-width="1" opacity="0" d="M 15.5 12 L 16 16 L 12 15.5 L 15 13.5 L 15.5 12 Z " /><path fill="rgb(157,190,178)" stroke="rgb(157,190,178)" stroke-width="1" opacity="0.3843137254901961" d="M 3.5 2 Q 5 3 2.5 4 Q 1 3 3.5 2 Z " /><path fill="rgb(157,190,178)" stroke="rgb(157,190,178)" stroke-width="1" opacity="0.3843137254901961" d="M 14.5 4 L 14.5 5 L 14.5 4 Z " /><path fill="rgb(157,190,178)" stroke="rgb(157,190,178)" stroke-width="1" opacity="0.3843137254901961" d="M 6.5 6 L 14 6.5 L 6.5 7 L 6.5 6 Z " /><path fill="rgb(157,190,178)" stroke="rgb(157,190,178)" stroke-width="1" opacity="0.3843137254901961" d="M 2.5 7 L 2.5 8 L 2.5 7 Z " /><path fill="rgb(157,190,178)" stroke="rgb(157,190,178)" stroke-width="1" opacity="0.3843137254901961" d="M 14.5 11 L 14.5 12 L 14.5 11 Z " /><path fill="rgb(1,88,56)" stroke="rgb(1,88,56)" stroke-width="1" opacity="0.9921568627450981" d="M 6.5 3 L 6.5 4 L 6.5 3 Z " /><path fill="rgb(1,88,56)" stroke="rgb(1,88,56)" stroke-width="1" opacity="1" d="M 5.5 2 L 8 2.5 L 2.5 6 L 2 5.5 L 5.5 2 Z " /><path fill="rgb(1,88,56)" stroke="rgb(1,88,56)" stroke-width="1" opacity="1" d="M 9.5 2 L 13 3 L 12.5 5 L 9 2.5 L 9.5 2 Z " /><path fill="rgb(1,88,56)" stroke="rgb(1,88,56)" stroke-width="1" opacity="1" d="M 4.5 7 L 5 12.5 Q 4 14 3 11.5 Q 2.25 7.75 4.5 7 Z " /><path fill="rgb(1,88,56)" stroke="rgb(1,88,56)" stroke-width="1" opacity="1" d="M 14.5 7 L 15 8.5 L 14 8.5 L 14.5 7 Z " /><path fill="rgb(6,90,59)" stroke="rgb(6,90,59)" stroke-width="1" opacity="0.9803921568627451" d="M 8.5 2 L 8.5 3 L 8.5 2 Z " /><path fill="rgb(6,90,59)" stroke="rgb(6,90,59)" stroke-width="1" opacity="0.9803921568627451" d="M 13.5 4 L 13.5 5 L 13.5 4 Z " /><path fill="rgb(3,89,57)" stroke="rgb(3,89,57)" stroke-width="1" opacity="0.9882352941176471" d="M 7.5 1 L 9 1.5 L 7.5 2 L 7.5 1 Z " /><path fill="rgb(3,89,57)" stroke="rgb(3,89,57)" stroke-width="1" opacity="0.9882352941176471" d="M 3.5 3 L 3.5 4 L 3.5 3 Z " /><path fill="rgb(3,89,57)" stroke="rgb(3,89,57)" stroke-width="1" opacity="0.9882352941176471" d="M 10.5 3 L 10.5 4 L 10.5 3 Z " /><path fill="rgb(178,204,195)" stroke="rgb(178,204,195)" stroke-width="1" opacity="0.30196078431372547" d="M 5.5 0 L 5.5 1 L 5.5 0 Z " /><path fill="rgb(178,204,195)" stroke="rgb(178,204,195)" stroke-width="1" opacity="0.30196078431372547" d="M 10.5 0 L 10.5 1 L 10.5 0 Z " /><path fill="rgb(178,204,195)" stroke="rgb(178,204,195)" stroke-width="1" opacity="0.30196078431372547" d="M 3.5 1 L 3.5 2 L 3.5 1 Z " /><path fill="rgb(178,204,195)" stroke="rgb(178,204,195)" stroke-width="1" opacity="0.30196078431372547" d="M 12.5 1 L 12.5 2 L 12.5 1 Z " /><path fill="rgb(178,204,195)" stroke="rgb(178,204,195)" stroke-width="1" opacity="0.30196078431372547" d="M 14.5 3 L 14.5 4 L 14.5 3 Z " /><path fill="rgb(178,204,195)" stroke="rgb(178,204,195)" stroke-width="1" opacity="0.30196078431372547" d="M 0.5 5 L 0.5 6 L 0.5 5 Z " /><path fill="rgb(178,204,195)" stroke="rgb(178,204,195)" stroke-width="1" opacity="0.30196078431372547" d="M 15.5 5 L 15.5 6 L 15.5 5 Z " /><path fill="rgb(178,204,195)" stroke="rgb(178,204,195)" stroke-width="1" opacity="0.30196078431372547" d="M 0.5 10 L 0.5 11 L 0.5 10 Z " /><path fill="rgb(178,204,195)" stroke="rgb(178,204,195)" stroke-width="1" opacity="0.30196078431372547" d="M 15.5 10 L 15.5 11 L 15.5 10 Z " /><path fill="rgb(178,204,195)" stroke="rgb(178,204,195)" stroke-width="1" opacity="0.30196078431372547" d="M 5.5 15 L 5.5 16 L 5.5 15 Z " /><path fill="rgb(178,204,195)" stroke="rgb(178,204,195)" stroke-width="1" opacity="0.30196078431372547" d="M 10.5 15 L 10.5 16 L 10.5 15 Z " /><path fill="rgb(233,240,238)" stroke="rgb(233,240,238)" stroke-width="1" opacity="0.08235294117647059" d="M 4.5 0 L 4.5 1 L 4.5 0 Z " /><path fill="rgb(233,240,238)" stroke="rgb(233,240,238)" stroke-width="1" opacity="0.08235294117647059" d="M 0.5 4 L 0.5 5 L 0.5 4 Z " /><path fill="rgb(167,196,186)" stroke="rgb(167,196,186)" stroke-width="1" opacity="0.34901960784313724" d="M 11.5 1 L 11.5 2 L 11.5 1 Z " /><path fill="rgb(167,196,186)" stroke="rgb(167,196,186)" stroke-width="1" opacity="0.34901960784313724" d="M 2.5 2 L 2.5 3 L 2.5 2 Z " /><path fill="rgb(167,196,186)" stroke="rgb(167,196,186)" stroke-width="1" opacity="0.34901960784313724" d="M 13.5 2 L 13.5 3 L 13.5 2 Z " /><path fill="rgb(167,196,186)" stroke="rgb(167,196,186)" stroke-width="1" opacity="0.34901960784313724" d="M 15.5 7 L 16 8.5 L 15 8.5 L 15.5 7 Z " /><path fill="rgb(167,196,186)" stroke="rgb(167,196,186)" stroke-width="1" opacity="0.34901960784313724" d="M 2.5 13 L 2.5 14 L 2.5 13 Z " /><path fill="rgb(167,196,186)" stroke="rgb(167,196,186)" stroke-width="1" opacity="0.34901960784313724" d="M 13.5 13 L 13.5 14 L 13.5 13 Z " /><path fill="rgb(20,101,71)" stroke="rgb(20,101,71)" stroke-width="1" opacity="0.9215686274509803" d="M 5.5 4 L 5.5 5 L 5.5 4 Z " /><path fill="rgb(20,101,71)" stroke="rgb(20,101,71)" stroke-width="1" opacity="0.9215686274509803" d="M 1.5 7 L 1.5 8 L 1.5 7 Z " /><path fill="rgb(20,101,71)" stroke="rgb(20,101,71)" stroke-width="1" opacity="0.9215686274509803" d="M 14.5 9 L 14.5 10 L 14.5 9 Z " /><path fill="rgb(222,233,229)" stroke="rgb(222,233,229)" stroke-width="1" opacity="0.13333333333333333" d="M 7.5 4 L 7.5 5 L 7.5 4 Z " /><path fill="rgb(222,233,229)" stroke="rgb(222,233,229)" stroke-width="1" opacity="0.13333333333333333" d="M 11.5 8 L 11.5 9 L 11.5 8 Z " /><path fill="rgb(136,177,162)" stroke="rgb(136,177,162)" stroke-width="1" opacity="0.47058823529411764" d="M 12.5 2 Q 15 3 13.5 4 Q 11 3 12.5 2 Z " /><path fill="rgb(107,158,139)" stroke="rgb(107,158,139)" stroke-width="1" opacity="0.5803921568627451" d="M 10.5 1 L 10.5 2 L 10.5 1 Z " /><path fill="rgb(107,158,139)" stroke="rgb(107,158,139)" stroke-width="1" opacity="0.5803921568627451" d="M 9.5 3 L 9.5 4 L 9.5 3 Z " /><path fill="rgb(107,158,139)" stroke="rgb(107,158,139)" stroke-width="1" opacity="0.5803921568627451" d="M 5.5 5 L 6 6.5 L 5 6.5 L 5.5 5 Z " /><path fill="rgb(179,205,196)" stroke="rgb(179,205,196)" stroke-width="1" opacity="0.30196078431372547" d="M 7.5 0 L 9 0.5 L 7.5 1 L 7.5 0 Z " /><path fill="rgb(179,205,196)" stroke="rgb(179,205,196)" stroke-width="1" opacity="0.30196078431372547" d="M 1.5 3 L 1.5 4 L 1.5 3 Z " /><path fill="rgb(54,123,97)" stroke="rgb(54,123,97)" stroke-width="1" opacity="0.7843137254901961" d="M 4.5 5 L 4.5 6 L 4.5 5 Z " /><path fill="rgb(54,123,97)" stroke="rgb(54,123,97)" stroke-width="1" opacity="0.7843137254901961" d="M 1.5 6 L 1.5 7 L 1.5 6 Z " /><path fill="rgb(54,123,97)" stroke="rgb(54,123,97)" stroke-width="1" opacity="0.7843137254901961" d="M 14.5 6 L 14.5 7 L 14.5 6 Z " /><path fill="rgb(99,152,133)" stroke="rgb(99,152,133)" stroke-width="1" opacity="0.615686274509804" d="M 7.5 3 L 7.5 4 L 7.5 3 Z " /><path fill="rgb(99,152,133)" stroke="rgb(99,152,133)" stroke-width="1" opacity="0.615686274509804" d="M 14.5 5 L 14.5 6 L 14.5 5 Z " /><path fill="rgb(99,152,133)" stroke="rgb(99,152,133)" stroke-width="1" opacity="0.615686274509804" d="M 3.5 6 L 3.5 7 L 3.5 6 Z " /><path fill="rgb(99,152,133)" stroke="rgb(99,152,133)" stroke-width="1" opacity="0.615686274509804" d="M 14.5 10 L 14.5 11 L 14.5 10 Z " /><path fill="rgb(99,152,133)" stroke="rgb(99,152,133)" stroke-width="1" opacity="0.615686274509804" d="M 2.5 11 L 2.5 12 L 2.5 11 Z " /><path fill="rgb(11,94,63)" stroke="rgb(11,94,63)" stroke-width="1" opacity="0.9607843137254902" d="M 4.5 2 L 4.5 3 L 4.5 2 Z " /><path fill="rgb(11,94,63)" stroke="rgb(11,94,63)" stroke-width="1" opacity="0.9607843137254902" d="M 11.5 2 L 11.5 3 L 11.5 2 Z " /><path fill="rgb(11,94,63)" stroke="rgb(11,94,63)" stroke-width="1" opacity="0.9607843137254902" d="M 2.5 4 L 2.5 5 L 2.5 4 Z " /><path fill="rgb(11,94,63)" stroke="rgb(11,94,63)" stroke-width="1" opacity="0.9607843137254902" d="M 13.5 5 L 13.5 6 L 13.5 5 Z " /><path fill="rgb(11,94,63)" stroke="rgb(11,94,63)" stroke-width="1" opacity="0.9607843137254902" d="M 2.5 6 Q 5 7 3.5 8 Q 1 7 2.5 6 Z " /><path fill="rgb(11,94,63)" stroke="rgb(11,94,63)" stroke-width="1" opacity="0.9607843137254902" d="M 1.5 8 L 1.5 9 L 1.5 8 Z " /><path fill="rgb(11,94,63)" stroke="rgb(11,94,63)" stroke-width="1" opacity="0.9607843137254902" d="M 3.5 12 L 3.5 13 L 3.5 12 Z " /><path fill="rgb(121,166,150)" stroke="rgb(121,166,150)" stroke-width="1" opacity="0.5254901960784314" d="M 5.5 1 L 5.5 2 L 5.5 1 Z " /><path fill="rgb(121,166,150)" stroke="rgb(121,166,150)" stroke-width="1" opacity="0.5254901960784314" d="M 6.5 4 L 6.5 5 L 6.5 4 Z " /><path fill="rgb(121,166,150)" stroke="rgb(121,166,150)" stroke-width="1" opacity="0.5254901960784314" d="M 1.5 5 L 1.5 6 L 1.5 5 Z " /><path fill="rgb(121,166,150)" stroke="rgb(121,166,150)" stroke-width="1" opacity="0.5254901960784314" d="M 1.5 10 L 1.5 11 L 1.5 10 Z " /><path fill="rgb(245,248,247)" stroke="rgb(245,248,247)" stroke-width="1" opacity="0.03529411764705882" d="M 6.5 8 L 6.5 9 L 6.5 8 Z " /><path fill="rgb(245,248,247)" stroke="rgb(245,248,247)" stroke-width="1" opacity="0.03529411764705882" d="M 11.5 9 L 11.5 10 L 11.5 9 Z " /><path fill="rgb(245,248,247)" stroke="rgb(245,248,247)" stroke-width="1" opacity="0.03529411764705882" d="M 8.5 10 L 8.5 11 L 8.5 10 Z " /><path fill="rgb(245,248,247)" stroke="rgb(245,248,247)" stroke-width="1" opacity="0.03529411764705882" d="M 11.5 12 Q 14 13 12.5 14 Q 10 13 11.5 12 Z " /><path fill="rgb(228,237,234)" stroke="rgb(228,237,234)" stroke-width="1" opacity="0.10588235294117647" d="M 8.5 7 L 8.5 8 L 8.5 7 Z " /><path fill="rgb(228,237,234)" stroke="rgb(228,237,234)" stroke-width="1" opacity="0.10588235294117647" d="M 10.5 7 L 10.5 8 L 10.5 7 Z " /><path fill="rgb(227,236,233)" stroke="rgb(227,236,233)" stroke-width="1" opacity="0.10980392156862745" d="M 9.5 9 L 9.5 10 L 9.5 9 Z " /><path fill="rgb(227,236,233)" stroke="rgb(227,236,233)" stroke-width="1" opacity="0.10980392156862745" d="M 11.5 11 L 11.5 12 L 11.5 11 Z " /><path fill="rgb(227,236,233)" stroke="rgb(227,236,233)" stroke-width="1" opacity="0.10980392156862745" d="M 4.5 15 L 4.5 16 L 4.5 15 Z " /><path fill="rgb(227,236,233)" stroke="rgb(227,236,233)" stroke-width="1" opacity="0.10980392156862745" d="M 11.5 15 L 11.5 16 L 11.5 15 Z " /><path fill="rgb(249,251,250)" stroke="rgb(249,251,250)" stroke-width="1" opacity="0.0196078431372549" d="M 11.5 5 L 11.5 6 L 11.5 5 Z " /><path fill="rgb(249,251,250)" stroke="rgb(249,251,250)" stroke-width="1" opacity="0.0196078431372549" d="M 7.5 7 L 7.5 8 L 7.5 7 Z " /><path fill="rgb(249,251,250)" stroke="rgb(249,251,250)" stroke-width="1" opacity="0.0196078431372549" d="M 10.5 8 L 10.5 9 L 10.5 8 Z " /><path fill="rgb(249,251,250)" stroke="rgb(249,251,250)" stroke-width="1" opacity="0.0196078431372549" d="M 11.5 10 L 11.5 11 L 11.5 10 Z " /><path fill="rgb(182,207,198)" stroke="rgb(182,207,198)" stroke-width="1" opacity="0.2901960784313726" d="M 0.5 7 L 1 8.5 L 0 8.5 L 0.5 7 Z " /><path fill="rgb(182,207,198)" stroke="rgb(182,207,198)" stroke-width="1" opacity="0.2901960784313726" d="M 6.5 9 L 6.5 10 L 6.5 9 Z " /><path fill="rgb(182,207,198)" stroke="rgb(182,207,198)" stroke-width="1" opacity="0.2901960784313726" d="M 7.5 15 L 9 15.5 L 7.5 16 L 7.5 15 Z " /><path fill="rgb(180,206,196)" stroke="rgb(180,206,196)" stroke-width="1" opacity="0.2980392156862745" d="M 6.5 0 L 6.5 1 L 6.5 0 Z " /><path fill="rgb(180,206,196)" stroke="rgb(180,206,196)" stroke-width="1" opacity="0.2980392156862745" d="M 9.5 0 L 9.5 1 L 9.5 0 Z " /><path fill="rgb(180,206,196)" stroke="rgb(180,206,196)" stroke-width="1" opacity="0.2980392156862745" d="M 0.5 6 L 0.5 7 L 0.5 6 Z " /><path fill="rgb(180,206,196)" stroke="rgb(180,206,196)" stroke-width="1" opacity="0.2980392156862745" d="M 15.5 6 L 15.5 7 L 15.5 6 Z " /><path fill="rgb(180,206,196)" stroke="rgb(180,206,196)" stroke-width="1" opacity="0.2980392156862745" d="M 0.5 9 L 0.5 10 L 0.5 9 Z " /><path fill="rgb(180,206,196)" stroke="rgb(180,206,196)" stroke-width="1" opacity="0.2980392156862745" d="M 15.5 9 L 15.5 10 L 15.5 9 Z " /><path fill="rgb(180,206,196)" stroke="rgb(180,206,196)" stroke-width="1" opacity="0.2980392156862745" d="M 6.5 15 L 6.5 16 L 6.5 15 Z " /><path fill="rgb(180,206,196)" stroke="rgb(180,206,196)" stroke-width="1" opacity="0.2980392156862745" d="M 9.5 15 L 9.5 16 L 9.5 15 Z " /><path fill="rgb(40,114,87)" stroke="rgb(40,114,87)" stroke-width="1" opacity="0.8392156862745098" d="M 6.5 1 L 6.5 2 L 6.5 1 Z " /><path fill="rgb(40,114,87)" stroke="rgb(40,114,87)" stroke-width="1" opacity="0.8392156862745098" d="M 9.5 1 L 9.5 2 L 9.5 1 Z " /><path fill="rgb(40,114,87)" stroke="rgb(40,114,87)" stroke-width="1" opacity="0.8392156862745098" d="M 11.5 4 L 11.5 5 L 11.5 4 Z " /><path fill="rgb(40,114,87)" stroke="rgb(40,114,87)" stroke-width="1" opacity="0.8392156862745098" d="M 4.5 6 L 4.5 7 L 4.5 6 Z " /><path fill="rgb(40,114,87)" stroke="rgb(40,114,87)" stroke-width="1" opacity="0.8392156862745098" d="M 1.5 9 L 1.5 10 L 1.5 9 Z " /><path fill="rgb(40,114,87)" stroke="rgb(40,114,87)" stroke-width="1" opacity="0.8392156862745098" d="M 4.5 13 L 4.5 14 L 4.5 13 Z " /><path fill="rgb(133,175,160)" stroke="rgb(133,175,160)" stroke-width="1" opacity="0.47843137254901963" d="M 12.5 5 L 12.5 6 L 12.5 5 Z " /><path fill="rgb(253,253,253)" stroke="rgb(253,253,253)" stroke-width="1" opacity="0" d="M 2.5 1 L 2.5 2 L 2.5 1 Z " /><path fill="rgb(253,253,253)" stroke="rgb(253,253,253)" stroke-width="1" opacity="0" d="M 13.5 1 Q 16 2 14.5 3 Q 12 2 13.5 1 Z " /><path fill="rgb(253,253,253)" stroke="rgb(253,253,253)" stroke-width="1" opacity="0" d="M 11.5 7 L 11.5 8 L 11.5 7 Z " /><path fill="rgb(220,232,227)" stroke="rgb(220,232,227)" stroke-width="1" opacity="0.13725490196078433" d="M 8.5 9 L 8.5 10 L 8.5 9 Z " /><path fill="rgb(220,232,227)" stroke="rgb(220,232,227)" stroke-width="1" opacity="0.13725490196078433" d="M 5.5 14 L 5.5 15 L 5.5 14 Z " /><path fill="rgb(222,233,229)" stroke="rgb(222,233,229)" stroke-width="1" opacity="0.13725490196078433" d="M 10.5 9 L 10.5 10 L 10.5 9 Z " /><path fill="rgb(237,243,241)" stroke="rgb(237,243,241)" stroke-width="1" opacity="0.07450980392156863" d="M 12.5 9 L 12.5 10 L 12.5 9 Z " /><path fill="rgb(230,238,235)" stroke="rgb(230,238,235)" stroke-width="1" opacity="0.09803921568627451" d="M 8.5 3 L 8.5 4 L 8.5 3 Z " /><path fill="rgb(230,238,235)" stroke="rgb(230,238,235)" stroke-width="1" opacity="0.09803921568627451" d="M 15.5 11 L 15.5 12 L 15.5 11 Z " /><path fill="rgb(89,146,125)" stroke="rgb(89,146,125)" stroke-width="1" opacity="0.6588235294117647" d="M 13.5 7 L 14 11.5 L 13 11.5 L 13.5 7 Z " /><path fill="rgb(89,146,125)" stroke="rgb(89,146,125)" stroke-width="1" opacity="0.6588235294117647" d="M 2.5 8 L 3 10.5 L 2 10.5 L 2.5 8 Z " /><path fill="rgb(231,239,236)" stroke="rgb(231,239,236)" stroke-width="1" opacity="0.09411764705882353" d="M 11.5 0 L 11.5 1 L 11.5 0 Z " /><path fill="rgb(231,239,236)" stroke="rgb(231,239,236)" stroke-width="1" opacity="0.09411764705882353" d="M 15.5 4 L 15.5 5 L 15.5 4 Z " /><path fill="rgb(231,239,236)" stroke="rgb(231,239,236)" stroke-width="1" opacity="0.09411764705882353" d="M 9.5 7 L 9.5 8 L 9.5 7 Z " /><path fill="rgb(231,239,236)" stroke="rgb(231,239,236)" stroke-width="1" opacity="0.09411764705882353" d="M 12.5 10 L 12.5 11 L 12.5 10 Z " /><path fill="rgb(231,239,236)" stroke="rgb(231,239,236)" stroke-width="1" opacity="0.09411764705882353" d="M 0.5 11 L 0.5 12 L 0.5 11 Z " /><path fill="rgb(172,201,190)" stroke="rgb(172,201,190)" stroke-width="1" opacity="0.3254901960784314" d="M 4.5 1 L 4.5 2 L 4.5 1 Z " /><path fill="rgb(172,201,190)" stroke="rgb(172,201,190)" stroke-width="1" opacity="0.3254901960784314" d="M 1.5 4 L 1.5 5 L 1.5 4 Z " /><path fill="rgb(172,201,190)" stroke="rgb(172,201,190)" stroke-width="1" opacity="0.3254901960784314" d="M 6.5 10 L 6.5 11 L 6.5 10 Z " /><path fill="rgb(172,201,190)" stroke="rgb(172,201,190)" stroke-width="1" opacity="0.3254901960784314" d="M 1.5 11 L 1.5 12 L 1.5 11 Z " /><path fill="rgb(134,175,160)" stroke="rgb(134,175,160)" stroke-width="1" opacity="0.4823529411764706" d="M 5.5 7 L 6 13.5 L 5 13.5 L 5.5 7 Z " /><path fill="rgb(202,220,214)" stroke="rgb(202,220,214)" stroke-width="1" opacity="0.20784313725490197" d="M 10.5 4 L 10.5 5 L 10.5 4 Z " /><path fill="rgb(202,220,214)" stroke="rgb(202,220,214)" stroke-width="1" opacity="0.20784313725490197" d="M 7.5 8 L 7.5 9 L 7.5 8 Z " /><path fill="rgb(202,220,214)" stroke="rgb(202,220,214)" stroke-width="1" opacity="0.20784313725490197" d="M 7.5 11 L 7.5 12 L 7.5 11 Z " /><path fill="rgb(202,220,214)" stroke="rgb(202,220,214)" stroke-width="1" opacity="0.20784313725490197" d="M 9.5 12 L 9.5 13 L 9.5 12 Z " /><path fill="rgb(202,220,214)" stroke="rgb(202,220,214)" stroke-width="1" opacity="0.20784313725490197" d="M 11.5 14 L 11.5 15 L 11.5 14 Z " /><path fill="rgb(181,206,196)" stroke="rgb(181,206,196)" stroke-width="1" opacity="0.2980392156862745" d="M 8.5 12 L 8.5 13 L 8.5 12 Z " /><path fill="rgb(223,233,229)" stroke="rgb(223,233,229)" stroke-width="1" opacity="0.13725490196078433" d="M 10.5 12 L 10.5 13 L 10.5 12 Z " /><path fill="rgb(251,252,252)" stroke="rgb(251,252,252)" stroke-width="1" opacity="0.011764705882352941" d="M 12.5 7 L 13 8.5 L 12 8.5 L 12.5 7 Z " /><path fill="rgb(251,252,252)" stroke="rgb(251,252,252)" stroke-width="1" opacity="0.011764705882352941" d="M 12.5 11 L 13 12.5 L 12 12.5 L 12.5 11 Z " /><path fill="rgb(176,203,193)" stroke="rgb(176,203,193)" stroke-width="1" opacity="0.30980392156862746" d="M 1.5 12 L 1.5 13 L 1.5 12 Z " /><path fill="rgb(253,253,253)" stroke="rgb(253,253,253)" stroke-width="1" opacity="0.00392156862745098" d="M 7.5 9 L 7.5 10 L 7.5 9 Z " /><path fill="rgb(253,253,253)" stroke="rgb(253,253,253)" stroke-width="1" opacity="0.00392156862745098" d="M 1.5 13 Q 4 14 2.5 15 Q 0 14 1.5 13 Z " /><path fill="rgb(253,253,253)" stroke="rgb(253,253,253)" stroke-width="1" opacity="0.00392156862745098" d="M 14.5 13 Q 16 14 13.5 15 Q 12 14 14.5 13 Z " /><path fill="rgb(192,213,206)" stroke="rgb(192,213,206)" stroke-width="1" opacity="0.25098039215686274" d="M 9.5 10 L 9.5 11 L 9.5 10 Z " /><path fill="rgb(192,213,206)" stroke="rgb(192,213,206)" stroke-width="1" opacity="0.25098039215686274" d="M 7.5 12 L 7.5 13 L 7.5 12 Z " /><path fill="rgb(192,213,206)" stroke="rgb(192,213,206)" stroke-width="1" opacity="0.25098039215686274" d="M 13.5 12 L 13.5 13 L 13.5 12 Z " /><path fill="rgb(192,213,206)" stroke="rgb(192,213,206)" stroke-width="1" opacity="0.25098039215686274" d="M 3.5 13 Q 6 14 4.5 15 Q 2 14 3.5 13 Z " /><path fill="rgb(211,226,221)" stroke="rgb(211,226,221)" stroke-width="1" opacity="0.17254901960784313" d="M 6.5 5 L 6.5 6 L 6.5 5 Z " /><path fill="rgb(211,226,221)" stroke="rgb(211,226,221)" stroke-width="1" opacity="0.17254901960784313" d="M 6.5 11 L 6.5 12 L 6.5 11 Z " /><path fill="rgb(211,226,221)" stroke="rgb(211,226,221)" stroke-width="1" opacity="0.17254901960784313" d="M 2.5 12 L 2.5 13 L 2.5 12 Z " /><path fill="rgb(176,203,193)" stroke="rgb(176,203,193)" stroke-width="1" opacity="0.3137254901960784" d="M 14.5 12 L 14.5 13 L 14.5 12 Z " /><path fill="rgb(176,203,193)" stroke="rgb(176,203,193)" stroke-width="1" opacity="0.3137254901960784" d="M 3.5 14 L 3.5 15 L 3.5 14 Z " /><path fill="rgb(176,203,193)" stroke="rgb(176,203,193)" stroke-width="1" opacity="0.3137254901960784" d="M 12.5 14 L 12.5 15 L 12.5 14 Z " /></svg>