<svg width="16" height="16" version="1.1" xmlns="http://www.w3.org/2000/svg" desc="Created with imagetracer.js version 1.2.6" ><path fill="rgb(0,0,0)" stroke="rgb(0,0,0)" stroke-width="1" opacity="0" d="M 1 1 L 3 1.5 Q 2 4 1 2.5 L 1 1 Z " /><path fill="rgb(0,0,0)" stroke="rgb(0,0,0)" stroke-width="1" opacity="0" d="M 13.5 1 Q 15.75 0.25 15 2.5 L 15.5 4 L 13 1.5 L 13.5 1 Z " /><path fill="rgb(0,0,0)" stroke="rgb(0,0,0)" stroke-width="1" opacity="0" d="M 15.5 12 L 15.5 13 L 15.5 12 Z " /><path fill="rgb(0,0,0)" stroke="rgb(0,0,0)" stroke-width="1" opacity="0" d="M 1.5 13 L 4 15.5 L 3.5 16 L 1 15 L 1.5 13 Z " /><path fill="rgb(0,0,0)" stroke="rgb(0,0,0)" stroke-width="1" opacity="0" d="M 14.5 14 L 14.5 15 L 14.5 14 Z " /><path fill="rgb(0,0,0)" stroke="rgb(0,0,0)" stroke-width="1" opacity="0" d="M 12.5 15 L 12.5 16 L 12.5 15 Z " /><path fill="rgb(31,31,30)" stroke="rgb(31,31,30)" stroke-width="1" opacity="0" d="M 1.5 0 L 4 0.5 L 1 1 L 0.5 3 L 0 1.5 L 1.5 0 Z " /><path fill="rgb(31,31,30)" stroke="rgb(31,31,30)" stroke-width="1" opacity="0" d="M 13.5 0 L 15 0.5 L 13.5 1 L 13.5 0 Z " /><path fill="rgb(31,31,30)" stroke="rgb(31,31,30)" stroke-width="1" opacity="0" d="M 0.5 13 L 1 14.5 L 0 14.5 L 0.5 13 Z " /><path fill="rgb(31,31,30)" stroke="rgb(31,31,30)" stroke-width="1" opacity="0" d="M 15.5 15 L 15.5 16 L 15.5 15 Z " /><path fill="rgb(226,232,249)" stroke="rgb(226,232,249)" stroke-width="1" opacity="1" d="M 3.5 2 L 3.5 3 L 3.5 2 Z " /><path fill="rgb(228,232,244)" stroke="rgb(228,232,244)" stroke-width="1" opacity="1" d="M 5.5 1 L 6 2.5 L 5 2.5 L 5.5 1 Z " /><path fill="rgb(228,232,244)" stroke="rgb(228,232,244)" stroke-width="1" opacity="1" d="M 4.5 6 L 4.5 7 L 4.5 6 Z " /><path fill="rgb(228,232,244)" stroke="rgb(228,232,244)" stroke-width="1" opacity="1" d="M 1.5 10 L 1.5 11 L 1.5 10 Z " /><path fill="rgb(228,232,244)" stroke="rgb(228,232,244)" stroke-width="1" opacity="1" d="M 6.5 14 L 6.5 15 L 6.5 14 Z " /><path fill="rgb(202,209,230)" stroke="rgb(202,209,230)" stroke-width="1" opacity="0.984313725490196" d="M 14.5 4 L 14.5 5 L 14.5 4 Z " /><path fill="rgb(202,209,230)" stroke="rgb(202,209,230)" stroke-width="1" opacity="0.984313725490196" d="M 2.5 7 L 2.5 8 L 2.5 7 Z " /><path fill="rgb(191,200,226)" stroke="rgb(191,200,226)" stroke-width="1" opacity="1" d="M 8.5 2 L 8.5 3 L 8.5 2 Z " /><path fill="rgb(191,200,226)" stroke="rgb(191,200,226)" stroke-width="1" opacity="1" d="M 9.5 8 L 9.5 9 L 9.5 8 Z " /><path fill="rgb(191,200,226)" stroke="rgb(191,200,226)" stroke-width="1" opacity="1" d="M 2.5 10 L 2.5 11 L 2.5 10 Z " /><path fill="rgb(212,219,237)" stroke="rgb(212,219,237)" stroke-width="1" opacity="0.9411764705882353" d="M 15.5 7 L 16 8.5 L 15 8.5 L 15.5 7 Z " /><path fill="rgb(212,219,237)" stroke="rgb(212,219,237)" stroke-width="1" opacity="0.9411764705882353" d="M 8.5 15 L 8.5 16 L 8.5 15 Z " /><path fill="rgb(196,204,229)" stroke="rgb(196,204,229)" stroke-width="1" opacity="1" d="M 10.5 3 L 10.5 4 L 10.5 3 Z " /><path fill="rgb(196,204,229)" stroke="rgb(196,204,229)" stroke-width="1" opacity="1" d="M 7.5 13 L 7.5 14 L 7.5 13 Z " /><path fill="rgb(238,241,248)" stroke="rgb(238,241,248)" stroke-width="1" opacity="1" d="M 4.5 2 L 4.5 3 L 4.5 2 Z " /><path fill="rgb(238,241,248)" stroke="rgb(238,241,248)" stroke-width="1" opacity="1" d="M 12.5 3 L 12.5 4 L 12.5 3 Z " /><path fill="rgb(238,241,248)" stroke="rgb(238,241,248)" stroke-width="1" opacity="1" d="M 8.5 6 L 8.5 7 L 8.5 6 Z " /><path fill="rgb(238,241,248)" stroke="rgb(238,241,248)" stroke-width="1" opacity="1" d="M 11.5 7 L 12 8.5 L 11 8.5 L 11.5 7 Z " /><path fill="rgb(238,241,248)" stroke="rgb(238,241,248)" stroke-width="1" opacity="1" d="M 13.5 11 L 13.5 12 L 13.5 11 Z " /><path fill="rgb(77,84,105)" stroke="rgb(77,84,105)" stroke-width="1" opacity="0.4549019607843137" d="M 12.5 1 L 12.5 2 L 12.5 1 Z " /><path fill="rgb(77,84,105)" stroke="rgb(77,84,105)" stroke-width="1" opacity="0.4549019607843137" d="M 2.5 2 L 2.5 3 L 2.5 2 Z " /><path fill="rgb(77,84,105)" stroke="rgb(77,84,105)" stroke-width="1" opacity="0.4549019607843137" d="M 14.5 3 L 14.5 4 L 14.5 3 Z " /><path fill="rgb(77,84,105)" stroke="rgb(77,84,105)" stroke-width="1" opacity="0.4549019607843137" d="M 1.5 12 L 1.5 13 L 1.5 12 Z " /><path fill="rgb(77,84,105)" stroke="rgb(77,84,105)" stroke-width="1" opacity="0.4549019607843137" d="M 3.5 14 L 3.5 15 L 3.5 14 Z " /><path fill="rgb(35,38,50)" stroke="rgb(35,38,50)" stroke-width="1" opacity="0.10588235294117647" d="M 4.5 0 L 4.5 1 L 4.5 0 Z " /><path fill="rgb(35,38,50)" stroke="rgb(35,38,50)" stroke-width="1" opacity="0.10588235294117647" d="M 11.5 0 L 11.5 1 L 11.5 0 Z " /><path fill="rgb(35,38,50)" stroke="rgb(35,38,50)" stroke-width="1" opacity="0.10588235294117647" d="M 0.5 4 L 0.5 5 L 0.5 4 Z " /><path fill="rgb(35,38,50)" stroke="rgb(35,38,50)" stroke-width="1" opacity="0.10588235294117647" d="M 15.5 4 L 15.5 5 L 15.5 4 Z " /><path fill="rgb(35,38,50)" stroke="rgb(35,38,50)" stroke-width="1" opacity="0.10588235294117647" d="M 0.5 11 L 0.5 12 L 0.5 11 Z " /><path fill="rgb(35,38,50)" stroke="rgb(35,38,50)" stroke-width="1" opacity="0.10588235294117647" d="M 4.5 15 L 4.5 16 L 4.5 15 Z " /><path fill="rgb(183,191,211)" stroke="rgb(183,191,211)" stroke-width="1" opacity="0.8431372549019608" d="M 4.5 1 L 4.5 2 L 4.5 1 Z " /><path fill="rgb(183,191,211)" stroke="rgb(183,191,211)" stroke-width="1" opacity="0.8431372549019608" d="M 1.5 4 L 1.5 5 L 1.5 4 Z " /><path fill="rgb(183,191,211)" stroke="rgb(183,191,211)" stroke-width="1" opacity="0.8431372549019608" d="M 15.5 6 L 15.5 7 L 15.5 6 Z " /><path fill="rgb(183,191,211)" stroke="rgb(183,191,211)" stroke-width="1" opacity="0.8431372549019608" d="M 15.5 9 L 15.5 10 L 15.5 9 Z " /><path fill="rgb(183,191,211)" stroke="rgb(183,191,211)" stroke-width="1" opacity="0.8431372549019608" d="M 6.5 15 L 6.5 16 L 6.5 15 Z " /><path fill="rgb(183,191,211)" stroke="rgb(183,191,211)" stroke-width="1" opacity="0.8431372549019608" d="M 9.5 15 L 9.5 16 L 9.5 15 Z " /><path fill="rgb(205,212,234)" stroke="rgb(205,212,234)" stroke-width="1" opacity="0.9647058823529412" d="M 14.5 11 L 14.5 12 L 14.5 11 Z " /><path fill="rgb(205,212,234)" stroke="rgb(205,212,234)" stroke-width="1" opacity="0.9647058823529412" d="M 4.5 14 L 4.5 15 L 4.5 14 Z " /><path fill="rgb(205,212,234)" stroke="rgb(205,212,234)" stroke-width="1" opacity="0.9647058823529412" d="M 7.5 15 L 7.5 16 L 7.5 15 Z " /><path fill="rgb(176,187,219)" stroke="rgb(176,187,219)" stroke-width="1" opacity="1" d="M 6.5 3 L 6.5 4 L 6.5 3 Z " /><path fill="rgb(176,187,219)" stroke="rgb(176,187,219)" stroke-width="1" opacity="1" d="M 3.5 5 L 3.5 6 L 3.5 5 Z " /><path fill="rgb(176,187,219)" stroke="rgb(176,187,219)" stroke-width="1" opacity="1" d="M 3.5 10 L 3.5 11 L 3.5 10 Z " /><path fill="rgb(176,187,219)" stroke="rgb(176,187,219)" stroke-width="1" opacity="1" d="M 9.5 10 L 10 11.5 L 9 11.5 L 9.5 10 Z " /><path fill="rgb(148,163,207)" stroke="rgb(148,163,207)" stroke-width="1" opacity="1" d="M 7.5 4 L 7.5 5 L 7.5 4 Z " /><path fill="rgb(148,163,207)" stroke="rgb(148,163,207)" stroke-width="1" opacity="1" d="M 7.5 10 L 7.5 11 L 7.5 10 Z " /><path fill="rgb(148,164,207)" stroke="rgb(148,164,207)" stroke-width="1" opacity="1" d="M 7.5 5 L 7.5 6 L 7.5 5 Z " /><path fill="rgb(148,164,207)" stroke="rgb(148,164,207)" stroke-width="1" opacity="1" d="M 11.5 5 L 11.5 6 L 11.5 5 Z " /><path fill="rgb(253,254,254)" stroke="rgb(253,254,254)" stroke-width="1" opacity="1" d="M 12.5 2 L 12.5 3 L 12.5 2 Z " /><path fill="rgb(253,254,254)" stroke="rgb(253,254,254)" stroke-width="1" opacity="1" d="M 5.5 6 L 5.5 7 L 5.5 6 Z " /><path fill="rgb(141,157,204)" stroke="rgb(141,157,204)" stroke-width="1" opacity="1" d="M 6.5 5 L 6.5 6 L 6.5 5 Z " /><path fill="rgb(141,157,204)" stroke="rgb(141,157,204)" stroke-width="1" opacity="1" d="M 10.5 5 L 10.5 6 L 10.5 5 Z " /><path fill="rgb(141,157,204)" stroke="rgb(141,157,204)" stroke-width="1" opacity="1" d="M 6.5 7 L 7 8.5 L 6 8.5 L 6.5 7 Z " /><path fill="rgb(141,157,204)" stroke="rgb(141,157,204)" stroke-width="1" opacity="1" d="M 4.5 11 L 6 11.5 L 4.5 12 L 4.5 11 Z " /><path fill="rgb(156,170,210)" stroke="rgb(156,170,210)" stroke-width="1" opacity="1" d="M 9.5 4 L 9.5 5 L 9.5 4 Z " /><path fill="rgb(156,170,210)" stroke="rgb(156,170,210)" stroke-width="1" opacity="1" d="M 7.5 6 L 7.5 7 L 7.5 6 Z " /><path fill="rgb(156,170,210)" stroke="rgb(156,170,210)" stroke-width="1" opacity="1" d="M 9.5 6 Q 12.13 5.17 11 8.5 L 10 8.5 L 9.5 6 Z " /><path fill="rgb(156,170,210)" stroke="rgb(156,170,210)" stroke-width="1" opacity="1" d="M 5.5 12 L 5.5 13 L 5.5 12 Z " /><path fill="rgb(228,234,249)" stroke="rgb(228,234,249)" stroke-width="1" opacity="1" d="M 14.5 5 L 14.5 6 L 14.5 5 Z " /><path fill="rgb(175,182,204)" stroke="rgb(175,182,204)" stroke-width="1" opacity="0.7058823529411765" d="M 6.5 0 L 6.5 1 L 6.5 0 Z " /><path fill="rgb(175,182,204)" stroke="rgb(175,182,204)" stroke-width="1" opacity="0.7058823529411765" d="M 0.5 6 L 0.5 7 L 0.5 6 Z " /><path fill="rgb(248,251,254)" stroke="rgb(248,251,254)" stroke-width="1" opacity="1" d="M 1.5 6 L 1.5 7 L 1.5 6 Z " /><path fill="rgb(248,251,254)" stroke="rgb(248,251,254)" stroke-width="1" opacity="1" d="M 13.5 12 L 13.5 13 L 13.5 12 Z " /><path fill="rgb(133,150,200)" stroke="rgb(133,150,200)" stroke-width="1" opacity="1" d="M 7.5 3 L 9 3.5 L 7.5 4 L 7.5 3 Z " /><path fill="rgb(133,150,200)" stroke="rgb(133,150,200)" stroke-width="1" opacity="1" d="M 3.5 6 L 3.5 7 L 3.5 6 Z " /><path fill="rgb(133,150,200)" stroke="rgb(133,150,200)" stroke-width="1" opacity="1" d="M 6.5 9 L 6.5 10 L 6.5 9 Z " /><path fill="rgb(133,150,200)" stroke="rgb(133,150,200)" stroke-width="1" opacity="1" d="M 9.5 9 L 11 9.5 L 9.5 10 L 9.5 9 Z " /><path fill="rgb(133,150,200)" stroke="rgb(133,150,200)" stroke-width="1" opacity="1" d="M 11.5 11 L 11.5 12 L 11.5 11 Z " /><path fill="rgb(133,150,200)" stroke="rgb(133,150,200)" stroke-width="1" opacity="1" d="M 7.5 12 L 7.5 13 L 7.5 12 Z " /><path fill="rgb(144,160,205)" stroke="rgb(144,160,205)" stroke-width="1" opacity="1" d="M 4.5 4 L 4.5 5 L 4.5 4 Z " /><path fill="rgb(144,160,205)" stroke="rgb(144,160,205)" stroke-width="1" opacity="1" d="M 6.5 4 L 6.5 5 L 6.5 4 Z " /><path fill="rgb(144,160,205)" stroke="rgb(144,160,205)" stroke-width="1" opacity="1" d="M 3.5 7 L 4 8.5 L 3 8.5 L 3.5 7 Z " /><path fill="rgb(144,160,205)" stroke="rgb(144,160,205)" stroke-width="1" opacity="1" d="M 6.5 12 L 6.5 13 L 6.5 12 Z " /><path fill="rgb(144,160,205)" stroke="rgb(144,160,205)" stroke-width="1" opacity="1" d="M 9.5 12 L 9.5 13 L 9.5 12 Z " /><path fill="rgb(245,246,251)" stroke="rgb(245,246,251)" stroke-width="1" opacity="1" d="M 5.5 5 L 5.5 6 L 5.5 5 Z " /><path fill="rgb(245,246,251)" stroke="rgb(245,246,251)" stroke-width="1" opacity="1" d="M 5.5 7 L 6 8.5 L 5 8.5 L 5.5 7 Z " /><path fill="rgb(122,141,195)" stroke="rgb(122,141,195)" stroke-width="1" opacity="1" d="M 10.5 4 L 12 4.5 L 10.5 5 L 10.5 4 Z " /><path fill="rgb(122,141,195)" stroke="rgb(122,141,195)" stroke-width="1" opacity="1" d="M 8.5 7 L 8.5 8 L 8.5 7 Z " /><path fill="rgb(94,117,183)" stroke="rgb(94,117,183)" stroke-width="1" opacity="1" d="M 10.5 10 L 11 11.5 L 10 11.5 L 10.5 10 Z " /><path fill="rgb(163,177,214)" stroke="rgb(163,177,214)" stroke-width="1" opacity="1" d="M 9.5 3 L 9.5 4 L 9.5 3 Z " /><path fill="rgb(163,177,214)" stroke="rgb(163,177,214)" stroke-width="1" opacity="1" d="M 9.5 5 L 9.5 6 L 9.5 5 Z " /><path fill="rgb(163,177,214)" stroke="rgb(163,177,214)" stroke-width="1" opacity="1" d="M 11.5 10 L 11.5 11 L 11.5 10 Z " /><path fill="rgb(255,255,255)" stroke="rgb(255,255,255)" stroke-width="1" opacity="1" d="M 8.5 4 L 9 5.5 L 8 5.5 L 8.5 4 Z " /><path fill="rgb(255,255,255)" stroke="rgb(255,255,255)" stroke-width="1" opacity="1" d="M 4.5 7 L 5 8.5 L 4 8.5 L 4.5 7 Z " /><path fill="rgb(255,255,255)" stroke="rgb(255,255,255)" stroke-width="1" opacity="1" d="M 12.5 7 L 12.5 8 L 12.5 7 Z " /><path fill="rgb(255,255,255)" stroke="rgb(255,255,255)" stroke-width="1" opacity="1" d="M 8.5 9 L 9 11.5 L 8 11.5 L 8.5 9 Z " /><path fill="rgb(255,255,255)" stroke="rgb(255,255,255)" stroke-width="1" opacity="1" d="M 5.5 10 L 5.5 11 L 5.5 10 Z " /><path fill="rgb(255,255,255)" stroke="rgb(255,255,255)" stroke-width="1" opacity="1" d="M 2.5 12 L 2.5 13 L 2.5 12 Z " /><path fill="rgb(208,215,234)" stroke="rgb(208,215,234)" stroke-width="1" opacity="1" d="M 8.5 1 L 8.5 2 L 8.5 1 Z " /><path fill="rgb(208,215,234)" stroke="rgb(208,215,234)" stroke-width="1" opacity="1" d="M 4.5 3 Q 6 4 3.5 5 Q 2 4 4.5 3 Z " /><path fill="rgb(208,215,234)" stroke="rgb(208,215,234)" stroke-width="1" opacity="1" d="M 13.5 9 L 14 10.5 Q 13 13 12 11.5 L 13.5 9 Z " /><path fill="rgb(208,215,234)" stroke="rgb(208,215,234)" stroke-width="1" opacity="1" d="M 4.5 12 L 4.5 13 L 4.5 12 Z " /><path fill="rgb(208,215,235)" stroke="rgb(208,215,235)" stroke-width="1" opacity="0.8549019607843137" d="M 7.5 0 L 9 0.5 L 7.5 1 L 7.5 0 Z " /><path fill="rgb(208,215,235)" stroke="rgb(208,215,235)" stroke-width="1" opacity="0.8549019607843137" d="M 0.5 7 L 1 8.5 L 0 8.5 L 0.5 7 Z " /><path fill="rgb(180,188,211)" stroke="rgb(180,188,211)" stroke-width="1" opacity="0.7411764705882353" d="M 9.5 0 L 9.5 1 L 9.5 0 Z " /><path fill="rgb(180,188,211)" stroke="rgb(180,188,211)" stroke-width="1" opacity="0.7411764705882353" d="M 0.5 9 L 0.5 10 L 0.5 9 Z " /><path fill="rgb(231,234,245)" stroke="rgb(231,234,245)" stroke-width="1" opacity="1" d="M 13.5 4 L 13.5 5 L 13.5 4 Z " /><path fill="rgb(231,234,245)" stroke="rgb(231,234,245)" stroke-width="1" opacity="1" d="M 11.5 6 L 11.5 7 L 11.5 6 Z " /><path fill="rgb(231,234,245)" stroke="rgb(231,234,245)" stroke-width="1" opacity="1" d="M 1.5 7 L 1.5 8 L 1.5 7 Z " /><path fill="rgb(231,234,245)" stroke="rgb(231,234,245)" stroke-width="1" opacity="1" d="M 1.5 9 L 1.5 10 L 1.5 9 Z " /><path fill="rgb(231,234,245)" stroke="rgb(231,234,245)" stroke-width="1" opacity="1" d="M 4.5 9 L 4.5 10 L 4.5 9 Z " /><path fill="rgb(231,234,245)" stroke="rgb(231,234,245)" stroke-width="1" opacity="1" d="M 11.5 9 L 11.5 10 L 11.5 9 Z " /><path fill="rgb(231,234,245)" stroke="rgb(231,234,245)" stroke-width="1" opacity="1" d="M 14.5 9 L 14.5 10 L 14.5 9 Z " /><path fill="rgb(137,154,202)" stroke="rgb(137,154,202)" stroke-width="1" opacity="1" d="M 8.5 8 L 8.5 9 L 8.5 8 Z " /><path fill="rgb(137,154,202)" stroke="rgb(137,154,202)" stroke-width="1" opacity="1" d="M 3.5 9 L 3.5 10 L 3.5 9 Z " /><path fill="rgb(137,154,202)" stroke="rgb(137,154,202)" stroke-width="1" opacity="1" d="M 6.5 10 L 6.5 11 L 6.5 10 Z " /><path fill="rgb(249,250,253)" stroke="rgb(249,250,253)" stroke-width="1" opacity="1" d="M 5.5 9 L 5.5 10 L 5.5 9 Z " /><path fill="rgb(153,167,209)" stroke="rgb(153,167,209)" stroke-width="1" opacity="1" d="M 7.5 9 L 7.5 10 L 7.5 9 Z " /><path fill="rgb(140,149,174)" stroke="rgb(140,149,174)" stroke-width="1" opacity="0.7254901960784313" d="M 15.5 10 L 15.5 11 L 15.5 10 Z " /><path fill="rgb(140,149,174)" stroke="rgb(140,149,174)" stroke-width="1" opacity="0.7254901960784313" d="M 13.5 13 L 13.5 14 L 13.5 13 Z " /><path fill="rgb(126,144,197)" stroke="rgb(126,144,197)" stroke-width="1" opacity="1" d="M 7.5 7 L 8 8.5 L 7 8.5 L 7.5 7 Z " /><path fill="rgb(126,144,197)" stroke="rgb(126,144,197)" stroke-width="1" opacity="1" d="M 12.5 9 L 12.5 10 L 12.5 9 Z " /><path fill="rgb(126,144,197)" stroke="rgb(126,144,197)" stroke-width="1" opacity="1" d="M 6.5 11 L 6.5 12 L 6.5 11 Z " /><path fill="rgb(155,169,210)" stroke="rgb(155,169,210)" stroke-width="1" opacity="1" d="M 12.5 5 L 12.5 6 L 12.5 5 Z " /><path fill="rgb(155,169,210)" stroke="rgb(155,169,210)" stroke-width="1" opacity="1" d="M 4.5 10 L 4.5 11 L 4.5 10 Z " /><path fill="rgb(155,169,210)" stroke="rgb(155,169,210)" stroke-width="1" opacity="1" d="M 12.5 10 L 12.5 11 L 12.5 10 Z " /><path fill="rgb(199,207,232)" stroke="rgb(199,207,232)" stroke-width="1" opacity="1" d="M 6.5 2 L 8 2.5 L 6.5 3 L 6.5 2 Z " /><path fill="rgb(199,207,232)" stroke="rgb(199,207,232)" stroke-width="1" opacity="1" d="M 2.5 8 L 2.5 9 L 2.5 8 Z " /><path fill="rgb(199,207,232)" stroke="rgb(199,207,232)" stroke-width="1" opacity="1" d="M 13.5 8 L 13.5 9 L 13.5 8 Z " /><path fill="rgb(199,207,232)" stroke="rgb(199,207,232)" stroke-width="1" opacity="1" d="M 14.5 10 L 14.5 11 L 14.5 10 Z " /><path fill="rgb(199,207,232)" stroke="rgb(199,207,232)" stroke-width="1" opacity="1" d="M 11.5 12 L 11.5 13 L 11.5 12 Z " /><path fill="rgb(199,207,232)" stroke="rgb(199,207,232)" stroke-width="1" opacity="1" d="M 9.5 13 L 9.5 14 L 9.5 13 Z " /><path fill="rgb(46,51,68)" stroke="rgb(46,51,68)" stroke-width="1" opacity="0.27058823529411763" d="M 3.5 1 L 3.5 2 L 3.5 1 Z " /><path fill="rgb(46,51,68)" stroke="rgb(46,51,68)" stroke-width="1" opacity="0.27058823529411763" d="M 1.5 3 L 1.5 4 L 1.5 3 Z " /><path fill="rgb(46,51,68)" stroke="rgb(46,51,68)" stroke-width="1" opacity="0.27058823529411763" d="M 15.5 11 L 15.5 12 L 15.5 11 Z " /><path fill="rgb(46,51,68)" stroke="rgb(46,51,68)" stroke-width="1" opacity="0.27058823529411763" d="M 11.5 15 L 11.5 16 L 11.5 15 Z " /><path fill="rgb(183,191,213)" stroke="rgb(183,191,213)" stroke-width="1" opacity="0.9058823529411765" d="M 11.5 1 L 11.5 2 L 11.5 1 Z " /><path fill="rgb(183,191,213)" stroke="rgb(183,191,213)" stroke-width="1" opacity="0.9058823529411765" d="M 1.5 11 L 1.5 12 L 1.5 11 Z " /><path fill="rgb(222,227,241)" stroke="rgb(222,227,241)" stroke-width="1" opacity="1" d="M 6.5 1 L 8 1.5 L 6.5 2 L 6.5 1 Z " /><path fill="rgb(222,227,241)" stroke="rgb(222,227,241)" stroke-width="1" opacity="1" d="M 9.5 1 L 11 1.5 L 9.5 2 L 9.5 1 Z " /><path fill="rgb(222,227,241)" stroke="rgb(222,227,241)" stroke-width="1" opacity="1" d="M 3.5 3 Q 5 4 2.5 5 Q 1 4 3.5 3 Z " /><path fill="rgb(222,227,241)" stroke="rgb(222,227,241)" stroke-width="1" opacity="1" d="M 9.5 7 L 9.5 8 L 9.5 7 Z " /><path fill="rgb(222,227,241)" stroke="rgb(222,227,241)" stroke-width="1" opacity="1" d="M 2.5 9 L 2.5 10 L 2.5 9 Z " /><path fill="rgb(222,227,241)" stroke="rgb(222,227,241)" stroke-width="1" opacity="1" d="M 3.5 11 L 3.5 12 L 3.5 11 Z " /><path fill="rgb(222,227,241)" stroke="rgb(222,227,241)" stroke-width="1" opacity="1" d="M 4.5 13 L 4.5 14 L 4.5 13 Z " /><path fill="rgb(139,156,203)" stroke="rgb(139,156,203)" stroke-width="1" opacity="1" d="M 4.5 5 L 4.5 6 L 4.5 5 Z " /><path fill="rgb(139,156,203)" stroke="rgb(139,156,203)" stroke-width="1" opacity="1" d="M 6.5 6 L 6.5 7 L 6.5 6 Z " /><path fill="rgb(152,167,209)" stroke="rgb(152,167,209)" stroke-width="1" opacity="1" d="M 7.5 11 L 7.5 12 L 7.5 11 Z " /><path fill="rgb(154,168,210)" stroke="rgb(154,168,210)" stroke-width="1" opacity="1" d="M 8.5 12 L 8.5 13 L 8.5 12 Z " /><path fill="rgb(185,195,224)" stroke="rgb(185,195,224)" stroke-width="1" opacity="1" d="M 5.5 4 L 5.5 5 L 5.5 4 Z " /><path fill="rgb(185,195,224)" stroke="rgb(185,195,224)" stroke-width="1" opacity="1" d="M 12.5 6 L 12.5 7 L 12.5 6 Z " /><path fill="rgb(185,195,224)" stroke="rgb(185,195,224)" stroke-width="1" opacity="1" d="M 10.5 12 L 10.5 13 L 10.5 12 Z " /><path fill="rgb(185,195,224)" stroke="rgb(185,195,224)" stroke-width="1" opacity="1" d="M 8.5 13 L 8.5 14 L 8.5 13 Z " /><path fill="rgb(216,222,238)" stroke="rgb(216,222,238)" stroke-width="1" opacity="0.9921568627450981" d="M 2.5 5 L 3 6.5 L 2 6.5 L 2.5 5 Z " /><path fill="rgb(216,222,238)" stroke="rgb(216,222,238)" stroke-width="1" opacity="0.9921568627450981" d="M 13 6 L 15 6.5 L 12.5 9 L 12 8.5 L 13 6 Z " /><path fill="rgb(216,222,238)" stroke="rgb(216,222,238)" stroke-width="1" opacity="0.9921568627450981" d="M 2.5 11 L 2.5 12 L 2.5 11 Z " /><path fill="rgb(216,222,238)" stroke="rgb(216,222,238)" stroke-width="1" opacity="0.9921568627450981" d="M 12.5 12 L 12 13.5 L 11.5 15 L 11 13.5 L 12.5 12 Z " /><path fill="rgb(216,222,238)" stroke="rgb(216,222,238)" stroke-width="1" opacity="0.9921568627450981" d="M 6.5 13 L 6.5 14 L 6.5 13 Z " /><path fill="rgb(216,222,238)" stroke="rgb(216,222,238)" stroke-width="1" opacity="0.9921568627450981" d="M 9.5 14 L 9.5 15 L 9.5 14 Z " /><path fill="rgb(117,124,146)" stroke="rgb(117,124,146)" stroke-width="1" opacity="0.5607843137254902" d="M 10.5 0 L 10.5 1 L 10.5 0 Z " /><path fill="rgb(117,124,146)" stroke="rgb(117,124,146)" stroke-width="1" opacity="0.5607843137254902" d="M 13.5 2 L 13.5 3 L 13.5 2 Z " /><path fill="rgb(117,124,146)" stroke="rgb(117,124,146)" stroke-width="1" opacity="0.5607843137254902" d="M 15.5 5 L 15.5 6 L 15.5 5 Z " /><path fill="rgb(117,124,146)" stroke="rgb(117,124,146)" stroke-width="1" opacity="0.5607843137254902" d="M 0.5 10 L 0.5 11 L 0.5 10 Z " /><path fill="rgb(117,124,146)" stroke="rgb(117,124,146)" stroke-width="1" opacity="0.5607843137254902" d="M 14.5 12 L 14.5 13 L 14.5 12 Z " /><path fill="rgb(117,124,146)" stroke="rgb(117,124,146)" stroke-width="1" opacity="0.5607843137254902" d="M 2.5 13 L 2.5 14 L 2.5 13 Z " /><path fill="rgb(117,124,146)" stroke="rgb(117,124,146)" stroke-width="1" opacity="0.5607843137254902" d="M 12.5 14 L 12.5 15 L 12.5 14 Z " /><path fill="rgb(117,124,146)" stroke="rgb(117,124,146)" stroke-width="1" opacity="0.5607843137254902" d="M 5.5 15 L 5.5 16 L 5.5 15 Z " /><path fill="rgb(117,124,146)" stroke="rgb(117,124,146)" stroke-width="1" opacity="0.5607843137254902" d="M 10.5 15 L 10.5 16 L 10.5 15 Z " /><path fill="rgb(0,1,5)" stroke="rgb(0,1,5)" stroke-width="1" opacity="0.023529411764705882" d="M 14.5 13 Q 16 14 13.5 15 Q 12 14 14.5 13 Z " /><path fill="rgb(241,246,255)" stroke="rgb(241,246,255)" stroke-width="1" opacity="1" d="M 3.5 13 L 3.5 14 L 3.5 13 Z " /><path fill="rgb(241,246,255)" stroke="rgb(241,246,255)" stroke-width="1" opacity="1" d="M 12.5 13 L 12.5 14 L 12.5 13 Z " /><path fill="rgb(209,216,235)" stroke="rgb(209,216,235)" stroke-width="1" opacity="1" d="M 12.5 4 L 12.5 5 L 12.5 4 Z " /><path fill="rgb(209,216,235)" stroke="rgb(209,216,235)" stroke-width="1" opacity="1" d="M 14.5 7 L 14.5 8 L 14.5 7 Z " /><path fill="rgb(209,216,235)" stroke="rgb(209,216,235)" stroke-width="1" opacity="1" d="M 5.5 13 L 5.5 14 L 5.5 13 Z " /><path fill="rgb(209,216,235)" stroke="rgb(209,216,235)" stroke-width="1" opacity="1" d="M 10.5 13 L 10.5 14 L 10.5 13 Z " /><path fill="rgb(240,244,254)" stroke="rgb(240,244,254)" stroke-width="1" opacity="1" d="M 5.5 14 L 5.5 15 L 5.5 14 Z " /><path fill="rgb(213,219,236)" stroke="rgb(213,219,236)" stroke-width="1" opacity="1" d="M 9.5 2 L 9.5 3 L 9.5 2 Z " /><path fill="rgb(213,219,236)" stroke="rgb(213,219,236)" stroke-width="1" opacity="1" d="M 11.5 3 L 11.5 4 L 11.5 3 Z " /><path fill="rgb(213,219,236)" stroke="rgb(213,219,236)" stroke-width="1" opacity="1" d="M 1.5 8 L 1.5 9 L 1.5 8 Z " /><path fill="rgb(213,219,236)" stroke="rgb(213,219,236)" stroke-width="1" opacity="1" d="M 14.5 8 L 14.5 9 L 14.5 8 Z " /><path fill="rgb(213,219,236)" stroke="rgb(213,219,236)" stroke-width="1" opacity="1" d="M 3.5 12 L 3.5 13 L 3.5 12 Z " /><path fill="rgb(213,219,236)" stroke="rgb(213,219,236)" stroke-width="1" opacity="1" d="M 7.5 14 L 7.5 15 L 7.5 14 Z " /><path fill="rgb(212,218,236)" stroke="rgb(212,218,236)" stroke-width="1" opacity="1" d="M 10.5 2 L 10.5 3 L 10.5 2 Z " /><path fill="rgb(212,218,236)" stroke="rgb(212,218,236)" stroke-width="1" opacity="1" d="M 5.5 3 L 5.5 4 L 5.5 3 Z " /><path fill="rgb(212,218,236)" stroke="rgb(212,218,236)" stroke-width="1" opacity="1" d="M 13.5 5 L 13.5 6 L 13.5 5 Z " /><path fill="rgb(212,218,236)" stroke="rgb(212,218,236)" stroke-width="1" opacity="1" d="M 8.5 14 L 8.5 15 L 8.5 14 Z " /><path fill="rgb(233,238,251)" stroke="rgb(233,238,251)" stroke-width="1" opacity="1" d="M 11.5 2 L 11.5 3 L 11.5 2 Z " /><path fill="rgb(233,238,251)" stroke="rgb(233,238,251)" stroke-width="1" opacity="1" d="M 2.5 3 L 2.5 4 L 2.5 3 Z " /><path fill="rgb(233,238,251)" stroke="rgb(233,238,251)" stroke-width="1" opacity="1" d="M 13.5 3 L 13.5 4 L 13.5 3 Z " /><path fill="rgb(233,238,251)" stroke="rgb(233,238,251)" stroke-width="1" opacity="1" d="M 1.5 5 L 1.5 6 L 1.5 5 Z " /><path fill="rgb(233,238,251)" stroke="rgb(233,238,251)" stroke-width="1" opacity="1" d="M 10.5 14 L 10.5 15 L 10.5 14 Z " /><path fill="rgb(101,109,129)" stroke="rgb(101,109,129)" stroke-width="1" opacity="0.40784313725490196" d="M 5.5 0 L 5.5 1 L 5.5 0 Z " /><path fill="rgb(101,109,129)" stroke="rgb(101,109,129)" stroke-width="1" opacity="0.40784313725490196" d="M 0.5 5 L 0.5 6 L 0.5 5 Z " /><path fill="rgb(51,51,51)" stroke="rgb(51,51,51)" stroke-width="1" opacity="0" d="M 0.5 0 L 0.5 1 L 0.5 0 Z " /><path fill="rgb(51,51,51)" stroke="rgb(51,51,51)" stroke-width="1" opacity="0" d="M 15.5 0 L 15.5 1 L 15.5 0 Z " /><path fill="rgb(51,51,51)" stroke="rgb(51,51,51)" stroke-width="1" opacity="0" d="M 0.5 15 L 0.5 16 L 0.5 15 Z " /><path fill="rgb(14,14,13)" stroke="rgb(14,14,13)" stroke-width="1" opacity="0" d="M 12.5 0 L 12.5 1 L 12.5 0 Z " /><path fill="rgb(14,14,13)" stroke="rgb(14,14,13)" stroke-width="1" opacity="0" d="M 15.5 1 L 16 2.5 L 15 2.5 L 15.5 1 Z " /><path fill="rgb(14,14,13)" stroke="rgb(14,14,13)" stroke-width="1" opacity="0" d="M 0.5 3 L 0.5 4 L 0.5 3 Z " /><path fill="rgb(14,14,13)" stroke="rgb(14,14,13)" stroke-width="1" opacity="0" d="M 0.5 12 L 0.5 13 L 0.5 12 Z " /><path fill="rgb(14,14,13)" stroke="rgb(14,14,13)" stroke-width="1" opacity="0" d="M 15.5 13 L 16 14.5 L 13.5 16 L 13.5 15 L 15 15 L 15.5 13 Z " /><path fill="rgb(14,14,13)" stroke="rgb(14,14,13)" stroke-width="1" opacity="0" d="M 1.5 15 L 3 15.5 L 1.5 16 L 1.5 15 Z " /></svg>