<svg width="128" height="128" version="1.1" xmlns="http://www.w3.org/2000/svg" desc="Created with imagetracer.js version 1.2.6" ><path fill="rgb(7,39,62)" stroke="rgb(7,39,62)" stroke-width="1" opacity="0.03137254901960784" d="M 15.5 35 L 15.5 36 L 15.5 35 Z " /><path fill="rgb(7,39,62)" stroke="rgb(7,39,62)" stroke-width="1" opacity="0.03137254901960784" d="M 121.5 35 L 121.5 36 L 121.5 35 Z " /><path fill="rgb(7,39,62)" stroke="rgb(7,39,62)" stroke-width="1" opacity="0.03137254901960784" d="M 13.5 36 L 13.5 37 L 13.5 36 Z " /><path fill="rgb(7,39,62)" stroke="rgb(7,39,62)" stroke-width="1" opacity="0.03137254901960784" d="M 124.5 37 Q 127 38 125.5 39 Q 123 38 124.5 37 Z " /><path fill="rgb(7,39,62)" stroke="rgb(7,39,62)" stroke-width="1" opacity="0.03137254901960784" d="M 11.5 38 L 12 39.5 L 11 39.5 L 11.5 38 Z " /><path fill="rgb(7,39,62)" stroke="rgb(7,39,62)" stroke-width="1" opacity="0.03137254901960784" d="M 126.5 40 L 127 46.5 L 126 46.5 L 126.5 40 Z " /><path fill="rgb(7,39,62)" stroke="rgb(7,39,62)" stroke-width="1" opacity="0.03137254901960784" d="M 8.5 49 L 9 51.5 L 8 51.5 L 8.5 49 Z " /><path fill="rgb(7,39,62)" stroke="rgb(7,39,62)" stroke-width="1" opacity="0.03137254901960784" d="M 125.5 50 L 125.5 51 L 125.5 50 Z " /><path fill="rgb(7,39,62)" stroke="rgb(7,39,62)" stroke-width="1" opacity="0.03137254901960784" d="M 7.5 55 L 124 55.5 L 7.5 56 L 7.5 55 Z " /><path fill="rgb(7,39,62)" stroke="rgb(7,39,62)" stroke-width="1" opacity="0.03137254901960784" d="M 6.5 58 L 7 61.5 L 6 61.5 L 6.5 58 Z " /><path fill="rgb(7,39,62)" stroke="rgb(7,39,62)" stroke-width="1" opacity="0.03137254901960784" d="M 122.5 62 L 122.5 63 L 122.5 62 Z " /><path fill="rgb(7,39,62)" stroke="rgb(7,39,62)" stroke-width="1" opacity="0.03137254901960784" d="M 5.5 65 L 5.5 66 L 5.5 65 Z " /><path fill="rgb(7,39,62)" stroke="rgb(7,39,62)" stroke-width="1" opacity="0.03137254901960784" d="M 121.5 66 L 122 69.5 L 121 69.5 L 121.5 66 Z " /><path fill="rgb(7,39,62)" stroke="rgb(7,39,62)" stroke-width="1" opacity="0.03137254901960784" d="M 4.5 72 L 121 72.5 L 4.5 73 L 4.5 72 Z " /><path fill="rgb(7,39,62)" stroke="rgb(7,39,62)" stroke-width="1" opacity="0.03137254901960784" d="M 119.5 76 L 120 78.5 L 119 78.5 L 119.5 76 Z " /><path fill="rgb(7,39,62)" stroke="rgb(7,39,62)" stroke-width="1" opacity="0.03137254901960784" d="M 2.5 77 L 2.5 78 L 2.5 77 Z " /><path fill="rgb(7,39,62)" stroke="rgb(7,39,62)" stroke-width="1" opacity="0.03137254901960784" d="M 1.5 81 L 2 87.5 L 1 87.5 L 1.5 81 Z " /><path fill="rgb(7,39,62)" stroke="rgb(7,39,62)" stroke-width="1" opacity="0.03137254901960784" d="M 116.5 88 L 116.5 89 L 116.5 88 Z " /><path fill="rgb(7,39,62)" stroke="rgb(7,39,62)" stroke-width="1" opacity="0.03137254901960784" d="M 2.5 89 Q 5 90 3.5 91 Q 1 90 2.5 89 Z " /><path fill="rgb(7,39,62)" stroke="rgb(7,39,62)" stroke-width="1" opacity="0.03137254901960784" d="M 114.5 91 L 114.5 92 L 114.5 91 Z " /><path fill="rgb(7,39,62)" stroke="rgb(7,39,62)" stroke-width="1" opacity="0.03137254901960784" d="M 6.5 92 L 6.5 93 L 6.5 92 Z " /><path fill="rgb(7,39,62)" stroke="rgb(7,39,62)" stroke-width="1" opacity="0.03137254901960784" d="M 112.5 92 L 112.5 93 L 112.5 92 Z " /><path fill="rgb(0,0,0)" stroke="rgb(0,0,0)" stroke-width="1" opacity="0" d="M 0 0 L 128 0 L 128 128 L 0 128 L 0 0 Z M 16 35 L 15 36 Q 12 35 13 38 L 11 38 L 11 43 L 8 50 Q 8 52 9 52 L 125 52 L 126 51 Q 125 47 127 47 Q 128 41 126 39 L 122 35 L 16 35 Z M 7 55 Q 8 58 6 59 L 6 65 L 4 69 Q 3 73 5 73 L 121 73 Q 120 70 122 70 L 122 64 L 124 60 Q 124 55 124 55 L 7 55 Z M 4 76 L 2 78 Q 3 81 1 82 Q 0 87 2 90 L 7 93 L 113 93 L 115 92 Q 114 90 117 89 L 117 86 L 120 79 Q 120 76 120 76 L 4 76 Z " /><path fill="rgb(0,153,102)" stroke="rgb(0,153,102)" stroke-width="1" opacity="0.4666666666666667" d="M 16.5 35 L 121 35.5 L 16.5 36 L 16.5 35 Z " /><path fill="rgb(0,153,102)" stroke="rgb(0,153,102)" stroke-width="1" opacity="0.4666666666666667" d="M 14.5 36 L 15 36.5 L 12.5 39 L 12 38.5 L 14.5 36 Z " /><path fill="rgb(0,153,102)" stroke="rgb(0,153,102)" stroke-width="1" opacity="0.4666666666666667" d="M 122.5 36 Q 124.75 35.25 124 37.5 L 126 40.5 L 125 40.5 L 122 36.5 L 122.5 36 Z " /><path fill="rgb(0,153,102)" stroke="rgb(0,153,102)" stroke-width="1" opacity="0.4666666666666667" d="M 11.5 40 L 12 42.5 L 11 43.5 L 10 51 L 123.5 51 L 125 49.5 L 125.5 46 L 126 49.5 L 125 52 L 9.5 52 Q 8.38 51.88 9 46.5 L 11.5 40 Z " /><path fill="rgb(0,153,102)" stroke="rgb(0,153,102)" stroke-width="1" opacity="0.996078431372549" d="M 15.5 36 L 17 36.5 L 13 39.5 L 12.5 41 L 12 39.5 L 15.5 36 Z " /><path fill="rgb(0,153,102)" stroke="rgb(0,153,102)" stroke-width="1" opacity="0.996078431372549" d="M 120.5 36 L 125 39.5 Q 126.67 41.33 126 45.5 Q 124.25 46.25 125 49.5 L 123.5 51 L 10.5 51 Q 9.63 51.13 10 47.5 L 11 47.5 Q 10.75 50.25 11.5 50 L 124 50 Q 123 46.62 125 45.5 L 125 41.5 L 121.5 37 Q 119.12 36.88 120.5 36 Z " /><path fill="rgb(0,153,102)" stroke="rgb(0,153,102)" stroke-width="1" opacity="0.996078431372549" d="M 11.5 43 L 12 45.5 L 11 45.5 L 11.5 43 Z " /><path fill="rgb(0,153,102)" stroke="rgb(0,153,102)" stroke-width="1" opacity="1" d="M 17.5 36 L 119.5 36 L 124 39.5 Q 125.67 41.33 125 45.5 Q 123 46.62 124 50 L 11.5 50 Q 10.63 50.13 11 46.5 Q 13 45.5 12 41.5 L 15.5 37 L 17.5 36 Z " /><path fill="rgb(0,75,132)" stroke="rgb(0,75,132)" stroke-width="1" opacity="0.9529411764705882" d="M 8.5 57 L 8.5 58 L 8.5 57 Z " /><path fill="rgb(0,75,132)" stroke="rgb(0,75,132)" stroke-width="1" opacity="0.9529411764705882" d="M 122.5 57 L 122.5 58 L 122.5 57 Z " /><path fill="rgb(0,75,132)" stroke="rgb(0,75,132)" stroke-width="1" opacity="0.9529411764705882" d="M 121.5 60 L 122 61.5 L 121 61.5 L 121.5 60 Z " /><path fill="rgb(0,75,132)" stroke="rgb(0,75,132)" stroke-width="1" opacity="0.9529411764705882" d="M 7.5 61 L 7.5 62 L 7.5 61 Z " /><path fill="rgb(0,75,132)" stroke="rgb(0,75,132)" stroke-width="1" opacity="0.9529411764705882" d="M 6.5 66 L 7 67.5 L 6 67.5 L 6.5 66 Z " /><path fill="rgb(0,75,132)" stroke="rgb(0,75,132)" stroke-width="1" opacity="0.9529411764705882" d="M 120.5 66 L 120.5 67 L 120.5 66 Z " /><path fill="rgb(0,75,132)" stroke="rgb(0,75,132)" stroke-width="1" opacity="0.9529411764705882" d="M 5.5 70 L 5.5 71 L 5.5 70 Z " /><path fill="rgb(0,75,132)" stroke="rgb(0,75,132)" stroke-width="1" opacity="0.9529411764705882" d="M 119.5 70 L 119.5 71 L 119.5 70 Z " /><path fill="rgb(0,75,132)" stroke="rgb(0,75,132)" stroke-width="1" opacity="1" d="M 9.5 57 L 121.5 57 Q 122.25 56.75 122 59.5 L 121 60.5 L 120 69.5 L 118.5 71 L 6.5 71 Q 5.75 71.25 6 68.5 L 7 67.5 L 8 58.5 L 9.5 57 Z " /><path fill="rgb(0,75,132)" stroke="rgb(0,75,132)" stroke-width="1" opacity="0.3215686274509804" d="M 7.5 56 L 8 58.5 L 7 58.5 L 7.5 56 Z " /><path fill="rgb(0,75,132)" stroke="rgb(0,75,132)" stroke-width="1" opacity="0.3215686274509804" d="M 123.5 56 L 124 59.5 L 122.5 62 L 122 59.5 L 123.5 56 Z " /><path fill="rgb(0,75,132)" stroke="rgb(0,75,132)" stroke-width="1" opacity="0.3215686274509804" d="M 6.5 62 L 7 63.5 L 6 63.5 L 6.5 62 Z " /><path fill="rgb(0,75,132)" stroke="rgb(0,75,132)" stroke-width="1" opacity="0.3215686274509804" d="M 121.5 64 L 122 65.5 L 121 65.5 L 121.5 64 Z " /><path fill="rgb(0,75,132)" stroke="rgb(0,75,132)" stroke-width="1" opacity="0.3215686274509804" d="M 5.5 66 L 6 68.5 L 4.5 72 L 4 68.5 L 5.5 66 Z " /><path fill="rgb(0,75,132)" stroke="rgb(0,75,132)" stroke-width="1" opacity="0.3215686274509804" d="M 120.5 69 L 121 71.5 L 120 71.5 L 120.5 69 Z " /><path fill="rgb(0,75,132)" stroke="rgb(0,75,132)" stroke-width="1" opacity="0.7568627450980392" d="M 8.5 56 L 123 56.5 L 8.5 57 L 8.5 56 Z " /><path fill="rgb(0,75,132)" stroke="rgb(0,75,132)" stroke-width="1" opacity="0.7568627450980392" d="M 122.5 58 L 122.5 59 L 122.5 58 Z " /><path fill="rgb(0,75,132)" stroke="rgb(0,75,132)" stroke-width="1" opacity="0.7568627450980392" d="M 7.5 59 L 8 60.5 L 7 60.5 L 7.5 59 Z " /><path fill="rgb(0,75,132)" stroke="rgb(0,75,132)" stroke-width="1" opacity="0.7568627450980392" d="M 121.5 62 L 122 63.5 L 121 63.5 L 121.5 62 Z " /><path fill="rgb(0,75,132)" stroke="rgb(0,75,132)" stroke-width="1" opacity="0.7568627450980392" d="M 6.5 64 L 7 65.5 L 6 65.5 L 6.5 64 Z " /><path fill="rgb(0,75,132)" stroke="rgb(0,75,132)" stroke-width="1" opacity="0.7568627450980392" d="M 120.5 67 L 121 68.5 L 120 68.5 L 120.5 67 Z " /><path fill="rgb(0,75,132)" stroke="rgb(0,75,132)" stroke-width="1" opacity="0.7568627450980392" d="M 5.5 69 L 5.5 70 L 5.5 69 Z " /><path fill="rgb(0,75,132)" stroke="rgb(0,75,132)" stroke-width="1" opacity="0.7568627450980392" d="M 5.5 71 L 120 71.5 L 5.5 72 L 5.5 71 Z " /><path fill="rgb(238,58,65)" stroke="rgb(238,58,65)" stroke-width="1" opacity="0.4666666666666667" d="M 3 76 L 118.5 76 Q 119.62 76.13 119 81.5 L 116.5 88 L 116 85.5 L 117 84.5 L 118 77 L 4.5 77 L 3 78.5 L 2.5 82 L 2 78.5 L 3 76 Z " /><path fill="rgb(238,58,65)" stroke="rgb(238,58,65)" stroke-width="1" opacity="0.4666666666666667" d="M 2.5 87 L 6 91.5 L 4 92 Q 4.5 89.5 2 88.5 L 2.5 87 Z " /><path fill="rgb(238,58,65)" stroke="rgb(238,58,65)" stroke-width="1" opacity="0.4666666666666667" d="M 115.5 89 L 116 89.5 L 113.5 92 L 113 91.5 L 115.5 89 Z " /><path fill="rgb(238,58,65)" stroke="rgb(238,58,65)" stroke-width="1" opacity="0.4666666666666667" d="M 7.5 92 L 112 92.5 L 7.5 93 L 7.5 92 Z " /><path fill="rgb(238,58,65)" stroke="rgb(238,58,65)" stroke-width="1" opacity="0.996078431372549" d="M 4.5 77 L 117.5 77 Q 118.38 76.88 118 80.5 L 117 80.5 Q 117.25 77.75 116.5 78 L 4 78 Q 5 81.38 3 82.5 L 3 86.5 L 6.5 91 L 8 91.5 L 6.5 92 L 2 86.5 L 2 82.5 Q 3.75 81.75 3 78.5 L 4.5 77 Z " /><path fill="rgb(238,58,65)" stroke="rgb(238,58,65)" stroke-width="1" opacity="0.996078431372549" d="M 116.5 82 L 117 84.5 L 116 84.5 L 116.5 82 Z " /><path fill="rgb(238,58,65)" stroke="rgb(238,58,65)" stroke-width="1" opacity="0.996078431372549" d="M 115.5 87 L 116 88.5 L 111.5 92 L 111.5 91 L 115 88.5 L 115.5 87 Z " /><path fill="rgb(238,58,65)" stroke="rgb(238,58,65)" stroke-width="1" opacity="1" d="M 4 78 L 116.5 78 Q 117.38 77.88 117 81.5 Q 115 82.5 116 86.5 L 112.5 91 L 110.5 92 L 8.5 92 L 4 88.5 Q 2.33 86.67 3 82.5 Q 5 81.37 4 78 Z " /></svg>