<svg width="128" height="128" version="1.1" xmlns="http://www.w3.org/2000/svg" desc="Created with imagetracer.js version 1.2.6" ><path fill="rgb(0,0,0)" stroke="rgb(0,0,0)" stroke-width="1" opacity="1" d="M 0 0 L 128 0 L 128 128 L 0 128 L 0 0 Z M 56 20 L 56 25 L 51 25 L 51 27 L 51 27 L 49 25 Q 46 24 47 27 L 44 27 L 46 26 L 46 25 L 41 26 L 43 29 L 45 28 L 45 31 L 42 28 L 41 28 Q 41 31 41 31 L 25 31 L 26 34 L 27 32 L 29 34 L 26 34 Q 28 37 27 46 L 26 47 Q 25 45 24 47 L 22 46 Q 20 47 20 50 L 22 49 L 21 51 L 23 51 L 23 77 Q 23 77 21 77 L 21 79 L 20 80 L 20 82 L 15 82 Q 14 85 16 86 L 15 87 L 15 105 Q 18 106 20 103 L 19 106 L 26 106 L 27 105 L 27 107 L 31 106 Q 32 104 33 106 L 35 105 L 35 107 L 37 106 L 41 107 L 36 108 L 42 108 L 43 104 L 43 108 L 45 107 L 46 108 L 47 107 L 57 107 L 60 108 L 60 107 L 62 107 L 62 92 L 61 102 L 60 93 Q 61 90 66 91 L 67 93 L 67 102 Q 65 103 67 104 Q 65 105 66 108 L 72 108 L 73 107 L 82 107 L 85 108 L 86 107 L 86 105 Q 87 107 92 106 L 93 107 L 92 105 L 93 104 L 95 106 Q 97 105 96 108 L 98 108 L 98 106 Q 100 105 99 108 Q 102 109 101 106 L 103 106 L 110 106 L 111 105 Q 115 106 113 102 Q 111 101 113 100 L 112 98 L 112 87 Q 114 86 112 85 L 113 82 L 107 82 L 108 80 Q 106 79 108 78 L 104 77 L 104 52 L 106 51 L 105 50 L 107 48 L 108 50 L 108 47 L 107 47 L 106 46 L 105 47 L 103 46 L 103 32 Q 103 30 99 31 L 97 34 L 85 34 L 88 32 L 97 32 L 97 31 L 87 31 L 87 27 L 85 27 L 87 26 L 85 25 Q 84 27 83 25 L 82 27 L 81 27 Q 82 24 78 25 Q 77 27 76 25 L 74 26 L 72 24 Q 71 21 70 23 L 70 22 L 69 20 L 66 20 L 66 22 L 62 22 Q 60 18 59 21 L 56 20 Z M 62 20 L 62 21 L 62 20 Z M 71 20 L 71 21 L 71 20 Z M 72 21 L 72 22 L 72 21 Z M 16 106 L 16 107 L 17 107 L 16 106 Z M 112 106 L 111 107 L 103 107 L 103 108 L 112 108 L 113 107 L 112 106 Z M 19 107 L 19 108 L 26 108 L 19 107 Z M 31 107 L 31 108 L 34 108 L 31 107 Z M 87 107 L 87 108 L 92 108 L 87 107 Z M 95 107 L 95 108 L 95 107 Z " /><path fill="rgb(0,0,0)" stroke="rgb(0,0,0)" stroke-width="1" opacity="1" d="M 67.5 21 L 67.5 22 L 67.5 21 Z " /><path fill="rgb(0,0,0)" stroke="rgb(0,0,0)" stroke-width="1" opacity="1" d="M 58.5 22 L 59 23.5 L 58 23.5 L 58.5 22 Z " /><path fill="rgb(0,0,0)" stroke="rgb(0,0,0)" stroke-width="1" opacity="1" d="M 53.5 26 L 55 26.5 L 53.5 27 L 53.5 26 Z " /><path fill="rgb(0,0,0)" stroke="rgb(0,0,0)" stroke-width="1" opacity="1" d="M 78.5 26 Q 81 27 79.5 28 Q 76.71 28.67 78.5 26 Z " /><path fill="rgb(0,0,0)" stroke="rgb(0,0,0)" stroke-width="1" opacity="1" d="M 46.5 28 L 46.5 29 L 46.5 28 Z " /><path fill="rgb(0,0,0)" stroke="rgb(0,0,0)" stroke-width="1" opacity="1" d="M 81.5 28 L 81.5 29 L 81.5 28 Z " /><path fill="rgb(0,0,0)" stroke="rgb(0,0,0)" stroke-width="1" opacity="1" d="M 83.5 28 L 83.5 29 L 83.5 28 Z " /><path fill="rgb(0,0,0)" stroke="rgb(0,0,0)" stroke-width="1" opacity="1" d="M 85.5 28 L 85.5 29 L 85.5 28 Z " /><path fill="rgb(0,0,0)" stroke="rgb(0,0,0)" stroke-width="1" opacity="1" d="M 60.5 30 L 61 31.5 L 60 31.5 L 60.5 30 Z " /><path fill="rgb(0,0,0)" stroke="rgb(0,0,0)" stroke-width="1" opacity="1" d="M 62.5 30 L 62.5 31 L 62.5 30 Z " /><path fill="rgb(0,0,0)" stroke="rgb(0,0,0)" stroke-width="1" opacity="1" d="M 65.5 30 L 65.5 31 L 65.5 30 Z " /><path fill="rgb(0,0,0)" stroke="rgb(0,0,0)" stroke-width="1" opacity="1" d="M 83.5 30 L 83.5 31 L 83.5 30 Z " /><path fill="rgb(0,0,0)" stroke="rgb(0,0,0)" stroke-width="1" opacity="1" d="M 85.5 30 L 86 31.5 L 85 31.5 L 85.5 30 Z " /><path fill="rgb(0,0,0)" stroke="rgb(0,0,0)" stroke-width="1" opacity="1" d="M 69.5 31 L 70 32.5 L 69 32.5 L 69.5 31 Z " /><path fill="rgb(0,0,0)" stroke="rgb(0,0,0)" stroke-width="1" opacity="1" d="M 30.5 32 L 40.5 32 L 41 34 L 31.5 34 Q 29 33 30.5 32 Z " /><path fill="rgb(0,0,0)" stroke="rgb(0,0,0)" stroke-width="1" opacity="1" d="M 42.5 32 Q 45 33 43.5 34 Q 41 33 42.5 32 Z " /><path fill="rgb(0,0,0)" stroke="rgb(0,0,0)" stroke-width="1" opacity="1" d="M 58.5 32 L 61 33.5 L 58 34 L 58.5 32 Z " /><path fill="rgb(0,0,0)" stroke="rgb(0,0,0)" stroke-width="1" opacity="1" d="M 52.5 33 L 52.5 34 L 52.5 33 Z " /><path fill="rgb(0,0,0)" stroke="rgb(0,0,0)" stroke-width="1" opacity="1" d="M 55.5 33 L 55.5 34 L 55.5 33 Z " /><path fill="rgb(0,0,0)" stroke="rgb(0,0,0)" stroke-width="1" opacity="1" d="M 62.5 33 L 66 33.5 L 62.5 34 L 62.5 33 Z " /><path fill="rgb(0,0,0)" stroke="rgb(0,0,0)" stroke-width="1" opacity="1" d="M 67.5 33 L 67.5 34 L 67.5 33 Z " /><path fill="rgb(0,0,0)" stroke="rgb(0,0,0)" stroke-width="1" opacity="1" d="M 76.5 33 L 76.5 34 L 76.5 33 Z " /><path fill="rgb(0,0,0)" stroke="rgb(0,0,0)" stroke-width="1" opacity="1" d="M 98.5 33 L 98.5 34 L 98.5 33 Z " /><path fill="rgb(0,0,0)" stroke="rgb(0,0,0)" stroke-width="1" opacity="1" d="M 101.5 35 L 101.5 36 L 101.5 35 Z " /><path fill="rgb(0,0,0)" stroke="rgb(0,0,0)" stroke-width="1" opacity="1" d="M 101.5 46 L 101.5 47 L 101.5 46 Z " /><path fill="rgb(0,0,0)" stroke="rgb(0,0,0)" stroke-width="1" opacity="1" d="M 24.5 49 L 24.5 50 L 24.5 49 Z " /><path fill="rgb(0,0,0)" stroke="rgb(0,0,0)" stroke-width="1" opacity="1" d="M 65.5 50 L 66 82 L 64 81.5 L 64 51.5 L 65.5 50 Z " /><path fill="rgb(0,0,0)" stroke="rgb(0,0,0)" stroke-width="1" opacity="1" d="M 73.5 50 L 74 82 L 72 81.5 L 72 51.5 L 73.5 50 Z " /><path fill="rgb(0,0,0)" stroke="rgb(0,0,0)" stroke-width="1" opacity="1" d="M 36 51 L 38 51.5 L 38 82 L 36 81.5 L 36 51 Z " /><path fill="rgb(0,0,0)" stroke="rgb(0,0,0)" stroke-width="1" opacity="1" d="M 44.5 51 L 45 81.5 L 44 81.5 L 44.5 51 Z " /><path fill="rgb(0,0,0)" stroke="rgb(0,0,0)" stroke-width="1" opacity="1" d="M 46.5 51 L 47 81.5 L 46 81.5 L 46.5 51 Z " /><path fill="rgb(0,0,0)" stroke="rgb(0,0,0)" stroke-width="1" opacity="1" d="M 55.5 51 L 56 81.5 L 55 81.5 L 55.5 51 Z " /><path fill="rgb(0,0,0)" stroke="rgb(0,0,0)" stroke-width="1" opacity="1" d="M 82.5 51 L 83 81.5 L 82 81.5 L 82.5 51 Z " /><path fill="rgb(0,0,0)" stroke="rgb(0,0,0)" stroke-width="1" opacity="1" d="M 89.5 51 L 90 81.5 L 89 81.5 L 89.5 51 Z " /><path fill="rgb(0,0,0)" stroke="rgb(0,0,0)" stroke-width="1" opacity="1" d="M 91 51 L 93 51.5 L 93 82 L 91 81.5 L 91 51 Z " /><path fill="rgb(0,0,0)" stroke="rgb(0,0,0)" stroke-width="1" opacity="1" d="M 21.5 81 L 21.5 82 L 21.5 81 Z " /><path fill="rgb(0,0,0)" stroke="rgb(0,0,0)" stroke-width="1" opacity="1" d="M 105.5 81 L 105.5 82 L 105.5 81 Z " /><path fill="rgb(0,0,0)" stroke="rgb(0,0,0)" stroke-width="1" opacity="1" d="M 99.5 90 L 99.5 91 L 99.5 90 Z " /><path fill="rgb(0,0,0)" stroke="rgb(0,0,0)" stroke-width="1" opacity="1" d="M 27.5 92 L 27.5 93 L 27.5 92 Z " /><path fill="rgb(0,0,0)" stroke="rgb(0,0,0)" stroke-width="1" opacity="1" d="M 30.5 92 L 30.5 93 L 30.5 92 Z " /><path fill="rgb(0,0,0)" stroke="rgb(0,0,0)" stroke-width="1" opacity="1" d="M 97.5 92 L 99.5 93 Q 100.75 90.75 102 93.5 L 100 93.5 L 99.5 96 L 98.5 94 L 98 96.5 L 100 98.5 L 99.5 99 Q 96.5 98.5 97 94.5 L 98 93.5 L 97.5 92 Z " /><path fill="rgb(0,0,0)" stroke="rgb(0,0,0)" stroke-width="1" opacity="1" d="M 26.5 94 L 26.5 95 L 26.5 94 Z " /><path fill="rgb(0,0,0)" stroke="rgb(0,0,0)" stroke-width="1" opacity="1" d="M 28.5 94 L 28.5 95 L 28.5 94 Z " /><path fill="rgb(0,0,0)" stroke="rgb(0,0,0)" stroke-width="1" opacity="1" d="M 30.5 94 L 30.5 95 L 30.5 94 Z " /><path fill="rgb(0,0,0)" stroke="rgb(0,0,0)" stroke-width="1" opacity="1" d="M 101.5 95 L 101.5 96 L 101.5 95 Z " /><path fill="rgb(0,0,0)" stroke="rgb(0,0,0)" stroke-width="1" opacity="1" d="M 26.5 97 L 26.5 98 L 26.5 97 Z " /><path fill="rgb(0,0,0)" stroke="rgb(0,0,0)" stroke-width="1" opacity="1" d="M 28.5 97 L 29 98.5 L 28 98.5 L 28.5 97 Z " /><path fill="rgb(0,0,0)" stroke="rgb(0,0,0)" stroke-width="1" opacity="1" d="M 30.5 97 L 32 97.5 L 30.5 98 L 30.5 97 Z " /><path fill="rgb(0,0,0)" stroke="rgb(0,0,0)" stroke-width="1" opacity="1" d="M 101.5 97 L 101.5 98 L 101.5 97 Z " /><path fill="rgb(0,0,0)" stroke="rgb(0,0,0)" stroke-width="1" opacity="1" d="M 30.5 99 L 31 101.5 L 30 101.5 L 30.5 99 Z " /><path fill="rgb(0,0,0)" stroke="rgb(0,0,0)" stroke-width="1" opacity="1" d="M 97.5 99 L 97.5 100 L 97.5 99 Z " /><path fill="rgb(0,0,0)" stroke="rgb(0,0,0)" stroke-width="1" opacity="1" d="M 99.5 100 L 100 101.5 L 99 101.5 L 99.5 100 Z " /><path fill="rgb(0,0,0)" stroke="rgb(0,0,0)" stroke-width="1" opacity="1" d="M 97.5 101 L 97.5 102 L 97.5 101 Z " /><path fill="rgb(0,0,0)" stroke="rgb(0,0,0)" stroke-width="1" opacity="1" d="M 60.5 103 L 61 104.5 L 60 104.5 L 60.5 103 Z " /><path fill="rgb(0,0,0)" stroke="rgb(0,0,0)" stroke-width="1" opacity="1" d="M 108.5 103 L 109 104.5 L 108 104.5 L 108.5 103 Z " /><path fill="rgb(0,0,0)" stroke="rgb(0,0,0)" stroke-width="1" opacity="1" d="M 67.5 106 L 67.5 107 L 67.5 106 Z " /><path fill="rgb(255,255,255)" stroke="rgb(255,255,255)" stroke-width="1" opacity="1" d="M 62 23 L 66 23 L 66 25.5 L 67 27.5 Q 65.5 30.5 64 27.5 L 64 25 Q 61 26 62 23 Z M 66 26 L 65 28 L 66 28 L 66 26 Z " /><path fill="rgb(255,255,255)" stroke="rgb(255,255,255)" stroke-width="1" opacity="1" d="M 59.5 26 L 61.5 27 L 63 26.5 L 62 27.5 L 62.5 29 L 59 26.5 L 59.5 26 Z " /><path fill="rgb(255,255,255)" stroke="rgb(255,255,255)" stroke-width="1" opacity="1" d="M 68.5 26 L 68.5 27 L 68.5 26 Z " /><path fill="rgb(255,255,255)" stroke="rgb(255,255,255)" stroke-width="1" opacity="1" d="M 54.5 28 L 56 28.5 L 54.5 29 L 54.5 28 Z " /><path fill="rgb(255,255,255)" stroke="rgb(255,255,255)" stroke-width="1" opacity="1" d="M 69.5 28 L 69.5 29 L 69.5 28 Z " /><path fill="rgb(255,255,255)" stroke="rgb(255,255,255)" stroke-width="1" opacity="1" d="M 71.5 28 L 71.5 29 L 71.5 28 Z " /><path fill="rgb(255,255,255)" stroke="rgb(255,255,255)" stroke-width="1" opacity="1" d="M 73.5 28 L 74.5 29 L 76 28.5 L 75 29.5 L 75.5 31 L 74.5 30 L 73 30.5 L 74 29.5 L 73.5 28 Z " /><path fill="rgb(255,255,255)" stroke="rgb(255,255,255)" stroke-width="1" opacity="1" d="M 52.5 30 L 52.5 31 L 52.5 30 Z " /><path fill="rgb(255,255,255)" stroke="rgb(255,255,255)" stroke-width="1" opacity="1" d="M 54.5 30 L 54.5 31 L 54.5 30 Z " /><path fill="rgb(255,255,255)" stroke="rgb(255,255,255)" stroke-width="1" opacity="1" d="M 71.5 30 L 71.5 31 L 71.5 30 Z " /><path fill="rgb(255,255,255)" stroke="rgb(255,255,255)" stroke-width="1" opacity="1" d="M 46.5 31 L 46.5 32 L 46.5 31 Z " /><path fill="rgb(255,255,255)" stroke="rgb(255,255,255)" stroke-width="1" opacity="1" d="M 48.5 31 L 50 33.5 L 48 33.5 L 49.5 36 L 77.5 36 L 78.5 35 L 81.5 36 L 99 36 L 99 46 Q 95.63 45 94.5 47 Q 93.25 44.75 92 47.5 L 92.5 49 L 90 47.5 L 90.5 46 Q 85.75 44.75 84.5 47 Q 83.5 45 82.5 47 L 79.5 46 L 76 47.5 L 79 49.5 L 79 81.5 L 77 82 L 77 83.5 L 78.5 85 Q 81.75 84.25 82.5 86 L 83.5 84 L 85 85.5 L 84.5 87 L 88.5 86 L 90.5 87 L 89.5 84 L 92.5 88 L 94.5 87 Q 97 88 95.5 89 L 93 88 L 92 92.5 Q 93 94 94 91.5 L 94.5 90 L 95 91.5 L 92 95.5 L 93 98 L 95 98.5 L 93 99.5 L 95 100.5 L 92.5 101 L 91.5 100 L 87 100 L 86.5 102 L 85.5 100 L 83 102.5 L 84 103.5 L 82.5 106 L 71.5 106 L 70 104.5 Q 72 103.5 70 102.5 L 70 92.5 L 71 91.5 Q 69 90.5 71 89.5 L 70.5 86 Q 69.5 88 68.5 86 L 67 87.5 L 67 90 L 62 90 Q 63.13 87.33 60.5 88 L 60.5 90 Q 59.25 87.75 58 90.5 L 59 91.5 L 59 103.5 L 58 104.5 L 58.5 106 Q 57.5 104 56.5 106 L 45.5 106 L 44 104.5 L 46 104.5 Q 46.67 101.88 44 103 L 44 101 L 41.5 101 Q 40.5 99 36.5 100 L 34.5 101 L 33 99.5 L 36 96.5 L 36 94.5 L 33 89.5 L 34.5 90 L 36 89.5 L 35 86.5 L 35.5 85 L 36.5 87 L 37.5 85 L 40.5 87 L 42 85.5 L 40 83.5 L 40.5 83 L 44.5 86 L 48.5 84 L 49.5 85 L 51 84.5 L 50.5 86 L 53.5 85 L 55.5 86 Q 56.5 84 57.5 86 L 59 84.5 L 58.5 83 L 62.5 85 L 64.5 84 L 67.5 86 L 68.5 85 L 71.5 86 L 73 85.5 L 72.5 84 L 74 85.5 L 73.5 87 L 76 86.5 L 75.5 85 L 77 84.5 L 76 83.5 L 76 50.5 Q 78.25 49.25 75.5 48 Q 72.88 48.67 74 46 L 70.5 46 L 70.5 48 L 68.5 47 L 66.5 49 L 66 48.5 L 68 46.5 L 67.5 46 L 65 47.5 L 64.5 49 L 61.5 47 L 60.5 50 L 59.5 47 L 58.5 48 L 57 47.5 Q 57.75 49.75 55.5 49 L 56 47.5 L 54.5 46 L 51.5 47 Q 50.75 45.25 47.5 46 L 47.5 48 Q 46.1 45.4 41.5 46 L 39.5 47 Q 38 44.5 36.5 48 L 34.5 47 L 33 49.5 L 34 50.5 L 34 82 L 32 82.5 L 34 83.5 L 33 85.5 L 33.5 87 L 31 86 L 32 88.5 L 29 87.5 L 28.5 89 L 28 87 L 25 87.5 L 26 88.5 L 25 91.5 L 23 95.5 L 25 95.5 L 26 100.5 L 24.5 100 Q 21.25 99.25 20.5 101 L 19.5 99 L 18 99.5 L 18 87.5 L 19 86.5 Q 16.75 85.25 19.5 84 L 20 87 L 25 86.5 L 23 85.5 L 26 85 Q 26.75 82.42 25 81.5 L 26 80.5 L 26 51.5 L 27 50.5 L 26.5 49 L 27.5 50 L 29 49.5 Q 28.12 52.5 32.5 51 L 31.5 48 L 33 48.5 L 34 46.5 L 32.5 46 L 31 46.5 L 30.5 41 L 29.5 46 L 29 36 L 45.5 36 L 46 34.5 L 48.5 31 Z M 48 35 L 48 36 L 48 35 Z M 36 46 L 36 47 L 37 47 L 36 46 Z M 57 46 L 57 47 L 57 46 Z M 59 46 L 59 47 L 59 46 Z M 61 46 L 61 47 L 61 46 Z M 63 46 L 63 47 L 64 47 L 63 46 Z M 78 50 L 78 51 L 78 50 Z M 32 84 L 32 85 L 32 84 Z M 60 85 L 60 86 L 60 85 Z M 64 85 L 64 86 L 64 85 Z M 78 85 L 78 86 L 78 85 Z M 46 86 L 46 87 L 49 87 L 46 86 Z M 53 86 L 53 87 L 54 87 L 53 86 Z M 65 86 L 65 87 L 65 86 Z M 67 86 L 67 87 L 67 86 Z M 80 86 L 80 87 L 80 86 Z M 20 87 L 19 98 L 20 98 L 20 87 Z M 59 87 L 59 88 L 59 87 Z M 58 88 L 56 90 L 58 90 L 58 88 Z M 72 90 L 72 91 L 72 90 Z M 36 91 L 35 93 L 36 93 L 36 91 Z M 58 91 L 58 92 L 58 91 Z M 24 92 L 24 93 L 24 92 Z M 22 96 L 22 97 L 22 96 Z M 93 98 L 93 99 L 93 98 Z M 43 99 L 43 100 L 43 99 Z M 72 102 L 72 103 L 72 102 Z M 57 103 L 56 105 L 57 105 L 57 103 Z M 83 103 L 82 105 L 83 105 L 83 103 Z " /><path fill="rgb(255,255,255)" stroke="rgb(255,255,255)" stroke-width="1" opacity="1" d="M 78.5 31 L 78.5 32 L 78.5 31 Z " /><path fill="rgb(255,255,255)" stroke="rgb(255,255,255)" stroke-width="1" opacity="1" d="M 80 31 Q 83 29.75 82 33.5 L 79 33.5 L 80 31 Z " /><path fill="rgb(255,255,255)" stroke="rgb(255,255,255)" stroke-width="1" opacity="1" d="M 42.5 47 L 42.5 50 Q 39.5 48.5 42.5 47 Z " /><path fill="rgb(255,255,255)" stroke="rgb(255,255,255)" stroke-width="1" opacity="1" d="M 53.5 47 L 53.5 48 L 53.5 47 Z " /><path fill="rgb(255,255,255)" stroke="rgb(255,255,255)" stroke-width="1" opacity="1" d="M 88.5 47 L 88.5 48 L 88.5 47 Z " /><path fill="rgb(255,255,255)" stroke="rgb(255,255,255)" stroke-width="1" opacity="1" d="M 96.5 47 Q 98 50.5 99.5 48 Q 102.25 47.75 102 48.5 L 102 76.5 Q 104 77.5 102 78.5 L 103 81.5 Q 100.75 82.75 103.5 84 L 106 85.5 L 104.5 85 Q 101.88 84.33 103 87 L 108 86.5 L 107.5 85 L 110 85.5 Q 108 86.5 110 87.5 L 109.5 101 L 108.5 99 L 108 101 L 103 101 L 103 99 L 107 99 L 107 96 Q 104 97.25 105 93.5 L 105.5 92 Q 102.5 92.5 102 90.5 L 101 88.5 L 101.5 87 L 97 87 L 97 83.5 L 94 82 L 94 51.5 L 95 49.5 L 94.5 48 L 96 48.5 L 96.5 47 Z M 97 49 L 97 50 L 98 50 L 97 49 Z M 100 49 L 98 51 L 101 51 Q 102 48 100 49 Z M 103 84 L 103 85 L 103 84 Z M 107 93 L 106 95 L 107 95 L 107 93 Z M 108 95 L 108 96 L 108 95 Z M 109 97 L 109 98 L 109 97 Z " /><path fill="rgb(255,255,255)" stroke="rgb(255,255,255)" stroke-width="1" opacity="1" d="M 44.5 48 L 44.5 49 L 44.5 48 Z " /><path fill="rgb(255,255,255)" stroke="rgb(255,255,255)" stroke-width="1" opacity="1" d="M 49.5 48 L 52 49.5 L 52 81.5 L 50.5 82 L 49 82.5 L 49 51.5 L 51 51 L 51 49 L 49 48.5 L 49.5 48 Z " /><path fill="rgb(255,255,255)" stroke="rgb(255,255,255)" stroke-width="1" opacity="1" d="M 85.5 48 L 87 49.5 L 86.5 51 L 88 51.5 L 88 82 L 86 81.5 L 86 51.5 L 85 50.5 L 86 49.5 L 85.5 48 Z " /><path fill="rgb(255,255,255)" stroke="rgb(255,255,255)" stroke-width="1" opacity="1" d="M 68.5 49 Q 70.75 48.25 70 50.5 L 69 51.5 L 69 82 L 67 81.5 L 67 51 L 69 50.5 L 68.5 49 Z " /><path fill="rgb(255,255,255)" stroke="rgb(255,255,255)" stroke-width="1" opacity="1" d="M 41 51 L 43 51.5 L 43 82 L 41 81.5 L 41 51 Z " /><path fill="rgb(255,255,255)" stroke="rgb(255,255,255)" stroke-width="1" opacity="1" d="M 59.5 51 L 60 81.5 L 61 82.5 Q 60 84 59 81.5 L 59.5 51 Z " /><path fill="rgb(255,255,255)" stroke="rgb(255,255,255)" stroke-width="1" opacity="1" d="M 67.5 83 L 69 83.5 L 67.5 84 L 67.5 83 Z " /><path fill="rgb(255,255,255)" stroke="rgb(255,255,255)" stroke-width="1" opacity="1" d="M 74.5 83 L 74.5 84 L 74.5 83 Z " /><path fill="rgb(255,255,255)" stroke="rgb(255,255,255)" stroke-width="1" opacity="1" d="M 85.5 83 L 85.5 84 L 85.5 83 Z " /><path fill="rgb(255,255,255)" stroke="rgb(255,255,255)" stroke-width="1" opacity="1" d="M 93.5 84 L 94 85.5 L 93 85.5 L 93.5 84 Z " /><path fill="rgb(255,255,255)" stroke="rgb(255,255,255)" stroke-width="1" opacity="1" d="M 95.5 84 L 95.5 85 L 95.5 84 Z " /><path fill="rgb(255,255,255)" stroke="rgb(255,255,255)" stroke-width="1" opacity="1" d="M 21.5 85 L 21.5 86 L 21.5 85 Z " /><path fill="rgb(255,255,255)" stroke="rgb(255,255,255)" stroke-width="1" opacity="1" d="M 69.5 88 L 69.5 89 L 69.5 88 Z " /><path fill="rgb(255,255,255)" stroke="rgb(255,255,255)" stroke-width="1" opacity="1" d="M 94.5 96 L 94.5 97 L 94.5 96 Z " /><path fill="rgb(46,46,46)" stroke="rgb(46,46,46)" stroke-width="1" opacity="1" d="M 61.5 22 L 67 22.5 L 61 23 L 60.5 25 L 60 23.5 L 61.5 22 Z " /><path fill="rgb(46,46,46)" stroke="rgb(46,46,46)" stroke-width="1" opacity="1" d="M 57.5 25 L 57.5 26 L 57.5 25 Z " /><path fill="rgb(46,46,46)" stroke="rgb(46,46,46)" stroke-width="1" opacity="1" d="M 70.5 25 L 70.5 26 L 70.5 25 Z " /><path fill="rgb(46,46,46)" stroke="rgb(46,46,46)" stroke-width="1" opacity="1" d="M 55.5 26 L 55.5 27 L 55.5 26 Z " /><path fill="rgb(46,46,46)" stroke="rgb(46,46,46)" stroke-width="1" opacity="1" d="M 52.5 27 L 52.5 28 L 52.5 27 Z " /><path fill="rgb(46,46,46)" stroke="rgb(46,46,46)" stroke-width="1" opacity="1" d="M 75.5 27 L 75.5 28 L 75.5 27 Z " /><path fill="rgb(46,46,46)" stroke="rgb(46,46,46)" stroke-width="1" opacity="1" d="M 50.5 28 L 50.5 29 L 50.5 28 Z " /><path fill="rgb(46,46,46)" stroke="rgb(46,46,46)" stroke-width="1" opacity="1" d="M 47.5 29 L 47.5 30 L 47.5 29 Z " /><path fill="rgb(46,46,46)" stroke="rgb(46,46,46)" stroke-width="1" opacity="1" d="M 62.5 29 L 64 29.5 L 62.5 30 L 62.5 29 Z " /><path fill="rgb(46,46,46)" stroke="rgb(46,46,46)" stroke-width="1" opacity="1" d="M 65.5 29 L 65.5 30 L 65.5 29 Z " /><path fill="rgb(46,46,46)" stroke="rgb(46,46,46)" stroke-width="1" opacity="1" d="M 80.5 29 L 80.5 30 L 80.5 29 Z " /><path fill="rgb(46,46,46)" stroke="rgb(46,46,46)" stroke-width="1" opacity="1" d="M 45.5 30 L 45.5 31 L 45.5 30 Z " /><path fill="rgb(46,46,46)" stroke="rgb(46,46,46)" stroke-width="1" opacity="1" d="M 59.5 30 L 59.5 31 L 59.5 30 Z " /><path fill="rgb(46,46,46)" stroke="rgb(46,46,46)" stroke-width="1" opacity="1" d="M 68.5 30 L 68.5 31 L 68.5 30 Z " /><path fill="rgb(46,46,46)" stroke="rgb(46,46,46)" stroke-width="1" opacity="1" d="M 57.5 31 L 57.5 32 L 57.5 31 Z " /><path fill="rgb(46,46,46)" stroke="rgb(46,46,46)" stroke-width="1" opacity="1" d="M 70.5 31 L 70.5 32 L 70.5 31 Z " /><path fill="rgb(46,46,46)" stroke="rgb(46,46,46)" stroke-width="1" opacity="1" d="M 53.5 32 L 53.5 33 L 53.5 32 Z " /><path fill="rgb(46,46,46)" stroke="rgb(46,46,46)" stroke-width="1" opacity="1" d="M 74.5 32 L 74.5 33 L 74.5 32 Z " /><path fill="rgb(46,46,46)" stroke="rgb(46,46,46)" stroke-width="1" opacity="1" d="M 77.5 33 L 77.5 34 L 77.5 33 Z " /><path fill="rgb(46,46,46)" stroke="rgb(46,46,46)" stroke-width="1" opacity="1" d="M 50.5 34 L 50.5 35 L 50.5 34 Z " /><path fill="rgb(46,46,46)" stroke="rgb(46,46,46)" stroke-width="1" opacity="1" d="M 28.5 35 L 28.5 36 L 28.5 35 Z " /><path fill="rgb(46,46,46)" stroke="rgb(46,46,46)" stroke-width="1" opacity="1" d="M 103.5 48 L 104 80.5 L 103 80.5 L 103.5 48 Z " /><path fill="rgb(46,46,46)" stroke="rgb(46,46,46)" stroke-width="1" opacity="1" d="M 35.5 49 L 39 49.5 L 35.5 50 L 35.5 49 Z " /><path fill="rgb(46,46,46)" stroke="rgb(46,46,46)" stroke-width="1" opacity="1" d="M 44.5 49 L 48 49.5 L 44.5 50 L 44.5 49 Z " /><path fill="rgb(46,46,46)" stroke="rgb(46,46,46)" stroke-width="1" opacity="1" d="M 53.5 49 Q 57.25 48.25 58 50.5 L 57.5 82 L 57 50 L 53.5 50 L 53.5 49 Z " /><path fill="rgb(46,46,46)" stroke="rgb(46,46,46)" stroke-width="1" opacity="1" d="M 62.5 49 Q 66.25 48.25 67 50.5 L 66.5 82 L 66 50 L 62.5 50 L 62.5 49 Z " /><path fill="rgb(46,46,46)" stroke="rgb(46,46,46)" stroke-width="1" opacity="1" d="M 71.5 49 Q 75.25 48.25 76 50.5 L 75.5 83 L 75 50 L 71.5 50 L 71.5 49 Z " /><path fill="rgb(46,46,46)" stroke="rgb(46,46,46)" stroke-width="1" opacity="1" d="M 80.5 49 Q 84.25 48.25 85 50.5 L 84.5 83 L 84 50 L 80.5 50 L 80.5 49 Z " /><path fill="rgb(46,46,46)" stroke="rgb(46,46,46)" stroke-width="1" opacity="1" d="M 89.5 49 Q 93.25 48.25 94 50.5 L 93.5 83 L 93 50 L 89.5 50 L 89.5 49 Z " /><path fill="rgb(46,46,46)" stroke="rgb(46,46,46)" stroke-width="1" opacity="1" d="M 24.5 80 Q 26 81 23.5 82 Q 22 81 24.5 80 Z " /><path fill="rgb(46,46,46)" stroke="rgb(46,46,46)" stroke-width="1" opacity="1" d="M 37.5 82 L 37.5 83 L 37.5 82 Z " /><path fill="rgb(46,46,46)" stroke="rgb(46,46,46)" stroke-width="1" opacity="1" d="M 63.5 82 L 63.5 83 L 63.5 82 Z " /><path fill="rgb(46,46,46)" stroke="rgb(46,46,46)" stroke-width="1" opacity="1" d="M 105.5 82 L 105.5 83 L 105.5 82 Z " /><path fill="rgb(46,46,46)" stroke="rgb(46,46,46)" stroke-width="1" opacity="1" d="M 28.5 90 L 28.5 91 L 28.5 90 Z " /><path fill="rgb(46,46,46)" stroke="rgb(46,46,46)" stroke-width="1" opacity="1" d="M 60.5 90 L 69 90.5 L 60 91 L 59.5 107 L 59 91.5 L 60.5 90 Z " /><path fill="rgb(46,46,46)" stroke="rgb(46,46,46)" stroke-width="1" opacity="1" d="M 97.5 90 L 98 91.5 L 97 91.5 L 97.5 90 Z " /><path fill="rgb(46,46,46)" stroke="rgb(46,46,46)" stroke-width="1" opacity="1" d="M 32.5 92 L 32.5 93 L 32.5 92 Z " /><path fill="rgb(46,46,46)" stroke="rgb(46,46,46)" stroke-width="1" opacity="1" d="M 95.5 92 L 96 93.5 L 95 93.5 L 95.5 92 Z " /><path fill="rgb(46,46,46)" stroke="rgb(46,46,46)" stroke-width="1" opacity="1" d="M 102.5 93 L 103 95.5 L 102 95.5 L 102.5 93 Z " /><path fill="rgb(46,46,46)" stroke="rgb(46,46,46)" stroke-width="1" opacity="1" d="M 95.5 95 L 96 96.5 L 95 96.5 L 95.5 95 Z " /><path fill="rgb(46,46,46)" stroke="rgb(46,46,46)" stroke-width="1" opacity="1" d="M 32.5 97 L 33 98.5 L 32 98.5 L 32.5 97 Z " /><path fill="rgb(46,46,46)" stroke="rgb(46,46,46)" stroke-width="1" opacity="1" d="M 27.5 101 L 28 102.5 L 27 102.5 L 27.5 101 Z " /><path fill="rgb(46,46,46)" stroke="rgb(46,46,46)" stroke-width="1" opacity="1" d="M 96.5 101 L 97 102.5 L 96 102.5 L 96.5 101 Z " /><path fill="rgb(46,46,46)" stroke="rgb(46,46,46)" stroke-width="1" opacity="1" d="M 17.5 102 L 17.5 103 L 17.5 102 Z " /><path fill="rgb(46,46,46)" stroke="rgb(46,46,46)" stroke-width="1" opacity="1" d="M 31.5 102 L 31.5 103 L 31.5 102 Z " /><path fill="rgb(204,204,204)" stroke="rgb(204,204,204)" stroke-width="1" opacity="1" d="M 59.5 25 L 59.5 26 L 59.5 25 Z " /><path fill="rgb(204,204,204)" stroke="rgb(204,204,204)" stroke-width="1" opacity="1" d="M 68.5 25 L 68.5 26 L 68.5 25 Z " /><path fill="rgb(204,204,204)" stroke="rgb(204,204,204)" stroke-width="1" opacity="1" d="M 71.5 26 L 71.5 27 L 71.5 26 Z " /><path fill="rgb(204,204,204)" stroke="rgb(204,204,204)" stroke-width="1" opacity="1" d="M 54.5 27 L 54.5 28 L 54.5 27 Z " /><path fill="rgb(204,204,204)" stroke="rgb(204,204,204)" stroke-width="1" opacity="1" d="M 73.5 27 L 73.5 28 L 73.5 27 Z " /><path fill="rgb(204,204,204)" stroke="rgb(204,204,204)" stroke-width="1" opacity="1" d="M 51.5 28 L 51.5 29 L 51.5 28 Z " /><path fill="rgb(204,204,204)" stroke="rgb(204,204,204)" stroke-width="1" opacity="1" d="M 64.5 28 L 64.5 29 L 64.5 28 Z " /><path fill="rgb(204,204,204)" stroke="rgb(204,204,204)" stroke-width="1" opacity="1" d="M 49.5 29 L 49.5 30 L 49.5 29 Z " /><path fill="rgb(204,204,204)" stroke="rgb(204,204,204)" stroke-width="1" opacity="1" d="M 60.5 29 L 60.5 30 L 60.5 29 Z " /><path fill="rgb(204,204,204)" stroke="rgb(204,204,204)" stroke-width="1" opacity="1" d="M 67.5 29 L 67.5 30 L 67.5 29 Z " /><path fill="rgb(204,204,204)" stroke="rgb(204,204,204)" stroke-width="1" opacity="1" d="M 79.5 29 L 79.5 30 L 79.5 29 Z " /><path fill="rgb(204,204,204)" stroke="rgb(204,204,204)" stroke-width="1" opacity="1" d="M 46.5 30 L 46.5 31 L 46.5 30 Z " /><path fill="rgb(204,204,204)" stroke="rgb(204,204,204)" stroke-width="1" opacity="1" d="M 58.5 30 L 58.5 31 L 58.5 30 Z " /><path fill="rgb(204,204,204)" stroke="rgb(204,204,204)" stroke-width="1" opacity="1" d="M 55.5 31 L 55.5 32 L 55.5 31 Z " /><path fill="rgb(204,204,204)" stroke="rgb(204,204,204)" stroke-width="1" opacity="1" d="M 82.5 31 L 83 34.5 L 82 34.5 L 82.5 31 Z " /><path fill="rgb(204,204,204)" stroke="rgb(204,204,204)" stroke-width="1" opacity="1" d="M 51.5 32 L 51.5 33 L 51.5 32 Z " /><path fill="rgb(204,204,204)" stroke="rgb(204,204,204)" stroke-width="1" opacity="1" d="M 76.5 32 L 76.5 33 L 76.5 32 Z " /><path fill="rgb(204,204,204)" stroke="rgb(204,204,204)" stroke-width="1" opacity="1" d="M 45.5 35 L 45.5 36 L 45.5 35 Z " /><path fill="rgb(204,204,204)" stroke="rgb(204,204,204)" stroke-width="1" opacity="1" d="M 50.5 35 L 78 35.5 L 50.5 36 L 50.5 35 Z " /><path fill="rgb(204,204,204)" stroke="rgb(204,204,204)" stroke-width="1" opacity="1" d="M 28.5 47 L 28.5 48 L 28.5 47 Z " /><path fill="rgb(204,204,204)" stroke="rgb(204,204,204)" stroke-width="1" opacity="1" d="M 25.5 48 L 26 79.5 L 25 79.5 L 25.5 48 Z " /><path fill="rgb(204,204,204)" stroke="rgb(204,204,204)" stroke-width="1" opacity="1" d="M 70.5 49 L 70.5 50 L 70.5 49 Z " /><path fill="rgb(204,204,204)" stroke="rgb(204,204,204)" stroke-width="1" opacity="1" d="M 79.5 49 L 79.5 50 L 79.5 49 Z " /><path fill="rgb(204,204,204)" stroke="rgb(204,204,204)" stroke-width="1" opacity="1" d="M 88.5 49 L 89 82.5 L 88 82.5 L 88.5 49 Z " /><path fill="rgb(204,204,204)" stroke="rgb(204,204,204)" stroke-width="1" opacity="1" d="M 24.5 81 L 25 81.5 L 22.5 84 L 18 83.5 L 22.5 83 L 24.5 81 Z " /><path fill="rgb(204,204,204)" stroke="rgb(204,204,204)" stroke-width="1" opacity="1" d="M 103.5 81 L 103.5 82 L 103.5 81 Z " /><path fill="rgb(204,204,204)" stroke="rgb(204,204,204)" stroke-width="1" opacity="1" d="M 79.5 82 L 79.5 83 L 79.5 82 Z " /><path fill="rgb(204,204,204)" stroke="rgb(204,204,204)" stroke-width="1" opacity="1" d="M 105.5 83 L 111 83.5 L 105.5 84 L 105.5 83 Z " /><path fill="rgb(204,204,204)" stroke="rgb(204,204,204)" stroke-width="1" opacity="1" d="M 31.5 89 L 33 91.5 Q 32 93 31 90.5 L 31.5 89 Z " /><path fill="rgb(204,204,204)" stroke="rgb(204,204,204)" stroke-width="1" opacity="1" d="M 100.5 89 L 102 91.5 Q 101 93 100 90.5 L 100.5 89 Z " /><path fill="rgb(204,204,204)" stroke="rgb(204,204,204)" stroke-width="1" opacity="1" d="M 26.5 91 Q 28 92 25.5 93 Q 24 92 26.5 91 Z " /><path fill="rgb(204,204,204)" stroke="rgb(204,204,204)" stroke-width="1" opacity="1" d="M 33.5 93 L 33.5 94 L 33.5 93 Z " /><path fill="rgb(204,204,204)" stroke="rgb(204,204,204)" stroke-width="1" opacity="1" d="M 33.5 95 L 33.5 96 L 33.5 95 Z " /><path fill="rgb(204,204,204)" stroke="rgb(204,204,204)" stroke-width="1" opacity="1" d="M 25.5 96 L 26 97.5 L 25 97.5 L 25.5 96 Z " /><path fill="rgb(204,204,204)" stroke="rgb(204,204,204)" stroke-width="1" opacity="1" d="M 102.5 98 L 102.5 99 L 102.5 98 Z " /><path fill="rgb(204,204,204)" stroke="rgb(204,204,204)" stroke-width="1" opacity="1" d="M 95.5 99 L 95.5 100 L 95.5 99 Z " /><path fill="rgb(204,204,204)" stroke="rgb(204,204,204)" stroke-width="1" opacity="1" d="M 26.5 100 L 26.5 101 L 26.5 100 Z " /><path fill="rgb(204,204,204)" stroke="rgb(204,204,204)" stroke-width="1" opacity="1" d="M 32.5 100 L 32.5 101 L 32.5 100 Z " /><path fill="rgb(204,204,204)" stroke="rgb(204,204,204)" stroke-width="1" opacity="1" d="M 101.5 101 L 101.5 102 L 101.5 101 Z " /><path fill="rgb(204,204,204)" stroke="rgb(204,204,204)" stroke-width="1" opacity="1" d="M 43.5 102 L 43.5 103 L 43.5 102 Z " /><path fill="rgb(204,204,204)" stroke="rgb(204,204,204)" stroke-width="1" opacity="1" d="M 84.5 103 L 85 105.5 L 83.5 107 L 70.5 107 L 70.5 106 L 83.5 106 Q 84.21 105.96 84.5 103 Z " /><path fill="rgb(204,204,204)" stroke="rgb(204,204,204)" stroke-width="1" opacity="1" d="M 44.5 106 L 59 106.5 L 44.5 107 L 44.5 106 Z " /><path fill="rgb(124,124,124)" stroke="rgb(124,124,124)" stroke-width="1" opacity="1" d="M 67.5 23 L 68 24.5 L 67 24.5 L 67.5 23 Z " /><path fill="rgb(124,124,124)" stroke="rgb(124,124,124)" stroke-width="1" opacity="1" d="M 58.5 25 L 58.5 26 L 58.5 25 Z " /><path fill="rgb(124,124,124)" stroke="rgb(124,124,124)" stroke-width="1" opacity="1" d="M 69.5 25 L 69.5 26 L 69.5 25 Z " /><path fill="rgb(124,124,124)" stroke="rgb(124,124,124)" stroke-width="1" opacity="1" d="M 56.5 26 L 56.5 27 L 56.5 26 Z " /><path fill="rgb(124,124,124)" stroke="rgb(124,124,124)" stroke-width="1" opacity="1" d="M 72.5 26 L 72.5 27 L 72.5 26 Z " /><path fill="rgb(124,124,124)" stroke="rgb(124,124,124)" stroke-width="1" opacity="1" d="M 53.5 27 L 53.5 28 L 53.5 27 Z " /><path fill="rgb(124,124,124)" stroke="rgb(124,124,124)" stroke-width="1" opacity="1" d="M 74.5 27 L 74.5 28 L 74.5 27 Z " /><path fill="rgb(124,124,124)" stroke="rgb(124,124,124)" stroke-width="1" opacity="1" d="M 77.5 28 L 77.5 29 L 77.5 28 Z " /><path fill="rgb(124,124,124)" stroke="rgb(124,124,124)" stroke-width="1" opacity="1" d="M 48.5 29 L 48.5 30 L 48.5 29 Z " /><path fill="rgb(124,124,124)" stroke="rgb(124,124,124)" stroke-width="1" opacity="1" d="M 61.5 29 L 61.5 30 L 61.5 29 Z " /><path fill="rgb(124,124,124)" stroke="rgb(124,124,124)" stroke-width="1" opacity="1" d="M 66.5 29 L 66.5 30 L 66.5 29 Z " /><path fill="rgb(124,124,124)" stroke="rgb(124,124,124)" stroke-width="1" opacity="1" d="M 69.5 30 L 69.5 31 L 69.5 30 Z " /><path fill="rgb(124,124,124)" stroke="rgb(124,124,124)" stroke-width="1" opacity="1" d="M 82.5 30 L 82.5 31 L 82.5 30 Z " /><path fill="rgb(124,124,124)" stroke="rgb(124,124,124)" stroke-width="1" opacity="1" d="M 45.5 31 L 46 34.5 L 44.5 36 L 29 36 L 29 46.5 L 27.5 48 L 25 47.5 L 28 47 L 28 36.5 L 29.5 35 L 44.5 35 L 45 34.5 L 45.5 31 Z " /><path fill="rgb(124,124,124)" stroke="rgb(124,124,124)" stroke-width="1" opacity="1" d="M 56.5 31 L 56.5 32 L 56.5 31 Z " /><path fill="rgb(124,124,124)" stroke="rgb(124,124,124)" stroke-width="1" opacity="1" d="M 71.5 31 L 73 31.5 L 71.5 32 L 71.5 31 Z " /><path fill="rgb(124,124,124)" stroke="rgb(124,124,124)" stroke-width="1" opacity="1" d="M 52.5 32 L 52.5 33 L 52.5 32 Z " /><path fill="rgb(124,124,124)" stroke="rgb(124,124,124)" stroke-width="1" opacity="1" d="M 75.5 32 L 75.5 33 L 75.5 32 Z " /><path fill="rgb(124,124,124)" stroke="rgb(124,124,124)" stroke-width="1" opacity="1" d="M 50.5 33 L 50.5 34 L 50.5 33 Z " /><path fill="rgb(124,124,124)" stroke="rgb(124,124,124)" stroke-width="1" opacity="1" d="M 83.5 35 L 100 35.5 L 83.5 36 L 83.5 35 Z " /><path fill="rgb(124,124,124)" stroke="rgb(124,124,124)" stroke-width="1" opacity="1" d="M 100.5 47 L 103 47.5 L 100.5 48 L 100.5 47 Z " /><path fill="rgb(124,124,124)" stroke="rgb(124,124,124)" stroke-width="1" opacity="1" d="M 34.5 49 L 35 82.5 L 34 82.5 L 34.5 49 Z " /><path fill="rgb(124,124,124)" stroke="rgb(124,124,124)" stroke-width="1" opacity="1" d="M 39.5 49 L 40 82.5 L 39 82.5 L 39.5 49 Z " /><path fill="rgb(124,124,124)" stroke="rgb(124,124,124)" stroke-width="1" opacity="1" d="M 43.5 49 L 44 82.5 L 43 82.5 L 43.5 49 Z " /><path fill="rgb(124,124,124)" stroke="rgb(124,124,124)" stroke-width="1" opacity="1" d="M 48.5 49 L 49 82.5 L 48 82.5 L 48.5 49 Z " /><path fill="rgb(124,124,124)" stroke="rgb(124,124,124)" stroke-width="1" opacity="1" d="M 52.5 49 L 53 82.5 L 52 82.5 L 52.5 49 Z " /><path fill="rgb(124,124,124)" stroke="rgb(124,124,124)" stroke-width="1" opacity="1" d="M 57.5 49 L 57.5 50 L 57.5 49 Z " /><path fill="rgb(124,124,124)" stroke="rgb(124,124,124)" stroke-width="1" opacity="1" d="M 61.5 49 L 62 82.5 L 61 82.5 L 61.5 49 Z " /><path fill="rgb(124,124,124)" stroke="rgb(124,124,124)" stroke-width="1" opacity="1" d="M 66.5 49 L 66.5 50 L 66.5 49 Z " /><path fill="rgb(124,124,124)" stroke="rgb(124,124,124)" stroke-width="1" opacity="1" d="M 75.5 49 L 75.5 50 L 75.5 49 Z " /><path fill="rgb(124,124,124)" stroke="rgb(124,124,124)" stroke-width="1" opacity="1" d="M 84.5 49 L 84.5 50 L 84.5 49 Z " /><path fill="rgb(124,124,124)" stroke="rgb(124,124,124)" stroke-width="1" opacity="1" d="M 93.5 49 L 93.5 50 L 93.5 49 Z " /><path fill="rgb(124,124,124)" stroke="rgb(124,124,124)" stroke-width="1" opacity="1" d="M 70.5 50 L 71 82.5 L 70 82.5 L 70.5 50 Z " /><path fill="rgb(124,124,124)" stroke="rgb(124,124,124)" stroke-width="1" opacity="1" d="M 79.5 50 L 80 81.5 L 79 81.5 L 79.5 50 Z " /><path fill="rgb(124,124,124)" stroke="rgb(124,124,124)" stroke-width="1" opacity="1" d="M 104.5 81 L 104.5 82 L 104.5 81 Z " /><path fill="rgb(124,124,124)" stroke="rgb(124,124,124)" stroke-width="1" opacity="1" d="M 57.5 82 L 57.5 83 L 57.5 82 Z " /><path fill="rgb(124,124,124)" stroke="rgb(124,124,124)" stroke-width="1" opacity="1" d="M 66.5 82 L 66.5 83 L 66.5 82 Z " /><path fill="rgb(124,124,124)" stroke="rgb(124,124,124)" stroke-width="1" opacity="1" d="M 17.5 83 L 18 102 L 27 102.5 L 18.5 103 L 17 101.5 L 17.5 83 Z " /><path fill="rgb(124,124,124)" stroke="rgb(124,124,124)" stroke-width="1" opacity="1" d="M 28.5 89 L 31 89.5 L 28.5 90 L 28.5 89 Z " /><path fill="rgb(124,124,124)" stroke="rgb(124,124,124)" stroke-width="1" opacity="1" d="M 97.5 89 L 100 89.5 L 97.5 90 L 97.5 89 Z " /><path fill="rgb(124,124,124)" stroke="rgb(124,124,124)" stroke-width="1" opacity="1" d="M 59.5 90 L 59.5 91 L 59.5 90 Z " /><path fill="rgb(124,124,124)" stroke="rgb(124,124,124)" stroke-width="1" opacity="1" d="M 27.5 91 L 27.5 92 L 27.5 91 Z " /><path fill="rgb(124,124,124)" stroke="rgb(124,124,124)" stroke-width="1" opacity="1" d="M 31.5 91 L 31.5 92 L 31.5 91 Z " /><path fill="rgb(124,124,124)" stroke="rgb(124,124,124)" stroke-width="1" opacity="1" d="M 96.5 91 L 96.5 92 L 96.5 91 Z " /><path fill="rgb(124,124,124)" stroke="rgb(124,124,124)" stroke-width="1" opacity="1" d="M 100.5 91 L 100.5 92 L 100.5 91 Z " /><path fill="rgb(124,124,124)" stroke="rgb(124,124,124)" stroke-width="1" opacity="1" d="M 102.5 92 L 102.5 93 L 102.5 92 Z " /><path fill="rgb(124,124,124)" stroke="rgb(124,124,124)" stroke-width="1" opacity="1" d="M 25.5 93 L 26 95.5 L 25 95.5 L 25.5 93 Z " /><path fill="rgb(124,124,124)" stroke="rgb(124,124,124)" stroke-width="1" opacity="1" d="M 33.5 94 L 33.5 95 L 33.5 94 Z " /><path fill="rgb(124,124,124)" stroke="rgb(124,124,124)" stroke-width="1" opacity="1" d="M 102.5 96 L 103 97.5 L 102 97.5 L 102.5 96 Z " /><path fill="rgb(124,124,124)" stroke="rgb(124,124,124)" stroke-width="1" opacity="1" d="M 95.5 97 L 96 98.5 L 95 98.5 L 95.5 97 Z " /><path fill="rgb(124,124,124)" stroke="rgb(124,124,124)" stroke-width="1" opacity="1" d="M 26.5 99 L 26.5 100 L 26.5 99 Z " /><path fill="rgb(124,124,124)" stroke="rgb(124,124,124)" stroke-width="1" opacity="1" d="M 32.5 99 L 32.5 100 L 32.5 99 Z " /><path fill="rgb(124,124,124)" stroke="rgb(124,124,124)" stroke-width="1" opacity="1" d="M 101.5 100 L 101.5 101 L 101.5 100 Z " /><path fill="rgb(124,124,124)" stroke="rgb(124,124,124)" stroke-width="1" opacity="1" d="M 32.5 102 L 42.5 102 L 44 103.5 L 43.5 107 L 43 103 L 32.5 103 L 32.5 102 Z " /><path fill="rgb(124,124,124)" stroke="rgb(124,124,124)" stroke-width="1" opacity="1" d="M 85.5 102 L 96 102.5 L 85.5 103 L 85.5 102 Z " /><path fill="rgb(124,124,124)" stroke="rgb(124,124,124)" stroke-width="1" opacity="1" d="M 101.5 102 L 111 102.5 L 101.5 103 L 101.5 102 Z " /><path fill="rgb(124,124,124)" stroke="rgb(124,124,124)" stroke-width="1" opacity="1" d="M 69.5 106 L 69.5 107 L 69.5 106 Z " /><path fill="rgb(124,124,124)" stroke="rgb(124,124,124)" stroke-width="1" opacity="1" d="M 84.5 106 L 84.5 107 L 84.5 106 Z " /><path fill="rgb(1,1,1)" stroke="rgb(1,1,1)" stroke-width="1" opacity="1" d="M 56 20 L 58.5 21 L 59.5 20 L 60.5 21 L 62 20.5 L 60 25 L 53.5 26 L 49.5 29 L 44 30.5 Q 46 31.62 45 35 L 28 35 L 28 46.5 L 26.5 47 L 27 45.5 L 27 36.5 Q 24.4 34.68 25 31 L 40.5 31 Q 41.38 31.12 41 27.5 L 42 26.5 L 41.5 25 L 46 25.5 L 44 26.5 L 47 27 Q 45.87 24.33 48.5 25 Q 49.5 27 50.5 25 L 56 25 L 56 20 Z M 59 22 L 58 24 L 59 24 L 59 22 Z M 51 26 L 51 27 L 51 26 Z M 43 27 L 42 29 L 43 29 L 43 27 Z M 45 28 L 45 29 L 45 28 Z M 47 28 L 47 29 L 47 28 Z M 44 29 L 44 30 L 44 29 Z M 27 32 L 26 34 L 29 34 L 27 32 Z M 31 32 Q 29 33 32 34 L 41 34 L 41 32 L 31 32 Z M 43 32 L 43 33 L 43 32 Z M 44 33 L 44 34 L 44 33 Z " /><path fill="rgb(1,1,1)" stroke="rgb(1,1,1)" stroke-width="1" opacity="1" d="M 66 20 Q 68.58 19.25 69.5 21 Q 70.75 18.75 72 21.5 Q 70 22.5 72 23.5 L 73.5 26 L 75.5 25 Q 76.5 27 77.5 25 Q 81.87 23.5 81 26.5 L 82 26.5 L 82.5 25 Q 83.5 27 84.5 25 L 87 25.5 L 85 26.5 L 87 27 L 87 31 L 96.5 31 Q 97.5 33 98.5 31 Q 103 30.5 103 31.5 L 103 45.5 L 104.5 47 L 105.5 46 L 106.5 47 L 108 46.5 L 107.5 50 L 106.5 48 L 105 49.5 L 105.5 51 Q 102.88 51.83 104 48.5 L 101.5 46 L 100 46.5 L 100 35 L 83.5 35 Q 82.63 35.13 83 31.5 L 83.5 30 L 78.5 29 L 70.5 25 L 68 25 L 66 20 Z M 68 21 L 68 22 L 68 21 Z M 71 21 L 71 22 L 71 21 Z M 70 22 L 70 23 L 70 22 Z M 79 26 Q 77 29 80 28 Q 81 27 79 26 Z M 82 28 L 82 29 L 82 28 Z M 84 28 L 84 29 L 84 28 Z M 86 28 L 86 29 L 86 28 Z M 86 30 L 85 32 L 86 32 L 86 30 Z M 88 32 L 85 34 L 97 34 L 97 32 L 88 32 Z M 99 33 L 99 34 L 99 33 Z M 102 35 L 102 36 L 102 35 Z " /><path fill="rgb(1,1,1)" stroke="rgb(1,1,1)" stroke-width="1" opacity="1" d="M 64.5 29 L 65.5 31 L 67.5 30 L 69.5 33 Q 70.25 31.25 73.5 32 L 78 34.5 L 51 35 L 51.5 33 Q 53 35.5 54.5 32 L 59.5 31 L 61 31.5 L 61.5 30 Q 63 32.5 64.5 29 Z M 59 32 L 58 34 L 61 34 L 59 32 Z M 56 33 L 56 34 L 56 33 Z M 63 33 L 63 34 L 66 34 L 63 33 Z M 68 33 L 68 34 L 68 33 Z " /><path fill="rgb(1,1,1)" stroke="rgb(1,1,1)" stroke-width="1" opacity="1" d="M 21.5 46 L 23.5 47 L 25 46.5 L 24 49.5 L 25 50.5 L 25 79.5 Q 22.5 80.5 23 83 L 17.5 83 L 17 83.5 L 17 103 L 19.5 104 L 20.5 103 L 28 103 L 26 98.5 Q 28 97.5 26 96.5 L 27 94.5 L 26 92.5 L 28 92.5 L 29.5 90 Q 31.75 89.25 31 91.5 Q 34 92.75 33 97 L 30 97.5 L 32 98 Q 33 101.38 31 102.5 L 43 103.5 Q 41 104.62 42 108 Q 37.13 109 34.5 107 Q 33.75 108.75 30.5 108 L 30.5 107 L 34 106.5 L 31.5 105 L 27 107 L 26.5 105 L 25.5 106 L 18.5 106 Q 17.58 104.25 15 105 L 15 86.5 L 16 85.5 Q 14.25 84.58 15 82 L 20 82 L 20 79.5 L 21 78.5 L 20.5 77 Q 23.25 77.25 23 76.5 L 23 51 L 20 49.5 Q 19.5 46.5 21.5 46 Z M 22 49 L 22 50 L 22 49 Z M 22 81 L 22 82 L 22 81 Z M 31 92 L 31 93 L 31 92 Z M 29 94 L 29 95 L 29 94 Z M 31 94 L 31 95 L 31 94 Z M 29 97 L 28 99 L 29 99 L 29 97 Z M 31 99 L 30 102 L 31 102 L 31 99 Z M 19 104 L 19 105 L 19 104 Z M 35 105 L 35 106 L 35 105 Z M 37 106 L 37 107 L 41 107 L 37 106 Z " /><path fill="rgb(1,1,1)" stroke="rgb(1,1,1)" stroke-width="1" opacity="1" d="M 35 50 Q 38.88 49.5 39 50.5 L 39 82.5 L 38 82.5 L 38 51.5 L 36 51 L 36 81.5 L 37 82.5 L 35 83 L 35 50 Z " /><path fill="rgb(1,1,1)" stroke="rgb(1,1,1)" stroke-width="1" opacity="1" d="M 44.5 50 Q 48.13 49.63 48 50.5 L 48 83 L 44 82.5 L 45 81.5 L 45 51.5 L 44.5 50 Z M 47 51 L 46 82 L 47 82 L 47 51 Z " /><path fill="rgb(1,1,1)" stroke="rgb(1,1,1)" stroke-width="1" opacity="1" d="M 53 50 Q 56.88 49.5 57 50.5 L 57 83 Q 53.12 83.5 53 82.5 L 53 50 Z M 56 51 L 55 82 L 56 82 L 56 51 Z " /><path fill="rgb(1,1,1)" stroke="rgb(1,1,1)" stroke-width="1" opacity="1" d="M 62 50 L 65 50.5 L 64 51.5 L 64 82 L 66 82.5 L 64.5 83 L 63.5 82 L 62 82.5 L 62 50 Z " /><path fill="rgb(1,1,1)" stroke="rgb(1,1,1)" stroke-width="1" opacity="1" d="M 71 50 L 73 50.5 L 72 51.5 L 72 82 L 74 81.5 L 74 50.5 L 75 50.5 L 75 82.5 Q 74.87 83.5 71 83 L 71 50 Z " /><path fill="rgb(1,1,1)" stroke="rgb(1,1,1)" stroke-width="1" opacity="1" d="M 80 50 Q 83.88 49.5 84 50.5 L 84 83 Q 80.12 83.5 80 82.5 L 80 50 Z M 83 51 L 82 82 L 83 82 L 83 51 Z " /><path fill="rgb(1,1,1)" stroke="rgb(1,1,1)" stroke-width="1" opacity="1" d="M 89.5 50 L 93 50.5 L 91 51 L 91 81.5 L 92.5 82 L 92.5 83 L 89 82.5 L 90 81.5 L 90 51.5 L 89.5 50 Z " /><path fill="rgb(1,1,1)" stroke="rgb(1,1,1)" stroke-width="1" opacity="1" d="M 104 77 L 108 77.5 Q 106 78.5 108 79.5 L 107 81.5 L 113 82 L 112 84.5 Q 114 85.5 112 86.5 L 112 97.5 L 113 99.5 Q 111 100.5 113 101.5 Q 114.67 106.31 110.5 105 L 109.5 106 L 102.5 106 L 101 105.5 Q 102 109.25 99 108 Q 100.13 105.33 97.5 106 L 97.5 108 L 96 108 Q 97.13 105.33 94.5 106 L 93 105.5 L 91.5 108 Q 86.75 109.25 85.5 107 L 82.5 108 L 82.5 107 Q 85.5 107.5 86 105.5 L 85 103 L 96.5 103 L 98 101.5 L 96 101 L 96 95.5 L 95 94.5 L 96.5 92 L 98 92.5 L 98.5 90 L 100.5 93 L 102 92.5 L 101 93.5 L 102 94.5 L 101 95.5 L 102 98.5 L 101 103 L 107.5 103 L 108 104.5 L 109 104.5 L 109 103 L 111 102.5 L 111 83 L 106 83 Q 107 80 104 81 L 104 77 Z M 99 93 L 99 96 L 100 96 Q 101 92 99 93 Z M 98 94 L 97 97 L 98 97 L 98 94 Z M 99 97 L 99 98 L 99 97 Z M 100 98 L 100 99 L 100 98 Z M 98 99 L 98 100 L 98 99 Z M 100 100 L 99 102 L 100 102 L 100 100 Z M 93 104 L 93 105 L 93 104 Z M 87 106 L 87 107 L 92 107 L 87 106 Z " /><path fill="rgb(1,1,1)" stroke="rgb(1,1,1)" stroke-width="1" opacity="1" d="M 60.5 91 L 62 92.5 L 62 106.5 Q 61 108 60 105.5 L 61 103.5 Q 59 102.5 61 101.5 L 61 92.5 L 60.5 91 Z " /><path fill="rgb(1,1,1)" stroke="rgb(1,1,1)" stroke-width="1" opacity="1" d="M 66.5 91 Q 69.25 90.75 69 91.5 L 69 106.5 Q 68.75 107.25 71.5 107 L 71.5 108 L 66 108 L 66 104.5 L 67 101.5 L 67 92.5 L 66.5 91 Z M 68 106 L 68 107 L 68 106 Z " /><path fill="rgb(1,1,1)" stroke="rgb(1,1,1)" stroke-width="1" opacity="1" d="M 15.5 106 L 17 106.5 L 15.5 107 L 15.5 106 Z " /><path fill="rgb(1,1,1)" stroke="rgb(1,1,1)" stroke-width="1" opacity="1" d="M 111.5 106 L 113 106.5 L 111.5 108 L 102.5 108 L 102.5 107 L 110.5 107 L 111.5 106 Z " /><path fill="rgb(1,1,1)" stroke="rgb(1,1,1)" stroke-width="1" opacity="1" d="M 18.5 107 L 26 107.5 L 18.5 108 L 18.5 107 Z " /><path fill="rgb(1,1,1)" stroke="rgb(1,1,1)" stroke-width="1" opacity="1" d="M 43.5 107 L 43.5 108 L 43.5 107 Z " /><path fill="rgb(1,1,1)" stroke="rgb(1,1,1)" stroke-width="1" opacity="1" d="M 45.5 107 L 45.5 108 L 45.5 107 Z " /><path fill="rgb(1,1,1)" stroke="rgb(1,1,1)" stroke-width="1" opacity="1" d="M 57.5 107 L 57.5 108 L 57.5 107 Z " /><path fill="rgb(1,1,1)" stroke="rgb(1,1,1)" stroke-width="1" opacity="1" d="M 59.5 107 L 59.5 108 L 59.5 107 Z " /><path fill="rgb(1,1,1)" stroke="rgb(1,1,1)" stroke-width="1" opacity="1" d="M 94.5 107 L 94.5 108 L 94.5 107 Z " /><path fill="rgb(253,253,253)" stroke="rgb(253,253,253)" stroke-width="1" opacity="1" d="M 61.5 23 L 64 28 L 61.5 29 L 62 27.5 L 61 26.5 L 62 25.5 L 61 24.5 L 61.5 23 Z M 63 26 L 63 27 L 63 26 Z " /><path fill="rgb(253,253,253)" stroke="rgb(253,253,253)" stroke-width="1" opacity="1" d="M 66.5 23 L 67 24.5 L 66 24.5 L 66.5 23 Z " /><path fill="rgb(253,253,253)" stroke="rgb(253,253,253)" stroke-width="1" opacity="1" d="M 57.5 26 L 60 29.5 L 59 29.5 L 58.5 28 L 57.5 31 L 57.5 26 Z " /><path fill="rgb(253,253,253)" stroke="rgb(253,253,253)" stroke-width="1" opacity="1" d="M 65.5 26 L 66 27.5 L 65 27.5 L 65.5 26 Z " /><path fill="rgb(253,253,253)" stroke="rgb(253,253,253)" stroke-width="1" opacity="1" d="M 69.5 26 L 73 28.5 L 71 28.5 Q 71.75 30.75 69.5 30 L 67 28.5 L 68.5 28 L 70 28.5 L 69.5 26 Z " /><path fill="rgb(253,253,253)" stroke="rgb(253,253,253)" stroke-width="1" opacity="1" d="M 55.5 27 L 55.5 28 L 55.5 27 Z " /><path fill="rgb(253,253,253)" stroke="rgb(253,253,253)" stroke-width="1" opacity="1" d="M 52 28 L 54 28.5 Q 52 29.5 54 30.5 L 53.5 32 L 52.5 30 L 50.5 33 L 47 30.5 L 48.5 30 L 50.5 32 L 51 31.5 L 52 28 Z " /><path fill="rgb(253,253,253)" stroke="rgb(253,253,253)" stroke-width="1" opacity="1" d="M 55.5 29 L 56 30.5 L 55 30.5 L 55.5 29 Z " /><path fill="rgb(253,253,253)" stroke="rgb(253,253,253)" stroke-width="1" opacity="1" d="M 75.5 29 Q 79.25 27.75 78 31.5 L 78.5 33 L 76 31.5 L 76.5 30 L 74.5 31 Q 73 30 75.5 29 Z " /><path fill="rgb(253,253,253)" stroke="rgb(253,253,253)" stroke-width="1" opacity="1" d="M 72.5 30 L 72.5 31 L 72.5 30 Z " /><path fill="rgb(253,253,253)" stroke="rgb(253,253,253)" stroke-width="1" opacity="1" d="M 79.5 30 L 79.5 31 L 79.5 30 Z " /><path fill="rgb(253,253,253)" stroke="rgb(253,253,253)" stroke-width="1" opacity="1" d="M 46.5 32 L 47 33.5 L 46 33.5 L 46.5 32 Z " /><path fill="rgb(253,253,253)" stroke="rgb(253,253,253)" stroke-width="1" opacity="1" d="M 48.5 33 Q 51 34 49.5 35 Q 46.71 35.67 48.5 33 Z " /><path fill="rgb(253,253,253)" stroke="rgb(253,253,253)" stroke-width="1" opacity="1" d="M 81.5 34 L 81.5 35 L 81.5 34 Z " /><path fill="rgb(253,253,253)" stroke="rgb(253,253,253)" stroke-width="1" opacity="1" d="M 79.5 35 L 79.5 36 L 79.5 35 Z " /><path fill="rgb(253,253,253)" stroke="rgb(253,253,253)" stroke-width="1" opacity="1" d="M 30.5 46 L 31 49 L 28 48.5 L 30 48 L 30.5 46 Z " /><path fill="rgb(253,253,253)" stroke="rgb(253,253,253)" stroke-width="1" opacity="1" d="M 33.5 46 L 34.5 47 L 36 46.5 L 33.5 50 Q 31 49 32.5 48 L 34 48.5 L 33.5 46 Z " /><path fill="rgb(253,253,253)" stroke="rgb(253,253,253)" stroke-width="1" opacity="1" d="M 38.5 46 L 38.5 47 L 38.5 46 Z " /><path fill="rgb(253,253,253)" stroke="rgb(253,253,253)" stroke-width="1" opacity="1" d="M 43.5 46 L 44 49 L 42 49.5 L 42.5 51 L 39 48.5 L 40.5 48 Q 41.75 50.25 43 47.5 L 43.5 46 Z " /><path fill="rgb(253,253,253)" stroke="rgb(253,253,253)" stroke-width="1" opacity="1" d="M 47.5 46 Q 48.5 48 49.5 46 L 51.5 47 L 53 46.5 L 52 47.5 L 52.5 49 L 50.5 47 L 48.5 49 L 48 48.5 L 47.5 46 Z " /><path fill="rgb(253,253,253)" stroke="rgb(253,253,253)" stroke-width="1" opacity="1" d="M 54.5 46 L 54.5 47 L 54.5 46 Z " /><path fill="rgb(253,253,253)" stroke="rgb(253,253,253)" stroke-width="1" opacity="1" d="M 58.5 46 L 59.5 47 L 61 46.5 L 58.5 50 L 57 47.5 L 58.5 46 Z M 59 47 L 59 48 L 59 47 Z " /><path fill="rgb(253,253,253)" stroke="rgb(253,253,253)" stroke-width="1" opacity="1" d="M 66 46 L 69 47.5 L 67.5 49 L 66.5 48 L 65 48.5 L 66 46 Z M 68 47 L 68 48 L 68 47 Z " /><path fill="rgb(253,253,253)" stroke="rgb(253,253,253)" stroke-width="1" opacity="1" d="M 70.5 46 L 70.5 47 L 70.5 46 Z " /><path fill="rgb(253,253,253)" stroke="rgb(253,253,253)" stroke-width="1" opacity="1" d="M 73.5 46 L 74 48 L 76 48.5 L 74.5 49 Q 72.13 48.13 73.5 46 Z " /><path fill="rgb(253,253,253)" stroke="rgb(253,253,253)" stroke-width="1" opacity="1" d="M 79.5 46 L 82 47.5 L 80.5 49 L 79.5 48 L 78 48.5 L 79.5 46 Z M 81 47 L 81 48 L 81 47 Z " /><path fill="rgb(253,253,253)" stroke="rgb(253,253,253)" stroke-width="1" opacity="1" d="M 83.5 46 L 84 48.5 L 83 48.5 L 83.5 46 Z " /><path fill="rgb(253,253,253)" stroke="rgb(253,253,253)" stroke-width="1" opacity="1" d="M 85 46 L 87 46.5 Q 84.75 47.75 87.5 49 L 89 48.5 L 86.5 51 L 85 49.5 Q 87 48.5 85 47.5 L 85 46 Z M 87 49 L 87 50 L 87 49 Z " /><path fill="rgb(253,253,253)" stroke="rgb(253,253,253)" stroke-width="1" opacity="1" d="M 88.5 46 L 88.5 47 L 88.5 46 Z " /><path fill="rgb(253,253,253)" stroke="rgb(253,253,253)" stroke-width="1" opacity="1" d="M 93.5 46 L 94 48.5 L 93 48.5 L 93.5 46 Z " /><path fill="rgb(253,253,253)" stroke="rgb(253,253,253)" stroke-width="1" opacity="1" d="M 97.5 46 L 99 46.5 L 97.5 47 L 97.5 46 Z " /><path fill="rgb(253,253,253)" stroke="rgb(253,253,253)" stroke-width="1" opacity="1" d="M 95.5 47 L 96 48.5 L 95 48.5 L 95.5 47 Z " /><path fill="rgb(253,253,253)" stroke="rgb(253,253,253)" stroke-width="1" opacity="1" d="M 26.5 48 L 26.5 49 L 26.5 48 Z " /><path fill="rgb(253,253,253)" stroke="rgb(253,253,253)" stroke-width="1" opacity="1" d="M 62.5 48 L 62.5 49 L 62.5 48 Z " /><path fill="rgb(253,253,253)" stroke="rgb(253,253,253)" stroke-width="1" opacity="1" d="M 70.5 48 L 72 48.5 L 70.5 49 L 70.5 48 Z " /><path fill="rgb(253,253,253)" stroke="rgb(253,253,253)" stroke-width="1" opacity="1" d="M 102.5 48 L 102.5 49 L 102.5 48 Z " /><path fill="rgb(253,253,253)" stroke="rgb(253,253,253)" stroke-width="1" opacity="1" d="M 50.5 49 Q 52 50 49.5 51 Q 48 50 50.5 49 Z " /><path fill="rgb(253,253,253)" stroke="rgb(253,253,253)" stroke-width="1" opacity="1" d="M 97.5 49 Q 100 50 98.5 51 Q 96 50 97.5 49 Z " /><path fill="rgb(253,253,253)" stroke="rgb(253,253,253)" stroke-width="1" opacity="1" d="M 68.5 50 L 68.5 51 L 68.5 50 Z " /><path fill="rgb(253,253,253)" stroke="rgb(253,253,253)" stroke-width="1" opacity="1" d="M 94.5 50 L 94.5 51 L 94.5 50 Z " /><path fill="rgb(253,253,253)" stroke="rgb(253,253,253)" stroke-width="1" opacity="1" d="M 100.5 50 L 100.5 51 L 100.5 50 Z " /><path fill="rgb(253,253,253)" stroke="rgb(253,253,253)" stroke-width="1" opacity="1" d="M 58.5 51 L 59 83 L 61 83.5 L 59 84.5 L 59.5 86 L 58 84.5 Q 60 83.5 58 82.5 L 58.5 51 Z " /><path fill="rgb(253,253,253)" stroke="rgb(253,253,253)" stroke-width="1" opacity="1" d="M 60.5 51 L 61 81.5 L 60 81.5 L 60.5 51 Z " /><path fill="rgb(253,253,253)" stroke="rgb(253,253,253)" stroke-width="1" opacity="1" d="M 102.5 78 L 103 79.5 L 102 79.5 L 102.5 78 Z " /><path fill="rgb(253,253,253)" stroke="rgb(253,253,253)" stroke-width="1" opacity="1" d="M 51.5 82 L 50.5 85 L 52 85.5 L 50.5 86 L 49 83 L 51.5 82 Z " /><path fill="rgb(253,253,253)" stroke="rgb(253,253,253)" stroke-width="1" opacity="1" d="M 67.5 82 L 71 83 L 72 85.5 L 69 85.5 Q 70.13 82.17 67.5 83 L 67.5 82 Z " /><path fill="rgb(253,253,253)" stroke="rgb(253,253,253)" stroke-width="1" opacity="1" d="M 78.5 82 L 80 84.5 L 79 84.5 L 78.5 82 Z " /><path fill="rgb(253,253,253)" stroke="rgb(253,253,253)" stroke-width="1" opacity="1" d="M 86.5 82 Q 88 85.5 89.5 83 Q 91.75 82.25 91 84.5 L 93 84.5 Q 91.88 87.5 89 87 L 87.5 84 L 84.5 85 L 84.5 84 L 87 83.5 L 86.5 82 Z M 90 84 L 90 85 L 90 84 Z M 91 85 L 91 86 L 91 85 Z " /><path fill="rgb(253,253,253)" stroke="rgb(253,253,253)" stroke-width="1" opacity="1" d="M 95.5 82 L 96 84 L 94 83.5 L 95.5 82 Z " /><path fill="rgb(253,253,253)" stroke="rgb(253,253,253)" stroke-width="1" opacity="1" d="M 103.5 82 L 108 86.5 L 107.5 87 L 106.5 86 L 105.5 87 L 104.5 86 L 103 86.5 L 102 84.5 L 103.5 82 Z M 104 84 L 104 85 L 105 85 L 104 84 Z M 106 85 L 106 86 L 106 85 Z " /><path fill="rgb(253,253,253)" stroke="rgb(253,253,253)" stroke-width="1" opacity="1" d="M 23.5 83 L 26 83.5 L 23 85.5 L 23.5 87 Q 22.5 85 21.5 87 L 20 87 L 20 84 Q 22.58 84.75 23.5 83 Z M 22 85 L 22 86 L 22 85 Z " /><path fill="rgb(253,253,253)" stroke="rgb(253,253,253)" stroke-width="1" opacity="1" d="M 35.5 83 L 36 84.5 L 33 86.5 L 35 89.5 L 33 89.5 L 34 91.5 Q 33 93 32 90.5 L 33 87.5 L 32 86.5 L 35.5 83 Z " /><path fill="rgb(253,253,253)" stroke="rgb(253,253,253)" stroke-width="1" opacity="1" d="M 38.5 83 L 42 85.5 L 39 86 L 38.5 83 Z " /><path fill="rgb(253,253,253)" stroke="rgb(253,253,253)" stroke-width="1" opacity="1" d="M 41.5 83 L 45 84 L 44.5 86 L 41 83.5 L 41.5 83 Z " /><path fill="rgb(253,253,253)" stroke="rgb(253,253,253)" stroke-width="1" opacity="1" d="M 47.5 83 Q 49 84 46.5 85 Q 45 84 47.5 83 Z " /><path fill="rgb(253,253,253)" stroke="rgb(253,253,253)" stroke-width="1" opacity="1" d="M 54.5 83 Q 56 84 53.5 85 Q 52 84 54.5 83 Z " /><path fill="rgb(253,253,253)" stroke="rgb(253,253,253)" stroke-width="1" opacity="1" d="M 56.5 83 L 56.5 84 L 56.5 83 Z " /><path fill="rgb(253,253,253)" stroke="rgb(253,253,253)" stroke-width="1" opacity="1" d="M 82.5 83 L 82.5 86 Q 79.5 84.5 82.5 83 Z " /><path fill="rgb(253,253,253)" stroke="rgb(253,253,253)" stroke-width="1" opacity="1" d="M 18.5 84 L 18.5 85 L 18.5 84 Z " /><path fill="rgb(253,253,253)" stroke="rgb(253,253,253)" stroke-width="1" opacity="1" d="M 62.5 84 L 62.5 85 L 62.5 84 Z " /><path fill="rgb(253,253,253)" stroke="rgb(253,253,253)" stroke-width="1" opacity="1" d="M 65.5 84 L 65.5 85 L 65.5 84 Z " /><path fill="rgb(253,253,253)" stroke="rgb(253,253,253)" stroke-width="1" opacity="1" d="M 67.5 84 L 68 85.5 L 67 85.5 L 67.5 84 Z " /><path fill="rgb(253,253,253)" stroke="rgb(253,253,253)" stroke-width="1" opacity="1" d="M 74.5 84 L 75 87 L 73 86.5 L 74.5 84 Z " /><path fill="rgb(253,253,253)" stroke="rgb(253,253,253)" stroke-width="1" opacity="1" d="M 76.5 84 Q 79 85 77.5 86 Q 75 85 76.5 84 Z " /><path fill="rgb(253,253,253)" stroke="rgb(253,253,253)" stroke-width="1" opacity="1" d="M 108.5 84 L 108.5 85 L 108.5 84 Z " /><path fill="rgb(253,253,253)" stroke="rgb(253,253,253)" stroke-width="1" opacity="1" d="M 55.5 85 L 55.5 86 L 55.5 85 Z " /><path fill="rgb(253,253,253)" stroke="rgb(253,253,253)" stroke-width="1" opacity="1" d="M 95.5 85 Q 97 86 94.5 87 Q 93 86 95.5 85 Z " /><path fill="rgb(253,253,253)" stroke="rgb(253,253,253)" stroke-width="1" opacity="1" d="M 110.5 85 L 111 87 L 109 86.5 L 110.5 85 Z " /><path fill="rgb(253,253,253)" stroke="rgb(253,253,253)" stroke-width="1" opacity="1" d="M 18.5 86 L 18.5 87 L 18.5 86 Z " /><path fill="rgb(253,253,253)" stroke="rgb(253,253,253)" stroke-width="1" opacity="1" d="M 48.5 86 L 48.5 87 L 48.5 86 Z " /><path fill="rgb(253,253,253)" stroke="rgb(253,253,253)" stroke-width="1" opacity="1" d="M 85.5 86 L 85.5 87 L 85.5 86 Z " /><path fill="rgb(253,253,253)" stroke="rgb(253,253,253)" stroke-width="1" opacity="1" d="M 27.5 87 L 28 88.5 Q 27 91 26 89.5 L 27.5 87 Z " /><path fill="rgb(253,253,253)" stroke="rgb(253,253,253)" stroke-width="1" opacity="1" d="M 29.5 87 Q 32 88 30.5 89 Q 27.71 89.67 29.5 87 Z " /><path fill="rgb(253,253,253)" stroke="rgb(253,253,253)" stroke-width="1" opacity="1" d="M 67.5 87 L 70 87.5 L 69 88.5 L 69.5 90 L 68.5 89 L 67 89.5 L 68 88.5 L 67.5 87 Z " /><path fill="rgb(253,253,253)" stroke="rgb(253,253,253)" stroke-width="1" opacity="1" d="M 100.5 87 L 102 87.5 Q 100 88.5 102 89.5 L 101.5 91 L 101 89 L 99 88.5 L 100.5 87 Z " /><path fill="rgb(253,253,253)" stroke="rgb(253,253,253)" stroke-width="1" opacity="1" d="M 60.5 88 Q 62 89 59.5 90 Q 58 89 60.5 88 Z " /><path fill="rgb(253,253,253)" stroke="rgb(253,253,253)" stroke-width="1" opacity="1" d="M 96.5 88 L 98 88.5 L 96.5 89 L 96.5 88 Z " /><path fill="rgb(253,253,253)" stroke="rgb(253,253,253)" stroke-width="1" opacity="1" d="M 95.5 90 L 95.5 91 L 95.5 90 Z " /><path fill="rgb(253,253,253)" stroke="rgb(253,253,253)" stroke-width="1" opacity="1" d="M 35.5 91 L 36 92.5 Q 35 95 34 93.5 L 35.5 91 Z " /><path fill="rgb(253,253,253)" stroke="rgb(253,253,253)" stroke-width="1" opacity="1" d="M 92.5 92 L 93.5 93 L 95 92.5 L 94 94.5 L 94.5 96 L 92 92.5 L 92.5 92 Z " /><path fill="rgb(253,253,253)" stroke="rgb(253,253,253)" stroke-width="1" opacity="1" d="M 103.5 93 Q 105.75 92.25 105 94.5 L 104 95.5 L 104.5 97 Q 102.25 97.75 103 95.5 L 104 94.5 L 103.5 93 Z " /><path fill="rgb(253,253,253)" stroke="rgb(253,253,253)" stroke-width="1" opacity="1" d="M 24.5 94 L 24.5 95 L 24.5 94 Z " /><path fill="rgb(253,253,253)" stroke="rgb(253,253,253)" stroke-width="1" opacity="1" d="M 106.5 94 L 106.5 95 L 106.5 94 Z " /><path fill="rgb(253,253,253)" stroke="rgb(253,253,253)" stroke-width="1" opacity="1" d="M 34.5 96 L 35 97.5 Q 34 100 33 98.5 L 34.5 96 Z " /><path fill="rgb(253,253,253)" stroke="rgb(253,253,253)" stroke-width="1" opacity="1" d="M 106.5 96 L 106.5 97 L 106.5 96 Z " /><path fill="rgb(253,253,253)" stroke="rgb(253,253,253)" stroke-width="1" opacity="1" d="M 93.5 97 L 95 97.5 L 92.5 99 Q 91 98 93.5 97 Z " /><path fill="rgb(253,253,253)" stroke="rgb(253,253,253)" stroke-width="1" opacity="1" d="M 33.5 100 L 34 101.5 L 33 101.5 L 33.5 100 Z " /><path fill="rgb(253,253,253)" stroke="rgb(253,253,253)" stroke-width="1" opacity="1" d="M 102.5 100 L 102.5 101 L 102.5 100 Z " /><path fill="rgb(253,253,253)" stroke="rgb(253,253,253)" stroke-width="1" opacity="1" d="M 18.5 101 L 21 101.5 L 18.5 102 L 18.5 101 Z " /><path fill="rgb(253,253,253)" stroke="rgb(253,253,253)" stroke-width="1" opacity="1" d="M 35.5 101 L 35.5 102 L 35.5 101 Z " /><path fill="rgb(253,253,253)" stroke="rgb(253,253,253)" stroke-width="1" opacity="1" d="M 41.5 101 L 43 101.5 L 41.5 102 L 41.5 101 Z " /><path fill="rgb(253,253,253)" stroke="rgb(253,253,253)" stroke-width="1" opacity="1" d="M 85.5 101 L 85.5 102 L 85.5 101 Z " /><path fill="rgb(253,253,253)" stroke="rgb(253,253,253)" stroke-width="1" opacity="1" d="M 92.5 101 L 96 101.5 L 92.5 102 L 92.5 101 Z " /><path fill="rgb(253,253,253)" stroke="rgb(253,253,253)" stroke-width="1" opacity="1" d="M 108.5 101 L 110 101.5 L 108.5 102 L 108.5 101 Z " /><path fill="rgb(253,253,253)" stroke="rgb(253,253,253)" stroke-width="1" opacity="1" d="M 82.5 103 L 84 105.5 Q 83 107 82 104.5 L 82.5 103 Z " /><path fill="rgb(254,254,254)" stroke="rgb(254,254,254)" stroke-width="1" opacity="1" d="M 61.5 25 L 62 25.5 L 59.5 28 L 59 27.5 L 61.5 25 Z " /><path fill="rgb(254,254,254)" stroke="rgb(254,254,254)" stroke-width="1" opacity="1" d="M 63.5 25 L 63.5 26 L 63.5 25 Z " /><path fill="rgb(254,254,254)" stroke="rgb(254,254,254)" stroke-width="1" opacity="1" d="M 66.5 25 L 68 25 Q 66.87 27.67 69.5 27 L 71 26.5 L 66.5 29 L 67 27.5 L 66.5 25 Z " /><path fill="rgb(254,254,254)" stroke="rgb(254,254,254)" stroke-width="1" opacity="1" d="M 56.5 27 L 57 30.5 L 56 30.5 L 56.5 27 Z " /><path fill="rgb(254,254,254)" stroke="rgb(254,254,254)" stroke-width="1" opacity="1" d="M 72.5 27 L 72.5 28 L 72.5 27 Z " /><path fill="rgb(254,254,254)" stroke="rgb(254,254,254)" stroke-width="1" opacity="1" d="M 51.5 29 L 51 30.5 L 50.5 32 Q 48 31 49.5 30 L 51.5 29 Z " /><path fill="rgb(254,254,254)" stroke="rgb(254,254,254)" stroke-width="1" opacity="1" d="M 53.5 29 L 55 29.5 L 53.5 30 L 53.5 29 Z " /><path fill="rgb(254,254,254)" stroke="rgb(254,254,254)" stroke-width="1" opacity="1" d="M 58.5 29 L 58.5 30 L 58.5 29 Z " /><path fill="rgb(254,254,254)" stroke="rgb(254,254,254)" stroke-width="1" opacity="1" d="M 71.5 29 L 74 29.5 L 71.5 30 L 71.5 29 Z " /><path fill="rgb(254,254,254)" stroke="rgb(254,254,254)" stroke-width="1" opacity="1" d="M 78.5 30 L 79.5 31 L 81 30.5 L 80 32.5 L 82 35.5 L 80.5 35 L 79 34.5 Q 81 33.5 79 32.5 L 78.5 30 Z " /><path fill="rgb(254,254,254)" stroke="rgb(254,254,254)" stroke-width="1" opacity="1" d="M 47.5 31 L 48 32.5 L 47 32.5 L 47.5 31 Z " /><path fill="rgb(254,254,254)" stroke="rgb(254,254,254)" stroke-width="1" opacity="1" d="M 52.5 31 L 52.5 32 L 52.5 31 Z " /><path fill="rgb(254,254,254)" stroke="rgb(254,254,254)" stroke-width="1" opacity="1" d="M 74.5 31 L 76 31.5 L 74.5 32 L 74.5 31 Z " /><path fill="rgb(254,254,254)" stroke="rgb(254,254,254)" stroke-width="1" opacity="1" d="M 47.5 35 L 47.5 36 L 47.5 35 Z " /><path fill="rgb(254,254,254)" stroke="rgb(254,254,254)" stroke-width="1" opacity="1" d="M 49.5 35 L 49.5 36 L 49.5 35 Z " /><path fill="rgb(254,254,254)" stroke="rgb(254,254,254)" stroke-width="1" opacity="1" d="M 30.5 41 L 31 45.5 L 29.5 48 L 29 46.5 L 30 45.5 L 30.5 41 Z " /><path fill="rgb(254,254,254)" stroke="rgb(254,254,254)" stroke-width="1" opacity="1" d="M 32.5 46 L 33 48 L 31 47.5 L 32.5 46 Z " /><path fill="rgb(254,254,254)" stroke="rgb(254,254,254)" stroke-width="1" opacity="1" d="M 36.5 46 Q 37.25 47.75 40.5 47 L 42.5 46 Q 44 47 41.5 48 L 35.5 49 L 35.5 48 L 37 47.5 L 36.5 46 Z " /><path fill="rgb(254,254,254)" stroke="rgb(254,254,254)" stroke-width="1" opacity="1" d="M 44.5 46 L 48 48.5 L 45.5 49 Q 43.13 48.13 44.5 46 Z " /><path fill="rgb(254,254,254)" stroke="rgb(254,254,254)" stroke-width="1" opacity="1" d="M 48.5 46 L 48.5 47 L 48.5 46 Z " /><path fill="rgb(254,254,254)" stroke="rgb(254,254,254)" stroke-width="1" opacity="1" d="M 53.5 46 L 55.5 47 L 57 46.5 L 53.5 49 Q 52.5 47 51.5 49 L 50 47.5 L 51.5 48 L 53.5 46 Z M 54 47 L 54 48 L 54 47 Z " /><path fill="rgb(254,254,254)" stroke="rgb(254,254,254)" stroke-width="1" opacity="1" d="M 62.5 46 L 64 46.5 L 62 47 L 61.5 49 L 61 47.5 L 62.5 46 Z " /><path fill="rgb(254,254,254)" stroke="rgb(254,254,254)" stroke-width="1" opacity="1" d="M 71 46 Q 73.67 44.88 73 47.5 L 73.5 49 L 71 47.5 L 71 46 Z " /><path fill="rgb(254,254,254)" stroke="rgb(254,254,254)" stroke-width="1" opacity="1" d="M 87.5 46 L 88 48.5 Q 87 50 86 47.5 L 87.5 46 Z " /><path fill="rgb(254,254,254)" stroke="rgb(254,254,254)" stroke-width="1" opacity="1" d="M 89.5 46 L 90 48 L 92.5 47 Q 94 48 91.5 49 Q 87.15 50.13 89.5 46 Z " /><path fill="rgb(254,254,254)" stroke="rgb(254,254,254)" stroke-width="1" opacity="1" d="M 95.5 46 L 99 47 L 98.5 49 L 95.5 47 L 94 47.5 L 95.5 46 Z " /><path fill="rgb(254,254,254)" stroke="rgb(254,254,254)" stroke-width="1" opacity="1" d="M 65.5 47 L 65.5 48 L 65.5 47 Z " /><path fill="rgb(254,254,254)" stroke="rgb(254,254,254)" stroke-width="1" opacity="1" d="M 69.5 47 L 70 49 L 68 48.5 L 69.5 47 Z " /><path fill="rgb(254,254,254)" stroke="rgb(254,254,254)" stroke-width="1" opacity="1" d="M 76.5 47 L 78 47.5 L 76.5 48 L 76.5 47 Z " /><path fill="rgb(254,254,254)" stroke="rgb(254,254,254)" stroke-width="1" opacity="1" d="M 80.5 47 L 81.5 48 L 83 47.5 Q 83.75 49.75 81.5 49 L 80.5 48 L 79 48.5 L 80.5 47 Z " /><path fill="rgb(254,254,254)" stroke="rgb(254,254,254)" stroke-width="1" opacity="1" d="M 84.5 47 L 85 48.5 L 84 48.5 L 84.5 47 Z " /><path fill="rgb(254,254,254)" stroke="rgb(254,254,254)" stroke-width="1" opacity="1" d="M 27.5 48 L 28 49.5 Q 27 52 26 50.5 L 27.5 48 Z " /><path fill="rgb(254,254,254)" stroke="rgb(254,254,254)" stroke-width="1" opacity="1" d="M 57.5 48 L 57.5 49 L 57.5 48 Z " /><path fill="rgb(254,254,254)" stroke="rgb(254,254,254)" stroke-width="1" opacity="1" d="M 59.5 48 L 61 50.5 L 58.5 51 L 59 49.5 L 59.5 48 Z " /><path fill="rgb(254,254,254)" stroke="rgb(254,254,254)" stroke-width="1" opacity="1" d="M 63.5 48 L 63.5 49 L 63.5 48 Z " /><path fill="rgb(254,254,254)" stroke="rgb(254,254,254)" stroke-width="1" opacity="1" d="M 29.5 49 Q 30.5 51 31.5 49 L 33 50.5 L 29 51 L 29.5 49 Z " /><path fill="rgb(254,254,254)" stroke="rgb(254,254,254)" stroke-width="1" opacity="1" d="M 49.5 49 Q 52 50 50.5 51 Q 48 50 49.5 49 Z " /><path fill="rgb(254,254,254)" stroke="rgb(254,254,254)" stroke-width="1" opacity="1" d="M 96.5 49 L 96.5 50 L 96.5 49 Z " /><path fill="rgb(254,254,254)" stroke="rgb(254,254,254)" stroke-width="1" opacity="1" d="M 100.5 49 Q 102 50 99.5 51 Q 98 50 100.5 49 Z " /><path fill="rgb(254,254,254)" stroke="rgb(254,254,254)" stroke-width="1" opacity="1" d="M 102.5 49 L 103 76.5 L 102 76.5 L 102.5 49 Z " /><path fill="rgb(254,254,254)" stroke="rgb(254,254,254)" stroke-width="1" opacity="1" d="M 41.5 50 L 41.5 51 L 41.5 50 Z " /><path fill="rgb(254,254,254)" stroke="rgb(254,254,254)" stroke-width="1" opacity="1" d="M 67.5 50 L 67.5 51 L 67.5 50 Z " /><path fill="rgb(254,254,254)" stroke="rgb(254,254,254)" stroke-width="1" opacity="1" d="M 77.5 50 L 77.5 51 L 77.5 50 Z " /><path fill="rgb(254,254,254)" stroke="rgb(254,254,254)" stroke-width="1" opacity="1" d="M 87.5 50 L 87.5 51 L 87.5 50 Z " /><path fill="rgb(254,254,254)" stroke="rgb(254,254,254)" stroke-width="1" opacity="1" d="M 69.5 51 L 70 82.5 L 69 82.5 L 69.5 51 Z " /><path fill="rgb(254,254,254)" stroke="rgb(254,254,254)" stroke-width="1" opacity="1" d="M 85.5 51 L 86.5 83 L 88 82.5 L 87 83.5 L 89 85.5 L 88.5 86 Q 85.25 85.25 84.5 87 Q 83 86 85.5 85 L 87 84.5 L 85 82.5 L 85.5 51 Z " /><path fill="rgb(254,254,254)" stroke="rgb(254,254,254)" stroke-width="1" opacity="1" d="M 25.5 82 L 25.5 83 L 25.5 82 Z " /><path fill="rgb(254,254,254)" stroke="rgb(254,254,254)" stroke-width="1" opacity="1" d="M 32.5 82 L 34 82.5 L 32.5 83 L 32.5 82 Z " /><path fill="rgb(254,254,254)" stroke="rgb(254,254,254)" stroke-width="1" opacity="1" d="M 41.5 82 L 43 82.5 L 41.5 83 L 41.5 82 Z " /><path fill="rgb(254,254,254)" stroke="rgb(254,254,254)" stroke-width="1" opacity="1" d="M 50.5 82 L 50.5 83 L 50.5 82 Z " /><path fill="rgb(254,254,254)" stroke="rgb(254,254,254)" stroke-width="1" opacity="1" d="M 59.5 82 L 59.5 83 L 59.5 82 Z " /><path fill="rgb(254,254,254)" stroke="rgb(254,254,254)" stroke-width="1" opacity="1" d="M 77.5 82 L 79 84.5 Q 78 86 77 83.5 L 77.5 82 Z " /><path fill="rgb(254,254,254)" stroke="rgb(254,254,254)" stroke-width="1" opacity="1" d="M 94.5 82 L 94.5 83 L 94.5 82 Z " /><path fill="rgb(254,254,254)" stroke="rgb(254,254,254)" stroke-width="1" opacity="1" d="M 102.5 82 L 102.5 83 L 102.5 82 Z " /><path fill="rgb(254,254,254)" stroke="rgb(254,254,254)" stroke-width="1" opacity="1" d="M 61.5 83 L 62 84.5 L 61 84.5 L 61.5 83 Z " /><path fill="rgb(254,254,254)" stroke="rgb(254,254,254)" stroke-width="1" opacity="1" d="M 96.5 83 L 97 87 L 100 87.5 Q 98.75 90.25 97.5 88 L 95 88.5 L 95.5 90 L 94 90 Q 95.13 92.67 92.5 92 L 93 90.5 L 91 84.5 L 94 85.5 L 94.5 84 L 95.5 86 L 96.5 83 Z M 95 86 L 93 88 L 95 88 L 95 86 Z " /><path fill="rgb(254,254,254)" stroke="rgb(254,254,254)" stroke-width="1" opacity="1" d="M 25.5 84 L 25.5 85 L 25.5 84 Z " /><path fill="rgb(254,254,254)" stroke="rgb(254,254,254)" stroke-width="1" opacity="1" d="M 31.5 84 L 31.5 85 L 31.5 84 Z " /><path fill="rgb(254,254,254)" stroke="rgb(254,254,254)" stroke-width="1" opacity="1" d="M 33.5 84 L 33.5 85 L 33.5 84 Z " /><path fill="rgb(254,254,254)" stroke="rgb(254,254,254)" stroke-width="1" opacity="1" d="M 36 84 L 39 84 Q 37.88 86.67 40.5 86 L 40.5 87 L 37.5 85 L 35.5 88 Q 33.25 88.75 34 86.5 L 36 86.5 L 36 84 Z " /><path fill="rgb(254,254,254)" stroke="rgb(254,254,254)" stroke-width="1" opacity="1" d="M 40.5 84 L 40.5 85 L 40.5 84 Z " /><path fill="rgb(254,254,254)" stroke="rgb(254,254,254)" stroke-width="1" opacity="1" d="M 45.5 84 L 45.5 85 L 45.5 84 Z " /><path fill="rgb(254,254,254)" stroke="rgb(254,254,254)" stroke-width="1" opacity="1" d="M 47.5 84 L 47.5 85 L 47.5 84 Z " /><path fill="rgb(254,254,254)" stroke="rgb(254,254,254)" stroke-width="1" opacity="1" d="M 51.5 84 L 53 84.5 L 51.5 85 L 51.5 84 Z " /><path fill="rgb(254,254,254)" stroke="rgb(254,254,254)" stroke-width="1" opacity="1" d="M 54 84 L 58 84 L 58 85.5 L 56.5 85 L 52.5 87 L 52.5 86 Q 55.13 86.67 54 84 Z " /><path fill="rgb(254,254,254)" stroke="rgb(254,254,254)" stroke-width="1" opacity="1" d="M 66.5 84 L 66.5 85 L 66.5 84 Z " /><path fill="rgb(254,254,254)" stroke="rgb(254,254,254)" stroke-width="1" opacity="1" d="M 68.5 84 L 68.5 85 L 68.5 84 Z " /><path fill="rgb(254,254,254)" stroke="rgb(254,254,254)" stroke-width="1" opacity="1" d="M 71.5 84 L 72.5 85 L 74 84.5 L 72.5 86 Q 70 85 71.5 84 Z " /><path fill="rgb(254,254,254)" stroke="rgb(254,254,254)" stroke-width="1" opacity="1" d="M 75.5 84 L 75.5 85 L 75.5 84 Z " /><path fill="rgb(254,254,254)" stroke="rgb(254,254,254)" stroke-width="1" opacity="1" d="M 80.5 84 L 80.5 85 L 80.5 84 Z " /><path fill="rgb(254,254,254)" stroke="rgb(254,254,254)" stroke-width="1" opacity="1" d="M 82.5 84 L 82.5 85 L 82.5 84 Z " /><path fill="rgb(254,254,254)" stroke="rgb(254,254,254)" stroke-width="1" opacity="1" d="M 106.5 84 L 108 84.5 L 106.5 85 L 106.5 84 Z " /><path fill="rgb(254,254,254)" stroke="rgb(254,254,254)" stroke-width="1" opacity="1" d="M 109.5 84 L 109.5 85 L 109.5 84 Z " /><path fill="rgb(254,254,254)" stroke="rgb(254,254,254)" stroke-width="1" opacity="1" d="M 63.5 85 Q 66 86 64.5 87 Q 62 86 63.5 85 Z " /><path fill="rgb(254,254,254)" stroke="rgb(254,254,254)" stroke-width="1" opacity="1" d="M 22.5 86 L 22.5 87 L 22.5 86 Z " /><path fill="rgb(254,254,254)" stroke="rgb(254,254,254)" stroke-width="1" opacity="1" d="M 24.5 86 L 27 87 L 26 89.5 Q 28.25 90.75 25.5 92 L 26 90.5 L 25 89.5 L 26 88.5 L 24 86.5 L 24.5 86 Z " /><path fill="rgb(254,254,254)" stroke="rgb(254,254,254)" stroke-width="1" opacity="1" d="M 31.5 86 Q 34 87 32.5 88 Q 29.71 88.67 31.5 86 Z " /><path fill="rgb(254,254,254)" stroke="rgb(254,254,254)" stroke-width="1" opacity="1" d="M 45.5 86 L 48 86.5 L 45.5 87 L 45.5 86 Z " /><path fill="rgb(254,254,254)" stroke="rgb(254,254,254)" stroke-width="1" opacity="1" d="M 66.5 86 L 66.5 87 L 66.5 86 Z " /><path fill="rgb(254,254,254)" stroke="rgb(254,254,254)" stroke-width="1" opacity="1" d="M 68.5 86 L 68.5 87 L 68.5 86 Z " /><path fill="rgb(254,254,254)" stroke="rgb(254,254,254)" stroke-width="1" opacity="1" d="M 70.5 86 L 72 90.5 Q 71 93 70 91.5 Q 72 90.5 70 89.5 L 70.5 86 Z " /><path fill="rgb(254,254,254)" stroke="rgb(254,254,254)" stroke-width="1" opacity="1" d="M 75.5 86 L 75.5 87 L 75.5 86 Z " /><path fill="rgb(254,254,254)" stroke="rgb(254,254,254)" stroke-width="1" opacity="1" d="M 79.5 86 L 79.5 87 L 79.5 86 Z " /><path fill="rgb(254,254,254)" stroke="rgb(254,254,254)" stroke-width="1" opacity="1" d="M 104.5 86 L 104.5 87 L 104.5 86 Z " /><path fill="rgb(254,254,254)" stroke="rgb(254,254,254)" stroke-width="1" opacity="1" d="M 106.5 86 L 106.5 87 L 106.5 86 Z " /><path fill="rgb(254,254,254)" stroke="rgb(254,254,254)" stroke-width="1" opacity="1" d="M 19.5 87 L 20 97.5 L 19 97.5 L 19.5 87 Z " /><path fill="rgb(254,254,254)" stroke="rgb(254,254,254)" stroke-width="1" opacity="1" d="M 58.5 87 L 58 88.5 Q 58.75 90.75 56.5 90 L 56 89.5 L 58.5 87 Z " /><path fill="rgb(254,254,254)" stroke="rgb(254,254,254)" stroke-width="1" opacity="1" d="M 61.5 88 L 62 89.5 L 61 89.5 L 61.5 88 Z " /><path fill="rgb(254,254,254)" stroke="rgb(254,254,254)" stroke-width="1" opacity="1" d="M 67.5 88 Q 70 89 68.5 90 Q 66 89 67.5 88 Z " /><path fill="rgb(254,254,254)" stroke="rgb(254,254,254)" stroke-width="1" opacity="1" d="M 35.5 89 L 35.5 90 L 35.5 89 Z " /><path fill="rgb(254,254,254)" stroke="rgb(254,254,254)" stroke-width="1" opacity="1" d="M 57.5 91 L 57.5 92 L 57.5 91 Z " /><path fill="rgb(254,254,254)" stroke="rgb(254,254,254)" stroke-width="1" opacity="1" d="M 23.5 92 Q 26.25 93.25 24 94.5 L 23.5 96 L 23 94.5 L 24 93.5 L 23.5 92 Z " /><path fill="rgb(254,254,254)" stroke="rgb(254,254,254)" stroke-width="1" opacity="1" d="M 103.5 92 Q 106.5 91.5 107 93.5 L 105.5 93 Q 102.5 93.5 103.5 92 Z " /><path fill="rgb(254,254,254)" stroke="rgb(254,254,254)" stroke-width="1" opacity="1" d="M 34 94 Q 37 92.75 36 96.5 Q 35 98 34 95.5 L 34 94 Z " /><path fill="rgb(254,254,254)" stroke="rgb(254,254,254)" stroke-width="1" opacity="1" d="M 103.5 94 L 107 97.5 L 107 99 L 103 99 L 103 97 L 105 96.5 L 103 94.5 L 103.5 94 Z " /><path fill="rgb(254,254,254)" stroke="rgb(254,254,254)" stroke-width="1" opacity="1" d="M 92.5 95 Q 94.75 94.25 94 96.5 L 93.5 97 Q 91 96 92.5 95 Z " /><path fill="rgb(254,254,254)" stroke="rgb(254,254,254)" stroke-width="1" opacity="1" d="M 107.5 95 L 107.5 96 L 107.5 95 Z " /><path fill="rgb(254,254,254)" stroke="rgb(254,254,254)" stroke-width="1" opacity="1" d="M 21.5 96 L 21.5 97 L 21.5 96 Z " /><path fill="rgb(254,254,254)" stroke="rgb(254,254,254)" stroke-width="1" opacity="1" d="M 108.5 97 L 108.5 98 L 108.5 97 Z " /><path fill="rgb(254,254,254)" stroke="rgb(254,254,254)" stroke-width="1" opacity="1" d="M 19.5 99 L 20 101 L 18 100.5 L 19.5 99 Z " /><path fill="rgb(254,254,254)" stroke="rgb(254,254,254)" stroke-width="1" opacity="1" d="M 42.5 99 L 42.5 100 L 42.5 99 Z " /><path fill="rgb(254,254,254)" stroke="rgb(254,254,254)" stroke-width="1" opacity="1" d="M 93.5 99 L 95 99.5 L 93.5 100 L 93.5 99 Z " /><path fill="rgb(254,254,254)" stroke="rgb(254,254,254)" stroke-width="1" opacity="1" d="M 108.5 99 L 109 100.5 Q 107.75 103.25 102.5 102 L 102.5 101 L 108 101 L 108.5 99 Z " /><path fill="rgb(254,254,254)" stroke="rgb(254,254,254)" stroke-width="1" opacity="1" d="M 21 100 Q 24.81 99 26 101.5 L 21 102 L 21 100 Z " /><path fill="rgb(254,254,254)" stroke="rgb(254,254,254)" stroke-width="1" opacity="1" d="M 36 100 L 41 100 L 41 102 L 36 102 L 36 100 Z " /><path fill="rgb(254,254,254)" stroke="rgb(254,254,254)" stroke-width="1" opacity="1" d="M 85.5 100 L 86 100.5 L 83.5 103 L 83 102.5 L 85.5 100 Z " /><path fill="rgb(254,254,254)" stroke="rgb(254,254,254)" stroke-width="1" opacity="1" d="M 87 100 L 92 100 L 92 102 L 87 102 L 87 100 Z " /><path fill="rgb(254,254,254)" stroke="rgb(254,254,254)" stroke-width="1" opacity="1" d="M 34.5 101 L 34.5 102 L 34.5 101 Z " /><path fill="rgb(254,254,254)" stroke="rgb(254,254,254)" stroke-width="1" opacity="1" d="M 43.5 101 L 43.5 102 L 43.5 101 Z " /><path fill="rgb(254,254,254)" stroke="rgb(254,254,254)" stroke-width="1" opacity="1" d="M 71.5 102 Q 73 103 70.5 104 Q 69 103 71.5 102 Z " /><path fill="rgb(254,254,254)" stroke="rgb(254,254,254)" stroke-width="1" opacity="1" d="M 44.5 103 Q 46.75 102.25 46 104.5 Q 45 107 44 105.5 L 45 104.5 L 44.5 103 Z " /><path fill="rgb(254,254,254)" stroke="rgb(254,254,254)" stroke-width="1" opacity="1" d="M 56.5 103 L 57.5 105 L 59 104.5 Q 57.5 107.5 56 104.5 L 56.5 103 Z " /><path fill="rgb(254,254,254)" stroke="rgb(254,254,254)" stroke-width="1" opacity="1" d="M 70.5 105 L 70.5 106 L 70.5 105 Z " /><path fill="rgb(247,247,247)" stroke="rgb(247,247,247)" stroke-width="1" opacity="1" d="M 60.5 25 L 60.5 26 L 60.5 25 Z " /><path fill="rgb(247,247,247)" stroke="rgb(247,247,247)" stroke-width="1" opacity="1" d="M 58.5 26 L 58.5 27 L 58.5 26 Z " /><path fill="rgb(247,247,247)" stroke="rgb(247,247,247)" stroke-width="1" opacity="1" d="M 58.5 28 L 58.5 29 L 58.5 28 Z " /><path fill="rgb(247,247,247)" stroke="rgb(247,247,247)" stroke-width="1" opacity="1" d="M 60.5 28 L 60.5 29 L 60.5 28 Z " /><path fill="rgb(247,247,247)" stroke="rgb(247,247,247)" stroke-width="1" opacity="1" d="M 63.5 28 L 63.5 29 L 63.5 28 Z " /><path fill="rgb(247,247,247)" stroke="rgb(247,247,247)" stroke-width="1" opacity="1" d="M 74.5 28 L 74.5 29 L 74.5 28 Z " /><path fill="rgb(247,247,247)" stroke="rgb(247,247,247)" stroke-width="1" opacity="1" d="M 76.5 28 L 76.5 29 L 76.5 28 Z " /><path fill="rgb(247,247,247)" stroke="rgb(247,247,247)" stroke-width="1" opacity="1" d="M 50.5 29 L 50.5 30 L 50.5 29 Z " /><path fill="rgb(247,247,247)" stroke="rgb(247,247,247)" stroke-width="1" opacity="1" d="M 68.5 29 L 68.5 30 L 68.5 29 Z " /><path fill="rgb(247,247,247)" stroke="rgb(247,247,247)" stroke-width="1" opacity="1" d="M 78.5 29 L 78.5 30 L 78.5 29 Z " /><path fill="rgb(247,247,247)" stroke="rgb(247,247,247)" stroke-width="1" opacity="1" d="M 70.5 30 L 70.5 31 L 70.5 30 Z " /><path fill="rgb(247,247,247)" stroke="rgb(247,247,247)" stroke-width="1" opacity="1" d="M 76.5 30 L 76.5 31 L 76.5 30 Z " /><path fill="rgb(247,247,247)" stroke="rgb(247,247,247)" stroke-width="1" opacity="1" d="M 81.5 30 L 81.5 31 L 81.5 30 Z " /><path fill="rgb(247,247,247)" stroke="rgb(247,247,247)" stroke-width="1" opacity="1" d="M 54.5 31 L 54.5 32 L 54.5 31 Z " /><path fill="rgb(247,247,247)" stroke="rgb(247,247,247)" stroke-width="1" opacity="1" d="M 73.5 31 L 73.5 32 L 73.5 31 Z " /><path fill="rgb(247,247,247)" stroke="rgb(247,247,247)" stroke-width="1" opacity="1" d="M 77.5 32 L 79 34.5 L 78 34.5 L 77.5 32 Z " /><path fill="rgb(247,247,247)" stroke="rgb(247,247,247)" stroke-width="1" opacity="1" d="M 82.5 35 L 82.5 36 L 82.5 35 Z " /><path fill="rgb(247,247,247)" stroke="rgb(247,247,247)" stroke-width="1" opacity="1" d="M 99.5 36 L 100 47.5 L 99 47.5 L 99.5 36 Z " /><path fill="rgb(247,247,247)" stroke="rgb(247,247,247)" stroke-width="1" opacity="1" d="M 90.5 46 L 90.5 47 L 90.5 46 Z " /><path fill="rgb(247,247,247)" stroke="rgb(247,247,247)" stroke-width="1" opacity="1" d="M 30.5 49 L 30.5 50 L 30.5 49 Z " /><path fill="rgb(247,247,247)" stroke="rgb(247,247,247)" stroke-width="1" opacity="1" d="M 40.5 49 L 41 82.5 Q 40 85 39 83.5 L 40 82.5 L 40.5 49 Z " /><path fill="rgb(247,247,247)" stroke="rgb(247,247,247)" stroke-width="1" opacity="1" d="M 67.5 49 L 67.5 50 L 67.5 49 Z " /><path fill="rgb(247,247,247)" stroke="rgb(247,247,247)" stroke-width="1" opacity="1" d="M 76.5 49 L 76.5 50 L 76.5 49 Z " /><path fill="rgb(247,247,247)" stroke="rgb(247,247,247)" stroke-width="1" opacity="1" d="M 94.5 49 L 94.5 50 L 94.5 49 Z " /><path fill="rgb(247,247,247)" stroke="rgb(247,247,247)" stroke-width="1" opacity="1" d="M 99.5 49 L 99.5 50 L 99.5 49 Z " /><path fill="rgb(247,247,247)" stroke="rgb(247,247,247)" stroke-width="1" opacity="1" d="M 25.5 80 L 25.5 81 L 25.5 80 Z " /><path fill="rgb(247,247,247)" stroke="rgb(247,247,247)" stroke-width="1" opacity="1" d="M 24.5 82 L 24.5 83 L 24.5 82 Z " /><path fill="rgb(247,247,247)" stroke="rgb(247,247,247)" stroke-width="1" opacity="1" d="M 104.5 82 L 104.5 83 L 104.5 82 Z " /><path fill="rgb(247,247,247)" stroke="rgb(247,247,247)" stroke-width="1" opacity="1" d="M 34.5 83 L 34.5 84 L 34.5 83 Z " /><path fill="rgb(247,247,247)" stroke="rgb(247,247,247)" stroke-width="1" opacity="1" d="M 36.5 83 L 38 83.5 L 36.5 84 L 36.5 83 Z " /><path fill="rgb(247,247,247)" stroke="rgb(247,247,247)" stroke-width="1" opacity="1" d="M 43.5 83 L 47 83.5 L 43.5 84 L 43.5 83 Z " /><path fill="rgb(247,247,247)" stroke="rgb(247,247,247)" stroke-width="1" opacity="1" d="M 48.5 83 L 48.5 84 L 48.5 83 Z " /><path fill="rgb(247,247,247)" stroke="rgb(247,247,247)" stroke-width="1" opacity="1" d="M 51.5 83 L 54 83.5 L 51.5 84 L 51.5 83 Z " /><path fill="rgb(247,247,247)" stroke="rgb(247,247,247)" stroke-width="1" opacity="1" d="M 55.5 83 L 55.5 84 L 55.5 83 Z " /><path fill="rgb(247,247,247)" stroke="rgb(247,247,247)" stroke-width="1" opacity="1" d="M 57.5 83 L 57.5 84 L 57.5 83 Z " /><path fill="rgb(247,247,247)" stroke="rgb(247,247,247)" stroke-width="1" opacity="1" d="M 62.5 83 L 67 83.5 L 62.5 84 L 62.5 83 Z " /><path fill="rgb(247,247,247)" stroke="rgb(247,247,247)" stroke-width="1" opacity="1" d="M 71.5 83 L 74 83.5 L 71.5 84 L 71.5 83 Z " /><path fill="rgb(247,247,247)" stroke="rgb(247,247,247)" stroke-width="1" opacity="1" d="M 75.5 83 L 75.5 84 L 75.5 83 Z " /><path fill="rgb(247,247,247)" stroke="rgb(247,247,247)" stroke-width="1" opacity="1" d="M 78.5 83 L 78.5 84 L 78.5 83 Z " /><path fill="rgb(247,247,247)" stroke="rgb(247,247,247)" stroke-width="1" opacity="1" d="M 80.5 83 L 82 83.5 L 80.5 84 L 80.5 83 Z " /><path fill="rgb(247,247,247)" stroke="rgb(247,247,247)" stroke-width="1" opacity="1" d="M 83.5 83 L 85 83.5 L 83.5 84 L 83.5 83 Z " /><path fill="rgb(247,247,247)" stroke="rgb(247,247,247)" stroke-width="1" opacity="1" d="M 88.5 83 L 88.5 84 L 88.5 83 Z " /><path fill="rgb(247,247,247)" stroke="rgb(247,247,247)" stroke-width="1" opacity="1" d="M 91.5 83 L 94 83.5 L 91.5 84 L 91.5 83 Z " /><path fill="rgb(247,247,247)" stroke="rgb(247,247,247)" stroke-width="1" opacity="1" d="M 110.5 84 L 110.5 85 L 110.5 84 Z " /><path fill="rgb(247,247,247)" stroke="rgb(247,247,247)" stroke-width="1" opacity="1" d="M 110.5 87 L 111 101.5 L 110 101.5 L 110.5 87 Z " /><path fill="rgb(247,247,247)" stroke="rgb(247,247,247)" stroke-width="1" opacity="1" d="M 27.5 89 L 28 90.5 L 27 90.5 L 27.5 89 Z " /><path fill="rgb(247,247,247)" stroke="rgb(247,247,247)" stroke-width="1" opacity="1" d="M 96.5 89 L 97 90.5 Q 96 93 95 91.5 L 96.5 89 Z " /><path fill="rgb(247,247,247)" stroke="rgb(247,247,247)" stroke-width="1" opacity="1" d="M 58.5 90 L 58.5 91 L 58.5 90 Z " /><path fill="rgb(247,247,247)" stroke="rgb(247,247,247)" stroke-width="1" opacity="1" d="M 69.5 90 L 70 105.5 L 69 105.5 L 69.5 90 Z " /><path fill="rgb(247,247,247)" stroke="rgb(247,247,247)" stroke-width="1" opacity="1" d="M 102.5 91 L 102.5 92 L 102.5 91 Z " /><path fill="rgb(247,247,247)" stroke="rgb(247,247,247)" stroke-width="1" opacity="1" d="M 33.5 92 L 33.5 93 L 33.5 92 Z " /><path fill="rgb(247,247,247)" stroke="rgb(247,247,247)" stroke-width="1" opacity="1" d="M 94.5 94 L 94.5 95 L 94.5 94 Z " /><path fill="rgb(247,247,247)" stroke="rgb(247,247,247)" stroke-width="1" opacity="1" d="M 33.5 96 L 33.5 97 L 33.5 96 Z " /><path fill="rgb(247,247,247)" stroke="rgb(247,247,247)" stroke-width="1" opacity="1" d="M 25.5 98 L 25.5 99 L 25.5 98 Z " /><path fill="rgb(247,247,247)" stroke="rgb(247,247,247)" stroke-width="1" opacity="1" d="M 102.5 99 L 102.5 100 L 102.5 99 Z " /><path fill="rgb(247,247,247)" stroke="rgb(247,247,247)" stroke-width="1" opacity="1" d="M 95.5 100 L 95.5 101 L 95.5 100 Z " /><path fill="rgb(247,247,247)" stroke="rgb(247,247,247)" stroke-width="1" opacity="1" d="M 26.5 101 L 26.5 102 L 26.5 101 Z " /><path fill="rgb(247,247,247)" stroke="rgb(247,247,247)" stroke-width="1" opacity="1" d="M 32.5 101 L 32.5 102 L 32.5 101 Z " /><path fill="rgb(247,247,247)" stroke="rgb(247,247,247)" stroke-width="1" opacity="1" d="M 84.5 102 L 84.5 103 L 84.5 102 Z " /></svg>