<svg width="64" height="64" version="1.1" xmlns="http://www.w3.org/2000/svg" desc="Created with imagetracer.js version 1.2.6" ><path fill="rgb(14,113,186)" stroke="rgb(14,113,186)" stroke-width="1" opacity="1" d="M 0 0 L 37.5 0 L 38 1.5 L 31.5 13 L 30 12.5 L 31 14.5 L 29 14.5 L 26 20.5 L 26.5 22 L 25 21.5 L 26 23.5 L 24 23.5 L 25 25.5 L 23 25.5 L 24 27.5 L 22 27.5 L 18 35.5 L 18.5 37 L 17 36.5 L 18 38.5 L 16 38.5 L 17 40.5 L 15 40.5 L 16 42.5 L 14 42.5 L 13 45.5 L 14 47.5 L 12 49.5 L 4.5 64 Q 0 64.5 0 63.5 L 0 0 Z " /><path fill="rgb(0,56,122)" stroke="rgb(0,56,122)" stroke-width="1" opacity="1" d="M 39.5 0 L 39.5 1 L 39.5 0 Z " /><path fill="rgb(0,56,122)" stroke="rgb(0,56,122)" stroke-width="1" opacity="1" d="M 38.5 2 L 38.5 3 L 38.5 2 Z " /><path fill="rgb(0,56,122)" stroke="rgb(0,56,122)" stroke-width="1" opacity="1" d="M 37.5 4 L 37.5 5 L 37.5 4 Z " /><path fill="rgb(0,56,122)" stroke="rgb(0,56,122)" stroke-width="1" opacity="1" d="M 36.5 6 L 36.5 7 L 36.5 6 Z " /><path fill="rgb(0,56,122)" stroke="rgb(0,56,122)" stroke-width="1" opacity="1" d="M 35.5 8 L 35.5 9 L 35.5 8 Z " /><path fill="rgb(0,56,122)" stroke="rgb(0,56,122)" stroke-width="1" opacity="1" d="M 34.5 10 L 34.5 13 Q 31.5 11.5 34.5 10 Z " /><path fill="rgb(0,56,122)" stroke="rgb(0,56,122)" stroke-width="1" opacity="1" d="M 38.5 21 L 40 21.5 L 38.5 22 L 38.5 21 Z " /><path fill="rgb(0,56,122)" stroke="rgb(0,56,122)" stroke-width="1" opacity="1" d="M 40.5 23 L 40.5 24 L 40.5 23 Z " /><path fill="rgb(0,56,122)" stroke="rgb(0,56,122)" stroke-width="1" opacity="1" d="M 31.5 28 L 31.5 29 L 31.5 28 Z " /><path fill="rgb(0,56,122)" stroke="rgb(0,56,122)" stroke-width="1" opacity="1" d="M 33.5 28 L 33.5 29 L 33.5 28 Z " /><path fill="rgb(0,56,122)" stroke="rgb(0,56,122)" stroke-width="1" opacity="1" d="M 29.5 30 L 31 30.5 L 29.5 31 L 29.5 30 Z " /><path fill="rgb(0,56,122)" stroke="rgb(0,56,122)" stroke-width="1" opacity="1" d="M 34.5 30 L 36 30.5 L 34.5 31 L 34.5 30 Z " /><path fill="rgb(0,56,122)" stroke="rgb(0,56,122)" stroke-width="1" opacity="1" d="M 29.5 32 L 29.5 33 L 29.5 32 Z " /><path fill="rgb(0,56,122)" stroke="rgb(0,56,122)" stroke-width="1" opacity="1" d="M 35.5 32 L 37 32.5 L 35.5 33 L 35.5 32 Z " /><path fill="rgb(0,56,122)" stroke="rgb(0,56,122)" stroke-width="1" opacity="1" d="M 46.5 34 L 46.5 35 L 46.5 34 Z " /><path fill="rgb(0,56,122)" stroke="rgb(0,56,122)" stroke-width="1" opacity="1" d="M 46.5 36 L 48 36.5 L 46.5 37 L 46.5 36 Z " /><path fill="rgb(0,56,122)" stroke="rgb(0,56,122)" stroke-width="1" opacity="1" d="M 48.5 38 L 48.5 39 L 48.5 38 Z " /><path fill="rgb(0,56,122)" stroke="rgb(0,56,122)" stroke-width="1" opacity="1" d="M 22.5 45 L 23 45.5 L 20.5 48 L 20 47.5 L 22.5 45 Z " /><path fill="rgb(0,56,122)" stroke="rgb(0,56,122)" stroke-width="1" opacity="1" d="M 43.5 46 Q 46 47 44.5 48 Q 42 47 43.5 46 Z " /><path fill="rgb(0,56,122)" stroke="rgb(0,56,122)" stroke-width="1" opacity="1" d="M 14.5 47 L 15 48.5 L 14 48.5 L 14.5 47 Z " /><path fill="rgb(0,56,122)" stroke="rgb(0,56,122)" stroke-width="1" opacity="1" d="M 50.5 47 L 50.5 48 L 50.5 47 Z " /><path fill="rgb(0,56,122)" stroke="rgb(0,56,122)" stroke-width="1" opacity="1" d="M 13.5 50 Q 15 51 12.5 52 Q 11 51 13.5 50 Z " /><path fill="rgb(0,56,122)" stroke="rgb(0,56,122)" stroke-width="1" opacity="1" d="M 11.5 53 L 11.5 54 L 11.5 53 Z " /><path fill="rgb(0,56,122)" stroke="rgb(0,56,122)" stroke-width="1" opacity="1" d="M 10.5 55 L 10.5 56 L 10.5 55 Z " /><path fill="rgb(0,56,122)" stroke="rgb(0,56,122)" stroke-width="1" opacity="1" d="M 9.5 57 L 9.5 58 L 9.5 57 Z " /><path fill="rgb(0,56,122)" stroke="rgb(0,56,122)" stroke-width="1" opacity="1" d="M 8.5 59 L 8.5 60 L 8.5 59 Z " /><path fill="rgb(0,56,122)" stroke="rgb(0,56,122)" stroke-width="1" opacity="1" d="M 7.5 61 L 7.5 62 L 7.5 61 Z " /><path fill="rgb(0,56,122)" stroke="rgb(0,56,122)" stroke-width="1" opacity="1" d="M 6.5 63 L 6.5 64 L 6.5 63 Z " /><path fill="rgb(0,66,131)" stroke="rgb(0,66,131)" stroke-width="1" opacity="1" d="M 40.5 0 L 64 0 L 64 64 L 7.5 64 L 6 62.5 L 8 61.5 L 7.5 60 L 9 59.5 L 8.5 58 L 10 57.5 L 9.5 56 L 11 55.5 L 10.5 54 Q 12.75 54.75 12 52.5 L 14 50.5 L 13.5 49 L 21 47.5 Q 18.75 46.25 21.5 45 L 23 45.5 L 22 43.5 L 24 43.5 L 23 41.5 L 25 41.5 L 31 29.5 L 30.5 28 L 32 28.5 L 31 26.5 L 34 26.5 L 33 28.5 L 35 28.5 L 34 30.5 L 41.5 44 L 43 43.5 L 42 45.5 L 43.5 45 L 45 46.5 L 44.5 48 L 50.5 48 L 51 46.5 L 52 44.5 L 49.5 40 L 48 40.5 L 49 38.5 L 47 38.5 L 48 36.5 L 42.5 27 L 41 27.5 L 42 25.5 L 40 25.5 L 41 23.5 L 39 23.5 L 40 21.5 L 38 19.5 L 34.5 12 L 33 12.5 L 35 10.5 L 34.5 9 L 36 8.5 L 35.5 7 L 37 6.5 L 36.5 5 L 38 4.5 L 37.5 3 L 39 2.5 L 38.5 1 L 40.5 0 Z M 22 46 L 22 47 L 22 46 Z M 44 46 L 44 47 L 44 46 Z " /><path fill="rgb(0,41,115)" stroke="rgb(0,41,115)" stroke-width="1" opacity="1" d="M 35.5 14 L 35.5 15 L 35.5 14 Z " /><path fill="rgb(0,41,115)" stroke="rgb(0,41,115)" stroke-width="1" opacity="1" d="M 36.5 17 L 36.5 18 L 36.5 17 Z " /><path fill="rgb(0,41,115)" stroke="rgb(0,41,115)" stroke-width="1" opacity="1" d="M 37.5 19 L 37.5 20 L 37.5 19 Z " /><path fill="rgb(0,41,115)" stroke="rgb(0,41,115)" stroke-width="1" opacity="1" d="M 41.5 25 L 41.5 26 L 41.5 25 Z " /><path fill="rgb(0,41,115)" stroke="rgb(0,41,115)" stroke-width="1" opacity="1" d="M 42.5 27 L 42.5 28 L 42.5 27 Z " /><path fill="rgb(0,41,115)" stroke="rgb(0,41,115)" stroke-width="1" opacity="1" d="M 43.5 29 L 43.5 30 L 43.5 29 Z " /><path fill="rgb(0,41,115)" stroke="rgb(0,41,115)" stroke-width="1" opacity="1" d="M 28.5 32 L 28.5 33 L 28.5 32 Z " /><path fill="rgb(0,41,115)" stroke="rgb(0,41,115)" stroke-width="1" opacity="1" d="M 44.5 32 L 44.5 33 L 44.5 32 Z " /><path fill="rgb(0,41,115)" stroke="rgb(0,41,115)" stroke-width="1" opacity="1" d="M 27.5 34 L 27.5 35 L 27.5 34 Z " /><path fill="rgb(0,41,115)" stroke="rgb(0,41,115)" stroke-width="1" opacity="1" d="M 37.5 34 L 37.5 35 L 37.5 34 Z " /><path fill="rgb(0,41,115)" stroke="rgb(0,41,115)" stroke-width="1" opacity="1" d="M 45.5 34 L 45.5 35 L 45.5 34 Z " /><path fill="rgb(0,41,115)" stroke="rgb(0,41,115)" stroke-width="1" opacity="1" d="M 26.5 36 L 26.5 37 L 26.5 36 Z " /><path fill="rgb(0,41,115)" stroke="rgb(0,41,115)" stroke-width="1" opacity="1" d="M 38.5 36 L 38.5 37 L 38.5 36 Z " /><path fill="rgb(0,41,115)" stroke="rgb(0,41,115)" stroke-width="1" opacity="1" d="M 39.5 38 L 40 39.5 L 39 39.5 L 39.5 38 Z " /><path fill="rgb(0,41,115)" stroke="rgb(0,41,115)" stroke-width="1" opacity="1" d="M 25.5 39 L 25.5 40 L 25.5 39 Z " /><path fill="rgb(0,41,115)" stroke="rgb(0,41,115)" stroke-width="1" opacity="1" d="M 49.5 40 L 49.5 41 L 49.5 40 Z " /><path fill="rgb(0,41,115)" stroke="rgb(0,41,115)" stroke-width="1" opacity="1" d="M 24.5 41 L 24.5 42 L 24.5 41 Z " /><path fill="rgb(0,41,115)" stroke="rgb(0,41,115)" stroke-width="1" opacity="1" d="M 40.5 41 L 40.5 42 L 40.5 41 Z " /><path fill="rgb(0,41,115)" stroke="rgb(0,41,115)" stroke-width="1" opacity="1" d="M 50.5 42 L 50.5 43 L 50.5 42 Z " /><path fill="rgb(0,41,115)" stroke="rgb(0,41,115)" stroke-width="1" opacity="1" d="M 23.5 43 L 23.5 44 L 23.5 43 Z " /><path fill="rgb(0,41,115)" stroke="rgb(0,41,115)" stroke-width="1" opacity="1" d="M 41.5 43 L 41.5 44 L 41.5 43 Z " /><path fill="rgb(0,41,115)" stroke="rgb(0,41,115)" stroke-width="1" opacity="1" d="M 51.5 44 L 52 45.5 L 51 45.5 L 51.5 44 Z " /><path fill="rgb(0,41,115)" stroke="rgb(0,41,115)" stroke-width="1" opacity="1" d="M 42.5 45 L 42.5 46 L 42.5 45 Z " /><path fill="rgb(0,41,115)" stroke="rgb(0,41,115)" stroke-width="1" opacity="1" d="M 15.5 47 L 20 47.5 L 15.5 48 L 15.5 47 Z " /><path fill="rgb(0,41,115)" stroke="rgb(0,41,115)" stroke-width="1" opacity="1" d="M 45.5 47 L 50 47.5 L 45.5 48 L 45.5 47 Z " /><path fill="rgb(255,255,255)" stroke="rgb(255,255,255)" stroke-width="1" opacity="1" d="M 32.5 13 L 39 25.5 L 41 27.5 L 47 40.5 L 49 42.5 L 50 46 Q 44.5 47.25 43 43.5 L 34 24 L 31 24 L 31 25.5 L 23 41.5 L 19.5 46 L 15 46 L 15 44.5 L 32.5 13 Z " /><path fill="rgb(178,201,223)" stroke="rgb(178,201,223)" stroke-width="1" opacity="1" d="M 32.5 12 Q 34 13 31.5 14 Q 30 13 32.5 12 Z " /><path fill="rgb(178,201,223)" stroke="rgb(178,201,223)" stroke-width="1" opacity="1" d="M 30.5 15 L 30.5 16 L 30.5 15 Z " /><path fill="rgb(178,201,223)" stroke="rgb(178,201,223)" stroke-width="1" opacity="1" d="M 34.5 15 L 34.5 16 L 34.5 15 Z " /><path fill="rgb(178,201,223)" stroke="rgb(178,201,223)" stroke-width="1" opacity="1" d="M 29.5 17 L 29.5 18 L 29.5 17 Z " /><path fill="rgb(178,201,223)" stroke="rgb(178,201,223)" stroke-width="1" opacity="1" d="M 35.5 17 L 35.5 18 L 35.5 17 Z " /><path fill="rgb(178,201,223)" stroke="rgb(178,201,223)" stroke-width="1" opacity="1" d="M 36.5 19 L 36.5 20 L 36.5 19 Z " /><path fill="rgb(178,201,223)" stroke="rgb(178,201,223)" stroke-width="1" opacity="1" d="M 25.5 24 L 25.5 25 L 25.5 24 Z " /><path fill="rgb(178,201,223)" stroke="rgb(178,201,223)" stroke-width="1" opacity="1" d="M 24.5 26 L 24.5 27 L 24.5 26 Z " /><path fill="rgb(178,201,223)" stroke="rgb(178,201,223)" stroke-width="1" opacity="1" d="M 23.5 28 L 23.5 29 L 23.5 28 Z " /><path fill="rgb(178,201,223)" stroke="rgb(178,201,223)" stroke-width="1" opacity="1" d="M 22.5 30 L 22.5 31 L 22.5 30 Z " /><path fill="rgb(178,201,223)" stroke="rgb(178,201,223)" stroke-width="1" opacity="1" d="M 42.5 30 L 42.5 31 L 42.5 30 Z " /><path fill="rgb(178,201,223)" stroke="rgb(178,201,223)" stroke-width="1" opacity="1" d="M 27.5 32 L 27.5 33 L 27.5 32 Z " /><path fill="rgb(178,201,223)" stroke="rgb(178,201,223)" stroke-width="1" opacity="1" d="M 43.5 32 L 43.5 33 L 43.5 32 Z " /><path fill="rgb(178,201,223)" stroke="rgb(178,201,223)" stroke-width="1" opacity="1" d="M 26.5 34 L 26.5 35 L 26.5 34 Z " /><path fill="rgb(178,201,223)" stroke="rgb(178,201,223)" stroke-width="1" opacity="1" d="M 38.5 34 L 38.5 35 L 38.5 34 Z " /><path fill="rgb(178,201,223)" stroke="rgb(178,201,223)" stroke-width="1" opacity="1" d="M 44.5 34 L 44.5 35 L 44.5 34 Z " /><path fill="rgb(178,201,223)" stroke="rgb(178,201,223)" stroke-width="1" opacity="1" d="M 25.5 36 L 25.5 37 L 25.5 36 Z " /><path fill="rgb(178,201,223)" stroke="rgb(178,201,223)" stroke-width="1" opacity="1" d="M 39.5 36 L 39.5 37 L 39.5 36 Z " /><path fill="rgb(178,201,223)" stroke="rgb(178,201,223)" stroke-width="1" opacity="1" d="M 18.5 37 L 18.5 38 L 18.5 37 Z " /><path fill="rgb(178,201,223)" stroke="rgb(178,201,223)" stroke-width="1" opacity="1" d="M 24.5 38 L 24.5 39 L 24.5 38 Z " /><path fill="rgb(178,201,223)" stroke="rgb(178,201,223)" stroke-width="1" opacity="1" d="M 40.5 38 L 40.5 39 L 40.5 38 Z " /><path fill="rgb(178,201,223)" stroke="rgb(178,201,223)" stroke-width="1" opacity="1" d="M 17.5 39 L 17.5 40 L 17.5 39 Z " /><path fill="rgb(178,201,223)" stroke="rgb(178,201,223)" stroke-width="1" opacity="1" d="M 23.5 40 L 23.5 41 L 23.5 40 Z " /><path fill="rgb(178,201,223)" stroke="rgb(178,201,223)" stroke-width="1" opacity="1" d="M 41.5 40 L 41.5 41 L 41.5 40 Z " /><path fill="rgb(178,201,223)" stroke="rgb(178,201,223)" stroke-width="1" opacity="1" d="M 16.5 41 L 16.5 42 L 16.5 41 Z " /><path fill="rgb(178,201,223)" stroke="rgb(178,201,223)" stroke-width="1" opacity="1" d="M 15.5 43 L 15.5 44 L 15.5 43 Z " /><path fill="rgb(178,201,223)" stroke="rgb(178,201,223)" stroke-width="1" opacity="1" d="M 49.5 43 L 49.5 44 L 49.5 43 Z " /><path fill="rgb(178,201,223)" stroke="rgb(178,201,223)" stroke-width="1" opacity="1" d="M 14.5 45 L 14.5 46 L 14.5 45 Z " /><path fill="rgb(178,201,223)" stroke="rgb(178,201,223)" stroke-width="1" opacity="1" d="M 50.5 45 L 50.5 46 L 50.5 45 Z " /><path fill="rgb(0,30,107)" stroke="rgb(0,30,107)" stroke-width="1" opacity="1" d="M 34.5 13 L 34.5 14 L 34.5 13 Z " /><path fill="rgb(0,30,107)" stroke="rgb(0,30,107)" stroke-width="1" opacity="1" d="M 35.5 15 Q 38 16 36.5 17 Q 34 16 35.5 15 Z " /><path fill="rgb(0,30,107)" stroke="rgb(0,30,107)" stroke-width="1" opacity="1" d="M 37.5 18 L 37.5 19 L 37.5 18 Z " /><path fill="rgb(0,30,107)" stroke="rgb(0,30,107)" stroke-width="1" opacity="1" d="M 38.5 20 L 38.5 21 L 38.5 20 Z " /><path fill="rgb(0,30,107)" stroke="rgb(0,30,107)" stroke-width="1" opacity="1" d="M 39.5 22 L 39.5 23 L 39.5 22 Z " /><path fill="rgb(0,30,107)" stroke="rgb(0,30,107)" stroke-width="1" opacity="1" d="M 40.5 24 L 40.5 25 L 40.5 24 Z " /><path fill="rgb(0,30,107)" stroke="rgb(0,30,107)" stroke-width="1" opacity="1" d="M 32.5 25 L 34 27.5 L 31 27.5 L 32.5 25 Z " /><path fill="rgb(0,30,107)" stroke="rgb(0,30,107)" stroke-width="1" opacity="1" d="M 41.5 26 L 41.5 27 L 41.5 26 Z " /><path fill="rgb(0,30,107)" stroke="rgb(0,30,107)" stroke-width="1" opacity="1" d="M 42.5 28 L 42.5 29 L 42.5 28 Z " /><path fill="rgb(0,30,107)" stroke="rgb(0,30,107)" stroke-width="1" opacity="1" d="M 30.5 29 L 30.5 30 L 30.5 29 Z " /><path fill="rgb(0,30,107)" stroke="rgb(0,30,107)" stroke-width="1" opacity="1" d="M 34.5 29 L 34.5 30 L 34.5 29 Z " /><path fill="rgb(0,30,107)" stroke="rgb(0,30,107)" stroke-width="1" opacity="1" d="M 43.5 30 Q 46 31 44.5 32 Q 42 31 43.5 30 Z " /><path fill="rgb(0,30,107)" stroke="rgb(0,30,107)" stroke-width="1" opacity="1" d="M 29.5 31 L 29.5 32 L 29.5 31 Z " /><path fill="rgb(0,30,107)" stroke="rgb(0,30,107)" stroke-width="1" opacity="1" d="M 35.5 31 L 35.5 32 L 35.5 31 Z " /><path fill="rgb(0,30,107)" stroke="rgb(0,30,107)" stroke-width="1" opacity="1" d="M 28.5 33 L 28.5 34 L 28.5 33 Z " /><path fill="rgb(0,30,107)" stroke="rgb(0,30,107)" stroke-width="1" opacity="1" d="M 36.5 33 L 36.5 34 L 36.5 33 Z " /><path fill="rgb(0,30,107)" stroke="rgb(0,30,107)" stroke-width="1" opacity="1" d="M 45.5 33 L 45.5 34 L 45.5 33 Z " /><path fill="rgb(0,30,107)" stroke="rgb(0,30,107)" stroke-width="1" opacity="1" d="M 27.5 35 L 27.5 36 L 27.5 35 Z " /><path fill="rgb(0,30,107)" stroke="rgb(0,30,107)" stroke-width="1" opacity="1" d="M 37.5 35 L 37.5 36 L 37.5 35 Z " /><path fill="rgb(0,30,107)" stroke="rgb(0,30,107)" stroke-width="1" opacity="1" d="M 46.5 35 L 46.5 36 L 46.5 35 Z " /><path fill="rgb(0,30,107)" stroke="rgb(0,30,107)" stroke-width="1" opacity="1" d="M 26.5 37 Q 28 38 25.5 39 Q 24 38 26.5 37 Z " /><path fill="rgb(0,30,107)" stroke="rgb(0,30,107)" stroke-width="1" opacity="1" d="M 38.5 37 L 38.5 38 L 38.5 37 Z " /><path fill="rgb(0,30,107)" stroke="rgb(0,30,107)" stroke-width="1" opacity="1" d="M 47.5 37 L 47.5 38 L 47.5 37 Z " /><path fill="rgb(0,30,107)" stroke="rgb(0,30,107)" stroke-width="1" opacity="1" d="M 48.5 39 L 48.5 40 L 48.5 39 Z " /><path fill="rgb(0,30,107)" stroke="rgb(0,30,107)" stroke-width="1" opacity="1" d="M 24.5 40 L 24.5 41 L 24.5 40 Z " /><path fill="rgb(0,30,107)" stroke="rgb(0,30,107)" stroke-width="1" opacity="1" d="M 40.5 40 L 40.5 41 L 40.5 40 Z " /><path fill="rgb(0,30,107)" stroke="rgb(0,30,107)" stroke-width="1" opacity="1" d="M 49.5 41 L 49.5 42 L 49.5 41 Z " /><path fill="rgb(0,30,107)" stroke="rgb(0,30,107)" stroke-width="1" opacity="1" d="M 23.5 42 L 23.5 43 L 23.5 42 Z " /><path fill="rgb(0,30,107)" stroke="rgb(0,30,107)" stroke-width="1" opacity="1" d="M 41.5 42 L 41.5 43 L 41.5 42 Z " /><path fill="rgb(0,30,107)" stroke="rgb(0,30,107)" stroke-width="1" opacity="1" d="M 50.5 43 L 50.5 44 L 50.5 43 Z " /><path fill="rgb(0,30,107)" stroke="rgb(0,30,107)" stroke-width="1" opacity="1" d="M 22.5 44 L 22.5 45 L 22.5 44 Z " /><path fill="rgb(0,30,107)" stroke="rgb(0,30,107)" stroke-width="1" opacity="1" d="M 42.5 44 L 42.5 45 L 42.5 44 Z " /><path fill="rgb(3,91,161)" stroke="rgb(3,91,161)" stroke-width="1" opacity="1" d="M 38.5 0 L 38.5 1 L 38.5 0 Z " /><path fill="rgb(3,91,161)" stroke="rgb(3,91,161)" stroke-width="1" opacity="1" d="M 37.5 2 L 37.5 3 L 37.5 2 Z " /><path fill="rgb(3,91,161)" stroke="rgb(3,91,161)" stroke-width="1" opacity="1" d="M 36.5 4 L 36.5 5 L 36.5 4 Z " /><path fill="rgb(3,91,161)" stroke="rgb(3,91,161)" stroke-width="1" opacity="1" d="M 35.5 6 L 35.5 7 L 35.5 6 Z " /><path fill="rgb(3,91,161)" stroke="rgb(3,91,161)" stroke-width="1" opacity="1" d="M 34.5 8 L 34.5 9 L 34.5 8 Z " /><path fill="rgb(3,91,161)" stroke="rgb(3,91,161)" stroke-width="1" opacity="1" d="M 33.5 10 Q 35 11 32.5 12 Q 31 11 33.5 10 Z " /><path fill="rgb(3,91,161)" stroke="rgb(3,91,161)" stroke-width="1" opacity="1" d="M 13.5 48 L 13.5 49 L 13.5 48 Z " /><path fill="rgb(3,91,161)" stroke="rgb(3,91,161)" stroke-width="1" opacity="1" d="M 12.5 50 L 12.5 51 L 12.5 50 Z " /><path fill="rgb(3,91,161)" stroke="rgb(3,91,161)" stroke-width="1" opacity="1" d="M 11.5 52 L 11.5 53 L 11.5 52 Z " /><path fill="rgb(3,91,161)" stroke="rgb(3,91,161)" stroke-width="1" opacity="1" d="M 9.5 55 L 9.5 56 L 9.5 55 Z " /><path fill="rgb(3,91,161)" stroke="rgb(3,91,161)" stroke-width="1" opacity="1" d="M 8.5 57 L 8.5 58 L 8.5 57 Z " /><path fill="rgb(3,91,161)" stroke="rgb(3,91,161)" stroke-width="1" opacity="1" d="M 7.5 59 L 7.5 60 L 7.5 59 Z " /><path fill="rgb(3,91,161)" stroke="rgb(3,91,161)" stroke-width="1" opacity="1" d="M 6.5 61 L 6.5 62 L 6.5 61 Z " /><path fill="rgb(3,91,161)" stroke="rgb(3,91,161)" stroke-width="1" opacity="1" d="M 5.5 63 L 5.5 64 L 5.5 63 Z " /><path fill="rgb(50,102,155)" stroke="rgb(50,102,155)" stroke-width="1" opacity="1" d="M 34.5 14 L 34.5 15 L 34.5 14 Z " /><path fill="rgb(50,102,155)" stroke="rgb(50,102,155)" stroke-width="1" opacity="1" d="M 35.5 16 L 35.5 17 L 35.5 16 Z " /><path fill="rgb(50,102,155)" stroke="rgb(50,102,155)" stroke-width="1" opacity="1" d="M 36.5 18 L 36.5 19 L 36.5 18 Z " /><path fill="rgb(50,102,155)" stroke="rgb(50,102,155)" stroke-width="1" opacity="1" d="M 42.5 29 L 42.5 30 L 42.5 29 Z " /><path fill="rgb(50,102,155)" stroke="rgb(50,102,155)" stroke-width="1" opacity="1" d="M 43.5 31 L 43.5 32 L 43.5 31 Z " /><path fill="rgb(50,102,155)" stroke="rgb(50,102,155)" stroke-width="1" opacity="1" d="M 27.5 33 L 27.5 34 L 27.5 33 Z " /><path fill="rgb(50,102,155)" stroke="rgb(50,102,155)" stroke-width="1" opacity="1" d="M 44.5 33 L 44.5 34 L 44.5 33 Z " /><path fill="rgb(50,102,155)" stroke="rgb(50,102,155)" stroke-width="1" opacity="1" d="M 26.5 35 L 26.5 36 L 26.5 35 Z " /><path fill="rgb(50,102,155)" stroke="rgb(50,102,155)" stroke-width="1" opacity="1" d="M 38.5 35 L 38.5 36 L 38.5 35 Z " /><path fill="rgb(50,102,155)" stroke="rgb(50,102,155)" stroke-width="1" opacity="1" d="M 25.5 37 L 25.5 38 L 25.5 37 Z " /><path fill="rgb(50,102,155)" stroke="rgb(50,102,155)" stroke-width="1" opacity="1" d="M 39.5 37 L 39.5 38 L 39.5 37 Z " /><path fill="rgb(50,102,155)" stroke="rgb(50,102,155)" stroke-width="1" opacity="1" d="M 24.5 39 L 24.5 40 L 24.5 39 Z " /><path fill="rgb(50,102,155)" stroke="rgb(50,102,155)" stroke-width="1" opacity="1" d="M 40.5 39 L 40.5 40 L 40.5 39 Z " /><path fill="rgb(50,102,155)" stroke="rgb(50,102,155)" stroke-width="1" opacity="1" d="M 41.5 41 L 41.5 42 L 41.5 41 Z " /><path fill="rgb(50,102,155)" stroke="rgb(50,102,155)" stroke-width="1" opacity="1" d="M 49.5 42 L 49.5 43 L 49.5 42 Z " /><path fill="rgb(50,102,155)" stroke="rgb(50,102,155)" stroke-width="1" opacity="1" d="M 50.5 44 L 50.5 45 L 50.5 44 Z " /><path fill="rgb(50,102,155)" stroke="rgb(50,102,155)" stroke-width="1" opacity="1" d="M 14.5 46 L 20 46.5 L 14.5 47 L 14.5 46 Z " /><path fill="rgb(50,102,155)" stroke="rgb(50,102,155)" stroke-width="1" opacity="1" d="M 45.5 46 L 51 46.5 L 45.5 47 L 45.5 46 Z " /><path fill="rgb(0,92,176)" stroke="rgb(0,92,176)" stroke-width="1" opacity="1" d="M 30.5 12 L 31 13.5 L 13.5 46 L 13 44.5 L 30.5 12 Z " /><path fill="rgb(0,92,176)" stroke="rgb(0,92,176)" stroke-width="1" opacity="1" d="M 12.5 49 L 12.5 50 L 12.5 49 Z " /><path fill="rgb(0,92,176)" stroke="rgb(0,92,176)" stroke-width="1" opacity="1" d="M 11.5 51 L 11.5 52 L 11.5 51 Z " /><path fill="rgb(0,92,176)" stroke="rgb(0,92,176)" stroke-width="1" opacity="1" d="M 10.5 53 L 10.5 54 L 10.5 53 Z " /><path fill="rgb(231,241,248)" stroke="rgb(231,241,248)" stroke-width="1" opacity="1" d="M 28.5 19 L 28.5 20 L 28.5 19 Z " /><path fill="rgb(231,241,248)" stroke="rgb(231,241,248)" stroke-width="1" opacity="1" d="M 27.5 21 L 27.5 22 L 27.5 21 Z " /><path fill="rgb(231,241,248)" stroke="rgb(231,241,248)" stroke-width="1" opacity="1" d="M 37.5 21 L 37.5 22 L 37.5 21 Z " /><path fill="rgb(231,241,248)" stroke="rgb(231,241,248)" stroke-width="1" opacity="1" d="M 26.5 23 L 26.5 24 L 26.5 23 Z " /><path fill="rgb(231,241,248)" stroke="rgb(231,241,248)" stroke-width="1" opacity="1" d="M 38.5 23 L 38.5 24 L 38.5 23 Z " /><path fill="rgb(231,241,248)" stroke="rgb(231,241,248)" stroke-width="1" opacity="1" d="M 31.5 24 L 31.5 25 L 31.5 24 Z " /><path fill="rgb(231,241,248)" stroke="rgb(231,241,248)" stroke-width="1" opacity="1" d="M 33.5 24 L 33.5 25 L 33.5 24 Z " /><path fill="rgb(231,241,248)" stroke="rgb(231,241,248)" stroke-width="1" opacity="1" d="M 25.5 25 L 25.5 26 L 25.5 25 Z " /><path fill="rgb(231,241,248)" stroke="rgb(231,241,248)" stroke-width="1" opacity="1" d="M 39.5 25 L 39.5 26 L 39.5 25 Z " /><path fill="rgb(231,241,248)" stroke="rgb(231,241,248)" stroke-width="1" opacity="1" d="M 30.5 26 L 30.5 27 L 30.5 26 Z " /><path fill="rgb(231,241,248)" stroke="rgb(231,241,248)" stroke-width="1" opacity="1" d="M 34.5 26 L 34.5 27 L 34.5 26 Z " /><path fill="rgb(231,241,248)" stroke="rgb(231,241,248)" stroke-width="1" opacity="1" d="M 29.5 28 L 29.5 29 L 29.5 28 Z " /><path fill="rgb(231,241,248)" stroke="rgb(231,241,248)" stroke-width="1" opacity="1" d="M 35.5 28 L 35.5 29 L 35.5 28 Z " /><path fill="rgb(231,241,248)" stroke="rgb(231,241,248)" stroke-width="1" opacity="1" d="M 28.5 30 L 28.5 31 L 28.5 30 Z " /><path fill="rgb(231,241,248)" stroke="rgb(231,241,248)" stroke-width="1" opacity="1" d="M 36.5 30 L 36.5 31 L 36.5 30 Z " /><path fill="rgb(231,241,248)" stroke="rgb(231,241,248)" stroke-width="1" opacity="1" d="M 21.5 32 L 21.5 33 L 21.5 32 Z " /><path fill="rgb(231,241,248)" stroke="rgb(231,241,248)" stroke-width="1" opacity="1" d="M 37.5 32 L 37.5 33 L 37.5 32 Z " /><path fill="rgb(231,241,248)" stroke="rgb(231,241,248)" stroke-width="1" opacity="1" d="M 20.5 34 L 20.5 35 L 20.5 34 Z " /><path fill="rgb(231,241,248)" stroke="rgb(231,241,248)" stroke-width="1" opacity="1" d="M 19.5 36 L 19.5 37 L 19.5 36 Z " /><path fill="rgb(231,241,248)" stroke="rgb(231,241,248)" stroke-width="1" opacity="1" d="M 45.5 36 L 45.5 37 L 45.5 36 Z " /><path fill="rgb(231,241,248)" stroke="rgb(231,241,248)" stroke-width="1" opacity="1" d="M 18.5 38 L 18.5 39 L 18.5 38 Z " /><path fill="rgb(231,241,248)" stroke="rgb(231,241,248)" stroke-width="1" opacity="1" d="M 46.5 38 L 46.5 39 L 46.5 38 Z " /><path fill="rgb(231,241,248)" stroke="rgb(231,241,248)" stroke-width="1" opacity="1" d="M 47.5 40 L 47.5 41 L 47.5 40 Z " /><path fill="rgb(231,241,248)" stroke="rgb(231,241,248)" stroke-width="1" opacity="1" d="M 21.5 43 L 21.5 44 L 21.5 43 Z " /><path fill="rgb(231,241,248)" stroke="rgb(231,241,248)" stroke-width="1" opacity="1" d="M 20.5 45 L 20.5 46 L 20.5 45 Z " /><path fill="rgb(231,241,248)" stroke="rgb(231,241,248)" stroke-width="1" opacity="1" d="M 44.5 45 L 44.5 46 L 44.5 45 Z " /><path fill="rgb(103,147,191)" stroke="rgb(103,147,191)" stroke-width="1" opacity="1" d="M 33.5 13 L 33.5 14 L 33.5 13 Z " /><path fill="rgb(103,147,191)" stroke="rgb(103,147,191)" stroke-width="1" opacity="1" d="M 29.5 16 L 29.5 17 L 29.5 16 Z " /><path fill="rgb(103,147,191)" stroke="rgb(103,147,191)" stroke-width="1" opacity="1" d="M 28.5 18 L 28.5 19 L 28.5 18 Z " /><path fill="rgb(103,147,191)" stroke="rgb(103,147,191)" stroke-width="1" opacity="1" d="M 27.5 20 L 27.5 21 L 27.5 20 Z " /><path fill="rgb(103,147,191)" stroke="rgb(103,147,191)" stroke-width="1" opacity="1" d="M 37.5 20 L 37.5 21 L 37.5 20 Z " /><path fill="rgb(103,147,191)" stroke="rgb(103,147,191)" stroke-width="1" opacity="1" d="M 26.5 22 L 26.5 23 L 26.5 22 Z " /><path fill="rgb(103,147,191)" stroke="rgb(103,147,191)" stroke-width="1" opacity="1" d="M 38.5 22 L 38.5 23 L 38.5 22 Z " /><path fill="rgb(103,147,191)" stroke="rgb(103,147,191)" stroke-width="1" opacity="1" d="M 32.5 24 Q 35 25 33.5 26 L 32.5 25 L 31 25.5 L 32.5 24 Z " /><path fill="rgb(103,147,191)" stroke="rgb(103,147,191)" stroke-width="1" opacity="1" d="M 39.5 24 L 39.5 25 L 39.5 24 Z " /><path fill="rgb(103,147,191)" stroke="rgb(103,147,191)" stroke-width="1" opacity="1" d="M 40.5 26 L 40.5 27 L 40.5 26 Z " /><path fill="rgb(103,147,191)" stroke="rgb(103,147,191)" stroke-width="1" opacity="1" d="M 30.5 27 L 30.5 28 L 30.5 27 Z " /><path fill="rgb(103,147,191)" stroke="rgb(103,147,191)" stroke-width="1" opacity="1" d="M 34.5 27 L 34.5 28 L 34.5 27 Z " /><path fill="rgb(103,147,191)" stroke="rgb(103,147,191)" stroke-width="1" opacity="1" d="M 41.5 28 L 41.5 29 L 41.5 28 Z " /><path fill="rgb(103,147,191)" stroke="rgb(103,147,191)" stroke-width="1" opacity="1" d="M 22.5 29 L 22.5 30 L 22.5 29 Z " /><path fill="rgb(103,147,191)" stroke="rgb(103,147,191)" stroke-width="1" opacity="1" d="M 29.5 29 L 29.5 30 L 29.5 29 Z " /><path fill="rgb(103,147,191)" stroke="rgb(103,147,191)" stroke-width="1" opacity="1" d="M 35.5 29 L 35.5 30 L 35.5 29 Z " /><path fill="rgb(103,147,191)" stroke="rgb(103,147,191)" stroke-width="1" opacity="1" d="M 21.5 31 L 21.5 32 L 21.5 31 Z " /><path fill="rgb(103,147,191)" stroke="rgb(103,147,191)" stroke-width="1" opacity="1" d="M 28.5 31 L 28.5 32 L 28.5 31 Z " /><path fill="rgb(103,147,191)" stroke="rgb(103,147,191)" stroke-width="1" opacity="1" d="M 36.5 31 L 36.5 32 L 36.5 31 Z " /><path fill="rgb(103,147,191)" stroke="rgb(103,147,191)" stroke-width="1" opacity="1" d="M 20.5 33 L 20.5 34 L 20.5 33 Z " /><path fill="rgb(103,147,191)" stroke="rgb(103,147,191)" stroke-width="1" opacity="1" d="M 37.5 33 L 37.5 34 L 37.5 33 Z " /><path fill="rgb(103,147,191)" stroke="rgb(103,147,191)" stroke-width="1" opacity="1" d="M 19.5 35 L 19.5 36 L 19.5 35 Z " /><path fill="rgb(103,147,191)" stroke="rgb(103,147,191)" stroke-width="1" opacity="1" d="M 45.5 35 L 45.5 36 L 45.5 35 Z " /><path fill="rgb(103,147,191)" stroke="rgb(103,147,191)" stroke-width="1" opacity="1" d="M 46.5 37 L 46.5 38 L 46.5 37 Z " /><path fill="rgb(103,147,191)" stroke="rgb(103,147,191)" stroke-width="1" opacity="1" d="M 47.5 39 L 47.5 40 L 47.5 39 Z " /><path fill="rgb(103,147,191)" stroke="rgb(103,147,191)" stroke-width="1" opacity="1" d="M 48.5 41 L 48.5 42 L 48.5 41 Z " /><path fill="rgb(103,147,191)" stroke="rgb(103,147,191)" stroke-width="1" opacity="1" d="M 22.5 42 L 22.5 43 L 22.5 42 Z " /><path fill="rgb(103,147,191)" stroke="rgb(103,147,191)" stroke-width="1" opacity="1" d="M 42.5 42 L 42.5 43 L 42.5 42 Z " /><path fill="rgb(103,147,191)" stroke="rgb(103,147,191)" stroke-width="1" opacity="1" d="M 14.5 44 L 14.5 45 L 14.5 44 Z " /><path fill="rgb(103,147,191)" stroke="rgb(103,147,191)" stroke-width="1" opacity="1" d="M 21.5 44 L 21.5 45 L 21.5 44 Z " /><path fill="rgb(103,147,191)" stroke="rgb(103,147,191)" stroke-width="1" opacity="1" d="M 43.5 44 L 43.5 45 L 43.5 44 Z " /></svg>