<svg width="128" height="128" version="1.1" xmlns="http://www.w3.org/2000/svg" desc="Created with imagetracer.js version 1.2.6" ><path fill="rgb(0,0,0)" stroke="rgb(0,0,0)" stroke-width="1" opacity="1" d="M 0 0 L 128 0 L 128 128 L 0 128 L 0 0 Z M 32 20 L 32 108 L 33 106 L 34 108 L 37 105 L 62 105 L 64 104 L 63 106 L 66 107 L 70 105 L 71 108 Q 73 106 72 103 L 75 102 L 78 103 L 78 101 L 81 103 L 82 102 L 82 100 L 85 102 Q 86 100 87 102 L 87 101 Q 85 100 87 99 Q 86 96 90 97 L 91 96 L 92 97 Q 93 92 91 91 L 93 86 Q 94 88 97 87 Q 98 84 96 83 L 95 86 L 94 84 Q 96 83 94 82 L 97 80 L 97 77 L 96 79 L 94 77 Q 95 74 92 75 L 92 71 L 90 71 Q 92 70 92 67 L 91 67 L 90 66 Q 87 66 87 66 L 87 58 Q 88 55 90 57 L 90 56 Q 88 54 91 53 L 90 55 L 91 57 L 92 57 L 92 49 L 90 47 L 91 45 L 91 47 L 92 47 Q 93 42 91 43 L 91 42 L 92 42 L 92 38 L 89 38 L 92 37 L 92 31 L 86 31 L 85 29 L 87 29 L 87 25 L 81 25 L 80 26 L 78 25 L 75 26 L 74 25 Q 71 26 72 23 L 69 23 L 69 21 L 62 21 L 61 23 L 37 23 L 34 20 L 33 22 L 32 20 Z M 36 20 L 36 21 L 36 20 Z M 97 71 L 96 73 L 97 73 L 97 71 Z M 97 75 L 97 76 L 97 75 Z M 97 81 L 96 83 L 97 83 L 97 81 Z M 83 102 L 83 103 L 83 102 Z M 62 106 L 62 107 L 63 107 L 62 106 Z M 36 107 L 36 108 L 36 107 Z M 64 107 L 64 108 L 65 108 L 64 107 Z M 68 107 L 68 108 L 69 108 L 68 107 Z " /><path fill="rgb(0,0,0)" stroke="rgb(0,0,0)" stroke-width="1" opacity="1" d="M 63.5 22 L 65 22.5 L 62.5 24 Q 61 23 63.5 22 Z " /><path fill="rgb(0,0,0)" stroke="rgb(0,0,0)" stroke-width="1" opacity="1" d="M 67.5 23 L 68 25 L 66 24.5 L 67.5 23 Z " /><path fill="rgb(0,0,0)" stroke="rgb(0,0,0)" stroke-width="1" opacity="1" d="M 33.5 24 L 35 26.5 L 35 101.5 L 33.5 104 L 33.5 24 Z " /><path fill="rgb(0,0,0)" stroke="rgb(0,0,0)" stroke-width="1" opacity="1" d="M 81.5 26 L 84 27.5 L 83.5 29 L 83 27 L 81 26.5 L 81.5 26 Z " /><path fill="rgb(0,0,0)" stroke="rgb(0,0,0)" stroke-width="1" opacity="1" d="M 85.5 26 L 85.5 27 L 85.5 26 Z " /><path fill="rgb(0,0,0)" stroke="rgb(0,0,0)" stroke-width="1" opacity="1" d="M 83.5 30 L 83.5 31 L 83.5 30 Z " /><path fill="rgb(0,0,0)" stroke="rgb(0,0,0)" stroke-width="1" opacity="1" d="M 87.5 33 L 87.5 34 L 87.5 33 Z " /><path fill="rgb(0,0,0)" stroke="rgb(0,0,0)" stroke-width="1" opacity="1" d="M 90.5 33 L 91 36 L 89 35.5 L 90.5 33 Z " /><path fill="rgb(0,0,0)" stroke="rgb(0,0,0)" stroke-width="1" opacity="1" d="M 51 38 L 60.5 38 L 61.5 39 L 63 38.5 L 61 40.5 L 61.5 41 Q 64.75 41.75 65.5 40 L 73 42.5 L 71 43.5 L 72 44.5 L 71 47.5 L 72 50.5 L 70.5 52 Q 69.5 50 68.5 52 Q 65.5 51.5 65 53.5 L 65.5 55 L 63.5 54 L 63 56 L 49 56 L 49 40.5 L 51 40.5 L 51 38 Z M 64 51 L 64 52 L 65 52 L 64 51 Z M 62 52 L 62 53 L 62 52 Z " /><path fill="rgb(0,0,0)" stroke="rgb(0,0,0)" stroke-width="1" opacity="1" d="M 73.5 46 L 75 46.5 L 73.5 47 L 73.5 46 Z " /><path fill="rgb(0,0,0)" stroke="rgb(0,0,0)" stroke-width="1" opacity="1" d="M 74.5 49 Q 76 50 73.5 51 Q 72 50 74.5 49 Z " /><path fill="rgb(0,0,0)" stroke="rgb(0,0,0)" stroke-width="1" opacity="1" d="M 90.5 51 L 90.5 52 L 90.5 51 Z " /><path fill="rgb(0,0,0)" stroke="rgb(0,0,0)" stroke-width="1" opacity="1" d="M 69.5 53 L 71 53.5 L 69.5 54 L 69.5 53 Z " /><path fill="rgb(0,0,0)" stroke="rgb(0,0,0)" stroke-width="1" opacity="1" d="M 83.5 58 L 83.5 59 L 83.5 58 Z " /><path fill="rgb(0,0,0)" stroke="rgb(0,0,0)" stroke-width="1" opacity="1" d="M 85.5 59 L 85 60.5 L 86 61.5 L 84.5 63 L 83 62.5 L 85 61.5 Q 82.75 60.25 85.5 59 Z " /><path fill="rgb(0,0,0)" stroke="rgb(0,0,0)" stroke-width="1" opacity="1" d="M 80.5 60 L 82 60.5 L 80.5 61 L 80.5 60 Z " /><path fill="rgb(0,0,0)" stroke="rgb(0,0,0)" stroke-width="1" opacity="1" d="M 81.5 62 L 81.5 63 L 81.5 62 Z " /><path fill="rgb(0,0,0)" stroke="rgb(0,0,0)" stroke-width="1" opacity="1" d="M 50.5 69 L 65 69.5 L 50.5 70 L 50.5 69 Z " /><path fill="rgb(0,0,0)" stroke="rgb(0,0,0)" stroke-width="1" opacity="1" d="M 67.5 69 L 67.5 70 L 67.5 69 Z " /><path fill="rgb(0,0,0)" stroke="rgb(0,0,0)" stroke-width="1" opacity="1" d="M 49.5 71 Q 50.5 73 51.5 71 L 62.5 71 L 64.5 72 L 67.5 71 Q 68.5 73 69.5 71 Q 71.75 70.25 71 72.5 Q 73 73.5 71 74.5 L 72.5 77 L 74.5 76 L 75.5 77 L 77 76.5 L 76.5 83 L 75.5 82 L 71 82 Q 70 85.37 72 86.5 L 68.5 88 L 67 87.5 L 66.5 89 L 64.5 88 L 64.5 90 Q 63.5 88 62.5 90 L 51.5 90 Q 50.75 90.25 51 87.5 L 49 87.5 L 49.5 71 Z M 61 87 L 61 89 L 64 88 L 61 87 Z " /><path fill="rgb(0,0,0)" stroke="rgb(0,0,0)" stroke-width="1" opacity="1" d="M 74.5 74 L 74.5 75 L 74.5 74 Z " /><path fill="rgb(0,0,0)" stroke="rgb(0,0,0)" stroke-width="1" opacity="1" d="M 76.5 74 L 76.5 75 L 76.5 74 Z " /><path fill="rgb(0,0,0)" stroke="rgb(0,0,0)" stroke-width="1" opacity="1" d="M 93.5 79 L 93.5 80 L 93.5 79 Z " /><path fill="rgb(0,0,0)" stroke="rgb(0,0,0)" stroke-width="1" opacity="1" d="M 76.5 84 L 77 85.5 L 76 85.5 L 76.5 84 Z " /><path fill="rgb(0,0,0)" stroke="rgb(0,0,0)" stroke-width="1" opacity="1" d="M 73.5 85 L 73.5 86 L 73.5 85 Z " /><path fill="rgb(0,0,0)" stroke="rgb(0,0,0)" stroke-width="1" opacity="1" d="M 90.5 92 L 90.5 93 L 90.5 92 Z " /><path fill="rgb(0,0,0)" stroke="rgb(0,0,0)" stroke-width="1" opacity="1" d="M 90.5 94 L 90.5 95 L 90.5 94 Z " /><path fill="rgb(0,0,0)" stroke="rgb(0,0,0)" stroke-width="1" opacity="1" d="M 85.5 97 L 85.5 98 L 85.5 97 Z " /><path fill="rgb(0,0,0)" stroke="rgb(0,0,0)" stroke-width="1" opacity="1" d="M 84.5 99 L 84.5 100 L 84.5 99 Z " /><path fill="rgb(0,0,0)" stroke="rgb(0,0,0)" stroke-width="1" opacity="1" d="M 67.5 104 L 67.5 105 L 67.5 104 Z " /><path fill="rgb(254,254,254)" stroke="rgb(254,254,254)" stroke-width="1" opacity="1" d="M 35.5 26 L 36 101.5 L 35 101.5 L 35.5 26 Z " /><path fill="rgb(254,254,254)" stroke="rgb(254,254,254)" stroke-width="1" opacity="1" d="M 67.5 26 L 67.5 27 L 67.5 26 Z " /><path fill="rgb(254,254,254)" stroke="rgb(254,254,254)" stroke-width="1" opacity="1" d="M 73.5 26 L 73.5 28 L 75.5 27 Q 81.58 28.92 85 33.5 L 84 34.5 L 84.5 36 L 83.5 35 L 82 35.5 L 83 33.5 L 82 31 L 79.5 30 L 78.5 31 L 77.5 30 L 76.5 31 L 75.5 30 L 72.5 31 L 69.5 30 L 68 30.5 L 68.5 29 L 67 28.5 L 73.5 26 Z M 70 28 L 70 29 L 73 29 L 70 28 Z M 77 29 L 77 30 L 77 29 Z " /><path fill="rgb(254,254,254)" stroke="rgb(254,254,254)" stroke-width="1" opacity="1" d="M 86.5 35 L 86.5 36 L 86.5 35 Z " /><path fill="rgb(254,254,254)" stroke="rgb(254,254,254)" stroke-width="1" opacity="1" d="M 46 36 L 64 36.5 L 48.5 37 L 46 38 L 46 36 Z " /><path fill="rgb(254,254,254)" stroke="rgb(254,254,254)" stroke-width="1" opacity="1" d="M 67.5 36 Q 68.5 38 69.5 36 L 72.5 37 L 74.5 36 L 75.5 37 L 77 36.5 L 76 40.5 L 77 41.5 L 76 42.5 L 76.5 44 Q 74.25 44.75 75 42.5 Q 72.25 41.42 73 38 Q 70.42 38.75 69.5 37 L 68.5 38 Q 66 37 67.5 36 Z M 74 37 L 74 38 L 74 37 Z M 75 40 L 75 41 L 75 40 Z " /><path fill="rgb(254,254,254)" stroke="rgb(254,254,254)" stroke-width="1" opacity="1" d="M 87.5 38 L 89 41.5 Q 88 43 87 40.5 L 87.5 38 Z " /><path fill="rgb(254,254,254)" stroke="rgb(254,254,254)" stroke-width="1" opacity="1" d="M 46 39 Q 48.67 37.88 48 40.5 L 47 41.5 L 47 55.5 L 48.5 60 L 49 57 L 62.5 57 L 63.5 58 L 65 57.5 L 66 59.5 L 64.5 59 L 62.5 58 L 61.5 59 L 50 59 Q 51.25 62 47.5 61 L 46 61.5 L 47 58.5 L 46 56.5 L 46 39 Z " /><path fill="rgb(254,254,254)" stroke="rgb(254,254,254)" stroke-width="1" opacity="1" d="M 87 43 Q 90 42 89 45 Q 86 46 87 43 Z " /><path fill="rgb(254,254,254)" stroke="rgb(254,254,254)" stroke-width="1" opacity="1" d="M 76.5 45 L 76.5 46 L 76.5 45 Z " /><path fill="rgb(254,254,254)" stroke="rgb(254,254,254)" stroke-width="1" opacity="1" d="M 88.5 47 L 88.5 48 L 88.5 47 Z " /><path fill="rgb(254,254,254)" stroke="rgb(254,254,254)" stroke-width="1" opacity="1" d="M 76.5 49 L 76 50.5 L 77 52.5 L 76 54.5 L 78.5 57 L 81.5 58 L 82 54 Q 84.67 55.13 84 52.5 L 82 52.5 Q 82.5 50.5 85.5 51 L 85 52.5 L 85.5 54 L 87 53.5 L 81.5 59 L 80.5 58 L 79 58.5 L 79.5 60 L 78 59.5 Q 78.75 61.75 76.5 61 Q 75 62 77.5 63 Q 81.25 62 80 65 L 76.5 66 L 75 65.5 L 75 67 Q 77.67 65.88 77 68.5 L 76 69.5 L 79.5 73 L 81.5 72 L 81.5 75 L 80 74.5 L 79.5 76 L 79 73 L 72 69.5 L 74 68.5 L 72.5 66 L 71 66.5 Q 70.25 64.25 72.5 65 L 72 63.5 L 73.5 61 L 74.5 62 L 77 59.5 L 75.5 59 L 74 59.5 L 78 57.5 L 76.5 56 Q 75.5 58 74.5 56 Q 71.88 56.83 73 53.5 L 76.5 49 Z M 75 53 L 74 55 L 75 55 L 75 53 Z M 85 54 L 85 55 L 85 54 Z M 74 62 L 73 64 Q 74 66 75 65 L 74 62 Z M 76 62 L 76 63 L 76 62 Z M 77 64 L 77 65 L 78 65 L 77 64 Z M 74 65 L 74 66 L 74 65 Z M 75 67 L 75 68 L 75 67 Z M 75 69 L 75 70 L 75 69 Z " /><path fill="rgb(254,254,254)" stroke="rgb(254,254,254)" stroke-width="1" opacity="1" d="M 87.5 50 L 87.5 51 L 87.5 50 Z " /><path fill="rgb(254,254,254)" stroke="rgb(254,254,254)" stroke-width="1" opacity="1" d="M 70.5 55 L 72 55.5 L 69.5 57 Q 68 56 70.5 55 Z " /><path fill="rgb(254,254,254)" stroke="rgb(254,254,254)" stroke-width="1" opacity="1" d="M 81 64 Q 85 64.25 87 67.5 L 87 69 Q 89.67 67.88 89 70.5 L 90 73.5 L 89.5 75 L 91 75.5 L 87.5 77 L 87.5 76 L 89 75.5 L 87 75 Q 87.56 71.77 85.5 70 L 84.5 72 L 82 71 Q 81 67.63 83 66.5 L 81 66 L 81 64 Z M 85 66 L 83 68 L 84 70 L 85 68 L 85 66 Z M 86 68 L 86 69 L 86 68 Z M 87 69 L 87 70 L 87 69 Z M 88 70 L 88 71 L 88 70 Z " /><path fill="rgb(254,254,254)" stroke="rgb(254,254,254)" stroke-width="1" opacity="1" d="M 48.5 66 L 49 68.5 L 47 70.5 Q 49 71.5 47 72.5 L 47 86.5 L 48 89 L 46 88.5 L 46 70.5 Q 48 69.5 46 68.5 L 46.5 67 L 48 67.5 L 48.5 66 Z " /><path fill="rgb(254,254,254)" stroke="rgb(254,254,254)" stroke-width="1" opacity="1" d="M 63.5 66 L 63.5 67 L 63.5 66 Z " /><path fill="rgb(254,254,254)" stroke="rgb(254,254,254)" stroke-width="1" opacity="1" d="M 50.5 67 L 50.5 68 L 50.5 67 Z " /><path fill="rgb(254,254,254)" stroke="rgb(254,254,254)" stroke-width="1" opacity="1" d="M 66.5 67 L 71 68.5 L 69.5 69 L 66.5 68 L 66.5 67 Z " /><path fill="rgb(254,254,254)" stroke="rgb(254,254,254)" stroke-width="1" opacity="1" d="M 81.5 76 L 82 78.5 Q 80 79.5 82 80.5 L 80 82.5 L 81 83.5 L 82 85.5 Q 80.81 88 77 87 L 76 89.5 L 76.5 91 L 75 90.5 Q 75.75 92.75 73.5 92 L 71.5 91 Q 70.25 93.25 69 90.5 L 70.5 91 L 71.5 90 L 73.5 89 L 75 89.5 L 77.5 86 L 81 85.5 L 78 83.5 Q 81.5 82 79 80.5 L 79.5 77 L 80.5 79 L 81.5 76 Z M 81 80 L 81 81 L 81 80 Z M 80 83 L 80 84 L 80 83 Z M 74 90 L 74 91 L 74 90 Z " /><path fill="rgb(254,254,254)" stroke="rgb(254,254,254)" stroke-width="1" opacity="1" d="M 91.5 77 L 91.5 78 L 91.5 77 Z " /><path fill="rgb(254,254,254)" stroke="rgb(254,254,254)" stroke-width="1" opacity="1" d="M 87.5 80 Q 89.75 79.25 89 81.5 L 88.5 82 Q 86 81 87.5 80 Z " /><path fill="rgb(254,254,254)" stroke="rgb(254,254,254)" stroke-width="1" opacity="1" d="M 90.5 82 L 90.5 84 L 92 84.5 Q 91 87 90 85.5 L 89 83.5 L 90.5 82 Z " /><path fill="rgb(254,254,254)" stroke="rgb(254,254,254)" stroke-width="1" opacity="1" d="M 88.5 85 L 88.5 86 L 88.5 85 Z " /><path fill="rgb(254,254,254)" stroke="rgb(254,254,254)" stroke-width="1" opacity="1" d="M 87.5 87 Q 91.87 85.5 91 88.5 L 90 91 L 88 91.5 Q 90.25 92.75 87.5 94 L 79.5 100 L 78 100 Q 79.25 97 75.5 98 Q 73 99 74.5 100 L 76.5 99 L 77 101 L 71 102 L 70.5 100 L 68.5 101 L 69 99.5 L 67.5 98 L 66 97.5 L 69.5 97 L 71.5 98 L 73 97.5 L 72.5 99 L 75.5 97 L 77.5 97 Q 78.5 99 79.5 97 Q 83.67 98.31 82 93.5 Q 82.75 91.25 86.5 92 L 89 89.5 Q 89.75 87.25 87.5 88 L 87.5 87 Z M 88 92 L 88 93 L 88 92 Z M 85 93 L 85 94 L 86 94 L 85 93 Z M 84 94 L 84 95 L 84 94 Z M 70 98 L 70 99 L 70 98 Z " /><path fill="rgb(254,254,254)" stroke="rgb(254,254,254)" stroke-width="1" opacity="1" d="M 46 90 L 48.5 91 L 67 91.5 L 46 92 L 46 90 Z " /><path fill="rgb(255,255,255)" stroke="rgb(255,255,255)" stroke-width="1" opacity="1" d="M 36 26 L 66.5 26 L 67.5 27 Q 68.5 25 72.5 26 L 75 27.5 L 69 29.5 L 72.5 31 Q 73.5 29 74.5 31 L 76.5 29 L 78.5 31 Q 79.5 29 80.5 31 Q 82.75 30.25 82 32.5 Q 84 33.5 82 34.5 L 82.5 36 Q 83.5 33.5 86 34 L 87 36.5 L 87 40.5 L 89 42.5 L 87 43 L 87 45 Q 89.67 43.88 89 46.5 L 87 52.5 L 84.5 55 L 82 54 Q 83 57.81 80.5 59 L 78.5 60 Q 77 59 79.5 58 L 81 57.5 L 78.5 57 L 75 58.5 L 77 59.5 L 75 61.5 Q 77 62.5 75 63.5 L 75.5 65 L 77.5 64 L 79.5 65 L 81 64.5 Q 80.25 66.75 82.5 66 L 83.5 67 L 85 66.5 L 88 70.5 L 86 70.5 L 87 75 Q 89.5 75.5 90.5 73 L 91 75 L 89 75.5 L 91 76 Q 92.75 78.54 92 84 Q 89.33 82.88 90 85.5 L 90.5 87 L 87 87.5 L 89 88 L 88 90.5 Q 90.25 91.75 87.5 93 Q 86.75 91.25 83.5 92 Q 81.25 92.75 82 96.5 L 82.5 98 L 79.5 97 L 77.5 100 Q 76.5 98 75.5 100 L 70.5 98 L 68 100.5 L 68.5 101 L 70.5 100 L 71 102 L 36 102 L 36 26 Z M 70 27 L 70 28 L 73 28 L 70 27 Z M 68 28 L 68 29 L 69 29 L 68 28 Z M 69 30 L 69 31 L 69 30 Z M 77 30 L 77 31 L 77 30 Z M 85 35 L 85 36 L 85 35 Z M 46 36 L 46 38 L 48 39 L 46 39 L 46 57 L 47 59 Q 45 60 48 61 Q 51 62 50 59 L 62 59 L 64 57 L 64 59 Q 66 60 65 57 Q 70 58 73 55 L 75 56 Q 76 58 77 56 L 76 54 Q 78 53 76 52 L 77 50 L 76 47 L 77 44 L 76 43 L 77 42 L 76 41 L 77 37 L 76 37 L 74 36 L 74 38 L 73 39 L 71 39 L 73 38 L 70 36 L 70 38 L 69 37 L 68 38 L 64 36 L 46 36 Z M 68 36 L 68 37 L 68 36 Z M 84 51 L 83 52 L 85 54 L 86 52 L 84 51 Z M 83 52 L 83 53 L 83 52 Z M 78 56 L 78 57 L 78 56 Z M 66 59 L 66 60 L 66 59 Z M 75 59 L 75 60 L 75 59 Z M 47 61 L 47 62 L 47 61 Z M 74 61 L 74 62 L 74 61 Z M 73 62 L 72 64 L 73 64 L 73 62 Z M 75 62 L 75 63 L 75 62 Z M 74 64 L 74 65 L 74 64 Z M 71 65 L 71 67 Q 72 68 73 66 L 71 65 Z M 75 65 L 73 68 Q 74 69 75 67 L 75 65 Z M 77 65 L 77 66 L 78 66 L 77 65 Z M 49 66 L 48 68 L 46 68 L 48 71 L 46 71 L 46 89 L 48 89 L 48 90 Q 45 89 46 92 L 67 92 L 71 90 L 73 91 L 75 89 Q 76 91 77 89 Q 76 86 81 87 L 81 86 Q 77 87 78 85 Q 81 83 79 82 L 81 80 L 79 77 L 82 73 L 81 72 L 79 75 L 78 74 L 79 73 L 76 70 L 77 69 Q 78 66 76 67 L 74 69 L 75 70 L 69 67 L 66 68 L 52 68 Q 51 66 50 68 L 49 66 Z M 64 66 L 64 67 L 64 66 Z M 83 67 L 82 71 L 85 72 L 85 71 Q 87 69 85 68 L 84 70 L 83 67 Z M 82 74 L 82 75 L 82 74 Z M 82 76 L 81 79 L 82 79 L 82 76 Z M 88 76 L 88 77 L 89 77 L 88 76 Z M 82 80 L 82 81 L 82 80 Z M 88 80 Q 86 81 89 82 L 89 82 Q 90 79 88 80 Z M 81 81 L 81 82 L 81 81 Z M 91 82 L 91 83 L 91 82 Z M 81 83 L 79 85 L 81 85 L 81 83 Z M 90 83 L 90 84 L 90 83 Z M 82 85 L 82 86 L 82 85 Z M 89 85 L 89 86 L 89 85 Z M 75 90 L 73 92 L 75 92 L 75 90 Z M 77 90 L 77 91 L 77 90 Z M 71 91 L 71 92 L 71 91 Z M 88 91 L 88 92 L 88 91 Z M 67 97 Q 65 98 68 98 Q 69 100 70 98 L 67 97 Z M 73 97 L 73 98 L 73 97 Z M 76 97 L 76 98 L 78 98 L 76 97 Z M 75 98 L 75 99 L 75 98 Z " /><path fill="rgb(255,255,255)" stroke="rgb(255,255,255)" stroke-width="1" opacity="1" d="M 74.5 40 L 74.5 41 L 74.5 40 Z " /><path fill="rgb(255,255,255)" stroke="rgb(255,255,255)" stroke-width="1" opacity="1" d="M 47.5 41 L 48 55.5 L 47 55.5 L 47.5 41 Z " /><path fill="rgb(255,255,255)" stroke="rgb(255,255,255)" stroke-width="1" opacity="1" d="M 74.5 53 L 75 54.5 L 74 54.5 L 74.5 53 Z " /><path fill="rgb(255,255,255)" stroke="rgb(255,255,255)" stroke-width="1" opacity="1" d="M 48.5 57 L 49 59.5 L 48 59.5 L 48.5 57 Z " /><path fill="rgb(255,255,255)" stroke="rgb(255,255,255)" stroke-width="1" opacity="1" d="M 47.5 72 L 48 86.5 L 47 86.5 L 47.5 72 Z " /><path fill="rgb(255,255,255)" stroke="rgb(255,255,255)" stroke-width="1" opacity="1" d="M 84.5 93 L 87 94.5 Q 86 97 85 95.5 L 85.5 94 L 83.5 95 Q 82 94 84.5 93 Z " /><path fill="rgb(1,1,1)" stroke="rgb(1,1,1)" stroke-width="1" opacity="1" d="M 34.5 21 L 35 22.5 L 34 22.5 L 34.5 21 Z " /><path fill="rgb(1,1,1)" stroke="rgb(1,1,1)" stroke-width="1" opacity="1" d="M 61.5 21 Q 62.5 23.5 65 23 L 65 21 L 69 21 L 69 23 L 72 23 L 72 24.5 L 70.5 24 L 69.5 25 Q 67.25 25.75 68 23.5 L 67.5 23 L 65.5 25 L 64.5 24 L 62.5 25 L 36 25 L 36.5 23 L 60.5 23 L 61.5 21 Z M 63 23 L 63 24 L 63 23 Z " /><path fill="rgb(1,1,1)" stroke="rgb(1,1,1)" stroke-width="1" opacity="1" d="M 31.5 22 L 33 23.5 Q 31 24.5 33 25.5 L 33 102.5 L 32 103.5 Q 34.25 104.75 31.5 106 L 31.5 22 Z " /><path fill="rgb(1,1,1)" stroke="rgb(1,1,1)" stroke-width="1" opacity="1" d="M 34.5 25 L 34.5 26 L 34.5 25 Z " /><path fill="rgb(1,1,1)" stroke="rgb(1,1,1)" stroke-width="1" opacity="1" d="M 75.5 25 L 75.5 26 L 75.5 25 Z " /><path fill="rgb(1,1,1)" stroke="rgb(1,1,1)" stroke-width="1" opacity="1" d="M 80.5 25 L 85 25.5 L 84.5 27 L 86 27.5 L 84.5 28 Q 84 25.5 80.5 26 L 80.5 27 L 82 27.5 L 80.5 28 L 78 26.5 L 80.5 25 Z " /><path fill="rgb(1,1,1)" stroke="rgb(1,1,1)" stroke-width="1" opacity="1" d="M 84.5 29 L 85 30.5 L 84 30.5 L 84.5 29 Z " /><path fill="rgb(1,1,1)" stroke="rgb(1,1,1)" stroke-width="1" opacity="1" d="M 87 31 L 92 31 L 92 33 Q 89.5 32.5 88.5 35 L 87 31 Z " /><path fill="rgb(1,1,1)" stroke="rgb(1,1,1)" stroke-width="1" opacity="1" d="M 91.5 34 L 92 36.5 L 91 36.5 L 91.5 34 Z " /><path fill="rgb(1,1,1)" stroke="rgb(1,1,1)" stroke-width="1" opacity="1" d="M 89.5 36 L 89.5 37 L 89.5 36 Z " /><path fill="rgb(1,1,1)" stroke="rgb(1,1,1)" stroke-width="1" opacity="1" d="M 61.5 38 L 62.5 39 L 64 38.5 Q 65.25 42.25 61.5 41 L 61.5 38 Z " /><path fill="rgb(1,1,1)" stroke="rgb(1,1,1)" stroke-width="1" opacity="1" d="M 65.5 38 L 66.5 40 Q 67.5 38 68.5 40 L 70 40.5 L 68.5 41 Q 67.5 39 66.5 41 L 65 39.5 L 65.5 38 Z " /><path fill="rgb(1,1,1)" stroke="rgb(1,1,1)" stroke-width="1" opacity="1" d="M 50.5 39 L 51 40.5 L 50 40.5 L 50.5 39 Z " /><path fill="rgb(1,1,1)" stroke="rgb(1,1,1)" stroke-width="1" opacity="1" d="M 89.5 39 L 90.5 40 L 92 39.5 Q 93 43.25 90 42 L 89.5 39 Z " /><path fill="rgb(1,1,1)" stroke="rgb(1,1,1)" stroke-width="1" opacity="1" d="M 71.5 41 L 71.5 42 L 71.5 41 Z " /><path fill="rgb(1,1,1)" stroke="rgb(1,1,1)" stroke-width="1" opacity="1" d="M 73.5 42 Q 75 43 72.5 44 L 71 43.5 L 73.5 42 Z " /><path fill="rgb(1,1,1)" stroke="rgb(1,1,1)" stroke-width="1" opacity="1" d="M 90.5 43 Q 92.5 43.5 92 46.5 L 91 46.5 L 90.5 43 Z " /><path fill="rgb(1,1,1)" stroke="rgb(1,1,1)" stroke-width="1" opacity="1" d="M 71.5 45 L 73 45.5 L 71.5 46 L 71.5 45 Z " /><path fill="rgb(1,1,1)" stroke="rgb(1,1,1)" stroke-width="1" opacity="1" d="M 71 47 L 73 47.5 L 72 48.5 L 72.5 50 L 71 50 L 71 47 Z " /><path fill="rgb(1,1,1)" stroke="rgb(1,1,1)" stroke-width="1" opacity="1" d="M 91.5 48 L 92 53 L 89 52.5 L 91 51.5 L 89 49.5 L 89.5 49 L 91 49.5 L 91.5 48 Z " /><path fill="rgb(1,1,1)" stroke="rgb(1,1,1)" stroke-width="1" opacity="1" d="M 63.5 51 L 65 51.5 L 63.5 52 L 63.5 51 Z " /><path fill="rgb(1,1,1)" stroke="rgb(1,1,1)" stroke-width="1" opacity="1" d="M 72.5 51 L 72.5 52 L 72.5 51 Z " /><path fill="rgb(1,1,1)" stroke="rgb(1,1,1)" stroke-width="1" opacity="1" d="M 61.5 52 L 61.5 53 L 61.5 52 Z " /><path fill="rgb(1,1,1)" stroke="rgb(1,1,1)" stroke-width="1" opacity="1" d="M 69.5 52 L 69.5 53 L 69.5 52 Z " /><path fill="rgb(1,1,1)" stroke="rgb(1,1,1)" stroke-width="1" opacity="1" d="M 65.5 53 Q 67.75 52.25 67 54.5 L 66.5 55 Q 64 54 65.5 53 Z " /><path fill="rgb(1,1,1)" stroke="rgb(1,1,1)" stroke-width="1" opacity="1" d="M 63.5 54 Q 66 55 64.5 56 Q 61.71 56.67 63.5 54 Z " /><path fill="rgb(1,1,1)" stroke="rgb(1,1,1)" stroke-width="1" opacity="1" d="M 87.5 54 L 89 54.5 L 87.5 55 L 87.5 54 Z " /><path fill="rgb(1,1,1)" stroke="rgb(1,1,1)" stroke-width="1" opacity="1" d="M 91.5 54 L 91.5 55 L 91.5 54 Z " /><path fill="rgb(1,1,1)" stroke="rgb(1,1,1)" stroke-width="1" opacity="1" d="M 87.5 56 L 87.5 57 L 87.5 56 Z " /><path fill="rgb(1,1,1)" stroke="rgb(1,1,1)" stroke-width="1" opacity="1" d="M 89.5 56 L 89.5 57 L 89.5 56 Z " /><path fill="rgb(1,1,1)" stroke="rgb(1,1,1)" stroke-width="1" opacity="1" d="M 91.5 56 L 91.5 57 L 91.5 56 Z " /><path fill="rgb(1,1,1)" stroke="rgb(1,1,1)" stroke-width="1" opacity="1" d="M 85.5 57 L 85.5 58 L 85.5 57 Z " /><path fill="rgb(1,1,1)" stroke="rgb(1,1,1)" stroke-width="1" opacity="1" d="M 86.5 59 L 86.5 60 L 86.5 59 Z " /><path fill="rgb(1,1,1)" stroke="rgb(1,1,1)" stroke-width="1" opacity="1" d="M 80.5 61 L 80.5 62 L 80.5 61 Z " /><path fill="rgb(1,1,1)" stroke="rgb(1,1,1)" stroke-width="1" opacity="1" d="M 82.5 61 L 82.5 62 L 82.5 61 Z " /><path fill="rgb(1,1,1)" stroke="rgb(1,1,1)" stroke-width="1" opacity="1" d="M 86.5 61 Q 88 62 85.5 63 Q 84 62 86.5 61 Z " /><path fill="rgb(1,1,1)" stroke="rgb(1,1,1)" stroke-width="1" opacity="1" d="M 85.5 64 L 85.5 65 L 85.5 64 Z " /><path fill="rgb(1,1,1)" stroke="rgb(1,1,1)" stroke-width="1" opacity="1" d="M 87.5 66 Q 90.83 64.88 90 67.5 L 91 67.5 L 91.5 66 L 92 67.5 L 91 69.5 L 92 71.5 L 91 71.5 L 89 67 L 87 66.5 L 87.5 66 Z " /><path fill="rgb(1,1,1)" stroke="rgb(1,1,1)" stroke-width="1" opacity="1" d="M 49.5 69 L 50.5 71 L 51.5 70 L 61.5 70 L 61.5 71 L 51.5 71 L 50.5 72 Q 48.13 71.13 49.5 69 Z " /><path fill="rgb(1,1,1)" stroke="rgb(1,1,1)" stroke-width="1" opacity="1" d="M 65.5 69 L 66 70.5 L 63.5 72 L 63 71.5 L 65.5 69 Z " /><path fill="rgb(1,1,1)" stroke="rgb(1,1,1)" stroke-width="1" opacity="1" d="M 70.5 70 L 70.5 71 L 70.5 70 Z " /><path fill="rgb(1,1,1)" stroke="rgb(1,1,1)" stroke-width="1" opacity="1" d="M 68.5 71 L 68.5 72 L 68.5 71 Z " /><path fill="rgb(1,1,1)" stroke="rgb(1,1,1)" stroke-width="1" opacity="1" d="M 73.5 71 Q 76 72 74.5 73 L 73 73.5 L 78 76.5 L 77.5 79 L 77 76 L 72.5 77 L 71 74.5 L 72 73.5 L 71.5 72 L 73.5 71 Z M 74 75 L 74 76 L 74 75 Z " /><path fill="rgb(1,1,1)" stroke="rgb(1,1,1)" stroke-width="1" opacity="1" d="M 96.5 71 L 97 72.5 L 96 72.5 L 96.5 71 Z " /><path fill="rgb(1,1,1)" stroke="rgb(1,1,1)" stroke-width="1" opacity="1" d="M 93.5 75 L 93.5 76 L 93.5 75 Z " /><path fill="rgb(1,1,1)" stroke="rgb(1,1,1)" stroke-width="1" opacity="1" d="M 96.5 75 L 96.5 76 L 96.5 75 Z " /><path fill="rgb(1,1,1)" stroke="rgb(1,1,1)" stroke-width="1" opacity="1" d="M 93.5 77 L 94 78.5 L 93 78.5 L 93.5 77 Z " /><path fill="rgb(1,1,1)" stroke="rgb(1,1,1)" stroke-width="1" opacity="1" d="M 96.5 78 L 97 79.5 L 96 80.5 L 96.5 82 L 94 81 L 94.5 86 L 96 84.5 L 95.5 83 Q 97.75 84 97 87 Q 94 87.75 93 85.5 L 93 80.5 L 94.5 80 L 96.5 78 Z " /><path fill="rgb(1,1,1)" stroke="rgb(1,1,1)" stroke-width="1" opacity="1" d="M 77.5 80 L 78 82.5 L 77 82.5 L 77.5 80 Z " /><path fill="rgb(1,1,1)" stroke="rgb(1,1,1)" stroke-width="1" opacity="1" d="M 71 82 Q 73.67 80.88 73 83.5 L 76 85.5 L 74.5 86 Q 73.58 84.25 71 85 L 71 82 Z " /><path fill="rgb(1,1,1)" stroke="rgb(1,1,1)" stroke-width="1" opacity="1" d="M 75.5 82 L 75.5 83 L 75.5 82 Z " /><path fill="rgb(1,1,1)" stroke="rgb(1,1,1)" stroke-width="1" opacity="1" d="M 72.5 86 L 72.5 87 L 72.5 86 Z " /><path fill="rgb(1,1,1)" stroke="rgb(1,1,1)" stroke-width="1" opacity="1" d="M 50.5 87 L 51 88.5 L 50 88.5 L 50.5 87 Z " /><path fill="rgb(1,1,1)" stroke="rgb(1,1,1)" stroke-width="1" opacity="1" d="M 61 87 L 64 87.5 L 63 88.5 L 63.5 90 L 61 89 L 61 87 Z " /><path fill="rgb(1,1,1)" stroke="rgb(1,1,1)" stroke-width="1" opacity="1" d="M 70.5 87 L 71 88.5 L 70 88.5 L 70.5 87 Z " /><path fill="rgb(1,1,1)" stroke="rgb(1,1,1)" stroke-width="1" opacity="1" d="M 65.5 88 L 65.5 89 L 65.5 88 Z " /><path fill="rgb(1,1,1)" stroke="rgb(1,1,1)" stroke-width="1" opacity="1" d="M 72.5 88 L 72.5 89 L 72.5 88 Z " /><path fill="rgb(1,1,1)" stroke="rgb(1,1,1)" stroke-width="1" opacity="1" d="M 68.5 89 L 68.5 90 L 68.5 89 Z " /><path fill="rgb(1,1,1)" stroke="rgb(1,1,1)" stroke-width="1" opacity="1" d="M 89.5 93 L 89.5 94 L 89.5 93 Z " /><path fill="rgb(1,1,1)" stroke="rgb(1,1,1)" stroke-width="1" opacity="1" d="M 91.5 94 L 91.5 95 L 91.5 94 Z " /><path fill="rgb(1,1,1)" stroke="rgb(1,1,1)" stroke-width="1" opacity="1" d="M 89.5 95 L 89.5 96 L 89.5 95 Z " /><path fill="rgb(1,1,1)" stroke="rgb(1,1,1)" stroke-width="1" opacity="1" d="M 86.5 98 L 86.5 99 L 86.5 98 Z " /><path fill="rgb(1,1,1)" stroke="rgb(1,1,1)" stroke-width="1" opacity="1" d="M 82.5 99 Q 84 102.5 85.5 100 L 87 100.5 L 82.5 103 L 83 101.5 L 82.5 99 Z " /><path fill="rgb(1,1,1)" stroke="rgb(1,1,1)" stroke-width="1" opacity="1" d="M 76.5 101 Q 79 102 77.5 103 Q 74.71 103.67 76.5 101 Z " /><path fill="rgb(1,1,1)" stroke="rgb(1,1,1)" stroke-width="1" opacity="1" d="M 34.5 102 L 34.5 103 L 34.5 102 Z " /><path fill="rgb(1,1,1)" stroke="rgb(1,1,1)" stroke-width="1" opacity="1" d="M 79.5 102 L 81 102.5 L 79.5 103 L 79.5 102 Z " /><path fill="rgb(1,1,1)" stroke="rgb(1,1,1)" stroke-width="1" opacity="1" d="M 36 103 L 64.5 103 L 65 104.5 L 65.5 105 L 67.5 103 L 69 103 L 69 106 L 67 106.5 L 69 107.5 L 67.5 108 L 65.5 107 L 63.5 108 L 61 106.5 L 64 104.5 L 62.5 104 L 61.5 105 L 36 105 L 36 103 Z M 68 104 L 68 105 L 68 104 Z M 64 106 L 64 107 L 65 107 L 64 106 Z " /><path fill="rgb(1,1,1)" stroke="rgb(1,1,1)" stroke-width="1" opacity="1" d="M 71.5 103 L 72 105.5 L 70.5 108 L 70 105.5 L 71.5 103 Z " /><path fill="rgb(1,1,1)" stroke="rgb(1,1,1)" stroke-width="1" opacity="1" d="M 34.5 105 L 35 106.5 L 34 106.5 L 34.5 105 Z " /><path fill="rgb(207,207,207)" stroke="rgb(207,207,207)" stroke-width="1" opacity="1" d="M 35.5 25 L 70 25.5 L 35.5 26 L 35.5 25 Z " /><path fill="rgb(207,207,207)" stroke="rgb(207,207,207)" stroke-width="1" opacity="1" d="M 74.5 26 L 74.5 27 L 74.5 26 Z " /><path fill="rgb(207,207,207)" stroke="rgb(207,207,207)" stroke-width="1" opacity="1" d="M 76.5 27 L 78 27.5 L 76.5 28 L 76.5 27 Z " /><path fill="rgb(207,207,207)" stroke="rgb(207,207,207)" stroke-width="1" opacity="1" d="M 79.5 28 Q 82 29 80.5 30 Q 78 29 79.5 28 Z " /><path fill="rgb(207,207,207)" stroke="rgb(207,207,207)" stroke-width="1" opacity="1" d="M 82.5 30 L 86 33.5 L 85.5 34 L 82 30.5 L 82.5 30 Z " /><path fill="rgb(207,207,207)" stroke="rgb(207,207,207)" stroke-width="1" opacity="1" d="M 48.5 37 L 49 56.5 L 48 56.5 L 48.5 37 Z " /><path fill="rgb(207,207,207)" stroke="rgb(207,207,207)" stroke-width="1" opacity="1" d="M 66.5 37 L 66.5 38 L 66.5 37 Z " /><path fill="rgb(207,207,207)" stroke="rgb(207,207,207)" stroke-width="1" opacity="1" d="M 87.5 37 L 87.5 38 L 87.5 37 Z " /><path fill="rgb(207,207,207)" stroke="rgb(207,207,207)" stroke-width="1" opacity="1" d="M 70.5 38 L 70.5 39 L 70.5 38 Z " /><path fill="rgb(207,207,207)" stroke="rgb(207,207,207)" stroke-width="1" opacity="1" d="M 72.5 39 L 72.5 40 L 72.5 39 Z " /><path fill="rgb(207,207,207)" stroke="rgb(207,207,207)" stroke-width="1" opacity="1" d="M 88.5 39 L 89 40.5 L 88 40.5 L 88.5 39 Z " /><path fill="rgb(207,207,207)" stroke="rgb(207,207,207)" stroke-width="1" opacity="1" d="M 74.5 42 L 74.5 43 L 74.5 42 Z " /><path fill="rgb(207,207,207)" stroke="rgb(207,207,207)" stroke-width="1" opacity="1" d="M 75.5 44 L 76 49.5 L 75 49.5 L 75.5 44 Z " /><path fill="rgb(207,207,207)" stroke="rgb(207,207,207)" stroke-width="1" opacity="1" d="M 88.5 48 L 89 49.5 L 88 49.5 L 88.5 48 Z " /><path fill="rgb(207,207,207)" stroke="rgb(207,207,207)" stroke-width="1" opacity="1" d="M 87.5 51 L 87.5 52 L 87.5 51 Z " /><path fill="rgb(207,207,207)" stroke="rgb(207,207,207)" stroke-width="1" opacity="1" d="M 71.5 54 L 73 54.5 L 71.5 55 L 71.5 54 Z " /><path fill="rgb(207,207,207)" stroke="rgb(207,207,207)" stroke-width="1" opacity="1" d="M 69.5 55 Q 71 56 68.5 57 L 67 56.5 L 69.5 55 Z " /><path fill="rgb(207,207,207)" stroke="rgb(207,207,207)" stroke-width="1" opacity="1" d="M 84.5 56 L 84.5 57 L 84.5 56 Z " /><path fill="rgb(207,207,207)" stroke="rgb(207,207,207)" stroke-width="1" opacity="1" d="M 80.5 59 L 80.5 60 L 80.5 59 Z " /><path fill="rgb(207,207,207)" stroke="rgb(207,207,207)" stroke-width="1" opacity="1" d="M 78.5 60 L 78.5 61 L 78.5 60 Z " /><path fill="rgb(207,207,207)" stroke="rgb(207,207,207)" stroke-width="1" opacity="1" d="M 76.5 61 Q 79 62 77.5 63 Q 75 62 76.5 61 Z " /><path fill="rgb(207,207,207)" stroke="rgb(207,207,207)" stroke-width="1" opacity="1" d="M 80.5 63 L 80.5 64 L 80.5 63 Z " /><path fill="rgb(207,207,207)" stroke="rgb(207,207,207)" stroke-width="1" opacity="1" d="M 83.5 64 L 83.5 65 L 83.5 64 Z " /><path fill="rgb(207,207,207)" stroke="rgb(207,207,207)" stroke-width="1" opacity="1" d="M 49.5 68 L 69 68.5 L 49 69 L 48.5 91 L 48 69.5 L 49.5 68 Z " /><path fill="rgb(207,207,207)" stroke="rgb(207,207,207)" stroke-width="1" opacity="1" d="M 87.5 68 L 87.5 69 L 87.5 68 Z " /><path fill="rgb(207,207,207)" stroke="rgb(207,207,207)" stroke-width="1" opacity="1" d="M 71.5 69 L 71.5 70 L 71.5 69 Z " /><path fill="rgb(207,207,207)" stroke="rgb(207,207,207)" stroke-width="1" opacity="1" d="M 73.5 70 L 73.5 71 L 73.5 70 Z " /><path fill="rgb(207,207,207)" stroke="rgb(207,207,207)" stroke-width="1" opacity="1" d="M 76.5 72 Q 79 73 77.5 74 Q 75 73 76.5 72 Z " /><path fill="rgb(207,207,207)" stroke="rgb(207,207,207)" stroke-width="1" opacity="1" d="M 90.5 72 L 90.5 73 L 90.5 72 Z " /><path fill="rgb(207,207,207)" stroke="rgb(207,207,207)" stroke-width="1" opacity="1" d="M 78.5 75 L 78.5 76 L 78.5 75 Z " /><path fill="rgb(207,207,207)" stroke="rgb(207,207,207)" stroke-width="1" opacity="1" d="M 91.5 75 L 92 76.5 L 91 76.5 L 91.5 75 Z " /><path fill="rgb(207,207,207)" stroke="rgb(207,207,207)" stroke-width="1" opacity="1" d="M 78.5 82 L 78.5 83 L 78.5 82 Z " /><path fill="rgb(207,207,207)" stroke="rgb(207,207,207)" stroke-width="1" opacity="1" d="M 77.5 85 L 78 85.5 L 74.5 89 L 74 88.5 L 77.5 85 Z " /><path fill="rgb(207,207,207)" stroke="rgb(207,207,207)" stroke-width="1" opacity="1" d="M 91.5 85 L 92 86.5 L 91 86.5 L 91.5 85 Z " /><path fill="rgb(207,207,207)" stroke="rgb(207,207,207)" stroke-width="1" opacity="1" d="M 71.5 89 L 73 89.5 L 71.5 90 L 71.5 89 Z " /><path fill="rgb(207,207,207)" stroke="rgb(207,207,207)" stroke-width="1" opacity="1" d="M 90.5 89 L 90.5 90 L 90.5 89 Z " /><path fill="rgb(207,207,207)" stroke="rgb(207,207,207)" stroke-width="1" opacity="1" d="M 68.5 90 L 68.5 91 L 68.5 90 Z " /><path fill="rgb(207,207,207)" stroke="rgb(207,207,207)" stroke-width="1" opacity="1" d="M 89.5 91 L 89.5 92 L 89.5 91 Z " /><path fill="rgb(207,207,207)" stroke="rgb(207,207,207)" stroke-width="1" opacity="1" d="M 88.5 93 L 88.5 94 L 88.5 93 Z " /><path fill="rgb(207,207,207)" stroke="rgb(207,207,207)" stroke-width="1" opacity="1" d="M 86.5 95 L 86.5 96 L 86.5 95 Z " /><path fill="rgb(207,207,207)" stroke="rgb(207,207,207)" stroke-width="1" opacity="1" d="M 84.5 96 Q 86 97 83.5 98 Q 82 97 84.5 96 Z " /><path fill="rgb(207,207,207)" stroke="rgb(207,207,207)" stroke-width="1" opacity="1" d="M 81.5 98 L 81.5 99 L 81.5 98 Z " /><path fill="rgb(207,207,207)" stroke="rgb(207,207,207)" stroke-width="1" opacity="1" d="M 77.5 100 L 77.5 101 L 77.5 100 Z " /><path fill="rgb(207,207,207)" stroke="rgb(207,207,207)" stroke-width="1" opacity="1" d="M 74.5 101 L 74.5 102 L 74.5 101 Z " /><path fill="rgb(207,207,207)" stroke="rgb(207,207,207)" stroke-width="1" opacity="1" d="M 35.5 102 L 69 102.5 L 35.5 103 L 35.5 102 Z " /><path fill="rgb(4,4,4)" stroke="rgb(4,4,4)" stroke-width="1" opacity="1" d="M 31.5 21 L 32.5 22 L 34 21.5 L 34.5 23 L 36 22.5 L 34.5 25 L 34 23 Q 31.25 23.5 31.5 21 Z " /><path fill="rgb(4,4,4)" stroke="rgb(4,4,4)" stroke-width="1" opacity="1" d="M 73.5 25 L 73.5 26 L 73.5 25 Z " /><path fill="rgb(4,4,4)" stroke="rgb(4,4,4)" stroke-width="1" opacity="1" d="M 80.5 26 L 80.5 28 Q 83.83 26.88 83 29.5 L 81.5 29 L 79 27.5 L 80.5 26 Z " /><path fill="rgb(4,4,4)" stroke="rgb(4,4,4)" stroke-width="1" opacity="1" d="M 84.5 26 L 84.5 27 L 84.5 26 Z " /><path fill="rgb(4,4,4)" stroke="rgb(4,4,4)" stroke-width="1" opacity="1" d="M 86.5 27 L 86.5 28 L 86.5 27 Z " /><path fill="rgb(4,4,4)" stroke="rgb(4,4,4)" stroke-width="1" opacity="1" d="M 84.5 28 L 87 31.5 L 84 31.5 L 85 29.5 L 84.5 28 Z " /><path fill="rgb(4,4,4)" stroke="rgb(4,4,4)" stroke-width="1" opacity="1" d="M 86.5 33 L 86.5 34 L 86.5 33 Z " /><path fill="rgb(4,4,4)" stroke="rgb(4,4,4)" stroke-width="1" opacity="1" d="M 87.5 35 Q 89.75 34.25 89 36.5 L 88.5 37 Q 86 36 87.5 35 Z " /><path fill="rgb(4,4,4)" stroke="rgb(4,4,4)" stroke-width="1" opacity="1" d="M 49.5 37 L 63 37.5 L 51.5 38 L 50.5 39 Q 48 38 49.5 37 Z " /><path fill="rgb(4,4,4)" stroke="rgb(4,4,4)" stroke-width="1" opacity="1" d="M 66.5 38 L 68 38.5 L 66.5 39 L 66.5 38 Z " /><path fill="rgb(4,4,4)" stroke="rgb(4,4,4)" stroke-width="1" opacity="1" d="M 69.5 39 L 72 40.5 L 70.5 40 Q 68.13 39.87 69.5 39 Z " /><path fill="rgb(4,4,4)" stroke="rgb(4,4,4)" stroke-width="1" opacity="1" d="M 89.5 40 L 90 42.5 L 89 42.5 L 89.5 40 Z " /><path fill="rgb(4,4,4)" stroke="rgb(4,4,4)" stroke-width="1" opacity="1" d="M 74.5 43 L 74.5 44 L 74.5 43 Z " /><path fill="rgb(4,4,4)" stroke="rgb(4,4,4)" stroke-width="1" opacity="1" d="M 73.5 47 Q 76 48 74.5 49 Q 72 48 73.5 47 Z " /><path fill="rgb(4,4,4)" stroke="rgb(4,4,4)" stroke-width="1" opacity="1" d="M 89 47 Q 92 46 91 49 Q 88 50 89 47 Z " /><path fill="rgb(4,4,4)" stroke="rgb(4,4,4)" stroke-width="1" opacity="1" d="M 69.5 51 L 70.5 52 L 71.5 51 L 72.5 52 L 74 51.5 L 70.5 55 L 68 55 L 68.5 53 L 70.5 54 L 69.5 51 Z M 72 52 L 72 53 L 72 52 Z " /><path fill="rgb(4,4,4)" stroke="rgb(4,4,4)" stroke-width="1" opacity="1" d="M 88.5 52 L 89 54 L 87 53.5 L 88.5 52 Z " /><path fill="rgb(4,4,4)" stroke="rgb(4,4,4)" stroke-width="1" opacity="1" d="M 90.5 54 Q 92 55 89.5 56 Q 85.25 55.25 84.5 58 L 84 57.5 L 86.5 55 Q 89.75 55.75 90.5 54 Z " /><path fill="rgb(4,4,4)" stroke="rgb(4,4,4)" stroke-width="1" opacity="1" d="M 65.5 55 L 67 55.5 L 65.5 56 L 65.5 55 Z " /><path fill="rgb(4,4,4)" stroke="rgb(4,4,4)" stroke-width="1" opacity="1" d="M 86.5 58 L 86.5 59 L 86.5 58 Z " /><path fill="rgb(4,4,4)" stroke="rgb(4,4,4)" stroke-width="1" opacity="1" d="M 81.5 59 L 81.5 60 L 81.5 59 Z " /><path fill="rgb(4,4,4)" stroke="rgb(4,4,4)" stroke-width="1" opacity="1" d="M 83.5 59 L 84.5 61 L 86 60.5 L 83 62 L 83.5 59 Z " /><path fill="rgb(4,4,4)" stroke="rgb(4,4,4)" stroke-width="1" opacity="1" d="M 78.5 61 L 80.5 62 L 82 61.5 L 79.5 63 Q 77 62 78.5 61 Z " /><path fill="rgb(4,4,4)" stroke="rgb(4,4,4)" stroke-width="1" opacity="1" d="M 86.5 62 L 87 64 L 85 63.5 L 86.5 62 Z " /><path fill="rgb(4,4,4)" stroke="rgb(4,4,4)" stroke-width="1" opacity="1" d="M 82.5 63 L 84 63.5 L 82.5 64 L 82.5 63 Z " /><path fill="rgb(4,4,4)" stroke="rgb(4,4,4)" stroke-width="1" opacity="1" d="M 86.5 65 L 86.5 66 L 86.5 65 Z " /><path fill="rgb(4,4,4)" stroke="rgb(4,4,4)" stroke-width="1" opacity="1" d="M 91.5 68 L 91.5 69 L 91.5 68 Z " /><path fill="rgb(4,4,4)" stroke="rgb(4,4,4)" stroke-width="1" opacity="1" d="M 68.5 69 Q 71.13 68.33 70 71 L 67 70.5 L 68.5 69 Z " /><path fill="rgb(4,4,4)" stroke="rgb(4,4,4)" stroke-width="1" opacity="1" d="M 89.5 69 L 89.5 70 L 89.5 69 Z " /><path fill="rgb(4,4,4)" stroke="rgb(4,4,4)" stroke-width="1" opacity="1" d="M 71.5 70 L 73 70.5 L 71.5 71 L 71.5 70 Z " /><path fill="rgb(4,4,4)" stroke="rgb(4,4,4)" stroke-width="1" opacity="1" d="M 74.5 71 L 77 73.5 L 76.5 74 L 74 71.5 L 74.5 71 Z " /><path fill="rgb(4,4,4)" stroke="rgb(4,4,4)" stroke-width="1" opacity="1" d="M 91.5 72 L 91.5 73 L 91.5 72 Z " /><path fill="rgb(4,4,4)" stroke="rgb(4,4,4)" stroke-width="1" opacity="1" d="M 77.5 75 L 77.5 76 L 77.5 75 Z " /><path fill="rgb(4,4,4)" stroke="rgb(4,4,4)" stroke-width="1" opacity="1" d="M 92.5 76 L 92.5 77 L 92.5 76 Z " /><path fill="rgb(4,4,4)" stroke="rgb(4,4,4)" stroke-width="1" opacity="1" d="M 96.5 77 L 96.5 78 L 96.5 77 Z " /><path fill="rgb(4,4,4)" stroke="rgb(4,4,4)" stroke-width="1" opacity="1" d="M 78.5 78 L 79 79.5 L 78 79.5 L 78.5 78 Z " /><path fill="rgb(4,4,4)" stroke="rgb(4,4,4)" stroke-width="1" opacity="1" d="M 74.5 83 L 75 84.5 L 74 84.5 L 74.5 83 Z " /><path fill="rgb(4,4,4)" stroke="rgb(4,4,4)" stroke-width="1" opacity="1" d="M 76.5 83 L 78 83.5 L 76.5 84 L 76.5 83 Z " /><path fill="rgb(4,4,4)" stroke="rgb(4,4,4)" stroke-width="1" opacity="1" d="M 92.5 84 L 93 85.5 L 92 85.5 L 92.5 84 Z " /><path fill="rgb(4,4,4)" stroke="rgb(4,4,4)" stroke-width="1" opacity="1" d="M 72.5 85 L 72.5 86 L 72.5 85 Z " /><path fill="rgb(4,4,4)" stroke="rgb(4,4,4)" stroke-width="1" opacity="1" d="M 74.5 86 L 76 86.5 L 74.5 87 L 74.5 86 Z " /><path fill="rgb(4,4,4)" stroke="rgb(4,4,4)" stroke-width="1" opacity="1" d="M 71.5 88 L 71.5 89 L 71.5 88 Z " /><path fill="rgb(4,4,4)" stroke="rgb(4,4,4)" stroke-width="1" opacity="1" d="M 50.5 89 L 51.5 90 L 65 90.5 L 49.5 91 Q 48 90 50.5 89 Z " /><path fill="rgb(4,4,4)" stroke="rgb(4,4,4)" stroke-width="1" opacity="1" d="M 69.5 89 L 69.5 90 L 69.5 89 Z " /><path fill="rgb(4,4,4)" stroke="rgb(4,4,4)" stroke-width="1" opacity="1" d="M 91.5 89 L 91.5 90 L 91.5 89 Z " /><path fill="rgb(4,4,4)" stroke="rgb(4,4,4)" stroke-width="1" opacity="1" d="M 90.5 93 L 90.5 94 L 90.5 93 Z " /><path fill="rgb(4,4,4)" stroke="rgb(4,4,4)" stroke-width="1" opacity="1" d="M 88.5 94 L 88.5 96 L 90 96.5 L 86.5 97 L 86 96.5 L 88.5 94 Z " /><path fill="rgb(4,4,4)" stroke="rgb(4,4,4)" stroke-width="1" opacity="1" d="M 91.5 95 L 91.5 96 L 91.5 95 Z " /><path fill="rgb(4,4,4)" stroke="rgb(4,4,4)" stroke-width="1" opacity="1" d="M 83.5 98 L 83.5 99 L 83.5 98 Z " /><path fill="rgb(4,4,4)" stroke="rgb(4,4,4)" stroke-width="1" opacity="1" d="M 85.5 98 L 86 99.5 Q 85 102 84 100.5 L 85.5 98 Z " /><path fill="rgb(4,4,4)" stroke="rgb(4,4,4)" stroke-width="1" opacity="1" d="M 81.5 99 L 81.5 102 L 80.5 101 L 79 101.5 L 81.5 99 Z " /><path fill="rgb(4,4,4)" stroke="rgb(4,4,4)" stroke-width="1" opacity="1" d="M 86.5 101 L 86.5 102 L 86.5 101 Z " /><path fill="rgb(4,4,4)" stroke="rgb(4,4,4)" stroke-width="1" opacity="1" d="M 73.5 102 L 73.5 103 L 73.5 102 Z " /><path fill="rgb(4,4,4)" stroke="rgb(4,4,4)" stroke-width="1" opacity="1" d="M 34.5 103 L 36 105.5 L 34 105.5 L 33.5 107 L 32.5 106 L 31 106.5 L 34 105 L 34.5 103 Z " /><path fill="rgb(4,4,4)" stroke="rgb(4,4,4)" stroke-width="1" opacity="1" d="M 66.5 103 L 66.5 104 L 66.5 103 Z " /><path fill="rgb(2,2,2)" stroke="rgb(2,2,2)" stroke-width="1" opacity="1" d="M 31.5 20 L 31.5 21 L 31.5 20 Z " /><path fill="rgb(2,2,2)" stroke="rgb(2,2,2)" stroke-width="1" opacity="1" d="M 33.5 20 L 33.5 21 L 33.5 20 Z " /><path fill="rgb(2,2,2)" stroke="rgb(2,2,2)" stroke-width="1" opacity="1" d="M 35.5 20 L 35.5 21 L 35.5 20 Z " /><path fill="rgb(2,2,2)" stroke="rgb(2,2,2)" stroke-width="1" opacity="1" d="M 62.5 21 L 65 21.5 L 62.5 22 L 62.5 21 Z " /><path fill="rgb(2,2,2)" stroke="rgb(2,2,2)" stroke-width="1" opacity="1" d="M 33.5 23 Q 35 24 32.5 25 Q 31 24 33.5 23 Z " /><path fill="rgb(2,2,2)" stroke="rgb(2,2,2)" stroke-width="1" opacity="1" d="M 35.5 24 L 35.5 25 L 35.5 24 Z " /><path fill="rgb(2,2,2)" stroke="rgb(2,2,2)" stroke-width="1" opacity="1" d="M 63.5 24 L 65 24.5 L 63.5 25 L 63.5 24 Z " /><path fill="rgb(2,2,2)" stroke="rgb(2,2,2)" stroke-width="1" opacity="1" d="M 70.5 24 L 70.5 25 L 70.5 24 Z " /><path fill="rgb(2,2,2)" stroke="rgb(2,2,2)" stroke-width="1" opacity="1" d="M 77.5 25 L 79 25.5 L 76.5 27 Q 75 26 77.5 25 Z " /><path fill="rgb(2,2,2)" stroke="rgb(2,2,2)" stroke-width="1" opacity="1" d="M 85.5 25 Q 87.75 24.25 87 26.5 L 86.5 27 Q 84 26 85.5 25 Z " /><path fill="rgb(2,2,2)" stroke="rgb(2,2,2)" stroke-width="1" opacity="1" d="M 82.5 27 L 82.5 28 L 82.5 27 Z " /><path fill="rgb(2,2,2)" stroke="rgb(2,2,2)" stroke-width="1" opacity="1" d="M 86.5 28 L 86.5 29 L 86.5 28 Z " /><path fill="rgb(2,2,2)" stroke="rgb(2,2,2)" stroke-width="1" opacity="1" d="M 83.5 29 L 83.5 30 L 83.5 29 Z " /><path fill="rgb(2,2,2)" stroke="rgb(2,2,2)" stroke-width="1" opacity="1" d="M 85.5 31 Q 88 32 86.5 33 Q 84 32 85.5 31 Z " /><path fill="rgb(2,2,2)" stroke="rgb(2,2,2)" stroke-width="1" opacity="1" d="M 91.5 33 L 91.5 34 L 91.5 33 Z " /><path fill="rgb(2,2,2)" stroke="rgb(2,2,2)" stroke-width="1" opacity="1" d="M 87.5 34 L 87.5 35 L 87.5 34 Z " /><path fill="rgb(2,2,2)" stroke="rgb(2,2,2)" stroke-width="1" opacity="1" d="M 89.5 34 L 89.5 35 L 89.5 34 Z " /><path fill="rgb(2,2,2)" stroke="rgb(2,2,2)" stroke-width="1" opacity="1" d="M 90.5 36 L 90.5 37 L 90.5 36 Z " /><path fill="rgb(2,2,2)" stroke="rgb(2,2,2)" stroke-width="1" opacity="1" d="M 49.5 38 L 50 39.5 L 49 39.5 L 49.5 38 Z " /><path fill="rgb(2,2,2)" stroke="rgb(2,2,2)" stroke-width="1" opacity="1" d="M 64.5 38 L 65 40.5 L 64 40.5 L 64.5 38 Z " /><path fill="rgb(2,2,2)" stroke="rgb(2,2,2)" stroke-width="1" opacity="1" d="M 89.5 38 L 92 38.5 L 90.5 40 Q 88 39 89.5 38 Z " /><path fill="rgb(2,2,2)" stroke="rgb(2,2,2)" stroke-width="1" opacity="1" d="M 66.5 39 L 67.5 40 L 69 39.5 L 67.5 41 Q 65 40 66.5 39 Z " /><path fill="rgb(2,2,2)" stroke="rgb(2,2,2)" stroke-width="1" opacity="1" d="M 70.5 40 L 70.5 41 L 70.5 40 Z " /><path fill="rgb(2,2,2)" stroke="rgb(2,2,2)" stroke-width="1" opacity="1" d="M 72.5 41 L 72.5 42 L 72.5 41 Z " /><path fill="rgb(2,2,2)" stroke="rgb(2,2,2)" stroke-width="1" opacity="1" d="M 73.5 43 L 75 46 L 72.5 47 L 73 45.5 L 72 44.5 L 73.5 43 Z " /><path fill="rgb(2,2,2)" stroke="rgb(2,2,2)" stroke-width="1" opacity="1" d="M 91.5 43 Q 93 44 90.5 45 Q 89 44 91.5 43 Z " /><path fill="rgb(2,2,2)" stroke="rgb(2,2,2)" stroke-width="1" opacity="1" d="M 74.5 47 L 74 48.5 L 72.5 51 L 72.5 48 L 74.5 47 Z " /><path fill="rgb(2,2,2)" stroke="rgb(2,2,2)" stroke-width="1" opacity="1" d="M 90.5 49 L 90 50.5 L 89.5 52 L 89 50.5 L 90.5 49 Z " /><path fill="rgb(2,2,2)" stroke="rgb(2,2,2)" stroke-width="1" opacity="1" d="M 66.5 52 L 69 52.5 L 67.5 55 L 66 52.5 L 66.5 52 Z " /><path fill="rgb(2,2,2)" stroke="rgb(2,2,2)" stroke-width="1" opacity="1" d="M 71.5 52 L 71.5 53 L 71.5 52 Z " /><path fill="rgb(2,2,2)" stroke="rgb(2,2,2)" stroke-width="1" opacity="1" d="M 89.5 53 L 89.5 54 L 89.5 53 Z " /><path fill="rgb(2,2,2)" stroke="rgb(2,2,2)" stroke-width="1" opacity="1" d="M 91.5 53 L 91.5 54 L 91.5 53 Z " /><path fill="rgb(2,2,2)" stroke="rgb(2,2,2)" stroke-width="1" opacity="1" d="M 91.5 55 L 91.5 56 L 91.5 55 Z " /><path fill="rgb(2,2,2)" stroke="rgb(2,2,2)" stroke-width="1" opacity="1" d="M 86.5 56 L 87 57.5 L 84.5 60 L 84 59.5 L 84 58 Q 86.75 59 86.5 56 Z " /><path fill="rgb(2,2,2)" stroke="rgb(2,2,2)" stroke-width="1" opacity="1" d="M 82.5 59 L 83 60.5 L 82 60.5 L 82.5 59 Z " /><path fill="rgb(2,2,2)" stroke="rgb(2,2,2)" stroke-width="1" opacity="1" d="M 86.5 60 L 86.5 61 L 86.5 60 Z " /><path fill="rgb(2,2,2)" stroke="rgb(2,2,2)" stroke-width="1" opacity="1" d="M 79.5 61 L 79.5 62 L 79.5 61 Z " /><path fill="rgb(2,2,2)" stroke="rgb(2,2,2)" stroke-width="1" opacity="1" d="M 82.5 62 L 82.5 63 L 82.5 62 Z " /><path fill="rgb(2,2,2)" stroke="rgb(2,2,2)" stroke-width="1" opacity="1" d="M 84.5 63 L 84.5 64 L 84.5 63 Z " /><path fill="rgb(2,2,2)" stroke="rgb(2,2,2)" stroke-width="1" opacity="1" d="M 86.5 64 L 86.5 65 L 86.5 64 Z " /><path fill="rgb(2,2,2)" stroke="rgb(2,2,2)" stroke-width="1" opacity="1" d="M 88.5 67 L 88.5 68 L 88.5 67 Z " /><path fill="rgb(2,2,2)" stroke="rgb(2,2,2)" stroke-width="1" opacity="1" d="M 90.5 67 L 90.5 68 L 90.5 67 Z " /><path fill="rgb(2,2,2)" stroke="rgb(2,2,2)" stroke-width="1" opacity="1" d="M 66.5 69 L 67 70.5 L 66 70.5 L 66.5 69 Z " /><path fill="rgb(2,2,2)" stroke="rgb(2,2,2)" stroke-width="1" opacity="1" d="M 50.5 70 L 50.5 71 L 50.5 70 Z " /><path fill="rgb(2,2,2)" stroke="rgb(2,2,2)" stroke-width="1" opacity="1" d="M 62.5 70 L 64 70.5 L 62.5 71 L 62.5 70 Z " /><path fill="rgb(2,2,2)" stroke="rgb(2,2,2)" stroke-width="1" opacity="1" d="M 71.5 71 L 73 71.5 L 71.5 72 L 71.5 71 Z " /><path fill="rgb(2,2,2)" stroke="rgb(2,2,2)" stroke-width="1" opacity="1" d="M 73.5 73 Q 76.83 71.88 76 74.5 L 74.5 74 Q 72.13 73.88 73.5 73 Z " /><path fill="rgb(2,2,2)" stroke="rgb(2,2,2)" stroke-width="1" opacity="1" d="M 73.5 75 L 73.5 76 L 73.5 75 Z " /><path fill="rgb(2,2,2)" stroke="rgb(2,2,2)" stroke-width="1" opacity="1" d="M 92.5 75 Q 95.5 75.5 95 79.5 L 94 79.5 L 94 77.5 L 92 75.5 L 92.5 75 Z " /><path fill="rgb(2,2,2)" stroke="rgb(2,2,2)" stroke-width="1" opacity="1" d="M 75.5 76 L 75.5 77 L 75.5 76 Z " /><path fill="rgb(2,2,2)" stroke="rgb(2,2,2)" stroke-width="1" opacity="1" d="M 77.5 79 L 77.5 80 L 77.5 79 Z " /><path fill="rgb(2,2,2)" stroke="rgb(2,2,2)" stroke-width="1" opacity="1" d="M 73 82 L 76 83.5 L 75.5 85 L 74.5 83 L 73 83.5 L 73 82 Z " /><path fill="rgb(2,2,2)" stroke="rgb(2,2,2)" stroke-width="1" opacity="1" d="M 94.5 82 L 94.5 83 L 94.5 82 Z " /><path fill="rgb(2,2,2)" stroke="rgb(2,2,2)" stroke-width="1" opacity="1" d="M 96.5 82 L 96.5 83 L 96.5 82 Z " /><path fill="rgb(2,2,2)" stroke="rgb(2,2,2)" stroke-width="1" opacity="1" d="M 95.5 84 L 95.5 85 L 95.5 84 Z " /><path fill="rgb(2,2,2)" stroke="rgb(2,2,2)" stroke-width="1" opacity="1" d="M 71.5 85 L 71.5 86 L 71.5 85 Z " /><path fill="rgb(2,2,2)" stroke="rgb(2,2,2)" stroke-width="1" opacity="1" d="M 73.5 86 L 74 88 L 71 87.5 L 73.5 86 Z " /><path fill="rgb(2,2,2)" stroke="rgb(2,2,2)" stroke-width="1" opacity="1" d="M 93.5 86 L 93.5 87 L 93.5 86 Z " /><path fill="rgb(2,2,2)" stroke="rgb(2,2,2)" stroke-width="1" opacity="1" d="M 67.5 87 L 68.5 88 L 70 87.5 Q 70.75 89.75 68.5 89 L 65.5 90 Q 63 89 64.5 88 L 67 89 L 67.5 87 Z " /><path fill="rgb(2,2,2)" stroke="rgb(2,2,2)" stroke-width="1" opacity="1" d="M 49.5 88 L 50 89.5 L 49 89.5 L 49.5 88 Z " /><path fill="rgb(2,2,2)" stroke="rgb(2,2,2)" stroke-width="1" opacity="1" d="M 90.5 91 Q 93.13 90.17 92 93.5 L 91 93.5 L 90.5 91 Z " /><path fill="rgb(2,2,2)" stroke="rgb(2,2,2)" stroke-width="1" opacity="1" d="M 89.5 94 L 92 96.5 L 91.5 97 L 89.5 95 L 88 95.5 L 89.5 94 Z " /><path fill="rgb(2,2,2)" stroke="rgb(2,2,2)" stroke-width="1" opacity="1" d="M 86.5 97 L 86.5 98 L 86.5 97 Z " /><path fill="rgb(2,2,2)" stroke="rgb(2,2,2)" stroke-width="1" opacity="1" d="M 84.5 98 L 85 98.5 L 82.5 101 L 82 100.5 L 84.5 98 Z " /><path fill="rgb(2,2,2)" stroke="rgb(2,2,2)" stroke-width="1" opacity="1" d="M 78.5 101 L 78.5 102 L 78.5 101 Z " /><path fill="rgb(2,2,2)" stroke="rgb(2,2,2)" stroke-width="1" opacity="1" d="M 80.5 101 L 80.5 102 L 80.5 101 Z " /><path fill="rgb(2,2,2)" stroke="rgb(2,2,2)" stroke-width="1" opacity="1" d="M 32.5 103 Q 35 104 33.5 105 Q 31 104 32.5 103 Z " /><path fill="rgb(2,2,2)" stroke="rgb(2,2,2)" stroke-width="1" opacity="1" d="M 35.5 103 L 35.5 104 L 35.5 103 Z " /><path fill="rgb(2,2,2)" stroke="rgb(2,2,2)" stroke-width="1" opacity="1" d="M 65.5 103 L 66 104.5 L 65 104.5 L 65.5 103 Z " /><path fill="rgb(2,2,2)" stroke="rgb(2,2,2)" stroke-width="1" opacity="1" d="M 69 103 Q 72 102 71 105 Q 68 106 69 103 Z " /><path fill="rgb(2,2,2)" stroke="rgb(2,2,2)" stroke-width="1" opacity="1" d="M 31.5 107 L 31.5 108 L 31.5 107 Z " /><path fill="rgb(2,2,2)" stroke="rgb(2,2,2)" stroke-width="1" opacity="1" d="M 33.5 107 L 33.5 108 L 33.5 107 Z " /><path fill="rgb(2,2,2)" stroke="rgb(2,2,2)" stroke-width="1" opacity="1" d="M 35.5 107 L 35.5 108 L 35.5 107 Z " /><path fill="rgb(67,67,67)" stroke="rgb(67,67,67)" stroke-width="1" opacity="1" d="M 70.5 25 L 73 25.5 L 70.5 26 L 70.5 25 Z " /><path fill="rgb(67,67,67)" stroke="rgb(67,67,67)" stroke-width="1" opacity="1" d="M 75.5 26 L 75.5 27 L 75.5 26 Z " /><path fill="rgb(67,67,67)" stroke="rgb(67,67,67)" stroke-width="1" opacity="1" d="M 78.5 27 L 78.5 28 L 78.5 27 Z " /><path fill="rgb(67,67,67)" stroke="rgb(67,67,67)" stroke-width="1" opacity="1" d="M 81.5 29 L 81.5 30 L 81.5 29 Z " /><path fill="rgb(67,67,67)" stroke="rgb(67,67,67)" stroke-width="1" opacity="1" d="M 85.5 32 L 85.5 33 L 85.5 32 Z " /><path fill="rgb(67,67,67)" stroke="rgb(67,67,67)" stroke-width="1" opacity="1" d="M 86.5 34 L 86.5 35 L 86.5 34 Z " /><path fill="rgb(67,67,67)" stroke="rgb(67,67,67)" stroke-width="1" opacity="1" d="M 87.5 36 L 89 38.5 L 88 38.5 L 87.5 36 Z " /><path fill="rgb(67,67,67)" stroke="rgb(67,67,67)" stroke-width="1" opacity="1" d="M 63.5 37 L 66 37.5 L 63.5 38 L 63.5 37 Z " /><path fill="rgb(67,67,67)" stroke="rgb(67,67,67)" stroke-width="1" opacity="1" d="M 68.5 38 L 70 38.5 L 68.5 39 L 68.5 38 Z " /><path fill="rgb(67,67,67)" stroke="rgb(67,67,67)" stroke-width="1" opacity="1" d="M 71.5 39 L 74 41.5 L 73.5 42 L 71 39.5 L 71.5 39 Z " /><path fill="rgb(67,67,67)" stroke="rgb(67,67,67)" stroke-width="1" opacity="1" d="M 89.5 43 L 90 46.5 L 89 46.5 L 89.5 43 Z " /><path fill="rgb(67,67,67)" stroke="rgb(67,67,67)" stroke-width="1" opacity="1" d="M 74.5 50 L 74.5 51 L 74.5 50 Z " /><path fill="rgb(67,67,67)" stroke="rgb(67,67,67)" stroke-width="1" opacity="1" d="M 88.5 50 L 89 51.5 Q 88 54 87 52.5 L 88.5 50 Z " /><path fill="rgb(67,67,67)" stroke="rgb(67,67,67)" stroke-width="1" opacity="1" d="M 73.5 52 Q 75 53 72.5 54 Q 71 53 73.5 52 Z " /><path fill="rgb(67,67,67)" stroke="rgb(67,67,67)" stroke-width="1" opacity="1" d="M 86.5 54 Q 88 55 85.5 56 Q 84 55 86.5 54 Z " /><path fill="rgb(67,67,67)" stroke="rgb(67,67,67)" stroke-width="1" opacity="1" d="M 67.5 55 L 69 55.5 L 66.5 57 L 49.5 57 L 49.5 56 L 66.5 56 L 67.5 55 Z " /><path fill="rgb(67,67,67)" stroke="rgb(67,67,67)" stroke-width="1" opacity="1" d="M 83.5 57 Q 85 58 82.5 59 Q 81 58 83.5 57 Z " /><path fill="rgb(67,67,67)" stroke="rgb(67,67,67)" stroke-width="1" opacity="1" d="M 79.5 60 L 79.5 61 L 79.5 60 Z " /><path fill="rgb(67,67,67)" stroke="rgb(67,67,67)" stroke-width="1" opacity="1" d="M 77.5 61 Q 80 62 78.5 63 Q 76 62 77.5 61 Z " /><path fill="rgb(67,67,67)" stroke="rgb(67,67,67)" stroke-width="1" opacity="1" d="M 81.5 63 L 81.5 64 L 81.5 63 Z " /><path fill="rgb(67,67,67)" stroke="rgb(67,67,67)" stroke-width="1" opacity="1" d="M 84.5 64 L 89 68.5 L 88.5 69 L 84 64.5 L 84.5 64 Z " /><path fill="rgb(67,67,67)" stroke="rgb(67,67,67)" stroke-width="1" opacity="1" d="M 70.5 69 L 70.5 70 L 70.5 69 Z " /><path fill="rgb(67,67,67)" stroke="rgb(67,67,67)" stroke-width="1" opacity="1" d="M 89.5 70 Q 92 71 90.5 72 Q 88 71 89.5 70 Z " /><path fill="rgb(67,67,67)" stroke="rgb(67,67,67)" stroke-width="1" opacity="1" d="M 75.5 71 L 75.5 72 L 75.5 71 Z " /><path fill="rgb(67,67,67)" stroke="rgb(67,67,67)" stroke-width="1" opacity="1" d="M 91.5 73 L 92 74.5 L 91 74.5 L 91.5 73 Z " /><path fill="rgb(67,67,67)" stroke="rgb(67,67,67)" stroke-width="1" opacity="1" d="M 77.5 74 L 77.5 75 L 77.5 74 Z " /><path fill="rgb(67,67,67)" stroke="rgb(67,67,67)" stroke-width="1" opacity="1" d="M 78.5 76 L 79 77.5 L 78 77.5 L 78.5 76 Z " /><path fill="rgb(67,67,67)" stroke="rgb(67,67,67)" stroke-width="1" opacity="1" d="M 92.5 77 L 93 83.5 L 92 83.5 L 92.5 77 Z " /><path fill="rgb(67,67,67)" stroke="rgb(67,67,67)" stroke-width="1" opacity="1" d="M 78.5 80 L 79 81.5 L 78 81.5 L 78.5 80 Z " /><path fill="rgb(67,67,67)" stroke="rgb(67,67,67)" stroke-width="1" opacity="1" d="M 77.5 84 L 77.5 85 L 77.5 84 Z " /><path fill="rgb(67,67,67)" stroke="rgb(67,67,67)" stroke-width="1" opacity="1" d="M 74.5 87 Q 76 88 73.5 89 Q 72 88 74.5 87 Z " /><path fill="rgb(67,67,67)" stroke="rgb(67,67,67)" stroke-width="1" opacity="1" d="M 91.5 87 L 92 88.5 L 91 88.5 L 91.5 87 Z " /><path fill="rgb(67,67,67)" stroke="rgb(67,67,67)" stroke-width="1" opacity="1" d="M 70.5 89 L 70.5 90 L 70.5 89 Z " /><path fill="rgb(67,67,67)" stroke="rgb(67,67,67)" stroke-width="1" opacity="1" d="M 65.5 90 L 68 90.5 L 65.5 91 L 65.5 90 Z " /><path fill="rgb(67,67,67)" stroke="rgb(67,67,67)" stroke-width="1" opacity="1" d="M 90.5 90 L 90.5 91 L 90.5 90 Z " /><path fill="rgb(67,67,67)" stroke="rgb(67,67,67)" stroke-width="1" opacity="1" d="M 89.5 92 L 89.5 93 L 89.5 92 Z " /><path fill="rgb(67,67,67)" stroke="rgb(67,67,67)" stroke-width="1" opacity="1" d="M 87.5 94 L 87.5 95 L 87.5 94 Z " /><path fill="rgb(67,67,67)" stroke="rgb(67,67,67)" stroke-width="1" opacity="1" d="M 85.5 96 Q 87 97 84.5 98 Q 83 97 85.5 96 Z " /><path fill="rgb(67,67,67)" stroke="rgb(67,67,67)" stroke-width="1" opacity="1" d="M 82.5 98 L 82.5 99 L 82.5 98 Z " /><path fill="rgb(67,67,67)" stroke="rgb(67,67,67)" stroke-width="1" opacity="1" d="M 80.5 99 Q 82 100 79.5 101 L 78 100.5 L 80.5 99 Z " /><path fill="rgb(67,67,67)" stroke="rgb(67,67,67)" stroke-width="1" opacity="1" d="M 75.5 101 L 75.5 102 L 75.5 101 Z " /><path fill="rgb(67,67,67)" stroke="rgb(67,67,67)" stroke-width="1" opacity="1" d="M 69.5 102 L 73 102.5 L 69.5 103 L 69.5 102 Z " /></svg>