<svg width="128" height="128" version="1.1" xmlns="http://www.w3.org/2000/svg" desc="Created with imagetracer.js version 1.2.6" ><path fill="rgb(235,240,242)" stroke="rgb(235,240,242)" stroke-width="1" opacity="1" d="M 58.5 48 L 58.5 49 L 58.5 48 Z " /><path fill="rgb(235,240,242)" stroke="rgb(235,240,242)" stroke-width="1" opacity="1" d="M 125.5 48 L 125.5 49 L 125.5 48 Z " /><path fill="rgb(235,240,242)" stroke="rgb(235,240,242)" stroke-width="1" opacity="1" d="M 60.5 49 L 60.5 50 L 60.5 49 Z " /><path fill="rgb(235,240,242)" stroke="rgb(235,240,242)" stroke-width="1" opacity="1" d="M 77.5 50 Q 80 51 78.5 52 Q 76 51 77.5 50 Z " /><path fill="rgb(235,240,242)" stroke="rgb(235,240,242)" stroke-width="1" opacity="1" d="M 95.5 50 L 95.5 51 L 95.5 50 Z " /><path fill="rgb(235,240,242)" stroke="rgb(235,240,242)" stroke-width="1" opacity="1" d="M 106.5 50 L 106.5 51 L 106.5 50 Z " /><path fill="rgb(235,240,242)" stroke="rgb(235,240,242)" stroke-width="1" opacity="1" d="M 3.5 51 L 3.5 52 L 3.5 51 Z " /><path fill="rgb(235,240,242)" stroke="rgb(235,240,242)" stroke-width="1" opacity="1" d="M 5.5 51 L 5.5 52 L 5.5 51 Z " /><path fill="rgb(235,240,242)" stroke="rgb(235,240,242)" stroke-width="1" opacity="1" d="M 61.5 51 L 61.5 52 L 61.5 51 Z " /><path fill="rgb(235,240,242)" stroke="rgb(235,240,242)" stroke-width="1" opacity="1" d="M 112.5 51 L 112.5 52 L 112.5 51 Z " /><path fill="rgb(235,240,242)" stroke="rgb(235,240,242)" stroke-width="1" opacity="1" d="M 123.5 51 Q 125 52 122.5 53 Q 121 52 123.5 51 Z " /><path fill="rgb(235,240,242)" stroke="rgb(235,240,242)" stroke-width="1" opacity="1" d="M 4.5 53 Q 7 54 5.5 55 Q 3 54 4.5 53 Z " /><path fill="rgb(235,240,242)" stroke="rgb(235,240,242)" stroke-width="1" opacity="1" d="M 80.5 54 Q 83 55 81.5 56 Q 79 55 80.5 54 Z " /><path fill="rgb(235,240,242)" stroke="rgb(235,240,242)" stroke-width="1" opacity="1" d="M 98.5 54 L 98.5 55 L 98.5 54 Z " /><path fill="rgb(235,240,242)" stroke="rgb(235,240,242)" stroke-width="1" opacity="1" d="M 109.5 54 L 109.5 55 L 109.5 54 Z " /><path fill="rgb(235,240,242)" stroke="rgb(235,240,242)" stroke-width="1" opacity="1" d="M 15.5 55 L 15.5 56 L 15.5 55 Z " /><path fill="rgb(235,240,242)" stroke="rgb(235,240,242)" stroke-width="1" opacity="1" d="M 120.5 55 L 120.5 56 L 120.5 55 Z " /><path fill="rgb(235,240,242)" stroke="rgb(235,240,242)" stroke-width="1" opacity="1" d="M 18.5 56 L 18.5 57 L 18.5 56 Z " /><path fill="rgb(235,240,242)" stroke="rgb(235,240,242)" stroke-width="1" opacity="1" d="M 21.5 57 L 21.5 58 L 21.5 57 Z " /><path fill="rgb(235,240,242)" stroke="rgb(235,240,242)" stroke-width="1" opacity="1" d="M 8.5 58 L 8.5 59 L 8.5 58 Z " /><path fill="rgb(235,240,242)" stroke="rgb(235,240,242)" stroke-width="1" opacity="1" d="M 23.5 58 L 23.5 59 L 23.5 58 Z " /><path fill="rgb(235,240,242)" stroke="rgb(235,240,242)" stroke-width="1" opacity="1" d="M 60.5 58 L 60 59.5 L 62 61.5 L 61.5 62 L 59 59.5 L 60.5 58 Z " /><path fill="rgb(235,240,242)" stroke="rgb(235,240,242)" stroke-width="1" opacity="1" d="M 83.5 58 L 83.5 59 L 83.5 58 Z " /><path fill="rgb(235,240,242)" stroke="rgb(235,240,242)" stroke-width="1" opacity="1" d="M 101.5 58 L 101.5 59 L 101.5 58 Z " /><path fill="rgb(235,240,242)" stroke="rgb(235,240,242)" stroke-width="1" opacity="1" d="M 26.5 59 L 26.5 60 L 26.5 59 Z " /><path fill="rgb(235,240,242)" stroke="rgb(235,240,242)" stroke-width="1" opacity="1" d="M 117.5 59 L 117.5 60 L 117.5 59 Z " /><path fill="rgb(235,240,242)" stroke="rgb(235,240,242)" stroke-width="1" opacity="1" d="M 29.5 60 L 30 61.5 L 29 61.5 L 29.5 60 Z " /><path fill="rgb(235,240,242)" stroke="rgb(235,240,242)" stroke-width="1" opacity="1" d="M 74.5 61 Q 77.25 62.25 75 63.5 L 74.5 75 L 74.5 61 Z " /><path fill="rgb(235,240,242)" stroke="rgb(235,240,242)" stroke-width="1" opacity="1" d="M 9.5 62 Q 11 63 8.5 64 Q 7 63 9.5 62 Z " /><path fill="rgb(235,240,242)" stroke="rgb(235,240,242)" stroke-width="1" opacity="1" d="M 26.5 62 L 26.5 63 L 26.5 62 Z " /><path fill="rgb(235,240,242)" stroke="rgb(235,240,242)" stroke-width="1" opacity="1" d="M 104.5 62 L 104.5 63 L 104.5 62 Z " /><path fill="rgb(235,240,242)" stroke="rgb(235,240,242)" stroke-width="1" opacity="1" d="M 24.5 63 L 24.5 64 L 24.5 63 Z " /><path fill="rgb(235,240,242)" stroke="rgb(235,240,242)" stroke-width="1" opacity="1" d="M 21.5 64 L 21.5 65 L 21.5 64 Z " /><path fill="rgb(235,240,242)" stroke="rgb(235,240,242)" stroke-width="1" opacity="1" d="M 114.5 64 L 115 74.5 L 114 74.5 L 114.5 64 Z " /><path fill="rgb(235,240,242)" stroke="rgb(235,240,242)" stroke-width="1" opacity="1" d="M 63.5 65 L 63.5 66 L 63.5 65 Z " /><path fill="rgb(235,240,242)" stroke="rgb(235,240,242)" stroke-width="1" opacity="1" d="M 6.5 66 L 6.5 67 L 6.5 66 Z " /><path fill="rgb(235,240,242)" stroke="rgb(235,240,242)" stroke-width="1" opacity="1" d="M 16.5 66 L 16.5 67 L 16.5 66 Z " /><path fill="rgb(235,240,242)" stroke="rgb(235,240,242)" stroke-width="1" opacity="1" d="M 78.5 66 L 78.5 67 L 78.5 66 Z " /><path fill="rgb(235,240,242)" stroke="rgb(235,240,242)" stroke-width="1" opacity="1" d="M 13.5 67 L 13.5 68 L 13.5 67 Z " /><path fill="rgb(235,240,242)" stroke="rgb(235,240,242)" stroke-width="1" opacity="1" d="M 52.5 67 L 52.5 68 L 52.5 67 Z " /><path fill="rgb(235,240,242)" stroke="rgb(235,240,242)" stroke-width="1" opacity="1" d="M 4.5 68 L 4.5 69 L 4.5 68 Z " /><path fill="rgb(235,240,242)" stroke="rgb(235,240,242)" stroke-width="1" opacity="1" d="M 63.5 68 L 63.5 69 L 63.5 68 Z " /><path fill="rgb(235,240,242)" stroke="rgb(235,240,242)" stroke-width="1" opacity="1" d="M 8.5 69 L 8.5 70 L 8.5 69 Z " /><path fill="rgb(235,240,242)" stroke="rgb(235,240,242)" stroke-width="1" opacity="1" d="M 3.5 70 L 3.5 71 L 3.5 70 Z " /><path fill="rgb(235,240,242)" stroke="rgb(235,240,242)" stroke-width="1" opacity="1" d="M 6.5 70 L 6.5 71 L 6.5 70 Z " /><path fill="rgb(235,240,242)" stroke="rgb(235,240,242)" stroke-width="1" opacity="1" d="M 62.5 70 L 62.5 71 L 62.5 70 Z " /><path fill="rgb(235,240,242)" stroke="rgb(235,240,242)" stroke-width="1" opacity="1" d="M 81.5 70 L 81.5 71 L 81.5 70 Z " /><path fill="rgb(235,240,242)" stroke="rgb(235,240,242)" stroke-width="1" opacity="1" d="M 33.5 74 L 33.5 75 L 33.5 74 Z " /><path fill="rgb(235,240,242)" stroke="rgb(235,240,242)" stroke-width="1" opacity="1" d="M 56.5 74 L 56.5 75 L 56.5 74 Z " /><path fill="rgb(235,240,242)" stroke="rgb(235,240,242)" stroke-width="1" opacity="1" d="M 84.5 74 L 84.5 75 L 84.5 74 Z " /><path fill="rgb(235,240,242)" stroke="rgb(235,240,242)" stroke-width="1" opacity="1" d="M 94.5 74 L 94.5 75 L 94.5 74 Z " /><path fill="rgb(235,240,242)" stroke="rgb(235,240,242)" stroke-width="1" opacity="1" d="M 105.5 74 L 105.5 75 L 105.5 74 Z " /><path fill="rgb(254,255,255)" stroke="rgb(254,255,255)" stroke-width="1" opacity="1" d="M 114.5 48 Q 116 49 113.5 50 Q 112 49 114.5 48 Z " /><path fill="rgb(254,255,255)" stroke="rgb(254,255,255)" stroke-width="1" opacity="1" d="M 8.5 52 L 8.5 53 L 8.5 52 Z " /><path fill="rgb(254,255,255)" stroke="rgb(254,255,255)" stroke-width="1" opacity="1" d="M 79.5 52 L 79.5 53 L 79.5 52 Z " /><path fill="rgb(254,255,255)" stroke="rgb(254,255,255)" stroke-width="1" opacity="1" d="M 111.5 52 Q 113 53 110.5 54 Q 109 53 111.5 52 Z " /><path fill="rgb(254,255,255)" stroke="rgb(254,255,255)" stroke-width="1" opacity="1" d="M 11.5 53 L 11.5 54 L 11.5 53 Z " /><path fill="rgb(254,255,255)" stroke="rgb(254,255,255)" stroke-width="1" opacity="1" d="M 97.5 53 L 97.5 54 L 97.5 53 Z " /><path fill="rgb(254,255,255)" stroke="rgb(254,255,255)" stroke-width="1" opacity="1" d="M 13.5 54 L 13.5 55 L 13.5 54 Z " /><path fill="rgb(254,255,255)" stroke="rgb(254,255,255)" stroke-width="1" opacity="1" d="M 16.5 55 L 16.5 56 L 16.5 55 Z " /><path fill="rgb(254,255,255)" stroke="rgb(254,255,255)" stroke-width="1" opacity="1" d="M 19.5 56 L 19.5 57 L 19.5 56 Z " /><path fill="rgb(254,255,255)" stroke="rgb(254,255,255)" stroke-width="1" opacity="1" d="M 82.5 56 L 82.5 57 L 82.5 56 Z " /><path fill="rgb(254,255,255)" stroke="rgb(254,255,255)" stroke-width="1" opacity="1" d="M 7.5 57 L 7.5 58 L 7.5 57 Z " /><path fill="rgb(254,255,255)" stroke="rgb(254,255,255)" stroke-width="1" opacity="1" d="M 84.5 59 Q 87 60 85.5 61 Q 83 60 84.5 59 Z " /><path fill="rgb(254,255,255)" stroke="rgb(254,255,255)" stroke-width="1" opacity="1" d="M 102.5 60 L 102.5 61 L 102.5 60 Z " /><path fill="rgb(254,255,255)" stroke="rgb(254,255,255)" stroke-width="1" opacity="1" d="M 115.5 62 L 115.5 63 L 115.5 62 Z " /><path fill="rgb(254,255,255)" stroke="rgb(254,255,255)" stroke-width="1" opacity="1" d="M 7.5 64 L 7.5 65 L 7.5 64 Z " /><path fill="rgb(254,255,255)" stroke="rgb(254,255,255)" stroke-width="1" opacity="1" d="M 53.5 64 L 53.5 65 L 53.5 64 Z " /><path fill="rgb(254,255,255)" stroke="rgb(254,255,255)" stroke-width="1" opacity="1" d="M 63.5 64 L 63.5 65 L 63.5 64 Z " /><path fill="rgb(254,255,255)" stroke="rgb(254,255,255)" stroke-width="1" opacity="1" d="M 19.5 65 L 19.5 66 L 19.5 65 Z " /><path fill="rgb(254,255,255)" stroke="rgb(254,255,255)" stroke-width="1" opacity="1" d="M 17.5 66 L 17.5 67 L 17.5 66 Z " /><path fill="rgb(254,255,255)" stroke="rgb(254,255,255)" stroke-width="1" opacity="1" d="M 5.5 67 L 5.5 68 L 5.5 67 Z " /><path fill="rgb(254,255,255)" stroke="rgb(254,255,255)" stroke-width="1" opacity="1" d="M 14.5 67 L 14.5 68 L 14.5 67 Z " /><path fill="rgb(254,255,255)" stroke="rgb(254,255,255)" stroke-width="1" opacity="1" d="M 11.5 68 L 11.5 69 L 11.5 68 Z " /><path fill="rgb(254,255,255)" stroke="rgb(254,255,255)" stroke-width="1" opacity="1" d="M 3.5 71 L 3.5 72 L 3.5 71 Z " /><path fill="rgb(254,255,255)" stroke="rgb(254,255,255)" stroke-width="1" opacity="1" d="M 59.5 73 L 59.5 74 L 59.5 73 Z " /><path fill="rgb(254,255,255)" stroke="rgb(254,255,255)" stroke-width="1" opacity="1" d="M 83.5 73 L 83.5 74 L 83.5 73 Z " /><path fill="rgb(255,255,255)" stroke="rgb(255,255,255)" stroke-width="1" opacity="1" d="M 0 0 L 128 0 L 128 128 L 0 128 L 0 0 Z M 33 48 L 33 75 L 57 75 L 60 74 L 64 69 L 64 65 L 60 60 L 62 57 L 62 52 L 61 49 L 59 48 L 33 48 Z M 66 48 L 66 75 L 75 75 L 76 63 L 83 74 L 85 75 L 95 75 L 96 51 L 102 60 Q 101 62 104 61 L 105 64 L 105 75 L 115 75 L 115 64 L 126 49 L 115 48 L 110 54 L 107 51 L 105 48 L 86 48 L 86 60 L 80 53 L 76 48 L 66 48 Z M 4 51 L 4 54 L 10 61 L 3 71 L 4 72 L 10 69 L 18 67 L 28 62 Q 31 63 30 60 L 25 59 L 20 56 L 4 51 Z " /><path fill="rgb(255,255,255)" stroke="rgb(255,255,255)" stroke-width="1" opacity="1" d="M 42 54 L 52.5 54 Q 53.38 54.04 53 57 L 42.5 57 Q 41.63 56.96 42 54 Z " /><path fill="rgb(255,255,255)" stroke="rgb(255,255,255)" stroke-width="1" opacity="1" d="M 42 64 L 52.5 64 L 54 65.5 Q 54.75 67.75 52.5 67 L 51.5 68 L 42 68 L 42 64 Z " /><path fill="rgb(62,144,161)" stroke="rgb(62,144,161)" stroke-width="1" opacity="1" d="M 56.5 48 L 56.5 49 L 56.5 48 Z " /><path fill="rgb(62,144,161)" stroke="rgb(62,144,161)" stroke-width="1" opacity="1" d="M 75.5 48 L 75.5 49 L 75.5 48 Z " /><path fill="rgb(62,144,161)" stroke="rgb(62,144,161)" stroke-width="1" opacity="1" d="M 94.5 48 Q 97 49 95.5 50 Q 93 49 94.5 48 Z " /><path fill="rgb(62,144,161)" stroke="rgb(62,144,161)" stroke-width="1" opacity="1" d="M 104.5 48 L 104.5 49 L 104.5 48 Z " /><path fill="rgb(62,144,161)" stroke="rgb(62,144,161)" stroke-width="1" opacity="1" d="M 115.5 48 L 116 48.5 L 113.5 51 L 113 50.5 L 115.5 48 Z " /><path fill="rgb(62,144,161)" stroke="rgb(62,144,161)" stroke-width="1" opacity="1" d="M 59.5 49 Q 62 50 60.5 51 Q 58 50 59.5 49 Z " /><path fill="rgb(62,144,161)" stroke="rgb(62,144,161)" stroke-width="1" opacity="1" d="M 123.5 50 L 123.5 51 L 123.5 50 Z " /><path fill="rgb(62,144,161)" stroke="rgb(62,144,161)" stroke-width="1" opacity="1" d="M 106.5 51 Q 109 52 107.5 53 Q 105 52 106.5 51 Z " /><path fill="rgb(62,144,161)" stroke="rgb(62,144,161)" stroke-width="1" opacity="1" d="M 5 52 L 27 60 Q 28.13 62.67 25.5 62 L 17.5 66 L 9.5 68 L 5 70 L 5 68.5 L 11 60.5 L 5 53.5 L 5 52 Z " /><path fill="rgb(62,144,161)" stroke="rgb(62,144,161)" stroke-width="1" opacity="1" d="M 61.5 52 L 62 55.5 L 61 55.5 L 61.5 52 Z " /><path fill="rgb(62,144,161)" stroke="rgb(62,144,161)" stroke-width="1" opacity="1" d="M 78.5 52 Q 81 53 79.5 54 Q 77 53 78.5 52 Z " /><path fill="rgb(62,144,161)" stroke="rgb(62,144,161)" stroke-width="1" opacity="1" d="M 52.5 53 L 52.5 54 L 52.5 53 Z " /><path fill="rgb(62,144,161)" stroke="rgb(62,144,161)" stroke-width="1" opacity="1" d="M 98.5 53 L 98.5 54 L 98.5 53 Z " /><path fill="rgb(62,144,161)" stroke="rgb(62,144,161)" stroke-width="1" opacity="1" d="M 41.5 54 L 42 56.5 L 41 56.5 L 41.5 54 Z " /><path fill="rgb(62,144,161)" stroke="rgb(62,144,161)" stroke-width="1" opacity="1" d="M 110.5 54 Q 112 55 109.5 56 Q 108 55 110.5 54 Z " /><path fill="rgb(62,144,161)" stroke="rgb(62,144,161)" stroke-width="1" opacity="1" d="M 120.5 54 L 120.5 55 L 120.5 54 Z " /><path fill="rgb(62,144,161)" stroke="rgb(62,144,161)" stroke-width="1" opacity="1" d="M 53.5 55 L 53.5 56 L 53.5 55 Z " /><path fill="rgb(62,144,161)" stroke="rgb(62,144,161)" stroke-width="1" opacity="1" d="M 81.5 56 Q 84 57 82.5 58 Q 80 57 81.5 56 Z " /><path fill="rgb(62,144,161)" stroke="rgb(62,144,161)" stroke-width="1" opacity="1" d="M 52.5 57 L 52.5 58 L 52.5 57 Z " /><path fill="rgb(62,144,161)" stroke="rgb(62,144,161)" stroke-width="1" opacity="1" d="M 60.5 57 L 60.5 58 L 60.5 57 Z " /><path fill="rgb(62,144,161)" stroke="rgb(62,144,161)" stroke-width="1" opacity="1" d="M 101.5 57 L 101.5 58 L 101.5 57 Z " /><path fill="rgb(62,144,161)" stroke="rgb(62,144,161)" stroke-width="1" opacity="1" d="M 117.5 58 L 117.5 59 L 117.5 58 Z " /><path fill="rgb(62,144,161)" stroke="rgb(62,144,161)" stroke-width="1" opacity="1" d="M 58.5 59 Q 61 60 59.5 61 Q 57 60 58.5 59 Z " /><path fill="rgb(62,144,161)" stroke="rgb(62,144,161)" stroke-width="1" opacity="1" d="M 83.5 59 L 86 61.5 L 85.5 62 L 83 59.5 L 83.5 59 Z " /><path fill="rgb(62,144,161)" stroke="rgb(62,144,161)" stroke-width="1" opacity="1" d="M 74.5 60 Q 77 61 75.5 62 Q 73 61 74.5 60 Z " /><path fill="rgb(62,144,161)" stroke="rgb(62,144,161)" stroke-width="1" opacity="1" d="M 103.5 60 Q 106 61 104.5 62 Q 102 61 103.5 60 Z " /><path fill="rgb(62,144,161)" stroke="rgb(62,144,161)" stroke-width="1" opacity="1" d="M 115.5 61 L 115.5 62 L 115.5 61 Z " /><path fill="rgb(62,144,161)" stroke="rgb(62,144,161)" stroke-width="1" opacity="1" d="M 105.5 63 L 106 73.5 L 105 73.5 L 105.5 63 Z " /><path fill="rgb(62,144,161)" stroke="rgb(62,144,161)" stroke-width="1" opacity="1" d="M 41.5 64 L 42 67.5 L 41 67.5 L 41.5 64 Z " /><path fill="rgb(62,144,161)" stroke="rgb(62,144,161)" stroke-width="1" opacity="1" d="M 54.5 65 L 55 66.5 Q 54 69 53 67.5 L 54.5 65 Z " /><path fill="rgb(62,144,161)" stroke="rgb(62,144,161)" stroke-width="1" opacity="1" d="M 78.5 65 L 78.5 66 L 78.5 65 Z " /><path fill="rgb(62,144,161)" stroke="rgb(62,144,161)" stroke-width="1" opacity="1" d="M 62.5 69 L 62.5 70 L 62.5 69 Z " /><path fill="rgb(62,144,161)" stroke="rgb(62,144,161)" stroke-width="1" opacity="1" d="M 81.5 69 L 81.5 70 L 81.5 69 Z " /><path fill="rgb(62,144,161)" stroke="rgb(62,144,161)" stroke-width="1" opacity="1" d="M 83.5 72 L 83.5 73 L 83.5 72 Z " /><path fill="rgb(62,144,161)" stroke="rgb(62,144,161)" stroke-width="1" opacity="1" d="M 57.5 73 L 57.5 74 L 57.5 73 Z " /><path fill="rgb(176,194,202)" stroke="rgb(176,194,202)" stroke-width="1" opacity="1" d="M 33.5 48 L 34 74 L 56 74.5 L 34.5 75 L 33 73.5 L 33.5 48 Z " /><path fill="rgb(176,194,202)" stroke="rgb(176,194,202)" stroke-width="1" opacity="1" d="M 57.5 48 L 57.5 49 L 57.5 48 Z " /><path fill="rgb(176,194,202)" stroke="rgb(176,194,202)" stroke-width="1" opacity="1" d="M 76.5 49 L 76.5 50 L 76.5 49 Z " /><path fill="rgb(176,194,202)" stroke="rgb(176,194,202)" stroke-width="1" opacity="1" d="M 94.5 49 L 95 73.5 L 93.5 75 L 85.5 75 L 85.5 74 L 94 74 L 94.5 49 Z " /><path fill="rgb(176,194,202)" stroke="rgb(176,194,202)" stroke-width="1" opacity="1" d="M 105.5 49 L 105.5 50 L 105.5 49 Z " /><path fill="rgb(176,194,202)" stroke="rgb(176,194,202)" stroke-width="1" opacity="1" d="M 124.5 49 L 124.5 50 L 124.5 49 Z " /><path fill="rgb(176,194,202)" stroke="rgb(176,194,202)" stroke-width="1" opacity="1" d="M 4.5 51 L 5 52.5 L 4 52.5 L 4.5 51 Z " /><path fill="rgb(176,194,202)" stroke="rgb(176,194,202)" stroke-width="1" opacity="1" d="M 96.5 51 Q 99 52 97.5 53 Q 95 52 96.5 51 Z " /><path fill="rgb(176,194,202)" stroke="rgb(176,194,202)" stroke-width="1" opacity="1" d="M 7.5 52 L 7.5 53 L 7.5 52 Z " /><path fill="rgb(176,194,202)" stroke="rgb(176,194,202)" stroke-width="1" opacity="1" d="M 9.5 53 L 11 53.5 L 9.5 54 L 9.5 53 Z " /><path fill="rgb(176,194,202)" stroke="rgb(176,194,202)" stroke-width="1" opacity="1" d="M 42.5 53 L 52 53.5 L 42.5 54 L 42.5 53 Z " /><path fill="rgb(176,194,202)" stroke="rgb(176,194,202)" stroke-width="1" opacity="1" d="M 108.5 53 L 108.5 54 L 108.5 53 Z " /><path fill="rgb(176,194,202)" stroke="rgb(176,194,202)" stroke-width="1" opacity="1" d="M 121.5 53 L 121.5 54 L 121.5 53 Z " /><path fill="rgb(176,194,202)" stroke="rgb(176,194,202)" stroke-width="1" opacity="1" d="M 12.5 54 L 12.5 55 L 12.5 54 Z " /><path fill="rgb(176,194,202)" stroke="rgb(176,194,202)" stroke-width="1" opacity="1" d="M 6.5 55 Q 9 56 7.5 57 Q 5 56 6.5 55 Z " /><path fill="rgb(176,194,202)" stroke="rgb(176,194,202)" stroke-width="1" opacity="1" d="M 14.5 55 L 14.5 56 L 14.5 55 Z " /><path fill="rgb(176,194,202)" stroke="rgb(176,194,202)" stroke-width="1" opacity="1" d="M 99.5 55 Q 102 56 100.5 57 Q 98 56 99.5 55 Z " /><path fill="rgb(176,194,202)" stroke="rgb(176,194,202)" stroke-width="1" opacity="1" d="M 17.5 56 L 17.5 57 L 17.5 56 Z " /><path fill="rgb(176,194,202)" stroke="rgb(176,194,202)" stroke-width="1" opacity="1" d="M 61.5 56 L 61.5 57 L 61.5 56 Z " /><path fill="rgb(176,194,202)" stroke="rgb(176,194,202)" stroke-width="1" opacity="1" d="M 119.5 56 Q 121 57 118.5 58 Q 117 57 119.5 56 Z " /><path fill="rgb(176,194,202)" stroke="rgb(176,194,202)" stroke-width="1" opacity="1" d="M 20.5 57 L 20.5 58 L 20.5 57 Z " /><path fill="rgb(176,194,202)" stroke="rgb(176,194,202)" stroke-width="1" opacity="1" d="M 42.5 57 L 52 57.5 L 42.5 58 L 42.5 57 Z " /><path fill="rgb(176,194,202)" stroke="rgb(176,194,202)" stroke-width="1" opacity="1" d="M 22.5 58 L 22.5 59 L 22.5 58 Z " /><path fill="rgb(176,194,202)" stroke="rgb(176,194,202)" stroke-width="1" opacity="1" d="M 9.5 59 L 11 61.5 L 10 61.5 L 9.5 59 Z " /><path fill="rgb(176,194,202)" stroke="rgb(176,194,202)" stroke-width="1" opacity="1" d="M 25.5 59 L 25.5 60 L 25.5 59 Z " /><path fill="rgb(176,194,202)" stroke="rgb(176,194,202)" stroke-width="1" opacity="1" d="M 102.5 59 L 102.5 60 L 102.5 59 Z " /><path fill="rgb(176,194,202)" stroke="rgb(176,194,202)" stroke-width="1" opacity="1" d="M 27 60 Q 30 59 29 62 Q 26 63 27 60 Z " /><path fill="rgb(176,194,202)" stroke="rgb(176,194,202)" stroke-width="1" opacity="1" d="M 116.5 60 L 116.5 61 L 116.5 60 Z " /><path fill="rgb(176,194,202)" stroke="rgb(176,194,202)" stroke-width="1" opacity="1" d="M 25.5 62 L 25.5 63 L 25.5 62 Z " /><path fill="rgb(176,194,202)" stroke="rgb(176,194,202)" stroke-width="1" opacity="1" d="M 23.5 63 L 23.5 64 L 23.5 63 Z " /><path fill="rgb(176,194,202)" stroke="rgb(176,194,202)" stroke-width="1" opacity="1" d="M 42.5 63 L 53 63.5 L 42.5 64 L 42.5 63 Z " /><path fill="rgb(176,194,202)" stroke="rgb(176,194,202)" stroke-width="1" opacity="1" d="M 62.5 63 L 62.5 64 L 62.5 63 Z " /><path fill="rgb(176,194,202)" stroke="rgb(176,194,202)" stroke-width="1" opacity="1" d="M 76.5 63 Q 79 64 77.5 65 Q 75 64 76.5 63 Z " /><path fill="rgb(176,194,202)" stroke="rgb(176,194,202)" stroke-width="1" opacity="1" d="M 114.5 63 L 114.5 64 L 114.5 63 Z " /><path fill="rgb(176,194,202)" stroke="rgb(176,194,202)" stroke-width="1" opacity="1" d="M 20.5 64 L 20.5 65 L 20.5 64 Z " /><path fill="rgb(176,194,202)" stroke="rgb(176,194,202)" stroke-width="1" opacity="1" d="M 7.5 65 L 7.5 66 L 7.5 65 Z " /><path fill="rgb(176,194,202)" stroke="rgb(176,194,202)" stroke-width="1" opacity="1" d="M 18.5 65 L 18.5 66 L 18.5 65 Z " /><path fill="rgb(176,194,202)" stroke="rgb(176,194,202)" stroke-width="1" opacity="1" d="M 15.5 66 L 15.5 67 L 15.5 66 Z " /><path fill="rgb(176,194,202)" stroke="rgb(176,194,202)" stroke-width="1" opacity="1" d="M 63.5 66 L 64 67.5 L 63 67.5 L 63.5 66 Z " /><path fill="rgb(176,194,202)" stroke="rgb(176,194,202)" stroke-width="1" opacity="1" d="M 12.5 67 L 12.5 68 L 12.5 67 Z " /><path fill="rgb(176,194,202)" stroke="rgb(176,194,202)" stroke-width="1" opacity="1" d="M 79.5 67 Q 82 68 80.5 69 Q 78 68 79.5 67 Z " /><path fill="rgb(176,194,202)" stroke="rgb(176,194,202)" stroke-width="1" opacity="1" d="M 9.5 68 L 11 68.5 L 9.5 69 L 9.5 68 Z " /><path fill="rgb(176,194,202)" stroke="rgb(176,194,202)" stroke-width="1" opacity="1" d="M 4.5 69 Q 7 70 5.5 71 Q 2.71 71.67 4.5 69 Z " /><path fill="rgb(176,194,202)" stroke="rgb(176,194,202)" stroke-width="1" opacity="1" d="M 7.5 69 L 7.5 70 L 7.5 69 Z " /><path fill="rgb(176,194,202)" stroke="rgb(176,194,202)" stroke-width="1" opacity="1" d="M 61.5 71 Q 63 72 60.5 73 Q 59 72 61.5 71 Z " /><path fill="rgb(176,194,202)" stroke="rgb(176,194,202)" stroke-width="1" opacity="1" d="M 82.5 71 L 82.5 72 L 82.5 71 Z " /><path fill="rgb(176,194,202)" stroke="rgb(176,194,202)" stroke-width="1" opacity="1" d="M 58.5 73 L 58.5 74 L 58.5 73 Z " /><path fill="rgb(176,194,202)" stroke="rgb(176,194,202)" stroke-width="1" opacity="1" d="M 66.5 74 L 74 74.5 L 66.5 75 L 66.5 74 Z " /><path fill="rgb(176,194,202)" stroke="rgb(176,194,202)" stroke-width="1" opacity="1" d="M 106.5 74 L 114 74.5 L 106.5 75 L 106.5 74 Z " /><path fill="rgb(27,59,81)" stroke="rgb(27,59,81)" stroke-width="1" opacity="1" d="M 54.5 48 L 56 48.5 L 54.5 49 L 54.5 48 Z " /><path fill="rgb(27,59,81)" stroke="rgb(27,59,81)" stroke-width="1" opacity="1" d="M 66.5 48 L 67 73.5 L 66 73.5 L 66.5 48 Z " /><path fill="rgb(27,59,81)" stroke="rgb(27,59,81)" stroke-width="1" opacity="1" d="M 86.5 48 L 87 62.5 L 86 62.5 L 86.5 48 Z " /><path fill="rgb(27,59,81)" stroke="rgb(27,59,81)" stroke-width="1" opacity="1" d="M 124.5 48 L 124.5 49 L 124.5 48 Z " /><path fill="rgb(27,59,81)" stroke="rgb(27,59,81)" stroke-width="1" opacity="1" d="M 96.5 50 L 96.5 51 L 96.5 50 Z " /><path fill="rgb(27,59,81)" stroke="rgb(27,59,81)" stroke-width="1" opacity="1" d="M 105.5 50 L 105.5 51 L 105.5 50 Z " /><path fill="rgb(27,59,81)" stroke="rgb(27,59,81)" stroke-width="1" opacity="1" d="M 77.5 51 L 77.5 52 L 77.5 51 Z " /><path fill="rgb(27,59,81)" stroke="rgb(27,59,81)" stroke-width="1" opacity="1" d="M 113.5 51 L 114 51.5 L 111.5 54 L 111 53.5 L 113.5 51 Z " /><path fill="rgb(27,59,81)" stroke="rgb(27,59,81)" stroke-width="1" opacity="1" d="M 122.5 51 Q 124 52 121.5 53 Q 120 52 122.5 51 Z " /><path fill="rgb(27,59,81)" stroke="rgb(27,59,81)" stroke-width="1" opacity="1" d="M 41.5 53 L 41.5 54 L 41.5 53 Z " /><path fill="rgb(27,59,81)" stroke="rgb(27,59,81)" stroke-width="1" opacity="1" d="M 53.5 54 L 53.5 55 L 53.5 54 Z " /><path fill="rgb(27,59,81)" stroke="rgb(27,59,81)" stroke-width="1" opacity="1" d="M 80.5 55 L 80.5 56 L 80.5 55 Z " /><path fill="rgb(27,59,81)" stroke="rgb(27,59,81)" stroke-width="1" opacity="1" d="M 119.5 55 L 119.5 56 L 119.5 55 Z " /><path fill="rgb(27,59,81)" stroke="rgb(27,59,81)" stroke-width="1" opacity="1" d="M 53.5 56 L 53.5 57 L 53.5 56 Z " /><path fill="rgb(27,59,81)" stroke="rgb(27,59,81)" stroke-width="1" opacity="1" d="M 41.5 57 L 41.5 58 L 41.5 57 Z " /><path fill="rgb(27,59,81)" stroke="rgb(27,59,81)" stroke-width="1" opacity="1" d="M 59.5 58 L 59.5 59 L 59.5 58 Z " /><path fill="rgb(27,59,81)" stroke="rgb(27,59,81)" stroke-width="1" opacity="1" d="M 57.5 59 Q 60 60 58.5 61 Q 56 60 57.5 59 Z " /><path fill="rgb(27,59,81)" stroke="rgb(27,59,81)" stroke-width="1" opacity="1" d="M 116.5 59 L 116.5 60 L 116.5 59 Z " /><path fill="rgb(27,59,81)" stroke="rgb(27,59,81)" stroke-width="1" opacity="1" d="M 60.5 61 Q 63 62 61.5 63 Q 59 62 60.5 61 Z " /><path fill="rgb(27,59,81)" stroke="rgb(27,59,81)" stroke-width="1" opacity="1" d="M 76.5 62 L 76.5 63 L 76.5 62 Z " /><path fill="rgb(27,59,81)" stroke="rgb(27,59,81)" stroke-width="1" opacity="1" d="M 105.5 62 L 105.5 63 L 105.5 62 Z " /><path fill="rgb(27,59,81)" stroke="rgb(27,59,81)" stroke-width="1" opacity="1" d="M 114.5 62 L 114.5 63 L 114.5 62 Z " /><path fill="rgb(27,59,81)" stroke="rgb(27,59,81)" stroke-width="1" opacity="1" d="M 41.5 63 L 41.5 64 L 41.5 63 Z " /><path fill="rgb(27,59,81)" stroke="rgb(27,59,81)" stroke-width="1" opacity="1" d="M 53.5 63 Q 56 64 54.5 65 Q 52 64 53.5 63 Z " /><path fill="rgb(27,59,81)" stroke="rgb(27,59,81)" stroke-width="1" opacity="1" d="M 62.5 64 L 62.5 65 L 62.5 64 Z " /><path fill="rgb(27,59,81)" stroke="rgb(27,59,81)" stroke-width="1" opacity="1" d="M 79.5 66 L 79.5 67 L 79.5 66 Z " /><path fill="rgb(27,59,81)" stroke="rgb(27,59,81)" stroke-width="1" opacity="1" d="M 42.5 68 L 52 68.5 L 42.5 69 L 42.5 68 Z " /><path fill="rgb(27,59,81)" stroke="rgb(27,59,81)" stroke-width="1" opacity="1" d="M 61.5 70 L 61.5 71 L 61.5 70 Z " /><path fill="rgb(27,59,81)" stroke="rgb(27,59,81)" stroke-width="1" opacity="1" d="M 82.5 70 L 82.5 71 L 82.5 70 Z " /><path fill="rgb(27,59,81)" stroke="rgb(27,59,81)" stroke-width="1" opacity="1" d="M 59.5 72 L 59.5 73 L 59.5 72 Z " /><path fill="rgb(27,59,81)" stroke="rgb(27,59,81)" stroke-width="1" opacity="1" d="M 84.5 73 L 84.5 74 L 84.5 73 Z " /><path fill="rgb(0,36,61)" stroke="rgb(0,36,61)" stroke-width="1" opacity="1" d="M 34 48 L 53.5 48 Q 54.5 50 58.5 49 L 61 51.5 Q 62.25 57.75 58.5 59 L 57 59.5 L 62 63.5 L 63 68.5 Q 60.5 69.5 61 72 L 56.5 74 L 34 74 L 34 48 Z M 41 53 L 41 58 L 53 58 Q 55 58 54 55 L 53 53 L 41 53 Z M 41 63 L 41 68 L 43 69 L 52 69 L 54 68 Q 55 68 55 65 L 54 63 L 41 63 Z " /><path fill="rgb(0,36,61)" stroke="rgb(0,36,61)" stroke-width="1" opacity="1" d="M 67 48 L 74.5 48 L 77 50.5 L 86.5 63 L 87 48 L 93.5 48 L 94 48.5 L 94 74 L 85.5 74 L 83 71.5 L 74.5 60 L 74 74 L 67.5 74 L 67 73.5 L 67 48 Z " /><path fill="rgb(0,36,61)" stroke="rgb(0,36,61)" stroke-width="1" opacity="1" d="M 95.5 48 L 103.5 48 L 105 49.5 L 109.5 56 L 116.5 48 L 123.5 48 L 124 49.5 L 114 62.5 L 114 74 L 106 74 L 106 62.5 L 99 54.5 L 95 48.5 L 95.5 48 Z " /></svg>