<svg width="48" height="48" version="1.1" xmlns="http://www.w3.org/2000/svg" desc="Created with imagetracer.js version 1.2.6" ><path fill="rgb(0,0,0)" stroke="rgb(0,0,0)" stroke-width="1" opacity="0" d="M 0 0 L 6 0.5 L 1 4.5 L 0.5 6 L 0 0 Z " /><path fill="rgb(0,0,0)" stroke="rgb(0,0,0)" stroke-width="1" opacity="0" d="M 42.5 0 L 48 0 L 48 5.5 L 47 5.5 L 43.5 1 Q 41.13 0.87 42.5 0 Z " /><path fill="rgb(0,0,0)" stroke="rgb(0,0,0)" stroke-width="1" opacity="0" d="M 10.5 5 L 37.5 5 L 42 8.5 Q 43.83 10.82 43 15 L 48 15 L 48 21 L 38 20.5 Q 39.75 19.75 39 16.5 L 35.5 10 L 32.5 9 L 10.5 9 L 9 10.5 L 9 37.5 L 10.5 39 L 33.5 39 L 38 35.5 Q 39.67 33.67 39 29.5 L 38 27 L 43 27 L 43 37.5 L 39.5 42 L 37.5 43 L 10.5 43 L 6 39.5 L 5 37.5 L 5 10.5 L 8.5 6 L 10.5 5 Z " /><path fill="rgb(0,0,0)" stroke="rgb(0,0,0)" stroke-width="1" opacity="0" d="M 15 15 L 31.5 15 L 33 16.5 Q 33.5 21 32.5 21 L 15 21 L 15 15 Z " /><path fill="rgb(0,0,0)" stroke="rgb(0,0,0)" stroke-width="1" opacity="0" d="M 15 27 L 32.5 27 Q 33.5 27 33 31.5 L 31.5 33 L 15 33 L 15 27 Z " /><path fill="rgb(0,0,0)" stroke="rgb(0,0,0)" stroke-width="1" opacity="0" d="M 0.5 42 L 4.5 47 L 6 47.5 L 0 48 L 0.5 42 Z " /><path fill="rgb(0,0,0)" stroke="rgb(0,0,0)" stroke-width="1" opacity="0" d="M 47.5 42 L 48 48 L 42 47.5 L 47 43.5 L 47.5 42 Z " /><path fill="rgb(17,79,156)" stroke="rgb(17,79,156)" stroke-width="1" opacity="0.9098039215686274" d="M 40.5 1 L 40.5 2 L 40.5 1 Z " /><path fill="rgb(17,79,156)" stroke="rgb(17,79,156)" stroke-width="1" opacity="0.9098039215686274" d="M 42.5 2 L 42.5 3 L 42.5 2 Z " /><path fill="rgb(17,79,156)" stroke="rgb(17,79,156)" stroke-width="1" opacity="0.9098039215686274" d="M 39.5 4 L 39.5 5 L 39.5 4 Z " /><path fill="rgb(17,79,156)" stroke="rgb(17,79,156)" stroke-width="1" opacity="0.9098039215686274" d="M 41.5 5 Q 44 6 42.5 7 Q 40 6 41.5 5 Z " /><path fill="rgb(17,79,156)" stroke="rgb(17,79,156)" stroke-width="1" opacity="0.9098039215686274" d="M 45.5 5 L 45.5 6 L 45.5 5 Z " /><path fill="rgb(17,79,156)" stroke="rgb(17,79,156)" stroke-width="1" opacity="0.9098039215686274" d="M 46.5 7 L 46.5 8 L 46.5 7 Z " /><path fill="rgb(17,79,156)" stroke="rgb(17,79,156)" stroke-width="1" opacity="0.9098039215686274" d="M 43.5 8 L 43.5 9 L 43.5 8 Z " /><path fill="rgb(17,79,156)" stroke="rgb(17,79,156)" stroke-width="1" opacity="0.9098039215686274" d="M 34.5 11 L 37 13.5 L 36.5 14 L 34 11.5 L 34.5 11 Z " /><path fill="rgb(17,79,156)" stroke="rgb(17,79,156)" stroke-width="1" opacity="0.9098039215686274" d="M 33.5 21 L 33.5 22 L 33.5 21 Z " /><path fill="rgb(17,79,156)" stroke="rgb(17,79,156)" stroke-width="1" opacity="0.9098039215686274" d="M 36.5 21 L 37.5 22 L 47 22.5 L 37.5 23 Q 35 22 36.5 21 Z " /><path fill="rgb(17,79,156)" stroke="rgb(17,79,156)" stroke-width="1" opacity="0.9098039215686274" d="M 25.5 22 L 32 22.5 L 25.5 23 L 25.5 22 Z " /><path fill="rgb(17,79,156)" stroke="rgb(17,79,156)" stroke-width="1" opacity="0.9098039215686274" d="M 25.5 25 L 32 25.5 L 25.5 26 L 25.5 25 Z " /><path fill="rgb(17,79,156)" stroke="rgb(17,79,156)" stroke-width="1" opacity="0.9098039215686274" d="M 37.5 25 L 44 25.5 L 37.5 26 L 36.5 27 Q 35 26 37.5 25 Z " /><path fill="rgb(17,79,156)" stroke="rgb(17,79,156)" stroke-width="1" opacity="0.9098039215686274" d="M 33.5 26 L 33.5 27 L 33.5 26 Z " /><path fill="rgb(17,79,156)" stroke="rgb(17,79,156)" stroke-width="1" opacity="0.9098039215686274" d="M 36.5 35 Q 38 36 35.5 37 Q 34 36 36.5 35 Z " /><path fill="rgb(17,79,156)" stroke="rgb(17,79,156)" stroke-width="1" opacity="0.9098039215686274" d="M 43.5 39 L 43.5 40 L 43.5 39 Z " /><path fill="rgb(17,79,156)" stroke="rgb(17,79,156)" stroke-width="1" opacity="0.9098039215686274" d="M 46.5 40 L 46.5 41 L 46.5 40 Z " /><path fill="rgb(17,79,156)" stroke="rgb(17,79,156)" stroke-width="1" opacity="0.9098039215686274" d="M 42.5 41 Q 44 42 41.5 43 Q 40 42 42.5 41 Z " /><path fill="rgb(17,79,156)" stroke="rgb(17,79,156)" stroke-width="1" opacity="0.9098039215686274" d="M 45.5 42 L 45.5 43 L 45.5 42 Z " /><path fill="rgb(17,79,156)" stroke="rgb(17,79,156)" stroke-width="1" opacity="0.9098039215686274" d="M 39.5 43 L 39.5 44 L 39.5 43 Z " /><path fill="rgb(17,79,156)" stroke="rgb(17,79,156)" stroke-width="1" opacity="0.9098039215686274" d="M 42.5 45 L 42.5 46 L 42.5 45 Z " /><path fill="rgb(17,79,156)" stroke="rgb(17,79,156)" stroke-width="1" opacity="0.9098039215686274" d="M 40.5 46 L 40.5 47 L 40.5 46 Z " /><path fill="rgb(0,114,179)" stroke="rgb(0,114,179)" stroke-width="1" opacity="0.09803921568627451" d="M 3.5 2 L 4 2.5 L 2 4.5 L 0.5 8 L 0 6.5 L 3.5 2 Z " /><path fill="rgb(0,114,179)" stroke="rgb(0,114,179)" stroke-width="1" opacity="0.09803921568627451" d="M 0.5 40 L 4 45.5 L 3.5 46 L 1 43.5 Q -0.71 41.96 0.5 40 Z " /><path fill="rgb(4,106,174)" stroke="rgb(4,106,174)" stroke-width="1" opacity="0.8784313725490196" d="M 7.5 1 L 7.5 2 L 7.5 1 Z " /><path fill="rgb(4,106,174)" stroke="rgb(4,106,174)" stroke-width="1" opacity="0.8784313725490196" d="M 5.5 2 L 5.5 3 L 5.5 2 Z " /><path fill="rgb(4,106,174)" stroke="rgb(4,106,174)" stroke-width="1" opacity="0.8784313725490196" d="M 8.5 4 L 8.5 5 L 8.5 4 Z " /><path fill="rgb(4,106,174)" stroke="rgb(4,106,174)" stroke-width="1" opacity="0.8784313725490196" d="M 6.5 5 Q 8 6 5.5 7 Q 4 6 6.5 5 Z " /><path fill="rgb(4,106,174)" stroke="rgb(4,106,174)" stroke-width="1" opacity="0.8784313725490196" d="M 1.5 7 L 1.5 8 L 1.5 7 Z " /><path fill="rgb(4,106,174)" stroke="rgb(4,106,174)" stroke-width="1" opacity="0.8784313725490196" d="M 4.5 8 L 4.5 9 L 4.5 8 Z " /><path fill="rgb(4,106,174)" stroke="rgb(4,106,174)" stroke-width="1" opacity="0.8784313725490196" d="M 14.5 22 L 21 22.5 L 14.5 23 L 14.5 22 Z " /><path fill="rgb(4,106,174)" stroke="rgb(4,106,174)" stroke-width="1" opacity="0.8784313725490196" d="M 14.5 25 L 21 25.5 L 14.5 26 L 14.5 25 Z " /><path fill="rgb(4,106,174)" stroke="rgb(4,106,174)" stroke-width="1" opacity="0.8784313725490196" d="M 4.5 39 L 4.5 40 L 4.5 39 Z " /><path fill="rgb(4,106,174)" stroke="rgb(4,106,174)" stroke-width="1" opacity="0.8784313725490196" d="M 1.5 40 L 1.5 41 L 1.5 40 Z " /><path fill="rgb(4,106,174)" stroke="rgb(4,106,174)" stroke-width="1" opacity="0.8784313725490196" d="M 5.5 41 Q 8 42 6.5 43 Q 4 42 5.5 41 Z " /><path fill="rgb(4,106,174)" stroke="rgb(4,106,174)" stroke-width="1" opacity="0.8784313725490196" d="M 8.5 43 L 8.5 44 L 8.5 43 Z " /><path fill="rgb(4,106,174)" stroke="rgb(4,106,174)" stroke-width="1" opacity="0.8784313725490196" d="M 5.5 45 L 5.5 46 L 5.5 45 Z " /><path fill="rgb(4,106,174)" stroke="rgb(4,106,174)" stroke-width="1" opacity="0.8784313725490196" d="M 7.5 46 L 7.5 47 L 7.5 46 Z " /><path fill="rgb(1,111,178)" stroke="rgb(1,111,178)" stroke-width="1" opacity="0.4627450980392157" d="M 7.5 5 L 8 5.5 L 5.5 8 L 5 7.5 L 7.5 5 Z " /><path fill="rgb(1,111,178)" stroke="rgb(1,111,178)" stroke-width="1" opacity="0.4627450980392157" d="M 0.5 8 L 1 9.5 L 0 9.5 L 0.5 8 Z " /><path fill="rgb(1,111,178)" stroke="rgb(1,111,178)" stroke-width="1" opacity="0.4627450980392157" d="M 4.5 10 L 5 37.5 L 4 37.5 L 4.5 10 Z " /><path fill="rgb(1,111,178)" stroke="rgb(1,111,178)" stroke-width="1" opacity="0.4627450980392157" d="M 0.5 38 L 1 39.5 L 0 39.5 L 0.5 38 Z " /><path fill="rgb(1,111,178)" stroke="rgb(1,111,178)" stroke-width="1" opacity="0.4627450980392157" d="M 5.5 40 L 8 42.5 L 7.5 43 L 5 40.5 L 5.5 40 Z " /><path fill="rgb(2,109,176)" stroke="rgb(2,109,176)" stroke-width="1" opacity="0.615686274509804" d="M 6.5 1 L 6.5 2 L 6.5 1 Z " /><path fill="rgb(2,109,176)" stroke="rgb(2,109,176)" stroke-width="1" opacity="0.615686274509804" d="M 3.5 3 L 3.5 4 L 3.5 3 Z " /><path fill="rgb(2,109,176)" stroke="rgb(2,109,176)" stroke-width="1" opacity="0.615686274509804" d="M 9.5 4 L 9.5 5 L 9.5 4 Z " /><path fill="rgb(2,109,176)" stroke="rgb(2,109,176)" stroke-width="1" opacity="0.615686274509804" d="M 1.5 6 L 1.5 7 L 1.5 6 Z " /><path fill="rgb(2,109,176)" stroke="rgb(2,109,176)" stroke-width="1" opacity="0.615686274509804" d="M 4.5 9 L 4.5 10 L 4.5 9 Z " /><path fill="rgb(2,109,176)" stroke="rgb(2,109,176)" stroke-width="1" opacity="0.615686274509804" d="M 4.5 38 L 4.5 39 L 4.5 38 Z " /><path fill="rgb(2,109,176)" stroke="rgb(2,109,176)" stroke-width="1" opacity="0.615686274509804" d="M 1.5 41 L 1.5 42 L 1.5 41 Z " /><path fill="rgb(2,109,176)" stroke="rgb(2,109,176)" stroke-width="1" opacity="0.615686274509804" d="M 9.5 43 L 9.5 44 L 9.5 43 Z " /><path fill="rgb(2,109,176)" stroke="rgb(2,109,176)" stroke-width="1" opacity="0.615686274509804" d="M 3.5 44 L 3.5 45 L 3.5 44 Z " /><path fill="rgb(2,109,176)" stroke="rgb(2,109,176)" stroke-width="1" opacity="0.615686274509804" d="M 6.5 46 L 6.5 47 L 6.5 46 Z " /><path fill="rgb(7,100,170)" stroke="rgb(7,100,170)" stroke-width="1" opacity="0.996078431372549" d="M 8 1 L 18.5 1 Q 19.38 1.04 19 4 L 8.5 4 Q 7.63 3.96 8 1 Z " /><path fill="rgb(7,100,170)" stroke="rgb(7,100,170)" stroke-width="1" opacity="0.996078431372549" d="M 11 11 L 18.5 11 L 19 13 L 14 14 L 14 23 L 19 23 L 19 25 L 14 25 L 14 34 L 19 35 L 18.5 37 L 11 37 L 11 11 Z " /><path fill="rgb(7,100,170)" stroke="rgb(7,100,170)" stroke-width="1" opacity="0.996078431372549" d="M 8 44 L 18.5 44 L 19 45.5 L 17.5 47 L 8 47 L 8 44 Z " /><path fill="rgb(10,92,164)" stroke="rgb(10,92,164)" stroke-width="1" opacity="0.9764705882352941" d="M 19 1 L 25 1 L 25 4 L 19 4 L 19 1 Z " /><path fill="rgb(10,92,164)" stroke="rgb(10,92,164)" stroke-width="1" opacity="0.9764705882352941" d="M 19 11 L 25 11 L 25 14 L 16 13.5 L 19 13 L 19 11 Z " /><path fill="rgb(10,92,164)" stroke="rgb(10,92,164)" stroke-width="1" opacity="0.9764705882352941" d="M 21.5 22 L 25 22 L 25 26 L 19 25 Q 17.88 22.33 20.5 23 L 21.5 22 Z " /><path fill="rgb(10,92,164)" stroke="rgb(10,92,164)" stroke-width="1" opacity="0.9764705882352941" d="M 16.5 34 L 25 34 L 25 37 L 19.5 37 L 19 35 L 16.5 35 L 16.5 34 Z " /><path fill="rgb(10,92,164)" stroke="rgb(10,92,164)" stroke-width="1" opacity="0.9764705882352941" d="M 19 44 L 25 44 L 25 47 L 18 46.5 L 19 44 Z " /><path fill="rgb(13,86,160)" stroke="rgb(13,86,160)" stroke-width="1" opacity="0.9764705882352941" d="M 25 1 L 32 1 L 32 4 L 25 4 L 25 1 Z " /><path fill="rgb(13,86,160)" stroke="rgb(13,86,160)" stroke-width="1" opacity="0.9764705882352941" d="M 25 11 L 32 11 L 32 14 L 25 14 L 25 11 Z " /><path fill="rgb(13,86,160)" stroke="rgb(13,86,160)" stroke-width="1" opacity="0.9764705882352941" d="M 33.5 14 L 33.5 15 L 33.5 14 Z " /><path fill="rgb(13,86,160)" stroke="rgb(13,86,160)" stroke-width="1" opacity="0.9764705882352941" d="M 34.5 16 L 35 19.5 L 34 19.5 L 34.5 16 Z " /><path fill="rgb(13,86,160)" stroke="rgb(13,86,160)" stroke-width="1" opacity="0.9764705882352941" d="M 32.5 22 L 32 23.5 L 33 25.5 L 31.5 25 L 25.5 25 L 25 23 L 31.5 23 L 32.5 22 Z " /><path fill="rgb(13,86,160)" stroke="rgb(13,86,160)" stroke-width="1" opacity="0.9764705882352941" d="M 34.5 28 L 35 31.5 L 34 31.5 L 34.5 28 Z " /><path fill="rgb(13,86,160)" stroke="rgb(13,86,160)" stroke-width="1" opacity="0.9764705882352941" d="M 33.5 33 L 33.5 34 L 33.5 33 Z " /><path fill="rgb(13,86,160)" stroke="rgb(13,86,160)" stroke-width="1" opacity="0.9764705882352941" d="M 25 34 L 32 34 L 32 37 L 25 37 L 25 34 Z " /><path fill="rgb(13,86,160)" stroke="rgb(13,86,160)" stroke-width="1" opacity="0.9764705882352941" d="M 25 44 L 32 44 L 32 47 L 25 47 L 25 44 Z " /><path fill="rgb(6,103,171)" stroke="rgb(6,103,171)" stroke-width="1" opacity="0.6588235294117647" d="M 11.5 10 L 15 10.5 L 10.5 12 Q 9 11 11.5 10 Z " /><path fill="rgb(6,103,171)" stroke="rgb(6,103,171)" stroke-width="1" opacity="0.6588235294117647" d="M 10.5 15 L 10.5 16 L 10.5 15 Z " /><path fill="rgb(6,103,171)" stroke="rgb(6,103,171)" stroke-width="1" opacity="0.6588235294117647" d="M 10.5 21 L 10.5 22 L 10.5 21 Z " /><path fill="rgb(6,103,171)" stroke="rgb(6,103,171)" stroke-width="1" opacity="0.6588235294117647" d="M 11.5 37 L 15 37.5 L 11.5 38 L 11.5 37 Z " /><path fill="rgb(17,79,155)" stroke="rgb(17,79,155)" stroke-width="1" opacity="0.615686274509804" d="M 41.5 1 L 41.5 2 L 41.5 1 Z " /><path fill="rgb(17,79,155)" stroke="rgb(17,79,155)" stroke-width="1" opacity="0.615686274509804" d="M 44.5 3 L 44.5 4 L 44.5 3 Z " /><path fill="rgb(17,79,155)" stroke="rgb(17,79,155)" stroke-width="1" opacity="0.615686274509804" d="M 38.5 4 L 38.5 5 L 38.5 4 Z " /><path fill="rgb(17,79,155)" stroke="rgb(17,79,155)" stroke-width="1" opacity="0.615686274509804" d="M 46.5 6 L 46.5 7 L 46.5 6 Z " /><path fill="rgb(17,79,155)" stroke="rgb(17,79,155)" stroke-width="1" opacity="0.615686274509804" d="M 43.5 9 L 43.5 10 L 43.5 9 Z " /><path fill="rgb(17,79,155)" stroke="rgb(17,79,155)" stroke-width="1" opacity="0.615686274509804" d="M 37.5 15 L 37.5 16 L 37.5 15 Z " /><path fill="rgb(17,79,155)" stroke="rgb(17,79,155)" stroke-width="1" opacity="0.615686274509804" d="M 43.5 38 L 43.5 39 L 43.5 38 Z " /><path fill="rgb(17,79,155)" stroke="rgb(17,79,155)" stroke-width="1" opacity="0.615686274509804" d="M 46.5 41 L 46.5 42 L 46.5 41 Z " /><path fill="rgb(17,79,155)" stroke="rgb(17,79,155)" stroke-width="1" opacity="0.615686274509804" d="M 38.5 43 L 38.5 44 L 38.5 43 Z " /><path fill="rgb(17,79,155)" stroke="rgb(17,79,155)" stroke-width="1" opacity="0.615686274509804" d="M 44.5 44 L 44.5 45 L 44.5 44 Z " /><path fill="rgb(17,79,155)" stroke="rgb(17,79,155)" stroke-width="1" opacity="0.615686274509804" d="M 41.5 46 L 41.5 47 L 41.5 46 Z " /><path fill="rgb(9,95,166)" stroke="rgb(9,95,166)" stroke-width="1" opacity="0.09803921568627451" d="M 15.5 21 L 23 21.5 L 15.5 22 L 15.5 21 Z " /><path fill="rgb(9,95,166)" stroke="rgb(9,95,166)" stroke-width="1" opacity="0.09803921568627451" d="M 15.5 26 L 23 26.5 L 15.5 27 L 15.5 26 Z " /><path fill="rgb(13,87,161)" stroke="rgb(13,87,161)" stroke-width="1" opacity="0.10196078431372549" d="M 23.5 21 L 31 21.5 L 23.5 22 L 23.5 21 Z " /><path fill="rgb(13,87,161)" stroke="rgb(13,87,161)" stroke-width="1" opacity="0.10196078431372549" d="M 23.5 26 L 31 26.5 L 23.5 27 L 23.5 26 Z " /><path fill="rgb(16,81,157)" stroke="rgb(16,81,157)" stroke-width="1" opacity="0.43137254901960786" d="M 33.5 4 L 37 4.5 L 33.5 5 L 33.5 4 Z " /><path fill="rgb(16,81,157)" stroke="rgb(16,81,157)" stroke-width="1" opacity="0.43137254901960786" d="M 33.5 10 L 33.5 11 L 33.5 10 Z " /><path fill="rgb(16,81,157)" stroke="rgb(16,81,157)" stroke-width="1" opacity="0.43137254901960786" d="M 35.5 11 Q 38 12 36.5 13 Q 34 12 35.5 11 Z " /><path fill="rgb(16,81,157)" stroke="rgb(16,81,157)" stroke-width="1" opacity="0.43137254901960786" d="M 43.5 13 L 43.5 14 L 43.5 13 Z " /><path fill="rgb(16,81,157)" stroke="rgb(16,81,157)" stroke-width="1" opacity="0.43137254901960786" d="M 37.5 14 L 37.5 15 L 37.5 14 Z " /><path fill="rgb(16,81,157)" stroke="rgb(16,81,157)" stroke-width="1" opacity="0.43137254901960786" d="M 32.5 21 L 32.5 22 L 32.5 21 Z " /><path fill="rgb(16,81,157)" stroke="rgb(16,81,157)" stroke-width="1" opacity="0.43137254901960786" d="M 47.5 22 L 47.5 23 L 47.5 22 Z " /><path fill="rgb(16,81,157)" stroke="rgb(16,81,157)" stroke-width="1" opacity="0.43137254901960786" d="M 32.5 26 L 32.5 27 L 32.5 26 Z " /><path fill="rgb(16,81,157)" stroke="rgb(16,81,157)" stroke-width="1" opacity="0.43137254901960786" d="M 37.5 27 L 37.5 28 L 37.5 27 Z " /><path fill="rgb(16,81,157)" stroke="rgb(16,81,157)" stroke-width="1" opacity="0.43137254901960786" d="M 37.5 34 L 37.5 35 L 37.5 34 Z " /><path fill="rgb(16,81,157)" stroke="rgb(16,81,157)" stroke-width="1" opacity="0.43137254901960786" d="M 34.5 37 L 34.5 38 L 34.5 37 Z " /><path fill="rgb(16,81,157)" stroke="rgb(16,81,157)" stroke-width="1" opacity="0.43137254901960786" d="M 33.5 43 L 37 43.5 L 33.5 44 L 33.5 43 Z " /><path fill="rgb(17,80,156)" stroke="rgb(17,80,156)" stroke-width="1" opacity="0.29411764705882354" d="M 39.5 0 L 39.5 1 L 39.5 0 Z " /><path fill="rgb(17,80,156)" stroke="rgb(17,80,156)" stroke-width="1" opacity="0.29411764705882354" d="M 42.5 1 L 42.5 2 L 42.5 1 Z " /><path fill="rgb(17,80,156)" stroke="rgb(17,80,156)" stroke-width="1" opacity="0.29411764705882354" d="M 46.5 5 L 46.5 6 L 46.5 5 Z " /><path fill="rgb(17,80,156)" stroke="rgb(17,80,156)" stroke-width="1" opacity="0.29411764705882354" d="M 41.5 6 L 41.5 7 L 41.5 6 Z " /><path fill="rgb(17,80,156)" stroke="rgb(17,80,156)" stroke-width="1" opacity="0.29411764705882354" d="M 47.5 8 L 47.5 9 L 47.5 8 Z " /><path fill="rgb(17,80,156)" stroke="rgb(17,80,156)" stroke-width="1" opacity="0.29411764705882354" d="M 29.5 14 L 32 14.5 L 29.5 15 L 29.5 14 Z " /><path fill="rgb(17,80,156)" stroke="rgb(17,80,156)" stroke-width="1" opacity="0.29411764705882354" d="M 44.5 14 L 47 14.5 L 44.5 15 L 44.5 14 Z " /><path fill="rgb(17,80,156)" stroke="rgb(17,80,156)" stroke-width="1" opacity="0.29411764705882354" d="M 33.5 16 L 34 19.5 L 33 19.5 L 33.5 16 Z " /><path fill="rgb(17,80,156)" stroke="rgb(17,80,156)" stroke-width="1" opacity="0.29411764705882354" d="M 37.5 21 L 37.5 22 L 37.5 21 Z " /><path fill="rgb(17,80,156)" stroke="rgb(17,80,156)" stroke-width="1" opacity="0.29411764705882354" d="M 37.5 26 L 37.5 27 L 37.5 26 Z " /><path fill="rgb(17,80,156)" stroke="rgb(17,80,156)" stroke-width="1" opacity="0.29411764705882354" d="M 33.5 28 L 34 31.5 L 33 31.5 L 33.5 28 Z " /><path fill="rgb(17,80,156)" stroke="rgb(17,80,156)" stroke-width="1" opacity="0.29411764705882354" d="M 29.5 33 L 32 33.5 L 29.5 34 L 29.5 33 Z " /><path fill="rgb(17,80,156)" stroke="rgb(17,80,156)" stroke-width="1" opacity="0.29411764705882354" d="M 36.5 36 L 36.5 37 L 36.5 36 Z " /><path fill="rgb(17,80,156)" stroke="rgb(17,80,156)" stroke-width="1" opacity="0.29411764705882354" d="M 47.5 39 L 47.5 40 L 47.5 39 Z " /><path fill="rgb(17,80,156)" stroke="rgb(17,80,156)" stroke-width="1" opacity="0.29411764705882354" d="M 41.5 41 L 41.5 42 L 41.5 41 Z " /><path fill="rgb(17,80,156)" stroke="rgb(17,80,156)" stroke-width="1" opacity="0.29411764705882354" d="M 46.5 42 L 46.5 43 L 46.5 42 Z " /><path fill="rgb(17,80,156)" stroke="rgb(17,80,156)" stroke-width="1" opacity="0.29411764705882354" d="M 42.5 46 L 42.5 47 L 42.5 46 Z " /><path fill="rgb(17,80,156)" stroke="rgb(17,80,156)" stroke-width="1" opacity="0.29411764705882354" d="M 39.5 47 L 39.5 48 L 39.5 47 Z " /><path fill="rgb(17,79,155)" stroke="rgb(17,79,155)" stroke-width="1" opacity="0.12156862745098039" d="M 40.5 0 L 40.5 1 L 40.5 0 Z " /><path fill="rgb(17,79,155)" stroke="rgb(17,79,155)" stroke-width="1" opacity="0.12156862745098039" d="M 39.5 5 L 39.5 6 L 39.5 5 Z " /><path fill="rgb(17,79,155)" stroke="rgb(17,79,155)" stroke-width="1" opacity="0.12156862745098039" d="M 47.5 7 L 47.5 8 L 47.5 7 Z " /><path fill="rgb(17,79,155)" stroke="rgb(17,79,155)" stroke-width="1" opacity="0.12156862745098039" d="M 42.5 8 L 42.5 9 L 42.5 8 Z " /><path fill="rgb(17,79,155)" stroke="rgb(17,79,155)" stroke-width="1" opacity="0.12156862745098039" d="M 34.5 10 L 34.5 11 L 34.5 10 Z " /><path fill="rgb(17,79,155)" stroke="rgb(17,79,155)" stroke-width="1" opacity="0.12156862745098039" d="M 37.5 13 L 37.5 14 L 37.5 13 Z " /><path fill="rgb(17,79,155)" stroke="rgb(17,79,155)" stroke-width="1" opacity="0.12156862745098039" d="M 43.5 14 L 43.5 15 L 43.5 14 Z " /><path fill="rgb(17,79,155)" stroke="rgb(17,79,155)" stroke-width="1" opacity="0.12156862745098039" d="M 47.5 14 L 47.5 15 L 47.5 14 Z " /><path fill="rgb(17,79,155)" stroke="rgb(17,79,155)" stroke-width="1" opacity="0.12156862745098039" d="M 31.5 21 L 31.5 22 L 31.5 21 Z " /><path fill="rgb(17,79,155)" stroke="rgb(17,79,155)" stroke-width="1" opacity="0.12156862745098039" d="M 38.5 21 L 47 21.5 L 38.5 22 L 38.5 21 Z " /><path fill="rgb(17,79,155)" stroke="rgb(17,79,155)" stroke-width="1" opacity="0.12156862745098039" d="M 31.5 26 L 31.5 27 L 31.5 26 Z " /><path fill="rgb(17,79,155)" stroke="rgb(17,79,155)" stroke-width="1" opacity="0.12156862745098039" d="M 38.5 26 L 42 26.5 L 38.5 27 L 38.5 26 Z " /><path fill="rgb(17,79,155)" stroke="rgb(17,79,155)" stroke-width="1" opacity="0.12156862745098039" d="M 37.5 35 L 37.5 36 L 37.5 35 Z " /><path fill="rgb(17,79,155)" stroke="rgb(17,79,155)" stroke-width="1" opacity="0.12156862745098039" d="M 35.5 37 L 35.5 38 L 35.5 37 Z " /><path fill="rgb(17,79,155)" stroke="rgb(17,79,155)" stroke-width="1" opacity="0.12156862745098039" d="M 42.5 39 L 42.5 40 L 42.5 39 Z " /><path fill="rgb(17,79,155)" stroke="rgb(17,79,155)" stroke-width="1" opacity="0.12156862745098039" d="M 47.5 40 L 47.5 41 L 47.5 40 Z " /><path fill="rgb(17,79,155)" stroke="rgb(17,79,155)" stroke-width="1" opacity="0.12156862745098039" d="M 39.5 42 L 39.5 43 L 39.5 42 Z " /><path fill="rgb(17,79,155)" stroke="rgb(17,79,155)" stroke-width="1" opacity="0.12156862745098039" d="M 40.5 47 L 40.5 48 L 40.5 47 Z " /><path fill="rgb(6,104,172)" stroke="rgb(6,104,172)" stroke-width="1" opacity="0.6588235294117647" d="M 10.5 12 L 11 14.5 L 10 14.5 L 10.5 12 Z " /><path fill="rgb(6,104,172)" stroke="rgb(6,104,172)" stroke-width="1" opacity="0.6588235294117647" d="M 10.5 16 L 11 20.5 L 10 20.5 L 10.5 16 Z " /><path fill="rgb(6,104,172)" stroke="rgb(6,104,172)" stroke-width="1" opacity="0.6588235294117647" d="M 10.5 22 L 11 36.5 L 10 36.5 L 10.5 22 Z " /><path fill="rgb(10,93,165)" stroke="rgb(10,93,165)" stroke-width="1" opacity="0.27450980392156865" d="M 15.5 14 L 29 14.5 L 15 15 L 14.5 22 L 14 15.5 L 15.5 14 Z " /><path fill="rgb(10,93,165)" stroke="rgb(10,93,165)" stroke-width="1" opacity="0.27450980392156865" d="M 14.5 26 L 15 33 L 29 33.5 L 15.5 34 L 14 32.5 L 14.5 26 Z " /><path fill="rgb(18,78,155)" stroke="rgb(18,78,155)" stroke-width="1" opacity="0.06666666666666667" d="M 41.5 0 L 41.5 1 L 41.5 0 Z " /><path fill="rgb(18,78,155)" stroke="rgb(18,78,155)" stroke-width="1" opacity="0.06666666666666667" d="M 44.5 2 Q 47 3 45.5 4 Q 43 3 44.5 2 Z " /><path fill="rgb(18,78,155)" stroke="rgb(18,78,155)" stroke-width="1" opacity="0.06666666666666667" d="M 47.5 6 L 47.5 7 L 47.5 6 Z " /><path fill="rgb(18,78,155)" stroke="rgb(18,78,155)" stroke-width="1" opacity="0.06666666666666667" d="M 47.5 21 L 47.5 22 L 47.5 21 Z " /><path fill="rgb(18,78,155)" stroke="rgb(18,78,155)" stroke-width="1" opacity="0.06666666666666667" d="M 42.5 26 L 42.5 27 L 42.5 26 Z " /><path fill="rgb(18,78,155)" stroke="rgb(18,78,155)" stroke-width="1" opacity="0.06666666666666667" d="M 45.5 44 Q 47 45 44.5 46 Q 43 45 45.5 44 Z " /><path fill="rgb(0,115,180)" stroke="rgb(0,115,180)" stroke-width="1" opacity="0.5137254901960784" d="M 4.5 2 L 4.5 3 L 4.5 2 Z " /><path fill="rgb(0,115,180)" stroke="rgb(0,115,180)" stroke-width="1" opacity="0.5137254901960784" d="M 2.5 4 L 2.5 5 L 2.5 4 Z " /><path fill="rgb(0,115,180)" stroke="rgb(0,115,180)" stroke-width="1" opacity="0.5137254901960784" d="M 0.5 10 L 1 37.5 L 0 37.5 L 0.5 10 Z " /><path fill="rgb(0,115,180)" stroke="rgb(0,115,180)" stroke-width="1" opacity="0.5137254901960784" d="M 2.5 43 L 2.5 44 L 2.5 43 Z " /><path fill="rgb(0,115,180)" stroke="rgb(0,115,180)" stroke-width="1" opacity="0.5137254901960784" d="M 4.5 45 L 4.5 46 L 4.5 45 Z " /><path fill="rgb(14,82,156)" stroke="rgb(14,82,156)" stroke-width="1" opacity="0.00784313725490196" d="M 43.5 1 L 43.5 2 L 43.5 1 Z " /><path fill="rgb(14,82,156)" stroke="rgb(14,82,156)" stroke-width="1" opacity="0.00784313725490196" d="M 46.5 4 L 46.5 5 L 46.5 4 Z " /><path fill="rgb(14,82,156)" stroke="rgb(14,82,156)" stroke-width="1" opacity="0.00784313725490196" d="M 38.5 5 L 38.5 6 L 38.5 5 Z " /><path fill="rgb(14,82,156)" stroke="rgb(14,82,156)" stroke-width="1" opacity="0.00784313725490196" d="M 40.5 6 Q 43 7 41.5 8 Q 39 7 40.5 6 Z " /><path fill="rgb(14,82,156)" stroke="rgb(14,82,156)" stroke-width="1" opacity="0.00784313725490196" d="M 19.5 9 L 33 9.5 L 19.5 10 L 19.5 9 Z " /><path fill="rgb(14,82,156)" stroke="rgb(14,82,156)" stroke-width="1" opacity="0.00784313725490196" d="M 42.5 9 L 42.5 10 L 42.5 9 Z " /><path fill="rgb(14,82,156)" stroke="rgb(14,82,156)" stroke-width="1" opacity="0.00784313725490196" d="M 35.5 10 Q 38 11 36.5 12 Q 34 11 35.5 10 Z " /><path fill="rgb(14,82,156)" stroke="rgb(14,82,156)" stroke-width="1" opacity="0.00784313725490196" d="M 32.5 15 L 32.5 16 L 32.5 15 Z " /><path fill="rgb(14,82,156)" stroke="rgb(14,82,156)" stroke-width="1" opacity="0.00784313725490196" d="M 38.5 16 L 39 19.5 L 38 19.5 L 38.5 16 Z " /><path fill="rgb(14,82,156)" stroke="rgb(14,82,156)" stroke-width="1" opacity="0.00784313725490196" d="M 38.5 29 L 39 33.5 L 38 33.5 L 38.5 29 Z " /><path fill="rgb(14,82,156)" stroke="rgb(14,82,156)" stroke-width="1" opacity="0.00784313725490196" d="M 32.5 32 L 32.5 33 L 32.5 32 Z " /><path fill="rgb(14,82,156)" stroke="rgb(14,82,156)" stroke-width="1" opacity="0.00784313725490196" d="M 20.5 38 L 34 38.5 L 20.5 39 L 20.5 38 Z " /><path fill="rgb(14,82,156)" stroke="rgb(14,82,156)" stroke-width="1" opacity="0.00784313725490196" d="M 42.5 38 L 42.5 39 L 42.5 38 Z " /><path fill="rgb(14,82,156)" stroke="rgb(14,82,156)" stroke-width="1" opacity="0.00784313725490196" d="M 41.5 40 Q 43 41 40.5 42 Q 39 41 41.5 40 Z " /><path fill="rgb(14,82,156)" stroke="rgb(14,82,156)" stroke-width="1" opacity="0.00784313725490196" d="M 47.5 41 L 47.5 42 L 47.5 41 Z " /><path fill="rgb(14,82,156)" stroke="rgb(14,82,156)" stroke-width="1" opacity="0.00784313725490196" d="M 38.5 42 L 38.5 43 L 38.5 42 Z " /><path fill="rgb(14,82,156)" stroke="rgb(14,82,156)" stroke-width="1" opacity="0.00784313725490196" d="M 46.5 43 L 46.5 44 L 46.5 43 Z " /><path fill="rgb(14,82,156)" stroke="rgb(14,82,156)" stroke-width="1" opacity="0.00784313725490196" d="M 43.5 46 L 43.5 47 L 43.5 46 Z " /><path fill="rgb(14,82,156)" stroke="rgb(14,82,156)" stroke-width="1" opacity="0.00784313725490196" d="M 41.5 47 L 41.5 48 L 41.5 47 Z " /><path fill="rgb(16,81,157)" stroke="rgb(16,81,157)" stroke-width="1" opacity="0.6549019607843137" d="M 31.5 10 L 31.5 11 L 31.5 10 Z " /><path fill="rgb(16,81,157)" stroke="rgb(16,81,157)" stroke-width="1" opacity="0.6549019607843137" d="M 37.5 16 L 38 19.5 L 37 19.5 L 37.5 16 Z " /><path fill="rgb(16,81,157)" stroke="rgb(16,81,157)" stroke-width="1" opacity="0.6549019607843137" d="M 37.5 29 L 38 32.5 L 37 32.5 L 37.5 29 Z " /><path fill="rgb(16,81,157)" stroke="rgb(16,81,157)" stroke-width="1" opacity="0.6549019607843137" d="M 31.5 37 L 33 37.5 L 31.5 38 L 31.5 37 Z " /><path fill="rgb(9,94,166)" stroke="rgb(9,94,166)" stroke-width="1" opacity="0.6588235294117647" d="M 15.5 10 L 23 10.5 L 15.5 11 L 15.5 10 Z " /><path fill="rgb(9,94,166)" stroke="rgb(9,94,166)" stroke-width="1" opacity="0.6588235294117647" d="M 15.5 37 L 24 37.5 L 15.5 38 L 15.5 37 Z " /><path fill="rgb(13,87,161)" stroke="rgb(13,87,161)" stroke-width="1" opacity="0.6588235294117647" d="M 23.5 10 L 31 10.5 L 23.5 11 L 23.5 10 Z " /><path fill="rgb(13,87,161)" stroke="rgb(13,87,161)" stroke-width="1" opacity="0.6588235294117647" d="M 24.5 37 L 31 37.5 L 24.5 38 L 24.5 37 Z " /><path fill="rgb(15,83,158)" stroke="rgb(15,83,158)" stroke-width="1" opacity="0.6235294117647059" d="M 32.5 10 L 32.5 11 L 32.5 10 Z " /><path fill="rgb(15,83,158)" stroke="rgb(15,83,158)" stroke-width="1" opacity="0.6235294117647059" d="M 32.5 14 Q 35 15 33.5 16 Q 31 15 32.5 14 Z " /><path fill="rgb(15,83,158)" stroke="rgb(15,83,158)" stroke-width="1" opacity="0.6235294117647059" d="M 37.5 28 L 37.5 29 L 37.5 28 Z " /><path fill="rgb(15,83,158)" stroke="rgb(15,83,158)" stroke-width="1" opacity="0.6235294117647059" d="M 33.5 32 Q 35 33 32.5 34 Q 31 33 33.5 32 Z " /><path fill="rgb(15,83,158)" stroke="rgb(15,83,158)" stroke-width="1" opacity="0.6235294117647059" d="M 37.5 33 L 37.5 34 L 37.5 33 Z " /><path fill="rgb(15,83,158)" stroke="rgb(15,83,158)" stroke-width="1" opacity="0.6235294117647059" d="M 33.5 37 L 33.5 38 L 33.5 37 Z " /><path fill="rgb(17,78,155)" stroke="rgb(17,78,155)" stroke-width="1" opacity="0.49411764705882355" d="M 32.5 0 L 39 0.5 L 32.5 1 L 32.5 0 Z " /><path fill="rgb(17,78,155)" stroke="rgb(17,78,155)" stroke-width="1" opacity="0.49411764705882355" d="M 43.5 2 L 43.5 3 L 43.5 2 Z " /><path fill="rgb(17,78,155)" stroke="rgb(17,78,155)" stroke-width="1" opacity="0.49411764705882355" d="M 37.5 4 L 37.5 5 L 37.5 4 Z " /><path fill="rgb(17,78,155)" stroke="rgb(17,78,155)" stroke-width="1" opacity="0.49411764705882355" d="M 45.5 4 L 45.5 5 L 45.5 4 Z " /><path fill="rgb(17,78,155)" stroke="rgb(17,78,155)" stroke-width="1" opacity="0.49411764705882355" d="M 40.5 5 L 40.5 6 L 40.5 5 Z " /><path fill="rgb(17,78,155)" stroke="rgb(17,78,155)" stroke-width="1" opacity="0.49411764705882355" d="M 42.5 7 L 42.5 8 L 42.5 7 Z " /><path fill="rgb(17,78,155)" stroke="rgb(17,78,155)" stroke-width="1" opacity="0.49411764705882355" d="M 47.5 9 L 48 13.5 L 47 13.5 L 47.5 9 Z " /><path fill="rgb(17,78,155)" stroke="rgb(17,78,155)" stroke-width="1" opacity="0.49411764705882355" d="M 43.5 10 L 44 12.5 L 43 12.5 L 43.5 10 Z " /><path fill="rgb(17,78,155)" stroke="rgb(17,78,155)" stroke-width="1" opacity="0.49411764705882355" d="M 33.5 20 L 33.5 21 L 33.5 20 Z " /><path fill="rgb(17,78,155)" stroke="rgb(17,78,155)" stroke-width="1" opacity="0.49411764705882355" d="M 37.5 20 L 37.5 21 L 37.5 20 Z " /><path fill="rgb(17,78,155)" stroke="rgb(17,78,155)" stroke-width="1" opacity="0.49411764705882355" d="M 47.5 23 L 48 38.5 L 47 38.5 L 47.5 23 Z " /><path fill="rgb(17,78,155)" stroke="rgb(17,78,155)" stroke-width="1" opacity="0.49411764705882355" d="M 43.5 26 L 44 37.5 L 43 37.5 L 43.5 26 Z " /><path fill="rgb(17,78,155)" stroke="rgb(17,78,155)" stroke-width="1" opacity="0.49411764705882355" d="M 33.5 27 L 33.5 28 L 33.5 27 Z " /><path fill="rgb(17,78,155)" stroke="rgb(17,78,155)" stroke-width="1" opacity="0.49411764705882355" d="M 42.5 40 L 42.5 41 L 42.5 40 Z " /><path fill="rgb(17,78,155)" stroke="rgb(17,78,155)" stroke-width="1" opacity="0.49411764705882355" d="M 40.5 42 L 40.5 43 L 40.5 42 Z " /><path fill="rgb(17,78,155)" stroke="rgb(17,78,155)" stroke-width="1" opacity="0.49411764705882355" d="M 37.5 43 L 37.5 44 L 37.5 43 Z " /><path fill="rgb(17,78,155)" stroke="rgb(17,78,155)" stroke-width="1" opacity="0.49411764705882355" d="M 45.5 43 L 45.5 44 L 45.5 43 Z " /><path fill="rgb(17,78,155)" stroke="rgb(17,78,155)" stroke-width="1" opacity="0.49411764705882355" d="M 43.5 45 L 43.5 46 L 43.5 45 Z " /><path fill="rgb(17,78,155)" stroke="rgb(17,78,155)" stroke-width="1" opacity="0.49411764705882355" d="M 32.5 47 L 39 47.5 L 32.5 48 L 32.5 47 Z " /><path fill="rgb(2,109,176)" stroke="rgb(2,109,176)" stroke-width="1" opacity="0.10196078431372549" d="M 7.5 0 L 7.5 1 L 7.5 0 Z " /><path fill="rgb(2,109,176)" stroke="rgb(2,109,176)" stroke-width="1" opacity="0.10196078431372549" d="M 5.5 1 L 5.5 2 L 5.5 1 Z " /><path fill="rgb(2,109,176)" stroke="rgb(2,109,176)" stroke-width="1" opacity="0.10196078431372549" d="M 8.5 5 L 8.5 6 L 8.5 5 Z " /><path fill="rgb(2,109,176)" stroke="rgb(2,109,176)" stroke-width="1" opacity="0.10196078431372549" d="M 5.5 8 L 5.5 9 L 5.5 8 Z " /><path fill="rgb(2,109,176)" stroke="rgb(2,109,176)" stroke-width="1" opacity="0.10196078431372549" d="M 5.5 39 L 5.5 40 L 5.5 39 Z " /><path fill="rgb(2,109,176)" stroke="rgb(2,109,176)" stroke-width="1" opacity="0.10196078431372549" d="M 8.5 42 L 8.5 43 L 8.5 42 Z " /><path fill="rgb(2,109,176)" stroke="rgb(2,109,176)" stroke-width="1" opacity="0.10196078431372549" d="M 5.5 46 L 5.5 47 L 5.5 46 Z " /><path fill="rgb(2,109,176)" stroke="rgb(2,109,176)" stroke-width="1" opacity="0.10196078431372549" d="M 7.5 47 L 7.5 48 L 7.5 47 Z " /><path fill="rgb(6,103,172)" stroke="rgb(6,103,172)" stroke-width="1" opacity="0.00392156862745098" d="M 6.5 0 L 6.5 1 L 6.5 0 Z " /><path fill="rgb(6,103,172)" stroke="rgb(6,103,172)" stroke-width="1" opacity="0.00392156862745098" d="M 4.5 1 L 4.5 2 L 4.5 1 Z " /><path fill="rgb(6,103,172)" stroke="rgb(6,103,172)" stroke-width="1" opacity="0.00392156862745098" d="M 9.5 5 L 9.5 6 L 9.5 5 Z " /><path fill="rgb(6,103,172)" stroke="rgb(6,103,172)" stroke-width="1" opacity="0.00392156862745098" d="M 7.5 6 Q 9 7 6.5 8 Q 5 7 7.5 6 Z " /><path fill="rgb(6,103,172)" stroke="rgb(6,103,172)" stroke-width="1" opacity="0.00392156862745098" d="M 5.5 9 L 5.5 10 L 5.5 9 Z " /><path fill="rgb(6,103,172)" stroke="rgb(6,103,172)" stroke-width="1" opacity="0.00392156862745098" d="M 10.5 9 L 19 9.5 L 10 10 L 10 38 L 19.5 38 L 19.5 39 L 10.5 39 L 9 37.5 L 9 10.5 L 10.5 9 Z " /><path fill="rgb(6,103,172)" stroke="rgb(6,103,172)" stroke-width="1" opacity="0.00392156862745098" d="M 5.5 38 L 5.5 39 L 5.5 38 Z " /><path fill="rgb(6,103,172)" stroke="rgb(6,103,172)" stroke-width="1" opacity="0.00392156862745098" d="M 6.5 40 Q 9 41 7.5 42 Q 5 41 6.5 40 Z " /><path fill="rgb(6,103,172)" stroke="rgb(6,103,172)" stroke-width="1" opacity="0.00392156862745098" d="M 9.5 42 L 9.5 43 L 9.5 42 Z " /><path fill="rgb(6,103,172)" stroke="rgb(6,103,172)" stroke-width="1" opacity="0.00392156862745098" d="M 4.5 46 L 4.5 47 L 4.5 46 Z " /><path fill="rgb(6,103,172)" stroke="rgb(6,103,172)" stroke-width="1" opacity="0.00392156862745098" d="M 6.5 47 L 6.5 48 L 6.5 47 Z " /><path fill="rgb(17,79,156)" stroke="rgb(17,79,156)" stroke-width="1" opacity="0.996078431372549" d="M 32 1 L 39.5 1 L 45 4.5 L 47 8.5 L 47 14 L 44 14 L 44 8.5 L 41.5 5 L 39.5 4 L 32 4 L 32 1 Z " /><path fill="rgb(17,79,156)" stroke="rgb(17,79,156)" stroke-width="1" opacity="0.996078431372549" d="M 32 11 L 33.5 11 L 37 14.5 L 37 20.5 L 36 21.5 L 37.5 23 L 47 23 L 47 39.5 L 43.5 45 L 39.5 47 L 32 47 L 32 44 L 39.5 44 L 43 41.5 L 44 39.5 L 44 25 L 37.5 25 L 36 26.5 L 37 27.5 L 37 34.5 Q 35.83 37.75 32 37 L 32 34 Q 34.67 35.13 34 32.5 Q 35.75 31.75 35 28.5 L 32 23.5 L 35 19.5 L 35 16.5 L 34 14 Q 30.67 15.13 32 11 Z " /><path fill="rgb(1,112,178)" stroke="rgb(1,112,178)" stroke-width="1" opacity="0.996078431372549" d="M 6.5 2 L 8 2 L 8 5 L 5 6.5 L 4 8.5 L 4 39.5 L 6.5 43 L 8 43 L 8 46 Q 4 45.75 2 42.5 L 1 39.5 L 1 8.5 L 2 5.5 L 4.5 3 L 6.5 2 Z " /><path fill="rgb(5,104,172)" stroke="rgb(5,104,172)" stroke-width="1" opacity="0.45098039215686275" d="M 8.5 0 L 12 0.5 L 8.5 1 L 8.5 0 Z " /><path fill="rgb(5,104,172)" stroke="rgb(5,104,172)" stroke-width="1" opacity="0.45098039215686275" d="M 10.5 4 L 13 4.5 L 10.5 5 L 10.5 4 Z " /><path fill="rgb(5,104,172)" stroke="rgb(5,104,172)" stroke-width="1" opacity="0.45098039215686275" d="M 10.5 10 L 10.5 11 L 10.5 10 Z " /><path fill="rgb(5,104,172)" stroke="rgb(5,104,172)" stroke-width="1" opacity="0.45098039215686275" d="M 10.5 37 L 10.5 38 L 10.5 37 Z " /><path fill="rgb(5,104,172)" stroke="rgb(5,104,172)" stroke-width="1" opacity="0.45098039215686275" d="M 10.5 43 L 14 43.5 L 10.5 44 L 10.5 43 Z " /><path fill="rgb(5,104,172)" stroke="rgb(5,104,172)" stroke-width="1" opacity="0.45098039215686275" d="M 8.5 47 L 13 47.5 L 8.5 48 L 8.5 47 Z " /><path fill="rgb(8,97,168)" stroke="rgb(8,97,168)" stroke-width="1" opacity="0.4666666666666667" d="M 12.5 0 L 17 0.5 L 12.5 1 L 12.5 0 Z " /><path fill="rgb(8,97,168)" stroke="rgb(8,97,168)" stroke-width="1" opacity="0.4666666666666667" d="M 13.5 4 L 21 4.5 L 13.5 5 L 13.5 4 Z " /><path fill="rgb(8,97,168)" stroke="rgb(8,97,168)" stroke-width="1" opacity="0.4666666666666667" d="M 14.5 14 L 14.5 15 L 14.5 14 Z " /><path fill="rgb(8,97,168)" stroke="rgb(8,97,168)" stroke-width="1" opacity="0.4666666666666667" d="M 14.5 33 L 14.5 34 L 14.5 33 Z " /><path fill="rgb(8,97,168)" stroke="rgb(8,97,168)" stroke-width="1" opacity="0.4666666666666667" d="M 14.5 43 L 21 43.5 L 14.5 44 L 14.5 43 Z " /><path fill="rgb(8,97,168)" stroke="rgb(8,97,168)" stroke-width="1" opacity="0.4666666666666667" d="M 13.5 47 L 17 47.5 L 13.5 48 L 13.5 47 Z " /><path fill="rgb(11,92,164)" stroke="rgb(11,92,164)" stroke-width="1" opacity="0.49411764705882355" d="M 17.5 0 L 27 0.5 L 17.5 1 L 17.5 0 Z " /><path fill="rgb(11,92,164)" stroke="rgb(11,92,164)" stroke-width="1" opacity="0.49411764705882355" d="M 21.5 4 L 25 4.5 L 21.5 5 L 21.5 4 Z " /><path fill="rgb(11,92,164)" stroke="rgb(11,92,164)" stroke-width="1" opacity="0.49411764705882355" d="M 21.5 43 L 25 43.5 L 21.5 44 L 21.5 43 Z " /><path fill="rgb(11,92,164)" stroke="rgb(11,92,164)" stroke-width="1" opacity="0.49411764705882355" d="M 17.5 47 L 28 47.5 L 17.5 48 L 17.5 47 Z " /><path fill="rgb(14,85,159)" stroke="rgb(14,85,159)" stroke-width="1" opacity="0.4745098039215686" d="M 27.5 0 L 32 0.5 L 27.5 1 L 27.5 0 Z " /><path fill="rgb(14,85,159)" stroke="rgb(14,85,159)" stroke-width="1" opacity="0.4745098039215686" d="M 25.5 4 L 33 4.5 L 25.5 5 L 25.5 4 Z " /><path fill="rgb(14,85,159)" stroke="rgb(14,85,159)" stroke-width="1" opacity="0.4745098039215686" d="M 25.5 43 L 33 43.5 L 25.5 44 L 25.5 43 Z " /><path fill="rgb(14,85,159)" stroke="rgb(14,85,159)" stroke-width="1" opacity="0.4745098039215686" d="M 28.5 47 L 32 47.5 L 28.5 48 L 28.5 47 Z " /></svg>