<svg width="48" height="48" version="1.1" xmlns="http://www.w3.org/2000/svg" desc="Created with imagetracer.js version 1.2.6" ><path fill="rgb(252,252,253)" stroke="rgb(252,252,253)" stroke-width="1" opacity="1" d="M 2.5 16 L 2.5 17 L 2.5 16 Z " /><path fill="rgb(252,252,253)" stroke="rgb(252,252,253)" stroke-width="1" opacity="1" d="M 42.5 16 Q 45 17 43.5 18 Q 41 17 42.5 16 Z " /><path fill="rgb(252,252,253)" stroke="rgb(252,252,253)" stroke-width="1" opacity="1" d="M 24.5 21 L 25 28.5 L 24 28.5 Q 25.25 23.75 23 22.5 L 24.5 21 Z " /><path fill="rgb(252,252,253)" stroke="rgb(252,252,253)" stroke-width="1" opacity="1" d="M 17.5 22 L 17.5 23 L 17.5 22 Z " /><path fill="rgb(252,252,253)" stroke="rgb(252,252,253)" stroke-width="1" opacity="1" d="M 45.5 24 L 45.5 25 L 45.5 24 Z " /><path fill="rgb(252,252,253)" stroke="rgb(252,252,253)" stroke-width="1" opacity="1" d="M 45.5 30 Q 47 31 44.5 32 Q 43 31 45.5 30 Z " /><path fill="rgb(252,252,253)" stroke="rgb(252,252,253)" stroke-width="1" opacity="1" d="M 2.5 31 L 2.5 32 L 2.5 31 Z " /><path fill="rgb(255,255,255)" stroke="rgb(255,255,255)" stroke-width="1" opacity="0.996078431372549" d="M 3.5 0 L 5 0.5 L 1 3.5 L 0.5 5 L 0 3.5 L 3.5 0 Z " /><path fill="rgb(255,255,255)" stroke="rgb(255,255,255)" stroke-width="1" opacity="0.996078431372549" d="M 43.5 0 L 48 3.5 L 47.5 4 L 44.5 1 Q 42.12 0.87 43.5 0 Z " /><path fill="rgb(255,255,255)" stroke="rgb(255,255,255)" stroke-width="1" opacity="0.996078431372549" d="M 0.5 43 L 4 47.5 L 3.5 48 L 0 44.5 L 0.5 43 Z " /><path fill="rgb(255,255,255)" stroke="rgb(255,255,255)" stroke-width="1" opacity="0.996078431372549" d="M 47.5 44 L 47.5 45 L 47.5 44 Z " /><path fill="rgb(255,255,255)" stroke="rgb(255,255,255)" stroke-width="1" opacity="0.996078431372549" d="M 46.5 46 L 46.5 47 L 46.5 46 Z " /><path fill="rgb(255,255,255)" stroke="rgb(255,255,255)" stroke-width="1" opacity="0.996078431372549" d="M 44.5 47 L 44.5 48 L 44.5 47 Z " /><path fill="rgb(255,255,255)" stroke="rgb(255,255,255)" stroke-width="1" opacity="1" d="M 5.5 0 L 42.5 0 L 48 4.5 L 48 43.5 L 45.5 47 L 43.5 48 L 4.5 48 L 0 42.5 L 0 5.5 L 3.5 1 L 5.5 0 Z M 2 16 L 2 32 L 31 32 Q 32 30 33 32 L 45 32 L 46 31 L 46 25 L 44 23 Q 45 17 43 16 L 26 16 Q 25 16 25 21 L 24 21 Q 24 16 24 16 L 2 16 Z " /><path fill="rgb(255,255,255)" stroke="rgb(255,255,255)" stroke-width="1" opacity="1" d="M 9 19 L 16.5 19 Q 17.5 19.12 17 23 L 24 23 L 24 29 L 9 29 L 9 19 Z " /><path fill="rgb(255,255,255)" stroke="rgb(255,255,255)" stroke-width="1" opacity="1" d="M 32 19 L 38.5 19 L 39 21 L 32.5 21 L 32 19 Z " /><path fill="rgb(255,255,255)" stroke="rgb(255,255,255)" stroke-width="1" opacity="1" d="M 32 26 L 40 26 L 40 29 L 32 29 L 32 26 Z " /><path fill="rgb(164,175,190)" stroke="rgb(164,175,190)" stroke-width="1" opacity="1" d="M 22.5 16 L 22.5 17 L 22.5 16 Z " /><path fill="rgb(164,175,190)" stroke="rgb(164,175,190)" stroke-width="1" opacity="1" d="M 26.5 16 L 26.5 17 L 26.5 16 Z " /><path fill="rgb(188,196,207)" stroke="rgb(188,196,207)" stroke-width="1" opacity="1" d="M 3.5 16 Q 5 17 2.5 18 Q 1 17 3.5 16 Z " /><path fill="rgb(188,196,207)" stroke="rgb(188,196,207)" stroke-width="1" opacity="1" d="M 25.5 16 L 25.5 17 L 25.5 16 Z " /><path fill="rgb(188,196,207)" stroke="rgb(188,196,207)" stroke-width="1" opacity="1" d="M 31.5 25 L 31.5 26 L 31.5 25 Z " /><path fill="rgb(188,196,207)" stroke="rgb(188,196,207)" stroke-width="1" opacity="1" d="M 39.5 25 L 39.5 26 L 39.5 25 Z " /><path fill="rgb(188,196,207)" stroke="rgb(188,196,207)" stroke-width="1" opacity="1" d="M 45.5 25 L 45.5 26 L 45.5 25 Z " /><path fill="rgb(188,196,207)" stroke="rgb(188,196,207)" stroke-width="1" opacity="1" d="M 9.5 29 L 24 29.5 L 9.5 30 L 9.5 29 Z " /><path fill="rgb(188,196,207)" stroke="rgb(188,196,207)" stroke-width="1" opacity="1" d="M 33.5 29 L 39 29.5 L 33.5 30 L 33.5 29 Z " /><path fill="rgb(188,196,207)" stroke="rgb(188,196,207)" stroke-width="1" opacity="1" d="M 2.5 30 Q 5 31 3.5 32 Q 1 31 2.5 30 Z " /><path fill="rgb(188,196,207)" stroke="rgb(188,196,207)" stroke-width="1" opacity="1" d="M 32.5 31 L 32.5 32 L 32.5 31 Z " /><path fill="rgb(188,196,207)" stroke="rgb(188,196,207)" stroke-width="1" opacity="1" d="M 43.5 31 L 43.5 32 L 43.5 31 Z " /><path fill="rgb(165,176,191)" stroke="rgb(165,176,191)" stroke-width="1" opacity="1" d="M 4.5 16 L 22 16.5 L 4.5 17 L 4.5 16 Z " /><path fill="rgb(165,176,191)" stroke="rgb(165,176,191)" stroke-width="1" opacity="1" d="M 27.5 16 L 41 16.5 L 27.5 17 L 27.5 16 Z " /><path fill="rgb(165,176,191)" stroke="rgb(165,176,191)" stroke-width="1" opacity="1" d="M 2.5 18 L 3 29.5 L 2 29.5 L 2.5 18 Z " /><path fill="rgb(165,176,191)" stroke="rgb(165,176,191)" stroke-width="1" opacity="1" d="M 43.5 18 L 43.5 19 L 43.5 18 Z " /><path fill="rgb(165,176,191)" stroke="rgb(165,176,191)" stroke-width="1" opacity="1" d="M 43.5 21 L 43.5 22 L 43.5 21 Z " /><path fill="rgb(165,176,191)" stroke="rgb(165,176,191)" stroke-width="1" opacity="1" d="M 40.5 27 L 40.5 28 L 40.5 27 Z " /><path fill="rgb(165,176,191)" stroke="rgb(165,176,191)" stroke-width="1" opacity="1" d="M 24.5 29 L 24.5 30 L 24.5 29 Z " /><path fill="rgb(161,173,188)" stroke="rgb(161,173,188)" stroke-width="1" opacity="1" d="M 32.5 18 L 39 18.5 L 32.5 19 L 32.5 18 Z " /><path fill="rgb(161,173,188)" stroke="rgb(161,173,188)" stroke-width="1" opacity="1" d="M 45.5 28 L 45.5 29 L 45.5 28 Z " /><path fill="rgb(161,173,188)" stroke="rgb(161,173,188)" stroke-width="1" opacity="1" d="M 39.5 29 L 39.5 30 L 39.5 29 Z " /><path fill="rgb(161,173,188)" stroke="rgb(161,173,188)" stroke-width="1" opacity="1" d="M 44.5 30 L 44.5 31 L 44.5 30 Z " /><path fill="rgb(226,229,234)" stroke="rgb(226,229,234)" stroke-width="1" opacity="1" d="M 23.5 16 L 23.5 17 L 23.5 16 Z " /><path fill="rgb(226,229,234)" stroke="rgb(226,229,234)" stroke-width="1" opacity="1" d="M 41.5 16 L 41.5 17 L 41.5 16 Z " /><path fill="rgb(226,229,234)" stroke="rgb(226,229,234)" stroke-width="1" opacity="1" d="M 17.5 19 L 18 22 L 23 22.5 L 18.5 23 Q 16 22 17.5 19 Z " /><path fill="rgb(226,229,234)" stroke="rgb(226,229,234)" stroke-width="1" opacity="1" d="M 31.5 19 L 32 20.5 L 31 20.5 L 31.5 19 Z " /><path fill="rgb(226,229,234)" stroke="rgb(226,229,234)" stroke-width="1" opacity="1" d="M 39.5 19 L 40 20.5 L 39 20.5 L 39.5 19 Z " /><path fill="rgb(226,229,234)" stroke="rgb(226,229,234)" stroke-width="1" opacity="1" d="M 43.5 22 Q 46 23 44.5 24 Q 42 23 43.5 22 Z " /><path fill="rgb(226,229,234)" stroke="rgb(226,229,234)" stroke-width="1" opacity="1" d="M 32.5 25 L 39 25.5 L 32 26 Q 31.25 28.58 33 29.5 L 30.5 32 L 30 31.5 Q 32 30.5 31 26.5 L 32.5 25 Z " /><path fill="rgb(226,229,234)" stroke="rgb(226,229,234)" stroke-width="1" opacity="1" d="M 45.5 29 L 45.5 30 L 45.5 29 Z " /><path fill="rgb(80,101,129)" stroke="rgb(80,101,129)" stroke-width="1" opacity="1" d="M 25.5 17 L 26 29.5 L 25 29.5 L 25.5 17 Z " /><path fill="rgb(80,101,129)" stroke="rgb(80,101,129)" stroke-width="1" opacity="1" d="M 8.5 18 L 8.5 19 L 8.5 18 Z " /><path fill="rgb(80,101,129)" stroke="rgb(80,101,129)" stroke-width="1" opacity="1" d="M 18.5 19 L 19 21.5 L 18 21.5 L 18.5 19 Z " /><path fill="rgb(80,101,129)" stroke="rgb(80,101,129)" stroke-width="1" opacity="1" d="M 30.5 19 L 31 20.5 L 30 20.5 L 30.5 19 Z " /><path fill="rgb(80,101,129)" stroke="rgb(80,101,129)" stroke-width="1" opacity="1" d="M 40.5 19 L 40.5 20 L 40.5 19 Z " /><path fill="rgb(80,101,129)" stroke="rgb(80,101,129)" stroke-width="1" opacity="1" d="M 39.5 21 L 39.5 22 L 39.5 21 Z " /><path fill="rgb(80,101,129)" stroke="rgb(80,101,129)" stroke-width="1" opacity="1" d="M 42.5 22 L 42.5 23 L 42.5 22 Z " /><path fill="rgb(80,101,129)" stroke="rgb(80,101,129)" stroke-width="1" opacity="1" d="M 32.5 24 L 35 24.5 L 32.5 25 L 32.5 24 Z " /><path fill="rgb(80,101,129)" stroke="rgb(80,101,129)" stroke-width="1" opacity="1" d="M 44.5 24 L 44.5 25 L 44.5 24 Z " /><path fill="rgb(80,101,129)" stroke="rgb(80,101,129)" stroke-width="1" opacity="1" d="M 40.5 25 L 40.5 26 L 40.5 25 Z " /><path fill="rgb(80,101,129)" stroke="rgb(80,101,129)" stroke-width="1" opacity="1" d="M 8.5 29 L 8.5 30 L 8.5 29 Z " /><path fill="rgb(80,101,129)" stroke="rgb(80,101,129)" stroke-width="1" opacity="1" d="M 30.5 30 L 30.5 31 L 30.5 30 Z " /><path fill="rgb(0,0,0)" stroke="rgb(0,0,0)" stroke-width="1" opacity="0" d="M 0.5 0 L 0.5 1 L 0.5 0 Z " /><path fill="rgb(0,0,0)" stroke="rgb(0,0,0)" stroke-width="1" opacity="0" d="M 47.5 0 L 47.5 1 L 47.5 0 Z " /><path fill="rgb(0,0,0)" stroke="rgb(0,0,0)" stroke-width="1" opacity="0" d="M 0.5 47 L 0.5 48 L 0.5 47 Z " /><path fill="rgb(0,0,0)" stroke="rgb(0,0,0)" stroke-width="1" opacity="0" d="M 47.5 47 L 47.5 48 L 47.5 47 Z " /><path fill="rgb(153,166,182)" stroke="rgb(153,166,182)" stroke-width="1" opacity="1" d="M 9.5 18 L 17 18.5 L 9.5 19 L 9.5 18 Z " /><path fill="rgb(153,166,182)" stroke="rgb(153,166,182)" stroke-width="1" opacity="1" d="M 31.5 18 L 31.5 19 L 31.5 18 Z " /><path fill="rgb(153,166,182)" stroke="rgb(153,166,182)" stroke-width="1" opacity="1" d="M 23.5 21 L 23.5 22 L 23.5 21 Z " /><path fill="rgb(153,166,182)" stroke="rgb(153,166,182)" stroke-width="1" opacity="1" d="M 32.5 21 L 39 21.5 L 32.5 22 L 32.5 21 Z " /><path fill="rgb(153,166,182)" stroke="rgb(153,166,182)" stroke-width="1" opacity="1" d="M 40.5 26 L 40.5 27 L 40.5 26 Z " /><path fill="rgb(153,166,182)" stroke="rgb(153,166,182)" stroke-width="1" opacity="1" d="M 45.5 26 L 45.5 27 L 45.5 26 Z " /><path fill="rgb(153,166,182)" stroke="rgb(153,166,182)" stroke-width="1" opacity="1" d="M 8.5 27 L 8.5 28 L 8.5 27 Z " /><path fill="rgb(153,166,182)" stroke="rgb(153,166,182)" stroke-width="1" opacity="1" d="M 32.5 30 L 32.5 31 L 32.5 30 Z " /><path fill="rgb(153,166,182)" stroke="rgb(153,166,182)" stroke-width="1" opacity="1" d="M 29.5 31 L 29.5 32 L 29.5 31 Z " /><path fill="rgb(153,166,182)" stroke="rgb(153,166,182)" stroke-width="1" opacity="1" d="M 42.5 31 L 42.5 32 L 42.5 31 Z " /><path fill="rgb(135,149,169)" stroke="rgb(135,149,169)" stroke-width="1" opacity="1" d="M 23.5 17 L 24 20.5 L 23 20.5 L 23.5 17 Z " /><path fill="rgb(135,149,169)" stroke="rgb(135,149,169)" stroke-width="1" opacity="1" d="M 42.5 17 L 42.5 18 L 42.5 17 Z " /><path fill="rgb(135,149,169)" stroke="rgb(135,149,169)" stroke-width="1" opacity="1" d="M 17.5 18 L 17.5 19 L 17.5 18 Z " /><path fill="rgb(135,149,169)" stroke="rgb(135,149,169)" stroke-width="1" opacity="1" d="M 39.5 18 L 39.5 19 L 39.5 18 Z " /><path fill="rgb(135,149,169)" stroke="rgb(135,149,169)" stroke-width="1" opacity="1" d="M 8.5 19 L 9 26.5 L 8 26.5 L 8.5 19 Z " /><path fill="rgb(135,149,169)" stroke="rgb(135,149,169)" stroke-width="1" opacity="1" d="M 43.5 19 L 44 20.5 L 43 20.5 L 43.5 19 Z " /><path fill="rgb(135,149,169)" stroke="rgb(135,149,169)" stroke-width="1" opacity="1" d="M 31.5 21 L 31.5 22 L 31.5 21 Z " /><path fill="rgb(135,149,169)" stroke="rgb(135,149,169)" stroke-width="1" opacity="1" d="M 43.5 23 L 43.5 24 L 43.5 23 Z " /><path fill="rgb(135,149,169)" stroke="rgb(135,149,169)" stroke-width="1" opacity="1" d="M 45.5 27 L 45.5 28 L 45.5 27 Z " /><path fill="rgb(135,149,169)" stroke="rgb(135,149,169)" stroke-width="1" opacity="1" d="M 8.5 28 L 8.5 29 L 8.5 28 Z " /><path fill="rgb(135,149,169)" stroke="rgb(135,149,169)" stroke-width="1" opacity="1" d="M 40.5 28 L 40.5 29 L 40.5 28 Z " /><path fill="rgb(135,149,169)" stroke="rgb(135,149,169)" stroke-width="1" opacity="1" d="M 4.5 31 L 29 31.5 L 4.5 32 L 4.5 31 Z " /><path fill="rgb(135,149,169)" stroke="rgb(135,149,169)" stroke-width="1" opacity="1" d="M 33.5 31 L 42 31.5 L 33.5 32 L 33.5 31 Z " /><path fill="rgb(44,70,103)" stroke="rgb(44,70,103)" stroke-width="1" opacity="1" d="M 3.5 17 L 3.5 18 L 3.5 17 Z " /><path fill="rgb(44,70,103)" stroke="rgb(44,70,103)" stroke-width="1" opacity="1" d="M 41.5 17 Q 43 18 40.5 19 Q 39 18 41.5 17 Z " /><path fill="rgb(44,70,103)" stroke="rgb(44,70,103)" stroke-width="1" opacity="1" d="M 18.5 18 L 18.5 19 L 18.5 18 Z " /><path fill="rgb(44,70,103)" stroke="rgb(44,70,103)" stroke-width="1" opacity="1" d="M 30.5 18 L 30.5 19 L 30.5 18 Z " /><path fill="rgb(44,70,103)" stroke="rgb(44,70,103)" stroke-width="1" opacity="1" d="M 40.5 20 L 40.5 21 L 40.5 20 Z " /><path fill="rgb(44,70,103)" stroke="rgb(44,70,103)" stroke-width="1" opacity="1" d="M 19.5 21 L 23 21.5 L 19.5 22 L 19.5 21 Z " /><path fill="rgb(44,70,103)" stroke="rgb(44,70,103)" stroke-width="1" opacity="1" d="M 30.5 21 L 30.5 22 L 30.5 21 Z " /><path fill="rgb(44,70,103)" stroke="rgb(44,70,103)" stroke-width="1" opacity="1" d="M 42.5 21 L 42.5 22 L 42.5 21 Z " /><path fill="rgb(44,70,103)" stroke="rgb(44,70,103)" stroke-width="1" opacity="1" d="M 42.5 23 L 42.5 24 L 42.5 23 Z " /><path fill="rgb(44,70,103)" stroke="rgb(44,70,103)" stroke-width="1" opacity="1" d="M 31.5 24 L 31 25.5 L 30.5 30 L 30 25.5 L 31.5 24 Z " /><path fill="rgb(44,70,103)" stroke="rgb(44,70,103)" stroke-width="1" opacity="1" d="M 35.5 24 L 40 24.5 L 35.5 25 L 35.5 24 Z " /><path fill="rgb(44,70,103)" stroke="rgb(44,70,103)" stroke-width="1" opacity="1" d="M 44.5 25 L 44.5 26 L 44.5 25 Z " /><path fill="rgb(44,70,103)" stroke="rgb(44,70,103)" stroke-width="1" opacity="1" d="M 40.5 29 L 40.5 30 L 40.5 29 Z " /><path fill="rgb(44,70,103)" stroke="rgb(44,70,103)" stroke-width="1" opacity="1" d="M 44.5 29 Q 46 30 43.5 31 Q 42 30 44.5 29 Z " /><path fill="rgb(44,70,103)" stroke="rgb(44,70,103)" stroke-width="1" opacity="1" d="M 3.5 30 L 3.5 31 L 3.5 30 Z " /><path fill="rgb(33,60,95)" stroke="rgb(33,60,95)" stroke-width="1" opacity="1" d="M 8.5 17 L 18.5 17 L 20 18.5 Q 19.25 20.75 21.5 20 L 23 19.5 L 20.5 21 L 19 18 L 8 18 L 8 29.5 L 8.5 31 Q 7.5 29 6.5 31 L 5 30.5 L 7 30 L 7 18.5 L 8.5 17 Z " /><path fill="rgb(33,60,95)" stroke="rgb(33,60,95)" stroke-width="1" opacity="1" d="M 31.5 17 L 40 17.5 L 31.5 18 L 31.5 17 Z " /><path fill="rgb(33,60,95)" stroke="rgb(33,60,95)" stroke-width="1" opacity="1" d="M 29.5 18 L 30 21.5 L 29 21.5 L 29.5 18 Z " /><path fill="rgb(33,60,95)" stroke="rgb(33,60,95)" stroke-width="1" opacity="1" d="M 41.5 18 L 42 20.5 L 41 20.5 L 41.5 18 Z " /><path fill="rgb(33,60,95)" stroke="rgb(33,60,95)" stroke-width="1" opacity="1" d="M 31 22 L 39.5 22 L 40 23.5 L 41 23.5 L 41.5 22 L 45 26.5 L 42 25.5 L 41.5 27 L 39.5 24 L 31.5 24 L 31 22 Z M 42 24 L 42 25 L 42 24 Z " /><path fill="rgb(33,60,95)" stroke="rgb(33,60,95)" stroke-width="1" opacity="1" d="M 29.5 25 L 30 29.5 L 29 29.5 L 29.5 25 Z " /><path fill="rgb(33,60,95)" stroke="rgb(33,60,95)" stroke-width="1" opacity="1" d="M 41.5 28 L 42.5 30 L 44.5 28 L 45 28.5 Q 43.88 31.5 41 31 L 41.5 28 Z " /><path fill="rgb(33,60,95)" stroke="rgb(33,60,95)" stroke-width="1" opacity="1" d="M 26.5 29 Q 29 30 27.5 31 Q 24.71 31.67 26.5 29 Z " /><path fill="rgb(33,60,95)" stroke="rgb(33,60,95)" stroke-width="1" opacity="1" d="M 39.5 30 L 39.5 31 L 39.5 30 Z " /><path fill="rgb(35,62,97)" stroke="rgb(35,62,97)" stroke-width="1" opacity="1" d="M 4.5 17 L 8 17.5 L 7 18.5 L 7 30 L 3 30 L 3 18.5 L 4.5 17 Z " /><path fill="rgb(35,62,97)" stroke="rgb(35,62,97)" stroke-width="1" opacity="1" d="M 19.5 17 Q 23.67 15.88 22 20 Q 19.33 21.13 20 18.5 L 19.5 17 Z " /><path fill="rgb(35,62,97)" stroke="rgb(35,62,97)" stroke-width="1" opacity="1" d="M 27 17 L 31 17.5 L 29 18 L 29 22 Q 32.33 20.88 31 25 L 29 25 L 29 30 L 27 30 L 27 17 Z " /><path fill="rgb(35,62,97)" stroke="rgb(35,62,97)" stroke-width="1" opacity="1" d="M 40.5 17 L 40.5 18 L 40.5 17 Z " /><path fill="rgb(35,62,97)" stroke="rgb(35,62,97)" stroke-width="1" opacity="1" d="M 42.5 18 L 42.5 19 L 42.5 18 Z " /><path fill="rgb(35,62,97)" stroke="rgb(35,62,97)" stroke-width="1" opacity="1" d="M 40 21 L 42 21.5 L 41 23.5 L 44 26.5 L 44 28.5 Q 43 31 42 29.5 L 41 27.5 L 42 25.5 Q 39.25 24.42 40 21 Z " /><path fill="rgb(35,62,97)" stroke="rgb(35,62,97)" stroke-width="1" opacity="1" d="M 9.5 30 L 25 30.5 L 9.5 31 L 9.5 30 Z " /><path fill="rgb(35,62,97)" stroke="rgb(35,62,97)" stroke-width="1" opacity="1" d="M 33.5 30 L 39 30.5 L 33.5 31 L 33.5 30 Z " /><path fill="rgb(31,59,94)" stroke="rgb(31,59,94)" stroke-width="1" opacity="1" d="M 22.5 17 L 23 18.5 L 22 18.5 L 22.5 17 Z " /><path fill="rgb(31,59,94)" stroke="rgb(31,59,94)" stroke-width="1" opacity="1" d="M 26.5 17 L 27 28.5 L 26 28.5 L 26.5 17 Z " /><path fill="rgb(31,59,94)" stroke="rgb(31,59,94)" stroke-width="1" opacity="1" d="M 42.5 19 L 43 20.5 L 42 20.5 L 42.5 19 Z " /><path fill="rgb(31,59,94)" stroke="rgb(31,59,94)" stroke-width="1" opacity="1" d="M 19.5 20 L 19.5 21 L 19.5 20 Z " /><path fill="rgb(31,59,94)" stroke="rgb(31,59,94)" stroke-width="1" opacity="1" d="M 22.5 20 L 22.5 21 L 22.5 20 Z " /><path fill="rgb(31,59,94)" stroke="rgb(31,59,94)" stroke-width="1" opacity="1" d="M 43.5 24 L 43.5 25 L 43.5 24 Z " /><path fill="rgb(31,59,94)" stroke="rgb(31,59,94)" stroke-width="1" opacity="1" d="M 44.5 27 L 44.5 28 L 44.5 27 Z " /><path fill="rgb(31,59,94)" stroke="rgb(31,59,94)" stroke-width="1" opacity="1" d="M 4.5 30 L 4.5 31 L 4.5 30 Z " /><path fill="rgb(31,59,94)" stroke="rgb(31,59,94)" stroke-width="1" opacity="1" d="M 7.5 30 L 7.5 31 L 7.5 30 Z " /><path fill="rgb(31,59,94)" stroke="rgb(31,59,94)" stroke-width="1" opacity="1" d="M 25.5 30 L 25.5 31 L 25.5 30 Z " /><path fill="rgb(31,59,94)" stroke="rgb(31,59,94)" stroke-width="1" opacity="1" d="M 28.5 30 L 30 30.5 L 28.5 31 L 28.5 30 Z " /><path fill="rgb(31,59,94)" stroke="rgb(31,59,94)" stroke-width="1" opacity="1" d="M 40.5 30 L 40.5 31 L 40.5 30 Z " /><path fill="rgb(255,255,255)" stroke="rgb(255,255,255)" stroke-width="1" opacity="0.41568627450980394" d="M 1.5 0 L 3 0.5 L 0.5 3 L 0 2.5 L 1.5 0 Z " /><path fill="rgb(255,255,255)" stroke="rgb(255,255,255)" stroke-width="1" opacity="0.41568627450980394" d="M 45.5 0 L 48 1.5 L 47.5 3 L 45 0.5 L 45.5 0 Z " /><path fill="rgb(255,255,255)" stroke="rgb(255,255,255)" stroke-width="1" opacity="0.41568627450980394" d="M 0.5 45 L 3 47.5 L 2.5 48 L 0 46.5 L 0.5 45 Z " /><path fill="rgb(255,255,255)" stroke="rgb(255,255,255)" stroke-width="1" opacity="0.41568627450980394" d="M 47.5 45 L 48 46.5 L 45.5 48 L 45.5 47 L 47 47 L 47.5 45 Z " /></svg>