<svg width="48" height="48" version="1.1" xmlns="http://www.w3.org/2000/svg" desc="Created with imagetracer.js version 1.2.6" ><path fill="rgb(249,249,249)" stroke="rgb(249,249,249)" stroke-width="1" opacity="1" d="M 2.5 11 L 2.5 12 L 2.5 11 Z " /><path fill="rgb(249,249,249)" stroke="rgb(249,249,249)" stroke-width="1" opacity="1" d="M 45.5 11 L 45.5 12 L 45.5 11 Z " /><path fill="rgb(249,249,249)" stroke="rgb(249,249,249)" stroke-width="1" opacity="1" d="M 7.5 14 L 41 14.5 L 7.5 15 L 7.5 14 Z " /><path fill="rgb(249,249,249)" stroke="rgb(249,249,249)" stroke-width="1" opacity="1" d="M 43.5 15 Q 46 16 44.5 17 Q 42 16 43.5 15 Z " /><path fill="rgb(249,249,249)" stroke="rgb(249,249,249)" stroke-width="1" opacity="1" d="M 46.5 15 L 47 32.5 L 46 32.5 L 45 30.5 Q 46.75 29.75 46 26.5 Q 44 25.5 46 24.5 L 46.5 15 Z " /><path fill="rgb(249,249,249)" stroke="rgb(249,249,249)" stroke-width="1" opacity="1" d="M 2.5 19 L 3 27.5 L 2 27.5 L 2.5 19 Z " /><path fill="rgb(249,249,249)" stroke="rgb(249,249,249)" stroke-width="1" opacity="1" d="M 9.5 20 L 9.5 21 L 9.5 20 Z " /><path fill="rgb(249,249,249)" stroke="rgb(249,249,249)" stroke-width="1" opacity="1" d="M 9.5 27 L 9.5 28 L 9.5 27 Z " /><path fill="rgb(249,249,249)" stroke="rgb(249,249,249)" stroke-width="1" opacity="1" d="M 39.5 27 L 39.5 28 L 39.5 27 Z " /><path fill="rgb(249,249,249)" stroke="rgb(249,249,249)" stroke-width="1" opacity="1" d="M 44.5 32 L 44.5 33 L 44.5 32 Z " /><path fill="rgb(249,249,249)" stroke="rgb(249,249,249)" stroke-width="1" opacity="1" d="M 7.5 33 L 7.5 34 L 7.5 33 Z " /><path fill="rgb(249,249,249)" stroke="rgb(249,249,249)" stroke-width="1" opacity="1" d="M 21.5 33 L 21.5 34 L 21.5 33 Z " /><path fill="rgb(249,249,249)" stroke="rgb(249,249,249)" stroke-width="1" opacity="1" d="M 24.5 33 L 26 33.5 L 24.5 34 L 24.5 33 Z " /><path fill="rgb(249,249,249)" stroke="rgb(249,249,249)" stroke-width="1" opacity="1" d="M 42.5 33 L 42.5 34 L 42.5 33 Z " /><path fill="rgb(255,255,255)" stroke="rgb(255,255,255)" stroke-width="1" opacity="0.996078431372549" d="M 0 0 L 3 0.5 L 1 1 L 0.5 3 L 0 0 Z " /><path fill="rgb(255,255,255)" stroke="rgb(255,255,255)" stroke-width="1" opacity="0.996078431372549" d="M 45.5 0 Q 48.83 -1.13 48 1.5 L 46.5 1 Q 44.12 0.87 45.5 0 Z " /><path fill="rgb(255,255,255)" stroke="rgb(255,255,255)" stroke-width="1" opacity="0.996078431372549" d="M 0.5 45 L 2 47.5 L 0 48 L 0.5 45 Z " /><path fill="rgb(255,255,255)" stroke="rgb(255,255,255)" stroke-width="1" opacity="0.996078431372549" d="M 47.5 46 L 48 48 L 46 47.5 L 47.5 46 Z " /><path fill="rgb(255,255,255)" stroke="rgb(255,255,255)" stroke-width="1" opacity="1" d="M 3.5 0 L 44.5 0 L 48 2.5 L 47.5 13 L 45.5 11 L 2.5 11 L 0.5 13 L 0 12.5 Q -1.12 4.31 1 1 L 3.5 0 Z " /><path fill="rgb(255,255,255)" stroke="rgb(255,255,255)" stroke-width="1" opacity="1" d="M 3.5 13 L 44.5 13 L 46 14.5 L 45.5 25 Q 42.75 23.75 45 22.5 L 45 16.5 L 43.5 15 L 40.5 14 L 7.5 14 L 3 17.5 L 2.5 19 L 2 14.5 L 3.5 13 Z " /><path fill="rgb(255,255,255)" stroke="rgb(255,255,255)" stroke-width="1" opacity="1" d="M 10.5 20 L 39 20.5 L 24 21 L 24 34 L 42.5 34 L 45 33 L 45.5 31 L 46 33.5 L 44.5 35 L 3.5 35 Q 0.75 33.75 2 28.5 L 3 28.5 Q 2.5 32.5 5.5 33 L 7.5 34 L 22 34 L 22 28 L 10.5 28 Q 7.75 26.75 9 21.5 L 10.5 20 Z " /><path fill="rgb(255,255,255)" stroke="rgb(255,255,255)" stroke-width="1" opacity="1" d="M 30.5 27 L 39 27.5 L 30.5 28 L 30.5 27 Z " /><path fill="rgb(255,255,255)" stroke="rgb(255,255,255)" stroke-width="1" opacity="1" d="M 0.5 35 L 2.5 37 L 45.5 37 L 47.5 35 L 48 35.5 L 48 45.5 L 45.5 48 L 2.5 48 L 1 46.5 L 0 44.5 L 0.5 35 Z " /><path fill="rgb(183,183,183)" stroke="rgb(183,183,183)" stroke-width="1" opacity="1" d="M 25.5 21 L 28 21.5 L 25 22 L 24.5 28 L 24 22.5 L 25.5 21 Z " /><path fill="rgb(183,183,183)" stroke="rgb(183,183,183)" stroke-width="1" opacity="1" d="M 44.5 24 L 44.5 25 L 44.5 24 Z " /><path fill="rgb(183,183,183)" stroke="rgb(183,183,183)" stroke-width="1" opacity="1" d="M 4.5 35 Q 6 36 3.5 37 Q 2 36 4.5 35 Z " /><path fill="rgb(186,186,186)" stroke="rgb(186,186,186)" stroke-width="1" opacity="1" d="M 4.5 11 L 44 11.5 L 4.5 12 L 4.5 11 Z " /><path fill="rgb(186,186,186)" stroke="rgb(186,186,186)" stroke-width="1" opacity="1" d="M 44.5 31 L 44.5 32 L 44.5 31 Z " /><path fill="rgb(186,186,186)" stroke="rgb(186,186,186)" stroke-width="1" opacity="1" d="M 5.5 35 L 44 35.5 L 5.5 36 L 5.5 35 Z " /><path fill="rgb(40,40,40)" stroke="rgb(40,40,40)" stroke-width="1" opacity="1" d="M 7.5 22 L 8 25.5 L 7 25.5 L 7.5 22 Z " /><path fill="rgb(40,40,40)" stroke="rgb(40,40,40)" stroke-width="1" opacity="1" d="M 43.5 24 L 43.5 25 L 43.5 24 Z " /><path fill="rgb(40,40,40)" stroke="rgb(40,40,40)" stroke-width="1" opacity="1" d="M 44.5 26 L 45 28.5 L 44 28.5 L 44.5 26 Z " /><path fill="rgb(40,40,40)" stroke="rgb(40,40,40)" stroke-width="1" opacity="1" d="M 29.5 28 L 29.5 29 L 29.5 28 Z " /><path fill="rgb(40,40,40)" stroke="rgb(40,40,40)" stroke-width="1" opacity="1" d="M 19.5 32 L 19.5 33 L 19.5 32 Z " /><path fill="rgb(4,4,4)" stroke="rgb(4,4,4)" stroke-width="1" opacity="1" d="M 6.5 16 Q 8 17 5.5 18 Q 4 17 6.5 16 Z " /><path fill="rgb(4,4,4)" stroke="rgb(4,4,4)" stroke-width="1" opacity="1" d="M 8.5 16 L 11 16.5 L 8.5 17 L 8.5 16 Z " /><path fill="rgb(4,4,4)" stroke="rgb(4,4,4)" stroke-width="1" opacity="1" d="M 9.5 18 L 9.5 19 L 9.5 18 Z " /><path fill="rgb(4,4,4)" stroke="rgb(4,4,4)" stroke-width="1" opacity="1" d="M 11.5 18 L 11.5 19 L 11.5 18 Z " /><path fill="rgb(4,4,4)" stroke="rgb(4,4,4)" stroke-width="1" opacity="1" d="M 32.5 18 L 40 18.5 L 32.5 19 L 32.5 18 Z " /><path fill="rgb(4,4,4)" stroke="rgb(4,4,4)" stroke-width="1" opacity="1" d="M 4.5 19 L 5 27.5 L 4 27.5 L 4.5 19 Z " /><path fill="rgb(4,4,4)" stroke="rgb(4,4,4)" stroke-width="1" opacity="1" d="M 43.5 19 L 44 20.5 L 43 20.5 L 43.5 19 Z " /><path fill="rgb(4,4,4)" stroke="rgb(4,4,4)" stroke-width="1" opacity="1" d="M 28.5 26 L 28.5 27 L 28.5 26 Z " /><path fill="rgb(4,4,4)" stroke="rgb(4,4,4)" stroke-width="1" opacity="1" d="M 41.5 26 L 42 27.5 L 41 27.5 L 41.5 26 Z " /><path fill="rgb(4,4,4)" stroke="rgb(4,4,4)" stroke-width="1" opacity="1" d="M 9.5 29 L 9.5 30 L 9.5 29 Z " /><path fill="rgb(4,4,4)" stroke="rgb(4,4,4)" stroke-width="1" opacity="1" d="M 39.5 29 L 39.5 30 L 39.5 29 Z " /><path fill="rgb(4,4,4)" stroke="rgb(4,4,4)" stroke-width="1" opacity="1" d="M 43.5 29 L 43.5 30 L 43.5 29 Z " /><path fill="rgb(4,4,4)" stroke="rgb(4,4,4)" stroke-width="1" opacity="1" d="M 6.5 31 L 20 31.5 L 6.5 32 L 6.5 31 Z " /><path fill="rgb(4,4,4)" stroke="rgb(4,4,4)" stroke-width="1" opacity="1" d="M 26.5 31 L 42 31.5 L 26.5 32 L 26.5 31 Z " /><path fill="rgb(2,2,2)" stroke="rgb(2,2,2)" stroke-width="1" opacity="1" d="M 19.5 29 L 19.5 30 L 19.5 29 Z " /><path fill="rgb(3,3,3)" stroke="rgb(3,3,3)" stroke-width="1" opacity="1" d="M 7.5 16 L 7.5 17 L 7.5 16 Z " /><path fill="rgb(3,3,3)" stroke="rgb(3,3,3)" stroke-width="1" opacity="1" d="M 11.5 16 L 42 16.5 L 11.5 17 L 11.5 16 Z " /><path fill="rgb(3,3,3)" stroke="rgb(3,3,3)" stroke-width="1" opacity="1" d="M 10.5 18 L 10.5 19 L 10.5 18 Z " /><path fill="rgb(3,3,3)" stroke="rgb(3,3,3)" stroke-width="1" opacity="1" d="M 12.5 18 L 32 18.5 L 12.5 19 L 12.5 18 Z " /><path fill="rgb(3,3,3)" stroke="rgb(3,3,3)" stroke-width="1" opacity="1" d="M 43.5 25 L 43.5 26 L 43.5 25 Z " /><path fill="rgb(3,3,3)" stroke="rgb(3,3,3)" stroke-width="1" opacity="1" d="M 28.5 27 L 28.5 28 L 28.5 27 Z " /><path fill="rgb(3,3,3)" stroke="rgb(3,3,3)" stroke-width="1" opacity="1" d="M 4.5 28 L 4.5 29 L 4.5 28 Z " /><path fill="rgb(3,3,3)" stroke="rgb(3,3,3)" stroke-width="1" opacity="1" d="M 10.5 29 L 19 29.5 L 10.5 30 L 10.5 29 Z " /><path fill="rgb(3,3,3)" stroke="rgb(3,3,3)" stroke-width="1" opacity="1" d="M 30.5 29 L 39 29.5 L 30.5 30 L 30.5 29 Z " /><path fill="rgb(3,3,3)" stroke="rgb(3,3,3)" stroke-width="1" opacity="1" d="M 5.5 30 L 5.5 31 L 5.5 30 Z " /><path fill="rgb(3,3,3)" stroke="rgb(3,3,3)" stroke-width="1" opacity="1" d="M 43.5 30 Q 45 31 42.5 32 Q 41 31 43.5 30 Z " /><path fill="rgb(13,13,13)" stroke="rgb(13,13,13)" stroke-width="1" opacity="1" d="M 43.5 17 L 43.5 18 L 43.5 17 Z " /><path fill="rgb(13,13,13)" stroke="rgb(13,13,13)" stroke-width="1" opacity="1" d="M 8.5 19 L 8.5 20 L 8.5 19 Z " /><path fill="rgb(13,13,13)" stroke="rgb(13,13,13)" stroke-width="1" opacity="1" d="M 7.5 21 L 7.5 22 L 7.5 21 Z " /><path fill="rgb(13,13,13)" stroke="rgb(13,13,13)" stroke-width="1" opacity="1" d="M 43.5 21 L 43.5 22 L 43.5 21 Z " /><path fill="rgb(13,13,13)" stroke="rgb(13,13,13)" stroke-width="1" opacity="1" d="M 25 22 L 39 22.5 L 26 23 L 25.5 29 L 25 22 Z " /><path fill="rgb(13,13,13)" stroke="rgb(13,13,13)" stroke-width="1" opacity="1" d="M 42.5 23 L 42.5 24 L 42.5 23 Z " /><path fill="rgb(13,13,13)" stroke="rgb(13,13,13)" stroke-width="1" opacity="1" d="M 38.5 25 L 38.5 26 L 38.5 25 Z " /><path fill="rgb(13,13,13)" stroke="rgb(13,13,13)" stroke-width="1" opacity="1" d="M 7.5 26 L 7.5 27 L 7.5 26 Z " /><path fill="rgb(13,13,13)" stroke="rgb(13,13,13)" stroke-width="1" opacity="1" d="M 8.5 28 L 8.5 29 L 8.5 28 Z " /><path fill="rgb(13,13,13)" stroke="rgb(13,13,13)" stroke-width="1" opacity="1" d="M 40.5 28 L 40.5 29 L 40.5 28 Z " /><path fill="rgb(13,13,13)" stroke="rgb(13,13,13)" stroke-width="1" opacity="1" d="M 20.5 29 L 21 31.5 L 20 31.5 L 20.5 29 Z " /><path fill="rgb(13,13,13)" stroke="rgb(13,13,13)" stroke-width="1" opacity="1" d="M 43.5 31 L 43.5 32 L 43.5 31 Z " /><path fill="rgb(176,176,176)" stroke="rgb(176,176,176)" stroke-width="1" opacity="1" d="M 39.5 20 L 39.5 21 L 39.5 20 Z " /><path fill="rgb(176,176,176)" stroke="rgb(176,176,176)" stroke-width="1" opacity="1" d="M 44.5 21 L 44.5 22 L 44.5 21 Z " /><path fill="rgb(176,176,176)" stroke="rgb(176,176,176)" stroke-width="1" opacity="1" d="M 30.5 26 L 39 26.5 L 30.5 27 L 30.5 26 Z " /><path fill="rgb(176,176,176)" stroke="rgb(176,176,176)" stroke-width="1" opacity="1" d="M 24.5 28 L 25 31.5 L 24 31.5 L 24.5 28 Z " /><path fill="rgb(176,176,176)" stroke="rgb(176,176,176)" stroke-width="1" opacity="1" d="M 1.5 33 L 1.5 34 L 1.5 33 Z " /><path fill="rgb(176,176,176)" stroke="rgb(176,176,176)" stroke-width="1" opacity="1" d="M 47.5 34 Q 49 35 46.5 36 Q 45 35 47.5 34 Z " /><path fill="rgb(176,176,176)" stroke="rgb(176,176,176)" stroke-width="1" opacity="1" d="M 44.5 36 L 44.5 37 L 44.5 36 Z " /><path fill="rgb(196,196,196)" stroke="rgb(196,196,196)" stroke-width="1" opacity="1" d="M 46.5 12 Q 49.5 13.5 46.5 15 L 46.5 12 Z " /><path fill="rgb(196,196,196)" stroke="rgb(196,196,196)" stroke-width="1" opacity="1" d="M 4.5 16 L 4.5 17 L 4.5 16 Z " /><path fill="rgb(196,196,196)" stroke="rgb(196,196,196)" stroke-width="1" opacity="1" d="M 44.5 17 L 44.5 18 L 44.5 17 Z " /><path fill="rgb(196,196,196)" stroke="rgb(196,196,196)" stroke-width="1" opacity="1" d="M 8.5 21 L 8.5 22 L 8.5 21 Z " /><path fill="rgb(196,196,196)" stroke="rgb(196,196,196)" stroke-width="1" opacity="1" d="M 1.5 35 L 1.5 36 L 1.5 35 Z " /><path fill="rgb(190,190,190)" stroke="rgb(190,190,190)" stroke-width="1" opacity="1" d="M 2.5 13 L 2.5 14 L 2.5 13 Z " /><path fill="rgb(190,190,190)" stroke="rgb(190,190,190)" stroke-width="1" opacity="1" d="M 28.5 21 L 39 21.5 L 28.5 22 L 28.5 21 Z " /><path fill="rgb(190,190,190)" stroke="rgb(190,190,190)" stroke-width="1" opacity="1" d="M 4.5 31 L 4.5 32 L 4.5 31 Z " /><path fill="rgb(190,190,190)" stroke="rgb(190,190,190)" stroke-width="1" opacity="1" d="M 24.5 32 L 24.5 33 L 24.5 32 Z " /><path fill="rgb(6,6,6)" stroke="rgb(6,6,6)" stroke-width="1" opacity="1" d="M 42.5 17 L 42.5 18 L 42.5 17 Z " /><path fill="rgb(6,6,6)" stroke="rgb(6,6,6)" stroke-width="1" opacity="1" d="M 4.5 18 L 4.5 19 L 4.5 18 Z " /><path fill="rgb(6,6,6)" stroke="rgb(6,6,6)" stroke-width="1" opacity="1" d="M 40.5 19 L 40.5 20 L 40.5 19 Z " /><path fill="rgb(6,6,6)" stroke="rgb(6,6,6)" stroke-width="1" opacity="1" d="M 7.5 20 L 7.5 21 L 7.5 20 Z " /><path fill="rgb(6,6,6)" stroke="rgb(6,6,6)" stroke-width="1" opacity="1" d="M 6.5 22 L 7 25.5 L 6 25.5 L 6.5 22 Z " /><path fill="rgb(6,6,6)" stroke="rgb(6,6,6)" stroke-width="1" opacity="1" d="M 42.5 22 L 42.5 23 L 42.5 22 Z " /><path fill="rgb(6,6,6)" stroke="rgb(6,6,6)" stroke-width="1" opacity="1" d="M 43.5 26 L 44 28.5 L 43 28.5 L 43.5 26 Z " /><path fill="rgb(6,6,6)" stroke="rgb(6,6,6)" stroke-width="1" opacity="1" d="M 28.5 28 Q 31 29 29.5 30 Q 27 29 28.5 28 Z " /><path fill="rgb(118,118,118)" stroke="rgb(118,118,118)" stroke-width="1" opacity="1" d="M 2.5 12 L 4 12.5 L 1.5 14 Q 0 13 2.5 12 Z " /><path fill="rgb(118,118,118)" stroke="rgb(118,118,118)" stroke-width="1" opacity="1" d="M 44.5 12 L 47 13.5 L 45.5 13 Q 43.13 12.88 44.5 12 Z " /><path fill="rgb(118,118,118)" stroke="rgb(118,118,118)" stroke-width="1" opacity="1" d="M 6.5 15 L 6.5 16 L 6.5 15 Z " /><path fill="rgb(118,118,118)" stroke="rgb(118,118,118)" stroke-width="1" opacity="1" d="M 10.5 19 L 39 19.5 L 10.5 20 L 10.5 19 Z " /><path fill="rgb(118,118,118)" stroke="rgb(118,118,118)" stroke-width="1" opacity="1" d="M 44.5 19 L 44.5 20 L 44.5 19 Z " /><path fill="rgb(118,118,118)" stroke="rgb(118,118,118)" stroke-width="1" opacity="1" d="M 29.5 27 L 29.5 28 L 29.5 27 Z " /><path fill="rgb(118,118,118)" stroke="rgb(118,118,118)" stroke-width="1" opacity="1" d="M 20.5 28 L 20.5 29 L 20.5 28 Z " /><path fill="rgb(118,118,118)" stroke="rgb(118,118,118)" stroke-width="1" opacity="1" d="M 6.5 32 L 6.5 33 L 6.5 32 Z " /><path fill="rgb(118,118,118)" stroke="rgb(118,118,118)" stroke-width="1" opacity="1" d="M 0.5 33 L 0.5 34 L 0.5 33 Z " /><path fill="rgb(118,118,118)" stroke="rgb(118,118,118)" stroke-width="1" opacity="1" d="M 46.5 34 Q 48 35 45.5 36 Q 44 35 46.5 34 Z " /><path fill="rgb(118,118,118)" stroke="rgb(118,118,118)" stroke-width="1" opacity="1" d="M 2.5 35 L 2.5 36 L 2.5 35 Z " /><path fill="rgb(8,8,8)" stroke="rgb(8,8,8)" stroke-width="1" opacity="1" d="M 42.5 16 L 42 17.5 L 43 20.5 L 40 20.5 Q 42.25 19.25 39.5 18 L 8.5 18 L 6 20.5 Q 4.25 28.25 8.5 30 L 19 30.5 L 6 31 L 5.5 29 L 4 29.5 L 5 28.5 L 5 19.5 L 7.5 17 L 41.5 17 L 42.5 16 Z " /><path fill="rgb(8,8,8)" stroke="rgb(8,8,8)" stroke-width="1" opacity="1" d="M 39.5 22 Q 44.5 23.79 43 31 L 27 31 L 27 24 L 29.5 25 L 38 25.5 L 29.5 26 L 28 25.5 Q 27.25 29.25 29.5 30 L 40.5 30 L 42 28.5 Q 42.5 25.5 40.5 25 L 39 25.5 L 40 23.5 L 39.5 22 Z " /><path fill="rgb(8,8,8)" stroke="rgb(8,8,8)" stroke-width="1" opacity="1" d="M 25.5 29 L 26 30.5 L 25 30.5 L 25.5 29 Z " /><path fill="rgb(156,156,156)" stroke="rgb(156,156,156)" stroke-width="1" opacity="1" d="M 4.5 12 L 44 12.5 L 4.5 13 L 4.5 12 Z " /><path fill="rgb(156,156,156)" stroke="rgb(156,156,156)" stroke-width="1" opacity="1" d="M 0.5 14 L 2 14.5 L 0.5 15 L 0.5 14 Z " /><path fill="rgb(156,156,156)" stroke="rgb(156,156,156)" stroke-width="1" opacity="1" d="M 42.5 15 L 42.5 16 L 42.5 15 Z " /><path fill="rgb(156,156,156)" stroke="rgb(156,156,156)" stroke-width="1" opacity="1" d="M 3.5 18 L 3.5 19 L 3.5 18 Z " /><path fill="rgb(156,156,156)" stroke="rgb(156,156,156)" stroke-width="1" opacity="1" d="M 44.5 18 L 44.5 19 L 44.5 18 Z " /><path fill="rgb(156,156,156)" stroke="rgb(156,156,156)" stroke-width="1" opacity="1" d="M 44.5 20 L 44.5 21 L 44.5 20 Z " /><path fill="rgb(156,156,156)" stroke="rgb(156,156,156)" stroke-width="1" opacity="1" d="M 43.5 23 L 43.5 24 L 43.5 23 Z " /><path fill="rgb(156,156,156)" stroke="rgb(156,156,156)" stroke-width="1" opacity="1" d="M 39.5 26 L 39.5 27 L 39.5 26 Z " /><path fill="rgb(156,156,156)" stroke="rgb(156,156,156)" stroke-width="1" opacity="1" d="M 3.5 29 L 3.5 30 L 3.5 29 Z " /><path fill="rgb(156,156,156)" stroke="rgb(156,156,156)" stroke-width="1" opacity="1" d="M 43.5 32 L 43.5 33 L 43.5 32 Z " /><path fill="rgb(156,156,156)" stroke="rgb(156,156,156)" stroke-width="1" opacity="1" d="M 3.5 35 L 4.5 36 L 43.5 36 L 45 35.5 L 43.5 37 L 4.5 37 Q 2 36 3.5 35 Z " /><path fill="rgb(107,107,107)" stroke="rgb(107,107,107)" stroke-width="1" opacity="1" d="M 47.5 14 L 48 33.5 L 47 33.5 L 47.5 14 Z " /><path fill="rgb(107,107,107)" stroke="rgb(107,107,107)" stroke-width="1" opacity="1" d="M 0.5 15 L 1 32.5 L 0 32.5 L 0.5 15 Z " /><path fill="rgb(107,107,107)" stroke="rgb(107,107,107)" stroke-width="1" opacity="1" d="M 43.5 16 L 43.5 17 L 43.5 16 Z " /><path fill="rgb(107,107,107)" stroke="rgb(107,107,107)" stroke-width="1" opacity="1" d="M 8.5 20 L 8.5 21 L 8.5 20 Z " /><path fill="rgb(107,107,107)" stroke="rgb(107,107,107)" stroke-width="1" opacity="1" d="M 39.5 21 L 39.5 22 L 39.5 21 Z " /><path fill="rgb(107,107,107)" stroke="rgb(107,107,107)" stroke-width="1" opacity="1" d="M 8.5 27 L 8.5 28 L 8.5 27 Z " /><path fill="rgb(107,107,107)" stroke="rgb(107,107,107)" stroke-width="1" opacity="1" d="M 3.5 28 L 3.5 29 L 3.5 28 Z " /><path fill="rgb(107,107,107)" stroke="rgb(107,107,107)" stroke-width="1" opacity="1" d="M 10.5 28 L 20 28.5 L 10.5 29 L 10.5 28 Z " /><path fill="rgb(107,107,107)" stroke="rgb(107,107,107)" stroke-width="1" opacity="1" d="M 1.5 34 L 1.5 35 L 1.5 34 Z " /><path fill="rgb(7,7,7)" stroke="rgb(7,7,7)" stroke-width="1" opacity="1" d="M 6.5 17 Q 8 18 5.5 19 Q 4 18 6.5 17 Z " /><path fill="rgb(7,7,7)" stroke="rgb(7,7,7)" stroke-width="1" opacity="1" d="M 8.5 18 L 9 18.5 L 7 20.5 L 6.5 22 L 6 20.5 L 8.5 18 Z " /><path fill="rgb(7,7,7)" stroke="rgb(7,7,7)" stroke-width="1" opacity="1" d="M 42.5 18 L 44 18.5 L 42.5 19 L 42.5 18 Z " /><path fill="rgb(7,7,7)" stroke="rgb(7,7,7)" stroke-width="1" opacity="1" d="M 41.5 20 Q 44.25 21.25 42 22.5 L 43 24.5 L 40 23.5 L 41 25.5 L 39.5 25 L 29.5 25 L 28.5 26 L 28.5 24 L 27 24.5 L 27 30.5 Q 26 33 25 31.5 L 26 30.5 L 26 23 L 39.5 23 L 40 21.5 L 41.5 20 Z " /><path fill="rgb(7,7,7)" stroke="rgb(7,7,7)" stroke-width="1" opacity="1" d="M 6.5 26 L 9 29.5 L 8.5 30 L 6 27.5 L 6.5 26 Z " /><path fill="rgb(7,7,7)" stroke="rgb(7,7,7)" stroke-width="1" opacity="1" d="M 41.5 28 Q 43 29 40.5 30 Q 39 29 41.5 28 Z " /><path fill="rgb(7,7,7)" stroke="rgb(7,7,7)" stroke-width="1" opacity="1" d="M 5.5 29 L 5.5 30 L 5.5 29 Z " /><path fill="rgb(7,7,7)" stroke="rgb(7,7,7)" stroke-width="1" opacity="1" d="M 19.5 30 L 19.5 31 L 19.5 30 Z " /><path fill="rgb(229,229,229)" stroke="rgb(229,229,229)" stroke-width="1" opacity="1" d="M 1.5 12 Q 3 13 0.5 14 Q -1 13 1.5 12 Z " /><path fill="rgb(229,229,229)" stroke="rgb(229,229,229)" stroke-width="1" opacity="1" d="M 5.5 15 L 5.5 16 L 5.5 15 Z " /><path fill="rgb(229,229,229)" stroke="rgb(229,229,229)" stroke-width="1" opacity="1" d="M 1.5 16 L 2 32.5 L 1 32.5 L 1.5 16 Z " /><path fill="rgb(229,229,229)" stroke="rgb(229,229,229)" stroke-width="1" opacity="1" d="M 3.5 17 L 3.5 18 L 3.5 17 Z " /><path fill="rgb(229,229,229)" stroke="rgb(229,229,229)" stroke-width="1" opacity="1" d="M 24.5 21 L 24.5 22 L 24.5 21 Z " /><path fill="rgb(229,229,229)" stroke="rgb(229,229,229)" stroke-width="1" opacity="1" d="M 8.5 22 L 9 25.5 L 8 25.5 L 8.5 22 Z " /><path fill="rgb(229,229,229)" stroke="rgb(229,229,229)" stroke-width="1" opacity="1" d="M 44.5 22 L 44.5 23 L 44.5 22 Z " /><path fill="rgb(229,229,229)" stroke="rgb(229,229,229)" stroke-width="1" opacity="1" d="M 45.5 26 L 46 29.5 L 45 29.5 L 45.5 26 Z " /><path fill="rgb(229,229,229)" stroke="rgb(229,229,229)" stroke-width="1" opacity="1" d="M 21.5 28 L 21.5 29 L 21.5 28 Z " /><path fill="rgb(229,229,229)" stroke="rgb(229,229,229)" stroke-width="1" opacity="1" d="M 3.5 30 L 3.5 31 L 3.5 30 Z " /><path fill="rgb(229,229,229)" stroke="rgb(229,229,229)" stroke-width="1" opacity="1" d="M 8.5 33 L 21 33.5 L 8.5 34 L 8.5 33 Z " /><path fill="rgb(229,229,229)" stroke="rgb(229,229,229)" stroke-width="1" opacity="1" d="M 26.5 33 L 42 33.5 L 26.5 34 L 26.5 33 Z " /><path fill="rgb(229,229,229)" stroke="rgb(229,229,229)" stroke-width="1" opacity="1" d="M 45.5 34 L 45.5 35 L 45.5 34 Z " /><path fill="rgb(229,229,229)" stroke="rgb(229,229,229)" stroke-width="1" opacity="1" d="M 2.5 36 L 2.5 37 L 2.5 36 Z " /><path fill="rgb(229,229,229)" stroke="rgb(229,229,229)" stroke-width="1" opacity="1" d="M 45.5 36 L 45.5 37 L 45.5 36 Z " /><path fill="rgb(52,52,52)" stroke="rgb(52,52,52)" stroke-width="1" opacity="1" d="M 4.5 17 L 4.5 18 L 4.5 17 Z " /><path fill="rgb(52,52,52)" stroke="rgb(52,52,52)" stroke-width="1" opacity="1" d="M 39.5 19 L 39.5 20 L 39.5 19 Z " /><path fill="rgb(52,52,52)" stroke="rgb(52,52,52)" stroke-width="1" opacity="1" d="M 3.5 20 L 3.5 21 L 3.5 20 Z " /><path fill="rgb(52,52,52)" stroke="rgb(52,52,52)" stroke-width="1" opacity="1" d="M 4.5 30 L 4.5 31 L 4.5 30 Z " /><path fill="rgb(52,52,52)" stroke="rgb(52,52,52)" stroke-width="1" opacity="1" d="M 7.5 32 L 7.5 33 L 7.5 32 Z " /><path fill="rgb(52,52,52)" stroke="rgb(52,52,52)" stroke-width="1" opacity="1" d="M 20.5 32 L 20.5 33 L 20.5 32 Z " /><path fill="rgb(52,52,52)" stroke="rgb(52,52,52)" stroke-width="1" opacity="1" d="M 25.5 32 L 25.5 33 L 25.5 32 Z " /><path fill="rgb(52,52,52)" stroke="rgb(52,52,52)" stroke-width="1" opacity="1" d="M 42.5 32 L 42.5 33 L 42.5 32 Z " /><path fill="rgb(51,51,51)" stroke="rgb(51,51,51)" stroke-width="1" opacity="1" d="M 5.5 16 L 5.5 17 L 5.5 16 Z " /><path fill="rgb(51,51,51)" stroke="rgb(51,51,51)" stroke-width="1" opacity="1" d="M 40.5 26 L 40.5 27 L 40.5 26 Z " /><path fill="rgb(51,51,51)" stroke="rgb(51,51,51)" stroke-width="1" opacity="1" d="M 44.5 29 L 44.5 30 L 44.5 29 Z " /><path fill="rgb(51,51,51)" stroke="rgb(51,51,51)" stroke-width="1" opacity="1" d="M 5.5 31 L 5.5 32 L 5.5 31 Z " /><path fill="rgb(51,51,51)" stroke="rgb(51,51,51)" stroke-width="1" opacity="1" d="M 8.5 32 L 19 32.5 L 8.5 33 L 8.5 32 Z " /><path fill="rgb(51,51,51)" stroke="rgb(51,51,51)" stroke-width="1" opacity="1" d="M 26.5 32 L 42 32.5 L 26.5 33 L 26.5 32 Z " /><path fill="rgb(206,206,206)" stroke="rgb(206,206,206)" stroke-width="1" opacity="1" d="M 3.5 11 L 3.5 12 L 3.5 11 Z " /><path fill="rgb(206,206,206)" stroke="rgb(206,206,206)" stroke-width="1" opacity="1" d="M 44.5 11 L 44.5 12 L 44.5 11 Z " /><path fill="rgb(206,206,206)" stroke="rgb(206,206,206)" stroke-width="1" opacity="1" d="M 45.5 13 L 45.5 14 L 45.5 13 Z " /><path fill="rgb(206,206,206)" stroke="rgb(206,206,206)" stroke-width="1" opacity="1" d="M 1.5 15 L 1.5 16 L 1.5 15 Z " /><path fill="rgb(206,206,206)" stroke="rgb(206,206,206)" stroke-width="1" opacity="1" d="M 8.5 26 L 8.5 27 L 8.5 26 Z " /><path fill="rgb(206,206,206)" stroke="rgb(206,206,206)" stroke-width="1" opacity="1" d="M 21.5 29 L 22 32.5 L 21 32.5 L 21.5 29 Z " /><path fill="rgb(206,206,206)" stroke="rgb(206,206,206)" stroke-width="1" opacity="1" d="M 5.5 32 L 5.5 33 L 5.5 32 Z " /><path fill="rgb(206,206,206)" stroke="rgb(206,206,206)" stroke-width="1" opacity="1" d="M 46.5 33 L 46.5 34 L 46.5 33 Z " /><path fill="rgb(206,206,206)" stroke="rgb(206,206,206)" stroke-width="1" opacity="1" d="M 0.5 34 L 0.5 35 L 0.5 34 Z " /><path fill="rgb(206,206,206)" stroke="rgb(206,206,206)" stroke-width="1" opacity="1" d="M 2.5 34 L 2.5 35 L 2.5 34 Z " /><path fill="rgb(81,81,81)" stroke="rgb(81,81,81)" stroke-width="1" opacity="1" d="M 7.5 15 L 42 15.5 L 7.5 16 L 7.5 15 Z " /><path fill="rgb(81,81,81)" stroke="rgb(81,81,81)" stroke-width="1" opacity="1" d="M 3.5 19 L 3.5 20 L 3.5 19 Z " /><path fill="rgb(81,81,81)" stroke="rgb(81,81,81)" stroke-width="1" opacity="1" d="M 9.5 19 L 9.5 20 L 9.5 19 Z " /><path fill="rgb(81,81,81)" stroke="rgb(81,81,81)" stroke-width="1" opacity="1" d="M 3.5 21 L 4 27.5 L 3 27.5 L 3.5 21 Z " /><path fill="rgb(81,81,81)" stroke="rgb(81,81,81)" stroke-width="1" opacity="1" d="M 43.5 22 L 43.5 23 L 43.5 22 Z " /><path fill="rgb(81,81,81)" stroke="rgb(81,81,81)" stroke-width="1" opacity="1" d="M 44.5 25 L 44.5 26 L 44.5 25 Z " /><path fill="rgb(81,81,81)" stroke="rgb(81,81,81)" stroke-width="1" opacity="1" d="M 29.5 26 L 29.5 27 L 29.5 26 Z " /><path fill="rgb(81,81,81)" stroke="rgb(81,81,81)" stroke-width="1" opacity="1" d="M 40.5 27 Q 42 28 39.5 29 L 30 28.5 L 39.5 28 L 40.5 27 Z " /><path fill="rgb(81,81,81)" stroke="rgb(81,81,81)" stroke-width="1" opacity="1" d="M 9.5 28 L 9.5 29 L 9.5 28 Z " /><path fill="rgb(81,81,81)" stroke="rgb(81,81,81)" stroke-width="1" opacity="1" d="M 44.5 30 L 44.5 31 L 44.5 30 Z " /></svg>