<svg width="48" height="48" version="1.1" xmlns="http://www.w3.org/2000/svg" desc="Created with imagetracer.js version 1.2.6" ><path fill="rgb(0,0,0)" stroke="rgb(0,0,0)" stroke-width="1" opacity="0" d="M 0 0 L 48 0 L 48 22.5 L 46.5 22 L 37.5 19 L 22.5 19 Q 21.75 20.75 18.5 20 L 19 18.5 Q 19.75 16.25 17.5 17 L 16.5 16 L 4.5 16 L 3 17.5 L 0.5 26 L 0 0 Z " /><path fill="rgb(0,0,0)" stroke="rgb(0,0,0)" stroke-width="1" opacity="0" d="M 36.5 25 Q 44.69 23.88 48 26 L 48 48 L 0 48 L 0 30.5 Q 0 29.5 4.5 30 Q 5.62 28 9 29 L 10.5 32 L 19.5 32 L 36.5 25 Z " /><path fill="rgb(4,102,72)" stroke="rgb(4,102,72)" stroke-width="1" opacity="0.01568627450980392" d="M 4.5 16 L 9 16.5 L 4.5 17 L 3.5 18 Q 2 17 4.5 16 Z " /><path fill="rgb(4,102,72)" stroke="rgb(4,102,72)" stroke-width="1" opacity="0.01568627450980392" d="M 16.5 16 L 16.5 17 L 16.5 16 Z " /><path fill="rgb(4,102,72)" stroke="rgb(4,102,72)" stroke-width="1" opacity="0.01568627450980392" d="M 18.5 17 L 19 18.5 L 18 18.5 L 18.5 17 Z " /><path fill="rgb(4,102,72)" stroke="rgb(4,102,72)" stroke-width="1" opacity="0.01568627450980392" d="M 22.5 19 L 25 19.5 L 22.5 20 L 22.5 19 Z " /><path fill="rgb(4,102,72)" stroke="rgb(4,102,72)" stroke-width="1" opacity="0.01568627450980392" d="M 36.5 19 L 38 19.5 L 36.5 20 L 36.5 19 Z " /><path fill="rgb(4,102,72)" stroke="rgb(4,102,72)" stroke-width="1" opacity="0.01568627450980392" d="M 2.5 20 L 2.5 21 L 2.5 20 Z " /><path fill="rgb(4,102,72)" stroke="rgb(4,102,72)" stroke-width="1" opacity="0.01568627450980392" d="M 41.5 20 L 41.5 21 L 41.5 20 Z " /><path fill="rgb(4,102,72)" stroke="rgb(4,102,72)" stroke-width="1" opacity="0.01568627450980392" d="M 44.5 21 L 44.5 22 L 44.5 21 Z " /><path fill="rgb(4,102,72)" stroke="rgb(4,102,72)" stroke-width="1" opacity="0.01568627450980392" d="M 46.5 22 L 46.5 23 L 46.5 22 Z " /><path fill="rgb(4,102,72)" stroke="rgb(4,102,72)" stroke-width="1" opacity="0.01568627450980392" d="M 35.5 25 L 35.5 26 L 35.5 25 Z " /><path fill="rgb(4,102,72)" stroke="rgb(4,102,72)" stroke-width="1" opacity="0.01568627450980392" d="M 46.5 25 L 48 25.5 L 46.5 26 L 46.5 25 Z " /><path fill="rgb(4,102,72)" stroke="rgb(4,102,72)" stroke-width="1" opacity="0.01568627450980392" d="M 0.5 26 L 0.5 27 L 0.5 26 Z " /><path fill="rgb(4,102,72)" stroke="rgb(4,102,72)" stroke-width="1" opacity="0.01568627450980392" d="M 31.5 26 L 33 26.5 L 31.5 27 L 31.5 26 Z " /><path fill="rgb(4,102,72)" stroke="rgb(4,102,72)" stroke-width="1" opacity="0.01568627450980392" d="M 29.5 27 L 29.5 28 L 29.5 27 Z " /><path fill="rgb(4,102,72)" stroke="rgb(4,102,72)" stroke-width="1" opacity="0.01568627450980392" d="M 26.5 28 L 26.5 29 L 26.5 28 Z " /><path fill="rgb(4,102,72)" stroke="rgb(4,102,72)" stroke-width="1" opacity="0.01568627450980392" d="M 3.5 29 L 5 29.5 L 3.5 30 L 3.5 29 Z " /><path fill="rgb(4,102,72)" stroke="rgb(4,102,72)" stroke-width="1" opacity="0.01568627450980392" d="M 9.5 29 L 10 31 L 12 31.5 L 10.5 32 Q 8.13 31.13 9.5 29 Z " /><path fill="rgb(4,102,72)" stroke="rgb(4,102,72)" stroke-width="1" opacity="0.01568627450980392" d="M 24.5 29 L 24.5 30 L 24.5 29 Z " /><path fill="rgb(4,102,72)" stroke="rgb(4,102,72)" stroke-width="1" opacity="0.01568627450980392" d="M 22.5 30 L 22.5 31 L 22.5 30 Z " /><path fill="rgb(4,102,72)" stroke="rgb(4,102,72)" stroke-width="1" opacity="0.01568627450980392" d="M 18.5 31 L 20 31.5 L 18.5 32 L 18.5 31 Z " /><path fill="rgb(3,102,72)" stroke="rgb(3,102,72)" stroke-width="1" opacity="0.11764705882352941" d="M 9.5 16 L 16 16.5 L 9.5 17 L 9.5 16 Z " /><path fill="rgb(3,102,72)" stroke="rgb(3,102,72)" stroke-width="1" opacity="0.11764705882352941" d="M 25.5 19 L 28 19.5 L 25.5 20 L 25.5 19 Z " /><path fill="rgb(3,102,72)" stroke="rgb(3,102,72)" stroke-width="1" opacity="0.11764705882352941" d="M 33.5 19 L 36 19.5 L 33.5 20 L 33.5 19 Z " /><path fill="rgb(3,102,72)" stroke="rgb(3,102,72)" stroke-width="1" opacity="0.11764705882352941" d="M 40.5 20 L 40.5 21 L 40.5 20 Z " /><path fill="rgb(3,102,72)" stroke="rgb(3,102,72)" stroke-width="1" opacity="0.11764705882352941" d="M 43.5 21 L 43.5 22 L 43.5 21 Z " /><path fill="rgb(3,102,72)" stroke="rgb(3,102,72)" stroke-width="1" opacity="0.11764705882352941" d="M 45.5 22 L 45.5 23 L 45.5 22 Z " /><path fill="rgb(3,102,72)" stroke="rgb(3,102,72)" stroke-width="1" opacity="0.11764705882352941" d="M 47.5 23 L 47.5 24 L 47.5 23 Z " /><path fill="rgb(3,102,72)" stroke="rgb(3,102,72)" stroke-width="1" opacity="0.11764705882352941" d="M 34.5 25 L 34.5 26 L 34.5 25 Z " /><path fill="rgb(3,102,72)" stroke="rgb(3,102,72)" stroke-width="1" opacity="0.11764705882352941" d="M 28.5 27 L 28.5 28 L 28.5 27 Z " /><path fill="rgb(3,102,72)" stroke="rgb(3,102,72)" stroke-width="1" opacity="0.11764705882352941" d="M 0.5 29 L 3 29.5 L 0.5 30 L 0.5 29 Z " /><path fill="rgb(3,102,72)" stroke="rgb(3,102,72)" stroke-width="1" opacity="0.11764705882352941" d="M 12.5 31 L 18 31.5 L 12.5 32 L 12.5 31 Z " /><path fill="rgb(13,102,72)" stroke="rgb(13,102,72)" stroke-width="1" opacity="0.050980392156862744" d="M 1.5 23 L 1.5 24 L 1.5 23 Z " /><path fill="rgb(4,102,72)" stroke="rgb(4,102,72)" stroke-width="1" opacity="0.9215686274509803" d="M 10.5 17 L 16 17.5 L 10.5 18 L 10.5 17 Z " /><path fill="rgb(4,102,72)" stroke="rgb(4,102,72)" stroke-width="1" opacity="0.9215686274509803" d="M 4.5 18 L 4.5 19 L 4.5 18 Z " /><path fill="rgb(4,102,72)" stroke="rgb(4,102,72)" stroke-width="1" opacity="0.9215686274509803" d="M 16.5 19 L 16.5 20 L 16.5 19 Z " /><path fill="rgb(4,102,72)" stroke="rgb(4,102,72)" stroke-width="1" opacity="0.9215686274509803" d="M 25.5 20 L 36 20.5 L 25.5 21 L 25.5 20 Z " /><path fill="rgb(4,102,72)" stroke="rgb(4,102,72)" stroke-width="1" opacity="0.9215686274509803" d="M 40.5 21 L 40.5 22 L 40.5 21 Z " /><path fill="rgb(4,102,72)" stroke="rgb(4,102,72)" stroke-width="1" opacity="0.9215686274509803" d="M 45.5 23 L 45.5 24 L 45.5 23 Z " /><path fill="rgb(4,102,72)" stroke="rgb(4,102,72)" stroke-width="1" opacity="0.9215686274509803" d="M 2.5 24 L 2.5 25 L 2.5 24 Z " /><path fill="rgb(4,102,72)" stroke="rgb(4,102,72)" stroke-width="1" opacity="0.9215686274509803" d="M 33.5 24 L 33.5 25 L 33.5 24 Z " /><path fill="rgb(4,102,72)" stroke="rgb(4,102,72)" stroke-width="1" opacity="0.9215686274509803" d="M 30.5 25 L 30.5 26 L 30.5 25 Z " /><path fill="rgb(4,102,72)" stroke="rgb(4,102,72)" stroke-width="1" opacity="0.9215686274509803" d="M 28.5 26 L 28.5 27 L 28.5 26 Z " /><path fill="rgb(4,102,72)" stroke="rgb(4,102,72)" stroke-width="1" opacity="0.9215686274509803" d="M 1.5 27 Q 4 28 2.5 29 Q -0.29 29.67 1.5 27 Z " /><path fill="rgb(4,102,72)" stroke="rgb(4,102,72)" stroke-width="1" opacity="0.9215686274509803" d="M 25.5 27 L 25.5 28 L 25.5 27 Z " /><path fill="rgb(4,102,72)" stroke="rgb(4,102,72)" stroke-width="1" opacity="0.9215686274509803" d="M 23.5 28 L 23.5 29 L 23.5 28 Z " /><path fill="rgb(4,102,72)" stroke="rgb(4,102,72)" stroke-width="1" opacity="0.9215686274509803" d="M 21.5 29 L 21.5 30 L 21.5 29 Z " /><path fill="rgb(4,102,72)" stroke="rgb(4,102,72)" stroke-width="1" opacity="0.9215686274509803" d="M 13.5 30 L 18 30.5 L 13.5 31 L 13.5 30 Z " /><path fill="rgb(5,102,72)" stroke="rgb(5,102,72)" stroke-width="1" opacity="0.996078431372549" d="M 16.5 20 L 16.5 21 L 16.5 20 Z " /><path fill="rgb(5,102,72)" stroke="rgb(5,102,72)" stroke-width="1" opacity="0.996078431372549" d="M 18.5 21 L 21 21.5 L 18.5 22 L 18.5 21 Z " /><path fill="rgb(5,102,72)" stroke="rgb(5,102,72)" stroke-width="1" opacity="0.996078431372549" d="M 34.5 21 L 40 21.5 L 34.5 22 L 34.5 21 Z " /><path fill="rgb(5,102,72)" stroke="rgb(5,102,72)" stroke-width="1" opacity="0.996078431372549" d="M 28.5 22 L 31 22.5 L 28.5 23 L 28.5 22 Z " /><path fill="rgb(5,102,72)" stroke="rgb(5,102,72)" stroke-width="1" opacity="0.996078431372549" d="M 42.5 22 L 45 23.5 L 34.5 24 L 34.5 23 L 41.5 23 L 42.5 22 Z " /><path fill="rgb(5,102,72)" stroke="rgb(5,102,72)" stroke-width="1" opacity="0.996078431372549" d="M 15.5 23 L 15.5 24 L 15.5 23 Z " /><path fill="rgb(5,102,72)" stroke="rgb(5,102,72)" stroke-width="1" opacity="0.996078431372549" d="M 22.5 23 L 25 23.5 L 22.5 24 L 22.5 23 Z " /><path fill="rgb(5,102,72)" stroke="rgb(5,102,72)" stroke-width="1" opacity="0.996078431372549" d="M 3.5 24 L 12 24.5 L 3.5 25 L 3.5 24 Z " /><path fill="rgb(5,102,72)" stroke="rgb(5,102,72)" stroke-width="1" opacity="0.996078431372549" d="M 29.5 24 L 31 24.5 L 29.5 25 L 29.5 24 Z " /><path fill="rgb(5,102,72)" stroke="rgb(5,102,72)" stroke-width="1" opacity="0.996078431372549" d="M 24.5 25 L 26 25.5 L 24.5 26 L 24.5 25 Z " /><path fill="rgb(5,102,72)" stroke="rgb(5,102,72)" stroke-width="1" opacity="0.996078431372549" d="M 13.5 26 L 13.5 27 L 13.5 26 Z " /><path fill="rgb(5,102,72)" stroke="rgb(5,102,72)" stroke-width="1" opacity="0.996078431372549" d="M 20.5 26 L 22 26.5 L 20.5 27 L 20.5 26 Z " /><path fill="rgb(5,102,72)" stroke="rgb(5,102,72)" stroke-width="1" opacity="0.996078431372549" d="M 27.5 26 L 27.5 27 L 27.5 26 Z " /><path fill="rgb(5,102,72)" stroke="rgb(5,102,72)" stroke-width="1" opacity="0.996078431372549" d="M 8.5 27 L 10 27.5 L 8.5 28 L 8.5 27 Z " /><path fill="rgb(5,102,72)" stroke="rgb(5,102,72)" stroke-width="1" opacity="0.996078431372549" d="M 11.5 28 L 11.5 29 L 11.5 28 Z " /><path fill="rgb(5,102,72)" stroke="rgb(5,102,72)" stroke-width="1" opacity="0.996078431372549" d="M 20.5 29 L 20.5 30 L 20.5 29 Z " /><path fill="rgb(1,102,72)" stroke="rgb(1,102,72)" stroke-width="1" opacity="0.996078431372549" d="M 4.5 20 L 14 20.5 L 4.5 21 L 4.5 20 Z " /><path fill="rgb(1,102,72)" stroke="rgb(1,102,72)" stroke-width="1" opacity="0.996078431372549" d="M 31.5 21 L 33 21.5 L 31.5 22 L 31.5 21 Z " /><path fill="rgb(1,102,72)" stroke="rgb(1,102,72)" stroke-width="1" opacity="0.996078431372549" d="M 15.5 22 L 20 23.5 L 16.5 24 Q 14 23 15.5 22 Z " /><path fill="rgb(1,102,72)" stroke="rgb(1,102,72)" stroke-width="1" opacity="0.996078431372549" d="M 25.5 22 L 27 22.5 L 25.5 23 L 25.5 22 Z " /><path fill="rgb(1,102,72)" stroke="rgb(1,102,72)" stroke-width="1" opacity="0.996078431372549" d="M 32.5 24 L 32.5 25 L 32.5 24 Z " /><path fill="rgb(1,102,72)" stroke="rgb(1,102,72)" stroke-width="1" opacity="0.996078431372549" d="M 12.5 25 L 12.5 26 L 12.5 25 Z " /><path fill="rgb(1,102,72)" stroke="rgb(1,102,72)" stroke-width="1" opacity="0.996078431372549" d="M 27.5 25 L 29 25.5 L 27.5 26 L 27.5 25 Z " /><path fill="rgb(1,102,72)" stroke="rgb(1,102,72)" stroke-width="1" opacity="0.996078431372549" d="M 22.5 26 L 24 26.5 L 22.5 27 L 22.5 26 Z " /><path fill="rgb(1,102,72)" stroke="rgb(1,102,72)" stroke-width="1" opacity="0.996078431372549" d="M 17.5 27 L 20 27.5 L 17.5 28 L 17.5 27 Z " /><path fill="rgb(51,103,73)" stroke="rgb(51,103,73)" stroke-width="1" opacity="0.996078431372549" d="M 3.5 21 L 14.5 21 Q 15.25 20.75 15 23.5 L 13.5 26 Q 11 25 12.5 24 Q 15.13 24.67 14 22 L 3.5 22 L 3.5 21 Z " /><path fill="rgb(51,103,73)" stroke="rgb(51,103,73)" stroke-width="1" opacity="0.996078431372549" d="M 31 22 L 42 22.5 L 34.5 23 Q 33.58 24.75 31 24 L 31 22 Z " /><path fill="rgb(51,103,73)" stroke="rgb(51,103,73)" stroke-width="1" opacity="0.996078431372549" d="M 25.5 23 Q 28.5 22.5 29 24.5 L 26.5 25 Q 24 24 25.5 23 Z " /><path fill="rgb(51,103,73)" stroke="rgb(51,103,73)" stroke-width="1" opacity="0.996078431372549" d="M 17.5 24 L 20 24.5 L 17.5 25 L 17.5 24 Z " /><path fill="rgb(51,103,73)" stroke="rgb(51,103,73)" stroke-width="1" opacity="0.996078431372549" d="M 22.5 25 L 24 25.5 L 22.5 26 L 22.5 25 Z " /><path fill="rgb(51,103,73)" stroke="rgb(51,103,73)" stroke-width="1" opacity="0.996078431372549" d="M 17.5 26 L 20 26.5 L 17.5 27 L 17.5 26 Z " /><path fill="rgb(3,102,72)" stroke="rgb(3,102,72)" stroke-width="1" opacity="0.43529411764705883" d="M 4.5 17 L 4.5 18 L 4.5 17 Z " /><path fill="rgb(3,102,72)" stroke="rgb(3,102,72)" stroke-width="1" opacity="0.43529411764705883" d="M 17.5 17 L 17.5 18 L 17.5 17 Z " /><path fill="rgb(3,102,72)" stroke="rgb(3,102,72)" stroke-width="1" opacity="0.43529411764705883" d="M 3.5 19 L 3.5 20 L 3.5 19 Z " /><path fill="rgb(3,102,72)" stroke="rgb(3,102,72)" stroke-width="1" opacity="0.43529411764705883" d="M 18.5 20 L 22 20.5 L 18.5 21 L 18.5 20 Z " /><path fill="rgb(3,102,72)" stroke="rgb(3,102,72)" stroke-width="1" opacity="0.43529411764705883" d="M 38.5 20 L 38.5 21 L 38.5 20 Z " /><path fill="rgb(3,102,72)" stroke="rgb(3,102,72)" stroke-width="1" opacity="0.43529411764705883" d="M 42.5 21 L 42.5 22 L 42.5 21 Z " /><path fill="rgb(3,102,72)" stroke="rgb(3,102,72)" stroke-width="1" opacity="0.43529411764705883" d="M 44.5 22 L 44.5 23 L 44.5 22 Z " /><path fill="rgb(3,102,72)" stroke="rgb(3,102,72)" stroke-width="1" opacity="0.43529411764705883" d="M 46.5 23 Q 49 24 47.5 25 Q 46.5 23 45.5 25 L 36 24.5 L 45.5 24 L 46.5 23 Z " /><path fill="rgb(3,102,72)" stroke="rgb(3,102,72)" stroke-width="1" opacity="0.43529411764705883" d="M 1.5 25 L 1.5 26 L 1.5 25 Z " /><path fill="rgb(3,102,72)" stroke="rgb(3,102,72)" stroke-width="1" opacity="0.43529411764705883" d="M 32.5 25 L 32.5 26 L 32.5 25 Z " /><path fill="rgb(3,102,72)" stroke="rgb(3,102,72)" stroke-width="1" opacity="0.43529411764705883" d="M 29.5 26 L 29.5 27 L 29.5 26 Z " /><path fill="rgb(3,102,72)" stroke="rgb(3,102,72)" stroke-width="1" opacity="0.43529411764705883" d="M 27.5 27 L 27.5 28 L 27.5 27 Z " /><path fill="rgb(3,102,72)" stroke="rgb(3,102,72)" stroke-width="1" opacity="0.43529411764705883" d="M 0.5 28 L 0.5 29 L 0.5 28 Z " /><path fill="rgb(3,102,72)" stroke="rgb(3,102,72)" stroke-width="1" opacity="0.43529411764705883" d="M 5.5 28 Q 10 27 11 29.5 L 10.5 31 L 10 29 L 5.5 29 L 5.5 28 Z " /><path fill="rgb(3,102,72)" stroke="rgb(3,102,72)" stroke-width="1" opacity="0.43529411764705883" d="M 20.5 30 L 20.5 31 L 20.5 30 Z " /><path fill="rgb(107,104,75)" stroke="rgb(107,104,75)" stroke-width="1" opacity="0.984313725490196" d="M 4.5 23 L 11 23.5 L 4.5 24 L 4.5 23 Z " /><path fill="rgb(107,104,75)" stroke="rgb(107,104,75)" stroke-width="1" opacity="0.984313725490196" d="M 28.5 23 L 31 23.5 L 28.5 24 L 28.5 23 Z " /><path fill="rgb(107,104,75)" stroke="rgb(107,104,75)" stroke-width="1" opacity="0.984313725490196" d="M 14.5 24 L 17 24.5 L 14.5 25 L 14.5 24 Z " /><path fill="rgb(107,104,75)" stroke="rgb(107,104,75)" stroke-width="1" opacity="0.984313725490196" d="M 20 24 L 26 24.5 L 20 26 L 20 24 Z " /><path fill="rgb(107,104,75)" stroke="rgb(107,104,75)" stroke-width="1" opacity="0.984313725490196" d="M 14.5 26 L 17 26.5 L 14.5 27 L 14.5 26 Z " /><path fill="rgb(148,106,76)" stroke="rgb(148,106,76)" stroke-width="1" opacity="0.9686274509803922" d="M 2 22 L 13.5 22 L 14 24 Q 11.42 24.75 10.5 23 L 4.5 23 L 2 24 L 2 22 Z " /><path fill="rgb(148,106,76)" stroke="rgb(148,106,76)" stroke-width="1" opacity="0.9686274509803922" d="M 14.5 25 L 20 25.5 L 14.5 26 L 14.5 25 Z " /><path fill="rgb(8,102,72)" stroke="rgb(8,102,72)" stroke-width="1" opacity="0.20392156862745098" d="M 3.5 18 L 3.5 19 L 3.5 18 Z " /><path fill="rgb(8,102,72)" stroke="rgb(8,102,72)" stroke-width="1" opacity="0.20392156862745098" d="M 17.5 19 L 17.5 20 L 17.5 19 Z " /><path fill="rgb(8,102,72)" stroke="rgb(8,102,72)" stroke-width="1" opacity="0.20392156862745098" d="M 28.5 19 L 33 19.5 L 28.5 20 L 28.5 19 Z " /><path fill="rgb(8,102,72)" stroke="rgb(8,102,72)" stroke-width="1" opacity="0.20392156862745098" d="M 39.5 20 L 39.5 21 L 39.5 20 Z " /><path fill="rgb(8,102,72)" stroke="rgb(8,102,72)" stroke-width="1" opacity="0.20392156862745098" d="M 2.5 21 L 2.5 22 L 2.5 21 Z " /><path fill="rgb(8,102,72)" stroke="rgb(8,102,72)" stroke-width="1" opacity="0.20392156862745098" d="M 1.5 24 L 1.5 25 L 1.5 24 Z " /><path fill="rgb(8,102,72)" stroke="rgb(8,102,72)" stroke-width="1" opacity="0.20392156862745098" d="M 33.5 25 L 33.5 26 L 33.5 25 Z " /><path fill="rgb(8,102,72)" stroke="rgb(8,102,72)" stroke-width="1" opacity="0.20392156862745098" d="M 30.5 26 L 30.5 27 L 30.5 26 Z " /><path fill="rgb(8,102,72)" stroke="rgb(8,102,72)" stroke-width="1" opacity="0.20392156862745098" d="M 0.5 27 L 0.5 28 L 0.5 27 Z " /><path fill="rgb(8,102,72)" stroke="rgb(8,102,72)" stroke-width="1" opacity="0.20392156862745098" d="M 25.5 28 L 25.5 29 L 25.5 28 Z " /><path fill="rgb(8,102,72)" stroke="rgb(8,102,72)" stroke-width="1" opacity="0.20392156862745098" d="M 23.5 29 L 23.5 30 L 23.5 29 Z " /><path fill="rgb(8,102,72)" stroke="rgb(8,102,72)" stroke-width="1" opacity="0.20392156862745098" d="M 21.5 30 L 21.5 31 L 21.5 30 Z " /><path fill="rgb(4,102,72)" stroke="rgb(4,102,72)" stroke-width="1" opacity="1" d="M 5.5 18 L 17 18.5 L 16 21 L 20.5 22 L 21.5 21 L 30.5 21 L 30.5 22 L 27.5 23 L 25.5 22 L 20.5 24 Q 19.75 22.25 16.5 23 L 13.5 20 L 4 19.5 L 5.5 18 Z " /><path fill="rgb(4,102,72)" stroke="rgb(4,102,72)" stroke-width="1" opacity="1" d="M 33.5 21 L 33.5 22 L 33.5 21 Z " /><path fill="rgb(4,102,72)" stroke="rgb(4,102,72)" stroke-width="1" opacity="1" d="M 31.5 24 L 31.5 25 L 31.5 24 Z " /><path fill="rgb(4,102,72)" stroke="rgb(4,102,72)" stroke-width="1" opacity="1" d="M 3.5 25 L 11.5 25 L 13.5 27 L 19.5 28 L 26.5 25 L 27 27 L 19.5 30 L 11.5 30 L 11.5 28 L 8.5 27 L 7.5 28 L 2 28 L 3.5 25 Z " /><path fill="rgb(4,102,72)" stroke="rgb(4,102,72)" stroke-width="1" opacity="1" d="M 29.5 25 L 29.5 26 L 29.5 25 Z " /><path fill="rgb(3,102,72)" stroke="rgb(3,102,72)" stroke-width="1" opacity="0.996078431372549" d="M 2.5 25 L 2.5 26 L 2.5 25 Z " /><path fill="rgb(3,102,72)" stroke="rgb(3,102,72)" stroke-width="1" opacity="0.7372549019607844" d="M 5.5 17 L 10 17.5 L 5.5 18 L 5.5 17 Z " /><path fill="rgb(3,102,72)" stroke="rgb(3,102,72)" stroke-width="1" opacity="0.7372549019607844" d="M 16.5 17 Q 19 18 17.5 19 Q 15 18 16.5 17 Z " /><path fill="rgb(3,102,72)" stroke="rgb(3,102,72)" stroke-width="1" opacity="0.7372549019607844" d="M 3.5 20 L 3.5 21 L 3.5 20 Z " /><path fill="rgb(3,102,72)" stroke="rgb(3,102,72)" stroke-width="1" opacity="0.7372549019607844" d="M 17.5 20 L 17.5 21 L 17.5 20 Z " /><path fill="rgb(3,102,72)" stroke="rgb(3,102,72)" stroke-width="1" opacity="0.7372549019607844" d="M 22.5 20 L 25 20.5 L 22.5 21 L 22.5 20 Z " /><path fill="rgb(3,102,72)" stroke="rgb(3,102,72)" stroke-width="1" opacity="0.7372549019607844" d="M 36.5 20 L 38 20.5 L 36.5 21 L 36.5 20 Z " /><path fill="rgb(3,102,72)" stroke="rgb(3,102,72)" stroke-width="1" opacity="0.7372549019607844" d="M 41.5 21 L 41.5 22 L 41.5 21 Z " /><path fill="rgb(3,102,72)" stroke="rgb(3,102,72)" stroke-width="1" opacity="0.7372549019607844" d="M 43.5 22 L 43.5 23 L 43.5 22 Z " /><path fill="rgb(3,102,72)" stroke="rgb(3,102,72)" stroke-width="1" opacity="0.7372549019607844" d="M 34.5 24 L 36 24.5 L 34.5 25 L 34.5 24 Z " /><path fill="rgb(3,102,72)" stroke="rgb(3,102,72)" stroke-width="1" opacity="0.7372549019607844" d="M 46.5 24 L 46.5 25 L 46.5 24 Z " /><path fill="rgb(3,102,72)" stroke="rgb(3,102,72)" stroke-width="1" opacity="0.7372549019607844" d="M 31.5 25 L 31.5 26 L 31.5 25 Z " /><path fill="rgb(3,102,72)" stroke="rgb(3,102,72)" stroke-width="1" opacity="0.7372549019607844" d="M 1.5 26 L 1.5 27 L 1.5 26 Z " /><path fill="rgb(3,102,72)" stroke="rgb(3,102,72)" stroke-width="1" opacity="0.7372549019607844" d="M 26.5 27 L 26.5 28 L 26.5 27 Z " /><path fill="rgb(3,102,72)" stroke="rgb(3,102,72)" stroke-width="1" opacity="0.7372549019607844" d="M 3.5 28 L 5 28.5 L 3.5 29 L 3.5 28 Z " /><path fill="rgb(3,102,72)" stroke="rgb(3,102,72)" stroke-width="1" opacity="0.7372549019607844" d="M 10.5 28 L 10.5 29 L 10.5 28 Z " /><path fill="rgb(3,102,72)" stroke="rgb(3,102,72)" stroke-width="1" opacity="0.7372549019607844" d="M 24.5 28 L 24.5 29 L 24.5 28 Z " /><path fill="rgb(3,102,72)" stroke="rgb(3,102,72)" stroke-width="1" opacity="0.7372549019607844" d="M 22.5 29 L 22.5 30 L 22.5 29 Z " /><path fill="rgb(3,102,72)" stroke="rgb(3,102,72)" stroke-width="1" opacity="0.7372549019607844" d="M 11.5 30 L 13 30.5 L 11.5 31 L 11.5 30 Z " /><path fill="rgb(3,102,72)" stroke="rgb(3,102,72)" stroke-width="1" opacity="0.7372549019607844" d="M 18.5 30 L 20 30.5 L 18.5 31 L 18.5 30 Z " /></svg>