<svg width="48" height="48" version="1.1" xmlns="http://www.w3.org/2000/svg" desc="Created with imagetracer.js version 1.2.6" ><path fill="rgb(0,0,0)" stroke="rgb(0,0,0)" stroke-width="1" opacity="0" d="M 0 0 L 48 0 L 48 22.5 L 47 22.5 L 45 14 Q 42.42 13.25 41.5 15 L 39 10 L 32.5 9 L 19.5 20 L 12 21 L 12 22.5 L 0.5 37 L 0 0 Z " /><path fill="rgb(0,0,0)" stroke="rgb(0,0,0)" stroke-width="1" opacity="0" d="M 0 39 L 47.5 39 L 48 39.5 L 48 48 L 0.5 48 L 0 47.5 L 0 39 Z " /><path fill="rgb(32,169,77)" stroke="rgb(32,169,77)" stroke-width="1" opacity="0.07058823529411765" d="M 32.5 9 L 33 9.5 L 30.5 12 L 30 11.5 L 32.5 9 Z " /><path fill="rgb(32,169,77)" stroke="rgb(32,169,77)" stroke-width="1" opacity="0.07058823529411765" d="M 35.5 9 L 35.5 10 L 35.5 9 Z " /><path fill="rgb(32,169,77)" stroke="rgb(32,169,77)" stroke-width="1" opacity="0.07058823529411765" d="M 37.5 10 L 39 10.5 L 37.5 11 L 37.5 10 Z " /><path fill="rgb(32,169,77)" stroke="rgb(32,169,77)" stroke-width="1" opacity="0.07058823529411765" d="M 39.5 12 L 39.5 13 L 39.5 12 Z " /><path fill="rgb(32,169,77)" stroke="rgb(32,169,77)" stroke-width="1" opacity="0.07058823529411765" d="M 27.5 13 L 28 13.5 L 24.5 17 L 24 16.5 L 27.5 13 Z " /><path fill="rgb(32,169,77)" stroke="rgb(32,169,77)" stroke-width="1" opacity="0.07058823529411765" d="M 40.5 14 L 40.5 15 L 40.5 14 Z " /><path fill="rgb(32,169,77)" stroke="rgb(32,169,77)" stroke-width="1" opacity="0.07058823529411765" d="M 42.5 14 Q 45.83 12.88 45 15.5 L 43.5 15 Q 41.13 14.88 42.5 14 Z " /><path fill="rgb(32,169,77)" stroke="rgb(32,169,77)" stroke-width="1" opacity="0.07058823529411765" d="M 22.5 17 L 23 17.5 L 20.5 20 L 20 19.5 L 22.5 17 Z " /><path fill="rgb(32,169,77)" stroke="rgb(32,169,77)" stroke-width="1" opacity="0.07058823529411765" d="M 45.5 17 L 46 18.5 L 45 18.5 L 45.5 17 Z " /><path fill="rgb(32,169,77)" stroke="rgb(32,169,77)" stroke-width="1" opacity="0.07058823529411765" d="M 16.5 20 L 18 20.5 L 16.5 21 L 16.5 20 Z " /><path fill="rgb(32,169,77)" stroke="rgb(32,169,77)" stroke-width="1" opacity="0.07058823529411765" d="M 46.5 20 L 46.5 21 L 46.5 20 Z " /><path fill="rgb(32,169,77)" stroke="rgb(32,169,77)" stroke-width="1" opacity="0.07058823529411765" d="M 12.5 21 L 14 21.5 L 12.5 22 L 12.5 21 Z " /><path fill="rgb(32,169,77)" stroke="rgb(32,169,77)" stroke-width="1" opacity="0.07058823529411765" d="M 47.5 23 L 47.5 24 L 47.5 23 Z " /><path fill="rgb(32,169,77)" stroke="rgb(32,169,77)" stroke-width="1" opacity="0.07058823529411765" d="M 10.5 24 Q 12 25 9.5 26 Q 8 25 10.5 24 Z " /><path fill="rgb(32,169,77)" stroke="rgb(32,169,77)" stroke-width="1" opacity="0.07058823529411765" d="M 8.5 27 L 9 27.5 L 6.5 30 L 6 29.5 L 8.5 27 Z " /><path fill="rgb(32,169,77)" stroke="rgb(32,169,77)" stroke-width="1" opacity="0.07058823529411765" d="M 5.5 31 L 6 31.5 L 3.5 34 L 3 33.5 L 5.5 31 Z " /><path fill="rgb(32,169,77)" stroke="rgb(32,169,77)" stroke-width="1" opacity="0.07058823529411765" d="M 2.5 35 L 3 35.5 L 1 37.5 L 0.5 39 L 0 37.5 L 2.5 35 Z " /><path fill="rgb(32,169,77)" stroke="rgb(32,169,77)" stroke-width="1" opacity="0.9137254901960784" d="M 33.5 10 L 35 10.5 L 33.5 11 L 33.5 10 Z " /><path fill="rgb(32,169,77)" stroke="rgb(32,169,77)" stroke-width="1" opacity="0.9137254901960784" d="M 37.5 11 Q 40 12 38.5 13 Q 36 12 37.5 11 Z " /><path fill="rgb(32,169,77)" stroke="rgb(32,169,77)" stroke-width="1" opacity="0.9137254901960784" d="M 29.5 13 Q 31 14 28.5 15 Q 27 14 29.5 13 Z " /><path fill="rgb(32,169,77)" stroke="rgb(32,169,77)" stroke-width="1" opacity="0.9137254901960784" d="M 39.5 14 L 39.5 15 L 39.5 14 Z " /><path fill="rgb(32,169,77)" stroke="rgb(32,169,77)" stroke-width="1" opacity="0.9137254901960784" d="M 41.5 16 L 41.5 17 L 41.5 16 Z " /><path fill="rgb(32,169,77)" stroke="rgb(32,169,77)" stroke-width="1" opacity="0.9137254901960784" d="M 24.5 17 Q 26 18 23.5 19 Q 22 18 24.5 17 Z " /><path fill="rgb(32,169,77)" stroke="rgb(32,169,77)" stroke-width="1" opacity="0.9137254901960784" d="M 44.5 18 L 44.5 19 L 44.5 18 Z " /><path fill="rgb(32,169,77)" stroke="rgb(32,169,77)" stroke-width="1" opacity="0.9137254901960784" d="M 17.5 21 L 17.5 22 L 17.5 21 Z " /><path fill="rgb(32,169,77)" stroke="rgb(32,169,77)" stroke-width="1" opacity="0.9137254901960784" d="M 45.5 21 L 45.5 22 L 45.5 21 Z " /><path fill="rgb(32,169,77)" stroke="rgb(32,169,77)" stroke-width="1" opacity="0.9137254901960784" d="M 13.5 22 Q 15 23 12.5 24 Q 11 23 13.5 22 Z " /><path fill="rgb(32,169,77)" stroke="rgb(32,169,77)" stroke-width="1" opacity="0.9137254901960784" d="M 46.5 24 L 46.5 25 L 46.5 24 Z " /><path fill="rgb(32,169,77)" stroke="rgb(32,169,77)" stroke-width="1" opacity="0.9137254901960784" d="M 10.5 26 Q 12 27 9.5 28 Q 8 27 10.5 26 Z " /><path fill="rgb(32,169,77)" stroke="rgb(32,169,77)" stroke-width="1" opacity="0.9137254901960784" d="M 7.5 30 Q 9 31 6.5 32 Q 5 31 7.5 30 Z " /><path fill="rgb(32,169,77)" stroke="rgb(32,169,77)" stroke-width="1" opacity="0.9137254901960784" d="M 4.5 34 L 4.5 35 L 4.5 34 Z " /><path fill="rgb(32,169,77)" stroke="rgb(32,169,77)" stroke-width="1" opacity="0.996078431372549" d="M 32.5 11 L 32.5 12 L 32.5 11 Z " /><path fill="rgb(32,169,77)" stroke="rgb(32,169,77)" stroke-width="1" opacity="0.996078431372549" d="M 36.5 11 L 36.5 12 L 36.5 11 Z " /><path fill="rgb(32,169,77)" stroke="rgb(32,169,77)" stroke-width="1" opacity="0.996078431372549" d="M 27.5 15 Q 29 16 26.5 17 Q 25 16 27.5 15 Z " /><path fill="rgb(32,169,77)" stroke="rgb(32,169,77)" stroke-width="1" opacity="0.996078431372549" d="M 40.5 16 L 40.5 17 L 40.5 16 Z " /><path fill="rgb(32,169,77)" stroke="rgb(32,169,77)" stroke-width="1" opacity="0.996078431372549" d="M 43.5 16 L 43.5 17 L 43.5 16 Z " /><path fill="rgb(32,169,77)" stroke="rgb(32,169,77)" stroke-width="1" opacity="0.996078431372549" d="M 22.5 19 Q 24 20 21.5 21 Q 20 20 22.5 19 Z " /><path fill="rgb(32,169,77)" stroke="rgb(32,169,77)" stroke-width="1" opacity="0.996078431372549" d="M 44.5 19 L 44.5 20 L 44.5 19 Z " /><path fill="rgb(32,169,77)" stroke="rgb(32,169,77)" stroke-width="1" opacity="0.996078431372549" d="M 18.5 21 L 20 21.5 L 18.5 22 L 18.5 21 Z " /><path fill="rgb(32,169,77)" stroke="rgb(32,169,77)" stroke-width="1" opacity="0.996078431372549" d="M 14.5 22 L 14.5 23 L 14.5 22 Z " /><path fill="rgb(32,169,77)" stroke="rgb(32,169,77)" stroke-width="1" opacity="0.996078431372549" d="M 11.5 25 L 11.5 26 L 11.5 25 Z " /><path fill="rgb(32,169,77)" stroke="rgb(32,169,77)" stroke-width="1" opacity="0.996078431372549" d="M 46.5 25 L 47 34.5 L 46 34.5 L 46.5 25 Z " /><path fill="rgb(32,169,77)" stroke="rgb(32,169,77)" stroke-width="1" opacity="0.996078431372549" d="M 8.5 29 L 8.5 30 L 8.5 29 Z " /><path fill="rgb(32,169,77)" stroke="rgb(32,169,77)" stroke-width="1" opacity="0.996078431372549" d="M 5.5 33 L 5.5 34 L 5.5 33 Z " /><path fill="rgb(32,169,77)" stroke="rgb(32,169,77)" stroke-width="1" opacity="1" d="M 33.5 11 L 35.5 11 L 39 13.5 L 40 17 L 42.5 16 L 46 22.5 L 46 35 L 5 34.5 L 13.5 23 L 21.5 21 L 33.5 11 Z " /><path fill="rgb(32,169,77)" stroke="rgb(32,169,77)" stroke-width="1" opacity="0.6588235294117647" d="M 43.5 15 L 43.5 16 L 43.5 15 Z " /><path fill="rgb(32,169,77)" stroke="rgb(32,169,77)" stroke-width="1" opacity="0.6588235294117647" d="M 5.5 32 L 5.5 33 L 5.5 32 Z " /><path fill="rgb(32,169,77)" stroke="rgb(32,169,77)" stroke-width="1" opacity="0.6588235294117647" d="M 5.5 35 L 9 35.5 L 5.5 36 L 5.5 35 Z " /><path fill="rgb(32,169,77)" stroke="rgb(32,169,77)" stroke-width="1" opacity="0.6588235294117647" d="M 38.5 37 L 44 37.5 L 38.5 38 L 38.5 37 Z " /><path fill="rgb(32,169,77)" stroke="rgb(32,169,77)" stroke-width="1" opacity="0.7333333333333333" d="M 30.5 12 L 30.5 13 L 30.5 12 Z " /><path fill="rgb(32,169,77)" stroke="rgb(32,169,77)" stroke-width="1" opacity="0.7333333333333333" d="M 25.5 16 L 25.5 17 L 25.5 16 Z " /><path fill="rgb(32,169,77)" stroke="rgb(32,169,77)" stroke-width="1" opacity="0.7333333333333333" d="M 20.5 20 L 20.5 21 L 20.5 20 Z " /><path fill="rgb(32,169,77)" stroke="rgb(32,169,77)" stroke-width="1" opacity="0.7333333333333333" d="M 46.5 23 L 46.5 24 L 46.5 23 Z " /><path fill="rgb(32,169,77)" stroke="rgb(32,169,77)" stroke-width="1" opacity="0.7333333333333333" d="M 11.5 24 L 11.5 25 L 11.5 24 Z " /><path fill="rgb(32,169,77)" stroke="rgb(32,169,77)" stroke-width="1" opacity="0.7333333333333333" d="M 10.5 35 L 47 35.5 L 10.5 36 L 10.5 35 Z " /><path fill="rgb(32,169,77)" stroke="rgb(32,169,77)" stroke-width="1" opacity="0.7333333333333333" d="M 2.5 37 L 7 37.5 L 2.5 38 L 2.5 37 Z " /><path fill="rgb(32,169,77)" stroke="rgb(32,169,77)" stroke-width="1" opacity="0.7333333333333333" d="M 15.5 37 L 22 37.5 L 15.5 38 L 15.5 37 Z " /><path fill="rgb(32,169,77)" stroke="rgb(32,169,77)" stroke-width="1" opacity="0.6823529411764706" d="M 35.5 10 L 35.5 11 L 35.5 10 Z " /><path fill="rgb(32,169,77)" stroke="rgb(32,169,77)" stroke-width="1" opacity="0.6823529411764706" d="M 45.5 20 L 45.5 21 L 45.5 20 Z " /><path fill="rgb(32,169,77)" stroke="rgb(32,169,77)" stroke-width="1" opacity="0.6823529411764706" d="M 16.5 21 L 16.5 22 L 16.5 21 Z " /><path fill="rgb(32,169,77)" stroke="rgb(32,169,77)" stroke-width="1" opacity="0.6823529411764706" d="M 8.5 28 L 8.5 29 L 8.5 28 Z " /><path fill="rgb(32,169,77)" stroke="rgb(32,169,77)" stroke-width="1" opacity="0.6823529411764706" d="M 4.5 35 L 4.5 36 L 4.5 35 Z " /><path fill="rgb(32,169,77)" stroke="rgb(32,169,77)" stroke-width="1" opacity="0.6823529411764706" d="M 9.5 35 L 9.5 36 L 9.5 35 Z " /><path fill="rgb(32,169,77)" stroke="rgb(32,169,77)" stroke-width="1" opacity="0.6823529411764706" d="M 7.5 37 L 15 37.5 L 7.5 38 L 7.5 37 Z " /><path fill="rgb(32,169,77)" stroke="rgb(32,169,77)" stroke-width="1" opacity="0.6823529411764706" d="M 22.5 37 L 38 37.5 L 22.5 38 L 22.5 37 Z " /><path fill="rgb(32,169,77)" stroke="rgb(32,169,77)" stroke-width="1" opacity="0.6823529411764706" d="M 44.5 37 L 47 37.5 L 44.5 38 L 44.5 37 Z " /><path fill="rgb(32,169,77)" stroke="rgb(32,169,77)" stroke-width="1" opacity="0.6078431372549019" d="M 31.5 11 L 31.5 12 L 31.5 11 Z " /><path fill="rgb(32,169,77)" stroke="rgb(32,169,77)" stroke-width="1" opacity="0.6078431372549019" d="M 26.5 15 L 26.5 16 L 26.5 15 Z " /><path fill="rgb(32,169,77)" stroke="rgb(32,169,77)" stroke-width="1" opacity="0.6078431372549019" d="M 44.5 17 L 44.5 18 L 44.5 17 Z " /><path fill="rgb(32,169,77)" stroke="rgb(32,169,77)" stroke-width="1" opacity="0.6078431372549019" d="M 33.5 36 L 47 36.5 L 33.5 37 L 33.5 36 Z " /><path fill="rgb(32,169,77)" stroke="rgb(32,169,77)" stroke-width="1" opacity="0.3137254901960784" d="M 33.5 9 L 35 9.5 L 33.5 10 L 33.5 9 Z " /><path fill="rgb(32,169,77)" stroke="rgb(32,169,77)" stroke-width="1" opacity="0.3137254901960784" d="M 36.5 10 L 36.5 11 L 36.5 10 Z " /><path fill="rgb(32,169,77)" stroke="rgb(32,169,77)" stroke-width="1" opacity="0.3137254901960784" d="M 38.5 11 L 38.5 12 L 38.5 11 Z " /><path fill="rgb(32,169,77)" stroke="rgb(32,169,77)" stroke-width="1" opacity="0.3137254901960784" d="M 29.5 12 Q 31 13 28.5 14 Q 27 13 29.5 12 Z " /><path fill="rgb(32,169,77)" stroke="rgb(32,169,77)" stroke-width="1" opacity="0.3137254901960784" d="M 41.5 15 L 41.5 16 L 41.5 15 Z " /><path fill="rgb(32,169,77)" stroke="rgb(32,169,77)" stroke-width="1" opacity="0.3137254901960784" d="M 44.5 16 L 44.5 17 L 44.5 16 Z " /><path fill="rgb(32,169,77)" stroke="rgb(32,169,77)" stroke-width="1" opacity="0.3137254901960784" d="M 23.5 17 L 23.5 18 L 23.5 17 Z " /><path fill="rgb(32,169,77)" stroke="rgb(32,169,77)" stroke-width="1" opacity="0.3137254901960784" d="M 45.5 19 L 45.5 20 L 45.5 19 Z " /><path fill="rgb(32,169,77)" stroke="rgb(32,169,77)" stroke-width="1" opacity="0.3137254901960784" d="M 18.5 20 L 18.5 21 L 18.5 20 Z " /><path fill="rgb(32,169,77)" stroke="rgb(32,169,77)" stroke-width="1" opacity="0.3137254901960784" d="M 14.5 21 L 14.5 22 L 14.5 21 Z " /><path fill="rgb(32,169,77)" stroke="rgb(32,169,77)" stroke-width="1" opacity="0.3137254901960784" d="M 46.5 21 L 46.5 22 L 46.5 21 Z " /><path fill="rgb(32,169,77)" stroke="rgb(32,169,77)" stroke-width="1" opacity="0.3137254901960784" d="M 12.5 22 Q 14 23 11.5 24 Q 10 23 12.5 22 Z " /><path fill="rgb(32,169,77)" stroke="rgb(32,169,77)" stroke-width="1" opacity="0.3137254901960784" d="M 47.5 24 L 47.5 25 L 47.5 24 Z " /><path fill="rgb(32,169,77)" stroke="rgb(32,169,77)" stroke-width="1" opacity="0.3137254901960784" d="M 9.5 26 L 9.5 27 L 9.5 26 Z " /><path fill="rgb(32,169,77)" stroke="rgb(32,169,77)" stroke-width="1" opacity="0.3137254901960784" d="M 6.5 30 L 6.5 31 L 6.5 30 Z " /><path fill="rgb(32,169,77)" stroke="rgb(32,169,77)" stroke-width="1" opacity="0.3137254901960784" d="M 3.5 34 L 3.5 35 L 3.5 34 Z " /><path fill="rgb(32,169,77)" stroke="rgb(32,169,77)" stroke-width="1" opacity="0.3137254901960784" d="M 47.5 35 L 48 38.5 L 47 38.5 L 47.5 35 Z " /><path fill="rgb(32,169,77)" stroke="rgb(32,169,77)" stroke-width="1" opacity="0.3137254901960784" d="M 2.5 36 Q 4 37 1.5 38 Q 0 37 2.5 36 Z " /><path fill="rgb(32,169,77)" stroke="rgb(32,169,77)" stroke-width="1" opacity="0.5568627450980392" d="M 40.5 15 L 40.5 16 L 40.5 15 Z " /><path fill="rgb(32,169,77)" stroke="rgb(32,169,77)" stroke-width="1" opacity="0.5568627450980392" d="M 42.5 15 L 42.5 16 L 42.5 15 Z " /><path fill="rgb(32,169,77)" stroke="rgb(32,169,77)" stroke-width="1" opacity="0.5568627450980392" d="M 21.5 19 L 21.5 20 L 21.5 19 Z " /><path fill="rgb(32,169,77)" stroke="rgb(32,169,77)" stroke-width="1" opacity="0.5568627450980392" d="M 10.5 25 L 10.5 26 L 10.5 25 Z " /><path fill="rgb(32,169,77)" stroke="rgb(32,169,77)" stroke-width="1" opacity="0.5568627450980392" d="M 3.5 36 L 3.5 37 L 3.5 36 Z " /><path fill="rgb(32,169,77)" stroke="rgb(32,169,77)" stroke-width="1" opacity="0.5568627450980392" d="M 15.5 36 L 33 36.5 L 15.5 37 L 15.5 36 Z " /><path fill="rgb(32,169,77)" stroke="rgb(32,169,77)" stroke-width="1" opacity="0.5568627450980392" d="M 2.5 38 L 47 38.5 L 2.5 39 L 2.5 38 Z " /><path fill="rgb(32,169,77)" stroke="rgb(32,169,77)" stroke-width="1" opacity="0.48627450980392156" d="M 32.5 10 L 32.5 11 L 32.5 10 Z " /><path fill="rgb(32,169,77)" stroke="rgb(32,169,77)" stroke-width="1" opacity="0.48627450980392156" d="M 39.5 13 L 39.5 14 L 39.5 13 Z " /><path fill="rgb(32,169,77)" stroke="rgb(32,169,77)" stroke-width="1" opacity="0.48627450980392156" d="M 27.5 14 L 27.5 15 L 27.5 14 Z " /><path fill="rgb(32,169,77)" stroke="rgb(32,169,77)" stroke-width="1" opacity="0.48627450980392156" d="M 22.5 18 L 22.5 19 L 22.5 18 Z " /><path fill="rgb(32,169,77)" stroke="rgb(32,169,77)" stroke-width="1" opacity="0.48627450980392156" d="M 19.5 20 L 19.5 21 L 19.5 20 Z " /><path fill="rgb(32,169,77)" stroke="rgb(32,169,77)" stroke-width="1" opacity="0.48627450980392156" d="M 15.5 21 L 15.5 22 L 15.5 21 Z " /><path fill="rgb(32,169,77)" stroke="rgb(32,169,77)" stroke-width="1" opacity="0.48627450980392156" d="M 46.5 22 L 46.5 23 L 46.5 22 Z " /><path fill="rgb(32,169,77)" stroke="rgb(32,169,77)" stroke-width="1" opacity="0.48627450980392156" d="M 47.5 25 L 48 34.5 L 47 34.5 L 47.5 25 Z " /><path fill="rgb(32,169,77)" stroke="rgb(32,169,77)" stroke-width="1" opacity="0.48627450980392156" d="M 7.5 29 L 7.5 30 L 7.5 29 Z " /><path fill="rgb(32,169,77)" stroke="rgb(32,169,77)" stroke-width="1" opacity="0.48627450980392156" d="M 4.5 33 L 4.5 34 L 4.5 33 Z " /><path fill="rgb(32,169,77)" stroke="rgb(32,169,77)" stroke-width="1" opacity="0.48627450980392156" d="M 3.5 35 L 4.5 36 L 15 36.5 L 4.5 37 Q 2 36 3.5 35 Z " /><path fill="rgb(32,169,77)" stroke="rgb(32,169,77)" stroke-width="1" opacity="0.48627450980392156" d="M 1.5 38 L 1.5 39 L 1.5 38 Z " /></svg>