<svg width="128" height="128" version="1.1" xmlns="http://www.w3.org/2000/svg" desc="Created with imagetracer.js version 1.2.6" ><path fill="rgb(129,111,63)" stroke="rgb(129,111,63)" stroke-width="1" opacity="1" d="M 58.5 9 L 60 9.5 L 58.5 10 L 58.5 9 Z " /><path fill="rgb(129,111,63)" stroke="rgb(129,111,63)" stroke-width="1" opacity="1" d="M 63.5 9 L 63.5 10 L 63.5 9 Z " /><path fill="rgb(129,111,63)" stroke="rgb(129,111,63)" stroke-width="1" opacity="1" d="M 69.5 9 L 69.5 10 L 69.5 9 Z " /><path fill="rgb(129,111,63)" stroke="rgb(129,111,63)" stroke-width="1" opacity="1" d="M 73.5 10 L 73.5 11 L 73.5 10 Z " /><path fill="rgb(129,111,63)" stroke="rgb(129,111,63)" stroke-width="1" opacity="1" d="M 46.5 12 L 46.5 13 L 46.5 12 Z " /><path fill="rgb(129,111,63)" stroke="rgb(129,111,63)" stroke-width="1" opacity="1" d="M 87.5 14 L 87.5 15 L 87.5 14 Z " /><path fill="rgb(129,111,63)" stroke="rgb(129,111,63)" stroke-width="1" opacity="1" d="M 93.5 17 L 93.5 18 L 93.5 17 Z " /><path fill="rgb(129,111,63)" stroke="rgb(129,111,63)" stroke-width="1" opacity="1" d="M 32.5 19 L 32.5 20 L 32.5 19 Z " /><path fill="rgb(129,111,63)" stroke="rgb(129,111,63)" stroke-width="1" opacity="1" d="M 29.5 21 L 29.5 22 L 29.5 21 Z " /><path fill="rgb(129,111,63)" stroke="rgb(129,111,63)" stroke-width="1" opacity="1" d="M 99.5 21 L 99.5 22 L 99.5 21 Z " /><path fill="rgb(129,111,63)" stroke="rgb(129,111,63)" stroke-width="1" opacity="1" d="M 24.5 26 L 24.5 27 L 24.5 26 Z " /><path fill="rgb(129,111,63)" stroke="rgb(129,111,63)" stroke-width="1" opacity="1" d="M 21.5 29 L 21.5 30 L 21.5 29 Z " /><path fill="rgb(129,111,63)" stroke="rgb(129,111,63)" stroke-width="1" opacity="1" d="M 10.5 54 L 10.5 55 L 10.5 54 Z " /><path fill="rgb(129,111,63)" stroke="rgb(129,111,63)" stroke-width="1" opacity="1" d="M 118.5 54 L 118.5 55 L 118.5 54 Z " /><path fill="rgb(129,111,63)" stroke="rgb(129,111,63)" stroke-width="1" opacity="1" d="M 9.5 58 L 10 59.5 L 9 59.5 L 9.5 58 Z " /><path fill="rgb(129,111,63)" stroke="rgb(129,111,63)" stroke-width="1" opacity="1" d="M 9.5 63 L 10 64.5 L 9 64.5 L 9.5 63 Z " /><path fill="rgb(129,111,63)" stroke="rgb(129,111,63)" stroke-width="1" opacity="1" d="M 9.5 66 L 9.5 67 L 9.5 66 Z " /><path fill="rgb(129,111,63)" stroke="rgb(129,111,63)" stroke-width="1" opacity="1" d="M 10.5 73 L 11 74.5 L 10 74.5 L 10.5 73 Z " /><path fill="rgb(129,111,63)" stroke="rgb(129,111,63)" stroke-width="1" opacity="1" d="M 118.5 73 L 118.5 74 L 118.5 73 Z " /><path fill="rgb(129,111,63)" stroke="rgb(129,111,63)" stroke-width="1" opacity="1" d="M 14.5 87 L 14.5 88 L 14.5 87 Z " /><path fill="rgb(129,111,63)" stroke="rgb(129,111,63)" stroke-width="1" opacity="1" d="M 21.5 99 L 21.5 100 L 21.5 99 Z " /><path fill="rgb(129,111,63)" stroke="rgb(129,111,63)" stroke-width="1" opacity="1" d="M 34.5 110 L 34.5 111 L 34.5 110 Z " /><path fill="rgb(129,111,63)" stroke="rgb(129,111,63)" stroke-width="1" opacity="1" d="M 39.5 113 L 39.5 114 L 39.5 113 Z " /><path fill="rgb(129,111,63)" stroke="rgb(129,111,63)" stroke-width="1" opacity="1" d="M 88.5 113 L 88.5 114 L 88.5 113 Z " /><path fill="rgb(129,111,63)" stroke="rgb(129,111,63)" stroke-width="1" opacity="1" d="M 74.5 118 L 74.5 119 L 74.5 118 Z " /><path fill="rgb(129,112,64)" stroke="rgb(129,112,64)" stroke-width="1" opacity="1" d="M 0 0 L 128 0 L 128 128 L 0 128 L 0 0 Z M 59 9 L 59 10 L 60 10 L 59 9 Z M 64 9 L 64 10 L 64 9 Z M 70 9 L 70 10 L 70 9 Z M 74 10 L 74 11 L 74 10 Z M 47 12 L 47 13 L 47 12 Z M 88 14 L 88 15 L 88 14 Z M 94 17 L 94 18 L 94 17 Z M 33 19 L 33 20 L 33 19 Z M 30 21 L 30 22 L 30 21 Z M 100 21 L 100 22 L 100 21 Z M 25 26 L 25 27 L 25 26 Z M 22 29 L 22 30 L 22 29 Z M 29 40 L 26 42 L 23 46 L 23 84 Q 25 84 25 87 L 28 88 L 94 88 L 102 84 L 108 76 L 108 70 L 103 64 L 103 62 L 99 60 Q 93 62 94 58 L 97 58 L 100 55 L 100 47 Q 97 45 98 43 L 96 43 L 90 40 L 29 40 Z M 11 54 L 11 55 L 11 54 Z M 119 54 L 119 55 L 119 54 Z M 10 58 L 9 60 L 10 60 L 10 58 Z M 10 63 L 9 65 L 10 65 L 10 63 Z M 10 66 L 10 67 L 10 66 Z M 11 73 L 10 75 L 11 75 L 11 73 Z M 119 73 L 119 74 L 119 73 Z M 15 87 L 15 88 L 15 87 Z M 22 99 L 22 100 L 22 99 Z M 35 110 L 35 111 L 35 110 Z M 40 113 L 40 114 L 40 113 Z M 89 113 L 89 114 L 89 113 Z M 75 118 L 75 119 L 75 118 Z " /><path fill="rgb(129,112,64)" stroke="rgb(129,112,64)" stroke-width="1" opacity="1" d="M 48.5 46 L 55.5 46 L 61.5 49 L 64 49 L 64 78.5 L 62.5 79 L 58.5 82 L 44.5 82 Q 42.18 78.82 37.5 78 L 34 74.5 L 31 70.5 Q 32.25 65.75 30 64.5 Q 32.25 63.25 31 58.5 L 34 54.5 L 34 53 Q 37 54 36 51 L 39 51 L 39 49 L 41.5 49 L 48.5 46 Z " /><path fill="rgb(222,217,205)" stroke="rgb(222,217,205)" stroke-width="1" opacity="1" d="M 26.5 42 L 63.5 42 L 65 43.5 L 63.5 43 L 26.5 43 L 26.5 42 Z " /><path fill="rgb(222,217,205)" stroke="rgb(222,217,205)" stroke-width="1" opacity="1" d="M 97.5 44 Q 100 45 98.5 46 Q 96 45 97.5 44 Z " /><path fill="rgb(222,217,205)" stroke="rgb(222,217,205)" stroke-width="1" opacity="1" d="M 64.5 45 L 65 48.5 L 64 48.5 L 64.5 45 Z " /><path fill="rgb(222,217,205)" stroke="rgb(222,217,205)" stroke-width="1" opacity="1" d="M 99.5 48 L 99.5 49 L 99.5 48 Z " /><path fill="rgb(222,217,205)" stroke="rgb(222,217,205)" stroke-width="1" opacity="1" d="M 99.5 52 L 99.5 53 L 99.5 52 Z " /><path fill="rgb(222,217,205)" stroke="rgb(222,217,205)" stroke-width="1" opacity="1" d="M 33.5 53 L 33.5 54 L 33.5 53 Z " /><path fill="rgb(222,217,205)" stroke="rgb(222,217,205)" stroke-width="1" opacity="1" d="M 30.5 58 L 30.5 59 L 30.5 58 Z " /><path fill="rgb(222,217,205)" stroke="rgb(222,217,205)" stroke-width="1" opacity="1" d="M 92.5 58 L 92.5 59 L 92.5 58 Z " /><path fill="rgb(222,217,205)" stroke="rgb(222,217,205)" stroke-width="1" opacity="1" d="M 95.5 60 L 97 60.5 L 95.5 61 L 95.5 60 Z " /><path fill="rgb(222,217,205)" stroke="rgb(222,217,205)" stroke-width="1" opacity="1" d="M 99.5 61 L 99.5 62 L 99.5 61 Z " /><path fill="rgb(222,217,205)" stroke="rgb(222,217,205)" stroke-width="1" opacity="1" d="M 103.5 64 L 103.5 65 L 103.5 64 Z " /><path fill="rgb(222,217,205)" stroke="rgb(222,217,205)" stroke-width="1" opacity="1" d="M 64.5 79 L 65 82.5 L 64 82.5 L 64.5 79 Z " /><path fill="rgb(222,217,205)" stroke="rgb(222,217,205)" stroke-width="1" opacity="1" d="M 104.5 79 L 104.5 80 L 104.5 79 Z " /><path fill="rgb(222,217,205)" stroke="rgb(222,217,205)" stroke-width="1" opacity="1" d="M 64.5 84 L 65 87 L 88 87.5 L 65.5 88 Q 63 87 64.5 84 Z " /><path fill="rgb(208,202,184)" stroke="rgb(208,202,184)" stroke-width="1" opacity="1" d="M 64.5 44 L 64.5 45 L 64.5 44 Z " /><path fill="rgb(208,202,184)" stroke="rgb(208,202,184)" stroke-width="1" opacity="1" d="M 63.5 47 L 63.5 48 L 63.5 47 Z " /><path fill="rgb(208,202,184)" stroke="rgb(208,202,184)" stroke-width="1" opacity="1" d="M 24.5 48 L 39 48.5 L 24.5 49 L 24.5 48 Z " /><path fill="rgb(208,202,184)" stroke="rgb(208,202,184)" stroke-width="1" opacity="1" d="M 98.5 55 Q 100 56 97.5 57 Q 96 56 98.5 55 Z " /><path fill="rgb(208,202,184)" stroke="rgb(208,202,184)" stroke-width="1" opacity="1" d="M 33.5 75 L 33.5 76 L 33.5 75 Z " /><path fill="rgb(208,202,184)" stroke="rgb(208,202,184)" stroke-width="1" opacity="1" d="M 64.5 87 L 64.5 88 L 64.5 87 Z " /><path fill="rgb(209,203,185)" stroke="rgb(209,203,185)" stroke-width="1" opacity="1" d="M 64.5 41 L 64.5 42 L 64.5 41 Z " /><path fill="rgb(209,203,185)" stroke="rgb(209,203,185)" stroke-width="1" opacity="1" d="M 26.5 43 L 64 43.5 L 26.5 44 L 26.5 43 Z " /><path fill="rgb(209,203,185)" stroke="rgb(209,203,185)" stroke-width="1" opacity="1" d="M 24.5 45 L 49 45.5 L 24.5 46 L 24.5 45 Z " /><path fill="rgb(209,203,185)" stroke="rgb(209,203,185)" stroke-width="1" opacity="1" d="M 55.5 45 L 64 45.5 L 55.5 46 L 55.5 45 Z " /><path fill="rgb(209,203,185)" stroke="rgb(209,203,185)" stroke-width="1" opacity="1" d="M 99.5 47 L 99.5 48 L 99.5 47 Z " /><path fill="rgb(209,203,185)" stroke="rgb(209,203,185)" stroke-width="1" opacity="1" d="M 24.5 50 L 36 50.5 L 24.5 51 L 24.5 50 Z " /><path fill="rgb(209,203,185)" stroke="rgb(209,203,185)" stroke-width="1" opacity="1" d="M 24.5 55 L 32 55.5 L 24.5 56 L 24.5 55 Z " /><path fill="rgb(209,203,185)" stroke="rgb(209,203,185)" stroke-width="1" opacity="1" d="M 95.5 57 L 95.5 58 L 95.5 57 Z " /><path fill="rgb(209,203,185)" stroke="rgb(209,203,185)" stroke-width="1" opacity="1" d="M 24.5 60 L 30 60.5 L 24.5 61 L 24.5 60 Z " /><path fill="rgb(209,203,185)" stroke="rgb(209,203,185)" stroke-width="1" opacity="1" d="M 101.5 62 L 101.5 63 L 101.5 62 Z " /><path fill="rgb(209,203,185)" stroke="rgb(209,203,185)" stroke-width="1" opacity="1" d="M 24.5 65 L 30 65.5 L 24.5 66 L 24.5 65 Z " /><path fill="rgb(209,203,185)" stroke="rgb(209,203,185)" stroke-width="1" opacity="1" d="M 24.5 70 L 30 70.5 L 24.5 71 L 24.5 70 Z " /><path fill="rgb(209,203,185)" stroke="rgb(209,203,185)" stroke-width="1" opacity="1" d="M 24.5 75 L 33 75.5 L 24.5 76 L 24.5 75 Z " /><path fill="rgb(209,203,185)" stroke="rgb(209,203,185)" stroke-width="1" opacity="1" d="M 105.5 78 L 105.5 79 L 105.5 78 Z " /><path fill="rgb(209,203,185)" stroke="rgb(209,203,185)" stroke-width="1" opacity="1" d="M 24.5 80 L 40 80.5 L 24.5 81 L 24.5 80 Z " /><path fill="rgb(209,203,185)" stroke="rgb(209,203,185)" stroke-width="1" opacity="1" d="M 63.5 80 L 63.5 81 L 63.5 80 Z " /><path fill="rgb(209,203,185)" stroke="rgb(209,203,185)" stroke-width="1" opacity="1" d="M 88.5 87 L 88.5 88 L 88.5 87 Z " /><path fill="rgb(246,245,241)" stroke="rgb(246,245,241)" stroke-width="1" opacity="1" d="M 91.5 41 L 91.5 42 L 91.5 41 Z " /><path fill="rgb(246,245,241)" stroke="rgb(246,245,241)" stroke-width="1" opacity="1" d="M 64.5 42 L 64.5 43 L 64.5 42 Z " /><path fill="rgb(246,245,241)" stroke="rgb(246,245,241)" stroke-width="1" opacity="1" d="M 93.5 42 L 93.5 43 L 93.5 42 Z " /><path fill="rgb(246,245,241)" stroke="rgb(246,245,241)" stroke-width="1" opacity="1" d="M 95.5 43 L 95.5 44 L 95.5 43 Z " /><path fill="rgb(246,245,241)" stroke="rgb(246,245,241)" stroke-width="1" opacity="1" d="M 99.5 49 L 99.5 50 L 99.5 49 Z " /><path fill="rgb(246,245,241)" stroke="rgb(246,245,241)" stroke-width="1" opacity="1" d="M 99.5 51 L 99.5 52 L 99.5 51 Z " /><path fill="rgb(246,245,241)" stroke="rgb(246,245,241)" stroke-width="1" opacity="1" d="M 24.5 53 L 33 53.5 L 24.5 54 L 24.5 53 Z " /><path fill="rgb(246,245,241)" stroke="rgb(246,245,241)" stroke-width="1" opacity="1" d="M 94.5 57 L 94.5 58 L 94.5 57 Z " /><path fill="rgb(246,245,241)" stroke="rgb(246,245,241)" stroke-width="1" opacity="1" d="M 24.5 58 L 30 58.5 L 24.5 59 L 24.5 58 Z " /><path fill="rgb(246,245,241)" stroke="rgb(246,245,241)" stroke-width="1" opacity="1" d="M 91.5 59 L 91.5 60 L 91.5 59 Z " /><path fill="rgb(246,245,241)" stroke="rgb(246,245,241)" stroke-width="1" opacity="1" d="M 102.5 63 L 102.5 64 L 102.5 63 Z " /><path fill="rgb(246,245,241)" stroke="rgb(246,245,241)" stroke-width="1" opacity="1" d="M 105.5 67 Q 108 68 106.5 69 Q 104 68 105.5 67 Z " /><path fill="rgb(246,245,241)" stroke="rgb(246,245,241)" stroke-width="1" opacity="1" d="M 100.5 83 L 100.5 84 L 100.5 83 Z " /><path fill="rgb(246,245,241)" stroke="rgb(246,245,241)" stroke-width="1" opacity="1" d="M 98.5 84 L 98.5 85 L 98.5 84 Z " /><path fill="rgb(246,245,241)" stroke="rgb(246,245,241)" stroke-width="1" opacity="1" d="M 94.5 86 L 94.5 87 L 94.5 86 Z " /><path fill="rgb(200,193,172)" stroke="rgb(200,193,172)" stroke-width="1" opacity="1" d="M 25.5 43 L 25.5 44 L 25.5 43 Z " /><path fill="rgb(200,193,172)" stroke="rgb(200,193,172)" stroke-width="1" opacity="1" d="M 96.5 43 L 96.5 44 L 96.5 43 Z " /><path fill="rgb(200,193,172)" stroke="rgb(200,193,172)" stroke-width="1" opacity="1" d="M 49.5 45 L 49.5 46 L 49.5 45 Z " /><path fill="rgb(200,193,172)" stroke="rgb(200,193,172)" stroke-width="1" opacity="1" d="M 54.5 45 L 54.5 46 L 54.5 45 Z " /><path fill="rgb(200,193,172)" stroke="rgb(200,193,172)" stroke-width="1" opacity="1" d="M 39 47 L 41 47.5 Q 40 50 39 48.5 L 39 47 Z " /><path fill="rgb(200,193,172)" stroke="rgb(200,193,172)" stroke-width="1" opacity="1" d="M 62.5 47 Q 65 48 63.5 49 Q 61 48 62.5 47 Z " /><path fill="rgb(200,193,172)" stroke="rgb(200,193,172)" stroke-width="1" opacity="1" d="M 24.5 52 L 34 52.5 L 24.5 53 L 24.5 52 Z " /><path fill="rgb(200,193,172)" stroke="rgb(200,193,172)" stroke-width="1" opacity="1" d="M 99.5 53 L 99.5 54 L 99.5 53 Z " /><path fill="rgb(200,193,172)" stroke="rgb(200,193,172)" stroke-width="1" opacity="1" d="M 104.5 65 L 104.5 66 L 104.5 65 Z " /><path fill="rgb(200,193,172)" stroke="rgb(200,193,172)" stroke-width="1" opacity="1" d="M 30.5 70 L 30.5 71 L 30.5 70 Z " /><path fill="rgb(200,193,172)" stroke="rgb(200,193,172)" stroke-width="1" opacity="1" d="M 103.5 81 L 103.5 82 L 103.5 81 Z " /><path fill="rgb(200,193,172)" stroke="rgb(200,193,172)" stroke-width="1" opacity="1" d="M 27.5 82 L 34 82.5 L 27.5 83 L 27.5 82 Z " /><path fill="rgb(200,193,172)" stroke="rgb(200,193,172)" stroke-width="1" opacity="1" d="M 25.5 84 L 64 84.5 L 25.5 85 L 25.5 84 Z " /><path fill="rgb(200,193,172)" stroke="rgb(200,193,172)" stroke-width="1" opacity="1" d="M 97.5 85 L 97.5 86 L 97.5 85 Z " /><path fill="rgb(200,193,172)" stroke="rgb(200,193,172)" stroke-width="1" opacity="1" d="M 89.5 87 L 89.5 88 L 89.5 87 Z " /><path fill="rgb(255,255,254)" stroke="rgb(255,255,254)" stroke-width="1" opacity="1" d="M 99.5 50 L 99.5 51 L 99.5 50 Z " /><path fill="rgb(255,255,254)" stroke="rgb(255,255,254)" stroke-width="1" opacity="1" d="M 97.5 55 L 97.5 56 L 97.5 55 Z " /><path fill="rgb(255,255,254)" stroke="rgb(255,255,254)" stroke-width="1" opacity="1" d="M 94.5 60 L 94.5 61 L 94.5 60 Z " /><path fill="rgb(255,255,254)" stroke="rgb(255,255,254)" stroke-width="1" opacity="1" d="M 100.5 62 L 100.5 63 L 100.5 62 Z " /><path fill="rgb(255,255,254)" stroke="rgb(255,255,254)" stroke-width="1" opacity="1" d="M 106.5 76 L 106.5 77 L 106.5 76 Z " /><path fill="rgb(255,255,254)" stroke="rgb(255,255,254)" stroke-width="1" opacity="1" d="M 37.5 78 L 37.5 79 L 37.5 78 Z " /><path fill="rgb(255,255,255)" stroke="rgb(255,255,255)" stroke-width="1" opacity="1" d="M 65 41 L 90.5 41 L 96.5 44 L 99 46.5 L 99 55 Q 96 54 97 57 L 94.5 57 L 91 59.5 L 94.5 61 L 98.5 61 L 105 66.5 L 107 69.5 L 107 75.5 L 101.5 83 L 93.5 87 L 65 87 Q 65.38 84.04 64.5 84 L 24.5 84 L 24.5 83 L 65 83 L 65 41 Z " /><path fill="rgb(255,255,255)" stroke="rgb(255,255,255)" stroke-width="1" opacity="1" d="M 24.5 63 L 30 63.5 L 24.5 64 L 24.5 63 Z " /><path fill="rgb(255,255,255)" stroke="rgb(255,255,255)" stroke-width="1" opacity="1" d="M 24.5 68 L 30 68.5 L 24.5 69 L 24.5 68 Z " /><path fill="rgb(255,255,255)" stroke="rgb(255,255,255)" stroke-width="1" opacity="1" d="M 24.5 73 L 33 73.5 L 24.5 74 L 24.5 73 Z " /><path fill="rgb(255,255,255)" stroke="rgb(255,255,255)" stroke-width="1" opacity="1" d="M 24.5 78 L 37 78.5 L 24.5 79 L 24.5 78 Z " /><path fill="rgb(171,160,128)" stroke="rgb(171,160,128)" stroke-width="1" opacity="1" d="M 30.5 40 L 65 40.5 L 63.5 42 L 55.5 42 L 54.5 41 L 30.5 41 L 30.5 40 Z " /><path fill="rgb(171,160,128)" stroke="rgb(171,160,128)" stroke-width="1" opacity="1" d="M 87.5 40 L 89 40.5 L 87.5 41 L 87.5 40 Z " /><path fill="rgb(171,160,128)" stroke="rgb(171,160,128)" stroke-width="1" opacity="1" d="M 24.5 44 L 64 44.5 L 24.5 45 L 24.5 44 Z " /><path fill="rgb(171,160,128)" stroke="rgb(171,160,128)" stroke-width="1" opacity="1" d="M 46.5 46 L 46.5 47 L 46.5 46 Z " /><path fill="rgb(171,160,128)" stroke="rgb(171,160,128)" stroke-width="1" opacity="1" d="M 56.5 46 L 56.5 47 L 56.5 46 Z " /><path fill="rgb(171,160,128)" stroke="rgb(171,160,128)" stroke-width="1" opacity="1" d="M 99.5 46 L 99.5 47 L 99.5 46 Z " /><path fill="rgb(171,160,128)" stroke="rgb(171,160,128)" stroke-width="1" opacity="1" d="M 23.5 47 L 24 49 L 37.5 49 L 38 50.5 L 36.5 50 L 24 50.5 L 36 51.5 L 24.5 52 L 23.5 53 L 24 51.5 L 23 50.5 L 24 49.5 L 23 48.5 L 23.5 47 Z " /><path fill="rgb(171,160,128)" stroke="rgb(171,160,128)" stroke-width="1" opacity="1" d="M 60.5 47 L 60.5 48 L 60.5 47 Z " /><path fill="rgb(171,160,128)" stroke="rgb(171,160,128)" stroke-width="1" opacity="1" d="M 40.5 48 L 40.5 49 L 40.5 48 Z " /><path fill="rgb(171,160,128)" stroke="rgb(171,160,128)" stroke-width="1" opacity="1" d="M 62.5 48 L 62.5 49 L 62.5 48 Z " /><path fill="rgb(171,160,128)" stroke="rgb(171,160,128)" stroke-width="1" opacity="1" d="M 24.5 54 L 33 54.5 L 24.5 55 L 23.5 56 Q 22 55 24.5 54 Z " /><path fill="rgb(171,160,128)" stroke="rgb(171,160,128)" stroke-width="1" opacity="1" d="M 99.5 54 L 99.5 55 L 99.5 54 Z " /><path fill="rgb(171,160,128)" stroke="rgb(171,160,128)" stroke-width="1" opacity="1" d="M 23.5 57 L 23.5 58 L 23.5 57 Z " /><path fill="rgb(171,160,128)" stroke="rgb(171,160,128)" stroke-width="1" opacity="1" d="M 96.5 57 L 96.5 58 L 96.5 57 Z " /><path fill="rgb(171,160,128)" stroke="rgb(171,160,128)" stroke-width="1" opacity="1" d="M 24.5 59 Q 29.75 57.75 31 60.5 L 29.5 60 Q 24.75 58.75 23.5 61 Q 22 60 24.5 59 Z " /><path fill="rgb(171,160,128)" stroke="rgb(171,160,128)" stroke-width="1" opacity="1" d="M 93.5 59 L 93.5 60 L 93.5 59 Z " /><path fill="rgb(171,160,128)" stroke="rgb(171,160,128)" stroke-width="1" opacity="1" d="M 98.5 60 L 98.5 61 L 98.5 60 Z " /><path fill="rgb(171,160,128)" stroke="rgb(171,160,128)" stroke-width="1" opacity="1" d="M 23.5 62 L 23.5 63 L 23.5 62 Z " /><path fill="rgb(171,160,128)" stroke="rgb(171,160,128)" stroke-width="1" opacity="1" d="M 24.5 64 L 30 64.5 L 24.5 65 L 23.5 66 Q 22 65 24.5 64 Z " /><path fill="rgb(171,160,128)" stroke="rgb(171,160,128)" stroke-width="1" opacity="1" d="M 105.5 66 L 105.5 67 L 105.5 66 Z " /><path fill="rgb(171,160,128)" stroke="rgb(171,160,128)" stroke-width="1" opacity="1" d="M 23.5 67 L 23.5 68 L 23.5 67 Z " /><path fill="rgb(171,160,128)" stroke="rgb(171,160,128)" stroke-width="1" opacity="1" d="M 24.5 69 L 30 69.5 L 24.5 70 L 23.5 71 Q 22 70 24.5 69 Z " /><path fill="rgb(171,160,128)" stroke="rgb(171,160,128)" stroke-width="1" opacity="1" d="M 107.5 70 L 107.5 71 L 107.5 70 Z " /><path fill="rgb(171,160,128)" stroke="rgb(171,160,128)" stroke-width="1" opacity="1" d="M 23.5 72 L 23.5 73 L 23.5 72 Z " /><path fill="rgb(171,160,128)" stroke="rgb(171,160,128)" stroke-width="1" opacity="1" d="M 24.5 74 L 33 74.5 L 24 75 L 23.5 78 L 23 75.5 L 24.5 74 Z " /><path fill="rgb(171,160,128)" stroke="rgb(171,160,128)" stroke-width="1" opacity="1" d="M 107.5 74 L 108 75.5 L 107 75.5 L 107.5 74 Z " /><path fill="rgb(171,160,128)" stroke="rgb(171,160,128)" stroke-width="1" opacity="1" d="M 34.5 75 L 34.5 76 L 34.5 75 Z " /><path fill="rgb(171,160,128)" stroke="rgb(171,160,128)" stroke-width="1" opacity="1" d="M 38.5 78 L 38.5 79 L 38.5 78 Z " /><path fill="rgb(171,160,128)" stroke="rgb(171,160,128)" stroke-width="1" opacity="1" d="M 23.5 79 L 24 81.5 L 23 81.5 L 23.5 79 Z " /><path fill="rgb(171,160,128)" stroke="rgb(171,160,128)" stroke-width="1" opacity="1" d="M 41.5 80 L 41.5 81 L 41.5 80 Z " /><path fill="rgb(171,160,128)" stroke="rgb(171,160,128)" stroke-width="1" opacity="1" d="M 61.5 80 L 63 80.5 L 61.5 81 L 61.5 80 Z " /><path fill="rgb(171,160,128)" stroke="rgb(171,160,128)" stroke-width="1" opacity="1" d="M 43.5 81 L 47 82.5 L 43 83 L 43.5 81 Z " /><path fill="rgb(171,160,128)" stroke="rgb(171,160,128)" stroke-width="1" opacity="1" d="M 55.5 82 L 55.5 83 L 55.5 82 Z " /><path fill="rgb(171,160,128)" stroke="rgb(171,160,128)" stroke-width="1" opacity="1" d="M 101.5 83 L 101.5 84 L 101.5 83 Z " /><path fill="rgb(171,160,128)" stroke="rgb(171,160,128)" stroke-width="1" opacity="1" d="M 92.5 87 L 92.5 88 L 92.5 87 Z " /><path fill="rgb(187,178,152)" stroke="rgb(187,178,152)" stroke-width="1" opacity="1" d="M 65.5 40 L 87 40.5 L 65.5 41 L 65.5 40 Z " /><path fill="rgb(187,178,152)" stroke="rgb(187,178,152)" stroke-width="1" opacity="1" d="M 28.5 41 L 55 41.5 L 28.5 42 L 28.5 41 Z " /><path fill="rgb(187,178,152)" stroke="rgb(187,178,152)" stroke-width="1" opacity="1" d="M 92.5 41 L 92.5 42 L 92.5 41 Z " /><path fill="rgb(187,178,152)" stroke="rgb(187,178,152)" stroke-width="1" opacity="1" d="M 94.5 42 L 94.5 43 L 94.5 42 Z " /><path fill="rgb(187,178,152)" stroke="rgb(187,178,152)" stroke-width="1" opacity="1" d="M 51.5 45 L 51.5 46 L 51.5 45 Z " /><path fill="rgb(187,178,152)" stroke="rgb(187,178,152)" stroke-width="1" opacity="1" d="M 24.5 46 L 46 46.5 L 42.5 48 L 41.5 47 L 24.5 47 L 24.5 46 Z " /><path fill="rgb(187,178,152)" stroke="rgb(187,178,152)" stroke-width="1" opacity="1" d="M 57.5 46 L 64 46.5 L 57.5 47 L 57.5 46 Z " /><path fill="rgb(187,178,152)" stroke="rgb(187,178,152)" stroke-width="1" opacity="1" d="M 64.5 49 L 65 78.5 Q 64 81 63 79.5 L 64 78.5 L 64.5 49 Z " /><path fill="rgb(187,178,152)" stroke="rgb(187,178,152)" stroke-width="1" opacity="1" d="M 23.5 53 L 23.5 54 L 23.5 53 Z " /><path fill="rgb(187,178,152)" stroke="rgb(187,178,152)" stroke-width="1" opacity="1" d="M 32.5 55 Q 34 56 31.5 57 L 24 56.5 L 31.5 56 L 32.5 55 Z " /><path fill="rgb(187,178,152)" stroke="rgb(187,178,152)" stroke-width="1" opacity="1" d="M 23.5 58 L 23.5 59 L 23.5 58 Z " /><path fill="rgb(187,178,152)" stroke="rgb(187,178,152)" stroke-width="1" opacity="1" d="M 93.5 58 L 93.5 59 L 93.5 58 Z " /><path fill="rgb(187,178,152)" stroke="rgb(187,178,152)" stroke-width="1" opacity="1" d="M 24.5 61 L 30 61.5 L 24.5 62 L 24.5 61 Z " /><path fill="rgb(187,178,152)" stroke="rgb(187,178,152)" stroke-width="1" opacity="1" d="M 24.5 66 L 30 66.5 L 24.5 67 L 24.5 66 Z " /><path fill="rgb(187,178,152)" stroke="rgb(187,178,152)" stroke-width="1" opacity="1" d="M 24.5 71 L 31 71.5 L 24.5 72 L 24.5 71 Z " /><path fill="rgb(187,178,152)" stroke="rgb(187,178,152)" stroke-width="1" opacity="1" d="M 107.5 71 L 108 73.5 L 107 73.5 L 107.5 71 Z " /><path fill="rgb(187,178,152)" stroke="rgb(187,178,152)" stroke-width="1" opacity="1" d="M 106.5 77 L 106.5 78 L 106.5 77 Z " /><path fill="rgb(187,178,152)" stroke="rgb(187,178,152)" stroke-width="1" opacity="1" d="M 40.5 80 L 40.5 81 L 40.5 80 Z " /><path fill="rgb(187,178,152)" stroke="rgb(187,178,152)" stroke-width="1" opacity="1" d="M 104.5 80 L 104.5 81 L 104.5 80 Z " /><path fill="rgb(187,178,152)" stroke="rgb(187,178,152)" stroke-width="1" opacity="1" d="M 38.5 82 L 43 82.5 L 38.5 83 L 38.5 82 Z " /><path fill="rgb(187,178,152)" stroke="rgb(187,178,152)" stroke-width="1" opacity="1" d="M 56.5 82 L 56.5 83 L 56.5 82 Z " /><path fill="rgb(187,178,152)" stroke="rgb(187,178,152)" stroke-width="1" opacity="1" d="M 26.5 85 L 64 85.5 L 26.5 86 L 26.5 85 Z " /><path fill="rgb(187,178,152)" stroke="rgb(187,178,152)" stroke-width="1" opacity="1" d="M 28.5 87 L 28.5 88 L 28.5 87 Z " /><path fill="rgb(187,178,152)" stroke="rgb(187,178,152)" stroke-width="1" opacity="1" d="M 90.5 87 L 92 87.5 L 90.5 88 L 90.5 87 Z " /><path fill="rgb(195,187,164)" stroke="rgb(195,187,164)" stroke-width="1" opacity="1" d="M 50.5 45 L 50.5 46 L 50.5 45 Z " /><path fill="rgb(195,187,164)" stroke="rgb(195,187,164)" stroke-width="1" opacity="1" d="M 52.5 45 L 54 45.5 L 52.5 46 L 52.5 45 Z " /><path fill="rgb(195,187,164)" stroke="rgb(195,187,164)" stroke-width="1" opacity="1" d="M 24.5 47 L 39 47.5 L 24.5 48 L 24.5 47 Z " /><path fill="rgb(195,187,164)" stroke="rgb(195,187,164)" stroke-width="1" opacity="1" d="M 41.5 47 L 41.5 48 L 41.5 47 Z " /><path fill="rgb(195,187,164)" stroke="rgb(195,187,164)" stroke-width="1" opacity="1" d="M 61.5 47 L 61.5 48 L 61.5 47 Z " /><path fill="rgb(195,187,164)" stroke="rgb(195,187,164)" stroke-width="1" opacity="1" d="M 36.5 50 L 36.5 51 L 36.5 50 Z " /><path fill="rgb(195,187,164)" stroke="rgb(195,187,164)" stroke-width="1" opacity="1" d="M 34.5 52 L 34.5 53 L 34.5 52 Z " /><path fill="rgb(195,187,164)" stroke="rgb(195,187,164)" stroke-width="1" opacity="1" d="M 24.5 57 L 31 57.5 L 24.5 58 L 24.5 57 Z " /><path fill="rgb(195,187,164)" stroke="rgb(195,187,164)" stroke-width="1" opacity="1" d="M 92.5 59 L 92.5 60 L 92.5 59 Z " /><path fill="rgb(195,187,164)" stroke="rgb(195,187,164)" stroke-width="1" opacity="1" d="M 97.5 60 L 97.5 61 L 97.5 60 Z " /><path fill="rgb(195,187,164)" stroke="rgb(195,187,164)" stroke-width="1" opacity="1" d="M 24.5 62 L 30 62.5 L 24.5 63 L 23.5 64 Q 22 63 24.5 62 Z " /><path fill="rgb(195,187,164)" stroke="rgb(195,187,164)" stroke-width="1" opacity="1" d="M 24.5 67 Q 29.75 65.75 31 68.5 L 29.5 68 Q 24.75 66.75 23.5 69 Q 22 68 24.5 67 Z " /><path fill="rgb(195,187,164)" stroke="rgb(195,187,164)" stroke-width="1" opacity="1" d="M 24.5 72 L 32 72.5 L 24.5 73 L 23.5 74 Q 22 73 24.5 72 Z " /><path fill="rgb(195,187,164)" stroke="rgb(195,187,164)" stroke-width="1" opacity="1" d="M 24 76 L 34.5 76 L 36 77.5 L 24 78.5 L 40 79.5 L 24.5 80 Q 21.75 78.75 24 77.5 L 24 76 Z " /><path fill="rgb(195,187,164)" stroke="rgb(195,187,164)" stroke-width="1" opacity="1" d="M 24 81 L 43 81.5 L 34.5 83 L 33.5 82 L 27.5 82 Q 26.58 83.75 24 83 L 24 81 Z " /><path fill="rgb(195,187,164)" stroke="rgb(195,187,164)" stroke-width="1" opacity="1" d="M 60.5 81 Q 65.31 79.67 64 83 L 57 82.5 L 60.5 81 Z " /><path fill="rgb(195,187,164)" stroke="rgb(195,187,164)" stroke-width="1" opacity="1" d="M 102.5 82 L 102.5 83 L 102.5 82 Z " /><path fill="rgb(195,187,164)" stroke="rgb(195,187,164)" stroke-width="1" opacity="1" d="M 99.5 84 L 99.5 85 L 99.5 84 Z " /><path fill="rgb(195,187,164)" stroke="rgb(195,187,164)" stroke-width="1" opacity="1" d="M 26.5 86 L 63.5 86 L 64 88 L 29.5 88 L 26.5 87 L 26.5 86 Z " /><path fill="rgb(195,187,164)" stroke="rgb(195,187,164)" stroke-width="1" opacity="1" d="M 95.5 86 L 95.5 87 L 95.5 86 Z " /><path fill="rgb(146,131,90)" stroke="rgb(146,131,90)" stroke-width="1" opacity="1" d="M 28.5 40 L 30 40.5 L 27.5 42 Q 26 41 28.5 40 Z " /><path fill="rgb(146,131,90)" stroke="rgb(146,131,90)" stroke-width="1" opacity="1" d="M 89.5 40 L 89.5 41 L 89.5 40 Z " /><path fill="rgb(146,131,90)" stroke="rgb(146,131,90)" stroke-width="1" opacity="1" d="M 25.5 42 Q 27 43 24.5 44 Q 23 43 25.5 42 Z " /><path fill="rgb(146,131,90)" stroke="rgb(146,131,90)" stroke-width="1" opacity="1" d="M 97.5 43 L 97.5 44 L 97.5 43 Z " /><path fill="rgb(146,131,90)" stroke="rgb(146,131,90)" stroke-width="1" opacity="1" d="M 23.5 45 L 24 46.5 L 23 46.5 L 23.5 45 Z " /><path fill="rgb(146,131,90)" stroke="rgb(146,131,90)" stroke-width="1" opacity="1" d="M 47.5 46 L 47.5 47 L 47.5 46 Z " /><path fill="rgb(146,131,90)" stroke="rgb(146,131,90)" stroke-width="1" opacity="1" d="M 43.5 47 L 43.5 48 L 43.5 47 Z " /><path fill="rgb(146,131,90)" stroke="rgb(146,131,90)" stroke-width="1" opacity="1" d="M 59.5 47 L 59.5 48 L 59.5 47 Z " /><path fill="rgb(146,131,90)" stroke="rgb(146,131,90)" stroke-width="1" opacity="1" d="M 41.5 48 L 41.5 49 L 41.5 48 Z " /><path fill="rgb(146,131,90)" stroke="rgb(146,131,90)" stroke-width="1" opacity="1" d="M 61.5 48 L 61.5 49 L 61.5 48 Z " /><path fill="rgb(146,131,90)" stroke="rgb(146,131,90)" stroke-width="1" opacity="1" d="M 23.5 49 L 23.5 50 L 23.5 49 Z " /><path fill="rgb(146,131,90)" stroke="rgb(146,131,90)" stroke-width="1" opacity="1" d="M 38.5 49 L 39 50.5 L 38 50.5 L 38.5 49 Z " /><path fill="rgb(146,131,90)" stroke="rgb(146,131,90)" stroke-width="1" opacity="1" d="M 23.5 51 L 23.5 52 L 23.5 51 Z " /><path fill="rgb(146,131,90)" stroke="rgb(146,131,90)" stroke-width="1" opacity="1" d="M 35.5 52 L 35.5 53 L 35.5 52 Z " /><path fill="rgb(146,131,90)" stroke="rgb(146,131,90)" stroke-width="1" opacity="1" d="M 23.5 54 L 23.5 55 L 23.5 54 Z " /><path fill="rgb(146,131,90)" stroke="rgb(146,131,90)" stroke-width="1" opacity="1" d="M 33.5 54 L 33.5 55 L 33.5 54 Z " /><path fill="rgb(146,131,90)" stroke="rgb(146,131,90)" stroke-width="1" opacity="1" d="M 23.5 56 L 23.5 57 L 23.5 56 Z " /><path fill="rgb(146,131,90)" stroke="rgb(146,131,90)" stroke-width="1" opacity="1" d="M 31.5 57 L 31.5 58 L 31.5 57 Z " /><path fill="rgb(146,131,90)" stroke="rgb(146,131,90)" stroke-width="1" opacity="1" d="M 23.5 59 L 23.5 60 L 23.5 59 Z " /><path fill="rgb(146,131,90)" stroke="rgb(146,131,90)" stroke-width="1" opacity="1" d="M 30.5 59 L 30.5 60 L 30.5 59 Z " /><path fill="rgb(146,131,90)" stroke="rgb(146,131,90)" stroke-width="1" opacity="1" d="M 23.5 61 L 23.5 62 L 23.5 61 Z " /><path fill="rgb(146,131,90)" stroke="rgb(146,131,90)" stroke-width="1" opacity="1" d="M 30.5 61 L 31 63.5 L 30 63.5 L 30.5 61 Z " /><path fill="rgb(146,131,90)" stroke="rgb(146,131,90)" stroke-width="1" opacity="1" d="M 100.5 61 L 100.5 62 L 100.5 61 Z " /><path fill="rgb(146,131,90)" stroke="rgb(146,131,90)" stroke-width="1" opacity="1" d="M 102.5 62 L 102.5 63 L 102.5 62 Z " /><path fill="rgb(146,131,90)" stroke="rgb(146,131,90)" stroke-width="1" opacity="1" d="M 23.5 64 L 23.5 65 L 23.5 64 Z " /><path fill="rgb(146,131,90)" stroke="rgb(146,131,90)" stroke-width="1" opacity="1" d="M 30.5 65 L 31 67.5 L 30 67.5 L 30.5 65 Z " /><path fill="rgb(146,131,90)" stroke="rgb(146,131,90)" stroke-width="1" opacity="1" d="M 23.5 66 L 23.5 67 L 23.5 66 Z " /><path fill="rgb(146,131,90)" stroke="rgb(146,131,90)" stroke-width="1" opacity="1" d="M 106.5 67 L 106.5 68 L 106.5 67 Z " /><path fill="rgb(146,131,90)" stroke="rgb(146,131,90)" stroke-width="1" opacity="1" d="M 23.5 69 L 23.5 70 L 23.5 69 Z " /><path fill="rgb(146,131,90)" stroke="rgb(146,131,90)" stroke-width="1" opacity="1" d="M 30.5 69 L 30.5 70 L 30.5 69 Z " /><path fill="rgb(146,131,90)" stroke="rgb(146,131,90)" stroke-width="1" opacity="1" d="M 107.5 69 L 107.5 70 L 107.5 69 Z " /><path fill="rgb(146,131,90)" stroke="rgb(146,131,90)" stroke-width="1" opacity="1" d="M 23.5 71 L 23.5 72 L 23.5 71 Z " /><path fill="rgb(146,131,90)" stroke="rgb(146,131,90)" stroke-width="1" opacity="1" d="M 31.5 71 L 34 74.5 L 33 74.5 L 31 71.5 L 31.5 71 Z " /><path fill="rgb(146,131,90)" stroke="rgb(146,131,90)" stroke-width="1" opacity="1" d="M 23.5 74 L 23.5 75 L 23.5 74 Z " /><path fill="rgb(146,131,90)" stroke="rgb(146,131,90)" stroke-width="1" opacity="1" d="M 35.5 76 Q 38 77 36.5 78 Q 34 77 35.5 76 Z " /><path fill="rgb(146,131,90)" stroke="rgb(146,131,90)" stroke-width="1" opacity="1" d="M 40.5 79 L 40.5 80 L 40.5 79 Z " /><path fill="rgb(146,131,90)" stroke="rgb(146,131,90)" stroke-width="1" opacity="1" d="M 62.5 79 L 62.5 80 L 62.5 79 Z " /><path fill="rgb(146,131,90)" stroke="rgb(146,131,90)" stroke-width="1" opacity="1" d="M 42.5 80 L 42.5 81 L 42.5 80 Z " /><path fill="rgb(146,131,90)" stroke="rgb(146,131,90)" stroke-width="1" opacity="1" d="M 60.5 80 Q 62 81 59.5 82 Q 58 81 60.5 80 Z " /><path fill="rgb(146,131,90)" stroke="rgb(146,131,90)" stroke-width="1" opacity="1" d="M 23.5 82 L 26 86.5 L 25 86.5 L 23 83.5 L 23.5 82 Z " /><path fill="rgb(146,131,90)" stroke="rgb(146,131,90)" stroke-width="1" opacity="1" d="M 47.5 82 L 55 82.5 L 47.5 83 L 47.5 82 Z " /><path fill="rgb(146,131,90)" stroke="rgb(146,131,90)" stroke-width="1" opacity="1" d="M 96.5 86 L 96.5 87 L 96.5 86 Z " /><path fill="rgb(146,131,90)" stroke="rgb(146,131,90)" stroke-width="1" opacity="1" d="M 27.5 87 L 27.5 88 L 27.5 87 Z " /><path fill="rgb(146,131,90)" stroke="rgb(146,131,90)" stroke-width="1" opacity="1" d="M 93.5 87 L 93.5 88 L 93.5 87 Z " /></svg>