<svg width="48" height="48" version="1.1" xmlns="http://www.w3.org/2000/svg" desc="Created with imagetracer.js version 1.2.6" ><path fill="rgb(0,0,0)" stroke="rgb(0,0,0)" stroke-width="1" opacity="0" d="M 0 0 L 48 0 L 48 20.5 L 47.5 21 L 43.5 17 L 31.5 13 L 17.5 13 L 16.5 14 L 11.5 14 L 8.5 15 Q 3.33 16.83 0.5 21 L 0 0 Z " /><path fill="rgb(0,0,0)" stroke="rgb(0,0,0)" stroke-width="1" opacity="0" d="M 0.5 27 L 4.5 31 L 11.5 34 Q 15.5 33 16.5 35 L 31.5 35 L 32.5 34 L 39.5 33 L 45.5 29 L 47 29 L 47.5 27 L 48 48 L 0 48 L 0.5 27 Z " /><path fill="rgb(29,120,89)" stroke="rgb(29,120,89)" stroke-width="1" opacity="0.9921568627450981" d="M 10.5 16 L 10.5 17 L 10.5 16 Z " /><path fill="rgb(29,120,89)" stroke="rgb(29,120,89)" stroke-width="1" opacity="0.9921568627450981" d="M 7.5 17 L 7.5 18 L 7.5 17 Z " /><path fill="rgb(29,120,89)" stroke="rgb(29,120,89)" stroke-width="1" opacity="0.9921568627450981" d="M 5.5 18 L 5.5 19 L 5.5 18 Z " /><path fill="rgb(29,120,89)" stroke="rgb(29,120,89)" stroke-width="1" opacity="0.9921568627450981" d="M 9.5 18 L 11 18.5 L 9.5 19 L 9.5 18 Z " /><path fill="rgb(29,120,89)" stroke="rgb(29,120,89)" stroke-width="1" opacity="0.9921568627450981" d="M 7.5 19 L 7.5 20 L 7.5 19 Z " /><path fill="rgb(29,120,89)" stroke="rgb(29,120,89)" stroke-width="1" opacity="0.9921568627450981" d="M 14.5 19 L 14.5 20 L 14.5 19 Z " /><path fill="rgb(29,120,89)" stroke="rgb(29,120,89)" stroke-width="1" opacity="0.9921568627450981" d="M 21.5 19 L 27 19.5 L 21.5 20 L 21.5 19 Z " /><path fill="rgb(29,120,89)" stroke="rgb(29,120,89)" stroke-width="1" opacity="0.9921568627450981" d="M 30.5 19 L 35 19.5 L 30.5 20 L 29.5 21 Q 28 20 30.5 19 Z " /><path fill="rgb(29,120,89)" stroke="rgb(29,120,89)" stroke-width="1" opacity="0.9921568627450981" d="M 5.5 20 L 6 20.5 L 3.5 23 L 3 22.5 L 5.5 20 Z " /><path fill="rgb(29,120,89)" stroke="rgb(29,120,89)" stroke-width="1" opacity="0.9921568627450981" d="M 36.5 20 L 36.5 21 L 36.5 20 Z " /><path fill="rgb(29,120,89)" stroke="rgb(29,120,89)" stroke-width="1" opacity="0.9921568627450981" d="M 26.5 22 L 26.5 23 L 26.5 22 Z " /><path fill="rgb(29,120,89)" stroke="rgb(29,120,89)" stroke-width="1" opacity="0.9921568627450981" d="M 9.5 23 L 10 24.5 L 9 24.5 L 9.5 23 Z " /><path fill="rgb(29,120,89)" stroke="rgb(29,120,89)" stroke-width="1" opacity="0.9921568627450981" d="M 18.5 24 L 18.5 25 L 18.5 24 Z " /><path fill="rgb(29,120,89)" stroke="rgb(29,120,89)" stroke-width="1" opacity="0.9921568627450981" d="M 34.5 24 L 34.5 25 L 34.5 24 Z " /><path fill="rgb(29,120,89)" stroke="rgb(29,120,89)" stroke-width="1" opacity="0.9921568627450981" d="M 10.5 26 L 10.5 27 L 10.5 26 Z " /><path fill="rgb(29,120,89)" stroke="rgb(29,120,89)" stroke-width="1" opacity="0.9921568627450981" d="M 16.5 26 L 16.5 27 L 16.5 26 Z " /><path fill="rgb(29,120,89)" stroke="rgb(29,120,89)" stroke-width="1" opacity="0.9921568627450981" d="M 21.5 26 L 21.5 27 L 21.5 26 Z " /><path fill="rgb(29,120,89)" stroke="rgb(29,120,89)" stroke-width="1" opacity="0.9921568627450981" d="M 29.5 27 L 29.5 28 L 29.5 27 Z " /><path fill="rgb(45,116,86)" stroke="rgb(45,116,86)" stroke-width="1" opacity="1" d="M 15.5 15 Q 19.25 14 18 17 Q 15.25 17.5 15.5 15 Z " /><path fill="rgb(45,116,86)" stroke="rgb(45,116,86)" stroke-width="1" opacity="1" d="M 11.5 17 L 13 17.5 L 11.5 18 L 11.5 17 Z " /><path fill="rgb(45,116,86)" stroke="rgb(45,116,86)" stroke-width="1" opacity="1" d="M 11.5 20 L 11.5 21 L 11.5 20 Z " /><path fill="rgb(45,116,86)" stroke="rgb(45,116,86)" stroke-width="1" opacity="1" d="M 34.5 21 L 34.5 22 L 34.5 21 Z " /><path fill="rgb(45,116,86)" stroke="rgb(45,116,86)" stroke-width="1" opacity="1" d="M 26.5 23 L 27 24.5 L 26 24.5 L 26.5 23 Z " /><path fill="rgb(45,116,86)" stroke="rgb(45,116,86)" stroke-width="1" opacity="1" d="M 12.5 25 L 12.5 26 L 12.5 25 Z " /><path fill="rgb(45,116,86)" stroke="rgb(45,116,86)" stroke-width="1" opacity="1" d="M 34.5 26 L 34.5 27 L 34.5 26 Z " /><path fill="rgb(6,113,80)" stroke="rgb(6,113,80)" stroke-width="1" opacity="0.807843137254902" d="M 18.5 14 L 20 14.5 L 18.5 15 L 18.5 14 Z " /><path fill="rgb(6,113,80)" stroke="rgb(6,113,80)" stroke-width="1" opacity="0.807843137254902" d="M 12.5 15 L 12.5 16 L 12.5 15 Z " /><path fill="rgb(6,113,80)" stroke="rgb(6,113,80)" stroke-width="1" opacity="0.807843137254902" d="M 35.5 15 L 35.5 16 L 35.5 15 Z " /><path fill="rgb(6,113,80)" stroke="rgb(6,113,80)" stroke-width="1" opacity="0.807843137254902" d="M 9.5 16 L 9.5 17 L 9.5 16 Z " /><path fill="rgb(6,113,80)" stroke="rgb(6,113,80)" stroke-width="1" opacity="0.807843137254902" d="M 3.5 19 Q 5 20 2.5 21 Q 1 20 3.5 19 Z " /><path fill="rgb(6,106,73)" stroke="rgb(6,106,73)" stroke-width="1" opacity="0.9019607843137255" d="M 20.5 14 L 29 14.5 L 20.5 15 L 20.5 14 Z " /><path fill="rgb(6,106,73)" stroke="rgb(6,106,73)" stroke-width="1" opacity="0.9019607843137255" d="M 13.5 15 L 13.5 16 L 13.5 15 Z " /><path fill="rgb(6,106,73)" stroke="rgb(6,106,73)" stroke-width="1" opacity="0.9019607843137255" d="M 34.5 15 L 34.5 16 L 34.5 15 Z " /><path fill="rgb(6,106,73)" stroke="rgb(6,106,73)" stroke-width="1" opacity="0.9019607843137255" d="M 38.5 16 L 38.5 17 L 38.5 16 Z " /><path fill="rgb(50,102,71)" stroke="rgb(50,102,71)" stroke-width="1" opacity="1" d="M 31.5 15 Q 34 16 32.5 17 Q 29.71 17.67 31.5 15 Z " /><path fill="rgb(50,102,71)" stroke="rgb(50,102,71)" stroke-width="1" opacity="1" d="M 35.5 16 Q 37.75 15.25 37 17.5 L 36.5 18 Q 34 17 35.5 16 Z " /><path fill="rgb(50,102,71)" stroke="rgb(50,102,71)" stroke-width="1" opacity="1" d="M 39.5 17 L 39.5 18 L 39.5 17 Z " /><path fill="rgb(50,102,71)" stroke="rgb(50,102,71)" stroke-width="1" opacity="1" d="M 41.5 18 L 41.5 19 L 41.5 18 Z " /><path fill="rgb(50,102,71)" stroke="rgb(50,102,71)" stroke-width="1" opacity="1" d="M 3.5 27 L 3.5 28 L 3.5 27 Z " /><path fill="rgb(50,102,71)" stroke="rgb(50,102,71)" stroke-width="1" opacity="1" d="M 44.5 27 L 44.5 28 L 44.5 27 Z " /><path fill="rgb(50,102,71)" stroke="rgb(50,102,71)" stroke-width="1" opacity="1" d="M 41.5 29 L 41.5 30 L 41.5 29 Z " /><path fill="rgb(50,102,71)" stroke="rgb(50,102,71)" stroke-width="1" opacity="1" d="M 39.5 30 L 39.5 31 L 39.5 30 Z " /><path fill="rgb(50,102,71)" stroke="rgb(50,102,71)" stroke-width="1" opacity="1" d="M 31.5 31 Q 33 32 30.5 33 Q 29 32 31.5 31 Z " /><path fill="rgb(50,102,71)" stroke="rgb(50,102,71)" stroke-width="1" opacity="1" d="M 36.5 31 L 36.5 32 L 36.5 31 Z " /><path fill="rgb(50,102,71)" stroke="rgb(50,102,71)" stroke-width="1" opacity="1" d="M 17.5 32 L 17.5 33 L 17.5 32 Z " /><path fill="rgb(50,102,71)" stroke="rgb(50,102,71)" stroke-width="1" opacity="1" d="M 21.5 32 L 21.5 33 L 21.5 32 Z " /><path fill="rgb(50,102,71)" stroke="rgb(50,102,71)" stroke-width="1" opacity="1" d="M 23.5 32 L 25 32.5 L 23.5 33 L 23.5 32 Z " /><path fill="rgb(21,103,72)" stroke="rgb(21,103,72)" stroke-width="1" opacity="0.9882352941176471" d="M 33.5 15 L 33.5 16 L 33.5 15 Z " /><path fill="rgb(21,103,72)" stroke="rgb(21,103,72)" stroke-width="1" opacity="0.9882352941176471" d="M 29.5 16 L 29.5 17 L 29.5 16 Z " /><path fill="rgb(21,103,72)" stroke="rgb(21,103,72)" stroke-width="1" opacity="0.9882352941176471" d="M 37.5 16 L 37.5 17 L 37.5 16 Z " /><path fill="rgb(21,103,72)" stroke="rgb(21,103,72)" stroke-width="1" opacity="0.9882352941176471" d="M 40.5 17 L 40.5 18 L 40.5 17 Z " /><path fill="rgb(21,103,72)" stroke="rgb(21,103,72)" stroke-width="1" opacity="0.9882352941176471" d="M 19.5 21 L 20 22.5 L 19 22.5 L 19.5 21 Z " /><path fill="rgb(21,103,72)" stroke="rgb(21,103,72)" stroke-width="1" opacity="0.9882352941176471" d="M 28.5 21 L 28.5 22 L 28.5 21 Z " /><path fill="rgb(21,103,72)" stroke="rgb(21,103,72)" stroke-width="1" opacity="0.9882352941176471" d="M 12.5 22 L 12.5 23 L 12.5 22 Z " /><path fill="rgb(21,103,72)" stroke="rgb(21,103,72)" stroke-width="1" opacity="0.9882352941176471" d="M 1.5 24 L 1.5 25 L 1.5 24 Z " /><path fill="rgb(21,103,72)" stroke="rgb(21,103,72)" stroke-width="1" opacity="0.9882352941176471" d="M 37.5 25 L 37.5 26 L 37.5 25 Z " /><path fill="rgb(21,103,72)" stroke="rgb(21,103,72)" stroke-width="1" opacity="0.9882352941176471" d="M 19.5 26 L 19.5 27 L 19.5 26 Z " /><path fill="rgb(16,111,80)" stroke="rgb(16,111,80)" stroke-width="1" opacity="0.996078431372549" d="M 14.5 15 L 14.5 16 L 14.5 15 Z " /><path fill="rgb(16,111,80)" stroke="rgb(16,111,80)" stroke-width="1" opacity="0.996078431372549" d="M 18.5 16 L 29 16.5 L 18.5 17 L 18.5 16 Z " /><path fill="rgb(16,111,80)" stroke="rgb(16,111,80)" stroke-width="1" opacity="0.996078431372549" d="M 13.5 17 L 17 17.5 L 13 18.5 L 13.5 20 L 11 18.5 L 13.5 17 Z " /><path fill="rgb(16,111,80)" stroke="rgb(16,111,80)" stroke-width="1" opacity="0.996078431372549" d="M 8.5 19 L 8.5 20 L 8.5 19 Z " /><path fill="rgb(16,111,80)" stroke="rgb(16,111,80)" stroke-width="1" opacity="0.996078431372549" d="M 15.5 19 L 17 19.5 L 15.5 20 L 15.5 19 Z " /><path fill="rgb(16,111,80)" stroke="rgb(16,111,80)" stroke-width="1" opacity="0.996078431372549" d="M 27.5 19 L 28.5 20 L 30 19.5 L 28.5 21 Q 26 20 27.5 19 Z " /><path fill="rgb(16,111,80)" stroke="rgb(16,111,80)" stroke-width="1" opacity="0.996078431372549" d="M 6.5 20 L 7 20.5 L 3.5 24 L 3 23.5 L 6.5 20 Z " /><path fill="rgb(16,111,80)" stroke="rgb(16,111,80)" stroke-width="1" opacity="0.996078431372549" d="M 19.5 20 L 22 21.5 L 21.5 26 L 21 21 L 19 20.5 L 19.5 20 Z " /><path fill="rgb(16,111,80)" stroke="rgb(16,111,80)" stroke-width="1" opacity="0.996078431372549" d="M 1.5 22 L 2 23.5 L 1 23.5 L 1.5 22 Z " /><path fill="rgb(16,111,80)" stroke="rgb(16,111,80)" stroke-width="1" opacity="0.996078431372549" d="M 17.5 25 L 17.5 26 L 17.5 25 Z " /><path fill="rgb(16,111,80)" stroke="rgb(16,111,80)" stroke-width="1" opacity="0.996078431372549" d="M 19.5 25 L 19.5 26 L 19.5 25 Z " /><path fill="rgb(16,111,80)" stroke="rgb(16,111,80)" stroke-width="1" opacity="0.996078431372549" d="M 14.5 26 L 16 26.5 L 14.5 27 L 14.5 26 Z " /><path fill="rgb(16,111,80)" stroke="rgb(16,111,80)" stroke-width="1" opacity="0.996078431372549" d="M 33.5 26 L 33.5 27 L 33.5 26 Z " /><path fill="rgb(16,111,80)" stroke="rgb(16,111,80)" stroke-width="1" opacity="0.996078431372549" d="M 17.5 27 L 19 27.5 L 17.5 28 L 17.5 27 Z " /><path fill="rgb(16,111,80)" stroke="rgb(16,111,80)" stroke-width="1" opacity="0.996078431372549" d="M 20.5 27 L 20.5 28 L 20.5 27 Z " /><path fill="rgb(5,102,70)" stroke="rgb(5,102,70)" stroke-width="1" opacity="0.9686274509803922" d="M 34.5 17 L 34.5 18 L 34.5 17 Z " /><path fill="rgb(5,102,70)" stroke="rgb(5,102,70)" stroke-width="1" opacity="0.9686274509803922" d="M 20.5 19 L 20.5 20 L 20.5 19 Z " /><path fill="rgb(5,102,70)" stroke="rgb(5,102,70)" stroke-width="1" opacity="0.9686274509803922" d="M 26.5 21 Q 29 22 27.5 23 Q 25 22 26.5 21 Z " /><path fill="rgb(5,102,70)" stroke="rgb(5,102,70)" stroke-width="1" opacity="0.9686274509803922" d="M 9.5 22 L 9.5 23 L 9.5 22 Z " /><path fill="rgb(5,102,70)" stroke="rgb(5,102,70)" stroke-width="1" opacity="0.9686274509803922" d="M 18.5 23 Q 21 24 19.5 25 Q 17 24 18.5 23 Z " /><path fill="rgb(5,102,70)" stroke="rgb(5,102,70)" stroke-width="1" opacity="0.9686274509803922" d="M 1.5 25 L 1.5 26 L 1.5 25 Z " /><path fill="rgb(5,102,70)" stroke="rgb(5,102,70)" stroke-width="1" opacity="0.9686274509803922" d="M 25.5 25 L 25.5 28 Q 22.5 26.5 25.5 25 Z " /><path fill="rgb(5,102,70)" stroke="rgb(5,102,70)" stroke-width="1" opacity="0.9686274509803922" d="M 11.5 27 L 11.5 28 L 11.5 27 Z " /><path fill="rgb(68,124,95)" stroke="rgb(68,124,95)" stroke-width="1" opacity="1" d="M 11.5 16 L 13 16.5 L 5.5 20 L 2.5 23 L 2 21.5 L 4.5 19 L 11.5 16 Z " /><path fill="rgb(68,124,95)" stroke="rgb(68,124,95)" stroke-width="1" opacity="1" d="M 36.5 22 L 36.5 23 L 36.5 22 Z " /><path fill="rgb(68,124,95)" stroke="rgb(68,124,95)" stroke-width="1" opacity="1" d="M 44.5 26 Q 46 27 43.5 28 Q 42 27 44.5 26 Z " /><path fill="rgb(5,91,60)" stroke="rgb(5,91,60)" stroke-width="1" opacity="0.9764705882352941" d="M 46.5 22 L 46.5 23 L 46.5 22 Z " /><path fill="rgb(5,91,60)" stroke="rgb(5,91,60)" stroke-width="1" opacity="0.9764705882352941" d="M 46.5 25 L 46.5 26 L 46.5 25 Z " /><path fill="rgb(5,91,60)" stroke="rgb(5,91,60)" stroke-width="1" opacity="0.9764705882352941" d="M 45.5 27 L 45.5 28 L 45.5 27 Z " /><path fill="rgb(5,91,60)" stroke="rgb(5,91,60)" stroke-width="1" opacity="0.9764705882352941" d="M 9.5 31 L 9.5 32 L 9.5 31 Z " /><path fill="rgb(5,91,60)" stroke="rgb(5,91,60)" stroke-width="1" opacity="0.9764705882352941" d="M 38.5 31 L 38.5 32 L 38.5 31 Z " /><path fill="rgb(5,91,60)" stroke="rgb(5,91,60)" stroke-width="1" opacity="0.9764705882352941" d="M 13.5 32 L 13.5 33 L 13.5 32 Z " /><path fill="rgb(5,91,60)" stroke="rgb(5,91,60)" stroke-width="1" opacity="0.9764705882352941" d="M 34.5 32 L 34.5 33 L 34.5 32 Z " /><path fill="rgb(5,91,60)" stroke="rgb(5,91,60)" stroke-width="1" opacity="0.9764705882352941" d="M 19.5 33 L 29 33.5 L 19.5 34 L 19.5 33 Z " /><path fill="rgb(0,101,69)" stroke="rgb(0,101,69)" stroke-width="1" opacity="0.6980392156862745" d="M 15.5 14 L 18 14.5 L 15.5 15 L 15.5 14 Z " /><path fill="rgb(0,101,69)" stroke="rgb(0,101,69)" stroke-width="1" opacity="0.6980392156862745" d="M 29.5 14 L 33 14.5 L 29.5 15 L 29.5 14 Z " /><path fill="rgb(0,101,69)" stroke="rgb(0,101,69)" stroke-width="1" opacity="0.6980392156862745" d="M 11.5 15 L 11.5 16 L 11.5 15 Z " /><path fill="rgb(0,101,69)" stroke="rgb(0,101,69)" stroke-width="1" opacity="0.6980392156862745" d="M 36.5 15 L 36.5 16 L 36.5 15 Z " /><path fill="rgb(0,101,69)" stroke="rgb(0,101,69)" stroke-width="1" opacity="0.6980392156862745" d="M 8.5 16 L 8.5 17 L 8.5 16 Z " /><path fill="rgb(0,101,69)" stroke="rgb(0,101,69)" stroke-width="1" opacity="0.6980392156862745" d="M 39.5 16 L 39.5 17 L 39.5 16 Z " /><path fill="rgb(0,101,69)" stroke="rgb(0,101,69)" stroke-width="1" opacity="0.6980392156862745" d="M 6.5 17 L 6.5 18 L 6.5 17 Z " /><path fill="rgb(0,101,69)" stroke="rgb(0,101,69)" stroke-width="1" opacity="0.6980392156862745" d="M 41.5 17 L 41.5 18 L 41.5 17 Z " /><path fill="rgb(0,101,69)" stroke="rgb(0,101,69)" stroke-width="1" opacity="0.6980392156862745" d="M 4.5 18 L 4.5 19 L 4.5 18 Z " /><path fill="rgb(0,101,69)" stroke="rgb(0,101,69)" stroke-width="1" opacity="0.6980392156862745" d="M 43.5 18 L 43.5 19 L 43.5 18 Z " /><path fill="rgb(0,101,69)" stroke="rgb(0,101,69)" stroke-width="1" opacity="0.6980392156862745" d="M 1.5 21 L 1.5 22 L 1.5 21 Z " /><path fill="rgb(0,101,69)" stroke="rgb(0,101,69)" stroke-width="1" opacity="0.6980392156862745" d="M 0.5 23 L 1 24.5 L 0 24.5 L 0.5 23 Z " /><path fill="rgb(0,101,69)" stroke="rgb(0,101,69)" stroke-width="1" opacity="0.6980392156862745" d="M 47.5 23 L 48 24.5 L 47 24.5 L 47.5 23 Z " /><path fill="rgb(0,101,69)" stroke="rgb(0,101,69)" stroke-width="1" opacity="0.6980392156862745" d="M 1.5 26 L 1.5 27 L 1.5 26 Z " /><path fill="rgb(0,101,69)" stroke="rgb(0,101,69)" stroke-width="1" opacity="0.6980392156862745" d="M 4.5 29 L 4.5 30 L 4.5 29 Z " /><path fill="rgb(0,101,69)" stroke="rgb(0,101,69)" stroke-width="1" opacity="0.6980392156862745" d="M 8.5 31 L 8.5 32 L 8.5 31 Z " /><path fill="rgb(0,101,69)" stroke="rgb(0,101,69)" stroke-width="1" opacity="0.6980392156862745" d="M 39.5 31 L 39.5 32 L 39.5 31 Z " /><path fill="rgb(0,101,69)" stroke="rgb(0,101,69)" stroke-width="1" opacity="0.6980392156862745" d="M 11.5 32 L 11.5 33 L 11.5 32 Z " /><path fill="rgb(0,101,69)" stroke="rgb(0,101,69)" stroke-width="1" opacity="0.6980392156862745" d="M 36.5 32 L 36.5 33 L 36.5 32 Z " /><path fill="rgb(0,101,69)" stroke="rgb(0,101,69)" stroke-width="1" opacity="0.6980392156862745" d="M 15.5 33 L 17 33.5 L 15.5 34 L 15.5 33 Z " /><path fill="rgb(0,101,69)" stroke="rgb(0,101,69)" stroke-width="1" opacity="0.6980392156862745" d="M 31.5 33 L 33 33.5 L 31.5 34 L 31.5 33 Z " /><path fill="rgb(11,95,67)" stroke="rgb(11,95,67)" stroke-width="1" opacity="0.12941176470588237" d="M 17.5 13 L 32 13.5 L 17.5 14 L 17.5 13 Z " /><path fill="rgb(11,95,67)" stroke="rgb(11,95,67)" stroke-width="1" opacity="0.12941176470588237" d="M 11.5 14 L 14 14.5 L 11.5 15 L 11.5 14 Z " /><path fill="rgb(11,95,67)" stroke="rgb(11,95,67)" stroke-width="1" opacity="0.12941176470588237" d="M 34.5 14 L 37 14.5 L 34.5 15 L 34.5 14 Z " /><path fill="rgb(11,95,67)" stroke="rgb(11,95,67)" stroke-width="1" opacity="0.12941176470588237" d="M 8.5 15 L 10 15.5 L 8.5 16 L 8.5 15 Z " /><path fill="rgb(11,95,67)" stroke="rgb(11,95,67)" stroke-width="1" opacity="0.12941176470588237" d="M 38.5 15 L 40 15.5 L 38.5 16 L 38.5 15 Z " /><path fill="rgb(11,95,67)" stroke="rgb(11,95,67)" stroke-width="1" opacity="0.12941176470588237" d="M 6.5 16 L 6.5 17 L 6.5 16 Z " /><path fill="rgb(11,95,67)" stroke="rgb(11,95,67)" stroke-width="1" opacity="0.12941176470588237" d="M 41.5 16 L 41.5 17 L 41.5 16 Z " /><path fill="rgb(11,95,67)" stroke="rgb(11,95,67)" stroke-width="1" opacity="0.12941176470588237" d="M 4.5 17 Q 6 18 3.5 19 Q 2 18 4.5 17 Z " /><path fill="rgb(11,95,67)" stroke="rgb(11,95,67)" stroke-width="1" opacity="0.12941176470588237" d="M 43.5 17 Q 46 18 44.5 19 Q 42 18 43.5 17 Z " /><path fill="rgb(11,95,67)" stroke="rgb(11,95,67)" stroke-width="1" opacity="0.12941176470588237" d="M 1.5 20 Q 3 21 0.5 22 Q -1 21 1.5 20 Z " /><path fill="rgb(11,95,67)" stroke="rgb(11,95,67)" stroke-width="1" opacity="0.12941176470588237" d="M 47.5 21 L 47.5 22 L 47.5 21 Z " /><path fill="rgb(11,95,67)" stroke="rgb(11,95,67)" stroke-width="1" opacity="0.12941176470588237" d="M 0.5 26 L 0.5 27 L 0.5 26 Z " /><path fill="rgb(11,95,67)" stroke="rgb(11,95,67)" stroke-width="1" opacity="0.12941176470588237" d="M 47.5 26 L 47.5 27 L 47.5 26 Z " /><path fill="rgb(11,95,67)" stroke="rgb(11,95,67)" stroke-width="1" opacity="0.12941176470588237" d="M 46.5 28 L 46.5 29 L 46.5 28 Z " /><path fill="rgb(11,95,67)" stroke="rgb(11,95,67)" stroke-width="1" opacity="0.12941176470588237" d="M 4.5 30 L 4.5 31 L 4.5 30 Z " /><path fill="rgb(11,95,67)" stroke="rgb(11,95,67)" stroke-width="1" opacity="0.12941176470588237" d="M 43.5 30 L 43.5 31 L 43.5 30 Z " /><path fill="rgb(11,95,67)" stroke="rgb(11,95,67)" stroke-width="1" opacity="0.12941176470588237" d="M 6.5 31 L 6.5 32 L 6.5 31 Z " /><path fill="rgb(11,95,67)" stroke="rgb(11,95,67)" stroke-width="1" opacity="0.12941176470588237" d="M 41.5 31 L 41.5 32 L 41.5 31 Z " /><path fill="rgb(11,95,67)" stroke="rgb(11,95,67)" stroke-width="1" opacity="0.12941176470588237" d="M 8.5 32 L 8.5 33 L 8.5 32 Z " /><path fill="rgb(11,95,67)" stroke="rgb(11,95,67)" stroke-width="1" opacity="0.12941176470588237" d="M 39.5 32 L 39.5 33 L 39.5 32 Z " /><path fill="rgb(11,95,67)" stroke="rgb(11,95,67)" stroke-width="1" opacity="0.12941176470588237" d="M 11.5 33 L 13 33.5 L 11.5 34 L 11.5 33 Z " /><path fill="rgb(11,95,67)" stroke="rgb(11,95,67)" stroke-width="1" opacity="0.12941176470588237" d="M 35.5 33 L 37 33.5 L 35.5 34 L 35.5 33 Z " /><path fill="rgb(11,95,67)" stroke="rgb(11,95,67)" stroke-width="1" opacity="0.12941176470588237" d="M 16.5 34 L 19 34.5 L 16.5 35 L 16.5 34 Z " /><path fill="rgb(11,95,67)" stroke="rgb(11,95,67)" stroke-width="1" opacity="0.12941176470588237" d="M 29.5 34 L 32 34.5 L 29.5 35 L 29.5 34 Z " /><path fill="rgb(1,98,66)" stroke="rgb(1,98,66)" stroke-width="1" opacity="1" d="M 31.5 18 L 33 18.5 L 31.5 19 L 31.5 18 Z " /><path fill="rgb(1,98,66)" stroke="rgb(1,98,66)" stroke-width="1" opacity="1" d="M 11.5 19 L 11.5 20 L 11.5 19 Z " /><path fill="rgb(1,98,66)" stroke="rgb(1,98,66)" stroke-width="1" opacity="1" d="M 40.5 19 L 40.5 20 L 40.5 19 Z " /><path fill="rgb(1,98,66)" stroke="rgb(1,98,66)" stroke-width="1" opacity="1" d="M 15.5 21 L 15.5 22 L 15.5 21 Z " /><path fill="rgb(1,98,66)" stroke="rgb(1,98,66)" stroke-width="1" opacity="1" d="M 25.5 21 L 25.5 22 L 25.5 21 Z " /><path fill="rgb(1,98,66)" stroke="rgb(1,98,66)" stroke-width="1" opacity="1" d="M 29.5 21 L 30 25.5 L 29 25.5 L 28.5 23 L 26.5 26 L 27 24.5 L 29.5 21 Z " /><path fill="rgb(1,98,66)" stroke="rgb(1,98,66)" stroke-width="1" opacity="1" d="M 37.5 21 L 38 22.5 Q 37 25 36 23.5 L 37.5 21 Z " /><path fill="rgb(1,98,66)" stroke="rgb(1,98,66)" stroke-width="1" opacity="1" d="M 43.5 21 L 43.5 22 L 43.5 21 Z " /><path fill="rgb(1,98,66)" stroke="rgb(1,98,66)" stroke-width="1" opacity="1" d="M 13.5 22 L 13.5 23 L 13.5 22 Z " /><path fill="rgb(1,98,66)" stroke="rgb(1,98,66)" stroke-width="1" opacity="1" d="M 19.5 23 L 19.5 24 L 19.5 23 Z " /><path fill="rgb(1,98,66)" stroke="rgb(1,98,66)" stroke-width="1" opacity="1" d="M 12.5 24 Q 15 25 13.5 26 Q 11 25 12.5 24 Z " /><path fill="rgb(1,98,66)" stroke="rgb(1,98,66)" stroke-width="1" opacity="1" d="M 24.5 24 L 24.5 25 L 24.5 24 Z " /><path fill="rgb(1,98,66)" stroke="rgb(1,98,66)" stroke-width="1" opacity="1" d="M 33.5 24 Q 36 25 34.5 26 Q 31.71 26.67 33.5 24 Z " /><path fill="rgb(1,98,66)" stroke="rgb(1,98,66)" stroke-width="1" opacity="1" d="M 16.5 25 L 16.5 26 L 16.5 25 Z " /><path fill="rgb(1,98,66)" stroke="rgb(1,98,66)" stroke-width="1" opacity="1" d="M 43.5 25 Q 45 26 42.5 27 Q 41 26 43.5 25 Z " /><path fill="rgb(1,98,66)" stroke="rgb(1,98,66)" stroke-width="1" opacity="1" d="M 4.5 26 L 4.5 27 L 4.5 26 Z " /><path fill="rgb(1,98,66)" stroke="rgb(1,98,66)" stroke-width="1" opacity="1" d="M 19.5 27 L 19.5 28 L 19.5 27 Z " /><path fill="rgb(1,98,66)" stroke="rgb(1,98,66)" stroke-width="1" opacity="1" d="M 37.5 27 Q 40 28 38.5 29 Q 36 28 37.5 27 Z " /><path fill="rgb(1,98,66)" stroke="rgb(1,98,66)" stroke-width="1" opacity="1" d="M 12.5 28 L 18 28.5 L 12.5 29 L 12.5 28 Z " /><path fill="rgb(1,98,66)" stroke="rgb(1,98,66)" stroke-width="1" opacity="1" d="M 21.5 28 L 21.5 29 L 21.5 28 Z " /><path fill="rgb(1,98,66)" stroke="rgb(1,98,66)" stroke-width="1" opacity="1" d="M 24.5 28 L 24.5 29 L 24.5 28 Z " /><path fill="rgb(1,98,66)" stroke="rgb(1,98,66)" stroke-width="1" opacity="1" d="M 30.5 28 L 30.5 29 L 30.5 28 Z " /><path fill="rgb(1,98,66)" stroke="rgb(1,98,66)" stroke-width="1" opacity="1" d="M 32.5 28 L 34 28.5 L 32.5 29 L 32.5 28 Z " /><path fill="rgb(1,98,66)" stroke="rgb(1,98,66)" stroke-width="1" opacity="1" d="M 10.5 29 L 10.5 30 L 10.5 29 Z " /><path fill="rgb(1,98,66)" stroke="rgb(1,98,66)" stroke-width="1" opacity="1" d="M 35.5 29 L 35.5 30 L 35.5 29 Z " /><path fill="rgb(1,98,66)" stroke="rgb(1,98,66)" stroke-width="1" opacity="1" d="M 15.5 30 L 17 30.5 L 15.5 31 L 15.5 30 Z " /><path fill="rgb(1,98,66)" stroke="rgb(1,98,66)" stroke-width="1" opacity="1" d="M 29.5 30 L 32 30.5 L 29.5 31 L 29.5 30 Z " /><path fill="rgb(194,216,209)" stroke="rgb(194,216,209)" stroke-width="1" opacity="1" d="M 22.5 20 L 24 23.5 L 22.5 27 L 22.5 20 Z " /><path fill="rgb(194,216,209)" stroke="rgb(194,216,209)" stroke-width="1" opacity="1" d="M 27.5 20 L 27.5 21 L 27.5 20 Z " /><path fill="rgb(194,216,209)" stroke="rgb(194,216,209)" stroke-width="1" opacity="1" d="M 31.5 20 L 32 26.5 L 31 26.5 L 31.5 20 Z " /><path fill="rgb(194,216,209)" stroke="rgb(194,216,209)" stroke-width="1" opacity="1" d="M 11.5 21 L 12 25.5 L 13 26.5 L 11 27 L 10 22.5 L 11.5 21 Z " /><path fill="rgb(194,216,209)" stroke="rgb(194,216,209)" stroke-width="1" opacity="1" d="M 18.5 21 L 18.5 22 L 18.5 21 Z " /><path fill="rgb(194,216,209)" stroke="rgb(194,216,209)" stroke-width="1" opacity="1" d="M 35.5 21 L 36 22.5 Q 33.5 24 37 25.5 L 35.5 27 L 34 23.5 L 35.5 21 Z " /><path fill="rgb(194,216,209)" stroke="rgb(194,216,209)" stroke-width="1" opacity="1" d="M 25.5 23 L 25.5 24 L 25.5 23 Z " /><path fill="rgb(194,216,209)" stroke="rgb(194,216,209)" stroke-width="1" opacity="1" d="M 18.5 26 L 18.5 27 L 18.5 26 Z " /><path fill="rgb(3,88,60)" stroke="rgb(3,88,60)" stroke-width="1" opacity="0.8117647058823529" d="M 44.5 19 L 47 21.5 L 46.5 22 L 44 19.5 L 44.5 19 Z " /><path fill="rgb(3,88,60)" stroke="rgb(3,88,60)" stroke-width="1" opacity="0.8117647058823529" d="M 46.5 26 L 46.5 27 L 46.5 26 Z " /><path fill="rgb(3,88,60)" stroke="rgb(3,88,60)" stroke-width="1" opacity="0.8117647058823529" d="M 2.5 27 Q 5 28 3.5 29 Q 1 28 2.5 27 Z " /><path fill="rgb(3,88,60)" stroke="rgb(3,88,60)" stroke-width="1" opacity="0.8117647058823529" d="M 44.5 28 Q 46 29 43.5 30 Q 42 29 44.5 28 Z " /><path fill="rgb(3,88,60)" stroke="rgb(3,88,60)" stroke-width="1" opacity="0.8117647058823529" d="M 6.5 30 L 6.5 31 L 6.5 30 Z " /><path fill="rgb(3,88,60)" stroke="rgb(3,88,60)" stroke-width="1" opacity="0.8117647058823529" d="M 41.5 30 L 41.5 31 L 41.5 30 Z " /><path fill="rgb(3,88,60)" stroke="rgb(3,88,60)" stroke-width="1" opacity="0.8117647058823529" d="M 12.5 32 L 12.5 33 L 12.5 32 Z " /><path fill="rgb(3,88,60)" stroke="rgb(3,88,60)" stroke-width="1" opacity="0.8117647058823529" d="M 35.5 32 L 35.5 33 L 35.5 32 Z " /><path fill="rgb(3,88,60)" stroke="rgb(3,88,60)" stroke-width="1" opacity="0.8117647058823529" d="M 17.5 33 L 19 33.5 L 17.5 34 L 17.5 33 Z " /><path fill="rgb(3,88,60)" stroke="rgb(3,88,60)" stroke-width="1" opacity="0.8117647058823529" d="M 29.5 33 L 31 33.5 L 29.5 34 L 29.5 33 Z " /><path fill="rgb(1,95,63)" stroke="rgb(1,95,63)" stroke-width="1" opacity="1" d="M 14.5 21 L 14.5 22 L 14.5 21 Z " /><path fill="rgb(1,95,63)" stroke="rgb(1,95,63)" stroke-width="1" opacity="1" d="M 24.5 21 L 25 22.5 L 24 22.5 L 24.5 21 Z " /><path fill="rgb(1,95,63)" stroke="rgb(1,95,63)" stroke-width="1" opacity="1" d="M 33.5 21 L 33.5 22 L 33.5 21 Z " /><path fill="rgb(1,95,63)" stroke="rgb(1,95,63)" stroke-width="1" opacity="1" d="M 12.5 23 L 12.5 24 L 12.5 23 Z " /><path fill="rgb(1,95,63)" stroke="rgb(1,95,63)" stroke-width="1" opacity="1" d="M 44.5 23 L 45 24.5 L 44 24.5 L 44.5 23 Z " /><path fill="rgb(1,95,63)" stroke="rgb(1,95,63)" stroke-width="1" opacity="1" d="M 24.5 25 L 24.5 26 L 24.5 25 Z " /><path fill="rgb(1,95,63)" stroke="rgb(1,95,63)" stroke-width="1" opacity="1" d="M 37.5 26 L 37.5 27 L 37.5 26 Z " /><path fill="rgb(1,95,63)" stroke="rgb(1,95,63)" stroke-width="1" opacity="1" d="M 41.5 27 L 41.5 28 L 41.5 27 Z " /><path fill="rgb(1,95,63)" stroke="rgb(1,95,63)" stroke-width="1" opacity="1" d="M 7.5 28 L 7.5 29 L 7.5 28 Z " /><path fill="rgb(1,95,63)" stroke="rgb(1,95,63)" stroke-width="1" opacity="1" d="M 22.5 28 L 24 28.5 L 22.5 29 L 22.5 28 Z " /><path fill="rgb(1,95,63)" stroke="rgb(1,95,63)" stroke-width="1" opacity="1" d="M 31.5 28 L 31.5 29 L 31.5 28 Z " /><path fill="rgb(1,95,63)" stroke="rgb(1,95,63)" stroke-width="1" opacity="1" d="M 34.5 28 L 38 29.5 L 36.5 30 L 34 28.5 L 34.5 28 Z " /><path fill="rgb(1,95,63)" stroke="rgb(1,95,63)" stroke-width="1" opacity="1" d="M 39.5 28 L 39.5 29 L 39.5 28 Z " /><path fill="rgb(1,95,63)" stroke="rgb(1,95,63)" stroke-width="1" opacity="1" d="M 14.5 30 L 14.5 31 L 14.5 30 Z " /><path fill="rgb(1,95,63)" stroke="rgb(1,95,63)" stroke-width="1" opacity="1" d="M 32.5 30 L 34 30.5 L 32.5 31 L 32.5 30 Z " /><path fill="rgb(1,95,63)" stroke="rgb(1,95,63)" stroke-width="1" opacity="1" d="M 24.5 31 L 24.5 32 L 24.5 31 Z " /><path fill="rgb(13,93,63)" stroke="rgb(13,93,63)" stroke-width="1" opacity="0.9921568627450981" d="M 42.5 18 L 42.5 19 L 42.5 18 Z " /><path fill="rgb(13,93,63)" stroke="rgb(13,93,63)" stroke-width="1" opacity="0.9921568627450981" d="M 42.5 20 L 42.5 21 L 42.5 20 Z " /><path fill="rgb(13,93,63)" stroke="rgb(13,93,63)" stroke-width="1" opacity="0.9921568627450981" d="M 13.5 21 L 13.5 22 L 13.5 21 Z " /><path fill="rgb(13,93,63)" stroke="rgb(13,93,63)" stroke-width="1" opacity="0.9921568627450981" d="M 44.5 22 L 44.5 23 L 44.5 22 Z " /><path fill="rgb(13,93,63)" stroke="rgb(13,93,63)" stroke-width="1" opacity="0.9921568627450981" d="M 46.5 23 L 47 24.5 L 46 24.5 L 46.5 23 Z " /><path fill="rgb(13,93,63)" stroke="rgb(13,93,63)" stroke-width="1" opacity="0.9921568627450981" d="M 3.5 25 L 3.5 26 L 3.5 25 Z " /><path fill="rgb(13,93,63)" stroke="rgb(13,93,63)" stroke-width="1" opacity="0.9921568627450981" d="M 5.5 27 L 5.5 28 L 5.5 27 Z " /><path fill="rgb(13,93,63)" stroke="rgb(13,93,63)" stroke-width="1" opacity="0.9921568627450981" d="M 36.5 27 L 36.5 28 L 36.5 27 Z " /><path fill="rgb(13,93,63)" stroke="rgb(13,93,63)" stroke-width="1" opacity="0.9921568627450981" d="M 5.5 29 L 5.5 30 L 5.5 29 Z " /><path fill="rgb(13,93,63)" stroke="rgb(13,93,63)" stroke-width="1" opacity="0.9921568627450981" d="M 9.5 29 L 9.5 30 L 9.5 29 Z " /><path fill="rgb(13,93,63)" stroke="rgb(13,93,63)" stroke-width="1" opacity="0.9921568627450981" d="M 42.5 29 L 42.5 30 L 42.5 29 Z " /><path fill="rgb(13,93,63)" stroke="rgb(13,93,63)" stroke-width="1" opacity="0.9921568627450981" d="M 7.5 30 L 7.5 31 L 7.5 30 Z " /><path fill="rgb(13,93,63)" stroke="rgb(13,93,63)" stroke-width="1" opacity="0.9921568627450981" d="M 13.5 30 L 13.5 31 L 13.5 30 Z " /><path fill="rgb(13,93,63)" stroke="rgb(13,93,63)" stroke-width="1" opacity="0.9921568627450981" d="M 34.5 30 L 34.5 31 L 34.5 30 Z " /><path fill="rgb(13,93,63)" stroke="rgb(13,93,63)" stroke-width="1" opacity="0.9921568627450981" d="M 40.5 30 L 40.5 31 L 40.5 30 Z " /><path fill="rgb(13,93,63)" stroke="rgb(13,93,63)" stroke-width="1" opacity="0.9921568627450981" d="M 10.5 31 L 10.5 32 L 10.5 31 Z " /><path fill="rgb(13,93,63)" stroke="rgb(13,93,63)" stroke-width="1" opacity="0.9921568627450981" d="M 19.5 31 L 24 31.5 L 19.5 32 L 19.5 31 Z " /><path fill="rgb(13,93,63)" stroke="rgb(13,93,63)" stroke-width="1" opacity="0.9921568627450981" d="M 25.5 31 L 28 31.5 L 25.5 32 L 25.5 31 Z " /><path fill="rgb(13,93,63)" stroke="rgb(13,93,63)" stroke-width="1" opacity="0.9921568627450981" d="M 37.5 31 L 37.5 32 L 37.5 31 Z " /><path fill="rgb(13,93,63)" stroke="rgb(13,93,63)" stroke-width="1" opacity="0.9921568627450981" d="M 14.5 32 L 14.5 33 L 14.5 32 Z " /><path fill="rgb(13,93,63)" stroke="rgb(13,93,63)" stroke-width="1" opacity="0.9921568627450981" d="M 33.5 32 L 33.5 33 L 33.5 32 Z " /><path fill="rgb(0,100,67)" stroke="rgb(0,100,67)" stroke-width="1" opacity="1" d="M 15.5 18 L 18 19.5 L 16.5 19 Q 14.13 18.88 15.5 18 Z " /><path fill="rgb(0,100,67)" stroke="rgb(0,100,67)" stroke-width="1" opacity="1" d="M 21.5 18 L 28 18.5 L 21.5 19 L 21.5 18 Z " /><path fill="rgb(0,100,67)" stroke="rgb(0,100,67)" stroke-width="1" opacity="1" d="M 29.5 18 L 31 18.5 L 29.5 19 L 29.5 18 Z " /><path fill="rgb(0,100,67)" stroke="rgb(0,100,67)" stroke-width="1" opacity="1" d="M 33.5 18 L 33.5 19 L 33.5 18 Z " /><path fill="rgb(0,100,67)" stroke="rgb(0,100,67)" stroke-width="1" opacity="1" d="M 12.5 19 L 12.5 20 L 12.5 19 Z " /><path fill="rgb(0,100,67)" stroke="rgb(0,100,67)" stroke-width="1" opacity="1" d="M 36.5 19 Q 39 20 37.5 21 Q 35 20 36.5 19 Z " /><path fill="rgb(0,100,67)" stroke="rgb(0,100,67)" stroke-width="1" opacity="1" d="M 10.5 20 Q 12 21 9.5 22 Q 8 21 10.5 20 Z " /><path fill="rgb(0,100,67)" stroke="rgb(0,100,67)" stroke-width="1" opacity="1" d="M 16.5 21 L 16.5 22 L 16.5 21 Z " /><path fill="rgb(0,100,67)" stroke="rgb(0,100,67)" stroke-width="1" opacity="1" d="M 20.5 21 L 21 25.5 L 20 25.5 L 20.5 21 Z " /><path fill="rgb(0,100,67)" stroke="rgb(0,100,67)" stroke-width="1" opacity="1" d="M 5.5 22 L 5.5 23 L 5.5 22 Z " /><path fill="rgb(0,100,67)" stroke="rgb(0,100,67)" stroke-width="1" opacity="1" d="M 8.5 23 L 9 24.5 L 8 24.5 L 8.5 23 Z " /><path fill="rgb(0,100,67)" stroke="rgb(0,100,67)" stroke-width="1" opacity="1" d="M 37.5 23 L 37.5 24 L 37.5 23 Z " /><path fill="rgb(0,100,67)" stroke="rgb(0,100,67)" stroke-width="1" opacity="1" d="M 14.5 25 L 16 25.5 L 14.5 26 L 14.5 25 Z " /><path fill="rgb(0,100,67)" stroke="rgb(0,100,67)" stroke-width="1" opacity="1" d="M 38.5 25 L 38.5 26 L 38.5 25 Z " /><path fill="rgb(0,100,67)" stroke="rgb(0,100,67)" stroke-width="1" opacity="1" d="M 9.5 26 Q 12 27 10.5 28 Q 8 27 9.5 26 Z " /><path fill="rgb(0,100,67)" stroke="rgb(0,100,67)" stroke-width="1" opacity="1" d="M 6.5 27 L 6.5 28 L 6.5 27 Z " /><path fill="rgb(0,100,67)" stroke="rgb(0,100,67)" stroke-width="1" opacity="1" d="M 40.5 27 L 40.5 28 L 40.5 27 Z " /><path fill="rgb(0,100,67)" stroke="rgb(0,100,67)" stroke-width="1" opacity="1" d="M 8.5 28 L 8.5 29 L 8.5 28 Z " /><path fill="rgb(0,100,67)" stroke="rgb(0,100,67)" stroke-width="1" opacity="1" d="M 18.5 28 L 18.5 29 L 18.5 28 Z " /><path fill="rgb(0,100,67)" stroke="rgb(0,100,67)" stroke-width="1" opacity="1" d="M 25.5 28 L 25.5 29 L 25.5 28 Z " /><path fill="rgb(0,100,67)" stroke="rgb(0,100,67)" stroke-width="1" opacity="1" d="M 11.5 29 L 11.5 30 L 11.5 29 Z " /><path fill="rgb(0,100,67)" stroke="rgb(0,100,67)" stroke-width="1" opacity="1" d="M 17.5 30 L 19 30.5 L 17.5 31 L 17.5 30 Z " /><path fill="rgb(0,100,67)" stroke="rgb(0,100,67)" stroke-width="1" opacity="1" d="M 27.5 30 L 29 30.5 L 27.5 31 L 27.5 30 Z " /><path fill="rgb(62,133,110)" stroke="rgb(62,133,110)" stroke-width="1" opacity="1" d="M 14.5 20 Q 18.88 18.5 18 21.5 L 16.5 21 Q 13.5 21.5 14.5 20 Z " /><path fill="rgb(62,133,110)" stroke="rgb(62,133,110)" stroke-width="1" opacity="1" d="M 21.5 20 L 21.5 21 L 21.5 20 Z " /><path fill="rgb(62,133,110)" stroke="rgb(62,133,110)" stroke-width="1" opacity="1" d="M 24.5 20 L 26 20.5 L 24.5 21 L 24.5 20 Z " /><path fill="rgb(62,133,110)" stroke="rgb(62,133,110)" stroke-width="1" opacity="1" d="M 33.5 20 L 33 21.5 L 32.5 23 L 32 21.5 L 33.5 20 Z " /><path fill="rgb(62,133,110)" stroke="rgb(62,133,110)" stroke-width="1" opacity="1" d="M 10.5 21 L 10.5 22 L 10.5 21 Z " /><path fill="rgb(62,133,110)" stroke="rgb(62,133,110)" stroke-width="1" opacity="1" d="M 30.5 21 L 31 25.5 L 30 25.5 L 30.5 21 Z " /><path fill="rgb(62,133,110)" stroke="rgb(62,133,110)" stroke-width="1" opacity="1" d="M 25.5 22 L 25.5 25 Q 22.5 23.5 25.5 22 Z " /><path fill="rgb(62,133,110)" stroke="rgb(62,133,110)" stroke-width="1" opacity="1" d="M 34.5 22 L 34.5 23 L 34.5 22 Z " /><path fill="rgb(62,133,110)" stroke="rgb(62,133,110)" stroke-width="1" opacity="1" d="M 32.5 24 L 34 27.5 Q 33 29 32 26.5 L 32.5 24 Z " /><path fill="rgb(62,133,110)" stroke="rgb(62,133,110)" stroke-width="1" opacity="1" d="M 13.5 26 L 17 27.5 L 14.5 28 L 13.5 27 L 12 27.5 L 13.5 26 Z " /><path fill="rgb(62,133,110)" stroke="rgb(62,133,110)" stroke-width="1" opacity="1" d="M 21.5 27 L 21.5 28 L 21.5 27 Z " /><path fill="rgb(62,133,110)" stroke="rgb(62,133,110)" stroke-width="1" opacity="1" d="M 24.5 27 L 24.5 28 L 24.5 27 Z " /><path fill="rgb(62,133,110)" stroke="rgb(62,133,110)" stroke-width="1" opacity="1" d="M 35.5 27 L 35.5 28 L 35.5 27 Z " /><path fill="rgb(108,159,143)" stroke="rgb(108,159,143)" stroke-width="1" opacity="1" d="M 12 20 L 14 20.5 Q 13 23 12 21.5 L 12 20 Z " /><path fill="rgb(108,159,143)" stroke="rgb(108,159,143)" stroke-width="1" opacity="1" d="M 18.5 20 L 18.5 21 L 18.5 20 Z " /><path fill="rgb(108,159,143)" stroke="rgb(108,159,143)" stroke-width="1" opacity="1" d="M 23.5 20 L 24 22.5 L 23 22.5 L 23.5 20 Z " /><path fill="rgb(108,159,143)" stroke="rgb(108,159,143)" stroke-width="1" opacity="1" d="M 26.5 20 Q 29 21 27.5 22 Q 25 21 26.5 20 Z " /><path fill="rgb(108,159,143)" stroke="rgb(108,159,143)" stroke-width="1" opacity="1" d="M 30.5 20 L 30.5 21 L 30.5 20 Z " /><path fill="rgb(108,159,143)" stroke="rgb(108,159,143)" stroke-width="1" opacity="1" d="M 32.5 20 L 32.5 21 L 32.5 20 Z " /><path fill="rgb(108,159,143)" stroke="rgb(108,159,143)" stroke-width="1" opacity="1" d="M 34.5 20 L 37 21.5 L 35.5 21 Q 33.12 20.87 34.5 20 Z " /><path fill="rgb(108,159,143)" stroke="rgb(108,159,143)" stroke-width="1" opacity="1" d="M 18.5 22 L 18.5 23 L 18.5 22 Z " /><path fill="rgb(108,159,143)" stroke="rgb(108,159,143)" stroke-width="1" opacity="1" d="M 32.5 23 L 34 23.5 L 32.5 24 L 32.5 23 Z " /><path fill="rgb(108,159,143)" stroke="rgb(108,159,143)" stroke-width="1" opacity="1" d="M 35.5 23 Q 38 24 36.5 25 Q 34 24 35.5 23 Z " /><path fill="rgb(108,159,143)" stroke="rgb(108,159,143)" stroke-width="1" opacity="1" d="M 23.5 24 L 24 28 L 22 27.5 L 23.5 24 Z " /><path fill="rgb(108,159,143)" stroke="rgb(108,159,143)" stroke-width="1" opacity="1" d="M 10.5 25 L 10.5 26 L 10.5 25 Z " /><path fill="rgb(108,159,143)" stroke="rgb(108,159,143)" stroke-width="1" opacity="1" d="M 18.5 25 Q 20 26 17.5 27 Q 16 26 18.5 25 Z " /><path fill="rgb(108,159,143)" stroke="rgb(108,159,143)" stroke-width="1" opacity="1" d="M 30.5 26 L 33 27.5 L 30 28 L 30.5 26 Z " /><path fill="rgb(108,159,143)" stroke="rgb(108,159,143)" stroke-width="1" opacity="1" d="M 36.5 26 L 36.5 27 L 36.5 26 Z " /><path fill="rgb(108,159,143)" stroke="rgb(108,159,143)" stroke-width="1" opacity="1" d="M 13.5 27 L 13.5 28 L 13.5 27 Z " /><path fill="rgb(108,159,143)" stroke="rgb(108,159,143)" stroke-width="1" opacity="1" d="M 34.5 27 L 34.5 28 L 34.5 27 Z " /><path fill="rgb(0,101,68)" stroke="rgb(0,101,68)" stroke-width="1" opacity="1" d="M 17 17 L 33.5 17 L 41.5 20 L 44 22.5 Q 44.5 26.5 41.5 27 L 36.5 29 L 36.5 28 Q 38.75 28.75 38 26.5 L 38.5 25 L 37 24.5 Q 38.75 23.75 38 20.5 Q 36.75 17.75 35.5 20 L 33.5 18 L 29 18 L 29 19.5 L 28 19.5 L 27.5 18 L 21.5 18 L 18.5 20 L 17 17 Z " /><path fill="rgb(0,101,68)" stroke="rgb(0,101,68)" stroke-width="1" opacity="1" d="M 13.5 18 L 15 18.5 L 13.5 19 L 13.5 18 Z " /><path fill="rgb(0,101,68)" stroke="rgb(0,101,68)" stroke-width="1" opacity="1" d="M 9.5 19 L 11 19.5 Q 8.15 21.35 8 25 L 10 25.5 Q 7.75 26.75 10.5 28 Q 13 30 18.5 29 L 20.5 28 L 21.5 29 L 26 29 L 25 26.5 L 28 24.5 L 28.5 23 L 30 26.5 Q 27.75 27.75 30.5 29 L 35 29.5 L 27.5 30 L 26.5 31 L 19.5 31 L 18.5 30 L 12.5 30 L 9.5 29 L 3 24.5 L 6 23 L 7.5 20 L 9.5 19 Z " /><path fill="rgb(0,101,68)" stroke="rgb(0,101,68)" stroke-width="1" opacity="1" d="M 14.5 22 Q 19.75 20.5 18 25 L 13 25 L 13 23.5 L 14.5 22 Z " /><path fill="rgb(0,101,68)" stroke="rgb(0,101,68)" stroke-width="1" opacity="1" d="M 33.5 22 L 33.5 23 L 33.5 22 Z " /><path fill="rgb(0,101,68)" stroke="rgb(0,101,68)" stroke-width="1" opacity="1" d="M 20.5 26 L 20.5 27 L 20.5 26 Z " /><path fill="rgb(17,85,63)" stroke="rgb(17,85,63)" stroke-width="1" opacity="0.21568627450980393" d="M 37.5 15 L 37.5 16 L 37.5 15 Z " /><path fill="rgb(17,85,63)" stroke="rgb(17,85,63)" stroke-width="1" opacity="0.21568627450980393" d="M 40.5 16 L 40.5 17 L 40.5 16 Z " /><path fill="rgb(17,85,63)" stroke="rgb(17,85,63)" stroke-width="1" opacity="0.21568627450980393" d="M 2.5 19 L 2.5 20 L 2.5 19 Z " /><path fill="rgb(17,85,63)" stroke="rgb(17,85,63)" stroke-width="1" opacity="0.21568627450980393" d="M 3.5 29 L 3.5 30 L 3.5 29 Z " /><path fill="rgb(17,85,63)" stroke="rgb(17,85,63)" stroke-width="1" opacity="0.21568627450980393" d="M 9.5 32 L 9.5 33 L 9.5 32 Z " /><path fill="rgb(17,85,63)" stroke="rgb(17,85,63)" stroke-width="1" opacity="0.21568627450980393" d="M 13.5 33 L 13.5 34 L 13.5 33 Z " /><path fill="rgb(17,85,63)" stroke="rgb(17,85,63)" stroke-width="1" opacity="0.21568627450980393" d="M 19.5 34 L 22 34.5 L 19.5 35 L 19.5 34 Z " /><path fill="rgb(41,97,65)" stroke="rgb(41,97,65)" stroke-width="1" opacity="1" d="M 39.5 18 L 39.5 19 L 39.5 18 Z " /><path fill="rgb(41,97,65)" stroke="rgb(41,97,65)" stroke-width="1" opacity="1" d="M 41.5 19 L 41.5 20 L 41.5 19 Z " /><path fill="rgb(41,97,65)" stroke="rgb(41,97,65)" stroke-width="1" opacity="1" d="M 44.5 20 L 44.5 21 L 44.5 20 Z " /><path fill="rgb(41,97,65)" stroke="rgb(41,97,65)" stroke-width="1" opacity="1" d="M 2.5 26 L 2.5 27 L 2.5 26 Z " /><path fill="rgb(41,97,65)" stroke="rgb(41,97,65)" stroke-width="1" opacity="1" d="M 4.5 28 L 4.5 29 L 4.5 28 Z " /><path fill="rgb(41,97,65)" stroke="rgb(41,97,65)" stroke-width="1" opacity="1" d="M 6.5 28 L 7 29.5 L 6 29.5 L 6.5 28 Z " /><path fill="rgb(41,97,65)" stroke="rgb(41,97,65)" stroke-width="1" opacity="1" d="M 43.5 28 L 43.5 29 L 43.5 28 Z " /><path fill="rgb(41,97,65)" stroke="rgb(41,97,65)" stroke-width="1" opacity="1" d="M 8.5 29 L 9 30.5 L 8 30.5 L 8.5 29 Z " /><path fill="rgb(41,97,65)" stroke="rgb(41,97,65)" stroke-width="1" opacity="1" d="M 11.5 30 L 12 31.5 L 11 31.5 L 11.5 30 Z " /><path fill="rgb(41,97,65)" stroke="rgb(41,97,65)" stroke-width="1" opacity="1" d="M 16 31 L 18 31.5 Q 17 34 16 32.5 L 16 31 Z " /><path fill="rgb(41,97,65)" stroke="rgb(41,97,65)" stroke-width="1" opacity="1" d="M 30.5 31 Q 33 32 31.5 33 Q 29 32 30.5 31 Z " /><path fill="rgb(63,99,66)" stroke="rgb(63,99,66)" stroke-width="1" opacity="1" d="M 33.5 16 L 33.5 17 L 33.5 16 Z " /><path fill="rgb(63,99,66)" stroke="rgb(63,99,66)" stroke-width="1" opacity="1" d="M 37.5 17 L 39 17.5 L 37.5 18 L 37.5 17 Z " /><path fill="rgb(63,99,66)" stroke="rgb(63,99,66)" stroke-width="1" opacity="1" d="M 40.5 18 L 40.5 19 L 40.5 18 Z " /><path fill="rgb(63,99,66)" stroke="rgb(63,99,66)" stroke-width="1" opacity="1" d="M 42.5 19 L 46 23.5 L 45 23.5 L 42 19.5 L 42.5 19 Z " /><path fill="rgb(63,99,66)" stroke="rgb(63,99,66)" stroke-width="1" opacity="1" d="M 2.5 24 L 6 28.5 L 5.5 29 L 2 25.5 L 2.5 24 Z " /><path fill="rgb(63,99,66)" stroke="rgb(63,99,66)" stroke-width="1" opacity="1" d="M 7.5 29 L 7.5 30 L 7.5 29 Z " /><path fill="rgb(63,99,66)" stroke="rgb(63,99,66)" stroke-width="1" opacity="1" d="M 9.5 30 L 11 30.5 L 9.5 31 L 9.5 30 Z " /><path fill="rgb(63,99,66)" stroke="rgb(63,99,66)" stroke-width="1" opacity="1" d="M 12.5 31 L 16 31.5 L 12.5 32 L 12.5 31 Z " /><path fill="rgb(63,99,66)" stroke="rgb(63,99,66)" stroke-width="1" opacity="1" d="M 18.5 32 L 21 32.5 L 18.5 33 L 18.5 32 Z " /><path fill="rgb(63,99,66)" stroke="rgb(63,99,66)" stroke-width="1" opacity="1" d="M 22.5 32 L 22.5 33 L 22.5 32 Z " /><path fill="rgb(63,99,66)" stroke="rgb(63,99,66)" stroke-width="1" opacity="1" d="M 25.5 32 L 25.5 33 L 25.5 32 Z " /><path fill="rgb(63,99,66)" stroke="rgb(63,99,66)" stroke-width="1" opacity="1" d="M 29.5 32 L 29.5 33 L 29.5 32 Z " /><path fill="rgb(68,110,80)" stroke="rgb(68,110,80)" stroke-width="1" opacity="1" d="M 18.5 15 L 31 15.5 L 18.5 16 L 18.5 15 Z " /><path fill="rgb(68,110,80)" stroke="rgb(68,110,80)" stroke-width="1" opacity="1" d="M 13.5 16 L 16 16.5 L 13.5 17 L 13.5 16 Z " /><path fill="rgb(68,110,80)" stroke="rgb(68,110,80)" stroke-width="1" opacity="1" d="M 34.5 16 L 34.5 17 L 34.5 16 Z " /><path fill="rgb(68,110,80)" stroke="rgb(68,110,80)" stroke-width="1" opacity="1" d="M 2.5 23 L 2.5 24 L 2.5 23 Z " /><path fill="rgb(68,110,80)" stroke="rgb(68,110,80)" stroke-width="1" opacity="1" d="M 45.5 24 L 46 25.5 L 45 25.5 L 45.5 24 Z " /><path fill="rgb(68,110,80)" stroke="rgb(68,110,80)" stroke-width="1" opacity="1" d="M 41.5 28 L 43 28.5 Q 39.25 31.75 32.5 32 L 32.5 31 L 35.5 31 L 41.5 28 Z " /><path fill="rgb(68,110,80)" stroke="rgb(68,110,80)" stroke-width="1" opacity="1" d="M 26.5 32 L 29 32.5 L 26.5 33 L 26.5 32 Z " /><path fill="rgb(28,98,68)" stroke="rgb(28,98,68)" stroke-width="1" opacity="1" d="M 32.5 15 L 32.5 16 L 32.5 15 Z " /><path fill="rgb(28,98,68)" stroke="rgb(28,98,68)" stroke-width="1" opacity="1" d="M 30.5 16 L 30.5 17 L 30.5 16 Z " /><path fill="rgb(28,98,68)" stroke="rgb(28,98,68)" stroke-width="1" opacity="1" d="M 35.5 17 L 35.5 18 L 35.5 17 Z " /><path fill="rgb(28,98,68)" stroke="rgb(28,98,68)" stroke-width="1" opacity="1" d="M 38.5 18 L 38.5 19 L 38.5 18 Z " /><path fill="rgb(28,98,68)" stroke="rgb(28,98,68)" stroke-width="1" opacity="1" d="M 43.5 19 L 43.5 20 L 43.5 19 Z " /><path fill="rgb(28,98,68)" stroke="rgb(28,98,68)" stroke-width="1" opacity="1" d="M 45.5 21 L 45.5 22 L 45.5 21 Z " /><path fill="rgb(28,98,68)" stroke="rgb(28,98,68)" stroke-width="1" opacity="1" d="M 44.5 25 Q 47 26 45.5 27 L 44.5 26 L 42.5 28 L 42 27.5 L 44.5 25 Z " /><path fill="rgb(28,98,68)" stroke="rgb(28,98,68)" stroke-width="1" opacity="1" d="M 40.5 28 L 40.5 29 L 40.5 28 Z " /><path fill="rgb(28,98,68)" stroke="rgb(28,98,68)" stroke-width="1" opacity="1" d="M 38.5 29 L 38.5 30 L 38.5 29 Z " /><path fill="rgb(28,98,68)" stroke="rgb(28,98,68)" stroke-width="1" opacity="1" d="M 12.5 30 L 12.5 31 L 12.5 30 Z " /><path fill="rgb(28,98,68)" stroke="rgb(28,98,68)" stroke-width="1" opacity="1" d="M 35.5 30 L 35.5 31 L 35.5 30 Z " /><path fill="rgb(28,98,68)" stroke="rgb(28,98,68)" stroke-width="1" opacity="1" d="M 18.5 31 L 18.5 32 L 18.5 31 Z " /><path fill="rgb(28,98,68)" stroke="rgb(28,98,68)" stroke-width="1" opacity="1" d="M 28.5 31 L 30 31.5 L 28.5 32 L 28.5 31 Z " /><path fill="rgb(28,98,68)" stroke="rgb(28,98,68)" stroke-width="1" opacity="1" d="M 15.5 32 L 15.5 33 L 15.5 32 Z " /><path fill="rgb(28,98,68)" stroke="rgb(28,98,68)" stroke-width="1" opacity="1" d="M 32.5 32 L 32.5 33 L 32.5 32 Z " /><path fill="rgb(2,85,57)" stroke="rgb(2,85,57)" stroke-width="1" opacity="0.2784313725490196" d="M 14.5 14 L 14.5 15 L 14.5 14 Z " /><path fill="rgb(2,85,57)" stroke="rgb(2,85,57)" stroke-width="1" opacity="0.2784313725490196" d="M 33.5 14 L 33.5 15 L 33.5 14 Z " /><path fill="rgb(2,85,57)" stroke="rgb(2,85,57)" stroke-width="1" opacity="0.2784313725490196" d="M 10.5 15 L 10.5 16 L 10.5 15 Z " /><path fill="rgb(2,85,57)" stroke="rgb(2,85,57)" stroke-width="1" opacity="0.2784313725490196" d="M 7.5 16 L 7.5 17 L 7.5 16 Z " /><path fill="rgb(2,85,57)" stroke="rgb(2,85,57)" stroke-width="1" opacity="0.2784313725490196" d="M 5.5 17 L 5.5 18 L 5.5 17 Z " /><path fill="rgb(2,85,57)" stroke="rgb(2,85,57)" stroke-width="1" opacity="0.2784313725490196" d="M 42.5 17 L 42.5 18 L 42.5 17 Z " /><path fill="rgb(2,85,57)" stroke="rgb(2,85,57)" stroke-width="1" opacity="0.2784313725490196" d="M 45.5 19 Q 48 20 46.5 21 Q 44 20 45.5 19 Z " /><path fill="rgb(2,85,57)" stroke="rgb(2,85,57)" stroke-width="1" opacity="0.2784313725490196" d="M 0.5 22 L 0.5 23 L 0.5 22 Z " /><path fill="rgb(2,85,57)" stroke="rgb(2,85,57)" stroke-width="1" opacity="0.2784313725490196" d="M 47.5 22 L 47.5 23 L 47.5 22 Z " /><path fill="rgb(2,85,57)" stroke="rgb(2,85,57)" stroke-width="1" opacity="0.2784313725490196" d="M 0.5 25 L 0.5 26 L 0.5 25 Z " /><path fill="rgb(2,85,57)" stroke="rgb(2,85,57)" stroke-width="1" opacity="0.2784313725490196" d="M 47.5 25 L 47.5 26 L 47.5 25 Z " /><path fill="rgb(2,85,57)" stroke="rgb(2,85,57)" stroke-width="1" opacity="0.2784313725490196" d="M 1.5 27 Q 4 28 2.5 29 Q 0 28 1.5 27 Z " /><path fill="rgb(2,85,57)" stroke="rgb(2,85,57)" stroke-width="1" opacity="0.2784313725490196" d="M 46.5 27 L 47 27.5 L 44.5 30 L 44 29.5 L 46.5 27 Z " /><path fill="rgb(2,85,57)" stroke="rgb(2,85,57)" stroke-width="1" opacity="0.2784313725490196" d="M 5.5 30 L 5.5 31 L 5.5 30 Z " /><path fill="rgb(2,85,57)" stroke="rgb(2,85,57)" stroke-width="1" opacity="0.2784313725490196" d="M 42.5 30 L 42.5 31 L 42.5 30 Z " /><path fill="rgb(2,85,57)" stroke="rgb(2,85,57)" stroke-width="1" opacity="0.2784313725490196" d="M 7.5 31 L 7.5 32 L 7.5 31 Z " /><path fill="rgb(2,85,57)" stroke="rgb(2,85,57)" stroke-width="1" opacity="0.2784313725490196" d="M 40.5 31 L 40.5 32 L 40.5 31 Z " /><path fill="rgb(2,85,57)" stroke="rgb(2,85,57)" stroke-width="1" opacity="0.2784313725490196" d="M 10.5 32 L 10.5 33 L 10.5 32 Z " /><path fill="rgb(2,85,57)" stroke="rgb(2,85,57)" stroke-width="1" opacity="0.2784313725490196" d="M 37.5 32 L 39 32.5 L 37.5 33 L 37.5 32 Z " /><path fill="rgb(2,85,57)" stroke="rgb(2,85,57)" stroke-width="1" opacity="0.2784313725490196" d="M 14.5 33 L 14.5 34 L 14.5 33 Z " /><path fill="rgb(2,85,57)" stroke="rgb(2,85,57)" stroke-width="1" opacity="0.2784313725490196" d="M 33.5 33 L 35 33.5 L 33.5 34 L 33.5 33 Z " /><path fill="rgb(2,85,57)" stroke="rgb(2,85,57)" stroke-width="1" opacity="0.2784313725490196" d="M 22.5 34 L 29 34.5 L 22.5 35 L 22.5 34 Z " /></svg>