<svg width="16" height="16" version="1.1" xmlns="http://www.w3.org/2000/svg" desc="Created with imagetracer.js version 1.2.6" ><path fill="rgb(246,179,187)" stroke="rgb(246,179,187)" stroke-width="1" opacity="1" d="M 7.5 1 L 16 1.5 L 7.5 2 L 7.5 1 Z " /><path fill="rgb(246,179,187)" stroke="rgb(246,179,187)" stroke-width="1" opacity="1" d="M 0.5 14 L 0.5 15 L 0.5 14 Z " /><path fill="rgb(246,179,187)" stroke="rgb(246,179,187)" stroke-width="1" opacity="1" d="M 15.5 14 L 15.5 15 L 15.5 14 Z " /><path fill="rgb(64,64,136)" stroke="rgb(64,64,136)" stroke-width="1" opacity="1" d="M 0.5 0 L 0.5 1 L 0.5 0 Z " /><path fill="rgb(45,45,129)" stroke="rgb(45,45,129)" stroke-width="1" opacity="1" d="M 1.5 1 L 6 2.5 L 1 3 L 1.5 1 Z " /><path fill="rgb(45,45,129)" stroke="rgb(45,45,129)" stroke-width="1" opacity="1" d="M 1.5 4 L 5 4.5 L 1.5 5 L 1.5 4 Z " /><path fill="rgb(45,45,129)" stroke="rgb(45,45,129)" stroke-width="1" opacity="1" d="M 5.5 7 L 5.5 8 L 5.5 7 Z " /><path fill="rgb(243,142,154)" stroke="rgb(243,142,154)" stroke-width="1" opacity="1" d="M 7.5 2 L 15 2.5 L 7.5 3 L 7.5 2 Z " /><path fill="rgb(236,76,94)" stroke="rgb(236,76,94)" stroke-width="1" opacity="1" d="M 7.5 3 L 15 3.5 L 7.5 4 L 7.5 3 Z " /><path fill="rgb(53,53,131)" stroke="rgb(53,53,131)" stroke-width="1" opacity="1" d="M 1.5 0 L 6 0.5 L 1.5 1 L 1.5 0 Z " /><path fill="rgb(53,53,131)" stroke="rgb(53,53,131)" stroke-width="1" opacity="1" d="M 0.5 2 L 0.5 3 L 0.5 2 Z " /><path fill="rgb(53,53,131)" stroke="rgb(53,53,131)" stroke-width="1" opacity="1" d="M 0.5 4 L 0.5 5 L 0.5 4 Z " /><path fill="rgb(53,53,131)" stroke="rgb(53,53,131)" stroke-width="1" opacity="1" d="M 0.5 7 L 0.5 8 L 0.5 7 Z " /><path fill="rgb(32,32,120)" stroke="rgb(32,32,120)" stroke-width="1" opacity="1" d="M 0.5 1 L 0.5 2 L 0.5 1 Z " /><path fill="rgb(32,32,120)" stroke="rgb(32,32,120)" stroke-width="1" opacity="1" d="M 0.5 3 L 0.5 4 L 0.5 3 Z " /><path fill="rgb(32,32,120)" stroke="rgb(32,32,120)" stroke-width="1" opacity="1" d="M 0.5 5 L 0.5 6 L 0.5 5 Z " /><path fill="rgb(254,246,247)" stroke="rgb(254,246,247)" stroke-width="1" opacity="1" d="M 7.5 4 L 16 4.5 L 7.5 5 L 7.5 4 Z " /><path fill="rgb(254,246,247)" stroke="rgb(254,246,247)" stroke-width="1" opacity="1" d="M 15.5 11 L 15.5 12 L 15.5 11 Z " /><path fill="rgb(231,16,41)" stroke="rgb(231,16,41)" stroke-width="1" opacity="1" d="M 7.5 5 L 15 5.5 L 7.5 6 L 7.5 5 Z " /><path fill="rgb(231,16,41)" stroke="rgb(231,16,41)" stroke-width="1" opacity="1" d="M 1.5 10 L 15 10.5 L 1.5 11 L 1.5 10 Z " /><path fill="rgb(42,42,127)" stroke="rgb(42,42,127)" stroke-width="1" opacity="1" d="M 1.5 3 L 6 3 L 6 4.5 L 4.5 4 Q 0.5 4.75 1.5 3 Z " /><path fill="rgb(42,42,127)" stroke="rgb(42,42,127)" stroke-width="1" opacity="1" d="M 0.5 6 L 0.5 7 L 0.5 6 Z " /><path fill="rgb(49,49,131)" stroke="rgb(49,49,131)" stroke-width="1" opacity="1" d="M 2.5 1 L 4 1.5 L 2.5 2 L 2.5 1 Z " /><path fill="rgb(49,49,131)" stroke="rgb(49,49,131)" stroke-width="1" opacity="1" d="M 5.5 1 L 5.5 2 L 5.5 1 Z " /><path fill="rgb(49,49,131)" stroke="rgb(49,49,131)" stroke-width="1" opacity="1" d="M 1 6 L 3 6.5 Q 2 9 1 7.5 L 1 6 Z " /><path fill="rgb(49,49,131)" stroke="rgb(49,49,131)" stroke-width="1" opacity="1" d="M 5.5 6 Q 7 7 4.5 8 Q 3 7 5.5 6 Z " /><path fill="rgb(50,50,132)" stroke="rgb(50,50,132)" stroke-width="1" opacity="1" d="M 4.5 1 L 4.5 2 L 4.5 1 Z " /><path fill="rgb(50,50,132)" stroke="rgb(50,50,132)" stroke-width="1" opacity="1" d="M 1.5 5 L 6 5.5 L 2.5 8 L 2.5 6 Q 0.13 5.87 1.5 5 Z " /><path fill="rgb(220,113,134)" stroke="rgb(220,113,134)" stroke-width="1" opacity="1" d="M 6.5 8 L 6.5 9 L 6.5 8 Z " /><path fill="rgb(240,109,124)" stroke="rgb(240,109,124)" stroke-width="1" opacity="1" d="M 15.5 7 L 16 9 L 7 8.5 L 14.5 8 L 15.5 7 Z " /><path fill="rgb(240,108,123)" stroke="rgb(240,108,123)" stroke-width="1" opacity="1" d="M 7.5 7 L 15 7.5 L 7.5 8 L 7.5 7 Z " /><path fill="rgb(125,112,165)" stroke="rgb(125,112,165)" stroke-width="1" opacity="1" d="M 6.5 1 L 7 2.5 L 6 2.5 L 6.5 1 Z " /><path fill="rgb(125,112,165)" stroke="rgb(125,112,165)" stroke-width="1" opacity="1" d="M 6.5 4 L 6.5 5 L 6.5 4 Z " /><path fill="rgb(125,112,165)" stroke="rgb(125,112,165)" stroke-width="1" opacity="1" d="M 6.5 6 L 6.5 7 L 6.5 6 Z " /><path fill="rgb(125,112,165)" stroke="rgb(125,112,165)" stroke-width="1" opacity="1" d="M 0.5 8 L 6 8.5 L 0.5 9 L 0.5 8 Z " /><path fill="rgb(250,214,218)" stroke="rgb(250,214,218)" stroke-width="1" opacity="1" d="M 7.5 6 L 16 6.5 L 7.5 7 L 7.5 6 Z " /><path fill="rgb(250,211,215)" stroke="rgb(250,211,215)" stroke-width="1" opacity="1" d="M 0.5 9 L 16 9.5 L 0.5 10 L 0.5 9 Z " /><path fill="rgb(254,249,249)" stroke="rgb(254,249,249)" stroke-width="1" opacity="1" d="M 0.5 11 L 15 11.5 L 0.5 12 L 0.5 11 Z " /><path fill="rgb(236,74,93)" stroke="rgb(236,74,93)" stroke-width="1" opacity="1" d="M 1.5 12 L 15 12.5 L 1.5 13 L 1.5 12 Z " /><path fill="rgb(235,86,103)" stroke="rgb(235,86,103)" stroke-width="1" opacity="1" d="M 15.5 3 L 15.5 4 L 15.5 3 Z " /><path fill="rgb(235,86,103)" stroke="rgb(235,86,103)" stroke-width="1" opacity="1" d="M 0.5 12 L 0.5 13 L 0.5 12 Z " /><path fill="rgb(235,86,103)" stroke="rgb(235,86,103)" stroke-width="1" opacity="1" d="M 15.5 12 L 15.5 13 L 15.5 12 Z " /><path fill="rgb(241,147,159)" stroke="rgb(241,147,159)" stroke-width="1" opacity="1" d="M 15.5 2 L 15.5 3 L 15.5 2 Z " /><path fill="rgb(241,147,159)" stroke="rgb(241,147,159)" stroke-width="1" opacity="1" d="M 0.5 13 L 0.5 14 L 0.5 13 Z " /><path fill="rgb(241,147,159)" stroke="rgb(241,147,159)" stroke-width="1" opacity="1" d="M 15.5 13 L 15.5 14 L 15.5 13 Z " /><path fill="rgb(244,145,156)" stroke="rgb(244,145,156)" stroke-width="1" opacity="1" d="M 1.5 13 L 15 13.5 L 1.5 14 L 1.5 13 Z " /><path fill="rgb(247,176,184)" stroke="rgb(247,176,184)" stroke-width="1" opacity="1" d="M 1.5 14 L 15 14.5 L 1.5 15 L 1.5 14 Z " /><path fill="rgb(144,43,93)" stroke="rgb(144,43,93)" stroke-width="1" opacity="1" d="M 6.5 0 L 6.5 1 L 6.5 0 Z " /><path fill="rgb(144,43,93)" stroke="rgb(144,43,93)" stroke-width="1" opacity="1" d="M 6.5 3 L 6.5 4 L 6.5 3 Z " /><path fill="rgb(144,43,93)" stroke="rgb(144,43,93)" stroke-width="1" opacity="1" d="M 6.5 5 L 6.5 6 L 6.5 5 Z " /><path fill="rgb(144,43,93)" stroke="rgb(144,43,93)" stroke-width="1" opacity="1" d="M 6.5 7 L 6.5 8 L 6.5 7 Z " /><path fill="rgb(227,41,63)" stroke="rgb(227,41,63)" stroke-width="1" opacity="1" d="M 7.5 0 L 16 0.5 L 7.5 1 L 7.5 0 Z " /><path fill="rgb(227,41,63)" stroke="rgb(227,41,63)" stroke-width="1" opacity="1" d="M 15.5 5 L 15.5 6 L 15.5 5 Z " /><path fill="rgb(227,41,63)" stroke="rgb(227,41,63)" stroke-width="1" opacity="1" d="M 0.5 10 L 0.5 11 L 0.5 10 Z " /><path fill="rgb(227,41,63)" stroke="rgb(227,41,63)" stroke-width="1" opacity="1" d="M 15.5 10 L 15.5 11 L 15.5 10 Z " /><path fill="rgb(227,41,63)" stroke="rgb(227,41,63)" stroke-width="1" opacity="1" d="M 0.5 15 L 16 15.5 L 0.5 16 L 0.5 15 Z " /></svg>