<svg width="128" height="128" version="1.1" xmlns="http://www.w3.org/2000/svg" desc="Created with imagetracer.js version 1.2.6" ><path fill="rgb(246,232,230)" stroke="rgb(246,232,230)" stroke-width="1" opacity="1" d="M 60.5 15 L 60.5 16 L 60.5 15 Z " /><path fill="rgb(246,232,230)" stroke="rgb(246,232,230)" stroke-width="1" opacity="1" d="M 67.5 15 L 67.5 16 L 67.5 15 Z " /><path fill="rgb(246,232,230)" stroke="rgb(246,232,230)" stroke-width="1" opacity="1" d="M 55.5 24 L 57 24.5 L 55.5 25 L 55.5 24 Z " /><path fill="rgb(246,232,230)" stroke="rgb(246,232,230)" stroke-width="1" opacity="1" d="M 52.5 25 L 52.5 26 L 52.5 25 Z " /><path fill="rgb(246,232,230)" stroke="rgb(246,232,230)" stroke-width="1" opacity="1" d="M 59.5 25 L 59.5 26 L 59.5 25 Z " /><path fill="rgb(246,232,230)" stroke="rgb(246,232,230)" stroke-width="1" opacity="1" d="M 55.5 27 L 55.5 28 L 55.5 27 Z " /><path fill="rgb(246,232,230)" stroke="rgb(246,232,230)" stroke-width="1" opacity="1" d="M 60.5 27 L 61 30.5 L 58.5 33 L 58 32.5 L 60 30.5 L 60.5 27 Z " /><path fill="rgb(246,232,230)" stroke="rgb(246,232,230)" stroke-width="1" opacity="1" d="M 52.5 31 L 52.5 32 L 52.5 31 Z " /><path fill="rgb(246,232,230)" stroke="rgb(246,232,230)" stroke-width="1" opacity="1" d="M 71.5 34 L 71.5 35 L 71.5 34 Z " /><path fill="rgb(246,232,230)" stroke="rgb(246,232,230)" stroke-width="1" opacity="1" d="M 76.5 35 L 76.5 36 L 76.5 35 Z " /><path fill="rgb(246,232,230)" stroke="rgb(246,232,230)" stroke-width="1" opacity="1" d="M 77.5 37 L 78 39.5 L 77 39.5 L 77.5 37 Z " /><path fill="rgb(246,232,230)" stroke="rgb(246,232,230)" stroke-width="1" opacity="1" d="M 74.5 39 L 74.5 40 L 74.5 39 Z " /><path fill="rgb(246,232,230)" stroke="rgb(246,232,230)" stroke-width="1" opacity="1" d="M 70.5 42 L 70.5 43 L 70.5 42 Z " /><path fill="rgb(246,232,230)" stroke="rgb(246,232,230)" stroke-width="1" opacity="1" d="M 75.5 42 L 76 113.5 L 75 113.5 L 75.5 42 Z " /><path fill="rgb(246,232,230)" stroke="rgb(246,232,230)" stroke-width="1" opacity="1" d="M 108.5 48 L 111 48.5 L 108.5 49 L 108.5 48 Z " /><path fill="rgb(246,232,230)" stroke="rgb(246,232,230)" stroke-width="1" opacity="1" d="M 112.5 49 Q 115 50 113.5 51 Q 111 50 112.5 49 Z " /><path fill="rgb(246,232,230)" stroke="rgb(246,232,230)" stroke-width="1" opacity="1" d="M 110.5 51 L 110.5 52 L 110.5 51 Z " /><path fill="rgb(246,232,230)" stroke="rgb(246,232,230)" stroke-width="1" opacity="1" d="M 110.5 54 L 110.5 55 L 110.5 54 Z " /><path fill="rgb(246,232,230)" stroke="rgb(246,232,230)" stroke-width="1" opacity="1" d="M 113.5 55 Q 115 56 112.5 57 Q 111 56 113.5 55 Z " /><path fill="rgb(246,232,230)" stroke="rgb(246,232,230)" stroke-width="1" opacity="1" d="M 17.5 57 L 20 57.5 L 17.5 58 L 17.5 57 Z " /><path fill="rgb(246,232,230)" stroke="rgb(246,232,230)" stroke-width="1" opacity="1" d="M 109.5 57 L 111 57.5 L 109.5 58 L 109.5 57 Z " /><path fill="rgb(246,232,230)" stroke="rgb(246,232,230)" stroke-width="1" opacity="1" d="M 15.5 58 L 15.5 59 L 15.5 58 Z " /><path fill="rgb(246,232,230)" stroke="rgb(246,232,230)" stroke-width="1" opacity="1" d="M 18.5 60 L 18.5 61 L 18.5 60 Z " /><path fill="rgb(246,232,230)" stroke="rgb(246,232,230)" stroke-width="1" opacity="1" d="M 49.5 60 L 50 113.5 L 49 113.5 L 49.5 60 Z " /><path fill="rgb(246,232,230)" stroke="rgb(246,232,230)" stroke-width="1" opacity="1" d="M 95.5 60 L 95.5 61 L 95.5 60 Z " /><path fill="rgb(246,232,230)" stroke="rgb(246,232,230)" stroke-width="1" opacity="1" d="M 99.5 61 L 99.5 62 L 99.5 61 Z " /><path fill="rgb(246,232,230)" stroke="rgb(246,232,230)" stroke-width="1" opacity="1" d="M 94.5 62 L 94.5 63 L 94.5 62 Z " /><path fill="rgb(246,232,230)" stroke="rgb(246,232,230)" stroke-width="1" opacity="1" d="M 97.5 63 L 97.5 64 L 97.5 63 Z " /><path fill="rgb(246,232,230)" stroke="rgb(246,232,230)" stroke-width="1" opacity="1" d="M 14.5 64 L 14.5 65 L 14.5 64 Z " /><path fill="rgb(246,232,230)" stroke="rgb(246,232,230)" stroke-width="1" opacity="1" d="M 45.5 64 L 46 113.5 L 45 113.5 L 45.5 64 Z " /><path fill="rgb(246,232,230)" stroke="rgb(246,232,230)" stroke-width="1" opacity="1" d="M 98.5 65 L 98.5 66 L 98.5 65 Z " /><path fill="rgb(246,232,230)" stroke="rgb(246,232,230)" stroke-width="1" opacity="1" d="M 101.5 65 L 101.5 66 L 101.5 65 Z " /><path fill="rgb(246,232,230)" stroke="rgb(246,232,230)" stroke-width="1" opacity="1" d="M 18.5 66 L 18.5 67 L 18.5 66 Z " /><path fill="rgb(246,232,230)" stroke="rgb(246,232,230)" stroke-width="1" opacity="1" d="M 93.5 66 L 93.5 67 L 93.5 66 Z " /><path fill="rgb(246,232,230)" stroke="rgb(246,232,230)" stroke-width="1" opacity="1" d="M 102.5 67 L 102.5 68 L 102.5 67 Z " /><path fill="rgb(246,232,230)" stroke="rgb(246,232,230)" stroke-width="1" opacity="1" d="M 92.5 68 L 93 69.5 L 92 69.5 L 92.5 68 Z " /><path fill="rgb(246,232,230)" stroke="rgb(246,232,230)" stroke-width="1" opacity="1" d="M 99.5 68 L 99.5 69 L 99.5 68 Z " /><path fill="rgb(246,232,230)" stroke="rgb(246,232,230)" stroke-width="1" opacity="1" d="M 33.5 69 L 33.5 70 L 33.5 69 Z " /><path fill="rgb(246,232,230)" stroke="rgb(246,232,230)" stroke-width="1" opacity="1" d="M 100.5 70 L 100.5 71 L 100.5 70 Z " /><path fill="rgb(246,232,230)" stroke="rgb(246,232,230)" stroke-width="1" opacity="1" d="M 103.5 70 L 103.5 71 L 103.5 70 Z " /><path fill="rgb(246,232,230)" stroke="rgb(246,232,230)" stroke-width="1" opacity="1" d="M 94.5 71 L 94.5 72 L 94.5 71 Z " /><path fill="rgb(246,232,230)" stroke="rgb(246,232,230)" stroke-width="1" opacity="1" d="M 31.5 72 Q 34 73 32.5 74 Q 30 73 31.5 72 Z " /><path fill="rgb(246,232,230)" stroke="rgb(246,232,230)" stroke-width="1" opacity="1" d="M 34.5 72 L 34.5 73 L 34.5 72 Z " /><path fill="rgb(246,232,230)" stroke="rgb(246,232,230)" stroke-width="1" opacity="1" d="M 91.5 72 L 91.5 73 L 91.5 72 Z " /><path fill="rgb(246,232,230)" stroke="rgb(246,232,230)" stroke-width="1" opacity="1" d="M 104.5 72 L 104.5 73 L 104.5 72 Z " /><path fill="rgb(246,232,230)" stroke="rgb(246,232,230)" stroke-width="1" opacity="1" d="M 28.5 73 L 28.5 74 L 28.5 73 Z " /><path fill="rgb(246,232,230)" stroke="rgb(246,232,230)" stroke-width="1" opacity="1" d="M 86.5 73 L 86.5 74 L 86.5 73 Z " /><path fill="rgb(246,232,230)" stroke="rgb(246,232,230)" stroke-width="1" opacity="1" d="M 35.5 74 L 35.5 75 L 35.5 74 Z " /><path fill="rgb(246,232,230)" stroke="rgb(246,232,230)" stroke-width="1" opacity="1" d="M 30.5 75 L 30.5 76 L 30.5 75 Z " /><path fill="rgb(246,232,230)" stroke="rgb(246,232,230)" stroke-width="1" opacity="1" d="M 87.5 75 L 92 75.5 L 87.5 76 L 86.5 77 Q 85 76 87.5 75 Z " /><path fill="rgb(246,232,230)" stroke="rgb(246,232,230)" stroke-width="1" opacity="1" d="M 33.5 76 L 33.5 77 L 33.5 76 Z " /><path fill="rgb(246,232,230)" stroke="rgb(246,232,230)" stroke-width="1" opacity="1" d="M 36.5 77 L 36.5 78 L 36.5 77 Z " /><path fill="rgb(246,232,230)" stroke="rgb(246,232,230)" stroke-width="1" opacity="1" d="M 34.5 78 L 34.5 79 L 34.5 78 Z " /><path fill="rgb(246,232,230)" stroke="rgb(246,232,230)" stroke-width="1" opacity="1" d="M 86.5 78 L 87 79.5 L 86 79.5 L 86.5 78 Z " /><path fill="rgb(246,232,230)" stroke="rgb(246,232,230)" stroke-width="1" opacity="1" d="M 25.5 81 Q 27 82 24.5 83 L 20 82.5 L 24.5 82 L 25.5 81 Z " /><path fill="rgb(246,232,230)" stroke="rgb(246,232,230)" stroke-width="1" opacity="1" d="M 28.5 81 Q 29.75 83.25 34.5 82 L 36 81.5 L 35.5 83 L 29.5 83 Q 27 82 28.5 81 Z " /><path fill="rgb(246,232,230)" stroke="rgb(246,232,230)" stroke-width="1" opacity="1" d="M 38.5 81 Q 39.25 82.75 42.5 82 L 44 83.5 L 42.5 83 Q 37.88 83.75 38.5 81 Z " /><path fill="rgb(246,232,230)" stroke="rgb(246,232,230)" stroke-width="1" opacity="1" d="M 21.5 84 L 37 84.5 L 21.5 85 L 20.5 86 Q 19 85 21.5 84 Z " /><path fill="rgb(246,232,230)" stroke="rgb(246,232,230)" stroke-width="1" opacity="1" d="M 42.5 85 L 42.5 86 L 42.5 85 Z " /><path fill="rgb(246,232,230)" stroke="rgb(246,232,230)" stroke-width="1" opacity="1" d="M 42.5 88 L 42.5 89 L 42.5 88 Z " /><path fill="rgb(246,232,230)" stroke="rgb(246,232,230)" stroke-width="1" opacity="1" d="M 20.5 89 L 20.5 90 L 20.5 89 Z " /><path fill="rgb(246,232,230)" stroke="rgb(246,232,230)" stroke-width="1" opacity="1" d="M 22.5 90 L 22.5 91 L 22.5 90 Z " /><path fill="rgb(246,232,230)" stroke="rgb(246,232,230)" stroke-width="1" opacity="1" d="M 40.5 90 L 40.5 91 L 40.5 90 Z " /><path fill="rgb(255,255,255)" stroke="rgb(255,255,255)" stroke-width="1" opacity="1" d="M 0 0 L 128 0 L 128 128 L 0 128 L 0 0 Z M 63 14 L 60 15 L 60 21 L 62 23 L 62 114 Q 62 114 66 114 L 66 23 L 68 21 L 68 15 L 66 14 L 63 14 Z M 56 24 Q 55 26 52 25 L 52 32 L 54 34 L 54 114 Q 54 114 58 114 L 58 34 L 61 31 L 61 28 L 60 25 L 56 24 Z M 72 34 L 69 37 Q 68 42 71 44 L 71 114 L 72 114 L 76 114 L 76 42 L 78 40 L 77 35 L 75 34 L 72 34 Z M 109 48 L 106 51 L 79 51 L 79 114 Q 83 114 83 114 L 83 56 L 84 55 L 96 55 L 96 60 L 92 69 L 92 72 L 91 73 L 86 73 L 86 75 Q 88 76 86 77 Q 85 81 89 82 L 106 82 L 107 81 L 108 81 L 108 76 L 92 76 L 109 75 Q 110 72 106 73 L 103 70 L 102 66 L 100 64 L 99 61 L 99 55 L 106 55 L 110 58 L 113 57 Q 115 56 114 51 L 111 48 L 109 48 Z M 18 57 L 15 58 L 14 61 L 14 65 L 19 67 L 23 64 L 30 64 L 30 71 L 28 74 L 28 77 L 26 81 L 25 82 L 20 82 L 21 85 L 20 86 L 20 90 L 23 91 L 41 91 Q 44 90 43 85 L 37 85 L 44 84 Q 43 81 40 82 L 34 72 L 33 64 L 45 64 L 45 65 L 45 114 L 50 114 L 50 114 L 50 60 L 23 60 L 20 57 L 18 57 Z " /><path fill="rgb(255,255,255)" stroke="rgb(255,255,255)" stroke-width="1" opacity="1" d="M 56.5 27 L 57 30 Q 54.33 31.13 55 28.5 L 56.5 27 Z " /><path fill="rgb(255,255,255)" stroke="rgb(255,255,255)" stroke-width="1" opacity="1" d="M 72 37 L 75 38.5 L 72 40 L 72 37 Z " /><path fill="rgb(255,255,255)" stroke="rgb(255,255,255)" stroke-width="1" opacity="1" d="M 109.5 51 L 111 53.5 Q 109.5 56.5 108 53.5 L 109.5 51 Z " /><path fill="rgb(255,255,255)" stroke="rgb(255,255,255)" stroke-width="1" opacity="1" d="M 17 61 L 20 61 L 20 62.5 Q 18.5 65.5 17 62.5 L 17 61 Z " /><path fill="rgb(255,255,255)" stroke="rgb(255,255,255)" stroke-width="1" opacity="1" d="M 97.5 64 L 100 70.5 L 102 72.5 L 94.5 73 L 95 71.5 L 95 68.5 L 97.5 64 Z " /><path fill="rgb(255,255,255)" stroke="rgb(255,255,255)" stroke-width="1" opacity="1" d="M 31.5 73 L 35 79.5 L 35 82 L 29 82 L 29 78.5 L 31.5 73 Z " /><path fill="rgb(190,83,67)" stroke="rgb(190,83,67)" stroke-width="1" opacity="1" d="M 63.5 14 L 63.5 15 L 63.5 14 Z " /><path fill="rgb(190,83,67)" stroke="rgb(190,83,67)" stroke-width="1" opacity="1" d="M 61.5 15 L 61.5 16 L 61.5 15 Z " /><path fill="rgb(190,83,67)" stroke="rgb(190,83,67)" stroke-width="1" opacity="1" d="M 66.5 15 L 66.5 16 L 66.5 15 Z " /><path fill="rgb(190,83,67)" stroke="rgb(190,83,67)" stroke-width="1" opacity="1" d="M 60.5 17 L 61 19.5 L 60 19.5 L 60.5 17 Z " /><path fill="rgb(190,83,67)" stroke="rgb(190,83,67)" stroke-width="1" opacity="1" d="M 67.5 17 L 68 19.5 L 67 19.5 L 67.5 17 Z " /><path fill="rgb(190,83,67)" stroke="rgb(190,83,67)" stroke-width="1" opacity="1" d="M 54.5 25 L 56.5 26 L 58 25.5 L 57 26.5 L 57.5 28 L 54 25.5 L 54.5 25 Z " /><path fill="rgb(190,83,67)" stroke="rgb(190,83,67)" stroke-width="1" opacity="1" d="M 59.5 26 L 59.5 27 L 59.5 26 Z " /><path fill="rgb(190,83,67)" stroke="rgb(190,83,67)" stroke-width="1" opacity="1" d="M 52.5 27 L 52.5 28 L 52.5 27 Z " /><path fill="rgb(190,83,67)" stroke="rgb(190,83,67)" stroke-width="1" opacity="1" d="M 57.5 30 L 58.5 31 L 60 30.5 L 57.5 33 L 57 32.5 L 58 31.5 L 57.5 30 Z " /><path fill="rgb(190,83,67)" stroke="rgb(190,83,67)" stroke-width="1" opacity="1" d="M 75.5 35 Q 78 36 76.5 37 Q 74 36 75.5 35 Z " /><path fill="rgb(190,83,67)" stroke="rgb(190,83,67)" stroke-width="1" opacity="1" d="M 69.5 37 L 69.5 38 L 69.5 37 Z " /><path fill="rgb(190,83,67)" stroke="rgb(190,83,67)" stroke-width="1" opacity="1" d="M 71.5 37 L 71.5 38 L 71.5 37 Z " /><path fill="rgb(190,83,67)" stroke="rgb(190,83,67)" stroke-width="1" opacity="1" d="M 75.5 38 L 75.5 39 L 75.5 38 Z " /><path fill="rgb(190,83,67)" stroke="rgb(190,83,67)" stroke-width="1" opacity="1" d="M 69.5 39 L 69.5 40 L 69.5 39 Z " /><path fill="rgb(190,83,67)" stroke="rgb(190,83,67)" stroke-width="1" opacity="1" d="M 74.5 40 L 75.5 41 L 77 40.5 L 75.5 42 Q 73 41 74.5 40 Z " /><path fill="rgb(190,83,67)" stroke="rgb(190,83,67)" stroke-width="1" opacity="1" d="M 71.5 42 L 71.5 43 L 71.5 42 Z " /><path fill="rgb(190,83,67)" stroke="rgb(190,83,67)" stroke-width="1" opacity="1" d="M 109.5 50 L 109.5 51 L 109.5 50 Z " /><path fill="rgb(190,83,67)" stroke="rgb(190,83,67)" stroke-width="1" opacity="1" d="M 112.5 50 L 112.5 51 L 112.5 50 Z " /><path fill="rgb(190,83,67)" stroke="rgb(190,83,67)" stroke-width="1" opacity="1" d="M 80.5 51 L 81 113.5 L 80 113.5 L 80.5 51 Z " /><path fill="rgb(190,83,67)" stroke="rgb(190,83,67)" stroke-width="1" opacity="1" d="M 107.5 52 L 107.5 53 L 107.5 52 Z " /><path fill="rgb(190,83,67)" stroke="rgb(190,83,67)" stroke-width="1" opacity="1" d="M 113.5 53 L 113.5 54 L 113.5 53 Z " /><path fill="rgb(190,83,67)" stroke="rgb(190,83,67)" stroke-width="1" opacity="1" d="M 83.5 54 L 97 54.5 L 83.5 55 L 83.5 54 Z " /><path fill="rgb(190,83,67)" stroke="rgb(190,83,67)" stroke-width="1" opacity="1" d="M 98.5 54 L 106 54.5 L 98.5 55 L 98.5 54 Z " /><path fill="rgb(190,83,67)" stroke="rgb(190,83,67)" stroke-width="1" opacity="1" d="M 112.5 55 L 112.5 56 L 112.5 55 Z " /><path fill="rgb(190,83,67)" stroke="rgb(190,83,67)" stroke-width="1" opacity="1" d="M 15.5 59 L 15.5 60 L 15.5 59 Z " /><path fill="rgb(190,83,67)" stroke="rgb(190,83,67)" stroke-width="1" opacity="1" d="M 98.5 60 L 98.5 61 L 98.5 60 Z " /><path fill="rgb(190,83,67)" stroke="rgb(190,83,67)" stroke-width="1" opacity="1" d="M 14.5 61 L 15 62.5 L 14 62.5 L 14.5 61 Z " /><path fill="rgb(190,83,67)" stroke="rgb(190,83,67)" stroke-width="1" opacity="1" d="M 20.5 61 L 21 62.5 L 20 62.5 L 20.5 61 Z " /><path fill="rgb(190,83,67)" stroke="rgb(190,83,67)" stroke-width="1" opacity="1" d="M 22.5 63 L 30 63.5 L 22.5 64 L 22.5 63 Z " /><path fill="rgb(190,83,67)" stroke="rgb(190,83,67)" stroke-width="1" opacity="1" d="M 33.5 63 L 45 63.5 L 33.5 64 L 33.5 63 Z " /><path fill="rgb(190,83,67)" stroke="rgb(190,83,67)" stroke-width="1" opacity="1" d="M 99.5 63 L 99.5 64 L 99.5 63 Z " /><path fill="rgb(190,83,67)" stroke="rgb(190,83,67)" stroke-width="1" opacity="1" d="M 96.5 64 L 96.5 65 L 96.5 64 Z " /><path fill="rgb(190,83,67)" stroke="rgb(190,83,67)" stroke-width="1" opacity="1" d="M 100.5 65 L 100.5 66 L 100.5 65 Z " /><path fill="rgb(190,83,67)" stroke="rgb(190,83,67)" stroke-width="1" opacity="1" d="M 95.5 66 L 95.5 67 L 95.5 66 Z " /><path fill="rgb(190,83,67)" stroke="rgb(190,83,67)" stroke-width="1" opacity="1" d="M 94.5 68 L 94.5 69 L 94.5 68 Z " /><path fill="rgb(190,83,67)" stroke="rgb(190,83,67)" stroke-width="1" opacity="1" d="M 30.5 70 L 33 72.5 L 32.5 73 L 30 70.5 L 30.5 70 Z " /><path fill="rgb(190,83,67)" stroke="rgb(190,83,67)" stroke-width="1" opacity="1" d="M 101.5 70 L 103 70.5 L 101.5 71 L 101.5 70 Z " /><path fill="rgb(190,83,67)" stroke="rgb(190,83,67)" stroke-width="1" opacity="1" d="M 29.5 72 L 29.5 73 L 29.5 72 Z " /><path fill="rgb(190,83,67)" stroke="rgb(190,83,67)" stroke-width="1" opacity="1" d="M 93.5 72 L 93.5 73 L 93.5 72 Z " /><path fill="rgb(190,83,67)" stroke="rgb(190,83,67)" stroke-width="1" opacity="1" d="M 102.5 72 L 103 73.5 L 102 73.5 L 102.5 72 Z " /><path fill="rgb(190,83,67)" stroke="rgb(190,83,67)" stroke-width="1" opacity="1" d="M 91.5 73 L 91.5 74 L 91.5 73 Z " /><path fill="rgb(190,83,67)" stroke="rgb(190,83,67)" stroke-width="1" opacity="1" d="M 33.5 74 L 33.5 75 L 33.5 74 Z " /><path fill="rgb(190,83,67)" stroke="rgb(190,83,67)" stroke-width="1" opacity="1" d="M 108.5 74 L 108.5 75 L 108.5 74 Z " /><path fill="rgb(190,83,67)" stroke="rgb(190,83,67)" stroke-width="1" opacity="1" d="M 34.5 77 L 34.5 78 L 34.5 77 Z " /><path fill="rgb(190,83,67)" stroke="rgb(190,83,67)" stroke-width="1" opacity="1" d="M 107.5 78 L 107.5 79 L 107.5 78 Z " /><path fill="rgb(190,83,67)" stroke="rgb(190,83,67)" stroke-width="1" opacity="1" d="M 35.5 79 L 35.5 80 L 35.5 79 Z " /><path fill="rgb(190,83,67)" stroke="rgb(190,83,67)" stroke-width="1" opacity="1" d="M 87.5 79 L 87.5 80 L 87.5 79 Z " /><path fill="rgb(190,83,67)" stroke="rgb(190,83,67)" stroke-width="1" opacity="1" d="M 26.5 80 L 26.5 81 L 26.5 80 Z " /><path fill="rgb(190,83,67)" stroke="rgb(190,83,67)" stroke-width="1" opacity="1" d="M 90.5 81 L 101 81.5 L 90.5 82 L 90.5 81 Z " /><path fill="rgb(190,83,67)" stroke="rgb(190,83,67)" stroke-width="1" opacity="1" d="M 40.5 89 L 40.5 90 L 40.5 89 Z " /><path fill="rgb(190,83,67)" stroke="rgb(190,83,67)" stroke-width="1" opacity="1" d="M 24.5 90 L 38 90.5 L 24.5 91 L 24.5 90 Z " /><path fill="rgb(219,159,150)" stroke="rgb(219,159,150)" stroke-width="1" opacity="1" d="M 60.5 16 L 60.5 17 L 60.5 16 Z " /><path fill="rgb(219,159,150)" stroke="rgb(219,159,150)" stroke-width="1" opacity="1" d="M 67.5 16 L 67.5 17 L 67.5 16 Z " /><path fill="rgb(219,159,150)" stroke="rgb(219,159,150)" stroke-width="1" opacity="1" d="M 60.5 20 Q 63 21 61.5 22 Q 59 21 60.5 20 Z " /><path fill="rgb(219,159,150)" stroke="rgb(219,159,150)" stroke-width="1" opacity="1" d="M 67.5 20 Q 69 21 66.5 22 Q 65 21 67.5 20 Z " /><path fill="rgb(219,159,150)" stroke="rgb(219,159,150)" stroke-width="1" opacity="1" d="M 58.5 25 L 58.5 26 L 58.5 25 Z " /><path fill="rgb(219,159,150)" stroke="rgb(219,159,150)" stroke-width="1" opacity="1" d="M 54.5 28 L 55 30 Q 57.67 31.13 57 28.5 L 58 28.5 L 56.5 31 L 54 29.5 L 54.5 28 Z " /><path fill="rgb(219,159,150)" stroke="rgb(219,159,150)" stroke-width="1" opacity="1" d="M 53.5 32 L 53.5 33 L 53.5 32 Z " /><path fill="rgb(219,159,150)" stroke="rgb(219,159,150)" stroke-width="1" opacity="1" d="M 72.5 34 L 72.5 35 L 72.5 34 Z " /><path fill="rgb(219,159,150)" stroke="rgb(219,159,150)" stroke-width="1" opacity="1" d="M 74.5 34 L 74.5 35 L 74.5 34 Z " /><path fill="rgb(219,159,150)" stroke="rgb(219,159,150)" stroke-width="1" opacity="1" d="M 69.5 36 L 69.5 37 L 69.5 36 Z " /><path fill="rgb(219,159,150)" stroke="rgb(219,159,150)" stroke-width="1" opacity="1" d="M 74.5 37 L 74.5 38 L 74.5 37 Z " /><path fill="rgb(219,159,150)" stroke="rgb(219,159,150)" stroke-width="1" opacity="1" d="M 71.5 38 L 71.5 39 L 71.5 38 Z " /><path fill="rgb(219,159,150)" stroke="rgb(219,159,150)" stroke-width="1" opacity="1" d="M 69.5 40 L 69.5 41 L 69.5 40 Z " /><path fill="rgb(219,159,150)" stroke="rgb(219,159,150)" stroke-width="1" opacity="1" d="M 107.5 49 L 107.5 50 L 107.5 49 Z " /><path fill="rgb(219,159,150)" stroke="rgb(219,159,150)" stroke-width="1" opacity="1" d="M 79.5 51 L 80 113.5 L 79 113.5 L 79.5 51 Z " /><path fill="rgb(219,159,150)" stroke="rgb(219,159,150)" stroke-width="1" opacity="1" d="M 108.5 51 L 108.5 52 L 108.5 51 Z " /><path fill="rgb(219,159,150)" stroke="rgb(219,159,150)" stroke-width="1" opacity="1" d="M 106.5 55 Q 109 56 107.5 57 Q 105 56 106.5 55 Z " /><path fill="rgb(219,159,150)" stroke="rgb(219,159,150)" stroke-width="1" opacity="1" d="M 21.5 59 L 22.5 60 L 49 60.5 L 22.5 61 Q 20 60 21.5 59 Z " /><path fill="rgb(219,159,150)" stroke="rgb(219,159,150)" stroke-width="1" opacity="1" d="M 14.5 60 L 14.5 61 L 14.5 60 Z " /><path fill="rgb(219,159,150)" stroke="rgb(219,159,150)" stroke-width="1" opacity="1" d="M 17.5 60 L 17.5 61 L 17.5 60 Z " /><path fill="rgb(219,159,150)" stroke="rgb(219,159,150)" stroke-width="1" opacity="1" d="M 17.5 63 L 17.5 64 L 17.5 63 Z " /><path fill="rgb(219,159,150)" stroke="rgb(219,159,150)" stroke-width="1" opacity="1" d="M 94.5 63 L 95 64.5 L 94 64.5 L 94.5 63 Z " /><path fill="rgb(219,159,150)" stroke="rgb(219,159,150)" stroke-width="1" opacity="1" d="M 100.5 64 L 100.5 65 L 100.5 64 Z " /><path fill="rgb(219,159,150)" stroke="rgb(219,159,150)" stroke-width="1" opacity="1" d="M 15.5 65 L 15.5 66 L 15.5 65 Z " /><path fill="rgb(219,159,150)" stroke="rgb(219,159,150)" stroke-width="1" opacity="1" d="M 96.5 65 L 96.5 66 L 96.5 65 Z " /><path fill="rgb(219,159,150)" stroke="rgb(219,159,150)" stroke-width="1" opacity="1" d="M 95.5 67 L 95.5 68 L 95.5 67 Z " /><path fill="rgb(219,159,150)" stroke="rgb(219,159,150)" stroke-width="1" opacity="1" d="M 99.5 67 L 99.5 68 L 99.5 67 Z " /><path fill="rgb(219,159,150)" stroke="rgb(219,159,150)" stroke-width="1" opacity="1" d="M 102.5 68 L 102.5 69 L 102.5 68 Z " /><path fill="rgb(219,159,150)" stroke="rgb(219,159,150)" stroke-width="1" opacity="1" d="M 33.5 70 L 33.5 71 L 33.5 70 Z " /><path fill="rgb(219,159,150)" stroke="rgb(219,159,150)" stroke-width="1" opacity="1" d="M 92.5 70 L 92.5 71 L 92.5 70 Z " /><path fill="rgb(219,159,150)" stroke="rgb(219,159,150)" stroke-width="1" opacity="1" d="M 94.5 70 L 94.5 71 L 94.5 70 Z " /><path fill="rgb(219,159,150)" stroke="rgb(219,159,150)" stroke-width="1" opacity="1" d="M 29.5 71 L 29.5 72 L 29.5 71 Z " /><path fill="rgb(219,159,150)" stroke="rgb(219,159,150)" stroke-width="1" opacity="1" d="M 101.5 71 L 101.5 72 L 101.5 71 Z " /><path fill="rgb(219,159,150)" stroke="rgb(219,159,150)" stroke-width="1" opacity="1" d="M 103.5 71 L 103.5 72 L 103.5 71 Z " /><path fill="rgb(219,159,150)" stroke="rgb(219,159,150)" stroke-width="1" opacity="1" d="M 87.5 73 L 91 73.5 L 87.5 74 L 87.5 73 Z " /><path fill="rgb(219,159,150)" stroke="rgb(219,159,150)" stroke-width="1" opacity="1" d="M 105.5 73 L 105.5 74 L 105.5 73 Z " /><path fill="rgb(219,159,150)" stroke="rgb(219,159,150)" stroke-width="1" opacity="1" d="M 108.5 73 L 108.5 74 L 108.5 73 Z " /><path fill="rgb(219,159,150)" stroke="rgb(219,159,150)" stroke-width="1" opacity="1" d="M 28.5 74 L 28.5 75 L 28.5 74 Z " /><path fill="rgb(219,159,150)" stroke="rgb(219,159,150)" stroke-width="1" opacity="1" d="M 35.5 75 L 35.5 76 L 35.5 75 Z " /><path fill="rgb(219,159,150)" stroke="rgb(219,159,150)" stroke-width="1" opacity="1" d="M 27.5 77 L 27.5 78 L 27.5 77 Z " /><path fill="rgb(219,159,150)" stroke="rgb(219,159,150)" stroke-width="1" opacity="1" d="M 29.5 77 L 29.5 78 L 29.5 77 Z " /><path fill="rgb(219,159,150)" stroke="rgb(219,159,150)" stroke-width="1" opacity="1" d="M 86.5 77 L 86.5 78 L 86.5 77 Z " /><path fill="rgb(219,159,150)" stroke="rgb(219,159,150)" stroke-width="1" opacity="1" d="M 26.5 79 L 26.5 80 L 26.5 79 Z " /><path fill="rgb(219,159,150)" stroke="rgb(219,159,150)" stroke-width="1" opacity="1" d="M 37.5 79 L 37.5 80 L 37.5 79 Z " /><path fill="rgb(219,159,150)" stroke="rgb(219,159,150)" stroke-width="1" opacity="1" d="M 107.5 80 L 107.5 81 L 107.5 80 Z " /><path fill="rgb(219,159,150)" stroke="rgb(219,159,150)" stroke-width="1" opacity="1" d="M 88.5 81 L 88.5 82 L 88.5 81 Z " /><path fill="rgb(219,159,150)" stroke="rgb(219,159,150)" stroke-width="1" opacity="1" d="M 105.5 81 L 105.5 82 L 105.5 81 Z " /><path fill="rgb(219,159,150)" stroke="rgb(219,159,150)" stroke-width="1" opacity="1" d="M 28.5 82 L 28.5 83 L 28.5 82 Z " /><path fill="rgb(219,159,150)" stroke="rgb(219,159,150)" stroke-width="1" opacity="1" d="M 21.5 85 L 41.5 85 L 43 86.5 L 42.5 88 L 42 86 L 21.5 86 Q 20.75 85.75 21 88.5 L 20 88.5 Q 19.5 85.5 21.5 85 Z " /><path fill="rgb(219,159,150)" stroke="rgb(219,159,150)" stroke-width="1" opacity="1" d="M 41.5 89 L 41.5 90 L 41.5 89 Z " /><path fill="rgb(182,61,43)" stroke="rgb(182,61,43)" stroke-width="1" opacity="1" d="M 64.5 14 Q 68 15 67 20.5 L 65 22.5 L 65 114 L 63 113.5 L 63 22.5 Q 60 21.5 61 16.5 L 64.5 14 Z " /><path fill="rgb(182,61,43)" stroke="rgb(182,61,43)" stroke-width="1" opacity="1" d="M 55.5 25 L 60 27.5 L 60 29.5 L 57 32.5 L 57 114 L 55 113.5 L 55 33.5 L 52 28.5 L 53 26 L 55.5 25 Z M 55 26 L 54 29 L 56 31 Q 60 32 58 28 L 55 26 Z " /><path fill="rgb(182,61,43)" stroke="rgb(182,61,43)" stroke-width="1" opacity="1" d="M 71.5 35 Q 76.25 34.25 77 37.5 Q 77.5 41 75 41.5 L 75 114 Q 72.04 114.38 72 113.5 L 72 42.5 L 69 38.5 L 71.5 35 Z M 73 36 Q 71 37 71 40 Q 72 42 75 41 L 76 39 L 73 36 Z " /><path fill="rgb(182,61,43)" stroke="rgb(182,61,43)" stroke-width="1" opacity="1" d="M 108.5 49 L 110.5 49 L 114 52.5 L 110.5 57 L 108.5 57 L 105.5 54 L 98 54 L 98 60.5 L 100 65.5 L 102 67.5 L 102 69.5 Q 101 71 100 68.5 L 100 66.5 L 97.5 62 L 94 68.5 L 94 71.5 L 93 74 L 102.5 74 L 103 72.5 L 102.5 71 L 104 74 L 108 74.5 L 87.5 75 L 87.5 74 L 92 74 L 92 72.5 L 95 65.5 L 95 62.5 L 97 59.5 L 97 54 L 83.5 54 L 83 54.5 L 83 113.5 L 81 114 L 81 51 L 106.5 51 L 108.5 49 Z M 110 50 L 107 53 L 108 55 Q 111 56 112 54 L 110 50 Z " /><path fill="rgb(182,61,43)" stroke="rgb(182,61,43)" stroke-width="1" opacity="1" d="M 17.5 58 L 19.5 58 L 22.5 61 L 49 61 L 49 113.5 Q 48.96 114.38 46 114 L 46 64.5 L 44.5 63 L 33 63 L 33 71.5 L 38 83 L 43 83.5 L 21.5 84 L 21.5 83 L 26 83 L 26 81.5 L 31 70.5 L 31 64.5 L 29.5 63 L 22.5 63 L 19.5 66 L 17.5 66 L 15 65 Q 13.75 59.5 17.5 58 Z M 18 60 L 16 63 Q 17 65 20 64 L 21 62 Q 21 60 18 60 Z M 32 71 Q 29 72 30 77 L 28 80 L 28 83 L 36 83 L 36 80 L 32 71 Z " /><path fill="rgb(182,61,43)" stroke="rgb(182,61,43)" stroke-width="1" opacity="1" d="M 87 77 L 108 77.5 Q 106.25 78.42 107 81 L 88.5 81 L 88 79.5 L 87 77 Z " /><path fill="rgb(182,61,43)" stroke="rgb(182,61,43)" stroke-width="1" opacity="1" d="M 21 86 L 41.5 86 Q 42.38 86.04 42 89 L 39.5 90 L 22.5 90 Q 20.25 89 21 86 Z " /><path fill="rgb(205,123,111)" stroke="rgb(205,123,111)" stroke-width="1" opacity="1" d="M 62.5 22 L 63 113.5 L 62 113.5 L 62.5 22 Z " /><path fill="rgb(205,123,111)" stroke="rgb(205,123,111)" stroke-width="1" opacity="1" d="M 65.5 22 L 66 113.5 L 65 113.5 L 65.5 22 Z " /><path fill="rgb(205,123,111)" stroke="rgb(205,123,111)" stroke-width="1" opacity="1" d="M 53.5 25 L 53.5 26 L 53.5 25 Z " /><path fill="rgb(205,123,111)" stroke="rgb(205,123,111)" stroke-width="1" opacity="1" d="M 52.5 30 L 52.5 31 L 52.5 30 Z " /><path fill="rgb(205,123,111)" stroke="rgb(205,123,111)" stroke-width="1" opacity="1" d="M 72.5 36 L 72.5 37 L 72.5 36 Z " /><path fill="rgb(205,123,111)" stroke="rgb(205,123,111)" stroke-width="1" opacity="1" d="M 70.5 41 L 70.5 42 L 70.5 41 Z " /><path fill="rgb(205,123,111)" stroke="rgb(205,123,111)" stroke-width="1" opacity="1" d="M 111.5 49 L 111.5 50 L 111.5 49 Z " /><path fill="rgb(205,123,111)" stroke="rgb(205,123,111)" stroke-width="1" opacity="1" d="M 113.5 51 L 113.5 52 L 113.5 51 Z " /><path fill="rgb(205,123,111)" stroke="rgb(205,123,111)" stroke-width="1" opacity="1" d="M 111.5 52 L 112 53.5 L 111 53.5 L 111.5 52 Z " /><path fill="rgb(205,123,111)" stroke="rgb(205,123,111)" stroke-width="1" opacity="1" d="M 96.5 56 L 97 59.5 L 96 59.5 L 96.5 56 Z " /><path fill="rgb(205,123,111)" stroke="rgb(205,123,111)" stroke-width="1" opacity="1" d="M 16.5 58 L 16.5 59 L 16.5 58 Z " /><path fill="rgb(205,123,111)" stroke="rgb(205,123,111)" stroke-width="1" opacity="1" d="M 19.5 60 L 19.5 61 L 19.5 60 Z " /><path fill="rgb(205,123,111)" stroke="rgb(205,123,111)" stroke-width="1" opacity="1" d="M 16.5 61 L 17 62.5 L 16 62.5 L 16.5 61 Z " /><path fill="rgb(205,123,111)" stroke="rgb(205,123,111)" stroke-width="1" opacity="1" d="M 97.5 62 L 97.5 63 L 97.5 62 Z " /><path fill="rgb(205,123,111)" stroke="rgb(205,123,111)" stroke-width="1" opacity="1" d="M 19.5 63 L 19.5 64 L 19.5 63 Z " /><path fill="rgb(205,123,111)" stroke="rgb(205,123,111)" stroke-width="1" opacity="1" d="M 21.5 64 L 21.5 65 L 21.5 64 Z " /><path fill="rgb(205,123,111)" stroke="rgb(205,123,111)" stroke-width="1" opacity="1" d="M 98.5 64 L 98.5 65 L 98.5 64 Z " /><path fill="rgb(205,123,111)" stroke="rgb(205,123,111)" stroke-width="1" opacity="1" d="M 16.5 65 L 16.5 66 L 16.5 65 Z " /><path fill="rgb(205,123,111)" stroke="rgb(205,123,111)" stroke-width="1" opacity="1" d="M 94.5 65 L 94.5 66 L 94.5 65 Z " /><path fill="rgb(205,123,111)" stroke="rgb(205,123,111)" stroke-width="1" opacity="1" d="M 99.5 66 L 99.5 67 L 99.5 66 Z " /><path fill="rgb(205,123,111)" stroke="rgb(205,123,111)" stroke-width="1" opacity="1" d="M 30.5 69 L 30.5 70 L 30.5 69 Z " /><path fill="rgb(205,123,111)" stroke="rgb(205,123,111)" stroke-width="1" opacity="1" d="M 94.5 69 L 94.5 70 L 94.5 69 Z " /><path fill="rgb(205,123,111)" stroke="rgb(205,123,111)" stroke-width="1" opacity="1" d="M 100.5 69 L 100.5 70 L 100.5 69 Z " /><path fill="rgb(205,123,111)" stroke="rgb(205,123,111)" stroke-width="1" opacity="1" d="M 33.5 71 L 33.5 72 L 33.5 71 Z " /><path fill="rgb(205,123,111)" stroke="rgb(205,123,111)" stroke-width="1" opacity="1" d="M 92.5 71 L 92.5 72 L 92.5 71 Z " /><path fill="rgb(205,123,111)" stroke="rgb(205,123,111)" stroke-width="1" opacity="1" d="M 30.5 73 L 30.5 74 L 30.5 73 Z " /><path fill="rgb(205,123,111)" stroke="rgb(205,123,111)" stroke-width="1" opacity="1" d="M 34.5 73 L 34.5 74 L 34.5 73 Z " /><path fill="rgb(205,123,111)" stroke="rgb(205,123,111)" stroke-width="1" opacity="1" d="M 93.5 73 L 93.5 74 L 93.5 73 Z " /><path fill="rgb(205,123,111)" stroke="rgb(205,123,111)" stroke-width="1" opacity="1" d="M 104.5 73 L 104.5 74 L 104.5 73 Z " /><path fill="rgb(205,123,111)" stroke="rgb(205,123,111)" stroke-width="1" opacity="1" d="M 86.5 74 L 86.5 75 L 86.5 74 Z " /><path fill="rgb(205,123,111)" stroke="rgb(205,123,111)" stroke-width="1" opacity="1" d="M 28.5 75 L 28.5 76 L 28.5 75 Z " /><path fill="rgb(205,123,111)" stroke="rgb(205,123,111)" stroke-width="1" opacity="1" d="M 35.5 76 L 35.5 77 L 35.5 76 Z " /><path fill="rgb(205,123,111)" stroke="rgb(205,123,111)" stroke-width="1" opacity="1" d="M 36.5 78 L 36.5 79 L 36.5 78 Z " /><path fill="rgb(205,123,111)" stroke="rgb(205,123,111)" stroke-width="1" opacity="1" d="M 28.5 79 L 28.5 80 L 28.5 79 Z " /><path fill="rgb(205,123,111)" stroke="rgb(205,123,111)" stroke-width="1" opacity="1" d="M 107.5 79 L 107.5 80 L 107.5 79 Z " /><path fill="rgb(205,123,111)" stroke="rgb(205,123,111)" stroke-width="1" opacity="1" d="M 37.5 80 L 37.5 81 L 37.5 80 Z " /><path fill="rgb(205,123,111)" stroke="rgb(205,123,111)" stroke-width="1" opacity="1" d="M 87.5 80 L 87.5 81 L 87.5 80 Z " /><path fill="rgb(205,123,111)" stroke="rgb(205,123,111)" stroke-width="1" opacity="1" d="M 89.5 81 L 89.5 82 L 89.5 81 Z " /><path fill="rgb(205,123,111)" stroke="rgb(205,123,111)" stroke-width="1" opacity="1" d="M 101.5 81 L 105 81.5 L 101.5 82 L 101.5 81 Z " /><path fill="rgb(205,123,111)" stroke="rgb(205,123,111)" stroke-width="1" opacity="1" d="M 20.5 83 L 20.5 84 L 20.5 83 Z " /><path fill="rgb(205,123,111)" stroke="rgb(205,123,111)" stroke-width="1" opacity="1" d="M 21.5 89 L 21.5 90 L 21.5 89 Z " /><path fill="rgb(205,123,111)" stroke="rgb(205,123,111)" stroke-width="1" opacity="1" d="M 23.5 90 L 23.5 91 L 23.5 90 Z " /><path fill="rgb(205,123,111)" stroke="rgb(205,123,111)" stroke-width="1" opacity="1" d="M 38.5 90 L 38.5 91 L 38.5 90 Z " /><path fill="rgb(211,139,128)" stroke="rgb(211,139,128)" stroke-width="1" opacity="1" d="M 62.5 14 L 62.5 15 L 62.5 14 Z " /><path fill="rgb(211,139,128)" stroke="rgb(211,139,128)" stroke-width="1" opacity="1" d="M 65.5 14 L 65.5 15 L 65.5 14 Z " /><path fill="rgb(211,139,128)" stroke="rgb(211,139,128)" stroke-width="1" opacity="1" d="M 52.5 26 L 52.5 27 L 52.5 26 Z " /><path fill="rgb(211,139,128)" stroke="rgb(211,139,128)" stroke-width="1" opacity="1" d="M 54.5 33 L 55 113.5 L 54 113.5 L 54.5 33 Z " /><path fill="rgb(211,139,128)" stroke="rgb(211,139,128)" stroke-width="1" opacity="1" d="M 57.5 33 L 58 113.5 L 57 113.5 L 57.5 33 Z " /><path fill="rgb(211,139,128)" stroke="rgb(211,139,128)" stroke-width="1" opacity="1" d="M 73.5 34 L 73.5 35 L 73.5 34 Z " /><path fill="rgb(211,139,128)" stroke="rgb(211,139,128)" stroke-width="1" opacity="1" d="M 70.5 35 L 70.5 36 L 70.5 35 Z " /><path fill="rgb(211,139,128)" stroke="rgb(211,139,128)" stroke-width="1" opacity="1" d="M 73.5 36 L 73.5 37 L 73.5 36 Z " /><path fill="rgb(211,139,128)" stroke="rgb(211,139,128)" stroke-width="1" opacity="1" d="M 71.5 39 L 74 40.5 L 72.5 41 Q 70 40 71.5 39 Z " /><path fill="rgb(211,139,128)" stroke="rgb(211,139,128)" stroke-width="1" opacity="1" d="M 71.5 43 L 72 113.5 L 71 113.5 L 71.5 43 Z " /><path fill="rgb(211,139,128)" stroke="rgb(211,139,128)" stroke-width="1" opacity="1" d="M 106.5 50 L 106.5 51 L 106.5 50 Z " /><path fill="rgb(211,139,128)" stroke="rgb(211,139,128)" stroke-width="1" opacity="1" d="M 108.5 54 L 108.5 55 L 108.5 54 Z " /><path fill="rgb(211,139,128)" stroke="rgb(211,139,128)" stroke-width="1" opacity="1" d="M 113.5 54 L 113.5 55 L 113.5 54 Z " /><path fill="rgb(211,139,128)" stroke="rgb(211,139,128)" stroke-width="1" opacity="1" d="M 96.5 55 L 96.5 56 L 96.5 55 Z " /><path fill="rgb(211,139,128)" stroke="rgb(211,139,128)" stroke-width="1" opacity="1" d="M 98.5 55 L 99 59.5 L 98 59.5 L 98.5 55 Z " /><path fill="rgb(211,139,128)" stroke="rgb(211,139,128)" stroke-width="1" opacity="1" d="M 111.5 56 L 111.5 57 L 111.5 56 Z " /><path fill="rgb(211,139,128)" stroke="rgb(211,139,128)" stroke-width="1" opacity="1" d="M 20.5 58 L 20.5 59 L 20.5 58 Z " /><path fill="rgb(211,139,128)" stroke="rgb(211,139,128)" stroke-width="1" opacity="1" d="M 95.5 61 L 95.5 62 L 95.5 61 Z " /><path fill="rgb(211,139,128)" stroke="rgb(211,139,128)" stroke-width="1" opacity="1" d="M 99.5 62 L 99.5 63 L 99.5 62 Z " /><path fill="rgb(211,139,128)" stroke="rgb(211,139,128)" stroke-width="1" opacity="1" d="M 14.5 63 L 14.5 64 L 14.5 63 Z " /><path fill="rgb(211,139,128)" stroke="rgb(211,139,128)" stroke-width="1" opacity="1" d="M 30.5 64 L 31 68.5 L 30 68.5 L 30.5 64 Z " /><path fill="rgb(211,139,128)" stroke="rgb(211,139,128)" stroke-width="1" opacity="1" d="M 20.5 65 L 20.5 66 L 20.5 65 Z " /><path fill="rgb(211,139,128)" stroke="rgb(211,139,128)" stroke-width="1" opacity="1" d="M 101.5 66 L 101.5 67 L 101.5 66 Z " /><path fill="rgb(211,139,128)" stroke="rgb(211,139,128)" stroke-width="1" opacity="1" d="M 93.5 67 L 93.5 68 L 93.5 67 Z " /><path fill="rgb(211,139,128)" stroke="rgb(211,139,128)" stroke-width="1" opacity="1" d="M 102.5 69 L 102.5 70 L 102.5 69 Z " /><path fill="rgb(211,139,128)" stroke="rgb(211,139,128)" stroke-width="1" opacity="1" d="M 94.5 73 L 102 73.5 L 94.5 74 L 94.5 73 Z " /><path fill="rgb(211,139,128)" stroke="rgb(211,139,128)" stroke-width="1" opacity="1" d="M 106.5 73 L 108 73.5 L 106.5 74 L 106.5 73 Z " /><path fill="rgb(211,139,128)" stroke="rgb(211,139,128)" stroke-width="1" opacity="1" d="M 30.5 74 L 30.5 75 L 30.5 74 Z " /><path fill="rgb(211,139,128)" stroke="rgb(211,139,128)" stroke-width="1" opacity="1" d="M 33.5 75 L 33.5 76 L 33.5 75 Z " /><path fill="rgb(211,139,128)" stroke="rgb(211,139,128)" stroke-width="1" opacity="1" d="M 87.5 76 L 108 76.5 L 87.5 77 L 87.5 76 Z " /><path fill="rgb(211,139,128)" stroke="rgb(211,139,128)" stroke-width="1" opacity="1" d="M 28.5 80 L 28.5 81 L 28.5 80 Z " /><path fill="rgb(211,139,128)" stroke="rgb(211,139,128)" stroke-width="1" opacity="1" d="M 35.5 80 L 35.5 81 L 35.5 80 Z " /><path fill="rgb(211,139,128)" stroke="rgb(211,139,128)" stroke-width="1" opacity="1" d="M 25.5 82 L 25.5 83 L 25.5 82 Z " /><path fill="rgb(211,139,128)" stroke="rgb(211,139,128)" stroke-width="1" opacity="1" d="M 38.5 82 L 38.5 83 L 38.5 82 Z " /><path fill="rgb(211,139,128)" stroke="rgb(211,139,128)" stroke-width="1" opacity="1" d="M 39.5 90 L 39.5 91 L 39.5 90 Z " /></svg>