<svg width="32" height="23" version="1.1" xmlns="http://www.w3.org/2000/svg" desc="Created with imagetracer.js version 1.2.6" ><path fill="rgb(156,142,141)" stroke="rgb(156,142,141)" stroke-width="1" opacity="0.3333333333333333" d="M 16.5 0 L 16.5 1 L 16.5 0 Z " /><path fill="rgb(156,142,141)" stroke="rgb(156,142,141)" stroke-width="1" opacity="0.3333333333333333" d="M 12.5 1 L 12.5 2 L 12.5 1 Z " /><path fill="rgb(156,142,141)" stroke="rgb(156,142,141)" stroke-width="1" opacity="0.3333333333333333" d="M 19.5 1 L 19.5 2 L 19.5 1 Z " /><path fill="rgb(156,142,141)" stroke="rgb(156,142,141)" stroke-width="1" opacity="0.3333333333333333" d="M 10.5 2 L 10.5 3 L 10.5 2 Z " /><path fill="rgb(156,142,141)" stroke="rgb(156,142,141)" stroke-width="1" opacity="0.3333333333333333" d="M 21.5 2 L 21.5 3 L 21.5 2 Z " /><path fill="rgb(156,142,141)" stroke="rgb(156,142,141)" stroke-width="1" opacity="0.3333333333333333" d="M 7.5 3 L 7.5 4 L 7.5 3 Z " /><path fill="rgb(156,142,141)" stroke="rgb(156,142,141)" stroke-width="1" opacity="0.3333333333333333" d="M 24.5 3 L 24.5 4 L 24.5 3 Z " /><path fill="rgb(156,142,141)" stroke="rgb(156,142,141)" stroke-width="1" opacity="0.3333333333333333" d="M 5.5 4 L 5.5 5 L 5.5 4 Z " /><path fill="rgb(156,142,141)" stroke="rgb(156,142,141)" stroke-width="1" opacity="0.3333333333333333" d="M 26.5 4 L 26.5 5 L 26.5 4 Z " /><path fill="rgb(156,142,141)" stroke="rgb(156,142,141)" stroke-width="1" opacity="0.3333333333333333" d="M 3.5 5 L 3.5 6 L 3.5 5 Z " /><path fill="rgb(156,142,141)" stroke="rgb(156,142,141)" stroke-width="1" opacity="0.3333333333333333" d="M 28.5 5 L 28.5 6 L 28.5 5 Z " /><path fill="rgb(156,142,141)" stroke="rgb(156,142,141)" stroke-width="1" opacity="0.3333333333333333" d="M 1.5 20 L 3 20.5 L 1.5 21 L 1.5 20 Z " /><path fill="rgb(156,142,141)" stroke="rgb(156,142,141)" stroke-width="1" opacity="0.3333333333333333" d="M 30.5 20 L 30.5 21 L 30.5 20 Z " /><path fill="rgb(100,38,35)" stroke="rgb(100,38,35)" stroke-width="1" opacity="0.011764705882352941" d="M 11.5 1 L 11.5 2 L 11.5 1 Z " /><path fill="rgb(100,38,35)" stroke="rgb(100,38,35)" stroke-width="1" opacity="0.011764705882352941" d="M 20.5 1 L 20.5 2 L 20.5 1 Z " /><path fill="rgb(100,38,35)" stroke="rgb(100,38,35)" stroke-width="1" opacity="0.011764705882352941" d="M 26.5 3 L 26.5 4 L 26.5 3 Z " /><path fill="rgb(100,38,35)" stroke="rgb(100,38,35)" stroke-width="1" opacity="0.011764705882352941" d="M 30.5 12 L 31 18.5 L 30 18.5 L 30.5 12 Z " /><path fill="rgb(1,1,1)" stroke="rgb(1,1,1)" stroke-width="1" opacity="0.043137254901960784" d="M 6.5 3 L 6.5 4 L 6.5 3 Z " /><path fill="rgb(1,1,1)" stroke="rgb(1,1,1)" stroke-width="1" opacity="0.043137254901960784" d="M 25.5 3 L 25.5 4 L 25.5 3 Z " /><path fill="rgb(1,1,1)" stroke="rgb(1,1,1)" stroke-width="1" opacity="0.043137254901960784" d="M 29.5 21 L 30 22.5 L 29 22.5 L 29.5 21 Z " /><path fill="rgb(1,1,1)" stroke="rgb(1,1,1)" stroke-width="1" opacity="0.043137254901960784" d="M 9.5 22 L 9.5 23 L 9.5 22 Z " /><path fill="rgb(1,1,1)" stroke="rgb(1,1,1)" stroke-width="1" opacity="0.043137254901960784" d="M 17.5 22 L 17.5 23 L 17.5 22 Z " /><path fill="rgb(0,0,0)" stroke="rgb(0,0,0)" stroke-width="1" opacity="0" d="M 0 0 L 14 0.5 L 10.5 1 L 8.5 3 L 5.5 3 L 3.5 5 L 1 5 L 1 20.5 L 2 23 L 0 22.5 L 0 0 Z " /><path fill="rgb(0,0,0)" stroke="rgb(0,0,0)" stroke-width="1" opacity="0" d="M 18.5 0 L 32 0 L 32 23 Q 29.33 24.13 30 21.5 L 31 20.5 L 31 5 Q 27.58 5.75 26.5 3 L 23.5 3 L 21.5 1 L 18.5 1 L 18.5 0 Z " /><path fill="rgb(135,71,68)" stroke="rgb(135,71,68)" stroke-width="1" opacity="0.043137254901960784" d="M 14.5 0 L 14.5 1 L 14.5 0 Z " /><path fill="rgb(135,71,68)" stroke="rgb(135,71,68)" stroke-width="1" opacity="0.043137254901960784" d="M 17.5 0 L 17.5 1 L 17.5 0 Z " /><path fill="rgb(135,71,68)" stroke="rgb(135,71,68)" stroke-width="1" opacity="0.043137254901960784" d="M 21.5 1 Q 24 2 22.5 3 Q 20 2 21.5 1 Z " /><path fill="rgb(135,71,68)" stroke="rgb(135,71,68)" stroke-width="1" opacity="0.043137254901960784" d="M 9.5 2 L 9.5 3 L 9.5 2 Z " /><path fill="rgb(135,71,68)" stroke="rgb(135,71,68)" stroke-width="1" opacity="0.043137254901960784" d="M 5.5 3 Q 7 4 4.5 5 Q 3 4 5.5 3 Z " /><path fill="rgb(135,71,68)" stroke="rgb(135,71,68)" stroke-width="1" opacity="0.043137254901960784" d="M 27.5 4 L 27.5 5 L 27.5 4 Z " /><path fill="rgb(135,71,68)" stroke="rgb(135,71,68)" stroke-width="1" opacity="0.043137254901960784" d="M 1.5 5 L 3 5.5 L 1.5 6 L 1.5 5 Z " /><path fill="rgb(135,71,68)" stroke="rgb(135,71,68)" stroke-width="1" opacity="0.043137254901960784" d="M 29.5 5 L 31 5.5 L 29.5 6 L 29.5 5 Z " /><path fill="rgb(135,71,68)" stroke="rgb(135,71,68)" stroke-width="1" opacity="0.043137254901960784" d="M 1.5 8 L 2 19.5 L 1 19.5 L 1.5 8 Z " /><path fill="rgb(135,71,68)" stroke="rgb(135,71,68)" stroke-width="1" opacity="0.043137254901960784" d="M 30.5 8 L 31 11.5 L 30 11.5 L 30.5 8 Z " /><path fill="rgb(135,71,68)" stroke="rgb(135,71,68)" stroke-width="1" opacity="0.043137254901960784" d="M 30.5 19 L 30.5 20 L 30.5 19 Z " /><path fill="rgb(244,241,240)" stroke="rgb(244,241,240)" stroke-width="1" opacity="0.996078431372549" d="M 10.5 3 L 10.5 4 L 10.5 3 Z " /><path fill="rgb(244,241,240)" stroke="rgb(244,241,240)" stroke-width="1" opacity="0.996078431372549" d="M 21.5 3 L 21.5 4 L 21.5 3 Z " /><path fill="rgb(244,241,240)" stroke="rgb(244,241,240)" stroke-width="1" opacity="0.996078431372549" d="M 18.5 4 L 18.5 5 L 18.5 4 Z " /><path fill="rgb(244,241,240)" stroke="rgb(244,241,240)" stroke-width="1" opacity="0.996078431372549" d="M 4 6 Q 7 5 6 8 Q 3 9 4 6 Z " /><path fill="rgb(244,241,240)" stroke="rgb(244,241,240)" stroke-width="1" opacity="0.996078431372549" d="M 26.5 6 Q 29.13 5.33 28 8 L 25 7.5 L 26.5 6 Z " /><path fill="rgb(244,241,240)" stroke="rgb(244,241,240)" stroke-width="1" opacity="0.996078431372549" d="M 16.5 9 L 18 11.5 Q 17 13 16 10.5 L 16.5 9 Z " /><path fill="rgb(244,241,240)" stroke="rgb(244,241,240)" stroke-width="1" opacity="0.996078431372549" d="M 22.5 9 L 23 18.5 L 22 18.5 L 22.5 9 Z " /><path fill="rgb(244,241,240)" stroke="rgb(244,241,240)" stroke-width="1" opacity="0.996078431372549" d="M 9.5 19 L 9.5 20 L 9.5 19 Z " /><path fill="rgb(202,191,171)" stroke="rgb(202,191,171)" stroke-width="1" opacity="1" d="M 14.5 3 L 16.5 4 L 18 3.5 L 18 5 L 14 5 L 14.5 3 Z " /><path fill="rgb(202,191,171)" stroke="rgb(202,191,171)" stroke-width="1" opacity="1" d="M 10.5 8 L 10.5 9 L 10.5 8 Z " /><path fill="rgb(202,191,171)" stroke="rgb(202,191,171)" stroke-width="1" opacity="1" d="M 15 12 Q 18 11 17 14 Q 14 15 15 12 Z " /><path fill="rgb(202,191,171)" stroke="rgb(202,191,171)" stroke-width="1" opacity="1" d="M 15.5 16 L 18 17.5 L 16.5 17 L 14.5 18 Q 13 17 15.5 16 Z " /><path fill="rgb(239,238,237)" stroke="rgb(239,238,237)" stroke-width="1" opacity="1" d="M 13.5 4 L 13.5 5 L 13.5 4 Z " /><path fill="rgb(239,238,237)" stroke="rgb(239,238,237)" stroke-width="1" opacity="1" d="M 6.5 6 L 7 7.5 L 6 7.5 L 6.5 6 Z " /><path fill="rgb(239,238,237)" stroke="rgb(239,238,237)" stroke-width="1" opacity="1" d="M 25.5 6 L 25.5 7 L 25.5 6 Z " /><path fill="rgb(239,238,237)" stroke="rgb(239,238,237)" stroke-width="1" opacity="1" d="M 15.5 9 L 16 10.5 L 15 10.5 L 15.5 9 Z " /><path fill="rgb(239,238,237)" stroke="rgb(239,238,237)" stroke-width="1" opacity="1" d="M 14.5 14 L 14.5 15 L 14.5 14 Z " /><path fill="rgb(239,238,237)" stroke="rgb(239,238,237)" stroke-width="1" opacity="1" d="M 17.5 14 L 17.5 15 L 17.5 14 Z " /><path fill="rgb(235,235,235)" stroke="rgb(235,235,235)" stroke-width="1" opacity="1" d="M 6.5 5 L 6.5 6 L 6.5 5 Z " /><path fill="rgb(235,235,235)" stroke="rgb(235,235,235)" stroke-width="1" opacity="1" d="M 18.5 5 L 18.5 6 L 18.5 5 Z " /><path fill="rgb(235,235,235)" stroke="rgb(235,235,235)" stroke-width="1" opacity="1" d="M 28.5 7 L 28.5 8 L 28.5 7 Z " /><path fill="rgb(235,235,235)" stroke="rgb(235,235,235)" stroke-width="1" opacity="1" d="M 15.5 11 L 15.5 12 L 15.5 11 Z " /><path fill="rgb(233,232,231)" stroke="rgb(233,232,231)" stroke-width="1" opacity="1" d="M 14.5 5 L 18 5.5 L 14.5 6 L 14.5 5 Z " /><path fill="rgb(233,232,231)" stroke="rgb(233,232,231)" stroke-width="1" opacity="1" d="M 25.5 5 Q 27 6 24.5 7 Q 23 6 25.5 5 Z " /><path fill="rgb(233,232,231)" stroke="rgb(233,232,231)" stroke-width="1" opacity="1" d="M 3.5 6 L 3.5 7 L 3.5 6 Z " /><path fill="rgb(233,232,231)" stroke="rgb(233,232,231)" stroke-width="1" opacity="1" d="M 15.5 14 L 17 14.5 L 15.5 15 L 15.5 14 Z " /><path fill="rgb(230,230,230)" stroke="rgb(230,230,230)" stroke-width="1" opacity="0.9725490196078431" d="M 12.5 2 L 12.5 3 L 12.5 2 Z " /><path fill="rgb(230,230,230)" stroke="rgb(230,230,230)" stroke-width="1" opacity="0.9725490196078431" d="M 19.5 2 L 19.5 3 L 19.5 2 Z " /><path fill="rgb(236,236,236)" stroke="rgb(236,236,236)" stroke-width="1" opacity="1" d="M 8.5 5 L 14 5.5 L 8.5 6 L 8.5 5 Z " /><path fill="rgb(236,236,236)" stroke="rgb(236,236,236)" stroke-width="1" opacity="1" d="M 21.5 5 L 24 5.5 L 21.5 6 L 21.5 5 Z " /><path fill="rgb(236,236,236)" stroke="rgb(236,236,236)" stroke-width="1" opacity="1" d="M 3.5 7 L 3.5 8 L 3.5 7 Z " /><path fill="rgb(237,237,237)" stroke="rgb(237,237,237)" stroke-width="1" opacity="1" d="M 7.5 5 L 7.5 6 L 7.5 5 Z " /><path fill="rgb(237,237,237)" stroke="rgb(237,237,237)" stroke-width="1" opacity="1" d="M 19.5 5 L 21 5.5 L 19.5 6 L 19.5 5 Z " /><path fill="rgb(237,237,237)" stroke="rgb(237,237,237)" stroke-width="1" opacity="1" d="M 24.5 5 L 24.5 6 L 24.5 5 Z " /><path fill="rgb(237,237,237)" stroke="rgb(237,237,237)" stroke-width="1" opacity="1" d="M 16.5 11 L 16.5 12 L 16.5 11 Z " /><path fill="rgb(171,68,62)" stroke="rgb(171,68,62)" stroke-width="1" opacity="0.44313725490196076" d="M 2.5 8 L 3 19.5 L 2 19.5 L 2.5 8 Z " /><path fill="rgb(171,68,62)" stroke="rgb(171,68,62)" stroke-width="1" opacity="0.44313725490196076" d="M 29.5 8 L 30 19.5 L 29 19.5 L 29.5 8 Z " /><path fill="rgb(215,215,215)" stroke="rgb(215,215,215)" stroke-width="1" opacity="0.7450980392156863" d="M 17.5 1 L 17.5 2 L 17.5 1 Z " /><path fill="rgb(215,215,215)" stroke="rgb(215,215,215)" stroke-width="1" opacity="0.7450980392156863" d="M 11.5 2 L 11.5 3 L 11.5 2 Z " /><path fill="rgb(215,215,215)" stroke="rgb(215,215,215)" stroke-width="1" opacity="0.7450980392156863" d="M 9.5 3 L 9.5 4 L 9.5 3 Z " /><path fill="rgb(215,215,215)" stroke="rgb(215,215,215)" stroke-width="1" opacity="0.7450980392156863" d="M 22.5 3 L 22.5 4 L 22.5 3 Z " /><path fill="rgb(239,234,234)" stroke="rgb(239,234,234)" stroke-width="1" opacity="1" d="M 22.5 19 L 22.5 20 L 22.5 19 Z " /><path fill="rgb(184,90,85)" stroke="rgb(184,90,85)" stroke-width="1" opacity="1" d="M 8.5 9 L 9 18.5 Q 8 21 3.5 20 L 3.5 19 L 8 19 L 8.5 9 Z " /><path fill="rgb(184,90,85)" stroke="rgb(184,90,85)" stroke-width="1" opacity="1" d="M 23.5 9 L 24 19 L 29 19.5 L 24.5 20 L 23 18.5 L 23.5 9 Z " /><path fill="rgb(184,90,85)" stroke="rgb(184,90,85)" stroke-width="1" opacity="1" d="M 18.5 15 L 19 19 L 21 19.5 L 19.5 20 Q 16.81 18.81 18.5 15 Z " /><path fill="rgb(184,90,85)" stroke="rgb(184,90,85)" stroke-width="1" opacity="1" d="M 11.5 19 L 13 19.5 L 11.5 20 L 11.5 19 Z " /><path fill="rgb(169,86,82)" stroke="rgb(169,86,82)" stroke-width="1" opacity="1" d="M 3.5 8 L 8 8.5 L 3.5 9 L 3.5 8 Z " /><path fill="rgb(169,86,82)" stroke="rgb(169,86,82)" stroke-width="1" opacity="1" d="M 11.5 8 L 13 8.5 L 11.5 9 L 11.5 8 Z " /><path fill="rgb(169,86,82)" stroke="rgb(169,86,82)" stroke-width="1" opacity="1" d="M 19.5 8 L 21 8.5 L 19.5 9 L 19.5 8 Z " /><path fill="rgb(169,86,82)" stroke="rgb(169,86,82)" stroke-width="1" opacity="1" d="M 24.5 8 L 29 8.5 L 24.5 9 L 24.5 8 Z " /><path fill="rgb(192,192,192)" stroke="rgb(192,192,192)" stroke-width="1" opacity="0.9882352941176471" d="M 13.5 6 Q 15 7 12.5 8 Q 11 7 13.5 6 Z " /><path fill="rgb(192,192,192)" stroke="rgb(192,192,192)" stroke-width="1" opacity="0.9882352941176471" d="M 19.5 6 L 21 6.5 L 19.5 7 L 19.5 6 Z " /><path fill="rgb(192,192,192)" stroke="rgb(192,192,192)" stroke-width="1" opacity="0.9882352941176471" d="M 10.5 7 L 10.5 8 L 10.5 7 Z " /><path fill="rgb(192,192,192)" stroke="rgb(192,192,192)" stroke-width="1" opacity="0.9882352941176471" d="M 16.5 7 L 18 7.5 L 16.5 8 L 16.5 7 Z " /><path fill="rgb(192,192,192)" stroke="rgb(192,192,192)" stroke-width="1" opacity="0.9882352941176471" d="M 22.5 7 L 24 7.5 L 22.5 8 L 22.5 7 Z " /><path fill="rgb(226,226,226)" stroke="rgb(226,226,226)" stroke-width="1" opacity="0.9647058823529412" d="M 7.5 4 L 7.5 5 L 7.5 4 Z " /><path fill="rgb(226,226,226)" stroke="rgb(226,226,226)" stroke-width="1" opacity="0.9647058823529412" d="M 24.5 4 L 24.5 5 L 24.5 4 Z " /><path fill="rgb(226,226,226)" stroke="rgb(226,226,226)" stroke-width="1" opacity="0.9647058823529412" d="M 7.5 6 L 7.5 7 L 7.5 6 Z " /><path fill="rgb(226,226,226)" stroke="rgb(226,226,226)" stroke-width="1" opacity="0.9647058823529412" d="M 14.5 8 L 14.5 9 L 14.5 8 Z " /><path fill="rgb(225,222,220)" stroke="rgb(225,222,220)" stroke-width="1" opacity="0.996078431372549" d="M 14.5 1 L 14.5 2 L 14.5 1 Z " /><path fill="rgb(225,222,220)" stroke="rgb(225,222,220)" stroke-width="1" opacity="0.996078431372549" d="M 16.5 2 L 16.5 3 L 16.5 2 Z " /><path fill="rgb(225,222,220)" stroke="rgb(225,222,220)" stroke-width="1" opacity="0.996078431372549" d="M 5.5 5 L 5.5 6 L 5.5 5 Z " /><path fill="rgb(225,222,220)" stroke="rgb(225,222,220)" stroke-width="1" opacity="0.996078431372549" d="M 26.5 5 L 26.5 6 L 26.5 5 Z " /><path fill="rgb(225,222,220)" stroke="rgb(225,222,220)" stroke-width="1" opacity="0.996078431372549" d="M 28.5 6 L 28.5 7 L 28.5 6 Z " /><path fill="rgb(225,222,220)" stroke="rgb(225,222,220)" stroke-width="1" opacity="0.996078431372549" d="M 24.5 7 L 24.5 8 L 24.5 7 Z " /><path fill="rgb(225,222,220)" stroke="rgb(225,222,220)" stroke-width="1" opacity="0.996078431372549" d="M 9.5 8 L 9.5 9 L 9.5 8 Z " /><path fill="rgb(225,222,220)" stroke="rgb(225,222,220)" stroke-width="1" opacity="0.996078431372549" d="M 17.5 8 L 17.5 9 L 17.5 8 Z " /><path fill="rgb(225,222,220)" stroke="rgb(225,222,220)" stroke-width="1" opacity="0.996078431372549" d="M 22.5 8 L 22.5 9 L 22.5 8 Z " /><path fill="rgb(212,201,196)" stroke="rgb(212,201,196)" stroke-width="1" opacity="1" d="M 8.5 6 L 13 6.5 L 8.5 7 L 8.5 6 Z " /><path fill="rgb(212,201,196)" stroke="rgb(212,201,196)" stroke-width="1" opacity="1" d="M 14.5 6 L 19 6.5 L 14.5 7 L 14.5 6 Z " /><path fill="rgb(212,201,196)" stroke="rgb(212,201,196)" stroke-width="1" opacity="1" d="M 21.5 6 L 24 6.5 L 21.5 7 L 21.5 6 Z " /><path fill="rgb(212,201,196)" stroke="rgb(212,201,196)" stroke-width="1" opacity="1" d="M 21.5 8 L 21.5 9 L 21.5 8 Z " /><path fill="rgb(212,201,196)" stroke="rgb(212,201,196)" stroke-width="1" opacity="1" d="M 14.5 16 L 14.5 17 L 14.5 16 Z " /><path fill="rgb(212,201,196)" stroke="rgb(212,201,196)" stroke-width="1" opacity="1" d="M 17.5 16 L 17.5 17 L 17.5 16 Z " /><path fill="rgb(253,253,253)" stroke="rgb(253,253,253)" stroke-width="1" opacity="0" d="M 10.5 1 L 10.5 2 L 10.5 1 Z " /><path fill="rgb(253,253,253)" stroke="rgb(253,253,253)" stroke-width="1" opacity="0" d="M 1.5 6 L 2 7.5 L 1 7.5 L 1.5 6 Z " /><path fill="rgb(253,253,253)" stroke="rgb(253,253,253)" stroke-width="1" opacity="0" d="M 30.5 6 L 31 7.5 L 30 7.5 L 30.5 6 Z " /><path fill="rgb(251,247,247)" stroke="rgb(251,247,247)" stroke-width="1" opacity="1" d="M 15.5 1 L 19 2.5 L 17.5 3 L 15.5 2 L 13.5 4 L 13 3.5 L 15.5 1 Z " /><path fill="rgb(251,247,247)" stroke="rgb(251,247,247)" stroke-width="1" opacity="1" d="M 8.5 4 L 8.5 5 L 8.5 4 Z " /><path fill="rgb(251,247,247)" stroke="rgb(251,247,247)" stroke-width="1" opacity="1" d="M 23.5 4 L 23.5 5 L 23.5 4 Z " /><path fill="rgb(251,247,247)" stroke="rgb(251,247,247)" stroke-width="1" opacity="1" d="M 9.5 9 L 10 18.5 L 9 18.5 L 9.5 9 Z " /><path fill="rgb(251,247,247)" stroke="rgb(251,247,247)" stroke-width="1" opacity="1" d="M 14.5 11 L 15 12.5 L 14 12.5 L 14.5 11 Z " /><path fill="rgb(251,247,247)" stroke="rgb(251,247,247)" stroke-width="1" opacity="1" d="M 17.5 12 L 17.5 13 L 17.5 12 Z " /><path fill="rgb(229,212,211)" stroke="rgb(229,212,211)" stroke-width="1" opacity="1" d="M 15.5 2 L 15.5 3 L 15.5 2 Z " /><path fill="rgb(229,212,211)" stroke="rgb(229,212,211)" stroke-width="1" opacity="1" d="M 7.5 7 L 7.5 8 L 7.5 7 Z " /><path fill="rgb(170,53,47)" stroke="rgb(170,53,47)" stroke-width="1" opacity="1" d="M 3.5 9 L 5 9.5 L 3.5 10 L 3.5 9 Z " /><path fill="rgb(170,53,47)" stroke="rgb(170,53,47)" stroke-width="1" opacity="1" d="M 28.5 9 L 28.5 10 L 28.5 9 Z " /><path fill="rgb(170,53,47)" stroke="rgb(170,53,47)" stroke-width="1" opacity="1" d="M 12.5 15 L 13 17.5 L 12 17.5 L 12.5 15 Z " /><path fill="rgb(170,53,47)" stroke="rgb(170,53,47)" stroke-width="1" opacity="1" d="M 28.5 18 L 28.5 19 L 28.5 18 Z " /><path fill="rgb(170,54,48)" stroke="rgb(170,54,48)" stroke-width="1" opacity="1" d="M 11.5 9 L 12 12.5 L 11 12.5 L 11.5 9 Z " /><path fill="rgb(170,54,48)" stroke="rgb(170,54,48)" stroke-width="1" opacity="1" d="M 3 10 L 7 10 L 7 18 L 3 18 L 3 10 Z " /><path fill="rgb(170,54,48)" stroke="rgb(170,54,48)" stroke-width="1" opacity="1" d="M 25 10 L 29 10 L 29 18 L 25 18 L 25 10 Z " /><path fill="rgb(170,54,48)" stroke="rgb(170,54,48)" stroke-width="1" opacity="1" d="M 11.5 14 L 12 15.5 L 11 15.5 L 11.5 14 Z " /><path fill="rgb(170,54,48)" stroke="rgb(170,54,48)" stroke-width="1" opacity="1" d="M 11.5 17 L 12 18.5 L 11 18.5 L 11.5 17 Z " /><path fill="rgb(169,49,43)" stroke="rgb(169,49,43)" stroke-width="1" opacity="1" d="M 7.5 9 L 7.5 10 L 7.5 9 Z " /><path fill="rgb(169,49,43)" stroke="rgb(169,49,43)" stroke-width="1" opacity="1" d="M 12.5 9 L 12.5 10 L 12.5 9 Z " /><path fill="rgb(169,49,43)" stroke="rgb(169,49,43)" stroke-width="1" opacity="1" d="M 24.5 9 L 24.5 10 L 24.5 9 Z " /><path fill="rgb(169,49,43)" stroke="rgb(169,49,43)" stroke-width="1" opacity="1" d="M 19.5 11 L 20 12.5 L 19 12.5 L 19.5 11 Z " /><path fill="rgb(169,49,43)" stroke="rgb(169,49,43)" stroke-width="1" opacity="1" d="M 19.5 14 L 19.5 15 L 19.5 14 Z " /><path fill="rgb(169,49,43)" stroke="rgb(169,49,43)" stroke-width="1" opacity="1" d="M 19.5 18 L 19.5 19 L 19.5 18 Z " /><path fill="rgb(228,191,189)" stroke="rgb(228,191,189)" stroke-width="1" opacity="1" d="M 10.5 9 L 11 17.5 L 10 17.5 L 10.5 9 Z " /><path fill="rgb(228,191,189)" stroke="rgb(228,191,189)" stroke-width="1" opacity="1" d="M 10.5 19 L 10.5 20 L 10.5 19 Z " /><path fill="rgb(254,254,254)" stroke="rgb(254,254,254)" stroke-width="1" opacity="1" d="M 13.5 2 L 13.5 3 L 13.5 2 Z " /><path fill="rgb(254,254,254)" stroke="rgb(254,254,254)" stroke-width="1" opacity="1" d="M 11.5 3 L 11.5 4 L 11.5 3 Z " /><path fill="rgb(254,254,254)" stroke="rgb(254,254,254)" stroke-width="1" opacity="1" d="M 18.5 3 L 18.5 4 L 18.5 3 Z " /><path fill="rgb(254,254,254)" stroke="rgb(254,254,254)" stroke-width="1" opacity="1" d="M 20.5 3 L 20.5 4 L 20.5 3 Z " /><path fill="rgb(254,254,254)" stroke="rgb(254,254,254)" stroke-width="1" opacity="1" d="M 17.5 9 L 18 10.5 L 17 10.5 L 17.5 9 Z " /><path fill="rgb(255,255,255)" stroke="rgb(255,255,255)" stroke-width="1" opacity="1" d="M 12.5 3 L 13 5 L 9 4.5 L 12.5 3 Z " /><path fill="rgb(255,255,255)" stroke="rgb(255,255,255)" stroke-width="1" opacity="1" d="M 19.5 3 L 23 4.5 L 19 5 L 19.5 3 Z " /><path fill="rgb(255,255,255)" stroke="rgb(255,255,255)" stroke-width="1" opacity="1" d="M 14.5 9 L 15 10.5 L 14 10.5 L 14.5 9 Z " /><path fill="rgb(255,255,255)" stroke="rgb(255,255,255)" stroke-width="1" opacity="1" d="M 14.5 13 L 14.5 14 L 14.5 13 Z " /><path fill="rgb(255,255,255)" stroke="rgb(255,255,255)" stroke-width="1" opacity="1" d="M 17.5 13 L 17.5 14 L 17.5 13 Z " /><path fill="rgb(238,214,213)" stroke="rgb(238,214,213)" stroke-width="1" opacity="1" d="M 21.5 9 L 22 19.5 L 21 19.5 L 21.5 9 Z " /><path fill="rgb(171,168,161)" stroke="rgb(171,168,161)" stroke-width="1" opacity="1" d="M 8.5 7 L 10 7.5 L 8.5 8 L 8.5 7 Z " /><path fill="rgb(171,168,161)" stroke="rgb(171,168,161)" stroke-width="1" opacity="1" d="M 11.5 7 L 11.5 8 L 11.5 7 Z " /><path fill="rgb(171,168,161)" stroke="rgb(171,168,161)" stroke-width="1" opacity="1" d="M 13.5 7 Q 16.5 6.5 17 8.5 L 15.5 9 L 13 7.5 L 13.5 7 Z " /><path fill="rgb(171,168,161)" stroke="rgb(171,168,161)" stroke-width="1" opacity="1" d="M 18.5 7 L 22 7.5 L 18.5 8 L 18.5 7 Z " /><path fill="rgb(171,168,161)" stroke="rgb(171,168,161)" stroke-width="1" opacity="1" d="M 15.5 17 L 17 17.5 L 15.5 18 L 15.5 17 Z " /><path fill="rgb(189,150,132)" stroke="rgb(189,150,132)" stroke-width="1" opacity="1" d="M 15.5 3 L 17 3.5 L 15.5 4 L 15.5 3 Z " /><path fill="rgb(189,150,132)" stroke="rgb(189,150,132)" stroke-width="1" opacity="1" d="M 13.5 8 L 14 15 L 18 15.5 L 14.5 16 L 13 14.5 L 13.5 8 Z " /><path fill="rgb(189,150,132)" stroke="rgb(189,150,132)" stroke-width="1" opacity="1" d="M 18.5 8 L 18.5 9 L 18.5 8 Z " /><path fill="rgb(189,150,132)" stroke="rgb(189,150,132)" stroke-width="1" opacity="1" d="M 13.5 19 L 18 19.5 L 13.5 20 L 13.5 19 Z " /><path fill="rgb(169,51,45)" stroke="rgb(169,51,45)" stroke-width="1" opacity="1" d="M 5.5 9 L 8 10.5 L 8 17.5 L 6.5 19 L 3 18.5 L 7 18 L 7 10.5 L 5.5 10 L 5.5 9 Z " /><path fill="rgb(169,51,45)" stroke="rgb(169,51,45)" stroke-width="1" opacity="1" d="M 25.5 9 L 28 9.5 L 25 10 L 25 18 L 27.5 18 L 27.5 19 Q 24.5 19.5 24 17.5 L 24 10.5 L 25.5 9 Z " /><path fill="rgb(169,51,45)" stroke="rgb(169,51,45)" stroke-width="1" opacity="1" d="M 12.5 10 L 13 14.5 L 12 14.5 L 12.5 10 Z " /><path fill="rgb(169,51,45)" stroke="rgb(169,51,45)" stroke-width="1" opacity="1" d="M 19.5 15 L 20 17.5 L 19 17.5 L 19.5 15 Z " /><path fill="rgb(169,51,45)" stroke="rgb(169,51,45)" stroke-width="1" opacity="1" d="M 12.5 18 L 12.5 19 L 12.5 18 Z " /><path fill="rgb(172,59,53)" stroke="rgb(172,59,53)" stroke-width="1" opacity="1" d="M 20.5 9 L 21 18.5 L 20 18.5 L 20.5 9 Z " /><path fill="rgb(172,59,53)" stroke="rgb(172,59,53)" stroke-width="1" opacity="1" d="M 11.5 13 L 11.5 14 L 11.5 13 Z " /><path fill="rgb(172,59,53)" stroke="rgb(172,59,53)" stroke-width="1" opacity="1" d="M 11.5 16 L 11.5 17 L 11.5 16 Z " /><path fill="rgb(168,48,41)" stroke="rgb(168,48,41)" stroke-width="1" opacity="1" d="M 19.5 9 L 19.5 10 L 19.5 9 Z " /><path fill="rgb(228,190,189)" stroke="rgb(228,190,189)" stroke-width="1" opacity="1" d="M 10.5 18 L 10.5 19 L 10.5 18 Z " /><path fill="rgb(156,137,91)" stroke="rgb(156,137,91)" stroke-width="1" opacity="1" d="M 14.5 18 L 18 18.5 L 14.5 19 L 14.5 18 Z " /><path fill="rgb(190,118,112)" stroke="rgb(190,118,112)" stroke-width="1" opacity="1" d="M 8.5 8 L 8.5 9 L 8.5 8 Z " /><path fill="rgb(190,118,112)" stroke="rgb(190,118,112)" stroke-width="1" opacity="1" d="M 23.5 8 L 23.5 9 L 23.5 8 Z " /><path fill="rgb(190,118,112)" stroke="rgb(190,118,112)" stroke-width="1" opacity="1" d="M 18.5 9 L 19 14.5 L 18 14.5 L 18.5 9 Z " /><path fill="rgb(190,118,112)" stroke="rgb(190,118,112)" stroke-width="1" opacity="1" d="M 13.5 15 L 14 18.5 L 13 18.5 L 13.5 15 Z " /><path fill="rgb(190,118,112)" stroke="rgb(190,118,112)" stroke-width="1" opacity="1" d="M 8.5 19 L 8.5 20 L 8.5 19 Z " /><path fill="rgb(190,118,112)" stroke="rgb(190,118,112)" stroke-width="1" opacity="1" d="M 18.5 19 L 18.5 20 L 18.5 19 Z " /><path fill="rgb(190,118,112)" stroke="rgb(190,118,112)" stroke-width="1" opacity="1" d="M 23.5 19 L 23.5 20 L 23.5 19 Z " /><path fill="rgb(168,49,43)" stroke="rgb(168,49,43)" stroke-width="1" opacity="1" d="M 19.5 10 L 19.5 11 L 19.5 10 Z " /><path fill="rgb(168,49,43)" stroke="rgb(168,49,43)" stroke-width="1" opacity="1" d="M 19.5 13 L 19.5 14 L 19.5 13 Z " /><path fill="rgb(168,49,43)" stroke="rgb(168,49,43)" stroke-width="1" opacity="1" d="M 7.5 18 L 7.5 19 L 7.5 18 Z " /><path fill="rgb(168,49,43)" stroke="rgb(168,49,43)" stroke-width="1" opacity="1" d="M 24.5 18 L 24.5 19 L 24.5 18 Z " /><path fill="rgb(177,176,176)" stroke="rgb(177,176,176)" stroke-width="1" opacity="0.403921568627451" d="M 8.5 3 L 8.5 4 L 8.5 3 Z " /><path fill="rgb(177,176,176)" stroke="rgb(177,176,176)" stroke-width="1" opacity="0.403921568627451" d="M 23.5 3 L 23.5 4 L 23.5 3 Z " /><path fill="rgb(177,176,176)" stroke="rgb(177,176,176)" stroke-width="1" opacity="0.403921568627451" d="M 2.5 6 L 3 7.5 L 2 7.5 L 2.5 6 Z " /><path fill="rgb(177,176,176)" stroke="rgb(177,176,176)" stroke-width="1" opacity="0.403921568627451" d="M 29.5 6 L 30 7.5 L 29 7.5 L 29.5 6 Z " /><path fill="rgb(177,176,176)" stroke="rgb(177,176,176)" stroke-width="1" opacity="0.403921568627451" d="M 29.5 20 L 29.5 21 L 29.5 20 Z " /><path fill="rgb(190,181,181)" stroke="rgb(190,181,181)" stroke-width="1" opacity="0.6941176470588235" d="M 13.5 1 L 13.5 2 L 13.5 1 Z " /><path fill="rgb(190,181,181)" stroke="rgb(190,181,181)" stroke-width="1" opacity="0.6941176470588235" d="M 18.5 1 L 18.5 2 L 18.5 1 Z " /><path fill="rgb(190,181,181)" stroke="rgb(190,181,181)" stroke-width="1" opacity="0.6941176470588235" d="M 20.5 2 L 20.5 3 L 20.5 2 Z " /><path fill="rgb(190,181,181)" stroke="rgb(190,181,181)" stroke-width="1" opacity="0.6941176470588235" d="M 6.5 4 L 6.5 5 L 6.5 4 Z " /><path fill="rgb(190,181,181)" stroke="rgb(190,181,181)" stroke-width="1" opacity="0.6941176470588235" d="M 25.5 4 L 25.5 5 L 25.5 4 Z " /><path fill="rgb(190,181,181)" stroke="rgb(190,181,181)" stroke-width="1" opacity="0.6941176470588235" d="M 4.5 5 L 4.5 6 L 4.5 5 Z " /><path fill="rgb(190,181,181)" stroke="rgb(190,181,181)" stroke-width="1" opacity="0.6941176470588235" d="M 27.5 5 L 27.5 6 L 27.5 5 Z " /><path fill="rgb(198,151,147)" stroke="rgb(198,151,147)" stroke-width="1" opacity="0.6666666666666666" d="M 15.5 0 L 15.5 1 L 15.5 0 Z " /><path fill="rgb(198,151,147)" stroke="rgb(198,151,147)" stroke-width="1" opacity="0.6666666666666666" d="M 4.5 20 L 6 20.5 L 4.5 21 L 4.5 20 Z " /><path fill="rgb(198,151,147)" stroke="rgb(198,151,147)" stroke-width="1" opacity="0.6666666666666666" d="M 8.5 20 L 11 20.5 L 8.5 21 L 8.5 20 Z " /><path fill="rgb(198,151,147)" stroke="rgb(198,151,147)" stroke-width="1" opacity="0.6666666666666666" d="M 13.5 20 L 15 20.5 L 13.5 21 L 13.5 20 Z " /><path fill="rgb(198,151,147)" stroke="rgb(198,151,147)" stroke-width="1" opacity="0.6666666666666666" d="M 17.5 20 L 17.5 21 L 17.5 20 Z " /><path fill="rgb(198,151,147)" stroke="rgb(198,151,147)" stroke-width="1" opacity="0.6666666666666666" d="M 21.5 20 L 23 20.5 L 21.5 21 L 21.5 20 Z " /><path fill="rgb(198,151,147)" stroke="rgb(198,151,147)" stroke-width="1" opacity="0.6666666666666666" d="M 24.5 20 L 26 20.5 L 24.5 21 L 24.5 20 Z " /><path fill="rgb(191,146,142)" stroke="rgb(191,146,142)" stroke-width="1" opacity="0.6901960784313725" d="M 3.5 20 L 3.5 21 L 3.5 20 Z " /><path fill="rgb(191,146,142)" stroke="rgb(191,146,142)" stroke-width="1" opacity="0.6901960784313725" d="M 6.5 20 L 8 20.5 L 6.5 21 L 6.5 20 Z " /><path fill="rgb(191,146,142)" stroke="rgb(191,146,142)" stroke-width="1" opacity="0.6901960784313725" d="M 11.5 20 L 13 20.5 L 11.5 21 L 11.5 20 Z " /><path fill="rgb(191,146,142)" stroke="rgb(191,146,142)" stroke-width="1" opacity="0.6901960784313725" d="M 15.5 20 L 17 20.5 L 15.5 21 L 15.5 20 Z " /><path fill="rgb(191,146,142)" stroke="rgb(191,146,142)" stroke-width="1" opacity="0.6901960784313725" d="M 18.5 20 L 21 20.5 L 18.5 21 L 18.5 20 Z " /><path fill="rgb(191,146,142)" stroke="rgb(191,146,142)" stroke-width="1" opacity="0.6901960784313725" d="M 23.5 20 L 23.5 21 L 23.5 20 Z " /><path fill="rgb(191,146,142)" stroke="rgb(191,146,142)" stroke-width="1" opacity="0.6901960784313725" d="M 26.5 20 L 29 20.5 L 26.5 21 L 26.5 20 Z " /><path fill="rgb(0,0,0)" stroke="rgb(0,0,0)" stroke-width="1" opacity="0.4117647058823529" d="M 8.5 21 L 8.5 22 L 8.5 21 Z " /><path fill="rgb(0,0,0)" stroke="rgb(0,0,0)" stroke-width="1" opacity="0.4117647058823529" d="M 11.5 21 L 13 21.5 L 11.5 22 L 11.5 21 Z " /><path fill="rgb(0,0,0)" stroke="rgb(0,0,0)" stroke-width="1" opacity="0.4117647058823529" d="M 21.5 21 L 24 21.5 L 21.5 22 L 21.5 21 Z " /><path fill="rgb(0,0,0)" stroke="rgb(0,0,0)" stroke-width="1" opacity="0.35294117647058826" d="M 3 21 L 7.5 21 L 9 22.5 L 7.5 22 L 3 23 L 3 21 Z " /><path fill="rgb(0,0,0)" stroke="rgb(0,0,0)" stroke-width="1" opacity="0.35294117647058826" d="M 10.5 21 L 13.5 22 L 16.5 21 L 16.5 22 L 11.5 23 Q 9 22 10.5 21 Z " /><path fill="rgb(0,0,0)" stroke="rgb(0,0,0)" stroke-width="1" opacity="0.35294117647058826" d="M 19.5 21 L 23.5 22 L 26.5 21 L 29 21.5 L 25.5 23 Q 24.5 21 23.5 23 L 19.5 22 L 19.5 21 Z " /><path fill="rgb(0,0,0)" stroke="rgb(0,0,0)" stroke-width="1" opacity="0.25882352941176473" d="M 2.5 21 L 3 22.5 L 2 22.5 L 2.5 21 Z " /><path fill="rgb(0,0,0)" stroke="rgb(0,0,0)" stroke-width="1" opacity="0.25882352941176473" d="M 9.5 21 Q 12 22 10.5 23 Q 8 22 9.5 21 Z " /><path fill="rgb(0,0,0)" stroke="rgb(0,0,0)" stroke-width="1" opacity="0.25882352941176473" d="M 13.5 21 L 16.5 22 L 18.5 21 L 21 22.5 L 18.5 23 Q 17.5 21 16.5 23 Q 12.75 23.5 13.5 21 Z " /><path fill="rgb(0,0,0)" stroke="rgb(0,0,0)" stroke-width="1" opacity="0.25882352941176473" d="M 25.5 21 L 29 22.5 L 26.5 23 L 25.5 22 L 24 22.5 L 25.5 21 Z " /><path fill="rgb(0,0,0)" stroke="rgb(0,0,0)" stroke-width="1" opacity="0.25882352941176473" d="M 6.5 22 L 8 22.5 L 6.5 23 L 6.5 22 Z " /></svg>