<svg width="16" height="16" version="1.1" xmlns="http://www.w3.org/2000/svg" desc="Created with imagetracer.js version 1.2.6" ><path fill="rgb(132,156,151)" stroke="rgb(132,156,151)" stroke-width="1" opacity="1" d="M 7.5 1 L 7.5 2 L 7.5 1 Z " /><path fill="rgb(132,156,151)" stroke="rgb(132,156,151)" stroke-width="1" opacity="1" d="M 1.5 5 L 1.5 6 L 1.5 5 Z " /><path fill="rgb(242,243,243)" stroke="rgb(242,243,243)" stroke-width="1" opacity="0.5019607843137255" d="M 0.5 1 L 1 3.5 L 0 3.5 L 0.5 1 Z " /><path fill="rgb(131,156,151)" stroke="rgb(131,156,151)" stroke-width="1" opacity="1" d="M 2.5 1 L 7 1.5 L 2 2 L 1.5 5 L 1 2.5 L 2.5 1 Z " /><path fill="rgb(7,57,47)" stroke="rgb(7,57,47)" stroke-width="1" opacity="1" d="M 2 2 L 5 2.5 L 2 4 L 2 2 Z " /><path fill="rgb(8,58,47)" stroke="rgb(8,58,47)" stroke-width="1" opacity="1" d="M 5.5 2 L 8 2.5 L 4.5 4 Q 3 3 5.5 2 Z " /><path fill="rgb(8,58,47)" stroke="rgb(8,58,47)" stroke-width="1" opacity="1" d="M 2.5 4 L 3 5.5 L 2 5.5 L 2.5 4 Z " /><path fill="rgb(8,59,47)" stroke="rgb(8,59,47)" stroke-width="1" opacity="1" d="M 8.5 2 L 14.5 2 L 15 3.5 L 13.5 3 L 6.5 4 L 6.5 3 L 8.5 2 Z " /><path fill="rgb(8,59,47)" stroke="rgb(8,59,47)" stroke-width="1" opacity="1" d="M 3.5 5 L 4 6.5 Q 3 9 2 7.5 L 3.5 5 Z " /><path fill="rgb(8,60,47)" stroke="rgb(8,60,47)" stroke-width="1" opacity="1" d="M 10.5 3 Q 14.25 2.25 15 4.5 L 12.5 5 L 10 3.5 L 10.5 3 Z " /><path fill="rgb(8,60,47)" stroke="rgb(8,60,47)" stroke-width="1" opacity="1" d="M 7.5 5 L 7.5 6 L 7.5 5 Z " /><path fill="rgb(8,60,47)" stroke="rgb(8,60,47)" stroke-width="1" opacity="1" d="M 3.5 7 L 4 8.5 Q 3 11 2 9.5 L 3.5 7 Z " /><path fill="rgb(240,241,242)" stroke="rgb(240,241,242)" stroke-width="1" opacity="0.5019607843137255" d="M 0.5 4 L 1 5.5 L 0 5.5 L 0.5 4 Z " /><path fill="rgb(89,124,115)" stroke="rgb(89,124,115)" stroke-width="1" opacity="1" d="M 3.5 4 Q 6 5 4.5 6 Q 2 5 3.5 4 Z " /><path fill="rgb(89,124,115)" stroke="rgb(89,124,115)" stroke-width="1" opacity="1" d="M 11.5 4 L 11.5 5 L 11.5 4 Z " /><path fill="rgb(89,124,115)" stroke="rgb(89,124,115)" stroke-width="1" opacity="1" d="M 13.5 10 L 13.5 11 L 13.5 10 Z " /><path fill="rgb(240,243,242)" stroke="rgb(240,243,242)" stroke-width="1" opacity="1" d="M 4.5 4 L 4.5 5 L 4.5 4 Z " /><path fill="rgb(240,243,242)" stroke="rgb(240,243,242)" stroke-width="1" opacity="1" d="M 11.5 6 L 11.5 7 L 11.5 6 Z " /><path fill="rgb(240,243,242)" stroke="rgb(240,243,242)" stroke-width="1" opacity="1" d="M 5.5 12 L 7 12.5 L 5.5 13 L 5.5 12 Z " /><path fill="rgb(209,218,216)" stroke="rgb(209,218,216)" stroke-width="1" opacity="1" d="M 7.5 4 L 7.5 5 L 7.5 4 Z " /><path fill="rgb(209,218,216)" stroke="rgb(209,218,216)" stroke-width="1" opacity="1" d="M 10.5 4 L 10.5 5 L 10.5 4 Z " /><path fill="rgb(8,61,47)" stroke="rgb(8,61,47)" stroke-width="1" opacity="1" d="M 8.5 5 Q 11 6 9.5 7 L 7 6.5 L 8.5 5 Z " /><path fill="rgb(8,61,47)" stroke="rgb(8,61,47)" stroke-width="1" opacity="1" d="M 13.5 5 Q 15.75 4.25 15 6.5 Q 14 8 13 5.5 L 13.5 5 Z " /><path fill="rgb(8,61,47)" stroke="rgb(8,61,47)" stroke-width="1" opacity="1" d="M 3.5 9 L 4 10.5 L 2.5 14 L 2 10.5 L 3.5 9 Z " /><path fill="rgb(224,231,229)" stroke="rgb(224,231,229)" stroke-width="1" opacity="1" d="M 8.5 4 L 8.5 5 L 8.5 4 Z " /><path fill="rgb(224,231,229)" stroke="rgb(224,231,229)" stroke-width="1" opacity="1" d="M 9.5 12 L 9.5 13 L 9.5 12 Z " /><path fill="rgb(162,182,177)" stroke="rgb(162,182,177)" stroke-width="1" opacity="1" d="M 12.5 5 L 12.5 6 L 12.5 5 Z " /><path fill="rgb(162,182,177)" stroke="rgb(162,182,177)" stroke-width="1" opacity="1" d="M 11.5 7 L 11.5 8 L 11.5 7 Z " /><path fill="rgb(162,182,177)" stroke="rgb(162,182,177)" stroke-width="1" opacity="1" d="M 11.5 9 L 11.5 10 L 11.5 9 Z " /><path fill="rgb(162,182,177)" stroke="rgb(162,182,177)" stroke-width="1" opacity="1" d="M 4.5 12 L 4.5 13 L 4.5 12 Z " /><path fill="rgb(239,239,240)" stroke="rgb(239,239,240)" stroke-width="1" opacity="0.5019607843137255" d="M 0.5 6 L 1 7.5 L 0 7.5 L 0.5 6 Z " /><path fill="rgb(132,157,151)" stroke="rgb(132,157,151)" stroke-width="1" opacity="1" d="M 8.5 1 Q 14.5 -0.5 16 2.5 L 15.5 4 L 15 2 L 8.5 2 L 8.5 1 Z " /><path fill="rgb(132,157,151)" stroke="rgb(132,157,151)" stroke-width="1" opacity="1" d="M 1.5 6 L 2 8.5 L 1 8.5 L 1.5 6 Z " /><path fill="rgb(193,206,203)" stroke="rgb(193,206,203)" stroke-width="1" opacity="1" d="M 1.5 1 L 1.5 2 L 1.5 1 Z " /><path fill="rgb(193,206,203)" stroke="rgb(193,206,203)" stroke-width="1" opacity="1" d="M 15.5 1 L 15.5 2 L 15.5 1 Z " /><path fill="rgb(193,206,203)" stroke="rgb(193,206,203)" stroke-width="1" opacity="1" d="M 5 5 L 7 5.5 Q 6 8 5 6.5 L 5 5 Z " /><path fill="rgb(8,62,48)" stroke="rgb(8,62,48)" stroke-width="1" opacity="1" d="M 7.5 7 L 9 7.5 L 7.5 8 L 7.5 7 Z " /><path fill="rgb(8,62,48)" stroke="rgb(8,62,48)" stroke-width="1" opacity="1" d="M 3.5 11 L 3.5 12 L 3.5 11 Z " /><path fill="rgb(8,62,48)" stroke="rgb(8,62,48)" stroke-width="1" opacity="1" d="M 2.5 14 L 2.5 15 L 2.5 14 Z " /><path fill="rgb(8,63,48)" stroke="rgb(8,63,48)" stroke-width="1" opacity="1" d="M 10.5 7 Q 12 8 9.5 9 Q 8 8 10.5 7 Z " /><path fill="rgb(8,63,48)" stroke="rgb(8,63,48)" stroke-width="1" opacity="1" d="M 14.5 7 L 14.5 8 L 14.5 7 Z " /><path fill="rgb(8,63,48)" stroke="rgb(8,63,48)" stroke-width="1" opacity="1" d="M 7.5 8 L 7.5 9 L 7.5 8 Z " /><path fill="rgb(255,255,255)" stroke="rgb(255,255,255)" stroke-width="1" opacity="1" d="M 5.5 4 L 7 4.5 L 5.5 5 L 5.5 4 Z " /><path fill="rgb(255,255,255)" stroke="rgb(255,255,255)" stroke-width="1" opacity="1" d="M 9.5 4 L 9.5 5 L 9.5 4 Z " /><path fill="rgb(255,255,255)" stroke="rgb(255,255,255)" stroke-width="1" opacity="1" d="M 11.5 5 L 13 7.5 L 12 7.5 L 11.5 5 Z " /><path fill="rgb(255,255,255)" stroke="rgb(255,255,255)" stroke-width="1" opacity="1" d="M 12.5 10 L 13 10.5 L 10.5 13 L 10 12.5 L 12.5 10 Z " /><path fill="rgb(238,239,239)" stroke="rgb(238,239,239)" stroke-width="1" opacity="0.5019607843137255" d="M 0.5 8 L 1 9.5 L 0 9.5 L 0.5 8 Z " /><path fill="rgb(236,237,238)" stroke="rgb(236,237,238)" stroke-width="1" opacity="0.5019607843137255" d="M 0.5 10 L 1 12.5 L 0 12.5 L 0.5 10 Z " /><path fill="rgb(132,158,151)" stroke="rgb(132,158,151)" stroke-width="1" opacity="1" d="M 15.5 4 L 16 8.5 L 15 8.5 L 15.5 4 Z " /><path fill="rgb(132,158,151)" stroke="rgb(132,158,151)" stroke-width="1" opacity="1" d="M 13.5 7 L 14 8.5 L 13 8.5 L 13.5 7 Z " /><path fill="rgb(132,158,151)" stroke="rgb(132,158,151)" stroke-width="1" opacity="1" d="M 11.5 8 L 11.5 9 L 11.5 8 Z " /><path fill="rgb(132,158,151)" stroke="rgb(132,158,151)" stroke-width="1" opacity="1" d="M 1.5 9 L 2 14.5 L 1 14.5 L 1.5 9 Z " /><path fill="rgb(193,207,203)" stroke="rgb(193,207,203)" stroke-width="1" opacity="1" d="M 6.5 6 L 7 12 Q 3.33 13.35 5 7.5 L 6.5 6 Z " /><path fill="rgb(193,207,203)" stroke="rgb(193,207,203)" stroke-width="1" opacity="1" d="M 12.5 8 L 12.5 9 L 12.5 8 Z " /><path fill="rgb(193,207,203)" stroke="rgb(193,207,203)" stroke-width="1" opacity="1" d="M 12.5 11 L 12.5 12 L 12.5 11 Z " /><path fill="rgb(8,63,47)" stroke="rgb(8,63,47)" stroke-width="1" opacity="1" d="M 9.5 7 Q 12 8 10.5 9 L 9.5 8 L 7.5 10 L 7 9.5 L 9.5 7 Z " /><path fill="rgb(8,63,47)" stroke="rgb(8,63,47)" stroke-width="1" opacity="1" d="M 14.5 8 L 14.5 9 L 14.5 8 Z " /><path fill="rgb(8,63,47)" stroke="rgb(8,63,47)" stroke-width="1" opacity="1" d="M 3.5 14 L 5 14.5 L 3.5 15 L 3.5 14 Z " /><path fill="rgb(8,64,48)" stroke="rgb(8,64,48)" stroke-width="1" opacity="1" d="M 8.5 9 L 11 9.5 L 7.5 12 L 7 10.5 L 8.5 9 Z " /><path fill="rgb(8,64,48)" stroke="rgb(8,64,48)" stroke-width="1" opacity="1" d="M 14.5 9 L 14.5 10 L 14.5 9 Z " /><path fill="rgb(8,64,48)" stroke="rgb(8,64,48)" stroke-width="1" opacity="1" d="M 5.5 14 L 5.5 15 L 5.5 14 Z " /><path fill="rgb(209,219,216)" stroke="rgb(209,219,216)" stroke-width="1" opacity="1" d="M 10.5 5 L 10.5 6 L 10.5 5 Z " /><path fill="rgb(209,219,216)" stroke="rgb(209,219,216)" stroke-width="1" opacity="1" d="M 12.5 9 Q 14 10 11.5 11 Q 10 10 12.5 9 Z " /><path fill="rgb(8,65,48)" stroke="rgb(8,65,48)" stroke-width="1" opacity="1" d="M 9.5 10 L 11 10.5 L 8.5 12 Q 7 11 9.5 10 Z " /><path fill="rgb(8,65,48)" stroke="rgb(8,65,48)" stroke-width="1" opacity="1" d="M 14.5 10 L 14.5 11 L 14.5 10 Z " /><path fill="rgb(8,65,48)" stroke="rgb(8,65,48)" stroke-width="1" opacity="1" d="M 6.5 14 L 6.5 15 L 6.5 14 Z " /><path fill="rgb(234,235,236)" stroke="rgb(234,235,236)" stroke-width="1" opacity="0.5019607843137255" d="M 0.5 13 L 1 15.5 L 0 15.5 L 0.5 13 Z " /><path fill="rgb(132,160,151)" stroke="rgb(132,160,151)" stroke-width="1" opacity="1" d="M 13.5 9 L 13.5 10 L 13.5 9 Z " /><path fill="rgb(132,160,151)" stroke="rgb(132,160,151)" stroke-width="1" opacity="1" d="M 15.5 9 L 16 11.5 L 15 11.5 L 15.5 9 Z " /><path fill="rgb(132,160,151)" stroke="rgb(132,160,151)" stroke-width="1" opacity="1" d="M 7.5 12 L 9 12.5 L 7.5 13 L 7.5 12 Z " /><path fill="rgb(23,77,60)" stroke="rgb(23,77,60)" stroke-width="1" opacity="1" d="M 10.5 6 L 10.5 7 L 10.5 6 Z " /><path fill="rgb(23,77,60)" stroke="rgb(23,77,60)" stroke-width="1" opacity="1" d="M 12.5 12 L 12.5 13 L 12.5 12 Z " /><path fill="rgb(23,77,60)" stroke="rgb(23,77,60)" stroke-width="1" opacity="1" d="M 10.5 13 L 10.5 14 L 10.5 13 Z " /><path fill="rgb(9,67,48)" stroke="rgb(9,67,48)" stroke-width="1" opacity="1" d="M 13.5 12 L 15 12.5 L 13.5 13 L 13.5 12 Z " /><path fill="rgb(9,67,48)" stroke="rgb(9,67,48)" stroke-width="1" opacity="1" d="M 8.5 14 L 8.5 15 L 8.5 14 Z " /><path fill="rgb(132,161,151)" stroke="rgb(132,161,151)" stroke-width="1" opacity="1" d="M 15.5 12 L 16 14.5 L 15 14.5 L 15.5 12 Z " /><path fill="rgb(42,89,76)" stroke="rgb(42,89,76)" stroke-width="1" opacity="1" d="M 9.5 5 L 9.5 6 L 9.5 5 Z " /><path fill="rgb(42,89,76)" stroke="rgb(42,89,76)" stroke-width="1" opacity="1" d="M 13.5 6 L 13.5 7 L 13.5 6 Z " /><path fill="rgb(42,89,76)" stroke="rgb(42,89,76)" stroke-width="1" opacity="1" d="M 3.5 12 L 4 13.5 L 3 13.5 L 3.5 12 Z " /><path fill="rgb(70,112,99)" stroke="rgb(70,112,99)" stroke-width="1" opacity="1" d="M 4.5 6 L 5 11.5 L 4 11.5 L 4.5 6 Z " /><path fill="rgb(70,112,99)" stroke="rgb(70,112,99)" stroke-width="1" opacity="1" d="M 4.5 13 L 10 13.5 L 4.5 14 L 4.5 13 Z " /><path fill="rgb(70,112,99)" stroke="rgb(70,112,99)" stroke-width="1" opacity="1" d="M 2.5 15 L 15 15.5 L 2.5 16 L 2.5 15 Z " /><path fill="rgb(9,66,48)" stroke="rgb(9,66,48)" stroke-width="1" opacity="1" d="M 9.5 11 L 9.5 12 L 9.5 11 Z " /><path fill="rgb(9,66,48)" stroke="rgb(9,66,48)" stroke-width="1" opacity="1" d="M 13.5 11 L 15 11.5 L 13.5 12 L 13.5 11 Z " /><path fill="rgb(9,66,48)" stroke="rgb(9,66,48)" stroke-width="1" opacity="1" d="M 7.5 14 L 7.5 15 L 7.5 14 Z " /><path fill="rgb(8,69,48)" stroke="rgb(8,69,48)" stroke-width="1" opacity="1" d="M 10.5 14 L 14 14.5 L 10.5 15 L 10.5 14 Z " /><path fill="rgb(9,68,48)" stroke="rgb(9,68,48)" stroke-width="1" opacity="1" d="M 11.5 13 Q 15.87 11.5 15 14.5 L 13.5 14 Q 10.5 14.5 11.5 13 Z " /><path fill="rgb(9,68,48)" stroke="rgb(9,68,48)" stroke-width="1" opacity="1" d="M 9.5 14 L 9.5 15 L 9.5 14 Z " /><path fill="rgb(232,233,234)" stroke="rgb(232,233,234)" stroke-width="1" opacity="0.48627450980392156" d="M 0.5 0 L 16 0.5 L 0.5 1 L 0.5 0 Z " /><path fill="rgb(163,184,177)" stroke="rgb(163,184,177)" stroke-width="1" opacity="1" d="M 10.5 11 Q 13 12 11.5 13 Q 9 12 10.5 11 Z " /><path fill="rgb(163,184,177)" stroke="rgb(163,184,177)" stroke-width="1" opacity="1" d="M 1.5 15 L 1.5 16 L 1.5 15 Z " /><path fill="rgb(163,184,177)" stroke="rgb(163,184,177)" stroke-width="1" opacity="1" d="M 15.5 15 L 15.5 16 L 15.5 15 Z " /></svg>