<svg width="128" height="128" version="1.1" xmlns="http://www.w3.org/2000/svg" desc="Created with imagetracer.js version 1.2.6" ><path fill="rgb(6,5,0)" stroke="rgb(6,5,0)" stroke-width="1" opacity="1" d="M 0 0 L 128 0 L 128 128 L 0 128 L 0 0 Z M 35 46 L 35 47 L 35 46 Z M 38 46 L 38 47 L 38 46 Z M 67 46 L 67 47 L 67 46 Z M 70 46 L 70 47 L 70 46 Z M 93 46 L 93 47 L 93 46 Z M 95 46 L 95 47 L 95 46 Z M 99 46 L 99 47 L 99 46 Z M 102 46 L 101 50 L 98 53 Q 99 56 97 57 L 97 70 L 98 73 L 104 77 L 123 77 L 123 70 L 121 68 Q 120 66 119 68 L 107 68 L 107 62 Q 109 61 107 60 Q 107 57 108 57 L 123 57 L 123 48 L 104 48 L 103 49 L 102 46 Z M 107 46 L 107 47 L 107 46 Z M 66 47 L 65 48 L 41 48 L 39 51 L 38 54 L 39 56 Q 40 58 46 57 L 47 58 L 48 58 L 48 77 L 58 77 L 59 76 Q 57 75 59 74 L 58 72 L 58 62 L 59 61 L 58 58 L 60 58 L 68 56 L 67 55 L 68 52 L 66 47 Z M 68 47 L 68 48 L 68 47 Z M 77 47 L 70 51 L 70 53 L 69 55 L 69 66 Q 67 67 69 68 L 68 70 L 70 74 L 73 76 L 76 77 L 95 77 L 94 76 L 95 73 Q 93 72 95 71 L 93 69 L 94 67 L 92 68 L 80 68 Q 77 67 79 66 L 78 61 Q 80 60 78 59 Q 77 56 81 57 L 81 59 L 82 59 L 83 57 L 94 57 L 94 52 L 95 49 Q 94 46 93 48 L 78 48 L 77 47 Z M 98 47 L 98 48 L 98 47 Z M 9 48 L 9 77 L 32 77 L 33 76 L 35 77 Q 37 76 35 75 Q 37 74 37 71 Q 39 70 37 69 L 37 54 L 38 53 L 37 52 L 35 49 Q 32 50 32 48 L 9 48 Z M 36 48 L 36 49 L 36 48 Z M 69 48 L 69 49 L 69 48 Z M 6 49 L 6 50 L 6 49 Z M 38 49 L 38 50 L 38 49 Z M 70 49 L 70 50 L 70 49 Z M 97 49 L 97 50 L 98 50 L 97 49 Z M 100 49 L 100 50 L 100 49 Z M 64 58 L 64 59 L 64 58 Z M 122 58 L 122 59 L 122 58 Z M 40 60 L 40 61 L 40 60 Z M 63 60 L 63 61 L 63 60 Z M 65 60 L 65 61 L 65 60 Z M 82 60 L 82 61 L 82 60 Z M 95 60 L 95 61 L 95 60 Z M 121 60 L 121 61 L 121 60 Z M 123 60 L 123 61 L 123 60 Z M 81 66 L 81 67 L 81 66 Z M 96 69 L 96 70 L 96 69 Z M 47 71 L 46 73 L 47 73 L 47 71 Z M 68 71 L 68 72 L 68 71 Z M 61 73 L 61 74 L 61 73 Z M 68 73 L 68 74 L 68 73 Z M 37 74 L 37 75 L 37 74 Z M 47 74 L 47 75 L 47 74 Z M 6 75 L 6 76 L 6 75 Z M 61 76 L 61 77 L 61 76 Z " /><path fill="rgb(6,5,0)" stroke="rgb(6,5,0)" stroke-width="1" opacity="1" d="M 18 57 L 26.5 57 L 28 58.5 Q 28.75 61.75 27 62.5 Q 29 63.5 28 67.5 L 26.5 67 L 25.5 68 L 21.5 67 Q 20.58 68.75 18 68 L 18 57 Z M 27 58 L 27 59 L 27 58 Z " /><path fill="rgb(4,3,0)" stroke="rgb(4,3,0)" stroke-width="1" opacity="1" d="M 34.5 46 L 34.5 47 L 34.5 46 Z " /><path fill="rgb(4,3,0)" stroke="rgb(4,3,0)" stroke-width="1" opacity="1" d="M 37.5 46 L 37.5 47 L 37.5 46 Z " /><path fill="rgb(4,3,0)" stroke="rgb(4,3,0)" stroke-width="1" opacity="1" d="M 66.5 46 Q 68 47 65.5 48 Q 64 47 66.5 46 Z " /><path fill="rgb(4,3,0)" stroke="rgb(4,3,0)" stroke-width="1" opacity="1" d="M 94.5 46 L 94.5 49 Q 91.5 47.5 94.5 46 Z " /><path fill="rgb(4,3,0)" stroke="rgb(4,3,0)" stroke-width="1" opacity="1" d="M 98.5 46 Q 100 47 97.5 48 Q 96 47 98.5 46 Z " /><path fill="rgb(4,3,0)" stroke="rgb(4,3,0)" stroke-width="1" opacity="1" d="M 106.5 46 L 106.5 47 L 106.5 46 Z " /><path fill="rgb(4,3,0)" stroke="rgb(4,3,0)" stroke-width="1" opacity="1" d="M 76.5 47 L 76.5 48 L 76.5 47 Z " /><path fill="rgb(4,3,0)" stroke="rgb(4,3,0)" stroke-width="1" opacity="1" d="M 101.5 47 L 101.5 48 L 101.5 47 Z " /><path fill="rgb(4,3,0)" stroke="rgb(4,3,0)" stroke-width="1" opacity="1" d="M 35.5 48 L 35.5 49 L 35.5 48 Z " /><path fill="rgb(4,3,0)" stroke="rgb(4,3,0)" stroke-width="1" opacity="1" d="M 68.5 48 L 68.5 49 L 68.5 48 Z " /><path fill="rgb(4,3,0)" stroke="rgb(4,3,0)" stroke-width="1" opacity="1" d="M 5.5 49 L 5.5 50 L 5.5 49 Z " /><path fill="rgb(4,3,0)" stroke="rgb(4,3,0)" stroke-width="1" opacity="1" d="M 96.5 49 L 96.5 50 L 96.5 49 Z " /><path fill="rgb(4,3,0)" stroke="rgb(4,3,0)" stroke-width="1" opacity="1" d="M 94.5 50 L 94.5 51 L 94.5 50 Z " /><path fill="rgb(4,3,0)" stroke="rgb(4,3,0)" stroke-width="1" opacity="1" d="M 38.5 51 L 38.5 54 Q 35.5 52.5 38.5 51 Z " /><path fill="rgb(4,3,0)" stroke="rgb(4,3,0)" stroke-width="1" opacity="1" d="M 69.5 51 L 69.5 52 L 69.5 51 Z " /><path fill="rgb(4,3,0)" stroke="rgb(4,3,0)" stroke-width="1" opacity="1" d="M 67.5 55 L 67.5 56 L 67.5 55 Z " /><path fill="rgb(4,3,0)" stroke="rgb(4,3,0)" stroke-width="1" opacity="1" d="M 46.5 57 L 46.5 58 L 46.5 57 Z " /><path fill="rgb(4,3,0)" stroke="rgb(4,3,0)" stroke-width="1" opacity="1" d="M 59.5 57 L 61 57.5 L 59.5 58 L 59.5 57 Z " /><path fill="rgb(4,3,0)" stroke="rgb(4,3,0)" stroke-width="1" opacity="1" d="M 81.5 57 Q 83 58 80.5 59 Q 79 58 81.5 57 Z " /><path fill="rgb(4,3,0)" stroke="rgb(4,3,0)" stroke-width="1" opacity="1" d="M 26.5 58 L 26.5 59 L 26.5 58 Z " /><path fill="rgb(4,3,0)" stroke="rgb(4,3,0)" stroke-width="1" opacity="1" d="M 63.5 58 L 63.5 59 L 63.5 58 Z " /><path fill="rgb(4,3,0)" stroke="rgb(4,3,0)" stroke-width="1" opacity="1" d="M 78.5 59 L 78.5 60 L 78.5 59 Z " /><path fill="rgb(4,3,0)" stroke="rgb(4,3,0)" stroke-width="1" opacity="1" d="M 39.5 60 L 39.5 61 L 39.5 60 Z " /><path fill="rgb(4,3,0)" stroke="rgb(4,3,0)" stroke-width="1" opacity="1" d="M 58.5 60 L 58.5 61 L 58.5 60 Z " /><path fill="rgb(4,3,0)" stroke="rgb(4,3,0)" stroke-width="1" opacity="1" d="M 62.5 60 L 62.5 61 L 62.5 60 Z " /><path fill="rgb(4,3,0)" stroke="rgb(4,3,0)" stroke-width="1" opacity="1" d="M 64.5 60 L 64.5 61 L 64.5 60 Z " /><path fill="rgb(4,3,0)" stroke="rgb(4,3,0)" stroke-width="1" opacity="1" d="M 107.5 60 L 107.5 61 L 107.5 60 Z " /><path fill="rgb(4,3,0)" stroke="rgb(4,3,0)" stroke-width="1" opacity="1" d="M 120.5 60 L 120.5 61 L 120.5 60 Z " /><path fill="rgb(4,3,0)" stroke="rgb(4,3,0)" stroke-width="1" opacity="1" d="M 122.5 60 L 122.5 61 L 122.5 60 Z " /><path fill="rgb(4,3,0)" stroke="rgb(4,3,0)" stroke-width="1" opacity="1" d="M 27.5 62 L 27.5 63 L 27.5 62 Z " /><path fill="rgb(4,3,0)" stroke="rgb(4,3,0)" stroke-width="1" opacity="1" d="M 78.5 64 L 79 65.5 L 78 65.5 L 78.5 64 Z " /><path fill="rgb(4,3,0)" stroke="rgb(4,3,0)" stroke-width="1" opacity="1" d="M 68.5 66 L 68.5 67 L 68.5 66 Z " /><path fill="rgb(4,3,0)" stroke="rgb(4,3,0)" stroke-width="1" opacity="1" d="M 80.5 66 L 80.5 67 L 80.5 66 Z " /><path fill="rgb(4,3,0)" stroke="rgb(4,3,0)" stroke-width="1" opacity="1" d="M 21.5 67 L 23 67.5 L 21.5 68 L 21.5 67 Z " /><path fill="rgb(4,3,0)" stroke="rgb(4,3,0)" stroke-width="1" opacity="1" d="M 93.5 67 L 93.5 68 L 93.5 67 Z " /><path fill="rgb(4,3,0)" stroke="rgb(4,3,0)" stroke-width="1" opacity="1" d="M 119.5 67 L 119.5 68 L 119.5 67 Z " /><path fill="rgb(4,3,0)" stroke="rgb(4,3,0)" stroke-width="1" opacity="1" d="M 37.5 69 L 37.5 70 L 37.5 69 Z " /><path fill="rgb(4,3,0)" stroke="rgb(4,3,0)" stroke-width="1" opacity="1" d="M 68.5 69 L 68.5 70 L 68.5 69 Z " /><path fill="rgb(4,3,0)" stroke="rgb(4,3,0)" stroke-width="1" opacity="1" d="M 95.5 69 L 95.5 70 L 95.5 69 Z " /><path fill="rgb(4,3,0)" stroke="rgb(4,3,0)" stroke-width="1" opacity="1" d="M 46.5 71 L 47 72.5 L 46 72.5 L 46.5 71 Z " /><path fill="rgb(4,3,0)" stroke="rgb(4,3,0)" stroke-width="1" opacity="1" d="M 67.5 71 L 67.5 72 L 67.5 71 Z " /><path fill="rgb(4,3,0)" stroke="rgb(4,3,0)" stroke-width="1" opacity="1" d="M 58.5 72 L 59 73.5 L 58 73.5 L 58.5 72 Z " /><path fill="rgb(4,3,0)" stroke="rgb(4,3,0)" stroke-width="1" opacity="1" d="M 94.5 72 L 94.5 73 L 94.5 72 Z " /><path fill="rgb(4,3,0)" stroke="rgb(4,3,0)" stroke-width="1" opacity="1" d="M 67.5 73 L 67.5 74 L 67.5 73 Z " /><path fill="rgb(4,3,0)" stroke="rgb(4,3,0)" stroke-width="1" opacity="1" d="M 36.5 74 L 36.5 75 L 36.5 74 Z " /><path fill="rgb(4,3,0)" stroke="rgb(4,3,0)" stroke-width="1" opacity="1" d="M 94.5 74 L 94.5 75 L 94.5 74 Z " /><path fill="rgb(4,3,0)" stroke="rgb(4,3,0)" stroke-width="1" opacity="1" d="M 5.5 75 L 5.5 76 L 5.5 75 Z " /><path fill="rgb(4,3,0)" stroke="rgb(4,3,0)" stroke-width="1" opacity="1" d="M 58.5 75 L 58.5 76 L 58.5 75 Z " /><path fill="rgb(4,3,0)" stroke="rgb(4,3,0)" stroke-width="1" opacity="1" d="M 34.5 76 L 34.5 77 L 34.5 76 Z " /><path fill="rgb(254,254,254)" stroke="rgb(254,254,254)" stroke-width="1" opacity="1" d="M 26.5 49 L 28 49.5 L 26.5 50 L 26.5 49 Z " /><path fill="rgb(254,254,254)" stroke="rgb(254,254,254)" stroke-width="1" opacity="1" d="M 30.5 49 Q 32 50 29.5 51 Q 28 50 30.5 49 Z " /><path fill="rgb(254,254,254)" stroke="rgb(254,254,254)" stroke-width="1" opacity="1" d="M 76.5 49 Q 78 50 75.5 51 Q 74 50 76.5 49 Z " /><path fill="rgb(254,254,254)" stroke="rgb(254,254,254)" stroke-width="1" opacity="1" d="M 105.5 49 L 106 50.5 L 105 50.5 L 105.5 49 Z " /><path fill="rgb(254,254,254)" stroke="rgb(254,254,254)" stroke-width="1" opacity="1" d="M 63.5 50 L 66 51.5 L 64.5 51 Q 62.13 50.87 63.5 50 Z " /><path fill="rgb(254,254,254)" stroke="rgb(254,254,254)" stroke-width="1" opacity="1" d="M 107.5 50 L 107.5 51 L 107.5 50 Z " /><path fill="rgb(254,254,254)" stroke="rgb(254,254,254)" stroke-width="1" opacity="1" d="M 119.5 50 L 121 50.5 L 119.5 51 L 119.5 50 Z " /><path fill="rgb(254,254,254)" stroke="rgb(254,254,254)" stroke-width="1" opacity="1" d="M 32.5 51 L 32.5 52 L 32.5 51 Z " /><path fill="rgb(254,254,254)" stroke="rgb(254,254,254)" stroke-width="1" opacity="1" d="M 46.5 51 L 46.5 52 L 46.5 51 Z " /><path fill="rgb(254,254,254)" stroke="rgb(254,254,254)" stroke-width="1" opacity="1" d="M 100.5 52 L 102 56.5 L 101 56.5 L 100.5 52 Z " /><path fill="rgb(254,254,254)" stroke="rgb(254,254,254)" stroke-width="1" opacity="1" d="M 30 53 L 32 53.5 Q 31 56 30 54.5 L 30 53 Z " /><path fill="rgb(254,254,254)" stroke="rgb(254,254,254)" stroke-width="1" opacity="1" d="M 64.5 53 L 66 53.5 L 64.5 54 L 64.5 53 Z " /><path fill="rgb(254,254,254)" stroke="rgb(254,254,254)" stroke-width="1" opacity="1" d="M 71.5 53 L 71.5 54 L 71.5 53 Z " /><path fill="rgb(254,254,254)" stroke="rgb(254,254,254)" stroke-width="1" opacity="1" d="M 33.5 54 Q 36.5 55.5 33.5 57 L 33.5 54 Z " /><path fill="rgb(254,254,254)" stroke="rgb(254,254,254)" stroke-width="1" opacity="1" d="M 49.5 55 L 50 56.5 L 49 56.5 L 49.5 55 Z " /><path fill="rgb(254,254,254)" stroke="rgb(254,254,254)" stroke-width="1" opacity="1" d="M 57.5 55 L 57.5 56 L 57.5 55 Z " /><path fill="rgb(254,254,254)" stroke="rgb(254,254,254)" stroke-width="1" opacity="1" d="M 77.5 55 L 92 55.5 L 77.5 56 L 77.5 55 Z " /><path fill="rgb(254,254,254)" stroke="rgb(254,254,254)" stroke-width="1" opacity="1" d="M 108.5 55 L 118 55.5 L 108.5 56 L 108.5 55 Z " /><path fill="rgb(254,254,254)" stroke="rgb(254,254,254)" stroke-width="1" opacity="1" d="M 119.5 55 L 119.5 56 L 119.5 55 Z " /><path fill="rgb(254,254,254)" stroke="rgb(254,254,254)" stroke-width="1" opacity="1" d="M 31.5 56 Q 33 57 30.5 58 Q 29 57 31.5 56 Z " /><path fill="rgb(254,254,254)" stroke="rgb(254,254,254)" stroke-width="1" opacity="1" d="M 70.5 56 L 70.5 57 L 70.5 56 Z " /><path fill="rgb(254,254,254)" stroke="rgb(254,254,254)" stroke-width="1" opacity="1" d="M 105.5 56 L 105.5 57 L 105.5 56 Z " /><path fill="rgb(254,254,254)" stroke="rgb(254,254,254)" stroke-width="1" opacity="1" d="M 99.5 57 L 100 65.5 L 99 65.5 L 99.5 57 Z " /><path fill="rgb(254,254,254)" stroke="rgb(254,254,254)" stroke-width="1" opacity="1" d="M 50.5 58 L 50.5 59 L 50.5 58 Z " /><path fill="rgb(254,254,254)" stroke="rgb(254,254,254)" stroke-width="1" opacity="1" d="M 103.5 58 L 105 58.5 L 103.5 59 L 103.5 58 Z " /><path fill="rgb(254,254,254)" stroke="rgb(254,254,254)" stroke-width="1" opacity="1" d="M 29.5 59 L 30 60.5 L 29 60.5 L 29.5 59 Z " /><path fill="rgb(254,254,254)" stroke="rgb(254,254,254)" stroke-width="1" opacity="1" d="M 105.5 61 L 105.5 62 L 105.5 61 Z " /><path fill="rgb(254,254,254)" stroke="rgb(254,254,254)" stroke-width="1" opacity="1" d="M 101.5 66 L 104.5 67 L 106 66.5 L 104 68.5 L 106 70.5 L 105.5 71 L 100 70 L 100.5 68 L 102.5 69 L 101.5 66 Z M 104 69 L 104 70 L 104 69 Z " /><path fill="rgb(254,254,254)" stroke="rgb(254,254,254)" stroke-width="1" opacity="1" d="M 29.5 67 Q 32 68 30.5 69 Q 27.71 69.67 29.5 67 Z " /><path fill="rgb(254,254,254)" stroke="rgb(254,254,254)" stroke-width="1" opacity="1" d="M 71.5 67 Q 73 68 70.5 69 Q 69 68 71.5 67 Z " /><path fill="rgb(254,254,254)" stroke="rgb(254,254,254)" stroke-width="1" opacity="1" d="M 16.5 68 L 18 70.5 Q 17 73 16 71.5 Q 18 70.5 16 69.5 L 16.5 68 Z " /><path fill="rgb(254,254,254)" stroke="rgb(254,254,254)" stroke-width="1" opacity="1" d="M 27.5 69 L 27.5 70 L 27.5 69 Z " /><path fill="rgb(254,254,254)" stroke="rgb(254,254,254)" stroke-width="1" opacity="1" d="M 30.5 70 L 33 73.5 Q 32 75 31 72.5 L 30.5 71 L 29 71.5 L 30.5 70 Z " /><path fill="rgb(254,254,254)" stroke="rgb(254,254,254)" stroke-width="1" opacity="1" d="M 79.5 70 L 82 71 L 81.5 74 L 79.5 71 L 78 71.5 L 79.5 70 Z " /><path fill="rgb(254,254,254)" stroke="rgb(254,254,254)" stroke-width="1" opacity="1" d="M 107.5 70 L 107.5 71 L 107.5 70 Z " /><path fill="rgb(254,254,254)" stroke="rgb(254,254,254)" stroke-width="1" opacity="1" d="M 120.5 70 Q 122.5 70.5 122 73.5 L 121 74.5 L 121.5 76 Q 118.75 74.75 121 73.5 L 120.5 70 Z " /><path fill="rgb(254,254,254)" stroke="rgb(254,254,254)" stroke-width="1" opacity="1" d="M 19.5 71 L 19.5 72 L 19.5 71 Z " /><path fill="rgb(254,254,254)" stroke="rgb(254,254,254)" stroke-width="1" opacity="1" d="M 73.5 71 L 74 74 Q 71.33 75.13 72 72.5 L 73.5 71 Z " /><path fill="rgb(254,254,254)" stroke="rgb(254,254,254)" stroke-width="1" opacity="1" d="M 75.5 71 L 77 73.5 L 75 74 L 75.5 71 Z " /><path fill="rgb(254,254,254)" stroke="rgb(254,254,254)" stroke-width="1" opacity="1" d="M 100 71 L 103 72.5 L 101 72.5 L 100.5 74 L 100 71 Z " /><path fill="rgb(254,254,254)" stroke="rgb(254,254,254)" stroke-width="1" opacity="1" d="M 49.5 72 Q 52 73 50.5 74 Q 48 73 49.5 72 Z " /><path fill="rgb(254,254,254)" stroke="rgb(254,254,254)" stroke-width="1" opacity="1" d="M 105.5 72 L 105 73.5 L 105.5 75 L 107.5 73 L 108 73.5 L 105.5 76 L 104 74.5 L 105.5 72 Z " /><path fill="rgb(254,254,254)" stroke="rgb(254,254,254)" stroke-width="1" opacity="1" d="M 27.5 73 L 27.5 74 L 27.5 73 Z " /><path fill="rgb(254,254,254)" stroke="rgb(254,254,254)" stroke-width="1" opacity="1" d="M 29.5 74 Q 32 75 30.5 76 L 29.5 75 L 28 75.5 L 29.5 74 Z " /><path fill="rgb(254,254,254)" stroke="rgb(254,254,254)" stroke-width="1" opacity="1" d="M 78.5 74 L 78.5 75 L 78.5 74 Z " /><path fill="rgb(254,254,254)" stroke="rgb(254,254,254)" stroke-width="1" opacity="1" d="M 26.5 75 L 26.5 76 L 26.5 75 Z " /><path fill="rgb(254,254,254)" stroke="rgb(254,254,254)" stroke-width="1" opacity="1" d="M 50.5 75 L 50.5 76 L 50.5 75 Z " /><path fill="rgb(147,147,145)" stroke="rgb(147,147,145)" stroke-width="1" opacity="1" d="M 40.5 49 L 41 56 L 49 56 L 49 76 L 57 76 L 57 56 L 65.5 56 L 65.5 57 L 58 57 L 58 75.5 L 56.5 77 L 49.5 77 L 48 75.5 L 48 57 L 41.5 57 L 40 55.5 L 40.5 49 Z " /><path fill="rgb(147,147,145)" stroke="rgb(147,147,145)" stroke-width="1" opacity="1" d="M 101.5 49 Q 103 50 100.5 51 Q 99 50 101.5 49 Z " /><path fill="rgb(147,147,145)" stroke="rgb(147,147,145)" stroke-width="1" opacity="1" d="M 122.5 49 L 123 55.5 L 121.5 57 L 106.5 57 L 106.5 56 L 122 56 L 122.5 49 Z " /><path fill="rgb(147,147,145)" stroke="rgb(147,147,145)" stroke-width="1" opacity="1" d="M 34.5 50 Q 37 51 35.5 52 Q 33 51 34.5 50 Z " /><path fill="rgb(147,147,145)" stroke="rgb(147,147,145)" stroke-width="1" opacity="1" d="M 71.5 50 L 71.5 51 L 71.5 50 Z " /><path fill="rgb(147,147,145)" stroke="rgb(147,147,145)" stroke-width="1" opacity="1" d="M 70.5 52 L 70.5 53 L 70.5 52 Z " /><path fill="rgb(147,147,145)" stroke="rgb(147,147,145)" stroke-width="1" opacity="1" d="M 36.5 53 L 36.5 54 L 36.5 53 Z " /><path fill="rgb(147,147,145)" stroke="rgb(147,147,145)" stroke-width="1" opacity="1" d="M 98.5 53 L 98.5 54 L 98.5 53 Z " /><path fill="rgb(147,147,145)" stroke="rgb(147,147,145)" stroke-width="1" opacity="1" d="M 69.5 54 L 69.5 55 L 69.5 54 Z " /><path fill="rgb(147,147,145)" stroke="rgb(147,147,145)" stroke-width="1" opacity="1" d="M 17.5 56 L 27 56.5 L 17.5 57 L 17.5 56 Z " /><path fill="rgb(147,147,145)" stroke="rgb(147,147,145)" stroke-width="1" opacity="1" d="M 78.5 56 L 94 56.5 L 78.5 57 L 78.5 56 Z " /><path fill="rgb(147,147,145)" stroke="rgb(147,147,145)" stroke-width="1" opacity="1" d="M 28.5 58 L 29 60.5 L 28 60.5 L 28.5 58 Z " /><path fill="rgb(147,147,145)" stroke="rgb(147,147,145)" stroke-width="1" opacity="1" d="M 28.5 65 L 29 66.5 L 28 66.5 L 28.5 65 Z " /><path fill="rgb(147,147,145)" stroke="rgb(147,147,145)" stroke-width="1" opacity="1" d="M 27.5 68 L 27.5 69 L 27.5 68 Z " /><path fill="rgb(147,147,145)" stroke="rgb(147,147,145)" stroke-width="1" opacity="1" d="M 122.5 69 L 123 75.5 L 121.5 77 L 105.5 77 L 105.5 76 L 122 76 L 122.5 69 Z " /><path fill="rgb(147,147,145)" stroke="rgb(147,147,145)" stroke-width="1" opacity="1" d="M 69.5 70 L 69.5 71 L 69.5 70 Z " /><path fill="rgb(147,147,145)" stroke="rgb(147,147,145)" stroke-width="1" opacity="1" d="M 36.5 71 L 37 72.5 L 36 72.5 L 36.5 71 Z " /><path fill="rgb(147,147,145)" stroke="rgb(147,147,145)" stroke-width="1" opacity="1" d="M 98.5 71 L 99 72.5 L 98 72.5 L 98.5 71 Z " /><path fill="rgb(147,147,145)" stroke="rgb(147,147,145)" stroke-width="1" opacity="1" d="M 71.5 74 L 71.5 75 L 71.5 74 Z " /><path fill="rgb(147,147,145)" stroke="rgb(147,147,145)" stroke-width="1" opacity="1" d="M 33.5 75 L 33.5 76 L 33.5 75 Z " /><path fill="rgb(147,147,145)" stroke="rgb(147,147,145)" stroke-width="1" opacity="1" d="M 73.5 75 L 73.5 76 L 73.5 75 Z " /><path fill="rgb(147,147,145)" stroke="rgb(147,147,145)" stroke-width="1" opacity="1" d="M 101.5 75 L 101.5 76 L 101.5 75 Z " /><path fill="rgb(147,147,145)" stroke="rgb(147,147,145)" stroke-width="1" opacity="1" d="M 9.5 76 L 31 76.5 L 9.5 77 L 9.5 76 Z " /><path fill="rgb(147,147,145)" stroke="rgb(147,147,145)" stroke-width="1" opacity="1" d="M 76.5 76 L 94 76.5 L 76.5 77 L 76.5 76 Z " /><path fill="rgb(70,70,67)" stroke="rgb(70,70,67)" stroke-width="1" opacity="1" d="M 9.5 48 L 32 48.5 L 9.5 49 L 9.5 48 Z " /><path fill="rgb(70,70,67)" stroke="rgb(70,70,67)" stroke-width="1" opacity="1" d="M 40.5 48 L 65.5 48 L 67 49.5 L 66.5 56 L 66 49 L 40.5 49 L 40 49.5 L 40 55.5 L 40.5 57 Q 37.5 55.5 39 49.5 L 40.5 48 Z " /><path fill="rgb(70,70,67)" stroke="rgb(70,70,67)" stroke-width="1" opacity="1" d="M 74.5 48 L 94 48.5 L 74.5 49 L 74.5 48 Z " /><path fill="rgb(70,70,67)" stroke="rgb(70,70,67)" stroke-width="1" opacity="1" d="M 103.5 48 L 123 48.5 L 103.5 49 L 103.5 48 Z " /><path fill="rgb(70,70,67)" stroke="rgb(70,70,67)" stroke-width="1" opacity="1" d="M 33.5 49 L 33.5 50 L 33.5 49 Z " /><path fill="rgb(70,70,67)" stroke="rgb(70,70,67)" stroke-width="1" opacity="1" d="M 72.5 49 L 72.5 50 L 72.5 49 Z " /><path fill="rgb(70,70,67)" stroke="rgb(70,70,67)" stroke-width="1" opacity="1" d="M 70.5 51 L 70.5 52 L 70.5 51 Z " /><path fill="rgb(70,70,67)" stroke="rgb(70,70,67)" stroke-width="1" opacity="1" d="M 36.5 52 L 36.5 53 L 36.5 52 Z " /><path fill="rgb(70,70,67)" stroke="rgb(70,70,67)" stroke-width="1" opacity="1" d="M 98.5 52 L 98.5 53 L 98.5 52 Z " /><path fill="rgb(70,70,67)" stroke="rgb(70,70,67)" stroke-width="1" opacity="1" d="M 97.5 56 L 98 69.5 L 97 69.5 L 97.5 56 Z " /><path fill="rgb(70,70,67)" stroke="rgb(70,70,67)" stroke-width="1" opacity="1" d="M 122.5 56 L 122.5 57 L 122.5 56 Z " /><path fill="rgb(70,70,67)" stroke="rgb(70,70,67)" stroke-width="1" opacity="1" d="M 17.5 57 L 18 68 L 27 68.5 L 17 69 L 17.5 57 Z " /><path fill="rgb(70,70,67)" stroke="rgb(70,70,67)" stroke-width="1" opacity="1" d="M 27.5 57 L 27.5 58 L 27.5 57 Z " /><path fill="rgb(70,70,67)" stroke="rgb(70,70,67)" stroke-width="1" opacity="1" d="M 106.5 57 L 107 68 L 122 68.5 L 106 69 L 106.5 57 Z " /><path fill="rgb(70,70,67)" stroke="rgb(70,70,67)" stroke-width="1" opacity="1" d="M 28.5 61 L 29 64.5 L 28 64.5 L 28.5 61 Z " /><path fill="rgb(70,70,67)" stroke="rgb(70,70,67)" stroke-width="1" opacity="1" d="M 78.5 68 L 93 68.5 L 78.5 69 L 78.5 68 Z " /><path fill="rgb(70,70,67)" stroke="rgb(70,70,67)" stroke-width="1" opacity="1" d="M 69.5 71 L 69.5 72 L 69.5 71 Z " /><path fill="rgb(70,70,67)" stroke="rgb(70,70,67)" stroke-width="1" opacity="1" d="M 70.5 73 L 70.5 74 L 70.5 73 Z " /><path fill="rgb(70,70,67)" stroke="rgb(70,70,67)" stroke-width="1" opacity="1" d="M 34.5 75 L 34.5 76 L 34.5 75 Z " /><path fill="rgb(70,70,67)" stroke="rgb(70,70,67)" stroke-width="1" opacity="1" d="M 72.5 75 L 72.5 76 L 72.5 75 Z " /><path fill="rgb(70,70,67)" stroke="rgb(70,70,67)" stroke-width="1" opacity="1" d="M 31.5 76 L 31.5 77 L 31.5 76 Z " /><path fill="rgb(70,70,67)" stroke="rgb(70,70,67)" stroke-width="1" opacity="1" d="M 48.5 76 L 48.5 77 L 48.5 76 Z " /><path fill="rgb(70,70,67)" stroke="rgb(70,70,67)" stroke-width="1" opacity="1" d="M 57.5 76 L 57.5 77 L 57.5 76 Z " /><path fill="rgb(70,70,67)" stroke="rgb(70,70,67)" stroke-width="1" opacity="1" d="M 75.5 76 L 75.5 77 L 75.5 76 Z " /><path fill="rgb(70,70,67)" stroke="rgb(70,70,67)" stroke-width="1" opacity="1" d="M 103.5 76 L 105 76.5 L 103.5 77 L 103.5 76 Z " /><path fill="rgb(70,70,67)" stroke="rgb(70,70,67)" stroke-width="1" opacity="1" d="M 122.5 76 L 122.5 77 L 122.5 76 Z " /><path fill="rgb(255,254,253)" stroke="rgb(255,254,253)" stroke-width="1" opacity="1" d="M 31.5 49 Q 34 50 32.5 51 Q 30 50 31.5 49 Z " /><path fill="rgb(255,254,253)" stroke="rgb(255,254,253)" stroke-width="1" opacity="1" d="M 64.5 49 L 64.5 50 L 64.5 49 Z " /><path fill="rgb(255,254,253)" stroke="rgb(255,254,253)" stroke-width="1" opacity="1" d="M 92.5 50 L 92.5 51 L 92.5 50 Z " /><path fill="rgb(255,254,253)" stroke="rgb(255,254,253)" stroke-width="1" opacity="1" d="M 101.5 50 L 101.5 51 L 101.5 50 Z " /><path fill="rgb(255,254,253)" stroke="rgb(255,254,253)" stroke-width="1" opacity="1" d="M 70.5 54 L 71 55.5 L 70 55.5 L 70.5 54 Z " /><path fill="rgb(255,254,253)" stroke="rgb(255,254,253)" stroke-width="1" opacity="1" d="M 99.5 54 L 99.5 55 L 99.5 54 Z " /><path fill="rgb(255,254,253)" stroke="rgb(255,254,253)" stroke-width="1" opacity="1" d="M 92.5 55 L 92.5 56 L 92.5 55 Z " /><path fill="rgb(255,254,253)" stroke="rgb(255,254,253)" stroke-width="1" opacity="1" d="M 70.5 57 L 70.5 58 L 70.5 57 Z " /><path fill="rgb(255,254,253)" stroke="rgb(255,254,253)" stroke-width="1" opacity="1" d="M 105.5 57 L 106 61 L 104 60.5 L 105.5 57 Z " /><path fill="rgb(255,254,253)" stroke="rgb(255,254,253)" stroke-width="1" opacity="1" d="M 56.5 59 L 57 60.5 L 56 60.5 L 56.5 59 Z " /><path fill="rgb(255,254,253)" stroke="rgb(255,254,253)" stroke-width="1" opacity="1" d="M 16.5 60 L 17 64.5 L 16 64.5 L 16.5 60 Z " /><path fill="rgb(255,254,253)" stroke="rgb(255,254,253)" stroke-width="1" opacity="1" d="M 29.5 61 L 31 61.5 L 29.5 62 L 29.5 61 Z " /><path fill="rgb(255,254,253)" stroke="rgb(255,254,253)" stroke-width="1" opacity="1" d="M 29.5 64 L 30 65.5 L 29 65.5 L 29.5 64 Z " /><path fill="rgb(255,254,253)" stroke="rgb(255,254,253)" stroke-width="1" opacity="1" d="M 16.5 67 L 16.5 68 L 16.5 67 Z " /><path fill="rgb(255,254,253)" stroke="rgb(255,254,253)" stroke-width="1" opacity="1" d="M 92.5 69 L 92.5 70 L 92.5 69 Z " /><path fill="rgb(255,254,253)" stroke="rgb(255,254,253)" stroke-width="1" opacity="1" d="M 19.5 70 L 19.5 71 L 19.5 70 Z " /><path fill="rgb(255,254,253)" stroke="rgb(255,254,253)" stroke-width="1" opacity="1" d="M 71.5 71 L 71.5 72 L 71.5 71 Z " /><path fill="rgb(255,254,253)" stroke="rgb(255,254,253)" stroke-width="1" opacity="1" d="M 92.5 71 L 92.5 72 L 92.5 71 Z " /><path fill="rgb(255,254,253)" stroke="rgb(255,254,253)" stroke-width="1" opacity="1" d="M 33.5 72 Q 36 73 34.5 74 Q 31.71 74.67 33.5 72 Z " /><path fill="rgb(255,254,253)" stroke="rgb(255,254,253)" stroke-width="1" opacity="1" d="M 31.5 73 L 31.5 74 L 31.5 73 Z " /><path fill="rgb(255,254,253)" stroke="rgb(255,254,253)" stroke-width="1" opacity="1" d="M 49.5 74 L 49.5 75 L 49.5 74 Z " /><path fill="rgb(255,254,253)" stroke="rgb(255,254,253)" stroke-width="1" opacity="1" d="M 55.5 75 L 57 75.5 L 55.5 76 L 55.5 75 Z " /><path fill="rgb(255,255,255)" stroke="rgb(255,255,255)" stroke-width="1" opacity="1" d="M 10 49 L 25.5 49 L 27.5 50 L 29.5 49 L 32.5 52 L 34 51.5 L 33.5 53 L 36 54.5 L 35.5 73 L 31.5 71 L 31 74 L 33 74.5 L 29.5 76 L 28.5 75 L 25.5 76 L 10 76 L 10 49 Z M 29 50 L 29 51 L 30 51 L 29 50 Z M 30 53 L 30 55 Q 31 56 32 54 L 30 53 Z M 34 54 L 34 57 Q 37 56 34 54 Z M 17 55 L 17 60 L 16 61 Q 15 64 17 66 L 16 70 L 19 71 L 20 72 L 20 69 L 25 69 Q 26 71 27 69 L 27 71 Q 29 72 28 70 L 30 70 L 31 69 Q 27 67 30 66 L 29 64 Q 28 61 31 62 L 30 61 L 31 57 Q 28 58 27 55 L 17 55 Z M 32 55 L 31 57 L 32 57 L 32 55 Z M 31 63 L 31 64 L 31 63 Z M 31 66 L 31 67 L 31 66 Z M 31 70 L 31 71 L 31 70 Z M 17 71 L 17 72 L 17 71 Z M 30 71 L 30 72 L 30 71 Z M 28 73 L 28 74 L 28 73 Z M 30 74 L 30 75 L 30 74 Z " /><path fill="rgb(255,255,255)" stroke="rgb(255,255,255)" stroke-width="1" opacity="1" d="M 41 49 L 62.5 49 L 63 51 L 64.5 51 Q 67 52 65.5 53 L 64 53.5 L 66 54.5 L 57 55 L 56 60.5 L 57 61.5 L 57 73.5 Q 56.25 76.75 51.5 76 L 50.5 75 L 49 75.5 L 50 74.5 L 49 71.5 L 49 57.5 L 50 55 L 41 55 L 41 49 Z M 47 51 L 47 52 L 47 51 Z M 51 58 L 51 59 L 51 58 Z M 51 73 L 51 74 L 51 73 Z " /><path fill="rgb(255,255,255)" stroke="rgb(255,255,255)" stroke-width="1" opacity="1" d="M 65.5 49 L 65.5 50 L 65.5 49 Z " /><path fill="rgb(255,255,255)" stroke="rgb(255,255,255)" stroke-width="1" opacity="1" d="M 74 49 L 76.5 50 L 77.5 49 L 92 49 L 93 55 L 77 55 L 77 68.5 L 78.5 70 L 81.5 69 L 91.5 69 Q 92.25 68.75 92 71.5 L 93 74.5 L 91.5 76 L 77.5 76 L 76 74.5 Q 78 73.5 76 72.5 L 75.5 71 L 74.5 73 L 73.5 71 Q 72.5 73 71.5 71 L 70 70.5 L 71 68.5 L 70 67.5 L 70 58.5 L 72 53.5 L 71 51 Q 75.13 52.33 74 49 Z M 76 50 L 76 51 L 76 50 Z M 72 67 L 72 68 L 72 67 Z M 80 70 L 80 71 L 80 70 Z M 82 70 L 80 72 L 81 74 L 82 74 L 82 70 Z M 79 71 L 79 72 L 79 71 Z M 79 74 L 79 75 L 79 74 Z " /><path fill="rgb(255,255,255)" stroke="rgb(255,255,255)" stroke-width="1" opacity="1" d="M 103.5 49 L 105.5 51 L 106 50.5 L 106.5 49 L 117.5 49 Q 118.58 51.75 122 51 L 122 56 L 120.5 56 L 117.5 55 L 108.5 55 Q 107.58 56.75 105 56 Q 106.13 58.67 103.5 58 L 103.5 59 L 105 59.5 Q 102.5 61 106 62.5 Q 106.75 65.75 105 66.5 L 106 67.5 L 103 70.5 L 103.5 71 Q 107 71.5 107.5 69 L 120.5 69 Q 123.25 70.25 121 71.5 L 122 74.5 L 120.5 76 L 106.5 76 L 105.5 75 L 104 75.5 L 105 73.5 L 104.5 73 L 102.5 75 L 101 73.5 L 102 71.5 L 99 71 L 99.5 68 L 100 70 L 103 69.5 L 101 69 Q 102.13 66.33 99.5 67 L 100 65.5 L 100 54.5 Q 101.75 53.58 101 51 Q 103.75 52 103.5 49 Z M 108 50 L 108 51 L 108 50 Z M 102 54 L 101 57 L 102 57 L 102 54 Z M 102 66 L 102 67 L 102 66 Z M 103 67 Q 101 68 104 69 L 105 68 L 103 67 Z M 108 70 L 108 71 L 108 70 Z M 121 70 L 121 71 L 121 70 Z M 103 72 L 102 74 L 103 74 L 103 72 Z M 106 72 L 106 73 L 107 73 L 106 72 Z M 108 73 L 108 74 L 108 73 Z M 107 74 L 107 75 L 107 74 Z M 119 74 L 119 75 L 119 74 Z M 121 74 L 121 75 L 121 74 Z " /><path fill="rgb(255,255,255)" stroke="rgb(255,255,255)" stroke-width="1" opacity="1" d="M 120.5 49 L 122 49.5 L 120.5 50 L 120.5 49 Z " /><path fill="rgb(255,255,255)" stroke="rgb(255,255,255)" stroke-width="1" opacity="1" d="M 18.5 69 L 18.5 70 L 18.5 69 Z " /><path fill="rgb(255,255,255)" stroke="rgb(255,255,255)" stroke-width="1" opacity="1" d="M 73.5 74 L 73.5 75 L 73.5 74 Z " /><path fill="rgb(3,2,0)" stroke="rgb(3,2,0)" stroke-width="1" opacity="1" d="M 69.5 46 L 69.5 47 L 69.5 46 Z " /><path fill="rgb(3,2,0)" stroke="rgb(3,2,0)" stroke-width="1" opacity="1" d="M 92.5 46 L 92.5 47 L 92.5 46 Z " /><path fill="rgb(3,2,0)" stroke="rgb(3,2,0)" stroke-width="1" opacity="1" d="M 101.5 46 L 101.5 47 L 101.5 46 Z " /><path fill="rgb(3,2,0)" stroke="rgb(3,2,0)" stroke-width="1" opacity="1" d="M 67.5 47 L 67.5 48 L 67.5 47 Z " /><path fill="rgb(3,2,0)" stroke="rgb(3,2,0)" stroke-width="1" opacity="1" d="M 101.5 48 L 101.5 49 L 101.5 48 Z " /><path fill="rgb(3,2,0)" stroke="rgb(3,2,0)" stroke-width="1" opacity="1" d="M 34.5 49 L 34.5 50 L 34.5 49 Z " /><path fill="rgb(3,2,0)" stroke="rgb(3,2,0)" stroke-width="1" opacity="1" d="M 37.5 49 L 37.5 50 L 37.5 49 Z " /><path fill="rgb(3,2,0)" stroke="rgb(3,2,0)" stroke-width="1" opacity="1" d="M 69.5 49 L 69.5 50 L 69.5 49 Z " /><path fill="rgb(3,2,0)" stroke="rgb(3,2,0)" stroke-width="1" opacity="1" d="M 97.5 49 L 97.5 50 L 97.5 49 Z " /><path fill="rgb(3,2,0)" stroke="rgb(3,2,0)" stroke-width="1" opacity="1" d="M 99.5 49 L 99.5 50 L 99.5 49 Z " /><path fill="rgb(3,2,0)" stroke="rgb(3,2,0)" stroke-width="1" opacity="1" d="M 67.5 51 L 67.5 52 L 67.5 51 Z " /><path fill="rgb(3,2,0)" stroke="rgb(3,2,0)" stroke-width="1" opacity="1" d="M 81.5 58 L 81.5 59 L 81.5 58 Z " /><path fill="rgb(3,2,0)" stroke="rgb(3,2,0)" stroke-width="1" opacity="1" d="M 121.5 58 L 121.5 59 L 121.5 58 Z " /><path fill="rgb(3,2,0)" stroke="rgb(3,2,0)" stroke-width="1" opacity="1" d="M 81.5 60 L 81.5 61 L 81.5 60 Z " /><path fill="rgb(3,2,0)" stroke="rgb(3,2,0)" stroke-width="1" opacity="1" d="M 94.5 60 L 94.5 61 L 94.5 60 Z " /><path fill="rgb(3,2,0)" stroke="rgb(3,2,0)" stroke-width="1" opacity="1" d="M 26.5 67 L 26.5 68 L 26.5 67 Z " /><path fill="rgb(3,2,0)" stroke="rgb(3,2,0)" stroke-width="1" opacity="1" d="M 78.5 67 L 78.5 68 L 78.5 67 Z " /><path fill="rgb(3,2,0)" stroke="rgb(3,2,0)" stroke-width="1" opacity="1" d="M 92.5 67 L 92.5 68 L 92.5 67 Z " /><path fill="rgb(3,2,0)" stroke="rgb(3,2,0)" stroke-width="1" opacity="1" d="M 94.5 70 L 94.5 71 L 94.5 70 Z " /><path fill="rgb(3,2,0)" stroke="rgb(3,2,0)" stroke-width="1" opacity="1" d="M 60.5 73 L 60.5 74 L 60.5 73 Z " /><path fill="rgb(3,2,0)" stroke="rgb(3,2,0)" stroke-width="1" opacity="1" d="M 94.5 73 L 94.5 74 L 94.5 73 Z " /><path fill="rgb(3,2,0)" stroke="rgb(3,2,0)" stroke-width="1" opacity="1" d="M 46.5 74 L 46.5 75 L 46.5 74 Z " /><path fill="rgb(3,2,0)" stroke="rgb(3,2,0)" stroke-width="1" opacity="1" d="M 35.5 75 L 35.5 76 L 35.5 75 Z " /><path fill="rgb(3,2,0)" stroke="rgb(3,2,0)" stroke-width="1" opacity="1" d="M 60.5 76 L 60.5 77 L 60.5 76 Z " /><path fill="rgb(3,2,0)" stroke="rgb(3,2,0)" stroke-width="1" opacity="1" d="M 94.5 76 L 94.5 77 L 94.5 76 Z " /><path fill="rgb(253,254,252)" stroke="rgb(253,254,252)" stroke-width="1" opacity="1" d="M 104.5 49 L 104.5 50 L 104.5 49 Z " /><path fill="rgb(253,254,252)" stroke="rgb(253,254,252)" stroke-width="1" opacity="1" d="M 119.5 49 L 119.5 50 L 119.5 49 Z " /><path fill="rgb(253,254,252)" stroke="rgb(253,254,252)" stroke-width="1" opacity="1" d="M 28.5 50 L 28.5 51 L 28.5 50 Z " /><path fill="rgb(253,254,252)" stroke="rgb(253,254,252)" stroke-width="1" opacity="1" d="M 73.5 50 L 73.5 51 L 73.5 50 Z " /><path fill="rgb(253,254,252)" stroke="rgb(253,254,252)" stroke-width="1" opacity="1" d="M 121.5 50 L 121.5 51 L 121.5 50 Z " /><path fill="rgb(253,254,252)" stroke="rgb(253,254,252)" stroke-width="1" opacity="1" d="M 100.5 51 L 100.5 52 L 100.5 51 Z " /><path fill="rgb(253,254,252)" stroke="rgb(253,254,252)" stroke-width="1" opacity="1" d="M 33.5 52 L 35 52.5 L 33.5 53 L 33.5 52 Z " /><path fill="rgb(253,254,252)" stroke="rgb(253,254,252)" stroke-width="1" opacity="1" d="M 99.5 53 L 99.5 54 L 99.5 53 Z " /><path fill="rgb(253,254,252)" stroke="rgb(253,254,252)" stroke-width="1" opacity="1" d="M 17.5 55 L 17.5 56 L 17.5 55 Z " /><path fill="rgb(253,254,252)" stroke="rgb(253,254,252)" stroke-width="1" opacity="1" d="M 26.5 55 L 26.5 56 L 26.5 55 Z " /><path fill="rgb(253,254,252)" stroke="rgb(253,254,252)" stroke-width="1" opacity="1" d="M 31.5 55 L 31.5 56 L 31.5 55 Z " /><path fill="rgb(253,254,252)" stroke="rgb(253,254,252)" stroke-width="1" opacity="1" d="M 48.5 55 L 48.5 56 L 48.5 55 Z " /><path fill="rgb(253,254,252)" stroke="rgb(253,254,252)" stroke-width="1" opacity="1" d="M 98 56 L 100 56.5 L 99 57.5 L 99 67 L 101 67.5 L 99.5 68 L 98 66.5 L 98 56 Z " /><path fill="rgb(253,254,252)" stroke="rgb(253,254,252)" stroke-width="1" opacity="1" d="M 29.5 57 L 30 58.5 L 29 58.5 L 29.5 57 Z " /><path fill="rgb(253,254,252)" stroke="rgb(253,254,252)" stroke-width="1" opacity="1" d="M 30.5 66 L 30.5 67 L 30.5 66 Z " /><path fill="rgb(253,254,252)" stroke="rgb(253,254,252)" stroke-width="1" opacity="1" d="M 105.5 68 L 106 69.5 L 105 69.5 L 105.5 68 Z " /><path fill="rgb(253,254,252)" stroke="rgb(253,254,252)" stroke-width="1" opacity="1" d="M 25.5 69 L 25.5 70 L 25.5 69 Z " /><path fill="rgb(253,254,252)" stroke="rgb(253,254,252)" stroke-width="1" opacity="1" d="M 29.5 69 L 29.5 70 L 29.5 69 Z " /><path fill="rgb(253,254,252)" stroke="rgb(253,254,252)" stroke-width="1" opacity="1" d="M 70.5 69 L 70.5 70 L 70.5 69 Z " /><path fill="rgb(253,254,252)" stroke="rgb(253,254,252)" stroke-width="1" opacity="1" d="M 121.5 69 L 121.5 70 L 121.5 69 Z " /><path fill="rgb(253,254,252)" stroke="rgb(253,254,252)" stroke-width="1" opacity="1" d="M 27.5 70 L 27.5 71 L 27.5 70 Z " /><path fill="rgb(253,254,252)" stroke="rgb(253,254,252)" stroke-width="1" opacity="1" d="M 99.5 71 L 100 72.5 L 99 72.5 L 99.5 71 Z " /><path fill="rgb(253,254,252)" stroke="rgb(253,254,252)" stroke-width="1" opacity="1" d="M 106.5 72 L 106.5 73 L 106.5 72 Z " /><path fill="rgb(253,254,252)" stroke="rgb(253,254,252)" stroke-width="1" opacity="1" d="M 74.5 73 L 77 75.5 L 76.5 76 Q 74.25 76.75 75 74.5 L 74.5 73 Z " /><path fill="rgb(253,254,252)" stroke="rgb(253,254,252)" stroke-width="1" opacity="1" d="M 102.5 73 Q 105 74 103.5 75 Q 101 74 102.5 73 Z " /><path fill="rgb(253,254,252)" stroke="rgb(253,254,252)" stroke-width="1" opacity="1" d="M 72.5 74 L 72.5 75 L 72.5 74 Z " /><path fill="rgb(253,254,252)" stroke="rgb(253,254,252)" stroke-width="1" opacity="1" d="M 118.5 74 L 118.5 75 L 118.5 74 Z " /><path fill="rgb(253,254,252)" stroke="rgb(253,254,252)" stroke-width="1" opacity="1" d="M 92.5 75 L 92.5 76 L 92.5 75 Z " /><path fill="rgb(254,253,251)" stroke="rgb(254,253,251)" stroke-width="1" opacity="1" d="M 9.5 49 L 10 73.5 L 9 73.5 L 9.5 49 Z " /><path fill="rgb(254,253,251)" stroke="rgb(254,253,251)" stroke-width="1" opacity="1" d="M 63.5 49 L 63.5 50 L 63.5 49 Z " /><path fill="rgb(254,253,251)" stroke="rgb(254,253,251)" stroke-width="1" opacity="1" d="M 92.5 49 L 92.5 50 L 92.5 49 Z " /><path fill="rgb(254,253,251)" stroke="rgb(254,253,251)" stroke-width="1" opacity="1" d="M 118.5 49 L 118.5 50 L 118.5 49 Z " /><path fill="rgb(254,253,251)" stroke="rgb(254,253,251)" stroke-width="1" opacity="1" d="M 31.5 50 L 31.5 51 L 31.5 50 Z " /><path fill="rgb(254,253,251)" stroke="rgb(254,253,251)" stroke-width="1" opacity="1" d="M 33.5 50 L 36 53.5 L 35 53.5 L 33 50.5 L 33.5 50 Z " /><path fill="rgb(254,253,251)" stroke="rgb(254,253,251)" stroke-width="1" opacity="1" d="M 65.5 50 L 65.5 51 L 65.5 50 Z " /><path fill="rgb(254,253,251)" stroke="rgb(254,253,251)" stroke-width="1" opacity="1" d="M 102.5 50 L 102.5 51 L 102.5 50 Z " /><path fill="rgb(254,253,251)" stroke="rgb(254,253,251)" stroke-width="1" opacity="1" d="M 99.5 52 L 99.5 53 L 99.5 52 Z " /><path fill="rgb(254,253,251)" stroke="rgb(254,253,251)" stroke-width="1" opacity="1" d="M 70.5 53 L 70.5 54 L 70.5 53 Z " /><path fill="rgb(254,253,251)" stroke="rgb(254,253,251)" stroke-width="1" opacity="1" d="M 18.5 55 L 26 55.5 L 18.5 56 L 18.5 55 Z " /><path fill="rgb(254,253,251)" stroke="rgb(254,253,251)" stroke-width="1" opacity="1" d="M 41.5 55 L 48 55.5 L 41.5 56 L 41.5 55 Z " /><path fill="rgb(254,253,251)" stroke="rgb(254,253,251)" stroke-width="1" opacity="1" d="M 58.5 55 L 66 55.5 L 58.5 56 L 58.5 55 Z " /><path fill="rgb(254,253,251)" stroke="rgb(254,253,251)" stroke-width="1" opacity="1" d="M 98.5 55 L 100 55.5 L 98.5 56 L 98.5 55 Z " /><path fill="rgb(254,253,251)" stroke="rgb(254,253,251)" stroke-width="1" opacity="1" d="M 30.5 58 L 30.5 59 L 30.5 58 Z " /><path fill="rgb(254,253,251)" stroke="rgb(254,253,251)" stroke-width="1" opacity="1" d="M 30.5 63 L 30.5 64 L 30.5 63 Z " /><path fill="rgb(254,253,251)" stroke="rgb(254,253,251)" stroke-width="1" opacity="1" d="M 98.5 67 L 99 69.5 L 98 69.5 L 98.5 67 Z " /><path fill="rgb(254,253,251)" stroke="rgb(254,253,251)" stroke-width="1" opacity="1" d="M 28.5 68 L 28.5 69 L 28.5 68 Z " /><path fill="rgb(254,253,251)" stroke="rgb(254,253,251)" stroke-width="1" opacity="1" d="M 19.5 69 Q 21 70 18.5 71 Q 17 70 19.5 69 Z " /><path fill="rgb(254,253,251)" stroke="rgb(254,253,251)" stroke-width="1" opacity="1" d="M 78.5 69 L 78.5 70 L 78.5 69 Z " /><path fill="rgb(254,253,251)" stroke="rgb(254,253,251)" stroke-width="1" opacity="1" d="M 80.5 69 Q 83 70 81.5 71 Q 79 70 80.5 69 Z " /><path fill="rgb(254,253,251)" stroke="rgb(254,253,251)" stroke-width="1" opacity="1" d="M 106.5 69 L 106.5 70 L 106.5 69 Z " /><path fill="rgb(254,253,251)" stroke="rgb(254,253,251)" stroke-width="1" opacity="1" d="M 26.5 70 L 26.5 71 L 26.5 70 Z " /><path fill="rgb(254,253,251)" stroke="rgb(254,253,251)" stroke-width="1" opacity="1" d="M 92.5 70 L 92.5 71 L 92.5 70 Z " /><path fill="rgb(254,253,251)" stroke="rgb(254,253,251)" stroke-width="1" opacity="1" d="M 70.5 71 L 72 73.5 L 71 73.5 L 70.5 71 Z " /><path fill="rgb(254,253,251)" stroke="rgb(254,253,251)" stroke-width="1" opacity="1" d="M 34.5 72 L 34.5 73 L 34.5 72 Z " /><path fill="rgb(254,253,251)" stroke="rgb(254,253,251)" stroke-width="1" opacity="1" d="M 92.5 73 L 92.5 74 L 92.5 73 Z " /><path fill="rgb(254,253,251)" stroke="rgb(254,253,251)" stroke-width="1" opacity="1" d="M 33.5 74 L 33.5 75 L 33.5 74 Z " /><path fill="rgb(254,253,251)" stroke="rgb(254,253,251)" stroke-width="1" opacity="1" d="M 56.5 74 L 56.5 75 L 56.5 74 Z " /><path fill="rgb(254,253,251)" stroke="rgb(254,253,251)" stroke-width="1" opacity="1" d="M 74.5 74 L 74.5 75 L 74.5 74 Z " /><path fill="rgb(254,253,251)" stroke="rgb(254,253,251)" stroke-width="1" opacity="1" d="M 101.5 74 L 101.5 75 L 101.5 74 Z " /><path fill="rgb(254,253,251)" stroke="rgb(254,253,251)" stroke-width="1" opacity="1" d="M 31.5 75 L 31.5 76 L 31.5 75 Z " /><path fill="rgb(254,253,251)" stroke="rgb(254,253,251)" stroke-width="1" opacity="1" d="M 103.5 75 L 103.5 76 L 103.5 75 Z " /><path fill="rgb(242,242,240)" stroke="rgb(242,242,240)" stroke-width="1" opacity="1" d="M 32.5 49 L 32.5 50 L 32.5 49 Z " /><path fill="rgb(242,242,240)" stroke="rgb(242,242,240)" stroke-width="1" opacity="1" d="M 73.5 49 Q 75 50 72.5 51 Q 71 50 73.5 49 Z " /><path fill="rgb(242,242,240)" stroke="rgb(242,242,240)" stroke-width="1" opacity="1" d="M 93.5 49 L 94 55.5 L 93 55.5 L 93.5 49 Z " /><path fill="rgb(242,242,240)" stroke="rgb(242,242,240)" stroke-width="1" opacity="1" d="M 102.5 49 L 102.5 50 L 102.5 49 Z " /><path fill="rgb(242,242,240)" stroke="rgb(242,242,240)" stroke-width="1" opacity="1" d="M 99.5 51 L 99.5 52 L 99.5 51 Z " /><path fill="rgb(242,242,240)" stroke="rgb(242,242,240)" stroke-width="1" opacity="1" d="M 36.5 54 L 37 70.5 L 36 70.5 L 36.5 54 Z " /><path fill="rgb(242,242,240)" stroke="rgb(242,242,240)" stroke-width="1" opacity="1" d="M 98.5 54 L 98.5 55 L 98.5 54 Z " /><path fill="rgb(242,242,240)" stroke="rgb(242,242,240)" stroke-width="1" opacity="1" d="M 69.5 55 L 70 69.5 L 69 69.5 L 69.5 55 Z " /><path fill="rgb(242,242,240)" stroke="rgb(242,242,240)" stroke-width="1" opacity="1" d="M 27.5 56 Q 30 57 28.5 58 Q 26 57 27.5 56 Z " /><path fill="rgb(242,242,240)" stroke="rgb(242,242,240)" stroke-width="1" opacity="1" d="M 77.5 56 L 78 68.5 L 77 68.5 L 77.5 56 Z " /><path fill="rgb(242,242,240)" stroke="rgb(242,242,240)" stroke-width="1" opacity="1" d="M 28.5 67 L 28.5 68 L 28.5 67 Z " /><path fill="rgb(242,242,240)" stroke="rgb(242,242,240)" stroke-width="1" opacity="1" d="M 17.5 69 L 17.5 70 L 17.5 69 Z " /><path fill="rgb(242,242,240)" stroke="rgb(242,242,240)" stroke-width="1" opacity="1" d="M 93.5 69 L 94 75.5 L 93 75.5 L 93.5 69 Z " /><path fill="rgb(242,242,240)" stroke="rgb(242,242,240)" stroke-width="1" opacity="1" d="M 98.5 70 L 98.5 71 L 98.5 70 Z " /><path fill="rgb(242,242,240)" stroke="rgb(242,242,240)" stroke-width="1" opacity="1" d="M 70.5 72 L 70.5 73 L 70.5 72 Z " /><path fill="rgb(242,242,240)" stroke="rgb(242,242,240)" stroke-width="1" opacity="1" d="M 35.5 73 Q 37 74 34.5 75 Q 33 74 35.5 73 Z " /><path fill="rgb(242,242,240)" stroke="rgb(242,242,240)" stroke-width="1" opacity="1" d="M 99.5 73 Q 102 74 100.5 75 Q 98 74 99.5 73 Z " /><path fill="rgb(242,242,240)" stroke="rgb(242,242,240)" stroke-width="1" opacity="1" d="M 9.5 74 L 10 75.5 L 9 75.5 L 9.5 74 Z " /><path fill="rgb(242,242,240)" stroke="rgb(242,242,240)" stroke-width="1" opacity="1" d="M 32.5 75 L 32.5 76 L 32.5 75 Z " /><path fill="rgb(242,242,240)" stroke="rgb(242,242,240)" stroke-width="1" opacity="1" d="M 74.5 75 L 74.5 76 L 74.5 75 Z " /><path fill="rgb(242,242,240)" stroke="rgb(242,242,240)" stroke-width="1" opacity="1" d="M 102.5 75 L 102.5 76 L 102.5 75 Z " /></svg>