<svg width="16" height="16" version="1.1" xmlns="http://www.w3.org/2000/svg" desc="Created with imagetracer.js version 1.2.6" ><path fill="rgb(220,201,185)" stroke="rgb(220,201,185)" stroke-width="1" opacity="1" d="M 8.5 0 L 8.5 1 L 8.5 0 Z " /><path fill="rgb(220,201,185)" stroke="rgb(220,201,185)" stroke-width="1" opacity="1" d="M 10.5 1 L 10.5 2 L 10.5 1 Z " /><path fill="rgb(220,201,185)" stroke="rgb(220,201,185)" stroke-width="1" opacity="1" d="M 14.5 1 L 14.5 2 L 14.5 1 Z " /><path fill="rgb(220,201,185)" stroke="rgb(220,201,185)" stroke-width="1" opacity="1" d="M 8.5 6 Q 11 7 9.5 8 Q 7 7 8.5 6 Z " /><path fill="rgb(169,121,81)" stroke="rgb(169,121,81)" stroke-width="1" opacity="0.9803921568627451" d="M 0.5 14 L 0.5 15 L 0.5 14 Z " /><path fill="rgb(170,123,83)" stroke="rgb(170,123,83)" stroke-width="1" opacity="1" d="M 1 0 L 8 0.5 L 6 1 L 7 3.5 L 5 5.5 L 3 13 L 1 12.5 L 1 0 Z " /><path fill="rgb(203,175,151)" stroke="rgb(203,175,151)" stroke-width="1" opacity="1" d="M 7.5 2 L 7.5 3 L 7.5 2 Z " /><path fill="rgb(203,175,151)" stroke="rgb(203,175,151)" stroke-width="1" opacity="1" d="M 15.5 2 L 15.5 3 L 15.5 2 Z " /><path fill="rgb(249,245,242)" stroke="rgb(249,245,242)" stroke-width="1" opacity="1" d="M 8.5 2 L 8.5 3 L 8.5 2 Z " /><path fill="rgb(223,206,192)" stroke="rgb(223,206,192)" stroke-width="1" opacity="1" d="M 10.5 2 L 10.5 3 L 10.5 2 Z " /><path fill="rgb(223,206,192)" stroke="rgb(223,206,192)" stroke-width="1" opacity="1" d="M 9.5 8 L 9.5 9 L 9.5 8 Z " /><path fill="rgb(225,209,194)" stroke="rgb(225,209,194)" stroke-width="1" opacity="1" d="M 10.5 3 L 10.5 4 L 10.5 3 Z " /><path fill="rgb(194,160,132)" stroke="rgb(194,160,132)" stroke-width="1" opacity="1" d="M 12.5 3 L 13 4.5 L 12 4.5 L 12.5 3 Z " /><path fill="rgb(194,160,132)" stroke="rgb(194,160,132)" stroke-width="1" opacity="1" d="M 13.5 7 L 13.5 8 L 13.5 7 Z " /><path fill="rgb(194,160,132)" stroke="rgb(194,160,132)" stroke-width="1" opacity="1" d="M 5.5 8 L 5.5 9 L 5.5 8 Z " /><path fill="rgb(194,160,132)" stroke="rgb(194,160,132)" stroke-width="1" opacity="1" d="M 14.5 11 L 14.5 12 L 14.5 11 Z " /><path fill="rgb(194,160,132)" stroke="rgb(194,160,132)" stroke-width="1" opacity="1" d="M 12.5 15 L 12.5 16 L 12.5 15 Z " /><path fill="rgb(211,188,167)" stroke="rgb(211,188,167)" stroke-width="1" opacity="1" d="M 9.5 4 L 9.5 5 L 9.5 4 Z " /><path fill="rgb(211,188,167)" stroke="rgb(211,188,167)" stroke-width="1" opacity="1" d="M 8.5 8 L 8.5 9 L 8.5 8 Z " /><path fill="rgb(211,188,167)" stroke="rgb(211,188,167)" stroke-width="1" opacity="1" d="M 15.5 9 L 15.5 10 L 15.5 9 Z " /><path fill="rgb(211,188,167)" stroke="rgb(211,188,167)" stroke-width="1" opacity="1" d="M 8.5 10 L 8.5 11 L 8.5 10 Z " /><path fill="rgb(211,188,167)" stroke="rgb(211,188,167)" stroke-width="1" opacity="1" d="M 7.5 13 L 7 14.5 L 6.5 16 L 6 14.5 L 7.5 13 Z " /><path fill="rgb(170,123,83)" stroke="rgb(170,123,83)" stroke-width="1" opacity="0.9803921568627451" d="M 0.5 0 L 1 13.5 L 0 13.5 L 0.5 0 Z " /><path fill="rgb(169,122,81)" stroke="rgb(169,122,81)" stroke-width="1" opacity="1" d="M 6.5 1 L 6.5 2 L 6.5 1 Z " /><path fill="rgb(169,122,81)" stroke="rgb(169,122,81)" stroke-width="1" opacity="1" d="M 5.5 5 L 6 6.5 L 5 6.5 L 5.5 5 Z " /><path fill="rgb(169,122,81)" stroke="rgb(169,122,81)" stroke-width="1" opacity="1" d="M 3.5 10 L 3.5 11 L 3.5 10 Z " /><path fill="rgb(169,122,81)" stroke="rgb(169,122,81)" stroke-width="1" opacity="1" d="M 1.5 13 L 1.5 14 L 1.5 13 Z " /><path fill="rgb(237,227,218)" stroke="rgb(237,227,218)" stroke-width="1" opacity="1" d="M 7.5 4 L 9 4.5 L 7.5 5 L 7.5 4 Z " /><path fill="rgb(251,249,247)" stroke="rgb(251,249,247)" stroke-width="1" opacity="1" d="M 7.5 5 L 7.5 6 L 7.5 5 Z " /><path fill="rgb(251,249,247)" stroke="rgb(251,249,247)" stroke-width="1" opacity="1" d="M 6.5 8 L 6.5 9 L 6.5 8 Z " /><path fill="rgb(229,215,203)" stroke="rgb(229,215,203)" stroke-width="1" opacity="1" d="M 8.5 5 L 8.5 6 L 8.5 5 Z " /><path fill="rgb(229,215,203)" stroke="rgb(229,215,203)" stroke-width="1" opacity="1" d="M 7.5 10 L 7.5 11 L 7.5 10 Z " /><path fill="rgb(229,215,203)" stroke="rgb(229,215,203)" stroke-width="1" opacity="1" d="M 4.5 11 L 4.5 12 L 4.5 11 Z " /><path fill="rgb(229,215,203)" stroke="rgb(229,215,203)" stroke-width="1" opacity="1" d="M 6.5 13 L 6.5 14 L 6.5 13 Z " /><path fill="rgb(229,215,203)" stroke="rgb(229,215,203)" stroke-width="1" opacity="1" d="M 5.5 15 L 5.5 16 L 5.5 15 Z " /><path fill="rgb(225,209,195)" stroke="rgb(225,209,195)" stroke-width="1" opacity="1" d="M 10.5 4 L 11 6.5 L 10 6.5 L 10.5 4 Z " /><path fill="rgb(225,209,195)" stroke="rgb(225,209,195)" stroke-width="1" opacity="1" d="M 15.5 6 L 15.5 7 L 15.5 6 Z " /><path fill="rgb(225,209,195)" stroke="rgb(225,209,195)" stroke-width="1" opacity="1" d="M 9.5 9 L 9.5 10 L 9.5 9 Z " /><path fill="rgb(225,209,195)" stroke="rgb(225,209,195)" stroke-width="1" opacity="1" d="M 9.5 12 L 11 15.5 L 9.5 15 L 8 14.5 L 9.5 12 Z " /><path fill="rgb(194,159,130)" stroke="rgb(194,159,130)" stroke-width="1" opacity="1" d="M 13.5 1 L 13.5 2 L 13.5 1 Z " /><path fill="rgb(194,159,130)" stroke="rgb(194,159,130)" stroke-width="1" opacity="1" d="M 13.5 6 Q 16 7 14.5 8 Q 12 7 13.5 6 Z " /><path fill="rgb(194,159,130)" stroke="rgb(194,159,130)" stroke-width="1" opacity="1" d="M 4.5 10 L 4.5 11 L 4.5 10 Z " /><path fill="rgb(201,172,146)" stroke="rgb(201,172,146)" stroke-width="1" opacity="1" d="M 13.5 0 L 13.5 1 L 13.5 0 Z " /><path fill="rgb(201,172,146)" stroke="rgb(201,172,146)" stroke-width="1" opacity="1" d="M 14.5 5 L 14.5 6 L 14.5 5 Z " /><path fill="rgb(201,172,146)" stroke="rgb(201,172,146)" stroke-width="1" opacity="1" d="M 15.5 10 L 15.5 11 L 15.5 10 Z " /><path fill="rgb(172,126,87)" stroke="rgb(172,126,87)" stroke-width="1" opacity="1" d="M 15.5 0 L 15.5 1 L 15.5 0 Z " /><path fill="rgb(172,126,87)" stroke="rgb(172,126,87)" stroke-width="1" opacity="1" d="M 4.5 9 L 4.5 10 L 4.5 9 Z " /><path fill="rgb(254,253,253)" stroke="rgb(254,253,253)" stroke-width="1" opacity="1" d="M 4.5 12 L 4.5 13 L 4.5 12 Z " /><path fill="rgb(213,191,171)" stroke="rgb(213,191,171)" stroke-width="1" opacity="1" d="M 10.5 0 Q 12 1 9.5 2 Q 8 1 10.5 0 Z " /><path fill="rgb(213,191,171)" stroke="rgb(213,191,171)" stroke-width="1" opacity="1" d="M 14.5 3 L 14.5 4 L 14.5 3 Z " /><path fill="rgb(213,191,171)" stroke="rgb(213,191,171)" stroke-width="1" opacity="1" d="M 9.5 5 L 9.5 6 L 9.5 5 Z " /><path fill="rgb(213,191,171)" stroke="rgb(213,191,171)" stroke-width="1" opacity="1" d="M 8.5 7 L 8.5 8 L 8.5 7 Z " /><path fill="rgb(225,208,194)" stroke="rgb(225,208,194)" stroke-width="1" opacity="1" d="M 10.5 7 L 10.5 8 L 10.5 7 Z " /><path fill="rgb(194,160,131)" stroke="rgb(194,160,131)" stroke-width="1" opacity="1" d="M 12.5 2 L 12.5 3 L 12.5 2 Z " /><path fill="rgb(194,160,131)" stroke="rgb(194,160,131)" stroke-width="1" opacity="1" d="M 12.5 5 L 13 14.5 L 12 14.5 L 12.5 5 Z " /><path fill="rgb(194,160,131)" stroke="rgb(194,160,131)" stroke-width="1" opacity="1" d="M 15.5 13 L 15.5 14 L 15.5 13 Z " /><path fill="rgb(192,158,128)" stroke="rgb(192,158,128)" stroke-width="1" opacity="1" d="M 12.5 1 L 12.5 2 L 12.5 1 Z " /><path fill="rgb(192,158,128)" stroke="rgb(192,158,128)" stroke-width="1" opacity="1" d="M 13.5 5 L 13.5 6 L 13.5 5 Z " /><path fill="rgb(192,158,128)" stroke="rgb(192,158,128)" stroke-width="1" opacity="1" d="M 14.5 10 L 14.5 11 L 14.5 10 Z " /><path fill="rgb(192,158,128)" stroke="rgb(192,158,128)" stroke-width="1" opacity="1" d="M 2.5 13 L 2.5 14 L 2.5 13 Z " /><path fill="rgb(225,210,196)" stroke="rgb(225,210,196)" stroke-width="1" opacity="1" d="M 9.5 0 L 9.5 1 L 9.5 0 Z " /><path fill="rgb(225,210,196)" stroke="rgb(225,210,196)" stroke-width="1" opacity="1" d="M 15.5 5 L 15.5 6 L 15.5 5 Z " /><path fill="rgb(225,210,196)" stroke="rgb(225,210,196)" stroke-width="1" opacity="1" d="M 5.5 9 L 5.5 10 L 5.5 9 Z " /><path fill="rgb(225,210,196)" stroke="rgb(225,210,196)" stroke-width="1" opacity="1" d="M 9.5 10 L 10 11.5 L 9 11.5 L 9.5 10 Z " /><path fill="rgb(225,210,196)" stroke="rgb(225,210,196)" stroke-width="1" opacity="1" d="M 8.5 13 L 8.5 14 L 8.5 13 Z " /><path fill="rgb(225,210,196)" stroke="rgb(225,210,196)" stroke-width="1" opacity="1" d="M 7.5 15 L 10 15.5 L 7.5 16 L 7.5 15 Z " /><path fill="rgb(241,234,228)" stroke="rgb(241,234,228)" stroke-width="1" opacity="1" d="M 8.5 3 L 8.5 4 L 8.5 3 Z " /><path fill="rgb(241,234,228)" stroke="rgb(241,234,228)" stroke-width="1" opacity="1" d="M 7.5 9 L 7.5 10 L 7.5 9 Z " /><path fill="rgb(241,234,228)" stroke="rgb(241,234,228)" stroke-width="1" opacity="1" d="M 2.5 14 L 2.5 15 L 2.5 14 Z " /><path fill="rgb(208,183,161)" stroke="rgb(208,183,161)" stroke-width="1" opacity="1" d="M 14.5 0 L 14.5 1 L 14.5 0 Z " /><path fill="rgb(208,183,161)" stroke="rgb(208,183,161)" stroke-width="1" opacity="1" d="M 9.5 2 L 10 3.5 L 9 3.5 L 9.5 2 Z " /><path fill="rgb(208,183,161)" stroke="rgb(208,183,161)" stroke-width="1" opacity="1" d="M 14.5 4 L 14.5 5 L 14.5 4 Z " /><path fill="rgb(208,183,161)" stroke="rgb(208,183,161)" stroke-width="1" opacity="1" d="M 6.5 6 L 6.5 7 L 6.5 6 Z " /><path fill="rgb(208,183,161)" stroke="rgb(208,183,161)" stroke-width="1" opacity="1" d="M 8.5 9 L 8.5 10 L 8.5 9 Z " /><path fill="rgb(208,183,161)" stroke="rgb(208,183,161)" stroke-width="1" opacity="1" d="M 3.5 12 L 3.5 13 L 3.5 12 Z " /><path fill="rgb(208,183,161)" stroke="rgb(208,183,161)" stroke-width="1" opacity="1" d="M 7.5 12 L 7.5 13 L 7.5 12 Z " /><path fill="rgb(224,208,194)" stroke="rgb(224,208,194)" stroke-width="1" opacity="1" d="M 15.5 4 L 15.5 5 L 15.5 4 Z " /><path fill="rgb(224,208,194)" stroke="rgb(224,208,194)" stroke-width="1" opacity="1" d="M 10.5 8 L 11 14.5 L 10 14.5 L 10.5 8 Z " /><path fill="rgb(190,154,123)" stroke="rgb(190,154,123)" stroke-width="1" opacity="1" d="M 12.5 0 L 12.5 1 L 12.5 0 Z " /><path fill="rgb(190,154,123)" stroke="rgb(190,154,123)" stroke-width="1" opacity="1" d="M 13.5 2 L 14 4.5 L 13 4.5 L 13.5 2 Z " /><path fill="rgb(190,154,123)" stroke="rgb(190,154,123)" stroke-width="1" opacity="1" d="M 6.5 5 L 6.5 6 L 6.5 5 Z " /><path fill="rgb(190,154,123)" stroke="rgb(190,154,123)" stroke-width="1" opacity="1" d="M 14.5 8 L 15 9.5 L 14 9.5 L 14.5 8 Z " /><path fill="rgb(190,154,123)" stroke="rgb(190,154,123)" stroke-width="1" opacity="1" d="M 15.5 11 L 15.5 12 L 15.5 11 Z " /><path fill="rgb(175,130,92)" stroke="rgb(175,130,92)" stroke-width="1" opacity="1" d="M 6.5 4 L 6.5 5 L 6.5 4 Z " /><path fill="rgb(175,130,92)" stroke="rgb(175,130,92)" stroke-width="1" opacity="1" d="M 5.5 7 L 5.5 8 L 5.5 7 Z " /><path fill="rgb(175,130,92)" stroke="rgb(175,130,92)" stroke-width="1" opacity="1" d="M 3.5 11 L 3.5 12 L 3.5 11 Z " /><path fill="rgb(255,255,255)" stroke="rgb(255,255,255)" stroke-width="1" opacity="1" d="M 7.5 6 L 8 7.5 L 7 7.5 L 7.5 6 Z " /><path fill="rgb(255,255,255)" stroke="rgb(255,255,255)" stroke-width="1" opacity="1" d="M 6.5 9 L 7 11.5 L 5 16 L 2 15.5 Q 5.35 13.35 6.5 9 Z " /><path fill="rgb(216,194,176)" stroke="rgb(216,194,176)" stroke-width="1" opacity="1" d="M 15.5 3 L 15.5 4 L 15.5 3 Z " /><path fill="rgb(216,194,176)" stroke="rgb(216,194,176)" stroke-width="1" opacity="1" d="M 7.5 11 L 7.5 12 L 7.5 11 Z " /><path fill="rgb(218,198,180)" stroke="rgb(218,198,180)" stroke-width="1" opacity="1" d="M 14.5 2 L 14.5 3 L 14.5 2 Z " /><path fill="rgb(218,198,180)" stroke="rgb(218,198,180)" stroke-width="1" opacity="1" d="M 9.5 6 L 9.5 7 L 9.5 6 Z " /><path fill="rgb(218,198,180)" stroke="rgb(218,198,180)" stroke-width="1" opacity="1" d="M 15.5 8 L 15.5 9 L 15.5 8 Z " /><path fill="rgb(218,198,180)" stroke="rgb(218,198,180)" stroke-width="1" opacity="1" d="M 8.5 11 L 8.5 12 L 8.5 11 Z " /><path fill="rgb(224,208,193)" stroke="rgb(224,208,193)" stroke-width="1" opacity="1" d="M 8.5 12 L 8.5 13 L 8.5 12 Z " /><path fill="rgb(196,163,135)" stroke="rgb(196,163,135)" stroke-width="1" opacity="1" d="M 11.5 0 L 12 15.5 L 11 15.5 L 11.5 0 Z " /><path fill="rgb(196,163,135)" stroke="rgb(196,163,135)" stroke-width="1" opacity="1" d="M 14.5 6 L 14.5 7 L 14.5 6 Z " /><path fill="rgb(196,163,135)" stroke="rgb(196,163,135)" stroke-width="1" opacity="1" d="M 13.5 8 L 14 11.5 L 16 16 L 13 16 L 13.5 8 Z " /><path fill="rgb(186,148,115)" stroke="rgb(186,148,115)" stroke-width="1" opacity="1" d="M 7.5 1 L 7.5 2 L 7.5 1 Z " /><path fill="rgb(186,148,115)" stroke="rgb(186,148,115)" stroke-width="1" opacity="1" d="M 15.5 1 L 15.5 2 L 15.5 1 Z " /><path fill="rgb(186,148,115)" stroke="rgb(186,148,115)" stroke-width="1" opacity="1" d="M 15.5 12 L 15.5 13 L 15.5 12 Z " /><path fill="rgb(186,148,115)" stroke="rgb(186,148,115)" stroke-width="1" opacity="1" d="M 1.5 14 L 1.5 15 L 1.5 14 Z " /><path fill="rgb(169,121,80)" stroke="rgb(169,121,80)" stroke-width="1" opacity="1" d="M 6.5 2 L 6.5 3 L 6.5 2 Z " /><path fill="rgb(169,121,80)" stroke="rgb(169,121,80)" stroke-width="1" opacity="1" d="M 4.5 8 L 4.5 9 L 4.5 8 Z " /><path fill="rgb(246,241,237)" stroke="rgb(246,241,237)" stroke-width="1" opacity="1" d="M 8.5 1 L 8.5 2 L 8.5 1 Z " /><path fill="rgb(246,241,237)" stroke="rgb(246,241,237)" stroke-width="1" opacity="1" d="M 6.5 12 L 6.5 13 L 6.5 12 Z " /><path fill="rgb(246,241,237)" stroke="rgb(246,241,237)" stroke-width="1" opacity="1" d="M 3.5 13 L 3.5 14 L 3.5 13 Z " /><path fill="rgb(250,247,245)" stroke="rgb(250,247,245)" stroke-width="1" opacity="1" d="M 7.5 8 L 7.5 9 L 7.5 8 Z " /><path fill="rgb(250,247,245)" stroke="rgb(250,247,245)" stroke-width="1" opacity="1" d="M 5.5 10 L 5.5 11 L 5.5 10 Z " /><path fill="rgb(250,247,245)" stroke="rgb(250,247,245)" stroke-width="1" opacity="1" d="M 5.5 14 L 5.5 15 L 5.5 14 Z " /><path fill="rgb(222,204,189)" stroke="rgb(222,204,189)" stroke-width="1" opacity="1" d="M 7.5 3 L 7.5 4 L 7.5 3 Z " /><path fill="rgb(222,204,189)" stroke="rgb(222,204,189)" stroke-width="1" opacity="1" d="M 15.5 7 L 15.5 8 L 15.5 7 Z " /><path fill="rgb(222,204,189)" stroke="rgb(222,204,189)" stroke-width="1" opacity="1" d="M 7.5 14 L 7.5 15 L 7.5 14 Z " /><path fill="rgb(179,138,102)" stroke="rgb(179,138,102)" stroke-width="1" opacity="0.9803921568627451" d="M 0.5 15 L 0.5 16 L 0.5 15 Z " /><path fill="rgb(233,222,212)" stroke="rgb(233,222,212)" stroke-width="1" opacity="1" d="M 6.5 7 L 6.5 8 L 6.5 7 Z " /><path fill="rgb(233,222,212)" stroke="rgb(233,222,212)" stroke-width="1" opacity="1" d="M 1.5 15 L 1.5 16 L 1.5 15 Z " /></svg>