<svg width="16" height="16" version="1.1" xmlns="http://www.w3.org/2000/svg" desc="Created with imagetracer.js version 1.2.6" ><path fill="rgb(255,255,255)" stroke="rgb(255,255,255)" stroke-width="1" opacity="0" d="M 2.5 0 L 3 0.5 L 0.5 3 L 0 1 L 2.5 0 Z " /><path fill="rgb(255,255,255)" stroke="rgb(255,255,255)" stroke-width="1" opacity="0" d="M 13.5 0 L 16 1 L 15.5 3 L 13 0.5 L 13.5 0 Z " /><path fill="rgb(255,255,255)" stroke="rgb(255,255,255)" stroke-width="1" opacity="0" d="M 0.5 13 L 3 15.5 L 2.5 16 L 0 15 L 0.5 13 Z " /><path fill="rgb(255,255,255)" stroke="rgb(255,255,255)" stroke-width="1" opacity="0" d="M 15.5 13 L 16 15 L 13.5 16 L 13 15.5 L 15.5 13 Z " /><path fill="rgb(255,255,255)" stroke="rgb(255,255,255)" stroke-width="1" opacity="0.09411764705882353" d="M 2.5 1 Q 4 2 1.5 3 Q 0 2 2.5 1 Z " /><path fill="rgb(255,255,255)" stroke="rgb(255,255,255)" stroke-width="1" opacity="0.09411764705882353" d="M 13.5 1 Q 16 2 14.5 3 Q 12 2 13.5 1 Z " /><path fill="rgb(255,255,255)" stroke="rgb(255,255,255)" stroke-width="1" opacity="0.09411764705882353" d="M 1.5 13 Q 4 14 2.5 15 Q 0 14 1.5 13 Z " /><path fill="rgb(255,255,255)" stroke="rgb(255,255,255)" stroke-width="1" opacity="0.09411764705882353" d="M 14.5 13 Q 16 14 13.5 15 Q 12 14 14.5 13 Z " /><path fill="rgb(249,249,249)" stroke="rgb(249,249,249)" stroke-width="1" opacity="1" d="M 3.5 2 L 7 2.5 L 3.5 3 L 3.5 2 Z " /><path fill="rgb(249,249,249)" stroke="rgb(249,249,249)" stroke-width="1" opacity="1" d="M 10.5 2 L 12 2.5 L 10.5 3 L 10.5 2 Z " /><path fill="rgb(251,251,251)" stroke="rgb(251,251,251)" stroke-width="1" opacity="1" d="M 2.5 3 L 2.5 4 L 2.5 3 Z " /><path fill="rgb(251,251,251)" stroke="rgb(251,251,251)" stroke-width="1" opacity="1" d="M 9.5 5 L 9.5 6 L 9.5 5 Z " /><path fill="rgb(251,251,251)" stroke="rgb(251,251,251)" stroke-width="1" opacity="1" d="M 11.5 6 L 11.5 7 L 11.5 6 Z " /><path fill="rgb(251,251,251)" stroke="rgb(251,251,251)" stroke-width="1" opacity="1" d="M 13.5 11 L 13.5 12 L 13.5 11 Z " /><path fill="rgb(247,247,247)" stroke="rgb(247,247,247)" stroke-width="1" opacity="1" d="M 7.5 2 L 10 2.5 L 7.5 3 L 7.5 2 Z " /><path fill="rgb(247,247,247)" stroke="rgb(247,247,247)" stroke-width="1" opacity="1" d="M 9.5 10 L 9.5 11 L 9.5 10 Z " /><path fill="rgb(247,247,247)" stroke="rgb(247,247,247)" stroke-width="1" opacity="1" d="M 13.5 10 L 13.5 11 L 13.5 10 Z " /><path fill="rgb(78,78,78)" stroke="rgb(78,78,78)" stroke-width="1" opacity="1" d="M 4.5 3 L 7 3.5 L 4.5 4 L 4.5 3 Z " /><path fill="rgb(78,78,78)" stroke="rgb(78,78,78)" stroke-width="1" opacity="1" d="M 10.5 3 L 12 3.5 L 10.5 4 L 10.5 3 Z " /><path fill="rgb(78,78,78)" stroke="rgb(78,78,78)" stroke-width="1" opacity="1" d="M 9.5 7 L 10 8.5 L 9 8.5 L 9.5 7 Z " /><path fill="rgb(78,78,78)" stroke="rgb(78,78,78)" stroke-width="1" opacity="1" d="M 12.5 11 L 12.5 12 L 12.5 11 Z " /><path fill="rgb(78,78,78)" stroke="rgb(78,78,78)" stroke-width="1" opacity="1" d="M 4.5 12 L 4.5 13 L 4.5 12 Z " /><path fill="rgb(78,78,78)" stroke="rgb(78,78,78)" stroke-width="1" opacity="1" d="M 7.5 12 L 7.5 13 L 7.5 12 Z " /><path fill="rgb(227,227,227)" stroke="rgb(227,227,227)" stroke-width="1" opacity="1" d="M 12.5 3 L 12.5 4 L 12.5 3 Z " /><path fill="rgb(227,227,227)" stroke="rgb(227,227,227)" stroke-width="1" opacity="1" d="M 9.5 4 L 9.5 5 L 9.5 4 Z " /><path fill="rgb(227,227,227)" stroke="rgb(227,227,227)" stroke-width="1" opacity="1" d="M 10.5 10 L 12 10.5 L 10.5 11 L 10.5 10 Z " /><path fill="rgb(254,254,254)" stroke="rgb(254,254,254)" stroke-width="1" opacity="0.6666666666666666" d="M 5.5 0 L 5.5 1 L 5.5 0 Z " /><path fill="rgb(254,254,254)" stroke="rgb(254,254,254)" stroke-width="1" opacity="0.6666666666666666" d="M 10.5 0 L 10.5 1 L 10.5 0 Z " /><path fill="rgb(254,254,254)" stroke="rgb(254,254,254)" stroke-width="1" opacity="0.6666666666666666" d="M 2.5 2 L 2.5 3 L 2.5 2 Z " /><path fill="rgb(254,254,254)" stroke="rgb(254,254,254)" stroke-width="1" opacity="0.6666666666666666" d="M 13.5 2 L 13.5 3 L 13.5 2 Z " /><path fill="rgb(254,254,254)" stroke="rgb(254,254,254)" stroke-width="1" opacity="0.6666666666666666" d="M 0.5 5 L 0.5 6 L 0.5 5 Z " /><path fill="rgb(254,254,254)" stroke="rgb(254,254,254)" stroke-width="1" opacity="0.6666666666666666" d="M 15.5 5 L 15.5 6 L 15.5 5 Z " /><path fill="rgb(254,254,254)" stroke="rgb(254,254,254)" stroke-width="1" opacity="0.6666666666666666" d="M 0.5 10 L 0.5 11 L 0.5 10 Z " /><path fill="rgb(254,254,254)" stroke="rgb(254,254,254)" stroke-width="1" opacity="0.6666666666666666" d="M 15.5 10 L 15.5 11 L 15.5 10 Z " /><path fill="rgb(254,254,254)" stroke="rgb(254,254,254)" stroke-width="1" opacity="0.6666666666666666" d="M 2.5 13 L 2.5 14 L 2.5 13 Z " /><path fill="rgb(254,254,254)" stroke="rgb(254,254,254)" stroke-width="1" opacity="0.6666666666666666" d="M 13.5 13 L 13.5 14 L 13.5 13 Z " /><path fill="rgb(254,254,254)" stroke="rgb(254,254,254)" stroke-width="1" opacity="0.6666666666666666" d="M 5.5 15 L 5.5 16 L 5.5 15 Z " /><path fill="rgb(254,254,254)" stroke="rgb(254,254,254)" stroke-width="1" opacity="0.6666666666666666" d="M 10.5 15 L 10.5 16 L 10.5 15 Z " /><path fill="rgb(255,255,255)" stroke="rgb(255,255,255)" stroke-width="1" opacity="0.28627450980392155" d="M 4.5 0 L 4.5 1 L 4.5 0 Z " /><path fill="rgb(255,255,255)" stroke="rgb(255,255,255)" stroke-width="1" opacity="0.28627450980392155" d="M 11.5 0 L 11.5 1 L 11.5 0 Z " /><path fill="rgb(255,255,255)" stroke="rgb(255,255,255)" stroke-width="1" opacity="0.28627450980392155" d="M 0.5 4 L 0.5 5 L 0.5 4 Z " /><path fill="rgb(255,255,255)" stroke="rgb(255,255,255)" stroke-width="1" opacity="0.28627450980392155" d="M 15.5 4 L 15.5 5 L 15.5 4 Z " /><path fill="rgb(255,255,255)" stroke="rgb(255,255,255)" stroke-width="1" opacity="0.28627450980392155" d="M 0.5 11 L 0.5 12 L 0.5 11 Z " /><path fill="rgb(255,255,255)" stroke="rgb(255,255,255)" stroke-width="1" opacity="0.28627450980392155" d="M 15.5 11 L 15.5 12 L 15.5 11 Z " /><path fill="rgb(255,255,255)" stroke="rgb(255,255,255)" stroke-width="1" opacity="0.28627450980392155" d="M 4.5 15 L 4.5 16 L 4.5 15 Z " /><path fill="rgb(255,255,255)" stroke="rgb(255,255,255)" stroke-width="1" opacity="0.28627450980392155" d="M 11.5 15 L 11.5 16 L 11.5 15 Z " /><path fill="rgb(255,255,255)" stroke="rgb(255,255,255)" stroke-width="1" opacity="0.9372549019607843" d="M 4.5 1 L 4.5 2 L 4.5 1 Z " /><path fill="rgb(255,255,255)" stroke="rgb(255,255,255)" stroke-width="1" opacity="0.9372549019607843" d="M 11.5 1 L 11.5 2 L 11.5 1 Z " /><path fill="rgb(255,255,255)" stroke="rgb(255,255,255)" stroke-width="1" opacity="0.9372549019607843" d="M 4.5 14 L 4.5 15 L 4.5 14 Z " /><path fill="rgb(255,255,255)" stroke="rgb(255,255,255)" stroke-width="1" opacity="0.9372549019607843" d="M 11.5 14 L 11.5 15 L 11.5 14 Z " /><path fill="rgb(241,241,241)" stroke="rgb(241,241,241)" stroke-width="1" opacity="1" d="M 3.5 4 L 3.5 5 L 3.5 4 Z " /><path fill="rgb(241,241,241)" stroke="rgb(241,241,241)" stroke-width="1" opacity="1" d="M 10.5 5 L 10.5 6 L 10.5 5 Z " /><path fill="rgb(0,0,0)" stroke="rgb(0,0,0)" stroke-width="1" opacity="1" d="M 5.5 4 L 5.5 5 L 5.5 4 Z " /><path fill="rgb(172,172,172)" stroke="rgb(172,172,172)" stroke-width="1" opacity="1" d="M 7.5 4 L 7.5 5 L 7.5 4 Z " /><path fill="rgb(172,172,172)" stroke="rgb(172,172,172)" stroke-width="1" opacity="1" d="M 4.5 5 L 5 11.5 L 4 11.5 L 4.5 5 Z " /><path fill="rgb(190,190,190)" stroke="rgb(190,190,190)" stroke-width="1" opacity="1" d="M 7.5 5 L 8 6.5 L 7 6.5 L 7.5 5 Z " /><path fill="rgb(190,190,190)" stroke="rgb(190,190,190)" stroke-width="1" opacity="1" d="M 7.5 9 L 8 10.5 L 7 10.5 L 7.5 9 Z " /><path fill="rgb(190,190,190)" stroke="rgb(190,190,190)" stroke-width="1" opacity="1" d="M 9.5 9 L 9.5 10 L 9.5 9 Z " /><path fill="rgb(190,190,190)" stroke="rgb(190,190,190)" stroke-width="1" opacity="1" d="M 3.5 12 L 3.5 13 L 3.5 12 Z " /><path fill="rgb(253,253,253)" stroke="rgb(253,253,253)" stroke-width="1" opacity="1" d="M 12.5 2 L 12.5 3 L 12.5 2 Z " /><path fill="rgb(253,253,253)" stroke="rgb(253,253,253)" stroke-width="1" opacity="1" d="M 12.5 6 L 12.5 7 L 12.5 6 Z " /><path fill="rgb(253,253,253)" stroke="rgb(253,253,253)" stroke-width="1" opacity="1" d="M 13.5 9 L 13.5 10 L 13.5 9 Z " /><path fill="rgb(253,253,253)" stroke="rgb(253,253,253)" stroke-width="1" opacity="1" d="M 10.5 11 L 10.5 12 L 10.5 11 Z " /><path fill="rgb(253,253,253)" stroke="rgb(253,253,253)" stroke-width="1" opacity="1" d="M 2.5 12 L 2.5 13 L 2.5 12 Z " /><path fill="rgb(253,253,253)" stroke="rgb(253,253,253)" stroke-width="1" opacity="1" d="M 13.5 12 L 13.5 13 L 13.5 12 Z " /><path fill="rgb(237,237,237)" stroke="rgb(237,237,237)" stroke-width="1" opacity="1" d="M 8.5 4 L 8.5 5 L 8.5 4 Z " /><path fill="rgb(215,215,215)" stroke="rgb(215,215,215)" stroke-width="1" opacity="1" d="M 12.5 5 L 12.5 6 L 12.5 5 Z " /><path fill="rgb(215,215,215)" stroke="rgb(215,215,215)" stroke-width="1" opacity="1" d="M 12.5 13 L 12.5 14 L 12.5 13 Z " /><path fill="rgb(255,255,255)" stroke="rgb(255,255,255)" stroke-width="1" opacity="1" d="M 5.5 1 L 11 1.5 L 5.5 2 L 5.5 1 Z " /><path fill="rgb(255,255,255)" stroke="rgb(255,255,255)" stroke-width="1" opacity="1" d="M 13.5 3 Q 15.94 5.06 15 10.5 L 14 10.5 Q 14.75 8.25 12.5 9 L 11 9.5 Q 10 5.75 13 7 L 13.5 3 Z " /><path fill="rgb(255,255,255)" stroke="rgb(255,255,255)" stroke-width="1" opacity="1" d="M 2.5 4 L 4 5.5 L 4 12 L 1 10.5 Q -0.25 5.25 2.5 4 Z " /><path fill="rgb(255,255,255)" stroke="rgb(255,255,255)" stroke-width="1" opacity="1" d="M 8.5 5 L 9 6.5 L 8 6.5 L 8.5 5 Z " /><path fill="rgb(255,255,255)" stroke="rgb(255,255,255)" stroke-width="1" opacity="1" d="M 8.5 9 L 10 11.5 L 8 12 L 8.5 9 Z " /><path fill="rgb(255,255,255)" stroke="rgb(255,255,255)" stroke-width="1" opacity="1" d="M 5.5 14 L 11 14.5 L 5.5 15 L 5.5 14 Z " /><path fill="rgb(255,255,255)" stroke="rgb(255,255,255)" stroke-width="1" opacity="0.8901960784313725" d="M 6.5 0 L 6.5 1 L 6.5 0 Z " /><path fill="rgb(255,255,255)" stroke="rgb(255,255,255)" stroke-width="1" opacity="0.8901960784313725" d="M 9.5 0 L 9.5 1 L 9.5 0 Z " /><path fill="rgb(255,255,255)" stroke="rgb(255,255,255)" stroke-width="1" opacity="0.8901960784313725" d="M 0.5 6 L 0.5 7 L 0.5 6 Z " /><path fill="rgb(255,255,255)" stroke="rgb(255,255,255)" stroke-width="1" opacity="0.8901960784313725" d="M 15.5 6 L 15.5 7 L 15.5 6 Z " /><path fill="rgb(255,255,255)" stroke="rgb(255,255,255)" stroke-width="1" opacity="0.8901960784313725" d="M 0.5 9 L 0.5 10 L 0.5 9 Z " /><path fill="rgb(255,255,255)" stroke="rgb(255,255,255)" stroke-width="1" opacity="0.8901960784313725" d="M 15.5 9 L 15.5 10 L 15.5 9 Z " /><path fill="rgb(255,255,255)" stroke="rgb(255,255,255)" stroke-width="1" opacity="0.8901960784313725" d="M 6.5 15 L 6.5 16 L 6.5 15 Z " /><path fill="rgb(255,255,255)" stroke="rgb(255,255,255)" stroke-width="1" opacity="0.8901960784313725" d="M 9.5 15 L 9.5 16 L 9.5 15 Z " /><path fill="rgb(11,11,11)" stroke="rgb(11,11,11)" stroke-width="1" opacity="1" d="M 6.5 4 L 7 6.5 L 6 6.5 L 6.5 4 Z " /><path fill="rgb(11,11,11)" stroke="rgb(11,11,11)" stroke-width="1" opacity="1" d="M 11.5 4 L 11.5 5 L 11.5 4 Z " /><path fill="rgb(11,11,11)" stroke="rgb(11,11,11)" stroke-width="1" opacity="1" d="M 6.5 9 L 7 11.5 L 6 11.5 L 6.5 9 Z " /><path fill="rgb(11,11,11)" stroke="rgb(11,11,11)" stroke-width="1" opacity="1" d="M 11.5 12 L 11.5 13 L 11.5 12 Z " /><path fill="rgb(136,136,136)" stroke="rgb(136,136,136)" stroke-width="1" opacity="1" d="M 4.5 4 L 4.5 5 L 4.5 4 Z " /><path fill="rgb(136,136,136)" stroke="rgb(136,136,136)" stroke-width="1" opacity="1" d="M 7.5 7 L 7.5 8 L 7.5 7 Z " /><path fill="rgb(136,136,136)" stroke="rgb(136,136,136)" stroke-width="1" opacity="1" d="M 12.5 10 L 12.5 11 L 12.5 10 Z " /><path fill="rgb(176,176,176)" stroke="rgb(176,176,176)" stroke-width="1" opacity="1" d="M 8.5 7 L 8.5 8 L 8.5 7 Z " /><path fill="rgb(106,106,106)" stroke="rgb(106,106,106)" stroke-width="1" opacity="1" d="M 7.5 3 L 7.5 4 L 7.5 3 Z " /><path fill="rgb(106,106,106)" stroke="rgb(106,106,106)" stroke-width="1" opacity="1" d="M 10.5 7 L 11 8.5 L 10 8.5 L 10.5 7 Z " /><path fill="rgb(255,255,255)" stroke="rgb(255,255,255)" stroke-width="1" opacity="0.984313725490196" d="M 7.5 0 L 9 0.5 L 7.5 1 L 7.5 0 Z " /><path fill="rgb(255,255,255)" stroke="rgb(255,255,255)" stroke-width="1" opacity="0.984313725490196" d="M 0.5 7 L 1 8.5 L 0 8.5 L 0.5 7 Z " /><path fill="rgb(255,255,255)" stroke="rgb(255,255,255)" stroke-width="1" opacity="0.984313725490196" d="M 15.5 7 L 16 8.5 L 15 8.5 L 15.5 7 Z " /><path fill="rgb(255,255,255)" stroke="rgb(255,255,255)" stroke-width="1" opacity="0.984313725490196" d="M 7.5 15 L 9 15.5 L 7.5 16 L 7.5 15 Z " /><path fill="rgb(2,2,2)" stroke="rgb(2,2,2)" stroke-width="1" opacity="1" d="M 5.5 5 L 7 8.5 L 6 11.5 L 6.5 13 L 5 12.5 L 5.5 5 Z " /><path fill="rgb(125,125,125)" stroke="rgb(125,125,125)" stroke-width="1" opacity="1" d="M 8.5 3 L 8.5 4 L 8.5 3 Z " /><path fill="rgb(125,125,125)" stroke="rgb(125,125,125)" stroke-width="1" opacity="1" d="M 10.5 9 L 10.5 10 L 10.5 9 Z " /><path fill="rgb(125,125,125)" stroke="rgb(125,125,125)" stroke-width="1" opacity="1" d="M 11.5 11 L 11.5 12 L 11.5 11 Z " /><path fill="rgb(248,248,248)" stroke="rgb(248,248,248)" stroke-width="1" opacity="1" d="M 12.5 9 L 12.5 10 L 12.5 9 Z " /><path fill="rgb(144,144,144)" stroke="rgb(144,144,144)" stroke-width="1" opacity="1" d="M 11.5 5 Q 13 6 10.5 7 Q 9 6 11.5 5 Z " /><path fill="rgb(255,255,255)" stroke="rgb(255,255,255)" stroke-width="1" opacity="0.9294117647058824" d="M 1.5 4 L 1.5 5 L 1.5 4 Z " /><path fill="rgb(255,255,255)" stroke="rgb(255,255,255)" stroke-width="1" opacity="0.9294117647058824" d="M 14.5 4 L 14.5 5 L 14.5 4 Z " /><path fill="rgb(255,255,255)" stroke="rgb(255,255,255)" stroke-width="1" opacity="0.9294117647058824" d="M 1.5 11 L 1.5 12 L 1.5 11 Z " /><path fill="rgb(255,255,255)" stroke="rgb(255,255,255)" stroke-width="1" opacity="0.9294117647058824" d="M 14.5 11 L 14.5 12 L 14.5 11 Z " /><path fill="rgb(183,183,183)" stroke="rgb(183,183,183)" stroke-width="1" opacity="1" d="M 7.5 11 L 7.5 12 L 7.5 11 Z " /><path fill="rgb(183,183,183)" stroke="rgb(183,183,183)" stroke-width="1" opacity="1" d="M 5.5 13 L 7 13.5 L 5.5 14 L 5.5 13 Z " /><path fill="rgb(153,153,153)" stroke="rgb(153,153,153)" stroke-width="1" opacity="1" d="M 3.5 3 L 3.5 4 L 3.5 3 Z " /><path fill="rgb(153,153,153)" stroke="rgb(153,153,153)" stroke-width="1" opacity="1" d="M 10.5 4 L 10.5 5 L 10.5 4 Z " /><path fill="rgb(153,153,153)" stroke="rgb(153,153,153)" stroke-width="1" opacity="1" d="M 8.5 8 L 8.5 9 L 8.5 8 Z " /><path fill="rgb(153,153,153)" stroke="rgb(153,153,153)" stroke-width="1" opacity="1" d="M 8.5 12 L 10 12.5 L 8.5 13 L 8.5 12 Z " /><path fill="rgb(116,116,116)" stroke="rgb(116,116,116)" stroke-width="1" opacity="1" d="M 9.5 3 L 9.5 4 L 9.5 3 Z " /><path fill="rgb(116,116,116)" stroke="rgb(116,116,116)" stroke-width="1" opacity="1" d="M 7.5 8 L 7.5 9 L 7.5 8 Z " /><path fill="rgb(116,116,116)" stroke="rgb(116,116,116)" stroke-width="1" opacity="1" d="M 10.5 12 L 10.5 13 L 10.5 12 Z " /><path fill="rgb(95,95,95)" stroke="rgb(95,95,95)" stroke-width="1" opacity="1" d="M 12.5 12 L 12.5 13 L 12.5 12 Z " /><path fill="rgb(255,255,255)" stroke="rgb(255,255,255)" stroke-width="1" opacity="0.5725490196078431" d="M 3.5 1 L 3.5 2 L 3.5 1 Z " /><path fill="rgb(255,255,255)" stroke="rgb(255,255,255)" stroke-width="1" opacity="0.5725490196078431" d="M 12.5 1 L 12.5 2 L 12.5 1 Z " /><path fill="rgb(255,255,255)" stroke="rgb(255,255,255)" stroke-width="1" opacity="0.5725490196078431" d="M 1.5 3 L 1.5 4 L 1.5 3 Z " /><path fill="rgb(255,255,255)" stroke="rgb(255,255,255)" stroke-width="1" opacity="0.5725490196078431" d="M 14.5 3 L 14.5 4 L 14.5 3 Z " /><path fill="rgb(255,255,255)" stroke="rgb(255,255,255)" stroke-width="1" opacity="0.5725490196078431" d="M 1.5 12 L 1.5 13 L 1.5 12 Z " /><path fill="rgb(255,255,255)" stroke="rgb(255,255,255)" stroke-width="1" opacity="0.5725490196078431" d="M 14.5 12 L 14.5 13 L 14.5 12 Z " /><path fill="rgb(255,255,255)" stroke="rgb(255,255,255)" stroke-width="1" opacity="0.5725490196078431" d="M 3.5 14 L 3.5 15 L 3.5 14 Z " /><path fill="rgb(255,255,255)" stroke="rgb(255,255,255)" stroke-width="1" opacity="0.5725490196078431" d="M 12.5 14 L 12.5 15 L 12.5 14 Z " /><path fill="rgb(255,255,255)" stroke="rgb(255,255,255)" stroke-width="1" opacity="0.023529411764705882" d="M 3.5 0 L 3.5 1 L 3.5 0 Z " /><path fill="rgb(255,255,255)" stroke="rgb(255,255,255)" stroke-width="1" opacity="0.023529411764705882" d="M 12.5 0 L 12.5 1 L 12.5 0 Z " /><path fill="rgb(255,255,255)" stroke="rgb(255,255,255)" stroke-width="1" opacity="0.023529411764705882" d="M 0.5 3 L 0.5 4 L 0.5 3 Z " /><path fill="rgb(255,255,255)" stroke="rgb(255,255,255)" stroke-width="1" opacity="0.023529411764705882" d="M 15.5 3 L 15.5 4 L 15.5 3 Z " /><path fill="rgb(255,255,255)" stroke="rgb(255,255,255)" stroke-width="1" opacity="0.023529411764705882" d="M 0.5 12 L 0.5 13 L 0.5 12 Z " /><path fill="rgb(255,255,255)" stroke="rgb(255,255,255)" stroke-width="1" opacity="0.023529411764705882" d="M 15.5 12 L 15.5 13 L 15.5 12 Z " /><path fill="rgb(255,255,255)" stroke="rgb(255,255,255)" stroke-width="1" opacity="0.023529411764705882" d="M 3.5 15 L 3.5 16 L 3.5 15 Z " /><path fill="rgb(255,255,255)" stroke="rgb(255,255,255)" stroke-width="1" opacity="0.023529411764705882" d="M 12.5 15 L 12.5 16 L 12.5 15 Z " /><path fill="rgb(206,206,206)" stroke="rgb(206,206,206)" stroke-width="1" opacity="1" d="M 12.5 4 L 12.5 5 L 12.5 4 Z " /><path fill="rgb(206,206,206)" stroke="rgb(206,206,206)" stroke-width="1" opacity="1" d="M 9.5 6 L 9.5 7 L 9.5 6 Z " /><path fill="rgb(206,206,206)" stroke="rgb(206,206,206)" stroke-width="1" opacity="1" d="M 3.5 13 L 3.5 14 L 3.5 13 Z " /><path fill="rgb(180,180,180)" stroke="rgb(180,180,180)" stroke-width="1" opacity="1" d="M 4.5 13 L 4.5 14 L 4.5 13 Z " /><path fill="rgb(180,180,180)" stroke="rgb(180,180,180)" stroke-width="1" opacity="1" d="M 7.5 13 L 12 13.5 L 7.5 14 L 7.5 13 Z " /><path fill="rgb(0,0,0)" stroke="rgb(0,0,0)" stroke-width="1" opacity="0" d="M 0.5 0 L 2 0.5 L 0.5 1 L 0.5 0 Z " /><path fill="rgb(0,0,0)" stroke="rgb(0,0,0)" stroke-width="1" opacity="0" d="M 14.5 0 L 16 0.5 L 14.5 1 L 14.5 0 Z " /><path fill="rgb(0,0,0)" stroke="rgb(0,0,0)" stroke-width="1" opacity="0" d="M 0.5 15 L 2 15.5 L 0.5 16 L 0.5 15 Z " /><path fill="rgb(0,0,0)" stroke="rgb(0,0,0)" stroke-width="1" opacity="0" d="M 14.5 15 L 16 15.5 L 14.5 16 L 14.5 15 Z " /></svg>