<svg width="16" height="16" version="1.1" xmlns="http://www.w3.org/2000/svg" desc="Created with imagetracer.js version 1.2.6" ><path fill="rgb(82,189,58)" stroke="rgb(82,189,58)" stroke-width="1" opacity="1" d="M 11.5 1 L 16 1.5 L 11.5 2 L 11.5 1 Z " /><path fill="rgb(78,177,73)" stroke="rgb(78,177,73)" stroke-width="1" opacity="1" d="M 4.5 1 L 7 1.5 L 4.5 2 L 4.5 1 Z " /><path fill="rgb(78,177,73)" stroke="rgb(78,177,73)" stroke-width="1" opacity="1" d="M 0.5 2 L 3 2.5 L 0.5 3 L 0.5 2 Z " /><path fill="rgb(73,170,74)" stroke="rgb(73,170,74)" stroke-width="1" opacity="1" d="M 2.5 1 L 4 1.5 L 2.5 2 L 2.5 1 Z " /><path fill="rgb(73,170,74)" stroke="rgb(73,170,74)" stroke-width="1" opacity="1" d="M 6.5 5 L 6.5 6 L 6.5 5 Z " /><path fill="rgb(69,160,77)" stroke="rgb(69,160,77)" stroke-width="1" opacity="1" d="M 0.5 1 L 2 1.5 L 0.5 2 L 0.5 1 Z " /><path fill="rgb(69,160,77)" stroke="rgb(69,160,77)" stroke-width="1" opacity="1" d="M 2.5 5 L 6 5.5 L 2.5 6 L 2.5 5 Z " /><path fill="rgb(79,182,65)" stroke="rgb(79,182,65)" stroke-width="1" opacity="1" d="M 3.5 2 Q 8.25 1.25 10 3.5 L 8.5 4 Q 7.5 2 3.5 3 L 3.5 2 Z " /><path fill="rgb(85,179,84)" stroke="rgb(85,179,84)" stroke-width="1" opacity="1" d="M 0.5 3 L 8 3.5 L 0.5 4 L 0.5 3 Z " /><path fill="rgb(85,179,84)" stroke="rgb(85,179,84)" stroke-width="1" opacity="1" d="M 7.5 5 L 7.5 6 L 7.5 5 Z " /><path fill="rgb(80,185,87)" stroke="rgb(80,185,87)" stroke-width="1" opacity="1" d="M 8.5 2 L 16 2.5 L 8.5 3 L 8.5 2 Z " /><path fill="rgb(81,183,68)" stroke="rgb(81,183,68)" stroke-width="1" opacity="1" d="M 7.5 1 L 7.5 2 L 7.5 1 Z " /><path fill="rgb(81,183,68)" stroke="rgb(81,183,68)" stroke-width="1" opacity="1" d="M 13.5 3 L 16 3.5 L 13.5 4 L 13.5 3 Z " /><path fill="rgb(81,184,67)" stroke="rgb(81,184,67)" stroke-width="1" opacity="1" d="M 10.5 3 L 13 3.5 L 10.5 4 L 10.5 3 Z " /><path fill="rgb(83,189,65)" stroke="rgb(83,189,65)" stroke-width="1" opacity="1" d="M 8.5 1 L 11 1.5 L 8.5 2 L 8.5 1 Z " /><path fill="rgb(87,176,58)" stroke="rgb(87,176,58)" stroke-width="1" opacity="1" d="M 0.5 4 L 0.5 5 L 0.5 4 Z " /><path fill="rgb(88,177,59)" stroke="rgb(88,177,59)" stroke-width="1" opacity="1" d="M 1.5 4 L 1.5 5 L 1.5 4 Z " /><path fill="rgb(91,182,65)" stroke="rgb(91,182,65)" stroke-width="1" opacity="1" d="M 3.5 4 L 5 4.5 L 3.5 5 L 3.5 4 Z " /><path fill="rgb(91,182,65)" stroke="rgb(91,182,65)" stroke-width="1" opacity="1" d="M 13.5 4 L 16 4.5 L 13.5 5 L 13.5 4 Z " /><path fill="rgb(91,182,65)" stroke="rgb(91,182,65)" stroke-width="1" opacity="1" d="M 11.5 5 L 11.5 6 L 11.5 5 Z " /><path fill="rgb(94,185,71)" stroke="rgb(94,185,71)" stroke-width="1" opacity="1" d="M 5.5 4 L 5.5 5 L 5.5 4 Z " /><path fill="rgb(94,185,71)" stroke="rgb(94,185,71)" stroke-width="1" opacity="1" d="M 11.5 4 L 13 4.5 L 11.5 5 L 11.5 4 Z " /><path fill="rgb(97,187,74)" stroke="rgb(97,187,74)" stroke-width="1" opacity="1" d="M 6.5 4 L 11 4.5 L 6.5 5 L 6.5 4 Z " /><path fill="rgb(46,133,81)" stroke="rgb(46,133,81)" stroke-width="1" opacity="1" d="M 8.5 0 L 16 0.5 L 8.5 1 L 8.5 0 Z " /><path fill="rgb(46,133,81)" stroke="rgb(46,133,81)" stroke-width="1" opacity="1" d="M 0.5 5 L 2 5.5 L 0.5 6 L 0.5 5 Z " /><path fill="rgb(87,177,63)" stroke="rgb(87,177,63)" stroke-width="1" opacity="1" d="M 8.5 5 L 10 5.5 L 8.5 6 L 8.5 5 Z " /><path fill="rgb(89,180,63)" stroke="rgb(89,180,63)" stroke-width="1" opacity="1" d="M 2.5 4 L 2.5 5 L 2.5 4 Z " /><path fill="rgb(89,180,63)" stroke="rgb(89,180,63)" stroke-width="1" opacity="1" d="M 10.5 5 L 10.5 6 L 10.5 5 Z " /><path fill="rgb(93,185,62)" stroke="rgb(93,185,62)" stroke-width="1" opacity="1" d="M 12.5 5 L 12.5 6 L 12.5 5 Z " /><path fill="rgb(96,188,59)" stroke="rgb(96,188,59)" stroke-width="1" opacity="1" d="M 13.5 5 L 16 5.5 L 13.5 6 L 13.5 5 Z " /><path fill="rgb(0,70,101)" stroke="rgb(0,70,101)" stroke-width="1" opacity="1" d="M 0.5 6 L 3 6.5 L 0.5 7 L 0.5 6 Z " /><path fill="rgb(0,77,99)" stroke="rgb(0,77,99)" stroke-width="1" opacity="1" d="M 3.5 6 L 6 6.5 L 3.5 7 L 3.5 6 Z " /><path fill="rgb(22,102,93)" stroke="rgb(22,102,93)" stroke-width="1" opacity="1" d="M 0.5 0 L 8 0.5 L 0.5 1 L 0.5 0 Z " /><path fill="rgb(22,102,93)" stroke="rgb(22,102,93)" stroke-width="1" opacity="1" d="M 12.5 6 L 16 6.5 L 12.5 7 L 12.5 6 Z " /><path fill="rgb(10,102,185)" stroke="rgb(10,102,185)" stroke-width="1" opacity="1" d="M 0.5 7 L 4 7.5 L 0.5 8 L 0.5 7 Z " /><path fill="rgb(4,99,166)" stroke="rgb(4,99,166)" stroke-width="1" opacity="1" d="M 4.5 7 L 6 7.5 L 4.5 8 L 4.5 7 Z " /><path fill="rgb(0,94,152)" stroke="rgb(0,94,152)" stroke-width="1" opacity="1" d="M 4.5 15 L 8 15.5 L 4.5 16 L 4.5 15 Z " /><path fill="rgb(0,84,144)" stroke="rgb(0,84,144)" stroke-width="1" opacity="1" d="M 8.5 7 L 10 7.5 L 8.5 8 L 8.5 7 Z " /><path fill="rgb(0,83,133)" stroke="rgb(0,83,133)" stroke-width="1" opacity="1" d="M 10.5 7 L 12 7.5 L 10.5 8 L 10.5 7 Z " /><path fill="rgb(0,83,133)" stroke="rgb(0,83,133)" stroke-width="1" opacity="1" d="M 8.5 15 L 16 15.5 L 8.5 16 L 8.5 15 Z " /><path fill="rgb(0,85,123)" stroke="rgb(0,85,123)" stroke-width="1" opacity="1" d="M 12.5 7 L 14 7.5 L 12.5 8 L 12.5 7 Z " /><path fill="rgb(1,84,102)" stroke="rgb(1,84,102)" stroke-width="1" opacity="1" d="M 6.5 6 L 12 6.5 L 6.5 7 L 6.5 6 Z " /><path fill="rgb(1,84,102)" stroke="rgb(1,84,102)" stroke-width="1" opacity="1" d="M 14.5 7 L 16 7.5 L 14.5 8 L 14.5 7 Z " /><path fill="rgb(0,120,198)" stroke="rgb(0,120,198)" stroke-width="1" opacity="1" d="M 0.5 8 L 0.5 9 L 0.5 8 Z " /><path fill="rgb(0,120,198)" stroke="rgb(0,120,198)" stroke-width="1" opacity="1" d="M 14.5 12 L 16 12.5 L 14.5 13 L 14.5 12 Z " /><path fill="rgb(0,114,191)" stroke="rgb(0,114,191)" stroke-width="1" opacity="1" d="M 12.5 8 L 16 8.5 L 12.5 9 L 12.5 8 Z " /><path fill="rgb(0,117,189)" stroke="rgb(0,117,189)" stroke-width="1" opacity="1" d="M 0.5 9 L 4 9.5 L 0.5 10 L 0.5 9 Z " /><path fill="rgb(0,116,188)" stroke="rgb(0,116,188)" stroke-width="1" opacity="1" d="M 4.5 9 L 8 9.5 L 4.5 10 L 4.5 9 Z " /><path fill="rgb(3,121,193)" stroke="rgb(3,121,193)" stroke-width="1" opacity="1" d="M 11.5 11 L 15 11.5 L 11.5 12 L 11.5 11 Z " /><path fill="rgb(3,119,192)" stroke="rgb(3,119,192)" stroke-width="1" opacity="1" d="M 8.5 9 L 12 9.5 L 8.5 10 L 8.5 9 Z " /><path fill="rgb(3,119,192)" stroke="rgb(3,119,192)" stroke-width="1" opacity="1" d="M 9.5 11 L 11 11.5 L 9.5 12 L 9.5 11 Z " /><path fill="rgb(0,117,191)" stroke="rgb(0,117,191)" stroke-width="1" opacity="1" d="M 8.5 13 L 16 13.5 L 8.5 14 L 8.5 13 Z " /><path fill="rgb(0,114,184)" stroke="rgb(0,114,184)" stroke-width="1" opacity="1" d="M 8.5 10 L 16 10.5 L 8.5 11 L 8.5 10 Z " /><path fill="rgb(4,117,184)" stroke="rgb(4,117,184)" stroke-width="1" opacity="1" d="M 0.5 10 L 6 10.5 L 0.5 11 L 0.5 10 Z " /><path fill="rgb(4,117,184)" stroke="rgb(4,117,184)" stroke-width="1" opacity="1" d="M 1.5 14 L 4 14.5 L 1.5 15 L 1.5 14 Z " /><path fill="rgb(0,116,186)" stroke="rgb(0,116,186)" stroke-width="1" opacity="1" d="M 0.5 11 L 0.5 12 L 0.5 11 Z " /><path fill="rgb(0,117,187)" stroke="rgb(0,117,187)" stroke-width="1" opacity="1" d="M 1.5 11 L 5 11.5 L 1.5 12 L 1.5 11 Z " /><path fill="rgb(5,118,186)" stroke="rgb(5,118,186)" stroke-width="1" opacity="1" d="M 6.5 10 L 8 10.5 L 6.5 11 L 6.5 10 Z " /><path fill="rgb(5,118,186)" stroke="rgb(5,118,186)" stroke-width="1" opacity="1" d="M 0.5 14 L 0.5 15 L 0.5 14 Z " /><path fill="rgb(1,118,188)" stroke="rgb(1,118,188)" stroke-width="1" opacity="1" d="M 5.5 11 L 8 11.5 L 5.5 12 L 5.5 11 Z " /><path fill="rgb(1,119,191)" stroke="rgb(1,119,191)" stroke-width="1" opacity="1" d="M 12.5 9 L 16 9.5 L 12.5 10 L 12.5 9 Z " /><path fill="rgb(1,119,191)" stroke="rgb(1,119,191)" stroke-width="1" opacity="1" d="M 8.5 11 L 8.5 12 L 8.5 11 Z " /><path fill="rgb(0,117,193)" stroke="rgb(0,117,193)" stroke-width="1" opacity="1" d="M 8.5 8 L 12 8.5 L 8.5 9 L 8.5 8 Z " /><path fill="rgb(0,117,193)" stroke="rgb(0,117,193)" stroke-width="1" opacity="1" d="M 0.5 12 L 8 12.5 L 0.5 13 L 0.5 12 Z " /><path fill="rgb(0,117,195)" stroke="rgb(0,117,195)" stroke-width="1" opacity="1" d="M 4.5 8 L 8 8.5 L 4.5 9 L 4.5 8 Z " /><path fill="rgb(0,117,195)" stroke="rgb(0,117,195)" stroke-width="1" opacity="1" d="M 8.5 12 L 12 12.5 L 8.5 13 L 8.5 12 Z " /><path fill="rgb(0,119,197)" stroke="rgb(0,119,197)" stroke-width="1" opacity="1" d="M 1.5 8 L 4 8.5 L 1.5 9 L 1.5 8 Z " /><path fill="rgb(0,119,197)" stroke="rgb(0,119,197)" stroke-width="1" opacity="1" d="M 12.5 12 L 14 12.5 L 12.5 13 L 12.5 12 Z " /><path fill="rgb(2,124,199)" stroke="rgb(2,124,199)" stroke-width="1" opacity="1" d="M 0.5 13 L 2 13.5 L 0.5 14 L 0.5 13 Z " /><path fill="rgb(2,123,197)" stroke="rgb(2,123,197)" stroke-width="1" opacity="1" d="M 15.5 11 L 15.5 12 L 15.5 11 Z " /><path fill="rgb(2,123,197)" stroke="rgb(2,123,197)" stroke-width="1" opacity="1" d="M 2.5 13 L 4 13.5 L 2.5 14 L 2.5 13 Z " /><path fill="rgb(0,121,196)" stroke="rgb(0,121,196)" stroke-width="1" opacity="1" d="M 4.5 13 L 8 13.5 L 4.5 14 L 4.5 13 Z " /><path fill="rgb(2,114,180)" stroke="rgb(2,114,180)" stroke-width="1" opacity="1" d="M 4.5 14 L 7 14.5 L 4.5 15 L 4.5 14 Z " /><path fill="rgb(0,112,178)" stroke="rgb(0,112,178)" stroke-width="1" opacity="1" d="M 7.5 14 L 7.5 15 L 7.5 14 Z " /><path fill="rgb(14,118,179)" stroke="rgb(14,118,179)" stroke-width="1" opacity="1" d="M 8.5 14 L 12 14.5 L 8.5 15 L 8.5 14 Z " /><path fill="rgb(13,117,178)" stroke="rgb(13,117,178)" stroke-width="1" opacity="1" d="M 12.5 14 L 16 14.5 L 12.5 15 L 12.5 14 Z " /><path fill="rgb(1,100,158)" stroke="rgb(1,100,158)" stroke-width="1" opacity="1" d="M 0.5 15 L 2 15.5 L 0.5 16 L 0.5 15 Z " /><path fill="rgb(0,98,156)" stroke="rgb(0,98,156)" stroke-width="1" opacity="1" d="M 6.5 7 L 8 7.5 L 6.5 8 L 6.5 7 Z " /><path fill="rgb(0,98,156)" stroke="rgb(0,98,156)" stroke-width="1" opacity="1" d="M 2.5 15 L 4 15.5 L 2.5 16 L 2.5 15 Z " /></svg>