<svg width="128" height="128" version="1.1" xmlns="http://www.w3.org/2000/svg" desc="Created with imagetracer.js version 1.2.6" ><path fill="rgb(100,182,186)" stroke="rgb(100,182,186)" stroke-width="1" opacity="1" d="M 31 0 Q 34 -1 33 2 L 36 2 L 36 3.5 L 34.5 3 Q 29.25 4.5 31 0 Z " /><path fill="rgb(100,182,186)" stroke="rgb(100,182,186)" stroke-width="1" opacity="1" d="M 36.5 5 Q 37.58 7.42 41 7.5 L 36 8 L 36.5 5 Z " /><path fill="rgb(100,182,186)" stroke="rgb(100,182,186)" stroke-width="1" opacity="1" d="M 41.5 10 L 44 12.5 L 43.5 13 Q 39.15 14.13 41.5 10 Z " /><path fill="rgb(100,182,186)" stroke="rgb(100,182,186)" stroke-width="1" opacity="1" d="M 46.5 13 L 49.5 18 Q 52.12 17.33 51 20 L 53 20 L 53 21.5 L 58 25.5 L 56.5 25 L 54.5 26 L 52.5 25 L 49.5 26 L 49.5 25 L 51 25 L 51 21 L 46 21 L 46.5 13 Z " /><path fill="rgb(100,182,186)" stroke="rgb(100,182,186)" stroke-width="1" opacity="1" d="M 49.5 15 L 49.5 16 L 49.5 15 Z " /><path fill="rgb(100,182,186)" stroke="rgb(100,182,186)" stroke-width="1" opacity="1" d="M 59.5 25 L 59.5 26 L 59.5 25 Z " /><path fill="rgb(100,182,186)" stroke="rgb(100,182,186)" stroke-width="1" opacity="1" d="M 55.5 30 L 56 33.5 L 55 33.5 L 55.5 30 Z " /><path fill="rgb(100,182,186)" stroke="rgb(100,182,186)" stroke-width="1" opacity="1" d="M 102.5 51 L 102.5 52 L 102.5 51 Z " /><path fill="rgb(100,182,186)" stroke="rgb(100,182,186)" stroke-width="1" opacity="1" d="M 77.5 52 L 82 52.5 L 77.5 53 L 77.5 52 Z " /><path fill="rgb(100,182,186)" stroke="rgb(100,182,186)" stroke-width="1" opacity="1" d="M 83.5 52 Q 86.83 50.88 86 53.5 L 84.5 53 Q 82.13 52.87 83.5 52 Z " /><path fill="rgb(100,182,186)" stroke="rgb(100,182,186)" stroke-width="1" opacity="1" d="M 104.5 68 L 106 69.5 L 106.5 77 L 107.5 71 L 108 79 Q 110.67 77.88 110 80.5 L 110.5 82 Q 106.75 83.25 108 79.5 L 107 79.5 L 106.5 87 L 106 77 L 104 76.5 L 104.5 68 Z " /><path fill="rgb(100,182,186)" stroke="rgb(100,182,186)" stroke-width="1" opacity="1" d="M 112.5 82 L 113 84 Q 115.67 82.88 115 85.5 L 115.5 87 L 112 87 L 112.5 82 Z " /><path fill="rgb(100,182,186)" stroke="rgb(100,182,186)" stroke-width="1" opacity="1" d="M 118 89 L 121 90.5 L 121 92 L 118 92 L 118 89 Z " /><path fill="rgb(100,182,186)" stroke="rgb(100,182,186)" stroke-width="1" opacity="1" d="M 123.5 94 L 126 95 Q 127.13 98.33 123 97 L 123.5 94 Z " /><path fill="rgb(96,180,183)" stroke="rgb(96,180,183)" stroke-width="1" opacity="1" d="M 39.5 0 L 46 0 L 46 3 L 51 3 L 51 8 L 56 8 L 56 9.5 Q 57.75 10.42 57 13 L 61 13 L 61 14.5 Q 62.75 15.42 62 18 L 66 18 L 66 19.5 L 68 25.5 L 61.5 26 L 61.5 25 L 63 24.5 L 62 22 Q 59 22.75 58 20.5 L 57 16.5 L 55.5 15 L 51 14 L 51 10 L 49.5 10 Q 48.5 7.5 46 8 L 46 6 Q 43.33 7.13 44 4.5 L 39 0.5 L 39.5 0 Z " /><path fill="rgb(96,180,183)" stroke="rgb(96,180,183)" stroke-width="1" opacity="1" d="M 54.5 26 L 56 26.5 L 54.5 27 L 54.5 26 Z " /><path fill="rgb(96,180,183)" stroke="rgb(96,180,183)" stroke-width="1" opacity="1" d="M 103.5 51 Q 106 52 104.5 53 Q 102 52 103.5 51 Z " /><path fill="rgb(96,180,183)" stroke="rgb(96,180,183)" stroke-width="1" opacity="1" d="M 89.5 52 L 100.5 52 L 103 53.5 L 92.5 54 L 89.5 53 L 89.5 52 Z " /><path fill="rgb(96,180,183)" stroke="rgb(96,180,183)" stroke-width="1" opacity="1" d="M 105.5 54 L 106.5 66 L 107.5 64 L 108 66 Q 111.81 65 113 67.5 L 113 71 L 118 71 L 118 77 L 123 77 L 123 82 L 128 82 L 128 89 L 125.5 89 L 120 83.5 Q 120.67 80.88 118 82 L 118 79 L 115.5 79 L 113 78 Q 114 74.19 111.5 73 Q 108.87 73.67 110 71 L 107 71 L 107 69.5 Q 105.25 68.58 106 66 L 104 65.5 L 104 57.5 L 105.5 54 Z " /><path fill="rgb(90,176,180)" stroke="rgb(90,176,180)" stroke-width="1" opacity="1" d="M 54 0 Q 57 -1 56 2 Q 53 3 54 0 Z " /><path fill="rgb(90,176,180)" stroke="rgb(90,176,180)" stroke-width="1" opacity="1" d="M 60.5 0 L 66.5 0 L 67 2 L 68.5 2 L 77 10.5 L 78 15 L 82 15 L 82 17.5 L 83 20 L 87 20 L 87 22.5 L 89 24.5 L 88.5 25 L 86.5 26 L 77.5 26 L 77.5 25 L 82 24.5 L 75.5 18 L 74 18 L 74 16.5 L 70.5 13 Q 68.25 13.75 69 11.5 L 64.5 4 L 62 5 L 62 2.5 L 60 0.5 L 60.5 0 Z M 71 9 L 71 10 L 71 9 Z " /><path fill="rgb(90,176,180)" stroke="rgb(90,176,180)" stroke-width="1" opacity="1" d="M 58.5 5 Q 62.25 4 61 7 Q 58.25 7.5 58.5 5 Z " /><path fill="rgb(90,176,180)" stroke="rgb(90,176,180)" stroke-width="1" opacity="1" d="M 64 10 Q 67 8.75 66 12.5 Q 65 14 64 11.5 L 64 10 Z " /><path fill="rgb(90,176,180)" stroke="rgb(90,176,180)" stroke-width="1" opacity="1" d="M 69.5 16 Q 71.75 15.25 71 17.5 L 70.5 18 Q 68 17 69.5 16 Z " /><path fill="rgb(90,176,180)" stroke="rgb(90,176,180)" stroke-width="1" opacity="1" d="M 74.5 21 Q 78.25 20 77 23 Q 74.25 23.5 74.5 21 Z " /><path fill="rgb(90,176,180)" stroke="rgb(90,176,180)" stroke-width="1" opacity="1" d="M 105.5 28 L 106 31 L 104 30.5 L 105.5 28 Z " /><path fill="rgb(90,176,180)" stroke="rgb(90,176,180)" stroke-width="1" opacity="1" d="M 104 34 L 106 34 L 106 41 L 108 41 L 108 45 L 109.5 45 Q 110.42 46.75 113 46 L 114 51 L 118 51 L 118 53.5 Q 119.17 56.75 123 56 L 124 61 L 128 61 L 128 69.5 L 126.5 69 L 124.5 70 L 123 66 L 121 66 Q 122.13 63.33 119.5 64 L 117 60.5 L 116.5 56 L 114.5 59 L 111.5 52 Q 109.25 56.25 107 51.5 L 107 46 Q 104.04 46.38 104 45.5 L 104 34 Z " /><path fill="rgb(90,176,180)" stroke="rgb(90,176,180)" stroke-width="1" opacity="1" d="M 115.5 46 L 115.5 47 L 115.5 46 Z " /><path fill="rgb(90,176,180)" stroke="rgb(90,176,180)" stroke-width="1" opacity="1" d="M 105.5 47 L 105.5 50 Q 103.25 50.75 104 48.5 L 105.5 47 Z " /><path fill="rgb(90,176,180)" stroke="rgb(90,176,180)" stroke-width="1" opacity="1" d="M 104.5 53 L 104.5 54 L 104.5 53 Z " /><path fill="rgb(90,176,180)" stroke="rgb(90,176,180)" stroke-width="1" opacity="1" d="M 106.5 57 L 107 58.5 L 106 58.5 L 106.5 57 Z " /><path fill="rgb(90,176,180)" stroke="rgb(90,176,180)" stroke-width="1" opacity="1" d="M 115.5 62 L 115.5 63 L 115.5 62 Z " /><path fill="rgb(86,174,178)" stroke="rgb(86,174,178)" stroke-width="1" opacity="1" d="M 67 0 L 79.5 0 L 84 4.5 Q 83.25 6.75 85.5 6 L 89 9.5 L 89 11 L 90.5 11 L 94 14.5 Q 93.25 16.75 95.5 16 L 100.5 22 Q 103.83 20.88 103 23.5 L 104.5 25 L 108 25.5 L 104.5 29 L 104 28.5 L 102.5 26 L 87 25.5 L 89 24.5 Q 86.25 23.42 87 20 L 83 20 L 83 18.5 Q 81.25 17.58 82 15 L 78 15 L 78 13.5 L 77 10.5 L 68.5 2 Q 65.88 2.67 67 0 Z M 105 26 L 105 27 L 105 26 Z " /><path fill="rgb(86,174,178)" stroke="rgb(86,174,178)" stroke-width="1" opacity="1" d="M 107 29 L 110 30.5 L 108 31.5 Q 112.88 32.13 115 35.5 L 113 36.5 Q 114.77 38.56 118 38 Q 117.25 41.83 120.5 43 L 123 43 L 123 47 L 124.5 47 Q 125.42 48.75 128 48 L 128 60.5 Q 127.87 61.5 124 61 L 123 56 Q 119.17 56.75 118 53.5 L 118 51 L 114 51 L 114 49.5 Q 112.25 48.58 113 46 L 108 45 L 108 41 L 106 40.5 L 106 34.5 L 104 34 L 104 31 Q 108.12 32.33 107 29 Z M 116 46 L 116 47 L 116 46 Z " /><path fill="rgb(82,170,175)" stroke="rgb(82,170,175)" stroke-width="1" opacity="1" d="M 90 0 L 107.5 0 Q 108.25 -0.25 108 2.5 L 107 5 L 113 5 L 113 8 Q 116 6.75 115 10.5 Q 116.17 13.75 120 13 L 122.5 18 Q 125.83 16.88 125 19.5 L 126 22 L 128 22.5 L 128 38 Q 125 39 126 36 L 123 36 L 123 33.5 Q 121.83 30.25 118 31 L 118 28.5 L 114.5 25 L 113 25 L 113 20 L 110.5 20 L 104.5 15 L 103 15 L 103 13.5 L 97.5 7 L 95 5.5 L 92.5 2 Q 88.75 3 90 0 Z " /><path fill="rgb(77,166,172)" stroke="rgb(77,166,172)" stroke-width="1" opacity="1" d="M 108 0 L 128 0 L 128 22 Q 125.33 23.13 126 20.5 L 125 18 Q 122 18.75 121 16.5 L 120 13 Q 116.17 13.75 115 10.5 Q 116 6.75 113 8 L 113 5 L 107.5 5 L 107 3.5 Q 108.75 2.58 108 0 Z " /><path fill="rgb(114,190,193)" stroke="rgb(114,190,193)" stroke-width="1" opacity="1" d="M 0.5 5 Q 1.75 8.5 5 8 L 5 10 Q 7.67 8.88 7 11.5 L 11 13.5 L 10 14.5 L 13.5 18 L 15.5 17 L 16 23 L 18 23 Q 17 26 20 25 L 20.5 22 L 21 24.5 L 20.5 26 L 22 26.5 L 20 27.5 L 21 29.5 Q 19 30.5 21 31.5 L 20.5 34 L 19 29 L 16 27.5 L 13.5 23 L 12 23.5 L 4 14.5 L 4 13 Q -0.13 14.67 1 10.5 Q -1.35 9.15 0.5 5 Z M 13 21 L 13 22 L 13 21 Z " /><path fill="rgb(114,190,193)" stroke="rgb(114,190,193)" stroke-width="1" opacity="1" d="M 5.5 19 L 6 20.5 L 5 20.5 L 5.5 19 Z " /><path fill="rgb(114,190,193)" stroke="rgb(114,190,193)" stroke-width="1" opacity="1" d="M 17.5 20 L 19 20.5 L 17.5 21 L 17.5 20 Z " /><path fill="rgb(114,190,193)" stroke="rgb(114,190,193)" stroke-width="1" opacity="1" d="M 23.5 25 Q 25.75 24.25 25 26.5 Q 24 29 23 27.5 L 24 26.5 L 23.5 25 Z " /><path fill="rgb(114,190,193)" stroke="rgb(114,190,193)" stroke-width="1" opacity="1" d="M 60.5 26 L 60.5 27 L 60.5 26 Z " /><path fill="rgb(114,190,193)" stroke="rgb(114,190,193)" stroke-width="1" opacity="1" d="M 62.5 26 L 67 26.5 L 62.5 27 L 62.5 26 Z " /><path fill="rgb(114,190,193)" stroke="rgb(114,190,193)" stroke-width="1" opacity="1" d="M 22.5 29 Q 25 30 24 34.5 Q 21.58 35.58 21.5 39 L 21 36.5 L 22 35.5 L 22.5 29 Z " /><path fill="rgb(114,190,193)" stroke="rgb(114,190,193)" stroke-width="1" opacity="1" d="M 53.5 51 L 53.5 52 L 53.5 51 Z " /><path fill="rgb(114,190,193)" stroke="rgb(114,190,193)" stroke-width="1" opacity="1" d="M 58.5 51 L 58.5 52 L 58.5 51 Z " /><path fill="rgb(114,190,193)" stroke="rgb(114,190,193)" stroke-width="1" opacity="1" d="M 60.5 51 L 60.5 52 L 60.5 51 Z " /><path fill="rgb(114,190,193)" stroke="rgb(114,190,193)" stroke-width="1" opacity="1" d="M 62.5 51 L 67 51.5 L 62.5 52 L 62.5 51 Z " /><path fill="rgb(114,190,193)" stroke="rgb(114,190,193)" stroke-width="1" opacity="1" d="M 41.5 52 L 46 52.5 L 41.5 53 L 41.5 52 Z " /><path fill="rgb(114,190,193)" stroke="rgb(114,190,193)" stroke-width="1" opacity="1" d="M 51.5 52 Q 53 53 50.5 54 L 49 53.5 L 51.5 52 Z " /><path fill="rgb(114,190,193)" stroke="rgb(114,190,193)" stroke-width="1" opacity="1" d="M 57.5 53 L 57.5 54 L 57.5 53 Z " /><path fill="rgb(114,190,193)" stroke="rgb(114,190,193)" stroke-width="1" opacity="1" d="M 21.5 55 L 21.5 56 L 21.5 55 Z " /><path fill="rgb(114,190,193)" stroke="rgb(114,190,193)" stroke-width="1" opacity="1" d="M 103.5 55 L 103.5 56 L 103.5 55 Z " /><path fill="rgb(114,190,193)" stroke="rgb(114,190,193)" stroke-width="1" opacity="1" d="M 55.5 61 L 55.5 62 L 55.5 61 Z " /><path fill="rgb(114,190,193)" stroke="rgb(114,190,193)" stroke-width="1" opacity="1" d="M 55.5 66 L 56 69.5 L 55 69.5 L 55.5 66 Z " /><path fill="rgb(114,190,193)" stroke="rgb(114,190,193)" stroke-width="1" opacity="1" d="M 103.5 66 L 104 71.5 L 103 71.5 L 103.5 66 Z " /><path fill="rgb(114,190,193)" stroke="rgb(114,190,193)" stroke-width="1" opacity="1" d="M 82.5 101 L 89 101.5 L 82.5 102 L 82.5 101 Z " /><path fill="rgb(114,190,193)" stroke="rgb(114,190,193)" stroke-width="1" opacity="1" d="M 90.5 102 L 93.5 104 L 94 102 Q 96.67 100.88 96 103.5 L 99 105 Q 97.75 108 101.5 107 L 103 106.5 Q 103.75 108.75 101.5 108 L 101 108.5 L 104.5 112 L 107.5 111 L 108 113 L 106 113.5 L 112 117.5 L 117 123.5 L 117 125 L 119 125 Q 117.88 127.67 120.5 127 L 120.5 128 L 113.5 128 L 113 126.5 Q 110.5 125.5 111 123 L 109.5 123 L 106 119.5 Q 106.75 117.25 104.5 118 L 101 114.5 L 101 113 L 99.5 113 L 96 109.5 L 94.5 107 L 93 107 L 93 105 Q 90.33 106.13 91 103.5 L 90.5 102 Z M 98 108 L 98 109 L 98 108 Z M 109 118 L 109 119 L 109 118 Z " /><path fill="rgb(114,190,193)" stroke="rgb(114,190,193)" stroke-width="1" opacity="1" d="M 92.5 108 L 92.5 109 L 92.5 108 Z " /><path fill="rgb(111,188,191)" stroke="rgb(111,188,191)" stroke-width="1" opacity="1" d="M 0.5 0 L 1 2 Q 4 3 3 0 L 7 0 Q 5.88 2.67 8.5 2 L 10 5 L 12 5 Q 10.88 7.67 13.5 7 L 18.5 13 L 20 13 Q 18.88 15.67 21.5 15 L 23 18 L 25 18 Q 23.88 20.67 26.5 20 L 28 23 L 31 24.5 L 23 25.5 L 24 26.5 L 23 27.5 L 23.5 29 L 22 29 Q 23.13 31.67 20.5 31 L 20 30.5 L 22 28.5 Q 23.13 25.17 20.5 26 L 18 25 L 18 23 L 16 22.5 L 16 17.5 L 14.5 18 L 10 14.5 L 10.5 13 Q 7.5 13.5 7 11.5 L 7 10 L 5 10 Q 6.13 7.33 3.5 8 L 0 4.5 L 0.5 0 Z M 6 5 Q 4 6 7 6 L 8 7 Q 9 4 6 5 Z M 12 10 L 12 13 L 13 13 Q 14 9 12 10 Z M 17 15 L 17 18 L 18 18 Q 19 14 17 15 Z M 18 20 L 18 21 L 19 21 L 18 20 Z M 21 22 L 20 25 L 21 25 L 21 22 Z " /><path fill="rgb(111,188,191)" stroke="rgb(111,188,191)" stroke-width="1" opacity="1" d="M 12.5 21 L 12.5 22 L 12.5 21 Z " /><path fill="rgb(111,188,191)" stroke="rgb(111,188,191)" stroke-width="1" opacity="1" d="M 67.5 26 L 82 26.5 L 67.5 27 L 67.5 26 Z " /><path fill="rgb(111,188,191)" stroke="rgb(111,188,191)" stroke-width="1" opacity="1" d="M 20.5 27 L 20.5 28 L 20.5 27 Z " /><path fill="rgb(111,188,191)" stroke="rgb(111,188,191)" stroke-width="1" opacity="1" d="M 55.5 48 L 55.5 49 L 55.5 48 Z " /><path fill="rgb(111,188,191)" stroke="rgb(111,188,191)" stroke-width="1" opacity="1" d="M 54.5 51 L 55.5 53 L 56.5 51 L 57 52.5 Q 55.5 55.5 54 52.5 L 54.5 51 Z " /><path fill="rgb(111,188,191)" stroke="rgb(111,188,191)" stroke-width="1" opacity="1" d="M 67.5 51 L 77 51.5 L 67.5 52 L 67.5 51 Z " /><path fill="rgb(111,188,191)" stroke="rgb(111,188,191)" stroke-width="1" opacity="1" d="M 46.5 52 L 51 52.5 L 46.5 53 L 46.5 52 Z " /><path fill="rgb(111,188,191)" stroke="rgb(111,188,191)" stroke-width="1" opacity="1" d="M 59.5 52 L 62 53.5 L 58.5 54 Q 57 53 59.5 52 Z " /><path fill="rgb(111,188,191)" stroke="rgb(111,188,191)" stroke-width="1" opacity="1" d="M 55.5 56 L 56 60.5 L 55 60.5 L 55.5 56 Z " /><path fill="rgb(111,188,191)" stroke="rgb(111,188,191)" stroke-width="1" opacity="1" d="M 103.5 56 L 104 65.5 L 103 65.5 L 103.5 56 Z " /><path fill="rgb(111,188,191)" stroke="rgb(111,188,191)" stroke-width="1" opacity="1" d="M 55.5 62 L 56 65.5 L 55 65.5 L 55.5 62 Z " /><path fill="rgb(111,188,191)" stroke="rgb(111,188,191)" stroke-width="1" opacity="1" d="M 105.5 97 L 106 98.5 L 105 98.5 L 105.5 97 Z " /><path fill="rgb(111,188,191)" stroke="rgb(111,188,191)" stroke-width="1" opacity="1" d="M 104.5 100 L 104.5 101 L 104.5 100 Z " /><path fill="rgb(111,188,191)" stroke="rgb(111,188,191)" stroke-width="1" opacity="1" d="M 89.5 101 L 98.5 101 L 99.5 102 L 105.5 102 L 107.5 101 L 107.5 102 L 106 102.5 Q 107.13 105.5 110 105 Q 109 108 112 107 L 112 110 L 115 110 Q 114 113 117 112 L 117 114.5 L 118.5 114 L 121 116.5 L 122.5 120 L 123.5 119 L 126 121.5 L 128 125.5 L 128 128 Q 121.83 128.88 119 127 L 119 125 Q 116.33 126.12 117 123.5 L 110.5 116 Q 106.5 116.5 106 113.5 L 108 113 L 107.5 111 L 104.5 112 L 101 108.5 L 101.5 108 Q 103.75 108.75 103 106.5 L 101.5 107 L 99 107 Q 100.13 104.33 97.5 105 L 96 102 Q 93.33 100.88 94 103.5 L 93.5 104 L 91.5 102 Q 88.5 102.5 89.5 101 Z M 109 108 L 109 109 L 109 108 Z M 123 123 L 123 124 L 123 123 Z " /><path fill="rgb(111,188,191)" stroke="rgb(111,188,191)" stroke-width="1" opacity="1" d="M 97.5 108 L 97.5 109 L 97.5 108 Z " /><path fill="rgb(111,188,191)" stroke="rgb(111,188,191)" stroke-width="1" opacity="1" d="M 108.5 118 L 108.5 119 L 108.5 118 Z " /><path fill="rgb(246,252,254)" stroke="rgb(246,252,254)" stroke-width="1" opacity="1" d="M 25.5 28 L 26 49.5 L 25 49.5 L 25.5 28 Z " /><path fill="rgb(246,252,254)" stroke="rgb(246,252,254)" stroke-width="1" opacity="1" d="M 60.5 28 L 60.5 29 L 60.5 28 Z " /><path fill="rgb(246,252,254)" stroke="rgb(246,252,254)" stroke-width="1" opacity="1" d="M 53.5 31 L 54 35.5 L 53 35.5 L 53.5 31 Z " /><path fill="rgb(246,252,254)" stroke="rgb(246,252,254)" stroke-width="1" opacity="1" d="M 53.5 38 L 54 49.5 L 53 49.5 L 53.5 38 Z " /><path fill="rgb(246,252,254)" stroke="rgb(246,252,254)" stroke-width="1" opacity="1" d="M 25.5 55 L 26 94.5 L 25 94.5 L 25.5 55 Z " /><path fill="rgb(246,252,254)" stroke="rgb(246,252,254)" stroke-width="1" opacity="1" d="M 53.5 55 L 54 71.5 L 53 71.5 L 53.5 55 Z " /><path fill="rgb(246,252,254)" stroke="rgb(246,252,254)" stroke-width="1" opacity="1" d="M 57.5 55 L 58 76.5 L 59 77.5 Q 58 79 57 76.5 L 57.5 55 Z " /><path fill="rgb(246,252,254)" stroke="rgb(246,252,254)" stroke-width="1" opacity="1" d="M 53.5 74 L 54 99.5 L 53 99.5 L 53.5 74 Z " /><path fill="rgb(246,252,254)" stroke="rgb(246,252,254)" stroke-width="1" opacity="1" d="M 25.5 96 L 26 98.5 L 25 98.5 L 25.5 96 Z " /><path fill="rgb(239,248,250)" stroke="rgb(239,248,250)" stroke-width="1" opacity="1" d="M 26.5 27 L 52.5 27 L 54 28.5 L 53.5 31 L 53 28 L 26.5 28 L 26.5 27 Z " /><path fill="rgb(239,248,250)" stroke="rgb(239,248,250)" stroke-width="1" opacity="1" d="M 57.5 27 L 103 27.5 L 57.5 28 L 57.5 27 Z " /><path fill="rgb(239,248,250)" stroke="rgb(239,248,250)" stroke-width="1" opacity="1" d="M 53.5 36 L 54 37.5 L 53 37.5 L 53.5 36 Z " /><path fill="rgb(239,248,250)" stroke="rgb(239,248,250)" stroke-width="1" opacity="1" d="M 26.5 50 L 53 50.5 L 26.5 51 L 26.5 50 Z " /><path fill="rgb(239,248,250)" stroke="rgb(239,248,250)" stroke-width="1" opacity="1" d="M 57.5 50 L 57.5 51 L 57.5 50 Z " /><path fill="rgb(239,248,250)" stroke="rgb(239,248,250)" stroke-width="1" opacity="1" d="M 59.5 50 L 87 50.5 L 59.5 51 L 59.5 50 Z " /><path fill="rgb(239,248,250)" stroke="rgb(239,248,250)" stroke-width="1" opacity="1" d="M 53.5 72 L 54 73.5 L 53 73.5 L 53.5 72 Z " /><path fill="rgb(239,248,250)" stroke="rgb(239,248,250)" stroke-width="1" opacity="1" d="M 57.5 77 L 57.5 78 L 57.5 77 Z " /><path fill="rgb(251,254,254)" stroke="rgb(251,254,254)" stroke-width="1" opacity="1" d="M 26.5 28 L 51 28.5 L 26.5 29 L 26.5 28 Z " /><path fill="rgb(251,254,254)" stroke="rgb(251,254,254)" stroke-width="1" opacity="1" d="M 57.5 28 L 59 28.5 L 57.5 29 L 57.5 28 Z " /><path fill="rgb(251,254,254)" stroke="rgb(251,254,254)" stroke-width="1" opacity="1" d="M 61.5 28 L 87 28.5 L 61.5 29 L 61.5 28 Z " /><path fill="rgb(251,254,254)" stroke="rgb(251,254,254)" stroke-width="1" opacity="1" d="M 92.5 28 L 102 28.5 L 92.5 29 L 92.5 28 Z " /><path fill="rgb(251,254,254)" stroke="rgb(251,254,254)" stroke-width="1" opacity="1" d="M 58.5 46 L 60 46.5 L 58.5 47 L 58.5 46 Z " /><path fill="rgb(251,254,254)" stroke="rgb(251,254,254)" stroke-width="1" opacity="1" d="M 58.5 48 L 60 48.5 L 58.5 49 L 58.5 48 Z " /><path fill="rgb(251,254,254)" stroke="rgb(251,254,254)" stroke-width="1" opacity="1" d="M 62.5 48 L 71 48.5 L 62.5 49 L 62.5 48 Z " /><path fill="rgb(251,254,254)" stroke="rgb(251,254,254)" stroke-width="1" opacity="1" d="M 77.5 48 L 92 48.5 L 77.5 49 L 77.5 48 Z " /><path fill="rgb(251,254,254)" stroke="rgb(251,254,254)" stroke-width="1" opacity="1" d="M 60.5 57 L 61 60.5 L 60 60.5 L 60.5 57 Z " /><path fill="rgb(251,254,254)" stroke="rgb(251,254,254)" stroke-width="1" opacity="1" d="M 60.5 66 L 61 77 L 83 77.5 L 59.5 78 L 60 76.5 L 60.5 66 Z " /><path fill="rgb(251,254,254)" stroke="rgb(251,254,254)" stroke-width="1" opacity="1" d="M 25.5 95 L 25.5 96 L 25.5 95 Z " /><path fill="rgb(251,254,254)" stroke="rgb(251,254,254)" stroke-width="1" opacity="1" d="M 51.5 98 L 53 98.5 Q 51.25 100.75 46.5 100 L 46.5 99 Q 50.5 100 51.5 98 Z " /><path fill="rgb(251,254,254)" stroke="rgb(251,254,254)" stroke-width="1" opacity="1" d="M 25.5 99 L 25.5 100 L 25.5 99 Z " /><path fill="rgb(82,171,175)" stroke="rgb(82,171,175)" stroke-width="1" opacity="1" d="M 80.5 0 L 89.5 0 L 90 2 L 92.5 2 L 96.5 7 L 100 9.5 L 103 13.5 L 103 15 L 104.5 15 L 108.5 19 L 113 20 L 113 25 L 114.5 25 L 118 28.5 L 118 31 Q 121.83 30.25 123 33.5 L 123 36 L 126 36 Q 125 39 128 38 L 128 48 L 123 47 L 123 43 L 120.5 43 Q 117.25 41.83 118 38 Q 114.77 38.56 113 36.5 L 115 35.5 Q 112.88 32.13 108 31.5 L 110 30.5 L 107 29 L 106.5 31 L 106 27.5 L 108 25.5 L 107.5 25 Q 103.75 25.75 103 23.5 Q 103.83 20.88 100.5 22 L 95.5 16 Q 93.25 16.75 94 14.5 L 90.5 11 L 89 11 L 89 9.5 L 85.5 6 Q 83.25 6.75 84 4.5 L 80 0.5 L 80.5 0 Z " /><path fill="rgb(82,171,175)" stroke="rgb(82,171,175)" stroke-width="1" opacity="1" d="M 104.5 26 L 104.5 27 L 104.5 26 Z " /><path fill="rgb(82,171,175)" stroke="rgb(82,171,175)" stroke-width="1" opacity="1" d="M 104.5 29 L 104.5 30 L 104.5 29 Z " /><path fill="rgb(119,193,196)" stroke="rgb(119,193,196)" stroke-width="1" opacity="1" d="M 0 18 L 3 19.5 L 2 21.5 Q 6.88 22.13 9 25.5 L 10 29 L 15 29 L 15 31 L 12 31.5 Q 15.42 31.58 16.5 34 L 20 34 L 19 36.5 L 21 38.5 L 21 45.5 L 20 45.5 L 20 41 L 15 41 Q 16 38 13 39 L 11.5 42 L 10 41.5 L 12 41 L 12 38 Q 15 39 14 36 Q 11.42 35.25 10.5 37 L 10 34 L 7 34 L 7 32 L 5 32 Q 6.13 29.33 3.5 30 L 2 27 L 0 26.5 L 0 18 Z " /><path fill="rgb(119,193,196)" stroke="rgb(119,193,196)" stroke-width="1" opacity="1" d="M 36.5 26 L 51 26.5 L 36.5 27 L 36.5 26 Z " /><path fill="rgb(119,193,196)" stroke="rgb(119,193,196)" stroke-width="1" opacity="1" d="M 54.5 27 L 54.5 28 L 54.5 27 Z " /><path fill="rgb(119,193,196)" stroke="rgb(119,193,196)" stroke-width="1" opacity="1" d="M 54.5 31 L 55 35.5 L 54 35.5 L 54.5 31 Z " /><path fill="rgb(119,193,196)" stroke="rgb(119,193,196)" stroke-width="1" opacity="1" d="M 21.5 32 L 22 35.5 L 21 35.5 L 21.5 32 Z " /><path fill="rgb(119,193,196)" stroke="rgb(119,193,196)" stroke-width="1" opacity="1" d="M 23.5 36 L 24 46 Q 21 47.25 22 43.5 L 23 42.5 L 23.5 36 Z " /><path fill="rgb(119,193,196)" stroke="rgb(119,193,196)" stroke-width="1" opacity="1" d="M 22.5 47 L 24 49.5 L 23 49.5 L 22.5 47 Z " /><path fill="rgb(119,193,196)" stroke="rgb(119,193,196)" stroke-width="1" opacity="1" d="M 20.5 48 L 20.5 49 L 20.5 48 Z " /><path fill="rgb(119,193,196)" stroke="rgb(119,193,196)" stroke-width="1" opacity="1" d="M 46.5 51 L 51 51.5 L 46.5 52 L 46.5 51 Z " /><path fill="rgb(119,193,196)" stroke="rgb(119,193,196)" stroke-width="1" opacity="1" d="M 25.5 52 L 31 52.5 L 23.5 54 L 23.5 53 L 25.5 52 Z " /><path fill="rgb(119,193,196)" stroke="rgb(119,193,196)" stroke-width="1" opacity="1" d="M 36.5 53 L 41 53.5 L 36.5 54 L 36.5 53 Z " /><path fill="rgb(119,193,196)" stroke="rgb(119,193,196)" stroke-width="1" opacity="1" d="M 21.5 54 L 21.5 55 L 21.5 54 Z " /><path fill="rgb(119,193,196)" stroke="rgb(119,193,196)" stroke-width="1" opacity="1" d="M 23.5 55 L 23.5 56 L 23.5 55 Z " /><path fill="rgb(119,193,196)" stroke="rgb(119,193,196)" stroke-width="1" opacity="1" d="M 21.5 56 L 21.5 57 L 21.5 56 Z " /><path fill="rgb(119,193,196)" stroke="rgb(119,193,196)" stroke-width="1" opacity="1" d="M 55.5 79 L 56 81.5 L 55 81.5 L 55.5 79 Z " /><path fill="rgb(119,193,196)" stroke="rgb(119,193,196)" stroke-width="1" opacity="1" d="M 103.5 82 L 104 91.5 L 103 91.5 L 103.5 82 Z " /><path fill="rgb(119,193,196)" stroke="rgb(119,193,196)" stroke-width="1" opacity="1" d="M 103.5 93 L 104 95.5 L 103 95.5 L 103.5 93 Z " /><path fill="rgb(119,193,196)" stroke="rgb(119,193,196)" stroke-width="1" opacity="1" d="M 72.5 101 L 77 101.5 L 72.5 102 L 72.5 101 Z " /><path fill="rgb(119,193,196)" stroke="rgb(119,193,196)" stroke-width="1" opacity="1" d="M 78.5 102 L 81.5 102 L 85.5 105 L 87 105 L 87 108 L 88.5 108 L 90 111 L 92 111 Q 90.88 113.67 93.5 113 L 97 116.5 L 97 118 L 98.5 118 L 102 121.5 L 102 123 L 105 123 L 105 124.5 Q 107.5 125.5 107 128 L 102 128 L 102 123 L 92 123 L 92 118 L 89 118 Q 90 115 87 116 L 87 111 L 85.5 111 L 83.5 112 L 82 110.5 L 84 108.5 L 83.5 108 L 82 108 L 82 105 L 80 105 Q 81.13 102.33 78.5 103 L 78.5 102 Z " /><path fill="rgb(119,193,196)" stroke="rgb(119,193,196)" stroke-width="1" opacity="1" d="M 77.5 105 Q 80 106 78.5 107 Q 76 106 77.5 105 Z " /><path fill="rgb(117,191,194)" stroke="rgb(117,191,194)" stroke-width="1" opacity="1" d="M 0.5 10 L 1 13 L 4 13 L 4 14.5 L 12.5 24 L 14 23.5 L 17.5 29 Q 19.75 28.25 19 30.5 L 21 34.5 L 21 37.5 Q 20 39 19 36.5 L 20 34 L 16.5 34 Q 15.42 31.58 12 31.5 L 15 31 L 15 29 L 10 29 L 10 27.5 L 6.5 23 L 2 21.5 L 3 19.5 L 0 18 L 0.5 10 Z M 6 19 L 5 21 L 6 21 L 6 19 Z " /><path fill="rgb(117,191,194)" stroke="rgb(117,191,194)" stroke-width="1" opacity="1" d="M 57.5 26 L 57.5 27 L 57.5 26 Z " /><path fill="rgb(117,191,194)" stroke="rgb(117,191,194)" stroke-width="1" opacity="1" d="M 59.5 26 L 59.5 27 L 59.5 26 Z " /><path fill="rgb(117,191,194)" stroke="rgb(117,191,194)" stroke-width="1" opacity="1" d="M 61.5 26 L 61.5 27 L 61.5 26 Z " /><path fill="rgb(117,191,194)" stroke="rgb(117,191,194)" stroke-width="1" opacity="1" d="M 21.5 27 L 22 28.5 L 21 28.5 L 21.5 27 Z " /><path fill="rgb(117,191,194)" stroke="rgb(117,191,194)" stroke-width="1" opacity="1" d="M 23.5 29 L 23.5 30 L 23.5 29 Z " /><path fill="rgb(117,191,194)" stroke="rgb(117,191,194)" stroke-width="1" opacity="1" d="M 54.5 30 L 54.5 31 L 54.5 30 Z " /><path fill="rgb(117,191,194)" stroke="rgb(117,191,194)" stroke-width="1" opacity="1" d="M 21.5 31 L 21.5 32 L 21.5 31 Z " /><path fill="rgb(117,191,194)" stroke="rgb(117,191,194)" stroke-width="1" opacity="1" d="M 23.5 35 L 23 36.5 L 22.5 43 L 21 39.5 L 23.5 35 Z " /><path fill="rgb(117,191,194)" stroke="rgb(117,191,194)" stroke-width="1" opacity="1" d="M 51.5 51 L 51.5 52 L 51.5 51 Z " /><path fill="rgb(117,191,194)" stroke="rgb(117,191,194)" stroke-width="1" opacity="1" d="M 57.5 51 L 57.5 52 L 57.5 51 Z " /><path fill="rgb(117,191,194)" stroke="rgb(117,191,194)" stroke-width="1" opacity="1" d="M 59.5 51 L 59.5 52 L 59.5 51 Z " /><path fill="rgb(117,191,194)" stroke="rgb(117,191,194)" stroke-width="1" opacity="1" d="M 61.5 51 L 61.5 52 L 61.5 51 Z " /><path fill="rgb(117,191,194)" stroke="rgb(117,191,194)" stroke-width="1" opacity="1" d="M 31.5 52 L 40.5 52 L 41.5 53 L 49 53.5 L 41.5 54 L 40.5 53 L 31.5 53 L 31.5 52 Z " /><path fill="rgb(117,191,194)" stroke="rgb(117,191,194)" stroke-width="1" opacity="1" d="M 55.5 70 L 56 77.5 L 55 77.5 L 55.5 70 Z " /><path fill="rgb(117,191,194)" stroke="rgb(117,191,194)" stroke-width="1" opacity="1" d="M 103.5 72 L 104 81.5 L 103 81.5 L 103.5 72 Z " /><path fill="rgb(117,191,194)" stroke="rgb(117,191,194)" stroke-width="1" opacity="1" d="M 77.5 101 Q 81.5 100 82.5 102 L 89.5 102 L 91 103.5 L 91 105 L 93 105 Q 91.88 107.67 94.5 107 L 99.5 113 Q 101.75 112.25 101 114.5 L 104.5 118 L 106 118 L 106 119.5 L 109.5 123 Q 111.75 122.25 111 124.5 Q 113.5 125.5 113 128 L 107.5 128 L 107 126.5 Q 104.5 125.5 105 123 L 102 123 L 102 121.5 L 98.5 118 L 97 118 L 97 116.5 L 93.5 113 L 92 113 L 92 111 Q 89.33 112.12 90 109.5 L 87 108 L 87 105 L 85.5 105 L 81.5 102 L 77.5 102 L 77.5 101 Z M 93 108 L 93 109 L 93 108 Z " /><path fill="rgb(254,254,253)" stroke="rgb(254,254,253)" stroke-width="1" opacity="1" d="M 51.5 28 L 53 28.5 L 51.5 29 L 51.5 28 Z " /><path fill="rgb(254,254,253)" stroke="rgb(254,254,253)" stroke-width="1" opacity="1" d="M 57.5 30 L 59 30.5 L 57.5 31 L 57.5 30 Z " /><path fill="rgb(254,254,253)" stroke="rgb(254,254,253)" stroke-width="1" opacity="1" d="M 58.5 36 L 59 45.5 L 58 45.5 L 58.5 36 Z " /><path fill="rgb(254,254,253)" stroke="rgb(254,254,253)" stroke-width="1" opacity="1" d="M 52.5 41 L 53 45.5 L 52 45.5 L 52.5 41 Z " /><path fill="rgb(254,254,253)" stroke="rgb(254,254,253)" stroke-width="1" opacity="1" d="M 62.5 46 L 67 46.5 L 62.5 47 L 62.5 46 Z " /><path fill="rgb(254,254,253)" stroke="rgb(254,254,253)" stroke-width="1" opacity="1" d="M 52.5 47 L 53 48.5 L 52 48.5 L 52.5 47 Z " /><path fill="rgb(254,254,253)" stroke="rgb(254,254,253)" stroke-width="1" opacity="1" d="M 58.5 47 L 58.5 48 L 58.5 47 Z " /><path fill="rgb(254,254,253)" stroke="rgb(254,254,253)" stroke-width="1" opacity="1" d="M 46.5 49 L 51 49.5 L 46.5 50 L 46.5 49 Z " /><path fill="rgb(254,254,253)" stroke="rgb(254,254,253)" stroke-width="1" opacity="1" d="M 58.5 49 L 58.5 50 L 58.5 49 Z " /><path fill="rgb(254,254,253)" stroke="rgb(254,254,253)" stroke-width="1" opacity="1" d="M 92.5 49 L 102 49.5 L 92.5 50 L 92.5 49 Z " /><path fill="rgb(254,254,253)" stroke="rgb(254,254,253)" stroke-width="1" opacity="1" d="M 52.5 55 L 53 56.5 L 52 56.5 L 52.5 55 Z " /><path fill="rgb(254,254,253)" stroke="rgb(254,254,253)" stroke-width="1" opacity="1" d="M 61.5 55 L 61.5 56 L 61.5 55 Z " /><path fill="rgb(254,254,253)" stroke="rgb(254,254,253)" stroke-width="1" opacity="1" d="M 82.5 55 L 83 56.5 L 82 56.5 L 82.5 55 Z " /><path fill="rgb(254,254,253)" stroke="rgb(254,254,253)" stroke-width="1" opacity="1" d="M 58.5 56 L 59 60.5 L 58 60.5 L 58.5 56 Z " /><path fill="rgb(254,254,253)" stroke="rgb(254,254,253)" stroke-width="1" opacity="1" d="M 52.5 62 L 53 91.5 L 52 91.5 L 52.5 62 Z " /><path fill="rgb(254,254,253)" stroke="rgb(254,254,253)" stroke-width="1" opacity="1" d="M 60.5 62 L 61 65.5 L 60 65.5 L 60.5 62 Z " /><path fill="rgb(254,254,253)" stroke="rgb(254,254,253)" stroke-width="1" opacity="1" d="M 58.5 71 L 59 76.5 L 58 76.5 L 58.5 71 Z " /><path fill="rgb(254,254,253)" stroke="rgb(254,254,253)" stroke-width="1" opacity="1" d="M 51.5 99 L 53 99.5 L 51.5 100 L 51.5 99 Z " /><path fill="rgb(254,254,254)" stroke="rgb(254,254,254)" stroke-width="1" opacity="1" d="M 87.5 28 L 92 28.5 L 87.5 29 L 87.5 28 Z " /><path fill="rgb(254,254,254)" stroke="rgb(254,254,254)" stroke-width="1" opacity="1" d="M 58.5 29 L 60 30.5 L 60 40.5 L 59 40.5 L 59 30.5 L 58.5 29 Z " /><path fill="rgb(254,254,254)" stroke="rgb(254,254,254)" stroke-width="1" opacity="1" d="M 26.5 46 L 50.5 46 Q 51.37 46.04 51 49 L 46.5 49 L 45.5 50 L 26 50 L 26.5 48 L 45.5 48 L 45.5 47 L 26.5 47 L 26.5 46 Z " /><path fill="rgb(254,254,254)" stroke="rgb(254,254,254)" stroke-width="1" opacity="1" d="M 61.5 46 L 61.5 47 L 61.5 46 Z " /><path fill="rgb(254,254,254)" stroke="rgb(254,254,254)" stroke-width="1" opacity="1" d="M 67.5 46 L 71 46.5 L 67.5 47 L 67.5 46 Z " /><path fill="rgb(254,254,254)" stroke="rgb(254,254,254)" stroke-width="1" opacity="1" d="M 77.5 46 L 82 46.5 L 77.5 47 L 77.5 46 Z " /><path fill="rgb(254,254,254)" stroke="rgb(254,254,254)" stroke-width="1" opacity="1" d="M 87.5 46 L 102 46.5 L 87.5 47 L 87.5 46 Z " /><path fill="rgb(254,254,254)" stroke="rgb(254,254,254)" stroke-width="1" opacity="1" d="M 60.5 48 L 66 49.5 L 62.5 50 L 60 48.5 L 60.5 48 Z " /><path fill="rgb(254,254,254)" stroke="rgb(254,254,254)" stroke-width="1" opacity="1" d="M 72 48 L 77 48 L 77 50 L 72 50 L 72 48 Z " /><path fill="rgb(254,254,254)" stroke="rgb(254,254,254)" stroke-width="1" opacity="1" d="M 102.5 49 L 102.5 50 L 102.5 49 Z " /><path fill="rgb(254,254,254)" stroke="rgb(254,254,254)" stroke-width="1" opacity="1" d="M 58.5 55 L 61.5 56 Q 62.25 54.25 65.5 55 L 65.5 56 L 59.5 57 Q 57 56 58.5 55 Z " /><path fill="rgb(254,254,254)" stroke="rgb(254,254,254)" stroke-width="1" opacity="1" d="M 58.5 61 L 58.5 62 L 58.5 61 Z " /><path fill="rgb(254,254,254)" stroke="rgb(254,254,254)" stroke-width="1" opacity="1" d="M 60.5 61 L 60.5 62 L 60.5 61 Z " /><path fill="rgb(254,254,254)" stroke="rgb(254,254,254)" stroke-width="1" opacity="1" d="M 58.5 67 L 59 70.5 L 58 70.5 L 58.5 67 Z " /><path fill="rgb(254,254,254)" stroke="rgb(254,254,254)" stroke-width="1" opacity="1" d="M 51.5 74 L 52 76.5 L 51 76.5 L 51.5 74 Z " /><path fill="rgb(254,254,254)" stroke="rgb(254,254,254)" stroke-width="1" opacity="1" d="M 52.5 92 L 53 96.5 L 52 96.5 L 52.5 92 Z " /><path fill="rgb(254,254,254)" stroke="rgb(254,254,254)" stroke-width="1" opacity="1" d="M 26.5 97 L 31 97.5 L 26.5 98 L 26.5 97 Z " /><path fill="rgb(254,254,254)" stroke="rgb(254,254,254)" stroke-width="1" opacity="1" d="M 46.5 98 L 51 98.5 L 46.5 99 L 46.5 98 Z " /><path fill="rgb(255,255,255)" stroke="rgb(255,255,255)" stroke-width="1" opacity="1" d="M 59.5 28 L 60.5 29 L 101.5 29 L 103 28.5 L 103 49 L 92.5 49 L 91.5 50 L 77.5 50 L 77.5 49 L 92 48.5 L 72 48 L 72 50 L 66.5 50 L 66.5 49 L 71 48.5 L 59 47.5 Q 61 46.5 59 45.5 Q 58 41.5 60 40.5 L 60 30.5 Q 58.25 29.75 59.5 28 Z M 62 46 L 62 47 L 71 47 L 62 46 Z M 78 46 L 78 47 L 82 47 L 78 46 Z M 88 46 L 88 47 L 102 47 L 88 46 Z " /><path fill="rgb(255,255,255)" stroke="rgb(255,255,255)" stroke-width="1" opacity="1" d="M 26 29 L 53 29 L 53 40.5 Q 51 41.5 52 45.5 Q 54 46.5 52 47.5 L 53 49.5 L 51 50 Q 51.5 46.13 50.5 46 L 26 46 L 26 29 Z " /><path fill="rgb(255,255,255)" stroke="rgb(255,255,255)" stroke-width="1" opacity="1" d="M 57.5 29 L 57.5 30 L 57.5 29 Z " /><path fill="rgb(255,255,255)" stroke="rgb(255,255,255)" stroke-width="1" opacity="1" d="M 57 31 Q 60.67 29.65 59 35.5 L 58 36.5 L 57.5 50 L 57 31 Z " /><path fill="rgb(255,255,255)" stroke="rgb(255,255,255)" stroke-width="1" opacity="1" d="M 26.5 47 L 46 47.5 L 26.5 48 L 26.5 47 Z " /><path fill="rgb(255,255,255)" stroke="rgb(255,255,255)" stroke-width="1" opacity="1" d="M 59.5 49 L 62 49.5 L 59.5 50 L 59.5 49 Z " /><path fill="rgb(255,255,255)" stroke="rgb(255,255,255)" stroke-width="1" opacity="1" d="M 26 55 L 51.5 55 L 52 56.5 Q 54 57.5 53 61.5 L 52 62.5 L 52 73.5 L 51 76.5 L 52 77.5 L 52 96.5 L 53 97.5 L 46 98 L 45.5 100 L 26 100 Q 24.65 96.33 30.5 98 L 30.5 97 Q 26 97.5 26 96.5 L 26 55 Z " /><path fill="rgb(255,255,255)" stroke="rgb(255,255,255)" stroke-width="1" opacity="1" d="M 60.5 55 L 60.5 56 L 60.5 55 Z " /><path fill="rgb(255,255,255)" stroke="rgb(255,255,255)" stroke-width="1" opacity="1" d="M 66.5 55 L 81.5 55 L 82 56.5 L 83 57.5 L 83 77 L 61 77 L 61 57.5 L 62.5 56 Q 65.75 56.75 66.5 55 Z " /><path fill="rgb(255,255,255)" stroke="rgb(255,255,255)" stroke-width="1" opacity="1" d="M 59.5 57 L 60 76.5 L 59 76.5 L 59 67.5 Q 57 66.5 58 62.5 L 59 61.5 L 59.5 57 Z " /><path fill="rgb(129,196,200)" stroke="rgb(129,196,200)" stroke-width="1" opacity="1" d="M 24.5 31 L 25 35.5 L 24 35.5 L 24.5 31 Z " /><path fill="rgb(129,196,200)" stroke="rgb(129,196,200)" stroke-width="1" opacity="1" d="M 103.5 36 L 104 40.5 L 103 40.5 L 103.5 36 Z " /><path fill="rgb(129,196,200)" stroke="rgb(129,196,200)" stroke-width="1" opacity="1" d="M 2.5 49 Q 6.25 48 5 51 Q 2.25 51.5 2.5 49 Z " /><path fill="rgb(129,196,200)" stroke="rgb(129,196,200)" stroke-width="1" opacity="1" d="M 22.5 51 L 22.5 52 L 22.5 51 Z " /><path fill="rgb(129,196,200)" stroke="rgb(129,196,200)" stroke-width="1" opacity="1" d="M 7.5 54 L 10 54 L 10 58.5 L 9 58.5 L 9 56.5 L 7 54.5 L 7.5 54 Z " /><path fill="rgb(129,196,200)" stroke="rgb(129,196,200)" stroke-width="1" opacity="1" d="M 20.5 55 L 20.5 56 L 20.5 55 Z " /><path fill="rgb(129,196,200)" stroke="rgb(129,196,200)" stroke-width="1" opacity="1" d="M 54.5 55 L 55 56.5 L 54 56.5 L 54.5 55 Z " /><path fill="rgb(129,196,200)" stroke="rgb(129,196,200)" stroke-width="1" opacity="1" d="M 12 59 Q 16.88 57.2 15 63.5 L 14 63.5 L 14 61 Q 11 62 12 59 Z " /><path fill="rgb(129,196,200)" stroke="rgb(129,196,200)" stroke-width="1" opacity="1" d="M 54.5 59 L 55 65.5 L 54 65.5 L 54.5 59 Z " /><path fill="rgb(129,196,200)" stroke="rgb(129,196,200)" stroke-width="1" opacity="1" d="M 10.5 62 L 10.5 63 L 10.5 62 Z " /><path fill="rgb(129,196,200)" stroke="rgb(129,196,200)" stroke-width="1" opacity="1" d="M 17 64 Q 21.88 62.2 20 68.5 L 19 68.5 L 19 66 Q 16 67 17 64 Z " /><path fill="rgb(129,196,200)" stroke="rgb(129,196,200)" stroke-width="1" opacity="1" d="M 23.5 65 L 23.5 66 L 23.5 65 Z " /><path fill="rgb(129,196,200)" stroke="rgb(129,196,200)" stroke-width="1" opacity="1" d="M 21.5 71 L 22 73.5 L 21 73.5 L 21.5 71 Z " /><path fill="rgb(129,196,200)" stroke="rgb(129,196,200)" stroke-width="1" opacity="1" d="M 21.5 77 L 22 81.5 L 21 81.5 L 21.5 77 Z " /><path fill="rgb(129,196,200)" stroke="rgb(129,196,200)" stroke-width="1" opacity="1" d="M 55.5 100 L 56 103.5 L 55 103.5 L 55.5 100 Z " /><path fill="rgb(129,196,200)" stroke="rgb(129,196,200)" stroke-width="1" opacity="1" d="M 57.5 101 L 57.5 102 L 57.5 101 Z " /><path fill="rgb(129,196,200)" stroke="rgb(129,196,200)" stroke-width="1" opacity="1" d="M 53.5 102 L 53.5 103 L 53.5 102 Z " /><path fill="rgb(129,196,200)" stroke="rgb(129,196,200)" stroke-width="1" opacity="1" d="M 60.5 108 L 60.5 109 L 60.5 108 Z " /><path fill="rgb(129,196,200)" stroke="rgb(129,196,200)" stroke-width="1" opacity="1" d="M 65.5 113 L 67 113.5 L 65.5 114 L 65.5 113 Z " /><path fill="rgb(129,196,200)" stroke="rgb(129,196,200)" stroke-width="1" opacity="1" d="M 70.5 118 L 70.5 119 L 70.5 118 Z " /><path fill="rgb(129,196,200)" stroke="rgb(129,196,200)" stroke-width="1" opacity="1" d="M 75 123 Q 78 122 77 125 Q 74 126 75 123 Z " /><path fill="rgb(122,193,197)" stroke="rgb(122,193,197)" stroke-width="1" opacity="1" d="M 0 27 Q 2.67 25.87 2 28.5 L 5 30 L 5 32 Q 8 31 7 34 L 10 34 L 10 36.5 L 11.5 36 L 14 36.5 L 12 37 L 12.5 41 L 13 39 Q 16 38 15 41 L 18.5 41 L 18.5 42 L 17 42.5 L 18.5 44 L 20 43.5 L 19 45.5 L 20.5 46 Q 21.75 43.75 23 46.5 L 21 46.5 L 21 48 Q 23.67 46.88 23 49.5 L 25 52.5 L 23 52.5 L 24 54.5 L 22.5 54 L 20 52.5 L 21.5 53 L 23 51.5 L 21.5 49 L 21 51 L 17 51 L 17 45.5 L 15.5 45 Q 14.58 46.75 12 46 L 12 41 L 9 41 Q 10.13 38.33 7.5 39 L 3.5 34 L 0 31.5 L 0 27 Z M 11 39 L 11 40 L 11 39 Z M 21 48 L 21 49 L 21 48 Z " /><path fill="rgb(122,193,197)" stroke="rgb(122,193,197)" stroke-width="1" opacity="1" d="M 103.5 27 L 103.5 28 L 103.5 27 Z " /><path fill="rgb(122,193,197)" stroke="rgb(122,193,197)" stroke-width="1" opacity="1" d="M 54.5 39 L 55 45.5 L 54 45.5 L 54.5 39 Z " /><path fill="rgb(122,193,197)" stroke="rgb(122,193,197)" stroke-width="1" opacity="1" d="M 54.5 50 L 54.5 51 L 54.5 50 Z " /><path fill="rgb(122,193,197)" stroke="rgb(122,193,197)" stroke-width="1" opacity="1" d="M 41.5 51 L 46 51.5 L 41.5 52 L 41.5 51 Z " /><path fill="rgb(122,193,197)" stroke="rgb(122,193,197)" stroke-width="1" opacity="1" d="M 52.5 51 L 52.5 52 L 52.5 51 Z " /><path fill="rgb(122,193,197)" stroke="rgb(122,193,197)" stroke-width="1" opacity="1" d="M 26.5 53 L 26.5 54 L 26.5 53 Z " /><path fill="rgb(122,193,197)" stroke="rgb(122,193,197)" stroke-width="1" opacity="1" d="M 31.5 53 L 36 53.5 L 31.5 54 L 31.5 53 Z " /><path fill="rgb(122,193,197)" stroke="rgb(122,193,197)" stroke-width="1" opacity="1" d="M 23.5 56 L 24 57.5 L 23 57.5 L 23.5 56 Z " /><path fill="rgb(122,193,197)" stroke="rgb(122,193,197)" stroke-width="1" opacity="1" d="M 56.5 79 L 56.5 80 L 56.5 79 Z " /><path fill="rgb(122,193,197)" stroke="rgb(122,193,197)" stroke-width="1" opacity="1" d="M 55.5 82 L 56 86.5 L 55 86.5 L 55.5 82 Z " /><path fill="rgb(122,193,197)" stroke="rgb(122,193,197)" stroke-width="1" opacity="1" d="M 103.5 96 L 103.5 97 L 103.5 96 Z " /><path fill="rgb(122,193,197)" stroke="rgb(122,193,197)" stroke-width="1" opacity="1" d="M 67 101 L 76 102 Q 74.88 104.67 77.5 104 L 80 105 Q 78.88 107.67 81.5 107 L 81.5 109 L 83 109.5 Q 80.75 110.75 83.5 112 Q 86.83 110.88 86 113.5 L 87 116 Q 90 115 89 118 L 92 118 L 92 123 L 97 123 Q 95.88 125.67 98.5 125 L 102 127.5 L 92 128 L 92 123 L 87 123 L 87 120.5 Q 85.83 117.25 82 118 L 82 113 L 77 113 L 77 108 L 72.5 108 Q 70 106.81 71 103 L 67 103 L 67 101 Z M 78 105 L 78 106 L 78 105 Z M 79 106 L 79 107 L 79 106 Z " /><path fill="rgb(122,193,197)" stroke="rgb(122,193,197)" stroke-width="1" opacity="1" d="M 77.5 102 L 77.5 103 L 77.5 102 Z " /><path fill="rgb(136,200,202)" stroke="rgb(136,200,202)" stroke-width="1" opacity="1" d="M 56.5 29 L 56.5 30 L 56.5 29 Z " /><path fill="rgb(136,200,202)" stroke="rgb(136,200,202)" stroke-width="1" opacity="1" d="M 56.5 31 L 57 40.5 L 56 40.5 L 56.5 31 Z " /><path fill="rgb(136,200,202)" stroke="rgb(136,200,202)" stroke-width="1" opacity="1" d="M 24.5 47 L 24.5 48 L 24.5 47 Z " /><path fill="rgb(136,200,202)" stroke="rgb(136,200,202)" stroke-width="1" opacity="1" d="M 24.5 49 L 24.5 50 L 24.5 49 Z " /><path fill="rgb(136,200,202)" stroke="rgb(136,200,202)" stroke-width="1" opacity="1" d="M 56.5 50 L 56.5 51 L 56.5 50 Z " /><path fill="rgb(136,200,202)" stroke="rgb(136,200,202)" stroke-width="1" opacity="1" d="M 24.5 55 L 25 60.5 L 24 60.5 L 24.5 55 Z " /><path fill="rgb(136,200,202)" stroke="rgb(136,200,202)" stroke-width="1" opacity="1" d="M 0 61 Q 4.5 59.25 3 64.5 L 0 66 L 0 61 Z " /><path fill="rgb(136,200,202)" stroke="rgb(136,200,202)" stroke-width="1" opacity="1" d="M 3.5 66 L 8 66 L 8 71.5 L 6.5 71 Q 3.88 71.83 5 68.5 L 3 66.5 L 3.5 66 Z " /><path fill="rgb(136,200,202)" stroke="rgb(136,200,202)" stroke-width="1" opacity="1" d="M 9 71 L 13 71 L 13 77 L 18 77 L 18 82 L 20.5 82 L 23 86.5 L 21.5 90 L 21 84 L 16 81.5 L 13.5 78 L 10 77 L 9 71 Z " /><path fill="rgb(136,200,202)" stroke="rgb(136,200,202)" stroke-width="1" opacity="1" d="M 54.5 75 L 55 82.5 L 54 82.5 L 54.5 75 Z " /><path fill="rgb(136,200,202)" stroke="rgb(136,200,202)" stroke-width="1" opacity="1" d="M 23.5 82 L 23.5 83 L 23.5 82 Z " /><path fill="rgb(136,200,202)" stroke="rgb(136,200,202)" stroke-width="1" opacity="1" d="M 38.5 102 L 44 103 L 44 107 L 49 107 L 49 112 L 51 112 Q 49.88 114.67 52.5 114 Q 55.5 115.13 55 118 L 57.5 118 L 65 125.5 Q 64.25 127.75 66.5 127 L 66.5 128 L 61 128 L 61 125.5 L 56 123 Q 56.75 119.17 53.5 118 L 51 118 L 51 114 L 48 114 Q 49 111 46 112 L 46 109 L 43.5 109 Q 40.25 107.83 41 104 Q 38.25 104.5 38.5 102 Z " /><path fill="rgb(133,199,202)" stroke="rgb(133,199,202)" stroke-width="1" opacity="1" d="M 56.5 27 L 56.5 28 L 56.5 27 Z " /><path fill="rgb(133,199,202)" stroke="rgb(133,199,202)" stroke-width="1" opacity="1" d="M 2.5 51 L 3 52.5 L 2 52.5 L 2.5 51 Z " /><path fill="rgb(133,199,202)" stroke="rgb(133,199,202)" stroke-width="1" opacity="1" d="M 0 54 L 2 54 Q 0.87 56.67 3.5 56 L 5 59 Q 8 58 7 61 L 10 61 L 10 64 Q 12.67 62.88 12 65.5 L 19.5 73 L 20 72.5 L 20.5 71 L 21 72.5 L 19.5 75 Q 18.58 73.25 16 74 Q 16.75 70.17 13.5 69 L 10 68.5 Q 12 67.5 10 66.5 Q 10.5 63.5 8.5 63 L 5 62 L 5 59 L 3 59 Q 4.13 56.33 1.5 57 L 0 54 Z " /><path fill="rgb(133,199,202)" stroke="rgb(133,199,202)" stroke-width="1" opacity="1" d="M 24.5 54 L 24.5 55 L 24.5 54 Z " /><path fill="rgb(133,199,202)" stroke="rgb(133,199,202)" stroke-width="1" opacity="1" d="M 15.5 66 L 15.5 67 L 15.5 66 Z " /><path fill="rgb(133,199,202)" stroke="rgb(133,199,202)" stroke-width="1" opacity="1" d="M 54.5 68 L 55 74.5 L 54 74.5 L 54.5 68 Z " /><path fill="rgb(133,199,202)" stroke="rgb(133,199,202)" stroke-width="1" opacity="1" d="M 21.5 74 L 24 78.5 L 23 79.5 L 22.5 85 L 22 77.5 Q 20.08 76.58 21.5 74 Z " /><path fill="rgb(133,199,202)" stroke="rgb(133,199,202)" stroke-width="1" opacity="1" d="M 56.5 77 L 56.5 78 L 56.5 77 Z " /><path fill="rgb(133,199,202)" stroke="rgb(133,199,202)" stroke-width="1" opacity="1" d="M 56.5 97 L 57 98.5 L 56 98.5 L 56.5 97 Z " /><path fill="rgb(133,199,202)" stroke="rgb(133,199,202)" stroke-width="1" opacity="1" d="M 26.5 101 L 31 101.5 L 26.5 102 L 26.5 101 Z " /><path fill="rgb(133,199,202)" stroke="rgb(133,199,202)" stroke-width="1" opacity="1" d="M 46 103 L 51 104 L 52.5 107 L 57 110.5 Q 56.25 112.75 58.5 112 L 63.5 118 L 65 118 L 65 121 L 66.5 121 L 71.5 127 L 73 127.5 L 71.5 128 Q 70.42 125.25 67 126 L 67 123.5 L 63.5 120 L 61 118.5 Q 62.13 115.17 59.5 116 L 55.5 111 L 51 110 Q 52 106.19 49.5 105 Q 44.69 106.33 46 103 Z " /><path fill="rgb(133,199,202)" stroke="rgb(133,199,202)" stroke-width="1" opacity="1" d="M 70.5 123 L 72 123.5 L 70.5 124 L 70.5 123 Z " /><path fill="rgb(128,198,200)" stroke="rgb(128,198,200)" stroke-width="1" opacity="1" d="M 0.5 42 L 3.5 44 L 5 43.5 L 4 45.5 L 7 47 Q 5.88 49.67 8.5 49 L 10 48.5 L 9 50.5 L 12 52 L 12 54 L 14 54 Q 12.88 56.67 15.5 56 L 17 59 Q 19.67 57.88 19 60.5 Q 22.4 63.1 21 70.5 L 20 70.5 L 20 64 L 15 64 L 15 60.5 L 15.5 59 L 10 59 L 10 54 L 5 54 L 5 49 L 1.5 49 L 0 47.5 L 0.5 42 Z " /><path fill="rgb(128,198,200)" stroke="rgb(128,198,200)" stroke-width="1" opacity="1" d="M 25.5 51 L 25.5 52 L 25.5 51 Z " /><path fill="rgb(128,198,200)" stroke="rgb(128,198,200)" stroke-width="1" opacity="1" d="M 23.5 52 L 23.5 53 L 23.5 52 Z " /><path fill="rgb(128,198,200)" stroke="rgb(128,198,200)" stroke-width="1" opacity="1" d="M 18.5 57 L 18.5 58 L 18.5 57 Z " /><path fill="rgb(128,198,200)" stroke="rgb(128,198,200)" stroke-width="1" opacity="1" d="M 22.5 64 Q 24.75 65.75 24 70.5 L 22.5 75 L 22.5 64 Z " /><path fill="rgb(128,198,200)" stroke="rgb(128,198,200)" stroke-width="1" opacity="1" d="M 56.5 67 L 57 68.5 L 56 68.5 L 56.5 67 Z " /><path fill="rgb(128,198,200)" stroke="rgb(128,198,200)" stroke-width="1" opacity="1" d="M 56.5 84 L 57 86.5 L 56 86.5 L 56.5 84 Z " /><path fill="rgb(128,198,200)" stroke="rgb(128,198,200)" stroke-width="1" opacity="1" d="M 36.5 101 L 52 101.5 L 36.5 102 L 36.5 101 Z " /><path fill="rgb(128,198,200)" stroke="rgb(128,198,200)" stroke-width="1" opacity="1" d="M 54.5 101 L 55 102.5 L 54 102.5 L 54.5 101 Z " /><path fill="rgb(128,198,200)" stroke="rgb(128,198,200)" stroke-width="1" opacity="1" d="M 56 102 L 58.5 103 Q 59.5 101 60.5 103 L 65 106.5 L 66.5 109 L 71 112.5 L 74 116.5 L 74 118 Q 77 117.25 78 119.5 L 78.5 123 L 79 121 L 81 121 L 81 125 L 82.5 125 L 85 127.5 L 84.5 128 L 77 128 L 77 123 L 72 123 L 72 120.5 L 71 118 L 67 118 L 67 115.5 L 66 114.5 L 66.5 113 L 62 112 L 61 108 Q 58 108.75 57 106.5 L 56 102 Z " /><path fill="rgb(124,194,196)" stroke="rgb(124,194,196)" stroke-width="1" opacity="1" d="M 26.5 26 L 36 26.5 L 26.5 27 L 26.5 26 Z " /><path fill="rgb(124,194,196)" stroke="rgb(124,194,196)" stroke-width="1" opacity="1" d="M 24.5 27 L 24.5 28 L 24.5 27 Z " /><path fill="rgb(124,194,196)" stroke="rgb(124,194,196)" stroke-width="1" opacity="1" d="M 103.5 29 L 103.5 30 L 103.5 29 Z " /><path fill="rgb(124,194,196)" stroke="rgb(124,194,196)" stroke-width="1" opacity="1" d="M 103.5 31 L 104 35.5 L 103 35.5 L 103.5 31 Z " /><path fill="rgb(124,194,196)" stroke="rgb(124,194,196)" stroke-width="1" opacity="1" d="M 0.5 32 L 5 35.5 L 7.5 39 Q 9.75 38.25 9 40.5 L 12 42 L 12 46 L 14.5 46 Q 15.75 43.75 17 46.5 L 17 51 L 20.5 51 L 20.5 54 L 16 51.5 Q 17.75 46.25 12.5 48 L 10 47 L 10 43 L 7.5 43 Q 4.25 41.83 5 38 Q 1.17 38.75 0 35.5 L 0.5 32 Z " /><path fill="rgb(124,194,196)" stroke="rgb(124,194,196)" stroke-width="1" opacity="1" d="M 54.5 46 L 54.5 47 L 54.5 46 Z " /><path fill="rgb(124,194,196)" stroke="rgb(124,194,196)" stroke-width="1" opacity="1" d="M 54.5 48 L 55 49.5 L 54 49.5 L 54.5 48 Z " /><path fill="rgb(124,194,196)" stroke="rgb(124,194,196)" stroke-width="1" opacity="1" d="M 103.5 50 L 103.5 51 L 103.5 50 Z " /><path fill="rgb(124,194,196)" stroke="rgb(124,194,196)" stroke-width="1" opacity="1" d="M 36.5 51 L 41 51.5 L 36.5 52 L 36.5 51 Z " /><path fill="rgb(124,194,196)" stroke="rgb(124,194,196)" stroke-width="1" opacity="1" d="M 53.5 53 L 53.5 54 L 53.5 53 Z " /><path fill="rgb(124,194,196)" stroke="rgb(124,194,196)" stroke-width="1" opacity="1" d="M 56.5 54 L 57 60.5 L 56 60.5 L 56.5 54 Z " /><path fill="rgb(124,194,196)" stroke="rgb(124,194,196)" stroke-width="1" opacity="1" d="M 22.5 55 L 24 58.5 L 22 58.5 L 21.5 61 L 21 57.5 L 22.5 55 Z " /><path fill="rgb(124,194,196)" stroke="rgb(124,194,196)" stroke-width="1" opacity="1" d="M 56.5 78 L 56.5 79 L 56.5 78 Z " /><path fill="rgb(124,194,196)" stroke="rgb(124,194,196)" stroke-width="1" opacity="1" d="M 55.5 87 L 56 89.5 L 55 89.5 L 55.5 87 Z " /><path fill="rgb(124,194,196)" stroke="rgb(124,194,196)" stroke-width="1" opacity="1" d="M 103.5 97 L 104 99.5 L 103 99.5 L 103.5 97 Z " /><path fill="rgb(124,194,196)" stroke="rgb(124,194,196)" stroke-width="1" opacity="1" d="M 52.5 101 L 52.5 102 L 52.5 101 Z " /><path fill="rgb(124,194,196)" stroke="rgb(124,194,196)" stroke-width="1" opacity="1" d="M 58.5 101 L 58.5 102 L 58.5 101 Z " /><path fill="rgb(124,194,196)" stroke="rgb(124,194,196)" stroke-width="1" opacity="1" d="M 60.5 101 L 60.5 102 L 60.5 101 Z " /><path fill="rgb(124,194,196)" stroke="rgb(124,194,196)" stroke-width="1" opacity="1" d="M 67.5 103 Q 72.75 101.25 71 106.5 L 70 106.5 L 68.5 104 Q 66.12 103.87 67.5 103 Z " /><path fill="rgb(124,194,196)" stroke="rgb(124,194,196)" stroke-width="1" opacity="1" d="M 72.5 108 L 77 108 L 77 112 L 74 110.5 Q 74.75 108.25 72.5 109 L 72.5 108 Z " /><path fill="rgb(124,194,196)" stroke="rgb(124,194,196)" stroke-width="1" opacity="1" d="M 77.5 113 L 82 113 L 82 118 L 84.5 118 Q 87.75 119.17 87 123 L 92 123 L 92 127.5 Q 91 129 90 126.5 Q 90.75 124.25 88.5 125 Q 87.5 122.5 85 123 L 85 120 L 83.5 120 L 81 119 L 78.5 114 Q 76.13 113.87 77.5 113 Z " /><path fill="rgb(177,215,218)" stroke="rgb(177,215,218)" stroke-width="1" opacity="1" d="M 84.5 55 L 84.5 56 L 84.5 55 Z " /><path fill="rgb(177,215,218)" stroke="rgb(177,215,218)" stroke-width="1" opacity="1" d="M 86.5 55 L 86.5 56 L 86.5 55 Z " /><path fill="rgb(177,215,218)" stroke="rgb(177,215,218)" stroke-width="1" opacity="1" d="M 84.5 77 L 84.5 79 Q 86.75 79.75 86 77.5 L 87 77.5 L 85.5 80 L 83 78.5 L 84.5 77 Z " /><path fill="rgb(177,215,218)" stroke="rgb(177,215,218)" stroke-width="1" opacity="1" d="M 60.5 80 L 61 91.5 L 60 91.5 L 60.5 80 Z " /><path fill="rgb(177,215,218)" stroke="rgb(177,215,218)" stroke-width="1" opacity="1" d="M 62.5 97 L 103 97.5 L 62.5 98 L 62.5 97 Z " /><path fill="rgb(177,215,218)" stroke="rgb(177,215,218)" stroke-width="1" opacity="1" d="M 58 98 L 62 99.5 L 58 100 L 58 98 Z " /><path fill="rgb(171,216,217)" stroke="rgb(171,216,217)" stroke-width="1" opacity="1" d="M 85.5 55 L 85.5 56 L 85.5 55 Z " /><path fill="rgb(171,216,217)" stroke="rgb(171,216,217)" stroke-width="1" opacity="1" d="M 85.5 77 L 85.5 78 L 85.5 77 Z " /><path fill="rgb(171,216,217)" stroke="rgb(171,216,217)" stroke-width="1" opacity="1" d="M 57.5 80 L 59 81.5 L 59 91.5 L 58 92.5 L 57.5 100 L 57 82.5 L 58 81.5 L 57.5 80 Z " /><path fill="rgb(171,216,217)" stroke="rgb(171,216,217)" stroke-width="1" opacity="1" d="M 61.5 80 L 83.5 80 L 85 81.5 L 83.5 81 L 61.5 81 L 61.5 80 Z " /><path fill="rgb(171,216,217)" stroke="rgb(171,216,217)" stroke-width="1" opacity="1" d="M 62.5 98 L 102.5 98 L 103 99.5 L 101.5 99 L 62.5 99 L 62.5 98 Z " /><path fill="rgb(130,196,197)" stroke="rgb(130,196,197)" stroke-width="1" opacity="1" d="M 25.5 26 L 25.5 27 L 25.5 26 Z " /><path fill="rgb(130,196,197)" stroke="rgb(130,196,197)" stroke-width="1" opacity="1" d="M 53.5 26 L 53.5 27 L 53.5 26 Z " /><path fill="rgb(130,196,197)" stroke="rgb(130,196,197)" stroke-width="1" opacity="1" d="M 103.5 28 L 103.5 29 L 103.5 28 Z " /><path fill="rgb(130,196,197)" stroke="rgb(130,196,197)" stroke-width="1" opacity="1" d="M 24.5 36 L 25 46.5 L 24 46.5 L 24.5 36 Z " /><path fill="rgb(130,196,197)" stroke="rgb(130,196,197)" stroke-width="1" opacity="1" d="M 103.5 41 L 104 45.5 L 103 45.5 L 103.5 41 Z " /><path fill="rgb(130,196,197)" stroke="rgb(130,196,197)" stroke-width="1" opacity="1" d="M 103.5 47 L 104 48.5 L 103 48.5 L 103.5 47 Z " /><path fill="rgb(130,196,197)" stroke="rgb(130,196,197)" stroke-width="1" opacity="1" d="M 26.5 51 L 31 51.5 L 26.5 52 L 26.5 51 Z " /><path fill="rgb(130,196,197)" stroke="rgb(130,196,197)" stroke-width="1" opacity="1" d="M 25.5 53 L 25.5 54 L 25.5 53 Z " /><path fill="rgb(130,196,197)" stroke="rgb(130,196,197)" stroke-width="1" opacity="1" d="M 21.5 61 L 22 70.5 L 21 70.5 L 21.5 61 Z " /><path fill="rgb(130,196,197)" stroke="rgb(130,196,197)" stroke-width="1" opacity="1" d="M 56.5 69 L 57 75.5 L 56 75.5 L 56.5 69 Z " /><path fill="rgb(130,196,197)" stroke="rgb(130,196,197)" stroke-width="1" opacity="1" d="M 56.5 92 L 57 94.5 L 56 94.5 L 56.5 92 Z " /><path fill="rgb(130,196,197)" stroke="rgb(130,196,197)" stroke-width="1" opacity="1" d="M 53.5 101 L 53.5 102 L 53.5 101 Z " /><path fill="rgb(174,214,219)" stroke="rgb(174,214,219)" stroke-width="1" opacity="1" d="M 102.5 55 L 102.5 56 L 102.5 55 Z " /><path fill="rgb(174,214,219)" stroke="rgb(174,214,219)" stroke-width="1" opacity="1" d="M 85 56 L 87 56.5 L 86 57.5 L 85.5 77 L 85 56 Z " /><path fill="rgb(174,214,219)" stroke="rgb(174,214,219)" stroke-width="1" opacity="1" d="M 59.5 80 L 60 91.5 L 61 92.5 Q 60.33 96.67 62 98.5 L 61.5 99 L 59 96.5 L 59.5 80 Z " /><path fill="rgb(174,214,219)" stroke="rgb(174,214,219)" stroke-width="1" opacity="1" d="M 85.5 81 L 85.5 82 L 85.5 81 Z " /><path fill="rgb(174,215,217)" stroke="rgb(174,215,217)" stroke-width="1" opacity="1" d="M 87.5 55 L 102 55.5 L 87.5 56 L 87.5 55 Z " /><path fill="rgb(174,215,217)" stroke="rgb(174,215,217)" stroke-width="1" opacity="1" d="M 62.5 79 L 82 79.5 L 62.5 80 L 62.5 79 Z " /><path fill="rgb(174,215,217)" stroke="rgb(174,215,217)" stroke-width="1" opacity="1" d="M 83.5 79 L 83.5 80 L 83.5 79 Z " /><path fill="rgb(174,215,217)" stroke="rgb(174,215,217)" stroke-width="1" opacity="1" d="M 83.5 81 L 83.5 82 L 83.5 81 Z " /><path fill="rgb(174,215,217)" stroke="rgb(174,215,217)" stroke-width="1" opacity="1" d="M 58.5 92 L 59 97.5 L 58 97.5 L 58.5 92 Z " /><path fill="rgb(174,215,217)" stroke="rgb(174,215,217)" stroke-width="1" opacity="1" d="M 60.5 98 L 60.5 99 L 60.5 98 Z " /><path fill="rgb(93,178,181)" stroke="rgb(93,178,181)" stroke-width="1" opacity="1" d="M 46 0 L 53.5 0 L 54 2 L 56 2 Q 54.69 -1.33 59.5 0 Q 62.75 1.17 62 5 L 64.5 4 L 69 13 L 70.5 13 L 74 16.5 Q 73.25 18.75 75.5 18 L 82 24.5 L 81.5 25 Q 77.5 24 76.5 26 L 68.5 26 L 67 24.5 L 67 20.5 L 66 18 L 62 18 L 62 15.5 L 61 13 L 57 13 L 57 10.5 L 56 8 L 51 8 L 51 3 L 46 3 L 46 0 Z M 59 5 Q 58 7 61 7 Q 62 4 59 5 Z M 64 10 L 64 12 Q 65 14 66 13 Q 67 9 64 10 Z M 70 16 Q 68 17 71 18 L 71 18 Q 72 15 70 16 Z M 75 21 Q 74 23 77 23 Q 78 20 75 21 Z " /><path fill="rgb(93,178,181)" stroke="rgb(93,178,181)" stroke-width="1" opacity="1" d="M 70.5 9 L 70.5 10 L 70.5 9 Z " /><path fill="rgb(93,178,181)" stroke="rgb(93,178,181)" stroke-width="1" opacity="1" d="M 56.5 26 L 56.5 27 L 56.5 26 Z " /><path fill="rgb(93,178,181)" stroke="rgb(93,178,181)" stroke-width="1" opacity="1" d="M 104 46 L 107 46 L 107 51.5 L 109.5 54 L 111.5 52 L 112 52.5 L 112 54.5 L 114.5 59 L 116.5 56 L 117 60.5 L 119.5 64 L 121 64 L 121 66 Q 123.67 64.88 123 67.5 L 124.5 70 L 126.5 69 L 128 70.5 L 128 82 L 123 82 L 123 77 L 118 77 L 118 71 L 113 71 L 113 67.5 Q 111.81 65 108 66 L 107.5 64 L 106.5 66 L 106 59.5 L 107 57.5 L 105.5 54 L 104.5 57 L 102.5 53 L 101 52.5 Q 104.83 52.33 106 49.5 Q 103.5 48.5 104 46 Z M 106 47 L 106 48 L 106 47 Z M 105 52 L 104 54 L 105 54 L 105 52 Z M 116 62 L 116 63 L 116 62 Z " /><path fill="rgb(138,201,204)" stroke="rgb(138,201,204)" stroke-width="1" opacity="1" d="M 56.5 30 L 56.5 31 L 56.5 30 Z " /><path fill="rgb(138,201,204)" stroke="rgb(138,201,204)" stroke-width="1" opacity="1" d="M 56.5 41 L 57 45.5 L 56 45.5 L 56.5 41 Z " /><path fill="rgb(138,201,204)" stroke="rgb(138,201,204)" stroke-width="1" opacity="1" d="M 2.5 65 L 5 68.5 L 5 71 L 7.5 72 L 9 71.5 L 10 77 Q 14 77.25 16 80.5 L 17.5 83 L 21 84 L 21.5 90 L 23.5 84 L 24 90.5 L 23 91.5 L 22.5 96 L 20.5 90 L 19 90.5 L 19.5 89 Q 16.17 90.13 17 87.5 Q 15.25 86.58 16 84 L 10 84 L 10 79 L 5 79 L 5 76.5 L 0 71.5 L 0 66 L 2.5 65 Z " /><path fill="rgb(138,201,204)" stroke="rgb(138,201,204)" stroke-width="1" opacity="1" d="M 54.5 83 L 55 88.5 L 54 88.5 L 54.5 83 Z " /><path fill="rgb(138,201,204)" stroke="rgb(138,201,204)" stroke-width="1" opacity="1" d="M 23.5 97 L 23.5 98 L 23.5 97 Z " /><path fill="rgb(138,201,204)" stroke="rgb(138,201,204)" stroke-width="1" opacity="1" d="M 23.5 99 L 23.5 100 L 23.5 99 Z " /><path fill="rgb(138,201,204)" stroke="rgb(138,201,204)" stroke-width="1" opacity="1" d="M 56.5 99 L 56.5 100 L 56.5 99 Z " /><path fill="rgb(138,201,204)" stroke="rgb(138,201,204)" stroke-width="1" opacity="1" d="M 24.5 101 L 24.5 102 L 24.5 101 Z " /><path fill="rgb(138,201,204)" stroke="rgb(138,201,204)" stroke-width="1" opacity="1" d="M 32 102 L 37.5 102 Q 38.5 104.5 41 104 Q 40.25 107.83 43.5 109 L 46 109 L 46 112 Q 49 111 48 114 L 51 114 L 51 118 L 53.5 118 Q 56.75 119.17 56 123 L 61 125.5 L 61 128 L 57 128 Q 58.13 125.33 55.5 126 Q 54.37 124 51 125 L 51 122.5 Q 47.5 121.25 48 118 L 46.5 118 L 35 106.5 Q 36.33 101.69 33 103 L 32.5 106 L 32 102 Z " /><path fill="rgb(125,195,197)" stroke="rgb(125,195,197)" stroke-width="1" opacity="1" d="M 0.5 36 Q 1.58 38.75 5 38 Q 4.25 41.83 7.5 43 L 10 43 L 10 47 L 11.5 47 Q 12.62 49 16 48 Q 15 51.81 17.5 53 L 20 54.5 L 21 56.5 L 19.5 56 L 16 55 L 16 52 L 14.5 52 Q 13.42 49.25 10 50 Q 10.75 46.17 7.5 45 Q 3.75 46.25 5 42.5 L 1.5 39 L 0 39 L 0.5 36 Z " /><path fill="rgb(125,195,197)" stroke="rgb(125,195,197)" stroke-width="1" opacity="1" d="M 10.5 39 L 10.5 40 L 10.5 39 Z " /><path fill="rgb(125,195,197)" stroke="rgb(125,195,197)" stroke-width="1" opacity="1" d="M 16.5 45 L 16.5 46 L 16.5 45 Z " /><path fill="rgb(125,195,197)" stroke="rgb(125,195,197)" stroke-width="1" opacity="1" d="M 5.5 46 L 5.5 47 L 5.5 46 Z " /><path fill="rgb(125,195,197)" stroke="rgb(125,195,197)" stroke-width="1" opacity="1" d="M 54.5 47 L 54.5 48 L 54.5 47 Z " /><path fill="rgb(125,195,197)" stroke="rgb(125,195,197)" stroke-width="1" opacity="1" d="M 21.5 49 L 21.5 50 L 21.5 49 Z " /><path fill="rgb(125,195,197)" stroke="rgb(125,195,197)" stroke-width="1" opacity="1" d="M 10.5 51 L 10.5 52 L 10.5 51 Z " /><path fill="rgb(125,195,197)" stroke="rgb(125,195,197)" stroke-width="1" opacity="1" d="M 21.5 51 L 21.5 52 L 21.5 51 Z " /><path fill="rgb(125,195,197)" stroke="rgb(125,195,197)" stroke-width="1" opacity="1" d="M 31.5 51 L 36 51.5 L 31.5 52 L 31.5 51 Z " /><path fill="rgb(125,195,197)" stroke="rgb(125,195,197)" stroke-width="1" opacity="1" d="M 22.5 54 L 22.5 55 L 22.5 54 Z " /><path fill="rgb(125,195,197)" stroke="rgb(125,195,197)" stroke-width="1" opacity="1" d="M 54.5 54 L 54.5 55 L 54.5 54 Z " /><path fill="rgb(125,195,197)" stroke="rgb(125,195,197)" stroke-width="1" opacity="1" d="M 22.5 58 L 24 61 Q 20.48 62.13 22.5 58 Z " /><path fill="rgb(125,195,197)" stroke="rgb(125,195,197)" stroke-width="1" opacity="1" d="M 56.5 81 L 56.5 82 L 56.5 81 Z " /><path fill="rgb(125,195,197)" stroke="rgb(125,195,197)" stroke-width="1" opacity="1" d="M 55.5 90 L 56 94.5 L 55 94.5 L 55.5 90 Z " /><path fill="rgb(125,195,197)" stroke="rgb(125,195,197)" stroke-width="1" opacity="1" d="M 55.5 97 L 55.5 98 L 55.5 97 Z " /><path fill="rgb(125,195,197)" stroke="rgb(125,195,197)" stroke-width="1" opacity="1" d="M 61.5 101 L 67 101 L 67 104 L 68.5 104 L 70 107 L 72 107 L 72 109 Q 74.67 107.87 74 110.5 L 77 112 Q 75.88 114.67 78.5 114 L 81 119 L 85 120 L 85 123 L 86.5 123 Q 87.5 125.5 90 125 L 91 127.5 L 87 128 L 87 126.5 L 82.5 122 L 81 122.5 Q 82.67 117.69 78.5 119 L 76 118 Q 76.75 115 74.5 114 L 72 112.5 Q 72.75 107.75 69.5 107 L 67 107 L 67 104 L 65.5 104 L 65.5 102 L 61.5 102 L 61.5 101 Z " /><path fill="rgb(174,216,217)" stroke="rgb(174,216,217)" stroke-width="1" opacity="1" d="M 84.5 56 L 85 76.5 L 84 76.5 L 84.5 56 Z " /><path fill="rgb(174,216,217)" stroke="rgb(174,216,217)" stroke-width="1" opacity="1" d="M 87.5 56 L 103 56 L 103 97 L 61 97 L 61 81.5 L 62.5 82 L 86 81.5 L 84 80.5 L 86 79.5 L 85.5 78 L 87 78.5 L 86 76.5 L 86 57.5 L 87.5 56 Z " /><path fill="rgb(174,216,217)" stroke="rgb(174,216,217)" stroke-width="1" opacity="1" d="M 59.5 79 Q 61 80 58.5 81 Q 57 80 59.5 79 Z " /><path fill="rgb(174,216,217)" stroke="rgb(174,216,217)" stroke-width="1" opacity="1" d="M 61.5 79 L 61.5 80 L 61.5 79 Z " /><path fill="rgb(174,216,217)" stroke="rgb(174,216,217)" stroke-width="1" opacity="1" d="M 82.5 79 L 82.5 80 L 82.5 79 Z " /><path fill="rgb(174,216,217)" stroke="rgb(174,216,217)" stroke-width="1" opacity="1" d="M 59.5 97 L 59.5 98 L 59.5 97 Z " /><path fill="rgb(97,182,185)" stroke="rgb(97,182,185)" stroke-width="1" opacity="1" d="M 33 0 L 38.5 0 L 44 4.5 L 44 6 L 46 6 Q 44.88 8.67 47.5 8 Q 48.5 10.5 51 10 L 51 14 L 52.5 14 L 57 16.5 L 57 18.5 L 59.5 22 Q 62.83 20.88 62 23.5 L 62.5 25 L 60.5 26 L 59.5 25 L 58.5 26 L 57.5 25 L 56 25.5 Q 58.25 24.25 55.5 23 L 53 21.5 L 53 20 L 51 20 Q 52.12 17.33 49.5 18 L 47 13 L 44.5 13 L 41 9.5 Q 42.25 5.75 38.5 7 Q 35.25 5.83 36 2 Q 31.88 3.33 33 0 Z M 50 15 L 50 16 L 50 15 Z " /><path fill="rgb(97,182,185)" stroke="rgb(97,182,185)" stroke-width="1" opacity="1" d="M 52.5 25 L 52.5 26 L 52.5 25 Z " /><path fill="rgb(97,182,185)" stroke="rgb(97,182,185)" stroke-width="1" opacity="1" d="M 55.5 27 L 55.5 28 L 55.5 27 Z " /><path fill="rgb(97,182,185)" stroke="rgb(97,182,185)" stroke-width="1" opacity="1" d="M 104.5 50 L 104.5 51 L 104.5 50 Z " /><path fill="rgb(97,182,185)" stroke="rgb(97,182,185)" stroke-width="1" opacity="1" d="M 82.5 52 L 82.5 53 L 82.5 52 Z " /><path fill="rgb(97,182,185)" stroke="rgb(97,182,185)" stroke-width="1" opacity="1" d="M 87.5 52 L 89 52.5 L 87.5 53 L 87.5 52 Z " /><path fill="rgb(97,182,185)" stroke="rgb(97,182,185)" stroke-width="1" opacity="1" d="M 84.5 53 L 84.5 54 L 84.5 53 Z " /><path fill="rgb(97,182,185)" stroke="rgb(97,182,185)" stroke-width="1" opacity="1" d="M 104 66 Q 107 64.75 106 68.5 L 107 69.5 L 107 76.5 L 106 76.5 L 106 69.5 Q 103.5 68.5 104 66 Z " /><path fill="rgb(97,182,185)" stroke="rgb(97,182,185)" stroke-width="1" opacity="1" d="M 108 71 L 110 71 Q 108.87 73.67 111.5 73 Q 114 74.19 113 78 L 118 79 L 118 82 Q 120.67 80.88 120 83.5 L 125.5 89 L 128 89 L 128 96.5 L 126 97 Q 127.13 94.33 124.5 95 L 123 92 Q 120.33 93.13 121 90.5 L 118 89 Q 119.13 86.33 116.5 87 L 115 84 L 113 84 Q 114.13 81.33 111.5 82 L 110 79 L 108 78.5 L 108 71 Z " /><path fill="rgb(145,205,207)" stroke="rgb(145,205,207)" stroke-width="1" opacity="1" d="M 24.5 80 L 25 85.5 L 24 85.5 L 24.5 80 Z " /><path fill="rgb(145,205,207)" stroke="rgb(145,205,207)" stroke-width="1" opacity="1" d="M 0 82 Q 3.83 81.25 5 84.5 L 4 87.5 L 15 94.5 L 14 97.5 Q 15.12 100.5 18 100 L 18.5 98 L 21.5 99 L 23.5 98 L 23 99.5 L 24 100.5 L 25 102.5 L 23 103.5 Q 25.85 105.35 26 109 L 31 110 L 31 113 L 32.5 113 L 37.5 119 L 41 120 Q 40.25 123.83 43.5 125 Q 47.67 123.88 46 128 L 36 128 L 36 124.5 Q 34.81 122 31 123 Q 32 119.19 29.5 118 L 26 118 L 26 111.5 Q 24.81 109 21 110 Q 22 106.19 19.5 105 L 16 105 L 16 100 L 10 100 L 10 95 L 5 95 L 5 90.5 Q 3.81 88 0 89 L 0 82 Z M 10 92 L 10 93 L 10 92 Z M 22 100 L 20 103 L 23 103 L 22 100 Z M 31 113 L 31 114 L 31 113 Z M 36 118 L 36 119 L 36 118 Z M 39 123 Q 38 126 41 125 Q 42 122 39 123 Z " /><path fill="rgb(141,202,205)" stroke="rgb(141,202,205)" stroke-width="1" opacity="1" d="M 56.5 48 L 57 49.5 L 56 49.5 L 56.5 48 Z " /><path fill="rgb(141,202,205)" stroke="rgb(141,202,205)" stroke-width="1" opacity="1" d="M 24.5 70 L 25 73.5 L 24 73.5 L 24.5 70 Z " /><path fill="rgb(141,202,205)" stroke="rgb(141,202,205)" stroke-width="1" opacity="1" d="M 0 74 Q 3.83 73.25 5 76.5 L 4.5 78 Q 3.37 76 0 77 L 0 74 Z " /><path fill="rgb(141,202,205)" stroke="rgb(141,202,205)" stroke-width="1" opacity="1" d="M 5 79 Q 8.81 78 10 80.5 L 9.5 83 L 5 80.5 L 5 79 Z " /><path fill="rgb(141,202,205)" stroke="rgb(141,202,205)" stroke-width="1" opacity="1" d="M 10 84 L 16 85 L 16 89 L 19 89 L 19 90.5 L 20.5 93 L 22 92.5 L 22.5 97 L 23.5 94 L 24 96.5 L 22.5 99 L 20 97.5 Q 22.25 96.25 19.5 95 L 17 93.5 L 13.5 89 Q 11.25 89.75 12 87.5 Q 9.5 86.5 10 84 Z " /><path fill="rgb(141,202,205)" stroke="rgb(141,202,205)" stroke-width="1" opacity="1" d="M 23.5 91 L 23.5 92 L 23.5 91 Z " /><path fill="rgb(141,202,205)" stroke="rgb(141,202,205)" stroke-width="1" opacity="1" d="M 54.5 95 L 55 96.5 L 54 96.5 L 54.5 95 Z " /><path fill="rgb(141,202,205)" stroke="rgb(141,202,205)" stroke-width="1" opacity="1" d="M 54.5 99 L 55 100.5 L 54 100.5 L 54.5 99 Z " /><path fill="rgb(141,202,205)" stroke="rgb(141,202,205)" stroke-width="1" opacity="1" d="M 22.5 101 Q 24 102 21.5 103 Q 20 102 22.5 101 Z " /><path fill="rgb(141,202,205)" stroke="rgb(141,202,205)" stroke-width="1" opacity="1" d="M 27.5 102 Q 32.31 100.33 31 104.5 Q 32.25 107.25 33.5 105 Q 35.75 104.25 35 106.5 Q 36.75 107.42 36 110 Q 39.83 109.25 41 112.5 Q 42.33 117.31 39 116 L 39 114.5 L 35.5 111 L 33 109.5 L 32 106 L 28 105 L 27.5 102 Z " /><path fill="rgb(141,202,205)" stroke="rgb(141,202,205)" stroke-width="1" opacity="1" d="M 43.5 118 Q 47.67 116.88 46 121 Q 43.33 122.13 44 119.5 L 43.5 118 Z " /><path fill="rgb(141,202,205)" stroke="rgb(141,202,205)" stroke-width="1" opacity="1" d="M 48 123 Q 52.5 121.5 51 126 L 48 124.5 L 48 123 Z " /><path fill="rgb(141,202,205)" stroke="rgb(141,202,205)" stroke-width="1" opacity="1" d="M 51.5 127 L 51.5 128 L 51.5 127 Z " /><path fill="rgb(174,212,214)" stroke="rgb(174,212,214)" stroke-width="1" opacity="1" d="M 58.5 79 L 58.5 80 L 58.5 79 Z " /><path fill="rgb(174,212,214)" stroke="rgb(174,212,214)" stroke-width="1" opacity="1" d="M 60.5 79 L 60.5 80 L 60.5 79 Z " /><path fill="rgb(174,212,214)" stroke="rgb(174,212,214)" stroke-width="1" opacity="1" d="M 57.5 81 L 57.5 82 L 57.5 81 Z " /><path fill="rgb(174,212,214)" stroke="rgb(174,212,214)" stroke-width="1" opacity="1" d="M 100.5 99 L 102 99.5 L 100.5 100 L 100.5 99 Z " /><path fill="rgb(174,212,214)" stroke="rgb(174,212,214)" stroke-width="1" opacity="1" d="M 0.5 124 L 5 127.5 L 0 128 L 0.5 124 Z " /><path fill="rgb(176,213,216)" stroke="rgb(176,213,216)" stroke-width="1" opacity="1" d="M 84.5 78 L 84.5 79 L 84.5 78 Z " /><path fill="rgb(176,213,216)" stroke="rgb(176,213,216)" stroke-width="1" opacity="1" d="M 57.5 79 L 57.5 80 L 57.5 79 Z " /><path fill="rgb(176,213,216)" stroke="rgb(176,213,216)" stroke-width="1" opacity="1" d="M 62.5 81 L 83 81.5 L 62.5 82 L 62.5 81 Z " /><path fill="rgb(176,213,216)" stroke="rgb(176,213,216)" stroke-width="1" opacity="1" d="M 62.5 99 L 100 99.5 L 62.5 100 L 62.5 99 Z " /><path fill="rgb(104,184,187)" stroke="rgb(104,184,187)" stroke-width="1" opacity="1" d="M 18 0 L 26 0 L 26 3.5 L 27 3.5 L 27 2 L 31 2 L 31.5 9 L 32 7 L 36 7 L 36 13.5 L 38 14 L 38.5 12 L 41 13 L 41 16 L 42.5 16 Q 43.5 18.5 46 18 L 46 24 L 48 24 L 48.5 22 L 51 23 Q 52.12 25.67 49.5 25 L 48.5 26 L 40.5 26 L 37.5 22 Q 34.88 22.67 36 20 L 34 20 L 34 18.5 Q 30.25 17.25 31 13 L 28 11.5 Q 28.87 8.5 24.5 10 L 24.5 9 L 26 8.5 L 23 7 L 22.5 5 L 21.5 7 Q 18.75 5.75 21 4.5 L 19.5 2 Q 16.88 2.67 18 0 Z " /><path fill="rgb(104,184,187)" stroke="rgb(104,184,187)" stroke-width="1" opacity="1" d="M 92.5 26 L 103 26.5 L 92.5 27 L 92.5 26 Z " /><path fill="rgb(104,184,187)" stroke="rgb(104,184,187)" stroke-width="1" opacity="1" d="M 55.5 28 L 55.5 29 L 55.5 28 Z " /><path fill="rgb(104,184,187)" stroke="rgb(104,184,187)" stroke-width="1" opacity="1" d="M 55.5 34 L 56 45.5 L 55 45.5 L 55.5 34 Z " /><path fill="rgb(104,184,187)" stroke="rgb(104,184,187)" stroke-width="1" opacity="1" d="M 55.5 49 L 55.5 50 L 55.5 49 Z " /><path fill="rgb(104,184,187)" stroke="rgb(104,184,187)" stroke-width="1" opacity="1" d="M 83.5 51 L 83.5 52 L 83.5 51 Z " /><path fill="rgb(104,184,187)" stroke="rgb(104,184,187)" stroke-width="1" opacity="1" d="M 92.5 51 L 99 51.5 L 92.5 52 L 92.5 51 Z " /><path fill="rgb(104,184,187)" stroke="rgb(104,184,187)" stroke-width="1" opacity="1" d="M 57.5 52 L 57.5 53 L 57.5 52 Z " /><path fill="rgb(104,184,187)" stroke="rgb(104,184,187)" stroke-width="1" opacity="1" d="M 60.5 52 L 60.5 53 L 60.5 52 Z " /><path fill="rgb(104,184,187)" stroke="rgb(104,184,187)" stroke-width="1" opacity="1" d="M 67.5 52 L 76.5 52 L 77 54 L 66 53.5 L 67.5 52 Z " /><path fill="rgb(104,184,187)" stroke="rgb(104,184,187)" stroke-width="1" opacity="1" d="M 82.5 53 L 82.5 54 L 82.5 53 Z " /><path fill="rgb(104,184,187)" stroke="rgb(104,184,187)" stroke-width="1" opacity="1" d="M 104.5 79 L 106.5 87 L 107.5 83 L 110 84 L 111.5 87 L 113 87 L 113 89 Q 115.67 87.88 115 90.5 L 118 92 L 119.5 95 L 121 95 L 121 97 Q 123.67 95.88 123 98.5 L 126 100 L 126 102 L 128 102.5 L 128 112.5 L 127.5 113 L 125.5 111 Q 122.17 112.12 123 109.5 L 119.5 105 Q 117.25 105.75 118 103.5 L 114.5 100 L 113 100 L 113 98.5 L 109.5 95 L 106 95 L 106 89 L 104 89 L 104.5 79 Z M 120 97 L 120 98 L 120 97 Z " /><path fill="rgb(104,184,187)" stroke="rgb(104,184,187)" stroke-width="1" opacity="1" d="M 104.5 97 L 104.5 98 L 104.5 97 Z " /><path fill="rgb(104,184,187)" stroke="rgb(104,184,187)" stroke-width="1" opacity="1" d="M 106.5 97 L 108 97.5 L 106.5 98 L 106.5 97 Z " /><path fill="rgb(104,184,187)" stroke="rgb(104,184,187)" stroke-width="1" opacity="1" d="M 104.5 99 L 104.5 100 L 104.5 99 Z " /><path fill="rgb(104,184,187)" stroke="rgb(104,184,187)" stroke-width="1" opacity="1" d="M 103.5 101 L 103.5 102 L 103.5 101 Z " /><path fill="rgb(101,182,186)" stroke="rgb(101,182,186)" stroke-width="1" opacity="1" d="M 26 0 L 31 0 L 31 2 L 27 2 L 27 3.5 L 26 3.5 L 26 0 Z " /><path fill="rgb(101,182,186)" stroke="rgb(101,182,186)" stroke-width="1" opacity="1" d="M 31 3 Q 34.81 2 36 4.5 L 36 7 L 32 7 L 32 8.5 L 31 8.5 L 31 3 Z " /><path fill="rgb(101,182,186)" stroke="rgb(101,182,186)" stroke-width="1" opacity="1" d="M 36 8 L 41 8 L 41 13 L 46 13 L 46 18 L 41 16 L 41 13 L 39.5 13 L 38 12.5 Q 38.67 15.13 36 14 L 36 8 Z " /><path fill="rgb(101,182,186)" stroke="rgb(101,182,186)" stroke-width="1" opacity="1" d="M 46 21 L 51 21 L 51 23 L 48.5 22 L 48 24 Q 44.67 25.13 46 21 Z " /><path fill="rgb(101,182,186)" stroke="rgb(101,182,186)" stroke-width="1" opacity="1" d="M 53.5 25 L 53.5 26 L 53.5 25 Z " /><path fill="rgb(101,182,186)" stroke="rgb(101,182,186)" stroke-width="1" opacity="1" d="M 55.5 25 L 55.5 26 L 55.5 25 Z " /><path fill="rgb(101,182,186)" stroke="rgb(101,182,186)" stroke-width="1" opacity="1" d="M 55.5 29 L 55.5 30 L 55.5 29 Z " /><path fill="rgb(101,182,186)" stroke="rgb(101,182,186)" stroke-width="1" opacity="1" d="M 99.5 51 L 102 51.5 L 99.5 52 L 99.5 51 Z " /><path fill="rgb(101,182,186)" stroke="rgb(101,182,186)" stroke-width="1" opacity="1" d="M 86.5 52 L 87.5 53 L 92 53.5 L 86 54 L 86.5 52 Z " /><path fill="rgb(101,182,186)" stroke="rgb(101,182,186)" stroke-width="1" opacity="1" d="M 77.5 53 L 82 53.5 L 77.5 54 L 77.5 53 Z " /><path fill="rgb(101,182,186)" stroke="rgb(101,182,186)" stroke-width="1" opacity="1" d="M 104 77 Q 107.67 75.65 106 81.5 L 105 81.5 L 104 77 Z " /><path fill="rgb(101,182,186)" stroke="rgb(101,182,186)" stroke-width="1" opacity="1" d="M 107.5 79 L 108 82 L 112 82 L 112 86.5 Q 111 88 110 85.5 Q 110.75 83.25 108.5 84 Q 105.81 82.81 107.5 79 Z " /><path fill="rgb(101,182,186)" stroke="rgb(101,182,186)" stroke-width="1" opacity="1" d="M 113 87 L 118 87 L 118 92 L 123 92 L 123 97 L 128 97 L 128 102 L 126 102 Q 127.13 99.33 124.5 100 L 123 97 L 121 97 Q 122.13 94.33 119.5 95 L 118 92 L 115 90.5 Q 115.67 87.88 113 89 L 113 87 Z " /><path fill="rgb(101,182,186)" stroke="rgb(101,182,186)" stroke-width="1" opacity="1" d="M 119.5 97 L 119.5 98 L 119.5 97 Z " /><path fill="rgb(148,205,208)" stroke="rgb(148,205,208)" stroke-width="1" opacity="1" d="M 24.5 86 L 25 95.5 L 24 95.5 L 24.5 86 Z " /><path fill="rgb(148,205,208)" stroke="rgb(148,205,208)" stroke-width="1" opacity="1" d="M 0 89 Q 3.81 88 5 90.5 L 5 95 L 10 95 L 10 100 L 16 100 L 16 105 L 19.5 105 Q 22 106.19 21 110 Q 24.81 109 26 111.5 L 26 118 L 29.5 118 Q 32 119.19 31 123 Q 34.81 122 36 124.5 L 35.5 128 L 33.5 127 L 32 127.5 Q 32.5 124.5 30.5 124 L 29 123.5 L 30 121 Q 27.33 119.87 28 122.5 L 27 122.5 L 26 119 L 24 118.5 L 25 116 Q 22.33 114.88 23 117.5 L 22 117.5 L 21 114 Q 18 115.25 19 111.5 L 17.5 112 L 16 110.5 Q 16.75 108.25 14.5 109 Q 13.25 105.5 10 106 L 10 103 L 8.5 103 Q 7.5 100.5 5 101 L 5 98 Q 2 99 3 96 L 0 96 L 0 89 Z " /><path fill="rgb(148,205,208)" stroke="rgb(148,205,208)" stroke-width="1" opacity="1" d="M 24.5 97 L 24.5 98 L 24.5 97 Z " /><path fill="rgb(148,205,208)" stroke="rgb(148,205,208)" stroke-width="1" opacity="1" d="M 90.5 100 L 103 100.5 L 90.5 101 L 90.5 100 Z " /><path fill="rgb(224,241,242)" stroke="rgb(224,241,242)" stroke-width="1" opacity="1" d="M 25.5 27 L 25.5 28 L 25.5 27 Z " /><path fill="rgb(224,241,242)" stroke="rgb(224,241,242)" stroke-width="1" opacity="1" d="M 53.5 27 L 53.5 28 L 53.5 27 Z " /><path fill="rgb(224,241,242)" stroke="rgb(224,241,242)" stroke-width="1" opacity="1" d="M 25.5 50 L 25.5 51 L 25.5 50 Z " /><path fill="rgb(224,241,242)" stroke="rgb(224,241,242)" stroke-width="1" opacity="1" d="M 53.5 50 L 53.5 51 L 53.5 50 Z " /><path fill="rgb(224,241,242)" stroke="rgb(224,241,242)" stroke-width="1" opacity="1" d="M 58.5 50 L 58.5 51 L 58.5 50 Z " /><path fill="rgb(224,241,242)" stroke="rgb(224,241,242)" stroke-width="1" opacity="1" d="M 87.5 50 L 103 50.5 L 87.5 51 L 87.5 50 Z " /><path fill="rgb(224,241,242)" stroke="rgb(224,241,242)" stroke-width="1" opacity="1" d="M 25.5 54 L 53 54.5 L 25.5 55 L 25.5 54 Z " /><path fill="rgb(224,241,242)" stroke="rgb(224,241,242)" stroke-width="1" opacity="1" d="M 57.5 54 L 82.5 54 L 84 55.5 L 83.5 78 L 83 55 L 57.5 55 L 57.5 54 Z " /><path fill="rgb(224,241,242)" stroke="rgb(224,241,242)" stroke-width="1" opacity="1" d="M 25.5 100 L 52 100.5 L 25.5 101 L 25.5 100 Z " /><path fill="rgb(200,228,227)" stroke="rgb(200,228,227)" stroke-width="1" opacity="1" d="M 53.5 54 L 53.5 55 L 53.5 54 Z " /><path fill="rgb(200,228,227)" stroke="rgb(200,228,227)" stroke-width="1" opacity="1" d="M 83.5 54 L 83.5 55 L 83.5 54 Z " /><path fill="rgb(200,228,227)" stroke="rgb(200,228,227)" stroke-width="1" opacity="1" d="M 57.5 78 L 83 78.5 L 57.5 79 L 57.5 78 Z " /><path fill="rgb(200,228,227)" stroke="rgb(200,228,227)" stroke-width="1" opacity="1" d="M 52.5 100 L 54 100.5 L 52.5 101 L 52.5 100 Z " /><path fill="rgb(131,198,200)" stroke="rgb(131,198,200)" stroke-width="1" opacity="1" d="M 56.5 28 L 56.5 29 L 56.5 28 Z " /><path fill="rgb(131,198,200)" stroke="rgb(131,198,200)" stroke-width="1" opacity="1" d="M 103.5 46 L 103.5 47 L 103.5 46 Z " /><path fill="rgb(131,198,200)" stroke="rgb(131,198,200)" stroke-width="1" opacity="1" d="M 0.5 48 Q 1.75 51.5 5 51 L 5 54 L 6.5 54 Q 9.75 55.17 9 59 L 12 59 Q 11 62 14 61 L 14 64 L 17 64 Q 16 67 19 66 L 19 68.5 L 21 74.5 L 20 74.5 L 12 65.5 L 12 64 L 10 63.5 Q 12.25 62.25 9.5 61 L 7 61 L 7 59 Q 4.33 60.13 5 57.5 L 2 56 L 2 54 L 0 53.5 L 0.5 48 Z M 3 51 L 2 53 L 3 53 L 3 51 Z M 16 66 L 16 67 L 16 66 Z " /><path fill="rgb(131,198,200)" stroke="rgb(131,198,200)" stroke-width="1" opacity="1" d="M 24.5 48 L 24.5 49 L 24.5 48 Z " /><path fill="rgb(131,198,200)" stroke="rgb(131,198,200)" stroke-width="1" opacity="1" d="M 103.5 49 L 103.5 50 L 103.5 49 Z " /><path fill="rgb(131,198,200)" stroke="rgb(131,198,200)" stroke-width="1" opacity="1" d="M 24.5 50 L 24.5 51 L 24.5 50 Z " /><path fill="rgb(131,198,200)" stroke="rgb(131,198,200)" stroke-width="1" opacity="1" d="M 15.5 59 L 15.5 60 L 15.5 59 Z " /><path fill="rgb(131,198,200)" stroke="rgb(131,198,200)" stroke-width="1" opacity="1" d="M 54.5 66 L 55 67.5 L 54 67.5 L 54.5 66 Z " /><path fill="rgb(131,198,200)" stroke="rgb(131,198,200)" stroke-width="1" opacity="1" d="M 23.5 71 L 24 76.5 L 23 76.5 L 23.5 71 Z " /><path fill="rgb(131,198,200)" stroke="rgb(131,198,200)" stroke-width="1" opacity="1" d="M 56.5 76 L 56.5 77 L 56.5 76 Z " /><path fill="rgb(131,198,200)" stroke="rgb(131,198,200)" stroke-width="1" opacity="1" d="M 21.5 82 L 21.5 83 L 21.5 82 Z " /><path fill="rgb(131,198,200)" stroke="rgb(131,198,200)" stroke-width="1" opacity="1" d="M 56.5 95 L 57 96.5 L 56 96.5 L 56.5 95 Z " /><path fill="rgb(131,198,200)" stroke="rgb(131,198,200)" stroke-width="1" opacity="1" d="M 56.5 100 L 56.5 101 L 56.5 100 Z " /><path fill="rgb(131,198,200)" stroke="rgb(131,198,200)" stroke-width="1" opacity="1" d="M 31.5 101 L 36 101.5 L 31.5 102 L 31.5 101 Z " /><path fill="rgb(131,198,200)" stroke="rgb(131,198,200)" stroke-width="1" opacity="1" d="M 49 102 L 51.5 103 Q 52.5 101 53.5 103 L 57 105.5 L 58.5 108 L 62 110.5 Q 61.25 112.75 63.5 112 L 67 115.5 L 67 118 Q 70.83 117.25 72 120.5 L 72 123 L 75 123 Q 74 126 77 125 L 77 128 Q 70.5 128.25 68 123.5 L 66.5 121 L 65 121 L 65 118 L 63.5 118 L 58.5 112 Q 56.25 112.75 57 110.5 L 51 105.5 Q 51.67 102.88 49 104 L 49 102 Z M 71 123 L 71 124 L 72 124 L 71 123 Z " /><path fill="rgb(107,186,190)" stroke="rgb(107,186,190)" stroke-width="1" opacity="1" d="M 1 0 Q 4 -1 3 2 Q 0 3 1 0 Z " /><path fill="rgb(107,186,190)" stroke="rgb(107,186,190)" stroke-width="1" opacity="1" d="M 7 0 L 17.5 0 L 18 2 L 19.5 2 L 21 4.5 Q 18.75 5.75 21.5 7 L 22.5 5 L 23 7 L 26 8.5 L 24 9.5 L 28 10 L 29.5 13 Q 32.13 12.17 31 15.5 Q 34.5 16.75 34 20 L 36 20 Q 34.88 22.67 37.5 22 L 40 25.5 L 25.5 26 L 25.5 25 L 31 24.5 L 28 23 L 26.5 20 L 25 20 L 25 18 Q 22.33 19.13 23 16.5 L 20 15 Q 21.13 12.33 18.5 13 L 13.5 7 L 12 7 L 12 5 Q 9.33 6.13 10 3.5 L 7 2 L 7 0 Z " /><path fill="rgb(107,186,190)" stroke="rgb(107,186,190)" stroke-width="1" opacity="1" d="M 5.5 5 Q 8.83 3.88 8 6.5 L 6.5 6 Q 4.13 5.87 5.5 5 Z " /><path fill="rgb(107,186,190)" stroke="rgb(107,186,190)" stroke-width="1" opacity="1" d="M 11.5 10 Q 14.13 9.17 13 12.5 L 12 12.5 L 11.5 10 Z " /><path fill="rgb(107,186,190)" stroke="rgb(107,186,190)" stroke-width="1" opacity="1" d="M 16.5 15 Q 19.13 14.17 18 17.5 L 17 17.5 L 16.5 15 Z " /><path fill="rgb(107,186,190)" stroke="rgb(107,186,190)" stroke-width="1" opacity="1" d="M 58.5 26 L 58.5 27 L 58.5 26 Z " /><path fill="rgb(107,186,190)" stroke="rgb(107,186,190)" stroke-width="1" opacity="1" d="M 82.5 26 L 92 26.5 L 82.5 27 L 82.5 26 Z " /><path fill="rgb(107,186,190)" stroke="rgb(107,186,190)" stroke-width="1" opacity="1" d="M 55.5 46 L 56 47.5 L 55 47.5 L 55.5 46 Z " /><path fill="rgb(107,186,190)" stroke="rgb(107,186,190)" stroke-width="1" opacity="1" d="M 55.5 50 L 57 53.5 L 55.5 56 L 53.5 53 L 52 52.5 L 53.5 52 L 55 52.5 L 55.5 50 Z M 56 53 L 56 54 L 56 53 Z " /><path fill="rgb(107,186,190)" stroke="rgb(107,186,190)" stroke-width="1" opacity="1" d="M 77.5 51 L 83 51.5 L 77.5 52 L 77.5 51 Z " /><path fill="rgb(107,186,190)" stroke="rgb(107,186,190)" stroke-width="1" opacity="1" d="M 84.5 51 L 92 51.5 L 84.5 52 L 84.5 51 Z " /><path fill="rgb(107,186,190)" stroke="rgb(107,186,190)" stroke-width="1" opacity="1" d="M 58.5 52 L 58.5 53 L 58.5 52 Z " /><path fill="rgb(107,186,190)" stroke="rgb(107,186,190)" stroke-width="1" opacity="1" d="M 61.5 52 L 67 52.5 Q 66.25 54.75 62.5 54 Q 60 53 61.5 52 Z " /><path fill="rgb(107,186,190)" stroke="rgb(107,186,190)" stroke-width="1" opacity="1" d="M 83.5 53 L 83.5 54 L 83.5 53 Z " /><path fill="rgb(107,186,190)" stroke="rgb(107,186,190)" stroke-width="1" opacity="1" d="M 103.5 54 L 103.5 55 L 103.5 54 Z " /><path fill="rgb(107,186,190)" stroke="rgb(107,186,190)" stroke-width="1" opacity="1" d="M 104 89 L 106 89 L 106 95 L 109.5 95 L 113 98.5 L 113 100 L 114.5 100 L 118 103.5 Q 117.25 105.75 119.5 105 Q 122.75 107 123 111 Q 126.83 110.25 128 113.5 L 127.5 125 L 123.5 119 L 122 119.5 Q 121.38 115.63 118.5 114 L 117 114.5 L 117 112 Q 114 113 115 110 L 112 110 L 112 107 L 110 107 Q 111.13 104.33 108.5 105 L 104 101.5 L 105 99.5 L 104.5 98 Q 105.5 100 106.5 98 L 108 97.5 L 104 97 L 104 89 Z M 107 101 L 107 102 L 108 102 L 107 101 Z " /><path fill="rgb(107,186,190)" stroke="rgb(107,186,190)" stroke-width="1" opacity="1" d="M 99.5 101 L 103 101.5 L 99.5 102 L 99.5 101 Z " /><path fill="rgb(107,186,190)" stroke="rgb(107,186,190)" stroke-width="1" opacity="1" d="M 108.5 108 L 108.5 109 L 108.5 108 Z " /><path fill="rgb(107,186,190)" stroke="rgb(107,186,190)" stroke-width="1" opacity="1" d="M 122.5 123 L 122.5 124 L 122.5 123 Z " /><path fill="rgb(157,209,212)" stroke="rgb(157,209,212)" stroke-width="1" opacity="1" d="M 84.5 54 L 84.5 55 L 84.5 54 Z " /><path fill="rgb(157,209,212)" stroke="rgb(157,209,212)" stroke-width="1" opacity="1" d="M 86.5 54 L 96 54.5 L 86.5 55 L 86.5 54 Z " /><path fill="rgb(157,209,212)" stroke="rgb(157,209,212)" stroke-width="1" opacity="1" d="M 97.5 54 L 101 54.5 L 97.5 55 L 97.5 54 Z " /><path fill="rgb(157,209,212)" stroke="rgb(157,209,212)" stroke-width="1" opacity="1" d="M 57.5 100 L 72 100.5 L 57.5 101 L 57.5 100 Z " /><path fill="rgb(157,209,212)" stroke="rgb(157,209,212)" stroke-width="1" opacity="1" d="M 0.5 107 L 1.5 111 L 2 109 Q 4.67 107.87 4 110.5 Q 6.5 111.5 6 114 L 9 114 L 9 115.5 L 12.5 121 L 13.5 119 L 14.5 121 L 16 120.5 Q 14 121.5 16 122.5 Q 15.5 125.5 17.5 126 Q 18.75 123.75 20 126.5 L 19.5 128 L 5.5 128 L 0 123.5 L 0.5 107 Z " /><path fill="rgb(157,209,212)" stroke="rgb(157,209,212)" stroke-width="1" opacity="1" d="M 21 126 Q 24 125.25 25 127.5 L 21 128 L 21 126 Z " /><path fill="rgb(152,207,210)" stroke="rgb(152,207,210)" stroke-width="1" opacity="1" d="M 85.5 54 L 85.5 55 L 85.5 54 Z " /><path fill="rgb(152,207,210)" stroke="rgb(152,207,210)" stroke-width="1" opacity="1" d="M 96.5 54 L 96.5 55 L 96.5 54 Z " /><path fill="rgb(152,207,210)" stroke="rgb(152,207,210)" stroke-width="1" opacity="1" d="M 101.5 54 L 103 54.5 L 101.5 55 L 101.5 54 Z " /><path fill="rgb(152,207,210)" stroke="rgb(152,207,210)" stroke-width="1" opacity="1" d="M 0 96 L 3 96 Q 2 99 5 98 L 5 101 L 6.5 101 Q 7.5 103.5 10 103 L 10 106 L 11.5 106 Q 12.75 109.5 16 109 L 17.5 112 L 19 111.5 L 19 114 Q 21.67 112.88 21 115.5 L 22.5 118 L 23 116 Q 25.67 114.88 25 117.5 L 24.5 119 Q 26.75 118.25 26 120.5 L 27.5 123 L 28 121 Q 30.67 119.87 30 122.5 L 29.5 124 L 32 125.5 L 32 128 L 25.5 128 Q 24.42 125.25 21 126 L 20.5 128 L 18.5 125 Q 17.25 127.25 16 124.5 L 16 122.5 L 13.5 119 L 12.5 121 L 9 114 L 6 114 L 6 112.5 Q 3.5 111.5 4 109 Q 1.33 107.87 2 110.5 L 1 110.5 Q 1.75 107.25 0 106.5 L 0 96 Z M 16 120 L 16 121 L 16 120 Z " /><path fill="rgb(152,207,210)" stroke="rgb(152,207,210)" stroke-width="1" opacity="1" d="M 24.5 96 L 24.5 97 L 24.5 96 Z " /><path fill="rgb(152,207,210)" stroke="rgb(152,207,210)" stroke-width="1" opacity="1" d="M 24.5 98 L 25 100.5 L 24 100.5 L 24.5 98 Z " /><path fill="rgb(152,207,210)" stroke="rgb(152,207,210)" stroke-width="1" opacity="1" d="M 72.5 100 L 90 100.5 L 72.5 101 L 72.5 100 Z " /><path fill="rgb(152,207,210)" stroke="rgb(152,207,210)" stroke-width="1" opacity="1" d="M 33.5 127 L 35 127.5 L 33.5 128 L 33.5 127 Z " /><path fill="rgb(143,203,206)" stroke="rgb(143,203,206)" stroke-width="1" opacity="1" d="M 56.5 47 L 56.5 48 L 56.5 47 Z " /><path fill="rgb(143,203,206)" stroke="rgb(143,203,206)" stroke-width="1" opacity="1" d="M 24.5 74 L 25 79.5 L 24 79.5 L 24.5 74 Z " /><path fill="rgb(143,203,206)" stroke="rgb(143,203,206)" stroke-width="1" opacity="1" d="M 0 77 Q 3.81 76 5 78.5 Q 4.5 81.5 6.5 82 Q 9.5 81.5 10 83.5 L 10 85.5 Q 12.5 86.5 12 89 L 13.5 89 L 17 92.5 L 18.5 95 L 21 96.5 L 19.5 99 L 18 98.5 Q 18.75 100.75 16.5 100 L 14 97.5 L 15 96.5 Q 15.5 93.5 13.5 93 L 10.5 92 L 9 92.5 L 9.5 91 L 4 87.5 L 5 84.5 Q 3.83 81.25 0 82 L 0 77 Z " /><path fill="rgb(143,203,206)" stroke="rgb(143,203,206)" stroke-width="1" opacity="1" d="M 54.5 97 L 55 98.5 L 54 98.5 L 54.5 97 Z " /><path fill="rgb(143,203,206)" stroke="rgb(143,203,206)" stroke-width="1" opacity="1" d="M 20.5 102 L 20.5 103 L 20.5 102 Z " /><path fill="rgb(143,203,206)" stroke="rgb(143,203,206)" stroke-width="1" opacity="1" d="M 22.5 102 L 24.5 103 L 26.5 102 L 28 105 L 32 106 L 34.5 111 L 39 114.5 L 39 116 L 41 116 Q 39.88 118.67 42.5 118 L 44 121 L 46 121 L 46 123 Q 48.67 121.88 48 124.5 L 51 126 L 51 128 L 46 128 Q 47.67 123.87 43.5 125 L 41.5 123 L 41 123.5 Q 41.67 126.12 39 125 Q 38 122 41 123 L 41 120 L 36.5 118 L 35 118.5 L 36 116.5 L 31.5 113 L 30 113.5 Q 31.75 112.58 31 110 L 26 109 Q 25.65 104.65 22 102.5 L 22.5 102 Z " /><path fill="rgb(139,202,204)" stroke="rgb(139,202,204)" stroke-width="1" opacity="1" d="M 56.5 46 L 56.5 47 L 56.5 46 Z " /><path fill="rgb(139,202,204)" stroke="rgb(139,202,204)" stroke-width="1" opacity="1" d="M 24.5 61 L 25 69.5 L 24 69.5 L 24.5 61 Z " /><path fill="rgb(139,202,204)" stroke="rgb(139,202,204)" stroke-width="1" opacity="1" d="M 0.5 72 Q 3 73 1.5 74 Q -1.29 74.67 0.5 72 Z " /><path fill="rgb(139,202,204)" stroke="rgb(139,202,204)" stroke-width="1" opacity="1" d="M 9.5 79 L 9.5 80 L 9.5 79 Z " /><path fill="rgb(139,202,204)" stroke="rgb(139,202,204)" stroke-width="1" opacity="1" d="M 14.5 84 L 16 84.5 L 14.5 85 L 14.5 84 Z " /><path fill="rgb(139,202,204)" stroke="rgb(139,202,204)" stroke-width="1" opacity="1" d="M 16.5 87 L 17 88.5 L 16 88.5 L 16.5 87 Z " /><path fill="rgb(139,202,204)" stroke="rgb(139,202,204)" stroke-width="1" opacity="1" d="M 19.5 89 Q 21.5 89.5 21 92.5 L 20 92.5 L 19.5 89 Z " /><path fill="rgb(139,202,204)" stroke="rgb(139,202,204)" stroke-width="1" opacity="1" d="M 54.5 89 L 55 94.5 L 54 94.5 L 54.5 89 Z " /><path fill="rgb(139,202,204)" stroke="rgb(139,202,204)" stroke-width="1" opacity="1" d="M 23.5 92 L 24 93.5 L 23 93.5 L 23.5 92 Z " /><path fill="rgb(139,202,204)" stroke="rgb(139,202,204)" stroke-width="1" opacity="1" d="M 22.5 96 L 22.5 97 L 22.5 96 Z " /><path fill="rgb(139,202,204)" stroke="rgb(139,202,204)" stroke-width="1" opacity="1" d="M 21.5 98 L 21.5 99 L 21.5 98 Z " /><path fill="rgb(139,202,204)" stroke="rgb(139,202,204)" stroke-width="1" opacity="1" d="M 21.5 100 L 22 101.5 L 21 101.5 L 21.5 100 Z " /><path fill="rgb(139,202,204)" stroke="rgb(139,202,204)" stroke-width="1" opacity="1" d="M 25.5 101 L 25.5 102 L 25.5 101 Z " /><path fill="rgb(139,202,204)" stroke="rgb(139,202,204)" stroke-width="1" opacity="1" d="M 31.5 102 L 32 104.5 L 31 104.5 L 31.5 102 Z " /><path fill="rgb(139,202,204)" stroke="rgb(139,202,204)" stroke-width="1" opacity="1" d="M 33 103 Q 36 102 35 105 Q 32 106 33 103 Z " /><path fill="rgb(139,202,204)" stroke="rgb(139,202,204)" stroke-width="1" opacity="1" d="M 36.5 108 Q 39 109 37.5 110 Q 34.71 110.67 36.5 108 Z " /><path fill="rgb(139,202,204)" stroke="rgb(139,202,204)" stroke-width="1" opacity="1" d="M 41.5 113 L 46.5 118 L 48 118 Q 47.5 121.25 51 122.5 L 46 123 L 46 118 L 41 118 L 41.5 113 Z " /><path fill="rgb(139,202,204)" stroke="rgb(139,202,204)" stroke-width="1" opacity="1" d="M 51 125 L 57 126 Q 58.35 129.67 52.5 128 L 51 125 Z " /><path fill="rgb(134,199,204)" stroke="rgb(134,199,204)" stroke-width="1" opacity="1" d="M 0.5 56 L 3 57 Q 2 60 5 59 L 5 62 L 6.5 62 L 10 64.5 L 11 67.5 L 10.5 69 Q 15.25 68.25 16 71.5 Q 14.75 75.25 18.5 74 L 21 75 L 21 82 L 18 82 L 18 77 L 13 77 L 13 71 L 8 71 L 8 66 L 3 66 L 3 61 L 0 61 L 0.5 56 Z " /><path fill="rgb(134,199,204)" stroke="rgb(134,199,204)" stroke-width="1" opacity="1" d="M 23.5 79 L 24 81.5 L 23 81.5 L 23.5 79 Z " /><path fill="rgb(134,199,204)" stroke="rgb(134,199,204)" stroke-width="1" opacity="1" d="M 23.5 83 L 23.5 84 L 23.5 83 Z " /><path fill="rgb(134,199,204)" stroke="rgb(134,199,204)" stroke-width="1" opacity="1" d="M 55.5 99 L 55.5 100 L 55.5 99 Z " /><path fill="rgb(134,199,204)" stroke="rgb(134,199,204)" stroke-width="1" opacity="1" d="M 41.5 102 L 49 102.5 L 46 103 Q 44.69 106.33 49.5 105 Q 52 106.19 51 110 Q 55.88 109.92 58 113.5 L 59.5 116 Q 62.13 115.17 61 118.5 L 67 123.5 Q 65.75 127.25 69.5 126 Q 72 127 70.5 128 L 67.5 128 L 65 127 L 65 125.5 L 57.5 118 Q 54.17 119.13 55 116.5 Q 53.88 113.5 51 114 Q 52 111 49 112 L 49 107 L 44 107 L 44 103 L 41.5 103 L 41.5 102 Z " /><path fill="rgb(134,199,204)" stroke="rgb(134,199,204)" stroke-width="1" opacity="1" d="M 51.5 102 L 51.5 103 L 51.5 102 Z " /><path fill="rgb(126,196,198)" stroke="rgb(126,196,198)" stroke-width="1" opacity="1" d="M 24.5 29 L 25 30.5 L 24 30.5 L 24.5 29 Z " /><path fill="rgb(126,196,198)" stroke="rgb(126,196,198)" stroke-width="1" opacity="1" d="M 103.5 30 L 103.5 31 L 103.5 30 Z " /><path fill="rgb(126,196,198)" stroke="rgb(126,196,198)" stroke-width="1" opacity="1" d="M 0 39 L 1.5 39 L 5 42.5 L 2.5 44 Q -0.75 42.83 0 39 Z " /><path fill="rgb(126,196,198)" stroke="rgb(126,196,198)" stroke-width="1" opacity="1" d="M 4.5 45 Q 9.25 44.25 10 47.5 L 7 49 L 5.5 46 Q 3.12 45.87 4.5 45 Z " /><path fill="rgb(126,196,198)" stroke="rgb(126,196,198)" stroke-width="1" opacity="1" d="M 9.5 50 L 12.5 50 Q 13.5 52.5 16 52 L 16 55 L 17.5 55 L 21 57.5 L 20.5 63 L 19 59 Q 16.33 60.13 17 57.5 L 14 56 L 14 54 Q 11.33 55.13 12 52.5 L 9 50.5 L 9.5 50 Z M 19 57 L 19 58 L 19 57 Z " /><path fill="rgb(126,196,198)" stroke="rgb(126,196,198)" stroke-width="1" opacity="1" d="M 21.5 50 L 21.5 51 L 21.5 50 Z " /><path fill="rgb(126,196,198)" stroke="rgb(126,196,198)" stroke-width="1" opacity="1" d="M 21.5 52 L 21.5 53 L 21.5 52 Z " /><path fill="rgb(126,196,198)" stroke="rgb(126,196,198)" stroke-width="1" opacity="1" d="M 20.5 54 L 20.5 55 L 20.5 54 Z " /><path fill="rgb(126,196,198)" stroke="rgb(126,196,198)" stroke-width="1" opacity="1" d="M 54.5 57 L 55 58.5 L 54 58.5 L 54.5 57 Z " /><path fill="rgb(126,196,198)" stroke="rgb(126,196,198)" stroke-width="1" opacity="1" d="M 22 61 Q 25.33 59.69 24 64.5 Q 23 66 22 63.5 L 22 61 Z " /><path fill="rgb(126,196,198)" stroke="rgb(126,196,198)" stroke-width="1" opacity="1" d="M 56.5 61 L 57 66.5 L 56 66.5 L 56.5 61 Z " /><path fill="rgb(126,196,198)" stroke="rgb(126,196,198)" stroke-width="1" opacity="1" d="M 56.5 80 L 56.5 81 L 56.5 80 Z " /><path fill="rgb(126,196,198)" stroke="rgb(126,196,198)" stroke-width="1" opacity="1" d="M 56.5 82 L 57 83.5 L 56 83.5 L 56.5 82 Z " /><path fill="rgb(126,196,198)" stroke="rgb(126,196,198)" stroke-width="1" opacity="1" d="M 56.5 87 L 57 91.5 L 56 91.5 L 56.5 87 Z " /><path fill="rgb(126,196,198)" stroke="rgb(126,196,198)" stroke-width="1" opacity="1" d="M 55.5 95 L 56 96.5 L 55 96.5 L 55.5 95 Z " /><path fill="rgb(126,196,198)" stroke="rgb(126,196,198)" stroke-width="1" opacity="1" d="M 55.5 98 L 55.5 99 L 55.5 98 Z " /><path fill="rgb(126,196,198)" stroke="rgb(126,196,198)" stroke-width="1" opacity="1" d="M 56.5 101 L 56.5 102 L 56.5 101 Z " /><path fill="rgb(126,196,198)" stroke="rgb(126,196,198)" stroke-width="1" opacity="1" d="M 59.5 101 L 60.5 102 L 66 102.5 L 65.5 104 L 67 104 L 67 107 L 69.5 107 L 72 109.5 Q 71.25 113.25 73.5 114 L 76 115.5 Q 77 119.25 74 118 L 74 116.5 L 67.5 109 L 65 107.5 L 61.5 103 L 59.5 102 L 58 102.5 L 59.5 101 Z " /><path fill="rgb(126,196,198)" stroke="rgb(126,196,198)" stroke-width="1" opacity="1" d="M 77.5 118 Q 78.42 119.75 81 119 L 81 121 Q 78.33 119.87 79 122.5 L 78 122.5 L 78 119.5 L 77.5 118 Z " /><path fill="rgb(126,196,198)" stroke="rgb(126,196,198)" stroke-width="1" opacity="1" d="M 82.5 122 L 87 126.5 L 87 128 L 81 125 L 82.5 122 Z " /><path fill="rgb(121,191,195)" stroke="rgb(121,191,195)" stroke-width="1" opacity="1" d="M 51.5 26 L 53 26.5 L 51.5 27 L 51.5 26 Z " /><path fill="rgb(121,191,195)" stroke="rgb(121,191,195)" stroke-width="1" opacity="1" d="M 24.5 28 L 24.5 29 L 24.5 28 Z " /><path fill="rgb(121,191,195)" stroke="rgb(121,191,195)" stroke-width="1" opacity="1" d="M 54.5 28 L 55 29.5 L 54 29.5 L 54.5 28 Z " /><path fill="rgb(121,191,195)" stroke="rgb(121,191,195)" stroke-width="1" opacity="1" d="M 54.5 36 L 55 38.5 L 54 38.5 L 54.5 36 Z " /><path fill="rgb(121,191,195)" stroke="rgb(121,191,195)" stroke-width="1" opacity="1" d="M 12.5 37 L 14 37.5 L 12.5 38 L 12.5 37 Z " /><path fill="rgb(121,191,195)" stroke="rgb(121,191,195)" stroke-width="1" opacity="1" d="M 19.5 41 L 20 42.5 Q 18.5 45.5 17 42.5 L 19.5 41 Z " /><path fill="rgb(121,191,195)" stroke="rgb(121,191,195)" stroke-width="1" opacity="1" d="M 21.5 41 L 22 44.5 L 21 44.5 L 21.5 41 Z " /><path fill="rgb(121,191,195)" stroke="rgb(121,191,195)" stroke-width="1" opacity="1" d="M 19.5 45 L 19.5 46 L 19.5 45 Z " /><path fill="rgb(121,191,195)" stroke="rgb(121,191,195)" stroke-width="1" opacity="1" d="M 21.5 46 L 22 47.5 L 21 47.5 L 21.5 46 Z " /><path fill="rgb(121,191,195)" stroke="rgb(121,191,195)" stroke-width="1" opacity="1" d="M 23.5 46 L 24 47.5 L 23 47.5 L 23.5 46 Z " /><path fill="rgb(121,191,195)" stroke="rgb(121,191,195)" stroke-width="1" opacity="1" d="M 24.5 51 L 24.5 52 L 24.5 51 Z " /><path fill="rgb(121,191,195)" stroke="rgb(121,191,195)" stroke-width="1" opacity="1" d="M 27.5 53 L 31 53.5 L 27.5 54 L 27.5 53 Z " /><path fill="rgb(121,191,195)" stroke="rgb(121,191,195)" stroke-width="1" opacity="1" d="M 51.5 53 L 53 53.5 L 51.5 54 L 51.5 53 Z " /><path fill="rgb(121,191,195)" stroke="rgb(121,191,195)" stroke-width="1" opacity="1" d="M 55.5 78 L 55.5 79 L 55.5 78 Z " /><path fill="rgb(121,191,195)" stroke="rgb(121,191,195)" stroke-width="1" opacity="1" d="M 103.5 92 L 103.5 93 L 103.5 92 Z " /><path fill="rgb(121,191,195)" stroke="rgb(121,191,195)" stroke-width="1" opacity="1" d="M 103.5 100 L 103.5 101 L 103.5 100 Z " /><path fill="rgb(121,191,195)" stroke="rgb(121,191,195)" stroke-width="1" opacity="1" d="M 76.5 102 Q 77.42 103.75 80 103 L 80 105 Q 83 104 82 107 L 80 107 Q 81.13 104.33 78.5 105 L 76 104 L 76.5 102 Z " /><path fill="rgb(121,191,195)" stroke="rgb(121,191,195)" stroke-width="1" opacity="1" d="M 81.5 108 L 84 108.5 L 81.5 109 L 81.5 108 Z " /><path fill="rgb(121,191,195)" stroke="rgb(121,191,195)" stroke-width="1" opacity="1" d="M 85.5 111 Q 88.13 110.17 87 113.5 L 86 113.5 L 85.5 111 Z " /><path fill="rgb(121,191,195)" stroke="rgb(121,191,195)" stroke-width="1" opacity="1" d="M 97 123 L 102 123 L 102 127 L 97 125 L 97 123 Z " /></svg>