<svg width="64" height="64" version="1.1" xmlns="http://www.w3.org/2000/svg" desc="Created with imagetracer.js version 1.2.6" ><path fill="rgb(62,60,60)" stroke="rgb(62,60,60)" stroke-width="1" opacity="1" d="M 31.5 17 L 36 17.5 L 31.5 18 L 31.5 17 Z " /><path fill="rgb(62,60,60)" stroke="rgb(62,60,60)" stroke-width="1" opacity="1" d="M 27.5 18 L 27.5 19 L 27.5 18 Z " /><path fill="rgb(62,60,60)" stroke="rgb(62,60,60)" stroke-width="1" opacity="1" d="M 38.5 18 L 40 18.5 L 38.5 19 L 38.5 18 Z " /><path fill="rgb(62,60,60)" stroke="rgb(62,60,60)" stroke-width="1" opacity="1" d="M 25.5 19 L 25.5 20 L 25.5 19 Z " /><path fill="rgb(62,60,60)" stroke="rgb(62,60,60)" stroke-width="1" opacity="1" d="M 41.5 19 L 44 21.5 L 42.5 23 L 43 21.5 L 41 19.5 L 41.5 19 Z " /><path fill="rgb(62,60,60)" stroke="rgb(62,60,60)" stroke-width="1" opacity="1" d="M 22.5 21 L 22.5 22 L 22.5 21 Z " /><path fill="rgb(62,60,60)" stroke="rgb(62,60,60)" stroke-width="1" opacity="1" d="M 29.5 22 L 31 22.5 L 29.5 23 L 29.5 22 Z " /><path fill="rgb(62,60,60)" stroke="rgb(62,60,60)" stroke-width="1" opacity="1" d="M 36.5 22 L 36.5 23 L 36.5 22 Z " /><path fill="rgb(62,60,60)" stroke="rgb(62,60,60)" stroke-width="1" opacity="1" d="M 27.5 23 Q 29 24 26.5 25 Q 25 24 27.5 23 Z " /><path fill="rgb(62,60,60)" stroke="rgb(62,60,60)" stroke-width="1" opacity="1" d="M 38.5 23 L 38.5 24 L 38.5 23 Z " /><path fill="rgb(62,60,60)" stroke="rgb(62,60,60)" stroke-width="1" opacity="1" d="M 20.5 24 L 20.5 25 L 20.5 24 Z " /><path fill="rgb(62,60,60)" stroke="rgb(62,60,60)" stroke-width="1" opacity="1" d="M 40.5 24 L 40.5 25 L 40.5 24 Z " /><path fill="rgb(62,60,60)" stroke="rgb(62,60,60)" stroke-width="1" opacity="1" d="M 19.5 26 L 19.5 27 L 19.5 26 Z " /><path fill="rgb(62,60,60)" stroke="rgb(62,60,60)" stroke-width="1" opacity="1" d="M 24.5 28 L 24.5 29 L 24.5 28 Z " /><path fill="rgb(62,60,60)" stroke="rgb(62,60,60)" stroke-width="1" opacity="1" d="M 18.5 30 L 19 33.5 L 18 33.5 L 18.5 30 Z " /><path fill="rgb(62,60,60)" stroke="rgb(62,60,60)" stroke-width="1" opacity="1" d="M 43.5 32 L 44 43.5 L 43 43.5 L 43.5 32 Z " /><path fill="rgb(62,60,60)" stroke="rgb(62,60,60)" stroke-width="1" opacity="1" d="M 24.5 35 L 25 36.5 L 24 36.5 L 24.5 35 Z " /><path fill="rgb(62,60,60)" stroke="rgb(62,60,60)" stroke-width="1" opacity="1" d="M 34.5 35 L 34.5 36 L 34.5 35 Z " /><path fill="rgb(62,60,60)" stroke="rgb(62,60,60)" stroke-width="1" opacity="1" d="M 19.5 37 L 19.5 38 L 19.5 37 Z " /><path fill="rgb(62,60,60)" stroke="rgb(62,60,60)" stroke-width="1" opacity="1" d="M 25.5 38 L 28 40.5 L 27.5 41 L 25 38.5 L 25.5 38 Z " /><path fill="rgb(62,60,60)" stroke="rgb(62,60,60)" stroke-width="1" opacity="1" d="M 20.5 39 L 20.5 40 L 20.5 39 Z " /><path fill="rgb(62,60,60)" stroke="rgb(62,60,60)" stroke-width="1" opacity="1" d="M 29.5 41 L 29.5 42 L 29.5 41 Z " /><path fill="rgb(62,60,60)" stroke="rgb(62,60,60)" stroke-width="1" opacity="1" d="M 37.5 41 L 37.5 42 L 37.5 41 Z " /><path fill="rgb(62,60,60)" stroke="rgb(62,60,60)" stroke-width="1" opacity="1" d="M 22.5 42 L 22.5 43 L 22.5 42 Z " /><path fill="rgb(62,60,60)" stroke="rgb(62,60,60)" stroke-width="1" opacity="1" d="M 33.5 42 L 33.5 43 L 33.5 42 Z " /><path fill="rgb(62,60,60)" stroke="rgb(62,60,60)" stroke-width="1" opacity="1" d="M 25.5 44 L 25.5 45 L 25.5 44 Z " /><path fill="rgb(62,60,60)" stroke="rgb(62,60,60)" stroke-width="1" opacity="1" d="M 41.5 44 L 41.5 45 L 41.5 44 Z " /><path fill="rgb(62,60,60)" stroke="rgb(62,60,60)" stroke-width="1" opacity="1" d="M 27.5 45 L 27.5 46 L 27.5 45 Z " /><path fill="rgb(62,60,60)" stroke="rgb(62,60,60)" stroke-width="1" opacity="1" d="M 39.5 45 L 39.5 46 L 39.5 45 Z " /><path fill="rgb(62,60,60)" stroke="rgb(62,60,60)" stroke-width="1" opacity="1" d="M 30.5 46 L 36 46.5 L 30.5 47 L 30.5 46 Z " /><path fill="rgb(0,0,0)" stroke="rgb(0,0,0)" stroke-width="1" opacity="1" d="M 28.5 1 L 35.5 1 L 36.5 2 L 39.5 2 L 45.5 4 L 56 12.5 L 60 18.5 L 62 24.5 Q 61.25 27.75 63 28.5 L 63 35.5 L 62 36.5 L 62 39.5 L 60 45.5 L 51.5 56 L 45.5 60 L 39.5 62 Q 36.25 61.25 35.5 63 L 28.5 63 L 27.5 62 L 24.5 62 L 18.5 60 L 8 51.5 L 4 45.5 L 2 39.5 Q 2.75 36.25 1 35.5 L 1 28.5 L 2 27.5 L 2 24.5 L 4 18.5 L 12.5 8 L 18.5 4 L 24.5 2 L 27.5 2 L 28.5 1 Z M 32 17 Q 31 19 28 18 L 24 21 L 22 21 L 22 23 L 19 27 Q 20 30 18 31 L 19 38 L 22 42 L 22 43 L 31 47 L 36 47 L 44 44 L 44 32 L 34 32 L 34 36 L 39 36 L 39 41 L 37 42 Q 31 43 29 41 L 25 38 L 24 35 L 24 30 L 25 27 L 29 23 L 32 22 L 36 22 L 40 24 L 41 25 L 44 22 L 40 18 L 32 17 Z " /><path fill="rgb(255,255,255)" stroke="rgb(255,255,255)" stroke-width="1" opacity="0" d="M 0 0 L 64 0 L 64 64 L 0 64 L 0 0 Z M 25 1 L 14 6 L 6 14 L 1 25 L 1 40 L 6 51 L 14 58 L 25 63 L 40 63 L 51 58 L 58 51 L 63 40 L 63 25 L 58 14 Q 53 7 46 3 L 40 1 L 25 1 Z " /><path fill="rgb(177,175,174)" stroke="rgb(177,175,174)" stroke-width="1" opacity="1" d="M 28.5 18 L 30 18.5 L 28.5 19 L 28.5 18 Z " /><path fill="rgb(177,175,174)" stroke="rgb(177,175,174)" stroke-width="1" opacity="1" d="M 37.5 18 L 37.5 19 L 37.5 18 Z " /><path fill="rgb(177,175,174)" stroke="rgb(177,175,174)" stroke-width="1" opacity="1" d="M 26.5 19 L 26.5 20 L 26.5 19 Z " /><path fill="rgb(177,175,174)" stroke="rgb(177,175,174)" stroke-width="1" opacity="1" d="M 40.5 19 L 40.5 20 L 40.5 19 Z " /><path fill="rgb(177,175,174)" stroke="rgb(177,175,174)" stroke-width="1" opacity="1" d="M 24.5 20 L 24.5 21 L 24.5 20 Z " /><path fill="rgb(177,175,174)" stroke="rgb(177,175,174)" stroke-width="1" opacity="1" d="M 37.5 22 L 37.5 23 L 37.5 22 Z " /><path fill="rgb(177,175,174)" stroke="rgb(177,175,174)" stroke-width="1" opacity="1" d="M 21.5 23 L 21.5 24 L 21.5 23 Z " /><path fill="rgb(177,175,174)" stroke="rgb(177,175,174)" stroke-width="1" opacity="1" d="M 39.5 23 L 39.5 24 L 39.5 23 Z " /><path fill="rgb(177,175,174)" stroke="rgb(177,175,174)" stroke-width="1" opacity="1" d="M 41.5 23 L 41.5 24 L 41.5 23 Z " /><path fill="rgb(177,175,174)" stroke="rgb(177,175,174)" stroke-width="1" opacity="1" d="M 20.5 25 L 20.5 26 L 20.5 25 Z " /><path fill="rgb(177,175,174)" stroke="rgb(177,175,174)" stroke-width="1" opacity="1" d="M 25.5 25 L 25.5 26 L 25.5 25 Z " /><path fill="rgb(177,175,174)" stroke="rgb(177,175,174)" stroke-width="1" opacity="1" d="M 19.5 27 L 20 28.5 L 19 28.5 L 19.5 27 Z " /><path fill="rgb(177,175,174)" stroke="rgb(177,175,174)" stroke-width="1" opacity="1" d="M 24.5 27 L 24.5 28 L 24.5 27 Z " /><path fill="rgb(177,175,174)" stroke="rgb(177,175,174)" stroke-width="1" opacity="1" d="M 23.5 31 L 24 32.5 L 23 32.5 L 23.5 31 Z " /><path fill="rgb(177,175,174)" stroke="rgb(177,175,174)" stroke-width="1" opacity="1" d="M 34.5 32 L 35 35 L 39 35.5 L 35.5 36 Q 33 35 34.5 32 Z " /><path fill="rgb(177,175,174)" stroke="rgb(177,175,174)" stroke-width="1" opacity="1" d="M 19.5 35 L 20 36.5 L 19 36.5 L 19.5 35 Z " /><path fill="rgb(177,175,174)" stroke="rgb(177,175,174)" stroke-width="1" opacity="1" d="M 20.5 38 L 20.5 39 L 20.5 38 Z " /><path fill="rgb(177,175,174)" stroke="rgb(177,175,174)" stroke-width="1" opacity="1" d="M 21.5 40 L 25 43.5 L 24.5 44 L 21 40.5 L 21.5 40 Z " /><path fill="rgb(177,175,174)" stroke="rgb(177,175,174)" stroke-width="1" opacity="1" d="M 28.5 41 L 28.5 42 L 28.5 41 Z " /><path fill="rgb(177,175,174)" stroke="rgb(177,175,174)" stroke-width="1" opacity="1" d="M 38.5 41 L 38.5 42 L 38.5 41 Z " /><path fill="rgb(177,175,174)" stroke="rgb(177,175,174)" stroke-width="1" opacity="1" d="M 31.5 42 L 33 42.5 L 31.5 43 L 31.5 42 Z " /><path fill="rgb(177,175,174)" stroke="rgb(177,175,174)" stroke-width="1" opacity="1" d="M 34.5 42 L 36 42.5 L 34.5 43 L 34.5 42 Z " /><path fill="rgb(177,175,174)" stroke="rgb(177,175,174)" stroke-width="1" opacity="1" d="M 42.5 43 L 42.5 44 L 42.5 43 Z " /><path fill="rgb(177,175,174)" stroke="rgb(177,175,174)" stroke-width="1" opacity="1" d="M 26.5 44 L 26.5 45 L 26.5 44 Z " /><path fill="rgb(177,175,174)" stroke="rgb(177,175,174)" stroke-width="1" opacity="1" d="M 28.5 45 L 28.5 46 L 28.5 45 Z " /><path fill="rgb(177,175,174)" stroke="rgb(177,175,174)" stroke-width="1" opacity="1" d="M 37.5 45 L 39 45.5 L 37.5 46 L 37.5 45 Z " /><path fill="rgb(255,255,255)" stroke="rgb(255,255,255)" stroke-width="1" opacity="1" d="M 30.5 18 L 36.5 18 L 43 21.5 L 40.5 24 L 39.5 23 Q 36.33 20.67 29.5 22 L 25 25.5 L 23 32.5 L 25 38.5 L 28.5 42 L 35.5 43 Q 36.42 41.25 39 42 L 39 35 L 35 35 L 35 32 L 43 32 L 43 42.5 L 40.5 45 Q 37.25 44.25 36.5 46 L 29.5 46 Q 24 44 21 39.5 L 19 34.5 L 19 29.5 L 23.5 21 L 30.5 18 Z " /><path fill="rgb(0,0,0)" stroke="rgb(0,0,0)" stroke-width="1" opacity="0.9372549019607843" d="M 23.5 2 L 23.5 3 L 23.5 2 Z " /><path fill="rgb(0,0,0)" stroke="rgb(0,0,0)" stroke-width="1" opacity="0.9372549019607843" d="M 40.5 2 L 40.5 3 L 40.5 2 Z " /><path fill="rgb(0,0,0)" stroke="rgb(0,0,0)" stroke-width="1" opacity="0.9372549019607843" d="M 20.5 3 L 20.5 4 L 20.5 3 Z " /><path fill="rgb(0,0,0)" stroke="rgb(0,0,0)" stroke-width="1" opacity="0.9372549019607843" d="M 43.5 3 L 43.5 4 L 43.5 3 Z " /><path fill="rgb(0,0,0)" stroke="rgb(0,0,0)" stroke-width="1" opacity="0.9372549019607843" d="M 16.5 5 L 16.5 6 L 16.5 5 Z " /><path fill="rgb(0,0,0)" stroke="rgb(0,0,0)" stroke-width="1" opacity="0.9372549019607843" d="M 47.5 5 L 47.5 6 L 47.5 5 Z " /><path fill="rgb(0,0,0)" stroke="rgb(0,0,0)" stroke-width="1" opacity="0.9372549019607843" d="M 13.5 7 L 13.5 8 L 13.5 7 Z " /><path fill="rgb(0,0,0)" stroke="rgb(0,0,0)" stroke-width="1" opacity="0.9372549019607843" d="M 50.5 7 L 50.5 8 L 50.5 7 Z " /><path fill="rgb(0,0,0)" stroke="rgb(0,0,0)" stroke-width="1" opacity="0.9372549019607843" d="M 7.5 13 L 7.5 14 L 7.5 13 Z " /><path fill="rgb(0,0,0)" stroke="rgb(0,0,0)" stroke-width="1" opacity="0.9372549019607843" d="M 56.5 13 L 56.5 14 L 56.5 13 Z " /><path fill="rgb(0,0,0)" stroke="rgb(0,0,0)" stroke-width="1" opacity="0.9372549019607843" d="M 5.5 16 L 5.5 17 L 5.5 16 Z " /><path fill="rgb(0,0,0)" stroke="rgb(0,0,0)" stroke-width="1" opacity="0.9372549019607843" d="M 58.5 16 L 58.5 17 L 58.5 16 Z " /><path fill="rgb(0,0,0)" stroke="rgb(0,0,0)" stroke-width="1" opacity="0.9372549019607843" d="M 3.5 20 L 3.5 21 L 3.5 20 Z " /><path fill="rgb(0,0,0)" stroke="rgb(0,0,0)" stroke-width="1" opacity="0.9372549019607843" d="M 60.5 20 L 60.5 21 L 60.5 20 Z " /><path fill="rgb(0,0,0)" stroke="rgb(0,0,0)" stroke-width="1" opacity="0.9372549019607843" d="M 2.5 23 L 2.5 24 L 2.5 23 Z " /><path fill="rgb(0,0,0)" stroke="rgb(0,0,0)" stroke-width="1" opacity="0.9372549019607843" d="M 61.5 23 L 61.5 24 L 61.5 23 Z " /><path fill="rgb(0,0,0)" stroke="rgb(0,0,0)" stroke-width="1" opacity="0.9372549019607843" d="M 2.5 40 L 2.5 41 L 2.5 40 Z " /><path fill="rgb(0,0,0)" stroke="rgb(0,0,0)" stroke-width="1" opacity="0.9372549019607843" d="M 61.5 40 L 61.5 41 L 61.5 40 Z " /><path fill="rgb(0,0,0)" stroke="rgb(0,0,0)" stroke-width="1" opacity="0.9372549019607843" d="M 3.5 43 L 3.5 44 L 3.5 43 Z " /><path fill="rgb(0,0,0)" stroke="rgb(0,0,0)" stroke-width="1" opacity="0.9372549019607843" d="M 60.5 43 L 60.5 44 L 60.5 43 Z " /><path fill="rgb(0,0,0)" stroke="rgb(0,0,0)" stroke-width="1" opacity="0.9372549019607843" d="M 5.5 47 L 5.5 48 L 5.5 47 Z " /><path fill="rgb(0,0,0)" stroke="rgb(0,0,0)" stroke-width="1" opacity="0.9372549019607843" d="M 58.5 47 L 58.5 48 L 58.5 47 Z " /><path fill="rgb(0,0,0)" stroke="rgb(0,0,0)" stroke-width="1" opacity="0.9372549019607843" d="M 7.5 50 L 7.5 51 L 7.5 50 Z " /><path fill="rgb(0,0,0)" stroke="rgb(0,0,0)" stroke-width="1" opacity="0.9372549019607843" d="M 56.5 50 L 56.5 51 L 56.5 50 Z " /><path fill="rgb(0,0,0)" stroke="rgb(0,0,0)" stroke-width="1" opacity="0.9372549019607843" d="M 13.5 56 L 13.5 57 L 13.5 56 Z " /><path fill="rgb(0,0,0)" stroke="rgb(0,0,0)" stroke-width="1" opacity="0.9372549019607843" d="M 50.5 56 L 50.5 57 L 50.5 56 Z " /><path fill="rgb(0,0,0)" stroke="rgb(0,0,0)" stroke-width="1" opacity="0.9372549019607843" d="M 16.5 58 L 16.5 59 L 16.5 58 Z " /><path fill="rgb(0,0,0)" stroke="rgb(0,0,0)" stroke-width="1" opacity="0.9372549019607843" d="M 47.5 58 L 47.5 59 L 47.5 58 Z " /><path fill="rgb(0,0,0)" stroke="rgb(0,0,0)" stroke-width="1" opacity="0.9372549019607843" d="M 20.5 60 L 20.5 61 L 20.5 60 Z " /><path fill="rgb(0,0,0)" stroke="rgb(0,0,0)" stroke-width="1" opacity="0.9372549019607843" d="M 43.5 60 L 43.5 61 L 43.5 60 Z " /><path fill="rgb(0,0,0)" stroke="rgb(0,0,0)" stroke-width="1" opacity="0.9372549019607843" d="M 23.5 61 L 23.5 62 L 23.5 61 Z " /><path fill="rgb(0,0,0)" stroke="rgb(0,0,0)" stroke-width="1" opacity="0.9372549019607843" d="M 40.5 61 L 40.5 62 L 40.5 61 Z " /><path fill="rgb(0,0,0)" stroke="rgb(0,0,0)" stroke-width="1" opacity="0.37254901960784315" d="M 24.5 1 L 26 1.5 L 24.5 2 L 24.5 1 Z " /><path fill="rgb(0,0,0)" stroke="rgb(0,0,0)" stroke-width="1" opacity="0.37254901960784315" d="M 38.5 1 L 40 1.5 L 38.5 2 L 38.5 1 Z " /><path fill="rgb(0,0,0)" stroke="rgb(0,0,0)" stroke-width="1" opacity="0.37254901960784315" d="M 21.5 2 L 21.5 3 L 21.5 2 Z " /><path fill="rgb(0,0,0)" stroke="rgb(0,0,0)" stroke-width="1" opacity="0.37254901960784315" d="M 42.5 2 L 42.5 3 L 42.5 2 Z " /><path fill="rgb(0,0,0)" stroke="rgb(0,0,0)" stroke-width="1" opacity="0.37254901960784315" d="M 18.5 3 L 18.5 4 L 18.5 3 Z " /><path fill="rgb(0,0,0)" stroke="rgb(0,0,0)" stroke-width="1" opacity="0.37254901960784315" d="M 45.5 3 L 45.5 4 L 45.5 3 Z " /><path fill="rgb(0,0,0)" stroke="rgb(0,0,0)" stroke-width="1" opacity="0.37254901960784315" d="M 16.5 4 Q 18 5 15.5 6 Q 14 5 16.5 4 Z " /><path fill="rgb(0,0,0)" stroke="rgb(0,0,0)" stroke-width="1" opacity="0.37254901960784315" d="M 47.5 4 Q 50 5 48.5 6 Q 46 5 47.5 4 Z " /><path fill="rgb(0,0,0)" stroke="rgb(0,0,0)" stroke-width="1" opacity="0.37254901960784315" d="M 13.5 6 L 14 6.5 L 11.5 9 L 11 8.5 L 13.5 6 Z " /><path fill="rgb(0,0,0)" stroke="rgb(0,0,0)" stroke-width="1" opacity="0.37254901960784315" d="M 50.5 6 L 53 8.5 L 52.5 9 L 50 6.5 L 50.5 6 Z " /><path fill="rgb(0,0,0)" stroke="rgb(0,0,0)" stroke-width="1" opacity="0.37254901960784315" d="M 8.5 11 L 9 11.5 L 6.5 14 L 6 13.5 L 8.5 11 Z " /><path fill="rgb(0,0,0)" stroke="rgb(0,0,0)" stroke-width="1" opacity="0.37254901960784315" d="M 55.5 11 L 58 13.5 L 57.5 14 L 55 11.5 L 55.5 11 Z " /><path fill="rgb(0,0,0)" stroke="rgb(0,0,0)" stroke-width="1" opacity="0.37254901960784315" d="M 5.5 15 Q 7 16 4.5 17 Q 3 16 5.5 15 Z " /><path fill="rgb(0,0,0)" stroke="rgb(0,0,0)" stroke-width="1" opacity="0.37254901960784315" d="M 58.5 15 Q 61 16 59.5 17 Q 57 16 58.5 15 Z " /><path fill="rgb(0,0,0)" stroke="rgb(0,0,0)" stroke-width="1" opacity="0.37254901960784315" d="M 3.5 18 L 3.5 19 L 3.5 18 Z " /><path fill="rgb(0,0,0)" stroke="rgb(0,0,0)" stroke-width="1" opacity="0.37254901960784315" d="M 60.5 18 L 60.5 19 L 60.5 18 Z " /><path fill="rgb(0,0,0)" stroke="rgb(0,0,0)" stroke-width="1" opacity="0.37254901960784315" d="M 2.5 21 L 2.5 22 L 2.5 21 Z " /><path fill="rgb(0,0,0)" stroke="rgb(0,0,0)" stroke-width="1" opacity="0.37254901960784315" d="M 61.5 21 L 61.5 22 L 61.5 21 Z " /><path fill="rgb(0,0,0)" stroke="rgb(0,0,0)" stroke-width="1" opacity="0.37254901960784315" d="M 1.5 24 L 2 25.5 L 1 25.5 L 1.5 24 Z " /><path fill="rgb(0,0,0)" stroke="rgb(0,0,0)" stroke-width="1" opacity="0.37254901960784315" d="M 62.5 24 L 63 25.5 L 62 25.5 L 62.5 24 Z " /><path fill="rgb(0,0,0)" stroke="rgb(0,0,0)" stroke-width="1" opacity="0.37254901960784315" d="M 1.5 38 L 2 39.5 L 1 39.5 L 1.5 38 Z " /><path fill="rgb(0,0,0)" stroke="rgb(0,0,0)" stroke-width="1" opacity="0.37254901960784315" d="M 62.5 38 L 63 39.5 L 62 39.5 L 62.5 38 Z " /><path fill="rgb(0,0,0)" stroke="rgb(0,0,0)" stroke-width="1" opacity="0.37254901960784315" d="M 2.5 42 L 2.5 43 L 2.5 42 Z " /><path fill="rgb(0,0,0)" stroke="rgb(0,0,0)" stroke-width="1" opacity="0.37254901960784315" d="M 61.5 42 L 61.5 43 L 61.5 42 Z " /><path fill="rgb(0,0,0)" stroke="rgb(0,0,0)" stroke-width="1" opacity="0.37254901960784315" d="M 3.5 45 L 3.5 46 L 3.5 45 Z " /><path fill="rgb(0,0,0)" stroke="rgb(0,0,0)" stroke-width="1" opacity="0.37254901960784315" d="M 60.5 45 L 60.5 46 L 60.5 45 Z " /><path fill="rgb(0,0,0)" stroke="rgb(0,0,0)" stroke-width="1" opacity="0.37254901960784315" d="M 4.5 47 Q 7 48 5.5 49 Q 3 48 4.5 47 Z " /><path fill="rgb(0,0,0)" stroke="rgb(0,0,0)" stroke-width="1" opacity="0.37254901960784315" d="M 59.5 47 Q 61 48 58.5 49 Q 57 48 59.5 47 Z " /><path fill="rgb(0,0,0)" stroke="rgb(0,0,0)" stroke-width="1" opacity="0.37254901960784315" d="M 6.5 50 L 9 52.5 L 8.5 53 L 6 50.5 L 6.5 50 Z " /><path fill="rgb(0,0,0)" stroke="rgb(0,0,0)" stroke-width="1" opacity="0.37254901960784315" d="M 57.5 50 L 58 50.5 L 55.5 53 L 55 52.5 L 57.5 50 Z " /><path fill="rgb(0,0,0)" stroke="rgb(0,0,0)" stroke-width="1" opacity="0.37254901960784315" d="M 11.5 55 L 14 57.5 L 13.5 58 L 11 55.5 L 11.5 55 Z " /><path fill="rgb(0,0,0)" stroke="rgb(0,0,0)" stroke-width="1" opacity="0.37254901960784315" d="M 52.5 55 L 53 55.5 L 50.5 58 L 50 57.5 L 52.5 55 Z " /><path fill="rgb(0,0,0)" stroke="rgb(0,0,0)" stroke-width="1" opacity="0.37254901960784315" d="M 15.5 58 Q 18 59 16.5 60 Q 14 59 15.5 58 Z " /><path fill="rgb(0,0,0)" stroke="rgb(0,0,0)" stroke-width="1" opacity="0.37254901960784315" d="M 48.5 58 Q 50 59 47.5 60 Q 46 59 48.5 58 Z " /><path fill="rgb(0,0,0)" stroke="rgb(0,0,0)" stroke-width="1" opacity="0.37254901960784315" d="M 18.5 60 L 18.5 61 L 18.5 60 Z " /><path fill="rgb(0,0,0)" stroke="rgb(0,0,0)" stroke-width="1" opacity="0.37254901960784315" d="M 45.5 60 L 45.5 61 L 45.5 60 Z " /><path fill="rgb(0,0,0)" stroke="rgb(0,0,0)" stroke-width="1" opacity="0.37254901960784315" d="M 21.5 61 L 21.5 62 L 21.5 61 Z " /><path fill="rgb(0,0,0)" stroke="rgb(0,0,0)" stroke-width="1" opacity="0.37254901960784315" d="M 42.5 61 L 42.5 62 L 42.5 61 Z " /><path fill="rgb(0,0,0)" stroke="rgb(0,0,0)" stroke-width="1" opacity="0.37254901960784315" d="M 24.5 62 L 26 62.5 L 24.5 63 L 24.5 62 Z " /><path fill="rgb(0,0,0)" stroke="rgb(0,0,0)" stroke-width="1" opacity="0.37254901960784315" d="M 38.5 62 L 40 62.5 L 38.5 63 L 38.5 62 Z " /><path fill="rgb(0,0,0)" stroke="rgb(0,0,0)" stroke-width="1" opacity="0.7333333333333333" d="M 26.5 1 L 28 1.5 L 26.5 2 L 26.5 1 Z " /><path fill="rgb(0,0,0)" stroke="rgb(0,0,0)" stroke-width="1" opacity="0.7333333333333333" d="M 36.5 1 L 38 1.5 L 36.5 2 L 36.5 1 Z " /><path fill="rgb(0,0,0)" stroke="rgb(0,0,0)" stroke-width="1" opacity="0.7333333333333333" d="M 22.5 2 L 22.5 3 L 22.5 2 Z " /><path fill="rgb(0,0,0)" stroke="rgb(0,0,0)" stroke-width="1" opacity="0.7333333333333333" d="M 41.5 2 L 41.5 3 L 41.5 2 Z " /><path fill="rgb(0,0,0)" stroke="rgb(0,0,0)" stroke-width="1" opacity="0.7333333333333333" d="M 19.5 3 L 19.5 4 L 19.5 3 Z " /><path fill="rgb(0,0,0)" stroke="rgb(0,0,0)" stroke-width="1" opacity="0.7333333333333333" d="M 44.5 3 L 44.5 4 L 44.5 3 Z " /><path fill="rgb(0,0,0)" stroke="rgb(0,0,0)" stroke-width="1" opacity="0.7333333333333333" d="M 17.5 4 L 17.5 5 L 17.5 4 Z " /><path fill="rgb(0,0,0)" stroke="rgb(0,0,0)" stroke-width="1" opacity="0.7333333333333333" d="M 46.5 4 L 46.5 5 L 46.5 4 Z " /><path fill="rgb(0,0,0)" stroke="rgb(0,0,0)" stroke-width="1" opacity="0.7333333333333333" d="M 14.5 6 L 14.5 7 L 14.5 6 Z " /><path fill="rgb(0,0,0)" stroke="rgb(0,0,0)" stroke-width="1" opacity="0.7333333333333333" d="M 49.5 6 L 49.5 7 L 49.5 6 Z " /><path fill="rgb(0,0,0)" stroke="rgb(0,0,0)" stroke-width="1" opacity="0.7333333333333333" d="M 10.5 9 Q 12 10 9.5 11 Q 8 10 10.5 9 Z " /><path fill="rgb(0,0,0)" stroke="rgb(0,0,0)" stroke-width="1" opacity="0.7333333333333333" d="M 53.5 9 Q 56 10 54.5 11 Q 52 10 53.5 9 Z " /><path fill="rgb(0,0,0)" stroke="rgb(0,0,0)" stroke-width="1" opacity="0.7333333333333333" d="M 6.5 14 L 6.5 15 L 6.5 14 Z " /><path fill="rgb(0,0,0)" stroke="rgb(0,0,0)" stroke-width="1" opacity="0.7333333333333333" d="M 57.5 14 L 57.5 15 L 57.5 14 Z " /><path fill="rgb(0,0,0)" stroke="rgb(0,0,0)" stroke-width="1" opacity="0.7333333333333333" d="M 4.5 17 L 4.5 18 L 4.5 17 Z " /><path fill="rgb(0,0,0)" stroke="rgb(0,0,0)" stroke-width="1" opacity="0.7333333333333333" d="M 59.5 17 L 59.5 18 L 59.5 17 Z " /><path fill="rgb(0,0,0)" stroke="rgb(0,0,0)" stroke-width="1" opacity="0.7333333333333333" d="M 3.5 19 L 3.5 20 L 3.5 19 Z " /><path fill="rgb(0,0,0)" stroke="rgb(0,0,0)" stroke-width="1" opacity="0.7333333333333333" d="M 60.5 19 L 60.5 20 L 60.5 19 Z " /><path fill="rgb(0,0,0)" stroke="rgb(0,0,0)" stroke-width="1" opacity="0.7333333333333333" d="M 2.5 22 L 2.5 23 L 2.5 22 Z " /><path fill="rgb(0,0,0)" stroke="rgb(0,0,0)" stroke-width="1" opacity="0.7333333333333333" d="M 61.5 22 L 61.5 23 L 61.5 22 Z " /><path fill="rgb(0,0,0)" stroke="rgb(0,0,0)" stroke-width="1" opacity="0.7333333333333333" d="M 1.5 26 L 2 27.5 L 1 27.5 L 1.5 26 Z " /><path fill="rgb(0,0,0)" stroke="rgb(0,0,0)" stroke-width="1" opacity="0.7333333333333333" d="M 62.5 26 L 63 27.5 L 62 27.5 L 62.5 26 Z " /><path fill="rgb(0,0,0)" stroke="rgb(0,0,0)" stroke-width="1" opacity="0.7333333333333333" d="M 1.5 36 L 2 37.5 L 1 37.5 L 1.5 36 Z " /><path fill="rgb(0,0,0)" stroke="rgb(0,0,0)" stroke-width="1" opacity="0.7333333333333333" d="M 62.5 36 L 63 37.5 L 62 37.5 L 62.5 36 Z " /><path fill="rgb(0,0,0)" stroke="rgb(0,0,0)" stroke-width="1" opacity="0.7333333333333333" d="M 2.5 41 L 2.5 42 L 2.5 41 Z " /><path fill="rgb(0,0,0)" stroke="rgb(0,0,0)" stroke-width="1" opacity="0.7333333333333333" d="M 61.5 41 L 61.5 42 L 61.5 41 Z " /><path fill="rgb(0,0,0)" stroke="rgb(0,0,0)" stroke-width="1" opacity="0.7333333333333333" d="M 3.5 44 L 3.5 45 L 3.5 44 Z " /><path fill="rgb(0,0,0)" stroke="rgb(0,0,0)" stroke-width="1" opacity="0.7333333333333333" d="M 60.5 44 L 60.5 45 L 60.5 44 Z " /><path fill="rgb(0,0,0)" stroke="rgb(0,0,0)" stroke-width="1" opacity="0.7333333333333333" d="M 4.5 46 L 4.5 47 L 4.5 46 Z " /><path fill="rgb(0,0,0)" stroke="rgb(0,0,0)" stroke-width="1" opacity="0.7333333333333333" d="M 59.5 46 L 59.5 47 L 59.5 46 Z " /><path fill="rgb(0,0,0)" stroke="rgb(0,0,0)" stroke-width="1" opacity="0.7333333333333333" d="M 6.5 49 L 6.5 50 L 6.5 49 Z " /><path fill="rgb(0,0,0)" stroke="rgb(0,0,0)" stroke-width="1" opacity="0.7333333333333333" d="M 57.5 49 L 57.5 50 L 57.5 49 Z " /><path fill="rgb(0,0,0)" stroke="rgb(0,0,0)" stroke-width="1" opacity="0.7333333333333333" d="M 9.5 53 Q 12 54 10.5 55 Q 8 54 9.5 53 Z " /><path fill="rgb(0,0,0)" stroke="rgb(0,0,0)" stroke-width="1" opacity="0.7333333333333333" d="M 54.5 53 Q 56 54 53.5 55 Q 52 54 54.5 53 Z " /><path fill="rgb(0,0,0)" stroke="rgb(0,0,0)" stroke-width="1" opacity="0.7333333333333333" d="M 14.5 57 L 14.5 58 L 14.5 57 Z " /><path fill="rgb(0,0,0)" stroke="rgb(0,0,0)" stroke-width="1" opacity="0.7333333333333333" d="M 49.5 57 L 49.5 58 L 49.5 57 Z " /><path fill="rgb(0,0,0)" stroke="rgb(0,0,0)" stroke-width="1" opacity="0.7333333333333333" d="M 17.5 59 L 17.5 60 L 17.5 59 Z " /><path fill="rgb(0,0,0)" stroke="rgb(0,0,0)" stroke-width="1" opacity="0.7333333333333333" d="M 46.5 59 L 46.5 60 L 46.5 59 Z " /><path fill="rgb(0,0,0)" stroke="rgb(0,0,0)" stroke-width="1" opacity="0.7333333333333333" d="M 19.5 60 L 19.5 61 L 19.5 60 Z " /><path fill="rgb(0,0,0)" stroke="rgb(0,0,0)" stroke-width="1" opacity="0.7333333333333333" d="M 44.5 60 L 44.5 61 L 44.5 60 Z " /><path fill="rgb(0,0,0)" stroke="rgb(0,0,0)" stroke-width="1" opacity="0.7333333333333333" d="M 22.5 61 L 22.5 62 L 22.5 61 Z " /><path fill="rgb(0,0,0)" stroke="rgb(0,0,0)" stroke-width="1" opacity="0.7333333333333333" d="M 41.5 61 L 41.5 62 L 41.5 61 Z " /><path fill="rgb(0,0,0)" stroke="rgb(0,0,0)" stroke-width="1" opacity="0.7333333333333333" d="M 26.5 62 L 28 62.5 L 26.5 63 L 26.5 62 Z " /><path fill="rgb(0,0,0)" stroke="rgb(0,0,0)" stroke-width="1" opacity="0.7333333333333333" d="M 36.5 62 L 38 62.5 L 36.5 63 L 36.5 62 Z " /></svg>