<svg width="16" height="16" version="1.1" xmlns="http://www.w3.org/2000/svg" desc="Created with imagetracer.js version 1.2.6" ><path fill="rgb(255,255,255)" stroke="rgb(255,255,255)" stroke-width="1" opacity="0" d="M 0 0 L 15.5 0 L 16 0.5 L 16 5 L 0.5 5 L 0 4.5 L 0 0 Z " /><path fill="rgb(255,255,255)" stroke="rgb(255,255,255)" stroke-width="1" opacity="0" d="M 0 11 L 15.5 11 L 16 11.5 L 16 16 L 0.5 16 L 0 15.5 L 0 11 Z " /><path fill="rgb(139,15,4)" stroke="rgb(139,15,4)" stroke-width="1" opacity="0.5607843137254902" d="M 6.5 5 L 6.5 6 L 6.5 5 Z " /><path fill="rgb(139,15,4)" stroke="rgb(139,15,4)" stroke-width="1" opacity="0.5607843137254902" d="M 9.5 6 L 9.5 7 L 9.5 6 Z " /><path fill="rgb(139,15,4)" stroke="rgb(139,15,4)" stroke-width="1" opacity="0.5607843137254902" d="M 9.5 8 L 9.5 9 L 9.5 8 Z " /><path fill="rgb(139,15,4)" stroke="rgb(139,15,4)" stroke-width="1" opacity="0.611764705882353" d="M 7.5 5 L 10 5.5 L 7.5 6 L 7.5 5 Z " /><path fill="rgb(138,13,4)" stroke="rgb(138,13,4)" stroke-width="1" opacity="0.23529411764705882" d="M 10.5 5 L 11 6.5 L 10 6.5 L 10.5 5 Z " /><path fill="rgb(138,13,4)" stroke="rgb(138,13,4)" stroke-width="1" opacity="0.23529411764705882" d="M 6.5 8 L 6.5 9 L 6.5 8 Z " /><path fill="rgb(138,12,4)" stroke="rgb(138,12,4)" stroke-width="1" opacity="0.011764705882352941" d="M 9.5 10 L 9.5 11 L 9.5 10 Z " /><path fill="rgb(138,12,4)" stroke="rgb(138,12,4)" stroke-width="1" opacity="0.011764705882352941" d="M 11.5 10 L 11.5 11 L 11.5 10 Z " /><path fill="rgb(139,15,4)" stroke="rgb(139,15,4)" stroke-width="1" opacity="0" d="M 0 5 L 5 5.5 L 0 8 L 0 5 Z " /><path fill="rgb(139,15,4)" stroke="rgb(139,15,4)" stroke-width="1" opacity="0" d="M 11.5 5 L 16 5 L 16 7.5 L 14.5 7 Q 10.75 7.5 11.5 5 Z " /><path fill="rgb(139,15,4)" stroke="rgb(139,15,4)" stroke-width="1" opacity="0" d="M 9.5 7 Q 11 8 8.5 9 Q 7 8 9.5 7 Z " /><path fill="rgb(139,15,4)" stroke="rgb(139,15,4)" stroke-width="1" opacity="0" d="M 10.5 10 L 10.5 11 L 10.5 10 Z " /><path fill="rgb(139,16,4)" stroke="rgb(139,16,4)" stroke-width="1" opacity="0.16470588235294117" d="M 11.5 6 L 12 7.5 L 11 7.5 L 11.5 6 Z " /><path fill="rgb(139,16,4)" stroke="rgb(139,16,4)" stroke-width="1" opacity="0.16470588235294117" d="M 15.5 9 L 15.5 10 L 15.5 9 Z " /><path fill="rgb(138,14,4)" stroke="rgb(138,14,4)" stroke-width="1" opacity="0.6784313725490196" d="M 5.5 6 L 6 7.5 L 5 7.5 L 5.5 6 Z " /><path fill="rgb(138,14,4)" stroke="rgb(138,14,4)" stroke-width="1" opacity="0.6784313725490196" d="M 1.5 8 L 1.5 9 L 1.5 8 Z " /><path fill="rgb(138,14,4)" stroke="rgb(138,14,4)" stroke-width="1" opacity="0.6784313725490196" d="M 13.5 8 L 13.5 9 L 13.5 8 Z " /><path fill="rgb(138,14,4)" stroke="rgb(138,14,4)" stroke-width="1" opacity="0.6784313725490196" d="M 9.5 9 L 12 9.5 L 9.5 10 L 9.5 9 Z " /><path fill="rgb(138,12,4)" stroke="rgb(138,12,4)" stroke-width="1" opacity="0.49019607843137253" d="M 6.5 7 L 8 7.5 L 5.5 9 Q 4 8 6.5 7 Z " /><path fill="rgb(138,12,4)" stroke="rgb(138,12,4)" stroke-width="1" opacity="0.28627450980392155" d="M 8.5 7 L 8.5 8 L 8.5 7 Z " /><path fill="rgb(138,12,4)" stroke="rgb(138,12,4)" stroke-width="1" opacity="0.28627450980392155" d="M 14.5 8 L 14.5 9 L 14.5 8 Z " /><path fill="rgb(139,14,4)" stroke="rgb(139,14,4)" stroke-width="1" opacity="0.06666666666666667" d="M 5.5 5 L 5.5 6 L 5.5 5 Z " /><path fill="rgb(139,14,4)" stroke="rgb(139,14,4)" stroke-width="1" opacity="0.06666666666666667" d="M 10.5 7 L 10.5 8 L 10.5 7 Z " /><path fill="rgb(139,14,4)" stroke="rgb(139,14,4)" stroke-width="1" opacity="0.06666666666666667" d="M 7.5 8 L 7.5 9 L 7.5 8 Z " /><path fill="rgb(139,15,4)" stroke="rgb(139,15,4)" stroke-width="1" opacity="0.11764705882352941" d="M 2.5 7 L 4 7.5 L 2.5 8 L 2.5 7 Z " /><path fill="rgb(139,15,4)" stroke="rgb(139,15,4)" stroke-width="1" opacity="0.11764705882352941" d="M 12.5 7 L 14 7.5 L 12.5 8 L 12.5 7 Z " /><path fill="rgb(139,15,4)" stroke="rgb(139,15,4)" stroke-width="1" opacity="0.11764705882352941" d="M 15.5 8 L 15.5 9 L 15.5 8 Z " /><path fill="rgb(139,15,4)" stroke="rgb(139,15,4)" stroke-width="1" opacity="0.11764705882352941" d="M 7.5 9 L 7.5 10 L 7.5 9 Z " /><path fill="rgb(139,15,4)" stroke="rgb(139,15,4)" stroke-width="1" opacity="0.023529411764705882" d="M 4.5 6 L 4.5 7 L 4.5 6 Z " /><path fill="rgb(139,15,4)" stroke="rgb(139,15,4)" stroke-width="1" opacity="0.03137254901960784" d="M 14.5 7 L 14.5 8 L 14.5 7 Z " /><path fill="rgb(139,15,4)" stroke="rgb(139,15,4)" stroke-width="1" opacity="0.03137254901960784" d="M 0.5 8 L 0.5 9 L 0.5 8 Z " /><path fill="rgb(145,33,4)" stroke="rgb(145,33,4)" stroke-width="1" opacity="0.3568627450980392" d="M 0.5 9 L 0.5 10 L 0.5 9 Z " /><path fill="rgb(145,33,4)" stroke="rgb(145,33,4)" stroke-width="1" opacity="0.3568627450980392" d="M 4.5 9 L 4.5 10 L 4.5 9 Z " /><path fill="rgb(143,26,4)" stroke="rgb(143,26,4)" stroke-width="1" opacity="0.6274509803921569" d="M 1.5 9 L 1.5 10 L 1.5 9 Z " /><path fill="rgb(141,22,4)" stroke="rgb(141,22,4)" stroke-width="1" opacity="0.6039215686274509" d="M 2.5 9 L 4 9.5 L 2.5 10 L 2.5 9 Z " /><path fill="rgb(167,100,6)" stroke="rgb(167,100,6)" stroke-width="1" opacity="0.00392156862745098" d="M 5.5 9 L 5.5 10 L 5.5 9 Z " /><path fill="rgb(167,100,6)" stroke="rgb(167,100,6)" stroke-width="1" opacity="0.00392156862745098" d="M 14.5 9 Q 16 10 13.5 11 Q 12 10 14.5 9 Z " /><path fill="rgb(167,100,6)" stroke="rgb(167,100,6)" stroke-width="1" opacity="0.00392156862745098" d="M 0.5 10 L 4 10.5 L 0.5 11 L 0.5 10 Z " /><path fill="rgb(152,54,5)" stroke="rgb(152,54,5)" stroke-width="1" opacity="0.0392156862745098" d="M 6.5 9 L 6.5 10 L 6.5 9 Z " /><path fill="rgb(152,54,5)" stroke="rgb(152,54,5)" stroke-width="1" opacity="0.0392156862745098" d="M 13.5 9 L 13.5 10 L 13.5 9 Z " /><path fill="rgb(152,54,5)" stroke="rgb(152,54,5)" stroke-width="1" opacity="0.0392156862745098" d="M 8.5 10 L 8.5 11 L 8.5 10 Z " /><path fill="rgb(152,54,5)" stroke="rgb(152,54,5)" stroke-width="1" opacity="0.0392156862745098" d="M 15.5 10 L 15.5 11 L 15.5 10 Z " /><path fill="rgb(139,16,4)" stroke="rgb(139,16,4)" stroke-width="1" opacity="0.3843137254901961" d="M 4.5 7 L 4.5 8 L 4.5 7 Z " /><path fill="rgb(139,16,4)" stroke="rgb(139,16,4)" stroke-width="1" opacity="0.3843137254901961" d="M 8.5 9 L 8.5 10 L 8.5 9 Z " /><path fill="rgb(139,14,4)" stroke="rgb(139,14,4)" stroke-width="1" opacity="1" d="M 6.5 6 L 9 6.5 L 6.5 7 L 6.5 6 Z " /><path fill="rgb(139,14,4)" stroke="rgb(139,14,4)" stroke-width="1" opacity="1" d="M 2.5 8 L 5 8.5 L 2.5 9 L 2.5 8 Z " /><path fill="rgb(139,14,4)" stroke="rgb(139,14,4)" stroke-width="1" opacity="1" d="M 10.5 8 L 13 8.5 L 10.5 9 L 10.5 8 Z " /><path fill="rgb(138,10,4)" stroke="rgb(138,10,4)" stroke-width="1" opacity="0.43137254901960786" d="M 12.5 9 L 12.5 10 L 12.5 9 Z " /><path fill="rgb(140,16,4)" stroke="rgb(140,16,4)" stroke-width="1" opacity="0" d="M 12.5 10 L 12.5 11 L 12.5 10 Z " /><path fill="rgb(179,137,7)" stroke="rgb(179,137,7)" stroke-width="1" opacity="0" d="M 4.5 10 L 8 10.5 L 4.5 11 L 4.5 10 Z " /><path fill="rgb(179,137,7)" stroke="rgb(179,137,7)" stroke-width="1" opacity="0" d="M 14.5 10 L 14.5 11 L 14.5 10 Z " /></svg>