<svg width="128" height="128" version="1.1" xmlns="http://www.w3.org/2000/svg" desc="Created with imagetracer.js version 1.2.6" ><path fill="rgb(56,64,84)" stroke="rgb(56,64,84)" stroke-width="1" opacity="1" d="M 123.5 3 L 123.5 4 L 123.5 3 Z " /><path fill="rgb(56,64,84)" stroke="rgb(56,64,84)" stroke-width="1" opacity="1" d="M 87.5 32 L 87.5 33 L 87.5 32 Z " /><path fill="rgb(56,64,84)" stroke="rgb(56,64,84)" stroke-width="1" opacity="1" d="M 37 35 Q 40 33.75 39 37.5 L 39.5 39 Q 37.25 38.25 38 40.5 L 37 40.5 L 38 37.5 L 37 35 Z " /><path fill="rgb(56,64,84)" stroke="rgb(56,64,84)" stroke-width="1" opacity="1" d="M 72.5 41 L 82 41.5 L 72.5 42 L 72.5 41 Z " /><path fill="rgb(56,64,84)" stroke="rgb(56,64,84)" stroke-width="1" opacity="1" d="M 63.5 44 L 70.5 44 L 71 46 Q 65.95 44.75 64.5 48 L 64.5 46 L 62 45.5 L 63.5 44 Z " /><path fill="rgb(56,64,84)" stroke="rgb(56,64,84)" stroke-width="1" opacity="1" d="M 81.5 46 L 81.5 47 L 81.5 46 Z " /><path fill="rgb(56,64,84)" stroke="rgb(56,64,84)" stroke-width="1" opacity="1" d="M 62.5 47 L 62.5 48 L 62.5 47 Z " /><path fill="rgb(56,64,84)" stroke="rgb(56,64,84)" stroke-width="1" opacity="1" d="M 78.5 48 L 80 48.5 L 78.5 49 L 78.5 48 Z " /><path fill="rgb(56,64,84)" stroke="rgb(56,64,84)" stroke-width="1" opacity="1" d="M 83.5 48 Q 86 49 84.5 50 L 83.5 49 L 82 49.5 L 83.5 48 Z " /><path fill="rgb(56,64,84)" stroke="rgb(56,64,84)" stroke-width="1" opacity="1" d="M 62.5 51 L 63 53.5 L 62 53.5 L 62.5 51 Z " /><path fill="rgb(56,64,84)" stroke="rgb(56,64,84)" stroke-width="1" opacity="1" d="M 86.5 51 Q 89 52 87.5 53 Q 85 52 86.5 51 Z " /><path fill="rgb(56,64,84)" stroke="rgb(56,64,84)" stroke-width="1" opacity="1" d="M 90.5 53 L 92 55.5 L 91 55.5 L 90.5 53 Z " /><path fill="rgb(56,64,84)" stroke="rgb(56,64,84)" stroke-width="1" opacity="1" d="M 69.5 57 L 70 58.5 L 69 58.5 L 69.5 57 Z " /><path fill="rgb(56,64,84)" stroke="rgb(56,64,84)" stroke-width="1" opacity="1" d="M 83.5 61 Q 86 62 84.5 63 Q 82 62 83.5 61 Z " /><path fill="rgb(56,64,84)" stroke="rgb(56,64,84)" stroke-width="1" opacity="1" d="M 84.5 64 Q 86 65 83.5 66 Q 82 65 84.5 64 Z " /><path fill="rgb(56,64,84)" stroke="rgb(56,64,84)" stroke-width="1" opacity="1" d="M 79.5 66 Q 81 67 78.5 68 L 77 67.5 L 79.5 66 Z " /><path fill="rgb(56,64,84)" stroke="rgb(56,64,84)" stroke-width="1" opacity="1" d="M 80.5 68 Q 83 69 81.5 70 Q 79 69 80.5 68 Z " /><path fill="rgb(56,64,84)" stroke="rgb(56,64,84)" stroke-width="1" opacity="1" d="M 91.5 69 L 92 70.5 L 91 70.5 L 91.5 69 Z " /><path fill="rgb(56,64,84)" stroke="rgb(56,64,84)" stroke-width="1" opacity="1" d="M 78.5 70 L 78.5 71 L 78.5 70 Z " /><path fill="rgb(56,64,84)" stroke="rgb(56,64,84)" stroke-width="1" opacity="1" d="M 89.5 76 L 89.5 77 L 89.5 76 Z " /><path fill="rgb(56,64,84)" stroke="rgb(56,64,84)" stroke-width="1" opacity="1" d="M 82.5 77 L 86 77.5 L 82.5 78 L 82.5 77 Z " /><path fill="rgb(56,64,84)" stroke="rgb(56,64,84)" stroke-width="1" opacity="1" d="M 48.5 81 L 51 81.5 L 48.5 82 L 48.5 81 Z " /><path fill="rgb(56,64,84)" stroke="rgb(56,64,84)" stroke-width="1" opacity="1" d="M 70.5 81 L 70.5 82 L 70.5 81 Z " /><path fill="rgb(56,64,84)" stroke="rgb(56,64,84)" stroke-width="1" opacity="1" d="M 39.5 92 L 39.5 93 L 39.5 92 Z " /><path fill="rgb(56,64,84)" stroke="rgb(56,64,84)" stroke-width="1" opacity="1" d="M 50.5 92 L 50.5 93 L 50.5 92 Z " /><path fill="rgb(56,64,84)" stroke="rgb(56,64,84)" stroke-width="1" opacity="1" d="M 37.5 94 Q 39 95 36.5 96 Q 35 95 37.5 94 Z " /><path fill="rgb(56,64,84)" stroke="rgb(56,64,84)" stroke-width="1" opacity="1" d="M 39.5 95 L 41 95.5 L 38.5 97 Q 37 96 39.5 95 Z " /><path fill="rgb(56,64,84)" stroke="rgb(56,64,84)" stroke-width="1" opacity="1" d="M 69.5 95 L 71 98 L 69 97.5 L 70 96.5 L 69.5 95 Z " /><path fill="rgb(56,64,84)" stroke="rgb(56,64,84)" stroke-width="1" opacity="1" d="M 45.5 97 L 45.5 98 L 45.5 97 Z " /><path fill="rgb(56,64,84)" stroke="rgb(56,64,84)" stroke-width="1" opacity="1" d="M 62.5 97 L 64 97.5 L 62.5 98 L 62.5 97 Z " /><path fill="rgb(56,64,84)" stroke="rgb(56,64,84)" stroke-width="1" opacity="1" d="M 41 98 Q 44 97 43 100 Q 40 101 41 98 Z " /><path fill="rgb(58,65,83)" stroke="rgb(58,65,83)" stroke-width="1" opacity="1" d="M 0 1 L 122.5 1 L 123 3 L 0.5 3 L 0 1 Z " /><path fill="rgb(58,65,83)" stroke="rgb(58,65,83)" stroke-width="1" opacity="1" d="M 125.5 1 L 125.5 2 L 125.5 1 Z " /><path fill="rgb(58,65,83)" stroke="rgb(58,65,83)" stroke-width="1" opacity="1" d="M 125.5 3 L 125.5 4 L 125.5 3 Z " /><path fill="rgb(58,65,83)" stroke="rgb(58,65,83)" stroke-width="1" opacity="1" d="M 125.5 5 L 126 126 L 124 125.5 L 125 124.5 L 125.5 5 Z " /><path fill="rgb(58,65,83)" stroke="rgb(58,65,83)" stroke-width="1" opacity="1" d="M 48.5 34 L 82 34.5 L 48.5 35 L 48.5 34 Z " /><path fill="rgb(58,65,83)" stroke="rgb(58,65,83)" stroke-width="1" opacity="1" d="M 87.5 34 L 89 34.5 L 87.5 35 L 87.5 34 Z " /><path fill="rgb(58,65,83)" stroke="rgb(58,65,83)" stroke-width="1" opacity="1" d="M 38 41 L 40 41.5 L 40 92 L 38 91.5 L 38 41 Z " /><path fill="rgb(58,65,83)" stroke="rgb(58,65,83)" stroke-width="1" opacity="1" d="M 46.5 41 L 47 70.5 L 46 70.5 L 46.5 41 Z " /><path fill="rgb(58,65,83)" stroke="rgb(58,65,83)" stroke-width="1" opacity="1" d="M 61 41 L 67.5 42 L 70 43.5 L 62.5 44 L 61.5 45 L 61 41 Z " /><path fill="rgb(58,65,83)" stroke="rgb(58,65,83)" stroke-width="1" opacity="1" d="M 71 42 L 81.5 42 L 82 44 L 72.5 44 L 71.5 45 L 71 42 Z " /><path fill="rgb(58,65,83)" stroke="rgb(58,65,83)" stroke-width="1" opacity="1" d="M 62.5 48 L 63 49.5 L 62 49.5 L 62.5 48 Z " /><path fill="rgb(58,65,83)" stroke="rgb(58,65,83)" stroke-width="1" opacity="1" d="M 64.5 48 L 72 48.5 L 66.5 49 L 65.5 50 Q 63 49 64.5 48 Z " /><path fill="rgb(58,65,83)" stroke="rgb(58,65,83)" stroke-width="1" opacity="1" d="M 81.5 48 L 81.5 49 L 81.5 48 Z " /><path fill="rgb(58,65,83)" stroke="rgb(58,65,83)" stroke-width="1" opacity="1" d="M 91.5 53 L 91.5 54 L 91.5 53 Z " /><path fill="rgb(58,65,83)" stroke="rgb(58,65,83)" stroke-width="1" opacity="1" d="M 61 55 L 63 55.5 L 63 61.5 Q 62 63 61 60.5 L 61 55 Z " /><path fill="rgb(58,65,83)" stroke="rgb(58,65,83)" stroke-width="1" opacity="1" d="M 79.5 56 L 79.5 57 L 79.5 56 Z " /><path fill="rgb(58,65,83)" stroke="rgb(58,65,83)" stroke-width="1" opacity="1" d="M 70.5 57 L 70.5 58 L 70.5 57 Z " /><path fill="rgb(58,65,83)" stroke="rgb(58,65,83)" stroke-width="1" opacity="1" d="M 69.5 60 L 69.5 61 L 69.5 60 Z " /><path fill="rgb(58,65,83)" stroke="rgb(58,65,83)" stroke-width="1" opacity="1" d="M 72.5 61 L 82 61.5 L 72.5 62 L 72.5 61 Z " /><path fill="rgb(58,65,83)" stroke="rgb(58,65,83)" stroke-width="1" opacity="1" d="M 84.5 66 L 85 66.5 L 82.5 69 L 82 68.5 L 84.5 66 Z " /><path fill="rgb(58,65,83)" stroke="rgb(58,65,83)" stroke-width="1" opacity="1" d="M 91.5 67 L 92 68.5 L 91 68.5 L 91.5 67 Z " /><path fill="rgb(58,65,83)" stroke="rgb(58,65,83)" stroke-width="1" opacity="1" d="M 89.5 73 L 89.5 74 L 89.5 73 Z " /><path fill="rgb(58,65,83)" stroke="rgb(58,65,83)" stroke-width="1" opacity="1" d="M 85.5 76 L 87 76.5 L 85.5 77 L 85.5 76 Z " /><path fill="rgb(58,65,83)" stroke="rgb(58,65,83)" stroke-width="1" opacity="1" d="M 70.5 78 L 72 81.5 L 69 81.5 L 70.5 78 Z " /><path fill="rgb(58,65,83)" stroke="rgb(58,65,83)" stroke-width="1" opacity="1" d="M 46.5 79 L 47 91.5 L 46 91.5 L 46.5 79 Z " /><path fill="rgb(58,65,83)" stroke="rgb(58,65,83)" stroke-width="1" opacity="1" d="M 50.5 79 L 51 80.5 L 50 80.5 L 50.5 79 Z " /><path fill="rgb(58,65,83)" stroke="rgb(58,65,83)" stroke-width="1" opacity="1" d="M 90.5 79 L 92 79 L 92 82 L 87 82 L 87 80 Q 89.58 80.75 90.5 79 Z " /><path fill="rgb(58,65,83)" stroke="rgb(58,65,83)" stroke-width="1" opacity="1" d="M 48.5 92 L 50 92.5 L 48.5 93 L 48.5 92 Z " /><path fill="rgb(58,65,83)" stroke="rgb(58,65,83)" stroke-width="1" opacity="1" d="M 61.5 92 L 63 94.5 Q 62 96 61 93.5 L 61.5 92 Z " /><path fill="rgb(58,65,83)" stroke="rgb(58,65,83)" stroke-width="1" opacity="1" d="M 69.5 93 L 69.5 94 L 69.5 93 Z " /><path fill="rgb(58,65,83)" stroke="rgb(58,65,83)" stroke-width="1" opacity="1" d="M 47.5 94 L 47.5 95 L 47.5 94 Z " /><path fill="rgb(58,65,83)" stroke="rgb(58,65,83)" stroke-width="1" opacity="1" d="M 44.5 95 L 44.5 96 L 44.5 95 Z " /><path fill="rgb(58,65,83)" stroke="rgb(58,65,83)" stroke-width="1" opacity="1" d="M 64.5 95 L 64.5 96 L 64.5 95 Z " /><path fill="rgb(58,65,83)" stroke="rgb(58,65,83)" stroke-width="1" opacity="1" d="M 47.5 97 Q 52.31 95.67 51 99 Q 48.5 98.5 47.5 101 L 43 101 Q 41.88 98.33 44.5 99 L 47.5 97 Z " /><path fill="rgb(58,65,83)" stroke="rgb(58,65,83)" stroke-width="1" opacity="1" d="M 61.5 97 L 64 98 L 62.5 101 L 61 101 L 61.5 97 Z M 63 99 L 63 100 L 63 99 Z " /><path fill="rgb(58,65,83)" stroke="rgb(58,65,83)" stroke-width="1" opacity="1" d="M 71.5 97 L 72 100 Q 67.88 101.33 69 98 L 71.5 97 Z " /><path fill="rgb(58,65,83)" stroke="rgb(58,65,83)" stroke-width="1" opacity="1" d="M 41.5 102 L 45 102.5 L 41.5 103 L 41.5 102 Z " /><path fill="rgb(58,65,84)" stroke="rgb(58,65,84)" stroke-width="1" opacity="1" d="M 123 1 Q 126 -0.25 125 3.5 Q 127 4.5 125 5.5 L 125 123.5 L 123.5 127 L 122.5 126 L 0 126 L 0.5 124 L 122.5 124 L 122.5 123 L 0 123 L 0 10 L 123 9.5 L 0 9 L 0 4.5 L 0.5 4 L 123.5 4 L 123 2.5 L 123 1 Z M 124 10 L 123 123 L 124 123 L 124 10 Z M 43 31 L 41 34 L 48 35 L 42 35 L 40 38 L 39 38 Q 40 34 37 35 L 38 38 Q 37 40 40 39 Q 41 42 38 41 L 38 92 L 40 95 L 40 96 L 41 97 L 41 103 L 45 103 L 45 102 L 47 102 L 51 102 L 49 101 L 49 100 Q 51 100 51 100 L 51 82 L 61 82 L 51 81 L 62 80 L 63 83 L 63 92 L 61 92 L 62 96 L 66 96 L 65 97 Q 64 95 63 97 Q 59 96 61 101 L 64 102 L 63 101 L 65 98 L 65 100 L 68 100 L 68 99 L 69 99 L 69 100 L 72 100 L 72 98 L 69 93 L 69 82 L 82 82 L 71 81 L 72 78 L 72 80 L 85 80 L 89 78 Q 93 79 92 77 L 91 77 L 90 76 L 88 77 L 88 76 L 87 75 L 89 75 L 90 74 L 90 72 L 92 73 L 92 60 L 91 57 L 92 56 L 92 52 L 90 53 L 88 54 L 91 52 L 91 51 L 84 51 L 83 50 L 82 50 L 81 49 L 80 50 L 80 49 L 79 48 L 81 48 L 82 47 L 72 46 L 72 45 L 82 45 Q 82 45 82 41 L 92 41 L 91 40 Q 93 39 92 36 L 88 34 L 86 35 Q 87 32 91 32 L 88 31 Q 87 33 86 31 L 83 32 Q 82 35 85 34 L 85 35 L 82 34 L 83 32 L 43 31 Z M 92 32 L 89 34 L 91 34 L 92 35 L 92 32 Z M 38 39 L 37 41 L 38 41 L 38 39 Z M 33 41 L 33 92 Q 33 93 37 92 L 37 42 Q 37 41 33 41 Z M 86 46 L 86 47 L 86 46 Z M 82 48 L 82 49 L 82 48 Z M 84 48 L 84 49 L 84 48 Z M 85 49 L 85 50 L 86 50 L 85 49 Z M 92 74 L 92 75 L 92 74 Z M 91 75 L 91 76 L 91 75 Z M 91 79 Q 90 81 87 80 L 87 82 L 92 82 L 92 79 L 91 79 Z M 38 92 L 38 93 L 38 92 Z M 72 92 L 72 93 L 72 92 Z M 38 94 L 38 95 L 38 94 Z M 37 95 L 37 96 L 37 95 Z M 39 96 L 39 97 L 39 96 Z M 69 101 Q 67 102 70 103 L 72 102 L 69 101 Z " /><path fill="rgb(58,65,84)" stroke="rgb(58,65,84)" stroke-width="1" opacity="1" d="M 126.5 1 L 126.5 2 L 126.5 1 Z " /><path fill="rgb(58,65,84)" stroke="rgb(58,65,84)" stroke-width="1" opacity="1" d="M 47.5 32 L 51 32.5 L 47.5 33 L 47.5 32 Z " /><path fill="rgb(58,65,84)" stroke="rgb(58,65,84)" stroke-width="1" opacity="1" d="M 47.5 41 L 48 70.5 L 47 70.5 L 47.5 41 Z " /><path fill="rgb(58,65,84)" stroke="rgb(58,65,84)" stroke-width="1" opacity="1" d="M 51 41 L 61 41 L 61 44.5 Q 62.75 45.25 62 48.5 L 61 50.5 L 63 54.5 L 61 55 L 61 60.5 L 63 62.5 L 63 71 L 51 71 L 51 41 Z " /><path fill="rgb(58,65,84)" stroke="rgb(58,65,84)" stroke-width="1" opacity="1" d="M 64.5 41 L 70.5 42 L 72 41.5 L 70.5 44 Q 69.1 41.4 64.5 42 L 64.5 41 Z " /><path fill="rgb(58,65,84)" stroke="rgb(58,65,84)" stroke-width="1" opacity="1" d="M 66.5 46 L 71 47.5 L 67.5 48 L 66.5 47 L 65 47.5 L 66.5 46 Z " /><path fill="rgb(58,65,84)" stroke="rgb(58,65,84)" stroke-width="1" opacity="1" d="M 63.5 47 L 64 48.5 L 63 48.5 L 63.5 47 Z " /><path fill="rgb(58,65,84)" stroke="rgb(58,65,84)" stroke-width="1" opacity="1" d="M 72.5 48 L 78 48.5 L 72.5 49 L 72.5 48 Z " /><path fill="rgb(58,65,84)" stroke="rgb(58,65,84)" stroke-width="1" opacity="1" d="M 71.5 55 L 77 55.5 L 71.5 56 L 71.5 55 Z " /><path fill="rgb(58,65,84)" stroke="rgb(58,65,84)" stroke-width="1" opacity="1" d="M 71.5 57 L 82 57.5 L 72 58.5 L 82.5 59 L 83.5 58 L 86 60.5 Q 86.75 62.75 84.5 62 L 84 62.5 L 86 64.5 L 85 65.5 L 85.5 67 L 84.5 66 L 81 69.5 Q 81.75 71.75 79.5 71 Q 78.5 69 77.5 71 L 69 71 L 69 61.5 L 71 59.5 Q 68.75 58.25 71.5 57 Z M 84 59 L 84 60 L 84 59 Z M 72 60 L 73 62 L 82 62 L 83 65 L 84 64 Q 82 63 84 62 L 83 60 L 72 60 Z M 85 64 L 85 65 L 85 64 Z M 84 65 L 84 66 L 84 65 Z M 80 66 L 80 67 L 80 66 Z M 83 66 L 83 67 L 83 66 Z M 78 67 L 78 68 L 79 68 L 78 67 Z M 81 68 L 81 69 L 81 68 Z " /><path fill="rgb(58,65,84)" stroke="rgb(58,65,84)" stroke-width="1" opacity="1" d="M 83.5 76 L 83.5 77 L 83.5 76 Z " /><path fill="rgb(58,65,84)" stroke="rgb(58,65,84)" stroke-width="1" opacity="1" d="M 47 78 Q 51.13 76.33 50 80.5 L 49 80.5 L 48.5 79 L 47.5 92 L 47 78 Z " /><path fill="rgb(58,65,84)" stroke="rgb(58,65,84)" stroke-width="1" opacity="1" d="M 69.5 78 L 70 80.5 L 69 80.5 L 69.5 78 Z " /><path fill="rgb(58,65,84)" stroke="rgb(58,65,84)" stroke-width="1" opacity="1" d="M 48 93 L 50 93.5 Q 49 96 48 94.5 L 48 93 Z " /><path fill="rgb(58,65,84)" stroke="rgb(58,65,84)" stroke-width="1" opacity="1" d="M 43.5 95 L 44.5 96 L 46 95.5 L 47 97.5 L 45.5 97 L 43.5 96 L 42 96.5 L 43.5 95 Z " /><path fill="rgb(58,65,84)" stroke="rgb(58,65,84)" stroke-width="1" opacity="1" d="M 68.5 95 Q 71 96 69.5 97 L 67 96.5 L 68.5 95 Z " /><path fill="rgb(58,65,84)" stroke="rgb(58,65,84)" stroke-width="1" opacity="1" d="M 43.5 98 L 45 98.5 L 43.5 99 L 43.5 98 Z " /><path fill="rgb(253,254,253)" stroke="rgb(253,254,253)" stroke-width="1" opacity="1" d="M 42.5 37 L 43.5 40 L 45.5 37 L 46 38.5 L 43.5 41 L 42.5 40 L 41 39.5 L 42.5 37 Z " /><path fill="rgb(253,254,253)" stroke="rgb(253,254,253)" stroke-width="1" opacity="1" d="M 87.5 38 Q 90 39 88.5 40 Q 86 39 87.5 38 Z " /><path fill="rgb(253,254,253)" stroke="rgb(253,254,253)" stroke-width="1" opacity="1" d="M 66.5 51 Q 69 52 67.5 53 Q 65 52 66.5 51 Z " /><path fill="rgb(253,254,253)" stroke="rgb(253,254,253)" stroke-width="1" opacity="1" d="M 71.5 51 L 72 53 L 78 52.5 L 77.5 51 Q 80.5 52.5 77.5 54 Q 72.25 55.25 71 52.5 L 71.5 51 Z " /><path fill="rgb(253,254,253)" stroke="rgb(253,254,253)" stroke-width="1" opacity="1" d="M 80.5 51 Q 82.75 50.25 82 52.5 L 81.5 53 Q 79 52 80.5 51 Z " /><path fill="rgb(253,254,253)" stroke="rgb(253,254,253)" stroke-width="1" opacity="1" d="M 69.5 52 L 69.5 53 L 69.5 52 Z " /><path fill="rgb(253,254,253)" stroke="rgb(253,254,253)" stroke-width="1" opacity="1" d="M 84.5 53 L 89 56.5 L 90 59.5 L 89.5 61 L 91 61.5 L 90 63.5 Q 92 64.5 90 65.5 L 89.5 67 L 87 62.5 L 86.5 57 L 85.5 58 L 82 54.5 L 84.5 53 Z M 85 54 L 84 56 Q 85 58 86 57 L 85 54 Z M 88 56 L 88 57 L 88 56 Z " /><path fill="rgb(253,254,253)" stroke="rgb(253,254,253)" stroke-width="1" opacity="1" d="M 66.5 59 L 66.5 60 L 66.5 59 Z " /><path fill="rgb(253,254,253)" stroke="rgb(253,254,253)" stroke-width="1" opacity="1" d="M 86.5 68 L 87 70.5 L 86 70.5 L 86.5 68 Z " /><path fill="rgb(253,254,253)" stroke="rgb(253,254,253)" stroke-width="1" opacity="1" d="M 84.5 70 L 84 71.5 L 84.5 73 L 86.5 72 L 86.5 73 L 84.5 74 L 83.5 73 L 82 73.5 Q 80.88 70.17 83.5 71 L 84.5 70 Z " /><path fill="rgb(253,254,253)" stroke="rgb(253,254,253)" stroke-width="1" opacity="1" d="M 88.5 70 L 88.5 71 L 88.5 70 Z " /><path fill="rgb(253,254,253)" stroke="rgb(253,254,253)" stroke-width="1" opacity="1" d="M 44.5 72 Q 47 73 45.5 74 Q 43 73 44.5 72 Z " /><path fill="rgb(253,254,253)" stroke="rgb(253,254,253)" stroke-width="1" opacity="1" d="M 80.5 72 L 80.5 73 L 80.5 72 Z " /><path fill="rgb(253,254,253)" stroke="rgb(253,254,253)" stroke-width="1" opacity="1" d="M 62.5 73 L 65 74.5 L 62.5 76 L 61.5 75 L 51 74.5 L 61.5 74 L 62.5 73 Z " /><path fill="rgb(253,254,253)" stroke="rgb(253,254,253)" stroke-width="1" opacity="1" d="M 66.5 73 L 69 73.5 L 68 74.5 L 68.5 76 L 67.5 75 L 65.5 77 L 65 76.5 L 67 74.5 L 66.5 73 Z " /><path fill="rgb(253,254,253)" stroke="rgb(253,254,253)" stroke-width="1" opacity="1" d="M 42.5 74 L 45 75.5 Q 44 78 43 76.5 L 42.5 74 Z " /><path fill="rgb(253,254,253)" stroke="rgb(253,254,253)" stroke-width="1" opacity="1" d="M 77.5 74 L 77.5 75 L 77.5 74 Z " /><path fill="rgb(253,254,253)" stroke="rgb(253,254,253)" stroke-width="1" opacity="1" d="M 80.5 74 Q 82 75 79.5 76 Q 78 75 80.5 74 Z " /><path fill="rgb(253,254,253)" stroke="rgb(253,254,253)" stroke-width="1" opacity="1" d="M 43.5 81 L 43.5 82 L 43.5 81 Z " /><path fill="rgb(253,254,253)" stroke="rgb(253,254,253)" stroke-width="1" opacity="1" d="M 64.5 92 L 64.5 93 L 64.5 92 Z " /><path fill="rgb(253,254,253)" stroke="rgb(253,254,253)" stroke-width="1" opacity="1" d="M 66.5 92 L 66.5 93 L 66.5 92 Z " /><path fill="rgb(58,64,81)" stroke="rgb(58,64,81)" stroke-width="1" opacity="1" d="M 125.5 2 L 125.5 3 L 125.5 2 Z " /><path fill="rgb(58,64,81)" stroke="rgb(58,64,81)" stroke-width="1" opacity="1" d="M 0.5 3 L 123 3.5 L 0.5 4 L 0.5 3 Z " /><path fill="rgb(58,64,81)" stroke="rgb(58,64,81)" stroke-width="1" opacity="1" d="M 126.5 4 L 126.5 5 L 126.5 4 Z " /><path fill="rgb(58,64,81)" stroke="rgb(58,64,81)" stroke-width="1" opacity="1" d="M 42.5 31 L 83 31.5 L 42.5 32 L 42.5 31 Z " /><path fill="rgb(58,64,81)" stroke="rgb(58,64,81)" stroke-width="1" opacity="1" d="M 87.5 31 L 91 31.5 L 87.5 32 L 87.5 31 Z " /><path fill="rgb(58,64,81)" stroke="rgb(58,64,81)" stroke-width="1" opacity="1" d="M 91.5 36 L 92 38.5 L 91 38.5 L 91.5 36 Z " /><path fill="rgb(58,64,81)" stroke="rgb(58,64,81)" stroke-width="1" opacity="1" d="M 50.5 41 L 51 70.5 L 50 70.5 L 50.5 41 Z " /><path fill="rgb(58,64,81)" stroke="rgb(58,64,81)" stroke-width="1" opacity="1" d="M 62.5 44 L 62.5 45 L 62.5 44 Z " /><path fill="rgb(58,64,81)" stroke="rgb(58,64,81)" stroke-width="1" opacity="1" d="M 72.5 44 L 82 44.5 L 72.5 45 L 72.5 44 Z " /><path fill="rgb(58,64,81)" stroke="rgb(58,64,81)" stroke-width="1" opacity="1" d="M 61.5 49 L 62 50.5 L 61 50.5 L 61.5 49 Z " /><path fill="rgb(58,64,81)" stroke="rgb(58,64,81)" stroke-width="1" opacity="1" d="M 63.5 49 L 65 49.5 L 63.5 50 L 63.5 49 Z " /><path fill="rgb(58,64,81)" stroke="rgb(58,64,81)" stroke-width="1" opacity="1" d="M 66.5 49 L 77 49.5 L 66.5 50 L 66.5 49 Z " /><path fill="rgb(58,64,81)" stroke="rgb(58,64,81)" stroke-width="1" opacity="1" d="M 91.5 52 L 91.5 53 L 91.5 52 Z " /><path fill="rgb(58,64,81)" stroke="rgb(58,64,81)" stroke-width="1" opacity="1" d="M 89.5 54 L 91 54.5 L 89.5 55 L 89.5 54 Z " /><path fill="rgb(58,64,81)" stroke="rgb(58,64,81)" stroke-width="1" opacity="1" d="M 70.5 56 L 79 56.5 L 70.5 57 L 70.5 56 Z " /><path fill="rgb(58,64,81)" stroke="rgb(58,64,81)" stroke-width="1" opacity="1" d="M 80.5 56 L 80.5 57 L 80.5 56 Z " /><path fill="rgb(58,64,81)" stroke="rgb(58,64,81)" stroke-width="1" opacity="1" d="M 83.5 57 L 83.5 58 L 83.5 57 Z " /><path fill="rgb(58,64,81)" stroke="rgb(58,64,81)" stroke-width="1" opacity="1" d="M 72.5 60 L 82.5 60 Q 83.38 59.88 83 63.5 L 82 63.5 Q 82.25 60.75 81.5 61 L 72.5 61 L 72.5 60 Z " /><path fill="rgb(58,64,81)" stroke="rgb(58,64,81)" stroke-width="1" opacity="1" d="M 85.5 65 L 85.5 66 L 85.5 65 Z " /><path fill="rgb(58,64,81)" stroke="rgb(58,64,81)" stroke-width="1" opacity="1" d="M 84.5 67 L 85 67.5 L 82.5 70 L 82 69.5 L 84.5 67 Z " /><path fill="rgb(58,64,81)" stroke="rgb(58,64,81)" stroke-width="1" opacity="1" d="M 90.5 69 L 91 72 L 89 71.5 L 90.5 69 Z " /><path fill="rgb(58,64,81)" stroke="rgb(58,64,81)" stroke-width="1" opacity="1" d="M 87.5 73 L 89 73.5 L 87 74.5 L 87.5 76 L 85 75.5 L 87.5 73 Z " /><path fill="rgb(58,64,81)" stroke="rgb(58,64,81)" stroke-width="1" opacity="1" d="M 46 77 L 63 77.5 L 51.5 78 L 50.5 79 L 47.5 78 L 46 78.5 L 46 77 Z " /><path fill="rgb(58,64,81)" stroke="rgb(58,64,81)" stroke-width="1" opacity="1" d="M 69.5 77 L 82 77.5 L 69.5 78 L 69.5 77 Z " /><path fill="rgb(58,64,81)" stroke="rgb(58,64,81)" stroke-width="1" opacity="1" d="M 51.5 81 L 61 81.5 L 51 82 L 50.5 92 L 50 82.5 L 51.5 81 Z " /><path fill="rgb(58,64,81)" stroke="rgb(58,64,81)" stroke-width="1" opacity="1" d="M 72.5 81 L 82 81.5 L 72.5 82 L 72.5 81 Z " /><path fill="rgb(58,64,81)" stroke="rgb(58,64,81)" stroke-width="1" opacity="1" d="M 46 92 Q 48.67 90.88 48 93.5 Q 47 96 46 94.5 L 46 92 Z " /><path fill="rgb(58,64,81)" stroke="rgb(58,64,81)" stroke-width="1" opacity="1" d="M 62.5 92 L 63 93.5 L 62 93.5 L 62.5 92 Z " /><path fill="rgb(58,64,81)" stroke="rgb(58,64,81)" stroke-width="1" opacity="1" d="M 68.5 94 Q 70 95 67.5 96 L 66 95.5 L 68.5 94 Z " /><path fill="rgb(58,64,81)" stroke="rgb(58,64,81)" stroke-width="1" opacity="1" d="M 41.5 95 L 43 95.5 L 41.5 96 L 41.5 95 Z " /><path fill="rgb(58,64,81)" stroke="rgb(58,64,81)" stroke-width="1" opacity="1" d="M 49.5 99 L 51 99.5 L 49.5 100 L 49.5 99 Z " /><path fill="rgb(58,64,81)" stroke="rgb(58,64,81)" stroke-width="1" opacity="1" d="M 62.5 99 L 62.5 100 L 62.5 99 Z " /><path fill="rgb(58,64,81)" stroke="rgb(58,64,81)" stroke-width="1" opacity="1" d="M 41 100 L 45 101.5 L 41 102 L 41 100 Z " /><path fill="rgb(58,64,81)" stroke="rgb(58,64,81)" stroke-width="1" opacity="1" d="M 126.5 123 L 127 126.5 L 126 126.5 L 126.5 123 Z " /><path fill="rgb(58,64,81)" stroke="rgb(58,64,81)" stroke-width="1" opacity="1" d="M 124.5 124 L 124.5 125 L 124.5 124 Z " /><path fill="rgb(58,64,81)" stroke="rgb(58,64,81)" stroke-width="1" opacity="1" d="M 0.5 126 L 123 126.5 L 0.5 127 L 0.5 126 Z " /><path fill="rgb(58,64,81)" stroke="rgb(58,64,81)" stroke-width="1" opacity="1" d="M 124.5 126 L 124.5 127 L 124.5 126 Z " /><path fill="rgb(254,254,254)" stroke="rgb(254,254,254)" stroke-width="1" opacity="1" d="M 82.5 37 L 82.5 38 L 82.5 37 Z " /><path fill="rgb(254,254,254)" stroke="rgb(254,254,254)" stroke-width="1" opacity="1" d="M 43.5 38 L 43.5 39 L 43.5 38 Z " /><path fill="rgb(254,254,254)" stroke="rgb(254,254,254)" stroke-width="1" opacity="1" d="M 85.5 39 L 85.5 40 L 85.5 39 Z " /><path fill="rgb(254,254,254)" stroke="rgb(254,254,254)" stroke-width="1" opacity="1" d="M 41.5 41 L 42 70.5 L 41 70.5 L 41.5 41 Z " /><path fill="rgb(254,254,254)" stroke="rgb(254,254,254)" stroke-width="1" opacity="1" d="M 44.5 41 L 45 70.5 L 44 70.5 L 44.5 41 Z " /><path fill="rgb(254,254,254)" stroke="rgb(254,254,254)" stroke-width="1" opacity="1" d="M 68.5 51 L 68.5 52 L 68.5 51 Z " /><path fill="rgb(254,254,254)" stroke="rgb(254,254,254)" stroke-width="1" opacity="1" d="M 70.5 51 L 71.5 53 Q 72.75 50.75 77.5 52 L 77.5 53 Q 72.75 51.75 71.5 54 Q 69.13 53.13 70.5 51 Z " /><path fill="rgb(254,254,254)" stroke="rgb(254,254,254)" stroke-width="1" opacity="1" d="M 79.5 52 L 79.5 53 L 79.5 52 Z " /><path fill="rgb(254,254,254)" stroke="rgb(254,254,254)" stroke-width="1" opacity="1" d="M 83.5 52 L 83.5 53 L 83.5 52 Z " /><path fill="rgb(254,254,254)" stroke="rgb(254,254,254)" stroke-width="1" opacity="1" d="M 68.5 53 L 68.5 54 L 68.5 53 Z " /><path fill="rgb(254,254,254)" stroke="rgb(254,254,254)" stroke-width="1" opacity="1" d="M 65.5 57 L 66 58.5 L 65 58.5 L 65.5 57 Z " /><path fill="rgb(254,254,254)" stroke="rgb(254,254,254)" stroke-width="1" opacity="1" d="M 86.5 57 L 86.5 58 L 86.5 57 Z " /><path fill="rgb(254,254,254)" stroke="rgb(254,254,254)" stroke-width="1" opacity="1" d="M 66.5 60 L 66.5 61 L 66.5 60 Z " /><path fill="rgb(254,254,254)" stroke="rgb(254,254,254)" stroke-width="1" opacity="1" d="M 87.5 66 L 90 67.5 L 88.5 67 Q 86.13 66.88 87.5 66 Z " /><path fill="rgb(254,254,254)" stroke="rgb(254,254,254)" stroke-width="1" opacity="1" d="M 85.5 70 L 85.5 71 L 85.5 70 Z " /><path fill="rgb(254,254,254)" stroke="rgb(254,254,254)" stroke-width="1" opacity="1" d="M 43.5 72 Q 45 73 42.5 74 Q 41 73 43.5 72 Z " /><path fill="rgb(254,254,254)" stroke="rgb(254,254,254)" stroke-width="1" opacity="1" d="M 63.5 73 L 63.5 74 L 63.5 73 Z " /><path fill="rgb(254,254,254)" stroke="rgb(254,254,254)" stroke-width="1" opacity="1" d="M 79.5 73 L 79.5 74 L 79.5 73 Z " /><path fill="rgb(254,254,254)" stroke="rgb(254,254,254)" stroke-width="1" opacity="1" d="M 81.5 73 L 81.5 74 L 81.5 73 Z " /><path fill="rgb(254,254,254)" stroke="rgb(254,254,254)" stroke-width="1" opacity="1" d="M 83.5 73 L 83.5 74 L 83.5 73 Z " /><path fill="rgb(254,254,254)" stroke="rgb(254,254,254)" stroke-width="1" opacity="1" d="M 45.5 74 L 45.5 75 L 45.5 74 Z " /><path fill="rgb(254,254,254)" stroke="rgb(254,254,254)" stroke-width="1" opacity="1" d="M 49.5 74 L 51 74.5 L 49.5 75 L 49.5 74 Z " /><path fill="rgb(254,254,254)" stroke="rgb(254,254,254)" stroke-width="1" opacity="1" d="M 78.5 75 L 78.5 76 L 78.5 75 Z " /><path fill="rgb(254,254,254)" stroke="rgb(254,254,254)" stroke-width="1" opacity="1" d="M 44.5 76 L 44.5 77 L 44.5 76 Z " /><path fill="rgb(254,254,254)" stroke="rgb(254,254,254)" stroke-width="1" opacity="1" d="M 43.5 80 L 43.5 81 L 43.5 80 Z " /><path fill="rgb(254,254,254)" stroke="rgb(254,254,254)" stroke-width="1" opacity="1" d="M 41.5 82 L 42 92.5 L 41 92.5 L 41.5 82 Z " /><path fill="rgb(254,254,254)" stroke="rgb(254,254,254)" stroke-width="1" opacity="1" d="M 44.5 82 L 45 91.5 L 44 91.5 L 44.5 82 Z " /><path fill="rgb(254,254,254)" stroke="rgb(254,254,254)" stroke-width="1" opacity="1" d="M 65.5 92 L 65.5 93 L 65.5 92 Z " /><path fill="rgb(57,64,86)" stroke="rgb(57,64,86)" stroke-width="1" opacity="1" d="M 0.5 9 L 122.5 9 L 124 10.5 L 124 122.5 L 122.5 124 L 0 123.5 L 123 123 L 123 10 L 0.5 10 L 0.5 9 Z " /><path fill="rgb(57,64,86)" stroke="rgb(57,64,86)" stroke-width="1" opacity="1" d="M 85.5 31 L 87 33.5 Q 85.75 36.25 84.5 34 Q 81.88 34.67 83 32 L 85.5 31 Z " /><path fill="rgb(57,64,86)" stroke="rgb(57,64,86)" stroke-width="1" opacity="1" d="M 41 32 L 50.5 33 L 51.5 32 L 82 32 L 81.5 34 L 41 34 L 41 32 Z " /><path fill="rgb(57,64,86)" stroke="rgb(57,64,86)" stroke-width="1" opacity="1" d="M 91.5 32 L 92 34.5 L 90.5 34 L 89 33.5 L 91.5 32 Z " /><path fill="rgb(57,64,86)" stroke="rgb(57,64,86)" stroke-width="1" opacity="1" d="M 91.5 40 L 91.5 41 L 91.5 40 Z " /><path fill="rgb(57,64,86)" stroke="rgb(57,64,86)" stroke-width="1" opacity="1" d="M 33 41 Q 36.88 40.5 37 41.5 L 37 92 Q 33.12 92.5 33 91.5 L 33 41 Z " /><path fill="rgb(57,64,86)" stroke="rgb(57,64,86)" stroke-width="1" opacity="1" d="M 48 41 L 50 41.5 L 50 71 L 48 70.5 L 48 41 Z " /><path fill="rgb(57,64,86)" stroke="rgb(57,64,86)" stroke-width="1" opacity="1" d="M 68.5 41 L 71 41.5 L 68.5 42 L 68.5 41 Z " /><path fill="rgb(57,64,86)" stroke="rgb(57,64,86)" stroke-width="1" opacity="1" d="M 62.5 46 L 65 46.5 L 62.5 47 L 62.5 46 Z " /><path fill="rgb(57,64,86)" stroke="rgb(57,64,86)" stroke-width="1" opacity="1" d="M 67.5 46 L 80.5 46 L 81 47.5 L 79.5 47 L 78.5 48 L 71.5 48 Q 70.75 46.25 67.5 47 L 66 47.5 L 67.5 46 Z " /><path fill="rgb(57,64,86)" stroke="rgb(57,64,86)" stroke-width="1" opacity="1" d="M 87.5 51 L 91 51.5 L 88.5 53 Q 86 52 87.5 51 Z " /><path fill="rgb(57,64,86)" stroke="rgb(57,64,86)" stroke-width="1" opacity="1" d="M 91.5 57 L 91.5 58 L 91.5 57 Z " /><path fill="rgb(57,64,86)" stroke="rgb(57,64,86)" stroke-width="1" opacity="1" d="M 72.5 58 L 82 58.5 L 72.5 59 L 72.5 58 Z " /><path fill="rgb(57,64,86)" stroke="rgb(57,64,86)" stroke-width="1" opacity="1" d="M 69.5 59 L 71 59.5 L 69.5 60 L 69.5 59 Z " /><path fill="rgb(57,64,86)" stroke="rgb(57,64,86)" stroke-width="1" opacity="1" d="M 85.5 62 L 85.5 63 L 85.5 62 Z " /><path fill="rgb(57,64,86)" stroke="rgb(57,64,86)" stroke-width="1" opacity="1" d="M 83.5 63 Q 85 64 82.5 65 Q 81 64 83.5 63 Z " /><path fill="rgb(57,64,86)" stroke="rgb(57,64,86)" stroke-width="1" opacity="1" d="M 82.5 66 L 82.5 67 L 82.5 66 Z " /><path fill="rgb(57,64,86)" stroke="rgb(57,64,86)" stroke-width="1" opacity="1" d="M 91.5 71 L 92 72.5 L 91 72.5 L 91.5 71 Z " /><path fill="rgb(57,64,86)" stroke="rgb(57,64,86)" stroke-width="1" opacity="1" d="M 91.5 74 L 91 75.5 L 92 76.5 Q 92.87 79.5 88.5 78 L 84.5 80 L 72 80 L 72.5 78 L 85.5 78 L 86.5 77 L 91 76.5 Q 88.75 75.25 91.5 74 Z " /><path fill="rgb(57,64,86)" stroke="rgb(57,64,86)" stroke-width="1" opacity="1" d="M 51 78 L 62.5 78 Q 63.38 77.88 63 81.5 L 62 81.5 L 61.5 80 L 51.5 80 L 51 78 Z " /><path fill="rgb(57,64,86)" stroke="rgb(57,64,86)" stroke-width="1" opacity="1" d="M 48.5 79 L 49 80.5 L 48 80.5 L 48.5 79 Z " /><path fill="rgb(57,64,86)" stroke="rgb(57,64,86)" stroke-width="1" opacity="1" d="M 48 82 L 50 82.5 L 50 92 L 48 91.5 L 48 82 Z " /><path fill="rgb(57,64,86)" stroke="rgb(57,64,86)" stroke-width="1" opacity="1" d="M 71.5 92 L 71.5 93 L 71.5 92 Z " /><path fill="rgb(57,64,86)" stroke="rgb(57,64,86)" stroke-width="1" opacity="1" d="M 50.5 93 L 51 97 L 46 97 L 46 95 Q 49.42 95.75 50.5 93 Z " /><path fill="rgb(57,64,86)" stroke="rgb(57,64,86)" stroke-width="1" opacity="1" d="M 62.5 95 Q 64 98.5 65.5 96 L 69 97.5 L 68 100 L 65 100 L 65 98.5 L 62 95.5 L 62.5 95 Z " /><path fill="rgb(57,64,86)" stroke="rgb(57,64,86)" stroke-width="1" opacity="1" d="M 70.5 95 L 70.5 96 L 70.5 95 Z " /><path fill="rgb(57,64,86)" stroke="rgb(57,64,86)" stroke-width="1" opacity="1" d="M 41.5 96 Q 42.5 98 43.5 96 L 45 97.5 L 41 98 L 41.5 96 Z " /><path fill="rgb(57,64,86)" stroke="rgb(57,64,86)" stroke-width="1" opacity="1" d="M 46.5 101 L 51 101.5 L 46.5 102 L 46.5 101 Z " /><path fill="rgb(57,64,86)" stroke="rgb(57,64,86)" stroke-width="1" opacity="1" d="M 62.5 101 L 64 101.5 L 62.5 102 L 62.5 101 Z " /><path fill="rgb(57,64,86)" stroke="rgb(57,64,86)" stroke-width="1" opacity="1" d="M 68.5 101 L 72 101.5 L 69.5 103 Q 67 102 68.5 101 Z " /><path fill="rgb(249,250,251)" stroke="rgb(249,250,251)" stroke-width="1" opacity="1" d="M 89.5 37 L 90 39.5 L 89 39.5 L 89.5 37 Z " /><path fill="rgb(249,250,251)" stroke="rgb(249,250,251)" stroke-width="1" opacity="1" d="M 82.5 51 L 82.5 52 L 82.5 51 Z " /><path fill="rgb(249,250,251)" stroke="rgb(249,250,251)" stroke-width="1" opacity="1" d="M 84.5 52 Q 86 53 83.5 54 L 82 53.5 L 84.5 52 Z " /><path fill="rgb(249,250,251)" stroke="rgb(249,250,251)" stroke-width="1" opacity="1" d="M 67.5 53 L 67.5 54 L 67.5 53 Z " /><path fill="rgb(249,250,251)" stroke="rgb(249,250,251)" stroke-width="1" opacity="1" d="M 86.5 53 L 86.5 54 L 86.5 53 Z " /><path fill="rgb(249,250,251)" stroke="rgb(249,250,251)" stroke-width="1" opacity="1" d="M 79.5 54 L 79.5 55 L 79.5 54 Z " /><path fill="rgb(249,250,251)" stroke="rgb(249,250,251)" stroke-width="1" opacity="1" d="M 88.5 55 L 88.5 56 L 88.5 55 Z " /><path fill="rgb(249,250,251)" stroke="rgb(249,250,251)" stroke-width="1" opacity="1" d="M 89.5 57 L 89.5 58 L 89.5 57 Z " /><path fill="rgb(249,250,251)" stroke="rgb(249,250,251)" stroke-width="1" opacity="1" d="M 86.5 58 L 86.5 59 L 86.5 58 Z " /><path fill="rgb(249,250,251)" stroke="rgb(249,250,251)" stroke-width="1" opacity="1" d="M 89.5 60 L 89.5 61 L 89.5 60 Z " /><path fill="rgb(249,250,251)" stroke="rgb(249,250,251)" stroke-width="1" opacity="1" d="M 90.5 66 L 90.5 67 L 90.5 66 Z " /><path fill="rgb(249,250,251)" stroke="rgb(249,250,251)" stroke-width="1" opacity="1" d="M 86.5 67 Q 89.5 66.5 90 68.5 Q 89 71 88 69.5 L 88.5 68 Q 85.5 68.5 86.5 67 Z " /><path fill="rgb(249,250,251)" stroke="rgb(249,250,251)" stroke-width="1" opacity="1" d="M 81.5 71 L 81.5 72 L 81.5 71 Z " /><path fill="rgb(249,250,251)" stroke="rgb(249,250,251)" stroke-width="1" opacity="1" d="M 85.5 71 L 85.5 72 L 85.5 71 Z " /><path fill="rgb(249,250,251)" stroke="rgb(249,250,251)" stroke-width="1" opacity="1" d="M 63.5 72 L 63.5 73 L 63.5 72 Z " /><path fill="rgb(249,250,251)" stroke="rgb(249,250,251)" stroke-width="1" opacity="1" d="M 67.5 72 L 67.5 73 L 67.5 72 Z " /><path fill="rgb(249,250,251)" stroke="rgb(249,250,251)" stroke-width="1" opacity="1" d="M 85.5 73 L 85.5 74 L 85.5 73 Z " /><path fill="rgb(249,250,251)" stroke="rgb(249,250,251)" stroke-width="1" opacity="1" d="M 78.5 74 L 78.5 75 L 78.5 74 Z " /><path fill="rgb(249,250,251)" stroke="rgb(249,250,251)" stroke-width="1" opacity="1" d="M 82.5 74 L 82.5 75 L 82.5 74 Z " /><path fill="rgb(249,250,251)" stroke="rgb(249,250,251)" stroke-width="1" opacity="1" d="M 80.5 75 L 80.5 76 L 80.5 75 Z " /><path fill="rgb(249,250,251)" stroke="rgb(249,250,251)" stroke-width="1" opacity="1" d="M 67.5 76 L 67.5 77 L 67.5 76 Z " /><path fill="rgb(249,250,251)" stroke="rgb(249,250,251)" stroke-width="1" opacity="1" d="M 41.5 93 L 45 93.5 L 41.5 94 L 41.5 93 Z " /><path fill="rgb(249,250,251)" stroke="rgb(249,250,251)" stroke-width="1" opacity="1" d="M 64.5 93 L 67 93.5 L 64.5 94 L 64.5 93 Z " /><path fill="rgb(255,255,255)" stroke="rgb(255,255,255)" stroke-width="1" opacity="1" d="M 41.5 37 L 42 38.5 L 41 38.5 L 41.5 37 Z " /><path fill="rgb(255,255,255)" stroke="rgb(255,255,255)" stroke-width="1" opacity="1" d="M 43.5 37 L 45 37.5 L 43.5 38 L 43.5 37 Z " /><path fill="rgb(255,255,255)" stroke="rgb(255,255,255)" stroke-width="1" opacity="1" d="M 46 37 L 81.5 37 L 82.5 38 L 83.5 37 L 89 37 L 87.5 40 L 85.5 39 L 84.5 40 L 45.5 40 L 44 41.5 L 44 70.5 L 45 71.5 L 43 72.5 L 45 73 L 45.5 75 L 46 73 L 62 73.5 L 49 74.5 L 62 75.5 L 45.5 76 L 42.5 73 L 42 73.5 L 43 77 Q 46.67 75.65 45 81.5 L 44 82.5 L 44 91.5 L 44.5 93 Q 41.75 93.25 42 92.5 L 42 82.5 L 41 81.5 L 41 71.5 L 42 70.5 L 42 41.5 L 41.5 40 L 43.5 39 Q 44.75 41.25 46 38.5 L 46 37 Z M 88 38 L 88 39 L 88 38 Z M 44 40 L 44 41 L 44 40 Z M 44 80 L 43 82 L 44 82 L 44 80 Z " /><path fill="rgb(255,255,255)" stroke="rgb(255,255,255)" stroke-width="1" opacity="1" d="M 64 51 L 66.5 52 L 67.5 51 L 68.5 52 L 70 51.5 L 69.5 53 L 71 53.5 L 69.5 54 L 67.5 52 L 67 52.5 L 68 54.5 L 66 60.5 L 67 61.5 L 67 72.5 Q 64.75 73.75 67.5 75 L 69.5 73 L 78.5 73 L 79.5 74 L 81.5 72 L 82 72.5 L 81 73.5 L 81.5 75 L 78.5 74 L 77 74.5 L 77.5 76 L 69.5 76 L 68.5 75 L 67 76.5 L 67 92 Q 64.04 92.38 64 91.5 L 64 76.5 L 63.5 75 L 65 74.5 L 64 73.5 L 64 51 Z M 66 57 L 65 59 L 66 59 L 66 57 Z M 67 75 L 67 76 L 67 75 Z M 66 76 L 66 77 L 66 76 Z " /><path fill="rgb(255,255,255)" stroke="rgb(255,255,255)" stroke-width="1" opacity="1" d="M 72.5 51 L 77 51.5 L 72.5 52 L 72.5 51 Z " /><path fill="rgb(255,255,255)" stroke="rgb(255,255,255)" stroke-width="1" opacity="1" d="M 78.5 51 L 81.5 53 L 83 52.5 L 82 55 L 78 53.5 L 80 52.5 L 78 51.5 L 78.5 51 Z " /><path fill="rgb(255,255,255)" stroke="rgb(255,255,255)" stroke-width="1" opacity="1" d="M 85.5 53 Q 88.25 54.25 86 55.5 L 85.5 57 L 84 54.5 L 85.5 53 Z M 86 54 L 86 55 L 86 54 Z " /><path fill="rgb(255,255,255)" stroke="rgb(255,255,255)" stroke-width="1" opacity="1" d="M 87.5 56 L 87.5 57 L 87.5 56 Z " /><path fill="rgb(255,255,255)" stroke="rgb(255,255,255)" stroke-width="1" opacity="1" d="M 90.5 60 L 90.5 61 L 90.5 60 Z " /><path fill="rgb(255,255,255)" stroke="rgb(255,255,255)" stroke-width="1" opacity="1" d="M 90.5 62 L 91 63.5 L 90 63.5 L 90.5 62 Z " /><path fill="rgb(255,255,255)" stroke="rgb(255,255,255)" stroke-width="1" opacity="1" d="M 87.5 63 L 89 65.5 L 87 66 L 87.5 63 Z " /><path fill="rgb(255,255,255)" stroke="rgb(255,255,255)" stroke-width="1" opacity="1" d="M 90.5 65 L 90.5 66 L 90.5 65 Z " /><path fill="rgb(255,255,255)" stroke="rgb(255,255,255)" stroke-width="1" opacity="1" d="M 87 68 L 89 68.5 L 86.5 72 L 87 70.5 L 87 68 Z " /><path fill="rgb(255,255,255)" stroke="rgb(255,255,255)" stroke-width="1" opacity="1" d="M 85.5 69 L 85.5 70 L 85.5 69 Z " /><path fill="rgb(255,255,255)" stroke="rgb(255,255,255)" stroke-width="1" opacity="1" d="M 84.5 71 L 85 72.5 L 84 72.5 L 84.5 71 Z " /><path fill="rgb(255,255,255)" stroke="rgb(255,255,255)" stroke-width="1" opacity="1" d="M 83.5 74 L 83.5 75 L 83.5 74 Z " /><path fill="rgb(180,183,189)" stroke="rgb(180,183,189)" stroke-width="1" opacity="1" d="M 46.5 40 L 90 40.5 L 46.5 41 L 46.5 40 Z " /><path fill="rgb(180,183,189)" stroke="rgb(180,183,189)" stroke-width="1" opacity="1" d="M 64.5 50 L 81 50.5 L 64 51 L 63.5 71 L 63 51.5 L 64.5 50 Z " /><path fill="rgb(180,183,189)" stroke="rgb(180,183,189)" stroke-width="1" opacity="1" d="M 83.5 51 L 83.5 52 L 83.5 51 Z " /><path fill="rgb(180,183,189)" stroke="rgb(180,183,189)" stroke-width="1" opacity="1" d="M 85.5 52 L 85.5 53 L 85.5 52 Z " /><path fill="rgb(180,183,189)" stroke="rgb(180,183,189)" stroke-width="1" opacity="1" d="M 81.5 55 L 81.5 56 L 81.5 55 Z " /><path fill="rgb(180,183,189)" stroke="rgb(180,183,189)" stroke-width="1" opacity="1" d="M 89.5 56 L 89.5 57 L 89.5 56 Z " /><path fill="rgb(180,183,189)" stroke="rgb(180,183,189)" stroke-width="1" opacity="1" d="M 85.5 58 L 85.5 59 L 85.5 58 Z " /><path fill="rgb(180,183,189)" stroke="rgb(180,183,189)" stroke-width="1" opacity="1" d="M 90.5 58 L 90.5 59 L 90.5 58 Z " /><path fill="rgb(180,183,189)" stroke="rgb(180,183,189)" stroke-width="1" opacity="1" d="M 86.5 60 L 86.5 61 L 86.5 60 Z " /><path fill="rgb(180,183,189)" stroke="rgb(180,183,189)" stroke-width="1" opacity="1" d="M 86.5 65 L 86.5 66 L 86.5 65 Z " /><path fill="rgb(180,183,189)" stroke="rgb(180,183,189)" stroke-width="1" opacity="1" d="M 90.5 67 L 90.5 68 L 90.5 67 Z " /><path fill="rgb(180,183,189)" stroke="rgb(180,183,189)" stroke-width="1" opacity="1" d="M 45.5 71 L 45.5 72 L 45.5 71 Z " /><path fill="rgb(180,183,189)" stroke="rgb(180,183,189)" stroke-width="1" opacity="1" d="M 79.5 71 L 79.5 72 L 79.5 71 Z " /><path fill="rgb(180,183,189)" stroke="rgb(180,183,189)" stroke-width="1" opacity="1" d="M 88.5 71 L 89 71.5 L 86.5 74 L 86 73.5 L 88.5 71 Z " /><path fill="rgb(180,183,189)" stroke="rgb(180,183,189)" stroke-width="1" opacity="1" d="M 82.5 75 L 82.5 76 L 82.5 75 Z " /><path fill="rgb(180,183,189)" stroke="rgb(180,183,189)" stroke-width="1" opacity="1" d="M 46.5 76 L 62.5 76 L 64 77.5 L 63.5 94 L 63 77 L 46.5 77 L 46.5 76 Z " /><path fill="rgb(180,183,189)" stroke="rgb(180,183,189)" stroke-width="1" opacity="1" d="M 68.5 76 L 79 76.5 L 68.5 77 L 68.5 76 Z " /><path fill="rgb(116,120,132)" stroke="rgb(116,120,132)" stroke-width="1" opacity="1" d="M 127.5 0 L 128 127.5 L 127 127.5 L 127.5 0 Z " /><path fill="rgb(116,120,132)" stroke="rgb(116,120,132)" stroke-width="1" opacity="1" d="M 90.5 37 L 91 39.5 L 90 39.5 L 90.5 37 Z " /><path fill="rgb(116,120,132)" stroke="rgb(116,120,132)" stroke-width="1" opacity="1" d="M 45.5 41 L 46 71 L 63 71.5 L 46.5 72 L 45 70.5 L 45.5 41 Z " /><path fill="rgb(116,120,132)" stroke="rgb(116,120,132)" stroke-width="1" opacity="1" d="M 63.5 50 L 63.5 51 L 63.5 50 Z " /><path fill="rgb(116,120,132)" stroke="rgb(116,120,132)" stroke-width="1" opacity="1" d="M 81.5 50 L 81.5 51 L 81.5 50 Z " /><path fill="rgb(116,120,132)" stroke="rgb(116,120,132)" stroke-width="1" opacity="1" d="M 88.5 54 L 88.5 55 L 88.5 54 Z " /><path fill="rgb(116,120,132)" stroke="rgb(116,120,132)" stroke-width="1" opacity="1" d="M 80.5 55 L 80.5 56 L 80.5 55 Z " /><path fill="rgb(116,120,132)" stroke="rgb(116,120,132)" stroke-width="1" opacity="1" d="M 82.5 56 L 82.5 57 L 82.5 56 Z " /><path fill="rgb(116,120,132)" stroke="rgb(116,120,132)" stroke-width="1" opacity="1" d="M 84.5 57 L 84.5 58 L 84.5 57 Z " /><path fill="rgb(116,120,132)" stroke="rgb(116,120,132)" stroke-width="1" opacity="1" d="M 91.5 60 L 92 64.5 L 91 64.5 L 91.5 60 Z " /><path fill="rgb(116,120,132)" stroke="rgb(116,120,132)" stroke-width="1" opacity="1" d="M 86.5 61 L 87 64.5 L 86 64.5 L 86.5 61 Z " /><path fill="rgb(116,120,132)" stroke="rgb(116,120,132)" stroke-width="1" opacity="1" d="M 85.5 67 Q 87 68 84.5 69 Q 83 68 85.5 67 Z " /><path fill="rgb(116,120,132)" stroke="rgb(116,120,132)" stroke-width="1" opacity="1" d="M 82.5 70 L 82.5 71 L 82.5 70 Z " /><path fill="rgb(116,120,132)" stroke="rgb(116,120,132)" stroke-width="1" opacity="1" d="M 89.5 70 L 89.5 71 L 89.5 70 Z " /><path fill="rgb(116,120,132)" stroke="rgb(116,120,132)" stroke-width="1" opacity="1" d="M 68.5 71 L 79 71.5 L 68.5 72 L 68.5 71 Z " /><path fill="rgb(116,120,132)" stroke="rgb(116,120,132)" stroke-width="1" opacity="1" d="M 83.5 75 L 83.5 76 L 83.5 75 Z " /><path fill="rgb(116,120,132)" stroke="rgb(116,120,132)" stroke-width="1" opacity="1" d="M 79.5 76 L 79.5 77 L 79.5 76 Z " /><path fill="rgb(116,120,132)" stroke="rgb(116,120,132)" stroke-width="1" opacity="1" d="M 45.5 77 L 46 93.5 Q 45.25 95.75 41.5 95 L 41.5 94 Q 45.13 94.38 45 93.5 L 45.5 77 Z " /><path fill="rgb(116,120,132)" stroke="rgb(116,120,132)" stroke-width="1" opacity="1" d="M 64.5 94 L 67 94.5 L 64.5 95 L 64.5 94 Z " /><path fill="rgb(225,226,230)" stroke="rgb(225,226,230)" stroke-width="1" opacity="1" d="M 41.5 36 L 90 36.5 L 41.5 37 L 41.5 36 Z " /><path fill="rgb(225,226,230)" stroke="rgb(225,226,230)" stroke-width="1" opacity="1" d="M 45.5 40 L 45.5 41 L 45.5 40 Z " /><path fill="rgb(225,226,230)" stroke="rgb(225,226,230)" stroke-width="1" opacity="1" d="M 68.5 54 L 79 54.5 L 68 55 L 68 72 L 79.5 72 L 81 71.5 L 79.5 73 L 68.5 73 L 67 71.5 L 67 55.5 L 68.5 54 Z " /><path fill="rgb(225,226,230)" stroke="rgb(225,226,230)" stroke-width="1" opacity="1" d="M 87.5 54 L 87.5 55 L 87.5 54 Z " /><path fill="rgb(225,226,230)" stroke="rgb(225,226,230)" stroke-width="1" opacity="1" d="M 82.5 55 Q 85 56 83.5 57 Q 81 56 82.5 55 Z " /><path fill="rgb(225,226,230)" stroke="rgb(225,226,230)" stroke-width="1" opacity="1" d="M 86.5 59 L 86.5 60 L 86.5 59 Z " /><path fill="rgb(225,226,230)" stroke="rgb(225,226,230)" stroke-width="1" opacity="1" d="M 90.5 59 L 90.5 60 L 90.5 59 Z " /><path fill="rgb(225,226,230)" stroke="rgb(225,226,230)" stroke-width="1" opacity="1" d="M 86.5 66 L 86.5 67 L 86.5 66 Z " /><path fill="rgb(225,226,230)" stroke="rgb(225,226,230)" stroke-width="1" opacity="1" d="M 85.5 68 L 86 68.5 L 83.5 71 L 83 70.5 L 85.5 68 Z " /><path fill="rgb(225,226,230)" stroke="rgb(225,226,230)" stroke-width="1" opacity="1" d="M 89.5 69 L 89.5 70 L 89.5 69 Z " /><path fill="rgb(225,226,230)" stroke="rgb(225,226,230)" stroke-width="1" opacity="1" d="M 63.5 71 Q 65 72 62.5 73 L 45 72.5 L 62.5 72 L 63.5 71 Z " /><path fill="rgb(225,226,230)" stroke="rgb(225,226,230)" stroke-width="1" opacity="1" d="M 87.5 71 L 87.5 72 L 87.5 71 Z " /><path fill="rgb(225,226,230)" stroke="rgb(225,226,230)" stroke-width="1" opacity="1" d="M 84.5 74 L 84.5 75 L 84.5 74 Z " /><path fill="rgb(225,226,230)" stroke="rgb(225,226,230)" stroke-width="1" opacity="1" d="M 81.5 75 L 81.5 76 L 81.5 75 Z " /><path fill="rgb(225,226,230)" stroke="rgb(225,226,230)" stroke-width="1" opacity="1" d="M 45.5 76 L 45.5 77 L 45.5 76 Z " /><path fill="rgb(225,226,230)" stroke="rgb(225,226,230)" stroke-width="1" opacity="1" d="M 63.5 76 L 63.5 77 L 63.5 76 Z " /><path fill="rgb(225,226,230)" stroke="rgb(225,226,230)" stroke-width="1" opacity="1" d="M 67.5 77 L 68 93.5 L 67 93.5 L 67.5 77 Z " /><path fill="rgb(74,80,96)" stroke="rgb(74,80,96)" stroke-width="1" opacity="1" d="M 0.5 0 L 127 0.5 L 0.5 1 L 0.5 0 Z " /><path fill="rgb(74,80,96)" stroke="rgb(74,80,96)" stroke-width="1" opacity="1" d="M 41.5 35 L 90 35.5 L 41.5 36 L 41.5 35 Z " /><path fill="rgb(74,80,96)" stroke="rgb(74,80,96)" stroke-width="1" opacity="1" d="M 68 55 L 71 55.5 L 69 56 L 68.5 71 L 68 55 Z " /><path fill="rgb(74,80,96)" stroke="rgb(74,80,96)" stroke-width="1" opacity="1" d="M 77.5 55 L 80 55.5 L 77.5 56 L 77.5 55 Z " /><path fill="rgb(74,80,96)" stroke="rgb(74,80,96)" stroke-width="1" opacity="1" d="M 81.5 56 L 81.5 57 L 81.5 56 Z " /><path fill="rgb(74,80,96)" stroke="rgb(74,80,96)" stroke-width="1" opacity="1" d="M 85.5 59 L 85.5 60 L 85.5 59 Z " /><path fill="rgb(74,80,96)" stroke="rgb(74,80,96)" stroke-width="1" opacity="1" d="M 91.5 59 L 91.5 60 L 91.5 59 Z " /><path fill="rgb(74,80,96)" stroke="rgb(74,80,96)" stroke-width="1" opacity="1" d="M 91.5 66 L 91.5 67 L 91.5 66 Z " /><path fill="rgb(74,80,96)" stroke="rgb(74,80,96)" stroke-width="1" opacity="1" d="M 83.5 69 L 83.5 70 L 83.5 69 Z " /><path fill="rgb(74,80,96)" stroke="rgb(74,80,96)" stroke-width="1" opacity="1" d="M 81.5 70 L 81.5 71 L 81.5 70 Z " /><path fill="rgb(74,80,96)" stroke="rgb(74,80,96)" stroke-width="1" opacity="1" d="M 84.5 75 L 84.5 76 L 84.5 75 Z " /><path fill="rgb(74,80,96)" stroke="rgb(74,80,96)" stroke-width="1" opacity="1" d="M 68.5 77 L 69 93.5 L 68 93.5 L 68.5 77 Z " /><path fill="rgb(74,80,96)" stroke="rgb(74,80,96)" stroke-width="1" opacity="1" d="M 40.5 94 L 40.5 95 L 40.5 94 Z " /><path fill="rgb(74,80,96)" stroke="rgb(74,80,96)" stroke-width="1" opacity="1" d="M 45.5 94 L 45.5 95 L 45.5 94 Z " /><path fill="rgb(91,98,114)" stroke="rgb(91,98,114)" stroke-width="1" opacity="1" d="M 40.5 36 L 41 93.5 L 40 93.5 L 40.5 36 Z " /><path fill="rgb(91,98,114)" stroke="rgb(91,98,114)" stroke-width="1" opacity="1" d="M 90.5 36 L 90.5 37 L 90.5 36 Z " /><path fill="rgb(91,98,114)" stroke="rgb(91,98,114)" stroke-width="1" opacity="1" d="M 90.5 40 L 90.5 41 L 90.5 40 Z " /><path fill="rgb(91,98,114)" stroke="rgb(91,98,114)" stroke-width="1" opacity="1" d="M 82.5 50 L 82.5 51 L 82.5 50 Z " /><path fill="rgb(91,98,114)" stroke="rgb(91,98,114)" stroke-width="1" opacity="1" d="M 84.5 51 L 84.5 52 L 84.5 51 Z " /><path fill="rgb(91,98,114)" stroke="rgb(91,98,114)" stroke-width="1" opacity="1" d="M 86.5 52 Q 89 53 87.5 54 Q 85 53 86.5 52 Z " /><path fill="rgb(91,98,114)" stroke="rgb(91,98,114)" stroke-width="1" opacity="1" d="M 89.5 55 L 89.5 56 L 89.5 55 Z " /><path fill="rgb(91,98,114)" stroke="rgb(91,98,114)" stroke-width="1" opacity="1" d="M 90.5 57 L 90.5 58 L 90.5 57 Z " /><path fill="rgb(91,98,114)" stroke="rgb(91,98,114)" stroke-width="1" opacity="1" d="M 91.5 65 L 91.5 66 L 91.5 65 Z " /><path fill="rgb(91,98,114)" stroke="rgb(91,98,114)" stroke-width="1" opacity="1" d="M 90.5 68 L 90.5 69 L 90.5 68 Z " /><path fill="rgb(91,98,114)" stroke="rgb(91,98,114)" stroke-width="1" opacity="1" d="M 88.5 72 L 88.5 73 L 88.5 72 Z " /><path fill="rgb(91,98,114)" stroke="rgb(91,98,114)" stroke-width="1" opacity="1" d="M 85.5 74 L 85.5 75 L 85.5 74 Z " /><path fill="rgb(91,98,114)" stroke="rgb(91,98,114)" stroke-width="1" opacity="1" d="M 80.5 76 L 80.5 77 L 80.5 76 Z " /><path fill="rgb(91,98,114)" stroke="rgb(91,98,114)" stroke-width="1" opacity="1" d="M 63.5 94 L 63.5 95 L 63.5 94 Z " /><path fill="rgb(91,98,114)" stroke="rgb(91,98,114)" stroke-width="1" opacity="1" d="M 67.5 94 L 67.5 95 L 67.5 94 Z " /><path fill="rgb(91,98,114)" stroke="rgb(91,98,114)" stroke-width="1" opacity="1" d="M 0.5 127 L 127 127.5 L 0.5 128 L 0.5 127 Z " /><path fill="rgb(57,63,80)" stroke="rgb(57,63,80)" stroke-width="1" opacity="1" d="M 126.5 2 L 127 3.5 L 126 3.5 L 126.5 2 Z " /><path fill="rgb(57,63,80)" stroke="rgb(57,63,80)" stroke-width="1" opacity="1" d="M 126.5 5 L 127 122.5 L 126 122.5 L 126.5 5 Z " /><path fill="rgb(57,63,80)" stroke="rgb(57,63,80)" stroke-width="1" opacity="1" d="M 82.5 34 L 82.5 35 L 82.5 34 Z " /><path fill="rgb(57,63,80)" stroke="rgb(57,63,80)" stroke-width="1" opacity="1" d="M 85.5 46 L 85.5 47 L 85.5 46 Z " /><path fill="rgb(57,63,80)" stroke="rgb(57,63,80)" stroke-width="1" opacity="1" d="M 77.5 49 L 79 49.5 L 77.5 50 L 77.5 49 Z " /><path fill="rgb(57,63,80)" stroke="rgb(57,63,80)" stroke-width="1" opacity="1" d="M 80.5 49 L 80.5 50 L 80.5 49 Z " /><path fill="rgb(57,63,80)" stroke="rgb(57,63,80)" stroke-width="1" opacity="1" d="M 85.5 49 L 85.5 50 L 85.5 49 Z " /><path fill="rgb(57,63,80)" stroke="rgb(57,63,80)" stroke-width="1" opacity="1" d="M 62.5 50 L 62.5 51 L 62.5 50 Z " /><path fill="rgb(57,63,80)" stroke="rgb(57,63,80)" stroke-width="1" opacity="1" d="M 85.5 51 L 85.5 52 L 85.5 51 Z " /><path fill="rgb(57,63,80)" stroke="rgb(57,63,80)" stroke-width="1" opacity="1" d="M 89.5 53 L 89.5 54 L 89.5 53 Z " /><path fill="rgb(57,63,80)" stroke="rgb(57,63,80)" stroke-width="1" opacity="1" d="M 90.5 55 L 91 56.5 L 90 56.5 L 90.5 55 Z " /><path fill="rgb(57,63,80)" stroke="rgb(57,63,80)" stroke-width="1" opacity="1" d="M 69.5 56 L 69.5 57 L 69.5 56 Z " /><path fill="rgb(57,63,80)" stroke="rgb(57,63,80)" stroke-width="1" opacity="1" d="M 82.5 57 L 83.5 59 L 85 58.5 Q 83.5 61.5 82 58.5 L 82.5 57 Z " /><path fill="rgb(57,63,80)" stroke="rgb(57,63,80)" stroke-width="1" opacity="1" d="M 85.5 63 L 85.5 64 L 85.5 63 Z " /><path fill="rgb(57,63,80)" stroke="rgb(57,63,80)" stroke-width="1" opacity="1" d="M 88.5 74 L 88.5 75 L 88.5 74 Z " /><path fill="rgb(57,63,80)" stroke="rgb(57,63,80)" stroke-width="1" opacity="1" d="M 81.5 76 L 83 76.5 L 81.5 77 L 81.5 76 Z " /><path fill="rgb(57,63,80)" stroke="rgb(57,63,80)" stroke-width="1" opacity="1" d="M 84.5 76 L 84.5 77 L 84.5 76 Z " /><path fill="rgb(57,63,80)" stroke="rgb(57,63,80)" stroke-width="1" opacity="1" d="M 37.5 92 L 37.5 93 L 37.5 92 Z " /><path fill="rgb(57,63,80)" stroke="rgb(57,63,80)" stroke-width="1" opacity="1" d="M 69.5 94 L 69.5 95 L 69.5 94 Z " /><path fill="rgb(57,63,80)" stroke="rgb(57,63,80)" stroke-width="1" opacity="1" d="M 125.5 126 L 125.5 127 L 125.5 126 Z " /></svg>