<svg width="48" height="48" version="1.1" xmlns="http://www.w3.org/2000/svg" desc="Created with imagetracer.js version 1.2.6" ><path fill="rgb(0,0,0)" stroke="rgb(0,0,0)" stroke-width="1" opacity="0" d="M 0 0 L 13 0 L 13 8.5 L 12 9.5 L 12 21.5 L 11 22.5 L 10 40.5 Q 7.75 41.75 9 46.5 L 7.5 48 L 0.5 48 L 0 47.5 L 0 0 Z " /><path fill="rgb(0,0,0)" stroke="rgb(0,0,0)" stroke-width="1" opacity="0" d="M 42 0 L 47.5 0 L 48 0.5 L 48 48 L 17.5 48 Q 16.75 48.25 17 45.5 L 18 44.5 L 18 34.5 L 19 33.5 L 19 25 L 38.5 25 L 39 24.5 L 39 20 L 20 20 L 20 13.5 L 21 12.5 L 21 5 L 38.5 5 Q 39.42 6.75 42 6 L 42 0 Z " /><path fill="rgb(33,45,101)" stroke="rgb(33,45,101)" stroke-width="1" opacity="0.984313725490196" d="M 14.5 2 L 15 3.5 L 14 3.5 L 14.5 2 Z " /><path fill="rgb(33,45,101)" stroke="rgb(33,45,101)" stroke-width="1" opacity="0.984313725490196" d="M 40.5 2 L 41 3.5 L 40 3.5 L 40.5 2 Z " /><path fill="rgb(33,45,101)" stroke="rgb(33,45,101)" stroke-width="1" opacity="0.984313725490196" d="M 34.5 3 L 36 3.5 L 34.5 4 L 34.5 3 Z " /><path fill="rgb(33,45,101)" stroke="rgb(33,45,101)" stroke-width="1" opacity="0.984313725490196" d="M 19.5 7 L 19.5 8 L 19.5 7 Z " /><path fill="rgb(33,45,101)" stroke="rgb(33,45,101)" stroke-width="1" opacity="0.984313725490196" d="M 18.5 16 L 18.5 17 L 18.5 16 Z " /><path fill="rgb(33,45,101)" stroke="rgb(33,45,101)" stroke-width="1" opacity="0.984313725490196" d="M 13.5 17 L 13.5 18 L 13.5 17 Z " /><path fill="rgb(33,45,101)" stroke="rgb(33,45,101)" stroke-width="1" opacity="0.984313725490196" d="M 35.5 21 L 35.5 22 L 35.5 21 Z " /><path fill="rgb(33,45,101)" stroke="rgb(33,45,101)" stroke-width="1" opacity="0.984313725490196" d="M 18.5 23 L 18.5 24 L 18.5 23 Z " /><path fill="rgb(33,45,101)" stroke="rgb(33,45,101)" stroke-width="1" opacity="0.984313725490196" d="M 28.5 23 L 32 23.5 L 28.5 24 L 28.5 23 Z " /><path fill="rgb(33,45,101)" stroke="rgb(33,45,101)" stroke-width="1" opacity="0.984313725490196" d="M 17.5 27 L 17.5 28 L 17.5 27 Z " /><path fill="rgb(33,45,101)" stroke="rgb(33,45,101)" stroke-width="1" opacity="0.984313725490196" d="M 12.5 28 L 13 29.5 L 12 29.5 L 12.5 28 Z " /><path fill="rgb(33,45,101)" stroke="rgb(33,45,101)" stroke-width="1" opacity="0.984313725490196" d="M 11.5 37 L 11.5 38 L 11.5 37 Z " /><path fill="rgb(33,45,101)" stroke="rgb(33,45,101)" stroke-width="1" opacity="0.984313725490196" d="M 16.5 37 L 16.5 38 L 16.5 37 Z " /><path fill="rgb(33,45,101)" stroke="rgb(33,45,101)" stroke-width="1" opacity="0.984313725490196" d="M 10.5 44 L 10.5 45 L 10.5 44 Z " /><path fill="rgb(33,45,101)" stroke="rgb(33,45,101)" stroke-width="1" opacity="1" d="M 15 1 L 41 1.5 L 40 4 Q 36.63 5 35.5 3 L 20 3 Q 21 6.38 19 7.5 L 19 15.5 L 18 16.5 L 18 22 L 35.5 22 L 36.5 21 L 37 24 L 32.5 24 L 31.5 23 L 18 23 Q 19 26.37 17 27.5 L 17 36.5 L 16 37.5 L 16 47 L 10.5 47 L 10 45.5 L 11 44.5 L 11 38.5 L 12 37.5 L 12 30.5 L 13 29.5 L 14 4.5 Q 15.75 3.58 15 1 Z " /><path fill="rgb(33,45,101)" stroke="rgb(33,45,101)" stroke-width="1" opacity="0.7607843137254902" d="M 20.5 4 L 20.5 5 L 20.5 4 Z " /><path fill="rgb(33,45,101)" stroke="rgb(33,45,101)" stroke-width="1" opacity="0.7607843137254902" d="M 40.5 4 L 40.5 5 L 40.5 4 Z " /><path fill="rgb(33,45,101)" stroke="rgb(33,45,101)" stroke-width="1" opacity="0.7607843137254902" d="M 13.5 10 L 14 11.5 L 13 11.5 L 13.5 10 Z " /><path fill="rgb(33,45,101)" stroke="rgb(33,45,101)" stroke-width="1" opacity="0.7607843137254902" d="M 19.5 11 L 20 12.5 L 19 12.5 L 19.5 11 Z " /><path fill="rgb(33,45,101)" stroke="rgb(33,45,101)" stroke-width="1" opacity="0.7607843137254902" d="M 18.5 20 L 18.5 21 L 18.5 20 Z " /><path fill="rgb(33,45,101)" stroke="rgb(33,45,101)" stroke-width="1" opacity="0.7607843137254902" d="M 37.5 22 L 38 23.5 L 37 23.5 L 37.5 22 Z " /><path fill="rgb(33,45,101)" stroke="rgb(33,45,101)" stroke-width="1" opacity="0.7607843137254902" d="M 12.5 23 L 12.5 24 L 12.5 23 Z " /><path fill="rgb(33,45,101)" stroke="rgb(33,45,101)" stroke-width="1" opacity="0.7607843137254902" d="M 17.5 32 L 17.5 33 L 17.5 32 Z " /><path fill="rgb(33,45,101)" stroke="rgb(33,45,101)" stroke-width="1" opacity="0.7607843137254902" d="M 11.5 33 L 12 34.5 L 11 34.5 L 11.5 33 Z " /><path fill="rgb(33,45,101)" stroke="rgb(33,45,101)" stroke-width="1" opacity="0.7607843137254902" d="M 10.5 41 L 10.5 42 L 10.5 41 Z " /><path fill="rgb(33,45,101)" stroke="rgb(33,45,101)" stroke-width="1" opacity="0.7607843137254902" d="M 16.5 42 L 17 43.5 L 16 43.5 L 16.5 42 Z " /><path fill="rgb(33,45,101)" stroke="rgb(33,45,101)" stroke-width="1" opacity="0.7607843137254902" d="M 15.5 47 L 15.5 48 L 15.5 47 Z " /><path fill="rgb(33,45,101)" stroke="rgb(33,45,101)" stroke-width="1" opacity="0.8235294117647058" d="M 21.5 3 L 26 3.5 L 21.5 4 L 21.5 3 Z " /><path fill="rgb(33,45,101)" stroke="rgb(33,45,101)" stroke-width="1" opacity="0.8235294117647058" d="M 19.5 10 L 19.5 11 L 19.5 10 Z " /><path fill="rgb(33,45,101)" stroke="rgb(33,45,101)" stroke-width="1" opacity="0.8235294117647058" d="M 13.5 12 L 13.5 13 L 13.5 12 Z " /><path fill="rgb(33,45,101)" stroke="rgb(33,45,101)" stroke-width="1" opacity="0.8235294117647058" d="M 19.5 21 L 28 21.5 L 19.5 22 L 19.5 21 Z " /><path fill="rgb(33,45,101)" stroke="rgb(33,45,101)" stroke-width="1" opacity="0.8235294117647058" d="M 12.5 24 L 12.5 25 L 12.5 24 Z " /><path fill="rgb(33,45,101)" stroke="rgb(33,45,101)" stroke-width="1" opacity="0.8235294117647058" d="M 17.5 31 L 17.5 32 L 17.5 31 Z " /><path fill="rgb(33,45,101)" stroke="rgb(33,45,101)" stroke-width="1" opacity="0.8235294117647058" d="M 16.5 41 L 16.5 42 L 16.5 41 Z " /><path fill="rgb(33,45,101)" stroke="rgb(33,45,101)" stroke-width="1" opacity="0.8235294117647058" d="M 10.5 42 L 10.5 43 L 10.5 42 Z " /><path fill="rgb(33,45,101)" stroke="rgb(33,45,101)" stroke-width="1" opacity="0.9411764705882353" d="M 14.5 1 L 14.5 2 L 14.5 1 Z " /><path fill="rgb(33,45,101)" stroke="rgb(33,45,101)" stroke-width="1" opacity="0.9411764705882353" d="M 20.5 3 L 20.5 4 L 20.5 3 Z " /><path fill="rgb(33,45,101)" stroke="rgb(33,45,101)" stroke-width="1" opacity="0.9411764705882353" d="M 32.5 3 L 34 3.5 L 32.5 4 L 32.5 3 Z " /><path fill="rgb(33,45,101)" stroke="rgb(33,45,101)" stroke-width="1" opacity="0.9411764705882353" d="M 19.5 8 L 19.5 9 L 19.5 8 Z " /><path fill="rgb(33,45,101)" stroke="rgb(33,45,101)" stroke-width="1" opacity="0.9411764705882353" d="M 13.5 15 L 14 16.5 L 13 16.5 L 13.5 15 Z " /><path fill="rgb(33,45,101)" stroke="rgb(33,45,101)" stroke-width="1" opacity="0.9411764705882353" d="M 18.5 17 L 18.5 18 L 18.5 17 Z " /><path fill="rgb(33,45,101)" stroke="rgb(33,45,101)" stroke-width="1" opacity="0.9411764705882353" d="M 18.5 21 L 18.5 22 L 18.5 21 Z " /><path fill="rgb(33,45,101)" stroke="rgb(33,45,101)" stroke-width="1" opacity="0.9411764705882353" d="M 33.5 21 L 35 21.5 L 33.5 22 L 33.5 21 Z " /><path fill="rgb(33,45,101)" stroke="rgb(33,45,101)" stroke-width="1" opacity="0.9411764705882353" d="M 23.5 23 L 28 23.5 L 23.5 24 L 23.5 23 Z " /><path fill="rgb(33,45,101)" stroke="rgb(33,45,101)" stroke-width="1" opacity="0.9411764705882353" d="M 12.5 27 L 12.5 28 L 12.5 27 Z " /><path fill="rgb(33,45,101)" stroke="rgb(33,45,101)" stroke-width="1" opacity="0.9411764705882353" d="M 17.5 28 L 17.5 29 L 17.5 28 Z " /><path fill="rgb(33,45,101)" stroke="rgb(33,45,101)" stroke-width="1" opacity="0.9411764705882353" d="M 11.5 36 L 11.5 37 L 11.5 36 Z " /><path fill="rgb(33,45,101)" stroke="rgb(33,45,101)" stroke-width="1" opacity="0.9411764705882353" d="M 16.5 38 L 16.5 39 L 16.5 38 Z " /><path fill="rgb(33,45,101)" stroke="rgb(33,45,101)" stroke-width="1" opacity="0.8549019607843137" d="M 26.5 3 L 29 3.5 L 26.5 4 L 26.5 3 Z " /><path fill="rgb(33,45,101)" stroke="rgb(33,45,101)" stroke-width="1" opacity="0.8549019607843137" d="M 13.5 13 L 13.5 14 L 13.5 13 Z " /><path fill="rgb(33,45,101)" stroke="rgb(33,45,101)" stroke-width="1" opacity="0.8549019607843137" d="M 18.5 19 L 18.5 20 L 18.5 19 Z " /><path fill="rgb(33,45,101)" stroke="rgb(33,45,101)" stroke-width="1" opacity="0.8549019607843137" d="M 28.5 21 L 31 21.5 L 28.5 22 L 28.5 21 Z " /><path fill="rgb(33,45,101)" stroke="rgb(33,45,101)" stroke-width="1" opacity="0.8549019607843137" d="M 37.5 21 L 37.5 22 L 37.5 21 Z " /><path fill="rgb(33,45,101)" stroke="rgb(33,45,101)" stroke-width="1" opacity="0.8549019607843137" d="M 12.5 25 L 12.5 26 L 12.5 25 Z " /><path fill="rgb(33,45,101)" stroke="rgb(33,45,101)" stroke-width="1" opacity="0.8549019607843137" d="M 17.5 30 L 17.5 31 L 17.5 30 Z " /><path fill="rgb(33,45,101)" stroke="rgb(33,45,101)" stroke-width="1" opacity="0.8549019607843137" d="M 11.5 35 L 11.5 36 L 11.5 35 Z " /><path fill="rgb(33,45,101)" stroke="rgb(33,45,101)" stroke-width="1" opacity="0.8549019607843137" d="M 16.5 40 L 16.5 41 L 16.5 40 Z " /><path fill="rgb(33,45,101)" stroke="rgb(33,45,101)" stroke-width="1" opacity="0.10196078431372549" d="M 13.5 0 L 14 1.5 L 13 1.5 L 13.5 0 Z " /><path fill="rgb(33,45,101)" stroke="rgb(33,45,101)" stroke-width="1" opacity="0.10196078431372549" d="M 21.5 4 L 34 4.5 L 21.5 5 L 21.5 4 Z " /><path fill="rgb(33,45,101)" stroke="rgb(33,45,101)" stroke-width="1" opacity="0.10196078431372549" d="M 41.5 4 L 42 6 L 39 5.5 L 41.5 4 Z " /><path fill="rgb(33,45,101)" stroke="rgb(33,45,101)" stroke-width="1" opacity="0.10196078431372549" d="M 20.5 8 L 21 12.5 L 20 12.5 L 20.5 8 Z " /><path fill="rgb(33,45,101)" stroke="rgb(33,45,101)" stroke-width="1" opacity="0.10196078431372549" d="M 12.5 9 L 13 15.5 L 12 15.5 L 12.5 9 Z " /><path fill="rgb(33,45,101)" stroke="rgb(33,45,101)" stroke-width="1" opacity="0.10196078431372549" d="M 19.5 17 L 20 20 L 35 20.5 L 19 21 L 19.5 17 Z " /><path fill="rgb(33,45,101)" stroke="rgb(33,45,101)" stroke-width="1" opacity="0.10196078431372549" d="M 38.5 20 L 39 24.5 L 38 24.5 L 38.5 20 Z " /><path fill="rgb(33,45,101)" stroke="rgb(33,45,101)" stroke-width="1" opacity="0.10196078431372549" d="M 11.5 22 L 12 27.5 L 11 27.5 L 11.5 22 Z " /><path fill="rgb(33,45,101)" stroke="rgb(33,45,101)" stroke-width="1" opacity="0.10196078431372549" d="M 19.5 24 L 28 24.5 L 19.5 25 L 19.5 24 Z " /><path fill="rgb(33,45,101)" stroke="rgb(33,45,101)" stroke-width="1" opacity="0.10196078431372549" d="M 18.5 28 L 19 33.5 L 18 33.5 L 18.5 28 Z " /><path fill="rgb(33,45,101)" stroke="rgb(33,45,101)" stroke-width="1" opacity="0.10196078431372549" d="M 10.5 32 L 11 36.5 L 10 36.5 L 10.5 32 Z " /><path fill="rgb(33,45,101)" stroke="rgb(33,45,101)" stroke-width="1" opacity="0.10196078431372549" d="M 17.5 38 L 18 44.5 L 17 44.5 L 17.5 38 Z " /><path fill="rgb(33,45,101)" stroke="rgb(33,45,101)" stroke-width="1" opacity="0.10196078431372549" d="M 9.5 41 L 10 43.5 L 9 43.5 L 9.5 41 Z " /><path fill="rgb(33,45,101)" stroke="rgb(33,45,101)" stroke-width="1" opacity="0.10196078431372549" d="M 8.5 47 L 8.5 48 L 8.5 47 Z " /><path fill="rgb(33,45,101)" stroke="rgb(33,45,101)" stroke-width="1" opacity="0.3803921568627451" d="M 19.5 0 L 31 0.5 L 19.5 1 L 19.5 0 Z " /><path fill="rgb(33,45,101)" stroke="rgb(33,45,101)" stroke-width="1" opacity="0.3803921568627451" d="M 41.5 0 L 42 3.5 L 41 3.5 L 41.5 0 Z " /><path fill="rgb(33,45,101)" stroke="rgb(33,45,101)" stroke-width="1" opacity="0.3803921568627451" d="M 13.5 2 L 14 5.5 L 13 5.5 L 13.5 2 Z " /><path fill="rgb(33,45,101)" stroke="rgb(33,45,101)" stroke-width="1" opacity="0.3803921568627451" d="M 34.5 4 L 38 4.5 L 34.5 5 L 34.5 4 Z " /><path fill="rgb(33,45,101)" stroke="rgb(33,45,101)" stroke-width="1" opacity="0.3803921568627451" d="M 20.5 6 L 21 7.5 L 20 7.5 L 20.5 6 Z " /><path fill="rgb(33,45,101)" stroke="rgb(33,45,101)" stroke-width="1" opacity="0.3803921568627451" d="M 19.5 15 L 20 16.5 L 19 16.5 L 19.5 15 Z " /><path fill="rgb(33,45,101)" stroke="rgb(33,45,101)" stroke-width="1" opacity="0.3803921568627451" d="M 12.5 16 L 13 19.5 L 12 19.5 L 12.5 16 Z " /><path fill="rgb(33,45,101)" stroke="rgb(33,45,101)" stroke-width="1" opacity="0.3803921568627451" d="M 35.5 20 L 38 20.5 L 35.5 21 L 35.5 20 Z " /><path fill="rgb(33,45,101)" stroke="rgb(33,45,101)" stroke-width="1" opacity="0.3803921568627451" d="M 28.5 24 L 35 24.5 L 28.5 25 L 28.5 24 Z " /><path fill="rgb(33,45,101)" stroke="rgb(33,45,101)" stroke-width="1" opacity="0.3803921568627451" d="M 37.5 24 L 37.5 25 L 37.5 24 Z " /><path fill="rgb(33,45,101)" stroke="rgb(33,45,101)" stroke-width="1" opacity="0.3803921568627451" d="M 18.5 26 L 19 27.5 L 18 27.5 L 18.5 26 Z " /><path fill="rgb(33,45,101)" stroke="rgb(33,45,101)" stroke-width="1" opacity="0.3803921568627451" d="M 11.5 28 L 12 30.5 L 11 30.5 L 11.5 28 Z " /><path fill="rgb(33,45,101)" stroke="rgb(33,45,101)" stroke-width="1" opacity="0.3803921568627451" d="M 17.5 35 L 18 37.5 L 17 37.5 L 17.5 35 Z " /><path fill="rgb(33,45,101)" stroke="rgb(33,45,101)" stroke-width="1" opacity="0.3803921568627451" d="M 10.5 37 L 11 38.5 L 10 38.5 L 10.5 37 Z " /><path fill="rgb(33,45,101)" stroke="rgb(33,45,101)" stroke-width="1" opacity="0.3803921568627451" d="M 9.5 44 L 10 45.5 L 9 45.5 L 9.5 44 Z " /><path fill="rgb(33,45,101)" stroke="rgb(33,45,101)" stroke-width="1" opacity="0.3803921568627451" d="M 9.5 47 L 9.5 48 L 9.5 47 Z " /><path fill="rgb(33,45,101)" stroke="rgb(33,45,101)" stroke-width="1" opacity="0.3803921568627451" d="M 16.5 47 L 16.5 48 L 16.5 47 Z " /><path fill="rgb(33,45,101)" stroke="rgb(33,45,101)" stroke-width="1" opacity="0.9019607843137255" d="M 29.5 3 L 32 3.5 L 29.5 4 L 29.5 3 Z " /><path fill="rgb(33,45,101)" stroke="rgb(33,45,101)" stroke-width="1" opacity="0.9019607843137255" d="M 19.5 9 L 19.5 10 L 19.5 9 Z " /><path fill="rgb(33,45,101)" stroke="rgb(33,45,101)" stroke-width="1" opacity="0.9019607843137255" d="M 13.5 14 L 13.5 15 L 13.5 14 Z " /><path fill="rgb(33,45,101)" stroke="rgb(33,45,101)" stroke-width="1" opacity="0.9019607843137255" d="M 18.5 18 L 18.5 19 L 18.5 18 Z " /><path fill="rgb(33,45,101)" stroke="rgb(33,45,101)" stroke-width="1" opacity="0.9019607843137255" d="M 31.5 21 L 33 21.5 L 31.5 22 L 31.5 21 Z " /><path fill="rgb(33,45,101)" stroke="rgb(33,45,101)" stroke-width="1" opacity="0.9019607843137255" d="M 19.5 23 L 23 23.5 L 19.5 24 L 19.5 23 Z " /><path fill="rgb(33,45,101)" stroke="rgb(33,45,101)" stroke-width="1" opacity="0.9019607843137255" d="M 12.5 26 L 12.5 27 L 12.5 26 Z " /><path fill="rgb(33,45,101)" stroke="rgb(33,45,101)" stroke-width="1" opacity="0.9019607843137255" d="M 17.5 29 L 17.5 30 L 17.5 29 Z " /><path fill="rgb(33,45,101)" stroke="rgb(33,45,101)" stroke-width="1" opacity="0.9019607843137255" d="M 16.5 39 L 16.5 40 L 16.5 39 Z " /><path fill="rgb(33,45,101)" stroke="rgb(33,45,101)" stroke-width="1" opacity="0.9019607843137255" d="M 10.5 43 L 10.5 44 L 10.5 43 Z " /><path fill="rgb(33,45,101)" stroke="rgb(33,45,101)" stroke-width="1" opacity="0.5882352941176471" d="M 14.5 0 L 19 0.5 L 14.5 1 L 14.5 0 Z " /><path fill="rgb(33,45,101)" stroke="rgb(33,45,101)" stroke-width="1" opacity="0.5882352941176471" d="M 31.5 0 L 41 0.5 L 31.5 1 L 31.5 0 Z " /><path fill="rgb(33,45,101)" stroke="rgb(33,45,101)" stroke-width="1" opacity="0.5882352941176471" d="M 38.5 4 L 40 4.5 L 38.5 5 L 38.5 4 Z " /><path fill="rgb(33,45,101)" stroke="rgb(33,45,101)" stroke-width="1" opacity="0.5882352941176471" d="M 20.5 5 L 20.5 6 L 20.5 5 Z " /><path fill="rgb(33,45,101)" stroke="rgb(33,45,101)" stroke-width="1" opacity="0.5882352941176471" d="M 13.5 6 L 14 9.5 L 13 9.5 L 13.5 6 Z " /><path fill="rgb(33,45,101)" stroke="rgb(33,45,101)" stroke-width="1" opacity="0.5882352941176471" d="M 19.5 13 L 20 14.5 L 19 14.5 L 19.5 13 Z " /><path fill="rgb(33,45,101)" stroke="rgb(33,45,101)" stroke-width="1" opacity="0.5882352941176471" d="M 12.5 20 L 13 22.5 L 12 22.5 L 12.5 20 Z " /><path fill="rgb(33,45,101)" stroke="rgb(33,45,101)" stroke-width="1" opacity="0.5882352941176471" d="M 18.5 24 L 19 25.5 L 18 25.5 L 18.5 24 Z " /><path fill="rgb(33,45,101)" stroke="rgb(33,45,101)" stroke-width="1" opacity="0.5882352941176471" d="M 35.5 24 L 37 24.5 L 35.5 25 L 35.5 24 Z " /><path fill="rgb(33,45,101)" stroke="rgb(33,45,101)" stroke-width="1" opacity="0.5882352941176471" d="M 11.5 31 L 12 32.5 L 11 32.5 L 11.5 31 Z " /><path fill="rgb(33,45,101)" stroke="rgb(33,45,101)" stroke-width="1" opacity="0.5882352941176471" d="M 17.5 33 L 18 34.5 L 17 34.5 L 17.5 33 Z " /><path fill="rgb(33,45,101)" stroke="rgb(33,45,101)" stroke-width="1" opacity="0.5882352941176471" d="M 10.5 39 L 11 40.5 L 10 40.5 L 10.5 39 Z " /><path fill="rgb(33,45,101)" stroke="rgb(33,45,101)" stroke-width="1" opacity="0.5882352941176471" d="M 16.5 44 L 17 46.5 L 16 46.5 L 16.5 44 Z " /><path fill="rgb(33,45,101)" stroke="rgb(33,45,101)" stroke-width="1" opacity="0.5882352941176471" d="M 9.5 46 L 10.5 47 L 15 47.5 L 10.5 48 Q 8 47 9.5 46 Z " /></svg>