<svg width="48" height="48" version="1.1" xmlns="http://www.w3.org/2000/svg" desc="Created with imagetracer.js version 1.2.6" ><path fill="rgb(0,0,0)" stroke="rgb(0,0,0)" stroke-width="1" opacity="0" d="M 0 0 L 47.5 0 L 48 0.5 L 48 15.5 L 46.5 15 L 35.5 14 L 34.5 13 L 11.5 13 L 10.5 14 Q 3 13 0 15 L 0 0 Z " /><path fill="rgb(0,0,0)" stroke="rgb(0,0,0)" stroke-width="1" opacity="0" d="M 12.5 15 L 31.5 15 L 32.5 16 L 42.5 16 L 43.5 17 L 48 17 L 47.5 25 Q 46.88 20.13 43.5 18 Q 36.5 16.5 35 20.5 L 33 23.5 L 33 25.5 L 33.5 26 L 37.5 22 Q 42.25 21.25 43 24.5 L 45 35 Q 47.96 34.62 48 35.5 L 48 48 L 0 48 L 0 26.5 L 4.5 22 L 8.5 22 L 11 25.5 L 12 35 L 16 35 L 16 29.5 Q 14 28.5 15 24.5 L 10.5 18 L 5.5 18 L 3 19 L 0.5 24 L 0 16 L 11.5 16 L 12.5 15 Z M 22 18 Q 17 21 16 26 Q 19 27 18 25 L 22 22 L 25 22 L 26 24 L 27 30 L 28 31 L 28 35 L 32 35 L 32 29 L 31 28 L 30 22 L 27 18 L 22 18 Z " /><path fill="rgb(0,82,163)" stroke="rgb(0,82,163)" stroke-width="1" opacity="0.13333333333333333" d="M 11.5 13 L 35 13.5 L 11.5 14 L 11.5 13 Z " /><path fill="rgb(0,82,163)" stroke="rgb(0,82,163)" stroke-width="1" opacity="0.13333333333333333" d="M 2.5 14 L 12 15.5 L 0.5 16 L 0.5 15 L 2.5 14 Z " /><path fill="rgb(0,82,163)" stroke="rgb(0,82,163)" stroke-width="1" opacity="0.13333333333333333" d="M 39.5 14 L 42 14.5 L 39.5 15 L 39.5 14 Z " /><path fill="rgb(0,82,163)" stroke="rgb(0,82,163)" stroke-width="1" opacity="0.13333333333333333" d="M 32.5 15 L 38 15.5 L 32.5 16 L 32.5 15 Z " /><path fill="rgb(0,82,163)" stroke="rgb(0,82,163)" stroke-width="1" opacity="0.13333333333333333" d="M 44.5 15 Q 47.5 14.5 48 16.5 L 43.5 17 Q 42 16 44.5 15 Z " /><path fill="rgb(0,82,163)" stroke="rgb(0,82,163)" stroke-width="1" opacity="0.13333333333333333" d="M 5.5 18 L 5.5 19 L 5.5 18 Z " /><path fill="rgb(0,82,163)" stroke="rgb(0,82,163)" stroke-width="1" opacity="0.13333333333333333" d="M 10.5 18 L 13 20.5 L 12.5 21 L 10 18.5 L 10.5 18 Z " /><path fill="rgb(0,82,163)" stroke="rgb(0,82,163)" stroke-width="1" opacity="0.13333333333333333" d="M 21.5 18 L 21.5 19 L 21.5 18 Z " /><path fill="rgb(0,82,163)" stroke="rgb(0,82,163)" stroke-width="1" opacity="0.13333333333333333" d="M 26.5 18 L 30 22.5 L 29 22.5 L 26 18.5 L 26.5 18 Z " /><path fill="rgb(0,82,163)" stroke="rgb(0,82,163)" stroke-width="1" opacity="0.13333333333333333" d="M 37.5 18 L 38 18.5 L 35.5 21 L 35 20.5 L 37.5 18 Z " /><path fill="rgb(0,82,163)" stroke="rgb(0,82,163)" stroke-width="1" opacity="0.13333333333333333" d="M 42.5 18 L 46 20.5 L 45.5 21 L 43.5 19 Q 41.13 18.88 42.5 18 Z " /><path fill="rgb(0,82,163)" stroke="rgb(0,82,163)" stroke-width="1" opacity="0.13333333333333333" d="M 3.5 19 L 3.5 20 L 3.5 19 Z " /><path fill="rgb(0,82,163)" stroke="rgb(0,82,163)" stroke-width="1" opacity="0.13333333333333333" d="M 2.5 21 L 4 22.5 L 0.5 26 L 0 24 L 2 23.5 Q -0.25 22.25 2.5 21 Z M 3 22 L 3 23 L 3 22 Z " /><path fill="rgb(0,82,163)" stroke="rgb(0,82,163)" stroke-width="1" opacity="0.13333333333333333" d="M 5.5 21 L 8 21.5 L 5.5 22 L 5.5 21 Z " /><path fill="rgb(0,82,163)" stroke="rgb(0,82,163)" stroke-width="1" opacity="0.13333333333333333" d="M 18.5 21 L 20.5 22 L 23.5 21 L 23.5 22 L 21.5 22 L 18 24.5 Q 18.67 27.13 16 26 Q 14.88 23.33 17.5 24 L 17 22.5 L 18.5 21 Z M 19 22 L 19 23 L 19 22 Z " /><path fill="rgb(0,82,163)" stroke="rgb(0,82,163)" stroke-width="1" opacity="0.13333333333333333" d="M 38.5 21 Q 42.5 20.5 43 23.5 L 42.5 24 L 40.5 22 Q 37.5 22.5 38.5 21 Z " /><path fill="rgb(0,82,163)" stroke="rgb(0,82,163)" stroke-width="1" opacity="0.13333333333333333" d="M 13.5 22 L 13.5 23 L 13.5 22 Z " /><path fill="rgb(0,82,163)" stroke="rgb(0,82,163)" stroke-width="1" opacity="0.13333333333333333" d="M 34.5 22 L 35.5 23 L 37 22.5 L 33.5 26 L 33 25.5 Q 32.5 22.5 34.5 22 Z M 35 23 L 35 24 L 35 23 Z " /><path fill="rgb(0,82,163)" stroke="rgb(0,82,163)" stroke-width="1" opacity="0.13333333333333333" d="M 46.5 22 L 46.5 23 L 46.5 22 Z " /><path fill="rgb(0,82,163)" stroke="rgb(0,82,163)" stroke-width="1" opacity="0.13333333333333333" d="M 10.5 24 L 10.5 25 L 10.5 24 Z " /><path fill="rgb(0,82,163)" stroke="rgb(0,82,163)" stroke-width="1" opacity="0.13333333333333333" d="M 14.5 24 L 15 25.5 L 14 25.5 L 14.5 24 Z " /><path fill="rgb(0,82,163)" stroke="rgb(0,82,163)" stroke-width="1" opacity="0.13333333333333333" d="M 26.5 24 L 27 25.5 L 26 25.5 L 26.5 24 Z " /><path fill="rgb(0,82,163)" stroke="rgb(0,82,163)" stroke-width="1" opacity="0.13333333333333333" d="M 30.5 24 L 30.5 25 L 30.5 24 Z " /><path fill="rgb(0,82,163)" stroke="rgb(0,82,163)" stroke-width="1" opacity="0.13333333333333333" d="M 43.5 25 L 44 26.5 L 43 26.5 L 43.5 25 Z " /><path fill="rgb(0,82,163)" stroke="rgb(0,82,163)" stroke-width="1" opacity="0.13333333333333333" d="M 47.5 25 L 48 26.5 L 47 26.5 L 47.5 25 Z " /><path fill="rgb(0,82,163)" stroke="rgb(0,82,163)" stroke-width="1" opacity="0.13333333333333333" d="M 11.5 27 L 12 28.5 L 11 28.5 L 11.5 27 Z " /><path fill="rgb(0,82,163)" stroke="rgb(0,82,163)" stroke-width="1" opacity="0.13333333333333333" d="M 27.5 27 L 28 29.5 L 27 29.5 L 27.5 27 Z " /><path fill="rgb(0,82,163)" stroke="rgb(0,82,163)" stroke-width="1" opacity="0.13333333333333333" d="M 31.5 28 L 32 35 L 28 35 L 28 33.5 L 29.5 34 L 31 33.5 L 31.5 28 Z " /><path fill="rgb(0,82,163)" stroke="rgb(0,82,163)" stroke-width="1" opacity="0.13333333333333333" d="M 15.5 29 L 16 35 L 12 34.5 L 15 34 L 15.5 29 Z " /><path fill="rgb(0,82,163)" stroke="rgb(0,82,163)" stroke-width="1" opacity="0.13333333333333333" d="M 44.5 29 L 45 31.5 L 44 31.5 L 44.5 29 Z " /><path fill="rgb(0,82,163)" stroke="rgb(0,82,163)" stroke-width="1" opacity="0.13333333333333333" d="M 45.5 34 L 48 34.5 L 45.5 35 L 45.5 34 Z " /><path fill="rgb(0,84,162)" stroke="rgb(0,84,162)" stroke-width="1" opacity="0.9725490196078431" d="M 31.5 14 L 33 14.5 L 31.5 15 L 31.5 14 Z " /><path fill="rgb(0,84,162)" stroke="rgb(0,84,162)" stroke-width="1" opacity="0.9725490196078431" d="M 5.5 19 Q 8 20 6.5 21 Q 4 20 5.5 19 Z " /><path fill="rgb(0,84,162)" stroke="rgb(0,84,162)" stroke-width="1" opacity="0.9725490196078431" d="M 21.5 19 L 22 19.5 L 19.5 22 L 19 21.5 L 21.5 19 Z " /><path fill="rgb(0,84,162)" stroke="rgb(0,84,162)" stroke-width="1" opacity="0.9725490196078431" d="M 11.5 20 L 11.5 21 L 11.5 20 Z " /><path fill="rgb(0,84,162)" stroke="rgb(0,84,162)" stroke-width="1" opacity="0.9725490196078431" d="M 27.5 20 L 27.5 21 L 27.5 20 Z " /><path fill="rgb(0,84,162)" stroke="rgb(0,84,162)" stroke-width="1" opacity="0.9725490196078431" d="M 39.5 20 L 39.5 21 L 39.5 20 Z " /><path fill="rgb(0,84,162)" stroke="rgb(0,84,162)" stroke-width="1" opacity="0.9725490196078431" d="M 3.5 21 L 3.5 22 L 3.5 21 Z " /><path fill="rgb(0,84,162)" stroke="rgb(0,84,162)" stroke-width="1" opacity="0.9725490196078431" d="M 9.5 21 L 9.5 22 L 9.5 21 Z " /><path fill="rgb(0,84,162)" stroke="rgb(0,84,162)" stroke-width="1" opacity="0.9725490196078431" d="M 25.5 21 L 25.5 22 L 25.5 21 Z " /><path fill="rgb(0,84,162)" stroke="rgb(0,84,162)" stroke-width="1" opacity="0.9725490196078431" d="M 43.5 23 L 43.5 24 L 43.5 23 Z " /><path fill="rgb(0,84,162)" stroke="rgb(0,84,162)" stroke-width="1" opacity="0.9725490196078431" d="M 13.5 24 L 13.5 25 L 13.5 24 Z " /><path fill="rgb(0,84,162)" stroke="rgb(0,84,162)" stroke-width="1" opacity="0.9725490196078431" d="M 29.5 24 L 29.5 25 L 29.5 24 Z " /><path fill="rgb(0,84,162)" stroke="rgb(0,84,162)" stroke-width="1" opacity="0.9725490196078431" d="M 46.5 25 L 46.5 26 L 46.5 25 Z " /><path fill="rgb(0,84,162)" stroke="rgb(0,84,162)" stroke-width="1" opacity="0.9725490196078431" d="M 28.5 28 L 28.5 29 L 28.5 28 Z " /><path fill="rgb(0,84,162)" stroke="rgb(0,84,162)" stroke-width="1" opacity="0.9725490196078431" d="M 30.5 28 L 31 29.5 L 30 29.5 L 30.5 28 Z " /><path fill="rgb(0,84,162)" stroke="rgb(0,84,162)" stroke-width="1" opacity="0.9725490196078431" d="M 12.5 29 L 12.5 30 L 12.5 29 Z " /><path fill="rgb(0,84,162)" stroke="rgb(0,84,162)" stroke-width="1" opacity="0.9725490196078431" d="M 14.5 29 L 15 31.5 L 14 31.5 L 14.5 29 Z " /><path fill="rgb(0,84,162)" stroke="rgb(0,84,162)" stroke-width="1" opacity="0.9725490196078431" d="M 45.5 30 L 46 31.5 L 45 31.5 L 45.5 30 Z " /><path fill="rgb(0,83,161)" stroke="rgb(0,83,161)" stroke-width="1" opacity="0.5058823529411764" d="M 6.5 14 L 10 14.5 L 6.5 15 L 6.5 14 Z " /><path fill="rgb(0,83,161)" stroke="rgb(0,83,161)" stroke-width="1" opacity="0.5058823529411764" d="M 36.5 14 L 44 15.5 L 38.5 16 L 36 14.5 L 36.5 14 Z " /><path fill="rgb(0,83,161)" stroke="rgb(0,83,161)" stroke-width="1" opacity="0.5058823529411764" d="M 6.5 18 L 6.5 19 L 6.5 18 Z " /><path fill="rgb(0,83,161)" stroke="rgb(0,83,161)" stroke-width="1" opacity="0.5058823529411764" d="M 9.5 18 L 9.5 19 L 9.5 18 Z " /><path fill="rgb(0,83,161)" stroke="rgb(0,83,161)" stroke-width="1" opacity="0.5058823529411764" d="M 22.5 18 L 22.5 19 L 22.5 18 Z " /><path fill="rgb(0,83,161)" stroke="rgb(0,83,161)" stroke-width="1" opacity="0.5058823529411764" d="M 25.5 18 L 25.5 19 L 25.5 18 Z " /><path fill="rgb(0,83,161)" stroke="rgb(0,83,161)" stroke-width="1" opacity="0.5058823529411764" d="M 38.5 18 L 38.5 19 L 38.5 18 Z " /><path fill="rgb(0,83,161)" stroke="rgb(0,83,161)" stroke-width="1" opacity="0.5058823529411764" d="M 4.5 19 L 4.5 22 Q 1.5 20.5 4.5 19 Z " /><path fill="rgb(0,83,161)" stroke="rgb(0,83,161)" stroke-width="1" opacity="0.5058823529411764" d="M 20.5 19 Q 22 20 19.5 21 Q 18 20 20.5 19 Z " /><path fill="rgb(0,83,161)" stroke="rgb(0,83,161)" stroke-width="1" opacity="0.5058823529411764" d="M 8.5 21 Q 11 22 9.5 23 Q 7 22 8.5 21 Z " /><path fill="rgb(0,83,161)" stroke="rgb(0,83,161)" stroke-width="1" opacity="0.5058823529411764" d="M 24.5 21 L 27 23.5 L 26.5 24 L 24 21.5 L 24.5 21 Z " /><path fill="rgb(0,83,161)" stroke="rgb(0,83,161)" stroke-width="1" opacity="0.5058823529411764" d="M 35.5 21 L 35.5 22 L 35.5 21 Z " /><path fill="rgb(0,83,161)" stroke="rgb(0,83,161)" stroke-width="1" opacity="0.5058823529411764" d="M 37.5 21 L 37.5 22 L 37.5 21 Z " /><path fill="rgb(0,83,161)" stroke="rgb(0,83,161)" stroke-width="1" opacity="0.5058823529411764" d="M 45.5 21 L 45.5 22 L 45.5 21 Z " /><path fill="rgb(0,83,161)" stroke="rgb(0,83,161)" stroke-width="1" opacity="0.5058823529411764" d="M 1.5 23 L 1.5 24 L 1.5 23 Z " /><path fill="rgb(0,83,161)" stroke="rgb(0,83,161)" stroke-width="1" opacity="0.5058823529411764" d="M 17.5 23 L 17.5 24 L 17.5 23 Z " /><path fill="rgb(0,83,161)" stroke="rgb(0,83,161)" stroke-width="1" opacity="0.5058823529411764" d="M 34.5 23 L 34.5 24 L 34.5 23 Z " /><path fill="rgb(0,83,161)" stroke="rgb(0,83,161)" stroke-width="1" opacity="0.5058823529411764" d="M 46.5 23 L 46.5 24 L 46.5 23 Z " /><path fill="rgb(0,83,161)" stroke="rgb(0,83,161)" stroke-width="1" opacity="0.5058823529411764" d="M 43.5 24 L 43.5 25 L 43.5 24 Z " /><path fill="rgb(0,83,161)" stroke="rgb(0,83,161)" stroke-width="1" opacity="0.5058823529411764" d="M 30.5 25 L 31 26.5 L 30 26.5 L 30.5 25 Z " /><path fill="rgb(0,83,161)" stroke="rgb(0,83,161)" stroke-width="1" opacity="0.5058823529411764" d="M 11.5 26 L 11.5 27 L 11.5 26 Z " /><path fill="rgb(0,83,161)" stroke="rgb(0,83,161)" stroke-width="1" opacity="0.5058823529411764" d="M 14.5 26 L 14.5 27 L 14.5 26 Z " /><path fill="rgb(0,83,161)" stroke="rgb(0,83,161)" stroke-width="1" opacity="0.5058823529411764" d="M 27.5 26 L 27.5 27 L 27.5 26 Z " /><path fill="rgb(0,83,161)" stroke="rgb(0,83,161)" stroke-width="1" opacity="0.5058823529411764" d="M 44.5 27 L 45 28.5 L 44 28.5 L 44.5 27 Z " /><path fill="rgb(0,83,161)" stroke="rgb(0,83,161)" stroke-width="1" opacity="0.5058823529411764" d="M 47.5 27 L 48 29.5 L 47 29.5 L 47.5 27 Z " /><path fill="rgb(0,83,161)" stroke="rgb(0,83,161)" stroke-width="1" opacity="0.5058823529411764" d="M 28.5 30 L 29 32.5 L 28 32.5 L 28.5 30 Z " /><path fill="rgb(0,83,161)" stroke="rgb(0,83,161)" stroke-width="1" opacity="0.5058823529411764" d="M 12.5 31 L 13 33.5 L 12 33.5 L 12.5 31 Z " /><path fill="rgb(0,84,162)" stroke="rgb(0,84,162)" stroke-width="1" opacity="1" d="M 6.5 19 L 9.5 19 L 13 22.5 L 14 25.5 L 14 31.5 L 15 34 Q 11.33 35.35 13 29.5 L 10 21 Q 7.42 21.75 6.5 20 L 4.5 21 L 4.5 20 L 6.5 19 Z " /><path fill="rgb(0,84,162)" stroke="rgb(0,84,162)" stroke-width="1" opacity="1" d="M 22.5 19 L 25.5 19 L 29 22.5 L 31 34 L 29 34 L 29 28.5 L 26 21 L 21 20.5 L 22.5 19 Z " /><path fill="rgb(0,84,162)" stroke="rgb(0,84,162)" stroke-width="1" opacity="1" d="M 38.5 19 Q 44 18 45 21.5 L 47 26.5 L 47 33.5 L 46 33.5 L 44 23.5 L 41.5 21 L 39.5 20 L 37.5 21 Q 36 20 38.5 19 Z " /><path fill="rgb(0,84,161)" stroke="rgb(0,84,161)" stroke-width="1" opacity="0.7843137254901961" d="M 10.5 14 L 31 14.5 L 10.5 15 L 10.5 14 Z " /><path fill="rgb(0,84,161)" stroke="rgb(0,84,161)" stroke-width="1" opacity="0.7843137254901961" d="M 33.5 14 L 36 14.5 L 33.5 15 L 33.5 14 Z " /><path fill="rgb(0,84,161)" stroke="rgb(0,84,161)" stroke-width="1" opacity="0.7843137254901961" d="M 7.5 18 L 9 18.5 L 7.5 19 L 7.5 18 Z " /><path fill="rgb(0,84,161)" stroke="rgb(0,84,161)" stroke-width="1" opacity="0.7843137254901961" d="M 23.5 18 L 25 18.5 L 23.5 19 L 23.5 18 Z " /><path fill="rgb(0,84,161)" stroke="rgb(0,84,161)" stroke-width="1" opacity="0.7843137254901961" d="M 39.5 18 L 42 18.5 L 39.5 19 L 39.5 18 Z " /><path fill="rgb(0,84,161)" stroke="rgb(0,84,161)" stroke-width="1" opacity="0.7843137254901961" d="M 10.5 19 L 10.5 20 L 10.5 19 Z " /><path fill="rgb(0,84,161)" stroke="rgb(0,84,161)" stroke-width="1" opacity="0.7843137254901961" d="M 26.5 19 L 26.5 20 L 26.5 19 Z " /><path fill="rgb(0,84,161)" stroke="rgb(0,84,161)" stroke-width="1" opacity="0.7843137254901961" d="M 37.5 19 L 37 20.5 L 35.5 23 L 36 21.5 L 37.5 19 Z " /><path fill="rgb(0,84,161)" stroke="rgb(0,84,161)" stroke-width="1" opacity="0.7843137254901961" d="M 43.5 19 Q 46 20 44.5 21 Q 42 20 43.5 19 Z " /><path fill="rgb(0,84,161)" stroke="rgb(0,84,161)" stroke-width="1" opacity="0.7843137254901961" d="M 12.5 21 L 12.5 22 L 12.5 21 Z " /><path fill="rgb(0,84,161)" stroke="rgb(0,84,161)" stroke-width="1" opacity="0.7843137254901961" d="M 20.5 21 L 20.5 22 L 20.5 21 Z " /><path fill="rgb(0,84,161)" stroke="rgb(0,84,161)" stroke-width="1" opacity="0.7843137254901961" d="M 28.5 21 L 28.5 22 L 28.5 21 Z " /><path fill="rgb(0,84,161)" stroke="rgb(0,84,161)" stroke-width="1" opacity="0.7843137254901961" d="M 41.5 21 Q 44 22 42.5 23 Q 40 22 41.5 21 Z " /><path fill="rgb(0,84,161)" stroke="rgb(0,84,161)" stroke-width="1" opacity="0.7843137254901961" d="M 2.5 22 L 2.5 23 L 2.5 22 Z " /><path fill="rgb(0,84,161)" stroke="rgb(0,84,161)" stroke-width="1" opacity="0.7843137254901961" d="M 18.5 22 L 18.5 23 L 18.5 22 Z " /><path fill="rgb(0,84,161)" stroke="rgb(0,84,161)" stroke-width="1" opacity="0.7843137254901961" d="M 45.5 22 L 45.5 23 L 45.5 22 Z " /><path fill="rgb(0,84,161)" stroke="rgb(0,84,161)" stroke-width="1" opacity="0.7843137254901961" d="M 10.5 23 L 10.5 24 L 10.5 23 Z " /><path fill="rgb(0,84,161)" stroke="rgb(0,84,161)" stroke-width="1" opacity="0.7843137254901961" d="M 13.5 23 L 13.5 24 L 13.5 23 Z " /><path fill="rgb(0,84,161)" stroke="rgb(0,84,161)" stroke-width="1" opacity="0.7843137254901961" d="M 29.5 23 L 29.5 24 L 29.5 23 Z " /><path fill="rgb(0,84,161)" stroke="rgb(0,84,161)" stroke-width="1" opacity="0.7843137254901961" d="M 46.5 24 L 46.5 25 L 46.5 24 Z " /><path fill="rgb(0,84,161)" stroke="rgb(0,84,161)" stroke-width="1" opacity="0.7843137254901961" d="M 11.5 25 L 11.5 26 L 11.5 25 Z " /><path fill="rgb(0,84,161)" stroke="rgb(0,84,161)" stroke-width="1" opacity="0.7843137254901961" d="M 27.5 25 L 27.5 26 L 27.5 25 Z " /><path fill="rgb(0,84,161)" stroke="rgb(0,84,161)" stroke-width="1" opacity="0.7843137254901961" d="M 44.5 26 L 44.5 27 L 44.5 26 Z " /><path fill="rgb(0,84,161)" stroke="rgb(0,84,161)" stroke-width="1" opacity="0.7843137254901961" d="M 14.5 27 L 15 28.5 L 14 28.5 L 14.5 27 Z " /><path fill="rgb(0,84,161)" stroke="rgb(0,84,161)" stroke-width="1" opacity="0.7843137254901961" d="M 30.5 27 L 30.5 28 L 30.5 27 Z " /><path fill="rgb(0,84,161)" stroke="rgb(0,84,161)" stroke-width="1" opacity="0.7843137254901961" d="M 28.5 29 L 28.5 30 L 28.5 29 Z " /><path fill="rgb(0,84,161)" stroke="rgb(0,84,161)" stroke-width="1" opacity="0.7843137254901961" d="M 12.5 30 L 12.5 31 L 12.5 30 Z " /><path fill="rgb(0,84,161)" stroke="rgb(0,84,161)" stroke-width="1" opacity="0.7843137254901961" d="M 47.5 30 L 48 33.5 L 47 33.5 L 47.5 30 Z " /><path fill="rgb(0,84,161)" stroke="rgb(0,84,161)" stroke-width="1" opacity="0.7843137254901961" d="M 45.5 32 L 46 33.5 L 45 33.5 L 45.5 32 Z " /></svg>