<svg width="128" height="128" version="1.1" xmlns="http://www.w3.org/2000/svg" desc="Created with imagetracer.js version 1.2.6" ><path fill="rgb(244,244,244)" stroke="rgb(244,244,244)" stroke-width="1" opacity="1" d="M 80.5 2 L 80.5 3 L 80.5 2 Z " /><path fill="rgb(244,244,244)" stroke="rgb(244,244,244)" stroke-width="1" opacity="1" d="M 78.5 4 L 79 4.5 L 62.5 21 L 62 20.5 L 78.5 4 Z " /><path fill="rgb(244,244,244)" stroke="rgb(244,244,244)" stroke-width="1" opacity="1" d="M 81.5 4 L 82 127.5 L 81 127.5 L 81.5 4 Z " /><path fill="rgb(244,244,244)" stroke="rgb(244,244,244)" stroke-width="1" opacity="1" d="M 56.5 25 L 57 25.5 L 54.5 28 L 54 27.5 L 56.5 25 Z " /><path fill="rgb(244,244,244)" stroke="rgb(244,244,244)" stroke-width="1" opacity="1" d="M 51.5 29 L 51.5 30 L 51.5 29 Z " /><path fill="rgb(244,244,244)" stroke="rgb(244,244,244)" stroke-width="1" opacity="1" d="M 43.5 33 L 43.5 34 L 43.5 33 Z " /><path fill="rgb(244,244,244)" stroke="rgb(244,244,244)" stroke-width="1" opacity="1" d="M 37.5 34 L 37.5 35 L 37.5 34 Z " /><path fill="rgb(244,244,244)" stroke="rgb(244,244,244)" stroke-width="1" opacity="1" d="M 37.5 38 L 40 40.5 L 39.5 41 L 37 38.5 L 37.5 38 Z " /><path fill="rgb(244,244,244)" stroke="rgb(244,244,244)" stroke-width="1" opacity="1" d="M 41.5 41 L 43 41.5 L 41.5 42 L 41.5 41 Z " /><path fill="rgb(244,244,244)" stroke="rgb(244,244,244)" stroke-width="1" opacity="1" d="M 32.5 68 L 34 68.5 L 32.5 69 L 32.5 68 Z " /><path fill="rgb(244,244,244)" stroke="rgb(244,244,244)" stroke-width="1" opacity="1" d="M 84.5 68 L 84.5 69 L 84.5 68 Z " /><path fill="rgb(244,244,244)" stroke="rgb(244,244,244)" stroke-width="1" opacity="1" d="M 106.5 68 L 106.5 69 L 106.5 68 Z " /><path fill="rgb(244,244,244)" stroke="rgb(244,244,244)" stroke-width="1" opacity="1" d="M 27.5 69 L 27.5 70 L 27.5 69 Z " /><path fill="rgb(244,244,244)" stroke="rgb(244,244,244)" stroke-width="1" opacity="1" d="M 24.5 70 L 24.5 71 L 24.5 70 Z " /><path fill="rgb(244,244,244)" stroke="rgb(244,244,244)" stroke-width="1" opacity="1" d="M 113.5 71 L 113.5 72 L 113.5 71 Z " /><path fill="rgb(244,244,244)" stroke="rgb(244,244,244)" stroke-width="1" opacity="1" d="M 19.5 72 L 19.5 73 L 19.5 72 Z " /><path fill="rgb(244,244,244)" stroke="rgb(244,244,244)" stroke-width="1" opacity="1" d="M 16.5 74 L 16.5 75 L 16.5 74 Z " /><path fill="rgb(244,244,244)" stroke="rgb(244,244,244)" stroke-width="1" opacity="1" d="M 117.5 75 L 117.5 76 L 117.5 75 Z " /><path fill="rgb(244,244,244)" stroke="rgb(244,244,244)" stroke-width="1" opacity="1" d="M 13.5 76 L 14 76.5 L 9.5 81 L 9 80.5 L 13.5 76 Z " /><path fill="rgb(244,244,244)" stroke="rgb(244,244,244)" stroke-width="1" opacity="1" d="M 118.5 77 L 118.5 78 L 118.5 77 Z " /><path fill="rgb(244,244,244)" stroke="rgb(244,244,244)" stroke-width="1" opacity="1" d="M 119.5 80 L 119.5 81 L 119.5 80 Z " /><path fill="rgb(244,244,244)" stroke="rgb(244,244,244)" stroke-width="1" opacity="1" d="M 6.5 84 L 6.5 85 L 6.5 84 Z " /><path fill="rgb(244,244,244)" stroke="rgb(244,244,244)" stroke-width="1" opacity="1" d="M 119.5 84 L 120 85.5 L 119 85.5 L 119.5 84 Z " /><path fill="rgb(244,244,244)" stroke="rgb(244,244,244)" stroke-width="1" opacity="1" d="M 5.5 86 L 5.5 87 L 5.5 86 Z " /><path fill="rgb(244,244,244)" stroke="rgb(244,244,244)" stroke-width="1" opacity="1" d="M 4.5 88 L 4.5 89 L 4.5 88 Z " /><path fill="rgb(244,244,244)" stroke="rgb(244,244,244)" stroke-width="1" opacity="1" d="M 118.5 88 L 118.5 89 L 118.5 88 Z " /><path fill="rgb(244,244,244)" stroke="rgb(244,244,244)" stroke-width="1" opacity="1" d="M 3.5 91 L 3.5 92 L 3.5 91 Z " /><path fill="rgb(244,244,244)" stroke="rgb(244,244,244)" stroke-width="1" opacity="1" d="M 116.5 91 Q 118 92 115.5 93 Q 114 92 116.5 91 Z " /><path fill="rgb(244,244,244)" stroke="rgb(244,244,244)" stroke-width="1" opacity="1" d="M 113.5 98 L 113.5 99 L 113.5 98 Z " /><path fill="rgb(244,244,244)" stroke="rgb(244,244,244)" stroke-width="1" opacity="1" d="M 3.5 104 L 4 105.5 L 3 105.5 L 3.5 104 Z " /><path fill="rgb(244,244,244)" stroke="rgb(244,244,244)" stroke-width="1" opacity="1" d="M 120.5 107 L 120.5 108 L 120.5 107 Z " /><path fill="rgb(244,244,244)" stroke="rgb(244,244,244)" stroke-width="1" opacity="1" d="M 7.5 113 L 7.5 114 L 7.5 113 Z " /><path fill="rgb(244,244,244)" stroke="rgb(244,244,244)" stroke-width="1" opacity="1" d="M 54.5 115 L 57 117.5 L 56.5 118 L 54 115.5 L 54.5 115 Z " /><path fill="rgb(244,244,244)" stroke="rgb(244,244,244)" stroke-width="1" opacity="1" d="M 119.5 118 L 119.5 119 L 119.5 118 Z " /><path fill="rgb(244,244,244)" stroke="rgb(244,244,244)" stroke-width="1" opacity="1" d="M 14.5 120 Q 17 121 15.5 122 Q 13 121 14.5 120 Z " /><path fill="rgb(244,244,244)" stroke="rgb(244,244,244)" stroke-width="1" opacity="1" d="M 117.5 121 Q 119 122 116.5 123 Q 115 122 117.5 121 Z " /><path fill="rgb(244,244,244)" stroke="rgb(244,244,244)" stroke-width="1" opacity="1" d="M 61.5 122 Q 64 123 62.5 124 Q 60 123 61.5 122 Z " /><path fill="rgb(244,244,244)" stroke="rgb(244,244,244)" stroke-width="1" opacity="1" d="M 23.5 125 L 23.5 126 L 23.5 125 Z " /><path fill="rgb(244,244,244)" stroke="rgb(244,244,244)" stroke-width="1" opacity="1" d="M 65.5 125 L 65.5 126 L 65.5 125 Z " /><path fill="rgb(244,244,244)" stroke="rgb(244,244,244)" stroke-width="1" opacity="1" d="M 112.5 125 L 112.5 126 L 112.5 125 Z " /><path fill="rgb(244,244,244)" stroke="rgb(244,244,244)" stroke-width="1" opacity="1" d="M 25.5 126 L 25.5 127 L 25.5 126 Z " /><path fill="rgb(244,244,244)" stroke="rgb(244,244,244)" stroke-width="1" opacity="1" d="M 110.5 126 L 110.5 127 L 110.5 126 Z " /><path fill="rgb(244,244,244)" stroke="rgb(244,244,244)" stroke-width="1" opacity="1" d="M 30.5 127 L 30.5 128 L 30.5 127 Z " /><path fill="rgb(244,244,244)" stroke="rgb(244,244,244)" stroke-width="1" opacity="1" d="M 107.5 127 L 107.5 128 L 107.5 127 Z " /><path fill="rgb(255,255,255)" stroke="rgb(255,255,255)" stroke-width="1" opacity="1" d="M 0 0 L 128 0 L 128 128 L 108 127.5 L 112.5 126 L 118 121.5 L 121 115.5 L 121 107.5 Q 118.67 101.33 113.5 98 L 110 96.5 L 117 91.5 L 120 85.5 L 120 80.5 L 118 75.5 L 113.5 71 L 106.5 68 L 84 68 L 84 127.5 L 82 128 L 82 3.5 L 80.5 2 L 52.5 29 L 45.5 33 L 42.5 34 L 37.5 34 L 36 35.5 Q 36.63 39.38 39.5 41 L 43 42 L 43 127.5 Q 42.96 128.38 40 128 L 40 68.5 L 39.5 68 L 32.5 68 L 31.5 69 L 27.5 69 L 21.5 72 L 19.5 72 L 9 80.5 L 6 84.5 L 3 91.5 L 3 105.5 L 7 113.5 L 15.5 122 L 25.5 127 L 30 127.5 L 0 128 L 0 0 Z " /><path fill="rgb(255,255,255)" stroke="rgb(255,255,255)" stroke-width="1" opacity="1" d="M 54.5 116 Q 59.8 123.7 69 127.5 L 54 128 L 54.5 116 Z " /><path fill="rgb(0,0,0)" stroke="rgb(0,0,0)" stroke-width="1" opacity="1" d="M 80.5 4 L 81 127 L 69.5 127 L 59 119.5 L 53.5 113 L 53 127 L 44.5 127 L 44 126.5 L 44 41.5 L 42.5 41 L 37 36.5 L 37.5 35 L 42.5 35 L 51.5 31 L 55.5 28 L 80.5 4 Z " /><path fill="rgb(0,0,0)" stroke="rgb(0,0,0)" stroke-width="1" opacity="1" d="M 32.5 69 L 38.5 69 L 39 69.5 L 39 127 L 30.5 127 L 29.5 126 L 23.5 125 L 17.5 122 L 9 114.5 L 4 104.5 L 4 91.5 L 8 83.5 L 15.5 76 L 24.5 71 L 27.5 71 L 32.5 69 Z " /><path fill="rgb(0,0,0)" stroke="rgb(0,0,0)" stroke-width="1" opacity="1" d="M 85 69 L 106.5 69 L 111.5 71 L 116 74.5 L 119 80.5 L 119 84.5 L 117 89.5 L 112.5 94 L 108 96.5 Q 114.59 98.41 118 103.5 L 120 107.5 L 120 115.5 Q 118 121 113.5 124 L 107.5 127 L 85 127 L 85 69 Z " /><path fill="rgb(199,199,199)" stroke="rgb(199,199,199)" stroke-width="1" opacity="1" d="M 79.5 3 L 79.5 4 L 79.5 3 Z " /><path fill="rgb(199,199,199)" stroke="rgb(199,199,199)" stroke-width="1" opacity="1" d="M 81.5 3 L 81.5 4 L 81.5 3 Z " /><path fill="rgb(199,199,199)" stroke="rgb(199,199,199)" stroke-width="1" opacity="1" d="M 61.5 21 L 62 21.5 L 58.5 25 L 58 24.5 L 61.5 21 Z " /><path fill="rgb(199,199,199)" stroke="rgb(199,199,199)" stroke-width="1" opacity="1" d="M 53.5 28 L 53.5 29 L 53.5 28 Z " /><path fill="rgb(199,199,199)" stroke="rgb(199,199,199)" stroke-width="1" opacity="1" d="M 50.5 30 L 50.5 31 L 50.5 30 Z " /><path fill="rgb(199,199,199)" stroke="rgb(199,199,199)" stroke-width="1" opacity="1" d="M 48.5 31 L 48.5 32 L 48.5 31 Z " /><path fill="rgb(199,199,199)" stroke="rgb(199,199,199)" stroke-width="1" opacity="1" d="M 46.5 32 L 46.5 33 L 46.5 32 Z " /><path fill="rgb(199,199,199)" stroke="rgb(199,199,199)" stroke-width="1" opacity="1" d="M 44.5 33 L 44.5 34 L 44.5 33 Z " /><path fill="rgb(199,199,199)" stroke="rgb(199,199,199)" stroke-width="1" opacity="1" d="M 38.5 34 L 41 34.5 L 38.5 35 L 38.5 34 Z " /><path fill="rgb(199,199,199)" stroke="rgb(199,199,199)" stroke-width="1" opacity="1" d="M 36.5 35 L 37 36.5 L 36 36.5 L 36.5 35 Z " /><path fill="rgb(199,199,199)" stroke="rgb(199,199,199)" stroke-width="1" opacity="1" d="M 40.5 40 L 40.5 41 L 40.5 40 Z " /><path fill="rgb(199,199,199)" stroke="rgb(199,199,199)" stroke-width="1" opacity="1" d="M 34.5 68 L 40 68.5 L 34.5 69 L 34.5 68 Z " /><path fill="rgb(199,199,199)" stroke="rgb(199,199,199)" stroke-width="1" opacity="1" d="M 103.5 68 L 106 68.5 L 103.5 69 L 103.5 68 Z " /><path fill="rgb(199,199,199)" stroke="rgb(199,199,199)" stroke-width="1" opacity="1" d="M 28.5 69 L 30 69.5 L 28.5 70 L 28.5 69 Z " /><path fill="rgb(199,199,199)" stroke="rgb(199,199,199)" stroke-width="1" opacity="1" d="M 84.5 69 L 85 127.5 L 84 127.5 L 84.5 69 Z " /><path fill="rgb(199,199,199)" stroke="rgb(199,199,199)" stroke-width="1" opacity="1" d="M 109.5 69 L 109.5 70 L 109.5 69 Z " /><path fill="rgb(199,199,199)" stroke="rgb(199,199,199)" stroke-width="1" opacity="1" d="M 25.5 70 L 25.5 71 L 25.5 70 Z " /><path fill="rgb(199,199,199)" stroke="rgb(199,199,199)" stroke-width="1" opacity="1" d="M 111.5 70 L 111.5 71 L 111.5 70 Z " /><path fill="rgb(199,199,199)" stroke="rgb(199,199,199)" stroke-width="1" opacity="1" d="M 22.5 71 L 22.5 72 L 22.5 71 Z " /><path fill="rgb(199,199,199)" stroke="rgb(199,199,199)" stroke-width="1" opacity="1" d="M 20.5 72 L 20.5 73 L 20.5 72 Z " /><path fill="rgb(199,199,199)" stroke="rgb(199,199,199)" stroke-width="1" opacity="1" d="M 114.5 72 L 117 74.5 L 116.5 75 L 114 72.5 L 114.5 72 Z " /><path fill="rgb(199,199,199)" stroke="rgb(199,199,199)" stroke-width="1" opacity="1" d="M 18.5 73 L 18.5 74 L 18.5 73 Z " /><path fill="rgb(199,199,199)" stroke="rgb(199,199,199)" stroke-width="1" opacity="1" d="M 15.5 75 L 15.5 76 L 15.5 75 Z " /><path fill="rgb(199,199,199)" stroke="rgb(199,199,199)" stroke-width="1" opacity="1" d="M 118.5 78 L 118.5 79 L 118.5 78 Z " /><path fill="rgb(199,199,199)" stroke="rgb(199,199,199)" stroke-width="1" opacity="1" d="M 119.5 81 L 120 83.5 L 119 83.5 L 119.5 81 Z " /><path fill="rgb(199,199,199)" stroke="rgb(199,199,199)" stroke-width="1" opacity="1" d="M 8.5 82 Q 10 83 7.5 84 Q 6 83 8.5 82 Z " /><path fill="rgb(199,199,199)" stroke="rgb(199,199,199)" stroke-width="1" opacity="1" d="M 6.5 85 L 6.5 86 L 6.5 85 Z " /><path fill="rgb(199,199,199)" stroke="rgb(199,199,199)" stroke-width="1" opacity="1" d="M 5.5 87 L 5.5 88 L 5.5 87 Z " /><path fill="rgb(199,199,199)" stroke="rgb(199,199,199)" stroke-width="1" opacity="1" d="M 118.5 87 L 118.5 88 L 118.5 87 Z " /><path fill="rgb(199,199,199)" stroke="rgb(199,199,199)" stroke-width="1" opacity="1" d="M 4.5 89 L 4.5 90 L 4.5 89 Z " /><path fill="rgb(199,199,199)" stroke="rgb(199,199,199)" stroke-width="1" opacity="1" d="M 117.5 89 Q 119 90 116.5 91 Q 115 90 117.5 89 Z " /><path fill="rgb(199,199,199)" stroke="rgb(199,199,199)" stroke-width="1" opacity="1" d="M 3.5 92 L 4 93.5 L 3 93.5 L 3.5 92 Z " /><path fill="rgb(199,199,199)" stroke="rgb(199,199,199)" stroke-width="1" opacity="1" d="M 113.5 93 Q 115 94 112.5 95 Q 111 94 113.5 93 Z " /><path fill="rgb(199,199,199)" stroke="rgb(199,199,199)" stroke-width="1" opacity="1" d="M 110.5 95 Q 112 96 109.5 97 Q 108 96 110.5 95 Z " /><path fill="rgb(199,199,199)" stroke="rgb(199,199,199)" stroke-width="1" opacity="1" d="M 111.5 97 L 111.5 98 L 111.5 97 Z " /><path fill="rgb(199,199,199)" stroke="rgb(199,199,199)" stroke-width="1" opacity="1" d="M 114.5 99 Q 117 100 115.5 101 Q 113 100 114.5 99 Z " /><path fill="rgb(199,199,199)" stroke="rgb(199,199,199)" stroke-width="1" opacity="1" d="M 117.5 102 Q 120 103 118.5 104 Q 116 103 117.5 102 Z " /><path fill="rgb(199,199,199)" stroke="rgb(199,199,199)" stroke-width="1" opacity="1" d="M 3.5 103 L 3.5 104 L 3.5 103 Z " /><path fill="rgb(199,199,199)" stroke="rgb(199,199,199)" stroke-width="1" opacity="1" d="M 119.5 105 L 119.5 106 L 119.5 105 Z " /><path fill="rgb(199,199,199)" stroke="rgb(199,199,199)" stroke-width="1" opacity="1" d="M 4.5 106 L 5 107.5 L 4 107.5 L 4.5 106 Z " /><path fill="rgb(199,199,199)" stroke="rgb(199,199,199)" stroke-width="1" opacity="1" d="M 120.5 108 L 121 109.5 L 120 109.5 L 120.5 108 Z " /><path fill="rgb(199,199,199)" stroke="rgb(199,199,199)" stroke-width="1" opacity="1" d="M 5.5 109 L 5.5 110 L 5.5 109 Z " /><path fill="rgb(199,199,199)" stroke="rgb(199,199,199)" stroke-width="1" opacity="1" d="M 6.5 111 L 6.5 112 L 6.5 111 Z " /><path fill="rgb(199,199,199)" stroke="rgb(199,199,199)" stroke-width="1" opacity="1" d="M 120.5 113 L 121 115.5 L 120 115.5 L 120.5 113 Z " /><path fill="rgb(199,199,199)" stroke="rgb(199,199,199)" stroke-width="1" opacity="1" d="M 8.5 114 L 14 119.5 L 13.5 120 L 8 114.5 L 8.5 114 Z " /><path fill="rgb(199,199,199)" stroke="rgb(199,199,199)" stroke-width="1" opacity="1" d="M 54.5 114 L 54.5 115 L 54.5 114 Z " /><path fill="rgb(199,199,199)" stroke="rgb(199,199,199)" stroke-width="1" opacity="1" d="M 119.5 117 L 119.5 118 L 119.5 117 Z " /><path fill="rgb(199,199,199)" stroke="rgb(199,199,199)" stroke-width="1" opacity="1" d="M 57.5 118 L 61 121.5 L 60.5 122 L 57 118.5 L 57.5 118 Z " /><path fill="rgb(199,199,199)" stroke="rgb(199,199,199)" stroke-width="1" opacity="1" d="M 118.5 119 L 118.5 120 L 118.5 119 Z " /><path fill="rgb(199,199,199)" stroke="rgb(199,199,199)" stroke-width="1" opacity="1" d="M 16.5 121 Q 19 122 17.5 123 Q 15 122 16.5 121 Z " /><path fill="rgb(199,199,199)" stroke="rgb(199,199,199)" stroke-width="1" opacity="1" d="M 19.5 123 L 19.5 124 L 19.5 123 Z " /><path fill="rgb(199,199,199)" stroke="rgb(199,199,199)" stroke-width="1" opacity="1" d="M 114.5 123 Q 116 124 113.5 125 Q 112 124 114.5 123 Z " /><path fill="rgb(199,199,199)" stroke="rgb(199,199,199)" stroke-width="1" opacity="1" d="M 21.5 124 L 21.5 125 L 21.5 124 Z " /><path fill="rgb(199,199,199)" stroke="rgb(199,199,199)" stroke-width="1" opacity="1" d="M 64.5 124 L 64.5 125 L 64.5 124 Z " /><path fill="rgb(199,199,199)" stroke="rgb(199,199,199)" stroke-width="1" opacity="1" d="M 24.5 125 L 24.5 126 L 24.5 125 Z " /><path fill="rgb(199,199,199)" stroke="rgb(199,199,199)" stroke-width="1" opacity="1" d="M 111.5 125 L 111.5 126 L 111.5 125 Z " /><path fill="rgb(199,199,199)" stroke="rgb(199,199,199)" stroke-width="1" opacity="1" d="M 26.5 126 L 28 126.5 L 26.5 127 L 26.5 126 Z " /><path fill="rgb(199,199,199)" stroke="rgb(199,199,199)" stroke-width="1" opacity="1" d="M 67.5 126 L 67.5 127 L 67.5 126 Z " /><path fill="rgb(199,199,199)" stroke="rgb(199,199,199)" stroke-width="1" opacity="1" d="M 109.5 126 L 109.5 127 L 109.5 126 Z " /><path fill="rgb(199,199,199)" stroke="rgb(199,199,199)" stroke-width="1" opacity="1" d="M 31.5 127 L 33 127.5 L 31.5 128 L 31.5 127 Z " /><path fill="rgb(199,199,199)" stroke="rgb(199,199,199)" stroke-width="1" opacity="1" d="M 43.5 127 L 43.5 128 L 43.5 127 Z " /><path fill="rgb(199,199,199)" stroke="rgb(199,199,199)" stroke-width="1" opacity="1" d="M 53.5 127 L 53.5 128 L 53.5 127 Z " /><path fill="rgb(199,199,199)" stroke="rgb(199,199,199)" stroke-width="1" opacity="1" d="M 69.5 127 L 81 127.5 L 69.5 128 L 69.5 127 Z " /><path fill="rgb(199,199,199)" stroke="rgb(199,199,199)" stroke-width="1" opacity="1" d="M 105.5 127 L 107 127.5 L 105.5 128 L 105.5 127 Z " /><path fill="rgb(101,101,101)" stroke="rgb(101,101,101)" stroke-width="1" opacity="1" d="M 80.5 3 L 81 3.5 L 61.5 23 L 61 22.5 L 80.5 3 Z " /><path fill="rgb(101,101,101)" stroke="rgb(101,101,101)" stroke-width="1" opacity="1" d="M 57.5 25 L 58 25.5 L 55.5 28 L 55 27.5 L 57.5 25 Z " /><path fill="rgb(101,101,101)" stroke="rgb(101,101,101)" stroke-width="1" opacity="1" d="M 52.5 29 Q 54 30 51.5 31 Q 50 30 52.5 29 Z " /><path fill="rgb(101,101,101)" stroke="rgb(101,101,101)" stroke-width="1" opacity="1" d="M 49.5 31 L 49.5 32 L 49.5 31 Z " /><path fill="rgb(101,101,101)" stroke="rgb(101,101,101)" stroke-width="1" opacity="1" d="M 47.5 32 L 47.5 33 L 47.5 32 Z " /><path fill="rgb(101,101,101)" stroke="rgb(101,101,101)" stroke-width="1" opacity="1" d="M 45.5 33 L 45.5 34 L 45.5 33 Z " /><path fill="rgb(101,101,101)" stroke="rgb(101,101,101)" stroke-width="1" opacity="1" d="M 41.5 34 L 43 34.5 L 41.5 35 L 41.5 34 Z " /><path fill="rgb(101,101,101)" stroke="rgb(101,101,101)" stroke-width="1" opacity="1" d="M 37.5 37 L 40 39.5 L 39.5 40 L 37 37.5 L 37.5 37 Z " /><path fill="rgb(101,101,101)" stroke="rgb(101,101,101)" stroke-width="1" opacity="1" d="M 41.5 40 L 41.5 41 L 41.5 40 Z " /><path fill="rgb(101,101,101)" stroke="rgb(101,101,101)" stroke-width="1" opacity="1" d="M 43.5 41 L 44 127 L 53 127 L 53 113.5 L 54 113.5 L 54 126.5 L 52.5 128 L 44.5 128 L 43 126.5 L 43.5 41 Z " /><path fill="rgb(101,101,101)" stroke="rgb(101,101,101)" stroke-width="1" opacity="1" d="M 85.5 68 L 103 68.5 L 85.5 69 L 85.5 68 Z " /><path fill="rgb(101,101,101)" stroke="rgb(101,101,101)" stroke-width="1" opacity="1" d="M 30.5 69 L 32 69.5 L 30.5 70 L 30.5 69 Z " /><path fill="rgb(101,101,101)" stroke="rgb(101,101,101)" stroke-width="1" opacity="1" d="M 39.5 69 L 40 128 L 33 127.5 L 39 127 L 39.5 69 Z " /><path fill="rgb(101,101,101)" stroke="rgb(101,101,101)" stroke-width="1" opacity="1" d="M 107.5 69 L 109 69.5 L 107.5 70 L 107.5 69 Z " /><path fill="rgb(101,101,101)" stroke="rgb(101,101,101)" stroke-width="1" opacity="1" d="M 26.5 70 L 28 70.5 L 26.5 71 L 26.5 70 Z " /><path fill="rgb(101,101,101)" stroke="rgb(101,101,101)" stroke-width="1" opacity="1" d="M 110.5 70 L 110.5 71 L 110.5 70 Z " /><path fill="rgb(101,101,101)" stroke="rgb(101,101,101)" stroke-width="1" opacity="1" d="M 23.5 71 L 23.5 72 L 23.5 71 Z " /><path fill="rgb(101,101,101)" stroke="rgb(101,101,101)" stroke-width="1" opacity="1" d="M 112.5 71 Q 115 72 113.5 73 Q 111 72 112.5 71 Z " /><path fill="rgb(101,101,101)" stroke="rgb(101,101,101)" stroke-width="1" opacity="1" d="M 21.5 72 L 21.5 73 L 21.5 72 Z " /><path fill="rgb(101,101,101)" stroke="rgb(101,101,101)" stroke-width="1" opacity="1" d="M 19.5 73 L 19.5 74 L 19.5 73 Z " /><path fill="rgb(101,101,101)" stroke="rgb(101,101,101)" stroke-width="1" opacity="1" d="M 17.5 74 Q 19 75 16.5 76 Q 15 75 17.5 74 Z " /><path fill="rgb(101,101,101)" stroke="rgb(101,101,101)" stroke-width="1" opacity="1" d="M 116.5 75 Q 119 76 117.5 77 Q 115 76 116.5 75 Z " /><path fill="rgb(101,101,101)" stroke="rgb(101,101,101)" stroke-width="1" opacity="1" d="M 14.5 76 L 15 76.5 L 9.5 82 L 9 81.5 L 14.5 76 Z " /><path fill="rgb(101,101,101)" stroke="rgb(101,101,101)" stroke-width="1" opacity="1" d="M 118.5 79 L 118.5 80 L 118.5 79 Z " /><path fill="rgb(101,101,101)" stroke="rgb(101,101,101)" stroke-width="1" opacity="1" d="M 7.5 84 L 7.5 85 L 7.5 84 Z " /><path fill="rgb(101,101,101)" stroke="rgb(101,101,101)" stroke-width="1" opacity="1" d="M 118.5 85 L 119 86.5 L 118 86.5 L 118.5 85 Z " /><path fill="rgb(101,101,101)" stroke="rgb(101,101,101)" stroke-width="1" opacity="1" d="M 6.5 86 L 6.5 87 L 6.5 86 Z " /><path fill="rgb(101,101,101)" stroke="rgb(101,101,101)" stroke-width="1" opacity="1" d="M 5.5 88 L 5.5 89 L 5.5 88 Z " /><path fill="rgb(101,101,101)" stroke="rgb(101,101,101)" stroke-width="1" opacity="1" d="M 117.5 88 L 117.5 89 L 117.5 88 Z " /><path fill="rgb(101,101,101)" stroke="rgb(101,101,101)" stroke-width="1" opacity="1" d="M 4.5 90 L 4.5 91 L 4.5 90 Z " /><path fill="rgb(101,101,101)" stroke="rgb(101,101,101)" stroke-width="1" opacity="1" d="M 115.5 91 Q 117 92 114.5 93 Q 113 92 115.5 91 Z " /><path fill="rgb(101,101,101)" stroke="rgb(101,101,101)" stroke-width="1" opacity="1" d="M 3.5 94 L 4 102.5 L 3 102.5 L 3.5 94 Z " /><path fill="rgb(101,101,101)" stroke="rgb(101,101,101)" stroke-width="1" opacity="1" d="M 111.5 94 L 111.5 95 L 111.5 94 Z " /><path fill="rgb(101,101,101)" stroke="rgb(101,101,101)" stroke-width="1" opacity="1" d="M 109.5 95 Q 111 96 108.5 97 Q 107 96 109.5 95 Z " /><path fill="rgb(101,101,101)" stroke="rgb(101,101,101)" stroke-width="1" opacity="1" d="M 110.5 97 L 110.5 98 L 110.5 97 Z " /><path fill="rgb(101,101,101)" stroke="rgb(101,101,101)" stroke-width="1" opacity="1" d="M 112.5 98 L 112.5 99 L 112.5 98 Z " /><path fill="rgb(101,101,101)" stroke="rgb(101,101,101)" stroke-width="1" opacity="1" d="M 116.5 101 L 116.5 102 L 116.5 101 Z " /><path fill="rgb(101,101,101)" stroke="rgb(101,101,101)" stroke-width="1" opacity="1" d="M 118.5 104 L 118.5 105 L 118.5 104 Z " /><path fill="rgb(101,101,101)" stroke="rgb(101,101,101)" stroke-width="1" opacity="1" d="M 4.5 105 L 4.5 106 L 4.5 105 Z " /><path fill="rgb(101,101,101)" stroke="rgb(101,101,101)" stroke-width="1" opacity="1" d="M 119.5 106 L 119.5 107 L 119.5 106 Z " /><path fill="rgb(101,101,101)" stroke="rgb(101,101,101)" stroke-width="1" opacity="1" d="M 5.5 108 L 5.5 109 L 5.5 108 Z " /><path fill="rgb(101,101,101)" stroke="rgb(101,101,101)" stroke-width="1" opacity="1" d="M 6.5 110 L 6.5 111 L 6.5 110 Z " /><path fill="rgb(101,101,101)" stroke="rgb(101,101,101)" stroke-width="1" opacity="1" d="M 120.5 110 L 121 112.5 L 120 112.5 L 120.5 110 Z " /><path fill="rgb(101,101,101)" stroke="rgb(101,101,101)" stroke-width="1" opacity="1" d="M 7.5 112 Q 10 113 8.5 114 Q 6 113 7.5 112 Z " /><path fill="rgb(101,101,101)" stroke="rgb(101,101,101)" stroke-width="1" opacity="1" d="M 55.5 115 L 59 118.5 L 58.5 119 L 55 115.5 L 55.5 115 Z " /><path fill="rgb(101,101,101)" stroke="rgb(101,101,101)" stroke-width="1" opacity="1" d="M 119.5 116 L 119.5 117 L 119.5 116 Z " /><path fill="rgb(101,101,101)" stroke="rgb(101,101,101)" stroke-width="1" opacity="1" d="M 118.5 118 L 118.5 119 L 118.5 118 Z " /><path fill="rgb(101,101,101)" stroke="rgb(101,101,101)" stroke-width="1" opacity="1" d="M 14.5 119 Q 17 120 15.5 121 Q 13 120 14.5 119 Z " /><path fill="rgb(101,101,101)" stroke="rgb(101,101,101)" stroke-width="1" opacity="1" d="M 117.5 120 L 118 120.5 L 115.5 123 L 115 122.5 L 117.5 120 Z " /><path fill="rgb(101,101,101)" stroke="rgb(101,101,101)" stroke-width="1" opacity="1" d="M 61.5 121 L 64 123.5 L 63.5 124 L 61 121.5 L 61.5 121 Z " /><path fill="rgb(101,101,101)" stroke="rgb(101,101,101)" stroke-width="1" opacity="1" d="M 18.5 122 L 18.5 123 L 18.5 122 Z " /><path fill="rgb(101,101,101)" stroke="rgb(101,101,101)" stroke-width="1" opacity="1" d="M 20.5 123 L 20.5 124 L 20.5 123 Z " /><path fill="rgb(101,101,101)" stroke="rgb(101,101,101)" stroke-width="1" opacity="1" d="M 22.5 124 L 22.5 125 L 22.5 124 Z " /><path fill="rgb(101,101,101)" stroke="rgb(101,101,101)" stroke-width="1" opacity="1" d="M 65.5 124 Q 68 125 66.5 126 Q 64 125 65.5 124 Z " /><path fill="rgb(101,101,101)" stroke="rgb(101,101,101)" stroke-width="1" opacity="1" d="M 112.5 124 L 112.5 125 L 112.5 124 Z " /><path fill="rgb(101,101,101)" stroke="rgb(101,101,101)" stroke-width="1" opacity="1" d="M 25.5 125 L 25.5 126 L 25.5 125 Z " /><path fill="rgb(101,101,101)" stroke="rgb(101,101,101)" stroke-width="1" opacity="1" d="M 110.5 125 L 110.5 126 L 110.5 125 Z " /><path fill="rgb(101,101,101)" stroke="rgb(101,101,101)" stroke-width="1" opacity="1" d="M 28.5 126 L 30 126.5 L 28.5 127 L 28.5 126 Z " /><path fill="rgb(101,101,101)" stroke="rgb(101,101,101)" stroke-width="1" opacity="1" d="M 68.5 126 L 68.5 127 L 68.5 126 Z " /><path fill="rgb(101,101,101)" stroke="rgb(101,101,101)" stroke-width="1" opacity="1" d="M 108.5 126 L 108.5 127 L 108.5 126 Z " /><path fill="rgb(101,101,101)" stroke="rgb(101,101,101)" stroke-width="1" opacity="1" d="M 85.5 127 L 105 127.5 L 85.5 128 L 85.5 127 Z " /></svg>