<svg width="128" height="128" version="1.1" xmlns="http://www.w3.org/2000/svg" desc="Created with imagetracer.js version 1.2.6" ><path fill="rgb(35,52,112)" stroke="rgb(35,52,112)" stroke-width="1" opacity="1" d="M 0 0 L 128 0 L 128 128 L 0 128 L 0 0 Z M 19 36 L 18 39 L 18 46 L 16 52 L 14 66 L 13 67 L 13 75 L 12 76 L 11 84 L 10 85 L 10 89 L 9 90 Q 9 92 10 92 L 22 92 L 23 83 L 25 78 L 25 71 L 27 69 L 42 69 Q 41 66 43 66 L 43 62 L 44 61 L 27 60 L 28 58 L 28 53 L 29 52 Q 28 46 30 46 L 47 46 Q 48 49 46 51 L 46 55 L 45 56 L 45 64 L 43 69 L 41 83 L 40 84 L 40 89 L 39 90 Q 39 92 40 92 L 51 92 L 57 62 L 57 70 L 58 71 L 58 77 L 59 78 L 59 85 L 60 86 L 60 92 L 68 92 L 71 88 L 81 66 L 82 66 L 82 70 L 80 75 L 80 79 L 78 84 L 78 89 Q 76 89 77 92 L 103 92 L 108 89 L 110 89 Q 109 86 112 87 L 112 86 L 115 82 Q 114 78 116 78 L 116 70 Q 114 69 115 66 L 112 65 Q 111 62 114 63 L 118 59 L 120 54 L 120 48 L 118 43 L 114 38 L 109 36 L 82 36 L 82 40 L 77 49 L 76 54 L 73 58 L 73 60 L 71 63 L 71 66 L 68 71 L 67 63 L 66 62 L 66 52 L 65 51 L 65 42 L 64 41 Q 64 36 64 36 L 19 36 Z " /><path fill="rgb(35,52,112)" stroke="rgb(35,52,112)" stroke-width="1" opacity="1" d="M 98 46 L 104.5 46 L 107 48.5 L 108 50.5 Q 106.25 51.25 107 54.5 L 102.5 59 L 96 59 L 96 55.5 L 97 54.5 L 97 50.5 Q 99 49.37 98 46 Z " /><path fill="rgb(35,52,112)" stroke="rgb(35,52,112)" stroke-width="1" opacity="1" d="M 94 68 L 100.5 68 L 104 70.5 L 104 76.5 L 101.5 81 L 99.5 82 L 92 82 L 93 79.5 L 94 68 Z " /><path fill="rgb(242,243,246)" stroke="rgb(242,243,246)" stroke-width="1" opacity="1" d="M 109.5 37 L 109.5 38 L 109.5 37 Z " /><path fill="rgb(242,243,246)" stroke="rgb(242,243,246)" stroke-width="1" opacity="1" d="M 82.5 39 L 82.5 40 L 82.5 39 Z " /><path fill="rgb(242,243,246)" stroke="rgb(242,243,246)" stroke-width="1" opacity="1" d="M 80.5 43 L 80.5 44 L 80.5 43 Z " /><path fill="rgb(242,243,246)" stroke="rgb(242,243,246)" stroke-width="1" opacity="1" d="M 18.5 45 L 18.5 46 L 18.5 45 Z " /><path fill="rgb(242,243,246)" stroke="rgb(242,243,246)" stroke-width="1" opacity="1" d="M 79.5 45 L 79.5 46 L 79.5 45 Z " /><path fill="rgb(242,243,246)" stroke="rgb(242,243,246)" stroke-width="1" opacity="1" d="M 118.5 45 L 118.5 46 L 118.5 45 Z " /><path fill="rgb(242,243,246)" stroke="rgb(242,243,246)" stroke-width="1" opacity="1" d="M 97.5 46 L 97.5 47 L 97.5 46 Z " /><path fill="rgb(242,243,246)" stroke="rgb(242,243,246)" stroke-width="1" opacity="1" d="M 106.5 46 L 106.5 47 L 106.5 46 Z " /><path fill="rgb(242,243,246)" stroke="rgb(242,243,246)" stroke-width="1" opacity="1" d="M 47.5 48 L 47.5 49 L 47.5 48 Z " /><path fill="rgb(242,243,246)" stroke="rgb(242,243,246)" stroke-width="1" opacity="1" d="M 17.5 50 L 17.5 51 L 17.5 50 Z " /><path fill="rgb(242,243,246)" stroke="rgb(242,243,246)" stroke-width="1" opacity="1" d="M 27.5 53 L 27.5 54 L 27.5 53 Z " /><path fill="rgb(242,243,246)" stroke="rgb(242,243,246)" stroke-width="1" opacity="1" d="M 75.5 55 L 75.5 56 L 75.5 55 Z " /><path fill="rgb(242,243,246)" stroke="rgb(242,243,246)" stroke-width="1" opacity="1" d="M 95.5 55 L 95.5 56 L 95.5 55 Z " /><path fill="rgb(242,243,246)" stroke="rgb(242,243,246)" stroke-width="1" opacity="1" d="M 106.5 56 L 106.5 57 L 106.5 56 Z " /><path fill="rgb(242,243,246)" stroke="rgb(242,243,246)" stroke-width="1" opacity="1" d="M 56.5 57 L 56.5 58 L 56.5 57 Z " /><path fill="rgb(242,243,246)" stroke="rgb(242,243,246)" stroke-width="1" opacity="1" d="M 117.5 57 L 117.5 58 L 117.5 57 Z " /><path fill="rgb(242,243,246)" stroke="rgb(242,243,246)" stroke-width="1" opacity="1" d="M 104.5 58 L 104.5 59 L 104.5 58 Z " /><path fill="rgb(242,243,246)" stroke="rgb(242,243,246)" stroke-width="1" opacity="1" d="M 55.5 59 L 55.5 60 L 55.5 59 Z " /><path fill="rgb(242,243,246)" stroke="rgb(242,243,246)" stroke-width="1" opacity="1" d="M 82.5 60 L 82.5 61 L 82.5 60 Z " /><path fill="rgb(242,243,246)" stroke="rgb(242,243,246)" stroke-width="1" opacity="1" d="M 115.5 60 L 115.5 61 L 115.5 60 Z " /><path fill="rgb(242,243,246)" stroke="rgb(242,243,246)" stroke-width="1" opacity="1" d="M 42.5 61 L 42.5 62 L 42.5 61 Z " /><path fill="rgb(242,243,246)" stroke="rgb(242,243,246)" stroke-width="1" opacity="1" d="M 45.5 62 L 45.5 63 L 45.5 62 Z " /><path fill="rgb(242,243,246)" stroke="rgb(242,243,246)" stroke-width="1" opacity="1" d="M 72.5 62 L 72.5 63 L 72.5 62 Z " /><path fill="rgb(242,243,246)" stroke="rgb(242,243,246)" stroke-width="1" opacity="1" d="M 112.5 62 L 112.5 63 L 112.5 62 Z " /><path fill="rgb(242,243,246)" stroke="rgb(242,243,246)" stroke-width="1" opacity="1" d="M 81.5 63 L 81.5 64 L 81.5 63 Z " /><path fill="rgb(242,243,246)" stroke="rgb(242,243,246)" stroke-width="1" opacity="1" d="M 110.5 63 L 110.5 64 L 110.5 63 Z " /><path fill="rgb(242,243,246)" stroke="rgb(242,243,246)" stroke-width="1" opacity="1" d="M 14.5 64 L 14.5 65 L 14.5 64 Z " /><path fill="rgb(242,243,246)" stroke="rgb(242,243,246)" stroke-width="1" opacity="1" d="M 80.5 65 Q 82 66 79.5 67 Q 78 66 80.5 65 Z " /><path fill="rgb(242,243,246)" stroke="rgb(242,243,246)" stroke-width="1" opacity="1" d="M 41.5 66 L 41.5 67 L 41.5 66 Z " /><path fill="rgb(242,243,246)" stroke="rgb(242,243,246)" stroke-width="1" opacity="1" d="M 113.5 66 L 113.5 67 L 113.5 66 Z " /><path fill="rgb(242,243,246)" stroke="rgb(242,243,246)" stroke-width="1" opacity="1" d="M 82.5 67 L 83 68.5 L 82 68.5 L 82.5 67 Z " /><path fill="rgb(242,243,246)" stroke="rgb(242,243,246)" stroke-width="1" opacity="1" d="M 103.5 68 L 103.5 69 L 103.5 68 Z " /><path fill="rgb(242,243,246)" stroke="rgb(242,243,246)" stroke-width="1" opacity="1" d="M 114.5 68 L 114.5 69 L 114.5 68 Z " /><path fill="rgb(242,243,246)" stroke="rgb(242,243,246)" stroke-width="1" opacity="1" d="M 24.5 71 L 24.5 72 L 24.5 71 Z " /><path fill="rgb(242,243,246)" stroke="rgb(242,243,246)" stroke-width="1" opacity="1" d="M 58.5 71 L 58.5 72 L 58.5 71 Z " /><path fill="rgb(242,243,246)" stroke="rgb(242,243,246)" stroke-width="1" opacity="1" d="M 43.5 72 L 43.5 73 L 43.5 72 Z " /><path fill="rgb(242,243,246)" stroke="rgb(242,243,246)" stroke-width="1" opacity="1" d="M 13.5 73 L 13.5 74 L 13.5 73 Z " /><path fill="rgb(242,243,246)" stroke="rgb(242,243,246)" stroke-width="1" opacity="1" d="M 23.5 75 L 24 76.5 L 23 76.5 L 23.5 75 Z " /><path fill="rgb(242,243,246)" stroke="rgb(242,243,246)" stroke-width="1" opacity="1" d="M 92.5 76 L 92.5 77 L 92.5 76 Z " /><path fill="rgb(242,243,246)" stroke="rgb(242,243,246)" stroke-width="1" opacity="1" d="M 42.5 77 L 42.5 78 L 42.5 77 Z " /><path fill="rgb(242,243,246)" stroke="rgb(242,243,246)" stroke-width="1" opacity="1" d="M 74.5 77 L 74.5 78 L 74.5 77 Z " /><path fill="rgb(242,243,246)" stroke="rgb(242,243,246)" stroke-width="1" opacity="1" d="M 80.5 77 L 80.5 78 L 80.5 77 Z " /><path fill="rgb(242,243,246)" stroke="rgb(242,243,246)" stroke-width="1" opacity="1" d="M 12.5 78 L 12.5 79 L 12.5 78 Z " /><path fill="rgb(242,243,246)" stroke="rgb(242,243,246)" stroke-width="1" opacity="1" d="M 114.5 78 L 114.5 79 L 114.5 78 Z " /><path fill="rgb(242,243,246)" stroke="rgb(242,243,246)" stroke-width="1" opacity="1" d="M 52.5 79 L 52.5 80 L 52.5 79 Z " /><path fill="rgb(242,243,246)" stroke="rgb(242,243,246)" stroke-width="1" opacity="1" d="M 59.5 79 L 59.5 80 L 59.5 79 Z " /><path fill="rgb(242,243,246)" stroke="rgb(242,243,246)" stroke-width="1" opacity="1" d="M 103.5 79 L 103.5 80 L 103.5 79 Z " /><path fill="rgb(242,243,246)" stroke="rgb(242,243,246)" stroke-width="1" opacity="1" d="M 72.5 81 L 72.5 82 L 72.5 81 Z " /><path fill="rgb(242,243,246)" stroke="rgb(242,243,246)" stroke-width="1" opacity="1" d="M 91.5 81 L 92 82.5 L 91 82.5 L 91.5 81 Z " /><path fill="rgb(242,243,246)" stroke="rgb(242,243,246)" stroke-width="1" opacity="1" d="M 101.5 81 L 101.5 82 L 101.5 81 Z " /><path fill="rgb(242,243,246)" stroke="rgb(242,243,246)" stroke-width="1" opacity="1" d="M 79.5 82 L 79.5 83 L 79.5 82 Z " /><path fill="rgb(242,243,246)" stroke="rgb(242,243,246)" stroke-width="1" opacity="1" d="M 99.5 82 L 99.5 83 L 99.5 82 Z " /><path fill="rgb(242,243,246)" stroke="rgb(242,243,246)" stroke-width="1" opacity="1" d="M 113.5 82 L 113.5 83 L 113.5 82 Z " /><path fill="rgb(242,243,246)" stroke="rgb(242,243,246)" stroke-width="1" opacity="1" d="M 22.5 83 L 22.5 84 L 22.5 83 Z " /><path fill="rgb(242,243,246)" stroke="rgb(242,243,246)" stroke-width="1" opacity="1" d="M 51.5 84 L 51.5 85 L 51.5 84 Z " /><path fill="rgb(242,243,246)" stroke="rgb(242,243,246)" stroke-width="1" opacity="1" d="M 111.5 85 Q 113 86 110.5 87 Q 109 86 111.5 85 Z " /><path fill="rgb(242,243,246)" stroke="rgb(242,243,246)" stroke-width="1" opacity="1" d="M 70.5 86 Q 72 87 69.5 88 Q 68 87 70.5 86 Z " /><path fill="rgb(242,243,246)" stroke="rgb(242,243,246)" stroke-width="1" opacity="1" d="M 60.5 87 L 60.5 88 L 60.5 87 Z " /><path fill="rgb(242,243,246)" stroke="rgb(242,243,246)" stroke-width="1" opacity="1" d="M 10.5 88 L 10.5 89 L 10.5 88 Z " /><path fill="rgb(242,243,246)" stroke="rgb(242,243,246)" stroke-width="1" opacity="1" d="M 21.5 88 L 21.5 89 L 21.5 88 Z " /><path fill="rgb(242,243,246)" stroke="rgb(242,243,246)" stroke-width="1" opacity="1" d="M 50.5 89 L 51 90.5 L 50 90.5 L 50.5 89 Z " /><path fill="rgb(242,243,246)" stroke="rgb(242,243,246)" stroke-width="1" opacity="1" d="M 68.5 89 L 68.5 90 L 68.5 89 Z " /><path fill="rgb(242,243,246)" stroke="rgb(242,243,246)" stroke-width="1" opacity="1" d="M 105.5 89 L 105.5 90 L 105.5 89 Z " /><path fill="rgb(242,243,246)" stroke="rgb(242,243,246)" stroke-width="1" opacity="1" d="M 40.5 90 L 40.5 91 L 40.5 90 Z " /><path fill="rgb(242,243,246)" stroke="rgb(242,243,246)" stroke-width="1" opacity="1" d="M 103.5 90 L 103.5 91 L 103.5 90 Z " /><path fill="rgb(242,243,246)" stroke="rgb(242,243,246)" stroke-width="1" opacity="1" d="M 67.5 91 L 67.5 92 L 67.5 91 Z " /><path fill="rgb(242,243,246)" stroke="rgb(242,243,246)" stroke-width="1" opacity="1" d="M 97.5 91 L 97.5 92 L 97.5 91 Z " /><path fill="rgb(255,255,255)" stroke="rgb(255,255,255)" stroke-width="1" opacity="1" d="M 19 36 L 62.5 36 Q 63.25 35.75 63 38.5 L 64 39.5 L 65 56.5 L 66 57.5 L 66 73 Q 68.67 74.13 68 71.5 L 73 62.5 L 73 59.5 L 76 55.5 L 76 53.5 L 78 50.5 L 78 47.5 L 83 39.5 L 83 36 L 102.5 36 Q 103.75 38.25 108.5 37 L 113.5 39 L 118 43.5 L 119 46.5 L 119 54.5 Q 117.33 59.33 113.5 62 L 110 63 Q 108.87 65.67 111.5 65 Q 116.75 67.75 115 77.5 L 113 83.5 L 107.5 89 L 105.5 89 L 102.5 91 L 97.5 91 L 96.5 92 L 78 92 L 78 87.5 L 79 86.5 L 80 78.5 L 81 77.5 L 81 73.5 L 83 68.5 L 83 60.5 L 82 60.5 L 82 62.5 L 79 66.5 L 77 73.5 Q 72.6 78.1 71 85.5 L 66.5 92 L 61 92 L 61 87.5 L 60 86.5 L 60 79.5 L 59 78.5 L 59 71.5 L 58 70.5 L 58 64.5 L 57 63.5 L 56.5 57 L 55 59.5 L 55 68.5 L 54 69.5 L 54 73.5 L 53 74.5 L 53 78.5 L 52 79.5 L 52 83.5 L 51 84.5 L 51 88.5 Q 49.25 89.42 50 92 L 40 91.5 L 41 90.5 L 41 82.5 L 43 77.5 L 44 67.5 L 46 62.5 L 46 53.5 L 47 52.5 L 48 46 L 29.5 46 L 29 47.5 L 28 48.5 L 27 58.5 L 26 59.5 L 43 60.5 L 42 61.5 L 42 65.5 Q 40.25 66.42 41 69 L 25.5 69 L 25 70.5 L 23 75.5 L 23 82.5 L 22 83.5 L 22 87.5 Q 20 88.62 21 92 L 10.5 92 Q 9.75 92.25 10 89.5 L 11 88.5 L 11 83.5 L 12 82.5 L 13 74.5 L 14 73.5 L 14 65.5 L 15 64.5 L 16 55.5 L 17 54.5 L 18 46.5 L 19 45.5 L 19 36 Z M 97 46 L 95 60 L 103 60 L 104 59 Q 106 60 105 57 L 107 57 L 108 55 L 108 49 L 107 48 L 107 46 L 97 46 Z M 93 68 L 93 76 L 92 77 L 92 81 L 91 83 L 100 83 L 102 82 Q 107 79 105 70 L 104 68 L 93 68 Z " /><path fill="rgb(194,198,215)" stroke="rgb(194,198,215)" stroke-width="1" opacity="1" d="M 63.5 36 L 64 38.5 L 63 38.5 L 63.5 36 Z " /><path fill="rgb(194,198,215)" stroke="rgb(194,198,215)" stroke-width="1" opacity="1" d="M 103.5 36 L 106 36.5 L 103.5 37 L 103.5 36 Z " /><path fill="rgb(194,198,215)" stroke="rgb(194,198,215)" stroke-width="1" opacity="1" d="M 110.5 37 L 110.5 38 L 110.5 37 Z " /><path fill="rgb(194,198,215)" stroke="rgb(194,198,215)" stroke-width="1" opacity="1" d="M 82.5 38 L 82.5 39 L 82.5 38 Z " /><path fill="rgb(194,198,215)" stroke="rgb(194,198,215)" stroke-width="1" opacity="1" d="M 112.5 38 L 112.5 39 L 112.5 38 Z " /><path fill="rgb(194,198,215)" stroke="rgb(194,198,215)" stroke-width="1" opacity="1" d="M 114.5 39 L 117 41.5 L 116.5 42 L 114 39.5 L 114.5 39 Z " /><path fill="rgb(194,198,215)" stroke="rgb(194,198,215)" stroke-width="1" opacity="1" d="M 18.5 41 L 19 44.5 L 18 44.5 L 18.5 41 Z " /><path fill="rgb(194,198,215)" stroke="rgb(194,198,215)" stroke-width="1" opacity="1" d="M 64.5 45 L 65 47.5 L 64 47.5 L 64.5 45 Z " /><path fill="rgb(194,198,215)" stroke="rgb(194,198,215)" stroke-width="1" opacity="1" d="M 78.5 46 L 78.5 47 L 78.5 46 Z " /><path fill="rgb(194,198,215)" stroke="rgb(194,198,215)" stroke-width="1" opacity="1" d="M 47.5 47 L 47.5 48 L 47.5 47 Z " /><path fill="rgb(194,198,215)" stroke="rgb(194,198,215)" stroke-width="1" opacity="1" d="M 97.5 47 L 98 48.5 L 97 48.5 L 97.5 47 Z " /><path fill="rgb(194,198,215)" stroke="rgb(194,198,215)" stroke-width="1" opacity="1" d="M 28.5 48 L 29 49.5 L 28 49.5 L 28.5 48 Z " /><path fill="rgb(194,198,215)" stroke="rgb(194,198,215)" stroke-width="1" opacity="1" d="M 107.5 48 L 107.5 49 L 107.5 48 Z " /><path fill="rgb(194,198,215)" stroke="rgb(194,198,215)" stroke-width="1" opacity="1" d="M 17.5 49 L 17.5 50 L 17.5 49 Z " /><path fill="rgb(194,198,215)" stroke="rgb(194,198,215)" stroke-width="1" opacity="1" d="M 77.5 50 L 77.5 51 L 77.5 50 Z " /><path fill="rgb(194,198,215)" stroke="rgb(194,198,215)" stroke-width="1" opacity="1" d="M 46.5 51 L 47 52.5 L 46 52.5 L 46.5 51 Z " /><path fill="rgb(194,198,215)" stroke="rgb(194,198,215)" stroke-width="1" opacity="1" d="M 96.5 51 L 97 52.5 L 96 52.5 L 96.5 51 Z " /><path fill="rgb(194,198,215)" stroke="rgb(194,198,215)" stroke-width="1" opacity="1" d="M 76.5 52 L 76.5 53 L 76.5 52 Z " /><path fill="rgb(194,198,215)" stroke="rgb(194,198,215)" stroke-width="1" opacity="1" d="M 16.5 53 L 17 54.5 L 16 54.5 L 16.5 53 Z " /><path fill="rgb(194,198,215)" stroke="rgb(194,198,215)" stroke-width="1" opacity="1" d="M 27.5 54 L 28 55.5 L 27 55.5 L 27.5 54 Z " /><path fill="rgb(194,198,215)" stroke="rgb(194,198,215)" stroke-width="1" opacity="1" d="M 107.5 54 L 107.5 55 L 107.5 54 Z " /><path fill="rgb(194,198,215)" stroke="rgb(194,198,215)" stroke-width="1" opacity="1" d="M 65.5 55 L 66 56.5 L 65 56.5 L 65.5 55 Z " /><path fill="rgb(194,198,215)" stroke="rgb(194,198,215)" stroke-width="1" opacity="1" d="M 118.5 55 L 118.5 56 L 118.5 55 Z " /><path fill="rgb(194,198,215)" stroke="rgb(194,198,215)" stroke-width="1" opacity="1" d="M 74.5 56 L 74.5 57 L 74.5 56 Z " /><path fill="rgb(194,198,215)" stroke="rgb(194,198,215)" stroke-width="1" opacity="1" d="M 95.5 56 L 95.5 57 L 95.5 56 Z " /><path fill="rgb(194,198,215)" stroke="rgb(194,198,215)" stroke-width="1" opacity="1" d="M 15.5 58 L 16 59.5 L 15 59.5 L 15.5 58 Z " /><path fill="rgb(194,198,215)" stroke="rgb(194,198,215)" stroke-width="1" opacity="1" d="M 56.5 58 L 57 59.5 L 55.5 63 L 55 60.5 L 56.5 58 Z " /><path fill="rgb(194,198,215)" stroke="rgb(194,198,215)" stroke-width="1" opacity="1" d="M 73.5 58 L 73.5 59 L 73.5 58 Z " /><path fill="rgb(194,198,215)" stroke="rgb(194,198,215)" stroke-width="1" opacity="1" d="M 26.5 59 L 26.5 60 L 26.5 59 Z " /><path fill="rgb(194,198,215)" stroke="rgb(194,198,215)" stroke-width="1" opacity="1" d="M 45.5 59 L 46 61.5 L 45 61.5 L 45.5 59 Z " /><path fill="rgb(194,198,215)" stroke="rgb(194,198,215)" stroke-width="1" opacity="1" d="M 95.5 59 L 95.5 60 L 95.5 59 Z " /><path fill="rgb(194,198,215)" stroke="rgb(194,198,215)" stroke-width="1" opacity="1" d="M 101.5 59 L 103 59.5 L 101.5 60 L 101.5 59 Z " /><path fill="rgb(194,198,215)" stroke="rgb(194,198,215)" stroke-width="1" opacity="1" d="M 116.5 59 L 116.5 60 L 116.5 59 Z " /><path fill="rgb(194,198,215)" stroke="rgb(194,198,215)" stroke-width="1" opacity="1" d="M 72.5 61 L 72.5 62 L 72.5 61 Z " /><path fill="rgb(194,198,215)" stroke="rgb(194,198,215)" stroke-width="1" opacity="1" d="M 82.5 61 L 82.5 62 L 82.5 61 Z " /><path fill="rgb(194,198,215)" stroke="rgb(194,198,215)" stroke-width="1" opacity="1" d="M 114.5 61 L 114.5 62 L 114.5 61 Z " /><path fill="rgb(194,198,215)" stroke="rgb(194,198,215)" stroke-width="1" opacity="1" d="M 42.5 62 L 43 63.5 L 42 63.5 L 42.5 62 Z " /><path fill="rgb(194,198,215)" stroke="rgb(194,198,215)" stroke-width="1" opacity="1" d="M 14.5 63 L 14.5 64 L 14.5 63 Z " /><path fill="rgb(194,198,215)" stroke="rgb(194,198,215)" stroke-width="1" opacity="1" d="M 71.5 63 L 72 64.5 L 71 64.5 L 71.5 63 Z " /><path fill="rgb(194,198,215)" stroke="rgb(194,198,215)" stroke-width="1" opacity="1" d="M 57.5 64 L 58 66.5 L 57 66.5 L 57.5 64 Z " /><path fill="rgb(194,198,215)" stroke="rgb(194,198,215)" stroke-width="1" opacity="1" d="M 110.5 64 L 110.5 65 L 110.5 64 Z " /><path fill="rgb(194,198,215)" stroke="rgb(194,198,215)" stroke-width="1" opacity="1" d="M 82.5 65 L 83 66.5 L 82 66.5 L 82.5 65 Z " /><path fill="rgb(194,198,215)" stroke="rgb(194,198,215)" stroke-width="1" opacity="1" d="M 112.5 65 L 112.5 66 L 112.5 65 Z " /><path fill="rgb(194,198,215)" stroke="rgb(194,198,215)" stroke-width="1" opacity="1" d="M 44.5 66 L 44.5 67 L 44.5 66 Z " /><path fill="rgb(194,198,215)" stroke="rgb(194,198,215)" stroke-width="1" opacity="1" d="M 70.5 66 L 70.5 67 L 70.5 66 Z " /><path fill="rgb(194,198,215)" stroke="rgb(194,198,215)" stroke-width="1" opacity="1" d="M 41.5 67 L 41.5 68 L 41.5 67 Z " /><path fill="rgb(194,198,215)" stroke="rgb(194,198,215)" stroke-width="1" opacity="1" d="M 114.5 67 L 114.5 68 L 114.5 67 Z " /><path fill="rgb(194,198,215)" stroke="rgb(194,198,215)" stroke-width="1" opacity="1" d="M 66.5 68 L 68 72.5 L 66 73 L 66.5 68 Z " /><path fill="rgb(194,198,215)" stroke="rgb(194,198,215)" stroke-width="1" opacity="1" d="M 69.5 68 L 69.5 69 L 69.5 68 Z " /><path fill="rgb(194,198,215)" stroke="rgb(194,198,215)" stroke-width="1" opacity="1" d="M 93.5 68 L 94 69.5 L 93 69.5 L 93.5 68 Z " /><path fill="rgb(194,198,215)" stroke="rgb(194,198,215)" stroke-width="1" opacity="1" d="M 54.5 69 L 55 70.5 L 54 70.5 L 54.5 69 Z " /><path fill="rgb(194,198,215)" stroke="rgb(194,198,215)" stroke-width="1" opacity="1" d="M 78.5 69 L 78.5 70 L 78.5 69 Z " /><path fill="rgb(194,198,215)" stroke="rgb(194,198,215)" stroke-width="1" opacity="1" d="M 104.5 69 L 104.5 70 L 104.5 69 Z " /><path fill="rgb(194,198,215)" stroke="rgb(194,198,215)" stroke-width="1" opacity="1" d="M 13.5 70 L 14 72.5 L 13 72.5 L 13.5 70 Z " /><path fill="rgb(194,198,215)" stroke="rgb(194,198,215)" stroke-width="1" opacity="1" d="M 68.5 70 L 68.5 71 L 68.5 70 Z " /><path fill="rgb(194,198,215)" stroke="rgb(194,198,215)" stroke-width="1" opacity="1" d="M 43.5 71 L 43.5 72 L 43.5 71 Z " /><path fill="rgb(194,198,215)" stroke="rgb(194,198,215)" stroke-width="1" opacity="1" d="M 77.5 71 L 77.5 72 L 77.5 71 Z " /><path fill="rgb(194,198,215)" stroke="rgb(194,198,215)" stroke-width="1" opacity="1" d="M 115.5 71 L 116 75.5 L 115 75.5 L 115.5 71 Z " /><path fill="rgb(194,198,215)" stroke="rgb(194,198,215)" stroke-width="1" opacity="1" d="M 24.5 72 L 25 73.5 L 24 73.5 L 24.5 72 Z " /><path fill="rgb(194,198,215)" stroke="rgb(194,198,215)" stroke-width="1" opacity="1" d="M 58.5 72 L 59 73.5 L 58 73.5 L 58.5 72 Z " /><path fill="rgb(194,198,215)" stroke="rgb(194,198,215)" stroke-width="1" opacity="1" d="M 81.5 72 L 81.5 73 L 81.5 72 Z " /><path fill="rgb(194,198,215)" stroke="rgb(194,198,215)" stroke-width="1" opacity="1" d="M 53.5 74 L 54 75.5 L 53 75.5 L 53.5 74 Z " /><path fill="rgb(194,198,215)" stroke="rgb(194,198,215)" stroke-width="1" opacity="1" d="M 76.5 74 L 76.5 75 L 76.5 74 Z " /><path fill="rgb(194,198,215)" stroke="rgb(194,198,215)" stroke-width="1" opacity="1" d="M 42.5 75 L 43 76.5 L 42 76.5 L 42.5 75 Z " /><path fill="rgb(194,198,215)" stroke="rgb(194,198,215)" stroke-width="1" opacity="1" d="M 75.5 76 L 75.5 77 L 75.5 76 Z " /><path fill="rgb(194,198,215)" stroke="rgb(194,198,215)" stroke-width="1" opacity="1" d="M 80.5 76 L 80.5 77 L 80.5 76 Z " /><path fill="rgb(194,198,215)" stroke="rgb(194,198,215)" stroke-width="1" opacity="1" d="M 12.5 77 L 12.5 78 L 12.5 77 Z " /><path fill="rgb(194,198,215)" stroke="rgb(194,198,215)" stroke-width="1" opacity="1" d="M 23.5 77 L 24 78.5 L 23 78.5 L 23.5 77 Z " /><path fill="rgb(194,198,215)" stroke="rgb(194,198,215)" stroke-width="1" opacity="1" d="M 92.5 77 L 92.5 78 L 92.5 77 Z " /><path fill="rgb(194,198,215)" stroke="rgb(194,198,215)" stroke-width="1" opacity="1" d="M 104.5 77 Q 106 78 103.5 79 Q 102 78 104.5 77 Z " /><path fill="rgb(194,198,215)" stroke="rgb(194,198,215)" stroke-width="1" opacity="1" d="M 73.5 79 L 73.5 80 L 73.5 79 Z " /><path fill="rgb(194,198,215)" stroke="rgb(194,198,215)" stroke-width="1" opacity="1" d="M 114.5 79 L 115 80.5 L 114 80.5 L 114.5 79 Z " /><path fill="rgb(194,198,215)" stroke="rgb(194,198,215)" stroke-width="1" opacity="1" d="M 41.5 80 L 42 81.5 L 41 81.5 L 41.5 80 Z " /><path fill="rgb(194,198,215)" stroke="rgb(194,198,215)" stroke-width="1" opacity="1" d="M 52.5 80 L 52.5 81 L 52.5 80 Z " /><path fill="rgb(194,198,215)" stroke="rgb(194,198,215)" stroke-width="1" opacity="1" d="M 59.5 80 L 60 81.5 L 59 81.5 L 59.5 80 Z " /><path fill="rgb(194,198,215)" stroke="rgb(194,198,215)" stroke-width="1" opacity="1" d="M 102.5 80 L 102.5 81 L 102.5 80 Z " /><path fill="rgb(194,198,215)" stroke="rgb(194,198,215)" stroke-width="1" opacity="1" d="M 79.5 81 L 79.5 82 L 79.5 81 Z " /><path fill="rgb(194,198,215)" stroke="rgb(194,198,215)" stroke-width="1" opacity="1" d="M 11.5 82 L 11.5 83 L 11.5 82 Z " /><path fill="rgb(194,198,215)" stroke="rgb(194,198,215)" stroke-width="1" opacity="1" d="M 72.5 82 Q 74 83 71.5 84 Q 70 83 72.5 82 Z " /><path fill="rgb(194,198,215)" stroke="rgb(194,198,215)" stroke-width="1" opacity="1" d="M 92.5 82 L 99 82.5 L 92.5 83 L 92.5 82 Z " /><path fill="rgb(194,198,215)" stroke="rgb(194,198,215)" stroke-width="1" opacity="1" d="M 22.5 84 L 22.5 85 L 22.5 84 Z " /><path fill="rgb(194,198,215)" stroke="rgb(194,198,215)" stroke-width="1" opacity="1" d="M 112.5 84 L 112.5 85 L 112.5 84 Z " /><path fill="rgb(194,198,215)" stroke="rgb(194,198,215)" stroke-width="1" opacity="1" d="M 51.5 85 L 51.5 86 L 51.5 85 Z " /><path fill="rgb(194,198,215)" stroke="rgb(194,198,215)" stroke-width="1" opacity="1" d="M 78.5 85 L 79 86.5 L 78 86.5 L 78.5 85 Z " /><path fill="rgb(194,198,215)" stroke="rgb(194,198,215)" stroke-width="1" opacity="1" d="M 10.5 87 L 10.5 88 L 10.5 87 Z " /><path fill="rgb(194,198,215)" stroke="rgb(194,198,215)" stroke-width="1" opacity="1" d="M 40.5 87 L 41 89.5 L 40 89.5 L 40.5 87 Z " /><path fill="rgb(194,198,215)" stroke="rgb(194,198,215)" stroke-width="1" opacity="1" d="M 109.5 87 Q 111 88 108.5 89 Q 107 88 109.5 87 Z " /><path fill="rgb(194,198,215)" stroke="rgb(194,198,215)" stroke-width="1" opacity="1" d="M 60.5 88 L 60.5 89 L 60.5 88 Z " /><path fill="rgb(194,198,215)" stroke="rgb(194,198,215)" stroke-width="1" opacity="1" d="M 69.5 88 L 69.5 89 L 69.5 88 Z " /><path fill="rgb(194,198,215)" stroke="rgb(194,198,215)" stroke-width="1" opacity="1" d="M 21.5 89 L 21.5 90 L 21.5 89 Z " /><path fill="rgb(194,198,215)" stroke="rgb(194,198,215)" stroke-width="1" opacity="1" d="M 106.5 89 L 106.5 90 L 106.5 89 Z " /><path fill="rgb(194,198,215)" stroke="rgb(194,198,215)" stroke-width="1" opacity="1" d="M 50.5 91 L 50.5 92 L 50.5 91 Z " /><path fill="rgb(194,198,215)" stroke="rgb(194,198,215)" stroke-width="1" opacity="1" d="M 98.5 91 L 100 91.5 L 98.5 92 L 98.5 91 Z " /><path fill="rgb(113,124,163)" stroke="rgb(113,124,163)" stroke-width="1" opacity="1" d="M 82.5 36 L 83 37.5 L 82 37.5 L 82.5 36 Z " /><path fill="rgb(113,124,163)" stroke="rgb(113,124,163)" stroke-width="1" opacity="1" d="M 106.5 36 L 109 36.5 L 106.5 37 L 106.5 36 Z " /><path fill="rgb(113,124,163)" stroke="rgb(113,124,163)" stroke-width="1" opacity="1" d="M 111.5 37 L 111.5 38 L 111.5 37 Z " /><path fill="rgb(113,124,163)" stroke="rgb(113,124,163)" stroke-width="1" opacity="1" d="M 18.5 38 L 19 40.5 L 18 40.5 L 18.5 38 Z " /><path fill="rgb(113,124,163)" stroke="rgb(113,124,163)" stroke-width="1" opacity="1" d="M 113.5 38 L 113.5 39 L 113.5 38 Z " /><path fill="rgb(113,124,163)" stroke="rgb(113,124,163)" stroke-width="1" opacity="1" d="M 81.5 40 L 81.5 41 L 81.5 40 Z " /><path fill="rgb(113,124,163)" stroke="rgb(113,124,163)" stroke-width="1" opacity="1" d="M 64.5 41 L 65 44.5 L 64 44.5 L 64.5 41 Z " /><path fill="rgb(113,124,163)" stroke="rgb(113,124,163)" stroke-width="1" opacity="1" d="M 80.5 42 L 80.5 43 L 80.5 42 Z " /><path fill="rgb(113,124,163)" stroke="rgb(113,124,163)" stroke-width="1" opacity="1" d="M 117.5 42 L 117.5 43 L 117.5 42 Z " /><path fill="rgb(113,124,163)" stroke="rgb(113,124,163)" stroke-width="1" opacity="1" d="M 79.5 44 L 79.5 45 L 79.5 44 Z " /><path fill="rgb(113,124,163)" stroke="rgb(113,124,163)" stroke-width="1" opacity="1" d="M 118.5 44 L 118.5 45 L 118.5 44 Z " /><path fill="rgb(113,124,163)" stroke="rgb(113,124,163)" stroke-width="1" opacity="1" d="M 17.5 46 L 18 48.5 L 17 48.5 L 17.5 46 Z " /><path fill="rgb(113,124,163)" stroke="rgb(113,124,163)" stroke-width="1" opacity="1" d="M 47.5 46 L 47.5 47 L 47.5 46 Z " /><path fill="rgb(113,124,163)" stroke="rgb(113,124,163)" stroke-width="1" opacity="1" d="M 105.5 46 Q 108 47 106.5 48 Q 104 47 105.5 46 Z " /><path fill="rgb(113,124,163)" stroke="rgb(113,124,163)" stroke-width="1" opacity="1" d="M 119.5 47 L 120 53.5 L 119 53.5 L 119.5 47 Z " /><path fill="rgb(113,124,163)" stroke="rgb(113,124,163)" stroke-width="1" opacity="1" d="M 77.5 48 L 78 49.5 L 77 49.5 L 77.5 48 Z " /><path fill="rgb(113,124,163)" stroke="rgb(113,124,163)" stroke-width="1" opacity="1" d="M 97.5 49 L 97.5 50 L 97.5 49 Z " /><path fill="rgb(113,124,163)" stroke="rgb(113,124,163)" stroke-width="1" opacity="1" d="M 107.5 49 L 107.5 50 L 107.5 49 Z " /><path fill="rgb(113,124,163)" stroke="rgb(113,124,163)" stroke-width="1" opacity="1" d="M 28.5 50 L 29 51.5 L 28 51.5 L 28.5 50 Z " /><path fill="rgb(113,124,163)" stroke="rgb(113,124,163)" stroke-width="1" opacity="1" d="M 46.5 50 L 46.5 51 L 46.5 50 Z " /><path fill="rgb(113,124,163)" stroke="rgb(113,124,163)" stroke-width="1" opacity="1" d="M 16.5 51 L 17 52.5 L 16 52.5 L 16.5 51 Z " /><path fill="rgb(113,124,163)" stroke="rgb(113,124,163)" stroke-width="1" opacity="1" d="M 65.5 51 L 66 54.5 L 65 54.5 L 65.5 51 Z " /><path fill="rgb(113,124,163)" stroke="rgb(113,124,163)" stroke-width="1" opacity="1" d="M 76.5 51 L 76.5 52 L 76.5 51 Z " /><path fill="rgb(113,124,163)" stroke="rgb(113,124,163)" stroke-width="1" opacity="1" d="M 107.5 51 L 108 53.5 L 107 53.5 L 107.5 51 Z " /><path fill="rgb(113,124,163)" stroke="rgb(113,124,163)" stroke-width="1" opacity="1" d="M 96.5 53 L 97 54.5 L 96 54.5 L 96.5 53 Z " /><path fill="rgb(113,124,163)" stroke="rgb(113,124,163)" stroke-width="1" opacity="1" d="M 75.5 54 Q 77 55 74.5 56 Q 73 55 75.5 54 Z " /><path fill="rgb(113,124,163)" stroke="rgb(113,124,163)" stroke-width="1" opacity="1" d="M 45.5 55 L 46 58.5 L 45 58.5 L 45.5 55 Z " /><path fill="rgb(113,124,163)" stroke="rgb(113,124,163)" stroke-width="1" opacity="1" d="M 106.5 55 L 107 55.5 L 103.5 59 L 103 58.5 L 106.5 55 Z " /><path fill="rgb(113,124,163)" stroke="rgb(113,124,163)" stroke-width="1" opacity="1" d="M 15.5 56 L 16 57.5 L 15 57.5 L 15.5 56 Z " /><path fill="rgb(113,124,163)" stroke="rgb(113,124,163)" stroke-width="1" opacity="1" d="M 27.5 56 L 28 57.5 L 27 57.5 L 27.5 56 Z " /><path fill="rgb(113,124,163)" stroke="rgb(113,124,163)" stroke-width="1" opacity="1" d="M 118.5 56 L 118.5 57 L 118.5 56 Z " /><path fill="rgb(113,124,163)" stroke="rgb(113,124,163)" stroke-width="1" opacity="1" d="M 73.5 57 L 73.5 58 L 73.5 57 Z " /><path fill="rgb(113,124,163)" stroke="rgb(113,124,163)" stroke-width="1" opacity="1" d="M 95.5 57 L 96 59 L 101 59.5 L 96.5 60 Q 94.13 59.13 95.5 57 Z " /><path fill="rgb(113,124,163)" stroke="rgb(113,124,163)" stroke-width="1" opacity="1" d="M 117.5 58 L 117.5 59 L 117.5 58 Z " /><path fill="rgb(113,124,163)" stroke="rgb(113,124,163)" stroke-width="1" opacity="1" d="M 43.5 60 L 43.5 61 L 43.5 60 Z " /><path fill="rgb(113,124,163)" stroke="rgb(113,124,163)" stroke-width="1" opacity="1" d="M 56.5 60 L 57 61.5 L 56 61.5 L 56.5 60 Z " /><path fill="rgb(113,124,163)" stroke="rgb(113,124,163)" stroke-width="1" opacity="1" d="M 72.5 60 L 72.5 61 L 72.5 60 Z " /><path fill="rgb(113,124,163)" stroke="rgb(113,124,163)" stroke-width="1" opacity="1" d="M 14.5 61 L 15 62.5 L 14 62.5 L 14.5 61 Z " /><path fill="rgb(113,124,163)" stroke="rgb(113,124,163)" stroke-width="1" opacity="1" d="M 66.5 62 L 67 67.5 L 66 67.5 L 66.5 62 Z " /><path fill="rgb(113,124,163)" stroke="rgb(113,124,163)" stroke-width="1" opacity="1" d="M 71.5 62 L 71.5 63 L 71.5 62 Z " /><path fill="rgb(113,124,163)" stroke="rgb(113,124,163)" stroke-width="1" opacity="1" d="M 82.5 62 L 83 65 L 81 64.5 L 82.5 62 Z " /><path fill="rgb(113,124,163)" stroke="rgb(113,124,163)" stroke-width="1" opacity="1" d="M 113.5 62 L 113.5 63 L 113.5 62 Z " /><path fill="rgb(113,124,163)" stroke="rgb(113,124,163)" stroke-width="1" opacity="1" d="M 55.5 63 L 56 66.5 L 55 66.5 L 55.5 63 Z " /><path fill="rgb(113,124,163)" stroke="rgb(113,124,163)" stroke-width="1" opacity="1" d="M 111.5 63 L 112 64.5 L 111 64.5 L 111.5 63 Z " /><path fill="rgb(113,124,163)" stroke="rgb(113,124,163)" stroke-width="1" opacity="1" d="M 42.5 64 L 43 65.5 L 42 65.5 L 42.5 64 Z " /><path fill="rgb(113,124,163)" stroke="rgb(113,124,163)" stroke-width="1" opacity="1" d="M 44.5 64 L 45 65.5 L 44 65.5 L 44.5 64 Z " /><path fill="rgb(113,124,163)" stroke="rgb(113,124,163)" stroke-width="1" opacity="1" d="M 13.5 66 L 14 69.5 L 13 69.5 L 13.5 66 Z " /><path fill="rgb(113,124,163)" stroke="rgb(113,124,163)" stroke-width="1" opacity="1" d="M 80.5 66 Q 82 67 79.5 68 Q 78 67 80.5 66 Z " /><path fill="rgb(113,124,163)" stroke="rgb(113,124,163)" stroke-width="1" opacity="1" d="M 114.5 66 L 114.5 67 L 114.5 66 Z " /><path fill="rgb(113,124,163)" stroke="rgb(113,124,163)" stroke-width="1" opacity="1" d="M 57.5 67 L 58 69.5 L 57 69.5 L 57.5 67 Z " /><path fill="rgb(113,124,163)" stroke="rgb(113,124,163)" stroke-width="1" opacity="1" d="M 69.5 67 L 69.5 68 L 69.5 67 Z " /><path fill="rgb(113,124,163)" stroke="rgb(113,124,163)" stroke-width="1" opacity="1" d="M 41.5 68 L 41.5 69 L 41.5 68 Z " /><path fill="rgb(113,124,163)" stroke="rgb(113,124,163)" stroke-width="1" opacity="1" d="M 43.5 68 L 44 70.5 L 43 70.5 L 43.5 68 Z " /><path fill="rgb(113,124,163)" stroke="rgb(113,124,163)" stroke-width="1" opacity="1" d="M 101.5 68 L 105 70.5 L 105 76.5 L 103.5 78 L 104 76.5 Q 105.5 70.5 102.5 69 Q 100.13 68.88 101.5 68 Z " /><path fill="rgb(113,124,163)" stroke="rgb(113,124,163)" stroke-width="1" opacity="1" d="M 25.5 69 L 25.5 70 L 25.5 69 Z " /><path fill="rgb(113,124,163)" stroke="rgb(113,124,163)" stroke-width="1" opacity="1" d="M 68.5 69 L 68.5 70 L 68.5 69 Z " /><path fill="rgb(113,124,163)" stroke="rgb(113,124,163)" stroke-width="1" opacity="1" d="M 115.5 69 L 116 70.5 L 115 70.5 L 115.5 69 Z " /><path fill="rgb(113,124,163)" stroke="rgb(113,124,163)" stroke-width="1" opacity="1" d="M 81.5 70 L 82 71.5 L 81 71.5 L 81.5 70 Z " /><path fill="rgb(113,124,163)" stroke="rgb(113,124,163)" stroke-width="1" opacity="1" d="M 93.5 70 L 94 73.5 L 93 73.5 L 93.5 70 Z " /><path fill="rgb(113,124,163)" stroke="rgb(113,124,163)" stroke-width="1" opacity="1" d="M 54.5 71 L 55 72.5 L 54 72.5 L 54.5 71 Z " /><path fill="rgb(113,124,163)" stroke="rgb(113,124,163)" stroke-width="1" opacity="1" d="M 67.5 71 L 67.5 72 L 67.5 71 Z " /><path fill="rgb(113,124,163)" stroke="rgb(113,124,163)" stroke-width="1" opacity="1" d="M 77.5 72 L 77.5 73 L 77.5 72 Z " /><path fill="rgb(113,124,163)" stroke="rgb(113,124,163)" stroke-width="1" opacity="1" d="M 42.5 73 L 43 74.5 L 42 74.5 L 42.5 73 Z " /><path fill="rgb(113,124,163)" stroke="rgb(113,124,163)" stroke-width="1" opacity="1" d="M 24.5 74 L 25 77.5 L 24 77.5 L 24.5 74 Z " /><path fill="rgb(113,124,163)" stroke="rgb(113,124,163)" stroke-width="1" opacity="1" d="M 58.5 74 L 59 76.5 L 58 76.5 L 58.5 74 Z " /><path fill="rgb(113,124,163)" stroke="rgb(113,124,163)" stroke-width="1" opacity="1" d="M 80.5 74 L 81 75.5 L 80 75.5 L 80.5 74 Z " /><path fill="rgb(113,124,163)" stroke="rgb(113,124,163)" stroke-width="1" opacity="1" d="M 12.5 75 L 13 76.5 L 12 76.5 L 12.5 75 Z " /><path fill="rgb(113,124,163)" stroke="rgb(113,124,163)" stroke-width="1" opacity="1" d="M 76.5 75 L 76.5 76 L 76.5 75 Z " /><path fill="rgb(113,124,163)" stroke="rgb(113,124,163)" stroke-width="1" opacity="1" d="M 53.5 76 L 54 77.5 L 53 77.5 L 53.5 76 Z " /><path fill="rgb(113,124,163)" stroke="rgb(113,124,163)" stroke-width="1" opacity="1" d="M 115.5 76 L 116 77.5 L 115 77.5 L 115.5 76 Z " /><path fill="rgb(113,124,163)" stroke="rgb(113,124,163)" stroke-width="1" opacity="1" d="M 41.5 78 L 42 79.5 L 41 79.5 L 41.5 78 Z " /><path fill="rgb(113,124,163)" stroke="rgb(113,124,163)" stroke-width="1" opacity="1" d="M 74.5 78 L 74.5 79 L 74.5 78 Z " /><path fill="rgb(113,124,163)" stroke="rgb(113,124,163)" stroke-width="1" opacity="1" d="M 92.5 78 L 93 79.5 L 92 79.5 L 92.5 78 Z " /><path fill="rgb(113,124,163)" stroke="rgb(113,124,163)" stroke-width="1" opacity="1" d="M 23.5 79 L 24 81.5 L 23 81.5 L 23.5 79 Z " /><path fill="rgb(113,124,163)" stroke="rgb(113,124,163)" stroke-width="1" opacity="1" d="M 79.5 79 L 80 80.5 L 79 80.5 L 79.5 79 Z " /><path fill="rgb(113,124,163)" stroke="rgb(113,124,163)" stroke-width="1" opacity="1" d="M 11.5 80 L 12 81.5 L 11 81.5 L 11.5 80 Z " /><path fill="rgb(113,124,163)" stroke="rgb(113,124,163)" stroke-width="1" opacity="1" d="M 73.5 80 L 73.5 81 L 73.5 80 Z " /><path fill="rgb(113,124,163)" stroke="rgb(113,124,163)" stroke-width="1" opacity="1" d="M 52.5 81 L 53 82.5 L 52 82.5 L 52.5 81 Z " /><path fill="rgb(113,124,163)" stroke="rgb(113,124,163)" stroke-width="1" opacity="1" d="M 100.5 81 L 100.5 82 L 100.5 81 Z " /><path fill="rgb(113,124,163)" stroke="rgb(113,124,163)" stroke-width="1" opacity="1" d="M 114.5 81 L 114.5 82 L 114.5 81 Z " /><path fill="rgb(113,124,163)" stroke="rgb(113,124,163)" stroke-width="1" opacity="1" d="M 59.5 82 L 60 84.5 L 59 84.5 L 59.5 82 Z " /><path fill="rgb(113,124,163)" stroke="rgb(113,124,163)" stroke-width="1" opacity="1" d="M 40.5 83 L 41 86.5 L 40 86.5 L 40.5 83 Z " /><path fill="rgb(113,124,163)" stroke="rgb(113,124,163)" stroke-width="1" opacity="1" d="M 72.5 83 L 72 84.5 L 71.5 86 L 71 84.5 L 72.5 83 Z " /><path fill="rgb(113,124,163)" stroke="rgb(113,124,163)" stroke-width="1" opacity="1" d="M 78.5 83 L 79 84.5 L 78 84.5 L 78.5 83 Z " /><path fill="rgb(113,124,163)" stroke="rgb(113,124,163)" stroke-width="1" opacity="1" d="M 113.5 83 L 113.5 84 L 113.5 83 Z " /><path fill="rgb(113,124,163)" stroke="rgb(113,124,163)" stroke-width="1" opacity="1" d="M 10.5 84 L 11 86.5 L 10 86.5 L 10.5 84 Z " /><path fill="rgb(113,124,163)" stroke="rgb(113,124,163)" stroke-width="1" opacity="1" d="M 22.5 85 L 23 86.5 L 22 86.5 L 22.5 85 Z " /><path fill="rgb(113,124,163)" stroke="rgb(113,124,163)" stroke-width="1" opacity="1" d="M 51.5 86 L 52 87.5 L 51 87.5 L 51.5 86 Z " /><path fill="rgb(113,124,163)" stroke="rgb(113,124,163)" stroke-width="1" opacity="1" d="M 111.5 86 L 111.5 87 L 111.5 86 Z " /><path fill="rgb(113,124,163)" stroke="rgb(113,124,163)" stroke-width="1" opacity="1" d="M 70.5 87 L 70.5 88 L 70.5 87 Z " /><path fill="rgb(113,124,163)" stroke="rgb(113,124,163)" stroke-width="1" opacity="1" d="M 109.5 88 L 109.5 89 L 109.5 88 Z " /><path fill="rgb(113,124,163)" stroke="rgb(113,124,163)" stroke-width="1" opacity="1" d="M 9.5 89 L 10 91.5 L 9 91.5 L 9.5 89 Z " /><path fill="rgb(113,124,163)" stroke="rgb(113,124,163)" stroke-width="1" opacity="1" d="M 39.5 89 L 40 91.5 L 39 91.5 L 39.5 89 Z " /><path fill="rgb(113,124,163)" stroke="rgb(113,124,163)" stroke-width="1" opacity="1" d="M 60.5 89 L 61 91.5 L 60 91.5 L 60.5 89 Z " /><path fill="rgb(113,124,163)" stroke="rgb(113,124,163)" stroke-width="1" opacity="1" d="M 77.5 89 L 78 91.5 L 77 91.5 L 77.5 89 Z " /><path fill="rgb(113,124,163)" stroke="rgb(113,124,163)" stroke-width="1" opacity="1" d="M 21.5 90 L 22 91.5 L 21 91.5 L 21.5 90 Z " /><path fill="rgb(113,124,163)" stroke="rgb(113,124,163)" stroke-width="1" opacity="1" d="M 68.5 90 L 68.5 91 L 68.5 90 Z " /><path fill="rgb(113,124,163)" stroke="rgb(113,124,163)" stroke-width="1" opacity="1" d="M 104.5 90 L 104.5 91 L 104.5 90 Z " /><path fill="rgb(113,124,163)" stroke="rgb(113,124,163)" stroke-width="1" opacity="1" d="M 100.5 91 L 103 91.5 L 100.5 92 L 100.5 91 Z " /></svg>