<svg width="48" height="48" version="1.1" xmlns="http://www.w3.org/2000/svg" desc="Created with imagetracer.js version 1.2.6" ><path fill="rgb(252,254,253)" stroke="rgb(252,254,253)" stroke-width="1" opacity="1" d="M 17.5 14 L 17.5 15 L 17.5 14 Z " /><path fill="rgb(252,254,253)" stroke="rgb(252,254,253)" stroke-width="1" opacity="1" d="M 30.5 14 L 30.5 15 L 30.5 14 Z " /><path fill="rgb(252,254,253)" stroke="rgb(252,254,253)" stroke-width="1" opacity="1" d="M 15.5 15 L 15.5 16 L 15.5 15 Z " /><path fill="rgb(252,254,253)" stroke="rgb(252,254,253)" stroke-width="1" opacity="1" d="M 32.5 15 L 32.5 16 L 32.5 15 Z " /><path fill="rgb(252,254,253)" stroke="rgb(252,254,253)" stroke-width="1" opacity="1" d="M 13.5 16 L 13.5 17 L 13.5 16 Z " /><path fill="rgb(252,254,253)" stroke="rgb(252,254,253)" stroke-width="1" opacity="1" d="M 34.5 16 L 34.5 17 L 34.5 16 Z " /><path fill="rgb(252,254,253)" stroke="rgb(252,254,253)" stroke-width="1" opacity="1" d="M 24.5 22 L 25 23.5 L 24 23.5 L 24.5 22 Z " /><path fill="rgb(252,254,253)" stroke="rgb(252,254,253)" stroke-width="1" opacity="1" d="M 26.5 22 L 26.5 23 L 26.5 22 Z " /><path fill="rgb(252,254,253)" stroke="rgb(252,254,253)" stroke-width="1" opacity="1" d="M 18.5 23 L 18.5 24 L 18.5 23 Z " /><path fill="rgb(252,254,253)" stroke="rgb(252,254,253)" stroke-width="1" opacity="1" d="M 31.5 23 L 31.5 24 L 31.5 23 Z " /><path fill="rgb(252,254,253)" stroke="rgb(252,254,253)" stroke-width="1" opacity="1" d="M 16.5 25 L 16.5 26 L 16.5 25 Z " /><path fill="rgb(252,254,253)" stroke="rgb(252,254,253)" stroke-width="1" opacity="1" d="M 18.5 25 L 18.5 26 L 18.5 25 Z " /><path fill="rgb(252,254,253)" stroke="rgb(252,254,253)" stroke-width="1" opacity="1" d="M 23.5 26 L 24 27.5 L 23 27.5 L 23.5 26 Z " /><path fill="rgb(252,254,253)" stroke="rgb(252,254,253)" stroke-width="1" opacity="1" d="M 16.5 27 L 16.5 28 L 16.5 27 Z " /><path fill="rgb(252,254,253)" stroke="rgb(252,254,253)" stroke-width="1" opacity="1" d="M 19.5 28 Q 22 29 20.5 30 Q 18 29 19.5 28 Z " /><path fill="rgb(252,254,253)" stroke="rgb(252,254,253)" stroke-width="1" opacity="1" d="M 25.5 28 L 25.5 29 L 25.5 28 Z " /><path fill="rgb(252,254,253)" stroke="rgb(252,254,253)" stroke-width="1" opacity="1" d="M 7.5 34 L 7.5 35 L 7.5 34 Z " /><path fill="rgb(252,254,253)" stroke="rgb(252,254,253)" stroke-width="1" opacity="1" d="M 40.5 34 L 40.5 35 L 40.5 34 Z " /><path fill="rgb(254,255,254)" stroke="rgb(254,255,254)" stroke-width="1" opacity="0.9921568627450981" d="M 8.5 0 L 11 0.5 L 6.5 2 L 6.5 1 L 8.5 0 Z " /><path fill="rgb(254,255,254)" stroke="rgb(254,255,254)" stroke-width="1" opacity="0.9921568627450981" d="M 37.5 0 L 40 0.5 L 37.5 1 L 37.5 0 Z " /><path fill="rgb(254,255,254)" stroke="rgb(254,255,254)" stroke-width="1" opacity="0.9921568627450981" d="M 41.5 1 L 41.5 2 L 41.5 1 Z " /><path fill="rgb(254,255,254)" stroke="rgb(254,255,254)" stroke-width="1" opacity="0.9921568627450981" d="M 4.5 2 L 5 2.5 L 2.5 5 L 2 4.5 L 4.5 2 Z " /><path fill="rgb(254,255,254)" stroke="rgb(254,255,254)" stroke-width="1" opacity="0.9921568627450981" d="M 43.5 2 Q 47.13 3.88 48 8.5 L 47 8.5 Q 46.25 4.25 43 2.5 L 43.5 2 Z " /><path fill="rgb(254,255,254)" stroke="rgb(254,255,254)" stroke-width="1" opacity="0.9921568627450981" d="M 1.5 6 L 1.5 7 L 1.5 6 Z " /><path fill="rgb(254,255,254)" stroke="rgb(254,255,254)" stroke-width="1" opacity="0.9921568627450981" d="M 0.5 8 L 1 10.5 L 0 10.5 L 0.5 8 Z " /><path fill="rgb(254,255,254)" stroke="rgb(254,255,254)" stroke-width="1" opacity="0.9921568627450981" d="M 19.5 13 L 19.5 14 L 19.5 13 Z " /><path fill="rgb(254,255,254)" stroke="rgb(254,255,254)" stroke-width="1" opacity="0.9921568627450981" d="M 28.5 13 L 28.5 14 L 28.5 13 Z " /><path fill="rgb(254,255,254)" stroke="rgb(254,255,254)" stroke-width="1" opacity="0.9921568627450981" d="M 33.5 22 L 33.5 23 L 33.5 22 Z " /><path fill="rgb(254,255,254)" stroke="rgb(254,255,254)" stroke-width="1" opacity="0.9921568627450981" d="M 14.5 24 L 14.5 25 L 14.5 24 Z " /><path fill="rgb(254,255,254)" stroke="rgb(254,255,254)" stroke-width="1" opacity="0.9921568627450981" d="M 32.5 25 L 32.5 26 L 32.5 25 Z " /><path fill="rgb(254,255,254)" stroke="rgb(254,255,254)" stroke-width="1" opacity="0.9921568627450981" d="M 0.5 37 L 1 39.5 L 0 39.5 L 0.5 37 Z " /><path fill="rgb(254,255,254)" stroke="rgb(254,255,254)" stroke-width="1" opacity="0.9921568627450981" d="M 47.5 39 L 48 40.5 L 42.5 47 L 39.5 48 L 39.5 47 Q 44.13 46.13 46 42.5 L 47.5 39 Z " /><path fill="rgb(254,255,254)" stroke="rgb(254,255,254)" stroke-width="1" opacity="0.9921568627450981" d="M 1.5 41 L 1.5 42 L 1.5 41 Z " /><path fill="rgb(254,255,254)" stroke="rgb(254,255,254)" stroke-width="1" opacity="0.9921568627450981" d="M 2.5 43 Q 4.65 46.35 9 47.5 L 7.5 48 L 2 43.5 L 2.5 43 Z " /><path fill="rgb(255,255,255)" stroke="rgb(255,255,255)" stroke-width="1" opacity="1" d="M 11.5 0 L 36.5 0 L 42.5 2 L 46 5.5 L 48 9.5 L 48 38.5 Q 46.33 43.33 42.5 46 L 38.5 48 L 9.5 48 Q 4.67 46.33 2 42.5 L 0 36.5 L 0 11.5 L 2 5.5 L 5.5 2 L 11.5 0 Z M 23 8 L 8 15 L 8 19 L 10 23 L 10 31 L 5 38 Q 5 40 6 40 L 43 40 L 42 36 L 38 31 L 38 23 L 40 19 L 40 15 L 26 8 L 23 8 Z " /><path fill="rgb(255,255,255)" stroke="rgb(255,255,255)" stroke-width="1" opacity="1" d="M 23.5 11 L 34 16.5 L 14.5 17 L 14.5 16 L 23.5 11 Z " /><path fill="rgb(255,255,255)" stroke="rgb(255,255,255)" stroke-width="1" opacity="1" d="M 18.5 21 L 19 22.5 L 18 22.5 L 18.5 21 Z " /><path fill="rgb(255,255,255)" stroke="rgb(255,255,255)" stroke-width="1" opacity="1" d="M 24.5 21 Q 26.75 20.25 26 22.5 L 27 25 L 24 24.5 L 25 22.5 L 24.5 21 Z " /><path fill="rgb(255,255,255)" stroke="rgb(255,255,255)" stroke-width="1" opacity="1" d="M 31 21 L 34 21.5 L 32.5 25 L 31 21 Z " /><path fill="rgb(255,255,255)" stroke="rgb(255,255,255)" stroke-width="1" opacity="1" d="M 14.5 23 L 16 23.5 L 14.5 24 L 14.5 23 Z " /><path fill="rgb(255,255,255)" stroke="rgb(255,255,255)" stroke-width="1" opacity="1" d="M 17.5 25 Q 19 26 16.5 27 Q 15 26 17.5 25 Z " /><path fill="rgb(255,255,255)" stroke="rgb(255,255,255)" stroke-width="1" opacity="1" d="M 26.5 27 L 27 28.5 Q 26 31 25 29.5 L 26.5 27 Z " /><path fill="rgb(255,255,255)" stroke="rgb(255,255,255)" stroke-width="1" opacity="1" d="M 14.5 29 L 17 31.5 L 16.5 32 L 14 30.5 L 14.5 29 Z " /><path fill="rgb(255,255,255)" stroke="rgb(255,255,255)" stroke-width="1" opacity="1" d="M 29.5 29 L 30 30.5 L 29 30.5 L 29.5 29 Z " /><path fill="rgb(255,255,255)" stroke="rgb(255,255,255)" stroke-width="1" opacity="1" d="M 33.5 29 L 34 30.5 L 33 30.5 L 33.5 29 Z " /><path fill="rgb(255,255,255)" stroke="rgb(255,255,255)" stroke-width="1" opacity="0.2549019607843137" d="M 5.5 0 L 8 0.5 L 2 4.5 L 0.5 8 L 0 6.5 L 5.5 0 Z " /><path fill="rgb(255,255,255)" stroke="rgb(255,255,255)" stroke-width="1" opacity="0.2549019607843137" d="M 40.5 0 L 42.5 0 L 48 5.5 L 47.5 7 L 43.5 2 L 40.5 1 L 40.5 0 Z " /><path fill="rgb(255,255,255)" stroke="rgb(255,255,255)" stroke-width="1" opacity="0.2549019607843137" d="M 0.5 40 Q 1.8 44.7 5.5 47 L 7 47.5 L 5.5 48 L 0 42.5 L 0.5 40 Z " /><path fill="rgb(255,255,255)" stroke="rgb(255,255,255)" stroke-width="1" opacity="0.2549019607843137" d="M 47.5 41 L 48 42.5 L 44.5 47 L 41.5 48 L 41.5 47 L 47 42.5 L 47.5 41 Z " /><path fill="rgb(240,249,245)" stroke="rgb(240,249,245)" stroke-width="1" opacity="1" d="M 18.5 10 L 18.5 11 L 18.5 10 Z " /><path fill="rgb(240,249,245)" stroke="rgb(240,249,245)" stroke-width="1" opacity="1" d="M 29.5 10 L 29.5 11 L 29.5 10 Z " /><path fill="rgb(240,249,245)" stroke="rgb(240,249,245)" stroke-width="1" opacity="1" d="M 16.5 11 L 16.5 12 L 16.5 11 Z " /><path fill="rgb(240,249,245)" stroke="rgb(240,249,245)" stroke-width="1" opacity="1" d="M 31.5 11 L 31.5 12 L 31.5 11 Z " /><path fill="rgb(240,249,245)" stroke="rgb(240,249,245)" stroke-width="1" opacity="1" d="M 14.5 12 L 14.5 13 L 14.5 12 Z " /><path fill="rgb(240,249,245)" stroke="rgb(240,249,245)" stroke-width="1" opacity="1" d="M 33.5 12 L 33.5 13 L 33.5 12 Z " /><path fill="rgb(240,249,245)" stroke="rgb(240,249,245)" stroke-width="1" opacity="1" d="M 12.5 13 L 12.5 14 L 12.5 13 Z " /><path fill="rgb(240,249,245)" stroke="rgb(240,249,245)" stroke-width="1" opacity="1" d="M 35.5 13 L 35.5 14 L 35.5 13 Z " /><path fill="rgb(240,249,245)" stroke="rgb(240,249,245)" stroke-width="1" opacity="1" d="M 9.5 20 L 10 21.5 L 9 21.5 L 9.5 20 Z " /><path fill="rgb(240,249,245)" stroke="rgb(240,249,245)" stroke-width="1" opacity="1" d="M 38.5 20 L 38.5 21 L 38.5 20 Z " /><path fill="rgb(240,249,245)" stroke="rgb(240,249,245)" stroke-width="1" opacity="1" d="M 19.5 21 L 19.5 22 L 19.5 21 Z " /><path fill="rgb(240,249,245)" stroke="rgb(240,249,245)" stroke-width="1" opacity="1" d="M 16.5 24 L 16.5 25 L 16.5 24 Z " /><path fill="rgb(240,249,245)" stroke="rgb(240,249,245)" stroke-width="1" opacity="1" d="M 23.5 25 L 23.5 26 L 23.5 25 Z " /><path fill="rgb(240,249,245)" stroke="rgb(240,249,245)" stroke-width="1" opacity="1" d="M 33.5 28 L 33.5 29 L 33.5 28 Z " /><path fill="rgb(240,249,245)" stroke="rgb(240,249,245)" stroke-width="1" opacity="1" d="M 26.5 29 L 26.5 30 L 26.5 29 Z " /><path fill="rgb(240,249,245)" stroke="rgb(240,249,245)" stroke-width="1" opacity="1" d="M 29.5 31 L 29.5 32 L 29.5 31 Z " /><path fill="rgb(240,249,245)" stroke="rgb(240,249,245)" stroke-width="1" opacity="1" d="M 32.5 31 L 32.5 32 L 32.5 31 Z " /><path fill="rgb(240,249,245)" stroke="rgb(240,249,245)" stroke-width="1" opacity="1" d="M 8.5 32 L 8.5 33 L 8.5 32 Z " /><path fill="rgb(240,249,245)" stroke="rgb(240,249,245)" stroke-width="1" opacity="1" d="M 39.5 32 L 39.5 33 L 39.5 32 Z " /><path fill="rgb(240,249,245)" stroke="rgb(240,249,245)" stroke-width="1" opacity="1" d="M 6.5 35 L 6.5 36 L 6.5 35 Z " /><path fill="rgb(240,249,245)" stroke="rgb(240,249,245)" stroke-width="1" opacity="1" d="M 41.5 35 L 41.5 36 L 41.5 35 Z " /><path fill="rgb(192,230,213)" stroke="rgb(192,230,213)" stroke-width="1" opacity="1" d="M 19.5 12 L 19.5 13 L 19.5 12 Z " /><path fill="rgb(192,230,213)" stroke="rgb(192,230,213)" stroke-width="1" opacity="1" d="M 28.5 12 L 28.5 13 L 28.5 12 Z " /><path fill="rgb(192,230,213)" stroke="rgb(192,230,213)" stroke-width="1" opacity="1" d="M 12.5 15 L 12.5 16 L 12.5 15 Z " /><path fill="rgb(192,230,213)" stroke="rgb(192,230,213)" stroke-width="1" opacity="1" d="M 35.5 15 L 35.5 16 L 35.5 15 Z " /><path fill="rgb(192,230,213)" stroke="rgb(192,230,213)" stroke-width="1" opacity="1" d="M 10.5 19 L 10.5 20 L 10.5 19 Z " /><path fill="rgb(192,230,213)" stroke="rgb(192,230,213)" stroke-width="1" opacity="1" d="M 37.5 19 L 37.5 20 L 37.5 19 Z " /><path fill="rgb(192,230,213)" stroke="rgb(192,230,213)" stroke-width="1" opacity="1" d="M 26.5 32 L 26.5 33 L 26.5 32 Z " /><path fill="rgb(192,230,213)" stroke="rgb(192,230,213)" stroke-width="1" opacity="1" d="M 6.5 39 L 6.5 40 L 6.5 39 Z " /><path fill="rgb(192,230,213)" stroke="rgb(192,230,213)" stroke-width="1" opacity="1" d="M 41.5 39 L 41.5 40 L 41.5 39 Z " /><path fill="rgb(192,230,214)" stroke="rgb(192,230,214)" stroke-width="1" opacity="1" d="M 23.5 8 L 25 8.5 L 23.5 9 L 23.5 8 Z " /><path fill="rgb(192,230,214)" stroke="rgb(192,230,214)" stroke-width="1" opacity="1" d="M 23.5 10 L 25 10.5 L 23.5 11 L 23.5 10 Z " /><path fill="rgb(192,230,214)" stroke="rgb(192,230,214)" stroke-width="1" opacity="1" d="M 21.5 11 L 21.5 12 L 21.5 11 Z " /><path fill="rgb(192,230,214)" stroke="rgb(192,230,214)" stroke-width="1" opacity="1" d="M 26.5 11 L 26.5 12 L 26.5 11 Z " /><path fill="rgb(192,230,214)" stroke="rgb(192,230,214)" stroke-width="1" opacity="1" d="M 37.5 30 L 37.5 31 L 37.5 30 Z " /><path fill="rgb(195,231,215)" stroke="rgb(195,231,215)" stroke-width="1" opacity="1" d="M 21.5 9 L 21.5 10 L 21.5 9 Z " /><path fill="rgb(195,231,215)" stroke="rgb(195,231,215)" stroke-width="1" opacity="1" d="M 26.5 9 L 26.5 10 L 26.5 9 Z " /><path fill="rgb(195,231,215)" stroke="rgb(195,231,215)" stroke-width="1" opacity="1" d="M 16.5 29 L 16.5 30 L 16.5 29 Z " /><path fill="rgb(195,231,216)" stroke="rgb(195,231,216)" stroke-width="1" opacity="1" d="M 11.5 15 Q 13 16 10.5 17 Q 9 16 11.5 15 Z " /><path fill="rgb(195,231,216)" stroke="rgb(195,231,216)" stroke-width="1" opacity="1" d="M 36.5 15 Q 39 16 37.5 17 Q 35 16 36.5 15 Z " /><path fill="rgb(195,231,216)" stroke="rgb(195,231,216)" stroke-width="1" opacity="1" d="M 17.5 21 L 17.5 22 L 17.5 21 Z " /><path fill="rgb(195,231,216)" stroke="rgb(195,231,216)" stroke-width="1" opacity="1" d="M 8.5 39 L 40 39.5 L 8.5 40 L 8.5 39 Z " /><path fill="rgb(86,187,143)" stroke="rgb(86,187,143)" stroke-width="1" opacity="1" d="M 11.5 21 L 13 21.5 L 11.5 22 L 11.5 21 Z " /><path fill="rgb(86,187,143)" stroke="rgb(86,187,143)" stroke-width="1" opacity="1" d="M 16.5 21 L 17 22.5 L 16 22.5 L 16.5 21 Z " /><path fill="rgb(86,187,143)" stroke="rgb(86,187,143)" stroke-width="1" opacity="1" d="M 21.5 21 L 24 22.5 L 21.5 26 L 22 24.5 L 23 22.5 L 21 22 L 20 26.5 L 20.5 28 L 19 27.5 L 18.5 29 L 18 27.5 Q 19.75 26.75 19 23.5 L 21.5 21 Z " /><path fill="rgb(86,187,143)" stroke="rgb(86,187,143)" stroke-width="1" opacity="1" d="M 28.5 21 L 28.5 22 L 28.5 21 Z " /><path fill="rgb(86,187,143)" stroke="rgb(86,187,143)" stroke-width="1" opacity="1" d="M 35.5 21 L 37 21.5 L 35.5 22 L 35.5 21 Z " /><path fill="rgb(86,187,143)" stroke="rgb(86,187,143)" stroke-width="1" opacity="1" d="M 28.5 23 L 28.5 24 L 28.5 23 Z " /><path fill="rgb(86,187,143)" stroke="rgb(86,187,143)" stroke-width="1" opacity="1" d="M 30.5 23 L 30.5 24 L 30.5 23 Z " /><path fill="rgb(86,187,143)" stroke="rgb(86,187,143)" stroke-width="1" opacity="1" d="M 29.5 25 L 29.5 26 L 29.5 25 Z " /><path fill="rgb(86,187,143)" stroke="rgb(86,187,143)" stroke-width="1" opacity="1" d="M 13.5 26 L 13.5 27 L 13.5 26 Z " /><path fill="rgb(86,187,143)" stroke="rgb(86,187,143)" stroke-width="1" opacity="1" d="M 15.5 26 L 15.5 27 L 15.5 26 Z " /><path fill="rgb(86,187,143)" stroke="rgb(86,187,143)" stroke-width="1" opacity="1" d="M 25.5 26 L 25.5 27 L 25.5 26 Z " /><path fill="rgb(86,187,143)" stroke="rgb(86,187,143)" stroke-width="1" opacity="1" d="M 31.5 26 L 31.5 27 L 31.5 26 Z " /><path fill="rgb(86,187,143)" stroke="rgb(86,187,143)" stroke-width="1" opacity="1" d="M 30.5 28 L 30.5 29 L 30.5 28 Z " /><path fill="rgb(86,187,143)" stroke="rgb(86,187,143)" stroke-width="1" opacity="1" d="M 32.5 28 L 32.5 29 L 32.5 28 Z " /><path fill="rgb(86,187,143)" stroke="rgb(86,187,143)" stroke-width="1" opacity="1" d="M 21.5 29 L 21.5 30 L 21.5 29 Z " /><path fill="rgb(86,187,143)" stroke="rgb(86,187,143)" stroke-width="1" opacity="1" d="M 19.5 30 L 19.5 31 L 19.5 30 Z " /><path fill="rgb(86,187,143)" stroke="rgb(86,187,143)" stroke-width="1" opacity="1" d="M 23.5 31 L 23.5 32 L 23.5 31 Z " /><path fill="rgb(86,187,143)" stroke="rgb(86,187,143)" stroke-width="1" opacity="1" d="M 25.5 31 L 25.5 32 L 25.5 31 Z " /><path fill="rgb(86,187,143)" stroke="rgb(86,187,143)" stroke-width="1" opacity="1" d="M 27.5 31 L 27.5 32 L 27.5 31 Z " /><path fill="rgb(201,233,220)" stroke="rgb(201,233,220)" stroke-width="1" opacity="1" d="M 17.5 11 L 17.5 12 L 17.5 11 Z " /><path fill="rgb(201,233,220)" stroke="rgb(201,233,220)" stroke-width="1" opacity="1" d="M 30.5 11 L 30.5 12 L 30.5 11 Z " /><path fill="rgb(201,233,220)" stroke="rgb(201,233,220)" stroke-width="1" opacity="1" d="M 15.5 12 L 15.5 13 L 15.5 12 Z " /><path fill="rgb(201,233,220)" stroke="rgb(201,233,220)" stroke-width="1" opacity="1" d="M 32.5 12 L 32.5 13 L 32.5 12 Z " /><path fill="rgb(201,233,220)" stroke="rgb(201,233,220)" stroke-width="1" opacity="1" d="M 13.5 13 L 13.5 14 L 13.5 13 Z " /><path fill="rgb(201,233,220)" stroke="rgb(201,233,220)" stroke-width="1" opacity="1" d="M 34.5 13 L 34.5 14 L 34.5 13 Z " /><path fill="rgb(201,233,220)" stroke="rgb(201,233,220)" stroke-width="1" opacity="1" d="M 11.5 17 L 11.5 18 L 11.5 17 Z " /><path fill="rgb(201,233,220)" stroke="rgb(201,233,220)" stroke-width="1" opacity="1" d="M 36.5 17 L 36.5 18 L 36.5 17 Z " /><path fill="rgb(201,233,220)" stroke="rgb(201,233,220)" stroke-width="1" opacity="1" d="M 10.5 20 L 10.5 21 L 10.5 20 Z " /><path fill="rgb(201,233,220)" stroke="rgb(201,233,220)" stroke-width="1" opacity="1" d="M 13.5 20 L 16 20.5 L 13.5 21 L 13.5 20 Z " /><path fill="rgb(201,233,220)" stroke="rgb(201,233,220)" stroke-width="1" opacity="1" d="M 26.5 20 L 28 20.5 L 26.5 21 L 26.5 20 Z " /><path fill="rgb(201,233,220)" stroke="rgb(201,233,220)" stroke-width="1" opacity="1" d="M 37.5 20 L 37.5 21 L 37.5 20 Z " /><path fill="rgb(201,233,220)" stroke="rgb(201,233,220)" stroke-width="1" opacity="1" d="M 34.5 21 L 34.5 22 L 34.5 21 Z " /><path fill="rgb(201,233,220)" stroke="rgb(201,233,220)" stroke-width="1" opacity="1" d="M 15.5 22 L 15.5 23 L 15.5 22 Z " /><path fill="rgb(201,233,220)" stroke="rgb(201,233,220)" stroke-width="1" opacity="1" d="M 28.5 25 L 28.5 26 L 28.5 25 Z " /><path fill="rgb(201,233,220)" stroke="rgb(201,233,220)" stroke-width="1" opacity="1" d="M 34.5 25 L 34.5 26 L 34.5 25 Z " /><path fill="rgb(201,233,220)" stroke="rgb(201,233,220)" stroke-width="1" opacity="1" d="M 25.5 27 L 25.5 28 L 25.5 27 Z " /><path fill="rgb(201,233,220)" stroke="rgb(201,233,220)" stroke-width="1" opacity="1" d="M 33.5 27 L 33.5 28 L 33.5 27 Z " /><path fill="rgb(201,233,220)" stroke="rgb(201,233,220)" stroke-width="1" opacity="1" d="M 32.5 30 L 32.5 31 L 32.5 30 Z " /><path fill="rgb(201,233,220)" stroke="rgb(201,233,220)" stroke-width="1" opacity="1" d="M 29.5 32 L 29.5 33 L 29.5 32 Z " /><path fill="rgb(201,233,220)" stroke="rgb(201,233,220)" stroke-width="1" opacity="1" d="M 38.5 32 L 40 34.5 L 39 34.5 L 38.5 32 Z " /><path fill="rgb(201,233,220)" stroke="rgb(201,233,220)" stroke-width="1" opacity="1" d="M 8.5 34 L 8.5 35 L 8.5 34 Z " /><path fill="rgb(156,216,190)" stroke="rgb(156,216,190)" stroke-width="1" opacity="1" d="M 13.5 22 L 13.5 23 L 13.5 22 Z " /><path fill="rgb(156,216,190)" stroke="rgb(156,216,190)" stroke-width="1" opacity="1" d="M 17.5 22 L 17.5 23 L 17.5 22 Z " /><path fill="rgb(156,216,190)" stroke="rgb(156,216,190)" stroke-width="1" opacity="1" d="M 27.5 23 L 28 29.5 L 27 29.5 L 27.5 23 Z " /><path fill="rgb(156,216,190)" stroke="rgb(156,216,190)" stroke-width="1" opacity="1" d="M 34.5 24 L 34 25.5 L 33.5 27 L 33 25.5 L 34.5 24 Z " /><path fill="rgb(156,216,190)" stroke="rgb(156,216,190)" stroke-width="1" opacity="1" d="M 25.5 25 L 25.5 26 L 25.5 25 Z " /><path fill="rgb(156,216,190)" stroke="rgb(156,216,190)" stroke-width="1" opacity="1" d="M 31.5 25 L 31.5 26 L 31.5 25 Z " /><path fill="rgb(156,216,190)" stroke="rgb(156,216,190)" stroke-width="1" opacity="1" d="M 18.5 26 L 18.5 27 L 18.5 26 Z " /><path fill="rgb(156,216,190)" stroke="rgb(156,216,190)" stroke-width="1" opacity="1" d="M 14.5 27 L 14.5 28 L 14.5 27 Z " /><path fill="rgb(156,216,190)" stroke="rgb(156,216,190)" stroke-width="1" opacity="1" d="M 24.5 28 L 24.5 29 L 24.5 28 Z " /><path fill="rgb(156,216,190)" stroke="rgb(156,216,190)" stroke-width="1" opacity="1" d="M 21.5 30 L 21.5 31 L 21.5 30 Z " /><path fill="rgb(156,216,190)" stroke="rgb(156,216,190)" stroke-width="1" opacity="1" d="M 17.5 31 L 17.5 32 L 17.5 31 Z " /><path fill="rgb(156,216,190)" stroke="rgb(156,216,190)" stroke-width="1" opacity="1" d="M 31.5 31 L 31.5 32 L 31.5 31 Z " /><path fill="rgb(156,216,190)" stroke="rgb(156,216,190)" stroke-width="1" opacity="1" d="M 24.5 32 L 24.5 33 L 24.5 32 Z " /><path fill="rgb(219,241,231)" stroke="rgb(219,241,231)" stroke-width="1" opacity="1" d="M 11.5 18 L 37 18.5 L 11.5 19 L 11.5 18 Z " /><path fill="rgb(219,241,231)" stroke="rgb(219,241,231)" stroke-width="1" opacity="1" d="M 10.5 22 L 10.5 23 L 10.5 22 Z " /><path fill="rgb(219,241,231)" stroke="rgb(219,241,231)" stroke-width="1" opacity="1" d="M 31.5 24 L 31.5 25 L 31.5 24 Z " /><path fill="rgb(219,241,231)" stroke="rgb(219,241,231)" stroke-width="1" opacity="1" d="M 19.5 27 L 19.5 28 L 19.5 27 Z " /><path fill="rgb(219,241,231)" stroke="rgb(219,241,231)" stroke-width="1" opacity="1" d="M 16.5 30 L 16.5 31 L 16.5 30 Z " /><path fill="rgb(219,241,231)" stroke="rgb(219,241,231)" stroke-width="1" opacity="1" d="M 28.5 30 L 28.5 31 L 28.5 30 Z " /><path fill="rgb(219,241,231)" stroke="rgb(219,241,231)" stroke-width="1" opacity="1" d="M 10.5 33 L 10.5 34 L 10.5 33 Z " /><path fill="rgb(219,241,231)" stroke="rgb(219,241,231)" stroke-width="1" opacity="1" d="M 19.5 33 L 21 33.5 L 19.5 34 L 19.5 33 Z " /><path fill="rgb(219,241,231)" stroke="rgb(219,241,231)" stroke-width="1" opacity="1" d="M 24.5 33 L 24.5 34 L 24.5 33 Z " /><path fill="rgb(219,241,231)" stroke="rgb(219,241,231)" stroke-width="1" opacity="1" d="M 37.5 33 L 37.5 34 L 37.5 33 Z " /><path fill="rgb(219,241,231)" stroke="rgb(219,241,231)" stroke-width="1" opacity="1" d="M 8.5 36 L 40 36.5 L 8.5 37 L 8.5 36 Z " /><path fill="rgb(196,232,216)" stroke="rgb(196,232,216)" stroke-width="1" opacity="1" d="M 23.5 9 L 25 9.5 L 23.5 10 L 23.5 9 Z " /><path fill="rgb(196,232,216)" stroke="rgb(196,232,216)" stroke-width="1" opacity="1" d="M 19.5 10 L 20 11.5 L 19 11.5 L 19.5 10 Z " /><path fill="rgb(196,232,216)" stroke="rgb(196,232,216)" stroke-width="1" opacity="1" d="M 21.5 10 L 21.5 11 L 21.5 10 Z " /><path fill="rgb(196,232,216)" stroke="rgb(196,232,216)" stroke-width="1" opacity="1" d="M 26.5 10 L 26.5 11 L 26.5 10 Z " /><path fill="rgb(196,232,216)" stroke="rgb(196,232,216)" stroke-width="1" opacity="1" d="M 28.5 10 L 29 11.5 L 28 11.5 L 28.5 10 Z " /><path fill="rgb(196,232,216)" stroke="rgb(196,232,216)" stroke-width="1" opacity="1" d="M 17.5 12 L 17.5 13 L 17.5 12 Z " /><path fill="rgb(196,232,216)" stroke="rgb(196,232,216)" stroke-width="1" opacity="1" d="M 30.5 12 L 30.5 13 L 30.5 12 Z " /><path fill="rgb(196,232,216)" stroke="rgb(196,232,216)" stroke-width="1" opacity="1" d="M 15.5 13 L 15.5 14 L 15.5 13 Z " /><path fill="rgb(196,232,216)" stroke="rgb(196,232,216)" stroke-width="1" opacity="1" d="M 32.5 13 L 32.5 14 L 32.5 13 Z " /><path fill="rgb(196,232,216)" stroke="rgb(196,232,216)" stroke-width="1" opacity="1" d="M 13.5 14 L 13.5 15 L 13.5 14 Z " /><path fill="rgb(196,232,216)" stroke="rgb(196,232,216)" stroke-width="1" opacity="1" d="M 34.5 14 L 34.5 15 L 34.5 14 Z " /><path fill="rgb(196,232,216)" stroke="rgb(196,232,216)" stroke-width="1" opacity="1" d="M 8.5 17 L 8.5 18 L 8.5 17 Z " /><path fill="rgb(196,232,216)" stroke="rgb(196,232,216)" stroke-width="1" opacity="1" d="M 39.5 17 L 39.5 18 L 39.5 17 Z " /><path fill="rgb(196,232,216)" stroke="rgb(196,232,216)" stroke-width="1" opacity="1" d="M 22.5 20 L 22.5 21 L 22.5 20 Z " /><path fill="rgb(196,232,216)" stroke="rgb(196,232,216)" stroke-width="1" opacity="1" d="M 37.5 23 L 38 29.5 L 37 29.5 L 37.5 23 Z " /><path fill="rgb(196,232,216)" stroke="rgb(196,232,216)" stroke-width="1" opacity="1" d="M 15.5 24 L 15.5 25 L 15.5 24 Z " /><path fill="rgb(196,232,216)" stroke="rgb(196,232,216)" stroke-width="1" opacity="1" d="M 29.5 27 L 29.5 28 L 29.5 27 Z " /><path fill="rgb(196,232,216)" stroke="rgb(196,232,216)" stroke-width="1" opacity="1" d="M 14.5 32 L 14.5 33 L 14.5 32 Z " /><path fill="rgb(196,232,216)" stroke="rgb(196,232,216)" stroke-width="1" opacity="1" d="M 7.5 39 L 7.5 40 L 7.5 39 Z " /><path fill="rgb(196,232,216)" stroke="rgb(196,232,216)" stroke-width="1" opacity="1" d="M 40.5 39 L 40.5 40 L 40.5 39 Z " /><path fill="rgb(232,246,240)" stroke="rgb(232,246,240)" stroke-width="1" opacity="1" d="M 22.5 8 L 22.5 9 L 22.5 8 Z " /><path fill="rgb(232,246,240)" stroke="rgb(232,246,240)" stroke-width="1" opacity="1" d="M 25.5 8 L 25.5 9 L 25.5 8 Z " /><path fill="rgb(232,246,240)" stroke="rgb(232,246,240)" stroke-width="1" opacity="1" d="M 20.5 9 L 20.5 10 L 20.5 9 Z " /><path fill="rgb(232,246,240)" stroke="rgb(232,246,240)" stroke-width="1" opacity="1" d="M 27.5 9 L 27.5 10 L 27.5 9 Z " /><path fill="rgb(232,246,240)" stroke="rgb(232,246,240)" stroke-width="1" opacity="1" d="M 22.5 11 L 22.5 12 L 22.5 11 Z " /><path fill="rgb(232,246,240)" stroke="rgb(232,246,240)" stroke-width="1" opacity="1" d="M 25.5 11 L 25.5 12 L 25.5 11 Z " /><path fill="rgb(232,246,240)" stroke="rgb(232,246,240)" stroke-width="1" opacity="1" d="M 20.5 12 L 20.5 13 L 20.5 12 Z " /><path fill="rgb(232,246,240)" stroke="rgb(232,246,240)" stroke-width="1" opacity="1" d="M 27.5 12 L 27.5 13 L 27.5 12 Z " /><path fill="rgb(232,246,240)" stroke="rgb(232,246,240)" stroke-width="1" opacity="1" d="M 30.5 21 L 30.5 22 L 30.5 21 Z " /><path fill="rgb(232,246,240)" stroke="rgb(232,246,240)" stroke-width="1" opacity="1" d="M 10.5 23 L 11 30.5 L 10 30.5 L 10.5 23 Z " /><path fill="rgb(232,246,240)" stroke="rgb(232,246,240)" stroke-width="1" opacity="1" d="M 17.5 24 L 17.5 25 L 17.5 24 Z " /><path fill="rgb(232,246,240)" stroke="rgb(232,246,240)" stroke-width="1" opacity="1" d="M 26.5 26 L 26.5 27 L 26.5 26 Z " /><path fill="rgb(232,246,240)" stroke="rgb(232,246,240)" stroke-width="1" opacity="1" d="M 34.5 27 L 35 28.5 L 34 28.5 L 34.5 27 Z " /><path fill="rgb(232,246,240)" stroke="rgb(232,246,240)" stroke-width="1" opacity="1" d="M 15.5 29 L 15.5 30 L 15.5 29 Z " /><path fill="rgb(232,246,240)" stroke="rgb(232,246,240)" stroke-width="1" opacity="1" d="M 14.5 31 L 14.5 32 L 14.5 31 Z " /><path fill="rgb(232,246,240)" stroke="rgb(232,246,240)" stroke-width="1" opacity="1" d="M 38.5 31 L 38.5 32 L 38.5 31 Z " /><path fill="rgb(232,246,240)" stroke="rgb(232,246,240)" stroke-width="1" opacity="1" d="M 6.5 36 L 6.5 37 L 6.5 36 Z " /><path fill="rgb(232,246,240)" stroke="rgb(232,246,240)" stroke-width="1" opacity="1" d="M 41.5 36 L 41.5 37 L 41.5 36 Z " /><path fill="rgb(232,246,240)" stroke="rgb(232,246,240)" stroke-width="1" opacity="1" d="M 7.5 38 L 7.5 39 L 7.5 38 Z " /><path fill="rgb(232,246,240)" stroke="rgb(232,246,240)" stroke-width="1" opacity="1" d="M 40.5 38 L 40.5 39 L 40.5 38 Z " /><path fill="rgb(248,252,251)" stroke="rgb(248,252,251)" stroke-width="1" opacity="1" d="M 10.5 14 L 10.5 15 L 10.5 14 Z " /><path fill="rgb(248,252,251)" stroke="rgb(248,252,251)" stroke-width="1" opacity="1" d="M 37.5 14 L 37.5 15 L 37.5 14 Z " /><path fill="rgb(248,252,251)" stroke="rgb(248,252,251)" stroke-width="1" opacity="1" d="M 8.5 15 L 8.5 16 L 8.5 15 Z " /><path fill="rgb(248,252,251)" stroke="rgb(248,252,251)" stroke-width="1" opacity="1" d="M 39.5 15 L 39.5 16 L 39.5 15 Z " /><path fill="rgb(248,252,251)" stroke="rgb(248,252,251)" stroke-width="1" opacity="1" d="M 8.5 18 L 8.5 19 L 8.5 18 Z " /><path fill="rgb(248,252,251)" stroke="rgb(248,252,251)" stroke-width="1" opacity="1" d="M 39.5 18 L 39.5 19 L 39.5 18 Z " /><path fill="rgb(248,252,251)" stroke="rgb(248,252,251)" stroke-width="1" opacity="1" d="M 21.5 23 L 21.5 24 L 21.5 23 Z " /><path fill="rgb(248,252,251)" stroke="rgb(248,252,251)" stroke-width="1" opacity="1" d="M 18.5 24 L 18.5 25 L 18.5 24 Z " /><path fill="rgb(248,252,251)" stroke="rgb(248,252,251)" stroke-width="1" opacity="1" d="M 17.5 26 L 17.5 27 L 17.5 26 Z " /><path fill="rgb(248,252,251)" stroke="rgb(248,252,251)" stroke-width="1" opacity="1" d="M 14.5 28 L 14.5 29 L 14.5 28 Z " /><path fill="rgb(248,252,251)" stroke="rgb(248,252,251)" stroke-width="1" opacity="1" d="M 29.5 28 L 29.5 29 L 29.5 28 Z " /><path fill="rgb(248,252,251)" stroke="rgb(248,252,251)" stroke-width="1" opacity="1" d="M 9.5 31 L 9.5 32 L 9.5 31 Z " /><path fill="rgb(248,252,251)" stroke="rgb(248,252,251)" stroke-width="1" opacity="1" d="M 30.5 31 L 30.5 32 L 30.5 31 Z " /><path fill="rgb(248,252,251)" stroke="rgb(248,252,251)" stroke-width="1" opacity="1" d="M 33.5 31 L 33.5 32 L 33.5 31 Z " /><path fill="rgb(21,161,100)" stroke="rgb(21,161,100)" stroke-width="1" opacity="1" d="M 11 22 L 13 22.5 L 13 32 L 11 31.5 L 11 22 Z " /><path fill="rgb(21,161,100)" stroke="rgb(21,161,100)" stroke-width="1" opacity="1" d="M 22.5 22 L 22.5 23 L 22.5 22 Z " /><path fill="rgb(21,161,100)" stroke="rgb(21,161,100)" stroke-width="1" opacity="1" d="M 28.5 22 Q 30.75 21.25 30 23.5 L 32 27.5 L 32 30.5 L 31 30.5 L 30 25.5 L 28 22.5 L 28.5 22 Z " /><path fill="rgb(21,161,100)" stroke="rgb(21,161,100)" stroke-width="1" opacity="1" d="M 35 22 L 37 22.5 L 37 32 L 35 31.5 L 35 22 Z " /><path fill="rgb(21,161,100)" stroke="rgb(21,161,100)" stroke-width="1" opacity="1" d="M 20.5 24 L 25 31.5 L 23.5 31 Q 21.25 31.75 22 29.5 L 20 26.5 L 20.5 24 Z " /><path fill="rgb(21,161,100)" stroke="rgb(21,161,100)" stroke-width="1" opacity="1" d="M 14.5 26 L 14.5 27 L 14.5 26 Z " /><path fill="rgb(21,161,100)" stroke="rgb(21,161,100)" stroke-width="1" opacity="1" d="M 17.5 28 L 19 31 L 21 31.5 L 18.5 32 Q 16 31 17.5 28 Z " /><path fill="rgb(182,226,207)" stroke="rgb(182,226,207)" stroke-width="1" opacity="1" d="M 9.5 16 L 9.5 17 L 9.5 16 Z " /><path fill="rgb(182,226,207)" stroke="rgb(182,226,207)" stroke-width="1" opacity="1" d="M 38.5 16 L 38.5 17 L 38.5 16 Z " /><path fill="rgb(182,226,207)" stroke="rgb(182,226,207)" stroke-width="1" opacity="1" d="M 9.5 18 L 9.5 19 L 9.5 18 Z " /><path fill="rgb(182,226,207)" stroke="rgb(182,226,207)" stroke-width="1" opacity="1" d="M 38.5 18 L 38.5 19 L 38.5 18 Z " /><path fill="rgb(182,226,207)" stroke="rgb(182,226,207)" stroke-width="1" opacity="1" d="M 37.5 22 L 37.5 23 L 37.5 22 Z " /><path fill="rgb(182,226,207)" stroke="rgb(182,226,207)" stroke-width="1" opacity="1" d="M 17.5 23 L 17.5 24 L 17.5 23 Z " /><path fill="rgb(182,226,207)" stroke="rgb(182,226,207)" stroke-width="1" opacity="1" d="M 21.5 24 L 21.5 25 L 21.5 24 Z " /><path fill="rgb(182,226,207)" stroke="rgb(182,226,207)" stroke-width="1" opacity="1" d="M 22.5 31 L 22.5 32 L 22.5 31 Z " /><path fill="rgb(182,226,207)" stroke="rgb(182,226,207)" stroke-width="1" opacity="1" d="M 11.5 32 L 14 32.5 L 11.5 33 L 11.5 32 Z " /><path fill="rgb(182,226,207)" stroke="rgb(182,226,207)" stroke-width="1" opacity="1" d="M 27.5 32 L 29 32.5 L 27.5 33 L 27.5 32 Z " /><path fill="rgb(182,226,207)" stroke="rgb(182,226,207)" stroke-width="1" opacity="1" d="M 34.5 32 L 38 32.5 L 34.5 33 L 34.5 32 Z " /><path fill="rgb(182,226,207)" stroke="rgb(182,226,207)" stroke-width="1" opacity="1" d="M 6.5 37 L 6.5 38 L 6.5 37 Z " /><path fill="rgb(182,226,207)" stroke="rgb(182,226,207)" stroke-width="1" opacity="1" d="M 41.5 37 L 41.5 38 L 41.5 37 Z " /><path fill="rgb(211,238,226)" stroke="rgb(211,238,226)" stroke-width="1" opacity="1" d="M 9.5 19 L 9.5 20 L 9.5 19 Z " /><path fill="rgb(211,238,226)" stroke="rgb(211,238,226)" stroke-width="1" opacity="1" d="M 38.5 19 L 38.5 20 L 38.5 19 Z " /><path fill="rgb(211,238,226)" stroke="rgb(211,238,226)" stroke-width="1" opacity="1" d="M 22.5 25 L 22.5 26 L 22.5 25 Z " /><path fill="rgb(211,238,226)" stroke="rgb(211,238,226)" stroke-width="1" opacity="1" d="M 19.5 29 L 19.5 30 L 19.5 29 Z " /><path fill="rgb(211,238,226)" stroke="rgb(211,238,226)" stroke-width="1" opacity="1" d="M 15.5 32 L 18 32.5 L 15.5 33 L 15.5 32 Z " /><path fill="rgb(211,238,226)" stroke="rgb(211,238,226)" stroke-width="1" opacity="1" d="M 30.5 32 L 30.5 33 L 30.5 32 Z " /><path fill="rgb(211,238,226)" stroke="rgb(211,238,226)" stroke-width="1" opacity="1" d="M 32.5 32 L 32.5 33 L 32.5 32 Z " /><path fill="rgb(211,238,226)" stroke="rgb(211,238,226)" stroke-width="1" opacity="1" d="M 6.5 38 L 6.5 39 L 6.5 38 Z " /><path fill="rgb(211,238,226)" stroke="rgb(211,238,226)" stroke-width="1" opacity="1" d="M 41.5 38 L 41.5 39 L 41.5 38 Z " /><path fill="rgb(204,235,222)" stroke="rgb(204,235,222)" stroke-width="1" opacity="1" d="M 11.5 14 L 11.5 15 L 11.5 14 Z " /><path fill="rgb(204,235,222)" stroke="rgb(204,235,222)" stroke-width="1" opacity="1" d="M 36.5 14 L 36.5 15 L 36.5 14 Z " /><path fill="rgb(204,235,222)" stroke="rgb(204,235,222)" stroke-width="1" opacity="1" d="M 13.5 17 L 35 17.5 L 13.5 18 L 13.5 17 Z " /><path fill="rgb(204,235,222)" stroke="rgb(204,235,222)" stroke-width="1" opacity="1" d="M 11.5 20 L 13 20.5 L 11.5 21 L 11.5 20 Z " /><path fill="rgb(204,235,222)" stroke="rgb(204,235,222)" stroke-width="1" opacity="1" d="M 16.5 20 L 21 20.5 L 16.5 21 L 16.5 20 Z " /><path fill="rgb(204,235,222)" stroke="rgb(204,235,222)" stroke-width="1" opacity="1" d="M 24.5 20 L 27 21.5 L 25.5 21 Q 23.13 20.87 24.5 20 Z " /><path fill="rgb(204,235,222)" stroke="rgb(204,235,222)" stroke-width="1" opacity="1" d="M 28.5 20 L 37 20.5 L 28.5 21 L 28.5 20 Z " /><path fill="rgb(204,235,222)" stroke="rgb(204,235,222)" stroke-width="1" opacity="1" d="M 9.5 32 Q 11 33 8.5 34 Q 7 33 9.5 32 Z " /><path fill="rgb(204,235,222)" stroke="rgb(204,235,222)" stroke-width="1" opacity="1" d="M 21.5 32 L 21.5 33 L 21.5 32 Z " /><path fill="rgb(204,235,222)" stroke="rgb(204,235,222)" stroke-width="1" opacity="1" d="M 31.5 32 L 31.5 33 L 31.5 32 Z " /><path fill="rgb(204,235,222)" stroke="rgb(204,235,222)" stroke-width="1" opacity="1" d="M 33.5 32 L 33.5 33 L 33.5 32 Z " /><path fill="rgb(187,228,211)" stroke="rgb(187,228,211)" stroke-width="1" opacity="1" d="M 22.5 9 L 23 10.5 L 22 10.5 L 22.5 9 Z " /><path fill="rgb(187,228,211)" stroke="rgb(187,228,211)" stroke-width="1" opacity="1" d="M 25.5 9 L 26 10.5 L 25 10.5 L 25.5 9 Z " /><path fill="rgb(187,228,211)" stroke="rgb(187,228,211)" stroke-width="1" opacity="1" d="M 20.5 10 L 21 11.5 L 20 11.5 L 20.5 10 Z " /><path fill="rgb(187,228,211)" stroke="rgb(187,228,211)" stroke-width="1" opacity="1" d="M 27.5 10 L 28 11.5 L 27 11.5 L 27.5 10 Z " /><path fill="rgb(187,228,211)" stroke="rgb(187,228,211)" stroke-width="1" opacity="1" d="M 18.5 12 Q 20 13 17.5 14 L 13.5 16 Q 12 15 14.5 14 L 18.5 12 Z " /><path fill="rgb(187,228,211)" stroke="rgb(187,228,211)" stroke-width="1" opacity="1" d="M 29.5 12 L 35 15.5 L 33.5 15 Q 29.5 14.5 29.5 12 Z " /><path fill="rgb(187,228,211)" stroke="rgb(187,228,211)" stroke-width="1" opacity="1" d="M 11.5 16 L 11.5 17 L 11.5 16 Z " /><path fill="rgb(187,228,211)" stroke="rgb(187,228,211)" stroke-width="1" opacity="1" d="M 36.5 16 L 36.5 17 L 36.5 16 Z " /><path fill="rgb(187,228,211)" stroke="rgb(187,228,211)" stroke-width="1" opacity="1" d="M 10.5 18 L 10.5 19 L 10.5 18 Z " /><path fill="rgb(187,228,211)" stroke="rgb(187,228,211)" stroke-width="1" opacity="1" d="M 37.5 18 L 37.5 19 L 37.5 18 Z " /><path fill="rgb(187,228,211)" stroke="rgb(187,228,211)" stroke-width="1" opacity="1" d="M 21.5 20 L 21.5 21 L 21.5 20 Z " /><path fill="rgb(187,228,211)" stroke="rgb(187,228,211)" stroke-width="1" opacity="1" d="M 13.5 23 L 14 24.5 L 13 24.5 L 13.5 23 Z " /><path fill="rgb(187,228,211)" stroke="rgb(187,228,211)" stroke-width="1" opacity="1" d="M 23.5 24 L 23.5 25 L 23.5 24 Z " /><path fill="rgb(187,228,211)" stroke="rgb(187,228,211)" stroke-width="1" opacity="1" d="M 13.5 28 L 14 29.5 L 13 29.5 L 13.5 28 Z " /><path fill="rgb(187,228,211)" stroke="rgb(187,228,211)" stroke-width="1" opacity="1" d="M 23.5 32 L 23.5 33 L 23.5 32 Z " /><path fill="rgb(187,228,211)" stroke="rgb(187,228,211)" stroke-width="1" opacity="1" d="M 9.5 33 L 9.5 34 L 9.5 33 Z " /><path fill="rgb(187,228,211)" stroke="rgb(187,228,211)" stroke-width="1" opacity="1" d="M 38.5 33 L 38.5 34 L 38.5 33 Z " /><path fill="rgb(208,236,224)" stroke="rgb(208,236,224)" stroke-width="1" opacity="1" d="M 9.5 15 Q 11 16 8.5 17 Q 7 16 9.5 15 Z " /><path fill="rgb(208,236,224)" stroke="rgb(208,236,224)" stroke-width="1" opacity="1" d="M 38.5 15 Q 41 16 39.5 17 Q 37 16 38.5 15 Z " /><path fill="rgb(208,236,224)" stroke="rgb(208,236,224)" stroke-width="1" opacity="1" d="M 12.5 17 L 12.5 18 L 12.5 17 Z " /><path fill="rgb(208,236,224)" stroke="rgb(208,236,224)" stroke-width="1" opacity="1" d="M 35.5 17 L 35.5 18 L 35.5 17 Z " /><path fill="rgb(208,236,224)" stroke="rgb(208,236,224)" stroke-width="1" opacity="1" d="M 23.5 20 L 24 21.5 L 23 21.5 L 23.5 20 Z " /><path fill="rgb(208,236,224)" stroke="rgb(208,236,224)" stroke-width="1" opacity="1" d="M 16.5 23 L 16.5 24 L 16.5 23 Z " /><path fill="rgb(208,236,224)" stroke="rgb(208,236,224)" stroke-width="1" opacity="1" d="M 14.5 25 L 14.5 26 L 14.5 25 Z " /><path fill="rgb(208,236,224)" stroke="rgb(208,236,224)" stroke-width="1" opacity="1" d="M 20.5 30 L 20.5 31 L 20.5 30 Z " /><path fill="rgb(208,236,224)" stroke="rgb(208,236,224)" stroke-width="1" opacity="1" d="M 30.5 30 L 30.5 31 L 30.5 30 Z " /><path fill="rgb(208,236,224)" stroke="rgb(208,236,224)" stroke-width="1" opacity="1" d="M 5.5 39 L 5.5 40 L 5.5 39 Z " /><path fill="rgb(208,236,224)" stroke="rgb(208,236,224)" stroke-width="1" opacity="1" d="M 42.5 39 L 42.5 40 L 42.5 39 Z " /><path fill="rgb(172,222,201)" stroke="rgb(172,222,201)" stroke-width="1" opacity="1" d="M 10.5 17 L 10.5 18 L 10.5 17 Z " /><path fill="rgb(172,222,201)" stroke="rgb(172,222,201)" stroke-width="1" opacity="1" d="M 37.5 17 L 37.5 18 L 37.5 17 Z " /><path fill="rgb(172,222,201)" stroke="rgb(172,222,201)" stroke-width="1" opacity="1" d="M 10.5 21 L 10.5 22 L 10.5 21 Z " /><path fill="rgb(172,222,201)" stroke="rgb(172,222,201)" stroke-width="1" opacity="1" d="M 30.5 22 L 30.5 23 L 30.5 22 Z " /><path fill="rgb(172,222,201)" stroke="rgb(172,222,201)" stroke-width="1" opacity="1" d="M 24.5 25 L 24.5 26 L 24.5 25 Z " /><path fill="rgb(172,222,201)" stroke="rgb(172,222,201)" stroke-width="1" opacity="1" d="M 13.5 27 L 13.5 28 L 13.5 27 Z " /><path fill="rgb(172,222,201)" stroke="rgb(172,222,201)" stroke-width="1" opacity="1" d="M 15.5 28 L 15.5 29 L 15.5 28 Z " /><path fill="rgb(172,222,201)" stroke="rgb(172,222,201)" stroke-width="1" opacity="1" d="M 20.5 28 L 20.5 29 L 20.5 28 Z " /><path fill="rgb(172,222,201)" stroke="rgb(172,222,201)" stroke-width="1" opacity="1" d="M 24.5 29 L 24.5 30 L 24.5 29 Z " /><path fill="rgb(172,222,201)" stroke="rgb(172,222,201)" stroke-width="1" opacity="1" d="M 26.5 30 L 27 31.5 L 26 31.5 L 26.5 30 Z " /><path fill="rgb(172,222,201)" stroke="rgb(172,222,201)" stroke-width="1" opacity="1" d="M 10.5 31 L 10.5 32 L 10.5 31 Z " /><path fill="rgb(172,222,201)" stroke="rgb(172,222,201)" stroke-width="1" opacity="1" d="M 34.5 31 L 34.5 32 L 34.5 31 Z " /><path fill="rgb(172,222,201)" stroke="rgb(172,222,201)" stroke-width="1" opacity="1" d="M 18.5 32 L 18.5 33 L 18.5 32 Z " /><path fill="rgb(172,222,201)" stroke="rgb(172,222,201)" stroke-width="1" opacity="1" d="M 20.5 32 L 20.5 33 L 20.5 32 Z " /><path fill="rgb(172,222,201)" stroke="rgb(172,222,201)" stroke-width="1" opacity="1" d="M 9.5 34 L 10.5 35 L 37.5 35 L 39 34.5 L 38.5 36 L 9 36 L 9.5 34 Z " /><path fill="rgb(172,222,201)" stroke="rgb(172,222,201)" stroke-width="1" opacity="1" d="M 7.5 35 L 8 36.5 L 7 36.5 L 7.5 35 Z " /><path fill="rgb(172,222,201)" stroke="rgb(172,222,201)" stroke-width="1" opacity="1" d="M 40.5 35 L 41 36.5 L 40 36.5 L 40.5 35 Z " /><path fill="rgb(124,203,169)" stroke="rgb(124,203,169)" stroke-width="1" opacity="1" d="M 9.5 17 L 9.5 18 L 9.5 17 Z " /><path fill="rgb(124,203,169)" stroke="rgb(124,203,169)" stroke-width="1" opacity="1" d="M 38.5 17 L 38.5 18 L 38.5 17 Z " /><path fill="rgb(124,203,169)" stroke="rgb(124,203,169)" stroke-width="1" opacity="1" d="M 13.5 21 L 13.5 22 L 13.5 21 Z " /><path fill="rgb(124,203,169)" stroke="rgb(124,203,169)" stroke-width="1" opacity="1" d="M 15.5 21 L 15.5 22 L 15.5 21 Z " /><path fill="rgb(124,203,169)" stroke="rgb(124,203,169)" stroke-width="1" opacity="1" d="M 27.5 21 L 28 22.5 L 27 22.5 L 27.5 21 Z " /><path fill="rgb(124,203,169)" stroke="rgb(124,203,169)" stroke-width="1" opacity="1" d="M 29.5 21 L 29.5 22 L 29.5 21 Z " /><path fill="rgb(124,203,169)" stroke="rgb(124,203,169)" stroke-width="1" opacity="1" d="M 34.5 22 L 35 23.5 L 34 23.5 L 34.5 22 Z " /><path fill="rgb(124,203,169)" stroke="rgb(124,203,169)" stroke-width="1" opacity="1" d="M 15.5 25 L 15.5 26 L 15.5 25 Z " /><path fill="rgb(124,203,169)" stroke="rgb(124,203,169)" stroke-width="1" opacity="1" d="M 24.5 26 L 24.5 27 L 24.5 26 Z " /><path fill="rgb(124,203,169)" stroke="rgb(124,203,169)" stroke-width="1" opacity="1" d="M 29.5 26 L 29.5 27 L 29.5 26 Z " /><path fill="rgb(124,203,169)" stroke="rgb(124,203,169)" stroke-width="1" opacity="1" d="M 15.5 27 L 15.5 28 L 15.5 27 Z " /><path fill="rgb(124,203,169)" stroke="rgb(124,203,169)" stroke-width="1" opacity="1" d="M 17.5 27 L 17.5 28 L 17.5 27 Z " /><path fill="rgb(124,203,169)" stroke="rgb(124,203,169)" stroke-width="1" opacity="1" d="M 22.5 27 Q 25 28 23.5 29 Q 21 28 22.5 27 Z " /><path fill="rgb(124,203,169)" stroke="rgb(124,203,169)" stroke-width="1" opacity="1" d="M 32.5 29 L 32.5 30 L 32.5 29 Z " /><path fill="rgb(124,203,169)" stroke="rgb(124,203,169)" stroke-width="1" opacity="1" d="M 25.5 30 L 25.5 31 L 25.5 30 Z " /><path fill="rgb(124,203,169)" stroke="rgb(124,203,169)" stroke-width="1" opacity="1" d="M 13.5 31 L 13.5 32 L 13.5 31 Z " /><path fill="rgb(124,203,169)" stroke="rgb(124,203,169)" stroke-width="1" opacity="1" d="M 21.5 31 L 21.5 32 L 21.5 31 Z " /><path fill="rgb(141,210,180)" stroke="rgb(141,210,180)" stroke-width="1" opacity="1" d="M 14.5 21 L 14.5 22 L 14.5 21 Z " /><path fill="rgb(141,210,180)" stroke="rgb(141,210,180)" stroke-width="1" opacity="1" d="M 20.5 21 Q 22 22 19.5 23 Q 18 22 20.5 21 Z " /><path fill="rgb(141,210,180)" stroke="rgb(141,210,180)" stroke-width="1" opacity="1" d="M 37.5 21 L 37.5 22 L 37.5 21 Z " /><path fill="rgb(141,210,180)" stroke="rgb(141,210,180)" stroke-width="1" opacity="1" d="M 28.5 24 L 28.5 25 L 28.5 24 Z " /><path fill="rgb(141,210,180)" stroke="rgb(141,210,180)" stroke-width="1" opacity="1" d="M 24.5 27 L 24.5 28 L 24.5 27 Z " /><path fill="rgb(141,210,180)" stroke="rgb(141,210,180)" stroke-width="1" opacity="1" d="M 32.5 27 L 32.5 28 L 32.5 27 Z " /><path fill="rgb(141,210,180)" stroke="rgb(141,210,180)" stroke-width="1" opacity="1" d="M 30.5 29 L 30.5 30 L 30.5 29 Z " /><path fill="rgb(141,210,180)" stroke="rgb(141,210,180)" stroke-width="1" opacity="1" d="M 27.5 30 Q 30 31 28.5 32 Q 26 31 27.5 30 Z " /><path fill="rgb(141,210,180)" stroke="rgb(141,210,180)" stroke-width="1" opacity="1" d="M 37.5 31 L 37.5 32 L 37.5 31 Z " /><path fill="rgb(141,210,180)" stroke="rgb(141,210,180)" stroke-width="1" opacity="1" d="M 19.5 32 L 19.5 33 L 19.5 32 Z " /><path fill="rgb(141,210,180)" stroke="rgb(141,210,180)" stroke-width="1" opacity="1" d="M 7.5 37 L 41 37.5 L 7.5 38 L 7.5 37 Z " /><path fill="rgb(214,239,228)" stroke="rgb(214,239,228)" stroke-width="1" opacity="1" d="M 21.5 22 L 21.5 23 L 21.5 22 Z " /><path fill="rgb(214,239,228)" stroke="rgb(214,239,228)" stroke-width="1" opacity="1" d="M 26.5 25 L 26.5 26 L 26.5 25 Z " /><path fill="rgb(214,239,228)" stroke="rgb(214,239,228)" stroke-width="1" opacity="1" d="M 32.5 26 L 32.5 27 L 32.5 26 Z " /><path fill="rgb(214,239,228)" stroke="rgb(214,239,228)" stroke-width="1" opacity="1" d="M 16.5 28 L 16.5 29 L 16.5 28 Z " /><path fill="rgb(214,239,228)" stroke="rgb(214,239,228)" stroke-width="1" opacity="1" d="M 22.5 32 Q 25 33 23.5 34 L 21 33.5 L 22.5 32 Z " /><path fill="rgb(214,239,228)" stroke="rgb(214,239,228)" stroke-width="1" opacity="1" d="M 11.5 33 L 19 33.5 L 11.5 34 L 11.5 33 Z " /><path fill="rgb(214,239,228)" stroke="rgb(214,239,228)" stroke-width="1" opacity="1" d="M 25.5 33 L 37 33.5 L 25.5 34 L 25.5 33 Z " /><path fill="rgb(214,239,228)" stroke="rgb(214,239,228)" stroke-width="1" opacity="1" d="M 5.5 37 L 5.5 38 L 5.5 37 Z " /><path fill="rgb(214,239,228)" stroke="rgb(214,239,228)" stroke-width="1" opacity="1" d="M 42.5 37 L 42.5 38 L 42.5 37 Z " /><path fill="rgb(183,227,208)" stroke="rgb(183,227,208)" stroke-width="1" opacity="1" d="M 18.5 11 L 18.5 12 L 18.5 11 Z " /><path fill="rgb(183,227,208)" stroke="rgb(183,227,208)" stroke-width="1" opacity="1" d="M 29.5 11 L 29.5 12 L 29.5 11 Z " /><path fill="rgb(183,227,208)" stroke="rgb(183,227,208)" stroke-width="1" opacity="1" d="M 16.5 12 L 16.5 13 L 16.5 12 Z " /><path fill="rgb(183,227,208)" stroke="rgb(183,227,208)" stroke-width="1" opacity="1" d="M 31.5 12 L 31.5 13 L 31.5 12 Z " /><path fill="rgb(183,227,208)" stroke="rgb(183,227,208)" stroke-width="1" opacity="1" d="M 14.5 13 L 14.5 14 L 14.5 13 Z " /><path fill="rgb(183,227,208)" stroke="rgb(183,227,208)" stroke-width="1" opacity="1" d="M 33.5 13 L 33.5 14 L 33.5 13 Z " /><path fill="rgb(183,227,208)" stroke="rgb(183,227,208)" stroke-width="1" opacity="1" d="M 12.5 14 L 12.5 15 L 12.5 14 Z " /><path fill="rgb(183,227,208)" stroke="rgb(183,227,208)" stroke-width="1" opacity="1" d="M 35.5 14 L 35.5 15 L 35.5 14 Z " /><path fill="rgb(183,227,208)" stroke="rgb(183,227,208)" stroke-width="1" opacity="1" d="M 10.5 15 L 10.5 16 L 10.5 15 Z " /><path fill="rgb(183,227,208)" stroke="rgb(183,227,208)" stroke-width="1" opacity="1" d="M 37.5 15 L 37.5 16 L 37.5 15 Z " /><path fill="rgb(183,227,208)" stroke="rgb(183,227,208)" stroke-width="1" opacity="1" d="M 33.5 24 L 33.5 25 L 33.5 24 Z " /><path fill="rgb(183,227,208)" stroke="rgb(183,227,208)" stroke-width="1" opacity="1" d="M 13.5 25 L 13.5 26 L 13.5 25 Z " /><path fill="rgb(183,227,208)" stroke="rgb(183,227,208)" stroke-width="1" opacity="1" d="M 13.5 30 L 13.5 31 L 13.5 30 Z " /><path fill="rgb(183,227,208)" stroke="rgb(183,227,208)" stroke-width="1" opacity="1" d="M 10.5 32 L 10.5 33 L 10.5 32 Z " /><path fill="rgb(183,227,208)" stroke="rgb(183,227,208)" stroke-width="1" opacity="1" d="M 25.5 32 L 25.5 33 L 25.5 32 Z " /><path fill="rgb(183,227,208)" stroke="rgb(183,227,208)" stroke-width="1" opacity="1" d="M 10.5 34 L 38 34.5 L 10.5 35 L 10.5 34 Z " /><path fill="rgb(183,227,208)" stroke="rgb(183,227,208)" stroke-width="1" opacity="1" d="M 8.5 35 L 8.5 36 L 8.5 35 Z " /><path fill="rgb(183,227,208)" stroke="rgb(183,227,208)" stroke-width="1" opacity="1" d="M 39.5 35 L 39.5 36 L 39.5 35 Z " /><path fill="rgb(183,227,208)" stroke="rgb(183,227,208)" stroke-width="1" opacity="1" d="M 5.5 38 L 5.5 39 L 5.5 38 Z " /><path fill="rgb(183,227,208)" stroke="rgb(183,227,208)" stroke-width="1" opacity="1" d="M 42.5 38 L 42.5 39 L 42.5 38 Z " /><path fill="rgb(226,243,236)" stroke="rgb(226,243,236)" stroke-width="1" opacity="1" d="M 18.5 13 L 18.5 14 L 18.5 13 Z " /><path fill="rgb(226,243,236)" stroke="rgb(226,243,236)" stroke-width="1" opacity="1" d="M 29.5 13 L 29.5 14 L 29.5 13 Z " /><path fill="rgb(226,243,236)" stroke="rgb(226,243,236)" stroke-width="1" opacity="1" d="M 16.5 14 L 16.5 15 L 16.5 14 Z " /><path fill="rgb(226,243,236)" stroke="rgb(226,243,236)" stroke-width="1" opacity="1" d="M 31.5 14 L 31.5 15 L 31.5 14 Z " /><path fill="rgb(226,243,236)" stroke="rgb(226,243,236)" stroke-width="1" opacity="1" d="M 14.5 15 L 14.5 16 L 14.5 15 Z " /><path fill="rgb(226,243,236)" stroke="rgb(226,243,236)" stroke-width="1" opacity="1" d="M 33.5 15 L 33.5 16 L 33.5 15 Z " /><path fill="rgb(226,243,236)" stroke="rgb(226,243,236)" stroke-width="1" opacity="1" d="M 12.5 16 L 12.5 17 L 12.5 16 Z " /><path fill="rgb(226,243,236)" stroke="rgb(226,243,236)" stroke-width="1" opacity="1" d="M 35.5 16 L 35.5 17 L 35.5 16 Z " /><path fill="rgb(226,243,236)" stroke="rgb(226,243,236)" stroke-width="1" opacity="1" d="M 11.5 19 L 37 19.5 L 11.5 20 L 11.5 19 Z " /><path fill="rgb(226,243,236)" stroke="rgb(226,243,236)" stroke-width="1" opacity="1" d="M 38.5 21 L 38.5 22 L 38.5 21 Z " /><path fill="rgb(226,243,236)" stroke="rgb(226,243,236)" stroke-width="1" opacity="1" d="M 14.5 22 L 14.5 23 L 14.5 22 Z " /><path fill="rgb(226,243,236)" stroke="rgb(226,243,236)" stroke-width="1" opacity="1" d="M 33.5 23 L 33.5 24 L 33.5 23 Z " /><path fill="rgb(226,243,236)" stroke="rgb(226,243,236)" stroke-width="1" opacity="1" d="M 22.5 26 L 22.5 27 L 22.5 26 Z " /><path fill="rgb(226,243,236)" stroke="rgb(226,243,236)" stroke-width="1" opacity="1" d="M 28.5 26 L 29 29.5 L 28 29.5 L 28.5 26 Z " /><path fill="rgb(226,243,236)" stroke="rgb(226,243,236)" stroke-width="1" opacity="1" d="M 34.5 26 L 34.5 27 L 34.5 26 Z " /><path fill="rgb(226,243,236)" stroke="rgb(226,243,236)" stroke-width="1" opacity="1" d="M 34.5 29 L 35 30.5 L 34 30.5 L 34.5 29 Z " /><path fill="rgb(226,243,236)" stroke="rgb(226,243,236)" stroke-width="1" opacity="1" d="M 8.5 38 L 40 38.5 L 8.5 39 L 8.5 38 Z " /><path fill="rgb(0,0,0)" stroke="rgb(0,0,0)" stroke-width="1" opacity="0" d="M 0 0 L 5 0.5 L 0.5 6 L 0 0 Z " /><path fill="rgb(0,0,0)" stroke="rgb(0,0,0)" stroke-width="1" opacity="0" d="M 43.5 0 Q 50.25 -2.25 48 4.5 L 47.5 5 L 43 0.5 L 43.5 0 Z " /><path fill="rgb(0,0,0)" stroke="rgb(0,0,0)" stroke-width="1" opacity="0" d="M 0.5 43 L 5 47.5 L 4.5 48 L 0 48 L 0.5 43 Z " /><path fill="rgb(0,0,0)" stroke="rgb(0,0,0)" stroke-width="1" opacity="0" d="M 47.5 43 L 48 48 L 43 47.5 L 47 44.5 L 47.5 43 Z " /></svg>