<svg width="48" height="48" version="1.1" xmlns="http://www.w3.org/2000/svg" desc="Created with imagetracer.js version 1.2.6" ><path fill="rgb(0,0,0)" stroke="rgb(0,0,0)" stroke-width="1" opacity="0" d="M 0 0 L 48 0 L 48 17 L 20.5 17 L 19 18.5 L 17 22.5 L 24 24 L 25 28.5 L 24 31 L 21.5 31 L 15 24.5 L 14 22.5 L 16 22 L 16 20.5 L 20 15.5 L 20 7.5 L 17.5 4 Q 15.33 2.17 10.5 3 L 5 9.5 L 5 14.5 L 7 20.5 Q 2.25 23.25 0.5 29 L 0 0 Z " /><path fill="rgb(0,0,0)" stroke="rgb(0,0,0)" stroke-width="1" opacity="0" d="M 14.5 7 L 17 10.5 L 12.5 17 L 10.5 18 L 10 10.5 L 14.5 7 Z " /><path fill="rgb(0,0,0)" stroke="rgb(0,0,0)" stroke-width="1" opacity="0" d="M 30 22 L 48 22 L 48 48 L 0.5 48 L 0 47.5 L 0 38.5 L 1 38.5 L 5.5 44 L 11.5 45 L 12.5 44 Q 16.67 44.67 18.5 43 L 22.5 39 Q 26.13 43.37 33.5 44 L 39 39.5 Q 40.67 34.69 36.5 36 L 33.5 37 L 27 33.5 L 30 29.5 L 30 22 Z " /><path fill="rgb(0,0,0)" stroke="rgb(0,0,0)" stroke-width="1" opacity="0" d="M 10 26 Q 12.67 24.87 12 27.5 L 20 36.5 L 14.5 40 L 10.5 40 L 7 35.5 L 7 32.5 L 10 26 Z " /><path fill="rgb(239,204,146)" stroke="rgb(239,204,146)" stroke-width="1" opacity="0.9921568627450981" d="M 12.5 4 Q 15.13 3.33 14 6 L 12.5 6 L 9 9.5 L 7.5 14 L 7 9.5 L 10.5 5 L 12.5 4 Z " /><path fill="rgb(239,204,146)" stroke="rgb(239,204,146)" stroke-width="1" opacity="0.9921568627450981" d="M 16.5 5 L 16.5 6 L 16.5 5 Z " /><path fill="rgb(239,204,146)" stroke="rgb(239,204,146)" stroke-width="1" opacity="0.9921568627450981" d="M 44.5 19 L 47 19.5 L 44.5 20 L 44.5 19 Z " /><path fill="rgb(239,204,146)" stroke="rgb(239,204,146)" stroke-width="1" opacity="0.9921568627450981" d="M 27.5 36 L 31.5 38 L 38 38.5 L 34.5 42 L 30.5 42 L 25 38.5 L 27.5 36 Z " /><path fill="rgb(92,72,40)" stroke="rgb(92,72,40)" stroke-width="1" opacity="0.30980392156862746" d="M 6.5 7 L 6.5 8 L 6.5 7 Z " /><path fill="rgb(92,72,40)" stroke="rgb(92,72,40)" stroke-width="1" opacity="0.30980392156862746" d="M 16.5 7 L 16.5 8 L 16.5 7 Z " /><path fill="rgb(92,72,40)" stroke="rgb(92,72,40)" stroke-width="1" opacity="0.30980392156862746" d="M 17.5 9 L 17.5 10 L 17.5 9 Z " /><path fill="rgb(92,72,40)" stroke="rgb(92,72,40)" stroke-width="1" opacity="0.30980392156862746" d="M 15.5 13 L 15.5 14 L 15.5 13 Z " /><path fill="rgb(92,72,40)" stroke="rgb(92,72,40)" stroke-width="1" opacity="0.30980392156862746" d="M 6.5 16 L 6.5 17 L 6.5 16 Z " /><path fill="rgb(92,72,40)" stroke="rgb(92,72,40)" stroke-width="1" opacity="0.30980392156862746" d="M 20.5 17 L 20.5 18 L 20.5 17 Z " /><path fill="rgb(92,72,40)" stroke="rgb(92,72,40)" stroke-width="1" opacity="0.30980392156862746" d="M 19.5 19 L 19 20.5 Q 18.12 23.5 22.5 22 L 22.5 23 L 18 23 L 18 20.5 L 19.5 19 Z " /><path fill="rgb(92,72,40)" stroke="rgb(92,72,40)" stroke-width="1" opacity="0.30980392156862746" d="M 12.5 26 Q 15 27 13.5 28 Q 11 27 12.5 26 Z " /><path fill="rgb(92,72,40)" stroke="rgb(92,72,40)" stroke-width="1" opacity="0.30980392156862746" d="M 25.5 26 L 26 27.5 L 25 27.5 L 25.5 26 Z " /><path fill="rgb(92,72,40)" stroke="rgb(92,72,40)" stroke-width="1" opacity="0.30980392156862746" d="M 1.5 27 L 1.5 28 L 1.5 27 Z " /><path fill="rgb(92,72,40)" stroke="rgb(92,72,40)" stroke-width="1" opacity="0.30980392156862746" d="M 14.5 29 L 18 32.5 L 17.5 33 L 14 29.5 L 14.5 29 Z " /><path fill="rgb(92,72,40)" stroke="rgb(92,72,40)" stroke-width="1" opacity="0.30980392156862746" d="M 0.5 30 L 1 31.5 L 0 31.5 L 0.5 30 Z " /><path fill="rgb(92,72,40)" stroke="rgb(92,72,40)" stroke-width="1" opacity="0.30980392156862746" d="M 0.5 35 L 1 36.5 L 0 36.5 L 0.5 35 Z " /><path fill="rgb(92,72,40)" stroke="rgb(92,72,40)" stroke-width="1" opacity="0.30980392156862746" d="M 1.5 38 L 1.5 39 L 1.5 38 Z " /><path fill="rgb(92,72,40)" stroke="rgb(92,72,40)" stroke-width="1" opacity="0.30980392156862746" d="M 24.5 39 Q 27 40 25.5 41 Q 23 40 24.5 39 Z " /><path fill="rgb(92,72,40)" stroke="rgb(92,72,40)" stroke-width="1" opacity="0.30980392156862746" d="M 5.5 42 L 5.5 43 L 5.5 42 Z " /><path fill="rgb(92,72,40)" stroke="rgb(92,72,40)" stroke-width="1" opacity="0.30980392156862746" d="M 7.5 43 L 7.5 44 L 7.5 43 Z " /><path fill="rgb(92,72,40)" stroke="rgb(92,72,40)" stroke-width="1" opacity="0.30980392156862746" d="M 15.5 43 L 15.5 44 L 15.5 43 Z " /><path fill="rgb(0,0,0)" stroke="rgb(0,0,0)" stroke-width="1" opacity="0.0196078431372549" d="M 16.5 8 L 16.5 9 L 16.5 8 Z " /><path fill="rgb(0,0,0)" stroke="rgb(0,0,0)" stroke-width="1" opacity="0.0196078431372549" d="M 5.5 9 L 5.5 10 L 5.5 9 Z " /><path fill="rgb(0,0,0)" stroke="rgb(0,0,0)" stroke-width="1" opacity="0.0196078431372549" d="M 16.5 11 L 16.5 12 L 16.5 11 Z " /><path fill="rgb(0,0,0)" stroke="rgb(0,0,0)" stroke-width="1" opacity="0.0196078431372549" d="M 6.5 18 L 6.5 19 L 6.5 18 Z " /><path fill="rgb(0,0,0)" stroke="rgb(0,0,0)" stroke-width="1" opacity="0.0196078431372549" d="M 24.5 40 L 24.5 41 L 24.5 40 Z " /><path fill="rgb(0,0,0)" stroke="rgb(0,0,0)" stroke-width="1" opacity="0.0196078431372549" d="M 9.5 44 L 12 44.5 L 9.5 45 L 9.5 44 Z " /><path fill="rgb(202,167,106)" stroke="rgb(202,167,106)" stroke-width="1" opacity="0.984313725490196" d="M 18.5 10 L 18.5 11 L 18.5 10 Z " /><path fill="rgb(202,167,106)" stroke="rgb(202,167,106)" stroke-width="1" opacity="0.984313725490196" d="M 17.5 13 L 19 13.5 L 2.5 30 L 2 29.5 L 4 27.5 L 3.5 26 L 4.5 27 L 9 22.5 L 9.5 20 L 11 20.5 L 17.5 13 Z " /><path fill="rgb(202,167,106)" stroke="rgb(202,167,106)" stroke-width="1" opacity="0.984313725490196" d="M 36.5 19 L 36.5 20 L 36.5 19 Z " /><path fill="rgb(202,167,106)" stroke="rgb(202,167,106)" stroke-width="1" opacity="0.984313725490196" d="M 28.5 27 L 29 29 L 26.5 30 L 26 29.5 L 28.5 27 Z " /><path fill="rgb(202,167,106)" stroke="rgb(202,167,106)" stroke-width="1" opacity="0.984313725490196" d="M 25.5 31 L 26 31.5 L 22.5 35 L 21 34.5 L 25.5 31 Z " /><path fill="rgb(202,167,106)" stroke="rgb(202,167,106)" stroke-width="1" opacity="0.984313725490196" d="M 22.5 37 L 24 37.5 L 22.5 38 L 22.5 37 Z " /><path fill="rgb(202,167,106)" stroke="rgb(202,167,106)" stroke-width="1" opacity="0.984313725490196" d="M 14.5 41 L 14.5 42 L 14.5 41 Z " /><path fill="rgb(202,167,106)" stroke="rgb(202,167,106)" stroke-width="1" opacity="0.984313725490196" d="M 17.5 41 L 17.5 42 L 17.5 41 Z " /><path fill="rgb(123,95,46)" stroke="rgb(123,95,46)" stroke-width="1" opacity="0.8941176470588236" d="M 7.5 18 L 7.5 19 L 7.5 18 Z " /><path fill="rgb(123,95,46)" stroke="rgb(123,95,46)" stroke-width="1" opacity="0.8941176470588236" d="M 23.5 22 Q 26 23 24.5 24 Q 22 23 23.5 22 Z " /><path fill="rgb(123,95,46)" stroke="rgb(123,95,46)" stroke-width="1" opacity="0.8941176470588236" d="M 12.5 25 L 12.5 26 L 12.5 25 Z " /><path fill="rgb(123,95,46)" stroke="rgb(123,95,46)" stroke-width="1" opacity="0.8941176470588236" d="M 25.5 25 L 25.5 26 L 25.5 25 Z " /><path fill="rgb(123,95,46)" stroke="rgb(123,95,46)" stroke-width="1" opacity="0.8941176470588236" d="M 14.5 28 Q 17 29 15.5 30 Q 13 29 14.5 28 Z " /><path fill="rgb(123,95,46)" stroke="rgb(123,95,46)" stroke-width="1" opacity="0.8941176470588236" d="M 0.5 33 L 1 34.5 L 0 34.5 L 0.5 33 Z " /><path fill="rgb(123,95,46)" stroke="rgb(123,95,46)" stroke-width="1" opacity="0.8941176470588236" d="M 18.5 33 L 21 35.5 L 20.5 36 L 18 33.5 L 18.5 33 Z " /><path fill="rgb(123,95,46)" stroke="rgb(123,95,46)" stroke-width="1" opacity="0.8941176470588236" d="M 1.5 37 L 1.5 38 L 1.5 37 Z " /><path fill="rgb(123,95,46)" stroke="rgb(123,95,46)" stroke-width="1" opacity="0.8941176470588236" d="M 2.5 39 L 5 41.5 L 4.5 42 L 2 39.5 L 2.5 39 Z " /><path fill="rgb(123,95,46)" stroke="rgb(123,95,46)" stroke-width="1" opacity="0.8941176470588236" d="M 6.5 42 L 6.5 43 L 6.5 42 Z " /><path fill="rgb(123,95,46)" stroke="rgb(123,95,46)" stroke-width="1" opacity="0.8941176470588236" d="M 8.5 43 L 8.5 44 L 8.5 43 Z " /><path fill="rgb(165,130,68)" stroke="rgb(165,130,68)" stroke-width="1" opacity="0.9686274509803922" d="M 7.5 17 L 7.5 18 L 7.5 17 Z " /><path fill="rgb(165,130,68)" stroke="rgb(165,130,68)" stroke-width="1" opacity="0.9686274509803922" d="M 8.5 19 L 8.5 20 L 8.5 19 Z " /><path fill="rgb(165,130,68)" stroke="rgb(165,130,68)" stroke-width="1" opacity="0.9686274509803922" d="M 26.5 19 L 29 20.5 L 25 22.5 L 25.5 24 L 24 21.5 L 26.5 19 Z " /><path fill="rgb(165,130,68)" stroke="rgb(165,130,68)" stroke-width="1" opacity="0.9686274509803922" d="M 34.5 20 L 37 20.5 L 34.5 21 L 34.5 20 Z " /><path fill="rgb(165,130,68)" stroke="rgb(165,130,68)" stroke-width="1" opacity="0.9686274509803922" d="M 12.5 24 L 15 25.5 L 13.5 26 Q 11 25 12.5 24 Z " /><path fill="rgb(165,130,68)" stroke="rgb(165,130,68)" stroke-width="1" opacity="0.9686274509803922" d="M 16.5 29 L 18 29.5 L 16.5 30 L 16.5 29 Z " /><path fill="rgb(165,130,68)" stroke="rgb(165,130,68)" stroke-width="1" opacity="0.9686274509803922" d="M 18.5 32 L 18.5 33 L 18.5 32 Z " /><path fill="rgb(165,130,68)" stroke="rgb(165,130,68)" stroke-width="1" opacity="0.9686274509803922" d="M 5.5 33 L 5 34.5 L 3.5 37 L 1 35.5 L 2.5 36 L 5.5 33 Z " /><path fill="rgb(165,130,68)" stroke="rgb(165,130,68)" stroke-width="1" opacity="0.9686274509803922" d="M 6.5 39 Q 9.13 38.33 8 41 L 5 40.5 L 6.5 39 Z " /><path fill="rgb(165,130,68)" stroke="rgb(165,130,68)" stroke-width="1" opacity="0.9686274509803922" d="M 7.5 42 L 7.5 43 L 7.5 42 Z " /><path fill="rgb(62,48,26)" stroke="rgb(62,48,26)" stroke-width="1" opacity="0.11372549019607843" d="M 5.5 10 L 6 12.5 L 5 12.5 L 5.5 10 Z " /><path fill="rgb(62,48,26)" stroke="rgb(62,48,26)" stroke-width="1" opacity="0.11372549019607843" d="M 19.5 18 L 19.5 19 L 19.5 18 Z " /><path fill="rgb(62,48,26)" stroke="rgb(62,48,26)" stroke-width="1" opacity="0.11372549019607843" d="M 7.5 19 L 7.5 20 L 7.5 19 Z " /><path fill="rgb(62,48,26)" stroke="rgb(62,48,26)" stroke-width="1" opacity="0.11372549019607843" d="M 29.5 21 L 29.5 22 L 29.5 21 Z " /><path fill="rgb(62,48,26)" stroke="rgb(62,48,26)" stroke-width="1" opacity="0.11372549019607843" d="M 23.5 23 Q 26 24 24.5 25 Q 22 24 23.5 23 Z " /><path fill="rgb(62,48,26)" stroke="rgb(62,48,26)" stroke-width="1" opacity="0.11372549019607843" d="M 2.5 25 L 2.5 26 L 2.5 25 Z " /><path fill="rgb(62,48,26)" stroke="rgb(62,48,26)" stroke-width="1" opacity="0.11372549019607843" d="M 11.5 25 L 11.5 26 L 11.5 25 Z " /><path fill="rgb(62,48,26)" stroke="rgb(62,48,26)" stroke-width="1" opacity="0.11372549019607843" d="M 13.5 28 L 13.5 29 L 13.5 28 Z " /><path fill="rgb(62,48,26)" stroke="rgb(62,48,26)" stroke-width="1" opacity="0.11372549019607843" d="M 23.5 31 L 23.5 32 L 23.5 31 Z " /><path fill="rgb(62,48,26)" stroke="rgb(62,48,26)" stroke-width="1" opacity="0.11372549019607843" d="M 1.5 39 L 5 42.5 L 4.5 43 L 1 39.5 L 1.5 39 Z " /><path fill="rgb(62,48,26)" stroke="rgb(62,48,26)" stroke-width="1" opacity="0.11372549019607843" d="M 18.5 42 L 18.5 43 L 18.5 42 Z " /><path fill="rgb(62,48,26)" stroke="rgb(62,48,26)" stroke-width="1" opacity="0.11372549019607843" d="M 28.5 42 L 28.5 43 L 28.5 42 Z " /><path fill="rgb(62,48,26)" stroke="rgb(62,48,26)" stroke-width="1" opacity="0.11372549019607843" d="M 6.5 43 L 6.5 44 L 6.5 43 Z " /><path fill="rgb(53,40,20)" stroke="rgb(53,40,20)" stroke-width="1" opacity="0.06666666666666667" d="M 30.5 21 L 48 21.5 L 30.5 22 L 30.5 21 Z " /><path fill="rgb(53,40,20)" stroke="rgb(53,40,20)" stroke-width="1" opacity="0.06666666666666667" d="M 17.5 22 L 17.5 23 L 17.5 22 Z " /><path fill="rgb(53,40,20)" stroke="rgb(53,40,20)" stroke-width="1" opacity="0.06666666666666667" d="M 12.5 27 L 12.5 28 L 12.5 27 Z " /><path fill="rgb(53,40,20)" stroke="rgb(53,40,20)" stroke-width="1" opacity="0.06666666666666667" d="M 31.5 43 L 31.5 44 L 31.5 43 Z " /><path fill="rgb(51,38,18)" stroke="rgb(51,38,18)" stroke-width="1" opacity="0.10196078431372549" d="M 5.5 13 L 5.5 14 L 5.5 13 Z " /><path fill="rgb(51,38,18)" stroke="rgb(51,38,18)" stroke-width="1" opacity="0.10196078431372549" d="M 6.5 17 L 6.5 18 L 6.5 17 Z " /><path fill="rgb(51,38,18)" stroke="rgb(51,38,18)" stroke-width="1" opacity="0.10196078431372549" d="M 17.5 33 L 20 35.5 L 19.5 36 L 17 33.5 L 17.5 33 Z " /><path fill="rgb(51,38,18)" stroke="rgb(51,38,18)" stroke-width="1" opacity="0.10196078431372549" d="M 0.5 37 L 0.5 38 L 0.5 37 Z " /><path fill="rgb(51,38,18)" stroke="rgb(51,38,18)" stroke-width="1" opacity="0.10196078431372549" d="M 26.5 41 L 26.5 42 L 26.5 41 Z " /><path fill="rgb(193,158,97)" stroke="rgb(193,158,97)" stroke-width="1" opacity="0.13725490196078433" d="M 7.5 6 L 7.5 7 L 7.5 6 Z " /><path fill="rgb(193,158,97)" stroke="rgb(193,158,97)" stroke-width="1" opacity="0.13725490196078433" d="M 12.5 7 L 12.5 8 L 12.5 7 Z " /><path fill="rgb(193,158,97)" stroke="rgb(193,158,97)" stroke-width="1" opacity="0.13725490196078433" d="M 19.5 13 L 20 15.5 L 16 20.5 L 16 22 L 14 22.5 L 14.5 24 L 13 22.5 L 18 17.5 L 19.5 13 Z " /><path fill="rgb(193,158,97)" stroke="rgb(193,158,97)" stroke-width="1" opacity="0.13725490196078433" d="M 14.5 15 L 15 15.5 L 12.5 18 L 10.5 19 Q 9 18 11.5 17 L 14.5 15 Z " /><path fill="rgb(193,158,97)" stroke="rgb(193,158,97)" stroke-width="1" opacity="0.13725490196078433" d="M 21.5 17 L 23 17.5 L 21.5 18 L 21.5 17 Z " /><path fill="rgb(193,158,97)" stroke="rgb(193,158,97)" stroke-width="1" opacity="0.13725490196078433" d="M 27.5 17 L 42 17.5 L 27.5 18 L 27.5 17 Z " /><path fill="rgb(193,158,97)" stroke="rgb(193,158,97)" stroke-width="1" opacity="0.13725490196078433" d="M 6.5 21 L 7 21.5 L 3.5 25 L 3 24.5 L 6.5 21 Z " /><path fill="rgb(193,158,97)" stroke="rgb(193,158,97)" stroke-width="1" opacity="0.13725490196078433" d="M 29.5 22 L 30 24.5 L 29 24.5 L 29.5 22 Z " /><path fill="rgb(193,158,97)" stroke="rgb(193,158,97)" stroke-width="1" opacity="0.13725490196078433" d="M 10.5 25 L 10 26.5 L 8.5 29 L 9 27.5 L 10.5 25 Z " /><path fill="rgb(193,158,97)" stroke="rgb(193,158,97)" stroke-width="1" opacity="0.13725490196078433" d="M 17.5 27 L 23 31.5 L 21.5 32 L 17 27.5 L 17.5 27 Z " /><path fill="rgb(193,158,97)" stroke="rgb(193,158,97)" stroke-width="1" opacity="0.13725490196078433" d="M 29.5 27 L 30 29.5 L 27.5 33 L 28 31.5 L 29.5 27 Z " /><path fill="rgb(193,158,97)" stroke="rgb(193,158,97)" stroke-width="1" opacity="0.13725490196078433" d="M 7.5 30 L 8 31.5 L 7 31.5 L 7.5 30 Z " /><path fill="rgb(193,158,97)" stroke="rgb(193,158,97)" stroke-width="1" opacity="0.13725490196078433" d="M 19.5 37 Q 21 38 18.5 39 L 14.5 41 L 10.5 41 L 8 38.5 L 8.5 38 Q 9.5 41 14.5 40 L 19.5 37 Z " /><path fill="rgb(193,158,97)" stroke="rgb(193,158,97)" stroke-width="1" opacity="0.13725490196078433" d="M 22.5 38 L 22.5 39 L 22.5 38 Z " /><path fill="rgb(193,158,97)" stroke="rgb(193,158,97)" stroke-width="1" opacity="0.13725490196078433" d="M 19.5 41 L 19.5 42 L 19.5 41 Z " /><path fill="rgb(193,158,97)" stroke="rgb(193,158,97)" stroke-width="1" opacity="0.13725490196078433" d="M 17.5 42 L 17.5 43 L 17.5 42 Z " /><path fill="rgb(193,158,97)" stroke="rgb(193,158,97)" stroke-width="1" opacity="0.13725490196078433" d="M 33.5 43 L 33.5 44 L 33.5 43 Z " /><path fill="rgb(195,160,98)" stroke="rgb(195,160,98)" stroke-width="1" opacity="0.996078431372549" d="M 16.5 6 L 16.5 7 L 16.5 6 Z " /><path fill="rgb(195,160,98)" stroke="rgb(195,160,98)" stroke-width="1" opacity="0.996078431372549" d="M 7.5 16 L 7.5 17 L 7.5 16 Z " /><path fill="rgb(195,160,98)" stroke="rgb(195,160,98)" stroke-width="1" opacity="0.996078431372549" d="M 17.5 16 L 18 16.5 L 13 21.5 L 11.5 24 L 8 26.5 L 2.5 33 L 2 31.5 L 17.5 16 Z " /><path fill="rgb(195,160,98)" stroke="rgb(195,160,98)" stroke-width="1" opacity="0.996078431372549" d="M 32.5 19 L 35 19.5 L 32.5 20 L 32.5 19 Z " /><path fill="rgb(195,160,98)" stroke="rgb(195,160,98)" stroke-width="1" opacity="0.996078431372549" d="M 28.5 24 L 29 25.5 Q 28 28 27 26.5 L 28.5 24 Z " /><path fill="rgb(195,160,98)" stroke="rgb(195,160,98)" stroke-width="1" opacity="0.996078431372549" d="M 26.5 28 L 26.5 29 L 26.5 28 Z " /><path fill="rgb(195,160,98)" stroke="rgb(195,160,98)" stroke-width="1" opacity="0.996078431372549" d="M 19.5 32 L 22 32.5 L 20.5 34 Q 18 33 19.5 32 Z " /><path fill="rgb(195,160,98)" stroke="rgb(195,160,98)" stroke-width="1" opacity="0.996078431372549" d="M 21.5 35 L 21.5 36 L 21.5 35 Z " /><path fill="rgb(195,160,98)" stroke="rgb(195,160,98)" stroke-width="1" opacity="0.996078431372549" d="M 24.5 38 L 24.5 39 L 24.5 38 Z " /><path fill="rgb(195,160,98)" stroke="rgb(195,160,98)" stroke-width="1" opacity="0.996078431372549" d="M 12.5 41 Q 14 42 11.5 43 L 10 42.5 L 12.5 41 Z " /><path fill="rgb(195,160,98)" stroke="rgb(195,160,98)" stroke-width="1" opacity="0.996078431372549" d="M 14.5 42 L 14.5 43 L 14.5 42 Z " /><path fill="rgb(199,163,101)" stroke="rgb(199,163,101)" stroke-width="1" opacity="1" d="M 18.5 9 L 18.5 10 L 18.5 9 Z " /><path fill="rgb(199,163,101)" stroke="rgb(199,163,101)" stroke-width="1" opacity="1" d="M 18.5 14 L 19 14.5 L 2.5 31 L 2.5 28 L 3.5 29 L 18.5 14 Z " /><path fill="rgb(199,163,101)" stroke="rgb(199,163,101)" stroke-width="1" opacity="1" d="M 35.5 19 L 35.5 20 L 35.5 19 Z " /><path fill="rgb(199,163,101)" stroke="rgb(199,163,101)" stroke-width="1" opacity="1" d="M 28.5 26 Q 30 27 27.5 28 Q 26 27 28.5 26 Z " /><path fill="rgb(199,163,101)" stroke="rgb(199,163,101)" stroke-width="1" opacity="1" d="M 21.5 33 L 21.5 34 L 21.5 33 Z " /><path fill="rgb(199,163,101)" stroke="rgb(199,163,101)" stroke-width="1" opacity="1" d="M 13.5 41 L 14 43 L 12 42.5 L 13.5 41 Z " /><path fill="rgb(142,113,62)" stroke="rgb(142,113,62)" stroke-width="1" opacity="0.4470588235294118" d="M 14.5 6 L 14.5 7 L 14.5 6 Z " /><path fill="rgb(142,113,62)" stroke="rgb(142,113,62)" stroke-width="1" opacity="0.4470588235294118" d="M 6.5 8 L 6.5 9 L 6.5 8 Z " /><path fill="rgb(142,113,62)" stroke="rgb(142,113,62)" stroke-width="1" opacity="0.4470588235294118" d="M 17.5 10 L 17.5 11 L 17.5 10 Z " /><path fill="rgb(142,113,62)" stroke="rgb(142,113,62)" stroke-width="1" opacity="0.4470588235294118" d="M 16.5 12 L 16.5 13 L 16.5 12 Z " /><path fill="rgb(142,113,62)" stroke="rgb(142,113,62)" stroke-width="1" opacity="0.4470588235294118" d="M 15.5 14 L 15.5 15 L 15.5 14 Z " /><path fill="rgb(142,113,62)" stroke="rgb(142,113,62)" stroke-width="1" opacity="0.4470588235294118" d="M 23.5 17 L 27 17.5 L 23.5 18 L 23.5 17 Z " /><path fill="rgb(142,113,62)" stroke="rgb(142,113,62)" stroke-width="1" opacity="0.4470588235294118" d="M 20.5 18 L 20.5 19 L 20.5 18 Z " /><path fill="rgb(142,113,62)" stroke="rgb(142,113,62)" stroke-width="1" opacity="0.4470588235294118" d="M 14.5 24 L 17 26.5 L 16.5 27 L 14 24.5 L 14.5 24 Z " /><path fill="rgb(142,113,62)" stroke="rgb(142,113,62)" stroke-width="1" opacity="0.4470588235294118" d="M 2.5 26 L 2.5 27 L 2.5 26 Z " /><path fill="rgb(142,113,62)" stroke="rgb(142,113,62)" stroke-width="1" opacity="0.4470588235294118" d="M 1.5 28 L 1.5 29 L 1.5 28 Z " /><path fill="rgb(142,113,62)" stroke="rgb(142,113,62)" stroke-width="1" opacity="0.4470588235294118" d="M 25.5 28 L 25.5 29 L 25.5 28 Z " /><path fill="rgb(142,113,62)" stroke="rgb(142,113,62)" stroke-width="1" opacity="0.4470588235294118" d="M 7.5 29 L 7.5 30 L 7.5 29 Z " /><path fill="rgb(142,113,62)" stroke="rgb(142,113,62)" stroke-width="1" opacity="0.4470588235294118" d="M 24.5 30 L 24.5 31 L 24.5 30 Z " /><path fill="rgb(142,113,62)" stroke="rgb(142,113,62)" stroke-width="1" opacity="0.4470588235294118" d="M 0.5 32 L 0.5 33 L 0.5 32 Z " /><path fill="rgb(142,113,62)" stroke="rgb(142,113,62)" stroke-width="1" opacity="0.4470588235294118" d="M 6.5 32 L 9 39.5 Q 8 41 7 38.5 L 6 35.5 L 6.5 32 Z " /><path fill="rgb(142,113,62)" stroke="rgb(142,113,62)" stroke-width="1" opacity="0.4470588235294118" d="M 20.5 36 L 20.5 37 L 20.5 36 Z " /><path fill="rgb(142,113,62)" stroke="rgb(142,113,62)" stroke-width="1" opacity="0.4470588235294118" d="M 27.5 41 L 27.5 42 L 27.5 41 Z " /><path fill="rgb(142,113,62)" stroke="rgb(142,113,62)" stroke-width="1" opacity="0.4470588235294118" d="M 29.5 42 L 29.5 43 L 29.5 42 Z " /><path fill="rgb(142,113,62)" stroke="rgb(142,113,62)" stroke-width="1" opacity="0.4470588235294118" d="M 13.5 43 L 15 43.5 L 13.5 44 L 13.5 43 Z " /><path fill="rgb(142,113,62)" stroke="rgb(142,113,62)" stroke-width="1" opacity="0.4470588235294118" d="M 32.5 43 L 32.5 44 L 32.5 43 Z " /><path fill="rgb(183,148,88)" stroke="rgb(183,148,88)" stroke-width="1" opacity="0.9215686274509803" d="M 17.5 7 L 17.5 8 L 17.5 7 Z " /><path fill="rgb(183,148,88)" stroke="rgb(183,148,88)" stroke-width="1" opacity="0.9215686274509803" d="M 6.5 11 L 7 13.5 L 6 13.5 L 6.5 11 Z " /><path fill="rgb(183,148,88)" stroke="rgb(183,148,88)" stroke-width="1" opacity="0.9215686274509803" d="M 17.5 12 L 17.5 13 L 17.5 12 Z " /><path fill="rgb(183,148,88)" stroke="rgb(183,148,88)" stroke-width="1" opacity="0.9215686274509803" d="M 15.5 19 L 16 19.5 L 13.5 22 L 13 21.5 L 15.5 19 Z " /><path fill="rgb(183,148,88)" stroke="rgb(183,148,88)" stroke-width="1" opacity="0.9215686274509803" d="M 31.5 19 L 31.5 20 L 31.5 19 Z " /><path fill="rgb(183,148,88)" stroke="rgb(183,148,88)" stroke-width="1" opacity="0.9215686274509803" d="M 37.5 20 L 40 20.5 L 37.5 21 L 37.5 20 Z " /><path fill="rgb(183,148,88)" stroke="rgb(183,148,88)" stroke-width="1" opacity="0.9215686274509803" d="M 28.5 22 L 29 23.5 Q 26.58 24.58 26.5 28 L 26 24 Q 28.75 25 28.5 22 Z " /><path fill="rgb(183,148,88)" stroke="rgb(183,148,88)" stroke-width="1" opacity="0.9215686274509803" d="M 12.5 23 L 12.5 24 L 12.5 23 Z " /><path fill="rgb(183,148,88)" stroke="rgb(183,148,88)" stroke-width="1" opacity="0.9215686274509803" d="M 10.5 24 L 11 24.5 L 8.5 27 L 8 26.5 L 10.5 24 Z " /><path fill="rgb(183,148,88)" stroke="rgb(183,148,88)" stroke-width="1" opacity="0.9215686274509803" d="M 7.5 28 L 7 29.5 Q 7.75 31.75 5.5 31 L 2.5 34 L 1 32.5 L 1.5 30 L 2.5 33 L 7.5 28 Z " /><path fill="rgb(183,148,88)" stroke="rgb(183,148,88)" stroke-width="1" opacity="0.9215686274509803" d="M 25.5 30 L 25.5 31 L 25.5 30 Z " /><path fill="rgb(183,148,88)" stroke="rgb(183,148,88)" stroke-width="1" opacity="0.9215686274509803" d="M 20.5 31 L 20.5 32 L 20.5 31 Z " /><path fill="rgb(183,148,88)" stroke="rgb(183,148,88)" stroke-width="1" opacity="0.9215686274509803" d="M 21.5 36 L 21.5 37 L 21.5 36 Z " /><path fill="rgb(183,148,88)" stroke="rgb(183,148,88)" stroke-width="1" opacity="0.9215686274509803" d="M 25.5 39 L 25.5 40 L 25.5 39 Z " /><path fill="rgb(183,148,88)" stroke="rgb(183,148,88)" stroke-width="1" opacity="0.9215686274509803" d="M 10.5 41 L 12 41.5 L 9.5 43 Q 8 42 10.5 41 Z " /><path fill="rgb(176,140,76)" stroke="rgb(176,140,76)" stroke-width="1" opacity="0.984313725490196" d="M 30.5 18 L 31 20 L 28 19.5 L 30.5 18 Z " /><path fill="rgb(176,140,76)" stroke="rgb(176,140,76)" stroke-width="1" opacity="0.984313725490196" d="M 27.5 21 L 28 24 L 25 22.5 L 27.5 21 Z " /><path fill="rgb(176,140,76)" stroke="rgb(176,140,76)" stroke-width="1" opacity="0.984313725490196" d="M 13.5 24 L 13.5 25 L 13.5 24 Z " /><path fill="rgb(176,140,76)" stroke="rgb(176,140,76)" stroke-width="1" opacity="0.984313725490196" d="M 17.5 30 L 20 31.5 L 18.5 32 Q 16 31 17.5 30 Z " /><path fill="rgb(176,140,76)" stroke="rgb(176,140,76)" stroke-width="1" opacity="0.984313725490196" d="M 5.5 31 L 6 32.5 L 2.5 36 L 1 34.5 L 1.5 33 L 2.5 34 L 5.5 31 Z " /><path fill="rgb(176,140,76)" stroke="rgb(176,140,76)" stroke-width="1" opacity="0.984313725490196" d="M 19.5 33 Q 22 34 20.5 35 Q 18 34 19.5 33 Z " /><path fill="rgb(176,140,76)" stroke="rgb(176,140,76)" stroke-width="1" opacity="0.984313725490196" d="M 8.5 40 Q 11.5 41.5 8.5 43 L 6 41.5 L 8.5 40 Z " /><path fill="rgb(43,32,15)" stroke="rgb(43,32,15)" stroke-width="1" opacity="0.0392156862745098" d="M 13.5 7 L 13.5 8 L 13.5 7 Z " /><path fill="rgb(43,32,15)" stroke="rgb(43,32,15)" stroke-width="1" opacity="0.0392156862745098" d="M 16.5 32 L 16.5 33 L 16.5 32 Z " /><path fill="rgb(189,156,101)" stroke="rgb(189,156,101)" stroke-width="1" opacity="0.792156862745098" d="M 6.5 9 L 7 10.5 L 6 10.5 L 6.5 9 Z " /><path fill="rgb(189,156,101)" stroke="rgb(189,156,101)" stroke-width="1" opacity="0.792156862745098" d="M 16.5 13 L 16.5 14 L 16.5 13 Z " /><path fill="rgb(189,156,101)" stroke="rgb(189,156,101)" stroke-width="1" opacity="0.792156862745098" d="M 17.5 17 Q 19 18 16.5 19 Q 15 18 17.5 17 Z " /><path fill="rgb(189,156,101)" stroke="rgb(189,156,101)" stroke-width="1" opacity="0.792156862745098" d="M 31.5 18 L 37 18.5 L 31.5 19 L 31.5 18 Z " /><path fill="rgb(189,156,101)" stroke="rgb(189,156,101)" stroke-width="1" opacity="0.792156862745098" d="M 40.5 20 L 47 20.5 L 40.5 21 L 40.5 20 Z " /><path fill="rgb(189,156,101)" stroke="rgb(189,156,101)" stroke-width="1" opacity="0.792156862745098" d="M 13.5 23 L 13.5 24 L 13.5 23 Z " /><path fill="rgb(189,156,101)" stroke="rgb(189,156,101)" stroke-width="1" opacity="0.792156862745098" d="M 3.5 25 L 3.5 26 L 3.5 25 Z " /><path fill="rgb(189,156,101)" stroke="rgb(189,156,101)" stroke-width="1" opacity="0.792156862745098" d="M 2.5 27 L 2.5 28 L 2.5 27 Z " /><path fill="rgb(189,156,101)" stroke="rgb(189,156,101)" stroke-width="1" opacity="0.792156862745098" d="M 8.5 27 L 8.5 28 L 8.5 27 Z " /><path fill="rgb(189,156,101)" stroke="rgb(189,156,101)" stroke-width="1" opacity="0.792156862745098" d="M 19.5 30 L 19.5 31 L 19.5 30 Z " /><path fill="rgb(189,156,101)" stroke="rgb(189,156,101)" stroke-width="1" opacity="0.792156862745098" d="M 24.5 31 Q 26 32 23.5 33 Q 22 32 24.5 31 Z " /><path fill="rgb(189,156,101)" stroke="rgb(189,156,101)" stroke-width="1" opacity="0.792156862745098" d="M 9.5 40 L 9.5 41 L 9.5 40 Z " /><path fill="rgb(189,156,101)" stroke="rgb(189,156,101)" stroke-width="1" opacity="0.792156862745098" d="M 28.5 41 L 28.5 42 L 28.5 41 Z " /><path fill="rgb(189,156,101)" stroke="rgb(189,156,101)" stroke-width="1" opacity="0.792156862745098" d="M 15.5 42 L 17 42.5 L 15.5 43 L 15.5 42 Z " /><path fill="rgb(189,156,101)" stroke="rgb(189,156,101)" stroke-width="1" opacity="0.792156862745098" d="M 30.5 42 L 30.5 43 L 30.5 42 Z " /><path fill="rgb(209,175,116)" stroke="rgb(209,175,116)" stroke-width="1" opacity="0.6627450980392157" d="M 13.5 6 L 13.5 7 L 13.5 6 Z " /><path fill="rgb(209,175,116)" stroke="rgb(209,175,116)" stroke-width="1" opacity="0.6627450980392157" d="M 7.5 7 L 7.5 8 L 7.5 7 Z " /><path fill="rgb(209,175,116)" stroke="rgb(209,175,116)" stroke-width="1" opacity="0.6627450980392157" d="M 19.5 9 L 20 12.5 L 19 12.5 L 19.5 9 Z " /><path fill="rgb(209,175,116)" stroke="rgb(209,175,116)" stroke-width="1" opacity="0.6627450980392157" d="M 18.5 15 L 18.5 16 L 18.5 15 Z " /><path fill="rgb(209,175,116)" stroke="rgb(209,175,116)" stroke-width="1" opacity="0.6627450980392157" d="M 9.5 17 L 9.5 18 L 9.5 17 Z " /><path fill="rgb(209,175,116)" stroke="rgb(209,175,116)" stroke-width="1" opacity="0.6627450980392157" d="M 11.5 18 Q 13 19 10.5 20 Q 9 19 11.5 18 Z " /><path fill="rgb(209,175,116)" stroke="rgb(209,175,116)" stroke-width="1" opacity="0.6627450980392157" d="M 37.5 18 L 42 18.5 L 37.5 19 L 37.5 18 Z " /><path fill="rgb(209,175,116)" stroke="rgb(209,175,116)" stroke-width="1" opacity="0.6627450980392157" d="M 47.5 20 L 47.5 21 L 47.5 20 Z " /><path fill="rgb(209,175,116)" stroke="rgb(209,175,116)" stroke-width="1" opacity="0.6627450980392157" d="M 7.5 21 L 8 21.5 L 4.5 25 L 4 24.5 L 7.5 21 Z " /><path fill="rgb(209,175,116)" stroke="rgb(209,175,116)" stroke-width="1" opacity="0.6627450980392157" d="M 29.5 25 L 30 26.5 L 29 26.5 L 29.5 25 Z " /><path fill="rgb(209,175,116)" stroke="rgb(209,175,116)" stroke-width="1" opacity="0.6627450980392157" d="M 28.5 29 L 28.5 30 L 28.5 29 Z " /><path fill="rgb(209,175,116)" stroke="rgb(209,175,116)" stroke-width="1" opacity="0.6627450980392157" d="M 27.5 31 L 27.5 32 L 27.5 31 Z " /><path fill="rgb(209,175,116)" stroke="rgb(209,175,116)" stroke-width="1" opacity="0.6627450980392157" d="M 22.5 32 L 22.5 33 L 22.5 32 Z " /><path fill="rgb(209,175,116)" stroke="rgb(209,175,116)" stroke-width="1" opacity="0.6627450980392157" d="M 20.5 37 Q 22 38 19.5 39 Q 18 38 20.5 37 Z " /><path fill="rgb(209,175,116)" stroke="rgb(209,175,116)" stroke-width="1" opacity="0.6627450980392157" d="M 17.5 39 L 17.5 40 L 17.5 39 Z " /><path fill="rgb(209,175,116)" stroke="rgb(209,175,116)" stroke-width="1" opacity="0.6627450980392157" d="M 15.5 40 L 15.5 41 L 15.5 40 Z " /><path fill="rgb(209,175,116)" stroke="rgb(209,175,116)" stroke-width="1" opacity="0.6627450980392157" d="M 19.5 40 Q 21 41 18.5 42 Q 17 41 19.5 40 Z " /><path fill="rgb(209,175,116)" stroke="rgb(209,175,116)" stroke-width="1" opacity="0.6627450980392157" d="M 31.5 42 L 31.5 43 L 31.5 42 Z " /><path fill="rgb(211,176,116)" stroke="rgb(211,176,116)" stroke-width="1" opacity="0.984313725490196" d="M 18.5 8 L 18.5 9 L 18.5 8 Z " /><path fill="rgb(211,176,116)" stroke="rgb(211,176,116)" stroke-width="1" opacity="0.984313725490196" d="M 18.5 11 L 19 12.5 L 18 12.5 L 18.5 11 Z " /><path fill="rgb(211,176,116)" stroke="rgb(211,176,116)" stroke-width="1" opacity="0.984313725490196" d="M 8.5 18 L 11 20.5 L 10.5 21 L 8 18.5 L 8.5 18 Z " /><path fill="rgb(211,176,116)" stroke="rgb(211,176,116)" stroke-width="1" opacity="0.984313725490196" d="M 37.5 19 L 40 19.5 L 37.5 20 L 37.5 19 Z " /><path fill="rgb(211,176,116)" stroke="rgb(211,176,116)" stroke-width="1" opacity="0.984313725490196" d="M 8.5 21 L 9 22.5 L 3.5 28 L 3 27.5 L 8.5 21 Z " /><path fill="rgb(211,176,116)" stroke="rgb(211,176,116)" stroke-width="1" opacity="0.984313725490196" d="M 27.5 29 L 28 30.5 L 24.5 36 L 18.5 41 L 15.5 42 Q 14 41 16.5 40 Q 20.38 39.38 22 36.5 L 27.5 29 Z " /><path fill="rgb(211,176,116)" stroke="rgb(211,176,116)" stroke-width="1" opacity="0.984313725490196" d="M 27.5 40 L 27.5 41 L 27.5 40 Z " /><path fill="rgb(211,176,116)" stroke="rgb(211,176,116)" stroke-width="1" opacity="0.984313725490196" d="M 29.5 41 L 29.5 42 L 29.5 41 Z " /><path fill="rgb(228,193,134)" stroke="rgb(228,193,134)" stroke-width="1" opacity="0.9882352941176471" d="M 14.5 5 L 16 5.5 L 14.5 6 L 14.5 5 Z " /><path fill="rgb(228,193,134)" stroke="rgb(228,193,134)" stroke-width="1" opacity="0.9882352941176471" d="M 8.5 6 L 8.5 7 L 8.5 6 Z " /><path fill="rgb(228,193,134)" stroke="rgb(228,193,134)" stroke-width="1" opacity="0.9882352941176471" d="M 12.5 6 L 12.5 7 L 12.5 6 Z " /><path fill="rgb(228,193,134)" stroke="rgb(228,193,134)" stroke-width="1" opacity="0.9882352941176471" d="M 17.5 6 Q 20 7 18.5 8 Q 16 7 17.5 6 Z " /><path fill="rgb(228,193,134)" stroke="rgb(228,193,134)" stroke-width="1" opacity="0.9882352941176471" d="M 7.5 8 L 7.5 9 L 7.5 8 Z " /><path fill="rgb(228,193,134)" stroke="rgb(228,193,134)" stroke-width="1" opacity="0.9882352941176471" d="M 7.5 14 L 9 17.5 L 8 17.5 Q 6.29 15.96 7.5 14 Z " /><path fill="rgb(228,193,134)" stroke="rgb(228,193,134)" stroke-width="1" opacity="0.9882352941176471" d="M 40.5 19 L 44 19.5 L 40.5 20 L 40.5 19 Z " /><path fill="rgb(228,193,134)" stroke="rgb(228,193,134)" stroke-width="1" opacity="0.9882352941176471" d="M 25.5 35 Q 27.75 34.25 27 36.5 L 24.5 38 Q 22 37 23.5 36 L 25.5 35 Z " /><path fill="rgb(235,200,142)" stroke="rgb(235,200,142)" stroke-width="1" opacity="0.8" d="M 10.5 4 L 12 4.5 L 9.5 6 Q 8 5 10.5 4 Z " /><path fill="rgb(235,200,142)" stroke="rgb(235,200,142)" stroke-width="1" opacity="0.8" d="M 14.5 4 L 16 4.5 L 14.5 5 L 14.5 4 Z " /><path fill="rgb(235,200,142)" stroke="rgb(235,200,142)" stroke-width="1" opacity="0.8" d="M 11.5 7 L 12 7.5 L 9.5 10 L 9 9.5 L 11.5 7 Z " /><path fill="rgb(235,200,142)" stroke="rgb(235,200,142)" stroke-width="1" opacity="0.8" d="M 8.5 11 L 9 15.5 L 8 15.5 L 8.5 11 Z " /><path fill="rgb(235,200,142)" stroke="rgb(235,200,142)" stroke-width="1" opacity="0.8" d="M 9.5 18 L 9.5 19 L 9.5 18 Z " /><path fill="rgb(235,200,142)" stroke="rgb(235,200,142)" stroke-width="1" opacity="0.8" d="M 42.5 18 Q 47 17 48 19.5 L 46.5 19 L 42.5 19 L 42.5 18 Z " /><path fill="rgb(235,200,142)" stroke="rgb(235,200,142)" stroke-width="1" opacity="0.8" d="M 27.5 35 L 27.5 36 L 27.5 35 Z " /><path fill="rgb(235,200,142)" stroke="rgb(235,200,142)" stroke-width="1" opacity="0.8" d="M 29.5 36 L 29.5 37 L 29.5 36 Z " /><path fill="rgb(235,200,142)" stroke="rgb(235,200,142)" stroke-width="1" opacity="0.8" d="M 31.5 37 L 33 37.5 L 31.5 38 L 31.5 37 Z " /><path fill="rgb(235,200,142)" stroke="rgb(235,200,142)" stroke-width="1" opacity="0.8" d="M 37.5 37 L 37.5 38 L 37.5 37 Z " /><path fill="rgb(235,200,142)" stroke="rgb(235,200,142)" stroke-width="1" opacity="0.8" d="M 21.5 38 Q 23 39 20.5 40 Q 19 39 21.5 38 Z " /><path fill="rgb(235,200,142)" stroke="rgb(235,200,142)" stroke-width="1" opacity="0.8" d="M 32.5 42 L 34 42.5 L 32.5 43 L 32.5 42 Z " /><path fill="rgb(236,201,143)" stroke="rgb(236,201,143)" stroke-width="1" opacity="0.26666666666666666" d="M 10.5 3 Q 17.04 1.96 19 5.5 L 20 8.5 L 19 8.5 L 15.5 4 Q 9.75 2.75 8.5 6 L 8 5.5 L 10.5 3 Z " /><path fill="rgb(236,201,143)" stroke="rgb(236,201,143)" stroke-width="1" opacity="0.26666666666666666" d="M 11.5 8 L 12 8.5 L 10 10.5 L 9.5 17 L 9 10.5 L 11.5 8 Z " /><path fill="rgb(236,201,143)" stroke="rgb(236,201,143)" stroke-width="1" opacity="0.26666666666666666" d="M 42.5 17 L 47.5 17 L 48 18.5 L 46.5 18 L 42.5 18 L 42.5 17 Z " /><path fill="rgb(236,201,143)" stroke="rgb(236,201,143)" stroke-width="1" opacity="0.26666666666666666" d="M 26.5 33 Q 29.3 36.7 35.5 37 Q 36.42 35.25 39 36 Q 40 41.56 35.5 43 L 34 42.5 L 38 37.5 L 36.5 38 L 33.5 38 L 26 35 L 26.5 33 Z " /><path fill="rgb(236,201,143)" stroke="rgb(236,201,143)" stroke-width="1" opacity="0.26666666666666666" d="M 21.5 39 Q 23 40 20.5 41 Q 19 40 21.5 39 Z " /><path fill="rgb(153,117,52)" stroke="rgb(153,117,52)" stroke-width="1" opacity="0.9921568627450981" d="M 20 19 L 26 19.5 Q 25 23 19.5 22 L 20 20.5 L 20 19 Z " /><path fill="rgb(153,117,52)" stroke="rgb(153,117,52)" stroke-width="1" opacity="0.9921568627450981" d="M 25.5 24 L 25.5 25 L 25.5 24 Z " /><path fill="rgb(153,117,52)" stroke="rgb(153,117,52)" stroke-width="1" opacity="0.9921568627450981" d="M 13.5 26 L 17 28.5 L 15.5 29 L 13 26.5 L 13.5 26 Z " /><path fill="rgb(153,117,52)" stroke="rgb(153,117,52)" stroke-width="1" opacity="0.9921568627450981" d="M 16.5 30 Q 19 31 17.5 32 Q 15 31 16.5 30 Z " /><path fill="rgb(153,117,52)" stroke="rgb(153,117,52)" stroke-width="1" opacity="0.9921568627450981" d="M 5.5 34 L 7 38.5 L 5 40.5 L 5.5 42 L 1 36.5 L 2.5 37 L 5 35.5 L 5.5 34 Z " /><path fill="rgb(31,22,9)" stroke="rgb(31,22,9)" stroke-width="1" opacity="0.0392156862745098" d="M 7.5 20 L 7.5 21 L 7.5 20 Z " /><path fill="rgb(31,22,9)" stroke="rgb(31,22,9)" stroke-width="1" opacity="0.0392156862745098" d="M 0.5 29 L 0.5 30 L 0.5 29 Z " /><path fill="rgb(31,22,9)" stroke="rgb(31,22,9)" stroke-width="1" opacity="0.0392156862745098" d="M 24.5 29 L 24.5 30 L 24.5 29 Z " /><path fill="rgb(31,22,9)" stroke="rgb(31,22,9)" stroke-width="1" opacity="0.0392156862745098" d="M 15.5 31 L 15.5 32 L 15.5 31 Z " /><path fill="rgb(31,22,9)" stroke="rgb(31,22,9)" stroke-width="1" opacity="0.0392156862745098" d="M 23.5 39 L 23.5 40 L 23.5 39 Z " /><path fill="rgb(31,22,9)" stroke="rgb(31,22,9)" stroke-width="1" opacity="0.0392156862745098" d="M 5.5 43 L 5.5 44 L 5.5 43 Z " /><path fill="rgb(147,116,62)" stroke="rgb(147,116,62)" stroke-width="1" opacity="0.7294117647058823" d="M 15.5 6 L 15.5 7 L 15.5 6 Z " /><path fill="rgb(147,116,62)" stroke="rgb(147,116,62)" stroke-width="1" opacity="0.7294117647058823" d="M 17.5 8 L 17.5 9 L 17.5 8 Z " /><path fill="rgb(147,116,62)" stroke="rgb(147,116,62)" stroke-width="1" opacity="0.7294117647058823" d="M 17.5 11 L 17.5 12 L 17.5 11 Z " /><path fill="rgb(147,116,62)" stroke="rgb(147,116,62)" stroke-width="1" opacity="0.7294117647058823" d="M 6.5 14 L 7 15.5 L 6 15.5 L 6.5 14 Z " /><path fill="rgb(147,116,62)" stroke="rgb(147,116,62)" stroke-width="1" opacity="0.7294117647058823" d="M 21.5 18 L 30 18.5 L 21.5 19 L 21.5 18 Z " /><path fill="rgb(147,116,62)" stroke="rgb(147,116,62)" stroke-width="1" opacity="0.7294117647058823" d="M 8.5 20 L 8.5 21 L 8.5 20 Z " /><path fill="rgb(147,116,62)" stroke="rgb(147,116,62)" stroke-width="1" opacity="0.7294117647058823" d="M 19.5 20 L 19.5 21 L 19.5 20 Z " /><path fill="rgb(147,116,62)" stroke="rgb(147,116,62)" stroke-width="1" opacity="0.7294117647058823" d="M 29.5 20 L 34 20.5 L 29.5 21 L 28.5 22 Q 27 21 29.5 20 Z " /><path fill="rgb(147,116,62)" stroke="rgb(147,116,62)" stroke-width="1" opacity="0.7294117647058823" d="M 11.5 24 L 11.5 25 L 11.5 24 Z " /><path fill="rgb(147,116,62)" stroke="rgb(147,116,62)" stroke-width="1" opacity="0.7294117647058823" d="M 15.5 26 L 19 29.5 L 18.5 30 L 15 26.5 L 15.5 26 Z " /><path fill="rgb(147,116,62)" stroke="rgb(147,116,62)" stroke-width="1" opacity="0.7294117647058823" d="M 1.5 29 L 1.5 30 L 1.5 29 Z " /><path fill="rgb(147,116,62)" stroke="rgb(147,116,62)" stroke-width="1" opacity="0.7294117647058823" d="M 25.5 29 L 25.5 30 L 25.5 29 Z " /><path fill="rgb(147,116,62)" stroke="rgb(147,116,62)" stroke-width="1" opacity="0.7294117647058823" d="M 6.5 31 L 6.5 32 L 6.5 31 Z " /><path fill="rgb(147,116,62)" stroke="rgb(147,116,62)" stroke-width="1" opacity="0.7294117647058823" d="M 6.5 36 L 6.5 37 L 6.5 36 Z " /><path fill="rgb(147,116,62)" stroke="rgb(147,116,62)" stroke-width="1" opacity="0.7294117647058823" d="M 23.5 38 L 23.5 39 L 23.5 38 Z " /><path fill="rgb(147,116,62)" stroke="rgb(147,116,62)" stroke-width="1" opacity="0.7294117647058823" d="M 26.5 40 L 26.5 41 L 26.5 40 Z " /><path fill="rgb(147,116,62)" stroke="rgb(147,116,62)" stroke-width="1" opacity="0.7294117647058823" d="M 9.5 43 L 13 43.5 L 9.5 44 L 9.5 43 Z " /><path fill="rgb(17,10,3)" stroke="rgb(17,10,3)" stroke-width="1" opacity="0.03137254901960784" d="M 15.5 7 L 15.5 8 L 15.5 7 Z " /><path fill="rgb(17,10,3)" stroke="rgb(17,10,3)" stroke-width="1" opacity="0.03137254901960784" d="M 5.5 14 L 5.5 15 L 5.5 14 Z " /><path fill="rgb(17,10,3)" stroke="rgb(17,10,3)" stroke-width="1" opacity="0.03137254901960784" d="M 22.5 23 L 22.5 24 L 22.5 23 Z " /><path fill="rgb(17,10,3)" stroke="rgb(17,10,3)" stroke-width="1" opacity="0.03137254901960784" d="M 24.5 25 L 24.5 26 L 24.5 25 Z " /><path fill="rgb(17,10,3)" stroke="rgb(17,10,3)" stroke-width="1" opacity="0.03137254901960784" d="M 16.5 43 L 16.5 44 L 16.5 43 Z " /></svg>