<svg width="16" height="16" version="1.1" xmlns="http://www.w3.org/2000/svg" desc="Created with imagetracer.js version 1.2.6" ><path fill="rgb(146,63,54)" stroke="rgb(146,63,54)" stroke-width="1" opacity="0" d="M 2.5 0 Q 4 1 1.5 2 Q 0 1 2.5 0 Z " /><path fill="rgb(146,63,54)" stroke="rgb(146,63,54)" stroke-width="1" opacity="0" d="M 13.5 0 Q 16 1 14.5 2 Q 12 1 13.5 0 Z " /><path fill="rgb(146,63,54)" stroke="rgb(146,63,54)" stroke-width="1" opacity="0" d="M 1.5 14 Q 4 15 2.5 16 Q 0 15 1.5 14 Z " /><path fill="rgb(146,64,54)" stroke="rgb(146,64,54)" stroke-width="1" opacity="0" d="M 0.5 1 L 1 2.5 L 0 2.5 L 0.5 1 Z " /><path fill="rgb(146,64,54)" stroke="rgb(146,64,54)" stroke-width="1" opacity="0" d="M 15.5 1 L 16 2.5 L 15 2.5 L 15.5 1 Z " /><path fill="rgb(146,64,54)" stroke="rgb(146,64,54)" stroke-width="1" opacity="0" d="M 0.5 13 L 1 14.5 L 0 14.5 L 0.5 13 Z " /><path fill="rgb(146,64,54)" stroke="rgb(146,64,54)" stroke-width="1" opacity="0" d="M 15.5 13 L 16 14.5 L 15 14.5 L 15.5 13 Z " /><path fill="rgb(146,62,54)" stroke="rgb(146,62,54)" stroke-width="1" opacity="0.10196078431372549" d="M 2.5 1 Q 4 2 1.5 3 Q 0 2 2.5 1 Z " /><path fill="rgb(134,110,62)" stroke="rgb(134,110,62)" stroke-width="1" opacity="0.7411764705882353" d="M 3.5 2 Q 5 3 2.5 4 Q 1 3 3.5 2 Z " /><path fill="rgb(129,144,75)" stroke="rgb(129,144,75)" stroke-width="1" opacity="0.996078431372549" d="M 5.5 2 L 5.5 3 L 5.5 2 Z " /><path fill="rgb(129,144,75)" stroke="rgb(129,144,75)" stroke-width="1" opacity="0.996078431372549" d="M 8.5 3 L 8.5 4 L 8.5 3 Z " /><path fill="rgb(129,144,75)" stroke="rgb(129,144,75)" stroke-width="1" opacity="0.996078431372549" d="M 2.5 5 L 2.5 6 L 2.5 5 Z " /><path fill="rgb(122,136,67)" stroke="rgb(122,136,67)" stroke-width="1" opacity="1" d="M 7.5 2 L 10 2.5 L 7.5 3 L 7.5 2 Z " /><path fill="rgb(122,136,67)" stroke="rgb(122,136,67)" stroke-width="1" opacity="1" d="M 11.5 3 Q 14 4 12.5 5 Q 10 4 11.5 3 Z " /><path fill="rgb(122,136,67)" stroke="rgb(122,136,67)" stroke-width="1" opacity="1" d="M 2.5 7 L 3 8.5 L 2 8.5 L 2.5 7 Z " /><path fill="rgb(122,136,67)" stroke="rgb(122,136,67)" stroke-width="1" opacity="1" d="M 3.5 11 L 3.5 12 L 3.5 11 Z " /><path fill="rgb(120,133,64)" stroke="rgb(120,133,64)" stroke-width="1" opacity="1" d="M 5.5 3 L 7 3.5 L 3.5 6 L 3 5.5 L 5.5 3 Z " /><path fill="rgb(126,141,69)" stroke="rgb(126,141,69)" stroke-width="1" opacity="0.996078431372549" d="M 10.5 2 L 10.5 3 L 10.5 2 Z " /><path fill="rgb(126,141,69)" stroke="rgb(126,141,69)" stroke-width="1" opacity="0.996078431372549" d="M 4.5 3 L 4.5 4 L 4.5 3 Z " /><path fill="rgb(126,141,69)" stroke="rgb(126,141,69)" stroke-width="1" opacity="0.996078431372549" d="M 2.5 6 L 2.5 7 L 2.5 6 Z " /><path fill="rgb(126,141,69)" stroke="rgb(126,141,69)" stroke-width="1" opacity="0.996078431372549" d="M 2.5 10 L 2.5 11 L 2.5 10 Z " /><path fill="rgb(126,141,69)" stroke="rgb(126,141,69)" stroke-width="1" opacity="0.996078431372549" d="M 5.5 13 L 5.5 14 L 5.5 13 Z " /><path fill="rgb(115,126,88)" stroke="rgb(115,126,88)" stroke-width="1" opacity="1" d="M 5.5 10 L 5.5 11 L 5.5 10 Z " /><path fill="rgb(128,142,69)" stroke="rgb(128,142,69)" stroke-width="1" opacity="0.9098039215686274" d="M 4.5 2 L 5 2.5 L 2.5 5 L 2 4.5 L 4.5 2 Z " /><path fill="rgb(145,62,54)" stroke="rgb(145,62,54)" stroke-width="1" opacity="0.5882352941176471" d="M 5.5 0 L 5.5 1 L 5.5 0 Z " /><path fill="rgb(145,62,54)" stroke="rgb(145,62,54)" stroke-width="1" opacity="0.5882352941176471" d="M 10.5 0 L 10.5 1 L 10.5 0 Z " /><path fill="rgb(145,62,54)" stroke="rgb(145,62,54)" stroke-width="1" opacity="0.5882352941176471" d="M 2.5 2 L 2.5 3 L 2.5 2 Z " /><path fill="rgb(145,62,54)" stroke="rgb(145,62,54)" stroke-width="1" opacity="0.5882352941176471" d="M 13.5 2 L 13.5 3 L 13.5 2 Z " /><path fill="rgb(145,62,54)" stroke="rgb(145,62,54)" stroke-width="1" opacity="0.5882352941176471" d="M 0.5 5 L 0.5 6 L 0.5 5 Z " /><path fill="rgb(145,62,54)" stroke="rgb(145,62,54)" stroke-width="1" opacity="0.5882352941176471" d="M 15.5 5 L 15.5 6 L 15.5 5 Z " /><path fill="rgb(145,62,54)" stroke="rgb(145,62,54)" stroke-width="1" opacity="0.5882352941176471" d="M 0.5 10 L 0.5 11 L 0.5 10 Z " /><path fill="rgb(145,62,54)" stroke="rgb(145,62,54)" stroke-width="1" opacity="0.5882352941176471" d="M 15.5 10 L 15.5 11 L 15.5 10 Z " /><path fill="rgb(145,62,54)" stroke="rgb(145,62,54)" stroke-width="1" opacity="0.5882352941176471" d="M 2.5 13 L 2.5 14 L 2.5 13 Z " /><path fill="rgb(145,62,54)" stroke="rgb(145,62,54)" stroke-width="1" opacity="0.5882352941176471" d="M 13.5 13 L 13.5 14 L 13.5 13 Z " /><path fill="rgb(145,62,54)" stroke="rgb(145,62,54)" stroke-width="1" opacity="0.5882352941176471" d="M 5.5 15 L 5.5 16 L 5.5 15 Z " /><path fill="rgb(145,62,54)" stroke="rgb(145,62,54)" stroke-width="1" opacity="0.5882352941176471" d="M 10.5 15 L 10.5 16 L 10.5 15 Z " /><path fill="rgb(147,61,54)" stroke="rgb(147,61,54)" stroke-width="1" opacity="0.2901960784313726" d="M 4.5 0 L 4.5 1 L 4.5 0 Z " /><path fill="rgb(147,61,54)" stroke="rgb(147,61,54)" stroke-width="1" opacity="0.2901960784313726" d="M 0.5 4 L 0.5 5 L 0.5 4 Z " /><path fill="rgb(140,80,56)" stroke="rgb(140,80,56)" stroke-width="1" opacity="0.7019607843137254" d="M 4.5 1 L 4.5 2 L 4.5 1 Z " /><path fill="rgb(140,80,56)" stroke="rgb(140,80,56)" stroke-width="1" opacity="0.7019607843137254" d="M 11.5 1 L 11.5 2 L 11.5 1 Z " /><path fill="rgb(140,80,56)" stroke="rgb(140,80,56)" stroke-width="1" opacity="0.7019607843137254" d="M 1.5 4 L 1.5 5 L 1.5 4 Z " /><path fill="rgb(140,80,56)" stroke="rgb(140,80,56)" stroke-width="1" opacity="0.7019607843137254" d="M 1.5 11 L 1.5 12 L 1.5 11 Z " /><path fill="rgb(126,141,68)" stroke="rgb(126,141,68)" stroke-width="1" opacity="1" d="M 6.5 2 L 6.5 3 L 6.5 2 Z " /><path fill="rgb(126,141,68)" stroke="rgb(126,141,68)" stroke-width="1" opacity="1" d="M 3.5 4 L 3.5 5 L 3.5 4 Z " /><path fill="rgb(143,153,102)" stroke="rgb(143,153,102)" stroke-width="1" opacity="1" d="M 9.5 3 L 9.5 4 L 9.5 3 Z " /><path fill="rgb(143,153,102)" stroke="rgb(143,153,102)" stroke-width="1" opacity="1" d="M 5.5 4 L 6 5.5 L 5 5.5 L 5.5 4 Z " /><path fill="rgb(143,153,102)" stroke="rgb(143,153,102)" stroke-width="1" opacity="1" d="M 10.5 11 L 10.5 12 L 10.5 11 Z " /><path fill="rgb(178,184,155)" stroke="rgb(178,184,155)" stroke-width="1" opacity="1" d="M 7.5 4 L 7.5 5 L 7.5 4 Z " /><path fill="rgb(178,184,155)" stroke="rgb(178,184,155)" stroke-width="1" opacity="1" d="M 9.5 5 L 9.5 6 L 9.5 5 Z " /><path fill="rgb(178,184,155)" stroke="rgb(178,184,155)" stroke-width="1" opacity="1" d="M 6.5 8 L 6.5 9 L 6.5 8 Z " /><path fill="rgb(210,213,196)" stroke="rgb(210,213,196)" stroke-width="1" opacity="1" d="M 7.5 5 Q 9.5 5.5 9 8.5 L 8 8.5 L 7.5 5 Z " /><path fill="rgb(207,211,193)" stroke="rgb(207,211,193)" stroke-width="1" opacity="1" d="M 8.5 5 L 8.5 6 L 8.5 5 Z " /><path fill="rgb(108,116,86)" stroke="rgb(108,116,86)" stroke-width="1" opacity="1" d="M 10.5 10 L 10.5 11 L 10.5 10 Z " /><path fill="rgb(104,116,64)" stroke="rgb(104,116,64)" stroke-width="1" opacity="1" d="M 10.5 5 L 10.5 6 L 10.5 5 Z " /><path fill="rgb(104,116,64)" stroke="rgb(104,116,64)" stroke-width="1" opacity="1" d="M 12.5 5 L 12.5 6 L 12.5 5 Z " /><path fill="rgb(104,116,64)" stroke="rgb(104,116,64)" stroke-width="1" opacity="1" d="M 5.5 7 L 6 7.5 L 3.5 10 L 3 9.5 L 5.5 7 Z " /><path fill="rgb(128,111,62)" stroke="rgb(128,111,62)" stroke-width="1" opacity="0.7529411764705882" d="M 5.5 1 L 5.5 2 L 5.5 1 Z " /><path fill="rgb(128,111,62)" stroke="rgb(128,111,62)" stroke-width="1" opacity="0.7529411764705882" d="M 10.5 1 L 10.5 2 L 10.5 1 Z " /><path fill="rgb(128,111,62)" stroke="rgb(128,111,62)" stroke-width="1" opacity="0.7529411764705882" d="M 1.5 5 L 1.5 6 L 1.5 5 Z " /><path fill="rgb(128,111,62)" stroke="rgb(128,111,62)" stroke-width="1" opacity="0.7529411764705882" d="M 1.5 10 L 1.5 11 L 1.5 10 Z " /><path fill="rgb(143,68,54)" stroke="rgb(143,68,54)" stroke-width="1" opacity="0.7176470588235294" d="M 6.5 0 L 6.5 1 L 6.5 0 Z " /><path fill="rgb(143,68,54)" stroke="rgb(143,68,54)" stroke-width="1" opacity="0.7176470588235294" d="M 9.5 0 L 9.5 1 L 9.5 0 Z " /><path fill="rgb(143,68,54)" stroke="rgb(143,68,54)" stroke-width="1" opacity="0.7176470588235294" d="M 0.5 6 L 0.5 7 L 0.5 6 Z " /><path fill="rgb(143,68,54)" stroke="rgb(143,68,54)" stroke-width="1" opacity="0.7176470588235294" d="M 0.5 9 L 0.5 10 L 0.5 9 Z " /><path fill="rgb(128,133,66)" stroke="rgb(128,133,66)" stroke-width="1" opacity="0.8313725490196079" d="M 6.5 1 L 6.5 2 L 6.5 1 Z " /><path fill="rgb(128,133,66)" stroke="rgb(128,133,66)" stroke-width="1" opacity="0.8313725490196079" d="M 9.5 1 L 9.5 2 L 9.5 1 Z " /><path fill="rgb(128,133,66)" stroke="rgb(128,133,66)" stroke-width="1" opacity="0.8313725490196079" d="M 1.5 6 L 1.5 7 L 1.5 6 Z " /><path fill="rgb(128,133,66)" stroke="rgb(128,133,66)" stroke-width="1" opacity="0.8313725490196079" d="M 1.5 9 L 1.5 10 L 1.5 9 Z " /><path fill="rgb(114,127,66)" stroke="rgb(114,127,66)" stroke-width="1" opacity="1" d="M 10.5 3 L 10.5 4 L 10.5 3 Z " /><path fill="rgb(114,127,66)" stroke="rgb(114,127,66)" stroke-width="1" opacity="1" d="M 4.5 5 L 5 7 L 3 6.5 L 4.5 5 Z " /><path fill="rgb(114,127,66)" stroke="rgb(114,127,66)" stroke-width="1" opacity="1" d="M 13.5 9 L 13.5 10 L 13.5 9 Z " /><path fill="rgb(114,127,66)" stroke="rgb(114,127,66)" stroke-width="1" opacity="1" d="M 12.5 11 Q 14 12 11.5 13 Q 10 12 12.5 11 Z " /><path fill="rgb(114,127,66)" stroke="rgb(114,127,66)" stroke-width="1" opacity="1" d="M 9.5 13 L 9.5 14 L 9.5 13 Z " /><path fill="rgb(109,121,64)" stroke="rgb(109,121,64)" stroke-width="1" opacity="1" d="M 10.5 4 L 10.5 5 L 10.5 4 Z " /><path fill="rgb(109,121,64)" stroke="rgb(109,121,64)" stroke-width="1" opacity="1" d="M 5.5 6 Q 7 7 4.5 8 L 3 7.5 L 5.5 6 Z " /><path fill="rgb(109,121,64)" stroke="rgb(109,121,64)" stroke-width="1" opacity="1" d="M 13.5 7 L 14 8.5 L 13 8.5 L 13.5 7 Z " /><path fill="rgb(109,121,64)" stroke="rgb(109,121,64)" stroke-width="1" opacity="1" d="M 7.5 13 L 7.5 14 L 7.5 13 Z " /><path fill="rgb(106,118,64)" stroke="rgb(106,118,64)" stroke-width="1" opacity="1" d="M 11.5 4 L 11.5 5 L 11.5 4 Z " /><path fill="rgb(106,118,64)" stroke="rgb(106,118,64)" stroke-width="1" opacity="1" d="M 3.5 8 L 3.5 9 L 3.5 8 Z " /><path fill="rgb(106,118,64)" stroke="rgb(106,118,64)" stroke-width="1" opacity="1" d="M 3.5 10 L 3.5 11 L 3.5 10 Z " /><path fill="rgb(106,118,64)" stroke="rgb(106,118,64)" stroke-width="1" opacity="1" d="M 8.5 13 L 8.5 14 L 8.5 13 Z " /><path fill="rgb(205,209,194)" stroke="rgb(205,209,194)" stroke-width="1" opacity="1" d="M 7.5 7 L 7.5 8 L 7.5 7 Z " /><path fill="rgb(205,209,194)" stroke="rgb(205,209,194)" stroke-width="1" opacity="1" d="M 6.5 11 L 6.5 12 L 6.5 11 Z " /><path fill="rgb(221,223,213)" stroke="rgb(221,223,213)" stroke-width="1" opacity="1" d="M 8.5 4 L 8.5 5 L 8.5 4 Z " /><path fill="rgb(221,223,213)" stroke="rgb(221,223,213)" stroke-width="1" opacity="1" d="M 9.5 10 L 9.5 11 L 9.5 10 Z " /><path fill="rgb(93,105,61)" stroke="rgb(93,105,61)" stroke-width="1" opacity="1" d="M 11.5 7 L 11.5 8 L 11.5 7 Z " /><path fill="rgb(93,105,61)" stroke="rgb(93,105,61)" stroke-width="1" opacity="1" d="M 4.5 10 L 5 11.5 L 4 11.5 L 4.5 10 Z " /><path fill="rgb(89,102,62)" stroke="rgb(89,102,62)" stroke-width="1" opacity="1" d="M 12.5 7 Q 14 8 11.5 9 L 10 8.5 L 12.5 7 Z " /><path fill="rgb(126,138,68)" stroke="rgb(126,138,68)" stroke-width="1" opacity="0.8823529411764706" d="M 7.5 1 L 9 1.5 L 7.5 2 L 7.5 1 Z " /><path fill="rgb(126,138,68)" stroke="rgb(126,138,68)" stroke-width="1" opacity="0.8823529411764706" d="M 11.5 2 L 11.5 3 L 11.5 2 Z " /><path fill="rgb(126,138,68)" stroke="rgb(126,138,68)" stroke-width="1" opacity="0.8823529411764706" d="M 1.5 7 L 2 8.5 L 1 8.5 L 1.5 7 Z " /><path fill="rgb(126,138,68)" stroke="rgb(126,138,68)" stroke-width="1" opacity="0.8823529411764706" d="M 2.5 11 L 2.5 12 L 2.5 11 Z " /><path fill="rgb(126,138,68)" stroke="rgb(126,138,68)" stroke-width="1" opacity="0.8823529411764706" d="M 4.5 13 L 4.5 14 L 4.5 13 Z " /><path fill="rgb(138,71,54)" stroke="rgb(138,71,54)" stroke-width="1" opacity="0.7568627450980392" d="M 7.5 0 L 9 0.5 L 7.5 1 L 7.5 0 Z " /><path fill="rgb(138,71,54)" stroke="rgb(138,71,54)" stroke-width="1" opacity="0.7568627450980392" d="M 0.5 7 L 1 8.5 L 0 8.5 L 0.5 7 Z " /><path fill="rgb(138,71,54)" stroke="rgb(138,71,54)" stroke-width="1" opacity="0.7568627450980392" d="M 15.5 7 L 16 8.5 L 15 8.5 L 15.5 7 Z " /><path fill="rgb(138,71,54)" stroke="rgb(138,71,54)" stroke-width="1" opacity="0.7568627450980392" d="M 7.5 15 L 9 15.5 L 7.5 16 L 7.5 15 Z " /><path fill="rgb(140,65,54)" stroke="rgb(140,65,54)" stroke-width="1" opacity="0.7137254901960784" d="M 15.5 6 L 15.5 7 L 15.5 6 Z " /><path fill="rgb(140,65,54)" stroke="rgb(140,65,54)" stroke-width="1" opacity="0.7137254901960784" d="M 15.5 9 L 15.5 10 L 15.5 9 Z " /><path fill="rgb(140,65,54)" stroke="rgb(140,65,54)" stroke-width="1" opacity="0.7137254901960784" d="M 6.5 15 L 6.5 16 L 6.5 15 Z " /><path fill="rgb(140,65,54)" stroke="rgb(140,65,54)" stroke-width="1" opacity="0.7137254901960784" d="M 9.5 15 L 9.5 16 L 9.5 15 Z " /><path fill="rgb(118,123,65)" stroke="rgb(118,123,65)" stroke-width="1" opacity="0.8313725490196079" d="M 14.5 6 L 14.5 7 L 14.5 6 Z " /><path fill="rgb(118,123,65)" stroke="rgb(118,123,65)" stroke-width="1" opacity="0.8313725490196079" d="M 14.5 9 L 14.5 10 L 14.5 9 Z " /><path fill="rgb(118,123,65)" stroke="rgb(118,123,65)" stroke-width="1" opacity="0.8313725490196079" d="M 6.5 14 L 6.5 15 L 6.5 14 Z " /><path fill="rgb(118,123,65)" stroke="rgb(118,123,65)" stroke-width="1" opacity="0.8313725490196079" d="M 9.5 14 L 9.5 15 L 9.5 14 Z " /><path fill="rgb(101,113,64)" stroke="rgb(101,113,64)" stroke-width="1" opacity="1" d="M 11.5 5 Q 13 6 10.5 7 Q 9 6 11.5 5 Z " /><path fill="rgb(101,113,64)" stroke="rgb(101,113,64)" stroke-width="1" opacity="1" d="M 5.5 8 Q 7 9 4.5 10 Q 3 9 5.5 8 Z " /><path fill="rgb(97,109,62)" stroke="rgb(97,109,62)" stroke-width="1" opacity="1" d="M 11.5 6 L 13 6.5 L 10.5 8 Q 9 7 11.5 6 Z " /><path fill="rgb(97,109,62)" stroke="rgb(97,109,62)" stroke-width="1" opacity="1" d="M 5.5 9 L 5.5 10 L 5.5 9 Z " /><path fill="rgb(97,109,62)" stroke="rgb(97,109,62)" stroke-width="1" opacity="1" d="M 5.5 12 L 5.5 13 L 5.5 12 Z " /><path fill="rgb(207,211,196)" stroke="rgb(207,211,196)" stroke-width="1" opacity="1" d="M 7.5 9 L 7.5 10 L 7.5 9 Z " /><path fill="rgb(251,251,250)" stroke="rgb(251,251,250)" stroke-width="1" opacity="1" d="M 7.5 6 L 7.5 7 L 7.5 6 Z " /><path fill="rgb(251,251,250)" stroke="rgb(251,251,250)" stroke-width="1" opacity="1" d="M 8.5 9 L 9 11 L 7 10.5 L 8.5 9 Z " /><path fill="rgb(86,97,60)" stroke="rgb(86,97,60)" stroke-width="1" opacity="1" d="M 12.5 8 Q 14 9 11.5 10 L 10 9.5 L 12.5 8 Z " /><path fill="rgb(86,97,60)" stroke="rgb(86,97,60)" stroke-width="1" opacity="1" d="M 6.5 12 L 6.5 13 L 6.5 12 Z " /><path fill="rgb(83,93,61)" stroke="rgb(83,93,61)" stroke-width="1" opacity="1" d="M 12.5 9 L 12.5 10 L 12.5 9 Z " /><path fill="rgb(83,93,61)" stroke="rgb(83,93,61)" stroke-width="1" opacity="1" d="M 7.5 12 L 7.5 13 L 7.5 12 Z " /><path fill="rgb(90,100,61)" stroke="rgb(90,100,61)" stroke-width="1" opacity="1" d="M 12.5 10 L 12.5 11 L 12.5 10 Z " /><path fill="rgb(117,99,60)" stroke="rgb(117,99,60)" stroke-width="1" opacity="0.7490196078431373" d="M 14.5 10 L 14.5 11 L 14.5 10 Z " /><path fill="rgb(147,62,54)" stroke="rgb(147,62,54)" stroke-width="1" opacity="0.2901960784313726" d="M 11.5 0 L 11.5 1 L 11.5 0 Z " /><path fill="rgb(147,62,54)" stroke="rgb(147,62,54)" stroke-width="1" opacity="0.2901960784313726" d="M 15.5 4 L 15.5 5 L 15.5 4 Z " /><path fill="rgb(147,62,54)" stroke="rgb(147,62,54)" stroke-width="1" opacity="0.2901960784313726" d="M 0.5 11 L 0.5 12 L 0.5 11 Z " /><path fill="rgb(147,62,54)" stroke="rgb(147,62,54)" stroke-width="1" opacity="0.2901960784313726" d="M 15.5 11 L 15.5 12 L 15.5 11 Z " /><path fill="rgb(147,62,54)" stroke="rgb(147,62,54)" stroke-width="1" opacity="0.2901960784313726" d="M 4.5 15 L 4.5 16 L 4.5 15 Z " /><path fill="rgb(147,62,54)" stroke="rgb(147,62,54)" stroke-width="1" opacity="0.2901960784313726" d="M 11.5 15 L 11.5 16 L 11.5 15 Z " /><path fill="rgb(133,73,55)" stroke="rgb(133,73,55)" stroke-width="1" opacity="0.6980392156862745" d="M 14.5 4 L 14.5 5 L 14.5 4 Z " /><path fill="rgb(133,73,55)" stroke="rgb(133,73,55)" stroke-width="1" opacity="0.6980392156862745" d="M 14.5 11 L 14.5 12 L 14.5 11 Z " /><path fill="rgb(133,73,55)" stroke="rgb(133,73,55)" stroke-width="1" opacity="0.6980392156862745" d="M 4.5 14 L 4.5 15 L 4.5 14 Z " /><path fill="rgb(133,73,55)" stroke="rgb(133,73,55)" stroke-width="1" opacity="0.6980392156862745" d="M 11.5 14 L 11.5 15 L 11.5 14 Z " /><path fill="rgb(118,132,67)" stroke="rgb(118,132,67)" stroke-width="1" opacity="1" d="M 7.5 3 L 7.5 4 L 7.5 3 Z " /><path fill="rgb(118,132,67)" stroke="rgb(118,132,67)" stroke-width="1" opacity="1" d="M 13.5 6 L 13.5 7 L 13.5 6 Z " /><path fill="rgb(118,132,67)" stroke="rgb(118,132,67)" stroke-width="1" opacity="1" d="M 4.5 12 L 4.5 13 L 4.5 12 Z " /><path fill="rgb(118,132,67)" stroke="rgb(118,132,67)" stroke-width="1" opacity="1" d="M 6.5 13 L 6.5 14 L 6.5 13 Z " /><path fill="rgb(147,155,125)" stroke="rgb(147,155,125)" stroke-width="1" opacity="1" d="M 6.5 4 L 6.5 5 L 6.5 4 Z " /><path fill="rgb(147,155,125)" stroke="rgb(147,155,125)" stroke-width="1" opacity="1" d="M 7.5 8 Q 9 9 6.5 10 Q 5 9 7.5 8 Z " /><path fill="rgb(147,155,125)" stroke="rgb(147,155,125)" stroke-width="1" opacity="1" d="M 5.5 11 L 5.5 12 L 5.5 11 Z " /><path fill="rgb(200,203,193)" stroke="rgb(200,203,193)" stroke-width="1" opacity="1" d="M 7.5 11 L 10 11.5 L 7.5 12 L 7.5 11 Z " /><path fill="rgb(193,198,178)" stroke="rgb(193,198,178)" stroke-width="1" opacity="1" d="M 9.5 4 L 9.5 5 L 9.5 4 Z " /><path fill="rgb(193,198,178)" stroke="rgb(193,198,178)" stroke-width="1" opacity="1" d="M 6.5 5 L 7 7.5 L 6 7.5 L 6.5 5 Z " /><path fill="rgb(193,198,178)" stroke="rgb(193,198,178)" stroke-width="1" opacity="1" d="M 9.5 6 L 10 9.5 L 9 9.5 L 9.5 6 Z " /><path fill="rgb(193,198,178)" stroke="rgb(193,198,178)" stroke-width="1" opacity="1" d="M 6.5 10 L 6.5 11 L 6.5 10 Z " /><path fill="rgb(79,88,59)" stroke="rgb(79,88,59)" stroke-width="1" opacity="1" d="M 11.5 10 L 12 11.5 L 11 11.5 L 11.5 10 Z " /><path fill="rgb(79,88,59)" stroke="rgb(79,88,59)" stroke-width="1" opacity="1" d="M 8.5 12 L 10 12.5 L 8.5 13 L 8.5 12 Z " /><path fill="rgb(88,98,61)" stroke="rgb(88,98,61)" stroke-width="1" opacity="1" d="M 10.5 12 L 10.5 13 L 10.5 12 Z " /><path fill="rgb(122,138,68)" stroke="rgb(122,138,68)" stroke-width="1" opacity="0.9372549019607843" d="M 12.5 3 L 12.5 4 L 12.5 3 Z " /><path fill="rgb(122,138,68)" stroke="rgb(122,138,68)" stroke-width="1" opacity="0.9372549019607843" d="M 3.5 12 L 3.5 13 L 3.5 12 Z " /><path fill="rgb(122,138,68)" stroke="rgb(122,138,68)" stroke-width="1" opacity="0.9372549019607843" d="M 12.5 12 L 12.5 13 L 12.5 12 Z " /><path fill="rgb(146,63,54)" stroke="rgb(146,63,54)" stroke-width="1" opacity="0.5176470588235295" d="M 3.5 1 L 3.5 2 L 3.5 1 Z " /><path fill="rgb(146,63,54)" stroke="rgb(146,63,54)" stroke-width="1" opacity="0.5176470588235295" d="M 12.5 1 L 12.5 2 L 12.5 1 Z " /><path fill="rgb(146,63,54)" stroke="rgb(146,63,54)" stroke-width="1" opacity="0.5176470588235295" d="M 1.5 3 L 1.5 4 L 1.5 3 Z " /><path fill="rgb(146,63,54)" stroke="rgb(146,63,54)" stroke-width="1" opacity="0.5176470588235295" d="M 14.5 3 L 14.5 4 L 14.5 3 Z " /><path fill="rgb(146,63,54)" stroke="rgb(146,63,54)" stroke-width="1" opacity="0.5176470588235295" d="M 1.5 12 L 1.5 13 L 1.5 12 Z " /><path fill="rgb(146,63,54)" stroke="rgb(146,63,54)" stroke-width="1" opacity="0.5176470588235295" d="M 14.5 12 L 14.5 13 L 14.5 12 Z " /><path fill="rgb(146,63,54)" stroke="rgb(146,63,54)" stroke-width="1" opacity="0.5176470588235295" d="M 3.5 14 L 3.5 15 L 3.5 14 Z " /><path fill="rgb(146,63,54)" stroke="rgb(146,63,54)" stroke-width="1" opacity="0.5176470588235295" d="M 12.5 14 L 12.5 15 L 12.5 14 Z " /><path fill="rgb(146,63,54)" stroke="rgb(146,63,54)" stroke-width="1" opacity="0.027450980392156862" d="M 3.5 0 L 3.5 1 L 3.5 0 Z " /><path fill="rgb(146,63,54)" stroke="rgb(146,63,54)" stroke-width="1" opacity="0.027450980392156862" d="M 12.5 0 L 12.5 1 L 12.5 0 Z " /><path fill="rgb(146,63,54)" stroke="rgb(146,63,54)" stroke-width="1" opacity="0.027450980392156862" d="M 0.5 3 L 0.5 4 L 0.5 3 Z " /><path fill="rgb(146,63,54)" stroke="rgb(146,63,54)" stroke-width="1" opacity="0.027450980392156862" d="M 15.5 3 L 15.5 4 L 15.5 3 Z " /><path fill="rgb(146,63,54)" stroke="rgb(146,63,54)" stroke-width="1" opacity="0.027450980392156862" d="M 0.5 12 L 0.5 13 L 0.5 12 Z " /><path fill="rgb(146,63,54)" stroke="rgb(146,63,54)" stroke-width="1" opacity="0.027450980392156862" d="M 15.5 12 L 15.5 13 L 15.5 12 Z " /><path fill="rgb(146,63,54)" stroke="rgb(146,63,54)" stroke-width="1" opacity="0.027450980392156862" d="M 3.5 15 L 3.5 16 L 3.5 15 Z " /><path fill="rgb(146,63,54)" stroke="rgb(146,63,54)" stroke-width="1" opacity="0.027450980392156862" d="M 12.5 15 L 12.5 16 L 12.5 15 Z " /><path fill="rgb(147,63,54)" stroke="rgb(147,63,54)" stroke-width="1" opacity="0.10196078431372549" d="M 13.5 1 Q 16 2 14.5 3 Q 12 2 13.5 1 Z " /><path fill="rgb(147,63,54)" stroke="rgb(147,63,54)" stroke-width="1" opacity="0.10196078431372549" d="M 1.5 13 Q 4 14 2.5 15 Q 0 14 1.5 13 Z " /><path fill="rgb(147,63,54)" stroke="rgb(147,63,54)" stroke-width="1" opacity="0.10196078431372549" d="M 14.5 13 Q 16 14 13.5 15 Q 12 14 14.5 13 Z " /><path fill="rgb(124,91,58)" stroke="rgb(124,91,58)" stroke-width="1" opacity="0.7254901960784313" d="M 12.5 2 Q 15 3 13.5 4 Q 11 3 12.5 2 Z " /><path fill="rgb(124,91,58)" stroke="rgb(124,91,58)" stroke-width="1" opacity="0.7254901960784313" d="M 2.5 12 Q 5 13 3.5 14 Q 1 13 2.5 12 Z " /><path fill="rgb(124,91,58)" stroke="rgb(124,91,58)" stroke-width="1" opacity="0.7254901960784313" d="M 13.5 12 Q 15 13 12.5 14 Q 11 13 13.5 12 Z " /><path fill="rgb(123,139,69)" stroke="rgb(123,139,69)" stroke-width="1" opacity="0.996078431372549" d="M 13.5 5 L 13.5 6 L 13.5 5 Z " /><path fill="rgb(123,139,69)" stroke="rgb(123,139,69)" stroke-width="1" opacity="0.996078431372549" d="M 2.5 9 L 2.5 10 L 2.5 9 Z " /><path fill="rgb(123,139,69)" stroke="rgb(123,139,69)" stroke-width="1" opacity="0.996078431372549" d="M 13.5 10 L 13.5 11 L 13.5 10 Z " /><path fill="rgb(123,139,69)" stroke="rgb(123,139,69)" stroke-width="1" opacity="0.996078431372549" d="M 10.5 13 L 10.5 14 L 10.5 13 Z " /><path fill="rgb(121,103,61)" stroke="rgb(121,103,61)" stroke-width="1" opacity="0.7529411764705882" d="M 14.5 5 L 14.5 6 L 14.5 5 Z " /><path fill="rgb(121,103,61)" stroke="rgb(121,103,61)" stroke-width="1" opacity="0.7529411764705882" d="M 5.5 14 L 5.5 15 L 5.5 14 Z " /><path fill="rgb(120,132,67)" stroke="rgb(120,132,67)" stroke-width="1" opacity="0.8784313725490196" d="M 13.5 4 L 13.5 5 L 13.5 4 Z " /><path fill="rgb(120,132,67)" stroke="rgb(120,132,67)" stroke-width="1" opacity="0.8784313725490196" d="M 14.5 7 L 15 8.5 L 14 8.5 L 14.5 7 Z " /><path fill="rgb(120,132,67)" stroke="rgb(120,132,67)" stroke-width="1" opacity="0.8784313725490196" d="M 7.5 14 L 9 14.5 L 7.5 15 L 7.5 14 Z " /><path fill="rgb(117,130,66)" stroke="rgb(117,130,66)" stroke-width="1" opacity="0.8862745098039215" d="M 13.5 11 L 13.5 12 L 13.5 11 Z " /><path fill="rgb(117,130,66)" stroke="rgb(117,130,66)" stroke-width="1" opacity="0.8862745098039215" d="M 11.5 13 L 11.5 14 L 11.5 13 Z " /><path fill="rgb(116,99,60)" stroke="rgb(116,99,60)" stroke-width="1" opacity="0.7529411764705882" d="M 10.5 14 L 10.5 15 L 10.5 14 Z " /><path fill="rgb(147,64,54)" stroke="rgb(147,64,54)" stroke-width="1" opacity="0" d="M 14.5 14 Q 16 15 13.5 16 Q 12 15 14.5 14 Z " /><path fill="rgb(0,0,0)" stroke="rgb(0,0,0)" stroke-width="1" opacity="0" d="M 0.5 0 L 2 0.5 L 0.5 1 L 0.5 0 Z " /><path fill="rgb(0,0,0)" stroke="rgb(0,0,0)" stroke-width="1" opacity="0" d="M 14.5 0 L 16 0.5 L 14.5 1 L 14.5 0 Z " /><path fill="rgb(0,0,0)" stroke="rgb(0,0,0)" stroke-width="1" opacity="0" d="M 0.5 15 L 2 15.5 L 0.5 16 L 0.5 15 Z " /><path fill="rgb(0,0,0)" stroke="rgb(0,0,0)" stroke-width="1" opacity="0" d="M 14.5 15 L 16 15.5 L 14.5 16 L 14.5 15 Z " /></svg>