<svg width="32" height="32" version="1.1" xmlns="http://www.w3.org/2000/svg" desc="Created with imagetracer.js version 1.2.6" ><path fill="rgb(6,62,119)" stroke="rgb(6,62,119)" stroke-width="1" opacity="0.011764705882352941" d="M 11.5 2 L 13 2.5 L 11.5 3 L 11.5 2 Z " /><path fill="rgb(6,62,119)" stroke="rgb(6,62,119)" stroke-width="1" opacity="0.011764705882352941" d="M 19.5 4 L 20 11.5 L 19 11.5 L 19.5 4 Z " /><path fill="rgb(6,62,119)" stroke="rgb(6,62,119)" stroke-width="1" opacity="0.011764705882352941" d="M 26.5 4 L 26.5 5 L 26.5 4 Z " /><path fill="rgb(6,62,119)" stroke="rgb(6,62,119)" stroke-width="1" opacity="0.011764705882352941" d="M 22.5 11 L 22.5 12 L 22.5 11 Z " /><path fill="rgb(6,62,119)" stroke="rgb(6,62,119)" stroke-width="1" opacity="0.011764705882352941" d="M 25.5 14 L 25.5 15 L 25.5 14 Z " /><path fill="rgb(6,62,119)" stroke="rgb(6,62,119)" stroke-width="1" opacity="0.011764705882352941" d="M 21.5 15 L 21.5 16 L 21.5 15 Z " /><path fill="rgb(6,62,119)" stroke="rgb(6,62,119)" stroke-width="1" opacity="0.011764705882352941" d="M 19.5 16 L 20 29 L 23 29.5 L 20.5 30 L 19 28.5 L 19.5 16 Z " /><path fill="rgb(6,62,119)" stroke="rgb(6,62,119)" stroke-width="1" opacity="0.011764705882352941" d="M 11.5 17 L 11.5 18 L 11.5 17 Z " /><path fill="rgb(6,62,119)" stroke="rgb(6,62,119)" stroke-width="1" opacity="0.011764705882352941" d="M 9.5 22 L 9.5 23 L 9.5 22 Z " /><path fill="rgb(6,62,119)" stroke="rgb(6,62,119)" stroke-width="1" opacity="0.011764705882352941" d="M 12.5 29 L 12 30.5 L 11.5 32 L 11 30.5 L 12.5 29 Z " /><path fill="rgb(6,62,119)" stroke="rgb(6,62,119)" stroke-width="1" opacity="0.027450980392156862" d="M 19.5 3 L 26 3.5 L 19.5 4 L 19.5 3 Z " /><path fill="rgb(6,62,119)" stroke="rgb(6,62,119)" stroke-width="1" opacity="0.027450980392156862" d="M 19.5 12 L 19.5 13 L 19.5 12 Z " /><path fill="rgb(6,62,119)" stroke="rgb(6,62,119)" stroke-width="1" opacity="0.027450980392156862" d="M 10.5 18 L 10.5 19 L 10.5 18 Z " /><path fill="rgb(6,62,119)" stroke="rgb(6,62,119)" stroke-width="1" opacity="0.027450980392156862" d="M 10.5 21 L 10.5 22 L 10.5 21 Z " /><path fill="rgb(6,62,119)" stroke="rgb(6,62,119)" stroke-width="1" opacity="0.7098039215686275" d="M 12.5 1 L 12.5 2 L 12.5 1 Z " /><path fill="rgb(6,62,119)" stroke="rgb(6,62,119)" stroke-width="1" opacity="0.7098039215686275" d="M 19.5 2 L 26 2.5 L 19 3 L 18.5 13 L 18 3.5 L 19.5 2 Z " /><path fill="rgb(6,62,119)" stroke="rgb(6,62,119)" stroke-width="1" opacity="0.7098039215686275" d="M 27.5 4 L 27.5 5 L 27.5 4 Z " /><path fill="rgb(6,62,119)" stroke="rgb(6,62,119)" stroke-width="1" opacity="0.7098039215686275" d="M 22.5 12 L 22.5 13 L 22.5 12 Z " /><path fill="rgb(6,62,119)" stroke="rgb(6,62,119)" stroke-width="1" opacity="0.7098039215686275" d="M 18.5 15 L 18.5 16 L 18.5 15 Z " /><path fill="rgb(6,62,119)" stroke="rgb(6,62,119)" stroke-width="1" opacity="0.7098039215686275" d="M 14.5 16 L 15 18 Q 12.5 17.5 11.5 20 L 11 19.5 L 14.5 16 Z " /><path fill="rgb(6,62,119)" stroke="rgb(6,62,119)" stroke-width="1" opacity="0.7098039215686275" d="M 17.5 17 L 19 18.5 L 19 30 L 22 30.5 L 19.5 31 L 18 29.5 L 18 18.5 L 17.5 17 Z " /><path fill="rgb(0,0,0)" stroke="rgb(0,0,0)" stroke-width="1" opacity="0" d="M 0 0 L 10.5 0 Q 11.38 0.04 11 3 L 14 3 L 14 15.5 L 2 26.5 Q 1.25 28.75 3.5 28 L 13.5 19 L 14 29.5 L 12.5 29 L 11 30.5 L 10.5 32 L 0 32 L 0 0 Z " /><path fill="rgb(0,0,0)" stroke="rgb(0,0,0)" stroke-width="1" opacity="0" d="M 29 0 Q 31.96 -0.38 32 0.5 L 32 32 L 23.5 32 Q 22.63 31.96 23 29 L 20 29 L 20 16 L 26 15 L 27 11 L 22.5 11 L 20 12 L 20 4 L 25.5 4 L 27 7 L 29 6.5 L 29 0 Z " /><path fill="rgb(6,62,119)" stroke="rgb(6,62,119)" stroke-width="1" opacity="0.26666666666666666" d="M 28.5 0 L 28.5 1 L 28.5 0 Z " /><path fill="rgb(6,62,119)" stroke="rgb(6,62,119)" stroke-width="1" opacity="0.26666666666666666" d="M 24.5 11 L 24.5 12 L 24.5 11 Z " /><path fill="rgb(6,62,119)" stroke="rgb(6,62,119)" stroke-width="1" opacity="0.26666666666666666" d="M 26.5 11 L 26.5 12 L 26.5 11 Z " /><path fill="rgb(6,62,119)" stroke="rgb(6,62,119)" stroke-width="1" opacity="0.26666666666666666" d="M 25.5 13 L 25.5 14 L 25.5 13 Z " /><path fill="rgb(6,62,119)" stroke="rgb(6,62,119)" stroke-width="1" opacity="0.26666666666666666" d="M 23.5 14 L 23.5 15 L 23.5 14 Z " /><path fill="rgb(6,62,119)" stroke="rgb(6,62,119)" stroke-width="1" opacity="0.26666666666666666" d="M 19.5 15 L 19.5 16 L 19.5 15 Z " /><path fill="rgb(6,62,119)" stroke="rgb(6,62,119)" stroke-width="1" opacity="0.26666666666666666" d="M 17.5 16 Q 19 17 16.5 18 L 15 17.5 L 17.5 16 Z " /><path fill="rgb(6,62,119)" stroke="rgb(6,62,119)" stroke-width="1" opacity="0.26666666666666666" d="M 12.5 17 L 12.5 18 L 12.5 17 Z " /><path fill="rgb(6,62,119)" stroke="rgb(6,62,119)" stroke-width="1" opacity="0.26666666666666666" d="M 12.5 19 L 12.5 20 L 12.5 19 Z " /><path fill="rgb(6,62,119)" stroke="rgb(6,62,119)" stroke-width="1" opacity="0.26666666666666666" d="M 8.5 22 L 8.5 23 L 8.5 22 Z " /><path fill="rgb(6,62,119)" stroke="rgb(6,62,119)" stroke-width="1" opacity="0.26666666666666666" d="M 3.5 26 L 3.5 27 L 3.5 26 Z " /><path fill="rgb(6,62,119)" stroke="rgb(6,62,119)" stroke-width="1" opacity="0.26666666666666666" d="M 14.5 29 L 14.5 30 L 14.5 29 Z " /><path fill="rgb(6,62,119)" stroke="rgb(6,62,119)" stroke-width="1" opacity="0.26666666666666666" d="M 22.5 30 L 22.5 31 L 22.5 30 Z " /><path fill="rgb(6,62,119)" stroke="rgb(6,62,119)" stroke-width="1" opacity="0.26666666666666666" d="M 12.5 31 L 12.5 32 L 12.5 31 Z " /><path fill="rgb(6,62,119)" stroke="rgb(6,62,119)" stroke-width="1" opacity="0.16470588235294117" d="M 11.5 0 L 12 1.5 L 11 1.5 L 11.5 0 Z " /><path fill="rgb(6,62,119)" stroke="rgb(6,62,119)" stroke-width="1" opacity="0.16470588235294117" d="M 14.5 3 L 15 15.5 L 14 15.5 L 14.5 3 Z " /><path fill="rgb(6,62,119)" stroke="rgb(6,62,119)" stroke-width="1" opacity="0.16470588235294117" d="M 26.5 3 L 26.5 4 L 26.5 3 Z " /><path fill="rgb(6,62,119)" stroke="rgb(6,62,119)" stroke-width="1" opacity="0.16470588235294117" d="M 26.5 12 L 26.5 13 L 26.5 12 Z " /><path fill="rgb(6,62,119)" stroke="rgb(6,62,119)" stroke-width="1" opacity="0.16470588235294117" d="M 18.5 16 L 18.5 17 L 18.5 16 Z " /><path fill="rgb(6,62,119)" stroke="rgb(6,62,119)" stroke-width="1" opacity="0.16470588235294117" d="M 7.5 21 L 7 22.5 L 8 23.5 L 6.5 25 L 5 23.5 L 7.5 21 Z M 7 23 L 7 24 L 7 23 Z " /><path fill="rgb(6,62,119)" stroke="rgb(6,62,119)" stroke-width="1" opacity="0.16470588235294117" d="M 14.5 24 L 15 28.5 L 14 28.5 L 14.5 24 Z " /><path fill="rgb(6,62,119)" stroke="rgb(6,62,119)" stroke-width="1" opacity="0.16470588235294117" d="M 22.5 31 L 22.5 32 L 22.5 31 Z " /><path fill="rgb(6,62,119)" stroke="rgb(6,62,119)" stroke-width="1" opacity="0.9098039215686274" d="M 13.5 1 L 13.5 2 L 13.5 1 Z " /><path fill="rgb(6,62,119)" stroke="rgb(6,62,119)" stroke-width="1" opacity="0.9098039215686274" d="M 18.5 2 L 18.5 3 L 18.5 2 Z " /><path fill="rgb(6,62,119)" stroke="rgb(6,62,119)" stroke-width="1" opacity="0.9098039215686274" d="M 26.5 2 Q 29 3 27.5 4 Q 25 3 26.5 2 Z " /><path fill="rgb(6,62,119)" stroke="rgb(6,62,119)" stroke-width="1" opacity="0.9098039215686274" d="M 15.5 3 L 16 16.5 L 15 16.5 L 15.5 3 Z " /><path fill="rgb(6,62,119)" stroke="rgb(6,62,119)" stroke-width="1" opacity="0.9098039215686274" d="M 23.5 12 L 24.5 13 L 26 12.5 L 24.5 14 Q 22 13 23.5 12 Z " /><path fill="rgb(6,62,119)" stroke="rgb(6,62,119)" stroke-width="1" opacity="0.9098039215686274" d="M 18.5 13 L 18.5 14 L 18.5 13 Z " /><path fill="rgb(6,62,119)" stroke="rgb(6,62,119)" stroke-width="1" opacity="0.9098039215686274" d="M 20.5 13 L 21 14.5 L 20 14.5 L 20.5 13 Z " /><path fill="rgb(6,62,119)" stroke="rgb(6,62,119)" stroke-width="1" opacity="0.9098039215686274" d="M 17.5 15 L 17.5 16 L 17.5 15 Z " /><path fill="rgb(6,62,119)" stroke="rgb(6,62,119)" stroke-width="1" opacity="0.9098039215686274" d="M 15.5 19 L 16 28.5 L 15 28.5 L 15.5 19 Z " /><path fill="rgb(6,62,119)" stroke="rgb(6,62,119)" stroke-width="1" opacity="0.9098039215686274" d="M 14.5 30 L 14.5 31 L 14.5 30 Z " /><path fill="rgb(6,62,119)" stroke="rgb(6,62,119)" stroke-width="1" opacity="0.996078431372549" d="M 14.5 1 Q 17 2 15.5 3 Q 13 2 14.5 1 Z " /><path fill="rgb(6,62,119)" stroke="rgb(6,62,119)" stroke-width="1" opacity="0.996078431372549" d="M 24.5 12 Q 26 13 23.5 14 L 21 13.5 L 24.5 12 Z " /><path fill="rgb(6,62,119)" stroke="rgb(6,62,119)" stroke-width="1" opacity="0.996078431372549" d="M 19.5 14 L 19.5 15 L 19.5 14 Z " /><path fill="rgb(6,62,119)" stroke="rgb(6,62,119)" stroke-width="1" opacity="0.996078431372549" d="M 16.5 18 L 16.5 19 L 16.5 18 Z " /><path fill="rgb(6,62,119)" stroke="rgb(6,62,119)" stroke-width="1" opacity="0.996078431372549" d="M 15.5 29 L 19 30.5 L 15 31 L 15.5 29 Z " /><path fill="rgb(6,62,119)" stroke="rgb(6,62,119)" stroke-width="1" opacity="1" d="M 15.5 1 L 27.5 1 L 28 2.5 L 26.5 2 L 18 2 L 18 13.5 L 18.5 15 L 16.5 16 L 16 2.5 L 15.5 1 Z " /><path fill="rgb(6,62,119)" stroke="rgb(6,62,119)" stroke-width="1" opacity="1" d="M 17.5 18 L 18 30 L 16 29.5 L 16 19.5 L 17.5 18 Z " /><path fill="rgb(6,62,119)" stroke="rgb(6,62,119)" stroke-width="1" opacity="0.4666666666666667" d="M 12.5 0 L 28 0.5 L 12.5 1 L 12.5 0 Z " /><path fill="rgb(6,62,119)" stroke="rgb(6,62,119)" stroke-width="1" opacity="0.4666666666666667" d="M 27.5 5 L 27.5 6 L 27.5 5 Z " /><path fill="rgb(6,62,119)" stroke="rgb(6,62,119)" stroke-width="1" opacity="0.4666666666666667" d="M 25.5 11 L 25.5 12 L 25.5 11 Z " /><path fill="rgb(6,62,119)" stroke="rgb(6,62,119)" stroke-width="1" opacity="0.4666666666666667" d="M 21.5 12 L 21.5 13 L 21.5 12 Z " /><path fill="rgb(6,62,119)" stroke="rgb(6,62,119)" stroke-width="1" opacity="0.4666666666666667" d="M 22.5 14 L 22.5 15 L 22.5 14 Z " /><path fill="rgb(6,62,119)" stroke="rgb(6,62,119)" stroke-width="1" opacity="0.4666666666666667" d="M 11.5 18 L 11 19.5 L 9.5 22 L 10 20.5 L 11.5 18 Z " /><path fill="rgb(6,62,119)" stroke="rgb(6,62,119)" stroke-width="1" opacity="0.4666666666666667" d="M 13.5 18 L 13.5 19 L 13.5 18 Z " /><path fill="rgb(6,62,119)" stroke="rgb(6,62,119)" stroke-width="1" opacity="0.4666666666666667" d="M 5.5 24 Q 7 25 4.5 26 Q 3 25 5.5 24 Z " /><path fill="rgb(6,62,119)" stroke="rgb(6,62,119)" stroke-width="1" opacity="0.4666666666666667" d="M 12.5 30 L 13.5 31 L 22 31.5 L 13.5 32 Q 11 31 12.5 30 Z " /><path fill="rgb(6,62,119)" stroke="rgb(6,62,119)" stroke-width="1" opacity="0.11764705882352941" d="M 13.5 2 L 13.5 3 L 13.5 2 Z " /><path fill="rgb(6,62,119)" stroke="rgb(6,62,119)" stroke-width="1" opacity="0.11764705882352941" d="M 23.5 11 L 23.5 12 L 23.5 11 Z " /><path fill="rgb(6,62,119)" stroke="rgb(6,62,119)" stroke-width="1" opacity="0.11764705882352941" d="M 8.5 20 L 8.5 21 L 8.5 20 Z " /><path fill="rgb(6,62,119)" stroke="rgb(6,62,119)" stroke-width="1" opacity="0.11764705882352941" d="M 3.5 25 Q 6.5 26.5 3.5 28 L 3.5 25 Z " /><path fill="rgb(6,62,119)" stroke="rgb(6,62,119)" stroke-width="1" opacity="0.11764705882352941" d="M 19.5 29 L 19.5 30 L 19.5 29 Z " /><path fill="rgb(6,62,119)" stroke="rgb(6,62,119)" stroke-width="1" opacity="0.13333333333333333" d="M 20.5 12 L 20.5 13 L 20.5 12 Z " /><path fill="rgb(6,62,119)" stroke="rgb(6,62,119)" stroke-width="1" opacity="0.13333333333333333" d="M 24.5 14 L 24.5 15 L 24.5 14 Z " /><path fill="rgb(6,62,119)" stroke="rgb(6,62,119)" stroke-width="1" opacity="0.13333333333333333" d="M 13.5 16 L 13.5 17 L 13.5 16 Z " /><path fill="rgb(6,62,119)" stroke="rgb(6,62,119)" stroke-width="1" opacity="0.13333333333333333" d="M 14.5 18 L 15 20.5 L 14 20.5 L 14.5 18 Z " /><path fill="rgb(6,62,119)" stroke="rgb(6,62,119)" stroke-width="1" opacity="0.13333333333333333" d="M 5.5 25 L 5.5 26 L 5.5 25 Z " /><path fill="rgb(6,62,119)" stroke="rgb(6,62,119)" stroke-width="1" opacity="0.13333333333333333" d="M 2.5 27 L 2.5 28 L 2.5 27 Z " /><path fill="rgb(6,62,119)" stroke="rgb(6,62,119)" stroke-width="1" opacity="0.14901960784313725" d="M 14.5 21 L 15 23.5 L 14 23.5 L 14.5 21 Z " /><path fill="rgb(6,62,119)" stroke="rgb(6,62,119)" stroke-width="1" opacity="0.14901960784313725" d="M 4.5 24 L 4.5 25 L 4.5 24 Z " /><path fill="rgb(6,62,119)" stroke="rgb(6,62,119)" stroke-width="1" opacity="0.615686274509804" d="M 28.5 1 L 29 5.5 L 28 5.5 L 28.5 1 Z " /><path fill="rgb(6,62,119)" stroke="rgb(6,62,119)" stroke-width="1" opacity="0.615686274509804" d="M 14.5 2 L 14.5 3 L 14.5 2 Z " /><path fill="rgb(6,62,119)" stroke="rgb(6,62,119)" stroke-width="1" opacity="0.615686274509804" d="M 19.5 13 L 19.5 14 L 19.5 13 Z " /><path fill="rgb(6,62,119)" stroke="rgb(6,62,119)" stroke-width="1" opacity="0.615686274509804" d="M 21.5 14 L 21.5 15 L 21.5 14 Z " /><path fill="rgb(6,62,119)" stroke="rgb(6,62,119)" stroke-width="1" opacity="0.615686274509804" d="M 16.5 16 L 16.5 17 L 16.5 16 Z " /><path fill="rgb(6,62,119)" stroke="rgb(6,62,119)" stroke-width="1" opacity="0.615686274509804" d="M 18.5 17 L 18.5 18 L 18.5 17 Z " /><path fill="rgb(6,62,119)" stroke="rgb(6,62,119)" stroke-width="1" opacity="0.615686274509804" d="M 15.5 18 L 15.5 19 L 15.5 18 Z " /><path fill="rgb(6,62,119)" stroke="rgb(6,62,119)" stroke-width="1" opacity="0.615686274509804" d="M 9.5 20 L 10 20.5 L 6.5 24 L 6 23.5 L 9.5 20 Z " /><path fill="rgb(6,62,119)" stroke="rgb(6,62,119)" stroke-width="1" opacity="0.615686274509804" d="M 13.5 30 L 13.5 31 L 13.5 30 Z " /><path fill="rgb(6,62,119)" stroke="rgb(6,62,119)" stroke-width="1" opacity="0.0784313725490196" d="M 27.5 6 L 29 6.5 L 27.5 7 L 27.5 6 Z " /><path fill="rgb(6,62,119)" stroke="rgb(6,62,119)" stroke-width="1" opacity="0.0784313725490196" d="M 20.5 15 L 20.5 16 L 20.5 15 Z " /><path fill="rgb(6,62,119)" stroke="rgb(6,62,119)" stroke-width="1" opacity="0.0784313725490196" d="M 9.5 19 L 9.5 20 L 9.5 19 Z " /><path fill="rgb(6,62,119)" stroke="rgb(6,62,119)" stroke-width="1" opacity="0.0784313725490196" d="M 11.5 20 L 11.5 21 L 11.5 20 Z " /><path fill="rgb(6,62,119)" stroke="rgb(6,62,119)" stroke-width="1" opacity="0.0784313725490196" d="M 2.5 26 L 2.5 27 L 2.5 26 Z " /></svg>