<svg width="48" height="48" version="1.1" xmlns="http://www.w3.org/2000/svg" desc="Created with imagetracer.js version 1.2.6" ><path fill="rgb(0,0,0)" stroke="rgb(0,0,0)" stroke-width="1" opacity="0" d="M 0 0 L 48 0 L 48 28.5 L 47.5 29 L 24.5 6 L 0.5 29 L 0 0 Z " /><path fill="rgb(0,0,0)" stroke="rgb(0,0,0)" stroke-width="1" opacity="0" d="M 0.5 31 L 12.5 42 L 20.5 34 L 21 34.5 L 21 39.5 L 20 42 L 25.5 42 L 26 40.5 Q 23.75 39.25 26.5 38 Q 29.13 38.83 28 35.5 L 28.5 35 L 35.5 42 L 47.5 31 L 48 48 L 0 48 L 0.5 31 Z " /><path fill="rgb(0,0,0)" stroke="rgb(0,0,0)" stroke-width="1" opacity="0" d="M 23.5 31 L 26 32.5 L 22.5 33 Q 21 32 23.5 31 Z " /><path fill="rgb(155,49,33)" stroke="rgb(155,49,33)" stroke-width="1" opacity="0.984313725490196" d="M 23.5 8 L 34 17.5 L 33.5 18 L 24.5 9 L 15 17.5 L 23.5 27 L 32.5 19 L 33 19.5 L 24.5 28 L 14 18.5 L 23.5 8 Z " /><path fill="rgb(155,49,33)" stroke="rgb(155,49,33)" stroke-width="1" opacity="0.984313725490196" d="M 26.5 35 L 26.5 36 L 26.5 35 Z " /><path fill="rgb(155,49,33)" stroke="rgb(155,49,33)" stroke-width="1" opacity="1" d="M 23.5 9 L 34 18.5 L 23.5 27 L 15 17.5 L 23.5 9 Z M 22 13 L 20 15 Q 18 20 22 22 L 27 21 L 28 20 Q 29 14 27 13 L 25 14 L 22 13 Z " /><path fill="rgb(188,117,106)" stroke="rgb(188,117,106)" stroke-width="1" opacity="0.9882352941176471" d="M 21.5 14 L 23 16.5 Q 22 18 21 15.5 L 21.5 14 Z " /><path fill="rgb(188,117,106)" stroke="rgb(188,117,106)" stroke-width="1" opacity="0.9882352941176471" d="M 25 14 Q 28 13 27 16 L 25 16.5 L 25.5 18 Q 22.75 16.75 25 15.5 L 25 14 Z " /><path fill="rgb(188,117,106)" stroke="rgb(188,117,106)" stroke-width="1" opacity="0.9882352941176471" d="M 21.5 19 Q 24 20 22.5 21 Q 20 20 21.5 19 Z " /><path fill="rgb(188,117,106)" stroke="rgb(188,117,106)" stroke-width="1" opacity="0.9882352941176471" d="M 24.5 19 L 24.5 20 L 24.5 19 Z " /><path fill="rgb(188,117,106)" stroke="rgb(188,117,106)" stroke-width="1" opacity="0.9882352941176471" d="M 26.5 19 L 26.5 20 L 26.5 19 Z " /><path fill="rgb(170,80,67)" stroke="rgb(170,80,67)" stroke-width="1" opacity="0.9882352941176471" d="M 23.5 14 L 23.5 15 L 23.5 14 Z " /><path fill="rgb(170,80,67)" stroke="rgb(170,80,67)" stroke-width="1" opacity="0.9882352941176471" d="M 21.5 16 L 24 18.5 L 22.5 20 Q 20 19 21.5 16 Z " /><path fill="rgb(170,80,67)" stroke="rgb(170,80,67)" stroke-width="1" opacity="0.9882352941176471" d="M 25.5 16 Q 28.13 15.17 27 18.5 L 26 18.5 L 25.5 16 Z " /><path fill="rgb(170,80,67)" stroke="rgb(170,80,67)" stroke-width="1" opacity="0.9882352941176471" d="M 26.5 20 L 26.5 21 L 26.5 20 Z " /><path fill="rgb(155,49,33)" stroke="rgb(155,49,33)" stroke-width="1" opacity="0.8117647058823529" d="M 22 34 L 24 34.5 L 24 41 L 22 40.5 L 22 34 Z " /><path fill="rgb(155,49,33)" stroke="rgb(155,49,33)" stroke-width="1" opacity="0.8117647058823529" d="M 25.5 34 L 25.5 35 L 25.5 34 Z " /><path fill="rgb(155,49,33)" stroke="rgb(155,49,33)" stroke-width="1" opacity="0.8117647058823529" d="M 25.5 36 L 27 36.5 L 25.5 37 L 25.5 36 Z " /><path fill="rgb(159,58,43)" stroke="rgb(159,58,43)" stroke-width="1" opacity="0.996078431372549" d="M 21.5 13 Q 23 14 20.5 15 Q 19 14 21.5 13 Z " /><path fill="rgb(159,58,43)" stroke="rgb(159,58,43)" stroke-width="1" opacity="0.996078431372549" d="M 25.5 13 L 28 14.5 L 26.5 14 Q 24.25 13.25 25 15.5 L 24 15.5 L 25.5 13 Z " /><path fill="rgb(159,58,43)" stroke="rgb(159,58,43)" stroke-width="1" opacity="0.996078431372549" d="M 20.5 20 L 22.5 21 L 24.5 20 L 24.5 21 L 21.5 22 Q 19 21 20.5 20 Z " /><path fill="rgb(153,47,30)" stroke="rgb(153,47,30)" stroke-width="1" opacity="1" d="M 20.5 15 L 21 19.5 L 20 19.5 L 20.5 15 Z " /><path fill="rgb(153,47,30)" stroke="rgb(153,47,30)" stroke-width="1" opacity="1" d="M 27.5 15 L 28 19.5 L 27 19.5 L 27.5 15 Z " /><path fill="rgb(153,47,30)" stroke="rgb(153,47,30)" stroke-width="1" opacity="1" d="M 23.5 19 L 23.5 20 L 23.5 19 Z " /><path fill="rgb(71,71,98)" stroke="rgb(71,71,98)" stroke-width="1" opacity="0.10196078431372549" d="M 35.5 18 L 35.5 19 L 35.5 18 Z " /><path fill="rgb(71,71,98)" stroke="rgb(71,71,98)" stroke-width="1" opacity="0.10196078431372549" d="M 23.5 29 L 25 29.5 L 23.5 30 L 23.5 29 Z " /><path fill="rgb(71,71,98)" stroke="rgb(71,71,98)" stroke-width="1" opacity="0.10196078431372549" d="M 20.5 33 L 20.5 34 L 20.5 33 Z " /><path fill="rgb(24,84,135)" stroke="rgb(24,84,135)" stroke-width="1" opacity="0.9568627450980393" d="M 2.5 30 L 12 39.5 L 11.5 40 L 2 30.5 L 2.5 30 Z " /><path fill="rgb(24,84,135)" stroke="rgb(24,84,135)" stroke-width="1" opacity="0.9568627450980393" d="M 45.5 30 L 46 30.5 L 36.5 40 L 36 39.5 L 45.5 30 Z " /><path fill="rgb(24,84,135)" stroke="rgb(24,84,135)" stroke-width="1" opacity="0.9568627450980393" d="M 19.5 32 L 19.5 33 L 19.5 32 Z " /><path fill="rgb(24,84,135)" stroke="rgb(24,84,135)" stroke-width="1" opacity="0.9568627450980393" d="M 17.5 34 L 17.5 35 L 17.5 34 Z " /><path fill="rgb(24,84,135)" stroke="rgb(24,84,135)" stroke-width="1" opacity="0.9568627450980393" d="M 14.5 37 L 14.5 38 L 14.5 37 Z " /><path fill="rgb(21,82,133)" stroke="rgb(21,82,133)" stroke-width="1" opacity="1" d="M 9.5 24 L 14 24.5 L 9.5 25 L 9.5 24 Z " /><path fill="rgb(21,82,133)" stroke="rgb(21,82,133)" stroke-width="1" opacity="1" d="M 33.5 24 L 37 24.5 L 33.5 25 L 33.5 24 Z " /><path fill="rgb(21,82,133)" stroke="rgb(21,82,133)" stroke-width="1" opacity="1" d="M 15.5 25 L 15.5 26 L 15.5 25 Z " /><path fill="rgb(21,82,133)" stroke="rgb(21,82,133)" stroke-width="1" opacity="1" d="M 39.5 26 L 40 28.5 L 39 28.5 L 39.5 26 Z " /><path fill="rgb(21,82,133)" stroke="rgb(21,82,133)" stroke-width="1" opacity="1" d="M 32.5 27 L 33 30.5 L 32 30.5 L 32.5 27 Z " /><path fill="rgb(21,82,133)" stroke="rgb(21,82,133)" stroke-width="1" opacity="1" d="M 36.5 30 L 36.5 31 L 36.5 30 Z " /><path fill="rgb(21,82,133)" stroke="rgb(21,82,133)" stroke-width="1" opacity="1" d="M 9.5 33 L 13 33.5 L 9.5 34 L 9.5 33 Z " /><path fill="rgb(21,82,133)" stroke="rgb(21,82,133)" stroke-width="1" opacity="1" d="M 33.5 33 L 38 33.5 L 33.5 34 L 33.5 33 Z " /><path fill="rgb(221,226,232)" stroke="rgb(221,226,232)" stroke-width="1" opacity="0.996078431372549" d="M 22.5 15 L 26 19.5 Q 25 21 24 18.5 L 22 15.5 L 22.5 15 Z " /><path fill="rgb(221,226,232)" stroke="rgb(221,226,232)" stroke-width="1" opacity="0.996078431372549" d="M 10.5 26 L 12 26.5 L 10.5 27 L 10.5 26 Z " /><path fill="rgb(221,226,232)" stroke="rgb(221,226,232)" stroke-width="1" opacity="0.996078431372549" d="M 34.5 26 L 35 31.5 L 34 31.5 L 34.5 26 Z " /><path fill="rgb(221,226,232)" stroke="rgb(221,226,232)" stroke-width="1" opacity="0.996078431372549" d="M 37.5 27 L 39 30.5 Q 38 33 37 31.5 Q 39 30.5 37 29.5 L 37.5 27 Z " /><path fill="rgb(221,226,232)" stroke="rgb(221,226,232)" stroke-width="1" opacity="0.996078431372549" d="M 11.5 28 L 11.5 29 L 11.5 28 Z " /><path fill="rgb(221,226,232)" stroke="rgb(221,226,232)" stroke-width="1" opacity="0.996078431372549" d="M 10.5 31 L 12 31.5 L 10.5 32 L 10.5 31 Z " /><path fill="rgb(24,84,135)" stroke="rgb(24,84,135)" stroke-width="1" opacity="0.9882352941176471" d="M 36.5 20 L 46 29.5 L 45.5 30 L 36 20.5 L 36.5 20 Z " /><path fill="rgb(24,84,135)" stroke="rgb(24,84,135)" stroke-width="1" opacity="0.9882352941176471" d="M 21.5 30 Q 23 31 20.5 32 Q 19 31 21.5 30 Z " /><path fill="rgb(24,84,135)" stroke="rgb(24,84,135)" stroke-width="1" opacity="0.9882352941176471" d="M 26.5 30 L 36 39.5 L 35.5 40 L 26 30.5 L 26.5 30 Z " /><path fill="rgb(24,84,135)" stroke="rgb(24,84,135)" stroke-width="1" opacity="0.9882352941176471" d="M 18.5 33 L 18.5 34 L 18.5 33 Z " /><path fill="rgb(24,84,135)" stroke="rgb(24,84,135)" stroke-width="1" opacity="0.9882352941176471" d="M 16.5 35 Q 18 36 15.5 37 Q 14 36 16.5 35 Z " /><path fill="rgb(24,84,135)" stroke="rgb(24,84,135)" stroke-width="1" opacity="0.9882352941176471" d="M 13.5 38 Q 15 39 12.5 40 Q 11 39 13.5 38 Z " /><path fill="rgb(24,84,135)" stroke="rgb(24,84,135)" stroke-width="1" opacity="1" d="M 11.5 20 L 22 29.5 L 11.5 39 L 2 29.5 L 11.5 20 Z M 9 24 Q 8 27 10 28 Q 11 31 9 32 L 9 34 L 13 34 Q 14 31 12 31 L 14 31 L 16 26 Q 14 23 9 24 Z " /><path fill="rgb(24,84,135)" stroke="rgb(24,84,135)" stroke-width="1" opacity="1" d="M 35.5 20 L 45 30.5 L 35.5 39 L 26 29.5 L 35.5 20 Z M 33 24 L 32 27 L 32 31 Q 34 32 32 33 L 34 34 L 38 34 L 40 26 Q 37 27 37 24 L 33 24 Z " /><path fill="rgb(24,84,135)" stroke="rgb(24,84,135)" stroke-width="1" opacity="1" d="M 12.5 27 L 12.5 28 L 12.5 27 Z " /><path fill="rgb(24,84,135)" stroke="rgb(24,84,135)" stroke-width="1" opacity="1" d="M 36.5 27 L 36.5 28 L 36.5 27 Z " /><path fill="rgb(187,184,193)" stroke="rgb(187,184,193)" stroke-width="1" opacity="0.9921568627450981" d="M 22.5 14 Q 25 15 23.5 16 Q 21 15 22.5 14 Z " /><path fill="rgb(187,184,193)" stroke="rgb(187,184,193)" stroke-width="1" opacity="0.9921568627450981" d="M 23.5 17 L 23.5 18 L 23.5 17 Z " /><path fill="rgb(187,184,193)" stroke="rgb(187,184,193)" stroke-width="1" opacity="0.9921568627450981" d="M 25.5 18 L 25.5 19 L 25.5 18 Z " /><path fill="rgb(187,184,193)" stroke="rgb(187,184,193)" stroke-width="1" opacity="0.9921568627450981" d="M 21.5 20 L 21.5 21 L 21.5 20 Z " /><path fill="rgb(187,184,193)" stroke="rgb(187,184,193)" stroke-width="1" opacity="0.9921568627450981" d="M 25.5 20 L 25.5 21 L 25.5 20 Z " /><path fill="rgb(187,184,193)" stroke="rgb(187,184,193)" stroke-width="1" opacity="0.9921568627450981" d="M 33.5 26 L 33.5 27 L 33.5 26 Z " /><path fill="rgb(187,184,193)" stroke="rgb(187,184,193)" stroke-width="1" opacity="0.9921568627450981" d="M 37.5 26 Q 40 27 38.5 28 Q 36 27 37.5 26 Z " /><path fill="rgb(187,184,193)" stroke="rgb(187,184,193)" stroke-width="1" opacity="0.9921568627450981" d="M 10 27 L 12 27.5 Q 10 28.5 12 29.5 Q 12.67 32.13 10 31 L 10 27 Z " /><path fill="rgb(187,184,193)" stroke="rgb(187,184,193)" stroke-width="1" opacity="0.9921568627450981" d="M 37.5 30 Q 40 31 38.5 32 Q 36 31 37.5 30 Z " /><path fill="rgb(187,184,193)" stroke="rgb(187,184,193)" stroke-width="1" opacity="0.9921568627450981" d="M 33.5 31 L 33.5 32 L 33.5 31 Z " /><path fill="rgb(60,74,107)" stroke="rgb(60,74,107)" stroke-width="1" opacity="0.2235294117647059" d="M 12.5 18 L 23 28.5 L 22.5 29 L 12 18.5 L 12.5 18 Z " /><path fill="rgb(68,72,100)" stroke="rgb(68,72,100)" stroke-width="1" opacity="0.19215686274509805" d="M 34.5 19 L 35 19.5 L 25.5 29 L 25 28.5 L 34.5 19 Z " /><path fill="rgb(118,153,184)" stroke="rgb(118,153,184)" stroke-width="1" opacity="1" d="M 13.5 25 Q 16 26 14.5 27 Q 11.71 27.67 13.5 25 Z " /><path fill="rgb(118,153,184)" stroke="rgb(118,153,184)" stroke-width="1" opacity="1" d="M 35.5 26 L 35.5 27 L 35.5 26 Z " /><path fill="rgb(118,153,184)" stroke="rgb(118,153,184)" stroke-width="1" opacity="1" d="M 33.5 27 L 34 30.5 L 33 30.5 L 33.5 27 Z " /><path fill="rgb(118,153,184)" stroke="rgb(118,153,184)" stroke-width="1" opacity="1" d="M 12.5 28 Q 14.75 27.25 14 29.5 L 13.5 30 Q 11 29 12.5 28 Z " /><path fill="rgb(118,153,184)" stroke="rgb(118,153,184)" stroke-width="1" opacity="1" d="M 35.5 28 L 37 28.5 L 35.5 29 L 35.5 28 Z " /><path fill="rgb(118,153,184)" stroke="rgb(118,153,184)" stroke-width="1" opacity="1" d="M 38.5 29 L 38.5 30 L 38.5 29 Z " /><path fill="rgb(118,153,184)" stroke="rgb(118,153,184)" stroke-width="1" opacity="1" d="M 10.5 32 L 12 32.5 L 10.5 33 L 10.5 32 Z " /><path fill="rgb(118,153,184)" stroke="rgb(118,153,184)" stroke-width="1" opacity="1" d="M 33.5 32 L 36 32.5 L 33.5 33 L 33.5 32 Z " /><path fill="rgb(17,85,140)" stroke="rgb(17,85,140)" stroke-width="1" opacity="0.043137254901960784" d="M 11.5 18 L 11.5 19 L 11.5 18 Z " /><path fill="rgb(17,85,140)" stroke="rgb(17,85,140)" stroke-width="1" opacity="0.043137254901960784" d="M 36.5 18 L 36.5 19 L 36.5 18 Z " /><path fill="rgb(17,85,140)" stroke="rgb(17,85,140)" stroke-width="1" opacity="0.043137254901960784" d="M 21.5 32 L 21.5 33 L 21.5 32 Z " /><path fill="rgb(17,85,140)" stroke="rgb(17,85,140)" stroke-width="1" opacity="0.043137254901960784" d="M 27.5 33 Q 30 34 28.5 35 Q 26 34 27.5 33 Z " /><path fill="rgb(23,84,135)" stroke="rgb(23,84,135)" stroke-width="1" opacity="0.2235294117647059" d="M 1.5 30 L 12 40.5 L 11.5 41 L 1 30.5 L 1.5 30 Z " /><path fill="rgb(58,109,152)" stroke="rgb(58,109,152)" stroke-width="1" opacity="1" d="M 9.5 25 L 10 26.5 L 9 26.5 L 9.5 25 Z " /><path fill="rgb(58,109,152)" stroke="rgb(58,109,152)" stroke-width="1" opacity="1" d="M 14.5 25 L 14.5 26 L 14.5 25 Z " /><path fill="rgb(58,109,152)" stroke="rgb(58,109,152)" stroke-width="1" opacity="1" d="M 33.5 25 L 38 25.5 L 33.5 26 L 32.5 27 Q 31 26 33.5 25 Z " /><path fill="rgb(58,109,152)" stroke="rgb(58,109,152)" stroke-width="1" opacity="1" d="M 13.5 27 L 13.5 28 L 13.5 27 Z " /><path fill="rgb(58,109,152)" stroke="rgb(58,109,152)" stroke-width="1" opacity="1" d="M 35.5 27 L 35.5 28 L 35.5 27 Z " /><path fill="rgb(58,109,152)" stroke="rgb(58,109,152)" stroke-width="1" opacity="1" d="M 12.5 29 Q 15.25 30.25 13 31.5 L 12.5 33 L 12 31.5 L 13 30.5 L 12.5 29 Z " /><path fill="rgb(58,109,152)" stroke="rgb(58,109,152)" stroke-width="1" opacity="1" d="M 35.5 30 Q 38 31 36.5 32 Q 34 31 35.5 30 Z " /><path fill="rgb(58,109,152)" stroke="rgb(58,109,152)" stroke-width="1" opacity="1" d="M 9.5 31 L 10 32.5 L 9 32.5 L 9.5 31 Z " /><path fill="rgb(58,109,152)" stroke="rgb(58,109,152)" stroke-width="1" opacity="1" d="M 32.5 32 L 32.5 33 L 32.5 32 Z " /><path fill="rgb(85,129,167)" stroke="rgb(85,129,167)" stroke-width="1" opacity="1" d="M 10.5 25 Q 13.83 23.88 13 26.5 L 11.5 26 Q 9.12 25.87 10.5 25 Z " /><path fill="rgb(85,129,167)" stroke="rgb(85,129,167)" stroke-width="1" opacity="1" d="M 36.5 26 L 36.5 27 L 36.5 26 Z " /><path fill="rgb(85,129,167)" stroke="rgb(85,129,167)" stroke-width="1" opacity="1" d="M 38.5 26 L 38.5 27 L 38.5 26 Z " /><path fill="rgb(85,129,167)" stroke="rgb(85,129,167)" stroke-width="1" opacity="1" d="M 14.5 27 L 14.5 28 L 14.5 27 Z " /><path fill="rgb(85,129,167)" stroke="rgb(85,129,167)" stroke-width="1" opacity="1" d="M 38.5 28 L 38.5 29 L 38.5 28 Z " /><path fill="rgb(85,129,167)" stroke="rgb(85,129,167)" stroke-width="1" opacity="1" d="M 35.5 29 L 37 29.5 L 35.5 30 L 35.5 29 Z " /><path fill="rgb(85,129,167)" stroke="rgb(85,129,167)" stroke-width="1" opacity="1" d="M 35.5 31 L 38 32.5 L 36.5 33 Q 34 32 35.5 31 Z " /><path fill="rgb(155,48,32)" stroke="rgb(155,48,32)" stroke-width="1" opacity="0.0784313725490196" d="M 23.5 6 L 36 17.5 L 35.5 18 L 24.5 7 L 12.5 18 L 12 17.5 L 23.5 6 Z " /><path fill="rgb(155,48,32)" stroke="rgb(155,48,32)" stroke-width="1" opacity="0.0784313725490196" d="M 21 33 L 26.5 33 L 28 34.5 Q 29.5 38.88 26.5 38 Q 23.75 39.25 26 40.5 L 25.5 42 L 20 42 Q 21.88 39.17 21 33 Z M 22 34 L 22 41 L 24 41 L 24 38 L 26 38 Q 28 37 27 34 Q 24 33 25 37 L 24 37 Q 25 33 22 34 Z " /><path fill="rgb(156,48,32)" stroke="rgb(156,48,32)" stroke-width="1" opacity="0.5607843137254902" d="M 23.5 7 L 35 17.5 L 24.5 29 L 13 18.5 L 23.5 7 Z M 24 8 L 14 19 L 25 28 L 34 18 L 24 8 Z " /><path fill="rgb(156,48,32)" stroke="rgb(156,48,32)" stroke-width="1" opacity="0.5607843137254902" d="M 26.5 34 Q 28 35 25.5 36 Q 24 35 26.5 34 Z " /><path fill="rgb(156,48,32)" stroke="rgb(156,48,32)" stroke-width="1" opacity="0.5607843137254902" d="M 24.5 37 L 26 37.5 L 24.5 38 L 24.5 37 Z " /><path fill="rgb(23,84,135)" stroke="rgb(23,84,135)" stroke-width="1" opacity="0.03137254901960784" d="M 10.5 19 L 11 19.5 L 1 29.5 L 11.5 41 L 19.5 34 L 20 34.5 L 12.5 42 L 0 30.5 L 10.5 19 Z " /><path fill="rgb(23,84,135)" stroke="rgb(23,84,135)" stroke-width="1" opacity="0.03137254901960784" d="M 37.5 19 L 48 30.5 L 35.5 42 L 29 35.5 L 29.5 35 L 36.5 41 L 47 29.5 L 37 19.5 L 37.5 19 Z " /><path fill="rgb(23,84,135)" stroke="rgb(23,84,135)" stroke-width="1" opacity="0.03137254901960784" d="M 23.5 30 L 27 32.5 L 26.5 33 L 24.5 31 L 22.5 32 Q 21 31 23.5 30 Z " /><path fill="rgb(23,84,135)" stroke="rgb(23,84,135)" stroke-width="1" opacity="0.615686274509804" d="M 11.5 19 L 23 29.5 L 12.5 41 L 12 40.5 L 22 30.5 L 12.5 20 L 1.5 30 L 1 29.5 L 11.5 19 Z " /><path fill="rgb(23,84,135)" stroke="rgb(23,84,135)" stroke-width="1" opacity="0.615686274509804" d="M 35.5 19 L 47 29.5 L 36.5 41 L 25 30.5 L 35.5 19 Z M 36 20 L 26 31 L 37 40 L 46 30 L 36 20 Z " /></svg>