<svg width="64" height="64" version="1.1" xmlns="http://www.w3.org/2000/svg" desc="Created with imagetracer.js version 1.2.6" ><path fill="rgb(39,90,167)" stroke="rgb(39,90,167)" stroke-width="1" opacity="1" d="M 9.5 19 L 10 21.5 L 9 21.5 L 9.5 19 Z " /><path fill="rgb(39,90,167)" stroke="rgb(39,90,167)" stroke-width="1" opacity="1" d="M 21.5 19 L 21.5 20 L 21.5 19 Z " /><path fill="rgb(39,90,167)" stroke="rgb(39,90,167)" stroke-width="1" opacity="1" d="M 38.5 19 L 39 21.5 L 38 21.5 L 38.5 19 Z " /><path fill="rgb(39,90,167)" stroke="rgb(39,90,167)" stroke-width="1" opacity="1" d="M 47.5 19 Q 50 20 48.5 21 Q 46 20 47.5 19 Z " /><path fill="rgb(39,90,167)" stroke="rgb(39,90,167)" stroke-width="1" opacity="1" d="M 22.5 21 L 24 21.5 L 22.5 22 L 22.5 21 Z " /><path fill="rgb(39,90,167)" stroke="rgb(39,90,167)" stroke-width="1" opacity="1" d="M 36.5 21 L 36.5 22 L 36.5 21 Z " /><path fill="rgb(39,90,167)" stroke="rgb(39,90,167)" stroke-width="1" opacity="1" d="M 52.5 22 L 52.5 23 L 52.5 22 Z " /><path fill="rgb(39,90,167)" stroke="rgb(39,90,167)" stroke-width="1" opacity="1" d="M 5.5 23 L 7 23.5 L 5.5 24 L 5.5 23 Z " /><path fill="rgb(39,90,167)" stroke="rgb(39,90,167)" stroke-width="1" opacity="1" d="M 56.5 25 L 56.5 26 L 56.5 25 Z " /><path fill="rgb(39,90,167)" stroke="rgb(39,90,167)" stroke-width="1" opacity="1" d="M 58.5 29 L 58.5 30 L 58.5 29 Z " /><path fill="rgb(39,90,167)" stroke="rgb(39,90,167)" stroke-width="1" opacity="1" d="M 58.5 34 L 58.5 35 L 58.5 34 Z " /><path fill="rgb(39,90,167)" stroke="rgb(39,90,167)" stroke-width="1" opacity="1" d="M 17 37 L 20 37.5 L 18 38 L 17.5 40 L 17 37 Z " /><path fill="rgb(39,90,167)" stroke="rgb(39,90,167)" stroke-width="1" opacity="1" d="M 56.5 38 L 56.5 39 L 56.5 38 Z " /><path fill="rgb(39,90,167)" stroke="rgb(39,90,167)" stroke-width="1" opacity="1" d="M 5.5 40 L 7 40.5 L 5.5 41 L 5.5 40 Z " /><path fill="rgb(39,90,167)" stroke="rgb(39,90,167)" stroke-width="1" opacity="1" d="M 22.5 40 L 22.5 41 L 22.5 40 Z " /><path fill="rgb(39,90,167)" stroke="rgb(39,90,167)" stroke-width="1" opacity="1" d="M 52.5 41 L 52.5 42 L 52.5 41 Z " /><path fill="rgb(39,90,167)" stroke="rgb(39,90,167)" stroke-width="1" opacity="1" d="M 14.5 42 L 14.5 43 L 14.5 42 Z " /><path fill="rgb(39,90,167)" stroke="rgb(39,90,167)" stroke-width="1" opacity="1" d="M 23.5 42 L 23.5 43 L 23.5 42 Z " /><path fill="rgb(39,90,167)" stroke="rgb(39,90,167)" stroke-width="1" opacity="1" d="M 36.5 42 L 36.5 43 L 36.5 42 Z " /><path fill="rgb(39,90,167)" stroke="rgb(39,90,167)" stroke-width="1" opacity="1" d="M 38.5 42 L 39 44.5 L 38 44.5 L 38.5 42 Z " /><path fill="rgb(39,90,167)" stroke="rgb(39,90,167)" stroke-width="1" opacity="1" d="M 9.5 43 L 10 44.5 L 9 44.5 L 9.5 43 Z " /><path fill="rgb(39,90,167)" stroke="rgb(39,90,167)" stroke-width="1" opacity="1" d="M 48.5 43 Q 50 44 47.5 45 Q 46 44 48.5 43 Z " /><path fill="rgb(39,91,167)" stroke="rgb(39,91,167)" stroke-width="1" opacity="1" d="M 8.5 19 L 9 20.5 L 8 20.5 L 8.5 19 Z " /><path fill="rgb(39,91,167)" stroke="rgb(39,91,167)" stroke-width="1" opacity="1" d="M 22 19 Q 25 18 24 21 Q 21 22 22 19 Z " /><path fill="rgb(39,91,167)" stroke="rgb(39,91,167)" stroke-width="1" opacity="1" d="M 36 19 Q 39 18 38 21 Q 35 22 36 19 Z " /><path fill="rgb(39,91,167)" stroke="rgb(39,91,167)" stroke-width="1" opacity="1" d="M 49.5 20 L 49.5 21 L 49.5 20 Z " /><path fill="rgb(39,91,167)" stroke="rgb(39,91,167)" stroke-width="1" opacity="1" d="M 52.5 21 L 52.5 22 L 52.5 21 Z " /><path fill="rgb(39,91,167)" stroke="rgb(39,91,167)" stroke-width="1" opacity="1" d="M 5.5 22 L 7 22.5 L 5.5 23 L 5.5 22 Z " /><path fill="rgb(39,91,167)" stroke="rgb(39,91,167)" stroke-width="1" opacity="1" d="M 58.5 28 L 58.5 29 L 58.5 28 Z " /><path fill="rgb(39,91,167)" stroke="rgb(39,91,167)" stroke-width="1" opacity="1" d="M 58.5 35 L 58.5 36 L 58.5 35 Z " /><path fill="rgb(39,91,167)" stroke="rgb(39,91,167)" stroke-width="1" opacity="1" d="M 19.5 38 L 21 40.5 Q 20 42 19 39.5 L 19.5 38 Z " /><path fill="rgb(39,91,167)" stroke="rgb(39,91,167)" stroke-width="1" opacity="1" d="M 5.5 41 L 7 41.5 L 5.5 42 L 5.5 41 Z " /><path fill="rgb(39,91,167)" stroke="rgb(39,91,167)" stroke-width="1" opacity="1" d="M 15.5 41 L 17 41.5 L 15.5 42 L 15.5 41 Z " /><path fill="rgb(39,91,167)" stroke="rgb(39,91,167)" stroke-width="1" opacity="1" d="M 52.5 42 L 52.5 43 L 52.5 42 Z " /><path fill="rgb(39,91,167)" stroke="rgb(39,91,167)" stroke-width="1" opacity="1" d="M 8.5 43 L 9 44.5 L 8 44.5 L 8.5 43 Z " /><path fill="rgb(39,91,167)" stroke="rgb(39,91,167)" stroke-width="1" opacity="1" d="M 14.5 43 L 15 44.5 L 14 44.5 L 14.5 43 Z " /><path fill="rgb(39,91,167)" stroke="rgb(39,91,167)" stroke-width="1" opacity="1" d="M 23.5 43 L 24 44.5 L 23 44.5 L 23.5 43 Z " /><path fill="rgb(39,91,167)" stroke="rgb(39,91,167)" stroke-width="1" opacity="1" d="M 36 43 Q 39 42 38 45 Q 35 46 36 43 Z " /><path fill="rgb(39,91,167)" stroke="rgb(39,91,167)" stroke-width="1" opacity="1" d="M 49.5 43 L 49.5 44 L 49.5 43 Z " /><path fill="rgb(40,91,167)" stroke="rgb(40,91,167)" stroke-width="1" opacity="1" d="M 3 3 L 61 3 L 61 61 L 3 61 L 3 3 Z M 8 19 L 8 21 Q 10 22 8 23 L 5 22 L 5 42 L 7 42 Q 8 40 9 43 L 8 45 L 15 45 Q 14 41 17 42 L 19 38 L 21 41 L 23 41 L 23 45 L 48 45 L 51 43 L 53 43 Q 52 40 55 41 L 55 39 L 57 39 L 57 36 L 59 36 L 59 28 L 57 28 L 57 25 Q 54 26 55 23 L 53 23 L 53 21 Q 49 22 48 19 L 8 19 Z " /><path fill="rgb(40,91,167)" stroke="rgb(40,91,167)" stroke-width="1" opacity="1" d="M 37.5 21 L 37.5 22 L 37.5 21 Z " /><path fill="rgb(40,91,167)" stroke="rgb(40,91,167)" stroke-width="1" opacity="1" d="M 36.5 28 L 36.5 29 L 36.5 28 Z " /><path fill="rgb(40,91,167)" stroke="rgb(40,91,167)" stroke-width="1" opacity="1" d="M 36.5 35 L 36.5 36 L 36.5 35 Z " /><path fill="rgb(40,91,167)" stroke="rgb(40,91,167)" stroke-width="1" opacity="1" d="M 37.5 42 L 37.5 43 L 37.5 42 Z " /><path fill="rgb(37,89,165)" stroke="rgb(37,89,165)" stroke-width="1" opacity="0.7372549019607844" d="M 0.5 0 L 1 1.5 L 0 1.5 L 0.5 0 Z " /><path fill="rgb(37,89,165)" stroke="rgb(37,89,165)" stroke-width="1" opacity="0.7372549019607844" d="M 63.5 1 L 63.5 2 L 63.5 1 Z " /><path fill="rgb(37,89,165)" stroke="rgb(37,89,165)" stroke-width="1" opacity="0.7372549019607844" d="M 0.5 61 L 1 62.5 L 0 62.5 L 0.5 61 Z " /><path fill="rgb(37,89,165)" stroke="rgb(37,89,165)" stroke-width="1" opacity="0.7372549019607844" d="M 63.5 62 L 63.5 63 L 63.5 62 Z " /><path fill="rgb(39,89,165)" stroke="rgb(39,89,165)" stroke-width="1" opacity="0.7372549019607844" d="M 3.5 0 L 61 0.5 L 3.5 1 L 3.5 0 Z " /><path fill="rgb(39,89,165)" stroke="rgb(39,89,165)" stroke-width="1" opacity="0.7372549019607844" d="M 0.5 2 L 1 60.5 L 0 60.5 L 0.5 2 Z " /><path fill="rgb(39,89,165)" stroke="rgb(39,89,165)" stroke-width="1" opacity="0.7372549019607844" d="M 63.5 2 L 64 3.5 L 63 3.5 L 63.5 2 Z " /><path fill="rgb(39,89,165)" stroke="rgb(39,89,165)" stroke-width="1" opacity="0.7372549019607844" d="M 63.5 60 L 64 61.5 L 63 61.5 L 63.5 60 Z " /><path fill="rgb(38,86,164)" stroke="rgb(38,86,164)" stroke-width="1" opacity="1" d="M 46.5 21 L 46.5 22 L 46.5 21 Z " /><path fill="rgb(38,86,164)" stroke="rgb(38,86,164)" stroke-width="1" opacity="1" d="M 56.5 29 L 56.5 30 L 56.5 29 Z " /><path fill="rgb(38,86,164)" stroke="rgb(38,86,164)" stroke-width="1" opacity="1" d="M 56.5 34 L 56.5 35 L 56.5 34 Z " /><path fill="rgb(38,86,164)" stroke="rgb(38,86,164)" stroke-width="1" opacity="1" d="M 46.5 42 L 46.5 43 L 46.5 42 Z " /><path fill="rgb(41,88,165)" stroke="rgb(41,88,165)" stroke-width="1" opacity="1" d="M 10.5 21 L 13 21.5 L 10.5 22 L 10.5 21 Z " /><path fill="rgb(41,88,165)" stroke="rgb(41,88,165)" stroke-width="1" opacity="1" d="M 20.5 21 L 22 21.5 L 20.5 22 L 20.5 21 Z " /><path fill="rgb(41,88,165)" stroke="rgb(41,88,165)" stroke-width="1" opacity="1" d="M 24.5 21 L 27 21.5 L 24.5 22 L 24.5 21 Z " /><path fill="rgb(41,88,165)" stroke="rgb(41,88,165)" stroke-width="1" opacity="1" d="M 33.5 21 L 36 21.5 L 33.5 22 L 33.5 21 Z " /><path fill="rgb(41,88,165)" stroke="rgb(41,88,165)" stroke-width="1" opacity="1" d="M 39.5 21 L 41 21.5 L 39.5 22 L 39.5 21 Z " /><path fill="rgb(41,88,165)" stroke="rgb(41,88,165)" stroke-width="1" opacity="1" d="M 43.5 21 L 43.5 22 L 43.5 21 Z " /><path fill="rgb(41,88,165)" stroke="rgb(41,88,165)" stroke-width="1" opacity="1" d="M 56.5 30 L 56.5 31 L 56.5 30 Z " /><path fill="rgb(41,88,165)" stroke="rgb(41,88,165)" stroke-width="1" opacity="1" d="M 56.5 33 L 56.5 34 L 56.5 33 Z " /><path fill="rgb(41,88,165)" stroke="rgb(41,88,165)" stroke-width="1" opacity="1" d="M 22.5 37 L 23 39.5 L 22 39.5 L 22.5 37 Z " /><path fill="rgb(41,88,165)" stroke="rgb(41,88,165)" stroke-width="1" opacity="1" d="M 10.5 42 L 14 42.5 L 10.5 43 L 10.5 42 Z " /><path fill="rgb(41,88,165)" stroke="rgb(41,88,165)" stroke-width="1" opacity="1" d="M 24.5 42 L 27 42.5 L 24.5 43 L 24.5 42 Z " /><path fill="rgb(41,88,165)" stroke="rgb(41,88,165)" stroke-width="1" opacity="1" d="M 33.5 42 L 36 42.5 L 33.5 43 L 33.5 42 Z " /><path fill="rgb(41,88,165)" stroke="rgb(41,88,165)" stroke-width="1" opacity="1" d="M 39.5 42 L 41 42.5 L 39.5 43 L 39.5 42 Z " /><path fill="rgb(41,88,165)" stroke="rgb(41,88,165)" stroke-width="1" opacity="1" d="M 43.5 42 L 43.5 43 L 43.5 42 Z " /><path fill="rgb(41,87,165)" stroke="rgb(41,87,165)" stroke-width="1" opacity="1" d="M 13.5 21 L 20 21.5 L 13.5 22 L 13.5 21 Z " /><path fill="rgb(41,87,165)" stroke="rgb(41,87,165)" stroke-width="1" opacity="1" d="M 27.5 21 L 33 21.5 L 27.5 22 L 27.5 21 Z " /><path fill="rgb(41,87,165)" stroke="rgb(41,87,165)" stroke-width="1" opacity="1" d="M 41.5 21 L 43 21.5 L 41.5 22 L 41.5 21 Z " /><path fill="rgb(41,87,165)" stroke="rgb(41,87,165)" stroke-width="1" opacity="1" d="M 44.5 21 L 46 21.5 L 44.5 22 L 44.5 21 Z " /><path fill="rgb(41,87,165)" stroke="rgb(41,87,165)" stroke-width="1" opacity="1" d="M 55.5 28 L 55.5 29 L 55.5 28 Z " /><path fill="rgb(41,87,165)" stroke="rgb(41,87,165)" stroke-width="1" opacity="1" d="M 22.5 35 L 23 36.5 L 22 36.5 L 22.5 35 Z " /><path fill="rgb(41,87,165)" stroke="rgb(41,87,165)" stroke-width="1" opacity="1" d="M 55.5 35 L 55.5 36 L 55.5 35 Z " /><path fill="rgb(41,87,165)" stroke="rgb(41,87,165)" stroke-width="1" opacity="1" d="M 27.5 42 L 33 42.5 L 27.5 43 L 27.5 42 Z " /><path fill="rgb(41,87,165)" stroke="rgb(41,87,165)" stroke-width="1" opacity="1" d="M 41.5 42 L 43 42.5 L 41.5 43 L 41.5 42 Z " /><path fill="rgb(41,87,165)" stroke="rgb(41,87,165)" stroke-width="1" opacity="1" d="M 44.5 42 L 46 42.5 L 44.5 43 L 44.5 42 Z " /><path fill="rgb(30,82,162)" stroke="rgb(30,82,162)" stroke-width="1" opacity="1" d="M 48.5 21 L 50 21.5 L 48.5 22 L 48.5 21 Z " /><path fill="rgb(30,82,162)" stroke="rgb(30,82,162)" stroke-width="1" opacity="1" d="M 48.5 31 L 48.5 32 L 48.5 31 Z " /><path fill="rgb(30,82,162)" stroke="rgb(30,82,162)" stroke-width="1" opacity="1" d="M 47.5 33 L 47.5 34 L 47.5 33 Z " /><path fill="rgb(30,82,162)" stroke="rgb(30,82,162)" stroke-width="1" opacity="1" d="M 17.5 35 Q 18.5 37 19.5 35 L 22 37.5 L 21.5 38 L 19.5 36 L 18.5 37 Q 16 36 17.5 35 Z " /><path fill="rgb(30,82,162)" stroke="rgb(30,82,162)" stroke-width="1" opacity="1" d="M 15.5 37 L 17 39.5 L 16 39.5 L 15.5 37 Z " /><path fill="rgb(30,82,162)" stroke="rgb(30,82,162)" stroke-width="1" opacity="1" d="M 48.5 42 L 50 42.5 L 48.5 43 L 48.5 42 Z " /><path fill="rgb(42,96,176)" stroke="rgb(42,96,176)" stroke-width="1" opacity="1" d="M 3 1 L 61 1 L 61 3 L 63 3.5 L 63 61 L 61 61 L 60.5 63 L 3 63 L 3 61 L 1 60.5 L 1 3 Q 4 4 3 1 Z M 3 3 L 3 61 L 61 61 L 61 3 L 3 3 Z " /><path fill="rgb(66,103,174)" stroke="rgb(66,103,174)" stroke-width="1" opacity="1" d="M 11.5 22 L 21 22.5 L 11.5 23 L 11.5 22 Z " /><path fill="rgb(66,103,174)" stroke="rgb(66,103,174)" stroke-width="1" opacity="1" d="M 25.5 22 L 35 22.5 L 25.5 23 L 25.5 22 Z " /><path fill="rgb(66,103,174)" stroke="rgb(66,103,174)" stroke-width="1" opacity="1" d="M 40.5 22 L 45 22.5 L 40.5 23 L 40.5 22 Z " /><path fill="rgb(66,103,174)" stroke="rgb(66,103,174)" stroke-width="1" opacity="1" d="M 22.5 23 L 24 23.5 L 22.5 24 L 22.5 23 Z " /><path fill="rgb(66,103,174)" stroke="rgb(66,103,174)" stroke-width="1" opacity="1" d="M 36.5 23 Q 39 24 37.5 25 Q 35 24 36.5 23 Z " /><path fill="rgb(66,103,174)" stroke="rgb(66,103,174)" stroke-width="1" opacity="1" d="M 50.5 23 Q 53 24 51.5 25 Q 49 24 50.5 23 Z " /><path fill="rgb(66,103,174)" stroke="rgb(66,103,174)" stroke-width="1" opacity="1" d="M 8.5 24 L 8.5 25 L 8.5 24 Z " /><path fill="rgb(66,103,174)" stroke="rgb(66,103,174)" stroke-width="1" opacity="1" d="M 22.5 27 L 22.5 28 L 22.5 27 Z " /><path fill="rgb(66,103,174)" stroke="rgb(66,103,174)" stroke-width="1" opacity="1" d="M 36.5 27 L 36.5 28 L 36.5 27 Z " /><path fill="rgb(66,103,174)" stroke="rgb(66,103,174)" stroke-width="1" opacity="1" d="M 54.5 27 L 54.5 28 L 54.5 27 Z " /><path fill="rgb(66,103,174)" stroke="rgb(66,103,174)" stroke-width="1" opacity="1" d="M 17.5 28 L 21 28.5 L 17.5 29 L 17.5 28 Z " /><path fill="rgb(66,103,174)" stroke="rgb(66,103,174)" stroke-width="1" opacity="1" d="M 29.5 28 Q 35.25 26.75 36.5 30 L 38 29.5 L 37.5 35 Q 36 32.5 34.5 36 L 29 35.5 L 34.5 35 L 37 32.5 L 34.5 29 L 29.5 29 L 29.5 28 Z " /><path fill="rgb(66,103,174)" stroke="rgb(66,103,174)" stroke-width="1" opacity="1" d="M 45.5 28 L 45.5 29 L 45.5 28 Z " /><path fill="rgb(66,103,174)" stroke="rgb(66,103,174)" stroke-width="1" opacity="1" d="M 22.5 30 L 22.5 31 L 22.5 30 Z " /><path fill="rgb(66,103,174)" stroke="rgb(66,103,174)" stroke-width="1" opacity="1" d="M 55.5 30 L 56 33.5 L 55 33.5 L 55.5 30 Z " /><path fill="rgb(66,103,174)" stroke="rgb(66,103,174)" stroke-width="1" opacity="1" d="M 22.5 33 L 22.5 34 L 22.5 33 Z " /><path fill="rgb(66,103,174)" stroke="rgb(66,103,174)" stroke-width="1" opacity="1" d="M 45.5 35 L 45.5 36 L 45.5 35 Z " /><path fill="rgb(66,103,174)" stroke="rgb(66,103,174)" stroke-width="1" opacity="1" d="M 36.5 36 L 36.5 37 L 36.5 36 Z " /><path fill="rgb(66,103,174)" stroke="rgb(66,103,174)" stroke-width="1" opacity="1" d="M 54.5 36 L 54.5 37 L 54.5 36 Z " /><path fill="rgb(66,103,174)" stroke="rgb(66,103,174)" stroke-width="1" opacity="1" d="M 8.5 39 L 8.5 40 L 8.5 39 Z " /><path fill="rgb(66,103,174)" stroke="rgb(66,103,174)" stroke-width="1" opacity="1" d="M 37.5 39 Q 39 40 36.5 41 Q 35 40 37.5 39 Z " /><path fill="rgb(66,103,174)" stroke="rgb(66,103,174)" stroke-width="1" opacity="1" d="M 14.5 40 L 14.5 41 L 14.5 40 Z " /><path fill="rgb(66,103,174)" stroke="rgb(66,103,174)" stroke-width="1" opacity="1" d="M 23.5 40 L 23.5 41 L 23.5 40 Z " /><path fill="rgb(66,103,174)" stroke="rgb(66,103,174)" stroke-width="1" opacity="1" d="M 50.5 40 L 50.5 41 L 50.5 40 Z " /><path fill="rgb(66,103,174)" stroke="rgb(66,103,174)" stroke-width="1" opacity="1" d="M 11.5 41 L 13 41.5 L 11.5 42 L 11.5 41 Z " /><path fill="rgb(66,103,174)" stroke="rgb(66,103,174)" stroke-width="1" opacity="1" d="M 25.5 41 L 35 41.5 L 25.5 42 L 25.5 41 Z " /><path fill="rgb(66,103,174)" stroke="rgb(66,103,174)" stroke-width="1" opacity="1" d="M 40.5 41 L 46 41.5 L 40.5 42 L 40.5 41 Z " /><path fill="rgb(44,101,185)" stroke="rgb(44,101,185)" stroke-width="1" opacity="1" d="M 1 1 Q 4 0 3 3 Q 0 4 1 1 Z " /><path fill="rgb(44,101,185)" stroke="rgb(44,101,185)" stroke-width="1" opacity="1" d="M 61 1 Q 64 0 63 3 Q 60 4 61 1 Z " /><path fill="rgb(44,101,185)" stroke="rgb(44,101,185)" stroke-width="1" opacity="1" d="M 1 61 Q 4 60 3 63 Q 0 64 1 61 Z " /><path fill="rgb(44,101,185)" stroke="rgb(44,101,185)" stroke-width="1" opacity="1" d="M 61 61 Q 64 60 63 63 Q 60 64 61 61 Z " /><path fill="rgb(187,201,227)" stroke="rgb(187,201,227)" stroke-width="1" opacity="1" d="M 48.5 24 L 48.5 25 L 48.5 24 Z " /><path fill="rgb(187,201,227)" stroke="rgb(187,201,227)" stroke-width="1" opacity="1" d="M 35.5 25 L 35.5 26 L 35.5 25 Z " /><path fill="rgb(187,201,227)" stroke="rgb(187,201,227)" stroke-width="1" opacity="1" d="M 50.5 25 Q 53 26 51.5 27 Q 49 26 50.5 25 Z " /><path fill="rgb(187,201,227)" stroke="rgb(187,201,227)" stroke-width="1" opacity="1" d="M 47.5 27 L 47.5 28 L 47.5 27 Z " /><path fill="rgb(187,201,227)" stroke="rgb(187,201,227)" stroke-width="1" opacity="1" d="M 13.5 28 L 13.5 29 L 13.5 28 Z " /><path fill="rgb(187,201,227)" stroke="rgb(187,201,227)" stroke-width="1" opacity="1" d="M 15.5 30 L 20 30.5 L 15.5 31 L 15.5 30 Z " /><path fill="rgb(187,201,227)" stroke="rgb(187,201,227)" stroke-width="1" opacity="1" d="M 24.5 30 L 25 32.5 L 24 32.5 L 24.5 30 Z " /><path fill="rgb(187,201,227)" stroke="rgb(187,201,227)" stroke-width="1" opacity="1" d="M 29.5 30 L 35 30.5 L 29.5 31 L 29.5 30 Z " /><path fill="rgb(187,201,227)" stroke="rgb(187,201,227)" stroke-width="1" opacity="1" d="M 35.5 32 Q 37 33 34.5 34 L 33 33.5 L 35.5 32 Z " /><path fill="rgb(187,201,227)" stroke="rgb(187,201,227)" stroke-width="1" opacity="1" d="M 15.5 33 L 15.5 34 L 15.5 33 Z " /><path fill="rgb(187,201,227)" stroke="rgb(187,201,227)" stroke-width="1" opacity="1" d="M 17.5 33 L 19 33.5 L 17.5 34 L 17.5 33 Z " /><path fill="rgb(187,201,227)" stroke="rgb(187,201,227)" stroke-width="1" opacity="1" d="M 13.5 35 L 13.5 36 L 13.5 35 Z " /><path fill="rgb(187,201,227)" stroke="rgb(187,201,227)" stroke-width="1" opacity="1" d="M 47.5 36 L 47.5 37 L 47.5 36 Z " /><path fill="rgb(187,201,227)" stroke="rgb(187,201,227)" stroke-width="1" opacity="1" d="M 13.5 37 L 14 38.5 L 13 38.5 L 13.5 37 Z " /><path fill="rgb(187,201,227)" stroke="rgb(187,201,227)" stroke-width="1" opacity="1" d="M 51.5 37 Q 53 38 50.5 39 Q 49 38 51.5 37 Z " /><path fill="rgb(187,201,227)" stroke="rgb(187,201,227)" stroke-width="1" opacity="1" d="M 35.5 38 L 35.5 39 L 35.5 38 Z " /><path fill="rgb(187,201,227)" stroke="rgb(187,201,227)" stroke-width="1" opacity="1" d="M 10.5 39 L 10.5 40 L 10.5 39 Z " /><path fill="rgb(187,201,227)" stroke="rgb(187,201,227)" stroke-width="1" opacity="1" d="M 48.5 39 L 48.5 40 L 48.5 39 Z " /><path fill="rgb(209,216,234)" stroke="rgb(209,216,234)" stroke-width="1" opacity="1" d="M 11.5 24 L 21 24.5 L 11.5 25 L 10.5 26 Q 9 25 11.5 24 Z " /><path fill="rgb(209,216,234)" stroke="rgb(209,216,234)" stroke-width="1" opacity="1" d="M 25.5 24 L 35 24.5 L 25 25 L 24.5 30 L 24 25.5 L 25.5 24 Z " /><path fill="rgb(209,216,234)" stroke="rgb(209,216,234)" stroke-width="1" opacity="1" d="M 40.5 24 L 48 24.5 L 40 25 L 40 39 L 47.5 39 L 47.5 40 L 40.5 40 L 39 38.5 L 39 25.5 L 40.5 24 Z " /><path fill="rgb(209,216,234)" stroke="rgb(209,216,234)" stroke-width="1" opacity="1" d="M 15.5 26 L 21 26.5 L 15.5 27 L 15.5 26 Z " /><path fill="rgb(209,216,234)" stroke="rgb(209,216,234)" stroke-width="1" opacity="1" d="M 29.5 26 L 33 26.5 L 29.5 27 L 29.5 26 Z " /><path fill="rgb(209,216,234)" stroke="rgb(209,216,234)" stroke-width="1" opacity="1" d="M 10.5 27 L 11 36.5 L 10 36.5 L 10.5 27 Z " /><path fill="rgb(209,216,234)" stroke="rgb(209,216,234)" stroke-width="1" opacity="1" d="M 13.5 27 L 13.5 28 L 13.5 27 Z " /><path fill="rgb(209,216,234)" stroke="rgb(209,216,234)" stroke-width="1" opacity="1" d="M 42.5 27 L 42.5 28 L 42.5 27 Z " /><path fill="rgb(209,216,234)" stroke="rgb(209,216,234)" stroke-width="1" opacity="1" d="M 48.5 27 Q 52.25 28.25 51 34.5 L 48.5 37 L 48 36.5 Q 51.25 35.25 50 29.5 L 48 27.5 L 48.5 27 Z " /><path fill="rgb(209,216,234)" stroke="rgb(209,216,234)" stroke-width="1" opacity="1" d="M 52.5 27 L 52.5 28 L 52.5 27 Z " /><path fill="rgb(209,216,234)" stroke="rgb(209,216,234)" stroke-width="1" opacity="1" d="M 27.5 28 L 29 30.5 Q 28 32 27 29.5 L 27.5 28 Z " /><path fill="rgb(209,216,234)" stroke="rgb(209,216,234)" stroke-width="1" opacity="1" d="M 13.5 29 Q 16 30 14.5 31 Q 12 30 13.5 29 Z " /><path fill="rgb(209,216,234)" stroke="rgb(209,216,234)" stroke-width="1" opacity="1" d="M 53.5 29 L 54 34.5 L 53 34.5 L 53.5 29 Z " /><path fill="rgb(209,216,234)" stroke="rgb(209,216,234)" stroke-width="1" opacity="1" d="M 20.5 31 L 21 32.5 L 20 32.5 L 20.5 31 Z " /><path fill="rgb(209,216,234)" stroke="rgb(209,216,234)" stroke-width="1" opacity="1" d="M 35.5 31 L 35.5 32 L 35.5 31 Z " /><path fill="rgb(209,216,234)" stroke="rgb(209,216,234)" stroke-width="1" opacity="1" d="M 14.5 33 Q 16 34 13.5 35 Q 12 34 14.5 33 Z " /><path fill="rgb(209,216,234)" stroke="rgb(209,216,234)" stroke-width="1" opacity="1" d="M 24.5 33 L 25 39 L 35 39.5 L 25.5 40 L 24 38.5 L 24.5 33 Z " /><path fill="rgb(209,216,234)" stroke="rgb(209,216,234)" stroke-width="1" opacity="1" d="M 28.5 33 L 28 34.5 L 27.5 36 L 27 34.5 L 28.5 33 Z " /><path fill="rgb(209,216,234)" stroke="rgb(209,216,234)" stroke-width="1" opacity="1" d="M 42.5 36 L 42.5 37 L 42.5 36 Z " /><path fill="rgb(209,216,234)" stroke="rgb(209,216,234)" stroke-width="1" opacity="1" d="M 52.5 36 L 52.5 37 L 52.5 36 Z " /><path fill="rgb(209,216,234)" stroke="rgb(209,216,234)" stroke-width="1" opacity="1" d="M 29.5 37 L 33 37.5 L 29.5 38 L 29.5 37 Z " /><path fill="rgb(209,216,234)" stroke="rgb(209,216,234)" stroke-width="1" opacity="1" d="M 44.5 37 L 44.5 38 L 44.5 37 Z " /><path fill="rgb(209,216,234)" stroke="rgb(209,216,234)" stroke-width="1" opacity="1" d="M 11.5 39 L 13 39.5 L 11.5 40 L 11.5 39 Z " /><path fill="rgb(32,85,163)" stroke="rgb(32,85,163)" stroke-width="1" opacity="1" d="M 47.5 21 L 47.5 22 L 47.5 21 Z " /><path fill="rgb(32,85,163)" stroke="rgb(32,85,163)" stroke-width="1" opacity="1" d="M 50.5 21 L 51 23 L 49 22.5 L 50.5 21 Z " /><path fill="rgb(32,85,163)" stroke="rgb(32,85,163)" stroke-width="1" opacity="1" d="M 53.5 24 L 53.5 25 L 53.5 24 Z " /><path fill="rgb(32,85,163)" stroke="rgb(32,85,163)" stroke-width="1" opacity="1" d="M 56.5 27 L 57 28.5 L 56 28.5 L 56.5 27 Z " /><path fill="rgb(32,85,163)" stroke="rgb(32,85,163)" stroke-width="1" opacity="1" d="M 46.5 31 L 46.5 32 L 46.5 31 Z " /><path fill="rgb(32,85,163)" stroke="rgb(32,85,163)" stroke-width="1" opacity="1" d="M 18.5 35 L 18.5 36 L 18.5 35 Z " /><path fill="rgb(32,85,163)" stroke="rgb(32,85,163)" stroke-width="1" opacity="1" d="M 20.5 35 L 20.5 36 L 20.5 35 Z " /><path fill="rgb(32,85,163)" stroke="rgb(32,85,163)" stroke-width="1" opacity="1" d="M 56.5 35 L 57 36.5 L 56 36.5 L 56.5 35 Z " /><path fill="rgb(32,85,163)" stroke="rgb(32,85,163)" stroke-width="1" opacity="1" d="M 15.5 38 L 16 39.5 L 15 39.5 L 15.5 38 Z " /><path fill="rgb(32,85,163)" stroke="rgb(32,85,163)" stroke-width="1" opacity="1" d="M 21.5 38 L 22 39.5 L 21 39.5 L 21.5 38 Z " /><path fill="rgb(32,85,163)" stroke="rgb(32,85,163)" stroke-width="1" opacity="1" d="M 53.5 39 L 53.5 40 L 53.5 39 Z " /><path fill="rgb(32,85,163)" stroke="rgb(32,85,163)" stroke-width="1" opacity="1" d="M 49.5 41 Q 51.75 40.25 51 42.5 L 50.5 43 Q 48 42 49.5 41 Z " /><path fill="rgb(32,85,163)" stroke="rgb(32,85,163)" stroke-width="1" opacity="1" d="M 47.5 42 L 47.5 43 L 47.5 42 Z " /><path fill="rgb(45,92,168)" stroke="rgb(45,92,168)" stroke-width="1" opacity="1" d="M 8.5 22 Q 10 23 7.5 24 Q 6 23 8.5 22 Z " /><path fill="rgb(45,92,168)" stroke="rgb(45,92,168)" stroke-width="1" opacity="1" d="M 22.5 22 L 22.5 23 L 22.5 22 Z " /><path fill="rgb(45,92,168)" stroke="rgb(45,92,168)" stroke-width="1" opacity="1" d="M 37.5 22 L 37.5 23 L 37.5 22 Z " /><path fill="rgb(45,92,168)" stroke="rgb(45,92,168)" stroke-width="1" opacity="1" d="M 47.5 22 L 47.5 23 L 47.5 22 Z " /><path fill="rgb(45,92,168)" stroke="rgb(45,92,168)" stroke-width="1" opacity="1" d="M 36.5 29 L 36.5 30 L 36.5 29 Z " /><path fill="rgb(45,92,168)" stroke="rgb(45,92,168)" stroke-width="1" opacity="1" d="M 47.5 29 L 47.5 30 L 47.5 29 Z " /><path fill="rgb(45,92,168)" stroke="rgb(45,92,168)" stroke-width="1" opacity="1" d="M 56.5 31 L 57 32.5 L 56 32.5 L 56.5 31 Z " /><path fill="rgb(45,92,168)" stroke="rgb(45,92,168)" stroke-width="1" opacity="1" d="M 36.5 34 L 36.5 35 L 36.5 34 Z " /><path fill="rgb(45,92,168)" stroke="rgb(45,92,168)" stroke-width="1" opacity="1" d="M 7.5 40 Q 10 41 8.5 42 Q 6 41 7.5 40 Z " /><path fill="rgb(45,92,168)" stroke="rgb(45,92,168)" stroke-width="1" opacity="1" d="M 14.5 41 L 14.5 42 L 14.5 41 Z " /><path fill="rgb(45,92,168)" stroke="rgb(45,92,168)" stroke-width="1" opacity="1" d="M 37.5 41 L 37.5 42 L 37.5 41 Z " /><path fill="rgb(136,154,202)" stroke="rgb(136,154,202)" stroke-width="1" opacity="1" d="M 10.5 23 L 20.5 23 L 22 24.5 L 20.5 24 L 10.5 24 L 9.5 25 Q 8 24 10.5 23 Z " /><path fill="rgb(136,154,202)" stroke="rgb(136,154,202)" stroke-width="1" opacity="1" d="M 25.5 23 L 35 23.5 L 25.5 24 L 25.5 23 Z " /><path fill="rgb(136,154,202)" stroke="rgb(136,154,202)" stroke-width="1" opacity="1" d="M 40.5 23 L 48 23.5 L 40.5 24 L 40.5 23 Z " /><path fill="rgb(136,154,202)" stroke="rgb(136,154,202)" stroke-width="1" opacity="1" d="M 38.5 24 L 39 27.5 L 38 27.5 L 38.5 24 Z " /><path fill="rgb(136,154,202)" stroke="rgb(136,154,202)" stroke-width="1" opacity="1" d="M 50.5 24 L 54 27.5 L 53.5 28 L 50 24.5 L 50.5 24 Z " /><path fill="rgb(136,154,202)" stroke="rgb(136,154,202)" stroke-width="1" opacity="1" d="M 21.5 26 Q 23 27 20.5 28 L 15.5 28 L 15 29.5 L 14 29.5 L 15.5 27 Q 20.25 28.25 21.5 26 Z " /><path fill="rgb(136,154,202)" stroke="rgb(136,154,202)" stroke-width="1" opacity="1" d="M 9.5 27 L 10 36.5 L 9 36.5 L 9.5 27 Z " /><path fill="rgb(136,154,202)" stroke="rgb(136,154,202)" stroke-width="1" opacity="1" d="M 29.5 27 L 35 27.5 L 29.5 28 L 28.5 29 Q 27 28 29.5 27 Z " /><path fill="rgb(136,154,202)" stroke="rgb(136,154,202)" stroke-width="1" opacity="1" d="M 43.5 28 L 43.5 29 L 43.5 28 Z " /><path fill="rgb(136,154,202)" stroke="rgb(136,154,202)" stroke-width="1" opacity="1" d="M 38.5 29 L 39 34.5 L 38 34.5 L 38.5 29 Z " /><path fill="rgb(136,154,202)" stroke="rgb(136,154,202)" stroke-width="1" opacity="1" d="M 54.5 29 L 55 34.5 L 54 34.5 L 54.5 29 Z " /><path fill="rgb(136,154,202)" stroke="rgb(136,154,202)" stroke-width="1" opacity="1" d="M 35.5 30 L 35.5 31 L 35.5 30 Z " /><path fill="rgb(136,154,202)" stroke="rgb(136,154,202)" stroke-width="1" opacity="1" d="M 49.5 30 L 49.5 31 L 49.5 30 Z " /><path fill="rgb(136,154,202)" stroke="rgb(136,154,202)" stroke-width="1" opacity="1" d="M 21.5 32 L 21.5 33 L 21.5 32 Z " /><path fill="rgb(136,154,202)" stroke="rgb(136,154,202)" stroke-width="1" opacity="1" d="M 35.5 33 L 35.5 34 L 35.5 33 Z " /><path fill="rgb(136,154,202)" stroke="rgb(136,154,202)" stroke-width="1" opacity="1" d="M 49.5 33 L 49.5 34 L 49.5 33 Z " /><path fill="rgb(136,154,202)" stroke="rgb(136,154,202)" stroke-width="1" opacity="1" d="M 14.5 34 L 14.5 35 L 14.5 34 Z " /><path fill="rgb(136,154,202)" stroke="rgb(136,154,202)" stroke-width="1" opacity="1" d="M 28.5 34 L 29 36 L 35 36.5 L 29.5 37 Q 27.13 36.13 28.5 34 Z " /><path fill="rgb(136,154,202)" stroke="rgb(136,154,202)" stroke-width="1" opacity="1" d="M 43.5 35 L 43.5 36 L 43.5 35 Z " /><path fill="rgb(136,154,202)" stroke="rgb(136,154,202)" stroke-width="1" opacity="1" d="M 38.5 36 L 39 40 L 48 40.5 L 39.5 41 Q 36.81 39.81 38.5 36 Z " /><path fill="rgb(136,154,202)" stroke="rgb(136,154,202)" stroke-width="1" opacity="1" d="M 53.5 36 L 54 36.5 L 50.5 40 L 50 39.5 L 53.5 36 Z " /><path fill="rgb(136,154,202)" stroke="rgb(136,154,202)" stroke-width="1" opacity="1" d="M 23.5 37 L 24 38.5 L 23 38.5 L 23.5 37 Z " /><path fill="rgb(136,154,202)" stroke="rgb(136,154,202)" stroke-width="1" opacity="1" d="M 9.5 39 L 13 40.5 L 10.5 41 Q 8 40 9.5 39 Z " /><path fill="rgb(136,154,202)" stroke="rgb(136,154,202)" stroke-width="1" opacity="1" d="M 25.5 40 L 35 40.5 L 25.5 41 L 25.5 40 Z " /><path fill="rgb(56,97,171)" stroke="rgb(56,97,171)" stroke-width="1" opacity="1" d="M 9.5 22 L 11 22.5 L 8.5 24 Q 7 23 9.5 22 Z " /><path fill="rgb(56,97,171)" stroke="rgb(56,97,171)" stroke-width="1" opacity="1" d="M 21.5 22 L 21.5 23 L 21.5 22 Z " /><path fill="rgb(56,97,171)" stroke="rgb(56,97,171)" stroke-width="1" opacity="1" d="M 24.5 22 L 24.5 23 L 24.5 22 Z " /><path fill="rgb(56,97,171)" stroke="rgb(56,97,171)" stroke-width="1" opacity="1" d="M 35.5 22 L 35.5 23 L 35.5 22 Z " /><path fill="rgb(56,97,171)" stroke="rgb(56,97,171)" stroke-width="1" opacity="1" d="M 38.5 22 L 40 22.5 L 37.5 24 Q 36 23 38.5 22 Z " /><path fill="rgb(56,97,171)" stroke="rgb(56,97,171)" stroke-width="1" opacity="1" d="M 45.5 22 L 47 22.5 L 45.5 23 L 45.5 22 Z " /><path fill="rgb(56,97,171)" stroke="rgb(56,97,171)" stroke-width="1" opacity="1" d="M 54.5 26 L 54.5 27 L 54.5 26 Z " /><path fill="rgb(56,97,171)" stroke="rgb(56,97,171)" stroke-width="1" opacity="1" d="M 15.5 28 L 17 28.5 L 15.5 29 L 15.5 28 Z " /><path fill="rgb(56,97,171)" stroke="rgb(56,97,171)" stroke-width="1" opacity="1" d="M 35.5 28 L 35.5 29 L 35.5 28 Z " /><path fill="rgb(56,97,171)" stroke="rgb(56,97,171)" stroke-width="1" opacity="1" d="M 21.5 29 L 21.5 30 L 21.5 29 Z " /><path fill="rgb(56,97,171)" stroke="rgb(56,97,171)" stroke-width="1" opacity="1" d="M 44.5 31 L 45 32.5 L 44 32.5 L 44.5 31 Z " /><path fill="rgb(56,97,171)" stroke="rgb(56,97,171)" stroke-width="1" opacity="1" d="M 48.5 33 L 48.5 34 L 48.5 33 Z " /><path fill="rgb(56,97,171)" stroke="rgb(56,97,171)" stroke-width="1" opacity="1" d="M 21.5 34 L 21.5 35 L 21.5 34 Z " /><path fill="rgb(56,97,171)" stroke="rgb(56,97,171)" stroke-width="1" opacity="1" d="M 35.5 35 L 35.5 36 L 35.5 35 Z " /><path fill="rgb(56,97,171)" stroke="rgb(56,97,171)" stroke-width="1" opacity="1" d="M 54.5 37 L 54.5 38 L 54.5 37 Z " /><path fill="rgb(56,97,171)" stroke="rgb(56,97,171)" stroke-width="1" opacity="1" d="M 8.5 40 L 11 41.5 L 9.5 42 Q 7 41 8.5 40 Z " /><path fill="rgb(56,97,171)" stroke="rgb(56,97,171)" stroke-width="1" opacity="1" d="M 37.5 40 L 40 41.5 L 38.5 42 Q 36 41 37.5 40 Z " /><path fill="rgb(56,97,171)" stroke="rgb(56,97,171)" stroke-width="1" opacity="1" d="M 13.5 41 L 13.5 42 L 13.5 41 Z " /><path fill="rgb(56,97,171)" stroke="rgb(56,97,171)" stroke-width="1" opacity="1" d="M 24.5 41 L 24.5 42 L 24.5 41 Z " /><path fill="rgb(56,97,171)" stroke="rgb(56,97,171)" stroke-width="1" opacity="1" d="M 35.5 41 L 35.5 42 L 35.5 41 Z " /><path fill="rgb(56,97,171)" stroke="rgb(56,97,171)" stroke-width="1" opacity="1" d="M 46.5 41 L 46.5 42 L 46.5 41 Z " /><path fill="rgb(181,191,222)" stroke="rgb(181,191,222)" stroke-width="1" opacity="1" d="M 10.5 24 L 10.5 25 L 10.5 24 Z " /><path fill="rgb(181,191,222)" stroke="rgb(181,191,222)" stroke-width="1" opacity="1" d="M 39.5 24 L 39.5 25 L 39.5 24 Z " /><path fill="rgb(181,191,222)" stroke="rgb(181,191,222)" stroke-width="1" opacity="1" d="M 35.5 26 L 35.5 27 L 35.5 26 Z " /><path fill="rgb(181,191,222)" stroke="rgb(181,191,222)" stroke-width="1" opacity="1" d="M 28.5 27 L 28.5 28 L 28.5 27 Z " /><path fill="rgb(181,191,222)" stroke="rgb(181,191,222)" stroke-width="1" opacity="1" d="M 43.5 27 Q 45 28 42.5 29 Q 41 28 43.5 27 Z " /><path fill="rgb(181,191,222)" stroke="rgb(181,191,222)" stroke-width="1" opacity="1" d="M 53.5 28 L 53.5 29 L 53.5 28 Z " /><path fill="rgb(181,191,222)" stroke="rgb(181,191,222)" stroke-width="1" opacity="1" d="M 16.5 33 L 16.5 34 L 16.5 33 Z " /><path fill="rgb(181,191,222)" stroke="rgb(181,191,222)" stroke-width="1" opacity="1" d="M 19.5 33 L 19.5 34 L 19.5 33 Z " /><path fill="rgb(181,191,222)" stroke="rgb(181,191,222)" stroke-width="1" opacity="1" d="M 29.5 33 L 33 33.5 L 29.5 34 L 29.5 33 Z " /><path fill="rgb(181,191,222)" stroke="rgb(181,191,222)" stroke-width="1" opacity="1" d="M 42.5 35 Q 45 36 43.5 37 Q 41 36 42.5 35 Z " /><path fill="rgb(181,191,222)" stroke="rgb(181,191,222)" stroke-width="1" opacity="1" d="M 53.5 35 L 53.5 36 L 53.5 35 Z " /><path fill="rgb(181,191,222)" stroke="rgb(181,191,222)" stroke-width="1" opacity="1" d="M 13.5 36 L 13.5 37 L 13.5 36 Z " /><path fill="rgb(181,191,222)" stroke="rgb(181,191,222)" stroke-width="1" opacity="1" d="M 28.5 36 L 28.5 37 L 28.5 36 Z " /><path fill="rgb(181,191,222)" stroke="rgb(181,191,222)" stroke-width="1" opacity="1" d="M 35.5 37 L 35.5 38 L 35.5 37 Z " /><path fill="rgb(181,191,222)" stroke="rgb(181,191,222)" stroke-width="1" opacity="1" d="M 24.5 39 L 24.5 40 L 24.5 39 Z " /><path fill="rgb(181,191,222)" stroke="rgb(181,191,222)" stroke-width="1" opacity="1" d="M 39.5 39 L 39.5 40 L 39.5 39 Z " /><path fill="rgb(246,246,250)" stroke="rgb(246,246,250)" stroke-width="1" opacity="1" d="M 11.5 25 L 21 25.5 L 15.5 26 L 13 27 Q 12.25 30 14.5 31 L 20 31 L 20 33 L 14.5 33 L 13 34.5 Q 14.88 40.8 10 39 Q 12.13 35.69 11 27.5 Q 8.75 26.25 11.5 25 Z " /><path fill="rgb(246,246,250)" stroke="rgb(246,246,250)" stroke-width="1" opacity="1" d="M 25 25 L 34.5 25 L 35 27 L 32.5 26 L 29.5 26 L 27 29.5 L 28.5 31 L 35 31 L 34.5 33 L 28.5 33 L 27 35.5 Q 27.75 38.75 32.5 38 L 35 37 L 34.5 39 L 25 39 L 25 25 Z " /><path fill="rgb(246,246,250)" stroke="rgb(246,246,250)" stroke-width="1" opacity="1" d="M 40 25 L 49.5 25 L 53 28.5 Q 54.75 37.25 49.5 39 L 40 39 L 40 25 Z M 42 27 L 42 37 L 45 38 Q 45 36 49 37 Q 52 36 51 30 L 49 27 L 42 27 Z " /><path fill="rgb(32,82,162)" stroke="rgb(32,82,162)" stroke-width="1" opacity="1" d="M 48.5 32 L 48.5 33 L 48.5 32 Z " /><path fill="rgb(48,92,168)" stroke="rgb(48,92,168)" stroke-width="1" opacity="1" d="M 23.5 22 L 23.5 23 L 23.5 22 Z " /><path fill="rgb(48,92,168)" stroke="rgb(48,92,168)" stroke-width="1" opacity="1" d="M 36.5 22 L 36.5 23 L 36.5 22 Z " /><path fill="rgb(48,92,168)" stroke="rgb(48,92,168)" stroke-width="1" opacity="1" d="M 51.5 23 L 54 25.5 L 53.5 26 L 51 23.5 L 51.5 23 Z " /><path fill="rgb(48,92,168)" stroke="rgb(48,92,168)" stroke-width="1" opacity="1" d="M 7.5 24 L 8 39.5 L 7 39.5 L 7.5 24 Z " /><path fill="rgb(48,92,168)" stroke="rgb(48,92,168)" stroke-width="1" opacity="1" d="M 21.5 28 Q 23.75 27.25 23 29.5 L 22.5 30 Q 20 29 21.5 28 Z " /><path fill="rgb(48,92,168)" stroke="rgb(48,92,168)" stroke-width="1" opacity="1" d="M 44.5 29 L 45 30.5 L 44 30.5 L 44.5 29 Z " /><path fill="rgb(48,92,168)" stroke="rgb(48,92,168)" stroke-width="1" opacity="1" d="M 55.5 29 L 55.5 30 L 55.5 29 Z " /><path fill="rgb(48,92,168)" stroke="rgb(48,92,168)" stroke-width="1" opacity="1" d="M 48.5 30 L 48.5 31 L 48.5 30 Z " /><path fill="rgb(48,92,168)" stroke="rgb(48,92,168)" stroke-width="1" opacity="1" d="M 44.5 33 L 45 34.5 L 44 34.5 L 44.5 33 Z " /><path fill="rgb(48,92,168)" stroke="rgb(48,92,168)" stroke-width="1" opacity="1" d="M 22.5 34 L 22.5 35 L 22.5 34 Z " /><path fill="rgb(48,92,168)" stroke="rgb(48,92,168)" stroke-width="1" opacity="1" d="M 47.5 34 L 47.5 35 L 47.5 34 Z " /><path fill="rgb(48,92,168)" stroke="rgb(48,92,168)" stroke-width="1" opacity="1" d="M 55.5 34 L 55.5 35 L 55.5 34 Z " /><path fill="rgb(48,92,168)" stroke="rgb(48,92,168)" stroke-width="1" opacity="1" d="M 53.5 38 L 54 38.5 L 51.5 41 L 51 40.5 L 53.5 38 Z " /><path fill="rgb(48,92,168)" stroke="rgb(48,92,168)" stroke-width="1" opacity="1" d="M 23.5 41 L 23.5 42 L 23.5 41 Z " /><path fill="rgb(48,92,168)" stroke="rgb(48,92,168)" stroke-width="1" opacity="1" d="M 36.5 41 L 36.5 42 L 36.5 41 Z " /><path fill="rgb(48,92,168)" stroke="rgb(48,92,168)" stroke-width="1" opacity="1" d="M 47.5 41 L 47.5 42 L 47.5 41 Z " /><path fill="rgb(90,123,185)" stroke="rgb(90,123,185)" stroke-width="1" opacity="1" d="M 9.5 23 L 9.5 24 L 9.5 23 Z " /><path fill="rgb(90,123,185)" stroke="rgb(90,123,185)" stroke-width="1" opacity="1" d="M 21.5 23 L 23.5 24 L 25 23.5 L 24 24.5 L 23.5 37 L 22.5 33 L 20.5 35 L 15 35 L 15 39.5 L 13.5 41 L 14 39.5 Q 13 35 15.5 34 Q 20.75 35.25 22 32.5 L 20.5 30 L 15 29.5 L 20.5 29 L 22.5 31 L 23 30.5 L 22.5 27 L 21 27.5 L 22 24.5 L 21.5 23 Z " /><path fill="rgb(90,123,185)" stroke="rgb(90,123,185)" stroke-width="1" opacity="1" d="M 35.5 23 Q 38.75 23.75 38 28.5 L 37 28.5 L 36.5 27 L 35 27.5 L 36 24.5 L 35.5 23 Z " /><path fill="rgb(90,123,185)" stroke="rgb(90,123,185)" stroke-width="1" opacity="1" d="M 38.5 23 L 40 23.5 L 38.5 24 L 38.5 23 Z " /><path fill="rgb(90,123,185)" stroke="rgb(90,123,185)" stroke-width="1" opacity="1" d="M 48.5 23 L 50 23.5 L 48.5 24 L 48.5 23 Z " /><path fill="rgb(90,123,185)" stroke="rgb(90,123,185)" stroke-width="1" opacity="1" d="M 8.5 25 L 9 38.5 L 8 38.5 L 8.5 25 Z " /><path fill="rgb(90,123,185)" stroke="rgb(90,123,185)" stroke-width="1" opacity="1" d="M 52.5 25 Q 55 26 53.5 27 Q 51 26 52.5 25 Z " /><path fill="rgb(90,123,185)" stroke="rgb(90,123,185)" stroke-width="1" opacity="1" d="M 44.5 28 L 44 29.5 Q 42.75 34.25 45 35.5 Q 44 37 43 34.5 Q 41.75 29.25 44.5 28 Z " /><path fill="rgb(90,123,185)" stroke="rgb(90,123,185)" stroke-width="1" opacity="1" d="M 46.5 28 L 49 29.5 L 47.5 29 Q 45.13 28.88 46.5 28 Z " /><path fill="rgb(90,123,185)" stroke="rgb(90,123,185)" stroke-width="1" opacity="1" d="M 54.5 28 L 54.5 29 L 54.5 28 Z " /><path fill="rgb(90,123,185)" stroke="rgb(90,123,185)" stroke-width="1" opacity="1" d="M 29.5 29 L 35 29.5 L 29.5 30 L 29.5 29 Z " /><path fill="rgb(90,123,185)" stroke="rgb(90,123,185)" stroke-width="1" opacity="1" d="M 36.5 31 L 37 32.5 L 36 32.5 L 36.5 31 Z " /><path fill="rgb(90,123,185)" stroke="rgb(90,123,185)" stroke-width="1" opacity="1" d="M 49.5 31 L 50 32.5 L 49 32.5 L 49.5 31 Z " /><path fill="rgb(90,123,185)" stroke="rgb(90,123,185)" stroke-width="1" opacity="1" d="M 29.5 34 L 35 34.5 L 29.5 35 L 29.5 34 Z " /><path fill="rgb(90,123,185)" stroke="rgb(90,123,185)" stroke-width="1" opacity="1" d="M 48.5 34 Q 50 35 47.5 36 L 46 35.5 L 48.5 34 Z " /><path fill="rgb(90,123,185)" stroke="rgb(90,123,185)" stroke-width="1" opacity="1" d="M 37.5 35 L 38 38.5 L 35.5 41 L 35 40.5 L 36 37.5 L 35.5 36 L 37 36.5 L 37.5 35 Z " /><path fill="rgb(90,123,185)" stroke="rgb(90,123,185)" stroke-width="1" opacity="1" d="M 54.5 35 L 54.5 36 L 54.5 35 Z " /><path fill="rgb(90,123,185)" stroke="rgb(90,123,185)" stroke-width="1" opacity="1" d="M 53.5 37 L 54 37.5 L 51.5 40 L 51 39.5 L 53.5 37 Z " /><path fill="rgb(90,123,185)" stroke="rgb(90,123,185)" stroke-width="1" opacity="1" d="M 23.5 39 Q 26 40 24.5 41 Q 22 40 23.5 39 Z " /><path fill="rgb(90,123,185)" stroke="rgb(90,123,185)" stroke-width="1" opacity="1" d="M 9.5 40 L 9.5 41 L 9.5 40 Z " /><path fill="rgb(90,123,185)" stroke="rgb(90,123,185)" stroke-width="1" opacity="1" d="M 38.5 40 L 38.5 41 L 38.5 40 Z " /><path fill="rgb(90,123,185)" stroke="rgb(90,123,185)" stroke-width="1" opacity="1" d="M 48.5 40 L 50 40.5 L 48.5 41 L 48.5 40 Z " /><path fill="rgb(21,77,159)" stroke="rgb(21,77,159)" stroke-width="1" opacity="1" d="M 45 29 Q 48 28 47 31 Q 44 32 45 29 Z " /><path fill="rgb(21,77,159)" stroke="rgb(21,77,159)" stroke-width="1" opacity="1" d="M 45 33 Q 48 32 47 35 Q 44 36 45 33 Z " /><path fill="rgb(21,77,159)" stroke="rgb(21,77,159)" stroke-width="1" opacity="1" d="M 15 35 Q 18 34 17 37 Q 14 38 15 35 Z " /><path fill="rgb(164,177,215)" stroke="rgb(164,177,215)" stroke-width="1" opacity="1" d="M 24.5 24 L 24.5 25 L 24.5 24 Z " /><path fill="rgb(164,177,215)" stroke="rgb(164,177,215)" stroke-width="1" opacity="1" d="M 35.5 24 L 35.5 25 L 35.5 24 Z " /><path fill="rgb(164,177,215)" stroke="rgb(164,177,215)" stroke-width="1" opacity="1" d="M 49.5 24 L 49.5 25 L 49.5 24 Z " /><path fill="rgb(164,177,215)" stroke="rgb(164,177,215)" stroke-width="1" opacity="1" d="M 9.5 25 L 10 26.5 L 9 26.5 L 9.5 25 Z " /><path fill="rgb(164,177,215)" stroke="rgb(164,177,215)" stroke-width="1" opacity="1" d="M 21.5 25 L 21.5 26 L 21.5 25 Z " /><path fill="rgb(164,177,215)" stroke="rgb(164,177,215)" stroke-width="1" opacity="1" d="M 14.5 27 L 14.5 28 L 14.5 27 Z " /><path fill="rgb(164,177,215)" stroke="rgb(164,177,215)" stroke-width="1" opacity="1" d="M 44.5 27 L 47 27.5 L 44.5 28 L 44.5 27 Z " /><path fill="rgb(164,177,215)" stroke="rgb(164,177,215)" stroke-width="1" opacity="1" d="M 38.5 28 L 38.5 29 L 38.5 28 Z " /><path fill="rgb(164,177,215)" stroke="rgb(164,177,215)" stroke-width="1" opacity="1" d="M 48.5 28 Q 51 29 49.5 30 Q 47 29 48.5 28 Z " /><path fill="rgb(164,177,215)" stroke="rgb(164,177,215)" stroke-width="1" opacity="1" d="M 28.5 29 L 28.5 30 L 28.5 29 Z " /><path fill="rgb(164,177,215)" stroke="rgb(164,177,215)" stroke-width="1" opacity="1" d="M 42.5 29 L 43 34.5 L 42 34.5 L 42.5 29 Z " /><path fill="rgb(164,177,215)" stroke="rgb(164,177,215)" stroke-width="1" opacity="1" d="M 20.5 30 Q 23 31 21.5 32 Q 19 31 20.5 30 Z " /><path fill="rgb(164,177,215)" stroke="rgb(164,177,215)" stroke-width="1" opacity="1" d="M 20.5 33 L 20.5 34 L 20.5 33 Z " /><path fill="rgb(164,177,215)" stroke="rgb(164,177,215)" stroke-width="1" opacity="1" d="M 49.5 34 Q 51 35 48.5 36 Q 47 35 49.5 34 Z " /><path fill="rgb(164,177,215)" stroke="rgb(164,177,215)" stroke-width="1" opacity="1" d="M 38.5 35 L 38.5 36 L 38.5 35 Z " /><path fill="rgb(164,177,215)" stroke="rgb(164,177,215)" stroke-width="1" opacity="1" d="M 44.5 36 L 47 36.5 L 44.5 37 L 44.5 36 Z " /><path fill="rgb(164,177,215)" stroke="rgb(164,177,215)" stroke-width="1" opacity="1" d="M 9.5 37 L 10 38.5 L 9 38.5 L 9.5 37 Z " /><path fill="rgb(164,177,215)" stroke="rgb(164,177,215)" stroke-width="1" opacity="1" d="M 13.5 39 L 13.5 40 L 13.5 39 Z " /><path fill="rgb(164,177,215)" stroke="rgb(164,177,215)" stroke-width="1" opacity="1" d="M 35.5 39 L 35.5 40 L 35.5 39 Z " /><path fill="rgb(164,177,215)" stroke="rgb(164,177,215)" stroke-width="1" opacity="1" d="M 49.5 39 L 49.5 40 L 49.5 39 Z " /><path fill="rgb(27,81,161)" stroke="rgb(27,81,161)" stroke-width="1" opacity="1" d="M 47.5 30 L 48 32.5 L 47 32.5 L 47.5 30 Z " /><path fill="rgb(27,81,161)" stroke="rgb(27,81,161)" stroke-width="1" opacity="1" d="M 21.5 35 L 22 36.5 L 21 36.5 L 21.5 35 Z " /><path fill="rgb(27,81,161)" stroke="rgb(27,81,161)" stroke-width="1" opacity="1" d="M 17.5 36 Q 19 37 16.5 38 Q 15 37 17.5 36 Z " /><path fill="rgb(27,81,161)" stroke="rgb(27,81,161)" stroke-width="1" opacity="1" d="M 19.5 36 L 19.5 37 L 19.5 36 Z " /><path fill="rgb(39,90,166)" stroke="rgb(39,90,166)" stroke-width="1" opacity="1" d="M 10.5 19 L 11 20.5 L 10 20.5 L 10.5 19 Z " /><path fill="rgb(39,90,166)" stroke="rgb(39,90,166)" stroke-width="1" opacity="1" d="M 24.5 19 L 25 20.5 L 24 20.5 L 24.5 19 Z " /><path fill="rgb(39,90,166)" stroke="rgb(39,90,166)" stroke-width="1" opacity="1" d="M 35.5 19 L 36 20.5 L 35 20.5 L 35.5 19 Z " /><path fill="rgb(39,90,166)" stroke="rgb(39,90,166)" stroke-width="1" opacity="1" d="M 39.5 19 L 40 20.5 L 39 20.5 L 39.5 19 Z " /><path fill="rgb(39,90,166)" stroke="rgb(39,90,166)" stroke-width="1" opacity="1" d="M 45.5 19 L 48 20.5 L 46.5 21 Q 44 20 45.5 19 Z " /><path fill="rgb(39,90,166)" stroke="rgb(39,90,166)" stroke-width="1" opacity="1" d="M 21.5 20 L 21.5 21 L 21.5 20 Z " /><path fill="rgb(39,90,166)" stroke="rgb(39,90,166)" stroke-width="1" opacity="1" d="M 55.5 25 L 55.5 26 L 55.5 25 Z " /><path fill="rgb(39,90,166)" stroke="rgb(39,90,166)" stroke-width="1" opacity="1" d="M 57.5 28 L 58 29.5 L 57 29.5 L 57.5 28 Z " /><path fill="rgb(39,90,166)" stroke="rgb(39,90,166)" stroke-width="1" opacity="1" d="M 57.5 34 L 58 35.5 L 57 35.5 L 57.5 34 Z " /><path fill="rgb(39,90,166)" stroke="rgb(39,90,166)" stroke-width="1" opacity="1" d="M 20.5 38 L 21 39.5 L 20 39.5 L 20.5 38 Z " /><path fill="rgb(39,90,166)" stroke="rgb(39,90,166)" stroke-width="1" opacity="1" d="M 55.5 38 L 55.5 39 L 55.5 38 Z " /><path fill="rgb(39,90,166)" stroke="rgb(39,90,166)" stroke-width="1" opacity="1" d="M 9.5 42 L 11 44.5 L 10 44.5 L 9.5 42 Z " /><path fill="rgb(39,90,166)" stroke="rgb(39,90,166)" stroke-width="1" opacity="1" d="M 13.5 43 L 14 44.5 L 13 44.5 L 13.5 43 Z " /><path fill="rgb(39,90,166)" stroke="rgb(39,90,166)" stroke-width="1" opacity="1" d="M 24.5 43 L 25 44.5 L 24 44.5 L 24.5 43 Z " /><path fill="rgb(39,90,166)" stroke="rgb(39,90,166)" stroke-width="1" opacity="1" d="M 35.5 43 L 36 44.5 L 35 44.5 L 35.5 43 Z " /><path fill="rgb(39,90,166)" stroke="rgb(39,90,166)" stroke-width="1" opacity="1" d="M 39.5 43 L 40 44.5 L 39 44.5 L 39.5 43 Z " /><path fill="rgb(39,90,166)" stroke="rgb(39,90,166)" stroke-width="1" opacity="1" d="M 46 43 L 48 43.5 Q 47 46 46 44.5 L 46 43 Z " /><path fill="rgb(36,88,165)" stroke="rgb(36,88,165)" stroke-width="1" opacity="1" d="M 48.5 22 L 48.5 23 L 48.5 22 Z " /><path fill="rgb(36,88,165)" stroke="rgb(36,88,165)" stroke-width="1" opacity="1" d="M 52.5 23 L 55 24.5 L 53.5 24 Q 51.12 23.87 52.5 23 Z " /><path fill="rgb(36,88,165)" stroke="rgb(36,88,165)" stroke-width="1" opacity="1" d="M 55 26 L 57 26.5 Q 56 29 55 27.5 L 55 26 Z " /><path fill="rgb(36,88,165)" stroke="rgb(36,88,165)" stroke-width="1" opacity="1" d="M 45.5 31 Q 48 32 46.5 33 Q 43.71 33.67 45.5 31 Z " /><path fill="rgb(36,88,165)" stroke="rgb(36,88,165)" stroke-width="1" opacity="1" d="M 55.5 36 Q 58 37 56.5 38 Q 53.71 38.67 55.5 36 Z " /><path fill="rgb(36,88,165)" stroke="rgb(36,88,165)" stroke-width="1" opacity="1" d="M 54.5 39 Q 56 40 53.5 41 L 52 40.5 L 54.5 39 Z " /><path fill="rgb(36,88,165)" stroke="rgb(36,88,165)" stroke-width="1" opacity="1" d="M 15.5 40 L 17 40.5 L 15.5 41 L 15.5 40 Z " /><path fill="rgb(36,88,165)" stroke="rgb(36,88,165)" stroke-width="1" opacity="1" d="M 48.5 41 L 48.5 42 L 48.5 41 Z " /><path fill="rgb(37,89,166)" stroke="rgb(37,89,166)" stroke-width="1" opacity="1" d="M 11 19 L 20.5 19 L 21 21 L 11.5 21 L 11 19 Z " /><path fill="rgb(37,89,166)" stroke="rgb(37,89,166)" stroke-width="1" opacity="1" d="M 25 19 L 34.5 19 L 35 21 L 25.5 21 L 25 19 Z " /><path fill="rgb(37,89,166)" stroke="rgb(37,89,166)" stroke-width="1" opacity="1" d="M 40 19 L 44.5 19 L 46 20.5 L 40 21 L 40 19 Z " /><path fill="rgb(37,89,166)" stroke="rgb(37,89,166)" stroke-width="1" opacity="1" d="M 51.5 21 L 52 22.5 L 51 22.5 L 51.5 21 Z " /><path fill="rgb(37,89,166)" stroke="rgb(37,89,166)" stroke-width="1" opacity="1" d="M 54.5 23 L 54.5 24 L 54.5 23 Z " /><path fill="rgb(37,89,166)" stroke="rgb(37,89,166)" stroke-width="1" opacity="1" d="M 5 24 L 7 24.5 L 7 40 L 5 39.5 L 5 24 Z " /><path fill="rgb(37,89,166)" stroke="rgb(37,89,166)" stroke-width="1" opacity="1" d="M 54.5 25 L 54.5 26 L 54.5 25 Z " /><path fill="rgb(37,89,166)" stroke="rgb(37,89,166)" stroke-width="1" opacity="1" d="M 57 30 L 59 30 L 59 34 L 57 34 L 57 30 Z " /><path fill="rgb(37,89,166)" stroke="rgb(37,89,166)" stroke-width="1" opacity="1" d="M 20.5 37 L 20.5 38 L 20.5 37 Z " /><path fill="rgb(37,89,166)" stroke="rgb(37,89,166)" stroke-width="1" opacity="1" d="M 54.5 38 L 54.5 39 L 54.5 38 Z " /><path fill="rgb(37,89,166)" stroke="rgb(37,89,166)" stroke-width="1" opacity="1" d="M 21.5 40 L 21.5 41 L 21.5 40 Z " /><path fill="rgb(37,89,166)" stroke="rgb(37,89,166)" stroke-width="1" opacity="1" d="M 54.5 40 L 54.5 41 L 54.5 40 Z " /><path fill="rgb(37,89,166)" stroke="rgb(37,89,166)" stroke-width="1" opacity="1" d="M 51.5 41 L 52 42.5 L 51 42.5 L 51.5 41 Z " /><path fill="rgb(37,89,166)" stroke="rgb(37,89,166)" stroke-width="1" opacity="1" d="M 11 43 Q 14 42 13 45 Q 10 46 11 43 Z " /><path fill="rgb(37,89,166)" stroke="rgb(37,89,166)" stroke-width="1" opacity="1" d="M 25 43 L 34.5 43 L 35 45 L 25.5 45 L 25 43 Z " /><path fill="rgb(37,89,166)" stroke="rgb(37,89,166)" stroke-width="1" opacity="1" d="M 40 43 L 46 43 L 46 45 L 40 45 L 40 43 Z " /><path fill="rgb(40,91,166)" stroke="rgb(40,91,166)" stroke-width="1" opacity="0.7372549019607844" d="M 1.5 0 L 3 0.5 L 1.5 1 L 1.5 0 Z " /><path fill="rgb(40,91,166)" stroke="rgb(40,91,166)" stroke-width="1" opacity="0.7372549019607844" d="M 61.5 0 L 64 0.5 L 61.5 1 L 61.5 0 Z " /><path fill="rgb(40,91,166)" stroke="rgb(40,91,166)" stroke-width="1" opacity="0.7372549019607844" d="M 63.5 4 L 64 59.5 L 63 59.5 L 63.5 4 Z " /><path fill="rgb(40,91,166)" stroke="rgb(40,91,166)" stroke-width="1" opacity="0.7372549019607844" d="M 0.5 63 L 64 63.5 L 0.5 64 L 0.5 63 Z " /></svg>