<svg width="48" height="48" version="1.1" xmlns="http://www.w3.org/2000/svg" desc="Created with imagetracer.js version 1.2.6" ><path fill="rgb(0,0,0)" stroke="rgb(0,0,0)" stroke-width="1" opacity="0" d="M 0 0 L 48 0 L 48 18 L 40.5 18 L 40 16 L 35 16 L 34.5 18 L 26 18 L 25.5 16 L 14.5 16 Q 13.37 18 10 17 L 10 19 L 4.5 19 L 3 22 Q 0.04 22.38 0 21.5 L 0 0 Z " /><path fill="rgb(0,0,0)" stroke="rgb(0,0,0)" stroke-width="1" opacity="0" d="M 21 26 L 36.5 26 L 37 28 L 21.5 28 L 21 26 Z " /><path fill="rgb(0,0,0)" stroke="rgb(0,0,0)" stroke-width="1" opacity="0" d="M 44.5 26 L 44.5 27 L 44.5 26 Z " /><path fill="rgb(0,0,0)" stroke="rgb(0,0,0)" stroke-width="1" opacity="0" d="M 12.5 29 L 12 30.5 Q 10.69 34.67 15.5 33 L 16.5 32 L 21 32 L 21.5 30 L 37 30 L 37.5 32 L 48 32 L 48 48 L 0.5 48 L 0 47.5 L 0 33 Q 3.37 34 4.5 32 L 11 32 L 12.5 29 Z " /><path fill="rgb(49,56,136)" stroke="rgb(49,56,136)" stroke-width="1" opacity="0.047058823529411764" d="M 14.5 18 L 14.5 19 L 14.5 18 Z " /><path fill="rgb(49,56,136)" stroke="rgb(49,56,136)" stroke-width="1" opacity="0.047058823529411764" d="M 31.5 18 L 31.5 19 L 31.5 18 Z " /><path fill="rgb(49,56,136)" stroke="rgb(49,56,136)" stroke-width="1" opacity="0.047058823529411764" d="M 39.5 18 L 39.5 19 L 39.5 18 Z " /><path fill="rgb(49,56,136)" stroke="rgb(49,56,136)" stroke-width="1" opacity="0.047058823529411764" d="M 18.5 19 L 18.5 20 L 18.5 19 Z " /><path fill="rgb(49,56,136)" stroke="rgb(49,56,136)" stroke-width="1" opacity="0.047058823529411764" d="M 5.5 20 L 5.5 21 L 5.5 20 Z " /><path fill="rgb(49,56,136)" stroke="rgb(49,56,136)" stroke-width="1" opacity="0.047058823529411764" d="M 13.5 21 L 13.5 22 L 13.5 21 Z " /><path fill="rgb(49,56,136)" stroke="rgb(49,56,136)" stroke-width="1" opacity="0.047058823529411764" d="M 2.5 23 L 2.5 24 L 2.5 23 Z " /><path fill="rgb(49,56,136)" stroke="rgb(49,56,136)" stroke-width="1" opacity="0.047058823529411764" d="M 6.5 24 L 6.5 25 L 6.5 24 Z " /><path fill="rgb(49,56,136)" stroke="rgb(49,56,136)" stroke-width="1" opacity="0.047058823529411764" d="M 19.5 25 L 19.5 26 L 19.5 25 Z " /><path fill="rgb(49,56,136)" stroke="rgb(49,56,136)" stroke-width="1" opacity="0.047058823529411764" d="M 21.5 25 L 21.5 26 L 21.5 25 Z " /><path fill="rgb(49,56,136)" stroke="rgb(49,56,136)" stroke-width="1" opacity="0.047058823529411764" d="M 23.5 25 L 23.5 26 L 23.5 25 Z " /><path fill="rgb(49,56,136)" stroke="rgb(49,56,136)" stroke-width="1" opacity="0.047058823529411764" d="M 3.5 26 L 3.5 27 L 3.5 26 Z " /><path fill="rgb(49,56,136)" stroke="rgb(49,56,136)" stroke-width="1" opacity="0.047058823529411764" d="M 44.5 28 L 44.5 29 L 44.5 28 Z " /><path fill="rgb(49,56,136)" stroke="rgb(49,56,136)" stroke-width="1" opacity="0.047058823529411764" d="M 38.5 30 Q 41 31 39.5 32 Q 37 31 38.5 30 Z " /><path fill="rgb(49,56,136)" stroke="rgb(49,56,136)" stroke-width="1" opacity="0.047058823529411764" d="M 47.5 31 L 47.5 32 L 47.5 31 Z " /><path fill="rgb(54,55,132)" stroke="rgb(54,55,132)" stroke-width="1" opacity="0.11372549019607843" d="M 19.5 24 L 19.5 25 L 19.5 24 Z " /><path fill="rgb(44,57,139)" stroke="rgb(44,57,139)" stroke-width="1" opacity="0.3137254901960784" d="M 16.5 17 Q 19 18 17.5 19 L 16.5 18 L 15 18.5 L 16.5 17 Z " /><path fill="rgb(44,57,139)" stroke="rgb(44,57,139)" stroke-width="1" opacity="0.3137254901960784" d="M 38.5 17 L 38.5 18 L 38.5 17 Z " /><path fill="rgb(44,57,139)" stroke="rgb(44,57,139)" stroke-width="1" opacity="0.3137254901960784" d="M 11.5 19 L 11.5 21 L 13 21.5 L 11.5 22 Q 8.5 20.5 11.5 19 Z " /><path fill="rgb(44,57,139)" stroke="rgb(44,57,139)" stroke-width="1" opacity="0.3137254901960784" d="M 20.5 19 L 20.5 20 L 20.5 19 Z " /><path fill="rgb(44,57,139)" stroke="rgb(44,57,139)" stroke-width="1" opacity="0.3137254901960784" d="M 6.5 20 Q 9 21 7.5 22 L 6.5 21 L 5 21.5 L 6.5 20 Z " /><path fill="rgb(44,57,139)" stroke="rgb(44,57,139)" stroke-width="1" opacity="0.3137254901960784" d="M 16.5 20 L 18 20.5 L 16.5 21 L 16.5 20 Z " /><path fill="rgb(44,57,139)" stroke="rgb(44,57,139)" stroke-width="1" opacity="0.3137254901960784" d="M 32.5 20 L 32.5 21 L 32.5 20 Z " /><path fill="rgb(44,57,139)" stroke="rgb(44,57,139)" stroke-width="1" opacity="0.3137254901960784" d="M 38.5 20 L 38.5 21 L 38.5 20 Z " /><path fill="rgb(44,57,139)" stroke="rgb(44,57,139)" stroke-width="1" opacity="0.3137254901960784" d="M 42.5 20 L 42.5 21 L 42.5 20 Z " /><path fill="rgb(44,57,139)" stroke="rgb(44,57,139)" stroke-width="1" opacity="0.3137254901960784" d="M 23.5 21 L 23.5 22 L 23.5 21 Z " /><path fill="rgb(44,57,139)" stroke="rgb(44,57,139)" stroke-width="1" opacity="0.3137254901960784" d="M 25.5 21 Q 28 22 26.5 23 Q 24 22 25.5 21 Z " /><path fill="rgb(44,57,139)" stroke="rgb(44,57,139)" stroke-width="1" opacity="0.3137254901960784" d="M 44.5 21 L 45 22.5 L 44 22.5 L 44.5 21 Z " /><path fill="rgb(44,57,139)" stroke="rgb(44,57,139)" stroke-width="1" opacity="0.3137254901960784" d="M 33.5 22 L 34 24 L 32 23.5 L 33.5 22 Z " /><path fill="rgb(44,57,139)" stroke="rgb(44,57,139)" stroke-width="1" opacity="0.3137254901960784" d="M 36.5 22 L 36.5 23 L 36.5 22 Z " /><path fill="rgb(44,57,139)" stroke="rgb(44,57,139)" stroke-width="1" opacity="0.3137254901960784" d="M 46.5 22 L 46.5 23 L 46.5 22 Z " /><path fill="rgb(44,57,139)" stroke="rgb(44,57,139)" stroke-width="1" opacity="0.3137254901960784" d="M 6.5 23 L 8 23.5 L 6.5 24 L 6.5 23 Z " /><path fill="rgb(44,57,139)" stroke="rgb(44,57,139)" stroke-width="1" opacity="0.3137254901960784" d="M 28.5 23 L 30 23.5 L 28.5 24 L 28.5 23 Z " /><path fill="rgb(44,57,139)" stroke="rgb(44,57,139)" stroke-width="1" opacity="0.3137254901960784" d="M 1.5 24 Q 4 25 2.5 26 L 1.5 25 L 0 25.5 L 1.5 24 Z " /><path fill="rgb(44,57,139)" stroke="rgb(44,57,139)" stroke-width="1" opacity="0.3137254901960784" d="M 21.5 24 L 21.5 25 L 21.5 24 Z " /><path fill="rgb(44,57,139)" stroke="rgb(44,57,139)" stroke-width="1" opacity="0.3137254901960784" d="M 39.5 26 L 42 27.5 L 41.5 29 L 43 29.5 L 39 31 Q 38.25 28.42 40 27.5 L 39.5 26 Z M 41 29 L 41 30 L 41 29 Z " /><path fill="rgb(44,57,139)" stroke="rgb(44,57,139)" stroke-width="1" opacity="0.3137254901960784" d="M 1.5 27 L 3 27.5 L 1.5 28 L 1.5 27 Z " /><path fill="rgb(44,57,139)" stroke="rgb(44,57,139)" stroke-width="1" opacity="0.3137254901960784" d="M 46.5 28 L 46.5 29 L 46.5 28 Z " /><path fill="rgb(45,57,139)" stroke="rgb(45,57,139)" stroke-width="1" opacity="0.8941176470588236" d="M 22.5 17 Q 24 18 21.5 19 Q 20 18 22.5 17 Z " /><path fill="rgb(45,57,139)" stroke="rgb(45,57,139)" stroke-width="1" opacity="0.8941176470588236" d="M 28.5 19 L 28.5 20 L 28.5 19 Z " /><path fill="rgb(45,57,139)" stroke="rgb(45,57,139)" stroke-width="1" opacity="0.8941176470588236" d="M 32.5 19 L 32.5 20 L 32.5 19 Z " /><path fill="rgb(45,57,139)" stroke="rgb(45,57,139)" stroke-width="1" opacity="0.8941176470588236" d="M 36.5 19 L 38 19.5 L 36.5 20 L 36.5 19 Z " /><path fill="rgb(45,57,139)" stroke="rgb(45,57,139)" stroke-width="1" opacity="0.8941176470588236" d="M 40.5 19 L 40.5 20 L 40.5 19 Z " /><path fill="rgb(45,57,139)" stroke="rgb(45,57,139)" stroke-width="1" opacity="0.8941176470588236" d="M 44.5 19 Q 47 20 45.5 21 L 44.5 20 L 43 20.5 L 44.5 19 Z " /><path fill="rgb(45,57,139)" stroke="rgb(45,57,139)" stroke-width="1" opacity="0.8941176470588236" d="M 47.5 19 L 48 21.5 L 47 21.5 L 47.5 19 Z " /><path fill="rgb(45,57,139)" stroke="rgb(45,57,139)" stroke-width="1" opacity="0.8941176470588236" d="M 21 20 L 23 20.5 Q 22 23 21 21.5 L 21 20 Z " /><path fill="rgb(45,57,139)" stroke="rgb(45,57,139)" stroke-width="1" opacity="0.8941176470588236" d="M 25.5 20 L 25.5 21 L 25.5 20 Z " /><path fill="rgb(45,57,139)" stroke="rgb(45,57,139)" stroke-width="1" opacity="0.8941176470588236" d="M 27.5 21 L 27.5 22 L 27.5 21 Z " /><path fill="rgb(45,57,139)" stroke="rgb(45,57,139)" stroke-width="1" opacity="0.8941176470588236" d="M 29.5 21 L 29.5 22 L 29.5 21 Z " /><path fill="rgb(45,57,139)" stroke="rgb(45,57,139)" stroke-width="1" opacity="0.8941176470588236" d="M 31.5 21 L 31.5 22 L 31.5 21 Z " /><path fill="rgb(45,57,139)" stroke="rgb(45,57,139)" stroke-width="1" opacity="0.8941176470588236" d="M 33.5 21 L 33.5 22 L 33.5 21 Z " /><path fill="rgb(45,57,139)" stroke="rgb(45,57,139)" stroke-width="1" opacity="0.8941176470588236" d="M 28.5 24 L 28.5 25 L 28.5 24 Z " /><path fill="rgb(45,57,139)" stroke="rgb(45,57,139)" stroke-width="1" opacity="0.8941176470588236" d="M 32.5 24 L 32.5 25 L 32.5 24 Z " /><path fill="rgb(45,57,139)" stroke="rgb(45,57,139)" stroke-width="1" opacity="0.8941176470588236" d="M 35.5 24 L 37 24.5 L 35.5 25 L 35.5 24 Z " /><path fill="rgb(45,57,139)" stroke="rgb(45,57,139)" stroke-width="1" opacity="0.8941176470588236" d="M 39.5 24 L 41 24.5 L 39.5 25 L 39.5 24 Z " /><path fill="rgb(44,57,139)" stroke="rgb(44,57,139)" stroke-width="1" opacity="0.23921568627450981" d="M 37.5 16 L 37.5 17 L 37.5 16 Z " /><path fill="rgb(44,57,139)" stroke="rgb(44,57,139)" stroke-width="1" opacity="0.23921568627450981" d="M 16.5 18 Q 19 19 17.5 20 Q 15 19 16.5 18 Z " /><path fill="rgb(44,57,139)" stroke="rgb(44,57,139)" stroke-width="1" opacity="0.23921568627450981" d="M 36.5 18 L 36.5 19 L 36.5 18 Z " /><path fill="rgb(44,57,139)" stroke="rgb(44,57,139)" stroke-width="1" opacity="0.23921568627450981" d="M 38.5 18 L 38.5 19 L 38.5 18 Z " /><path fill="rgb(44,57,139)" stroke="rgb(44,57,139)" stroke-width="1" opacity="0.23921568627450981" d="M 12.5 19 L 13 20.5 L 12 20.5 L 12.5 19 Z " /><path fill="rgb(44,57,139)" stroke="rgb(44,57,139)" stroke-width="1" opacity="0.23921568627450981" d="M 6.5 21 Q 9 22 7.5 23 Q 5 22 6.5 21 Z " /><path fill="rgb(44,57,139)" stroke="rgb(44,57,139)" stroke-width="1" opacity="0.23921568627450981" d="M 26.5 21 L 26.5 22 L 26.5 21 Z " /><path fill="rgb(44,57,139)" stroke="rgb(44,57,139)" stroke-width="1" opacity="0.23921568627450981" d="M 36.5 21 L 36.5 22 L 36.5 21 Z " /><path fill="rgb(44,57,139)" stroke="rgb(44,57,139)" stroke-width="1" opacity="0.23921568627450981" d="M 46.5 21 L 46.5 22 L 46.5 21 Z " /><path fill="rgb(44,57,139)" stroke="rgb(44,57,139)" stroke-width="1" opacity="0.23921568627450981" d="M 11.5 22 L 13 22.5 L 11.5 23 L 11.5 22 Z " /><path fill="rgb(44,57,139)" stroke="rgb(44,57,139)" stroke-width="1" opacity="0.23921568627450981" d="M 40.5 22 L 40.5 23 L 40.5 22 Z " /><path fill="rgb(44,57,139)" stroke="rgb(44,57,139)" stroke-width="1" opacity="0.23921568627450981" d="M 26.5 23 L 26.5 24 L 26.5 23 Z " /><path fill="rgb(44,57,139)" stroke="rgb(44,57,139)" stroke-width="1" opacity="0.23921568627450981" d="M 38.5 24 L 38.5 25 L 38.5 24 Z " /><path fill="rgb(44,57,139)" stroke="rgb(44,57,139)" stroke-width="1" opacity="0.23921568627450981" d="M 41.5 24 L 41.5 25 L 41.5 24 Z " /><path fill="rgb(44,57,139)" stroke="rgb(44,57,139)" stroke-width="1" opacity="0.23921568627450981" d="M 1.5 25 Q 4 26 2.5 27 Q -0.29 27.67 1.5 25 Z " /><path fill="rgb(44,57,139)" stroke="rgb(44,57,139)" stroke-width="1" opacity="0.23921568627450981" d="M 28.5 25 L 28.5 26 L 28.5 25 Z " /><path fill="rgb(44,57,139)" stroke="rgb(44,57,139)" stroke-width="1" opacity="0.23921568627450981" d="M 32.5 25 L 32.5 26 L 32.5 25 Z " /><path fill="rgb(44,57,139)" stroke="rgb(44,57,139)" stroke-width="1" opacity="0.23921568627450981" d="M 46.5 27 L 46.5 28 L 46.5 27 Z " /><path fill="rgb(44,57,139)" stroke="rgb(44,57,139)" stroke-width="1" opacity="0.23921568627450981" d="M 47.5 29 L 47.5 30 L 47.5 29 Z " /><path fill="rgb(44,57,139)" stroke="rgb(44,57,139)" stroke-width="1" opacity="0.23921568627450981" d="M 41.5 30 L 41.5 31 L 41.5 30 Z " /><path fill="rgb(45,57,139)" stroke="rgb(45,57,139)" stroke-width="1" opacity="0.7686274509803922" d="M 21.5 17 L 21.5 18 L 21.5 17 Z " /><path fill="rgb(45,57,139)" stroke="rgb(45,57,139)" stroke-width="1" opacity="0.7686274509803922" d="M 23.5 17 L 23.5 18 L 23.5 17 Z " /><path fill="rgb(45,57,139)" stroke="rgb(45,57,139)" stroke-width="1" opacity="0.7686274509803922" d="M 37.5 18 L 37.5 19 L 37.5 18 Z " /><path fill="rgb(45,57,139)" stroke="rgb(45,57,139)" stroke-width="1" opacity="0.7686274509803922" d="M 21.5 19 L 21.5 20 L 21.5 19 Z " /><path fill="rgb(45,57,139)" stroke="rgb(45,57,139)" stroke-width="1" opacity="0.7686274509803922" d="M 25.5 19 L 25.5 20 L 25.5 19 Z " /><path fill="rgb(45,57,139)" stroke="rgb(45,57,139)" stroke-width="1" opacity="0.7686274509803922" d="M 29.5 19 L 30 20.5 Q 27.58 21.58 27.5 25 L 27 22.5 L 28 21.5 L 27.5 20 L 29 20.5 L 29.5 19 Z " /><path fill="rgb(45,57,139)" stroke="rgb(45,57,139)" stroke-width="1" opacity="0.7686274509803922" d="M 43.5 19 L 43.5 20 L 43.5 19 Z " /><path fill="rgb(45,57,139)" stroke="rgb(45,57,139)" stroke-width="1" opacity="0.7686274509803922" d="M 45.5 19 L 47 19.5 L 45.5 20 L 45.5 19 Z " /><path fill="rgb(45,57,139)" stroke="rgb(45,57,139)" stroke-width="1" opacity="0.7686274509803922" d="M 31.5 20 L 32.5 21 L 34 20.5 Q 31.58 21.58 31.5 25 L 31 22.5 L 32 21.5 L 31.5 20 Z " /><path fill="rgb(45,57,139)" stroke="rgb(45,57,139)" stroke-width="1" opacity="0.7686274509803922" d="M 35.5 20 L 35.5 21 L 35.5 20 Z " /><path fill="rgb(45,57,139)" stroke="rgb(45,57,139)" stroke-width="1" opacity="0.7686274509803922" d="M 37.5 20 L 38 21.5 L 37 21.5 L 37.5 20 Z " /><path fill="rgb(45,57,139)" stroke="rgb(45,57,139)" stroke-width="1" opacity="0.7686274509803922" d="M 39.5 20 L 39.5 21 L 39.5 20 Z " /><path fill="rgb(45,57,139)" stroke="rgb(45,57,139)" stroke-width="1" opacity="0.7686274509803922" d="M 41.5 20 L 42 22.5 L 41 22.5 L 41.5 20 Z " /><path fill="rgb(45,57,139)" stroke="rgb(45,57,139)" stroke-width="1" opacity="0.7686274509803922" d="M 24.5 21 L 25 24.5 L 24 24.5 L 24.5 21 Z " /><path fill="rgb(45,57,139)" stroke="rgb(45,57,139)" stroke-width="1" opacity="0.7686274509803922" d="M 45.5 21 L 45.5 22 L 45.5 21 Z " /><path fill="rgb(45,57,139)" stroke="rgb(45,57,139)" stroke-width="1" opacity="0.7686274509803922" d="M 47.5 22 L 48 23.5 L 47 23.5 L 47.5 22 Z " /><path fill="rgb(45,57,139)" stroke="rgb(45,57,139)" stroke-width="1" opacity="0.7686274509803922" d="M 20.5 24 L 20.5 25 L 20.5 24 Z " /><path fill="rgb(44,57,139)" stroke="rgb(44,57,139)" stroke-width="1" opacity="0.6235294117647059" d="M 37.5 17 L 37.5 18 L 37.5 17 Z " /><path fill="rgb(44,57,139)" stroke="rgb(44,57,139)" stroke-width="1" opacity="0.6235294117647059" d="M 22.5 18 L 22.5 19 L 22.5 18 Z " /><path fill="rgb(44,57,139)" stroke="rgb(44,57,139)" stroke-width="1" opacity="0.6235294117647059" d="M 26.5 19 L 27 20.5 L 26 20.5 L 26.5 19 Z " /><path fill="rgb(44,57,139)" stroke="rgb(44,57,139)" stroke-width="1" opacity="0.6235294117647059" d="M 31.5 19 L 31.5 20 L 31.5 19 Z " /><path fill="rgb(44,57,139)" stroke="rgb(44,57,139)" stroke-width="1" opacity="0.6235294117647059" d="M 33.5 19 L 33.5 20 L 33.5 19 Z " /><path fill="rgb(44,57,139)" stroke="rgb(44,57,139)" stroke-width="1" opacity="0.6235294117647059" d="M 35.5 19 L 35.5 20 L 35.5 19 Z " /><path fill="rgb(44,57,139)" stroke="rgb(44,57,139)" stroke-width="1" opacity="0.6235294117647059" d="M 39.5 19 L 39.5 20 L 39.5 19 Z " /><path fill="rgb(44,57,139)" stroke="rgb(44,57,139)" stroke-width="1" opacity="0.6235294117647059" d="M 41.5 19 L 41.5 20 L 41.5 19 Z " /><path fill="rgb(44,57,139)" stroke="rgb(44,57,139)" stroke-width="1" opacity="0.6235294117647059" d="M 24.5 20 L 24.5 21 L 24.5 20 Z " /><path fill="rgb(44,57,139)" stroke="rgb(44,57,139)" stroke-width="1" opacity="0.6235294117647059" d="M 44.5 20 L 44 21.5 L 42.5 25 L 38.5 23 Q 37.37 25 34 24 L 34 21 L 35.5 21 L 35.5 23 L 39.5 21 L 39.5 23 Q 43.88 24.5 43 21.5 L 44.5 20 Z " /><path fill="rgb(44,57,139)" stroke="rgb(44,57,139)" stroke-width="1" opacity="0.6235294117647059" d="M 46.5 20 L 46.5 21 L 46.5 20 Z " /><path fill="rgb(44,57,139)" stroke="rgb(44,57,139)" stroke-width="1" opacity="0.6235294117647059" d="M 22.5 21 L 22.5 22 L 22.5 21 Z " /><path fill="rgb(44,57,139)" stroke="rgb(44,57,139)" stroke-width="1" opacity="0.6235294117647059" d="M 30.5 21 L 30.5 22 L 30.5 21 Z " /><path fill="rgb(44,57,139)" stroke="rgb(44,57,139)" stroke-width="1" opacity="0.6235294117647059" d="M 20.5 22 L 21 23.5 L 20 23.5 L 20.5 22 Z " /><path fill="rgb(44,57,139)" stroke="rgb(44,57,139)" stroke-width="1" opacity="0.6235294117647059" d="M 45.5 22 L 46 23.5 L 45 23.5 L 45.5 22 Z " /><path fill="rgb(44,57,139)" stroke="rgb(44,57,139)" stroke-width="1" opacity="0.6235294117647059" d="M 29.5 24 L 29.5 25 L 29.5 24 Z " /><path fill="rgb(44,57,139)" stroke="rgb(44,57,139)" stroke-width="1" opacity="0.6235294117647059" d="M 47.5 24 L 47.5 25 L 47.5 24 Z " /><path fill="rgb(44,57,139)" stroke="rgb(44,57,139)" stroke-width="1" opacity="0.4588235294117647" d="M 23.5 18 Q 26.5 19.5 23.5 21 L 23.5 18 Z " /><path fill="rgb(44,57,139)" stroke="rgb(44,57,139)" stroke-width="1" opacity="0.4588235294117647" d="M 27.5 19 Q 30 20 28.5 21 Q 26 20 27.5 19 Z " /><path fill="rgb(44,57,139)" stroke="rgb(44,57,139)" stroke-width="1" opacity="0.4588235294117647" d="M 20.5 20 L 22 23.5 L 21 23.5 L 20.5 20 Z " /><path fill="rgb(44,57,139)" stroke="rgb(44,57,139)" stroke-width="1" opacity="0.4588235294117647" d="M 30.5 20 L 30.5 21 L 30.5 20 Z " /><path fill="rgb(44,57,139)" stroke="rgb(44,57,139)" stroke-width="1" opacity="0.4588235294117647" d="M 34.5 20 L 34.5 21 L 34.5 20 Z " /><path fill="rgb(44,57,139)" stroke="rgb(44,57,139)" stroke-width="1" opacity="0.4588235294117647" d="M 36.5 20 L 36.5 21 L 36.5 20 Z " /><path fill="rgb(44,57,139)" stroke="rgb(44,57,139)" stroke-width="1" opacity="0.4588235294117647" d="M 40.5 20 L 40.5 21 L 40.5 20 Z " /><path fill="rgb(44,57,139)" stroke="rgb(44,57,139)" stroke-width="1" opacity="0.4588235294117647" d="M 38.5 21 L 40 22.5 L 37.5 25 L 37 24.5 L 39 22.5 L 38.5 21 Z " /><path fill="rgb(44,57,139)" stroke="rgb(44,57,139)" stroke-width="1" opacity="0.4588235294117647" d="M 42.5 21 L 43 23 L 45.5 24 L 47 23.5 L 47 25 L 43 25 L 42.5 21 Z " /><path fill="rgb(44,57,139)" stroke="rgb(44,57,139)" stroke-width="1" opacity="0.4588235294117647" d="M 28.5 22 Q 31.83 20.88 31 23.5 L 29.5 23 Q 27.12 22.88 28.5 22 Z " /><path fill="rgb(44,57,139)" stroke="rgb(44,57,139)" stroke-width="1" opacity="0.4588235294117647" d="M 32.5 22 L 32.5 23 L 32.5 22 Z " /><path fill="rgb(44,57,139)" stroke="rgb(44,57,139)" stroke-width="1" opacity="0.4588235294117647" d="M 35.5 22 L 35.5 23 L 35.5 22 Z " /><path fill="rgb(44,57,139)" stroke="rgb(44,57,139)" stroke-width="1" opacity="0.4588235294117647" d="M 33.5 24 L 35 24.5 L 33.5 25 L 33.5 24 Z " /><path fill="rgb(44,57,139)" stroke="rgb(44,57,139)" stroke-width="1" opacity="0.4588235294117647" d="M 40.5 26 L 42 26.5 L 39.5 28 Q 38 27 40.5 26 Z " /><path fill="rgb(44,57,139)" stroke="rgb(44,57,139)" stroke-width="1" opacity="0.4588235294117647" d="M 41.5 28 L 41.5 29 L 41.5 28 Z " /><path fill="rgb(44,57,139)" stroke="rgb(44,57,139)" stroke-width="1" opacity="0.4588235294117647" d="M 43.5 29 Q 48.31 27.67 47 31 L 42 30.5 L 43.5 29 Z " /><path fill="rgb(42,57,141)" stroke="rgb(42,57,141)" stroke-width="1" opacity="0.00784313725490196" d="M 14.5 21 L 14.5 22 L 14.5 21 Z " /><path fill="rgb(42,57,141)" stroke="rgb(42,57,141)" stroke-width="1" opacity="0.00784313725490196" d="M 8.5 23 L 8.5 24 L 8.5 23 Z " /><path fill="rgb(42,57,141)" stroke="rgb(42,57,141)" stroke-width="1" opacity="0.00784313725490196" d="M 4.5 24 L 4.5 25 L 4.5 24 Z " /><path fill="rgb(42,57,141)" stroke="rgb(42,57,141)" stroke-width="1" opacity="0.00784313725490196" d="M 1.5 28 L 1.5 29 L 1.5 28 Z " /><path fill="rgb(44,57,139)" stroke="rgb(44,57,139)" stroke-width="1" opacity="0.2" d="M 20.5 18 L 20.5 19 L 20.5 18 Z " /><path fill="rgb(44,57,139)" stroke="rgb(44,57,139)" stroke-width="1" opacity="0.2" d="M 28.5 18 L 28.5 19 L 28.5 18 Z " /><path fill="rgb(44,57,139)" stroke="rgb(44,57,139)" stroke-width="1" opacity="0.2" d="M 32.5 18 L 32.5 19 L 32.5 18 Z " /><path fill="rgb(44,57,139)" stroke="rgb(44,57,139)" stroke-width="1" opacity="0.2" d="M 40.5 18 L 40.5 19 L 40.5 18 Z " /><path fill="rgb(44,57,139)" stroke="rgb(44,57,139)" stroke-width="1" opacity="0.2" d="M 15.5 19 L 16 20.5 L 15 20.5 L 15.5 19 Z " /><path fill="rgb(44,57,139)" stroke="rgb(44,57,139)" stroke-width="1" opacity="0.2" d="M 38.5 19 L 38.5 20 L 38.5 19 Z " /><path fill="rgb(44,57,139)" stroke="rgb(44,57,139)" stroke-width="1" opacity="0.2" d="M 11.5 20 L 11.5 21 L 11.5 20 Z " /><path fill="rgb(44,57,139)" stroke="rgb(44,57,139)" stroke-width="1" opacity="0.2" d="M 13.5 20 L 13.5 21 L 13.5 20 Z " /><path fill="rgb(44,57,139)" stroke="rgb(44,57,139)" stroke-width="1" opacity="0.2" d="M 40.5 21 L 40.5 22 L 40.5 21 Z " /><path fill="rgb(44,57,139)" stroke="rgb(44,57,139)" stroke-width="1" opacity="0.2" d="M 5 22 L 7 22.5 Q 6 25 5 23.5 L 5 22 Z " /><path fill="rgb(44,57,139)" stroke="rgb(44,57,139)" stroke-width="1" opacity="0.2" d="M 25.5 22 L 25.5 23 L 25.5 22 Z " /><path fill="rgb(44,57,139)" stroke="rgb(44,57,139)" stroke-width="1" opacity="0.2" d="M 2.5 24 Q 5 25 3.5 26 Q 1 25 2.5 24 Z " /><path fill="rgb(44,57,139)" stroke="rgb(44,57,139)" stroke-width="1" opacity="0.2" d="M 23.5 24 L 23.5 25 L 23.5 24 Z " /><path fill="rgb(44,57,139)" stroke="rgb(44,57,139)" stroke-width="1" opacity="0.2" d="M 30.5 24 L 30.5 25 L 30.5 24 Z " /><path fill="rgb(44,57,139)" stroke="rgb(44,57,139)" stroke-width="1" opacity="0.2" d="M 35.5 25 L 35.5 26 L 35.5 25 Z " /><path fill="rgb(44,57,139)" stroke="rgb(44,57,139)" stroke-width="1" opacity="0.2" d="M 39.5 25 L 41 25.5 L 39.5 26 L 39.5 25 Z " /><path fill="rgb(44,57,139)" stroke="rgb(44,57,139)" stroke-width="1" opacity="0.2" d="M 47.5 30 L 47.5 31 L 47.5 30 Z " /><path fill="rgb(35,58,145)" stroke="rgb(35,58,145)" stroke-width="1" opacity="0.0784313725490196" d="M 15.5 21 L 18 21.5 L 15.5 22 L 15.5 21 Z " /><path fill="rgb(35,58,145)" stroke="rgb(35,58,145)" stroke-width="1" opacity="0.0784313725490196" d="M 13.5 22 L 13.5 23 L 13.5 22 Z " /><path fill="rgb(35,58,145)" stroke="rgb(35,58,145)" stroke-width="1" opacity="0.0784313725490196" d="M 5.5 24 L 5.5 25 L 5.5 24 Z " /><path fill="rgb(45,57,139)" stroke="rgb(45,57,139)" stroke-width="1" opacity="0" d="M 14.5 16 Q 17.13 15.33 16 18 L 14 18.5 L 15 20.5 L 14 20.5 L 12.5 18 L 10 19.5 Q 11.5 23.87 8.5 23 L 9 21.5 L 7 19.5 L 7.5 19 Q 11.25 20 10 17 L 13.5 17 L 14.5 16 Z " /><path fill="rgb(45,57,139)" stroke="rgb(45,57,139)" stroke-width="1" opacity="0" d="M 17.5 16 L 21 16.5 Q 19 17.62 20 21 L 18 20.5 L 19 18.5 L 17 16.5 L 17.5 16 Z " /><path fill="rgb(45,57,139)" stroke="rgb(45,57,139)" stroke-width="1" opacity="0" d="M 24.5 16 Q 26.75 15.25 26 17.5 L 25.5 18 Q 23 17 24.5 16 Z " /><path fill="rgb(45,57,139)" stroke="rgb(45,57,139)" stroke-width="1" opacity="0" d="M 35 16 Q 38 15 37 18 L 34.5 19 L 35 17.5 L 35 16 Z " /><path fill="rgb(45,57,139)" stroke="rgb(45,57,139)" stroke-width="1" opacity="0" d="M 39.5 16 L 40 17.5 L 39 17.5 L 39.5 16 Z " /><path fill="rgb(45,57,139)" stroke="rgb(45,57,139)" stroke-width="1" opacity="0" d="M 27.5 18 L 27.5 19 L 27.5 18 Z " /><path fill="rgb(45,57,139)" stroke="rgb(45,57,139)" stroke-width="1" opacity="0" d="M 30.5 18 L 30.5 19 L 30.5 18 Z " /><path fill="rgb(45,57,139)" stroke="rgb(45,57,139)" stroke-width="1" opacity="0" d="M 42.5 18 L 42.5 19 L 42.5 18 Z " /><path fill="rgb(45,57,139)" stroke="rgb(45,57,139)" stroke-width="1" opacity="0" d="M 4.5 19 L 6 19.5 Q 2.5 21 5 22.5 L 3.5 25 L 3 23 L 0.5 24 L 0 22 L 3 22 L 3 20.5 L 4.5 19 Z " /><path fill="rgb(45,57,139)" stroke="rgb(45,57,139)" stroke-width="1" opacity="0" d="M 23.5 19 L 23.5 20 L 23.5 19 Z " /><path fill="rgb(45,57,139)" stroke="rgb(45,57,139)" stroke-width="1" opacity="0" d="M 22.5 22 L 23 25.5 L 22 25.5 L 22.5 22 Z " /><path fill="rgb(45,57,139)" stroke="rgb(45,57,139)" stroke-width="1" opacity="0" d="M 25.5 25 L 27 25.5 L 25.5 26 L 25.5 25 Z " /><path fill="rgb(45,57,139)" stroke="rgb(45,57,139)" stroke-width="1" opacity="0" d="M 30.5 25 L 30.5 26 L 30.5 25 Z " /><path fill="rgb(45,57,139)" stroke="rgb(45,57,139)" stroke-width="1" opacity="0" d="M 38.5 25 L 39 28 Q 36.33 29.13 37 26.5 L 38.5 25 Z " /><path fill="rgb(45,57,139)" stroke="rgb(45,57,139)" stroke-width="1" opacity="0" d="M 41.5 25 L 41.5 26 L 41.5 25 Z " /><path fill="rgb(45,57,139)" stroke="rgb(45,57,139)" stroke-width="1" opacity="0" d="M 43.5 26 Q 44.5 28 45.5 26 L 48 26.5 Q 46.23 28.56 43 28 L 43.5 26 Z " /><path fill="rgb(45,57,139)" stroke="rgb(45,57,139)" stroke-width="1" opacity="0" d="M 0.5 28 L 0.5 29 L 0.5 28 Z " /><path fill="rgb(45,57,139)" stroke="rgb(45,57,139)" stroke-width="1" opacity="0" d="M 37.5 30 Q 40 31 38.5 32 Q 35.71 32.67 37.5 30 Z " /><path fill="rgb(45,57,139)" stroke="rgb(45,57,139)" stroke-width="1" opacity="0.09019607843137255" d="M 16.5 16 Q 19 17 17.5 18 Q 15 17 16.5 16 Z " /><path fill="rgb(45,57,139)" stroke="rgb(45,57,139)" stroke-width="1" opacity="0.09019607843137255" d="M 21.5 16 L 21.5 17 L 21.5 16 Z " /><path fill="rgb(45,57,139)" stroke="rgb(45,57,139)" stroke-width="1" opacity="0.09019607843137255" d="M 23.5 16 L 27 18.5 L 24 19 L 23.5 16 Z " /><path fill="rgb(45,57,139)" stroke="rgb(45,57,139)" stroke-width="1" opacity="0.09019607843137255" d="M 12.5 18 Q 15 19 13.5 20 Q 11 19 12.5 18 Z " /><path fill="rgb(45,57,139)" stroke="rgb(45,57,139)" stroke-width="1" opacity="0.09019607843137255" d="M 33.5 18 L 34.5 19 L 36 18.5 L 34.5 20 Q 32 19 33.5 18 Z " /><path fill="rgb(45,57,139)" stroke="rgb(45,57,139)" stroke-width="1" opacity="0.09019607843137255" d="M 41.5 18 L 41.5 19 L 41.5 18 Z " /><path fill="rgb(45,57,139)" stroke="rgb(45,57,139)" stroke-width="1" opacity="0.09019607843137255" d="M 43.5 18 L 43.5 19 L 43.5 18 Z " /><path fill="rgb(45,57,139)" stroke="rgb(45,57,139)" stroke-width="1" opacity="0.09019607843137255" d="M 45.5 18 L 47 18.5 L 45.5 19 L 45.5 18 Z " /><path fill="rgb(45,57,139)" stroke="rgb(45,57,139)" stroke-width="1" opacity="0.09019607843137255" d="M 6.5 19 Q 9 20 7.5 21 Q 5 20 6.5 19 Z " /><path fill="rgb(45,57,139)" stroke="rgb(45,57,139)" stroke-width="1" opacity="0.09019607843137255" d="M 10.5 19 L 10.5 20 L 10.5 19 Z " /><path fill="rgb(45,57,139)" stroke="rgb(45,57,139)" stroke-width="1" opacity="0.09019607843137255" d="M 4.5 21 L 4.5 22 L 4.5 21 Z " /><path fill="rgb(45,57,139)" stroke="rgb(45,57,139)" stroke-width="1" opacity="0.09019607843137255" d="M 10.5 21 L 11 22.5 L 10 22.5 L 10.5 21 Z " /><path fill="rgb(45,57,139)" stroke="rgb(45,57,139)" stroke-width="1" opacity="0.09019607843137255" d="M 23.5 22 L 23.5 23 L 23.5 22 Z " /><path fill="rgb(45,57,139)" stroke="rgb(45,57,139)" stroke-width="1" opacity="0.09019607843137255" d="M 1.5 23 Q 3 24 0.5 25 Q -1 24 1.5 23 Z " /><path fill="rgb(45,57,139)" stroke="rgb(45,57,139)" stroke-width="1" opacity="0.09019607843137255" d="M 25.5 23 L 28 25.5 L 27.5 26 L 25 25 L 25.5 23 Z " /><path fill="rgb(45,57,139)" stroke="rgb(45,57,139)" stroke-width="1" opacity="0.09019607843137255" d="M 29.5 25 L 29.5 26 L 29.5 25 Z " /><path fill="rgb(45,57,139)" stroke="rgb(45,57,139)" stroke-width="1" opacity="0.09019607843137255" d="M 33.5 25 L 35 25.5 L 33.5 26 L 33.5 25 Z " /><path fill="rgb(45,57,139)" stroke="rgb(45,57,139)" stroke-width="1" opacity="0.09019607843137255" d="M 37.5 25 L 37.5 26 L 37.5 25 Z " /><path fill="rgb(45,57,139)" stroke="rgb(45,57,139)" stroke-width="1" opacity="0.09019607843137255" d="M 42 25 L 48 25.5 L 43 26 L 44 28.5 L 42 29 L 42 25 Z " /><path fill="rgb(45,57,139)" stroke="rgb(45,57,139)" stroke-width="1" opacity="0.09019607843137255" d="M 45.5 28 L 45.5 29 L 45.5 28 Z " /><path fill="rgb(45,57,139)" stroke="rgb(45,57,139)" stroke-width="1" opacity="0.09019607843137255" d="M 40.5 29 L 40.5 30 L 40.5 29 Z " /><path fill="rgb(45,57,139)" stroke="rgb(45,57,139)" stroke-width="1" opacity="0.09019607843137255" d="M 41.5 31 L 47 31.5 L 41.5 32 L 41.5 31 Z " /><path fill="rgb(44,57,139)" stroke="rgb(44,57,139)" stroke-width="1" opacity="0.1411764705882353" d="M 22.5 16 L 22.5 17 L 22.5 16 Z " /><path fill="rgb(44,57,139)" stroke="rgb(44,57,139)" stroke-width="1" opacity="0.1411764705882353" d="M 38.5 16 L 38.5 17 L 38.5 16 Z " /><path fill="rgb(44,57,139)" stroke="rgb(44,57,139)" stroke-width="1" opacity="0.1411764705882353" d="M 20.5 17 L 20.5 18 L 20.5 17 Z " /><path fill="rgb(44,57,139)" stroke="rgb(44,57,139)" stroke-width="1" opacity="0.1411764705882353" d="M 11.5 18 L 11.5 19 L 11.5 18 Z " /><path fill="rgb(44,57,139)" stroke="rgb(44,57,139)" stroke-width="1" opacity="0.1411764705882353" d="M 18.5 18 L 18.5 19 L 18.5 18 Z " /><path fill="rgb(44,57,139)" stroke="rgb(44,57,139)" stroke-width="1" opacity="0.1411764705882353" d="M 29.5 18 Q 32 19 30.5 20 Q 28 19 29.5 18 Z " /><path fill="rgb(44,57,139)" stroke="rgb(44,57,139)" stroke-width="1" opacity="0.1411764705882353" d="M 44.5 18 L 44.5 19 L 44.5 18 Z " /><path fill="rgb(44,57,139)" stroke="rgb(44,57,139)" stroke-width="1" opacity="0.1411764705882353" d="M 47.5 18 L 47.5 19 L 47.5 18 Z " /><path fill="rgb(44,57,139)" stroke="rgb(44,57,139)" stroke-width="1" opacity="0.1411764705882353" d="M 16.5 19 L 16.5 20 L 16.5 19 Z " /><path fill="rgb(44,57,139)" stroke="rgb(44,57,139)" stroke-width="1" opacity="0.1411764705882353" d="M 22.5 19 L 22.5 20 L 22.5 19 Z " /><path fill="rgb(44,57,139)" stroke="rgb(44,57,139)" stroke-width="1" opacity="0.1411764705882353" d="M 42.5 19 L 42.5 20 L 42.5 19 Z " /><path fill="rgb(44,57,139)" stroke="rgb(44,57,139)" stroke-width="1" opacity="0.1411764705882353" d="M 8.5 21 L 8.5 22 L 8.5 21 Z " /><path fill="rgb(44,57,139)" stroke="rgb(44,57,139)" stroke-width="1" opacity="0.1411764705882353" d="M 23.5 23 L 23.5 24 L 23.5 23 Z " /><path fill="rgb(44,57,139)" stroke="rgb(44,57,139)" stroke-width="1" opacity="0.1411764705882353" d="M 20.5 25 L 20.5 26 L 20.5 25 Z " /><path fill="rgb(44,57,139)" stroke="rgb(44,57,139)" stroke-width="1" opacity="0.1411764705882353" d="M 24.5 25 L 24.5 26 L 24.5 25 Z " /><path fill="rgb(44,57,139)" stroke="rgb(44,57,139)" stroke-width="1" opacity="0.1411764705882353" d="M 31.5 25 L 31.5 26 L 31.5 25 Z " /><path fill="rgb(44,57,139)" stroke="rgb(44,57,139)" stroke-width="1" opacity="0.1411764705882353" d="M 36.5 25 L 36.5 26 L 36.5 25 Z " /><path fill="rgb(44,57,139)" stroke="rgb(44,57,139)" stroke-width="1" opacity="0.1411764705882353" d="M 0.5 26 L 1 27.5 L 0 27.5 L 0.5 26 Z " /><path fill="rgb(44,57,139)" stroke="rgb(44,57,139)" stroke-width="1" opacity="0.1411764705882353" d="M 47.5 27 L 48 28.5 L 47 28.5 L 47.5 27 Z " /><path fill="rgb(44,57,139)" stroke="rgb(44,57,139)" stroke-width="1" opacity="0.1411764705882353" d="M 40.5 31 L 40.5 32 L 40.5 31 Z " /><path fill="rgb(205,32,39)" stroke="rgb(205,32,39)" stroke-width="1" opacity="0.9882352941176471" d="M 16.5 23 L 19 23.5 L 16.5 26 L 11.5 27 L 7.5 31 L 3 31 L 5.5 26 L 11.5 24 L 15.5 24 L 16.5 23 Z " /><path fill="rgb(205,32,39)" stroke="rgb(205,32,39)" stroke-width="1" opacity="0.9882352941176471" d="M 18.5 28 L 19 31 L 15 30.5 L 18.5 28 Z " /><path fill="rgb(205,32,39)" stroke="rgb(205,32,39)" stroke-width="1" opacity="0.7490196078431373" d="M 17.5 22 L 19 22.5 L 17.5 23 L 17.5 22 Z " /><path fill="rgb(205,32,39)" stroke="rgb(205,32,39)" stroke-width="1" opacity="0.7490196078431373" d="M 14.5 23 L 16 23.5 L 14.5 24 L 14.5 23 Z " /><path fill="rgb(205,32,39)" stroke="rgb(205,32,39)" stroke-width="1" opacity="0.7490196078431373" d="M 9.5 24 L 11 24.5 L 9.5 25 L 9.5 24 Z " /><path fill="rgb(205,32,39)" stroke="rgb(205,32,39)" stroke-width="1" opacity="0.7490196078431373" d="M 18.5 24 Q 20 25 17.5 26 Q 16 25 18.5 24 Z " /><path fill="rgb(205,32,39)" stroke="rgb(205,32,39)" stroke-width="1" opacity="0.7490196078431373" d="M 6.5 25 L 6.5 26 L 6.5 25 Z " /><path fill="rgb(205,32,39)" stroke="rgb(205,32,39)" stroke-width="1" opacity="0.7490196078431373" d="M 14.5 26 L 16 26.5 L 14.5 27 L 14.5 26 Z " /><path fill="rgb(205,32,39)" stroke="rgb(205,32,39)" stroke-width="1" opacity="0.7490196078431373" d="M 11.5 27 L 11.5 28 L 11.5 27 Z " /><path fill="rgb(205,32,39)" stroke="rgb(205,32,39)" stroke-width="1" opacity="0.7490196078431373" d="M 18.5 27 Q 20 28 17.5 29 Q 16 28 18.5 27 Z " /><path fill="rgb(205,32,39)" stroke="rgb(205,32,39)" stroke-width="1" opacity="0.7490196078431373" d="M 3.5 28 L 3.5 29 L 3.5 28 Z " /><path fill="rgb(205,32,39)" stroke="rgb(205,32,39)" stroke-width="1" opacity="0.7490196078431373" d="M 2.5 30 L 2.5 31 L 2.5 30 Z " /><path fill="rgb(205,32,39)" stroke="rgb(205,32,39)" stroke-width="1" opacity="0.7490196078431373" d="M 8.5 30 L 8.5 31 L 8.5 30 Z " /><path fill="rgb(204,31,38)" stroke="rgb(204,31,38)" stroke-width="1" opacity="0.19607843137254902" d="M 18.5 21 Q 21.13 20.17 20 23.5 L 19 23.5 L 18.5 21 Z " /><path fill="rgb(204,31,38)" stroke="rgb(204,31,38)" stroke-width="1" opacity="0.19607843137254902" d="M 14.5 22 L 17 22.5 L 7.5 25 L 7.5 24 Q 9.33 22.33 13.5 23 L 14.5 22 Z " /><path fill="rgb(204,31,38)" stroke="rgb(204,31,38)" stroke-width="1" opacity="0.19607843137254902" d="M 4 25 L 6 25.5 L 2 30.5 L 9 31 L 10.5 28 L 15.5 27 L 18.5 25 L 21 26 L 21.5 28 L 38.5 28 L 39 30 L 21.5 30 L 21 32 L 16.5 32 Q 15.37 34 12 33 L 11.5 30 L 11 32 L 4.5 32 Q 3.37 34 0 33 L 0 29 L 1.5 29 Q 4.5 27.87 4 25 Z M 19 27 L 15 31 L 19 31 L 19 27 Z M 13 29 L 13 30 L 13 29 Z " /></svg>