<svg width="48" height="48" version="1.1" xmlns="http://www.w3.org/2000/svg" desc="Created with imagetracer.js version 1.2.6" ><path fill="rgb(72,113,87)" stroke="rgb(72,113,87)" stroke-width="1" opacity="0.9882352941176471" d="M 29.5 1 L 29.5 2 L 29.5 1 Z " /><path fill="rgb(72,113,87)" stroke="rgb(72,113,87)" stroke-width="1" opacity="0.9882352941176471" d="M 23.5 3 L 23.5 4 L 23.5 3 Z " /><path fill="rgb(72,113,87)" stroke="rgb(72,113,87)" stroke-width="1" opacity="0.9882352941176471" d="M 40.5 3 L 40.5 4 L 40.5 3 Z " /><path fill="rgb(72,113,87)" stroke="rgb(72,113,87)" stroke-width="1" opacity="0.9882352941176471" d="M 21.5 4 L 21.5 5 L 21.5 4 Z " /><path fill="rgb(72,113,87)" stroke="rgb(72,113,87)" stroke-width="1" opacity="0.9882352941176471" d="M 24.5 15 L 24.5 16 L 24.5 15 Z " /><path fill="rgb(72,113,87)" stroke="rgb(72,113,87)" stroke-width="1" opacity="0.9882352941176471" d="M 29.5 21 L 29.5 22 L 29.5 21 Z " /><path fill="rgb(72,113,87)" stroke="rgb(72,113,87)" stroke-width="1" opacity="0.9882352941176471" d="M 20.5 22 L 20.5 23 L 20.5 22 Z " /><path fill="rgb(72,113,87)" stroke="rgb(72,113,87)" stroke-width="1" opacity="0.9882352941176471" d="M 28.5 23 L 28.5 24 L 28.5 23 Z " /><path fill="rgb(72,113,87)" stroke="rgb(72,113,87)" stroke-width="1" opacity="0.9882352941176471" d="M 4.5 24 L 4.5 25 L 4.5 24 Z " /><path fill="rgb(72,113,87)" stroke="rgb(72,113,87)" stroke-width="1" opacity="0.9882352941176471" d="M 31.5 26 L 31.5 27 L 31.5 26 Z " /><path fill="rgb(72,113,87)" stroke="rgb(72,113,87)" stroke-width="1" opacity="0.9882352941176471" d="M 42.5 26 L 42.5 27 L 42.5 26 Z " /><path fill="rgb(72,113,87)" stroke="rgb(72,113,87)" stroke-width="1" opacity="0.9882352941176471" d="M 3.5 27 L 3.5 28 L 3.5 27 Z " /><path fill="rgb(72,113,87)" stroke="rgb(72,113,87)" stroke-width="1" opacity="0.9882352941176471" d="M 41.5 28 L 41.5 29 L 41.5 28 Z " /><path fill="rgb(72,113,87)" stroke="rgb(72,113,87)" stroke-width="1" opacity="0.9882352941176471" d="M 27.5 33 L 27.5 34 L 27.5 33 Z " /><path fill="rgb(72,113,87)" stroke="rgb(72,113,87)" stroke-width="1" opacity="0.9882352941176471" d="M 37.5 34 L 37.5 35 L 37.5 34 Z " /><path fill="rgb(72,113,87)" stroke="rgb(72,113,87)" stroke-width="1" opacity="0.9882352941176471" d="M 3.5 38 L 3.5 39 L 3.5 38 Z " /><path fill="rgb(72,113,87)" stroke="rgb(72,113,87)" stroke-width="1" opacity="0.9882352941176471" d="M 32.5 39 L 32.5 40 L 32.5 39 Z " /><path fill="rgb(72,113,87)" stroke="rgb(72,113,87)" stroke-width="1" opacity="0.9882352941176471" d="M 5.5 42 Q 8 43 6.5 44 Q 4 43 5.5 42 Z " /><path fill="rgb(72,113,87)" stroke="rgb(72,113,87)" stroke-width="1" opacity="0.9882352941176471" d="M 28.5 42 L 28.5 43 L 28.5 42 Z " /><path fill="rgb(72,113,87)" stroke="rgb(72,113,87)" stroke-width="1" opacity="0.9882352941176471" d="M 22.5 45 L 22.5 46 L 22.5 45 Z " /><path fill="rgb(72,113,87)" stroke="rgb(72,113,87)" stroke-width="1" opacity="0.9882352941176471" d="M 12.5 46 L 12.5 47 L 12.5 46 Z " /><path fill="rgb(72,113,87)" stroke="rgb(72,113,87)" stroke-width="1" opacity="0.9882352941176471" d="M 18.5 46 L 18.5 47 L 18.5 46 Z " /><path fill="rgb(72,113,87)" stroke="rgb(72,113,87)" stroke-width="1" opacity="1" d="M 30.5 1 L 35.5 1 L 38.5 2 L 43 5.5 L 45 9.5 L 45 13 L 26.5 13 L 24 15.5 L 22 20.5 L 16 29.5 L 15 33 L 3 33 L 3 28.5 L 5 22.5 L 9 15.5 L 18.5 6 L 30.5 1 Z " /><path fill="rgb(72,113,87)" stroke="rgb(72,113,87)" stroke-width="1" opacity="1" d="M 30 20 L 45 20.5 L 40 31.5 L 33.5 39 L 24.5 45 L 18.5 46 L 17.5 47 L 13.5 47 Q 12.75 45.25 9.5 46 L 4 40.5 L 3 37.5 L 26 37 L 30 28.5 L 32.5 26 L 37 26 L 37 24.5 L 38 22 L 30.5 22 L 30 20 Z " /><path fill="rgb(0,0,0)" stroke="rgb(0,0,0)" stroke-width="1" opacity="0" d="M 0 0 L 26 0.5 L 18.5 4 L 10 11.5 L 5 18.5 L 2 25.5 L 1 34.5 L 2 37.5 Q 2.62 43.38 6.5 46 L 10 47.5 L 0 48 L 0 0 Z " /><path fill="rgb(0,0,0)" stroke="rgb(0,0,0)" stroke-width="1" opacity="0" d="M 39.5 0 L 47.5 0 L 48 0.5 L 48 48 L 22 47.5 Q 33.77 43.77 40 34.5 L 46 23.5 L 46 20.5 L 47 18 L 29.5 18 L 29 19.5 L 21.5 32 L 17 31.5 L 25 18.5 L 26 15 L 46.5 15 Q 47.5 15 47 10.5 L 45 5.5 L 40.5 1 Q 38.13 0.87 39.5 0 Z " /><path fill="rgb(0,0,0)" stroke="rgb(0,0,0)" stroke-width="1" opacity="0" d="M 30 23 L 36 23.5 L 31.5 24 L 30 25.5 L 24.5 35 L 25 33.5 L 30 23 Z " /><path fill="rgb(72,113,87)" stroke="rgb(72,113,87)" stroke-width="1" opacity="0.023529411764705882" d="M 26.5 0 L 26.5 1 L 26.5 0 Z " /><path fill="rgb(72,113,87)" stroke="rgb(72,113,87)" stroke-width="1" opacity="0.023529411764705882" d="M 38.5 0 L 38.5 1 L 38.5 0 Z " /><path fill="rgb(72,113,87)" stroke="rgb(72,113,87)" stroke-width="1" opacity="0.023529411764705882" d="M 40.5 1 L 40.5 2 L 40.5 1 Z " /><path fill="rgb(72,113,87)" stroke="rgb(72,113,87)" stroke-width="1" opacity="0.023529411764705882" d="M 18.5 4 L 18.5 5 L 18.5 4 Z " /><path fill="rgb(72,113,87)" stroke="rgb(72,113,87)" stroke-width="1" opacity="0.023529411764705882" d="M 44.5 5 L 44.5 6 L 44.5 5 Z " /><path fill="rgb(72,113,87)" stroke="rgb(72,113,87)" stroke-width="1" opacity="0.023529411764705882" d="M 14.5 7 L 15 7.5 L 10.5 12 L 10 11.5 L 14.5 7 Z " /><path fill="rgb(72,113,87)" stroke="rgb(72,113,87)" stroke-width="1" opacity="0.023529411764705882" d="M 45.5 7 L 45.5 8 L 45.5 7 Z " /><path fill="rgb(72,113,87)" stroke="rgb(72,113,87)" stroke-width="1" opacity="0.023529411764705882" d="M 46.5 10 L 46.5 11 L 46.5 10 Z " /><path fill="rgb(72,113,87)" stroke="rgb(72,113,87)" stroke-width="1" opacity="0.023529411764705882" d="M 27.5 14 L 47 14.5 L 27.5 15 L 27.5 14 Z " /><path fill="rgb(72,113,87)" stroke="rgb(72,113,87)" stroke-width="1" opacity="0.023529411764705882" d="M 7.5 15 L 7.5 16 L 7.5 15 Z " /><path fill="rgb(72,113,87)" stroke="rgb(72,113,87)" stroke-width="1" opacity="0.023529411764705882" d="M 5.5 18 L 5.5 19 L 5.5 18 Z " /><path fill="rgb(72,113,87)" stroke="rgb(72,113,87)" stroke-width="1" opacity="0.023529411764705882" d="M 24.5 18 L 24.5 19 L 24.5 18 Z " /><path fill="rgb(72,113,87)" stroke="rgb(72,113,87)" stroke-width="1" opacity="0.023529411764705882" d="M 29.5 18 L 31 18.5 L 29.5 19 L 29.5 18 Z " /><path fill="rgb(72,113,87)" stroke="rgb(72,113,87)" stroke-width="1" opacity="0.023529411764705882" d="M 46.5 18 L 47 19.5 L 46 19.5 L 46.5 18 Z " /><path fill="rgb(72,113,87)" stroke="rgb(72,113,87)" stroke-width="1" opacity="0.023529411764705882" d="M 4.5 20 L 4.5 21 L 4.5 20 Z " /><path fill="rgb(72,113,87)" stroke="rgb(72,113,87)" stroke-width="1" opacity="0.023529411764705882" d="M 28.5 20 L 28.5 21 L 28.5 20 Z " /><path fill="rgb(72,113,87)" stroke="rgb(72,113,87)" stroke-width="1" opacity="0.023529411764705882" d="M 21.5 23 L 21.5 24 L 21.5 23 Z " /><path fill="rgb(72,113,87)" stroke="rgb(72,113,87)" stroke-width="1" opacity="0.023529411764705882" d="M 45.5 23 L 45.5 24 L 45.5 23 Z " /><path fill="rgb(72,113,87)" stroke="rgb(72,113,87)" stroke-width="1" opacity="0.023529411764705882" d="M 2.5 25 L 2.5 26 L 2.5 25 Z " /><path fill="rgb(72,113,87)" stroke="rgb(72,113,87)" stroke-width="1" opacity="0.023529411764705882" d="M 20.5 25 L 20.5 26 L 20.5 25 Z " /><path fill="rgb(72,113,87)" stroke="rgb(72,113,87)" stroke-width="1" opacity="0.023529411764705882" d="M 25.5 25 L 25.5 26 L 25.5 25 Z " /><path fill="rgb(72,113,87)" stroke="rgb(72,113,87)" stroke-width="1" opacity="0.023529411764705882" d="M 28.5 26 L 28.5 27 L 28.5 26 Z " /><path fill="rgb(72,113,87)" stroke="rgb(72,113,87)" stroke-width="1" opacity="0.023529411764705882" d="M 24.5 27 L 24.5 28 L 24.5 27 Z " /><path fill="rgb(72,113,87)" stroke="rgb(72,113,87)" stroke-width="1" opacity="0.023529411764705882" d="M 28.5 28 L 28.5 29 L 28.5 28 Z " /><path fill="rgb(72,113,87)" stroke="rgb(72,113,87)" stroke-width="1" opacity="0.023529411764705882" d="M 1.5 29 L 2 30.5 L 1 30.5 L 1.5 29 Z " /><path fill="rgb(72,113,87)" stroke="rgb(72,113,87)" stroke-width="1" opacity="0.023529411764705882" d="M 17.5 30 L 17.5 31 L 17.5 30 Z " /><path fill="rgb(72,113,87)" stroke="rgb(72,113,87)" stroke-width="1" opacity="0.023529411764705882" d="M 27.5 30 L 27.5 31 L 27.5 30 Z " /><path fill="rgb(72,113,87)" stroke="rgb(72,113,87)" stroke-width="1" opacity="0.023529411764705882" d="M 25.5 31 L 25.5 32 L 25.5 31 Z " /><path fill="rgb(72,113,87)" stroke="rgb(72,113,87)" stroke-width="1" opacity="0.023529411764705882" d="M 41.5 31 L 41.5 32 L 41.5 31 Z " /><path fill="rgb(72,113,87)" stroke="rgb(72,113,87)" stroke-width="1" opacity="0.023529411764705882" d="M 24.5 33 L 24.5 36 L 2.5 36 L 1.5 37 L 1.5 34 L 3.5 35 L 22.5 35 L 24.5 33 Z " /><path fill="rgb(72,113,87)" stroke="rgb(72,113,87)" stroke-width="1" opacity="0.023529411764705882" d="M 39.5 34 Q 41 35 38.5 36 Q 37 35 39.5 34 Z " /><path fill="rgb(72,113,87)" stroke="rgb(72,113,87)" stroke-width="1" opacity="0.023529411764705882" d="M 32.5 41 Q 34 42 31.5 43 Q 30 42 32.5 41 Z " /><path fill="rgb(72,113,87)" stroke="rgb(72,113,87)" stroke-width="1" opacity="0.023529411764705882" d="M 4.5 43 L 4.5 44 L 4.5 43 Z " /><path fill="rgb(72,113,87)" stroke="rgb(72,113,87)" stroke-width="1" opacity="0.023529411764705882" d="M 28.5 44 L 28.5 45 L 28.5 44 Z " /><path fill="rgb(72,113,87)" stroke="rgb(72,113,87)" stroke-width="1" opacity="0.023529411764705882" d="M 6.5 45 L 6.5 46 L 6.5 45 Z " /><path fill="rgb(72,113,87)" stroke="rgb(72,113,87)" stroke-width="1" opacity="0.023529411764705882" d="M 26.5 45 L 26.5 46 L 26.5 45 Z " /><path fill="rgb(72,113,87)" stroke="rgb(72,113,87)" stroke-width="1" opacity="0.023529411764705882" d="M 24.5 46 L 24.5 47 L 24.5 46 Z " /><path fill="rgb(72,113,87)" stroke="rgb(72,113,87)" stroke-width="1" opacity="0.023529411764705882" d="M 21.5 47 L 21.5 48 L 21.5 47 Z " /><path fill="rgb(72,113,87)" stroke="rgb(72,113,87)" stroke-width="1" opacity="0.7529411764705882" d="M 27.5 1 L 27.5 2 L 27.5 1 Z " /><path fill="rgb(72,113,87)" stroke="rgb(72,113,87)" stroke-width="1" opacity="0.7529411764705882" d="M 24.5 2 L 24.5 3 L 24.5 2 Z " /><path fill="rgb(72,113,87)" stroke="rgb(72,113,87)" stroke-width="1" opacity="0.7529411764705882" d="M 22.5 3 L 22.5 4 L 22.5 3 Z " /><path fill="rgb(72,113,87)" stroke="rgb(72,113,87)" stroke-width="1" opacity="0.7529411764705882" d="M 20.5 4 L 20.5 5 L 20.5 4 Z " /><path fill="rgb(72,113,87)" stroke="rgb(72,113,87)" stroke-width="1" opacity="0.7529411764705882" d="M 42.5 4 L 42.5 5 L 42.5 4 Z " /><path fill="rgb(72,113,87)" stroke="rgb(72,113,87)" stroke-width="1" opacity="0.7529411764705882" d="M 17.5 6 L 17.5 7 L 17.5 6 Z " /><path fill="rgb(72,113,87)" stroke="rgb(72,113,87)" stroke-width="1" opacity="0.7529411764705882" d="M 44.5 7 L 44.5 8 L 44.5 7 Z " /><path fill="rgb(72,113,87)" stroke="rgb(72,113,87)" stroke-width="1" opacity="0.7529411764705882" d="M 45.5 10 L 45.5 11 L 45.5 10 Z " /><path fill="rgb(72,113,87)" stroke="rgb(72,113,87)" stroke-width="1" opacity="0.7529411764705882" d="M 27.5 13 L 46 13.5 L 27.5 14 L 27.5 13 Z " /><path fill="rgb(72,113,87)" stroke="rgb(72,113,87)" stroke-width="1" opacity="0.7529411764705882" d="M 9.5 14 L 9.5 15 L 9.5 14 Z " /><path fill="rgb(72,113,87)" stroke="rgb(72,113,87)" stroke-width="1" opacity="0.7529411764705882" d="M 24.5 16 L 24.5 17 L 24.5 16 Z " /><path fill="rgb(72,113,87)" stroke="rgb(72,113,87)" stroke-width="1" opacity="0.7529411764705882" d="M 30.5 19 Q 32 20 29.5 21 Q 28 20 30.5 19 Z " /><path fill="rgb(72,113,87)" stroke="rgb(72,113,87)" stroke-width="1" opacity="0.7529411764705882" d="M 32.5 19 L 44 19.5 L 32.5 20 L 32.5 19 Z " /><path fill="rgb(72,113,87)" stroke="rgb(72,113,87)" stroke-width="1" opacity="0.7529411764705882" d="M 21.5 21 L 21.5 22 L 21.5 21 Z " /><path fill="rgb(72,113,87)" stroke="rgb(72,113,87)" stroke-width="1" opacity="0.7529411764705882" d="M 28.5 22 L 28.5 23 L 28.5 22 Z " /><path fill="rgb(72,113,87)" stroke="rgb(72,113,87)" stroke-width="1" opacity="0.7529411764705882" d="M 20.5 23 L 20.5 24 L 20.5 23 Z " /><path fill="rgb(72,113,87)" stroke="rgb(72,113,87)" stroke-width="1" opacity="0.7529411764705882" d="M 28.5 24 L 28.5 25 L 28.5 24 Z " /><path fill="rgb(72,113,87)" stroke="rgb(72,113,87)" stroke-width="1" opacity="0.7529411764705882" d="M 31.5 25 L 31.5 26 L 31.5 25 Z " /><path fill="rgb(72,113,87)" stroke="rgb(72,113,87)" stroke-width="1" opacity="0.7529411764705882" d="M 43.5 25 L 43.5 26 L 43.5 25 Z " /><path fill="rgb(72,113,87)" stroke="rgb(72,113,87)" stroke-width="1" opacity="0.7529411764705882" d="M 25.5 27 L 25.5 28 L 25.5 27 Z " /><path fill="rgb(72,113,87)" stroke="rgb(72,113,87)" stroke-width="1" opacity="0.7529411764705882" d="M 17.5 28 L 17.5 29 L 17.5 28 Z " /><path fill="rgb(72,113,87)" stroke="rgb(72,113,87)" stroke-width="1" opacity="0.7529411764705882" d="M 24.5 29 L 26 29.5 L 24.5 30 L 24.5 29 Z " /><path fill="rgb(72,113,87)" stroke="rgb(72,113,87)" stroke-width="1" opacity="0.7529411764705882" d="M 41.5 29 L 41.5 30 L 41.5 29 Z " /><path fill="rgb(72,113,87)" stroke="rgb(72,113,87)" stroke-width="1" opacity="0.7529411764705882" d="M 2.5 30 L 2.5 31 L 2.5 30 Z " /><path fill="rgb(72,113,87)" stroke="rgb(72,113,87)" stroke-width="1" opacity="0.7529411764705882" d="M 16.5 30 L 16.5 31 L 16.5 30 Z " /><path fill="rgb(72,113,87)" stroke="rgb(72,113,87)" stroke-width="1" opacity="0.7529411764705882" d="M 24.5 31 L 24.5 32 L 24.5 31 Z " /><path fill="rgb(72,113,87)" stroke="rgb(72,113,87)" stroke-width="1" opacity="0.7529411764705882" d="M 15.5 32 L 16.5 33 L 23 33.5 L 2.5 34 L 2.5 33 L 14.5 33 L 15.5 32 Z " /><path fill="rgb(72,113,87)" stroke="rgb(72,113,87)" stroke-width="1" opacity="0.7529411764705882" d="M 27.5 32 L 27.5 33 L 27.5 32 Z " /><path fill="rgb(72,113,87)" stroke="rgb(72,113,87)" stroke-width="1" opacity="0.7529411764705882" d="M 3.5 36 L 25 36.5 L 3.5 37 L 3.5 36 Z " /><path fill="rgb(72,113,87)" stroke="rgb(72,113,87)" stroke-width="1" opacity="0.7529411764705882" d="M 35.5 37 Q 37 38 34.5 39 Q 33 38 35.5 37 Z " /><path fill="rgb(72,113,87)" stroke="rgb(72,113,87)" stroke-width="1" opacity="0.7529411764705882" d="M 29.5 42 L 29.5 43 L 29.5 42 Z " /><path fill="rgb(72,113,87)" stroke="rgb(72,113,87)" stroke-width="1" opacity="0.7529411764705882" d="M 10.5 46 L 10.5 47 L 10.5 46 Z " /><path fill="rgb(72,113,87)" stroke="rgb(72,113,87)" stroke-width="1" opacity="0.7529411764705882" d="M 14.5 47 L 17 47.5 L 14.5 48 L 14.5 47 Z " /><path fill="rgb(72,113,87)" stroke="rgb(72,113,87)" stroke-width="1" opacity="0.9568627450980393" d="M 28.5 1 L 28.5 2 L 28.5 1 Z " /><path fill="rgb(72,113,87)" stroke="rgb(72,113,87)" stroke-width="1" opacity="0.9568627450980393" d="M 36.5 1 L 36.5 2 L 36.5 1 Z " /><path fill="rgb(72,113,87)" stroke="rgb(72,113,87)" stroke-width="1" opacity="0.9568627450980393" d="M 25.5 2 L 25.5 3 L 25.5 2 Z " /><path fill="rgb(72,113,87)" stroke="rgb(72,113,87)" stroke-width="1" opacity="0.9568627450980393" d="M 19.5 5 L 19.5 6 L 19.5 5 Z " /><path fill="rgb(72,113,87)" stroke="rgb(72,113,87)" stroke-width="1" opacity="0.9568627450980393" d="M 43.5 6 L 43.5 7 L 43.5 6 Z " /><path fill="rgb(72,113,87)" stroke="rgb(72,113,87)" stroke-width="1" opacity="0.9568627450980393" d="M 15.5 8 L 16 8.5 L 11.5 13 L 11 12.5 L 15.5 8 Z " /><path fill="rgb(72,113,87)" stroke="rgb(72,113,87)" stroke-width="1" opacity="0.9568627450980393" d="M 44.5 8 L 44.5 9 L 44.5 8 Z " /><path fill="rgb(72,113,87)" stroke="rgb(72,113,87)" stroke-width="1" opacity="0.9568627450980393" d="M 8.5 16 L 8.5 17 L 8.5 16 Z " /><path fill="rgb(72,113,87)" stroke="rgb(72,113,87)" stroke-width="1" opacity="0.9568627450980393" d="M 23.5 17 L 23.5 18 L 23.5 17 Z " /><path fill="rgb(72,113,87)" stroke="rgb(72,113,87)" stroke-width="1" opacity="0.9568627450980393" d="M 5.5 21 L 5.5 22 L 5.5 21 Z " /><path fill="rgb(72,113,87)" stroke="rgb(72,113,87)" stroke-width="1" opacity="0.9568627450980393" d="M 44.5 21 L 44.5 22 L 44.5 21 Z " /><path fill="rgb(72,113,87)" stroke="rgb(72,113,87)" stroke-width="1" opacity="0.9568627450980393" d="M 19.5 24 L 19.5 25 L 19.5 24 Z " /><path fill="rgb(72,113,87)" stroke="rgb(72,113,87)" stroke-width="1" opacity="0.9568627450980393" d="M 43.5 24 L 43.5 25 L 43.5 24 Z " /><path fill="rgb(72,113,87)" stroke="rgb(72,113,87)" stroke-width="1" opacity="0.9568627450980393" d="M 27.5 25 Q 29 26 26.5 27 Q 25 26 27.5 25 Z " /><path fill="rgb(72,113,87)" stroke="rgb(72,113,87)" stroke-width="1" opacity="0.9568627450980393" d="M 36.5 25 L 36.5 26 L 36.5 25 Z " /><path fill="rgb(72,113,87)" stroke="rgb(72,113,87)" stroke-width="1" opacity="0.9568627450980393" d="M 25.5 28 L 25.5 29 L 25.5 28 Z " /><path fill="rgb(72,113,87)" stroke="rgb(72,113,87)" stroke-width="1" opacity="0.9568627450980393" d="M 16.5 29 L 16.5 30 L 16.5 29 Z " /><path fill="rgb(72,113,87)" stroke="rgb(72,113,87)" stroke-width="1" opacity="0.9568627450980393" d="M 24.5 30 L 24.5 31 L 24.5 30 Z " /><path fill="rgb(72,113,87)" stroke="rgb(72,113,87)" stroke-width="1" opacity="0.9568627450980393" d="M 40.5 30 L 40.5 31 L 40.5 30 Z " /><path fill="rgb(72,113,87)" stroke="rgb(72,113,87)" stroke-width="1" opacity="0.9568627450980393" d="M 15.5 31 L 15.5 32 L 15.5 31 Z " /><path fill="rgb(72,113,87)" stroke="rgb(72,113,87)" stroke-width="1" opacity="0.9568627450980393" d="M 28.5 31 L 28.5 32 L 28.5 31 Z " /><path fill="rgb(72,113,87)" stroke="rgb(72,113,87)" stroke-width="1" opacity="0.9568627450980393" d="M 23.5 32 L 23.5 33 L 23.5 32 Z " /><path fill="rgb(72,113,87)" stroke="rgb(72,113,87)" stroke-width="1" opacity="0.9568627450980393" d="M 38.5 33 L 38.5 34 L 38.5 33 Z " /><path fill="rgb(72,113,87)" stroke="rgb(72,113,87)" stroke-width="1" opacity="0.9568627450980393" d="M 25.5 36 L 25.5 37 L 25.5 36 Z " /><path fill="rgb(72,113,87)" stroke="rgb(72,113,87)" stroke-width="1" opacity="0.9568627450980393" d="M 31.5 40 L 31.5 41 L 31.5 40 Z " /><path fill="rgb(72,113,87)" stroke="rgb(72,113,87)" stroke-width="1" opacity="0.9568627450980393" d="M 7.5 44 L 7.5 45 L 7.5 44 Z " /><path fill="rgb(72,113,87)" stroke="rgb(72,113,87)" stroke-width="1" opacity="0.9568627450980393" d="M 25.5 44 L 25.5 45 L 25.5 44 Z " /><path fill="rgb(72,113,87)" stroke="rgb(72,113,87)" stroke-width="1" opacity="0.9568627450980393" d="M 11.5 46 L 11.5 47 L 11.5 46 Z " /><path fill="rgb(72,113,87)" stroke="rgb(72,113,87)" stroke-width="1" opacity="0.9568627450980393" d="M 19.5 46 L 19.5 47 L 19.5 46 Z " /><path fill="rgb(72,113,87)" stroke="rgb(72,113,87)" stroke-width="1" opacity="0.8745098039215686" d="M 37.5 1 L 37.5 2 L 37.5 1 Z " /><path fill="rgb(72,113,87)" stroke="rgb(72,113,87)" stroke-width="1" opacity="0.8745098039215686" d="M 39.5 2 L 39.5 3 L 39.5 2 Z " /><path fill="rgb(72,113,87)" stroke="rgb(72,113,87)" stroke-width="1" opacity="0.8745098039215686" d="M 16.5 7 L 16.5 8 L 16.5 7 Z " /><path fill="rgb(72,113,87)" stroke="rgb(72,113,87)" stroke-width="1" opacity="0.8745098039215686" d="M 45.5 11 L 46 12.5 L 45 12.5 L 45.5 11 Z " /><path fill="rgb(72,113,87)" stroke="rgb(72,113,87)" stroke-width="1" opacity="0.8745098039215686" d="M 10.5 13 L 10.5 14 L 10.5 13 Z " /><path fill="rgb(72,113,87)" stroke="rgb(72,113,87)" stroke-width="1" opacity="0.8745098039215686" d="M 26.5 13 Q 28 14 25.5 15 Q 24 14 26.5 13 Z " /><path fill="rgb(72,113,87)" stroke="rgb(72,113,87)" stroke-width="1" opacity="0.8745098039215686" d="M 7.5 17 L 7.5 18 L 7.5 17 Z " /><path fill="rgb(72,113,87)" stroke="rgb(72,113,87)" stroke-width="1" opacity="0.8745098039215686" d="M 6.5 19 L 6.5 20 L 6.5 19 Z " /><path fill="rgb(72,113,87)" stroke="rgb(72,113,87)" stroke-width="1" opacity="0.8745098039215686" d="M 22.5 19 L 22.5 20 L 22.5 19 Z " /><path fill="rgb(72,113,87)" stroke="rgb(72,113,87)" stroke-width="1" opacity="0.8745098039215686" d="M 31.5 19 L 31.5 20 L 31.5 19 Z " /><path fill="rgb(72,113,87)" stroke="rgb(72,113,87)" stroke-width="1" opacity="0.8745098039215686" d="M 44.5 19 L 44.5 20 L 44.5 19 Z " /><path fill="rgb(72,113,87)" stroke="rgb(72,113,87)" stroke-width="1" opacity="0.8745098039215686" d="M 29.5 22 L 29.5 23 L 29.5 22 Z " /><path fill="rgb(72,113,87)" stroke="rgb(72,113,87)" stroke-width="1" opacity="0.8745098039215686" d="M 37.5 22 L 38 23.5 L 37 23.5 L 37.5 22 Z " /><path fill="rgb(72,113,87)" stroke="rgb(72,113,87)" stroke-width="1" opacity="0.8745098039215686" d="M 44.5 22 L 44.5 23 L 44.5 22 Z " /><path fill="rgb(72,113,87)" stroke="rgb(72,113,87)" stroke-width="1" opacity="0.8745098039215686" d="M 4.5 23 L 4.5 24 L 4.5 23 Z " /><path fill="rgb(72,113,87)" stroke="rgb(72,113,87)" stroke-width="1" opacity="0.8745098039215686" d="M 27.5 24 L 27.5 25 L 27.5 24 Z " /><path fill="rgb(72,113,87)" stroke="rgb(72,113,87)" stroke-width="1" opacity="0.8745098039215686" d="M 32.5 25 L 36 25.5 L 32.5 26 L 32.5 25 Z " /><path fill="rgb(72,113,87)" stroke="rgb(72,113,87)" stroke-width="1" opacity="0.8745098039215686" d="M 3.5 26 L 3.5 27 L 3.5 26 Z " /><path fill="rgb(72,113,87)" stroke="rgb(72,113,87)" stroke-width="1" opacity="0.8745098039215686" d="M 18.5 26 L 18.5 27 L 18.5 26 Z " /><path fill="rgb(72,113,87)" stroke="rgb(72,113,87)" stroke-width="1" opacity="0.8745098039215686" d="M 26.5 27 L 26.5 28 L 26.5 27 Z " /><path fill="rgb(72,113,87)" stroke="rgb(72,113,87)" stroke-width="1" opacity="0.8745098039215686" d="M 30.5 27 L 30.5 28 L 30.5 27 Z " /><path fill="rgb(72,113,87)" stroke="rgb(72,113,87)" stroke-width="1" opacity="0.8745098039215686" d="M 42.5 27 L 42.5 28 L 42.5 27 Z " /><path fill="rgb(72,113,87)" stroke="rgb(72,113,87)" stroke-width="1" opacity="0.8745098039215686" d="M 29.5 29 L 29.5 30 L 29.5 29 Z " /><path fill="rgb(72,113,87)" stroke="rgb(72,113,87)" stroke-width="1" opacity="0.8745098039215686" d="M 2.5 31 L 3 32.5 L 2 32.5 L 2.5 31 Z " /><path fill="rgb(72,113,87)" stroke="rgb(72,113,87)" stroke-width="1" opacity="0.8745098039215686" d="M 23.5 31 L 23.5 32 L 23.5 31 Z " /><path fill="rgb(72,113,87)" stroke="rgb(72,113,87)" stroke-width="1" opacity="0.8745098039215686" d="M 39.5 32 L 39.5 33 L 39.5 32 Z " /><path fill="rgb(72,113,87)" stroke="rgb(72,113,87)" stroke-width="1" opacity="0.8745098039215686" d="M 26.5 34 L 26.5 35 L 26.5 34 Z " /><path fill="rgb(72,113,87)" stroke="rgb(72,113,87)" stroke-width="1" opacity="0.8745098039215686" d="M 3.5 39 L 3.5 40 L 3.5 39 Z " /><path fill="rgb(72,113,87)" stroke="rgb(72,113,87)" stroke-width="1" opacity="0.8745098039215686" d="M 4.5 41 L 4.5 42 L 4.5 41 Z " /><path fill="rgb(72,113,87)" stroke="rgb(72,113,87)" stroke-width="1" opacity="0.8745098039215686" d="M 30.5 41 L 30.5 42 L 30.5 41 Z " /><path fill="rgb(72,113,87)" stroke="rgb(72,113,87)" stroke-width="1" opacity="0.8745098039215686" d="M 27.5 43 L 27.5 44 L 27.5 43 Z " /><path fill="rgb(72,113,87)" stroke="rgb(72,113,87)" stroke-width="1" opacity="0.8745098039215686" d="M 8.5 45 L 8.5 46 L 8.5 45 Z " /><path fill="rgb(72,113,87)" stroke="rgb(72,113,87)" stroke-width="1" opacity="0.8745098039215686" d="M 23.5 45 L 23.5 46 L 23.5 45 Z " /><path fill="rgb(72,113,87)" stroke="rgb(72,113,87)" stroke-width="1" opacity="0.8745098039215686" d="M 20.5 46 L 20.5 47 L 20.5 46 Z " /><path fill="rgb(72,113,87)" stroke="rgb(72,113,87)" stroke-width="1" opacity="0.403921568627451" d="M 29.5 0 L 29.5 1 L 29.5 0 Z " /><path fill="rgb(72,113,87)" stroke="rgb(72,113,87)" stroke-width="1" opacity="0.403921568627451" d="M 35.5 0 L 35.5 1 L 35.5 0 Z " /><path fill="rgb(72,113,87)" stroke="rgb(72,113,87)" stroke-width="1" opacity="0.403921568627451" d="M 23.5 2 L 23.5 3 L 23.5 2 Z " /><path fill="rgb(72,113,87)" stroke="rgb(72,113,87)" stroke-width="1" opacity="0.403921568627451" d="M 40.5 2 L 40.5 3 L 40.5 2 Z " /><path fill="rgb(72,113,87)" stroke="rgb(72,113,87)" stroke-width="1" opacity="0.403921568627451" d="M 21.5 3 L 21.5 4 L 21.5 3 Z " /><path fill="rgb(72,113,87)" stroke="rgb(72,113,87)" stroke-width="1" opacity="0.403921568627451" d="M 15.5 7 L 16 7.5 L 10.5 13 L 10 12.5 L 15.5 7 Z " /><path fill="rgb(72,113,87)" stroke="rgb(72,113,87)" stroke-width="1" opacity="0.403921568627451" d="M 25.5 15 L 25.5 16 L 25.5 15 Z " /><path fill="rgb(72,113,87)" stroke="rgb(72,113,87)" stroke-width="1" opacity="0.403921568627451" d="M 7.5 16 L 7.5 17 L 7.5 16 Z " /><path fill="rgb(72,113,87)" stroke="rgb(72,113,87)" stroke-width="1" opacity="0.403921568627451" d="M 28.5 21 L 28.5 22 L 28.5 21 Z " /><path fill="rgb(72,113,87)" stroke="rgb(72,113,87)" stroke-width="1" opacity="0.403921568627451" d="M 21.5 22 L 21.5 23 L 21.5 22 Z " /><path fill="rgb(72,113,87)" stroke="rgb(72,113,87)" stroke-width="1" opacity="0.403921568627451" d="M 27.5 23 L 27.5 24 L 27.5 23 Z " /><path fill="rgb(72,113,87)" stroke="rgb(72,113,87)" stroke-width="1" opacity="0.403921568627451" d="M 29.5 23 L 29.5 24 L 29.5 23 Z " /><path fill="rgb(72,113,87)" stroke="rgb(72,113,87)" stroke-width="1" opacity="0.403921568627451" d="M 3.5 24 L 3.5 25 L 3.5 24 Z " /><path fill="rgb(72,113,87)" stroke="rgb(72,113,87)" stroke-width="1" opacity="0.403921568627451" d="M 30.5 26 L 30.5 27 L 30.5 26 Z " /><path fill="rgb(72,113,87)" stroke="rgb(72,113,87)" stroke-width="1" opacity="0.403921568627451" d="M 43.5 26 L 43.5 27 L 43.5 26 Z " /><path fill="rgb(72,113,87)" stroke="rgb(72,113,87)" stroke-width="1" opacity="0.403921568627451" d="M 18.5 27 L 18.5 28 L 18.5 27 Z " /><path fill="rgb(72,113,87)" stroke="rgb(72,113,87)" stroke-width="1" opacity="0.403921568627451" d="M 2.5 28 L 2.5 29 L 2.5 28 Z " /><path fill="rgb(72,113,87)" stroke="rgb(72,113,87)" stroke-width="1" opacity="0.403921568627451" d="M 24.5 28 L 24.5 29 L 24.5 28 Z " /><path fill="rgb(72,113,87)" stroke="rgb(72,113,87)" stroke-width="1" opacity="0.403921568627451" d="M 26.5 28 L 26.5 29 L 26.5 28 Z " /><path fill="rgb(72,113,87)" stroke="rgb(72,113,87)" stroke-width="1" opacity="0.403921568627451" d="M 42.5 28 L 42.5 29 L 42.5 28 Z " /><path fill="rgb(72,113,87)" stroke="rgb(72,113,87)" stroke-width="1" opacity="0.403921568627451" d="M 17.5 29 L 17.5 30 L 17.5 29 Z " /><path fill="rgb(72,113,87)" stroke="rgb(72,113,87)" stroke-width="1" opacity="0.403921568627451" d="M 23.5 30 L 23.5 31 L 23.5 30 Z " /><path fill="rgb(72,113,87)" stroke="rgb(72,113,87)" stroke-width="1" opacity="0.403921568627451" d="M 25.5 30 L 25.5 31 L 25.5 30 Z " /><path fill="rgb(72,113,87)" stroke="rgb(72,113,87)" stroke-width="1" opacity="0.403921568627451" d="M 41.5 30 L 41.5 31 L 41.5 30 Z " /><path fill="rgb(72,113,87)" stroke="rgb(72,113,87)" stroke-width="1" opacity="0.403921568627451" d="M 27.5 31 L 27.5 32 L 27.5 31 Z " /><path fill="rgb(72,113,87)" stroke="rgb(72,113,87)" stroke-width="1" opacity="0.403921568627451" d="M 16.5 32 L 16.5 33 L 16.5 32 Z " /><path fill="rgb(72,113,87)" stroke="rgb(72,113,87)" stroke-width="1" opacity="0.403921568627451" d="M 26.5 33 L 26.5 34 L 26.5 33 Z " /><path fill="rgb(72,113,87)" stroke="rgb(72,113,87)" stroke-width="1" opacity="0.403921568627451" d="M 38.5 34 L 38.5 35 L 38.5 34 Z " /><path fill="rgb(72,113,87)" stroke="rgb(72,113,87)" stroke-width="1" opacity="0.403921568627451" d="M 2.5 36 L 2.5 37 L 2.5 36 Z " /><path fill="rgb(72,113,87)" stroke="rgb(72,113,87)" stroke-width="1" opacity="0.403921568627451" d="M 31.5 41 L 31.5 42 L 31.5 41 Z " /><path fill="rgb(72,113,87)" stroke="rgb(72,113,87)" stroke-width="1" opacity="0.403921568627451" d="M 4.5 42 L 4.5 43 L 4.5 42 Z " /><path fill="rgb(72,113,87)" stroke="rgb(72,113,87)" stroke-width="1" opacity="0.403921568627451" d="M 7.5 45 L 7.5 46 L 7.5 45 Z " /><path fill="rgb(72,113,87)" stroke="rgb(72,113,87)" stroke-width="1" opacity="0.403921568627451" d="M 9.5 46 L 9.5 47 L 9.5 46 Z " /><path fill="rgb(72,113,87)" stroke="rgb(72,113,87)" stroke-width="1" opacity="0.403921568627451" d="M 22.5 46 L 22.5 47 L 22.5 46 Z " /><path fill="rgb(72,113,87)" stroke="rgb(72,113,87)" stroke-width="1" opacity="0.403921568627451" d="M 12.5 47 L 12.5 48 L 12.5 47 Z " /><path fill="rgb(72,113,87)" stroke="rgb(72,113,87)" stroke-width="1" opacity="0.403921568627451" d="M 18.5 47 L 18.5 48 L 18.5 47 Z " /><path fill="rgb(72,113,87)" stroke="rgb(72,113,87)" stroke-width="1" opacity="0.2549019607843137" d="M 28.5 0 L 28.5 1 L 28.5 0 Z " /><path fill="rgb(72,113,87)" stroke="rgb(72,113,87)" stroke-width="1" opacity="0.2549019607843137" d="M 36.5 0 L 36.5 1 L 36.5 0 Z " /><path fill="rgb(72,113,87)" stroke="rgb(72,113,87)" stroke-width="1" opacity="0.2549019607843137" d="M 25.5 1 L 25.5 2 L 25.5 1 Z " /><path fill="rgb(72,113,87)" stroke="rgb(72,113,87)" stroke-width="1" opacity="0.2549019607843137" d="M 39.5 1 L 39.5 2 L 39.5 1 Z " /><path fill="rgb(72,113,87)" stroke="rgb(72,113,87)" stroke-width="1" opacity="0.2549019607843137" d="M 19.5 4 L 19.5 5 L 19.5 4 Z " /><path fill="rgb(72,113,87)" stroke="rgb(72,113,87)" stroke-width="1" opacity="0.2549019607843137" d="M 16.5 6 L 16.5 7 L 16.5 6 Z " /><path fill="rgb(72,113,87)" stroke="rgb(72,113,87)" stroke-width="1" opacity="0.2549019607843137" d="M 44.5 6 L 44.5 7 L 44.5 6 Z " /><path fill="rgb(72,113,87)" stroke="rgb(72,113,87)" stroke-width="1" opacity="0.2549019607843137" d="M 45.5 8 L 45.5 9 L 45.5 8 Z " /><path fill="rgb(72,113,87)" stroke="rgb(72,113,87)" stroke-width="1" opacity="0.2549019607843137" d="M 9.5 13 L 9.5 14 L 9.5 13 Z " /><path fill="rgb(72,113,87)" stroke="rgb(72,113,87)" stroke-width="1" opacity="0.2549019607843137" d="M 46.5 13 L 46.5 14 L 46.5 13 Z " /><path fill="rgb(72,113,87)" stroke="rgb(72,113,87)" stroke-width="1" opacity="0.2549019607843137" d="M 26.5 14 L 26.5 15 L 26.5 14 Z " /><path fill="rgb(72,113,87)" stroke="rgb(72,113,87)" stroke-width="1" opacity="0.2549019607843137" d="M 24.5 17 L 24.5 18 L 24.5 17 Z " /><path fill="rgb(72,113,87)" stroke="rgb(72,113,87)" stroke-width="1" opacity="0.2549019607843137" d="M 5.5 19 L 5.5 20 L 5.5 19 Z " /><path fill="rgb(72,113,87)" stroke="rgb(72,113,87)" stroke-width="1" opacity="0.2549019607843137" d="M 23.5 19 L 23.5 20 L 23.5 19 Z " /><path fill="rgb(72,113,87)" stroke="rgb(72,113,87)" stroke-width="1" opacity="0.2549019607843137" d="M 29.5 19 L 29.5 20 L 29.5 19 Z " /><path fill="rgb(72,113,87)" stroke="rgb(72,113,87)" stroke-width="1" opacity="0.2549019607843137" d="M 4.5 21 L 4.5 22 L 4.5 21 Z " /><path fill="rgb(72,113,87)" stroke="rgb(72,113,87)" stroke-width="1" opacity="0.2549019607843137" d="M 45.5 21 L 45.5 22 L 45.5 21 Z " /><path fill="rgb(72,113,87)" stroke="rgb(72,113,87)" stroke-width="1" opacity="0.2549019607843137" d="M 36.5 23 L 36.5 24 L 36.5 23 Z " /><path fill="rgb(72,113,87)" stroke="rgb(72,113,87)" stroke-width="1" opacity="0.2549019607843137" d="M 20.5 24 L 20.5 25 L 20.5 24 Z " /><path fill="rgb(72,113,87)" stroke="rgb(72,113,87)" stroke-width="1" opacity="0.2549019607843137" d="M 26.5 24 L 26.5 25 L 26.5 24 Z " /><path fill="rgb(72,113,87)" stroke="rgb(72,113,87)" stroke-width="1" opacity="0.2549019607843137" d="M 44.5 24 L 44.5 25 L 44.5 24 Z " /><path fill="rgb(72,113,87)" stroke="rgb(72,113,87)" stroke-width="1" opacity="0.2549019607843137" d="M 28.5 25 L 28.5 26 L 28.5 25 Z " /><path fill="rgb(72,113,87)" stroke="rgb(72,113,87)" stroke-width="1" opacity="0.2549019607843137" d="M 25.5 26 L 25.5 27 L 25.5 26 Z " /><path fill="rgb(72,113,87)" stroke="rgb(72,113,87)" stroke-width="1" opacity="0.2549019607843137" d="M 2.5 27 L 2.5 28 L 2.5 27 Z " /><path fill="rgb(72,113,87)" stroke="rgb(72,113,87)" stroke-width="1" opacity="0.2549019607843137" d="M 27.5 27 L 27.5 28 L 27.5 27 Z " /><path fill="rgb(72,113,87)" stroke="rgb(72,113,87)" stroke-width="1" opacity="0.2549019607843137" d="M 28.5 29 L 28.5 30 L 28.5 29 Z " /><path fill="rgb(72,113,87)" stroke="rgb(72,113,87)" stroke-width="1" opacity="0.2549019607843137" d="M 16.5 31 L 17.5 32 L 22 32.5 L 17.5 33 Q 15 32 16.5 31 Z " /><path fill="rgb(72,113,87)" stroke="rgb(72,113,87)" stroke-width="1" opacity="0.2549019607843137" d="M 24.5 32 L 24.5 33 L 24.5 32 Z " /><path fill="rgb(72,113,87)" stroke="rgb(72,113,87)" stroke-width="1" opacity="0.2549019607843137" d="M 39.5 33 L 39.5 34 L 39.5 33 Z " /><path fill="rgb(72,113,87)" stroke="rgb(72,113,87)" stroke-width="1" opacity="0.2549019607843137" d="M 2.5 38 L 2.5 39 L 2.5 38 Z " /><path fill="rgb(72,113,87)" stroke="rgb(72,113,87)" stroke-width="1" opacity="0.2549019607843137" d="M 30.5 42 L 30.5 43 L 30.5 42 Z " /><path fill="rgb(72,113,87)" stroke="rgb(72,113,87)" stroke-width="1" opacity="0.2549019607843137" d="M 27.5 44 L 27.5 45 L 27.5 44 Z " /><path fill="rgb(72,113,87)" stroke="rgb(72,113,87)" stroke-width="1" opacity="0.2549019607843137" d="M 25.5 45 L 25.5 46 L 25.5 45 Z " /><path fill="rgb(72,113,87)" stroke="rgb(72,113,87)" stroke-width="1" opacity="0.2549019607843137" d="M 11.5 47 L 11.5 48 L 11.5 47 Z " /><path fill="rgb(72,113,87)" stroke="rgb(72,113,87)" stroke-width="1" opacity="0.2549019607843137" d="M 19.5 47 L 19.5 48 L 19.5 47 Z " /><path fill="rgb(72,113,87)" stroke="rgb(72,113,87)" stroke-width="1" opacity="0.09019607843137255" d="M 27.5 0 L 27.5 1 L 27.5 0 Z " /><path fill="rgb(72,113,87)" stroke="rgb(72,113,87)" stroke-width="1" opacity="0.09019607843137255" d="M 37.5 0 L 37.5 1 L 37.5 0 Z " /><path fill="rgb(72,113,87)" stroke="rgb(72,113,87)" stroke-width="1" opacity="0.09019607843137255" d="M 24.5 1 L 24.5 2 L 24.5 1 Z " /><path fill="rgb(72,113,87)" stroke="rgb(72,113,87)" stroke-width="1" opacity="0.09019607843137255" d="M 22.5 2 L 22.5 3 L 22.5 2 Z " /><path fill="rgb(72,113,87)" stroke="rgb(72,113,87)" stroke-width="1" opacity="0.09019607843137255" d="M 41.5 2 L 44 4.5 L 43.5 5 L 41 2.5 L 41.5 2 Z " /><path fill="rgb(72,113,87)" stroke="rgb(72,113,87)" stroke-width="1" opacity="0.09019607843137255" d="M 20.5 3 L 20.5 4 L 20.5 3 Z " /><path fill="rgb(72,113,87)" stroke="rgb(72,113,87)" stroke-width="1" opacity="0.09019607843137255" d="M 17.5 5 L 17.5 6 L 17.5 5 Z " /><path fill="rgb(72,113,87)" stroke="rgb(72,113,87)" stroke-width="1" opacity="0.09019607843137255" d="M 46.5 11 L 47 12.5 L 46 12.5 L 46.5 11 Z " /><path fill="rgb(72,113,87)" stroke="rgb(72,113,87)" stroke-width="1" opacity="0.09019607843137255" d="M 8.5 14 L 8.5 15 L 8.5 14 Z " /><path fill="rgb(72,113,87)" stroke="rgb(72,113,87)" stroke-width="1" opacity="0.09019607843137255" d="M 25.5 16 L 25.5 17 L 25.5 16 Z " /><path fill="rgb(72,113,87)" stroke="rgb(72,113,87)" stroke-width="1" opacity="0.09019607843137255" d="M 6.5 17 L 6.5 18 L 6.5 17 Z " /><path fill="rgb(72,113,87)" stroke="rgb(72,113,87)" stroke-width="1" opacity="0.09019607843137255" d="M 31.5 18 L 46 18.5 L 31.5 19 L 31.5 18 Z " /><path fill="rgb(72,113,87)" stroke="rgb(72,113,87)" stroke-width="1" opacity="0.09019607843137255" d="M 22.5 21 L 22.5 22 L 22.5 21 Z " /><path fill="rgb(72,113,87)" stroke="rgb(72,113,87)" stroke-width="1" opacity="0.09019607843137255" d="M 27.5 22 L 27.5 23 L 27.5 22 Z " /><path fill="rgb(72,113,87)" stroke="rgb(72,113,87)" stroke-width="1" opacity="0.09019607843137255" d="M 45.5 22 L 45.5 23 L 45.5 22 Z " /><path fill="rgb(72,113,87)" stroke="rgb(72,113,87)" stroke-width="1" opacity="0.09019607843137255" d="M 3.5 23 L 3.5 24 L 3.5 23 Z " /><path fill="rgb(72,113,87)" stroke="rgb(72,113,87)" stroke-width="1" opacity="0.09019607843137255" d="M 29.5 24 Q 30.5 26 31.5 24 L 36 24.5 L 31.5 25 L 30.5 26 Q 28 25 29.5 24 Z " /><path fill="rgb(72,113,87)" stroke="rgb(72,113,87)" stroke-width="1" opacity="0.09019607843137255" d="M 44.5 25 L 44.5 26 L 44.5 25 Z " /><path fill="rgb(72,113,87)" stroke="rgb(72,113,87)" stroke-width="1" opacity="0.09019607843137255" d="M 2.5 26 L 2.5 27 L 2.5 26 Z " /><path fill="rgb(72,113,87)" stroke="rgb(72,113,87)" stroke-width="1" opacity="0.09019607843137255" d="M 19.5 26 L 19.5 27 L 19.5 26 Z " /><path fill="rgb(72,113,87)" stroke="rgb(72,113,87)" stroke-width="1" opacity="0.09019607843137255" d="M 29.5 27 L 29.5 28 L 29.5 27 Z " /><path fill="rgb(72,113,87)" stroke="rgb(72,113,87)" stroke-width="1" opacity="0.09019607843137255" d="M 43.5 27 L 43.5 28 L 43.5 27 Z " /><path fill="rgb(72,113,87)" stroke="rgb(72,113,87)" stroke-width="1" opacity="0.09019607843137255" d="M 18.5 28 L 18.5 29 L 18.5 28 Z " /><path fill="rgb(72,113,87)" stroke="rgb(72,113,87)" stroke-width="1" opacity="0.09019607843137255" d="M 23.5 29 L 23.5 30 L 23.5 29 Z " /><path fill="rgb(72,113,87)" stroke="rgb(72,113,87)" stroke-width="1" opacity="0.09019607843137255" d="M 26.5 29 L 26.5 30 L 26.5 29 Z " /><path fill="rgb(72,113,87)" stroke="rgb(72,113,87)" stroke-width="1" opacity="0.09019607843137255" d="M 42.5 29 L 42.5 30 L 42.5 29 Z " /><path fill="rgb(72,113,87)" stroke="rgb(72,113,87)" stroke-width="1" opacity="0.09019607843137255" d="M 1.5 31 L 2 33.5 L 1 33.5 L 1.5 31 Z " /><path fill="rgb(72,113,87)" stroke="rgb(72,113,87)" stroke-width="1" opacity="0.09019607843137255" d="M 22.5 31 L 22.5 32 L 22.5 31 Z " /><path fill="rgb(72,113,87)" stroke="rgb(72,113,87)" stroke-width="1" opacity="0.09019607843137255" d="M 26.5 32 L 26.5 33 L 26.5 32 Z " /><path fill="rgb(72,113,87)" stroke="rgb(72,113,87)" stroke-width="1" opacity="0.09019607843137255" d="M 40.5 32 L 40.5 33 L 40.5 32 Z " /><path fill="rgb(72,113,87)" stroke="rgb(72,113,87)" stroke-width="1" opacity="0.09019607843137255" d="M 3.5 34 L 23 34.5 L 3.5 35 L 3.5 34 Z " /><path fill="rgb(72,113,87)" stroke="rgb(72,113,87)" stroke-width="1" opacity="0.09019607843137255" d="M 25.5 34 L 25.5 35 L 25.5 34 Z " /><path fill="rgb(72,113,87)" stroke="rgb(72,113,87)" stroke-width="1" opacity="0.09019607843137255" d="M 37.5 36 L 38 36.5 L 33.5 41 L 33 40.5 L 37.5 36 Z " /><path fill="rgb(72,113,87)" stroke="rgb(72,113,87)" stroke-width="1" opacity="0.09019607843137255" d="M 2.5 39 L 2.5 40 L 2.5 39 Z " /><path fill="rgb(72,113,87)" stroke="rgb(72,113,87)" stroke-width="1" opacity="0.09019607843137255" d="M 3.5 41 L 3.5 42 L 3.5 41 Z " /><path fill="rgb(72,113,87)" stroke="rgb(72,113,87)" stroke-width="1" opacity="0.09019607843137255" d="M 29.5 43 L 29.5 44 L 29.5 43 Z " /><path fill="rgb(72,113,87)" stroke="rgb(72,113,87)" stroke-width="1" opacity="0.09019607843137255" d="M 5.5 44 L 5.5 45 L 5.5 44 Z " /><path fill="rgb(72,113,87)" stroke="rgb(72,113,87)" stroke-width="1" opacity="0.09019607843137255" d="M 8.5 46 L 8.5 47 L 8.5 46 Z " /><path fill="rgb(72,113,87)" stroke="rgb(72,113,87)" stroke-width="1" opacity="0.09019607843137255" d="M 23.5 46 L 23.5 47 L 23.5 46 Z " /><path fill="rgb(72,113,87)" stroke="rgb(72,113,87)" stroke-width="1" opacity="0.09019607843137255" d="M 10.5 47 L 10.5 48 L 10.5 47 Z " /><path fill="rgb(72,113,87)" stroke="rgb(72,113,87)" stroke-width="1" opacity="0.09019607843137255" d="M 20.5 47 L 20.5 48 L 20.5 47 Z " /><path fill="rgb(72,113,87)" stroke="rgb(72,113,87)" stroke-width="1" opacity="0.5764705882352941" d="M 30.5 0 L 35 0.5 L 30.5 1 L 30.5 0 Z " /><path fill="rgb(72,113,87)" stroke="rgb(72,113,87)" stroke-width="1" opacity="0.5764705882352941" d="M 26.5 1 L 26.5 2 L 26.5 1 Z " /><path fill="rgb(72,113,87)" stroke="rgb(72,113,87)" stroke-width="1" opacity="0.5764705882352941" d="M 38.5 1 L 38.5 2 L 38.5 1 Z " /><path fill="rgb(72,113,87)" stroke="rgb(72,113,87)" stroke-width="1" opacity="0.5764705882352941" d="M 41.5 3 L 41.5 4 L 41.5 3 Z " /><path fill="rgb(72,113,87)" stroke="rgb(72,113,87)" stroke-width="1" opacity="0.5764705882352941" d="M 18.5 5 L 18.5 6 L 18.5 5 Z " /><path fill="rgb(72,113,87)" stroke="rgb(72,113,87)" stroke-width="1" opacity="0.5764705882352941" d="M 43.5 5 L 43.5 6 L 43.5 5 Z " /><path fill="rgb(72,113,87)" stroke="rgb(72,113,87)" stroke-width="1" opacity="0.5764705882352941" d="M 45.5 9 L 45.5 10 L 45.5 9 Z " /><path fill="rgb(72,113,87)" stroke="rgb(72,113,87)" stroke-width="1" opacity="0.5764705882352941" d="M 8.5 15 L 8.5 16 L 8.5 15 Z " /><path fill="rgb(72,113,87)" stroke="rgb(72,113,87)" stroke-width="1" opacity="0.5764705882352941" d="M 6.5 18 L 6.5 19 L 6.5 18 Z " /><path fill="rgb(72,113,87)" stroke="rgb(72,113,87)" stroke-width="1" opacity="0.5764705882352941" d="M 23.5 18 L 23.5 19 L 23.5 18 Z " /><path fill="rgb(72,113,87)" stroke="rgb(72,113,87)" stroke-width="1" opacity="0.5764705882352941" d="M 45.5 19 L 46 20.5 L 45 20.5 L 45.5 19 Z " /><path fill="rgb(72,113,87)" stroke="rgb(72,113,87)" stroke-width="1" opacity="0.5764705882352941" d="M 5.5 20 L 5.5 21 L 5.5 20 Z " /><path fill="rgb(72,113,87)" stroke="rgb(72,113,87)" stroke-width="1" opacity="0.5764705882352941" d="M 22.5 20 L 22.5 21 L 22.5 20 Z " /><path fill="rgb(72,113,87)" stroke="rgb(72,113,87)" stroke-width="1" opacity="0.5764705882352941" d="M 4.5 22 L 4.5 23 L 4.5 22 Z " /><path fill="rgb(72,113,87)" stroke="rgb(72,113,87)" stroke-width="1" opacity="0.5764705882352941" d="M 30.5 22 L 37 22.5 L 30.5 23 L 30.5 22 Z " /><path fill="rgb(72,113,87)" stroke="rgb(72,113,87)" stroke-width="1" opacity="0.5764705882352941" d="M 44.5 23 L 44.5 24 L 44.5 23 Z " /><path fill="rgb(72,113,87)" stroke="rgb(72,113,87)" stroke-width="1" opacity="0.5764705882352941" d="M 36.5 24 L 36.5 25 L 36.5 24 Z " /><path fill="rgb(72,113,87)" stroke="rgb(72,113,87)" stroke-width="1" opacity="0.5764705882352941" d="M 3.5 25 L 3.5 26 L 3.5 25 Z " /><path fill="rgb(72,113,87)" stroke="rgb(72,113,87)" stroke-width="1" opacity="0.5764705882352941" d="M 19.5 25 L 19.5 26 L 19.5 25 Z " /><path fill="rgb(72,113,87)" stroke="rgb(72,113,87)" stroke-width="1" opacity="0.5764705882352941" d="M 26.5 25 Q 29 26 27.5 27 Q 25 26 26.5 25 Z " /><path fill="rgb(72,113,87)" stroke="rgb(72,113,87)" stroke-width="1" opacity="0.5764705882352941" d="M 29.5 28 L 29.5 29 L 29.5 28 Z " /><path fill="rgb(72,113,87)" stroke="rgb(72,113,87)" stroke-width="1" opacity="0.5764705882352941" d="M 2.5 29 L 2.5 30 L 2.5 29 Z " /><path fill="rgb(72,113,87)" stroke="rgb(72,113,87)" stroke-width="1" opacity="0.5764705882352941" d="M 28.5 30 L 28.5 31 L 28.5 30 Z " /><path fill="rgb(72,113,87)" stroke="rgb(72,113,87)" stroke-width="1" opacity="0.5764705882352941" d="M 40.5 31 L 40.5 32 L 40.5 31 Z " /><path fill="rgb(72,113,87)" stroke="rgb(72,113,87)" stroke-width="1" opacity="0.5764705882352941" d="M 22.5 32 Q 25 33 23.5 34 Q 21 33 22.5 32 Z " /><path fill="rgb(72,113,87)" stroke="rgb(72,113,87)" stroke-width="1" opacity="0.5764705882352941" d="M 25.5 35 L 25.5 36 L 25.5 35 Z " /><path fill="rgb(72,113,87)" stroke="rgb(72,113,87)" stroke-width="1" opacity="0.5764705882352941" d="M 37.5 35 Q 39 36 36.5 37 Q 35 36 37.5 35 Z " /><path fill="rgb(72,113,87)" stroke="rgb(72,113,87)" stroke-width="1" opacity="0.5764705882352941" d="M 2.5 37 L 2.5 38 L 2.5 37 Z " /><path fill="rgb(72,113,87)" stroke="rgb(72,113,87)" stroke-width="1" opacity="0.5764705882352941" d="M 33.5 39 Q 35 40 32.5 41 Q 31 40 33.5 39 Z " /><path fill="rgb(72,113,87)" stroke="rgb(72,113,87)" stroke-width="1" opacity="0.5764705882352941" d="M 3.5 40 L 3.5 41 L 3.5 40 Z " /><path fill="rgb(72,113,87)" stroke="rgb(72,113,87)" stroke-width="1" opacity="0.5764705882352941" d="M 5.5 43 Q 8 44 6.5 45 Q 4 44 5.5 43 Z " /><path fill="rgb(72,113,87)" stroke="rgb(72,113,87)" stroke-width="1" opacity="0.5764705882352941" d="M 28.5 43 L 28.5 44 L 28.5 43 Z " /><path fill="rgb(72,113,87)" stroke="rgb(72,113,87)" stroke-width="1" opacity="0.5764705882352941" d="M 26.5 44 L 26.5 45 L 26.5 44 Z " /><path fill="rgb(72,113,87)" stroke="rgb(72,113,87)" stroke-width="1" opacity="0.5764705882352941" d="M 24.5 45 L 24.5 46 L 24.5 45 Z " /><path fill="rgb(72,113,87)" stroke="rgb(72,113,87)" stroke-width="1" opacity="0.5764705882352941" d="M 21.5 46 L 21.5 47 L 21.5 46 Z " /><path fill="rgb(72,113,87)" stroke="rgb(72,113,87)" stroke-width="1" opacity="0.5764705882352941" d="M 13.5 47 L 13.5 48 L 13.5 47 Z " /><path fill="rgb(72,113,87)" stroke="rgb(72,113,87)" stroke-width="1" opacity="0.5764705882352941" d="M 17.5 47 L 17.5 48 L 17.5 47 Z " /></svg>