<svg width="48" height="48" version="1.1" xmlns="http://www.w3.org/2000/svg" desc="Created with imagetracer.js version 1.2.6" ><path fill="rgb(30,44,96)" stroke="rgb(30,44,96)" stroke-width="1" opacity="1" d="M 17.5 27 L 23 27.5 L 17.5 28 L 17.5 27 Z " /><path fill="rgb(30,44,96)" stroke="rgb(30,44,96)" stroke-width="1" opacity="1" d="M 27.5 27 L 27.5 28 L 27.5 27 Z " /><path fill="rgb(30,44,96)" stroke="rgb(30,44,96)" stroke-width="1" opacity="1" d="M 36.5 27 L 36.5 28 L 36.5 27 Z " /><path fill="rgb(30,44,96)" stroke="rgb(30,44,96)" stroke-width="1" opacity="1" d="M 11.5 28 L 11.5 29 L 11.5 28 Z " /><path fill="rgb(30,45,97)" stroke="rgb(30,45,97)" stroke-width="1" opacity="1" d="M 0 0 L 48 0 L 48 48 L 0 48 L 0 0 Z M 13 15 L 10 18 L 12 18 L 12 25 L 10 27 L 11 30 Q 9 31 12 32 L 19 32 L 20 31 Q 20 33 24 32 Q 25 34 26 32 L 32 32 L 33 33 Q 34 31 38 32 L 39 31 L 38 29 Q 36 27 39 26 L 38 23 L 39 20 Q 36 18 37 16 L 35 15 L 29 15 L 28 16 L 25 15 L 22 17 L 20 15 L 13 15 Z " /><path fill="rgb(30,45,97)" stroke="rgb(30,45,97)" stroke-width="1" opacity="1" d="M 25.5 19 L 25.5 20 L 25.5 19 Z " /><path fill="rgb(30,45,97)" stroke="rgb(30,45,97)" stroke-width="1" opacity="1" d="M 20.5 22 L 22 22.5 L 20.5 23 L 20.5 22 Z " /><path fill="rgb(30,45,97)" stroke="rgb(30,45,97)" stroke-width="1" opacity="1" d="M 18.5 24 L 19 26.5 Q 18 28 17 25.5 L 18.5 24 Z " /><path fill="rgb(64,75,119)" stroke="rgb(64,75,119)" stroke-width="1" opacity="1" d="M 12.5 16 L 20 16.5 L 12.5 17 L 12.5 16 Z " /><path fill="rgb(64,75,119)" stroke="rgb(64,75,119)" stroke-width="1" opacity="1" d="M 22.5 16 L 22.5 17 L 22.5 16 Z " /><path fill="rgb(64,75,119)" stroke="rgb(64,75,119)" stroke-width="1" opacity="1" d="M 28.5 16 L 28.5 17 L 28.5 16 Z " /><path fill="rgb(64,75,119)" stroke="rgb(64,75,119)" stroke-width="1" opacity="1" d="M 37.5 19 L 37.5 20 L 37.5 19 Z " /><path fill="rgb(64,75,119)" stroke="rgb(64,75,119)" stroke-width="1" opacity="1" d="M 18.5 20 L 18.5 21 L 18.5 20 Z " /><path fill="rgb(64,75,119)" stroke="rgb(64,75,119)" stroke-width="1" opacity="1" d="M 20.5 23 L 20.5 24 L 20.5 23 Z " /><path fill="rgb(64,75,119)" stroke="rgb(64,75,119)" stroke-width="1" opacity="1" d="M 12.5 25 L 12.5 26 L 12.5 25 Z " /><path fill="rgb(64,75,119)" stroke="rgb(64,75,119)" stroke-width="1" opacity="1" d="M 27.5 26 Q 30 27 28.5 28 Q 26 27 27.5 26 Z " /><path fill="rgb(64,75,119)" stroke="rgb(64,75,119)" stroke-width="1" opacity="1" d="M 34.5 27 L 34.5 28 L 34.5 27 Z " /><path fill="rgb(64,75,119)" stroke="rgb(64,75,119)" stroke-width="1" opacity="1" d="M 12.5 29 L 12.5 30 L 12.5 29 Z " /><path fill="rgb(64,75,119)" stroke="rgb(64,75,119)" stroke-width="1" opacity="1" d="M 14.5 29 L 17 29.5 L 14.5 30 L 14.5 29 Z " /><path fill="rgb(64,75,119)" stroke="rgb(64,75,119)" stroke-width="1" opacity="1" d="M 21.5 29 L 25 29.5 L 21.5 30 L 21.5 29 Z " /><path fill="rgb(64,75,119)" stroke="rgb(64,75,119)" stroke-width="1" opacity="1" d="M 27.5 29 L 29 29.5 L 27.5 30 L 27.5 29 Z " /><path fill="rgb(64,75,119)" stroke="rgb(64,75,119)" stroke-width="1" opacity="1" d="M 31.5 29 L 33 29.5 L 31.5 30 L 31.5 29 Z " /><path fill="rgb(64,75,119)" stroke="rgb(64,75,119)" stroke-width="1" opacity="1" d="M 34.5 29 L 34.5 30 L 34.5 29 Z " /><path fill="rgb(64,75,119)" stroke="rgb(64,75,119)" stroke-width="1" opacity="1" d="M 36.5 29 L 38 31.5 L 37 31.5 L 36.5 29 Z " /><path fill="rgb(64,75,119)" stroke="rgb(64,75,119)" stroke-width="1" opacity="1" d="M 13.5 31 L 13.5 32 L 13.5 31 Z " /><path fill="rgb(64,75,119)" stroke="rgb(64,75,119)" stroke-width="1" opacity="1" d="M 18.5 31 L 18.5 32 L 18.5 31 Z " /><path fill="rgb(64,75,119)" stroke="rgb(64,75,119)" stroke-width="1" opacity="1" d="M 20.5 31 L 20.5 32 L 20.5 31 Z " /><path fill="rgb(64,75,119)" stroke="rgb(64,75,119)" stroke-width="1" opacity="1" d="M 22.5 31 L 22.5 32 L 22.5 31 Z " /><path fill="rgb(64,75,119)" stroke="rgb(64,75,119)" stroke-width="1" opacity="1" d="M 26.5 31 L 26.5 32 L 26.5 31 Z " /><path fill="rgb(41,54,103)" stroke="rgb(41,54,103)" stroke-width="1" opacity="1" d="M 11.5 16 L 11.5 17 L 11.5 16 Z " /><path fill="rgb(41,54,103)" stroke="rgb(41,54,103)" stroke-width="1" opacity="1" d="M 25.5 16 L 28 16.5 L 25.5 17 L 25.5 16 Z " /><path fill="rgb(41,54,103)" stroke="rgb(41,54,103)" stroke-width="1" opacity="1" d="M 35.5 16 L 35.5 17 L 35.5 16 Z " /><path fill="rgb(41,54,103)" stroke="rgb(41,54,103)" stroke-width="1" opacity="1" d="M 16.5 18 L 19 19.5 L 17.5 19 Q 15.12 18.88 16.5 18 Z " /><path fill="rgb(41,54,103)" stroke="rgb(41,54,103)" stroke-width="1" opacity="1" d="M 33.5 18 L 33.5 19 L 33.5 18 Z " /><path fill="rgb(41,54,103)" stroke="rgb(41,54,103)" stroke-width="1" opacity="1" d="M 23.5 19 L 23.5 20 L 23.5 19 Z " /><path fill="rgb(41,54,103)" stroke="rgb(41,54,103)" stroke-width="1" opacity="1" d="M 25.5 20 L 25.5 21 L 25.5 20 Z " /><path fill="rgb(41,54,103)" stroke="rgb(41,54,103)" stroke-width="1" opacity="1" d="M 27.5 20 L 27.5 21 L 27.5 20 Z " /><path fill="rgb(41,54,103)" stroke="rgb(41,54,103)" stroke-width="1" opacity="1" d="M 33.5 20 L 33.5 21 L 33.5 20 Z " /><path fill="rgb(41,54,103)" stroke="rgb(41,54,103)" stroke-width="1" opacity="1" d="M 37.5 20 L 37.5 21 L 37.5 20 Z " /><path fill="rgb(41,54,103)" stroke="rgb(41,54,103)" stroke-width="1" opacity="1" d="M 37.5 22 L 37.5 23 L 37.5 22 Z " /><path fill="rgb(41,54,103)" stroke="rgb(41,54,103)" stroke-width="1" opacity="1" d="M 23.5 23 L 23.5 24 L 23.5 23 Z " /><path fill="rgb(41,54,103)" stroke="rgb(41,54,103)" stroke-width="1" opacity="1" d="M 34.5 24 Q 36 25 33.5 26 Q 32 25 34.5 24 Z " /><path fill="rgb(41,54,103)" stroke="rgb(41,54,103)" stroke-width="1" opacity="1" d="M 23.5 25 L 23.5 26 L 23.5 25 Z " /><path fill="rgb(41,54,103)" stroke="rgb(41,54,103)" stroke-width="1" opacity="1" d="M 17.5 26 L 17.5 27 L 17.5 26 Z " /><path fill="rgb(41,54,103)" stroke="rgb(41,54,103)" stroke-width="1" opacity="1" d="M 26.5 27 L 26.5 28 L 26.5 27 Z " /><path fill="rgb(41,54,103)" stroke="rgb(41,54,103)" stroke-width="1" opacity="1" d="M 35.5 27 L 35.5 28 L 35.5 27 Z " /><path fill="rgb(41,54,103)" stroke="rgb(41,54,103)" stroke-width="1" opacity="1" d="M 19.5 29 L 20 30.5 L 19 30.5 L 19.5 29 Z " /><path fill="rgb(41,54,103)" stroke="rgb(41,54,103)" stroke-width="1" opacity="1" d="M 37.5 29 L 37.5 30 L 37.5 29 Z " /><path fill="rgb(41,54,103)" stroke="rgb(41,54,103)" stroke-width="1" opacity="1" d="M 29.5 30 L 29.5 31 L 29.5 30 Z " /><path fill="rgb(89,98,136)" stroke="rgb(89,98,136)" stroke-width="1" opacity="1" d="M 23.5 16 L 25 16.5 L 23.5 17 L 23.5 16 Z " /><path fill="rgb(89,98,136)" stroke="rgb(89,98,136)" stroke-width="1" opacity="1" d="M 30.5 16 L 34 16.5 L 30.5 17 L 30.5 16 Z " /><path fill="rgb(89,98,136)" stroke="rgb(89,98,136)" stroke-width="1" opacity="1" d="M 11.5 17 L 11.5 18 L 11.5 17 Z " /><path fill="rgb(89,98,136)" stroke="rgb(89,98,136)" stroke-width="1" opacity="1" d="M 36.5 17 L 36.5 18 L 36.5 17 Z " /><path fill="rgb(89,98,136)" stroke="rgb(89,98,136)" stroke-width="1" opacity="1" d="M 20.5 18 L 20.5 19 L 20.5 18 Z " /><path fill="rgb(89,98,136)" stroke="rgb(89,98,136)" stroke-width="1" opacity="1" d="M 15.5 19 L 16 20.5 L 15 20.5 L 15.5 19 Z " /><path fill="rgb(89,98,136)" stroke="rgb(89,98,136)" stroke-width="1" opacity="1" d="M 29.5 21 L 30 24.5 L 29 24.5 L 29.5 21 Z " /><path fill="rgb(89,98,136)" stroke="rgb(89,98,136)" stroke-width="1" opacity="1" d="M 33.5 22 L 33.5 23 L 33.5 22 Z " /><path fill="rgb(89,98,136)" stroke="rgb(89,98,136)" stroke-width="1" opacity="1" d="M 15.5 23 L 15.5 24 L 15.5 23 Z " /><path fill="rgb(89,98,136)" stroke="rgb(89,98,136)" stroke-width="1" opacity="1" d="M 20.5 24 L 21 25.5 L 20 25.5 L 20.5 24 Z " /><path fill="rgb(89,98,136)" stroke="rgb(89,98,136)" stroke-width="1" opacity="1" d="M 25.5 27 L 25.5 28 L 25.5 27 Z " /><path fill="rgb(89,98,136)" stroke="rgb(89,98,136)" stroke-width="1" opacity="1" d="M 11.5 30 L 11.5 31 L 11.5 30 Z " /><path fill="rgb(89,98,136)" stroke="rgb(89,98,136)" stroke-width="1" opacity="1" d="M 17.5 30 Q 19 31 16.5 32 Q 15 31 17.5 30 Z " /><path fill="rgb(89,98,136)" stroke="rgb(89,98,136)" stroke-width="1" opacity="1" d="M 20.5 30 L 20.5 31 L 20.5 30 Z " /><path fill="rgb(89,98,136)" stroke="rgb(89,98,136)" stroke-width="1" opacity="1" d="M 24.5 31 L 24.5 32 L 24.5 31 Z " /><path fill="rgb(89,98,136)" stroke="rgb(89,98,136)" stroke-width="1" opacity="1" d="M 27.5 31 L 27.5 32 L 27.5 31 Z " /><path fill="rgb(89,98,136)" stroke="rgb(89,98,136)" stroke-width="1" opacity="1" d="M 32.5 31 L 34 31.5 L 32.5 32 L 32.5 31 Z " /><path fill="rgb(89,98,136)" stroke="rgb(89,98,136)" stroke-width="1" opacity="1" d="M 35.5 31 L 37 31.5 L 35.5 32 L 35.5 31 Z " /><path fill="rgb(148,154,179)" stroke="rgb(148,154,179)" stroke-width="1" opacity="1" d="M 16.5 17 L 18 17.5 L 16.5 18 L 16.5 17 Z " /><path fill="rgb(148,154,179)" stroke="rgb(148,154,179)" stroke-width="1" opacity="1" d="M 23.5 17 L 27 17.5 L 23 18 L 22.5 20 L 22 18.5 L 23.5 17 Z " /><path fill="rgb(148,154,179)" stroke="rgb(148,154,179)" stroke-width="1" opacity="1" d="M 32.5 17 L 32.5 18 L 32.5 17 Z " /><path fill="rgb(148,154,179)" stroke="rgb(148,154,179)" stroke-width="1" opacity="1" d="M 34.5 18 L 34.5 19 L 34.5 18 Z " /><path fill="rgb(148,154,179)" stroke="rgb(148,154,179)" stroke-width="1" opacity="1" d="M 26.5 19 L 26.5 20 L 26.5 19 Z " /><path fill="rgb(148,154,179)" stroke="rgb(148,154,179)" stroke-width="1" opacity="1" d="M 17.5 20 L 18 20.5 L 15.5 23 L 15 22.5 L 17.5 20 Z " /><path fill="rgb(148,154,179)" stroke="rgb(148,154,179)" stroke-width="1" opacity="1" d="M 34.5 20 L 35.5 21 L 37 20.5 L 36 21.5 L 36.5 23 L 35.5 22 L 34 22.5 L 35 21.5 L 34.5 20 Z " /><path fill="rgb(148,154,179)" stroke="rgb(148,154,179)" stroke-width="1" opacity="1" d="M 21.5 21 L 21.5 22 L 21.5 21 Z " /><path fill="rgb(148,154,179)" stroke="rgb(148,154,179)" stroke-width="1" opacity="1" d="M 32.5 21 L 32.5 22 L 32.5 21 Z " /><path fill="rgb(148,154,179)" stroke="rgb(148,154,179)" stroke-width="1" opacity="1" d="M 37.5 24 L 37.5 25 L 37.5 24 Z " /><path fill="rgb(148,154,179)" stroke="rgb(148,154,179)" stroke-width="1" opacity="1" d="M 22.5 25 L 25 26.5 L 21.5 27 Q 20 26 22.5 25 Z " /><path fill="rgb(148,154,179)" stroke="rgb(148,154,179)" stroke-width="1" opacity="1" d="M 27.5 25 L 27.5 26 L 27.5 25 Z " /><path fill="rgb(148,154,179)" stroke="rgb(148,154,179)" stroke-width="1" opacity="1" d="M 12.5 26 L 12.5 27 L 12.5 26 Z " /><path fill="rgb(148,154,179)" stroke="rgb(148,154,179)" stroke-width="1" opacity="1" d="M 16.5 26 L 16.5 27 L 16.5 26 Z " /><path fill="rgb(148,154,179)" stroke="rgb(148,154,179)" stroke-width="1" opacity="1" d="M 33.5 26 L 33.5 27 L 33.5 26 Z " /><path fill="rgb(148,154,179)" stroke="rgb(148,154,179)" stroke-width="1" opacity="1" d="M 14.5 30 L 14.5 31 L 14.5 30 Z " /><path fill="rgb(148,154,179)" stroke="rgb(148,154,179)" stroke-width="1" opacity="1" d="M 16.5 30 L 16.5 31 L 16.5 30 Z " /><path fill="rgb(148,154,179)" stroke="rgb(148,154,179)" stroke-width="1" opacity="1" d="M 21.5 30 L 21.5 31 L 21.5 30 Z " /><path fill="rgb(148,154,179)" stroke="rgb(148,154,179)" stroke-width="1" opacity="1" d="M 24.5 30 L 24.5 31 L 24.5 30 Z " /><path fill="rgb(148,154,179)" stroke="rgb(148,154,179)" stroke-width="1" opacity="1" d="M 30.5 30 L 33 30.5 L 30.5 31 L 30.5 30 Z " /><path fill="rgb(148,154,179)" stroke="rgb(148,154,179)" stroke-width="1" opacity="1" d="M 34.5 30 L 34.5 31 L 34.5 30 Z " /><path fill="rgb(148,154,179)" stroke="rgb(148,154,179)" stroke-width="1" opacity="1" d="M 36.5 30 L 36.5 31 L 36.5 30 Z " /><path fill="rgb(104,112,147)" stroke="rgb(104,112,147)" stroke-width="1" opacity="1" d="M 21.5 17 L 21.5 18 L 21.5 17 Z " /><path fill="rgb(104,112,147)" stroke="rgb(104,112,147)" stroke-width="1" opacity="1" d="M 27 17 L 30 18.5 L 29.5 21 L 28.5 18 L 27.5 20 L 27 17 Z " /><path fill="rgb(104,112,147)" stroke="rgb(104,112,147)" stroke-width="1" opacity="1" d="M 15.5 18 L 15.5 19 L 15.5 18 Z " /><path fill="rgb(104,112,147)" stroke="rgb(104,112,147)" stroke-width="1" opacity="1" d="M 18.5 18 L 21 19.5 L 19.5 20 Q 17 19 18.5 18 Z " /><path fill="rgb(104,112,147)" stroke="rgb(104,112,147)" stroke-width="1" opacity="1" d="M 25.5 18 L 25.5 19 L 25.5 18 Z " /><path fill="rgb(104,112,147)" stroke="rgb(104,112,147)" stroke-width="1" opacity="1" d="M 24.5 20 L 24.5 21 L 24.5 20 Z " /><path fill="rgb(104,112,147)" stroke="rgb(104,112,147)" stroke-width="1" opacity="1" d="M 26.5 21 Q 29 22 27.5 23 Q 25 22 26.5 21 Z " /><path fill="rgb(104,112,147)" stroke="rgb(104,112,147)" stroke-width="1" opacity="1" d="M 16.5 22 Q 19 23 17.5 24 Q 15 23 16.5 22 Z " /><path fill="rgb(104,112,147)" stroke="rgb(104,112,147)" stroke-width="1" opacity="1" d="M 22.5 22 Q 24 23 21.5 24 Q 20 23 22.5 22 Z " /><path fill="rgb(104,112,147)" stroke="rgb(104,112,147)" stroke-width="1" opacity="1" d="M 32.5 22 L 32.5 23 L 32.5 22 Z " /><path fill="rgb(104,112,147)" stroke="rgb(104,112,147)" stroke-width="1" opacity="1" d="M 24.5 23 L 24.5 24 L 24.5 23 Z " /><path fill="rgb(104,112,147)" stroke="rgb(104,112,147)" stroke-width="1" opacity="1" d="M 37.5 23 L 37.5 24 L 37.5 23 Z " /><path fill="rgb(104,112,147)" stroke="rgb(104,112,147)" stroke-width="1" opacity="1" d="M 15.5 24 L 16 25.5 L 15 25.5 L 15.5 24 Z " /><path fill="rgb(104,112,147)" stroke="rgb(104,112,147)" stroke-width="1" opacity="1" d="M 29.5 25 Q 31 26 28.5 27 Q 27 26 29.5 25 Z " /><path fill="rgb(104,112,147)" stroke="rgb(104,112,147)" stroke-width="1" opacity="1" d="M 34.5 25 L 34.5 26 L 34.5 25 Z " /><path fill="rgb(104,112,147)" stroke="rgb(104,112,147)" stroke-width="1" opacity="1" d="M 37.5 25 Q 39 26 36.5 27 Q 35 26 37.5 25 Z " /><path fill="rgb(104,112,147)" stroke="rgb(104,112,147)" stroke-width="1" opacity="1" d="M 24.5 27 L 24.5 28 L 24.5 27 Z " /><path fill="rgb(104,112,147)" stroke="rgb(104,112,147)" stroke-width="1" opacity="1" d="M 12.5 30 L 14 30.5 L 12.5 31 L 12.5 30 Z " /><path fill="rgb(104,112,147)" stroke="rgb(104,112,147)" stroke-width="1" opacity="1" d="M 15.5 30 L 15.5 31 L 15.5 30 Z " /><path fill="rgb(104,112,147)" stroke="rgb(104,112,147)" stroke-width="1" opacity="1" d="M 18.5 30 L 18.5 31 L 18.5 30 Z " /><path fill="rgb(104,112,147)" stroke="rgb(104,112,147)" stroke-width="1" opacity="1" d="M 22.5 30 L 24 30.5 L 21.5 32 Q 20 31 22.5 30 Z " /><path fill="rgb(104,112,147)" stroke="rgb(104,112,147)" stroke-width="1" opacity="1" d="M 25.5 30 L 29 30.5 L 25.5 31 L 25.5 30 Z " /><path fill="rgb(104,112,147)" stroke="rgb(104,112,147)" stroke-width="1" opacity="1" d="M 33.5 30 L 33.5 31 L 33.5 30 Z " /><path fill="rgb(104,112,147)" stroke="rgb(104,112,147)" stroke-width="1" opacity="1" d="M 35.5 30 L 35.5 31 L 35.5 30 Z " /><path fill="rgb(104,112,147)" stroke="rgb(104,112,147)" stroke-width="1" opacity="1" d="M 30.5 31 L 32 31.5 L 30.5 32 L 30.5 31 Z " /><path fill="rgb(226,227,234)" stroke="rgb(226,227,234)" stroke-width="1" opacity="1" d="M 12.5 17 L 16 17.5 L 15 20.5 Q 17 21.5 15 22.5 Q 14.25 25.75 16 26.5 L 13 27 L 13 18.5 L 12.5 17 Z " /><path fill="rgb(226,227,234)" stroke="rgb(226,227,234)" stroke-width="1" opacity="1" d="M 18.5 17 Q 20.75 16.25 20 18.5 L 19.5 19 Q 17 18 18.5 17 Z " /><path fill="rgb(226,227,234)" stroke="rgb(226,227,234)" stroke-width="1" opacity="1" d="M 22.5 17 L 22 18.5 Q 21.25 20.75 23.5 20 L 28 23.5 L 27 27 L 25 26.5 L 26 24.5 L 21 20.5 Q 20.5 17.5 22.5 17 Z " /><path fill="rgb(226,227,234)" stroke="rgb(226,227,234)" stroke-width="1" opacity="1" d="M 29.5 17 Q 32.25 16.75 32 17.5 L 32 25.5 L 32.5 27 L 29 26.5 L 30 25.5 L 30 18.5 L 29.5 17 Z " /><path fill="rgb(226,227,234)" stroke="rgb(226,227,234)" stroke-width="1" opacity="1" d="M 33.5 17 Q 36.5 16.5 37 18.5 L 35 21.5 Q 37.5 22 37 25.5 L 34.5 27 L 35 25.5 Q 36.5 21.13 33.5 22 L 33.5 21 L 35 21 L 35 18 L 33 17.5 L 33.5 17 Z " /><path fill="rgb(226,227,234)" stroke="rgb(226,227,234)" stroke-width="1" opacity="1" d="M 26.5 18 L 26.5 19 L 26.5 18 Z " /><path fill="rgb(226,227,234)" stroke="rgb(226,227,234)" stroke-width="1" opacity="1" d="M 17.5 21 L 18 22.5 L 17 22.5 L 17.5 21 Z " /><path fill="rgb(226,227,234)" stroke="rgb(226,227,234)" stroke-width="1" opacity="1" d="M 21.5 24 L 22 25.5 L 21 25.5 L 21.5 24 Z " /><path fill="rgb(26,41,94)" stroke="rgb(26,41,94)" stroke-width="1" opacity="1" d="M 28.5 18 L 29 21.5 L 28 21.5 L 28.5 18 Z " /><path fill="rgb(26,41,94)" stroke="rgb(26,41,94)" stroke-width="1" opacity="1" d="M 16.5 19 L 16.5 20 L 16.5 19 Z " /><path fill="rgb(26,41,94)" stroke="rgb(26,41,94)" stroke-width="1" opacity="1" d="M 24.5 19 L 24.5 20 L 24.5 19 Z " /><path fill="rgb(26,41,94)" stroke="rgb(26,41,94)" stroke-width="1" opacity="1" d="M 33.5 19 L 33.5 20 L 33.5 19 Z " /><path fill="rgb(26,41,94)" stroke="rgb(26,41,94)" stroke-width="1" opacity="1" d="M 19.5 20 L 19.5 21 L 19.5 20 Z " /><path fill="rgb(26,41,94)" stroke="rgb(26,41,94)" stroke-width="1" opacity="1" d="M 16.5 23 L 16.5 24 L 16.5 23 Z " /><path fill="rgb(26,41,94)" stroke="rgb(26,41,94)" stroke-width="1" opacity="1" d="M 33.5 23 L 33.5 24 L 33.5 23 Z " /><path fill="rgb(26,41,94)" stroke="rgb(26,41,94)" stroke-width="1" opacity="1" d="M 24.5 24 L 24.5 25 L 24.5 24 Z " /><path fill="rgb(33,48,99)" stroke="rgb(33,48,99)" stroke-width="1" opacity="1" d="M 20.5 16 L 20.5 17 L 20.5 16 Z " /><path fill="rgb(33,48,99)" stroke="rgb(33,48,99)" stroke-width="1" opacity="1" d="M 23.5 18 L 25 18.5 L 23.5 19 L 23.5 18 Z " /><path fill="rgb(33,48,99)" stroke="rgb(33,48,99)" stroke-width="1" opacity="1" d="M 17.5 19 Q 19 20 16.5 21 Q 15 20 17.5 19 Z " /><path fill="rgb(33,48,99)" stroke="rgb(33,48,99)" stroke-width="1" opacity="1" d="M 26.5 20 Q 29 21 27.5 22 Q 25 21 26.5 20 Z " /><path fill="rgb(33,48,99)" stroke="rgb(33,48,99)" stroke-width="1" opacity="1" d="M 20.5 21 L 20.5 22 L 20.5 21 Z " /><path fill="rgb(33,48,99)" stroke="rgb(33,48,99)" stroke-width="1" opacity="1" d="M 28.5 25 L 28.5 26 L 28.5 25 Z " /><path fill="rgb(33,48,99)" stroke="rgb(33,48,99)" stroke-width="1" opacity="1" d="M 37.5 26 L 37.5 27 L 37.5 26 Z " /><path fill="rgb(33,48,99)" stroke="rgb(33,48,99)" stroke-width="1" opacity="1" d="M 29.5 29 L 29.5 30 L 29.5 29 Z " /><path fill="rgb(33,48,99)" stroke="rgb(33,48,99)" stroke-width="1" opacity="1" d="M 29.5 31 L 29.5 32 L 29.5 31 Z " /><path fill="rgb(77,84,125)" stroke="rgb(77,84,125)" stroke-width="1" opacity="1" d="M 29.5 16 L 29.5 17 L 29.5 16 Z " /><path fill="rgb(77,84,125)" stroke="rgb(77,84,125)" stroke-width="1" opacity="1" d="M 34.5 16 L 34.5 17 L 34.5 16 Z " /><path fill="rgb(77,84,125)" stroke="rgb(77,84,125)" stroke-width="1" opacity="1" d="M 12.5 18 L 12.5 19 L 12.5 18 Z " /><path fill="rgb(77,84,125)" stroke="rgb(77,84,125)" stroke-width="1" opacity="1" d="M 34.5 19 L 34.5 20 L 34.5 19 Z " /><path fill="rgb(77,84,125)" stroke="rgb(77,84,125)" stroke-width="1" opacity="1" d="M 20.5 20 L 20.5 21 L 20.5 20 Z " /><path fill="rgb(77,84,125)" stroke="rgb(77,84,125)" stroke-width="1" opacity="1" d="M 18.5 21 L 19 22.5 L 18 22.5 L 18.5 21 Z " /><path fill="rgb(77,84,125)" stroke="rgb(77,84,125)" stroke-width="1" opacity="1" d="M 25.5 24 L 26 25.5 L 25 25.5 L 25.5 24 Z " /><path fill="rgb(77,84,125)" stroke="rgb(77,84,125)" stroke-width="1" opacity="1" d="M 32.5 25 L 32.5 26 L 32.5 25 Z " /><path fill="rgb(77,84,125)" stroke="rgb(77,84,125)" stroke-width="1" opacity="1" d="M 11.5 26 L 12.5 27 L 17 27.5 L 12.5 28 Q 10 27 11.5 26 Z " /><path fill="rgb(77,84,125)" stroke="rgb(77,84,125)" stroke-width="1" opacity="1" d="M 20.5 26 L 20.5 27 L 20.5 26 Z " /><path fill="rgb(77,84,125)" stroke="rgb(77,84,125)" stroke-width="1" opacity="1" d="M 23.5 27 L 23.5 28 L 23.5 27 Z " /><path fill="rgb(77,84,125)" stroke="rgb(77,84,125)" stroke-width="1" opacity="1" d="M 29.5 27 L 34 27.5 L 29.5 28 L 29.5 27 Z " /><path fill="rgb(77,84,125)" stroke="rgb(77,84,125)" stroke-width="1" opacity="1" d="M 18.5 29 L 18.5 30 L 18.5 29 Z " /><path fill="rgb(77,84,125)" stroke="rgb(77,84,125)" stroke-width="1" opacity="1" d="M 26.5 29 L 26.5 30 L 26.5 29 Z " /><path fill="rgb(77,84,125)" stroke="rgb(77,84,125)" stroke-width="1" opacity="1" d="M 30.5 29 L 30.5 30 L 30.5 29 Z " /><path fill="rgb(77,84,125)" stroke="rgb(77,84,125)" stroke-width="1" opacity="1" d="M 14.5 31 L 16 31.5 L 14.5 32 L 14.5 31 Z " /><path fill="rgb(77,84,125)" stroke="rgb(77,84,125)" stroke-width="1" opacity="1" d="M 17.5 31 L 17.5 32 L 17.5 31 Z " /><path fill="rgb(77,84,125)" stroke="rgb(77,84,125)" stroke-width="1" opacity="1" d="M 23.5 31 L 23.5 32 L 23.5 31 Z " /><path fill="rgb(77,84,125)" stroke="rgb(77,84,125)" stroke-width="1" opacity="1" d="M 25.5 31 L 25.5 32 L 25.5 31 Z " /><path fill="rgb(77,84,125)" stroke="rgb(77,84,125)" stroke-width="1" opacity="1" d="M 28.5 31 L 28.5 32 L 28.5 31 Z " /><path fill="rgb(77,84,125)" stroke="rgb(77,84,125)" stroke-width="1" opacity="1" d="M 34.5 31 L 34.5 32 L 34.5 31 Z " /><path fill="rgb(92,42,77)" stroke="rgb(92,42,77)" stroke-width="1" opacity="1" d="M 12.5 28 L 38 28.5 L 12.5 29 L 12.5 28 Z " /><path fill="rgb(51,64,111)" stroke="rgb(51,64,111)" stroke-width="1" opacity="1" d="M 20.5 17 L 20.5 18 L 20.5 17 Z " /><path fill="rgb(51,64,111)" stroke="rgb(51,64,111)" stroke-width="1" opacity="1" d="M 32.5 18 L 33 20.5 L 32 20.5 L 32.5 18 Z " /><path fill="rgb(51,64,111)" stroke="rgb(51,64,111)" stroke-width="1" opacity="1" d="M 37.5 18 L 37.5 19 L 37.5 18 Z " /><path fill="rgb(51,64,111)" stroke="rgb(51,64,111)" stroke-width="1" opacity="1" d="M 12.5 19 L 13 24.5 L 12 24.5 L 12.5 19 Z " /><path fill="rgb(51,64,111)" stroke="rgb(51,64,111)" stroke-width="1" opacity="1" d="M 36.5 21 L 36.5 22 L 36.5 21 Z " /><path fill="rgb(51,64,111)" stroke="rgb(51,64,111)" stroke-width="1" opacity="1" d="M 18.5 23 L 18.5 24 L 18.5 23 Z " /><path fill="rgb(51,64,111)" stroke="rgb(51,64,111)" stroke-width="1" opacity="1" d="M 28.5 23 L 29 24.5 L 28 24.5 L 28.5 23 Z " /><path fill="rgb(51,64,111)" stroke="rgb(51,64,111)" stroke-width="1" opacity="1" d="M 32.5 23 L 33 24.5 L 32 24.5 L 32.5 23 Z " /><path fill="rgb(51,64,111)" stroke="rgb(51,64,111)" stroke-width="1" opacity="1" d="M 34.5 23 L 34.5 24 L 34.5 23 Z " /><path fill="rgb(51,64,111)" stroke="rgb(51,64,111)" stroke-width="1" opacity="1" d="M 22.5 24 L 22.5 25 L 22.5 24 Z " /><path fill="rgb(51,64,111)" stroke="rgb(51,64,111)" stroke-width="1" opacity="1" d="M 11.5 27 L 11.5 28 L 11.5 27 Z " /><path fill="rgb(51,64,111)" stroke="rgb(51,64,111)" stroke-width="1" opacity="1" d="M 11.5 29 L 11.5 30 L 11.5 29 Z " /><path fill="rgb(51,64,111)" stroke="rgb(51,64,111)" stroke-width="1" opacity="1" d="M 13.5 29 L 13.5 30 L 13.5 29 Z " /><path fill="rgb(51,64,111)" stroke="rgb(51,64,111)" stroke-width="1" opacity="1" d="M 17.5 29 L 17.5 30 L 17.5 29 Z " /><path fill="rgb(51,64,111)" stroke="rgb(51,64,111)" stroke-width="1" opacity="1" d="M 20.5 29 L 20.5 30 L 20.5 29 Z " /><path fill="rgb(51,64,111)" stroke="rgb(51,64,111)" stroke-width="1" opacity="1" d="M 25.5 29 L 25.5 30 L 25.5 29 Z " /><path fill="rgb(51,64,111)" stroke="rgb(51,64,111)" stroke-width="1" opacity="1" d="M 33.5 29 L 33.5 30 L 33.5 29 Z " /><path fill="rgb(51,64,111)" stroke="rgb(51,64,111)" stroke-width="1" opacity="1" d="M 35.5 29 L 35.5 30 L 35.5 29 Z " /><path fill="rgb(51,64,111)" stroke="rgb(51,64,111)" stroke-width="1" opacity="1" d="M 11.5 31 L 13 31.5 L 11.5 32 L 11.5 31 Z " /><path fill="rgb(27,42,95)" stroke="rgb(27,42,95)" stroke-width="1" opacity="1" d="M 12.5 15 L 20 15.5 L 12.5 16 L 12.5 15 Z " /><path fill="rgb(27,42,95)" stroke="rgb(27,42,95)" stroke-width="1" opacity="1" d="M 23.5 15 L 25 15.5 L 23.5 16 L 23.5 15 Z " /><path fill="rgb(27,42,95)" stroke="rgb(27,42,95)" stroke-width="1" opacity="1" d="M 28.5 15 L 35 15.5 L 28.5 16 L 28.5 15 Z " /><path fill="rgb(27,42,95)" stroke="rgb(27,42,95)" stroke-width="1" opacity="1" d="M 36.5 16 L 36.5 17 L 36.5 16 Z " /><path fill="rgb(27,42,95)" stroke="rgb(27,42,95)" stroke-width="1" opacity="1" d="M 10.5 17 L 10.5 18 L 10.5 17 Z " /><path fill="rgb(27,42,95)" stroke="rgb(27,42,95)" stroke-width="1" opacity="1" d="M 38.5 19 L 38.5 20 L 38.5 19 Z " /><path fill="rgb(27,42,95)" stroke="rgb(27,42,95)" stroke-width="1" opacity="1" d="M 19.5 21 L 20 26.5 L 19 26.5 L 19.5 21 Z " /><path fill="rgb(27,42,95)" stroke="rgb(27,42,95)" stroke-width="1" opacity="1" d="M 37.5 21 L 37.5 22 L 37.5 21 Z " /><path fill="rgb(27,42,95)" stroke="rgb(27,42,95)" stroke-width="1" opacity="1" d="M 28.5 22 L 28.5 23 L 28.5 22 Z " /><path fill="rgb(27,42,95)" stroke="rgb(27,42,95)" stroke-width="1" opacity="1" d="M 22.5 23 L 25 25.5 L 24.5 26 L 22 23.5 L 22.5 23 Z " /><path fill="rgb(27,42,95)" stroke="rgb(27,42,95)" stroke-width="1" opacity="1" d="M 38.5 23 L 39 25.5 L 38 25.5 L 38.5 23 Z " /><path fill="rgb(27,42,95)" stroke="rgb(27,42,95)" stroke-width="1" opacity="1" d="M 16 24 L 18 24.5 Q 17 27 16 25.5 L 16 24 Z " /><path fill="rgb(27,42,95)" stroke="rgb(27,42,95)" stroke-width="1" opacity="1" d="M 33.5 24 L 33.5 25 L 33.5 24 Z " /><path fill="rgb(27,42,95)" stroke="rgb(27,42,95)" stroke-width="1" opacity="1" d="M 11.5 25 Q 13 26 10.5 27 Q 9 26 11.5 25 Z " /><path fill="rgb(27,42,95)" stroke="rgb(27,42,95)" stroke-width="1" opacity="1" d="M 10.5 30 L 10.5 31 L 10.5 30 Z " /><path fill="rgb(27,42,95)" stroke="rgb(27,42,95)" stroke-width="1" opacity="1" d="M 38.5 30 L 38.5 31 L 38.5 30 Z " /><path fill="rgb(27,42,95)" stroke="rgb(27,42,95)" stroke-width="1" opacity="1" d="M 24.5 32 L 24.5 33 L 24.5 32 Z " /><path fill="rgb(27,42,95)" stroke="rgb(27,42,95)" stroke-width="1" opacity="1" d="M 32.5 32 L 32.5 33 L 32.5 32 Z " /></svg>