<svg width="48" height="48" version="1.1" xmlns="http://www.w3.org/2000/svg" desc="Created with imagetracer.js version 1.2.6" ><path fill="rgb(37,51,117)" stroke="rgb(37,51,117)" stroke-width="1" opacity="1" d="M 46.5 14 L 47 15.5 L 46 15.5 L 46.5 14 Z " /><path fill="rgb(37,51,117)" stroke="rgb(37,51,117)" stroke-width="1" opacity="1" d="M 19.5 15 L 19.5 16 L 19.5 15 Z " /><path fill="rgb(37,51,117)" stroke="rgb(37,51,117)" stroke-width="1" opacity="1" d="M 39.5 15 Q 42 16 40.5 17 Q 38 16 39.5 15 Z " /><path fill="rgb(37,51,117)" stroke="rgb(37,51,117)" stroke-width="1" opacity="1" d="M 43.5 15 L 43.5 16 L 43.5 15 Z " /><path fill="rgb(37,51,117)" stroke="rgb(37,51,117)" stroke-width="1" opacity="1" d="M 0.5 16 L 0.5 17 L 0.5 16 Z " /><path fill="rgb(37,51,117)" stroke="rgb(37,51,117)" stroke-width="1" opacity="1" d="M 27.5 16 L 29 20.5 Q 28 22 27 19.5 L 27.5 16 Z " /><path fill="rgb(37,51,117)" stroke="rgb(37,51,117)" stroke-width="1" opacity="1" d="M 34.5 16 L 35 18.5 L 34 18.5 L 34.5 16 Z " /><path fill="rgb(37,51,117)" stroke="rgb(37,51,117)" stroke-width="1" opacity="1" d="M 40.5 18 L 40.5 19 L 40.5 18 Z " /><path fill="rgb(37,51,117)" stroke="rgb(37,51,117)" stroke-width="1" opacity="1" d="M 33.5 21 Q 35 22 32.5 23 Q 31 22 33.5 21 Z " /><path fill="rgb(37,51,117)" stroke="rgb(37,51,117)" stroke-width="1" opacity="1" d="M 2.5 22 L 2.5 23 L 2.5 22 Z " /><path fill="rgb(37,51,117)" stroke="rgb(37,51,117)" stroke-width="1" opacity="1" d="M 7.5 22 L 9 22.5 L 7.5 23 L 7.5 22 Z " /><path fill="rgb(37,51,117)" stroke="rgb(37,51,117)" stroke-width="1" opacity="1" d="M 10.5 22 L 10.5 23 L 10.5 22 Z " /><path fill="rgb(37,51,117)" stroke="rgb(37,51,117)" stroke-width="1" opacity="1" d="M 13.5 22 L 15 22.5 L 13.5 23 L 13.5 22 Z " /><path fill="rgb(37,51,117)" stroke="rgb(37,51,117)" stroke-width="1" opacity="1" d="M 19.5 22 L 19.5 23 L 19.5 22 Z " /><path fill="rgb(37,51,117)" stroke="rgb(37,51,117)" stroke-width="1" opacity="1" d="M 22.5 22 L 22.5 25 Q 19.5 23.5 22.5 22 Z " /><path fill="rgb(37,51,117)" stroke="rgb(37,51,117)" stroke-width="1" opacity="1" d="M 25.5 22 L 25.5 23 L 25.5 22 Z " /><path fill="rgb(37,51,117)" stroke="rgb(37,51,117)" stroke-width="1" opacity="1" d="M 29.5 22 L 29.5 23 L 29.5 22 Z " /><path fill="rgb(37,51,117)" stroke="rgb(37,51,117)" stroke-width="1" opacity="1" d="M 35.5 22 L 35.5 23 L 35.5 22 Z " /><path fill="rgb(37,51,117)" stroke="rgb(37,51,117)" stroke-width="1" opacity="1" d="M 37.5 23 L 37.5 24 L 37.5 23 Z " /><path fill="rgb(37,51,117)" stroke="rgb(37,51,117)" stroke-width="1" opacity="1" d="M 27.5 24 L 27.5 25 L 27.5 24 Z " /><path fill="rgb(37,51,117)" stroke="rgb(37,51,117)" stroke-width="1" opacity="1" d="M 34.5 24 L 34.5 25 L 34.5 24 Z " /><path fill="rgb(37,51,117)" stroke="rgb(37,51,117)" stroke-width="1" opacity="1" d="M 40.5 24 Q 42 25 39.5 26 Q 38 25 40.5 24 Z " /><path fill="rgb(37,51,117)" stroke="rgb(37,51,117)" stroke-width="1" opacity="1" d="M 34.5 28 L 34.5 29 L 34.5 28 Z " /><path fill="rgb(37,51,117)" stroke="rgb(37,51,117)" stroke-width="1" opacity="1" d="M 40.5 28 L 40.5 29 L 40.5 28 Z " /><path fill="rgb(37,51,117)" stroke="rgb(37,51,117)" stroke-width="1" opacity="1" d="M 21.5 29 L 21.5 30 L 21.5 29 Z " /><path fill="rgb(37,51,117)" stroke="rgb(37,51,117)" stroke-width="1" opacity="1" d="M 24.5 29 L 24.5 30 L 24.5 29 Z " /><path fill="rgb(37,51,117)" stroke="rgb(37,51,117)" stroke-width="1" opacity="1" d="M 31.5 29 L 31.5 30 L 31.5 29 Z " /><path fill="rgb(37,51,117)" stroke="rgb(37,51,117)" stroke-width="1" opacity="1" d="M 37.5 29 Q 40 30 38.5 31 Q 36 30 37.5 29 Z " /><path fill="rgb(37,51,117)" stroke="rgb(37,51,117)" stroke-width="1" opacity="1" d="M 43.5 29 L 43.5 30 L 43.5 29 Z " /><path fill="rgb(37,51,117)" stroke="rgb(37,51,117)" stroke-width="1" opacity="1" d="M 46.5 29 L 46.5 30 L 46.5 29 Z " /><path fill="rgb(37,51,117)" stroke="rgb(37,51,117)" stroke-width="1" opacity="1" d="M 18.5 30 L 20 30.5 L 18.5 31 L 18.5 30 Z " /><path fill="rgb(38,52,118)" stroke="rgb(38,52,118)" stroke-width="1" opacity="0.996078431372549" d="M 0.5 47 L 48 47.5 L 0.5 48 L 0.5 47 Z " /><path fill="rgb(38,52,118)" stroke="rgb(38,52,118)" stroke-width="1" opacity="1" d="M 0 0 L 48 0 L 48 47 L 0 47 L 0 21.5 L 0.5 21 L 2.5 23 L 4.5 21 L 7 21 Q 5.88 23.67 8.5 23 L 9.5 22 L 11 22.5 Q 10.33 19.88 13 21 Q 12 24 15 23 L 15.5 21 L 17 23.5 Q 15 24.5 16 28.5 L 19.5 31 L 20.5 30 L 25 30 L 25.5 28 L 27.5 30 L 28 29.5 L 28.5 27 L 29.5 30 Q 30.5 28 31.5 30 L 34.5 29 Q 35.5 31 36.5 29 L 38.5 31 L 41 28.5 L 39 28 Q 38.5 25.5 41 24.5 Q 38.5 23.5 39 21 Q 42.67 22.35 41 16.5 L 39.5 15 L 38.5 16 L 37.5 15 L 34.5 16 L 27 16 L 27 19.5 L 30 21.5 L 28.5 25 L 26 24 L 25.5 22 L 22.5 24 L 19 21.5 L 22 21 L 22.5 23 L 25 20.5 Q 24.25 17.25 26 16.5 Q 25.25 14.25 21.5 15 L 20.5 16 L 19.5 15 L 18.5 16 L 17.5 15 L 16.5 16 L 15 15.5 L 14.5 17 L 13.5 15 Q 12.5 17 11.5 15 L 6.5 16 Q 5.75 14.25 2.5 15 L 0 16 L 0 0 Z M 44 13 L 43 16 L 43 30 L 45 32 L 47 30 L 47 15 L 44 13 Z " /><path fill="rgb(38,52,118)" stroke="rgb(38,52,118)" stroke-width="1" opacity="1" d="M 34.5 21 L 36 21.5 L 34.5 24 Q 31.5 22.5 34.5 21 Z " /><path fill="rgb(38,52,118)" stroke="rgb(38,52,118)" stroke-width="1" opacity="1" d="M 30.5 23 L 32 23.5 L 30.5 24 L 30.5 23 Z " /><path fill="rgb(38,52,118)" stroke="rgb(38,52,118)" stroke-width="1" opacity="1" d="M 22.5 27 L 22.5 28 L 22.5 27 Z " /><path fill="rgb(149,155,187)" stroke="rgb(149,155,187)" stroke-width="1" opacity="1" d="M 5.5 16 L 5.5 17 L 5.5 16 Z " /><path fill="rgb(149,155,187)" stroke="rgb(149,155,187)" stroke-width="1" opacity="1" d="M 18.5 16 L 18.5 17 L 18.5 16 Z " /><path fill="rgb(149,155,187)" stroke="rgb(149,155,187)" stroke-width="1" opacity="1" d="M 24.5 16 L 24.5 17 L 24.5 16 Z " /><path fill="rgb(149,155,187)" stroke="rgb(149,155,187)" stroke-width="1" opacity="1" d="M 29.5 16 L 29.5 17 L 29.5 16 Z " /><path fill="rgb(149,155,187)" stroke="rgb(149,155,187)" stroke-width="1" opacity="1" d="M 18.5 18 Q 21 19 19.5 20 Q 17 19 18.5 18 Z " /><path fill="rgb(149,155,187)" stroke="rgb(149,155,187)" stroke-width="1" opacity="1" d="M 44.5 21 L 45 23.5 L 44 23.5 L 44.5 21 Z " /><path fill="rgb(149,155,187)" stroke="rgb(149,155,187)" stroke-width="1" opacity="1" d="M 29.5 24 L 29.5 25 L 29.5 24 Z " /><path fill="rgb(149,155,187)" stroke="rgb(149,155,187)" stroke-width="1" opacity="1" d="M 38.5 24 L 38.5 25 L 38.5 24 Z " /><path fill="rgb(149,155,187)" stroke="rgb(149,155,187)" stroke-width="1" opacity="1" d="M 17.5 25 L 18 27.5 L 17 27.5 L 17.5 25 Z " /><path fill="rgb(149,155,187)" stroke="rgb(149,155,187)" stroke-width="1" opacity="1" d="M 19.5 28 L 19.5 29 L 19.5 28 Z " /><path fill="rgb(149,155,187)" stroke="rgb(149,155,187)" stroke-width="1" opacity="1" d="M 23.5 28 L 23.5 29 L 23.5 28 Z " /><path fill="rgb(149,155,187)" stroke="rgb(149,155,187)" stroke-width="1" opacity="1" d="M 32.5 28 L 32.5 29 L 32.5 28 Z " /><path fill="rgb(174,178,203)" stroke="rgb(174,178,203)" stroke-width="1" opacity="1" d="M 12.5 16 L 12.5 17 L 12.5 16 Z " /><path fill="rgb(174,178,203)" stroke="rgb(174,178,203)" stroke-width="1" opacity="1" d="M 16.5 16 L 16.5 17 L 16.5 16 Z " /><path fill="rgb(174,178,203)" stroke="rgb(174,178,203)" stroke-width="1" opacity="1" d="M 33.5 17 L 34 18.5 L 33 18.5 L 33.5 17 Z " /><path fill="rgb(174,178,203)" stroke="rgb(174,178,203)" stroke-width="1" opacity="1" d="M 4.5 18 L 4.5 19 L 4.5 18 Z " /><path fill="rgb(174,178,203)" stroke="rgb(174,178,203)" stroke-width="1" opacity="1" d="M 13.5 18 Q 15 19 12.5 20 Q 11 19 13.5 18 Z " /><path fill="rgb(174,178,203)" stroke="rgb(174,178,203)" stroke-width="1" opacity="1" d="M 7.5 20 L 7.5 21 L 7.5 20 Z " /><path fill="rgb(174,178,203)" stroke="rgb(174,178,203)" stroke-width="1" opacity="1" d="M 18.5 24 L 18.5 25 L 18.5 24 Z " /><path fill="rgb(174,178,203)" stroke="rgb(174,178,203)" stroke-width="1" opacity="1" d="M 25.5 24 L 25.5 25 L 25.5 24 Z " /><path fill="rgb(174,178,203)" stroke="rgb(174,178,203)" stroke-width="1" opacity="1" d="M 37.5 25 L 37.5 26 L 37.5 25 Z " /><path fill="rgb(174,178,203)" stroke="rgb(174,178,203)" stroke-width="1" opacity="1" d="M 24.5 26 L 24.5 27 L 24.5 26 Z " /><path fill="rgb(174,178,203)" stroke="rgb(174,178,203)" stroke-width="1" opacity="1" d="M 18.5 28 L 18.5 29 L 18.5 28 Z " /><path fill="rgb(164,168,196)" stroke="rgb(164,168,196)" stroke-width="1" opacity="1" d="M 2.5 16 L 2.5 17 L 2.5 16 Z " /><path fill="rgb(164,168,196)" stroke="rgb(164,168,196)" stroke-width="1" opacity="1" d="M 36.5 16 Q 38 17 35.5 18 Q 34 17 36.5 16 Z " /><path fill="rgb(164,168,196)" stroke="rgb(164,168,196)" stroke-width="1" opacity="1" d="M 38.5 16 L 38.5 17 L 38.5 16 Z " /><path fill="rgb(164,168,196)" stroke="rgb(164,168,196)" stroke-width="1" opacity="1" d="M 11.5 18 L 11.5 19 L 11.5 18 Z " /><path fill="rgb(164,168,196)" stroke="rgb(164,168,196)" stroke-width="1" opacity="1" d="M 38.5 18 Q 41 19 39.5 20 Q 37 19 38.5 18 Z " /><path fill="rgb(164,168,196)" stroke="rgb(164,168,196)" stroke-width="1" opacity="1" d="M 32.5 19 L 34 19.5 L 32.5 20 L 32.5 19 Z " /><path fill="rgb(164,168,196)" stroke="rgb(164,168,196)" stroke-width="1" opacity="1" d="M 19.5 24 Q 21.75 23.25 21 25.5 Q 20 28 19 26.5 L 20 25.5 L 19.5 24 Z " /><path fill="rgb(164,168,196)" stroke="rgb(164,168,196)" stroke-width="1" opacity="1" d="M 24.5 25 L 24.5 26 L 24.5 25 Z " /><path fill="rgb(164,168,196)" stroke="rgb(164,168,196)" stroke-width="1" opacity="1" d="M 35.5 25 L 36 27.5 L 35 27.5 L 35.5 25 Z " /><path fill="rgb(164,168,196)" stroke="rgb(164,168,196)" stroke-width="1" opacity="1" d="M 26.5 26 Q 28 27 25.5 28 Q 24 27 26.5 26 Z " /><path fill="rgb(164,168,196)" stroke="rgb(164,168,196)" stroke-width="1" opacity="1" d="M 29.5 26 L 30 27.5 L 29 27.5 L 29.5 26 Z " /><path fill="rgb(164,168,196)" stroke="rgb(164,168,196)" stroke-width="1" opacity="1" d="M 31.5 26 L 31.5 27 L 31.5 26 Z " /><path fill="rgb(164,168,196)" stroke="rgb(164,168,196)" stroke-width="1" opacity="1" d="M 23.5 27 L 23.5 28 L 23.5 27 Z " /><path fill="rgb(164,168,196)" stroke="rgb(164,168,196)" stroke-width="1" opacity="1" d="M 37.5 27 Q 40 28 38.5 29 Q 36 28 37.5 27 Z " /><path fill="rgb(164,168,196)" stroke="rgb(164,168,196)" stroke-width="1" opacity="1" d="M 20.5 28 L 20.5 29 L 20.5 28 Z " /><path fill="rgb(180,183,207)" stroke="rgb(180,183,207)" stroke-width="1" opacity="1" d="M 3.5 16 L 5 16.5 L 3.5 17 L 3.5 16 Z " /><path fill="rgb(180,183,207)" stroke="rgb(180,183,207)" stroke-width="1" opacity="1" d="M 10.5 16 L 12 16.5 L 10.5 17 L 10.5 16 Z " /><path fill="rgb(180,183,207)" stroke="rgb(180,183,207)" stroke-width="1" opacity="1" d="M 17.5 16 L 17.5 17 L 17.5 16 Z " /><path fill="rgb(180,183,207)" stroke="rgb(180,183,207)" stroke-width="1" opacity="1" d="M 21.5 16 L 21.5 17 L 21.5 16 Z " /><path fill="rgb(180,183,207)" stroke="rgb(180,183,207)" stroke-width="1" opacity="1" d="M 23.5 16 L 23.5 17 L 23.5 16 Z " /><path fill="rgb(180,183,207)" stroke="rgb(180,183,207)" stroke-width="1" opacity="1" d="M 37.5 16 L 37.5 17 L 37.5 16 Z " /><path fill="rgb(180,183,207)" stroke="rgb(180,183,207)" stroke-width="1" opacity="1" d="M 15.5 17 L 15.5 18 L 15.5 17 Z " /><path fill="rgb(180,183,207)" stroke="rgb(180,183,207)" stroke-width="1" opacity="1" d="M 13.5 19 L 13.5 20 L 13.5 19 Z " /><path fill="rgb(180,183,207)" stroke="rgb(180,183,207)" stroke-width="1" opacity="1" d="M 10.5 20 L 10.5 21 L 10.5 20 Z " /><path fill="rgb(180,183,207)" stroke="rgb(180,183,207)" stroke-width="1" opacity="1" d="M 22.5 20 L 22.5 21 L 22.5 20 Z " /><path fill="rgb(180,183,207)" stroke="rgb(180,183,207)" stroke-width="1" opacity="1" d="M 29.5 25 L 29.5 26 L 29.5 25 Z " /><path fill="rgb(102,111,158)" stroke="rgb(102,111,158)" stroke-width="1" opacity="1" d="M 44.5 15 L 44.5 16 L 44.5 15 Z " /><path fill="rgb(102,111,158)" stroke="rgb(102,111,158)" stroke-width="1" opacity="1" d="M 13.5 16 L 13.5 17 L 13.5 16 Z " /><path fill="rgb(102,111,158)" stroke="rgb(102,111,158)" stroke-width="1" opacity="1" d="M 20.5 16 Q 23 17 21.5 18 Q 19 17 20.5 16 Z " /><path fill="rgb(102,111,158)" stroke="rgb(102,111,158)" stroke-width="1" opacity="1" d="M 32.5 16 L 32.5 17 L 32.5 16 Z " /><path fill="rgb(102,111,158)" stroke="rgb(102,111,158)" stroke-width="1" opacity="1" d="M 4.5 17 Q 7.5 18.5 4.5 20 L 4.5 17 Z " /><path fill="rgb(102,111,158)" stroke="rgb(102,111,158)" stroke-width="1" opacity="1" d="M 8.5 17 L 9 20.5 L 8 20.5 L 8.5 17 Z " /><path fill="rgb(102,111,158)" stroke="rgb(102,111,158)" stroke-width="1" opacity="1" d="M 11.5 17 L 11.5 18 L 11.5 17 Z " /><path fill="rgb(102,111,158)" stroke="rgb(102,111,158)" stroke-width="1" opacity="1" d="M 17.5 17 L 17.5 18 L 17.5 17 Z " /><path fill="rgb(102,111,158)" stroke="rgb(102,111,158)" stroke-width="1" opacity="1" d="M 37.5 17 L 37.5 18 L 37.5 17 Z " /><path fill="rgb(102,111,158)" stroke="rgb(102,111,158)" stroke-width="1" opacity="1" d="M 15.5 18 L 15.5 19 L 15.5 18 Z " /><path fill="rgb(102,111,158)" stroke="rgb(102,111,158)" stroke-width="1" opacity="1" d="M 35.5 18 L 38 19.5 L 36.5 20 Q 34 19 35.5 18 Z " /><path fill="rgb(102,111,158)" stroke="rgb(102,111,158)" stroke-width="1" opacity="1" d="M 45.5 18 L 46 19.5 L 45 19.5 L 45.5 18 Z " /><path fill="rgb(102,111,158)" stroke="rgb(102,111,158)" stroke-width="1" opacity="1" d="M 17.5 19 L 17.5 20 L 17.5 19 Z " /><path fill="rgb(102,111,158)" stroke="rgb(102,111,158)" stroke-width="1" opacity="1" d="M 23.5 19 L 23.5 20 L 23.5 19 Z " /><path fill="rgb(102,111,158)" stroke="rgb(102,111,158)" stroke-width="1" opacity="1" d="M 19.5 20 L 19.5 21 L 19.5 20 Z " /><path fill="rgb(102,111,158)" stroke="rgb(102,111,158)" stroke-width="1" opacity="1" d="M 39.5 20 L 39.5 21 L 39.5 20 Z " /><path fill="rgb(102,111,158)" stroke="rgb(102,111,158)" stroke-width="1" opacity="1" d="M 24.5 24 L 24.5 25 L 24.5 24 Z " /><path fill="rgb(102,111,158)" stroke="rgb(102,111,158)" stroke-width="1" opacity="1" d="M 30.5 24 L 30.5 25 L 30.5 24 Z " /><path fill="rgb(102,111,158)" stroke="rgb(102,111,158)" stroke-width="1" opacity="1" d="M 32.5 24 L 34 24.5 L 32.5 25 L 32.5 24 Z " /><path fill="rgb(102,111,158)" stroke="rgb(102,111,158)" stroke-width="1" opacity="1" d="M 45.5 24 L 46 26.5 L 45 26.5 L 45.5 24 Z " /><path fill="rgb(102,111,158)" stroke="rgb(102,111,158)" stroke-width="1" opacity="1" d="M 21.5 25 L 21.5 26 L 21.5 25 Z " /><path fill="rgb(102,111,158)" stroke="rgb(102,111,158)" stroke-width="1" opacity="1" d="M 26.5 25 L 26.5 26 L 26.5 25 Z " /><path fill="rgb(102,111,158)" stroke="rgb(102,111,158)" stroke-width="1" opacity="1" d="M 23.5 26 L 23.5 27 L 23.5 26 Z " /><path fill="rgb(102,111,158)" stroke="rgb(102,111,158)" stroke-width="1" opacity="1" d="M 38.5 27 L 38.5 28 L 38.5 27 Z " /><path fill="rgb(102,111,158)" stroke="rgb(102,111,158)" stroke-width="1" opacity="1" d="M 26.5 28 L 26.5 29 L 26.5 28 Z " /><path fill="rgb(102,111,158)" stroke="rgb(102,111,158)" stroke-width="1" opacity="1" d="M 33.5 28 L 33.5 29 L 33.5 28 Z " /><path fill="rgb(102,111,158)" stroke="rgb(102,111,158)" stroke-width="1" opacity="1" d="M 44.5 29 L 44.5 30 L 44.5 29 Z " /><path fill="rgb(188,191,212)" stroke="rgb(188,191,212)" stroke-width="1" opacity="1" d="M 22.5 16 L 22.5 17 L 22.5 16 Z " /><path fill="rgb(188,191,212)" stroke="rgb(188,191,212)" stroke-width="1" opacity="1" d="M 7.5 17 L 8 19.5 L 7 19.5 L 7.5 17 Z " /><path fill="rgb(188,191,212)" stroke="rgb(188,191,212)" stroke-width="1" opacity="1" d="M 16.5 17 Q 19 18 17.5 19 Q 14.71 19.67 16.5 17 Z " /><path fill="rgb(188,191,212)" stroke="rgb(188,191,212)" stroke-width="1" opacity="1" d="M 3.5 18 L 3.5 19 L 3.5 18 Z " /><path fill="rgb(188,191,212)" stroke="rgb(188,191,212)" stroke-width="1" opacity="1" d="M 12.5 18 L 12.5 19 L 12.5 18 Z " /><path fill="rgb(188,191,212)" stroke="rgb(188,191,212)" stroke-width="1" opacity="1" d="M 36.5 18 L 39 19.5 Q 38 22 37 20.5 L 37.5 19 Q 35.13 18.88 36.5 18 Z " /><path fill="rgb(188,191,212)" stroke="rgb(188,191,212)" stroke-width="1" opacity="1" d="M 29.5 19 L 29.5 20 L 29.5 19 Z " /><path fill="rgb(188,191,212)" stroke="rgb(188,191,212)" stroke-width="1" opacity="1" d="M 2.5 20 L 2.5 21 L 2.5 20 Z " /><path fill="rgb(188,191,212)" stroke="rgb(188,191,212)" stroke-width="1" opacity="1" d="M 13.5 20 L 13.5 21 L 13.5 20 Z " /><path fill="rgb(188,191,212)" stroke="rgb(188,191,212)" stroke-width="1" opacity="1" d="M 17.5 20 L 17.5 21 L 17.5 20 Z " /><path fill="rgb(188,191,212)" stroke="rgb(188,191,212)" stroke-width="1" opacity="1" d="M 31.5 20 L 31.5 21 L 31.5 20 Z " /><path fill="rgb(188,191,212)" stroke="rgb(188,191,212)" stroke-width="1" opacity="1" d="M 25.5 25 L 25.5 26 L 25.5 25 Z " /><path fill="rgb(188,191,212)" stroke="rgb(188,191,212)" stroke-width="1" opacity="1" d="M 18.5 26 L 18.5 27 L 18.5 26 Z " /><path fill="rgb(188,191,212)" stroke="rgb(188,191,212)" stroke-width="1" opacity="1" d="M 24.5 27 L 24.5 28 L 24.5 27 Z " /><path fill="rgb(44,57,121)" stroke="rgb(44,57,121)" stroke-width="1" opacity="1" d="M 45.5 13 L 46 14.5 L 45 14.5 L 45.5 13 Z " /><path fill="rgb(44,57,121)" stroke="rgb(44,57,121)" stroke-width="1" opacity="1" d="M 2.5 15 Q 6.25 14.25 7 16.5 L 6.5 21 L 6 16 L 2.5 16 L 2.5 15 Z " /><path fill="rgb(44,57,121)" stroke="rgb(44,57,121)" stroke-width="1" opacity="1" d="M 10.5 15 L 12 15.5 L 10.5 16 L 10.5 15 Z " /><path fill="rgb(44,57,121)" stroke="rgb(44,57,121)" stroke-width="1" opacity="1" d="M 17.5 15 L 17.5 16 L 17.5 15 Z " /><path fill="rgb(44,57,121)" stroke="rgb(44,57,121)" stroke-width="1" opacity="1" d="M 21.5 15 Q 25.25 14.25 26 16.5 L 24.5 16 Q 20.5 16.75 21.5 15 Z " /><path fill="rgb(44,57,121)" stroke="rgb(44,57,121)" stroke-width="1" opacity="1" d="M 37.5 15 L 37.5 16 L 37.5 15 Z " /><path fill="rgb(44,57,121)" stroke="rgb(44,57,121)" stroke-width="1" opacity="1" d="M 28.5 16 L 28.5 17 L 28.5 16 Z " /><path fill="rgb(44,57,121)" stroke="rgb(44,57,121)" stroke-width="1" opacity="1" d="M 14.5 18 L 15 19.5 L 14 19.5 L 14.5 18 Z " /><path fill="rgb(44,57,121)" stroke="rgb(44,57,121)" stroke-width="1" opacity="1" d="M 21.5 18 L 22 20.5 L 21 20.5 L 21.5 18 Z " /><path fill="rgb(44,57,121)" stroke="rgb(44,57,121)" stroke-width="1" opacity="1" d="M 28.5 19 L 28.5 20 L 28.5 19 Z " /><path fill="rgb(44,57,121)" stroke="rgb(44,57,121)" stroke-width="1" opacity="1" d="M 31.5 19 L 31.5 20 L 31.5 19 Z " /><path fill="rgb(44,57,121)" stroke="rgb(44,57,121)" stroke-width="1" opacity="1" d="M 11.5 20 L 11.5 21 L 11.5 20 Z " /><path fill="rgb(44,57,121)" stroke="rgb(44,57,121)" stroke-width="1" opacity="1" d="M 1.5 21 L 1.5 22 L 1.5 21 Z " /><path fill="rgb(44,57,121)" stroke="rgb(44,57,121)" stroke-width="1" opacity="1" d="M 3.5 21 L 3.5 22 L 3.5 21 Z " /><path fill="rgb(44,57,121)" stroke="rgb(44,57,121)" stroke-width="1" opacity="1" d="M 8.5 21 L 10 21.5 L 8.5 22 L 8.5 21 Z " /><path fill="rgb(44,57,121)" stroke="rgb(44,57,121)" stroke-width="1" opacity="1" d="M 23.5 21 L 23.5 22 L 23.5 21 Z " /><path fill="rgb(44,57,121)" stroke="rgb(44,57,121)" stroke-width="1" opacity="1" d="M 17.5 23 L 17.5 24 L 17.5 23 Z " /><path fill="rgb(44,57,121)" stroke="rgb(44,57,121)" stroke-width="1" opacity="1" d="M 20.5 23 L 20.5 24 L 20.5 23 Z " /><path fill="rgb(44,57,121)" stroke="rgb(44,57,121)" stroke-width="1" opacity="1" d="M 24.5 23 L 27 24.5 L 25.5 24 Q 23.13 23.87 24.5 23 Z " /><path fill="rgb(44,57,121)" stroke="rgb(44,57,121)" stroke-width="1" opacity="1" d="M 29.5 23 L 29.5 24 L 29.5 23 Z " /><path fill="rgb(44,57,121)" stroke="rgb(44,57,121)" stroke-width="1" opacity="1" d="M 32.5 23 L 34 23.5 L 32.5 24 L 32.5 23 Z " /><path fill="rgb(44,57,121)" stroke="rgb(44,57,121)" stroke-width="1" opacity="1" d="M 35.5 23 L 37 23.5 L 35.5 24 L 35.5 23 Z " /><path fill="rgb(44,57,121)" stroke="rgb(44,57,121)" stroke-width="1" opacity="1" d="M 38.5 23 L 40 23.5 L 38.5 24 L 38.5 23 Z " /><path fill="rgb(44,57,121)" stroke="rgb(44,57,121)" stroke-width="1" opacity="1" d="M 23.5 25 L 23.5 26 L 23.5 25 Z " /><path fill="rgb(44,57,121)" stroke="rgb(44,57,121)" stroke-width="1" opacity="1" d="M 28.5 25 L 29 27 L 27 26.5 L 28.5 25 Z " /><path fill="rgb(44,57,121)" stroke="rgb(44,57,121)" stroke-width="1" opacity="1" d="M 19.5 27 L 19.5 28 L 19.5 27 Z " /><path fill="rgb(44,57,121)" stroke="rgb(44,57,121)" stroke-width="1" opacity="1" d="M 24.5 28 Q 26 29 23.5 30 L 22 29.5 L 24.5 28 Z " /><path fill="rgb(44,57,121)" stroke="rgb(44,57,121)" stroke-width="1" opacity="1" d="M 31.5 28 L 34 29.5 L 32.5 30 Q 30 29 31.5 28 Z " /><path fill="rgb(44,57,121)" stroke="rgb(44,57,121)" stroke-width="1" opacity="1" d="M 17.5 29 L 17.5 30 L 17.5 29 Z " /><path fill="rgb(44,57,121)" stroke="rgb(44,57,121)" stroke-width="1" opacity="1" d="M 20.5 29 L 20.5 30 L 20.5 29 Z " /><path fill="rgb(44,57,121)" stroke="rgb(44,57,121)" stroke-width="1" opacity="1" d="M 27.5 29 L 27.5 30 L 27.5 29 Z " /><path fill="rgb(44,57,121)" stroke="rgb(44,57,121)" stroke-width="1" opacity="1" d="M 29.5 29 L 29.5 30 L 29.5 29 Z " /><path fill="rgb(44,57,121)" stroke="rgb(44,57,121)" stroke-width="1" opacity="1" d="M 35.5 29 L 35.5 30 L 35.5 29 Z " /><path fill="rgb(44,57,121)" stroke="rgb(44,57,121)" stroke-width="1" opacity="1" d="M 38.5 29 L 40 29.5 L 38.5 30 L 38.5 29 Z " /><path fill="rgb(44,57,121)" stroke="rgb(44,57,121)" stroke-width="1" opacity="1" d="M 45.5 30 Q 47 31 44.5 32 Q 43 31 45.5 30 Z " /><path fill="rgb(61,73,132)" stroke="rgb(61,73,132)" stroke-width="1" opacity="1" d="M 44.5 13 L 44.5 14 L 44.5 13 Z " /><path fill="rgb(61,73,132)" stroke="rgb(61,73,132)" stroke-width="1" opacity="1" d="M 45.5 15 L 45.5 16 L 45.5 15 Z " /><path fill="rgb(61,73,132)" stroke="rgb(61,73,132)" stroke-width="1" opacity="1" d="M 1.5 16 L 2.5 21 L 4 20.5 Q 2.5 23.5 1 20.5 L 1.5 16 Z " /><path fill="rgb(61,73,132)" stroke="rgb(61,73,132)" stroke-width="1" opacity="1" d="M 9.5 16 L 9.5 17 L 9.5 16 Z " /><path fill="rgb(61,73,132)" stroke="rgb(61,73,132)" stroke-width="1" opacity="1" d="M 19.5 16 Q 22.5 17.5 19.5 19 L 19.5 16 Z " /><path fill="rgb(61,73,132)" stroke="rgb(61,73,132)" stroke-width="1" opacity="1" d="M 39.5 16 L 39.5 17 L 39.5 16 Z " /><path fill="rgb(61,73,132)" stroke="rgb(61,73,132)" stroke-width="1" opacity="1" d="M 14.5 17 L 14.5 18 L 14.5 17 Z " /><path fill="rgb(61,73,132)" stroke="rgb(61,73,132)" stroke-width="1" opacity="1" d="M 28.5 17 L 29 18.5 L 28 18.5 L 28.5 17 Z " /><path fill="rgb(61,73,132)" stroke="rgb(61,73,132)" stroke-width="1" opacity="1" d="M 39.5 18 L 39.5 19 L 39.5 18 Z " /><path fill="rgb(61,73,132)" stroke="rgb(61,73,132)" stroke-width="1" opacity="1" d="M 12.5 20 L 15 21.5 L 13.5 22 Q 11 21 12.5 20 Z " /><path fill="rgb(61,73,132)" stroke="rgb(61,73,132)" stroke-width="1" opacity="1" d="M 7.5 21 L 7.5 22 L 7.5 21 Z " /><path fill="rgb(61,73,132)" stroke="rgb(61,73,132)" stroke-width="1" opacity="1" d="M 10.5 21 L 10.5 22 L 10.5 21 Z " /><path fill="rgb(61,73,132)" stroke="rgb(61,73,132)" stroke-width="1" opacity="1" d="M 16.5 21 L 16.5 22 L 16.5 21 Z " /><path fill="rgb(61,73,132)" stroke="rgb(61,73,132)" stroke-width="1" opacity="1" d="M 18.5 21 L 18.5 22 L 18.5 21 Z " /><path fill="rgb(61,73,132)" stroke="rgb(61,73,132)" stroke-width="1" opacity="1" d="M 22.5 21 L 22.5 22 L 22.5 21 Z " /><path fill="rgb(61,73,132)" stroke="rgb(61,73,132)" stroke-width="1" opacity="1" d="M 30.5 21 L 30.5 22 L 30.5 21 Z " /><path fill="rgb(61,73,132)" stroke="rgb(61,73,132)" stroke-width="1" opacity="1" d="M 32.5 21 L 32.5 22 L 32.5 21 Z " /><path fill="rgb(61,73,132)" stroke="rgb(61,73,132)" stroke-width="1" opacity="1" d="M 36.5 21 L 36.5 22 L 36.5 21 Z " /><path fill="rgb(61,73,132)" stroke="rgb(61,73,132)" stroke-width="1" opacity="1" d="M 38.5 21 L 38.5 22 L 38.5 21 Z " /><path fill="rgb(61,73,132)" stroke="rgb(61,73,132)" stroke-width="1" opacity="1" d="M 18.5 23 L 20 23.5 L 18.5 24 L 18.5 23 Z " /><path fill="rgb(61,73,132)" stroke="rgb(61,73,132)" stroke-width="1" opacity="1" d="M 21.5 24 L 21.5 25 L 21.5 24 Z " /><path fill="rgb(61,73,132)" stroke="rgb(61,73,132)" stroke-width="1" opacity="1" d="M 36.5 24 L 36.5 25 L 36.5 24 Z " /><path fill="rgb(61,73,132)" stroke="rgb(61,73,132)" stroke-width="1" opacity="1" d="M 39.5 24 L 39.5 25 L 39.5 24 Z " /><path fill="rgb(61,73,132)" stroke="rgb(61,73,132)" stroke-width="1" opacity="1" d="M 19.5 25 L 19.5 26 L 19.5 25 Z " /><path fill="rgb(61,73,132)" stroke="rgb(61,73,132)" stroke-width="1" opacity="1" d="M 22.5 28 L 22.5 29 L 22.5 28 Z " /><path fill="rgb(61,73,132)" stroke="rgb(61,73,132)" stroke-width="1" opacity="1" d="M 30.5 28 L 30.5 29 L 30.5 28 Z " /><path fill="rgb(61,73,132)" stroke="rgb(61,73,132)" stroke-width="1" opacity="1" d="M 36.5 28 L 36.5 29 L 36.5 28 Z " /><path fill="rgb(61,73,132)" stroke="rgb(61,73,132)" stroke-width="1" opacity="1" d="M 39.5 28 L 39.5 29 L 39.5 28 Z " /><path fill="rgb(61,73,132)" stroke="rgb(61,73,132)" stroke-width="1" opacity="1" d="M 45.5 28 L 46 29.5 L 45 29.5 L 45.5 28 Z " /><path fill="rgb(61,73,132)" stroke="rgb(61,73,132)" stroke-width="1" opacity="1" d="M 18.5 29 L 20 29.5 L 18.5 30 L 18.5 29 Z " /><path fill="rgb(82,92,145)" stroke="rgb(82,92,145)" stroke-width="1" opacity="1" d="M 44.5 14 L 44.5 15 L 44.5 14 Z " /><path fill="rgb(82,92,145)" stroke="rgb(82,92,145)" stroke-width="1" opacity="1" d="M 8.5 16 Q 10.75 16.75 10 20.5 L 9 20.5 L 9 17.5 L 8.5 16 Z " /><path fill="rgb(82,92,145)" stroke="rgb(82,92,145)" stroke-width="1" opacity="1" d="M 15.5 16 L 15.5 17 L 15.5 16 Z " /><path fill="rgb(82,92,145)" stroke="rgb(82,92,145)" stroke-width="1" opacity="1" d="M 30.5 16 L 31 18.5 L 30 18.5 L 30.5 16 Z " /><path fill="rgb(82,92,145)" stroke="rgb(82,92,145)" stroke-width="1" opacity="1" d="M 35.5 16 L 35.5 17 L 35.5 16 Z " /><path fill="rgb(82,92,145)" stroke="rgb(82,92,145)" stroke-width="1" opacity="1" d="M 45.5 16 L 46 17.5 L 45 17.5 L 45.5 16 Z " /><path fill="rgb(82,92,145)" stroke="rgb(82,92,145)" stroke-width="1" opacity="1" d="M 5.5 17 L 5.5 18 L 5.5 17 Z " /><path fill="rgb(82,92,145)" stroke="rgb(82,92,145)" stroke-width="1" opacity="1" d="M 24.5 17 Q 26 18 23.5 19 Q 22 18 24.5 17 Z " /><path fill="rgb(82,92,145)" stroke="rgb(82,92,145)" stroke-width="1" opacity="1" d="M 39.5 17 L 39.5 18 L 39.5 17 Z " /><path fill="rgb(82,92,145)" stroke="rgb(82,92,145)" stroke-width="1" opacity="1" d="M 5.5 19 L 5.5 20 L 5.5 19 Z " /><path fill="rgb(82,92,145)" stroke="rgb(82,92,145)" stroke-width="1" opacity="1" d="M 15.5 19 L 17 19.5 L 14.5 21 Q 13 20 15.5 19 Z " /><path fill="rgb(82,92,145)" stroke="rgb(82,92,145)" stroke-width="1" opacity="1" d="M 35.5 19 L 35.5 20 L 35.5 19 Z " /><path fill="rgb(82,92,145)" stroke="rgb(82,92,145)" stroke-width="1" opacity="1" d="M 23.5 20 L 23.5 21 L 23.5 20 Z " /><path fill="rgb(82,92,145)" stroke="rgb(82,92,145)" stroke-width="1" opacity="1" d="M 33.5 20 L 33.5 21 L 33.5 20 Z " /><path fill="rgb(82,92,145)" stroke="rgb(82,92,145)" stroke-width="1" opacity="1" d="M 17.5 21 L 17.5 22 L 17.5 21 Z " /><path fill="rgb(82,92,145)" stroke="rgb(82,92,145)" stroke-width="1" opacity="1" d="M 31.5 21 L 31.5 22 L 31.5 21 Z " /><path fill="rgb(82,92,145)" stroke="rgb(82,92,145)" stroke-width="1" opacity="1" d="M 37.5 21 L 37.5 22 L 37.5 21 Z " /><path fill="rgb(82,92,145)" stroke="rgb(82,92,145)" stroke-width="1" opacity="1" d="M 37.5 24 Q 40 25 38.5 26 Q 36 25 37.5 24 Z " /><path fill="rgb(82,92,145)" stroke="rgb(82,92,145)" stroke-width="1" opacity="1" d="M 31.5 25 L 31.5 26 L 31.5 25 Z " /><path fill="rgb(82,92,145)" stroke="rgb(82,92,145)" stroke-width="1" opacity="1" d="M 21.5 26 L 21.5 27 L 21.5 26 Z " /><path fill="rgb(82,92,145)" stroke="rgb(82,92,145)" stroke-width="1" opacity="1" d="M 27.5 27 L 27.5 28 L 27.5 27 Z " /><path fill="rgb(82,92,145)" stroke="rgb(82,92,145)" stroke-width="1" opacity="1" d="M 30.5 27 L 30.5 28 L 30.5 27 Z " /><path fill="rgb(82,92,145)" stroke="rgb(82,92,145)" stroke-width="1" opacity="1" d="M 45.5 27 L 45.5 28 L 45.5 27 Z " /><path fill="rgb(82,92,145)" stroke="rgb(82,92,145)" stroke-width="1" opacity="1" d="M 21.5 28 L 21.5 29 L 21.5 28 Z " /><path fill="rgb(82,92,145)" stroke="rgb(82,92,145)" stroke-width="1" opacity="1" d="M 37.5 28 L 37.5 29 L 37.5 28 Z " /><path fill="rgb(82,92,145)" stroke="rgb(82,92,145)" stroke-width="1" opacity="1" d="M 44.5 30 L 44.5 31 L 44.5 30 Z " /><path fill="rgb(36,50,116)" stroke="rgb(36,50,116)" stroke-width="1" opacity="1" d="M 13.5 15 L 13.5 16 L 13.5 15 Z " /><path fill="rgb(36,50,116)" stroke="rgb(36,50,116)" stroke-width="1" opacity="1" d="M 15.5 15 L 15.5 16 L 15.5 15 Z " /><path fill="rgb(36,50,116)" stroke="rgb(36,50,116)" stroke-width="1" opacity="1" d="M 35.5 15 L 35.5 16 L 35.5 15 Z " /><path fill="rgb(36,50,116)" stroke="rgb(36,50,116)" stroke-width="1" opacity="1" d="M 43.5 16 L 44 28.5 L 43 28.5 L 43.5 16 Z " /><path fill="rgb(36,50,116)" stroke="rgb(36,50,116)" stroke-width="1" opacity="1" d="M 46.5 16 L 47 19.5 L 46 19.5 L 46.5 16 Z " /><path fill="rgb(36,50,116)" stroke="rgb(36,50,116)" stroke-width="1" opacity="1" d="M 0.5 17 L 1 20.5 L 0 20.5 L 0.5 17 Z " /><path fill="rgb(36,50,116)" stroke="rgb(36,50,116)" stroke-width="1" opacity="1" d="M 40.5 17 L 40.5 18 L 40.5 17 Z " /><path fill="rgb(36,50,116)" stroke="rgb(36,50,116)" stroke-width="1" opacity="1" d="M 20.5 18 L 20.5 19 L 20.5 18 Z " /><path fill="rgb(36,50,116)" stroke="rgb(36,50,116)" stroke-width="1" opacity="1" d="M 24.5 19 L 25 20.5 L 24 20.5 L 24.5 19 Z " /><path fill="rgb(36,50,116)" stroke="rgb(36,50,116)" stroke-width="1" opacity="1" d="M 34.5 19 L 35 20.5 L 34 20.5 L 34.5 19 Z " /><path fill="rgb(36,50,116)" stroke="rgb(36,50,116)" stroke-width="1" opacity="1" d="M 40.5 19 L 41 20.5 L 40 20.5 L 40.5 19 Z " /><path fill="rgb(36,50,116)" stroke="rgb(36,50,116)" stroke-width="1" opacity="1" d="M 5.5 20 L 5.5 21 L 5.5 20 Z " /><path fill="rgb(36,50,116)" stroke="rgb(36,50,116)" stroke-width="1" opacity="1" d="M 20.5 20 L 20.5 21 L 20.5 20 Z " /><path fill="rgb(36,50,116)" stroke="rgb(36,50,116)" stroke-width="1" opacity="1" d="M 16.5 22 L 19 22.5 L 16.5 23 L 16.5 22 Z " /><path fill="rgb(36,50,116)" stroke="rgb(36,50,116)" stroke-width="1" opacity="1" d="M 30.5 22 L 32 22.5 L 30.5 23 L 30.5 22 Z " /><path fill="rgb(36,50,116)" stroke="rgb(36,50,116)" stroke-width="1" opacity="1" d="M 36.5 22 L 39 22.5 L 36.5 23 L 36.5 22 Z " /><path fill="rgb(36,50,116)" stroke="rgb(36,50,116)" stroke-width="1" opacity="1" d="M 16.5 24 L 17 28.5 L 16 28.5 L 16.5 24 Z " /><path fill="rgb(36,50,116)" stroke="rgb(36,50,116)" stroke-width="1" opacity="1" d="M 23.5 24 L 23.5 25 L 23.5 24 Z " /><path fill="rgb(36,50,116)" stroke="rgb(36,50,116)" stroke-width="1" opacity="1" d="M 27.5 25 L 27.5 26 L 27.5 25 Z " /><path fill="rgb(36,50,116)" stroke="rgb(36,50,116)" stroke-width="1" opacity="1" d="M 34.5 25 L 35 27.5 L 34 27.5 L 34.5 25 Z " /><path fill="rgb(36,50,116)" stroke="rgb(36,50,116)" stroke-width="1" opacity="1" d="M 46.5 25 L 47 28.5 L 46 28.5 L 46.5 25 Z " /><path fill="rgb(134,140,178)" stroke="rgb(134,140,178)" stroke-width="1" opacity="1" d="M 7.5 16 L 7.5 17 L 7.5 16 Z " /><path fill="rgb(134,140,178)" stroke="rgb(134,140,178)" stroke-width="1" opacity="1" d="M 33.5 16 L 33 17.5 L 32.5 19 L 32 17.5 L 33.5 16 Z " /><path fill="rgb(134,140,178)" stroke="rgb(134,140,178)" stroke-width="1" opacity="1" d="M 12.5 17 L 12.5 18 L 12.5 17 Z " /><path fill="rgb(134,140,178)" stroke="rgb(134,140,178)" stroke-width="1" opacity="1" d="M 18.5 17 L 18.5 18 L 18.5 17 Z " /><path fill="rgb(134,140,178)" stroke="rgb(134,140,178)" stroke-width="1" opacity="1" d="M 23.5 17 L 23.5 18 L 23.5 17 Z " /><path fill="rgb(134,140,178)" stroke="rgb(134,140,178)" stroke-width="1" opacity="1" d="M 38.5 17 L 38.5 18 L 38.5 17 Z " /><path fill="rgb(134,140,178)" stroke="rgb(134,140,178)" stroke-width="1" opacity="1" d="M 44.5 17 L 45 20.5 L 44 20.5 L 44.5 17 Z " /><path fill="rgb(134,140,178)" stroke="rgb(134,140,178)" stroke-width="1" opacity="1" d="M 15.5 20 L 15.5 21 L 15.5 20 Z " /><path fill="rgb(134,140,178)" stroke="rgb(134,140,178)" stroke-width="1" opacity="1" d="M 17.5 24 L 17.5 25 L 17.5 24 Z " /><path fill="rgb(134,140,178)" stroke="rgb(134,140,178)" stroke-width="1" opacity="1" d="M 35.5 24 L 35.5 25 L 35.5 24 Z " /><path fill="rgb(134,140,178)" stroke="rgb(134,140,178)" stroke-width="1" opacity="1" d="M 44.5 24 L 45 26.5 L 44 26.5 L 44.5 24 Z " /><path fill="rgb(134,140,178)" stroke="rgb(134,140,178)" stroke-width="1" opacity="1" d="M 30.5 26 L 30.5 27 L 30.5 26 Z " /><path fill="rgb(134,140,178)" stroke="rgb(134,140,178)" stroke-width="1" opacity="1" d="M 32.5 26 L 32.5 27 L 32.5 26 Z " /><path fill="rgb(134,140,178)" stroke="rgb(134,140,178)" stroke-width="1" opacity="1" d="M 37.5 26 L 37.5 27 L 37.5 26 Z " /><path fill="rgb(134,140,178)" stroke="rgb(134,140,178)" stroke-width="1" opacity="1" d="M 20.5 27 L 22 27.5 L 20.5 28 L 20.5 27 Z " /><path fill="rgb(134,140,178)" stroke="rgb(134,140,178)" stroke-width="1" opacity="1" d="M 29.5 28 L 29.5 29 L 29.5 28 Z " /><path fill="rgb(134,140,178)" stroke="rgb(134,140,178)" stroke-width="1" opacity="1" d="M 35.5 28 L 35.5 29 L 35.5 28 Z " /><path fill="rgb(34,48,115)" stroke="rgb(34,48,115)" stroke-width="1" opacity="1" d="M 31.5 16 L 32 18.5 L 31 18.5 L 31.5 16 Z " /><path fill="rgb(34,48,115)" stroke="rgb(34,48,115)" stroke-width="1" opacity="1" d="M 24.5 18 L 24.5 19 L 24.5 18 Z " /><path fill="rgb(34,48,115)" stroke="rgb(34,48,115)" stroke-width="1" opacity="1" d="M 20.5 19 L 20.5 20 L 20.5 19 Z " /><path fill="rgb(34,48,115)" stroke="rgb(34,48,115)" stroke-width="1" opacity="1" d="M 4.5 20 L 4.5 21 L 4.5 20 Z " /><path fill="rgb(34,48,115)" stroke="rgb(34,48,115)" stroke-width="1" opacity="1" d="M 46.5 20 L 47 24.5 L 46 24.5 L 46.5 20 Z " /><path fill="rgb(34,48,115)" stroke="rgb(34,48,115)" stroke-width="1" opacity="1" d="M 31.5 24 L 31.5 25 L 31.5 24 Z " /><path fill="rgb(34,48,115)" stroke="rgb(34,48,115)" stroke-width="1" opacity="1" d="M 22.5 25 L 23 26.5 L 22 26.5 L 22.5 25 Z " /><path fill="rgb(34,48,115)" stroke="rgb(34,48,115)" stroke-width="1" opacity="1" d="M 38.5 26 L 38.5 27 L 38.5 26 Z " /><path fill="rgb(119,126,168)" stroke="rgb(119,126,168)" stroke-width="1" opacity="1" d="M 44.5 16 L 44.5 17 L 44.5 16 Z " /><path fill="rgb(119,126,168)" stroke="rgb(119,126,168)" stroke-width="1" opacity="1" d="M 3.5 17 L 3.5 18 L 3.5 17 Z " /><path fill="rgb(119,126,168)" stroke="rgb(119,126,168)" stroke-width="1" opacity="1" d="M 3.5 19 L 3.5 20 L 3.5 19 Z " /><path fill="rgb(119,126,168)" stroke="rgb(119,126,168)" stroke-width="1" opacity="1" d="M 11.5 19 L 11.5 20 L 11.5 19 Z " /><path fill="rgb(119,126,168)" stroke="rgb(119,126,168)" stroke-width="1" opacity="1" d="M 30.5 19 Q 32 20 29.5 21 Q 28 20 30.5 19 Z " /><path fill="rgb(119,126,168)" stroke="rgb(119,126,168)" stroke-width="1" opacity="1" d="M 35.5 20 L 35.5 21 L 35.5 20 Z " /><path fill="rgb(119,126,168)" stroke="rgb(119,126,168)" stroke-width="1" opacity="1" d="M 45.5 20 L 46 23.5 L 45 23.5 L 45.5 20 Z " /><path fill="rgb(119,126,168)" stroke="rgb(119,126,168)" stroke-width="1" opacity="1" d="M 18.5 25 L 18.5 26 L 18.5 25 Z " /><path fill="rgb(119,126,168)" stroke="rgb(119,126,168)" stroke-width="1" opacity="1" d="M 32.5 25 Q 35.13 24.17 34 27.5 L 33 27.5 L 32.5 25 Z " /><path fill="rgb(119,126,168)" stroke="rgb(119,126,168)" stroke-width="1" opacity="1" d="M 36.5 25 L 36.5 26 L 36.5 25 Z " /><path fill="rgb(119,126,168)" stroke="rgb(119,126,168)" stroke-width="1" opacity="1" d="M 25.5 26 L 25.5 27 L 25.5 26 Z " /><path fill="rgb(119,126,168)" stroke="rgb(119,126,168)" stroke-width="1" opacity="1" d="M 18.5 27 Q 20 28 17.5 29 Q 16 28 18.5 27 Z " /><path fill="rgb(119,126,168)" stroke="rgb(119,126,168)" stroke-width="1" opacity="1" d="M 31.5 27 L 31.5 28 L 31.5 27 Z " /><path fill="rgb(119,126,168)" stroke="rgb(119,126,168)" stroke-width="1" opacity="1" d="M 36.5 27 L 36.5 28 L 36.5 27 Z " /><path fill="rgb(119,126,168)" stroke="rgb(119,126,168)" stroke-width="1" opacity="1" d="M 44.5 27 L 45 28.5 L 44 28.5 L 44.5 27 Z " /><path fill="rgb(119,126,168)" stroke="rgb(119,126,168)" stroke-width="1" opacity="1" d="M 27.5 28 L 27.5 29 L 27.5 28 Z " /><path fill="rgb(204,206,222)" stroke="rgb(204,206,222)" stroke-width="1" opacity="1" d="M 2.5 17 L 3 19.5 L 2 19.5 L 2.5 17 Z " /><path fill="rgb(204,206,222)" stroke="rgb(204,206,222)" stroke-width="1" opacity="1" d="M 10.5 17 L 11 19.5 L 10 19.5 L 10.5 17 Z " /><path fill="rgb(204,206,222)" stroke="rgb(204,206,222)" stroke-width="1" opacity="1" d="M 13.5 17 L 13.5 18 L 13.5 17 Z " /><path fill="rgb(204,206,222)" stroke="rgb(204,206,222)" stroke-width="1" opacity="1" d="M 22.5 17 L 23 19.5 L 22 19.5 L 22.5 17 Z " /><path fill="rgb(204,206,222)" stroke="rgb(204,206,222)" stroke-width="1" opacity="1" d="M 29.5 17 L 30 18.5 L 29 18.5 L 29.5 17 Z " /><path fill="rgb(204,206,222)" stroke="rgb(204,206,222)" stroke-width="1" opacity="1" d="M 36.5 17 L 36.5 18 L 36.5 17 Z " /><path fill="rgb(204,206,222)" stroke="rgb(204,206,222)" stroke-width="1" opacity="1" d="M 18.5 19 L 19 20.5 L 18 20.5 L 18.5 19 Z " /><path fill="rgb(204,206,222)" stroke="rgb(204,206,222)" stroke-width="1" opacity="1" d="M 16.5 20 L 16.5 21 L 16.5 20 Z " /><path fill="rgb(204,206,222)" stroke="rgb(204,206,222)" stroke-width="1" opacity="1" d="M 30.5 20 L 30.5 21 L 30.5 20 Z " /><path fill="rgb(204,206,222)" stroke="rgb(204,206,222)" stroke-width="1" opacity="1" d="M 32.5 20 L 32.5 21 L 32.5 20 Z " /><path fill="rgb(204,206,222)" stroke="rgb(204,206,222)" stroke-width="1" opacity="1" d="M 36.5 20 L 36.5 21 L 36.5 20 Z " /><path fill="rgb(204,206,222)" stroke="rgb(204,206,222)" stroke-width="1" opacity="1" d="M 38.5 20 L 38.5 21 L 38.5 20 Z " /><path fill="rgb(204,206,222)" stroke="rgb(204,206,222)" stroke-width="1" opacity="1" d="M 30.5 25 L 30.5 26 L 30.5 25 Z " /><path fill="rgb(204,206,222)" stroke="rgb(204,206,222)" stroke-width="1" opacity="1" d="M 20.5 26 L 20.5 27 L 20.5 26 Z " /><path fill="rgb(204,206,222)" stroke="rgb(204,206,222)" stroke-width="1" opacity="1" d="M 36.5 26 L 36.5 27 L 36.5 26 Z " /><path fill="rgb(204,206,222)" stroke="rgb(204,206,222)" stroke-width="1" opacity="1" d="M 26.5 27 L 26.5 28 L 26.5 27 Z " /><path fill="rgb(204,206,222)" stroke="rgb(204,206,222)" stroke-width="1" opacity="1" d="M 32.5 27 L 32.5 28 L 32.5 27 Z " /></svg>