<svg width="16" height="16" version="1.1" xmlns="http://www.w3.org/2000/svg" desc="Created with imagetracer.js version 1.2.6" ><path fill="rgb(255,255,255)" stroke="rgb(255,255,255)" stroke-width="1" opacity="0.00392156862745098" d="M 0 0 L 4 0.5 L 0.5 3 L 0 0 Z " /><path fill="rgb(255,255,255)" stroke="rgb(255,255,255)" stroke-width="1" opacity="0.00392156862745098" d="M 12.5 0 Q 17.75 -1.75 16 3.5 L 15 3.5 L 13.5 1 Q 11.13 0.87 12.5 0 Z " /><path fill="rgb(255,255,255)" stroke="rgb(255,255,255)" stroke-width="1" opacity="0.00392156862745098" d="M 0.5 12 L 2.5 15 L 4 15.5 L 0 16 L 0.5 12 Z " /><path fill="rgb(255,255,255)" stroke="rgb(255,255,255)" stroke-width="1" opacity="0.00392156862745098" d="M 15.5 12 L 16 16 L 12 15.5 L 15 13.5 L 15.5 12 Z " /><path fill="rgb(239,240,242)" stroke="rgb(239,240,242)" stroke-width="1" opacity="0.027450980392156862" d="M 2.5 1 Q 4 2 1.5 3 Q 0 2 2.5 1 Z " /><path fill="rgb(239,240,242)" stroke="rgb(239,240,242)" stroke-width="1" opacity="0.027450980392156862" d="M 13.5 1 L 13.5 2 L 13.5 1 Z " /><path fill="rgb(109,123,134)" stroke="rgb(109,123,134)" stroke-width="1" opacity="0.9568627450980393" d="M 3.5 2 Q 5 3 2.5 4 Q 1 3 3.5 2 Z " /><path fill="rgb(109,123,134)" stroke="rgb(109,123,134)" stroke-width="1" opacity="0.9568627450980393" d="M 12.5 2 Q 15 3 13.5 4 Q 11 3 12.5 2 Z " /><path fill="rgb(109,123,134)" stroke="rgb(109,123,134)" stroke-width="1" opacity="0.9568627450980393" d="M 2.5 12 L 2.5 13 L 2.5 12 Z " /><path fill="rgb(109,123,134)" stroke="rgb(109,123,134)" stroke-width="1" opacity="0.9568627450980393" d="M 13.5 12 L 13.5 13 L 13.5 12 Z " /><path fill="rgb(155,164,172)" stroke="rgb(155,164,172)" stroke-width="1" opacity="1" d="M 7.5 1 L 9 1.5 L 7.5 2 L 7.5 1 Z " /><path fill="rgb(155,164,172)" stroke="rgb(155,164,172)" stroke-width="1" opacity="1" d="M 5.5 2 L 5.5 3 L 5.5 2 Z " /><path fill="rgb(155,164,172)" stroke="rgb(155,164,172)" stroke-width="1" opacity="1" d="M 2.5 6 L 2.5 7 L 2.5 6 Z " /><path fill="rgb(155,164,172)" stroke="rgb(155,164,172)" stroke-width="1" opacity="1" d="M 13.5 6 L 13.5 7 L 13.5 6 Z " /><path fill="rgb(155,164,172)" stroke="rgb(155,164,172)" stroke-width="1" opacity="1" d="M 15.5 7 L 16 8.5 L 15 8.5 L 15.5 7 Z " /><path fill="rgb(155,164,172)" stroke="rgb(155,164,172)" stroke-width="1" opacity="1" d="M 2.5 9 L 2.5 10 L 2.5 9 Z " /><path fill="rgb(155,164,172)" stroke="rgb(155,164,172)" stroke-width="1" opacity="1" d="M 13.5 9 L 13.5 10 L 13.5 9 Z " /><path fill="rgb(155,164,172)" stroke="rgb(155,164,172)" stroke-width="1" opacity="1" d="M 9.5 14 L 9.5 15 L 9.5 14 Z " /><path fill="rgb(187,194,199)" stroke="rgb(187,194,199)" stroke-width="1" opacity="1" d="M 7.5 2 L 9 2.5 L 7.5 3 L 7.5 2 Z " /><path fill="rgb(187,194,199)" stroke="rgb(187,194,199)" stroke-width="1" opacity="1" d="M 13.5 8 L 13.5 9 L 13.5 8 Z " /><path fill="rgb(187,194,199)" stroke="rgb(187,194,199)" stroke-width="1" opacity="1" d="M 8.5 13 L 8.5 14 L 8.5 13 Z " /><path fill="rgb(184,191,196)" stroke="rgb(184,191,196)" stroke-width="1" opacity="0.9921568627450981" d="M 2.5 7 L 3 8.5 L 2 8.5 L 2.5 7 Z " /><path fill="rgb(184,191,196)" stroke="rgb(184,191,196)" stroke-width="1" opacity="0.9921568627450981" d="M 13.5 7 L 13.5 8 L 13.5 7 Z " /><path fill="rgb(184,191,196)" stroke="rgb(184,191,196)" stroke-width="1" opacity="0.9921568627450981" d="M 7.5 13 L 7.5 14 L 7.5 13 Z " /><path fill="rgb(184,191,196)" stroke="rgb(184,191,196)" stroke-width="1" opacity="0.9921568627450981" d="M 7.5 15 L 9 15.5 L 7.5 16 L 7.5 15 Z " /><path fill="rgb(138,150,159)" stroke="rgb(138,150,159)" stroke-width="1" opacity="0.996078431372549" d="M 9.5 1 L 9.5 2 L 9.5 1 Z " /><path fill="rgb(222,214,209)" stroke="rgb(222,214,209)" stroke-width="1" opacity="1" d="M 5.5 3 L 6 3.5 L 3.5 6 L 3 5.5 L 5.5 3 Z " /><path fill="rgb(222,214,209)" stroke="rgb(222,214,209)" stroke-width="1" opacity="1" d="M 10.5 3 L 10.5 4 L 10.5 3 Z " /><path fill="rgb(222,214,209)" stroke="rgb(222,214,209)" stroke-width="1" opacity="1" d="M 6.5 5 L 6.5 6 L 6.5 5 Z " /><path fill="rgb(222,214,209)" stroke="rgb(222,214,209)" stroke-width="1" opacity="1" d="M 9.5 5 L 9.5 6 L 9.5 5 Z " /><path fill="rgb(222,214,209)" stroke="rgb(222,214,209)" stroke-width="1" opacity="1" d="M 12.5 5 L 12.5 6 L 12.5 5 Z " /><path fill="rgb(79,96,110)" stroke="rgb(79,96,110)" stroke-width="1" opacity="1" d="M 3.5 3 L 3.5 4 L 3.5 3 Z " /><path fill="rgb(79,96,110)" stroke="rgb(79,96,110)" stroke-width="1" opacity="1" d="M 12.5 3 L 12.5 4 L 12.5 3 Z " /><path fill="rgb(79,96,110)" stroke="rgb(79,96,110)" stroke-width="1" opacity="1" d="M 1.5 7 L 2 8.5 L 1 8.5 L 1.5 7 Z " /><path fill="rgb(79,96,110)" stroke="rgb(79,96,110)" stroke-width="1" opacity="1" d="M 14.5 7 L 15 8.5 L 14 8.5 L 14.5 7 Z " /><path fill="rgb(205,209,213)" stroke="rgb(205,209,213)" stroke-width="1" opacity="0.3686274509803922" d="M 14.5 3 L 14.5 4 L 14.5 3 Z " /><path fill="rgb(205,209,213)" stroke="rgb(205,209,213)" stroke-width="1" opacity="0.3686274509803922" d="M 1.5 12 L 1.5 13 L 1.5 12 Z " /><path fill="rgb(205,209,213)" stroke="rgb(205,209,213)" stroke-width="1" opacity="0.3686274509803922" d="M 14.5 12 L 14.5 13 L 14.5 12 Z " /><path fill="rgb(243,244,245)" stroke="rgb(243,244,245)" stroke-width="1" opacity="0.10196078431372549" d="M 4.5 0 L 4.5 1 L 4.5 0 Z " /><path fill="rgb(243,244,245)" stroke="rgb(243,244,245)" stroke-width="1" opacity="0.10196078431372549" d="M 11.5 0 L 11.5 1 L 11.5 0 Z " /><path fill="rgb(243,244,245)" stroke="rgb(243,244,245)" stroke-width="1" opacity="0.10196078431372549" d="M 4.5 15 L 4.5 16 L 4.5 15 Z " /><path fill="rgb(153,163,171)" stroke="rgb(153,163,171)" stroke-width="1" opacity="0.7764705882352941" d="M 4.5 1 L 4.5 2 L 4.5 1 Z " /><path fill="rgb(153,163,171)" stroke="rgb(153,163,171)" stroke-width="1" opacity="0.7764705882352941" d="M 11.5 1 L 11.5 2 L 11.5 1 Z " /><path fill="rgb(153,163,171)" stroke="rgb(153,163,171)" stroke-width="1" opacity="0.7764705882352941" d="M 4.5 14 L 4.5 15 L 4.5 14 Z " /><path fill="rgb(153,163,171)" stroke="rgb(153,163,171)" stroke-width="1" opacity="0.7764705882352941" d="M 11.5 14 L 11.5 15 L 11.5 14 Z " /><path fill="rgb(144,154,163)" stroke="rgb(144,154,163)" stroke-width="1" opacity="0.9372549019607843" d="M 5.5 1 L 5.5 2 L 5.5 1 Z " /><path fill="rgb(163,111,91)" stroke="rgb(163,111,91)" stroke-width="1" opacity="1" d="M 5.5 4 L 5.5 5 L 5.5 4 Z " /><path fill="rgb(163,111,91)" stroke="rgb(163,111,91)" stroke-width="1" opacity="1" d="M 10.5 4 L 10.5 5 L 10.5 4 Z " /><path fill="rgb(145,138,86)" stroke="rgb(145,138,86)" stroke-width="1" opacity="1" d="M 7.5 4 L 7.5 5 L 7.5 4 Z " /><path fill="rgb(145,138,86)" stroke="rgb(145,138,86)" stroke-width="1" opacity="1" d="M 7.5 6 L 7.5 7 L 7.5 6 Z " /><path fill="rgb(127,56,22)" stroke="rgb(127,56,22)" stroke-width="1" opacity="1" d="M 6.5 4 L 6.5 5 L 6.5 4 Z " /><path fill="rgb(127,56,22)" stroke="rgb(127,56,22)" stroke-width="1" opacity="1" d="M 9.5 4 L 9.5 5 L 9.5 4 Z " /><path fill="rgb(170,143,111)" stroke="rgb(170,143,111)" stroke-width="1" opacity="1" d="M 8.5 4 L 9 5.5 L 8 5.5 L 8.5 4 Z " /><path fill="rgb(170,143,111)" stroke="rgb(170,143,111)" stroke-width="1" opacity="1" d="M 8.5 8 Q 11 9 9.5 10 Q 7 9 8.5 8 Z " /><path fill="rgb(170,143,111)" stroke="rgb(170,143,111)" stroke-width="1" opacity="1" d="M 6.5 9 L 6.5 10 L 6.5 9 Z " /><path fill="rgb(212,186,138)" stroke="rgb(212,186,138)" stroke-width="1" opacity="1" d="M 5.5 5 L 6 6.5 L 5 6.5 L 5.5 5 Z " /><path fill="rgb(212,186,138)" stroke="rgb(212,186,138)" stroke-width="1" opacity="1" d="M 10 5 L 12 5.5 Q 11 8 10 6.5 L 10 5 Z " /><path fill="rgb(212,186,138)" stroke="rgb(212,186,138)" stroke-width="1" opacity="1" d="M 6.5 11 L 6.5 12 L 6.5 11 Z " /><path fill="rgb(212,186,138)" stroke="rgb(212,186,138)" stroke-width="1" opacity="1" d="M 9.5 11 L 9.5 12 L 9.5 11 Z " /><path fill="rgb(234,220,213)" stroke="rgb(234,220,213)" stroke-width="1" opacity="1" d="M 7.5 3 L 9 3.5 L 7.5 4 L 7.5 3 Z " /><path fill="rgb(234,220,213)" stroke="rgb(234,220,213)" stroke-width="1" opacity="1" d="M 11.5 4 L 11.5 5 L 11.5 4 Z " /><path fill="rgb(234,220,213)" stroke="rgb(234,220,213)" stroke-width="1" opacity="1" d="M 5.5 11 L 5.5 12 L 5.5 11 Z " /><path fill="rgb(234,220,213)" stroke="rgb(234,220,213)" stroke-width="1" opacity="1" d="M 10.5 11 L 10.5 12 L 10.5 11 Z " /><path fill="rgb(95,110,122)" stroke="rgb(95,110,122)" stroke-width="1" opacity="0.9686274509803922" d="M 1.5 5 L 1.5 6 L 1.5 5 Z " /><path fill="rgb(95,110,122)" stroke="rgb(95,110,122)" stroke-width="1" opacity="0.9686274509803922" d="M 14.5 5 L 14.5 6 L 14.5 5 Z " /><path fill="rgb(95,110,122)" stroke="rgb(95,110,122)" stroke-width="1" opacity="0.9686274509803922" d="M 1.5 10 L 1.5 11 L 1.5 10 Z " /><path fill="rgb(192,198,203)" stroke="rgb(192,198,203)" stroke-width="1" opacity="0.7098039215686275" d="M 6.5 0 L 6.5 1 L 6.5 0 Z " /><path fill="rgb(192,198,203)" stroke="rgb(192,198,203)" stroke-width="1" opacity="0.7098039215686275" d="M 9.5 0 L 9.5 1 L 9.5 0 Z " /><path fill="rgb(192,198,203)" stroke="rgb(192,198,203)" stroke-width="1" opacity="0.7098039215686275" d="M 6.5 15 L 6.5 16 L 6.5 15 Z " /><path fill="rgb(192,198,203)" stroke="rgb(192,198,203)" stroke-width="1" opacity="0.7098039215686275" d="M 9.5 15 L 9.5 16 L 9.5 15 Z " /><path fill="rgb(84,100,113)" stroke="rgb(84,100,113)" stroke-width="1" opacity="1" d="M 14.5 9 L 14.5 10 L 14.5 9 Z " /><path fill="rgb(249,241,222)" stroke="rgb(249,241,222)" stroke-width="1" opacity="1" d="M 4.5 10 L 4.5 11 L 4.5 10 Z " /><path fill="rgb(249,241,222)" stroke="rgb(249,241,222)" stroke-width="1" opacity="1" d="M 11.5 10 L 11.5 11 L 11.5 10 Z " /><path fill="rgb(247,247,247)" stroke="rgb(247,247,247)" stroke-width="1" opacity="1" d="M 3.5 6 L 3.5 7 L 3.5 6 Z " /><path fill="rgb(247,247,247)" stroke="rgb(247,247,247)" stroke-width="1" opacity="1" d="M 12.5 6 L 12.5 7 L 12.5 6 Z " /><path fill="rgb(247,247,247)" stroke="rgb(247,247,247)" stroke-width="1" opacity="1" d="M 4.5 11 L 4.5 12 L 4.5 11 Z " /><path fill="rgb(247,247,247)" stroke="rgb(247,247,247)" stroke-width="1" opacity="1" d="M 11.5 11 L 11.5 12 L 11.5 11 Z " /><path fill="rgb(247,247,247)" stroke="rgb(247,247,247)" stroke-width="1" opacity="1" d="M 6.5 12 L 6.5 13 L 6.5 12 Z " /><path fill="rgb(247,247,247)" stroke="rgb(247,247,247)" stroke-width="1" opacity="1" d="M 9.5 12 L 9.5 13 L 9.5 12 Z " /><path fill="rgb(122,117,81)" stroke="rgb(122,117,81)" stroke-width="1" opacity="1" d="M 7.5 5 L 7.5 6 L 7.5 5 Z " /><path fill="rgb(122,117,81)" stroke="rgb(122,117,81)" stroke-width="1" opacity="1" d="M 5.5 7 L 6 8.5 L 5 8.5 L 5.5 7 Z " /><path fill="rgb(122,117,81)" stroke="rgb(122,117,81)" stroke-width="1" opacity="1" d="M 10.5 8 L 10.5 9 L 10.5 8 Z " /><path fill="rgb(122,117,81)" stroke="rgb(122,117,81)" stroke-width="1" opacity="1" d="M 6.5 10 L 6.5 11 L 6.5 10 Z " /><path fill="rgb(122,117,81)" stroke="rgb(122,117,81)" stroke-width="1" opacity="1" d="M 9.5 10 L 9.5 11 L 9.5 10 Z " /><path fill="rgb(175,168,123)" stroke="rgb(175,168,123)" stroke-width="1" opacity="1" d="M 4.5 5 L 4.5 6 L 4.5 5 Z " /><path fill="rgb(175,168,123)" stroke="rgb(175,168,123)" stroke-width="1" opacity="1" d="M 8.5 6 L 8 7.5 Q 8.75 9.75 6.5 9 L 6 8.5 L 8.5 6 Z " /><path fill="rgb(175,168,123)" stroke="rgb(175,168,123)" stroke-width="1" opacity="1" d="M 9.5 8 L 9.5 9 L 9.5 8 Z " /><path fill="rgb(149,165,108)" stroke="rgb(149,165,108)" stroke-width="1" opacity="1" d="M 8.5 7 L 8.5 8 L 8.5 7 Z " /><path fill="rgb(149,165,108)" stroke="rgb(149,165,108)" stroke-width="1" opacity="1" d="M 7.5 10 L 7.5 11 L 7.5 10 Z " /><path fill="rgb(114,121,104)" stroke="rgb(114,121,104)" stroke-width="1" opacity="1" d="M 6.5 7 L 6.5 8 L 6.5 7 Z " /><path fill="rgb(114,121,104)" stroke="rgb(114,121,104)" stroke-width="1" opacity="1" d="M 9.5 7 L 11 7.5 L 9.5 8 L 9.5 7 Z " /><path fill="rgb(253,250,246)" stroke="rgb(253,250,246)" stroke-width="1" opacity="1" d="M 3.5 7 L 3.5 8 L 3.5 7 Z " /><path fill="rgb(253,250,246)" stroke="rgb(253,250,246)" stroke-width="1" opacity="1" d="M 12.5 7 L 12.5 8 L 12.5 7 Z " /><path fill="rgb(72,90,103)" stroke="rgb(72,90,103)" stroke-width="1" opacity="1" d="M 2.5 4 L 2.5 5 L 2.5 4 Z " /><path fill="rgb(72,90,103)" stroke="rgb(72,90,103)" stroke-width="1" opacity="1" d="M 13.5 4 L 13.5 5 L 13.5 4 Z " /><path fill="rgb(72,90,103)" stroke="rgb(72,90,103)" stroke-width="1" opacity="1" d="M 2.5 11 L 2.5 12 L 2.5 11 Z " /><path fill="rgb(72,90,103)" stroke="rgb(72,90,103)" stroke-width="1" opacity="1" d="M 13.5 11 L 13.5 12 L 13.5 11 Z " /><path fill="rgb(163,172,179)" stroke="rgb(163,172,179)" stroke-width="1" opacity="1" d="M 6.5 2 L 6.5 3 L 6.5 2 Z " /><path fill="rgb(163,172,179)" stroke="rgb(163,172,179)" stroke-width="1" opacity="1" d="M 9.5 2 L 9.5 3 L 9.5 2 Z " /><path fill="rgb(163,172,179)" stroke="rgb(163,172,179)" stroke-width="1" opacity="1" d="M 0.5 7 L 1 8.5 L 0 8.5 L 0.5 7 Z " /><path fill="rgb(163,172,179)" stroke="rgb(163,172,179)" stroke-width="1" opacity="1" d="M 4.5 12 L 4.5 13 L 4.5 12 Z " /><path fill="rgb(163,172,179)" stroke="rgb(163,172,179)" stroke-width="1" opacity="1" d="M 11.5 12 Q 13 13 10.5 14 L 9 13.5 L 11.5 12 Z " /><path fill="rgb(163,172,179)" stroke="rgb(163,172,179)" stroke-width="1" opacity="1" d="M 6.5 13 L 6.5 14 L 6.5 13 Z " /><path fill="rgb(186,193,198)" stroke="rgb(186,193,198)" stroke-width="1" opacity="0.8941176470588236" d="M 7.5 0 L 9 0.5 L 7.5 1 L 7.5 0 Z " /><path fill="rgb(186,193,198)" stroke="rgb(186,193,198)" stroke-width="1" opacity="0.8941176470588236" d="M 0.5 6 L 0.5 7 L 0.5 6 Z " /><path fill="rgb(186,193,198)" stroke="rgb(186,193,198)" stroke-width="1" opacity="0.8941176470588236" d="M 15.5 6 L 15.5 7 L 15.5 6 Z " /><path fill="rgb(186,193,198)" stroke="rgb(186,193,198)" stroke-width="1" opacity="0.8941176470588236" d="M 0.5 9 L 0.5 10 L 0.5 9 Z " /><path fill="rgb(186,193,198)" stroke="rgb(186,193,198)" stroke-width="1" opacity="0.8941176470588236" d="M 15.5 9 L 15.5 10 L 15.5 9 Z " /><path fill="rgb(84,101,113)" stroke="rgb(84,101,113)" stroke-width="1" opacity="1" d="M 1.5 6 L 1.5 7 L 1.5 6 Z " /><path fill="rgb(84,101,113)" stroke="rgb(84,101,113)" stroke-width="1" opacity="1" d="M 14.5 6 L 14.5 7 L 14.5 6 Z " /><path fill="rgb(84,101,113)" stroke="rgb(84,101,113)" stroke-width="1" opacity="1" d="M 1.5 9 L 1.5 10 L 1.5 9 Z " /><path fill="rgb(251,251,250)" stroke="rgb(251,251,250)" stroke-width="1" opacity="1" d="M 3.5 9 L 3.5 10 L 3.5 9 Z " /><path fill="rgb(251,251,250)" stroke="rgb(251,251,250)" stroke-width="1" opacity="1" d="M 12.5 9 L 12.5 10 L 12.5 9 Z " /><path fill="rgb(147,136,61)" stroke="rgb(147,136,61)" stroke-width="1" opacity="1" d="M 5.5 9 L 5.5 10 L 5.5 9 Z " /><path fill="rgb(164,175,153)" stroke="rgb(164,175,153)" stroke-width="1" opacity="1" d="M 7.5 9 L 7.5 10 L 7.5 9 Z " /><path fill="rgb(152,156,140)" stroke="rgb(152,156,140)" stroke-width="1" opacity="1" d="M 8.5 9 L 8.5 10 L 8.5 9 Z " /><path fill="rgb(145,134,62)" stroke="rgb(145,134,62)" stroke-width="1" opacity="1" d="M 10.5 9 L 10.5 10 L 10.5 9 Z " /><path fill="rgb(253,252,249)" stroke="rgb(253,252,249)" stroke-width="1" opacity="1" d="M 3.5 8 L 3.5 9 L 3.5 8 Z " /><path fill="rgb(253,252,249)" stroke="rgb(253,252,249)" stroke-width="1" opacity="1" d="M 12.5 8 L 12.5 9 L 12.5 8 Z " /><path fill="rgb(230,232,234)" stroke="rgb(230,232,234)" stroke-width="1" opacity="1" d="M 3.5 10 L 3.5 11 L 3.5 10 Z " /><path fill="rgb(230,232,234)" stroke="rgb(230,232,234)" stroke-width="1" opacity="1" d="M 12.5 10 L 12.5 11 L 12.5 10 Z " /><path fill="rgb(94,110,122)" stroke="rgb(94,110,122)" stroke-width="1" opacity="0.9686274509803922" d="M 14.5 10 L 14.5 11 L 14.5 10 Z " /><path fill="rgb(233,235,236)" stroke="rgb(233,235,236)" stroke-width="1" opacity="0.12941176470588237" d="M 0.5 4 L 0.5 5 L 0.5 4 Z " /><path fill="rgb(233,235,236)" stroke="rgb(233,235,236)" stroke-width="1" opacity="0.12941176470588237" d="M 15.5 4 L 15.5 5 L 15.5 4 Z " /><path fill="rgb(233,235,236)" stroke="rgb(233,235,236)" stroke-width="1" opacity="0.12941176470588237" d="M 0.5 11 L 0.5 12 L 0.5 11 Z " /><path fill="rgb(233,235,236)" stroke="rgb(233,235,236)" stroke-width="1" opacity="0.12941176470588237" d="M 15.5 11 L 15.5 12 L 15.5 11 Z " /><path fill="rgb(233,235,236)" stroke="rgb(233,235,236)" stroke-width="1" opacity="0.12941176470588237" d="M 11.5 15 L 11.5 16 L 11.5 15 Z " /><path fill="rgb(139,150,158)" stroke="rgb(139,150,158)" stroke-width="1" opacity="0.8196078431372549" d="M 1.5 4 L 1.5 5 L 1.5 4 Z " /><path fill="rgb(139,150,158)" stroke="rgb(139,150,158)" stroke-width="1" opacity="0.8196078431372549" d="M 14.5 4 L 14.5 5 L 14.5 4 Z " /><path fill="rgb(139,150,158)" stroke="rgb(139,150,158)" stroke-width="1" opacity="0.8196078431372549" d="M 1.5 11 L 1.5 12 L 1.5 11 Z " /><path fill="rgb(139,150,158)" stroke="rgb(139,150,158)" stroke-width="1" opacity="0.8196078431372549" d="M 14.5 11 L 14.5 12 L 14.5 11 Z " /><path fill="rgb(144,155,163)" stroke="rgb(144,155,163)" stroke-width="1" opacity="1" d="M 10.5 2 L 10.5 3 L 10.5 2 Z " /><path fill="rgb(144,155,163)" stroke="rgb(144,155,163)" stroke-width="1" opacity="1" d="M 4.5 3 Q 6 4 3.5 5 Q 2 4 4.5 3 Z " /><path fill="rgb(144,155,163)" stroke="rgb(144,155,163)" stroke-width="1" opacity="1" d="M 3.5 11 L 3.5 12 L 3.5 11 Z " /><path fill="rgb(144,155,163)" stroke="rgb(144,155,163)" stroke-width="1" opacity="1" d="M 4.5 13 L 4.5 14 L 4.5 13 Z " /><path fill="rgb(245,220,152)" stroke="rgb(245,220,152)" stroke-width="1" opacity="1" d="M 4.5 6 L 4.5 7 L 4.5 6 Z " /><path fill="rgb(245,220,152)" stroke="rgb(245,220,152)" stroke-width="1" opacity="1" d="M 11.5 6 L 11.5 7 L 11.5 6 Z " /><path fill="rgb(245,220,152)" stroke="rgb(245,220,152)" stroke-width="1" opacity="1" d="M 4.5 8 L 5 9.5 L 4 9.5 L 4.5 8 Z " /><path fill="rgb(245,220,152)" stroke="rgb(245,220,152)" stroke-width="1" opacity="1" d="M 11.5 9 L 11.5 10 L 11.5 9 Z " /><path fill="rgb(225,195,86)" stroke="rgb(225,195,86)" stroke-width="1" opacity="1" d="M 4.5 7 L 4.5 8 L 4.5 7 Z " /><path fill="rgb(225,195,86)" stroke="rgb(225,195,86)" stroke-width="1" opacity="1" d="M 11.5 7 L 12 8.5 L 11 8.5 L 11.5 7 Z " /><path fill="rgb(193,154,73)" stroke="rgb(193,154,73)" stroke-width="1" opacity="1" d="M 5.5 10 L 5.5 11 L 5.5 10 Z " /><path fill="rgb(193,154,73)" stroke="rgb(193,154,73)" stroke-width="1" opacity="1" d="M 10.5 10 L 10.5 11 L 10.5 10 Z " /><path fill="rgb(193,154,73)" stroke="rgb(193,154,73)" stroke-width="1" opacity="1" d="M 7.5 11 L 9 11.5 L 7.5 12 L 7.5 11 Z " /><path fill="rgb(207,196,175)" stroke="rgb(207,196,175)" stroke-width="1" opacity="1" d="M 6.5 3 L 6.5 4 L 6.5 3 Z " /><path fill="rgb(207,196,175)" stroke="rgb(207,196,175)" stroke-width="1" opacity="1" d="M 9.5 3 L 9.5 4 L 9.5 3 Z " /><path fill="rgb(207,196,175)" stroke="rgb(207,196,175)" stroke-width="1" opacity="1" d="M 6.5 6 L 6.5 7 L 6.5 6 Z " /><path fill="rgb(207,196,175)" stroke="rgb(207,196,175)" stroke-width="1" opacity="1" d="M 9.5 6 L 9.5 7 L 9.5 6 Z " /><path fill="rgb(207,196,175)" stroke="rgb(207,196,175)" stroke-width="1" opacity="1" d="M 7.5 12 L 9 12.5 L 7.5 13 L 7.5 12 Z " /><path fill="rgb(227,230,231)" stroke="rgb(227,230,231)" stroke-width="1" opacity="1" d="M 5.5 12 L 5.5 13 L 5.5 12 Z " /><path fill="rgb(227,230,231)" stroke="rgb(227,230,231)" stroke-width="1" opacity="1" d="M 10.5 12 L 10.5 13 L 10.5 12 Z " /><path fill="rgb(103,118,129)" stroke="rgb(103,118,129)" stroke-width="1" opacity="1" d="M 2.5 5 L 2.5 6 L 2.5 5 Z " /><path fill="rgb(103,118,129)" stroke="rgb(103,118,129)" stroke-width="1" opacity="1" d="M 13.5 5 L 13.5 6 L 13.5 5 Z " /><path fill="rgb(103,118,129)" stroke="rgb(103,118,129)" stroke-width="1" opacity="1" d="M 2.5 10 L 2.5 11 L 2.5 10 Z " /><path fill="rgb(103,118,129)" stroke="rgb(103,118,129)" stroke-width="1" opacity="1" d="M 13.5 10 L 13.5 11 L 13.5 10 Z " /><path fill="rgb(103,118,129)" stroke="rgb(103,118,129)" stroke-width="1" opacity="1" d="M 3.5 12 L 3.5 13 L 3.5 12 Z " /><path fill="rgb(103,118,129)" stroke="rgb(103,118,129)" stroke-width="1" opacity="1" d="M 12.5 12 L 12.5 13 L 12.5 12 Z " /><path fill="rgb(189,195,200)" stroke="rgb(189,195,200)" stroke-width="1" opacity="0.4470588235294118" d="M 5.5 0 L 5.5 1 L 5.5 0 Z " /><path fill="rgb(189,195,200)" stroke="rgb(189,195,200)" stroke-width="1" opacity="0.4470588235294118" d="M 10.5 0 L 10.5 1 L 10.5 0 Z " /><path fill="rgb(189,195,200)" stroke="rgb(189,195,200)" stroke-width="1" opacity="0.4470588235294118" d="M 2.5 2 L 2.5 3 L 2.5 2 Z " /><path fill="rgb(189,195,200)" stroke="rgb(189,195,200)" stroke-width="1" opacity="0.4470588235294118" d="M 13.5 2 L 13.5 3 L 13.5 2 Z " /><path fill="rgb(189,195,200)" stroke="rgb(189,195,200)" stroke-width="1" opacity="0.4470588235294118" d="M 0.5 5 L 0.5 6 L 0.5 5 Z " /><path fill="rgb(189,195,200)" stroke="rgb(189,195,200)" stroke-width="1" opacity="0.4470588235294118" d="M 15.5 5 L 15.5 6 L 15.5 5 Z " /><path fill="rgb(189,195,200)" stroke="rgb(189,195,200)" stroke-width="1" opacity="0.4470588235294118" d="M 0.5 10 L 0.5 11 L 0.5 10 Z " /><path fill="rgb(189,195,200)" stroke="rgb(189,195,200)" stroke-width="1" opacity="0.4470588235294118" d="M 15.5 10 L 15.5 11 L 15.5 10 Z " /><path fill="rgb(189,195,200)" stroke="rgb(189,195,200)" stroke-width="1" opacity="0.4470588235294118" d="M 2.5 13 L 2.5 14 L 2.5 13 Z " /><path fill="rgb(189,195,200)" stroke="rgb(189,195,200)" stroke-width="1" opacity="0.4470588235294118" d="M 13.5 13 L 13.5 14 L 13.5 13 Z " /><path fill="rgb(189,195,200)" stroke="rgb(189,195,200)" stroke-width="1" opacity="0.4470588235294118" d="M 5.5 15 L 5.5 16 L 5.5 15 Z " /><path fill="rgb(189,195,200)" stroke="rgb(189,195,200)" stroke-width="1" opacity="0.4470588235294118" d="M 10.5 15 L 10.5 16 L 10.5 15 Z " /><path fill="rgb(254,254,254)" stroke="rgb(254,254,254)" stroke-width="1" opacity="0.011764705882352941" d="M 0.5 3 L 0.5 4 L 0.5 3 Z " /><path fill="rgb(233,235,236)" stroke="rgb(233,235,236)" stroke-width="1" opacity="0.027450980392156862" d="M 14.5 2 L 14.5 3 L 14.5 2 Z " /><path fill="rgb(233,235,236)" stroke="rgb(233,235,236)" stroke-width="1" opacity="0.027450980392156862" d="M 1.5 13 Q 4 14 2.5 15 Q 0 14 1.5 13 Z " /><path fill="rgb(233,235,236)" stroke="rgb(233,235,236)" stroke-width="1" opacity="0.027450980392156862" d="M 14.5 13 Q 16 14 13.5 15 Q 12 14 14.5 13 Z " /><path fill="rgb(148,159,166)" stroke="rgb(148,159,166)" stroke-width="1" opacity="0.9607843137254902" d="M 3.5 13 L 3.5 14 L 3.5 13 Z " /><path fill="rgb(148,159,166)" stroke="rgb(148,159,166)" stroke-width="1" opacity="0.9607843137254902" d="M 12.5 13 L 12.5 14 L 12.5 13 Z " /><path fill="rgb(121,142,136)" stroke="rgb(121,142,136)" stroke-width="1" opacity="1" d="M 11.5 2 L 11.5 3 L 11.5 2 Z " /><path fill="rgb(121,142,136)" stroke="rgb(121,142,136)" stroke-width="1" opacity="1" d="M 8.5 10 L 8.5 11 L 8.5 10 Z " /><path fill="rgb(121,142,136)" stroke="rgb(121,142,136)" stroke-width="1" opacity="1" d="M 5.5 13 L 5.5 14 L 5.5 13 Z " /><path fill="rgb(133,145,154)" stroke="rgb(133,145,154)" stroke-width="1" opacity="0.9607843137254902" d="M 10.5 1 L 10.5 2 L 10.5 1 Z " /><path fill="rgb(133,145,154)" stroke="rgb(133,145,154)" stroke-width="1" opacity="0.9607843137254902" d="M 4.5 2 L 4.5 3 L 4.5 2 Z " /><path fill="rgb(133,145,154)" stroke="rgb(133,145,154)" stroke-width="1" opacity="0.9607843137254902" d="M 5.5 14 L 5.5 15 L 5.5 14 Z " /><path fill="rgb(148,158,166)" stroke="rgb(148,158,166)" stroke-width="1" opacity="0.996078431372549" d="M 6.5 1 L 6.5 2 L 6.5 1 Z " /><path fill="rgb(148,158,166)" stroke="rgb(148,158,166)" stroke-width="1" opacity="0.996078431372549" d="M 12.5 11 L 12.5 12 L 12.5 11 Z " /><path fill="rgb(148,158,166)" stroke="rgb(148,158,166)" stroke-width="1" opacity="0.996078431372549" d="M 7.5 14 L 9 14.5 L 7.5 15 L 7.5 14 Z " /><path fill="rgb(146,157,165)" stroke="rgb(146,157,165)" stroke-width="1" opacity="1" d="M 11.5 3 Q 14 4 12.5 5 Q 10 4 11.5 3 Z " /><path fill="rgb(146,157,165)" stroke="rgb(146,157,165)" stroke-width="1" opacity="1" d="M 11.5 13 L 11.5 14 L 11.5 13 Z " /><path fill="rgb(146,157,165)" stroke="rgb(146,157,165)" stroke-width="1" opacity="1" d="M 6.5 14 L 6.5 15 L 6.5 14 Z " /><path fill="rgb(153,163,171)" stroke="rgb(153,163,171)" stroke-width="1" opacity="0.9529411764705882" d="M 10.5 14 L 10.5 15 L 10.5 14 Z " /><path fill="rgb(204,209,213)" stroke="rgb(204,209,213)" stroke-width="1" opacity="0.33725490196078434" d="M 3.5 1 L 3.5 2 L 3.5 1 Z " /><path fill="rgb(204,209,213)" stroke="rgb(204,209,213)" stroke-width="1" opacity="0.33725490196078434" d="M 12.5 1 L 12.5 2 L 12.5 1 Z " /><path fill="rgb(204,209,213)" stroke="rgb(204,209,213)" stroke-width="1" opacity="0.33725490196078434" d="M 1.5 3 L 1.5 4 L 1.5 3 Z " /><path fill="rgb(204,209,213)" stroke="rgb(204,209,213)" stroke-width="1" opacity="0.33725490196078434" d="M 3.5 14 L 3.5 15 L 3.5 14 Z " /><path fill="rgb(204,209,213)" stroke="rgb(204,209,213)" stroke-width="1" opacity="0.33725490196078434" d="M 12.5 14 L 12.5 15 L 12.5 14 Z " /></svg>