<svg width="128" height="128" version="1.1" xmlns="http://www.w3.org/2000/svg" desc="Created with imagetracer.js version 1.2.6" ><path fill="rgb(0,27,72)" stroke="rgb(0,27,72)" stroke-width="1" opacity="1" d="M 0 0 L 128 0 L 128 128 L 0 128 L 0 0 Z M 58 29 L 57 30 L 38 31 L 42 33 L 42 59 L 41 61 L 38 62 Q 39 64 41 62 L 50 62 L 51 63 L 53 62 L 49 61 L 48 59 L 48 46 L 55 46 Q 57 47 56 50 Q 57 51 58 49 L 58 43 L 48 43 L 48 33 L 57 33 Q 57 33 57 36 Q 58 37 59 35 L 59 30 L 58 29 Z M 62 29 L 62 31 L 66 31 L 66 60 Q 66 60 64 60 Q 61 61 63 62 L 80 62 L 83 61 L 87 56 L 87 51 L 85 47 L 81 44 Q 81 40 83 40 L 83 33 L 81 30 Q 77 31 77 29 L 62 29 Z M 72 66 L 66 68 L 64 70 Q 61 69 62 72 L 60 72 L 60 75 L 57 79 L 57 88 L 60 94 L 66 98 L 68 98 L 71 100 L 84 100 L 87 99 L 88 98 L 88 85 L 92 84 L 92 83 L 78 84 L 81 85 L 82 86 L 82 97 L 74 97 L 70 94 L 68 94 L 68 93 L 64 87 L 64 77 L 66 74 L 72 69 L 80 69 L 84 71 L 88 76 L 88 67 L 83 67 L 82 66 L 72 66 Z M 44 76 L 41 77 L 38 80 Q 36 88 42 90 Q 46 91 49 89 L 51 87 L 52 84 L 51 80 L 49 77 L 44 76 Z " /><path fill="rgb(0,27,72)" stroke="rgb(0,27,72)" stroke-width="1" opacity="1" d="M 73.5 31 L 77 33.5 Q 78.83 35.67 78 40.5 L 77 43 L 72 43 L 72 32.5 L 73.5 31 Z " /><path fill="rgb(0,27,72)" stroke="rgb(0,27,72)" stroke-width="1" opacity="1" d="M 72 46 Q 77.5 44.75 79 48.5 L 81 51.5 L 81 56.5 L 77.5 60 L 74.5 60 L 72 57.5 L 72 46 Z " /><path fill="rgb(0,27,72)" stroke="rgb(0,27,72)" stroke-width="1" opacity="1" d="M 42.5 78 L 47 78 L 47 79.5 Q 49.75 80.25 49 84.5 L 46.5 88 L 43.5 88 L 41 87 L 41 79.5 L 42.5 78 Z " /><path fill="rgb(184,191,204)" stroke="rgb(184,191,204)" stroke-width="1" opacity="1" d="M 40.5 30 L 40.5 31 L 40.5 30 Z " /><path fill="rgb(184,191,204)" stroke="rgb(184,191,204)" stroke-width="1" opacity="1" d="M 58.5 30 L 58.5 31 L 58.5 30 Z " /><path fill="rgb(184,191,204)" stroke="rgb(184,191,204)" stroke-width="1" opacity="1" d="M 65.5 30 L 65.5 31 L 65.5 30 Z " /><path fill="rgb(184,191,204)" stroke="rgb(184,191,204)" stroke-width="1" opacity="1" d="M 78.5 30 L 78.5 31 L 78.5 30 Z " /><path fill="rgb(184,191,204)" stroke="rgb(184,191,204)" stroke-width="1" opacity="1" d="M 75.5 31 L 78 33.5 L 77.5 34 L 75 31.5 L 75.5 31 Z " /><path fill="rgb(184,191,204)" stroke="rgb(184,191,204)" stroke-width="1" opacity="1" d="M 66.5 32 L 66.5 33 L 66.5 32 Z " /><path fill="rgb(184,191,204)" stroke="rgb(184,191,204)" stroke-width="1" opacity="1" d="M 71.5 32 L 72 43 L 76 43.5 L 72.5 44 L 71 42.5 L 71.5 32 Z " /><path fill="rgb(184,191,204)" stroke="rgb(184,191,204)" stroke-width="1" opacity="1" d="M 82.5 33 L 82.5 34 L 82.5 33 Z " /><path fill="rgb(184,191,204)" stroke="rgb(184,191,204)" stroke-width="1" opacity="1" d="M 57.5 34 L 57.5 35 L 57.5 34 Z " /><path fill="rgb(184,191,204)" stroke="rgb(184,191,204)" stroke-width="1" opacity="1" d="M 42.5 35 L 43 54.5 L 42 54.5 L 42.5 35 Z " /><path fill="rgb(184,191,204)" stroke="rgb(184,191,204)" stroke-width="1" opacity="1" d="M 78.5 35 L 78.5 36 L 78.5 35 Z " /><path fill="rgb(184,191,204)" stroke="rgb(184,191,204)" stroke-width="1" opacity="1" d="M 82.5 38 L 82.5 39 L 82.5 38 Z " /><path fill="rgb(184,191,204)" stroke="rgb(184,191,204)" stroke-width="1" opacity="1" d="M 77.5 42 L 77.5 43 L 77.5 42 Z " /><path fill="rgb(184,191,204)" stroke="rgb(184,191,204)" stroke-width="1" opacity="1" d="M 56.5 43 L 58 43.5 L 56.5 44 L 56.5 43 Z " /><path fill="rgb(184,191,204)" stroke="rgb(184,191,204)" stroke-width="1" opacity="1" d="M 48.5 45 L 53 45.5 L 48.5 46 L 48.5 45 Z " /><path fill="rgb(184,191,204)" stroke="rgb(184,191,204)" stroke-width="1" opacity="1" d="M 82.5 45 L 82.5 46 L 82.5 45 Z " /><path fill="rgb(184,191,204)" stroke="rgb(184,191,204)" stroke-width="1" opacity="1" d="M 71.5 46 L 72 55.5 L 71 55.5 L 71.5 46 Z " /><path fill="rgb(184,191,204)" stroke="rgb(184,191,204)" stroke-width="1" opacity="1" d="M 84.5 47 L 84.5 48 L 84.5 47 Z " /><path fill="rgb(184,191,204)" stroke="rgb(184,191,204)" stroke-width="1" opacity="1" d="M 56.5 48 L 56.5 49 L 56.5 48 Z " /><path fill="rgb(184,191,204)" stroke="rgb(184,191,204)" stroke-width="1" opacity="1" d="M 79.5 48 Q 82 49 80.5 50 Q 78 49 79.5 48 Z " /><path fill="rgb(184,191,204)" stroke="rgb(184,191,204)" stroke-width="1" opacity="1" d="M 86.5 51 L 86.5 52 L 86.5 51 Z " /><path fill="rgb(184,191,204)" stroke="rgb(184,191,204)" stroke-width="1" opacity="1" d="M 81.5 52 L 81.5 53 L 81.5 52 Z " /><path fill="rgb(184,191,204)" stroke="rgb(184,191,204)" stroke-width="1" opacity="1" d="M 86.5 53 L 87 54.5 L 86 54.5 L 86.5 53 Z " /><path fill="rgb(184,191,204)" stroke="rgb(184,191,204)" stroke-width="1" opacity="1" d="M 81.5 55 L 81.5 56 L 81.5 55 Z " /><path fill="rgb(184,191,204)" stroke="rgb(184,191,204)" stroke-width="1" opacity="1" d="M 66.5 56 L 67 58.5 L 66 58.5 L 66.5 56 Z " /><path fill="rgb(184,191,204)" stroke="rgb(184,191,204)" stroke-width="1" opacity="1" d="M 84.5 57 L 84.5 58 L 84.5 57 Z " /><path fill="rgb(184,191,204)" stroke="rgb(184,191,204)" stroke-width="1" opacity="1" d="M 47.5 59 L 47.5 60 L 47.5 59 Z " /><path fill="rgb(184,191,204)" stroke="rgb(184,191,204)" stroke-width="1" opacity="1" d="M 72.5 59 L 72.5 60 L 72.5 59 Z " /><path fill="rgb(184,191,204)" stroke="rgb(184,191,204)" stroke-width="1" opacity="1" d="M 41.5 60 L 41.5 61 L 41.5 60 Z " /><path fill="rgb(184,191,204)" stroke="rgb(184,191,204)" stroke-width="1" opacity="1" d="M 81.5 60 L 81.5 61 L 81.5 60 Z " /><path fill="rgb(184,191,204)" stroke="rgb(184,191,204)" stroke-width="1" opacity="1" d="M 66.5 61 L 71 61.5 L 66.5 62 L 66.5 61 Z " /><path fill="rgb(184,191,204)" stroke="rgb(184,191,204)" stroke-width="1" opacity="1" d="M 78.5 61 L 78.5 62 L 78.5 61 Z " /><path fill="rgb(184,191,204)" stroke="rgb(184,191,204)" stroke-width="1" opacity="1" d="M 73.5 66 L 77 66.5 L 73.5 67 L 73.5 66 Z " /><path fill="rgb(184,191,204)" stroke="rgb(184,191,204)" stroke-width="1" opacity="1" d="M 69.5 67 L 69.5 68 L 69.5 67 Z " /><path fill="rgb(184,191,204)" stroke="rgb(184,191,204)" stroke-width="1" opacity="1" d="M 84.5 67 Q 87.5 66.5 88 68.5 L 87.5 75 Q 84.75 73.75 87 72.5 L 87 68 L 84.5 68 L 84.5 67 Z " /><path fill="rgb(184,191,204)" stroke="rgb(184,191,204)" stroke-width="1" opacity="1" d="M 72.5 68 L 72.5 69 L 72.5 68 Z " /><path fill="rgb(184,191,204)" stroke="rgb(184,191,204)" stroke-width="1" opacity="1" d="M 78.5 68 L 78.5 69 L 78.5 68 Z " /><path fill="rgb(184,191,204)" stroke="rgb(184,191,204)" stroke-width="1" opacity="1" d="M 70.5 69 L 70.5 70 L 70.5 69 Z " /><path fill="rgb(184,191,204)" stroke="rgb(184,191,204)" stroke-width="1" opacity="1" d="M 81.5 69 L 81.5 70 L 81.5 69 Z " /><path fill="rgb(184,191,204)" stroke="rgb(184,191,204)" stroke-width="1" opacity="1" d="M 63.5 70 L 63.5 71 L 63.5 70 Z " /><path fill="rgb(184,191,204)" stroke="rgb(184,191,204)" stroke-width="1" opacity="1" d="M 83.5 70 L 83.5 71 L 83.5 70 Z " /><path fill="rgb(184,191,204)" stroke="rgb(184,191,204)" stroke-width="1" opacity="1" d="M 61.5 72 Q 63 73 60.5 74 Q 59 73 61.5 72 Z " /><path fill="rgb(184,191,204)" stroke="rgb(184,191,204)" stroke-width="1" opacity="1" d="M 59.5 75 L 59.5 76 L 59.5 75 Z " /><path fill="rgb(184,191,204)" stroke="rgb(184,191,204)" stroke-width="1" opacity="1" d="M 41.5 77 L 42 78.5 Q 41 81 40 79.5 L 41.5 77 Z " /><path fill="rgb(184,191,204)" stroke="rgb(184,191,204)" stroke-width="1" opacity="1" d="M 43.5 77 L 46 77.5 L 43.5 78 L 43.5 77 Z " /><path fill="rgb(184,191,204)" stroke="rgb(184,191,204)" stroke-width="1" opacity="1" d="M 47.5 77 L 49 79.5 Q 48 81 47 78.5 L 47.5 77 Z " /><path fill="rgb(184,191,204)" stroke="rgb(184,191,204)" stroke-width="1" opacity="1" d="M 63.5 77 L 63.5 78 L 63.5 77 Z " /><path fill="rgb(184,191,204)" stroke="rgb(184,191,204)" stroke-width="1" opacity="1" d="M 38.5 81 L 39 82.5 L 38 82.5 L 38.5 81 Z " /><path fill="rgb(184,191,204)" stroke="rgb(184,191,204)" stroke-width="1" opacity="1" d="M 38.5 84 L 38.5 85 L 38.5 84 Z " /><path fill="rgb(184,191,204)" stroke="rgb(184,191,204)" stroke-width="1" opacity="1" d="M 88.5 84 L 88.5 85 L 88.5 84 Z " /><path fill="rgb(184,191,204)" stroke="rgb(184,191,204)" stroke-width="1" opacity="1" d="M 40.5 85 L 40.5 86 L 40.5 85 Z " /><path fill="rgb(184,191,204)" stroke="rgb(184,191,204)" stroke-width="1" opacity="1" d="M 50.5 85 L 50.5 86 L 50.5 85 Z " /><path fill="rgb(184,191,204)" stroke="rgb(184,191,204)" stroke-width="1" opacity="1" d="M 63.5 85 L 63.5 86 L 63.5 85 Z " /><path fill="rgb(184,191,204)" stroke="rgb(184,191,204)" stroke-width="1" opacity="1" d="M 49.5 87 L 49.5 88 L 49.5 87 Z " /><path fill="rgb(184,191,204)" stroke="rgb(184,191,204)" stroke-width="1" opacity="1" d="M 44.5 88 L 46 88.5 L 44.5 89 L 44.5 88 Z " /><path fill="rgb(184,191,204)" stroke="rgb(184,191,204)" stroke-width="1" opacity="1" d="M 65.5 90 L 65.5 91 L 65.5 90 Z " /><path fill="rgb(184,191,204)" stroke="rgb(184,191,204)" stroke-width="1" opacity="1" d="M 60.5 92 L 60.5 93 L 60.5 92 Z " /><path fill="rgb(184,191,204)" stroke="rgb(184,191,204)" stroke-width="1" opacity="1" d="M 67.5 93 Q 70 94 68.5 95 Q 66 94 67.5 93 Z " /><path fill="rgb(184,191,204)" stroke="rgb(184,191,204)" stroke-width="1" opacity="1" d="M 70.5 95 L 70.5 96 L 70.5 95 Z " /><path fill="rgb(184,191,204)" stroke="rgb(184,191,204)" stroke-width="1" opacity="1" d="M 64.5 96 L 64.5 97 L 64.5 96 Z " /><path fill="rgb(184,191,204)" stroke="rgb(184,191,204)" stroke-width="1" opacity="1" d="M 66.5 97 L 66.5 98 L 66.5 97 Z " /><path fill="rgb(184,191,204)" stroke="rgb(184,191,204)" stroke-width="1" opacity="1" d="M 74.5 97 L 74.5 98 L 74.5 97 Z " /><path fill="rgb(184,191,204)" stroke="rgb(184,191,204)" stroke-width="1" opacity="1" d="M 81.5 97 L 81.5 98 L 81.5 97 Z " /><path fill="rgb(184,191,204)" stroke="rgb(184,191,204)" stroke-width="1" opacity="1" d="M 87.5 97 L 87.5 98 L 87.5 97 Z " /><path fill="rgb(184,191,204)" stroke="rgb(184,191,204)" stroke-width="1" opacity="1" d="M 69.5 98 L 69.5 99 L 69.5 98 Z " /><path fill="rgb(184,191,204)" stroke="rgb(184,191,204)" stroke-width="1" opacity="1" d="M 85.5 98 L 85.5 99 L 85.5 98 Z " /><path fill="rgb(184,191,204)" stroke="rgb(184,191,204)" stroke-width="1" opacity="1" d="M 75.5 99 L 80 99.5 L 75.5 100 L 75.5 99 Z " /><path fill="rgb(109,124,150)" stroke="rgb(109,124,150)" stroke-width="1" opacity="1" d="M 58.5 29 L 58.5 30 L 58.5 29 Z " /><path fill="rgb(109,124,150)" stroke="rgb(109,124,150)" stroke-width="1" opacity="1" d="M 63 29 L 67 29.5 L 63 31 L 63 29 Z " /><path fill="rgb(109,124,150)" stroke="rgb(109,124,150)" stroke-width="1" opacity="1" d="M 70.5 29 L 76 29.5 L 70.5 30 L 70.5 29 Z " /><path fill="rgb(109,124,150)" stroke="rgb(109,124,150)" stroke-width="1" opacity="1" d="M 38.5 30 L 40 30.5 L 38.5 31 L 38.5 30 Z " /><path fill="rgb(109,124,150)" stroke="rgb(109,124,150)" stroke-width="1" opacity="1" d="M 79.5 30 L 79.5 31 L 79.5 30 Z " /><path fill="rgb(109,124,150)" stroke="rgb(109,124,150)" stroke-width="1" opacity="1" d="M 41.5 31 L 41.5 32 L 41.5 31 Z " /><path fill="rgb(109,124,150)" stroke="rgb(109,124,150)" stroke-width="1" opacity="1" d="M 58.5 31 L 59 32.5 L 58 32.5 L 58.5 31 Z " /><path fill="rgb(109,124,150)" stroke="rgb(109,124,150)" stroke-width="1" opacity="1" d="M 81.5 31 L 81.5 32 L 81.5 31 Z " /><path fill="rgb(109,124,150)" stroke="rgb(109,124,150)" stroke-width="1" opacity="1" d="M 47.5 32 L 48 43.5 L 47 43.5 L 47.5 32 Z " /><path fill="rgb(109,124,150)" stroke="rgb(109,124,150)" stroke-width="1" opacity="1" d="M 53.5 32 L 56 32.5 L 53.5 33 L 53.5 32 Z " /><path fill="rgb(109,124,150)" stroke="rgb(109,124,150)" stroke-width="1" opacity="1" d="M 66.5 33 L 67 55.5 L 66 55.5 L 66.5 33 Z " /><path fill="rgb(109,124,150)" stroke="rgb(109,124,150)" stroke-width="1" opacity="1" d="M 57.5 35 L 57.5 36 L 57.5 35 Z " /><path fill="rgb(109,124,150)" stroke="rgb(109,124,150)" stroke-width="1" opacity="1" d="M 78.5 36 L 78.5 37 L 78.5 36 Z " /><path fill="rgb(109,124,150)" stroke="rgb(109,124,150)" stroke-width="1" opacity="1" d="M 78.5 39 L 78.5 40 L 78.5 39 Z " /><path fill="rgb(109,124,150)" stroke="rgb(109,124,150)" stroke-width="1" opacity="1" d="M 82.5 39 L 82.5 40 L 82.5 39 Z " /><path fill="rgb(109,124,150)" stroke="rgb(109,124,150)" stroke-width="1" opacity="1" d="M 77.5 41 L 77.5 42 L 77.5 41 Z " /><path fill="rgb(109,124,150)" stroke="rgb(109,124,150)" stroke-width="1" opacity="1" d="M 80.5 42 Q 82 43 79.5 44 Q 78 43 80.5 42 Z " /><path fill="rgb(109,124,150)" stroke="rgb(109,124,150)" stroke-width="1" opacity="1" d="M 55.5 43 L 55.5 44 L 55.5 43 Z " /><path fill="rgb(109,124,150)" stroke="rgb(109,124,150)" stroke-width="1" opacity="1" d="M 57.5 44 L 58 47.5 L 57 47.5 L 57.5 44 Z " /><path fill="rgb(109,124,150)" stroke="rgb(109,124,150)" stroke-width="1" opacity="1" d="M 81.5 44 L 81.5 45 L 81.5 44 Z " /><path fill="rgb(109,124,150)" stroke="rgb(109,124,150)" stroke-width="1" opacity="1" d="M 75.5 45 L 77 45.5 L 75.5 46 L 75.5 45 Z " /><path fill="rgb(109,124,150)" stroke="rgb(109,124,150)" stroke-width="1" opacity="1" d="M 47.5 46 L 48 58.5 L 47 58.5 L 47.5 46 Z " /><path fill="rgb(109,124,150)" stroke="rgb(109,124,150)" stroke-width="1" opacity="1" d="M 55.5 46 L 55.5 47 L 55.5 46 Z " /><path fill="rgb(109,124,150)" stroke="rgb(109,124,150)" stroke-width="1" opacity="1" d="M 86.5 50 L 86.5 51 L 86.5 50 Z " /><path fill="rgb(109,124,150)" stroke="rgb(109,124,150)" stroke-width="1" opacity="1" d="M 81.5 53 L 82 54.5 L 81 54.5 L 81.5 53 Z " /><path fill="rgb(109,124,150)" stroke="rgb(109,124,150)" stroke-width="1" opacity="1" d="M 85.5 56 L 85.5 57 L 85.5 56 Z " /><path fill="rgb(109,124,150)" stroke="rgb(109,124,150)" stroke-width="1" opacity="1" d="M 79.5 58 Q 81 59 78.5 60 Q 77 59 79.5 58 Z " /><path fill="rgb(109,124,150)" stroke="rgb(109,124,150)" stroke-width="1" opacity="1" d="M 83.5 59 L 83.5 60 L 83.5 59 Z " /><path fill="rgb(109,124,150)" stroke="rgb(109,124,150)" stroke-width="1" opacity="1" d="M 48.5 60 L 48.5 61 L 48.5 60 Z " /><path fill="rgb(109,124,150)" stroke="rgb(109,124,150)" stroke-width="1" opacity="1" d="M 65.5 60 L 65.5 61 L 65.5 60 Z " /><path fill="rgb(109,124,150)" stroke="rgb(109,124,150)" stroke-width="1" opacity="1" d="M 38.5 61 L 38.5 62 L 38.5 61 Z " /><path fill="rgb(109,124,150)" stroke="rgb(109,124,150)" stroke-width="1" opacity="1" d="M 72.5 66 L 72.5 67 L 72.5 66 Z " /><path fill="rgb(109,124,150)" stroke="rgb(109,124,150)" stroke-width="1" opacity="1" d="M 77.5 66 L 81 66.5 L 77.5 67 L 77.5 66 Z " /><path fill="rgb(109,124,150)" stroke="rgb(109,124,150)" stroke-width="1" opacity="1" d="M 68.5 67 L 68.5 68 L 68.5 67 Z " /><path fill="rgb(109,124,150)" stroke="rgb(109,124,150)" stroke-width="1" opacity="1" d="M 87.5 67 L 87.5 68 L 87.5 67 Z " /><path fill="rgb(109,124,150)" stroke="rgb(109,124,150)" stroke-width="1" opacity="1" d="M 73.5 68 L 78 68.5 L 73.5 69 L 73.5 68 Z " /><path fill="rgb(109,124,150)" stroke="rgb(109,124,150)" stroke-width="1" opacity="1" d="M 68.5 70 L 68.5 71 L 68.5 70 Z " /><path fill="rgb(109,124,150)" stroke="rgb(109,124,150)" stroke-width="1" opacity="1" d="M 84.5 71 Q 87 72 85.5 73 Q 83 72 84.5 71 Z " /><path fill="rgb(109,124,150)" stroke="rgb(109,124,150)" stroke-width="1" opacity="1" d="M 65.5 73 L 65.5 74 L 65.5 73 Z " /><path fill="rgb(109,124,150)" stroke="rgb(109,124,150)" stroke-width="1" opacity="1" d="M 86.5 74 Q 89 75 87.5 76 Q 85 75 86.5 74 Z " /><path fill="rgb(109,124,150)" stroke="rgb(109,124,150)" stroke-width="1" opacity="1" d="M 64.5 75 L 64.5 76 L 64.5 75 Z " /><path fill="rgb(109,124,150)" stroke="rgb(109,124,150)" stroke-width="1" opacity="1" d="M 58.5 76 L 58.5 77 L 58.5 76 Z " /><path fill="rgb(109,124,150)" stroke="rgb(109,124,150)" stroke-width="1" opacity="1" d="M 48.5 77 L 48.5 78 L 48.5 77 Z " /><path fill="rgb(109,124,150)" stroke="rgb(109,124,150)" stroke-width="1" opacity="1" d="M 63.5 78 L 63.5 79 L 63.5 78 Z " /><path fill="rgb(109,124,150)" stroke="rgb(109,124,150)" stroke-width="1" opacity="1" d="M 50.5 79 L 50.5 80 L 50.5 79 Z " /><path fill="rgb(109,124,150)" stroke="rgb(109,124,150)" stroke-width="1" opacity="1" d="M 57.5 79 L 58 86.5 L 57 86.5 L 57.5 79 Z " /><path fill="rgb(109,124,150)" stroke="rgb(109,124,150)" stroke-width="1" opacity="1" d="M 38.5 80 L 38.5 81 L 38.5 80 Z " /><path fill="rgb(109,124,150)" stroke="rgb(109,124,150)" stroke-width="1" opacity="1" d="M 40.5 80 L 40.5 81 L 40.5 80 Z " /><path fill="rgb(109,124,150)" stroke="rgb(109,124,150)" stroke-width="1" opacity="1" d="M 48.5 80 L 48.5 81 L 48.5 80 Z " /><path fill="rgb(109,124,150)" stroke="rgb(109,124,150)" stroke-width="1" opacity="1" d="M 63.5 83 L 64 84.5 L 63 84.5 L 63.5 83 Z " /><path fill="rgb(109,124,150)" stroke="rgb(109,124,150)" stroke-width="1" opacity="1" d="M 78.5 83 L 78.5 84 L 78.5 83 Z " /><path fill="rgb(109,124,150)" stroke="rgb(109,124,150)" stroke-width="1" opacity="1" d="M 91.5 83 L 91.5 84 L 91.5 83 Z " /><path fill="rgb(109,124,150)" stroke="rgb(109,124,150)" stroke-width="1" opacity="1" d="M 40.5 84 L 40.5 85 L 40.5 84 Z " /><path fill="rgb(109,124,150)" stroke="rgb(109,124,150)" stroke-width="1" opacity="1" d="M 38.5 85 L 38.5 86 L 38.5 85 Z " /><path fill="rgb(109,124,150)" stroke="rgb(109,124,150)" stroke-width="1" opacity="1" d="M 82.5 85 L 83 96.5 L 82 96.5 L 82.5 85 Z " /><path fill="rgb(109,124,150)" stroke="rgb(109,124,150)" stroke-width="1" opacity="1" d="M 48.5 86 L 48.5 89 Q 45.5 87.5 48.5 86 Z " /><path fill="rgb(109,124,150)" stroke="rgb(109,124,150)" stroke-width="1" opacity="1" d="M 50.5 86 L 50.5 87 L 50.5 86 Z " /><path fill="rgb(109,124,150)" stroke="rgb(109,124,150)" stroke-width="1" opacity="1" d="M 39.5 87 Q 42 88 40.5 89 Q 38 88 39.5 87 Z " /><path fill="rgb(109,124,150)" stroke="rgb(109,124,150)" stroke-width="1" opacity="1" d="M 42.5 87 L 42.5 88 L 42.5 87 Z " /><path fill="rgb(109,124,150)" stroke="rgb(109,124,150)" stroke-width="1" opacity="1" d="M 64.5 87 L 64.5 88 L 64.5 87 Z " /><path fill="rgb(109,124,150)" stroke="rgb(109,124,150)" stroke-width="1" opacity="1" d="M 43.5 89 L 46 89.5 L 43.5 90 L 43.5 89 Z " /><path fill="rgb(109,124,150)" stroke="rgb(109,124,150)" stroke-width="1" opacity="1" d="M 58.5 89 L 58.5 90 L 58.5 89 Z " /><path fill="rgb(109,124,150)" stroke="rgb(109,124,150)" stroke-width="1" opacity="1" d="M 65.5 89 L 65.5 90 L 65.5 89 Z " /><path fill="rgb(109,124,150)" stroke="rgb(109,124,150)" stroke-width="1" opacity="1" d="M 69.5 94 L 69.5 95 L 69.5 94 Z " /><path fill="rgb(109,124,150)" stroke="rgb(109,124,150)" stroke-width="1" opacity="1" d="M 75.5 97 L 81 97.5 L 75.5 98 L 75.5 97 Z " /><path fill="rgb(109,124,150)" stroke="rgb(109,124,150)" stroke-width="1" opacity="1" d="M 68.5 98 L 68.5 99 L 68.5 98 Z " /><path fill="rgb(109,124,150)" stroke="rgb(109,124,150)" stroke-width="1" opacity="1" d="M 72.5 99 L 75 99.5 L 72.5 100 L 72.5 99 Z " /><path fill="rgb(109,124,150)" stroke="rgb(109,124,150)" stroke-width="1" opacity="1" d="M 80.5 99 L 83 99.5 L 80.5 100 L 80.5 99 Z " /><path fill="rgb(247,248,249)" stroke="rgb(247,248,249)" stroke-width="1" opacity="1" d="M 44.5 30 L 56 30.5 L 44.5 31 L 44.5 30 Z " /><path fill="rgb(247,248,249)" stroke="rgb(247,248,249)" stroke-width="1" opacity="1" d="M 80.5 31 L 80.5 32 L 80.5 31 Z " /><path fill="rgb(247,248,249)" stroke="rgb(247,248,249)" stroke-width="1" opacity="1" d="M 56.5 32 L 56.5 33 L 56.5 32 Z " /><path fill="rgb(247,248,249)" stroke="rgb(247,248,249)" stroke-width="1" opacity="1" d="M 71.5 43 L 71.5 44 L 71.5 43 Z " /><path fill="rgb(247,248,249)" stroke="rgb(247,248,249)" stroke-width="1" opacity="1" d="M 84.5 48 L 84.5 49 L 84.5 48 Z " /><path fill="rgb(247,248,249)" stroke="rgb(247,248,249)" stroke-width="1" opacity="1" d="M 85.5 55 L 85.5 56 L 85.5 55 Z " /><path fill="rgb(247,248,249)" stroke="rgb(247,248,249)" stroke-width="1" opacity="1" d="M 42.5 57 L 42.5 58 L 42.5 57 Z " /><path fill="rgb(247,248,249)" stroke="rgb(247,248,249)" stroke-width="1" opacity="1" d="M 82.5 59 L 82.5 60 L 82.5 59 Z " /><path fill="rgb(247,248,249)" stroke="rgb(247,248,249)" stroke-width="1" opacity="1" d="M 74.5 60 L 74.5 61 L 74.5 60 Z " /><path fill="rgb(247,248,249)" stroke="rgb(247,248,249)" stroke-width="1" opacity="1" d="M 82.5 67 L 82.5 68 L 82.5 67 Z " /><path fill="rgb(247,248,249)" stroke="rgb(247,248,249)" stroke-width="1" opacity="1" d="M 84.5 70 L 84.5 71 L 84.5 70 Z " /><path fill="rgb(247,248,249)" stroke="rgb(247,248,249)" stroke-width="1" opacity="1" d="M 40.5 78 L 40.5 79 L 40.5 78 Z " /><path fill="rgb(247,248,249)" stroke="rgb(247,248,249)" stroke-width="1" opacity="1" d="M 79.5 83 L 81 83.5 L 79.5 84 L 79.5 83 Z " /><path fill="rgb(247,248,249)" stroke="rgb(247,248,249)" stroke-width="1" opacity="1" d="M 90.5 83 L 90.5 84 L 90.5 83 Z " /><path fill="rgb(247,248,249)" stroke="rgb(247,248,249)" stroke-width="1" opacity="1" d="M 63.5 86 L 63.5 87 L 63.5 86 Z " /><path fill="rgb(247,248,249)" stroke="rgb(247,248,249)" stroke-width="1" opacity="1" d="M 40.5 87 L 40.5 88 L 40.5 87 Z " /><path fill="rgb(247,248,249)" stroke="rgb(247,248,249)" stroke-width="1" opacity="1" d="M 58.5 88 L 58.5 89 L 58.5 88 Z " /><path fill="rgb(247,248,249)" stroke="rgb(247,248,249)" stroke-width="1" opacity="1" d="M 65.5 91 L 65.5 92 L 65.5 91 Z " /><path fill="rgb(247,248,249)" stroke="rgb(247,248,249)" stroke-width="1" opacity="1" d="M 61.5 93 L 61.5 94 L 61.5 93 Z " /><path fill="rgb(247,248,249)" stroke="rgb(247,248,249)" stroke-width="1" opacity="1" d="M 84.5 98 L 84.5 99 L 84.5 98 Z " /><path fill="rgb(240,242,244)" stroke="rgb(240,242,244)" stroke-width="1" opacity="1" d="M 77.5 30 L 77.5 31 L 77.5 30 Z " /><path fill="rgb(240,242,244)" stroke="rgb(240,242,244)" stroke-width="1" opacity="1" d="M 71.5 31 L 71.5 32 L 71.5 31 Z " /><path fill="rgb(240,242,244)" stroke="rgb(240,242,244)" stroke-width="1" opacity="1" d="M 82.5 37 L 82.5 38 L 82.5 37 Z " /><path fill="rgb(240,242,244)" stroke="rgb(240,242,244)" stroke-width="1" opacity="1" d="M 76.5 43 L 76.5 44 L 76.5 43 Z " /><path fill="rgb(240,242,244)" stroke="rgb(240,242,244)" stroke-width="1" opacity="1" d="M 80.5 44 L 80.5 45 L 80.5 44 Z " /><path fill="rgb(240,242,244)" stroke="rgb(240,242,244)" stroke-width="1" opacity="1" d="M 77.5 45 L 77.5 46 L 77.5 45 Z " /><path fill="rgb(240,242,244)" stroke="rgb(240,242,244)" stroke-width="1" opacity="1" d="M 83.5 46 L 83.5 47 L 83.5 46 Z " /><path fill="rgb(240,242,244)" stroke="rgb(240,242,244)" stroke-width="1" opacity="1" d="M 80.5 48 L 80.5 49 L 80.5 48 Z " /><path fill="rgb(240,242,244)" stroke="rgb(240,242,244)" stroke-width="1" opacity="1" d="M 85.5 49 L 85.5 50 L 85.5 49 Z " /><path fill="rgb(240,242,244)" stroke="rgb(240,242,244)" stroke-width="1" opacity="1" d="M 81.5 56 L 81.5 57 L 81.5 56 Z " /><path fill="rgb(240,242,244)" stroke="rgb(240,242,244)" stroke-width="1" opacity="1" d="M 71.5 57 L 71.5 58 L 71.5 57 Z " /><path fill="rgb(240,242,244)" stroke="rgb(240,242,244)" stroke-width="1" opacity="1" d="M 66.5 59 L 66.5 60 L 66.5 59 Z " /><path fill="rgb(240,242,244)" stroke="rgb(240,242,244)" stroke-width="1" opacity="1" d="M 79.5 59 Q 82 60 80.5 61 Q 78 60 79.5 59 Z " /><path fill="rgb(240,242,244)" stroke="rgb(240,242,244)" stroke-width="1" opacity="1" d="M 77.5 60 L 77.5 61 L 77.5 60 Z " /><path fill="rgb(240,242,244)" stroke="rgb(240,242,244)" stroke-width="1" opacity="1" d="M 39.5 61 L 39.5 62 L 39.5 61 Z " /><path fill="rgb(240,242,244)" stroke="rgb(240,242,244)" stroke-width="1" opacity="1" d="M 73.5 61 L 73.5 62 L 73.5 61 Z " /><path fill="rgb(240,242,244)" stroke="rgb(240,242,244)" stroke-width="1" opacity="1" d="M 70.5 67 L 70.5 68 L 70.5 67 Z " /><path fill="rgb(240,242,244)" stroke="rgb(240,242,244)" stroke-width="1" opacity="1" d="M 65.5 69 L 65.5 70 L 65.5 69 Z " /><path fill="rgb(240,242,244)" stroke="rgb(240,242,244)" stroke-width="1" opacity="1" d="M 66.5 71 L 66.5 72 L 66.5 71 Z " /><path fill="rgb(240,242,244)" stroke="rgb(240,242,244)" stroke-width="1" opacity="1" d="M 46.5 77 L 46.5 78 L 46.5 77 Z " /><path fill="rgb(240,242,244)" stroke="rgb(240,242,244)" stroke-width="1" opacity="1" d="M 39.5 79 L 39.5 80 L 39.5 79 Z " /><path fill="rgb(240,242,244)" stroke="rgb(240,242,244)" stroke-width="1" opacity="1" d="M 81.5 83 L 81.5 84 L 81.5 83 Z " /><path fill="rgb(240,242,244)" stroke="rgb(240,242,244)" stroke-width="1" opacity="1" d="M 88.5 83 L 90 83.5 L 88.5 84 L 88.5 83 Z " /><path fill="rgb(240,242,244)" stroke="rgb(240,242,244)" stroke-width="1" opacity="1" d="M 49.5 84 L 51 84.5 L 49.5 85 L 49.5 84 Z " /><path fill="rgb(240,242,244)" stroke="rgb(240,242,244)" stroke-width="1" opacity="1" d="M 87.5 86 L 88 89.5 L 87 89.5 L 87.5 86 Z " /><path fill="rgb(240,242,244)" stroke="rgb(240,242,244)" stroke-width="1" opacity="1" d="M 43.5 88 L 43.5 89 L 43.5 88 Z " /><path fill="rgb(240,242,244)" stroke="rgb(240,242,244)" stroke-width="1" opacity="1" d="M 64.5 88 L 64.5 89 L 64.5 88 Z " /><path fill="rgb(240,242,244)" stroke="rgb(240,242,244)" stroke-width="1" opacity="1" d="M 67.5 97 L 67.5 98 L 67.5 97 Z " /><path fill="rgb(240,242,244)" stroke="rgb(240,242,244)" stroke-width="1" opacity="1" d="M 82.5 97 L 82.5 98 L 82.5 97 Z " /><path fill="rgb(223,227,232)" stroke="rgb(223,227,232)" stroke-width="1" opacity="1" d="M 66.5 31 L 66.5 32 L 66.5 31 Z " /><path fill="rgb(223,227,232)" stroke="rgb(223,227,232)" stroke-width="1" opacity="1" d="M 42.5 33 L 43 34.5 L 42 34.5 L 42.5 33 Z " /><path fill="rgb(223,227,232)" stroke="rgb(223,227,232)" stroke-width="1" opacity="1" d="M 57.5 33 L 57.5 34 L 57.5 33 Z " /><path fill="rgb(223,227,232)" stroke="rgb(223,227,232)" stroke-width="1" opacity="1" d="M 82.5 34 L 82.5 35 L 82.5 34 Z " /><path fill="rgb(223,227,232)" stroke="rgb(223,227,232)" stroke-width="1" opacity="1" d="M 78.5 40 L 78.5 41 L 78.5 40 Z " /><path fill="rgb(223,227,232)" stroke="rgb(223,227,232)" stroke-width="1" opacity="1" d="M 81.5 40 L 82 40.5 L 79.5 43 L 79 42.5 L 81.5 40 Z " /><path fill="rgb(223,227,232)" stroke="rgb(223,227,232)" stroke-width="1" opacity="1" d="M 47.5 45 L 47.5 46 L 47.5 45 Z " /><path fill="rgb(223,227,232)" stroke="rgb(223,227,232)" stroke-width="1" opacity="1" d="M 53.5 45 L 55 45.5 L 53.5 46 L 53.5 45 Z " /><path fill="rgb(223,227,232)" stroke="rgb(223,227,232)" stroke-width="1" opacity="1" d="M 71.5 45 L 71.5 46 L 71.5 45 Z " /><path fill="rgb(223,227,232)" stroke="rgb(223,227,232)" stroke-width="1" opacity="1" d="M 56.5 47 L 56.5 48 L 56.5 47 Z " /><path fill="rgb(223,227,232)" stroke="rgb(223,227,232)" stroke-width="1" opacity="1" d="M 79.5 47 L 79.5 48 L 79.5 47 Z " /><path fill="rgb(223,227,232)" stroke="rgb(223,227,232)" stroke-width="1" opacity="1" d="M 86.5 52 L 86.5 53 L 86.5 52 Z " /><path fill="rgb(223,227,232)" stroke="rgb(223,227,232)" stroke-width="1" opacity="1" d="M 42.5 55 L 43 56.5 L 42 56.5 L 42.5 55 Z " /><path fill="rgb(223,227,232)" stroke="rgb(223,227,232)" stroke-width="1" opacity="1" d="M 71.5 56 L 71.5 57 L 71.5 56 Z " /><path fill="rgb(223,227,232)" stroke="rgb(223,227,232)" stroke-width="1" opacity="1" d="M 80.5 58 L 80.5 59 L 80.5 58 Z " /><path fill="rgb(223,227,232)" stroke="rgb(223,227,232)" stroke-width="1" opacity="1" d="M 47.5 60 L 47.5 61 L 47.5 60 Z " /><path fill="rgb(223,227,232)" stroke="rgb(223,227,232)" stroke-width="1" opacity="1" d="M 75.5 60 L 78 61.5 L 76.5 61 Q 74.12 60.88 75.5 60 Z " /><path fill="rgb(223,227,232)" stroke="rgb(223,227,232)" stroke-width="1" opacity="1" d="M 51.5 61 L 51.5 62 L 51.5 61 Z " /><path fill="rgb(223,227,232)" stroke="rgb(223,227,232)" stroke-width="1" opacity="1" d="M 63.5 61 L 66 61.5 L 63.5 62 L 63.5 61 Z " /><path fill="rgb(223,227,232)" stroke="rgb(223,227,232)" stroke-width="1" opacity="1" d="M 71.5 61 L 73 61.5 L 71.5 62 L 71.5 61 Z " /><path fill="rgb(223,227,232)" stroke="rgb(223,227,232)" stroke-width="1" opacity="1" d="M 83.5 67 L 83.5 68 L 83.5 67 Z " /><path fill="rgb(223,227,232)" stroke="rgb(223,227,232)" stroke-width="1" opacity="1" d="M 66.5 68 L 66.5 69 L 66.5 68 Z " /><path fill="rgb(223,227,232)" stroke="rgb(223,227,232)" stroke-width="1" opacity="1" d="M 79.5 68 L 79.5 69 L 79.5 68 Z " /><path fill="rgb(223,227,232)" stroke="rgb(223,227,232)" stroke-width="1" opacity="1" d="M 67.5 70 L 67.5 71 L 67.5 70 Z " /><path fill="rgb(223,227,232)" stroke="rgb(223,227,232)" stroke-width="1" opacity="1" d="M 62.5 71 L 62.5 72 L 62.5 71 Z " /><path fill="rgb(223,227,232)" stroke="rgb(223,227,232)" stroke-width="1" opacity="1" d="M 65.5 72 L 65.5 73 L 65.5 72 Z " /><path fill="rgb(223,227,232)" stroke="rgb(223,227,232)" stroke-width="1" opacity="1" d="M 60.5 74 L 60.5 75 L 60.5 74 Z " /><path fill="rgb(223,227,232)" stroke="rgb(223,227,232)" stroke-width="1" opacity="1" d="M 42.5 77 L 42.5 78 L 42.5 77 Z " /><path fill="rgb(223,227,232)" stroke="rgb(223,227,232)" stroke-width="1" opacity="1" d="M 58.5 77 L 58.5 78 L 58.5 77 Z " /><path fill="rgb(223,227,232)" stroke="rgb(223,227,232)" stroke-width="1" opacity="1" d="M 49.5 78 L 49.5 79 L 49.5 78 Z " /><path fill="rgb(223,227,232)" stroke="rgb(223,227,232)" stroke-width="1" opacity="1" d="M 50.5 80 L 50.5 81 L 50.5 80 Z " /><path fill="rgb(223,227,232)" stroke="rgb(223,227,232)" stroke-width="1" opacity="1" d="M 49.5 82 L 50 83.5 L 49 83.5 L 49.5 82 Z " /><path fill="rgb(223,227,232)" stroke="rgb(223,227,232)" stroke-width="1" opacity="1" d="M 38.5 83 L 38.5 84 L 38.5 83 Z " /><path fill="rgb(223,227,232)" stroke="rgb(223,227,232)" stroke-width="1" opacity="1" d="M 82 83 L 88 83.5 L 83.5 84 L 82.5 85 L 82 83 Z " /><path fill="rgb(223,227,232)" stroke="rgb(223,227,232)" stroke-width="1" opacity="1" d="M 40.5 86 Q 43 87 41.5 88 Q 39 87 40.5 86 Z " /><path fill="rgb(223,227,232)" stroke="rgb(223,227,232)" stroke-width="1" opacity="1" d="M 48.5 87 Q 50 88 47.5 89 Q 46 88 48.5 87 Z " /><path fill="rgb(223,227,232)" stroke="rgb(223,227,232)" stroke-width="1" opacity="1" d="M 59.5 90 L 59.5 91 L 59.5 90 Z " /><path fill="rgb(223,227,232)" stroke="rgb(223,227,232)" stroke-width="1" opacity="1" d="M 87.5 90 L 88 96.5 L 87 96.5 L 87.5 90 Z " /><path fill="rgb(223,227,232)" stroke="rgb(223,227,232)" stroke-width="1" opacity="1" d="M 66.5 92 L 66.5 93 L 66.5 92 Z " /><path fill="rgb(223,227,232)" stroke="rgb(223,227,232)" stroke-width="1" opacity="1" d="M 62.5 94 Q 65 95 63.5 96 Q 61 95 62.5 94 Z " /><path fill="rgb(223,227,232)" stroke="rgb(223,227,232)" stroke-width="1" opacity="1" d="M 71.5 96 L 71.5 97 L 71.5 96 Z " /><path fill="rgb(223,227,232)" stroke="rgb(223,227,232)" stroke-width="1" opacity="1" d="M 73.5 97 L 73.5 98 L 73.5 97 Z " /><path fill="rgb(46,68,105)" stroke="rgb(46,68,105)" stroke-width="1" opacity="1" d="M 57.5 29 L 57.5 30 L 57.5 29 Z " /><path fill="rgb(46,68,105)" stroke="rgb(46,68,105)" stroke-width="1" opacity="1" d="M 62.5 29 L 63 30.5 L 62 30.5 L 62.5 29 Z " /><path fill="rgb(46,68,105)" stroke="rgb(46,68,105)" stroke-width="1" opacity="1" d="M 67.5 29 L 70 29.5 L 67.5 30 L 67.5 29 Z " /><path fill="rgb(46,68,105)" stroke="rgb(46,68,105)" stroke-width="1" opacity="1" d="M 76.5 29 L 76.5 30 L 76.5 29 Z " /><path fill="rgb(46,68,105)" stroke="rgb(46,68,105)" stroke-width="1" opacity="1" d="M 80.5 30 L 80.5 31 L 80.5 30 Z " /><path fill="rgb(46,68,105)" stroke="rgb(46,68,105)" stroke-width="1" opacity="1" d="M 72.5 31 L 72.5 32 L 72.5 31 Z " /><path fill="rgb(46,68,105)" stroke="rgb(46,68,105)" stroke-width="1" opacity="1" d="M 74.5 31 L 74.5 32 L 74.5 31 Z " /><path fill="rgb(46,68,105)" stroke="rgb(46,68,105)" stroke-width="1" opacity="1" d="M 48.5 32 L 53 32.5 L 48.5 33 L 48.5 32 Z " /><path fill="rgb(46,68,105)" stroke="rgb(46,68,105)" stroke-width="1" opacity="1" d="M 82.5 32 L 82.5 33 L 82.5 32 Z " /><path fill="rgb(46,68,105)" stroke="rgb(46,68,105)" stroke-width="1" opacity="1" d="M 58.5 33 L 59 34.5 L 58 34.5 L 58.5 33 Z " /><path fill="rgb(46,68,105)" stroke="rgb(46,68,105)" stroke-width="1" opacity="1" d="M 77.5 34 L 77.5 35 L 77.5 34 Z " /><path fill="rgb(46,68,105)" stroke="rgb(46,68,105)" stroke-width="1" opacity="1" d="M 78.5 37 L 79 38.5 L 78 38.5 L 78.5 37 Z " /><path fill="rgb(46,68,105)" stroke="rgb(46,68,105)" stroke-width="1" opacity="1" d="M 48.5 43 L 55 43.5 L 48.5 44 L 48.5 43 Z " /><path fill="rgb(46,68,105)" stroke="rgb(46,68,105)" stroke-width="1" opacity="1" d="M 80.5 43 L 80.5 44 L 80.5 43 Z " /><path fill="rgb(46,68,105)" stroke="rgb(46,68,105)" stroke-width="1" opacity="1" d="M 72.5 45 L 75 45.5 L 72.5 46 L 72.5 45 Z " /><path fill="rgb(46,68,105)" stroke="rgb(46,68,105)" stroke-width="1" opacity="1" d="M 83.5 45 Q 86 46 84.5 47 Q 82 46 83.5 45 Z " /><path fill="rgb(46,68,105)" stroke="rgb(46,68,105)" stroke-width="1" opacity="1" d="M 77.5 46 Q 80 47 78.5 48 Q 76 47 77.5 46 Z " /><path fill="rgb(46,68,105)" stroke="rgb(46,68,105)" stroke-width="1" opacity="1" d="M 57.5 48 Q 59 49 56.5 50 Q 55 49 57.5 48 Z " /><path fill="rgb(46,68,105)" stroke="rgb(46,68,105)" stroke-width="1" opacity="1" d="M 85.5 48 L 85.5 49 L 85.5 48 Z " /><path fill="rgb(46,68,105)" stroke="rgb(46,68,105)" stroke-width="1" opacity="1" d="M 79.5 49 Q 82 50 80.5 51 Q 78 50 79.5 49 Z " /><path fill="rgb(46,68,105)" stroke="rgb(46,68,105)" stroke-width="1" opacity="1" d="M 86.5 55 L 86.5 56 L 86.5 55 Z " /><path fill="rgb(46,68,105)" stroke="rgb(46,68,105)" stroke-width="1" opacity="1" d="M 80.5 57 L 80.5 58 L 80.5 57 Z " /><path fill="rgb(46,68,105)" stroke="rgb(46,68,105)" stroke-width="1" opacity="1" d="M 72.5 58 Q 75 59 73.5 60 Q 71 59 72.5 58 Z " /><path fill="rgb(46,68,105)" stroke="rgb(46,68,105)" stroke-width="1" opacity="1" d="M 84.5 58 L 84.5 59 L 84.5 58 Z " /><path fill="rgb(46,68,105)" stroke="rgb(46,68,105)" stroke-width="1" opacity="1" d="M 41.5 59 L 41.5 60 L 41.5 59 Z " /><path fill="rgb(46,68,105)" stroke="rgb(46,68,105)" stroke-width="1" opacity="1" d="M 48.5 59 L 48.5 60 L 48.5 59 Z " /><path fill="rgb(46,68,105)" stroke="rgb(46,68,105)" stroke-width="1" opacity="1" d="M 63.5 60 L 65 60.5 L 62.5 62 Q 61 61 63.5 60 Z " /><path fill="rgb(46,68,105)" stroke="rgb(46,68,105)" stroke-width="1" opacity="1" d="M 82.5 60 L 82.5 61 L 82.5 60 Z " /><path fill="rgb(46,68,105)" stroke="rgb(46,68,105)" stroke-width="1" opacity="1" d="M 52.5 61 L 52.5 62 L 52.5 61 Z " /><path fill="rgb(46,68,105)" stroke="rgb(46,68,105)" stroke-width="1" opacity="1" d="M 79.5 61 L 79.5 62 L 79.5 61 Z " /><path fill="rgb(46,68,105)" stroke="rgb(46,68,105)" stroke-width="1" opacity="1" d="M 39.5 62 L 39.5 63 L 39.5 62 Z " /><path fill="rgb(46,68,105)" stroke="rgb(46,68,105)" stroke-width="1" opacity="1" d="M 50.5 62 L 50.5 63 L 50.5 62 Z " /><path fill="rgb(46,68,105)" stroke="rgb(46,68,105)" stroke-width="1" opacity="1" d="M 71.5 66 L 71.5 67 L 71.5 66 Z " /><path fill="rgb(46,68,105)" stroke="rgb(46,68,105)" stroke-width="1" opacity="1" d="M 81.5 66 L 81.5 67 L 81.5 66 Z " /><path fill="rgb(46,68,105)" stroke="rgb(46,68,105)" stroke-width="1" opacity="1" d="M 67.5 67 L 67.5 68 L 67.5 67 Z " /><path fill="rgb(46,68,105)" stroke="rgb(46,68,105)" stroke-width="1" opacity="1" d="M 65.5 68 Q 67 69 64.5 70 Q 63 69 65.5 68 Z " /><path fill="rgb(46,68,105)" stroke="rgb(46,68,105)" stroke-width="1" opacity="1" d="M 80.5 69 L 80.5 70 L 80.5 69 Z " /><path fill="rgb(46,68,105)" stroke="rgb(46,68,105)" stroke-width="1" opacity="1" d="M 62.5 70 L 62.5 71 L 62.5 70 Z " /><path fill="rgb(46,68,105)" stroke="rgb(46,68,105)" stroke-width="1" opacity="1" d="M 69.5 70 L 69.5 71 L 69.5 70 Z " /><path fill="rgb(46,68,105)" stroke="rgb(46,68,105)" stroke-width="1" opacity="1" d="M 82.5 70 L 82.5 71 L 82.5 70 Z " /><path fill="rgb(46,68,105)" stroke="rgb(46,68,105)" stroke-width="1" opacity="1" d="M 67.5 71 Q 69 72 66.5 73 Q 65 72 67.5 71 Z " /><path fill="rgb(46,68,105)" stroke="rgb(46,68,105)" stroke-width="1" opacity="1" d="M 60.5 72 L 60.5 73 L 60.5 72 Z " /><path fill="rgb(46,68,105)" stroke="rgb(46,68,105)" stroke-width="1" opacity="1" d="M 65.5 74 L 65.5 75 L 65.5 74 Z " /><path fill="rgb(46,68,105)" stroke="rgb(46,68,105)" stroke-width="1" opacity="1" d="M 43.5 76 L 46 76.5 L 43.5 77 L 43.5 76 Z " /><path fill="rgb(46,68,105)" stroke="rgb(46,68,105)" stroke-width="1" opacity="1" d="M 40.5 77 L 41 77.5 L 38.5 80 L 38 79.5 L 40.5 77 Z " /><path fill="rgb(46,68,105)" stroke="rgb(46,68,105)" stroke-width="1" opacity="1" d="M 57.5 78 L 57.5 79 L 57.5 78 Z " /><path fill="rgb(46,68,105)" stroke="rgb(46,68,105)" stroke-width="1" opacity="1" d="M 47.5 79 L 47.5 80 L 47.5 79 Z " /><path fill="rgb(46,68,105)" stroke="rgb(46,68,105)" stroke-width="1" opacity="1" d="M 63.5 79 L 64 82.5 L 63 82.5 L 63.5 79 Z " /><path fill="rgb(46,68,105)" stroke="rgb(46,68,105)" stroke-width="1" opacity="1" d="M 40.5 81 L 41 83.5 L 40 83.5 L 40.5 81 Z " /><path fill="rgb(46,68,105)" stroke="rgb(46,68,105)" stroke-width="1" opacity="1" d="M 51.5 81 L 52 83.5 L 51 83.5 L 51.5 81 Z " /><path fill="rgb(46,68,105)" stroke="rgb(46,68,105)" stroke-width="1" opacity="1" d="M 80.5 84 L 82 84.5 L 80.5 85 L 80.5 84 Z " /><path fill="rgb(46,68,105)" stroke="rgb(46,68,105)" stroke-width="1" opacity="1" d="M 89.5 84 L 89.5 85 L 89.5 84 Z " /><path fill="rgb(46,68,105)" stroke="rgb(46,68,105)" stroke-width="1" opacity="1" d="M 48.5 85 L 48.5 86 L 48.5 85 Z " /><path fill="rgb(46,68,105)" stroke="rgb(46,68,105)" stroke-width="1" opacity="1" d="M 38.5 86 L 38.5 87 L 38.5 86 Z " /><path fill="rgb(46,68,105)" stroke="rgb(46,68,105)" stroke-width="1" opacity="1" d="M 57.5 87 L 57.5 88 L 57.5 87 Z " /><path fill="rgb(46,68,105)" stroke="rgb(46,68,105)" stroke-width="1" opacity="1" d="M 41.5 89 L 43 89.5 L 41.5 90 L 41.5 89 Z " /><path fill="rgb(46,68,105)" stroke="rgb(46,68,105)" stroke-width="1" opacity="1" d="M 46.5 89 L 46.5 90 L 46.5 89 Z " /><path fill="rgb(46,68,105)" stroke="rgb(46,68,105)" stroke-width="1" opacity="1" d="M 59.5 91 L 59.5 92 L 59.5 91 Z " /><path fill="rgb(46,68,105)" stroke="rgb(46,68,105)" stroke-width="1" opacity="1" d="M 66.5 91 Q 69 92 67.5 93 Q 65 92 66.5 91 Z " /><path fill="rgb(46,68,105)" stroke="rgb(46,68,105)" stroke-width="1" opacity="1" d="M 60.5 93 L 63 95.5 L 62.5 96 L 60 93.5 L 60.5 93 Z " /><path fill="rgb(46,68,105)" stroke="rgb(46,68,105)" stroke-width="1" opacity="1" d="M 72.5 96 L 72.5 97 L 72.5 96 Z " /><path fill="rgb(46,68,105)" stroke="rgb(46,68,105)" stroke-width="1" opacity="1" d="M 65.5 97 L 65.5 98 L 65.5 97 Z " /><path fill="rgb(46,68,105)" stroke="rgb(46,68,105)" stroke-width="1" opacity="1" d="M 86.5 98 L 86.5 99 L 86.5 98 Z " /><path fill="rgb(46,68,105)" stroke="rgb(46,68,105)" stroke-width="1" opacity="1" d="M 70.5 99 L 72 99.5 L 70.5 100 L 70.5 99 Z " /><path fill="rgb(46,68,105)" stroke="rgb(46,68,105)" stroke-width="1" opacity="1" d="M 83.5 99 L 83.5 100 L 83.5 99 Z " /><path fill="rgb(252,252,253)" stroke="rgb(252,252,253)" stroke-width="1" opacity="1" d="M 41.5 30 L 41.5 31 L 41.5 30 Z " /><path fill="rgb(252,252,253)" stroke="rgb(252,252,253)" stroke-width="1" opacity="1" d="M 43.5 30 L 43.5 31 L 43.5 30 Z " /><path fill="rgb(252,252,253)" stroke="rgb(252,252,253)" stroke-width="1" opacity="1" d="M 42.5 32 L 42.5 33 L 42.5 32 Z " /><path fill="rgb(252,252,253)" stroke="rgb(252,252,253)" stroke-width="1" opacity="1" d="M 81.5 32 L 81.5 33 L 81.5 32 Z " /><path fill="rgb(252,252,253)" stroke="rgb(252,252,253)" stroke-width="1" opacity="1" d="M 55.5 45 L 55.5 46 L 55.5 45 Z " /><path fill="rgb(252,252,253)" stroke="rgb(252,252,253)" stroke-width="1" opacity="1" d="M 78.5 46 L 78.5 47 L 78.5 46 Z " /><path fill="rgb(252,252,253)" stroke="rgb(252,252,253)" stroke-width="1" opacity="1" d="M 81.5 51 L 81.5 52 L 81.5 51 Z " /><path fill="rgb(252,252,253)" stroke="rgb(252,252,253)" stroke-width="1" opacity="1" d="M 50.5 61 L 50.5 62 L 50.5 61 Z " /><path fill="rgb(252,252,253)" stroke="rgb(252,252,253)" stroke-width="1" opacity="1" d="M 74.5 61 L 74.5 62 L 74.5 61 Z " /><path fill="rgb(252,252,253)" stroke="rgb(252,252,253)" stroke-width="1" opacity="1" d="M 76.5 61 L 76.5 62 L 76.5 61 Z " /><path fill="rgb(252,252,253)" stroke="rgb(252,252,253)" stroke-width="1" opacity="1" d="M 71.5 68 L 71.5 69 L 71.5 68 Z " /><path fill="rgb(252,252,253)" stroke="rgb(252,252,253)" stroke-width="1" opacity="1" d="M 80.5 68 L 80.5 69 L 80.5 68 Z " /><path fill="rgb(252,252,253)" stroke="rgb(252,252,253)" stroke-width="1" opacity="1" d="M 64.5 70 L 64.5 71 L 64.5 70 Z " /><path fill="rgb(252,252,253)" stroke="rgb(252,252,253)" stroke-width="1" opacity="1" d="M 86.5 72 L 86.5 73 L 86.5 72 Z " /><path fill="rgb(252,252,253)" stroke="rgb(252,252,253)" stroke-width="1" opacity="1" d="M 63.5 76 L 63.5 77 L 63.5 76 Z " /><path fill="rgb(252,252,253)" stroke="rgb(252,252,253)" stroke-width="1" opacity="1" d="M 87.5 85 L 87.5 86 L 87.5 85 Z " /><path fill="rgb(252,252,253)" stroke="rgb(252,252,253)" stroke-width="1" opacity="1" d="M 46.5 88 L 46.5 89 L 46.5 88 Z " /><path fill="rgb(255,255,255)" stroke="rgb(255,255,255)" stroke-width="1" opacity="1" d="M 42.5 30 L 43.5 31 L 55.5 31 L 58 30 L 57.5 33 L 56.5 32 L 47 32 L 47 44 L 56.5 44 Q 57.25 43.75 57 46.5 L 56 46.5 L 55.5 45 L 47 45 L 47 60.5 Q 46.75 61.25 49.5 61 L 49.5 62 L 40 61.5 L 42 61 Q 41.25 58.42 43 57.5 L 43 32.5 Q 41.25 31.75 42.5 30 Z " /><path fill="rgb(255,255,255)" stroke="rgb(255,255,255)" stroke-width="1" opacity="1" d="M 66.5 30 L 76.5 30 L 79.5 31 L 82 33.5 L 83 36.5 L 79 43.5 L 84 47.5 L 86 50.5 L 86 54.5 L 84 59 L 78.5 61 L 78.5 60 L 81 58.5 Q 82.83 56.33 82 51.5 L 81 48.5 L 77.5 45 L 71 45 L 71 57.5 L 72 60 L 74 60.5 L 66.5 61 L 67 59.5 L 67 31.5 L 66.5 30 Z M 71 31 L 71 44 L 77 44 L 79 41 Q 80 36 78 34 Q 77 30 71 31 Z " /><path fill="rgb(255,255,255)" stroke="rgb(255,255,255)" stroke-width="1" opacity="1" d="M 75.5 61 L 75.5 62 L 75.5 61 Z " /><path fill="rgb(255,255,255)" stroke="rgb(255,255,255)" stroke-width="1" opacity="1" d="M 71.5 67 L 81.5 67 L 82.5 68 L 87 68 L 87 72 L 85 72 Q 86.25 69 82.5 70 L 80.5 68 L 71.5 68 L 65 72.5 Q 65.5 76 63 76.5 L 63 86.5 L 65 89.5 L 65 91.5 L 68.5 95 L 73.5 98 L 83 98 L 83 84 L 87.5 84 L 87 85.5 L 87 97.5 Q 87.25 98.25 84.5 98 L 83.5 99 L 70.5 99 L 67.5 97 L 65.5 97 L 60 91.5 L 58 87.5 L 58 78.5 L 63.5 71 L 67.5 68 Q 70.75 68.75 71.5 67 Z " /><path fill="rgb(255,255,255)" stroke="rgb(255,255,255)" stroke-width="1" opacity="1" d="M 48.5 78 L 51 81.5 L 51 83.5 L 50 83.5 L 48 78.5 L 48.5 78 Z " /><path fill="rgb(255,255,255)" stroke="rgb(255,255,255)" stroke-width="1" opacity="1" d="M 39.5 80 L 40 86.5 L 39 86.5 L 39.5 80 Z " /><path fill="rgb(255,255,255)" stroke="rgb(255,255,255)" stroke-width="1" opacity="1" d="M 49.5 85 L 50 86.5 L 49 86.5 L 49.5 85 Z " /><path fill="rgb(255,255,255)" stroke="rgb(255,255,255)" stroke-width="1" opacity="1" d="M 41.5 88 L 43 88.5 L 41.5 89 L 41.5 88 Z " /></svg>