<svg width="48" height="48" version="1.1" xmlns="http://www.w3.org/2000/svg" desc="Created with imagetracer.js version 1.2.6" ><path fill="rgb(58,99,153)" stroke="rgb(58,99,153)" stroke-width="1" opacity="1" d="M 16.5 2 L 16.5 3 L 16.5 2 Z " /><path fill="rgb(58,99,153)" stroke="rgb(58,99,153)" stroke-width="1" opacity="1" d="M 26.5 2 L 26.5 3 L 26.5 2 Z " /><path fill="rgb(58,99,153)" stroke="rgb(58,99,153)" stroke-width="1" opacity="1" d="M 34.5 2 L 34.5 3 L 34.5 2 Z " /><path fill="rgb(58,99,153)" stroke="rgb(58,99,153)" stroke-width="1" opacity="1" d="M 28.5 3 L 28.5 4 L 28.5 3 Z " /><path fill="rgb(58,99,153)" stroke="rgb(58,99,153)" stroke-width="1" opacity="1" d="M 39.5 3 L 39.5 4 L 39.5 3 Z " /><path fill="rgb(58,99,153)" stroke="rgb(58,99,153)" stroke-width="1" opacity="1" d="M 28.5 12 L 29 18.5 L 28 18.5 L 28.5 12 Z " /><path fill="rgb(58,99,153)" stroke="rgb(58,99,153)" stroke-width="1" opacity="1" d="M 3.5 18 L 3.5 19 L 3.5 18 Z " /><path fill="rgb(58,99,153)" stroke="rgb(58,99,153)" stroke-width="1" opacity="1" d="M 28.5 23 L 29 28.5 L 28 28.5 L 28.5 23 Z " /><path fill="rgb(58,99,153)" stroke="rgb(58,99,153)" stroke-width="1" opacity="1" d="M 44.5 23 L 44.5 24 L 44.5 23 Z " /><path fill="rgb(58,99,153)" stroke="rgb(58,99,153)" stroke-width="1" opacity="1" d="M 42.5 28 L 44 28.5 L 42.5 29 L 42.5 28 Z " /><path fill="rgb(58,99,153)" stroke="rgb(58,99,153)" stroke-width="1" opacity="1" d="M 17.5 29 L 17.5 30 L 17.5 29 Z " /><path fill="rgb(58,99,153)" stroke="rgb(58,99,153)" stroke-width="1" opacity="1" d="M 14.5 33 L 15 34.5 L 14 34.5 L 14.5 33 Z " /><path fill="rgb(58,99,153)" stroke="rgb(58,99,153)" stroke-width="1" opacity="1" d="M 5.5 35 L 5.5 36 L 5.5 35 Z " /><path fill="rgb(58,99,153)" stroke="rgb(58,99,153)" stroke-width="1" opacity="1" d="M 12.5 43 L 12.5 44 L 12.5 43 Z " /><path fill="rgb(58,99,153)" stroke="rgb(58,99,153)" stroke-width="1" opacity="1" d="M 30.5 43 L 30.5 44 L 30.5 43 Z " /><path fill="rgb(58,99,153)" stroke="rgb(58,99,153)" stroke-width="1" opacity="1" d="M 28.5 44 L 28.5 45 L 28.5 44 Z " /><path fill="rgb(58,99,153)" stroke="rgb(58,99,153)" stroke-width="1" opacity="1" d="M 32.5 44 Q 35 45 33.5 46 Q 31 45 32.5 44 Z " /><path fill="rgb(58,99,153)" stroke="rgb(58,99,153)" stroke-width="1" opacity="1" d="M 38.5 45 L 38.5 46 L 38.5 45 Z " /><path fill="rgb(58,100,154)" stroke="rgb(58,100,154)" stroke-width="1" opacity="1" d="M 38.5 2 L 38.5 3 L 38.5 2 Z " /><path fill="rgb(58,100,154)" stroke="rgb(58,100,154)" stroke-width="1" opacity="1" d="M 33.5 3 L 33.5 4 L 33.5 3 Z " /><path fill="rgb(58,100,154)" stroke="rgb(58,100,154)" stroke-width="1" opacity="1" d="M 12.5 4 L 12.5 5 L 12.5 4 Z " /><path fill="rgb(58,100,154)" stroke="rgb(58,100,154)" stroke-width="1" opacity="1" d="M 7.5 9 Q 9 10 6.5 11 Q 5 10 7.5 9 Z " /><path fill="rgb(58,100,154)" stroke="rgb(58,100,154)" stroke-width="1" opacity="1" d="M 28.5 11 L 28.5 12 L 28.5 11 Z " /><path fill="rgb(58,100,154)" stroke="rgb(58,100,154)" stroke-width="1" opacity="1" d="M 5.5 12 L 5.5 13 L 5.5 12 Z " /><path fill="rgb(58,100,154)" stroke="rgb(58,100,154)" stroke-width="1" opacity="1" d="M 17.5 14 L 17.5 15 L 17.5 14 Z " /><path fill="rgb(58,100,154)" stroke="rgb(58,100,154)" stroke-width="1" opacity="1" d="M 17.5 20 L 17.5 21 L 17.5 20 Z " /><path fill="rgb(58,100,154)" stroke="rgb(58,100,154)" stroke-width="1" opacity="1" d="M 3.5 28 L 4 29.5 L 3 29.5 L 3.5 28 Z " /><path fill="rgb(58,100,154)" stroke="rgb(58,100,154)" stroke-width="1" opacity="1" d="M 31.5 31 L 31.5 32 L 31.5 31 Z " /><path fill="rgb(58,100,154)" stroke="rgb(58,100,154)" stroke-width="1" opacity="1" d="M 4.5 32 L 4.5 33 L 4.5 32 Z " /><path fill="rgb(58,100,154)" stroke="rgb(58,100,154)" stroke-width="1" opacity="1" d="M 14.5 35 L 14.5 36 L 14.5 35 Z " /><path fill="rgb(58,100,154)" stroke="rgb(58,100,154)" stroke-width="1" opacity="1" d="M 31.5 36 L 31.5 37 L 31.5 36 Z " /><path fill="rgb(58,100,154)" stroke="rgb(58,100,154)" stroke-width="1" opacity="1" d="M 6.5 37 Q 9 38 7.5 39 Q 5 38 6.5 37 Z " /><path fill="rgb(58,100,154)" stroke="rgb(58,100,154)" stroke-width="1" opacity="1" d="M 29.5 38 L 29.5 39 L 29.5 38 Z " /><path fill="rgb(58,100,154)" stroke="rgb(58,100,154)" stroke-width="1" opacity="1" d="M 14.5 44 L 14.5 45 L 14.5 44 Z " /><path fill="rgb(58,100,154)" stroke="rgb(58,100,154)" stroke-width="1" opacity="1" d="M 16.5 45 L 16.5 46 L 16.5 45 Z " /><path fill="rgb(58,100,154)" stroke="rgb(58,100,154)" stroke-width="1" opacity="1" d="M 25.5 45 L 27 45.5 L 25.5 46 L 25.5 45 Z " /><path fill="rgb(59,100,154)" stroke="rgb(59,100,154)" stroke-width="1" opacity="1" d="M 19.5 1 L 23.5 1 L 31.5 5 L 36.5 1 L 40 4.5 L 41 11.5 L 40 12.5 L 40 19 L 29 19 L 29 11 L 20.5 11 L 19 14 Q 16.33 12.88 17 15.5 L 15 18.5 Q 19.75 20.25 18 28.5 Q 14 30.75 14 36 L 16 36 Q 14.88 38.67 17.5 38 L 18.5 39 L 30 39 L 30 37 L 32 36.5 L 32 31 L 28 29.5 Q 30.25 28.25 29 23.5 L 28.5 22 L 29.5 23 L 43.5 23 L 46 25.5 L 44.5 29 L 42.5 28 L 41 29.5 L 41 43.5 L 39.5 45 L 34.5 46 L 30.5 43 L 27.5 45 L 20.5 47 L 16.5 45 L 15 45.5 L 14.5 44 L 13 44.5 Q 13.75 42.25 11.5 43 L 8 40.5 L 8 38.5 L 4 33.5 L 5 32.5 Q 1.5 31 4 29.5 Q 1.67 26.33 3 19.5 L 4 16.5 L 4 14.5 L 10.5 5 L 13 5 Q 11.87 2.33 14.5 3 L 17.5 2 L 19.5 1 Z " /><path fill="rgb(0,0,0)" stroke="rgb(0,0,0)" stroke-width="1" opacity="0" d="M 0 0 L 15 0.5 Q 8.2 2.7 5 8.5 L 1 17.5 L 1 30.5 L 5 39.5 L 11.5 46 L 15 47.5 L 0 48 L 0 0 Z " /><path fill="rgb(0,0,0)" stroke="rgb(0,0,0)" stroke-width="1" opacity="0" d="M 28.5 0 L 33 0.5 L 30.5 2 L 28 0.5 L 28.5 0 Z " /><path fill="rgb(0,0,0)" stroke="rgb(0,0,0)" stroke-width="1" opacity="0" d="M 40.5 0 L 47.5 0 L 48 0.5 L 48 24.5 L 47 24.5 Q 47.5 21.5 45.5 21 L 41 20.5 L 42 19.5 L 42 2.5 L 40 0.5 L 40.5 0 Z " /><path fill="rgb(0,0,0)" stroke="rgb(0,0,0)" stroke-width="1" opacity="0" d="M 22.5 12 L 26 12 L 26 19.5 Q 28 20.5 26 21.5 L 26 30.5 L 27.5 31 L 30 34.5 L 27.5 37 L 18.5 37 Q 16.25 36.25 17 32.5 L 20 31 L 20 18.5 L 18.5 18 L 19 16.5 L 22.5 12 Z " /><path fill="rgb(0,0,0)" stroke="rgb(0,0,0)" stroke-width="1" opacity="0" d="M 47.5 27 L 48 48 L 40 47.5 L 43 43.5 L 43 31 Q 45.87 31.5 47 28.5 L 47.5 27 Z " /><path fill="rgb(0,0,0)" stroke="rgb(0,0,0)" stroke-width="1" opacity="0" d="M 30.5 46 Q 33 47 31.5 48 L 28 47.5 L 30.5 46 Z " /><path fill="rgb(68,107,158)" stroke="rgb(68,107,158)" stroke-width="1" opacity="0.9490196078431372" d="M 16.5 1 L 18 1.5 L 16.5 2 L 16.5 1 Z " /><path fill="rgb(68,107,158)" stroke="rgb(68,107,158)" stroke-width="1" opacity="0.9490196078431372" d="M 25.5 1 L 25.5 2 L 25.5 1 Z " /><path fill="rgb(68,107,158)" stroke="rgb(68,107,158)" stroke-width="1" opacity="0.9490196078431372" d="M 34.5 1 L 34.5 2 L 34.5 1 Z " /><path fill="rgb(68,107,158)" stroke="rgb(68,107,158)" stroke-width="1" opacity="0.9490196078431372" d="M 38.5 1 L 38.5 2 L 38.5 1 Z " /><path fill="rgb(68,107,158)" stroke="rgb(68,107,158)" stroke-width="1" opacity="0.9490196078431372" d="M 14.5 2 L 14.5 3 L 14.5 2 Z " /><path fill="rgb(68,107,158)" stroke="rgb(68,107,158)" stroke-width="1" opacity="0.9490196078431372" d="M 28.5 2 L 28.5 3 L 28.5 2 Z " /><path fill="rgb(68,107,158)" stroke="rgb(68,107,158)" stroke-width="1" opacity="0.9490196078431372" d="M 12.5 3 L 12.5 4 L 12.5 3 Z " /><path fill="rgb(68,107,158)" stroke="rgb(68,107,158)" stroke-width="1" opacity="0.9490196078431372" d="M 30.5 3 L 30.5 4 L 30.5 3 Z " /><path fill="rgb(68,107,158)" stroke="rgb(68,107,158)" stroke-width="1" opacity="0.9490196078431372" d="M 32.5 3 L 32.5 4 L 32.5 3 Z " /><path fill="rgb(68,107,158)" stroke="rgb(68,107,158)" stroke-width="1" opacity="0.9490196078431372" d="M 40.5 3 L 40.5 4 L 40.5 3 Z " /><path fill="rgb(68,107,158)" stroke="rgb(68,107,158)" stroke-width="1" opacity="0.9490196078431372" d="M 8.5 6 L 8.5 7 L 8.5 6 Z " /><path fill="rgb(68,107,158)" stroke="rgb(68,107,158)" stroke-width="1" opacity="0.9490196078431372" d="M 6.5 9 Q 8 10 5.5 11 Q 4 10 6.5 9 Z " /><path fill="rgb(68,107,158)" stroke="rgb(68,107,158)" stroke-width="1" opacity="0.9490196078431372" d="M 20.5 11 L 20.5 12 L 20.5 11 Z " /><path fill="rgb(68,107,158)" stroke="rgb(68,107,158)" stroke-width="1" opacity="0.9490196078431372" d="M 27.5 11 L 27.5 12 L 27.5 11 Z " /><path fill="rgb(68,107,158)" stroke="rgb(68,107,158)" stroke-width="1" opacity="0.9490196078431372" d="M 4.5 12 L 4.5 13 L 4.5 12 Z " /><path fill="rgb(68,107,158)" stroke="rgb(68,107,158)" stroke-width="1" opacity="0.9490196078431372" d="M 18.5 14 Q 20 15 17.5 16 Q 16 15 18.5 14 Z " /><path fill="rgb(68,107,158)" stroke="rgb(68,107,158)" stroke-width="1" opacity="0.9490196078431372" d="M 3.5 15 L 3.5 16 L 3.5 15 Z " /><path fill="rgb(68,107,158)" stroke="rgb(68,107,158)" stroke-width="1" opacity="0.9490196078431372" d="M 2.5 18 L 3 19.5 L 2 19.5 L 2.5 18 Z " /><path fill="rgb(68,107,158)" stroke="rgb(68,107,158)" stroke-width="1" opacity="0.9490196078431372" d="M 44.5 22 Q 47 23 45.5 24 Q 43 23 44.5 22 Z " /><path fill="rgb(68,107,158)" stroke="rgb(68,107,158)" stroke-width="1" opacity="0.9490196078431372" d="M 2.5 28 L 3 29.5 L 2 29.5 L 2.5 28 Z " /><path fill="rgb(68,107,158)" stroke="rgb(68,107,158)" stroke-width="1" opacity="0.9490196078431372" d="M 18.5 29 L 18.5 30 L 18.5 29 Z " /><path fill="rgb(68,107,158)" stroke="rgb(68,107,158)" stroke-width="1" opacity="0.9490196078431372" d="M 42.5 29 L 44 29.5 L 42.5 30 L 42.5 29 Z " /><path fill="rgb(68,107,158)" stroke="rgb(68,107,158)" stroke-width="1" opacity="0.9490196078431372" d="M 29.5 30 Q 32 31 30.5 32 Q 28 31 29.5 30 Z " /><path fill="rgb(68,107,158)" stroke="rgb(68,107,158)" stroke-width="1" opacity="0.9490196078431372" d="M 3.5 32 L 3.5 33 L 3.5 32 Z " /><path fill="rgb(68,107,158)" stroke="rgb(68,107,158)" stroke-width="1" opacity="0.9490196078431372" d="M 15.5 32 L 15.5 33 L 15.5 32 Z " /><path fill="rgb(68,107,158)" stroke="rgb(68,107,158)" stroke-width="1" opacity="0.9490196078431372" d="M 4.5 35 L 4.5 36 L 4.5 35 Z " /><path fill="rgb(68,107,158)" stroke="rgb(68,107,158)" stroke-width="1" opacity="0.9490196078431372" d="M 15.5 35 L 15.5 36 L 15.5 35 Z " /><path fill="rgb(68,107,158)" stroke="rgb(68,107,158)" stroke-width="1" opacity="0.9490196078431372" d="M 30.5 36 Q 32 37 29.5 38 Q 28 37 30.5 36 Z " /><path fill="rgb(68,107,158)" stroke="rgb(68,107,158)" stroke-width="1" opacity="0.9490196078431372" d="M 6.5 38 L 6.5 39 L 6.5 38 Z " /><path fill="rgb(68,107,158)" stroke="rgb(68,107,158)" stroke-width="1" opacity="0.9490196078431372" d="M 12.5 44 L 12.5 45 L 12.5 44 Z " /><path fill="rgb(68,107,158)" stroke="rgb(68,107,158)" stroke-width="1" opacity="0.9490196078431372" d="M 30.5 44 L 34 46.5 L 33.5 47 L 31.5 45 Q 29.12 44.88 30.5 44 Z " /><path fill="rgb(68,107,158)" stroke="rgb(68,107,158)" stroke-width="1" opacity="0.9490196078431372" d="M 14.5 45 L 14.5 46 L 14.5 45 Z " /><path fill="rgb(68,107,158)" stroke="rgb(68,107,158)" stroke-width="1" opacity="0.9490196078431372" d="M 28.5 45 L 28.5 46 L 28.5 45 Z " /><path fill="rgb(68,107,158)" stroke="rgb(68,107,158)" stroke-width="1" opacity="0.9490196078431372" d="M 16.5 46 L 18 46.5 L 16.5 47 L 16.5 46 Z " /><path fill="rgb(68,107,158)" stroke="rgb(68,107,158)" stroke-width="1" opacity="0.9490196078431372" d="M 25.5 46 L 25.5 47 L 25.5 46 Z " /><path fill="rgb(68,107,158)" stroke="rgb(68,107,158)" stroke-width="1" opacity="0.9490196078431372" d="M 38.5 46 L 38.5 47 L 38.5 46 Z " /><path fill="rgb(90,125,170)" stroke="rgb(90,125,170)" stroke-width="1" opacity="0.6196078431372549" d="M 23.5 0 L 23.5 1 L 23.5 0 Z " /><path fill="rgb(90,125,170)" stroke="rgb(90,125,170)" stroke-width="1" opacity="0.6196078431372549" d="M 35.5 0 L 35.5 1 L 35.5 0 Z " /><path fill="rgb(90,125,170)" stroke="rgb(90,125,170)" stroke-width="1" opacity="0.6196078431372549" d="M 37.5 0 L 37.5 1 L 37.5 0 Z " /><path fill="rgb(90,125,170)" stroke="rgb(90,125,170)" stroke-width="1" opacity="0.6196078431372549" d="M 15.5 1 L 15.5 2 L 15.5 1 Z " /><path fill="rgb(90,125,170)" stroke="rgb(90,125,170)" stroke-width="1" opacity="0.6196078431372549" d="M 33.5 1 L 34 1.5 L 31.5 4 L 31 3.5 L 33.5 1 Z " /><path fill="rgb(90,125,170)" stroke="rgb(90,125,170)" stroke-width="1" opacity="0.6196078431372549" d="M 39.5 1 Q 42 2 40.5 3 Q 38 2 39.5 1 Z " /><path fill="rgb(90,125,170)" stroke="rgb(90,125,170)" stroke-width="1" opacity="0.6196078431372549" d="M 29.5 2 L 29.5 3 L 29.5 2 Z " /><path fill="rgb(90,125,170)" stroke="rgb(90,125,170)" stroke-width="1" opacity="0.6196078431372549" d="M 11.5 3 L 11.5 4 L 11.5 3 Z " /><path fill="rgb(90,125,170)" stroke="rgb(90,125,170)" stroke-width="1" opacity="0.6196078431372549" d="M 6.5 8 L 6.5 9 L 6.5 8 Z " /><path fill="rgb(90,125,170)" stroke="rgb(90,125,170)" stroke-width="1" opacity="0.6196078431372549" d="M 21.5 11 L 21.5 12 L 21.5 11 Z " /><path fill="rgb(90,125,170)" stroke="rgb(90,125,170)" stroke-width="1" opacity="0.6196078431372549" d="M 17.5 16 L 17.5 17 L 17.5 16 Z " /><path fill="rgb(90,125,170)" stroke="rgb(90,125,170)" stroke-width="1" opacity="0.6196078431372549" d="M 46.5 25 L 47 26.5 L 46 26.5 L 46.5 25 Z " /><path fill="rgb(90,125,170)" stroke="rgb(90,125,170)" stroke-width="1" opacity="0.6196078431372549" d="M 28.5 30 L 28.5 31 L 28.5 30 Z " /><path fill="rgb(90,125,170)" stroke="rgb(90,125,170)" stroke-width="1" opacity="0.6196078431372549" d="M 30.5 32 L 30.5 33 L 30.5 32 Z " /><path fill="rgb(90,125,170)" stroke="rgb(90,125,170)" stroke-width="1" opacity="0.6196078431372549" d="M 30.5 35 L 30.5 36 L 30.5 35 Z " /><path fill="rgb(90,125,170)" stroke="rgb(90,125,170)" stroke-width="1" opacity="0.6196078431372549" d="M 28.5 37 L 28.5 38 L 28.5 37 Z " /><path fill="rgb(90,125,170)" stroke="rgb(90,125,170)" stroke-width="1" opacity="0.6196078431372549" d="M 6.5 39 L 6.5 40 L 6.5 39 Z " /><path fill="rgb(90,125,170)" stroke="rgb(90,125,170)" stroke-width="1" opacity="0.6196078431372549" d="M 41.5 42 L 42 43.5 L 41 43.5 L 41.5 42 Z " /><path fill="rgb(90,125,170)" stroke="rgb(90,125,170)" stroke-width="1" opacity="0.6196078431372549" d="M 29.5 45 L 29.5 46 L 29.5 45 Z " /><path fill="rgb(90,125,170)" stroke="rgb(90,125,170)" stroke-width="1" opacity="0.6196078431372549" d="M 15.5 46 L 15.5 47 L 15.5 46 Z " /><path fill="rgb(90,125,170)" stroke="rgb(90,125,170)" stroke-width="1" opacity="0.6196078431372549" d="M 39.5 46 L 39.5 47 L 39.5 46 Z " /><path fill="rgb(90,125,170)" stroke="rgb(90,125,170)" stroke-width="1" opacity="0.6196078431372549" d="M 19.5 47 L 21 47.5 L 19.5 48 L 19.5 47 Z " /><path fill="rgb(90,125,170)" stroke="rgb(90,125,170)" stroke-width="1" opacity="0.6196078431372549" d="M 22.5 47 L 24 47.5 L 22.5 48 L 22.5 47 Z " /><path fill="rgb(90,125,170)" stroke="rgb(90,125,170)" stroke-width="1" opacity="0.6196078431372549" d="M 35.5 47 L 35.5 48 L 35.5 47 Z " /><path fill="rgb(72,110,160)" stroke="rgb(72,110,160)" stroke-width="1" opacity="0.403921568627451" d="M 41.5 4 L 42 11.5 L 41 11.5 L 41.5 4 Z " /><path fill="rgb(72,110,160)" stroke="rgb(72,110,160)" stroke-width="1" opacity="0.403921568627451" d="M 22.5 11 L 27 11.5 L 22.5 12 L 22.5 11 Z " /><path fill="rgb(72,110,160)" stroke="rgb(72,110,160)" stroke-width="1" opacity="0.403921568627451" d="M 1.5 21 L 1.5 22 L 1.5 21 Z " /><path fill="rgb(72,110,160)" stroke="rgb(72,110,160)" stroke-width="1" opacity="0.403921568627451" d="M 1.5 26 L 1.5 27 L 1.5 26 Z " /><path fill="rgb(61,101,155)" stroke="rgb(61,101,155)" stroke-width="1" opacity="0.996078431372549" d="M 18.5 1 L 18.5 2 L 18.5 1 Z " /><path fill="rgb(61,101,155)" stroke="rgb(61,101,155)" stroke-width="1" opacity="0.996078431372549" d="M 24.5 1 L 24.5 2 L 24.5 1 Z " /><path fill="rgb(61,101,155)" stroke="rgb(61,101,155)" stroke-width="1" opacity="0.996078431372549" d="M 35.5 1 L 35.5 2 L 35.5 1 Z " /><path fill="rgb(61,101,155)" stroke="rgb(61,101,155)" stroke-width="1" opacity="0.996078431372549" d="M 37.5 1 L 37.5 2 L 37.5 1 Z " /><path fill="rgb(61,101,155)" stroke="rgb(61,101,155)" stroke-width="1" opacity="0.996078431372549" d="M 27.5 2 L 27.5 3 L 27.5 2 Z " /><path fill="rgb(61,101,155)" stroke="rgb(61,101,155)" stroke-width="1" opacity="0.996078431372549" d="M 33.5 2 L 33.5 3 L 33.5 2 Z " /><path fill="rgb(61,101,155)" stroke="rgb(61,101,155)" stroke-width="1" opacity="0.996078431372549" d="M 39.5 2 L 39.5 3 L 39.5 2 Z " /><path fill="rgb(61,101,155)" stroke="rgb(61,101,155)" stroke-width="1" opacity="0.996078431372549" d="M 29.5 3 L 29.5 4 L 29.5 3 Z " /><path fill="rgb(61,101,155)" stroke="rgb(61,101,155)" stroke-width="1" opacity="0.996078431372549" d="M 11.5 4 L 11.5 5 L 11.5 4 Z " /><path fill="rgb(61,101,155)" stroke="rgb(61,101,155)" stroke-width="1" opacity="0.996078431372549" d="M 31.5 4 L 31.5 5 L 31.5 4 Z " /><path fill="rgb(61,101,155)" stroke="rgb(61,101,155)" stroke-width="1" opacity="0.996078431372549" d="M 40.5 4 L 41 8.5 L 40 8.5 L 40.5 4 Z " /><path fill="rgb(61,101,155)" stroke="rgb(61,101,155)" stroke-width="1" opacity="0.996078431372549" d="M 7.5 8 L 7.5 9 L 7.5 8 Z " /><path fill="rgb(61,101,155)" stroke="rgb(61,101,155)" stroke-width="1" opacity="0.996078431372549" d="M 5.5 11 L 5.5 12 L 5.5 11 Z " /><path fill="rgb(61,101,155)" stroke="rgb(61,101,155)" stroke-width="1" opacity="0.996078431372549" d="M 19.5 12 L 19.5 13 L 19.5 12 Z " /><path fill="rgb(61,101,155)" stroke="rgb(61,101,155)" stroke-width="1" opacity="0.996078431372549" d="M 40.5 12 L 41 18.5 L 40 18.5 L 40.5 12 Z " /><path fill="rgb(61,101,155)" stroke="rgb(61,101,155)" stroke-width="1" opacity="0.996078431372549" d="M 4.5 13 L 4.5 14 L 4.5 13 Z " /><path fill="rgb(61,101,155)" stroke="rgb(61,101,155)" stroke-width="1" opacity="0.996078431372549" d="M 3.5 16 L 3.5 17 L 3.5 16 Z " /><path fill="rgb(61,101,155)" stroke="rgb(61,101,155)" stroke-width="1" opacity="0.996078431372549" d="M 16.5 16 L 16.5 17 L 16.5 16 Z " /><path fill="rgb(61,101,155)" stroke="rgb(61,101,155)" stroke-width="1" opacity="0.996078431372549" d="M 15.5 18 L 15.5 19 L 15.5 18 Z " /><path fill="rgb(61,101,155)" stroke="rgb(61,101,155)" stroke-width="1" opacity="0.996078431372549" d="M 2.5 20 L 3 27.5 L 2 27.5 L 2.5 20 Z " /><path fill="rgb(61,101,155)" stroke="rgb(61,101,155)" stroke-width="1" opacity="0.996078431372549" d="M 18.5 20 L 19 28.5 L 18 28.5 L 18.5 20 Z " /><path fill="rgb(61,101,155)" stroke="rgb(61,101,155)" stroke-width="1" opacity="0.996078431372549" d="M 29.5 22 L 44 22.5 L 29.5 23 L 29.5 22 Z " /><path fill="rgb(61,101,155)" stroke="rgb(61,101,155)" stroke-width="1" opacity="0.996078431372549" d="M 45.5 24 L 45.5 25 L 45.5 24 Z " /><path fill="rgb(61,101,155)" stroke="rgb(61,101,155)" stroke-width="1" opacity="0.996078431372549" d="M 45.5 27 L 45.5 28 L 45.5 27 Z " /><path fill="rgb(61,101,155)" stroke="rgb(61,101,155)" stroke-width="1" opacity="0.996078431372549" d="M 41.5 29 L 41.5 30 L 41.5 29 Z " /><path fill="rgb(61,101,155)" stroke="rgb(61,101,155)" stroke-width="1" opacity="0.996078431372549" d="M 16.5 30 Q 18 31 15.5 32 Q 14 31 16.5 30 Z " /><path fill="rgb(61,101,155)" stroke="rgb(61,101,155)" stroke-width="1" opacity="0.996078431372549" d="M 3.5 31 L 3.5 32 L 3.5 31 Z " /><path fill="rgb(61,101,155)" stroke="rgb(61,101,155)" stroke-width="1" opacity="0.996078431372549" d="M 31.5 32 L 32 35.5 L 31 35.5 L 31.5 32 Z " /><path fill="rgb(61,101,155)" stroke="rgb(61,101,155)" stroke-width="1" opacity="0.996078431372549" d="M 4.5 34 L 4.5 35 L 4.5 34 Z " /><path fill="rgb(61,101,155)" stroke="rgb(61,101,155)" stroke-width="1" opacity="0.996078431372549" d="M 5.5 36 L 5.5 37 L 5.5 36 Z " /><path fill="rgb(61,101,155)" stroke="rgb(61,101,155)" stroke-width="1" opacity="0.996078431372549" d="M 16.5 37 L 16.5 38 L 16.5 37 Z " /><path fill="rgb(61,101,155)" stroke="rgb(61,101,155)" stroke-width="1" opacity="0.996078431372549" d="M 18.5 38 L 29 38.5 L 18.5 39 L 18.5 38 Z " /><path fill="rgb(61,101,155)" stroke="rgb(61,101,155)" stroke-width="1" opacity="0.996078431372549" d="M 7.5 39 L 7.5 40 L 7.5 39 Z " /><path fill="rgb(61,101,155)" stroke="rgb(61,101,155)" stroke-width="1" opacity="0.996078431372549" d="M 10.5 42 Q 13 43 11.5 44 Q 9 43 10.5 42 Z " /><path fill="rgb(61,101,155)" stroke="rgb(61,101,155)" stroke-width="1" opacity="0.996078431372549" d="M 29.5 44 L 29.5 45 L 29.5 44 Z " /><path fill="rgb(61,101,155)" stroke="rgb(61,101,155)" stroke-width="1" opacity="0.996078431372549" d="M 40.5 44 Q 42 45 39.5 46 Q 38 45 40.5 44 Z " /><path fill="rgb(61,101,155)" stroke="rgb(61,101,155)" stroke-width="1" opacity="0.996078431372549" d="M 27.5 45 L 27.5 46 L 27.5 45 Z " /><path fill="rgb(61,101,155)" stroke="rgb(61,101,155)" stroke-width="1" opacity="0.996078431372549" d="M 18.5 46 L 20 46.5 L 18.5 47 L 18.5 46 Z " /><path fill="rgb(61,101,155)" stroke="rgb(61,101,155)" stroke-width="1" opacity="0.996078431372549" d="M 23.5 46 L 25 46.5 L 23.5 47 L 23.5 46 Z " /><path fill="rgb(61,101,155)" stroke="rgb(61,101,155)" stroke-width="1" opacity="0.996078431372549" d="M 34.5 46 L 38 46.5 L 34.5 47 L 34.5 46 Z " /><path fill="rgb(186,200,219)" stroke="rgb(186,200,219)" stroke-width="1" opacity="0.0392156862745098" d="M 15.5 0 L 15.5 1 L 15.5 0 Z " /><path fill="rgb(186,200,219)" stroke="rgb(186,200,219)" stroke-width="1" opacity="0.0392156862745098" d="M 33.5 0 L 33.5 1 L 33.5 0 Z " /><path fill="rgb(186,200,219)" stroke="rgb(186,200,219)" stroke-width="1" opacity="0.0392156862745098" d="M 39.5 0 L 39.5 1 L 39.5 0 Z " /><path fill="rgb(186,200,219)" stroke="rgb(186,200,219)" stroke-width="1" opacity="0.0392156862745098" d="M 13.5 1 L 13.5 2 L 13.5 1 Z " /><path fill="rgb(186,200,219)" stroke="rgb(186,200,219)" stroke-width="1" opacity="0.0392156862745098" d="M 29.5 1 L 29.5 2 L 29.5 1 Z " /><path fill="rgb(186,200,219)" stroke="rgb(186,200,219)" stroke-width="1" opacity="0.0392156862745098" d="M 11.5 2 L 11.5 3 L 11.5 2 Z " /><path fill="rgb(186,200,219)" stroke="rgb(186,200,219)" stroke-width="1" opacity="0.0392156862745098" d="M 31.5 2 L 31.5 3 L 31.5 2 Z " /><path fill="rgb(186,200,219)" stroke="rgb(186,200,219)" stroke-width="1" opacity="0.0392156862745098" d="M 41.5 2 L 41.5 3 L 41.5 2 Z " /><path fill="rgb(186,200,219)" stroke="rgb(186,200,219)" stroke-width="1" opacity="0.0392156862745098" d="M 5.5 8 L 5.5 9 L 5.5 8 Z " /><path fill="rgb(186,200,219)" stroke="rgb(186,200,219)" stroke-width="1" opacity="0.0392156862745098" d="M 18.5 16 L 18.5 17 L 18.5 16 Z " /><path fill="rgb(186,200,219)" stroke="rgb(186,200,219)" stroke-width="1" opacity="0.0392156862745098" d="M 44.5 30 L 44.5 31 L 44.5 30 Z " /><path fill="rgb(186,200,219)" stroke="rgb(186,200,219)" stroke-width="1" opacity="0.0392156862745098" d="M 2.5 33 L 2.5 34 L 2.5 33 Z " /><path fill="rgb(186,200,219)" stroke="rgb(186,200,219)" stroke-width="1" opacity="0.0392156862745098" d="M 16.5 33 L 17 34.5 L 16 34.5 L 16.5 33 Z " /><path fill="rgb(186,200,219)" stroke="rgb(186,200,219)" stroke-width="1" opacity="0.0392156862745098" d="M 5.5 39 L 5.5 40 L 5.5 39 Z " /><path fill="rgb(186,200,219)" stroke="rgb(186,200,219)" stroke-width="1" opacity="0.0392156862745098" d="M 13.5 46 L 13.5 47 L 13.5 46 Z " /><path fill="rgb(186,200,219)" stroke="rgb(186,200,219)" stroke-width="1" opacity="0.0392156862745098" d="M 29.5 46 L 29.5 47 L 29.5 46 Z " /><path fill="rgb(186,200,219)" stroke="rgb(186,200,219)" stroke-width="1" opacity="0.0392156862745098" d="M 31.5 46 L 31.5 47 L 31.5 46 Z " /><path fill="rgb(186,200,219)" stroke="rgb(186,200,219)" stroke-width="1" opacity="0.0392156862745098" d="M 15.5 47 L 15.5 48 L 15.5 47 Z " /><path fill="rgb(186,200,219)" stroke="rgb(186,200,219)" stroke-width="1" opacity="0.0392156862745098" d="M 39.5 47 L 39.5 48 L 39.5 47 Z " /><path fill="rgb(238,241,246)" stroke="rgb(238,241,246)" stroke-width="1" opacity="0.01568627450980392" d="M 27.5 0 L 27.5 1 L 27.5 0 Z " /><path fill="rgb(238,241,246)" stroke="rgb(238,241,246)" stroke-width="1" opacity="0.01568627450980392" d="M 26.5 21 L 26.5 22 L 26.5 21 Z " /><path fill="rgb(238,241,246)" stroke="rgb(238,241,246)" stroke-width="1" opacity="0.01568627450980392" d="M 45.5 21 L 45.5 22 L 45.5 21 Z " /><path fill="rgb(238,241,246)" stroke="rgb(238,241,246)" stroke-width="1" opacity="0.01568627450980392" d="M 26.5 30 L 26.5 31 L 26.5 30 Z " /><path fill="rgb(112,142,181)" stroke="rgb(112,142,181)" stroke-width="1" opacity="0.5254901960784314" d="M 41.5 13 L 42 17.5 L 41 17.5 L 41.5 13 Z " /><path fill="rgb(112,142,181)" stroke="rgb(112,142,181)" stroke-width="1" opacity="0.5254901960784314" d="M 27.5 19 L 27.5 20 L 27.5 19 Z " /><path fill="rgb(112,142,181)" stroke="rgb(112,142,181)" stroke-width="1" opacity="0.5254901960784314" d="M 1.5 22 L 2 25.5 L 1 25.5 L 1.5 22 Z " /><path fill="rgb(112,142,181)" stroke="rgb(112,142,181)" stroke-width="1" opacity="0.5254901960784314" d="M 31.5 45 L 31.5 46 L 31.5 45 Z " /><path fill="rgb(106,138,178)" stroke="rgb(106,138,178)" stroke-width="1" opacity="0.5803921568627451" d="M 28.5 21 L 43 21.5 L 28.5 22 L 28.5 21 Z " /><path fill="rgb(106,138,178)" stroke="rgb(106,138,178)" stroke-width="1" opacity="0.5803921568627451" d="M 11.5 44 L 11.5 45 L 11.5 44 Z " /><path fill="rgb(106,138,178)" stroke="rgb(106,138,178)" stroke-width="1" opacity="0.5803921568627451" d="M 36.5 47 L 36.5 48 L 36.5 47 Z " /><path fill="rgb(96,129,173)" stroke="rgb(96,129,173)" stroke-width="1" opacity="0.5098039215686274" d="M 18.5 0 L 18.5 1 L 18.5 0 Z " /><path fill="rgb(96,129,173)" stroke="rgb(96,129,173)" stroke-width="1" opacity="0.5098039215686274" d="M 24.5 0 L 24.5 1 L 24.5 0 Z " /><path fill="rgb(96,129,173)" stroke="rgb(96,129,173)" stroke-width="1" opacity="0.5098039215686274" d="M 27.5 1 L 27.5 2 L 27.5 1 Z " /><path fill="rgb(96,129,173)" stroke="rgb(96,129,173)" stroke-width="1" opacity="0.5098039215686274" d="M 4.5 11 L 4.5 12 L 4.5 11 Z " /><path fill="rgb(96,129,173)" stroke="rgb(96,129,173)" stroke-width="1" opacity="0.5098039215686274" d="M 20.5 12 L 20.5 13 L 20.5 12 Z " /><path fill="rgb(96,129,173)" stroke="rgb(96,129,173)" stroke-width="1" opacity="0.5098039215686274" d="M 41.5 12 L 41.5 13 L 41.5 12 Z " /><path fill="rgb(96,129,173)" stroke="rgb(96,129,173)" stroke-width="1" opacity="0.5098039215686274" d="M 3.5 13 L 3.5 14 L 3.5 13 Z " /><path fill="rgb(96,129,173)" stroke="rgb(96,129,173)" stroke-width="1" opacity="0.5098039215686274" d="M 2.5 16 L 2.5 17 L 2.5 16 Z " /><path fill="rgb(96,129,173)" stroke="rgb(96,129,173)" stroke-width="1" opacity="0.5098039215686274" d="M 16.5 18 L 16.5 19 L 16.5 18 Z " /><path fill="rgb(96,129,173)" stroke="rgb(96,129,173)" stroke-width="1" opacity="0.5098039215686274" d="M 40.5 19 L 40.5 20 L 40.5 19 Z " /><path fill="rgb(96,129,173)" stroke="rgb(96,129,173)" stroke-width="1" opacity="0.5098039215686274" d="M 43.5 21 L 43.5 22 L 43.5 21 Z " /><path fill="rgb(96,129,173)" stroke="rgb(96,129,173)" stroke-width="1" opacity="0.5098039215686274" d="M 46.5 24 L 46.5 25 L 46.5 24 Z " /><path fill="rgb(96,129,173)" stroke="rgb(96,129,173)" stroke-width="1" opacity="0.5098039215686274" d="M 18.5 30 L 18.5 31 L 18.5 30 Z " /><path fill="rgb(96,129,173)" stroke="rgb(96,129,173)" stroke-width="1" opacity="0.5098039215686274" d="M 2.5 31 L 2.5 32 L 2.5 31 Z " /><path fill="rgb(96,129,173)" stroke="rgb(96,129,173)" stroke-width="1" opacity="0.5098039215686274" d="M 4.5 36 L 4.5 37 L 4.5 36 Z " /><path fill="rgb(96,129,173)" stroke="rgb(96,129,173)" stroke-width="1" opacity="0.5098039215686274" d="M 18.5 37 L 18.5 38 L 18.5 37 Z " /><path fill="rgb(96,129,173)" stroke="rgb(96,129,173)" stroke-width="1" opacity="0.5098039215686274" d="M 27.5 46 L 27.5 47 L 27.5 46 Z " /><path fill="rgb(96,129,173)" stroke="rgb(96,129,173)" stroke-width="1" opacity="0.5098039215686274" d="M 32.5 46 L 32.5 47 L 32.5 46 Z " /><path fill="rgb(96,129,173)" stroke="rgb(96,129,173)" stroke-width="1" opacity="0.5098039215686274" d="M 18.5 47 L 18.5 48 L 18.5 47 Z " /><path fill="rgb(96,129,173)" stroke="rgb(96,129,173)" stroke-width="1" opacity="0.5098039215686274" d="M 24.5 47 L 24.5 48 L 24.5 47 Z " /><path fill="rgb(96,129,173)" stroke="rgb(96,129,173)" stroke-width="1" opacity="0.5098039215686274" d="M 34.5 47 L 34.5 48 L 34.5 47 Z " /><path fill="rgb(96,129,173)" stroke="rgb(96,129,173)" stroke-width="1" opacity="0.5098039215686274" d="M 37.5 47 L 37.5 48 L 37.5 47 Z " /><path fill="rgb(226,231,240)" stroke="rgb(226,231,240)" stroke-width="1" opacity="0.047058823529411764" d="M 21.5 12 L 21.5 13 L 21.5 12 Z " /><path fill="rgb(226,231,240)" stroke="rgb(226,231,240)" stroke-width="1" opacity="0.047058823529411764" d="M 26.5 12 L 27 19.5 L 26 19.5 L 26.5 12 Z " /><path fill="rgb(226,231,240)" stroke="rgb(226,231,240)" stroke-width="1" opacity="0.047058823529411764" d="M 1.5 17 L 1.5 18 L 1.5 17 Z " /><path fill="rgb(226,231,240)" stroke="rgb(226,231,240)" stroke-width="1" opacity="0.047058823529411764" d="M 18.5 18 L 20 18.5 L 18.5 19 L 18.5 18 Z " /><path fill="rgb(226,231,240)" stroke="rgb(226,231,240)" stroke-width="1" opacity="0.047058823529411764" d="M 26.5 22 L 27 29.5 L 26 29.5 L 26.5 22 Z " /><path fill="rgb(226,231,240)" stroke="rgb(226,231,240)" stroke-width="1" opacity="0.047058823529411764" d="M 1.5 30 L 1.5 31 L 1.5 30 Z " /><path fill="rgb(226,231,240)" stroke="rgb(226,231,240)" stroke-width="1" opacity="0.047058823529411764" d="M 28.5 31 L 28.5 32 L 28.5 31 Z " /><path fill="rgb(226,231,240)" stroke="rgb(226,231,240)" stroke-width="1" opacity="0.047058823529411764" d="M 11.5 45 L 11.5 46 L 11.5 45 Z " /><path fill="rgb(226,231,240)" stroke="rgb(226,231,240)" stroke-width="1" opacity="0.047058823529411764" d="M 32.5 47 L 32.5 48 L 32.5 47 Z " /><path fill="rgb(133,158,192)" stroke="rgb(133,158,192)" stroke-width="1" opacity="0.14901960784313725" d="M 16.5 0 L 16.5 1 L 16.5 0 Z " /><path fill="rgb(133,158,192)" stroke="rgb(133,158,192)" stroke-width="1" opacity="0.14901960784313725" d="M 26.5 0 L 26.5 1 L 26.5 0 Z " /><path fill="rgb(133,158,192)" stroke="rgb(133,158,192)" stroke-width="1" opacity="0.14901960784313725" d="M 32.5 1 L 32.5 2 L 32.5 1 Z " /><path fill="rgb(133,158,192)" stroke="rgb(133,158,192)" stroke-width="1" opacity="0.14901960784313725" d="M 40.5 1 L 40.5 2 L 40.5 1 Z " /><path fill="rgb(133,158,192)" stroke="rgb(133,158,192)" stroke-width="1" opacity="0.14901960784313725" d="M 30.5 2 L 30.5 3 L 30.5 2 Z " /><path fill="rgb(133,158,192)" stroke="rgb(133,158,192)" stroke-width="1" opacity="0.14901960784313725" d="M 10.5 3 Q 12 4 9.5 5 Q 8 4 10.5 3 Z " /><path fill="rgb(133,158,192)" stroke="rgb(133,158,192)" stroke-width="1" opacity="0.14901960784313725" d="M 6.5 7 L 6.5 8 L 6.5 7 Z " /><path fill="rgb(133,158,192)" stroke="rgb(133,158,192)" stroke-width="1" opacity="0.14901960784313725" d="M 4.5 10 L 4.5 11 L 4.5 10 Z " /><path fill="rgb(133,158,192)" stroke="rgb(133,158,192)" stroke-width="1" opacity="0.14901960784313725" d="M 3.5 12 L 3.5 13 L 3.5 12 Z " /><path fill="rgb(133,158,192)" stroke="rgb(133,158,192)" stroke-width="1" opacity="0.14901960784313725" d="M 20.5 13 L 20.5 14 L 20.5 13 Z " /><path fill="rgb(133,158,192)" stroke="rgb(133,158,192)" stroke-width="1" opacity="0.14901960784313725" d="M 2.5 14 L 2.5 15 L 2.5 14 Z " /><path fill="rgb(133,158,192)" stroke="rgb(133,158,192)" stroke-width="1" opacity="0.14901960784313725" d="M 17.5 17 L 17.5 18 L 17.5 17 Z " /><path fill="rgb(133,158,192)" stroke="rgb(133,158,192)" stroke-width="1" opacity="0.14901960784313725" d="M 1.5 18 L 1.5 19 L 1.5 18 Z " /><path fill="rgb(133,158,192)" stroke="rgb(133,158,192)" stroke-width="1" opacity="0.14901960784313725" d="M 41.5 19 L 41.5 20 L 41.5 19 Z " /><path fill="rgb(133,158,192)" stroke="rgb(133,158,192)" stroke-width="1" opacity="0.14901960784313725" d="M 44.5 21 L 44.5 22 L 44.5 21 Z " /><path fill="rgb(133,158,192)" stroke="rgb(133,158,192)" stroke-width="1" opacity="0.14901960784313725" d="M 46.5 23 L 46.5 24 L 46.5 23 Z " /><path fill="rgb(133,158,192)" stroke="rgb(133,158,192)" stroke-width="1" opacity="0.14901960784313725" d="M 46.5 28 Q 48 29 45.5 30 Q 44 29 46.5 28 Z " /><path fill="rgb(133,158,192)" stroke="rgb(133,158,192)" stroke-width="1" opacity="0.14901960784313725" d="M 1.5 29 L 1.5 30 L 1.5 29 Z " /><path fill="rgb(133,158,192)" stroke="rgb(133,158,192)" stroke-width="1" opacity="0.14901960784313725" d="M 19.5 30 L 19.5 31 L 19.5 30 Z " /><path fill="rgb(133,158,192)" stroke="rgb(133,158,192)" stroke-width="1" opacity="0.14901960784313725" d="M 43.5 30 L 43.5 31 L 43.5 30 Z " /><path fill="rgb(133,158,192)" stroke="rgb(133,158,192)" stroke-width="1" opacity="0.14901960784313725" d="M 17.5 31 L 17.5 32 L 17.5 31 Z " /><path fill="rgb(133,158,192)" stroke="rgb(133,158,192)" stroke-width="1" opacity="0.14901960784313725" d="M 3.5 35 L 3.5 36 L 3.5 35 Z " /><path fill="rgb(133,158,192)" stroke="rgb(133,158,192)" stroke-width="1" opacity="0.14901960784313725" d="M 17.5 36 L 17.5 37 L 17.5 36 Z " /><path fill="rgb(133,158,192)" stroke="rgb(133,158,192)" stroke-width="1" opacity="0.14901960784313725" d="M 4.5 37 L 4.5 38 L 4.5 37 Z " /><path fill="rgb(133,158,192)" stroke="rgb(133,158,192)" stroke-width="1" opacity="0.14901960784313725" d="M 6.5 40 Q 9 41 7.5 42 Q 5 41 6.5 40 Z " /><path fill="rgb(133,158,192)" stroke="rgb(133,158,192)" stroke-width="1" opacity="0.14901960784313725" d="M 9.5 43 Q 12 44 10.5 45 Q 8 44 9.5 43 Z " /><path fill="rgb(133,158,192)" stroke="rgb(133,158,192)" stroke-width="1" opacity="0.14901960784313725" d="M 30.5 45 L 30.5 46 L 30.5 45 Z " /><path fill="rgb(133,158,192)" stroke="rgb(133,158,192)" stroke-width="1" opacity="0.14901960784313725" d="M 41.5 45 Q 43 46 40.5 47 Q 39 46 41.5 45 Z " /><path fill="rgb(133,158,192)" stroke="rgb(133,158,192)" stroke-width="1" opacity="0.14901960784313725" d="M 28.5 46 L 28.5 47 L 28.5 46 Z " /><path fill="rgb(133,158,192)" stroke="rgb(133,158,192)" stroke-width="1" opacity="0.14901960784313725" d="M 16.5 47 L 16.5 48 L 16.5 47 Z " /><path fill="rgb(133,158,192)" stroke="rgb(133,158,192)" stroke-width="1" opacity="0.14901960784313725" d="M 26.5 47 L 26.5 48 L 26.5 47 Z " /><path fill="rgb(133,158,192)" stroke="rgb(133,158,192)" stroke-width="1" opacity="0.14901960784313725" d="M 33.5 47 L 33.5 48 L 33.5 47 Z " /><path fill="rgb(255,255,255)" stroke="rgb(255,255,255)" stroke-width="1" opacity="0.00392156862745098" d="M 3.5 11 L 3.5 12 L 3.5 11 Z " /><path fill="rgb(255,255,255)" stroke="rgb(255,255,255)" stroke-width="1" opacity="0.00392156862745098" d="M 27.5 20 L 27.5 21 L 27.5 20 Z " /><path fill="rgb(255,255,255)" stroke="rgb(255,255,255)" stroke-width="1" opacity="0.00392156862745098" d="M 40.5 20 L 40.5 21 L 40.5 20 Z " /><path fill="rgb(255,255,255)" stroke="rgb(255,255,255)" stroke-width="1" opacity="0.00392156862745098" d="M 46.5 22 L 46.5 23 L 46.5 22 Z " /><path fill="rgb(255,255,255)" stroke="rgb(255,255,255)" stroke-width="1" opacity="0.00392156862745098" d="M 47.5 26 L 47.5 27 L 47.5 26 Z " /><path fill="rgb(255,255,255)" stroke="rgb(255,255,255)" stroke-width="1" opacity="0.00392156862745098" d="M 29.5 35 Q 31 36 28.5 37 Q 27 36 29.5 35 Z " /><path fill="rgb(255,255,255)" stroke="rgb(255,255,255)" stroke-width="1" opacity="0.00392156862745098" d="M 42.5 43 L 42.5 44 L 42.5 43 Z " /><path fill="rgb(255,255,255)" stroke="rgb(255,255,255)" stroke-width="1" opacity="0.00392156862745098" d="M 27.5 47 L 27.5 48 L 27.5 47 Z " /><path fill="rgb(124,152,188)" stroke="rgb(124,152,188)" stroke-width="1" opacity="0.3568627450980392" d="M 8.5 5 L 8.5 6 L 8.5 5 Z " /><path fill="rgb(124,152,188)" stroke="rgb(124,152,188)" stroke-width="1" opacity="0.3568627450980392" d="M 27.5 21 L 27.5 22 L 27.5 21 Z " /><path fill="rgb(124,152,188)" stroke="rgb(124,152,188)" stroke-width="1" opacity="0.3568627450980392" d="M 19.5 27 L 20 29.5 L 19 29.5 L 19.5 27 Z " /><path fill="rgb(124,152,188)" stroke="rgb(124,152,188)" stroke-width="1" opacity="0.3568627450980392" d="M 27.5 30 L 27.5 31 L 27.5 30 Z " /><path fill="rgb(124,152,188)" stroke="rgb(124,152,188)" stroke-width="1" opacity="0.3568627450980392" d="M 42.5 30 L 42.5 31 L 42.5 30 Z " /><path fill="rgb(124,152,188)" stroke="rgb(124,152,188)" stroke-width="1" opacity="0.3568627450980392" d="M 29.5 36 L 29.5 37 L 29.5 36 Z " /><path fill="rgb(124,152,188)" stroke="rgb(124,152,188)" stroke-width="1" opacity="0.3568627450980392" d="M 20.5 37 L 27 37.5 L 20.5 38 L 20.5 37 Z " /><path fill="rgb(115,144,183)" stroke="rgb(115,144,183)" stroke-width="1" opacity="0.3176470588235294" d="M 25.5 0 L 25.5 1 L 25.5 0 Z " /><path fill="rgb(115,144,183)" stroke="rgb(115,144,183)" stroke-width="1" opacity="0.3176470588235294" d="M 34.5 0 L 34.5 1 L 34.5 0 Z " /><path fill="rgb(115,144,183)" stroke="rgb(115,144,183)" stroke-width="1" opacity="0.3176470588235294" d="M 38.5 0 L 38.5 1 L 38.5 0 Z " /><path fill="rgb(115,144,183)" stroke="rgb(115,144,183)" stroke-width="1" opacity="0.3176470588235294" d="M 14.5 1 L 14.5 2 L 14.5 1 Z " /><path fill="rgb(115,144,183)" stroke="rgb(115,144,183)" stroke-width="1" opacity="0.3176470588235294" d="M 28.5 1 L 28.5 2 L 28.5 1 Z " /><path fill="rgb(115,144,183)" stroke="rgb(115,144,183)" stroke-width="1" opacity="0.3176470588235294" d="M 12.5 2 L 12.5 3 L 12.5 2 Z " /><path fill="rgb(115,144,183)" stroke="rgb(115,144,183)" stroke-width="1" opacity="0.3176470588235294" d="M 41.5 3 L 41.5 4 L 41.5 3 Z " /><path fill="rgb(115,144,183)" stroke="rgb(115,144,183)" stroke-width="1" opacity="0.3176470588235294" d="M 7.5 6 L 7.5 7 L 7.5 6 Z " /><path fill="rgb(115,144,183)" stroke="rgb(115,144,183)" stroke-width="1" opacity="0.3176470588235294" d="M 19.5 14 L 19.5 15 L 19.5 14 Z " /><path fill="rgb(115,144,183)" stroke="rgb(115,144,183)" stroke-width="1" opacity="0.3176470588235294" d="M 2.5 15 L 2.5 16 L 2.5 15 Z " /><path fill="rgb(115,144,183)" stroke="rgb(115,144,183)" stroke-width="1" opacity="0.3176470588235294" d="M 1.5 19 L 1.5 20 L 1.5 19 Z " /><path fill="rgb(115,144,183)" stroke="rgb(115,144,183)" stroke-width="1" opacity="0.3176470588235294" d="M 19.5 19 L 19.5 20 L 19.5 19 Z " /><path fill="rgb(115,144,183)" stroke="rgb(115,144,183)" stroke-width="1" opacity="0.3176470588235294" d="M 19.5 25 L 20 26.5 L 19 26.5 L 19.5 25 Z " /><path fill="rgb(115,144,183)" stroke="rgb(115,144,183)" stroke-width="1" opacity="0.3176470588235294" d="M 1.5 27 L 2 28.5 L 1 28.5 L 1.5 27 Z " /><path fill="rgb(115,144,183)" stroke="rgb(115,144,183)" stroke-width="1" opacity="0.3176470588235294" d="M 2.5 32 L 2.5 33 L 2.5 32 Z " /><path fill="rgb(115,144,183)" stroke="rgb(115,144,183)" stroke-width="1" opacity="0.3176470588235294" d="M 16.5 32 L 16.5 33 L 16.5 32 Z " /><path fill="rgb(115,144,183)" stroke="rgb(115,144,183)" stroke-width="1" opacity="0.3176470588235294" d="M 16.5 35 L 16.5 36 L 16.5 35 Z " /><path fill="rgb(115,144,183)" stroke="rgb(115,144,183)" stroke-width="1" opacity="0.3176470588235294" d="M 19.5 37 L 19.5 38 L 19.5 37 Z " /><path fill="rgb(115,144,183)" stroke="rgb(115,144,183)" stroke-width="1" opacity="0.3176470588235294" d="M 8.5 42 L 8.5 43 L 8.5 42 Z " /><path fill="rgb(115,144,183)" stroke="rgb(115,144,183)" stroke-width="1" opacity="0.3176470588235294" d="M 12.5 45 L 12.5 46 L 12.5 45 Z " /><path fill="rgb(115,144,183)" stroke="rgb(115,144,183)" stroke-width="1" opacity="0.3176470588235294" d="M 14.5 46 L 14.5 47 L 14.5 46 Z " /><path fill="rgb(115,144,183)" stroke="rgb(115,144,183)" stroke-width="1" opacity="0.3176470588235294" d="M 17.5 47 L 17.5 48 L 17.5 47 Z " /><path fill="rgb(115,144,183)" stroke="rgb(115,144,183)" stroke-width="1" opacity="0.3176470588235294" d="M 25.5 47 L 25.5 48 L 25.5 47 Z " /><path fill="rgb(115,144,183)" stroke="rgb(115,144,183)" stroke-width="1" opacity="0.3176470588235294" d="M 38.5 47 L 38.5 48 L 38.5 47 Z " /><path fill="rgb(255,255,255)" stroke="rgb(255,255,255)" stroke-width="1" opacity="0.01568627450980392" d="M 17.5 18 L 17.5 19 L 17.5 18 Z " /><path fill="rgb(255,255,255)" stroke="rgb(255,255,255)" stroke-width="1" opacity="0.01568627450980392" d="M 28.5 20 L 40 20.5 L 28.5 21 L 28.5 20 Z " /><path fill="rgb(255,255,255)" stroke="rgb(255,255,255)" stroke-width="1" opacity="0.01568627450980392" d="M 47.5 25 L 47.5 26 L 47.5 25 Z " /><path fill="rgb(255,255,255)" stroke="rgb(255,255,255)" stroke-width="1" opacity="0.01568627450980392" d="M 42.5 31 L 43 42.5 L 42 42.5 L 42.5 31 Z " /><path fill="rgb(255,255,255)" stroke="rgb(255,255,255)" stroke-width="1" opacity="0.01568627450980392" d="M 29.5 32 L 29.5 33 L 29.5 32 Z " /><path fill="rgb(104,135,177)" stroke="rgb(104,135,177)" stroke-width="1" opacity="0.3843137254901961" d="M 17.5 0 L 17.5 1 L 17.5 0 Z " /><path fill="rgb(104,135,177)" stroke="rgb(104,135,177)" stroke-width="1" opacity="0.3843137254901961" d="M 5.5 9 L 5.5 10 L 5.5 9 Z " /><path fill="rgb(104,135,177)" stroke="rgb(104,135,177)" stroke-width="1" opacity="0.3843137254901961" d="M 18.5 15 L 18.5 16 L 18.5 15 Z " /><path fill="rgb(104,135,177)" stroke="rgb(104,135,177)" stroke-width="1" opacity="0.3843137254901961" d="M 41.5 18 L 41.5 19 L 41.5 18 Z " /><path fill="rgb(104,135,177)" stroke="rgb(104,135,177)" stroke-width="1" opacity="0.3843137254901961" d="M 1.5 20 L 1.5 21 L 1.5 20 Z " /><path fill="rgb(104,135,177)" stroke="rgb(104,135,177)" stroke-width="1" opacity="0.3843137254901961" d="M 19.5 20 L 20 24.5 L 19 24.5 L 19.5 20 Z " /><path fill="rgb(104,135,177)" stroke="rgb(104,135,177)" stroke-width="1" opacity="0.3843137254901961" d="M 45.5 22 L 45.5 23 L 45.5 22 Z " /><path fill="rgb(104,135,177)" stroke="rgb(104,135,177)" stroke-width="1" opacity="0.3843137254901961" d="M 46.5 27 L 46.5 28 L 46.5 27 Z " /><path fill="rgb(104,135,177)" stroke="rgb(104,135,177)" stroke-width="1" opacity="0.3843137254901961" d="M 29.5 31 L 29.5 32 L 29.5 31 Z " /><path fill="rgb(104,135,177)" stroke="rgb(104,135,177)" stroke-width="1" opacity="0.3843137254901961" d="M 30.5 33 L 31 34.5 L 30 34.5 L 30.5 33 Z " /><path fill="rgb(104,135,177)" stroke="rgb(104,135,177)" stroke-width="1" opacity="0.3843137254901961" d="M 3.5 34 L 3.5 35 L 3.5 34 Z " /><path fill="rgb(104,135,177)" stroke="rgb(104,135,177)" stroke-width="1" opacity="0.3843137254901961" d="M 27.5 37 L 27.5 38 L 27.5 37 Z " /><path fill="rgb(104,135,177)" stroke="rgb(104,135,177)" stroke-width="1" opacity="0.3843137254901961" d="M 5.5 38 L 5.5 39 L 5.5 38 Z " /><path fill="rgb(104,135,177)" stroke="rgb(104,135,177)" stroke-width="1" opacity="0.3843137254901961" d="M 41.5 44 L 41.5 45 L 41.5 44 Z " /><path fill="rgb(86,122,168)" stroke="rgb(86,122,168)" stroke-width="1" opacity="0.7490196078431373" d="M 19.5 0 L 23 0.5 L 19.5 1 L 19.5 0 Z " /><path fill="rgb(86,122,168)" stroke="rgb(86,122,168)" stroke-width="1" opacity="0.7490196078431373" d="M 36.5 0 L 36.5 1 L 36.5 0 Z " /><path fill="rgb(86,122,168)" stroke="rgb(86,122,168)" stroke-width="1" opacity="0.7490196078431373" d="M 26.5 1 L 26.5 2 L 26.5 1 Z " /><path fill="rgb(86,122,168)" stroke="rgb(86,122,168)" stroke-width="1" opacity="0.7490196078431373" d="M 13.5 2 L 13.5 3 L 13.5 2 Z " /><path fill="rgb(86,122,168)" stroke="rgb(86,122,168)" stroke-width="1" opacity="0.7490196078431373" d="M 10.5 4 Q 12 5 9.5 6 Q 8 5 10.5 4 Z " /><path fill="rgb(86,122,168)" stroke="rgb(86,122,168)" stroke-width="1" opacity="0.7490196078431373" d="M 7.5 7 L 7.5 8 L 7.5 7 Z " /><path fill="rgb(86,122,168)" stroke="rgb(86,122,168)" stroke-width="1" opacity="0.7490196078431373" d="M 27.5 12 L 28 19 L 40 19.5 L 28.5 20 L 27 18.5 L 27.5 12 Z " /><path fill="rgb(86,122,168)" stroke="rgb(86,122,168)" stroke-width="1" opacity="0.7490196078431373" d="M 19.5 13 L 19.5 14 L 19.5 13 Z " /><path fill="rgb(86,122,168)" stroke="rgb(86,122,168)" stroke-width="1" opacity="0.7490196078431373" d="M 3.5 14 L 3.5 15 L 3.5 14 Z " /><path fill="rgb(86,122,168)" stroke="rgb(86,122,168)" stroke-width="1" opacity="0.7490196078431373" d="M 2.5 17 L 2.5 18 L 2.5 17 Z " /><path fill="rgb(86,122,168)" stroke="rgb(86,122,168)" stroke-width="1" opacity="0.7490196078431373" d="M 16.5 17 L 16.5 18 L 16.5 17 Z " /><path fill="rgb(86,122,168)" stroke="rgb(86,122,168)" stroke-width="1" opacity="0.7490196078431373" d="M 16.5 19 L 19 19.5 L 16.5 20 L 16.5 19 Z " /><path fill="rgb(86,122,168)" stroke="rgb(86,122,168)" stroke-width="1" opacity="0.7490196078431373" d="M 27.5 22 L 28 29.5 L 27 29.5 L 27.5 22 Z " /><path fill="rgb(86,122,168)" stroke="rgb(86,122,168)" stroke-width="1" opacity="0.7490196078431373" d="M 45.5 28 Q 47 29 44.5 30 Q 43 29 45.5 28 Z " /><path fill="rgb(86,122,168)" stroke="rgb(86,122,168)" stroke-width="1" opacity="0.7490196078431373" d="M 2.5 30 L 2.5 31 L 2.5 30 Z " /><path fill="rgb(86,122,168)" stroke="rgb(86,122,168)" stroke-width="1" opacity="0.7490196078431373" d="M 17.5 30 Q 19 31 16.5 32 Q 15 31 17.5 30 Z " /><path fill="rgb(86,122,168)" stroke="rgb(86,122,168)" stroke-width="1" opacity="0.7490196078431373" d="M 41.5 30 L 42 41.5 L 41 41.5 L 41.5 30 Z " /><path fill="rgb(86,122,168)" stroke="rgb(86,122,168)" stroke-width="1" opacity="0.7490196078431373" d="M 3.5 33 L 3.5 34 L 3.5 33 Z " /><path fill="rgb(86,122,168)" stroke="rgb(86,122,168)" stroke-width="1" opacity="0.7490196078431373" d="M 15.5 33 L 16 34.5 L 15 34.5 L 15.5 33 Z " /><path fill="rgb(86,122,168)" stroke="rgb(86,122,168)" stroke-width="1" opacity="0.7490196078431373" d="M 16.5 36 Q 19 37 17.5 38 Q 15 37 16.5 36 Z " /><path fill="rgb(86,122,168)" stroke="rgb(86,122,168)" stroke-width="1" opacity="0.7490196078431373" d="M 5.5 37 L 5.5 38 L 5.5 37 Z " /><path fill="rgb(86,122,168)" stroke="rgb(86,122,168)" stroke-width="1" opacity="0.7490196078431373" d="M 7.5 40 L 11 43.5 L 10.5 44 L 7 40.5 L 7.5 40 Z " /><path fill="rgb(86,122,168)" stroke="rgb(86,122,168)" stroke-width="1" opacity="0.7490196078431373" d="M 13.5 45 L 13.5 46 L 13.5 45 Z " /><path fill="rgb(86,122,168)" stroke="rgb(86,122,168)" stroke-width="1" opacity="0.7490196078431373" d="M 40.5 45 L 40.5 46 L 40.5 45 Z " /><path fill="rgb(86,122,168)" stroke="rgb(86,122,168)" stroke-width="1" opacity="0.7490196078431373" d="M 26.5 46 L 26.5 47 L 26.5 46 Z " /><path fill="rgb(86,122,168)" stroke="rgb(86,122,168)" stroke-width="1" opacity="0.7490196078431373" d="M 21.5 47 L 21.5 48 L 21.5 47 Z " /></svg>