<svg width="48" height="48" version="1.1" xmlns="http://www.w3.org/2000/svg" desc="Created with imagetracer.js version 1.2.6" ><path fill="rgb(0,0,0)" stroke="rgb(0,0,0)" stroke-width="1" opacity="0" d="M 0 0 L 47.5 0 L 48 0.5 L 48 8 L 0.5 8 L 0 7.5 L 0 0 Z " /><path fill="rgb(0,0,0)" stroke="rgb(0,0,0)" stroke-width="1" opacity="0" d="M 0.5 10 L 5.5 20 L 47.5 20 L 48 20.5 L 48 28 L 10.5 28 Q 9.75 27.75 10 30.5 L 13 37.5 L 15.5 40 L 46.5 40 L 47.5 39 L 48 48 L 0 48 L 0.5 10 Z " /><path fill="rgb(230,50,15)" stroke="rgb(230,50,15)" stroke-width="1" opacity="0.8431372549019608" d="M 1.5 9 L 47 9.5 L 1.5 10 L 1.5 9 Z " /><path fill="rgb(230,50,15)" stroke="rgb(230,50,15)" stroke-width="1" opacity="0.8431372549019608" d="M 2.5 11 L 6.5 18 L 47 18.5 L 5 19 L 2 12.5 L 2.5 11 Z " /><path fill="rgb(230,50,15)" stroke="rgb(230,50,15)" stroke-width="1" opacity="0.8431372549019608" d="M 11.5 30 L 11.5 31 L 11.5 30 Z " /><path fill="rgb(230,50,15)" stroke="rgb(230,50,15)" stroke-width="1" opacity="0.8431372549019608" d="M 12.5 32 L 15 38 L 47 38.5 L 15.5 39 L 12 33.5 L 12.5 32 Z " /><path fill="rgb(230,50,15)" stroke="rgb(230,50,15)" stroke-width="1" opacity="1" d="M 2.5 10 L 46.5 10 L 47 10.5 L 47 18 L 6.5 18 L 5 16.5 L 2 10.5 L 2.5 10 Z " /><path fill="rgb(230,50,15)" stroke="rgb(230,50,15)" stroke-width="1" opacity="1" d="M 11.5 29 L 46.5 29 L 47 29.5 L 47 38 L 15.5 38 L 15 36.5 L 11 29.5 L 11.5 29 Z " /><path fill="rgb(230,50,15)" stroke="rgb(230,50,15)" stroke-width="1" opacity="0.16470588235294117" d="M 0 8 L 47.5 8 L 48 8.5 L 48 20 L 5.5 20 L 4 18.5 L 2 13.5 L 3 13.5 L 5 19 L 46.5 19 L 47 18.5 L 47 9 L 1 9.5 L 2 11.5 L 1 11.5 L 0 8 Z " /><path fill="rgb(230,50,15)" stroke="rgb(230,50,15)" stroke-width="1" opacity="0.16470588235294117" d="M 10 28 L 47.5 28 L 48 28.5 L 48 38.5 L 46.5 40 L 15.5 40 Q 12.63 38.38 12 34.5 L 13 34.5 L 15.5 39 L 46.5 39 L 47 38.5 L 47 29 L 11.5 29 L 11 30.5 L 12 32.5 L 11 32.5 L 10 28 Z " /></svg>