<svg width="128" height="128" version="1.1" xmlns="http://www.w3.org/2000/svg" desc="Created with imagetracer.js version 1.2.6" ><path fill="rgb(0,21,133)" stroke="rgb(0,21,133)" stroke-width="1" opacity="0.8549019607843137" d="M 0 0 L 127.5 0 Q 128.25 -0.25 128 2.5 L 126.5 2 L 124.5 1 L 3.5 1 L 0.5 3 L 0 0 Z " /><path fill="rgb(0,21,133)" stroke="rgb(0,21,133)" stroke-width="1" opacity="0.8549019607843137" d="M 0.5 125 L 6 127.5 L 0 128 L 0.5 125 Z " /><path fill="rgb(0,21,133)" stroke="rgb(0,21,133)" stroke-width="1" opacity="0.8549019607843137" d="M 127.5 125 L 128 128 L 122 127.5 L 127.5 125 Z " /><path fill="rgb(1,22,137)" stroke="rgb(1,22,137)" stroke-width="1" opacity="0.996078431372549" d="M 3.5 1 L 5 1.5 L 3.5 2 L 3.5 1 Z " /><path fill="rgb(1,22,137)" stroke="rgb(1,22,137)" stroke-width="1" opacity="0.996078431372549" d="M 123.5 1 L 125 1.5 L 123.5 2 L 123.5 1 Z " /><path fill="rgb(1,22,137)" stroke="rgb(1,22,137)" stroke-width="1" opacity="0.996078431372549" d="M 1.5 2 L 1.5 3 L 1.5 2 Z " /><path fill="rgb(1,22,137)" stroke="rgb(1,22,137)" stroke-width="1" opacity="0.996078431372549" d="M 126.5 2 Q 129 3 127.5 4 Q 125 3 126.5 2 Z " /><path fill="rgb(1,22,137)" stroke="rgb(1,22,137)" stroke-width="1" opacity="0.996078431372549" d="M 1.5 125 L 1.5 126 L 1.5 125 Z " /><path fill="rgb(1,22,137)" stroke="rgb(1,22,137)" stroke-width="1" opacity="0.996078431372549" d="M 126.5 125 L 126.5 126 L 126.5 125 Z " /><path fill="rgb(1,22,137)" stroke="rgb(1,22,137)" stroke-width="1" opacity="0.996078431372549" d="M 3.5 126 L 3.5 127 L 3.5 126 Z " /><path fill="rgb(1,22,137)" stroke="rgb(1,22,137)" stroke-width="1" opacity="0.996078431372549" d="M 123.5 126 L 125 126.5 L 123.5 127 L 123.5 126 Z " /><path fill="rgb(1,22,137)" stroke="rgb(1,22,137)" stroke-width="1" opacity="0.996078431372549" d="M 6.5 127 L 122 127.5 L 6.5 128 L 6.5 127 Z " /><path fill="rgb(1,22,137)" stroke="rgb(1,22,137)" stroke-width="1" opacity="1" d="M 5.5 1 L 122.5 1 L 125.5 2 L 128 4.5 L 128 124.5 L 126.5 125 L 122.5 127 L 4.5 127 L 0 125 L 0 3.5 L 1.5 3 L 5.5 1 Z M 14 18 L 12 20 Q 11 26 13 29 L 19 31 L 20 34 L 20 95 L 19 97 L 18 98 L 13 99 L 12 102 L 12 109 L 14 110 L 59 110 L 59 110 L 59 101 L 55 97 L 53 97 L 52 95 L 52 68 L 75 68 L 75 96 Q 73 98 70 99 L 68 101 L 68 110 L 115 110 L 115 110 L 115 99 L 108 97 Q 109 94 107 94 L 107 35 Q 109 34 108 31 L 114 29 L 115 29 L 115 18 L 69 18 L 68 19 L 68 28 L 75 33 L 75 55 L 52 55 L 52 34 L 53 31 Q 57 31 59 28 L 59 19 L 59 18 L 14 18 Z " /><path fill="rgb(250,250,252)" stroke="rgb(250,250,252)" stroke-width="1" opacity="1" d="M 13.5 19 L 14 26.5 L 13 26.5 L 13.5 19 Z " /><path fill="rgb(250,250,252)" stroke="rgb(250,250,252)" stroke-width="1" opacity="1" d="M 57.5 27 Q 59 28 56.5 29 Q 55 28 57.5 27 Z " /><path fill="rgb(250,250,252)" stroke="rgb(250,250,252)" stroke-width="1" opacity="1" d="M 69.5 27 L 69.5 28 L 69.5 27 Z " /><path fill="rgb(250,250,252)" stroke="rgb(250,250,252)" stroke-width="1" opacity="1" d="M 14.5 28 L 14.5 29 L 14.5 28 Z " /><path fill="rgb(250,250,252)" stroke="rgb(250,250,252)" stroke-width="1" opacity="1" d="M 112.5 28 L 112.5 29 L 112.5 28 Z " /><path fill="rgb(250,250,252)" stroke="rgb(250,250,252)" stroke-width="1" opacity="1" d="M 17.5 29 L 17.5 30 L 17.5 29 Z " /><path fill="rgb(250,250,252)" stroke="rgb(250,250,252)" stroke-width="1" opacity="1" d="M 54.5 29 L 54.5 30 L 54.5 29 Z " /><path fill="rgb(250,250,252)" stroke="rgb(250,250,252)" stroke-width="1" opacity="1" d="M 72.5 29 L 72.5 30 L 72.5 29 Z " /><path fill="rgb(250,250,252)" stroke="rgb(250,250,252)" stroke-width="1" opacity="1" d="M 109.5 29 L 109.5 30 L 109.5 29 Z " /><path fill="rgb(250,250,252)" stroke="rgb(250,250,252)" stroke-width="1" opacity="1" d="M 52.5 30 L 52.5 31 L 52.5 30 Z " /><path fill="rgb(250,250,252)" stroke="rgb(250,250,252)" stroke-width="1" opacity="1" d="M 74.5 30 Q 77 31 75.5 32 Q 73 31 74.5 30 Z " /><path fill="rgb(250,250,252)" stroke="rgb(250,250,252)" stroke-width="1" opacity="1" d="M 106.5 34 L 106.5 35 L 106.5 34 Z " /><path fill="rgb(250,250,252)" stroke="rgb(250,250,252)" stroke-width="1" opacity="1" d="M 50.5 37 L 51 54.5 L 52 55.5 Q 51 57 50 54.5 L 50.5 37 Z " /><path fill="rgb(250,250,252)" stroke="rgb(250,250,252)" stroke-width="1" opacity="1" d="M 76.5 37 L 77 53.5 L 76 53.5 L 76.5 37 Z " /><path fill="rgb(250,250,252)" stroke="rgb(250,250,252)" stroke-width="1" opacity="1" d="M 75.5 55 L 75.5 56 L 75.5 55 Z " /><path fill="rgb(250,250,252)" stroke="rgb(250,250,252)" stroke-width="1" opacity="1" d="M 50.5 68 L 51 91.5 L 50 91.5 L 50.5 68 Z " /><path fill="rgb(250,250,252)" stroke="rgb(250,250,252)" stroke-width="1" opacity="1" d="M 76.5 68 L 77 90.5 L 76 90.5 L 76.5 68 Z " /><path fill="rgb(250,250,252)" stroke="rgb(250,250,252)" stroke-width="1" opacity="1" d="M 106.5 93 L 106.5 94 L 106.5 93 Z " /><path fill="rgb(250,250,252)" stroke="rgb(250,250,252)" stroke-width="1" opacity="1" d="M 51.5 95 L 51.5 96 L 51.5 95 Z " /><path fill="rgb(250,250,252)" stroke="rgb(250,250,252)" stroke-width="1" opacity="1" d="M 75.5 96 Q 77 97 74.5 98 Q 73 97 75.5 96 Z " /><path fill="rgb(250,250,252)" stroke="rgb(250,250,252)" stroke-width="1" opacity="1" d="M 52.5 97 L 52.5 98 L 52.5 97 Z " /><path fill="rgb(250,250,252)" stroke="rgb(250,250,252)" stroke-width="1" opacity="1" d="M 17.5 98 L 17.5 99 L 17.5 98 Z " /><path fill="rgb(250,250,252)" stroke="rgb(250,250,252)" stroke-width="1" opacity="1" d="M 54.5 98 L 54.5 99 L 54.5 98 Z " /><path fill="rgb(250,250,252)" stroke="rgb(250,250,252)" stroke-width="1" opacity="1" d="M 109.5 98 L 109.5 99 L 109.5 98 Z " /><path fill="rgb(250,250,252)" stroke="rgb(250,250,252)" stroke-width="1" opacity="1" d="M 112.5 99 L 112.5 100 L 112.5 99 Z " /><path fill="rgb(250,250,252)" stroke="rgb(250,250,252)" stroke-width="1" opacity="1" d="M 57.5 100 L 57.5 101 L 57.5 100 Z " /><path fill="rgb(250,250,252)" stroke="rgb(250,250,252)" stroke-width="1" opacity="1" d="M 69.5 100 L 70 101.5 L 69 101.5 L 69.5 100 Z " /><path fill="rgb(250,250,252)" stroke="rgb(250,250,252)" stroke-width="1" opacity="1" d="M 13.5 101 L 14 108.5 L 13 108.5 L 13.5 101 Z " /><path fill="rgb(254,254,254)" stroke="rgb(254,254,254)" stroke-width="1" opacity="1" d="M 57.5 19 L 58 26.5 L 57 26.5 L 57.5 19 Z " /><path fill="rgb(254,254,254)" stroke="rgb(254,254,254)" stroke-width="1" opacity="1" d="M 69.5 19 L 70 26.5 L 69 26.5 L 69.5 19 Z " /><path fill="rgb(254,254,254)" stroke="rgb(254,254,254)" stroke-width="1" opacity="1" d="M 15.5 28 L 15.5 29 L 15.5 28 Z " /><path fill="rgb(254,254,254)" stroke="rgb(254,254,254)" stroke-width="1" opacity="1" d="M 55.5 28 L 55.5 29 L 55.5 28 Z " /><path fill="rgb(254,254,254)" stroke="rgb(254,254,254)" stroke-width="1" opacity="1" d="M 71.5 28 L 71.5 29 L 71.5 28 Z " /><path fill="rgb(254,254,254)" stroke="rgb(254,254,254)" stroke-width="1" opacity="1" d="M 111.5 28 L 111.5 29 L 111.5 28 Z " /><path fill="rgb(254,254,254)" stroke="rgb(254,254,254)" stroke-width="1" opacity="1" d="M 53.5 29 L 53.5 30 L 53.5 29 Z " /><path fill="rgb(254,254,254)" stroke="rgb(254,254,254)" stroke-width="1" opacity="1" d="M 73.5 29 L 73.5 30 L 73.5 29 Z " /><path fill="rgb(254,254,254)" stroke="rgb(254,254,254)" stroke-width="1" opacity="1" d="M 19.5 30 L 19.5 31 L 19.5 30 Z " /><path fill="rgb(254,254,254)" stroke="rgb(254,254,254)" stroke-width="1" opacity="1" d="M 107.5 30 L 107.5 31 L 107.5 30 Z " /><path fill="rgb(254,254,254)" stroke="rgb(254,254,254)" stroke-width="1" opacity="1" d="M 20.5 32 L 20.5 33 L 20.5 32 Z " /><path fill="rgb(254,254,254)" stroke="rgb(254,254,254)" stroke-width="1" opacity="1" d="M 51.5 32 L 51.5 33 L 51.5 32 Z " /><path fill="rgb(254,254,254)" stroke="rgb(254,254,254)" stroke-width="1" opacity="1" d="M 106.5 33 L 106.5 34 L 106.5 33 Z " /><path fill="rgb(254,254,254)" stroke="rgb(254,254,254)" stroke-width="1" opacity="1" d="M 76.5 34 L 77 36.5 L 76 36.5 L 76.5 34 Z " /><path fill="rgb(254,254,254)" stroke="rgb(254,254,254)" stroke-width="1" opacity="1" d="M 50.5 36 L 50.5 37 L 50.5 36 Z " /><path fill="rgb(254,254,254)" stroke="rgb(254,254,254)" stroke-width="1" opacity="1" d="M 76.5 54 L 76.5 55 L 76.5 54 Z " /><path fill="rgb(254,254,254)" stroke="rgb(254,254,254)" stroke-width="1" opacity="1" d="M 50.5 67 L 50.5 68 L 50.5 67 Z " /><path fill="rgb(254,254,254)" stroke="rgb(254,254,254)" stroke-width="1" opacity="1" d="M 76.5 67 L 76.5 68 L 76.5 67 Z " /><path fill="rgb(254,254,254)" stroke="rgb(254,254,254)" stroke-width="1" opacity="1" d="M 76.5 91 L 77 93.5 L 76 93.5 L 76.5 91 Z " /><path fill="rgb(254,254,254)" stroke="rgb(254,254,254)" stroke-width="1" opacity="1" d="M 50.5 92 L 50.5 93 L 50.5 92 Z " /><path fill="rgb(254,254,254)" stroke="rgb(254,254,254)" stroke-width="1" opacity="1" d="M 106.5 94 L 106.5 95 L 106.5 94 Z " /><path fill="rgb(254,254,254)" stroke="rgb(254,254,254)" stroke-width="1" opacity="1" d="M 20.5 95 L 20.5 96 L 20.5 95 Z " /><path fill="rgb(254,254,254)" stroke="rgb(254,254,254)" stroke-width="1" opacity="1" d="M 51.5 96 L 51.5 97 L 51.5 96 Z " /><path fill="rgb(254,254,254)" stroke="rgb(254,254,254)" stroke-width="1" opacity="1" d="M 19.5 97 L 19.5 98 L 19.5 97 Z " /><path fill="rgb(254,254,254)" stroke="rgb(254,254,254)" stroke-width="1" opacity="1" d="M 107.5 97 Q 110 98 108.5 99 Q 106 98 107.5 97 Z " /><path fill="rgb(254,254,254)" stroke="rgb(254,254,254)" stroke-width="1" opacity="1" d="M 53.5 98 L 53.5 99 L 53.5 98 Z " /><path fill="rgb(254,254,254)" stroke="rgb(254,254,254)" stroke-width="1" opacity="1" d="M 73.5 98 L 73.5 99 L 73.5 98 Z " /><path fill="rgb(254,254,254)" stroke="rgb(254,254,254)" stroke-width="1" opacity="1" d="M 15.5 99 L 15.5 100 L 15.5 99 Z " /><path fill="rgb(254,254,254)" stroke="rgb(254,254,254)" stroke-width="1" opacity="1" d="M 55.5 99 L 55.5 100 L 55.5 99 Z " /><path fill="rgb(254,254,254)" stroke="rgb(254,254,254)" stroke-width="1" opacity="1" d="M 71.5 99 L 71.5 100 L 71.5 99 Z " /><path fill="rgb(254,254,254)" stroke="rgb(254,254,254)" stroke-width="1" opacity="1" d="M 111.5 99 L 111.5 100 L 111.5 99 Z " /><path fill="rgb(254,254,254)" stroke="rgb(254,254,254)" stroke-width="1" opacity="1" d="M 57.5 101 L 58 108.5 L 57 108.5 L 57.5 101 Z " /><path fill="rgb(254,254,254)" stroke="rgb(254,254,254)" stroke-width="1" opacity="1" d="M 69.5 102 L 70 108.5 L 69 108.5 L 69.5 102 Z " /><path fill="rgb(255,255,255)" stroke="rgb(255,255,255)" stroke-width="1" opacity="1" d="M 14 19 L 56.5 19 L 57 19.5 L 57 28 L 52 30.5 L 50 36.5 L 50 54.5 L 51.5 56 L 75.5 56 L 77 54.5 L 77 34.5 L 76 31.5 L 73.5 29 L 70 28 L 70 19.5 L 70.5 19 L 114 19 L 114 27.5 Q 114.25 28.25 111.5 28 L 107 30 Q 107.75 32.58 106 33.5 L 106 94.5 L 108.5 99 L 114 100 L 114 108.5 L 113.5 109 L 70 109 L 70 100.5 L 71.5 100 L 76 96.5 L 77 93.5 L 77 67 L 50 67 L 50 92.5 Q 51.75 93.25 51 96.5 L 53.5 99 L 57 100 L 57 108.5 L 56.5 109 L 14 109 L 14 100.5 L 15.5 100 L 20 98 L 21 95.5 L 21 32.5 L 20 30 L 14 28 L 14 19 Z " /><path fill="rgb(221,224,239)" stroke="rgb(221,224,239)" stroke-width="1" opacity="1" d="M 114.5 19 L 115 27.5 Q 114 30 113 28.5 L 114 27.5 L 114.5 19 Z " /><path fill="rgb(221,224,239)" stroke="rgb(221,224,239)" stroke-width="1" opacity="1" d="M 13.5 27 L 13.5 28 L 13.5 27 Z " /><path fill="rgb(221,224,239)" stroke="rgb(221,224,239)" stroke-width="1" opacity="1" d="M 70.5 28 L 70.5 29 L 70.5 28 Z " /><path fill="rgb(221,224,239)" stroke="rgb(221,224,239)" stroke-width="1" opacity="1" d="M 16.5 29 L 16.5 30 L 16.5 29 Z " /><path fill="rgb(221,224,239)" stroke="rgb(221,224,239)" stroke-width="1" opacity="1" d="M 110.5 29 L 110.5 30 L 110.5 29 Z " /><path fill="rgb(221,224,239)" stroke="rgb(221,224,239)" stroke-width="1" opacity="1" d="M 108.5 30 Q 110 31 107.5 32 Q 106 31 108.5 30 Z " /><path fill="rgb(221,224,239)" stroke="rgb(221,224,239)" stroke-width="1" opacity="1" d="M 19.5 31 L 19.5 32 L 19.5 31 Z " /><path fill="rgb(221,224,239)" stroke="rgb(221,224,239)" stroke-width="1" opacity="1" d="M 75.5 32 L 75.5 33 L 75.5 32 Z " /><path fill="rgb(221,224,239)" stroke="rgb(221,224,239)" stroke-width="1" opacity="1" d="M 20.5 33 L 21 34.5 L 20 34.5 L 20.5 33 Z " /><path fill="rgb(221,224,239)" stroke="rgb(221,224,239)" stroke-width="1" opacity="1" d="M 51.5 33 L 51.5 34 L 51.5 33 Z " /><path fill="rgb(221,224,239)" stroke="rgb(221,224,239)" stroke-width="1" opacity="1" d="M 106.5 35 L 107 92.5 L 106 92.5 L 106.5 35 Z " /><path fill="rgb(221,224,239)" stroke="rgb(221,224,239)" stroke-width="1" opacity="1" d="M 52.5 55 L 75 55.5 L 52.5 56 L 52.5 55 Z " /><path fill="rgb(221,224,239)" stroke="rgb(221,224,239)" stroke-width="1" opacity="1" d="M 51.5 67 L 51.5 68 L 51.5 67 Z " /><path fill="rgb(221,224,239)" stroke="rgb(221,224,239)" stroke-width="1" opacity="1" d="M 20.5 93 L 21 94.5 L 20 94.5 L 20.5 93 Z " /><path fill="rgb(221,224,239)" stroke="rgb(221,224,239)" stroke-width="1" opacity="1" d="M 51.5 94 L 51.5 95 L 51.5 94 Z " /><path fill="rgb(221,224,239)" stroke="rgb(221,224,239)" stroke-width="1" opacity="1" d="M 75.5 95 L 75.5 96 L 75.5 95 Z " /><path fill="rgb(221,224,239)" stroke="rgb(221,224,239)" stroke-width="1" opacity="1" d="M 19.5 96 L 19.5 97 L 19.5 96 Z " /><path fill="rgb(221,224,239)" stroke="rgb(221,224,239)" stroke-width="1" opacity="1" d="M 107.5 96 Q 110 97 108.5 98 Q 106 97 107.5 96 Z " /><path fill="rgb(221,224,239)" stroke="rgb(221,224,239)" stroke-width="1" opacity="1" d="M 72.5 98 L 72.5 99 L 72.5 98 Z " /><path fill="rgb(221,224,239)" stroke="rgb(221,224,239)" stroke-width="1" opacity="1" d="M 110.5 98 L 110.5 99 L 110.5 98 Z " /><path fill="rgb(221,224,239)" stroke="rgb(221,224,239)" stroke-width="1" opacity="1" d="M 14.5 99 Q 16 100 13.5 101 Q 12 100 14.5 99 Z " /><path fill="rgb(221,224,239)" stroke="rgb(221,224,239)" stroke-width="1" opacity="1" d="M 56.5 99 L 56.5 100 L 56.5 99 Z " /><path fill="rgb(221,224,239)" stroke="rgb(221,224,239)" stroke-width="1" opacity="1" d="M 70.5 99 L 70.5 100 L 70.5 99 Z " /><path fill="rgb(221,224,239)" stroke="rgb(221,224,239)" stroke-width="1" opacity="1" d="M 113.5 99 L 115 100.5 L 115 108.5 L 114 108.5 L 114 100.5 L 113.5 99 Z " /><path fill="rgb(107,120,186)" stroke="rgb(107,120,186)" stroke-width="1" opacity="1" d="M 13.5 18 L 59 18.5 L 13 19 L 12.5 27 L 12 19.5 L 13.5 18 Z " /><path fill="rgb(107,120,186)" stroke="rgb(107,120,186)" stroke-width="1" opacity="1" d="M 68.5 18 L 115 18.5 L 68.5 19 L 68.5 18 Z " /><path fill="rgb(107,120,186)" stroke="rgb(107,120,186)" stroke-width="1" opacity="1" d="M 58.5 26 L 59 27.5 L 58 27.5 L 58.5 26 Z " /><path fill="rgb(107,120,186)" stroke="rgb(107,120,186)" stroke-width="1" opacity="1" d="M 68.5 27 Q 71 28 69.5 29 Q 67 28 68.5 27 Z " /><path fill="rgb(107,120,186)" stroke="rgb(107,120,186)" stroke-width="1" opacity="1" d="M 13.5 28 L 13.5 29 L 13.5 28 Z " /><path fill="rgb(107,120,186)" stroke="rgb(107,120,186)" stroke-width="1" opacity="1" d="M 114.5 28 L 114.5 29 L 114.5 28 Z " /><path fill="rgb(107,120,186)" stroke="rgb(107,120,186)" stroke-width="1" opacity="1" d="M 56.5 29 L 56.5 30 L 56.5 29 Z " /><path fill="rgb(107,120,186)" stroke="rgb(107,120,186)" stroke-width="1" opacity="1" d="M 112.5 29 L 112.5 30 L 112.5 29 Z " /><path fill="rgb(107,120,186)" stroke="rgb(107,120,186)" stroke-width="1" opacity="1" d="M 17.5 30 L 17.5 31 L 17.5 30 Z " /><path fill="rgb(107,120,186)" stroke="rgb(107,120,186)" stroke-width="1" opacity="1" d="M 54.5 30 L 54.5 31 L 54.5 30 Z " /><path fill="rgb(107,120,186)" stroke="rgb(107,120,186)" stroke-width="1" opacity="1" d="M 72.5 30 L 72.5 31 L 72.5 30 Z " /><path fill="rgb(107,120,186)" stroke="rgb(107,120,186)" stroke-width="1" opacity="1" d="M 109.5 30 L 109.5 31 L 109.5 30 Z " /><path fill="rgb(107,120,186)" stroke="rgb(107,120,186)" stroke-width="1" opacity="1" d="M 74.5 31 L 74.5 32 L 74.5 31 Z " /><path fill="rgb(107,120,186)" stroke="rgb(107,120,186)" stroke-width="1" opacity="1" d="M 19.5 32 L 19.5 33 L 19.5 32 Z " /><path fill="rgb(107,120,186)" stroke="rgb(107,120,186)" stroke-width="1" opacity="1" d="M 52.5 32 L 52.5 33 L 52.5 32 Z " /><path fill="rgb(107,120,186)" stroke="rgb(107,120,186)" stroke-width="1" opacity="1" d="M 107.5 33 L 107.5 34 L 107.5 33 Z " /><path fill="rgb(107,120,186)" stroke="rgb(107,120,186)" stroke-width="1" opacity="1" d="M 75.5 34 L 76 54.5 L 75 54.5 L 75.5 34 Z " /><path fill="rgb(107,120,186)" stroke="rgb(107,120,186)" stroke-width="1" opacity="1" d="M 51.5 36 L 52 54.5 L 51 54.5 L 51.5 36 Z " /><path fill="rgb(107,120,186)" stroke="rgb(107,120,186)" stroke-width="1" opacity="1" d="M 51.5 68 L 52 92.5 L 51 92.5 L 51.5 68 Z " /><path fill="rgb(107,120,186)" stroke="rgb(107,120,186)" stroke-width="1" opacity="1" d="M 75.5 68 L 76 93.5 L 75 93.5 L 75.5 68 Z " /><path fill="rgb(107,120,186)" stroke="rgb(107,120,186)" stroke-width="1" opacity="1" d="M 107.5 94 L 107.5 95 L 107.5 94 Z " /><path fill="rgb(107,120,186)" stroke="rgb(107,120,186)" stroke-width="1" opacity="1" d="M 52.5 95 L 52.5 96 L 52.5 95 Z " /><path fill="rgb(107,120,186)" stroke="rgb(107,120,186)" stroke-width="1" opacity="1" d="M 74.5 96 L 74.5 97 L 74.5 96 Z " /><path fill="rgb(107,120,186)" stroke="rgb(107,120,186)" stroke-width="1" opacity="1" d="M 54.5 97 L 54.5 98 L 54.5 97 Z " /><path fill="rgb(107,120,186)" stroke="rgb(107,120,186)" stroke-width="1" opacity="1" d="M 109.5 97 L 109.5 98 L 109.5 97 Z " /><path fill="rgb(107,120,186)" stroke="rgb(107,120,186)" stroke-width="1" opacity="1" d="M 15.5 98 L 15.5 99 L 15.5 98 Z " /><path fill="rgb(107,120,186)" stroke="rgb(107,120,186)" stroke-width="1" opacity="1" d="M 112.5 98 L 112.5 99 L 112.5 98 Z " /><path fill="rgb(107,120,186)" stroke="rgb(107,120,186)" stroke-width="1" opacity="1" d="M 13.5 99 L 13.5 100 L 13.5 99 Z " /><path fill="rgb(107,120,186)" stroke="rgb(107,120,186)" stroke-width="1" opacity="1" d="M 57.5 99 L 59 101.5 L 58 101.5 L 57.5 99 Z " /><path fill="rgb(107,120,186)" stroke="rgb(107,120,186)" stroke-width="1" opacity="1" d="M 69.5 99 Q 71 100 68.5 101 Q 67 100 69.5 99 Z " /><path fill="rgb(107,120,186)" stroke="rgb(107,120,186)" stroke-width="1" opacity="1" d="M 114.5 99 L 114.5 100 L 114.5 99 Z " /><path fill="rgb(107,120,186)" stroke="rgb(107,120,186)" stroke-width="1" opacity="1" d="M 12.5 101 L 13 108.5 L 14 109.5 Q 13 111 12 108.5 L 12.5 101 Z " /><path fill="rgb(107,120,186)" stroke="rgb(107,120,186)" stroke-width="1" opacity="1" d="M 57.5 109 L 59 109.5 L 57.5 110 L 57.5 109 Z " /><path fill="rgb(107,120,186)" stroke="rgb(107,120,186)" stroke-width="1" opacity="1" d="M 68.5 109 L 68.5 110 L 68.5 109 Z " /><path fill="rgb(107,120,186)" stroke="rgb(107,120,186)" stroke-width="1" opacity="1" d="M 114.5 109 L 114.5 110 L 114.5 109 Z " /><path fill="rgb(151,159,206)" stroke="rgb(151,159,206)" stroke-width="1" opacity="1" d="M 58.5 19 L 59 25.5 L 58 25.5 L 58.5 19 Z " /><path fill="rgb(151,159,206)" stroke="rgb(151,159,206)" stroke-width="1" opacity="1" d="M 68.5 19 L 69 26.5 L 68 26.5 L 68.5 19 Z " /><path fill="rgb(151,159,206)" stroke="rgb(151,159,206)" stroke-width="1" opacity="1" d="M 57.5 28 L 57.5 29 L 57.5 28 Z " /><path fill="rgb(151,159,206)" stroke="rgb(151,159,206)" stroke-width="1" opacity="1" d="M 15.5 29 L 15.5 30 L 15.5 29 Z " /><path fill="rgb(151,159,206)" stroke="rgb(151,159,206)" stroke-width="1" opacity="1" d="M 55.5 29 L 55.5 30 L 55.5 29 Z " /><path fill="rgb(151,159,206)" stroke="rgb(151,159,206)" stroke-width="1" opacity="1" d="M 71.5 29 L 71.5 30 L 71.5 29 Z " /><path fill="rgb(151,159,206)" stroke="rgb(151,159,206)" stroke-width="1" opacity="1" d="M 111.5 29 L 111.5 30 L 111.5 29 Z " /><path fill="rgb(151,159,206)" stroke="rgb(151,159,206)" stroke-width="1" opacity="1" d="M 18.5 30 L 18.5 31 L 18.5 30 Z " /><path fill="rgb(151,159,206)" stroke="rgb(151,159,206)" stroke-width="1" opacity="1" d="M 53.5 30 Q 55 31 52.5 32 Q 51 31 53.5 30 Z " /><path fill="rgb(151,159,206)" stroke="rgb(151,159,206)" stroke-width="1" opacity="1" d="M 73.5 30 L 73.5 31 L 73.5 30 Z " /><path fill="rgb(151,159,206)" stroke="rgb(151,159,206)" stroke-width="1" opacity="1" d="M 107.5 32 L 107.5 33 L 107.5 32 Z " /><path fill="rgb(151,159,206)" stroke="rgb(151,159,206)" stroke-width="1" opacity="1" d="M 75.5 33 L 75.5 34 L 75.5 33 Z " /><path fill="rgb(151,159,206)" stroke="rgb(151,159,206)" stroke-width="1" opacity="1" d="M 51.5 34 L 52 35.5 L 51 35.5 L 51.5 34 Z " /><path fill="rgb(151,159,206)" stroke="rgb(151,159,206)" stroke-width="1" opacity="1" d="M 20.5 35 L 21 92.5 L 20 92.5 L 20.5 35 Z " /><path fill="rgb(151,159,206)" stroke="rgb(151,159,206)" stroke-width="1" opacity="1" d="M 52.5 67 L 76 67.5 L 52.5 68 L 52.5 67 Z " /><path fill="rgb(151,159,206)" stroke="rgb(151,159,206)" stroke-width="1" opacity="1" d="M 51.5 93 L 51.5 94 L 51.5 93 Z " /><path fill="rgb(151,159,206)" stroke="rgb(151,159,206)" stroke-width="1" opacity="1" d="M 75.5 94 L 75.5 95 L 75.5 94 Z " /><path fill="rgb(151,159,206)" stroke="rgb(151,159,206)" stroke-width="1" opacity="1" d="M 19.5 95 L 19.5 96 L 19.5 95 Z " /><path fill="rgb(151,159,206)" stroke="rgb(151,159,206)" stroke-width="1" opacity="1" d="M 107.5 95 L 107.5 96 L 107.5 95 Z " /><path fill="rgb(151,159,206)" stroke="rgb(151,159,206)" stroke-width="1" opacity="1" d="M 52.5 96 Q 55 97 53.5 98 Q 51 97 52.5 96 Z " /><path fill="rgb(151,159,206)" stroke="rgb(151,159,206)" stroke-width="1" opacity="1" d="M 18.5 97 L 18.5 98 L 18.5 97 Z " /><path fill="rgb(151,159,206)" stroke="rgb(151,159,206)" stroke-width="1" opacity="1" d="M 73.5 97 L 73.5 98 L 73.5 97 Z " /><path fill="rgb(151,159,206)" stroke="rgb(151,159,206)" stroke-width="1" opacity="1" d="M 16.5 98 L 16.5 99 L 16.5 98 Z " /><path fill="rgb(151,159,206)" stroke="rgb(151,159,206)" stroke-width="1" opacity="1" d="M 55.5 98 L 55.5 99 L 55.5 98 Z " /><path fill="rgb(151,159,206)" stroke="rgb(151,159,206)" stroke-width="1" opacity="1" d="M 71.5 98 L 71.5 99 L 71.5 98 Z " /><path fill="rgb(151,159,206)" stroke="rgb(151,159,206)" stroke-width="1" opacity="1" d="M 111.5 98 L 111.5 99 L 111.5 98 Z " /><path fill="rgb(151,159,206)" stroke="rgb(151,159,206)" stroke-width="1" opacity="1" d="M 68.5 101 L 69 109 L 114 109.5 L 69.5 110 L 68 108.5 L 68.5 101 Z " /><path fill="rgb(151,159,206)" stroke="rgb(151,159,206)" stroke-width="1" opacity="1" d="M 58.5 102 L 59 108.5 L 58 108.5 L 58.5 102 Z " /><path fill="rgb(151,159,206)" stroke="rgb(151,159,206)" stroke-width="1" opacity="1" d="M 14.5 109 L 57 109.5 L 14.5 110 L 14.5 109 Z " /></svg>