<svg width="32" height="32" version="1.1" xmlns="http://www.w3.org/2000/svg" desc="Created with imagetracer.js version 1.2.6" ><path fill="rgb(0,162,97)" stroke="rgb(0,162,97)" stroke-width="1" opacity="1" d="M 2 2 L 30 2 L 30 17.5 L 28.5 17 L 25 17 L 25 9.5 L 26 7 Q 29 8 28 5 L 18 5.5 L 21 7 Q 22.75 9.54 22 15 L 11 13 L 11 7.5 L 12.5 7 Q 15 6 13.5 5 L 4.5 5 L 4 7 L 7 7 L 7 14 L 2 14 L 2 2 Z " /><path fill="rgb(0,162,97)" stroke="rgb(0,162,97)" stroke-width="1" opacity="1" d="M 11.5 16 Q 12.75 18.25 17.5 17 L 22 19.5 L 22 22.5 L 19 26.5 L 19 28 L 27.5 28 L 28 26.5 Q 24 25.13 25 20 L 30 21 L 30 29.5 L 29.5 30 L 2 30 L 2 17 L 7 17 L 7 24.5 L 5.5 25 L 4 28 L 13.5 28 L 14 26.5 L 11 25 L 11.5 16 Z " /><path fill="rgb(255,255,255)" stroke="rgb(255,255,255)" stroke-width="1" opacity="1" d="M 0 0 L 32 0 L 32 32 L 0 32 L 0 0 Z M 2 2 L 2 30 L 30 30 L 30 2 L 2 2 Z " /><path fill="rgb(255,255,255)" stroke="rgb(255,255,255)" stroke-width="1" opacity="1" d="M 5.5 5 L 13 5.5 L 10 6 L 10 14 L 13.5 14 L 14.5 15 L 19 15.5 L 12.5 16 L 8 13.5 Q 9.5 7.5 6.5 6 Q 4.13 5.87 5.5 5 Z " /><path fill="rgb(255,255,255)" stroke="rgb(255,255,255)" stroke-width="1" opacity="1" d="M 19.5 5 L 27 5.5 L 25 6 Q 25.75 8.58 24 9.5 L 23.5 16 L 23 9.5 Q 21.25 8.58 22 6 Q 18.67 6.75 19.5 5 Z " /><path fill="rgb(255,255,255)" stroke="rgb(255,255,255)" stroke-width="1" opacity="1" d="M 8 16 L 10 16 L 10 25.5 L 11.5 26 L 11.5 27 L 6 26.5 L 8 26 L 8 16 Z " /><path fill="rgb(255,255,255)" stroke="rgb(255,255,255)" stroke-width="1" opacity="1" d="M 23.5 19 L 25 26 L 27 26.5 L 20.5 27 L 20.5 26 Q 23.13 26.83 22 23.5 L 23.5 19 Z " /><path fill="rgb(216,239,229)" stroke="rgb(216,239,229)" stroke-width="1" opacity="1" d="M 27.5 5 L 27.5 6 L 27.5 5 Z " /><path fill="rgb(216,239,229)" stroke="rgb(216,239,229)" stroke-width="1" opacity="1" d="M 8.5 14 Q 11 15 9.5 16 Q 6.71 16.67 8.5 14 Z " /><path fill="rgb(216,239,229)" stroke="rgb(216,239,229)" stroke-width="1" opacity="1" d="M 15.5 14 L 15.5 15 L 15.5 14 Z " /><path fill="rgb(216,239,229)" stroke="rgb(216,239,229)" stroke-width="1" opacity="1" d="M 5.5 15 L 5.5 16 L 5.5 15 Z " /><path fill="rgb(216,239,229)" stroke="rgb(216,239,229)" stroke-width="1" opacity="1" d="M 25.5 18 L 25.5 19 L 25.5 18 Z " /><path fill="rgb(193,229,213)" stroke="rgb(193,229,213)" stroke-width="1" opacity="1" d="M 21.5 6 L 21.5 7 L 21.5 6 Z " /><path fill="rgb(193,229,213)" stroke="rgb(193,229,213)" stroke-width="1" opacity="1" d="M 25.5 6 L 25.5 7 L 25.5 6 Z " /><path fill="rgb(193,229,213)" stroke="rgb(193,229,213)" stroke-width="1" opacity="1" d="M 7.5 8 L 7.5 9 L 7.5 8 Z " /><path fill="rgb(193,229,213)" stroke="rgb(193,229,213)" stroke-width="1" opacity="1" d="M 4.5 15 L 4.5 16 L 4.5 15 Z " /><path fill="rgb(193,229,213)" stroke="rgb(193,229,213)" stroke-width="1" opacity="1" d="M 19.5 16 Q 22 17 20.5 18 Q 18 17 19.5 16 Z " /><path fill="rgb(193,229,213)" stroke="rgb(193,229,213)" stroke-width="1" opacity="1" d="M 22.5 17 L 24 17.5 L 22.5 18 L 22.5 17 Z " /><path fill="rgb(193,229,213)" stroke="rgb(193,229,213)" stroke-width="1" opacity="1" d="M 26.5 18 L 26.5 19 L 26.5 18 Z " /><path fill="rgb(193,229,213)" stroke="rgb(193,229,213)" stroke-width="1" opacity="1" d="M 7.5 23 L 7.5 24 L 7.5 23 Z " /><path fill="rgb(102,194,153)" stroke="rgb(102,194,153)" stroke-width="1" opacity="1" d="M 5.5 6 L 5.5 7 L 5.5 6 Z " /><path fill="rgb(102,194,153)" stroke="rgb(102,194,153)" stroke-width="1" opacity="1" d="M 26.5 6 L 26.5 7 L 26.5 6 Z " /><path fill="rgb(102,194,153)" stroke="rgb(102,194,153)" stroke-width="1" opacity="1" d="M 21.5 7 L 21.5 8 L 21.5 7 Z " /><path fill="rgb(102,194,153)" stroke="rgb(102,194,153)" stroke-width="1" opacity="1" d="M 5.5 14 L 5.5 15 L 5.5 14 Z " /><path fill="rgb(102,194,153)" stroke="rgb(102,194,153)" stroke-width="1" opacity="1" d="M 17.5 14 L 17.5 15 L 17.5 14 Z " /><path fill="rgb(102,194,153)" stroke="rgb(102,194,153)" stroke-width="1" opacity="1" d="M 2.5 15 L 2.5 16 L 2.5 15 Z " /><path fill="rgb(102,194,153)" stroke="rgb(102,194,153)" stroke-width="1" opacity="1" d="M 4.5 16 L 4.5 17 L 4.5 16 Z " /><path fill="rgb(102,194,153)" stroke="rgb(102,194,153)" stroke-width="1" opacity="1" d="M 15.5 16 L 15.5 17 L 15.5 16 Z " /><path fill="rgb(102,194,153)" stroke="rgb(102,194,153)" stroke-width="1" opacity="1" d="M 21.5 24 L 21.5 25 L 21.5 24 Z " /><path fill="rgb(102,194,153)" stroke="rgb(102,194,153)" stroke-width="1" opacity="1" d="M 11.5 25 L 11.5 26 L 11.5 25 Z " /><path fill="rgb(241,248,244)" stroke="rgb(241,248,244)" stroke-width="1" opacity="1" d="M 10.5 6 L 10.5 7 L 10.5 6 Z " /><path fill="rgb(241,248,244)" stroke="rgb(241,248,244)" stroke-width="1" opacity="1" d="M 24.5 9 L 25 15.5 L 24 15.5 L 24.5 9 Z " /><path fill="rgb(241,248,244)" stroke="rgb(241,248,244)" stroke-width="1" opacity="1" d="M 7.5 15 L 7.5 16 L 7.5 15 Z " /><path fill="rgb(241,248,244)" stroke="rgb(241,248,244)" stroke-width="1" opacity="1" d="M 24.5 17 L 24 18.5 L 25 19.5 L 24.5 23 L 23 18.5 L 24.5 17 Z " /><path fill="rgb(241,248,244)" stroke="rgb(241,248,244)" stroke-width="1" opacity="1" d="M 27.5 18 L 29 18.5 L 27.5 19 L 27.5 18 Z " /><path fill="rgb(241,248,244)" stroke="rgb(241,248,244)" stroke-width="1" opacity="1" d="M 19.5 26 L 19.5 27 L 19.5 26 Z " /><path fill="rgb(241,248,244)" stroke="rgb(241,248,244)" stroke-width="1" opacity="1" d="M 27.5 26 L 27.5 27 L 27.5 26 Z " /><path fill="rgb(157,219,195)" stroke="rgb(157,219,195)" stroke-width="1" opacity="1" d="M 16.5 14 L 16.5 15 L 16.5 14 Z " /><path fill="rgb(157,219,195)" stroke="rgb(157,219,195)" stroke-width="1" opacity="1" d="M 20.5 15 Q 23 16 21.5 17 Q 18.71 17.67 20.5 15 Z " /><path fill="rgb(157,219,195)" stroke="rgb(157,219,195)" stroke-width="1" opacity="1" d="M 16.5 16 L 16.5 17 L 16.5 16 Z " /><path fill="rgb(157,219,195)" stroke="rgb(157,219,195)" stroke-width="1" opacity="1" d="M 26.5 17 L 26.5 18 L 26.5 17 Z " /><path fill="rgb(118,205,170)" stroke="rgb(118,205,170)" stroke-width="1" opacity="1" d="M 19.5 17 L 19.5 18 L 19.5 17 Z " /><path fill="rgb(118,205,170)" stroke="rgb(118,205,170)" stroke-width="1" opacity="1" d="M 28.5 19 L 28.5 20 L 28.5 19 Z " /><path fill="rgb(252,254,253)" stroke="rgb(252,254,253)" stroke-width="1" opacity="1" d="M 22.5 9 L 23 16.5 Q 21 17.5 23 18.5 L 22.5 23 L 22 18.5 L 21 17.5 L 22 16.5 L 22.5 9 Z " /><path fill="rgb(252,254,253)" stroke="rgb(252,254,253)" stroke-width="1" opacity="1" d="M 14.5 14 L 14.5 15 L 14.5 14 Z " /><path fill="rgb(252,254,253)" stroke="rgb(252,254,253)" stroke-width="1" opacity="1" d="M 24.5 18 L 24.5 19 L 24.5 18 Z " /><path fill="rgb(252,254,253)" stroke="rgb(252,254,253)" stroke-width="1" opacity="1" d="M 24.5 23 L 24.5 24 L 24.5 23 Z " /><path fill="rgb(252,254,253)" stroke="rgb(252,254,253)" stroke-width="1" opacity="1" d="M 7.5 25 L 7.5 26 L 7.5 25 Z " /><path fill="rgb(252,254,253)" stroke="rgb(252,254,253)" stroke-width="1" opacity="1" d="M 5.5 26 L 5.5 27 L 5.5 26 Z " /><path fill="rgb(252,254,253)" stroke="rgb(252,254,253)" stroke-width="1" opacity="1" d="M 12.5 26 L 12.5 27 L 12.5 26 Z " /><path fill="rgb(71,178,128)" stroke="rgb(71,178,128)" stroke-width="1" opacity="1" d="M 13.5 5 Q 15 6 12.5 7 Q 11 6 13.5 5 Z " /><path fill="rgb(71,178,128)" stroke="rgb(71,178,128)" stroke-width="1" opacity="1" d="M 25.5 7 L 25.5 8 L 25.5 7 Z " /><path fill="rgb(71,178,128)" stroke="rgb(71,178,128)" stroke-width="1" opacity="1" d="M 4.5 14 L 4.5 15 L 4.5 14 Z " /><path fill="rgb(71,178,128)" stroke="rgb(71,178,128)" stroke-width="1" opacity="1" d="M 21.5 15 L 21.5 16 L 21.5 15 Z " /><path fill="rgb(71,178,128)" stroke="rgb(71,178,128)" stroke-width="1" opacity="1" d="M 14.5 16 L 14.5 17 L 14.5 16 Z " /><path fill="rgb(71,178,128)" stroke="rgb(71,178,128)" stroke-width="1" opacity="1" d="M 27.5 17 L 27.5 18 L 27.5 17 Z " /><path fill="rgb(71,178,128)" stroke="rgb(71,178,128)" stroke-width="1" opacity="1" d="M 25.5 19 L 25.5 20 L 25.5 19 Z " /><path fill="rgb(71,178,128)" stroke="rgb(71,178,128)" stroke-width="1" opacity="1" d="M 25.5 24 Q 28 25 26.5 26 Q 24 25 25.5 24 Z " /><path fill="rgb(71,178,128)" stroke="rgb(71,178,128)" stroke-width="1" opacity="1" d="M 20.5 25 L 20.5 26 L 20.5 25 Z " /><path fill="rgb(71,178,128)" stroke="rgb(71,178,128)" stroke-width="1" opacity="1" d="M 5.5 27 L 13 27.5 L 5.5 28 L 5.5 27 Z " /><path fill="rgb(71,178,128)" stroke="rgb(71,178,128)" stroke-width="1" opacity="1" d="M 19.5 27 L 28 27.5 L 19.5 28 L 19.5 27 Z " /><path fill="rgb(143,208,179)" stroke="rgb(143,208,179)" stroke-width="1" opacity="1" d="M 6.5 6 L 6.5 7 L 6.5 6 Z " /><path fill="rgb(143,208,179)" stroke="rgb(143,208,179)" stroke-width="1" opacity="1" d="M 11.5 6 L 11.5 7 L 11.5 6 Z " /><path fill="rgb(143,208,179)" stroke="rgb(143,208,179)" stroke-width="1" opacity="1" d="M 10.5 8 L 10.5 9 L 10.5 8 Z " /><path fill="rgb(143,208,179)" stroke="rgb(143,208,179)" stroke-width="1" opacity="1" d="M 10.5 13 L 10.5 14 L 10.5 13 Z " /><path fill="rgb(143,208,179)" stroke="rgb(143,208,179)" stroke-width="1" opacity="1" d="M 6.5 14 L 6.5 15 L 6.5 14 Z " /><path fill="rgb(143,208,179)" stroke="rgb(143,208,179)" stroke-width="1" opacity="1" d="M 3.5 15 L 4 16.5 L 3 16.5 L 3.5 15 Z " /><path fill="rgb(143,208,179)" stroke="rgb(143,208,179)" stroke-width="1" opacity="1" d="M 26.5 19 L 28 19.5 L 26.5 20 L 26.5 19 Z " /><path fill="rgb(143,208,179)" stroke="rgb(143,208,179)" stroke-width="1" opacity="1" d="M 10.5 23 L 10.5 24 L 10.5 23 Z " /><path fill="rgb(143,208,179)" stroke="rgb(143,208,179)" stroke-width="1" opacity="1" d="M 4.5 26 L 4.5 27 L 4.5 26 Z " /><path fill="rgb(38,171,114)" stroke="rgb(38,171,114)" stroke-width="1" opacity="1" d="M 18.5 5 Q 21 6 19.5 7 Q 17 6 18.5 5 Z " /><path fill="rgb(38,171,114)" stroke="rgb(38,171,114)" stroke-width="1" opacity="1" d="M 27.5 6 L 27.5 7 L 27.5 6 Z " /><path fill="rgb(38,171,114)" stroke="rgb(38,171,114)" stroke-width="1" opacity="1" d="M 21.5 8 L 21.5 9 L 21.5 8 Z " /><path fill="rgb(38,171,114)" stroke="rgb(38,171,114)" stroke-width="1" opacity="1" d="M 25.5 8 L 25.5 9 L 25.5 8 Z " /><path fill="rgb(38,171,114)" stroke="rgb(38,171,114)" stroke-width="1" opacity="1" d="M 11.5 13 L 13 13.5 L 11.5 14 L 11.5 13 Z " /><path fill="rgb(38,171,114)" stroke="rgb(38,171,114)" stroke-width="1" opacity="1" d="M 2.5 14 L 4 14.5 L 2.5 15 L 2.5 14 Z " /><path fill="rgb(38,171,114)" stroke="rgb(38,171,114)" stroke-width="1" opacity="1" d="M 18.5 14 L 18.5 15 L 18.5 14 Z " /><path fill="rgb(38,171,114)" stroke="rgb(38,171,114)" stroke-width="1" opacity="1" d="M 5.5 16 L 5.5 17 L 5.5 16 Z " /><path fill="rgb(38,171,114)" stroke="rgb(38,171,114)" stroke-width="1" opacity="1" d="M 13.5 16 L 13.5 17 L 13.5 16 Z " /><path fill="rgb(38,171,114)" stroke="rgb(38,171,114)" stroke-width="1" opacity="1" d="M 18.5 17 L 18.5 18 L 18.5 17 Z " /><path fill="rgb(38,171,114)" stroke="rgb(38,171,114)" stroke-width="1" opacity="1" d="M 28.5 20 L 30 20.5 L 28.5 21 L 28.5 20 Z " /><path fill="rgb(38,171,114)" stroke="rgb(38,171,114)" stroke-width="1" opacity="1" d="M 21.5 23 L 21.5 24 L 21.5 23 Z " /><path fill="rgb(38,171,114)" stroke="rgb(38,171,114)" stroke-width="1" opacity="1" d="M 5.5 25 L 5.5 26 L 5.5 25 Z " /><path fill="rgb(38,171,114)" stroke="rgb(38,171,114)" stroke-width="1" opacity="1" d="M 12.5 25 L 12.5 26 L 12.5 25 Z " /><path fill="rgb(38,171,114)" stroke="rgb(38,171,114)" stroke-width="1" opacity="1" d="M 4.5 27 L 4.5 28 L 4.5 27 Z " /><path fill="rgb(38,171,114)" stroke="rgb(38,171,114)" stroke-width="1" opacity="1" d="M 13.5 27 L 13.5 28 L 13.5 27 Z " /><path fill="rgb(173,216,193)" stroke="rgb(173,216,193)" stroke-width="1" opacity="1" d="M 7.5 9 L 8 12.5 L 7 12.5 L 7.5 9 Z " /><path fill="rgb(173,216,193)" stroke="rgb(173,216,193)" stroke-width="1" opacity="1" d="M 7.5 16 L 8 22.5 L 7 22.5 L 7.5 16 Z " /><path fill="rgb(126,197,161)" stroke="rgb(126,197,161)" stroke-width="1" opacity="1" d="M 20.5 6 L 20.5 7 L 20.5 6 Z " /><path fill="rgb(126,197,161)" stroke="rgb(126,197,161)" stroke-width="1" opacity="1" d="M 10.5 9 L 11 12.5 L 10 12.5 L 10.5 9 Z " /><path fill="rgb(126,197,161)" stroke="rgb(126,197,161)" stroke-width="1" opacity="1" d="M 10.5 16 L 11 22.5 L 10 22.5 L 10.5 16 Z " /><path fill="rgb(126,197,161)" stroke="rgb(126,197,161)" stroke-width="1" opacity="1" d="M 6.5 25 L 6.5 26 L 6.5 25 Z " /><path fill="rgb(126,197,161)" stroke="rgb(126,197,161)" stroke-width="1" opacity="1" d="M 13.5 26 L 13.5 27 L 13.5 26 Z " /><path fill="rgb(11,166,104)" stroke="rgb(11,166,104)" stroke-width="1" opacity="1" d="M 4.5 6 L 4.5 7 L 4.5 6 Z " /><path fill="rgb(11,166,104)" stroke="rgb(11,166,104)" stroke-width="1" opacity="1" d="M 13.5 13 L 13.5 14 L 13.5 13 Z " /><path fill="rgb(11,166,104)" stroke="rgb(11,166,104)" stroke-width="1" opacity="1" d="M 6.5 16 L 6.5 17 L 6.5 16 Z " /><path fill="rgb(11,166,104)" stroke="rgb(11,166,104)" stroke-width="1" opacity="1" d="M 12.5 16 L 12.5 17 L 12.5 16 Z " /><path fill="rgb(11,166,104)" stroke="rgb(11,166,104)" stroke-width="1" opacity="1" d="M 28.5 17 L 28.5 18 L 28.5 17 Z " /><path fill="rgb(11,166,104)" stroke="rgb(11,166,104)" stroke-width="1" opacity="1" d="M 21.5 18 L 21.5 19 L 21.5 18 Z " /><path fill="rgb(230,245,238)" stroke="rgb(230,245,238)" stroke-width="1" opacity="1" d="M 7.5 7 L 7.5 8 L 7.5 7 Z " /><path fill="rgb(230,245,238)" stroke="rgb(230,245,238)" stroke-width="1" opacity="1" d="M 6.5 15 L 6.5 16 L 6.5 15 Z " /><path fill="rgb(230,245,238)" stroke="rgb(230,245,238)" stroke-width="1" opacity="1" d="M 10.5 15 L 12 15.5 L 10.5 16 L 10.5 15 Z " /><path fill="rgb(230,245,238)" stroke="rgb(230,245,238)" stroke-width="1" opacity="1" d="M 19.5 15 Q 21 16 18.5 17 L 17 16.5 L 19.5 15 Z " /><path fill="rgb(230,245,238)" stroke="rgb(230,245,238)" stroke-width="1" opacity="1" d="M 23.5 16 L 26 17.5 L 24.5 17 Q 22.12 16.88 23.5 16 Z " /><path fill="rgb(230,245,238)" stroke="rgb(230,245,238)" stroke-width="1" opacity="1" d="M 7.5 24 L 7.5 25 L 7.5 24 Z " /><path fill="rgb(230,245,238)" stroke="rgb(230,245,238)" stroke-width="1" opacity="1" d="M 10.5 25 L 10.5 26 L 10.5 25 Z " /><path fill="rgb(178,222,202)" stroke="rgb(178,222,202)" stroke-width="1" opacity="1" d="M 4.5 5 L 4.5 6 L 4.5 5 Z " /><path fill="rgb(178,222,202)" stroke="rgb(178,222,202)" stroke-width="1" opacity="1" d="M 10.5 7 L 10.5 8 L 10.5 7 Z " /><path fill="rgb(178,222,202)" stroke="rgb(178,222,202)" stroke-width="1" opacity="1" d="M 7.5 13 L 8 14.5 L 7 14.5 L 7.5 13 Z " /><path fill="rgb(178,222,202)" stroke="rgb(178,222,202)" stroke-width="1" opacity="1" d="M 2.5 16 L 2.5 17 L 2.5 16 Z " /><path fill="rgb(178,222,202)" stroke="rgb(178,222,202)" stroke-width="1" opacity="1" d="M 29.5 18 L 30 19.5 L 29 19.5 L 29.5 18 Z " /><path fill="rgb(178,222,202)" stroke="rgb(178,222,202)" stroke-width="1" opacity="1" d="M 10.5 24 L 10.5 25 L 10.5 24 Z " /><path fill="rgb(178,222,202)" stroke="rgb(178,222,202)" stroke-width="1" opacity="1" d="M 21.5 25 L 21.5 26 L 21.5 25 Z " /><path fill="rgb(178,222,202)" stroke="rgb(178,222,202)" stroke-width="1" opacity="1" d="M 25.5 25 L 25.5 26 L 25.5 25 Z " /></svg>