<svg width="48" height="48" version="1.1" xmlns="http://www.w3.org/2000/svg" desc="Created with imagetracer.js version 1.2.6" ><path fill="rgb(252,253,251)" stroke="rgb(252,253,251)" stroke-width="1" opacity="1" d="M 26.5 17 L 26.5 18 L 26.5 17 Z " /><path fill="rgb(252,253,251)" stroke="rgb(252,253,251)" stroke-width="1" opacity="1" d="M 26.5 19 L 26.5 20 L 26.5 19 Z " /><path fill="rgb(252,253,251)" stroke="rgb(252,253,251)" stroke-width="1" opacity="1" d="M 28.5 21 L 28.5 22 L 28.5 21 Z " /><path fill="rgb(252,253,251)" stroke="rgb(252,253,251)" stroke-width="1" opacity="1" d="M 30.5 21 L 30.5 22 L 30.5 21 Z " /><path fill="rgb(252,253,251)" stroke="rgb(252,253,251)" stroke-width="1" opacity="1" d="M 26.5 28 L 26.5 29 L 26.5 28 Z " /><path fill="rgb(252,253,251)" stroke="rgb(252,253,251)" stroke-width="1" opacity="1" d="M 27.5 32 L 32 36.5 L 31.5 37 L 27 32.5 L 27.5 32 Z " /><path fill="rgb(252,253,251)" stroke="rgb(252,253,251)" stroke-width="1" opacity="1" d="M 36.5 32 L 36.5 33 L 36.5 32 Z " /><path fill="rgb(254,255,255)" stroke="rgb(254,255,255)" stroke-width="1" opacity="0.996078431372549" d="M 23.5 0 L 25 0.5 L 23.5 1 L 23.5 0 Z " /><path fill="rgb(254,255,255)" stroke="rgb(254,255,255)" stroke-width="1" opacity="0.996078431372549" d="M 18.5 1 L 18.5 2 L 18.5 1 Z " /><path fill="rgb(254,255,255)" stroke="rgb(254,255,255)" stroke-width="1" opacity="0.996078431372549" d="M 29.5 1 L 29.5 2 L 29.5 1 Z " /><path fill="rgb(254,255,255)" stroke="rgb(254,255,255)" stroke-width="1" opacity="0.996078431372549" d="M 15.5 2 L 15.5 3 L 15.5 2 Z " /><path fill="rgb(254,255,255)" stroke="rgb(254,255,255)" stroke-width="1" opacity="0.996078431372549" d="M 32.5 2 L 32.5 3 L 32.5 2 Z " /><path fill="rgb(254,255,255)" stroke="rgb(254,255,255)" stroke-width="1" opacity="0.996078431372549" d="M 11.5 4 L 11.5 5 L 11.5 4 Z " /><path fill="rgb(254,255,255)" stroke="rgb(254,255,255)" stroke-width="1" opacity="0.996078431372549" d="M 36.5 4 L 36.5 5 L 36.5 4 Z " /><path fill="rgb(254,255,255)" stroke="rgb(254,255,255)" stroke-width="1" opacity="0.996078431372549" d="M 4.5 11 L 4.5 12 L 4.5 11 Z " /><path fill="rgb(254,255,255)" stroke="rgb(254,255,255)" stroke-width="1" opacity="0.996078431372549" d="M 1.5 18 L 1.5 19 L 1.5 18 Z " /><path fill="rgb(254,255,255)" stroke="rgb(254,255,255)" stroke-width="1" opacity="0.996078431372549" d="M 46.5 18 L 46.5 19 L 46.5 18 Z " /><path fill="rgb(254,255,255)" stroke="rgb(254,255,255)" stroke-width="1" opacity="0.996078431372549" d="M 47.5 22 L 47.5 23 L 47.5 22 Z " /><path fill="rgb(254,255,255)" stroke="rgb(254,255,255)" stroke-width="1" opacity="0.996078431372549" d="M 0.5 23 L 1 24.5 L 0 24.5 L 0.5 23 Z " /><path fill="rgb(254,255,255)" stroke="rgb(254,255,255)" stroke-width="1" opacity="0.996078431372549" d="M 47.5 25 L 47.5 26 L 47.5 25 Z " /><path fill="rgb(254,255,255)" stroke="rgb(254,255,255)" stroke-width="1" opacity="0.996078431372549" d="M 29.5 26 L 29.5 27 L 29.5 26 Z " /><path fill="rgb(254,255,255)" stroke="rgb(254,255,255)" stroke-width="1" opacity="0.996078431372549" d="M 1.5 29 L 1.5 30 L 1.5 29 Z " /><path fill="rgb(254,255,255)" stroke="rgb(254,255,255)" stroke-width="1" opacity="0.996078431372549" d="M 46.5 29 L 46.5 30 L 46.5 29 Z " /><path fill="rgb(254,255,255)" stroke="rgb(254,255,255)" stroke-width="1" opacity="0.996078431372549" d="M 11.5 36 L 11.5 37 L 11.5 36 Z " /><path fill="rgb(254,255,255)" stroke="rgb(254,255,255)" stroke-width="1" opacity="0.996078431372549" d="M 11.5 43 L 11.5 44 L 11.5 43 Z " /><path fill="rgb(254,255,255)" stroke="rgb(254,255,255)" stroke-width="1" opacity="0.996078431372549" d="M 18.5 46 L 18.5 47 L 18.5 46 Z " /><path fill="rgb(254,255,255)" stroke="rgb(254,255,255)" stroke-width="1" opacity="0.996078431372549" d="M 29.5 46 L 29.5 47 L 29.5 46 Z " /><path fill="rgb(254,255,255)" stroke="rgb(254,255,255)" stroke-width="1" opacity="0.996078431372549" d="M 22.5 47 L 22.5 48 L 22.5 47 Z " /><path fill="rgb(254,255,255)" stroke="rgb(254,255,255)" stroke-width="1" opacity="0.996078431372549" d="M 25.5 47 L 25.5 48 L 25.5 47 Z " /><path fill="rgb(255,255,255)" stroke="rgb(255,255,255)" stroke-width="1" opacity="1" d="M 19.5 1 L 28.5 1 L 34.5 3 L 44 11.5 L 46 15.5 L 46 18.5 L 48 24.5 L 44 36.5 L 36.5 44 L 32.5 46 L 29.5 46 L 23.5 48 L 22.5 47 L 19.5 47 L 13.5 45 L 4 36.5 L 1 28.5 L 1 19.5 L 3 13.5 L 10.5 5 L 19.5 1 Z M 23 7 Q 20 8 21 12 Q 22 14 26 13 Q 28 12 27 9 Q 26 6 23 7 Z M 13 11 L 11 13 L 11 16 L 19 24 L 11 33 Q 9 39 16 37 L 27 26 L 27 23 L 16 11 L 13 11 Z M 33 11 L 26 18 L 26 20 Q 26 22 31 22 L 37 16 L 37 13 Q 36 10 33 11 Z M 9 21 Q 6 22 7 26 Q 8 28 12 27 Q 14 26 13 23 Q 12 20 9 21 Z M 37 21 Q 34 22 35 26 Q 36 28 40 27 Q 42 26 41 23 Q 40 20 37 21 Z M 30 26 L 26 29 L 27 33 L 32 37 L 36 37 Q 38 36 37 33 L 30 26 Z M 23 35 Q 20 36 21 40 Q 22 42 26 41 Q 28 40 27 37 Q 26 34 23 35 Z " /><path fill="rgb(0,0,0)" stroke="rgb(0,0,0)" stroke-width="1" opacity="0" d="M 0 0 L 16 0.5 L 11.5 2 L 5 7.5 L 0.5 16 L 0 0 Z " /><path fill="rgb(0,0,0)" stroke="rgb(0,0,0)" stroke-width="1" opacity="0" d="M 32.5 0 L 48 0 L 48 15.5 L 47 15.5 L 47 13.5 L 40.5 5 L 36.5 2 L 32.5 1 L 32.5 0 Z " /><path fill="rgb(0,0,0)" stroke="rgb(0,0,0)" stroke-width="1" opacity="0" d="M 0.5 32 L 1 34.5 L 7.5 43 L 11.5 46 L 16 47.5 L 0 48 L 0.5 32 Z " /><path fill="rgb(0,0,0)" stroke="rgb(0,0,0)" stroke-width="1" opacity="0" d="M 47.5 32 L 48 48 L 32 47.5 L 36.5 46 L 43 40.5 L 46 36.5 L 47.5 32 Z " /><path fill="rgb(224,240,224)" stroke="rgb(224,240,224)" stroke-width="1" opacity="1" d="M 31.5 12 L 32 12.5 L 27.5 17 L 27 16.5 L 31.5 12 Z " /><path fill="rgb(224,240,224)" stroke="rgb(224,240,224)" stroke-width="1" opacity="1" d="M 35.5 16 L 36 16.5 L 31.5 21 L 31 20.5 L 35.5 16 Z " /><path fill="rgb(224,240,224)" stroke="rgb(224,240,224)" stroke-width="1" opacity="1" d="M 8.5 21 Q 10 22 7.5 23 Q 6 22 8.5 21 Z " /><path fill="rgb(224,240,224)" stroke="rgb(224,240,224)" stroke-width="1" opacity="1" d="M 12.5 23 L 13 24.5 L 12 24.5 L 12.5 23 Z " /><path fill="rgb(224,240,224)" stroke="rgb(224,240,224)" stroke-width="1" opacity="1" d="M 7.5 25 Q 10 26 8.5 27 Q 6 26 7.5 25 Z " /><path fill="rgb(224,240,224)" stroke="rgb(224,240,224)" stroke-width="1" opacity="1" d="M 11.5 32 L 11.5 33 L 11.5 32 Z " /><path fill="rgb(224,240,224)" stroke="rgb(224,240,224)" stroke-width="1" opacity="1" d="M 36.5 33 L 37 34.5 L 36 34.5 L 36.5 33 Z " /><path fill="rgb(224,240,224)" stroke="rgb(224,240,224)" stroke-width="1" opacity="1" d="M 32.5 36 L 32.5 37 L 32.5 36 Z " /><path fill="rgb(238,247,244)" stroke="rgb(238,247,244)" stroke-width="1" opacity="1" d="M 21.5 11 Q 24 12 22.5 13 Q 20 12 21.5 11 Z " /><path fill="rgb(238,247,244)" stroke="rgb(238,247,244)" stroke-width="1" opacity="1" d="M 26.5 11 Q 28 12 25.5 13 Q 24 12 26.5 11 Z " /><path fill="rgb(238,247,244)" stroke="rgb(238,247,244)" stroke-width="1" opacity="1" d="M 32.5 11 L 32.5 12 L 32.5 11 Z " /><path fill="rgb(238,247,244)" stroke="rgb(238,247,244)" stroke-width="1" opacity="1" d="M 35.5 11 Q 38 12 36.5 13 Q 34 12 35.5 11 Z " /><path fill="rgb(238,247,244)" stroke="rgb(238,247,244)" stroke-width="1" opacity="1" d="M 36.5 15 L 36.5 16 L 36.5 15 Z " /><path fill="rgb(238,247,244)" stroke="rgb(238,247,244)" stroke-width="1" opacity="1" d="M 26.5 18 L 26.5 19 L 26.5 18 Z " /><path fill="rgb(238,247,244)" stroke="rgb(238,247,244)" stroke-width="1" opacity="1" d="M 27.5 20 L 27.5 21 L 27.5 20 Z " /><path fill="rgb(238,247,244)" stroke="rgb(238,247,244)" stroke-width="1" opacity="1" d="M 11.5 21 Q 14 22 12.5 23 Q 10 22 11.5 21 Z " /><path fill="rgb(238,247,244)" stroke="rgb(238,247,244)" stroke-width="1" opacity="1" d="M 29.5 21 L 29.5 22 L 29.5 21 Z " /><path fill="rgb(238,247,244)" stroke="rgb(238,247,244)" stroke-width="1" opacity="1" d="M 36.5 21 Q 38 22 35.5 23 Q 34 22 36.5 21 Z " /><path fill="rgb(238,247,244)" stroke="rgb(238,247,244)" stroke-width="1" opacity="1" d="M 26.5 22 L 26.5 23 L 26.5 22 Z " /><path fill="rgb(238,247,244)" stroke="rgb(238,247,244)" stroke-width="1" opacity="1" d="M 12.5 25 Q 14 26 11.5 27 Q 10 26 12.5 25 Z " /><path fill="rgb(238,247,244)" stroke="rgb(238,247,244)" stroke-width="1" opacity="1" d="M 26.5 25 L 26.5 26 L 26.5 25 Z " /><path fill="rgb(238,247,244)" stroke="rgb(238,247,244)" stroke-width="1" opacity="1" d="M 35.5 25 Q 38 26 36.5 27 Q 34 26 35.5 25 Z " /><path fill="rgb(238,247,244)" stroke="rgb(238,247,244)" stroke-width="1" opacity="1" d="M 27.5 27 L 27.5 28 L 27.5 27 Z " /><path fill="rgb(238,247,244)" stroke="rgb(238,247,244)" stroke-width="1" opacity="1" d="M 31.5 27 L 36 31.5 L 35.5 32 L 31 27.5 L 31.5 27 Z " /><path fill="rgb(238,247,244)" stroke="rgb(238,247,244)" stroke-width="1" opacity="1" d="M 26.5 29 L 27 30.5 L 26 30.5 L 26.5 29 Z " /><path fill="rgb(238,247,244)" stroke="rgb(238,247,244)" stroke-width="1" opacity="1" d="M 22.5 35 Q 24 36 21.5 37 Q 20 36 22.5 35 Z " /><path fill="rgb(238,247,244)" stroke="rgb(238,247,244)" stroke-width="1" opacity="1" d="M 25.5 35 Q 28 36 26.5 37 Q 24 36 25.5 35 Z " /><path fill="rgb(238,247,244)" stroke="rgb(238,247,244)" stroke-width="1" opacity="1" d="M 36.5 35 Q 38 36 35.5 37 Q 34 36 36.5 35 Z " /><path fill="rgb(47,104,162)" stroke="rgb(47,104,162)" stroke-width="1" opacity="1" d="M 12.5 12 L 12.5 13 L 12.5 12 Z " /><path fill="rgb(47,104,162)" stroke="rgb(47,104,162)" stroke-width="1" opacity="1" d="M 15.5 12 L 24 21.5 L 23 21.5 L 15 12.5 L 15.5 12 Z " /><path fill="rgb(47,104,162)" stroke="rgb(47,104,162)" stroke-width="1" opacity="1" d="M 12.5 15 L 20.5 23 L 22 22.5 L 20.5 24 L 12 15.5 L 12.5 15 Z " /><path fill="rgb(140,202,123)" stroke="rgb(140,202,123)" stroke-width="1" opacity="1" d="M 32.5 12 L 33 12.5 L 28.5 17 L 28 16.5 L 32.5 12 Z " /><path fill="rgb(140,202,123)" stroke="rgb(140,202,123)" stroke-width="1" opacity="1" d="M 35.5 15 L 36 15.5 L 31.5 20 L 31 19.5 L 35.5 15 Z " /><path fill="rgb(140,202,123)" stroke="rgb(140,202,123)" stroke-width="1" opacity="1" d="M 27.5 18 L 27.5 19 L 27.5 18 Z " /><path fill="rgb(140,202,123)" stroke="rgb(140,202,123)" stroke-width="1" opacity="1" d="M 29.5 20 L 29.5 21 L 29.5 20 Z " /><path fill="rgb(140,202,123)" stroke="rgb(140,202,123)" stroke-width="1" opacity="1" d="M 8.5 22 L 8.5 23 L 8.5 22 Z " /><path fill="rgb(140,202,123)" stroke="rgb(140,202,123)" stroke-width="1" opacity="1" d="M 8.5 25 L 8.5 26 L 8.5 25 Z " /><path fill="rgb(140,202,123)" stroke="rgb(140,202,123)" stroke-width="1" opacity="1" d="M 27.5 29 L 28 30.5 L 27 30.5 L 27.5 29 Z " /><path fill="rgb(12,75,143)" stroke="rgb(12,75,143)" stroke-width="1" opacity="1" d="M 13.5 12 L 23 20.5 Q 23.75 22.75 21.5 22 L 20.5 23 L 12 14.5 L 13.5 12 Z " /><path fill="rgb(190,218,197)" stroke="rgb(190,218,197)" stroke-width="1" opacity="1" d="M 33.5 11 L 35 11.5 L 33.5 12 L 33.5 11 Z " /><path fill="rgb(190,218,197)" stroke="rgb(190,218,197)" stroke-width="1" opacity="1" d="M 36.5 13 L 37 14.5 L 36 14.5 L 36.5 13 Z " /><path fill="rgb(190,218,197)" stroke="rgb(190,218,197)" stroke-width="1" opacity="1" d="M 9.5 21 L 11 21.5 L 9.5 22 L 9.5 21 Z " /><path fill="rgb(190,218,197)" stroke="rgb(190,218,197)" stroke-width="1" opacity="1" d="M 9.5 26 L 11 26.5 L 9.5 27 L 9.5 26 Z " /><path fill="rgb(190,218,197)" stroke="rgb(190,218,197)" stroke-width="1" opacity="1" d="M 28.5 27 L 28.5 28 L 28.5 27 Z " /><path fill="rgb(190,218,197)" stroke="rgb(190,218,197)" stroke-width="1" opacity="1" d="M 30.5 27 L 30.5 28 L 30.5 27 Z " /><path fill="rgb(190,218,197)" stroke="rgb(190,218,197)" stroke-width="1" opacity="1" d="M 27.5 31 L 32 35.5 L 31.5 36 L 27 31.5 L 27.5 31 Z " /><path fill="rgb(190,218,197)" stroke="rgb(190,218,197)" stroke-width="1" opacity="1" d="M 34.5 36 L 34.5 37 L 34.5 36 Z " /><path fill="rgb(255,255,255)" stroke="rgb(255,255,255)" stroke-width="1" opacity="0.9490196078431372" d="M 22.5 0 L 22.5 1 L 22.5 0 Z " /><path fill="rgb(255,255,255)" stroke="rgb(255,255,255)" stroke-width="1" opacity="0.9490196078431372" d="M 25.5 0 L 25.5 1 L 25.5 0 Z " /><path fill="rgb(255,255,255)" stroke="rgb(255,255,255)" stroke-width="1" opacity="0.9490196078431372" d="M 8.5 6 L 9 6.5 L 6.5 9 L 6 8.5 L 8.5 6 Z " /><path fill="rgb(255,255,255)" stroke="rgb(255,255,255)" stroke-width="1" opacity="0.9490196078431372" d="M 39.5 6 L 42 8.5 L 41.5 9 L 39 6.5 L 39.5 6 Z " /><path fill="rgb(255,255,255)" stroke="rgb(255,255,255)" stroke-width="1" opacity="0.9490196078431372" d="M 46.5 17 L 46.5 18 L 46.5 17 Z " /><path fill="rgb(255,255,255)" stroke="rgb(255,255,255)" stroke-width="1" opacity="0.9490196078431372" d="M 47.5 21 L 47.5 22 L 47.5 21 Z " /><path fill="rgb(255,255,255)" stroke="rgb(255,255,255)" stroke-width="1" opacity="0.9490196078431372" d="M 0.5 22 L 0.5 23 L 0.5 22 Z " /><path fill="rgb(255,255,255)" stroke="rgb(255,255,255)" stroke-width="1" opacity="0.9490196078431372" d="M 0.5 25 L 0.5 26 L 0.5 25 Z " /><path fill="rgb(255,255,255)" stroke="rgb(255,255,255)" stroke-width="1" opacity="0.9490196078431372" d="M 47.5 26 L 47.5 27 L 47.5 26 Z " /><path fill="rgb(255,255,255)" stroke="rgb(255,255,255)" stroke-width="1" opacity="0.9490196078431372" d="M 46.5 30 L 46.5 31 L 46.5 30 Z " /><path fill="rgb(255,255,255)" stroke="rgb(255,255,255)" stroke-width="1" opacity="0.9490196078431372" d="M 6.5 39 L 9 41.5 L 8.5 42 L 6 39.5 L 6.5 39 Z " /><path fill="rgb(255,255,255)" stroke="rgb(255,255,255)" stroke-width="1" opacity="0.9490196078431372" d="M 41.5 39 L 42 39.5 L 39.5 42 L 39 41.5 L 41.5 39 Z " /><path fill="rgb(255,255,255)" stroke="rgb(255,255,255)" stroke-width="1" opacity="0.9490196078431372" d="M 17.5 46 L 17.5 47 L 17.5 46 Z " /><path fill="rgb(255,255,255)" stroke="rgb(255,255,255)" stroke-width="1" opacity="0.9490196078431372" d="M 30.5 46 L 30.5 47 L 30.5 46 Z " /><path fill="rgb(255,255,255)" stroke="rgb(255,255,255)" stroke-width="1" opacity="0.9490196078431372" d="M 21.5 47 L 21.5 48 L 21.5 47 Z " /><path fill="rgb(255,255,255)" stroke="rgb(255,255,255)" stroke-width="1" opacity="0.9490196078431372" d="M 26.5 47 L 26.5 48 L 26.5 47 Z " /><path fill="rgb(121,194,102)" stroke="rgb(121,194,102)" stroke-width="1" opacity="1" d="M 32.5 13 L 32.5 14 L 32.5 13 Z " /><path fill="rgb(121,194,102)" stroke="rgb(121,194,102)" stroke-width="1" opacity="1" d="M 34.5 15 L 34.5 16 L 34.5 15 Z " /><path fill="rgb(121,194,102)" stroke="rgb(121,194,102)" stroke-width="1" opacity="1" d="M 28.5 17 L 28.5 18 L 28.5 17 Z " /><path fill="rgb(121,194,102)" stroke="rgb(121,194,102)" stroke-width="1" opacity="1" d="M 28.5 19 L 28.5 20 L 28.5 19 Z " /><path fill="rgb(121,194,102)" stroke="rgb(121,194,102)" stroke-width="1" opacity="1" d="M 30.5 19 L 30.5 20 L 30.5 19 Z " /><path fill="rgb(121,194,102)" stroke="rgb(121,194,102)" stroke-width="1" opacity="1" d="M 9.5 22 L 9 23.5 L 10 25.5 Q 9 27 8 24.5 L 9.5 22 Z " /><path fill="rgb(121,194,102)" stroke="rgb(121,194,102)" stroke-width="1" opacity="1" d="M 28.5 28 L 30 28.5 L 28.5 29 L 28.5 28 Z " /><path fill="rgb(121,194,102)" stroke="rgb(121,194,102)" stroke-width="1" opacity="1" d="M 33.5 35 L 35 35.5 L 33.5 36 L 33.5 35 Z " /><path fill="rgb(164,210,160)" stroke="rgb(164,210,160)" stroke-width="1" opacity="1" d="M 35.5 12 L 35.5 13 L 35.5 12 Z " /><path fill="rgb(164,210,160)" stroke="rgb(164,210,160)" stroke-width="1" opacity="1" d="M 27.5 17 L 27.5 18 L 27.5 17 Z " /><path fill="rgb(164,210,160)" stroke="rgb(164,210,160)" stroke-width="1" opacity="1" d="M 27.5 19 Q 30 20 28.5 21 Q 26 20 27.5 19 Z " /><path fill="rgb(164,210,160)" stroke="rgb(164,210,160)" stroke-width="1" opacity="1" d="M 30.5 20 L 30.5 21 L 30.5 20 Z " /><path fill="rgb(164,210,160)" stroke="rgb(164,210,160)" stroke-width="1" opacity="1" d="M 11.5 22 L 11.5 23 L 11.5 22 Z " /><path fill="rgb(164,210,160)" stroke="rgb(164,210,160)" stroke-width="1" opacity="1" d="M 7.5 23 L 8 24.5 L 7 24.5 L 7.5 23 Z " /><path fill="rgb(164,210,160)" stroke="rgb(164,210,160)" stroke-width="1" opacity="1" d="M 11.5 25 L 11.5 26 L 11.5 25 Z " /><path fill="rgb(164,210,160)" stroke="rgb(164,210,160)" stroke-width="1" opacity="1" d="M 29.5 27 L 29.5 28 L 29.5 27 Z " /><path fill="rgb(164,210,160)" stroke="rgb(164,210,160)" stroke-width="1" opacity="1" d="M 27.5 28 L 27.5 29 L 27.5 28 Z " /><path fill="rgb(164,210,160)" stroke="rgb(164,210,160)" stroke-width="1" opacity="1" d="M 31.5 28 L 36 32.5 L 35.5 33 L 31 28.5 L 31.5 28 Z " /><path fill="rgb(164,210,160)" stroke="rgb(164,210,160)" stroke-width="1" opacity="1" d="M 35.5 35 L 35.5 36 L 35.5 35 Z " /><path fill="rgb(164,210,160)" stroke="rgb(164,210,160)" stroke-width="1" opacity="1" d="M 33.5 36 L 33.5 37 L 33.5 36 Z " /><path fill="rgb(255,255,255)" stroke="rgb(255,255,255)" stroke-width="1" opacity="0.7176470588235294" d="M 19.5 0 L 21 0.5 L 19.5 1 L 19.5 0 Z " /><path fill="rgb(255,255,255)" stroke="rgb(255,255,255)" stroke-width="1" opacity="0.7176470588235294" d="M 27.5 0 L 29 0.5 L 27.5 1 L 27.5 0 Z " /><path fill="rgb(255,255,255)" stroke="rgb(255,255,255)" stroke-width="1" opacity="0.7176470588235294" d="M 16.5 1 L 16.5 2 L 16.5 1 Z " /><path fill="rgb(255,255,255)" stroke="rgb(255,255,255)" stroke-width="1" opacity="0.7176470588235294" d="M 31.5 1 L 31.5 2 L 31.5 1 Z " /><path fill="rgb(255,255,255)" stroke="rgb(255,255,255)" stroke-width="1" opacity="0.7176470588235294" d="M 13.5 2 L 13.5 3 L 13.5 2 Z " /><path fill="rgb(255,255,255)" stroke="rgb(255,255,255)" stroke-width="1" opacity="0.7176470588235294" d="M 34.5 2 L 34.5 3 L 34.5 2 Z " /><path fill="rgb(255,255,255)" stroke="rgb(255,255,255)" stroke-width="1" opacity="0.7176470588235294" d="M 36.5 3 Q 39 4 37.5 5 Q 35 4 36.5 3 Z " /><path fill="rgb(255,255,255)" stroke="rgb(255,255,255)" stroke-width="1" opacity="0.7176470588235294" d="M 10.5 4 L 10.5 5 L 10.5 4 Z " /><path fill="rgb(255,255,255)" stroke="rgb(255,255,255)" stroke-width="1" opacity="0.7176470588235294" d="M 4.5 10 L 4.5 11 L 4.5 10 Z " /><path fill="rgb(255,255,255)" stroke="rgb(255,255,255)" stroke-width="1" opacity="0.7176470588235294" d="M 43.5 10 Q 46 11 44.5 12 Q 42 11 43.5 10 Z " /><path fill="rgb(255,255,255)" stroke="rgb(255,255,255)" stroke-width="1" opacity="0.7176470588235294" d="M 2.5 13 L 2.5 14 L 2.5 13 Z " /><path fill="rgb(255,255,255)" stroke="rgb(255,255,255)" stroke-width="1" opacity="0.7176470588235294" d="M 45.5 13 L 45.5 14 L 45.5 13 Z " /><path fill="rgb(255,255,255)" stroke="rgb(255,255,255)" stroke-width="1" opacity="0.7176470588235294" d="M 1.5 16 L 1.5 17 L 1.5 16 Z " /><path fill="rgb(255,255,255)" stroke="rgb(255,255,255)" stroke-width="1" opacity="0.7176470588235294" d="M 46.5 16 L 46.5 17 L 46.5 16 Z " /><path fill="rgb(255,255,255)" stroke="rgb(255,255,255)" stroke-width="1" opacity="0.7176470588235294" d="M 0.5 19 L 1 20.5 L 0 20.5 L 0.5 19 Z " /><path fill="rgb(255,255,255)" stroke="rgb(255,255,255)" stroke-width="1" opacity="0.7176470588235294" d="M 47.5 19 L 47.5 20 L 47.5 19 Z " /><path fill="rgb(255,255,255)" stroke="rgb(255,255,255)" stroke-width="1" opacity="0.7176470588235294" d="M 0.5 27 L 1 28.5 L 0 28.5 L 0.5 27 Z " /><path fill="rgb(255,255,255)" stroke="rgb(255,255,255)" stroke-width="1" opacity="0.7176470588235294" d="M 47.5 28 L 47.5 29 L 47.5 28 Z " /><path fill="rgb(255,255,255)" stroke="rgb(255,255,255)" stroke-width="1" opacity="0.7176470588235294" d="M 1.5 31 L 1.5 32 L 1.5 31 Z " /><path fill="rgb(255,255,255)" stroke="rgb(255,255,255)" stroke-width="1" opacity="0.7176470588235294" d="M 46.5 31 L 47 32.5 L 46 32.5 L 46.5 31 Z " /><path fill="rgb(255,255,255)" stroke="rgb(255,255,255)" stroke-width="1" opacity="0.7176470588235294" d="M 2.5 34 L 2.5 35 L 2.5 34 Z " /><path fill="rgb(255,255,255)" stroke="rgb(255,255,255)" stroke-width="1" opacity="0.7176470588235294" d="M 45.5 34 L 45.5 35 L 45.5 34 Z " /><path fill="rgb(255,255,255)" stroke="rgb(255,255,255)" stroke-width="1" opacity="0.7176470588235294" d="M 3.5 36 Q 6 37 4.5 38 Q 2 37 3.5 36 Z " /><path fill="rgb(255,255,255)" stroke="rgb(255,255,255)" stroke-width="1" opacity="0.7176470588235294" d="M 44.5 36 Q 46 37 43.5 38 Q 42 37 44.5 36 Z " /><path fill="rgb(255,255,255)" stroke="rgb(255,255,255)" stroke-width="1" opacity="0.7176470588235294" d="M 41.5 40 Q 43 41 40.5 42 Q 39 41 41.5 40 Z " /><path fill="rgb(255,255,255)" stroke="rgb(255,255,255)" stroke-width="1" opacity="0.7176470588235294" d="M 10.5 43 Q 13 44 11.5 45 Q 9 44 10.5 43 Z " /><path fill="rgb(255,255,255)" stroke="rgb(255,255,255)" stroke-width="1" opacity="0.7176470588235294" d="M 37.5 43 Q 39 44 36.5 45 Q 35 44 37.5 43 Z " /><path fill="rgb(255,255,255)" stroke="rgb(255,255,255)" stroke-width="1" opacity="0.7176470588235294" d="M 13.5 45 L 13.5 46 L 13.5 45 Z " /><path fill="rgb(255,255,255)" stroke="rgb(255,255,255)" stroke-width="1" opacity="0.7176470588235294" d="M 34.5 45 L 34.5 46 L 34.5 45 Z " /><path fill="rgb(255,255,255)" stroke="rgb(255,255,255)" stroke-width="1" opacity="0.7176470588235294" d="M 16.5 46 L 16.5 47 L 16.5 46 Z " /><path fill="rgb(255,255,255)" stroke="rgb(255,255,255)" stroke-width="1" opacity="0.7176470588235294" d="M 31.5 46 L 33 46.5 L 31.5 47 L 31.5 46 Z " /><path fill="rgb(255,255,255)" stroke="rgb(255,255,255)" stroke-width="1" opacity="0.7176470588235294" d="M 19.5 47 L 19.5 48 L 19.5 47 Z " /><path fill="rgb(255,255,255)" stroke="rgb(255,255,255)" stroke-width="1" opacity="0.7176470588235294" d="M 28.5 47 L 28.5 48 L 28.5 47 Z " /><path fill="rgb(212,231,241)" stroke="rgb(212,231,241)" stroke-width="1" opacity="1" d="M 22.5 7 Q 24 8 21.5 9 Q 20 8 22.5 7 Z " /><path fill="rgb(212,231,241)" stroke="rgb(212,231,241)" stroke-width="1" opacity="1" d="M 25.5 7 Q 28 8 26.5 9 Q 24 8 25.5 7 Z " /><path fill="rgb(212,231,241)" stroke="rgb(212,231,241)" stroke-width="1" opacity="1" d="M 12.5 11 Q 14 12 11.5 13 Q 10 12 12.5 11 Z " /><path fill="rgb(212,231,241)" stroke="rgb(212,231,241)" stroke-width="1" opacity="1" d="M 15.5 11 L 26 21.5 L 25.5 22 L 15 11.5 L 15.5 11 Z " /><path fill="rgb(212,231,241)" stroke="rgb(212,231,241)" stroke-width="1" opacity="1" d="M 39.5 21 Q 42 22 40.5 23 Q 38 22 39.5 21 Z " /><path fill="rgb(212,231,241)" stroke="rgb(212,231,241)" stroke-width="1" opacity="1" d="M 19.5 24 L 20 24.5 L 12.5 32 L 12 31.5 L 19.5 24 Z " /><path fill="rgb(212,231,241)" stroke="rgb(212,231,241)" stroke-width="1" opacity="1" d="M 40.5 25 Q 42 26 39.5 27 Q 38 26 40.5 25 Z " /><path fill="rgb(212,231,241)" stroke="rgb(212,231,241)" stroke-width="1" opacity="1" d="M 25.5 26 L 26 26.5 L 15.5 37 L 15 36.5 L 25.5 26 Z " /><path fill="rgb(212,231,241)" stroke="rgb(212,231,241)" stroke-width="1" opacity="1" d="M 11.5 35 Q 14 36 12.5 37 Q 10 36 11.5 35 Z " /><path fill="rgb(212,231,241)" stroke="rgb(212,231,241)" stroke-width="1" opacity="1" d="M 21.5 39 Q 24 40 22.5 41 Q 20 40 21.5 39 Z " /><path fill="rgb(212,231,241)" stroke="rgb(212,231,241)" stroke-width="1" opacity="1" d="M 26.5 39 Q 28 40 25.5 41 Q 24 40 26.5 39 Z " /><path fill="rgb(102,176,222)" stroke="rgb(102,176,222)" stroke-width="1" opacity="1" d="M 22.5 8 L 22.5 9 L 22.5 8 Z " /><path fill="rgb(102,176,222)" stroke="rgb(102,176,222)" stroke-width="1" opacity="1" d="M 25.5 8 L 25.5 9 L 25.5 8 Z " /><path fill="rgb(102,176,222)" stroke="rgb(102,176,222)" stroke-width="1" opacity="1" d="M 13.5 11 L 13.5 12 L 13.5 11 Z " /><path fill="rgb(102,176,222)" stroke="rgb(102,176,222)" stroke-width="1" opacity="1" d="M 22.5 11 L 22.5 12 L 22.5 11 Z " /><path fill="rgb(102,176,222)" stroke="rgb(102,176,222)" stroke-width="1" opacity="1" d="M 25.5 11 L 25.5 12 L 25.5 11 Z " /><path fill="rgb(102,176,222)" stroke="rgb(102,176,222)" stroke-width="1" opacity="1" d="M 11.5 13 L 12 14.5 L 11 14.5 L 11.5 13 Z " /><path fill="rgb(102,176,222)" stroke="rgb(102,176,222)" stroke-width="1" opacity="1" d="M 25.5 22 L 25.5 23 L 25.5 22 Z " /><path fill="rgb(102,176,222)" stroke="rgb(102,176,222)" stroke-width="1" opacity="1" d="M 36.5 22 L 36.5 23 L 36.5 22 Z " /><path fill="rgb(102,176,222)" stroke="rgb(102,176,222)" stroke-width="1" opacity="1" d="M 39.5 22 L 39.5 23 L 39.5 22 Z " /><path fill="rgb(102,176,222)" stroke="rgb(102,176,222)" stroke-width="1" opacity="1" d="M 20.5 24 L 21 24.5 L 12.5 33 L 12 32.5 L 20.5 24 Z " /><path fill="rgb(102,176,222)" stroke="rgb(102,176,222)" stroke-width="1" opacity="1" d="M 25.5 25 L 26 25.5 L 15.5 36 L 15 35.5 L 25.5 25 Z " /><path fill="rgb(102,176,222)" stroke="rgb(102,176,222)" stroke-width="1" opacity="1" d="M 36.5 25 L 36.5 26 L 36.5 25 Z " /><path fill="rgb(102,176,222)" stroke="rgb(102,176,222)" stroke-width="1" opacity="1" d="M 39.5 25 L 39.5 26 L 39.5 25 Z " /><path fill="rgb(102,176,222)" stroke="rgb(102,176,222)" stroke-width="1" opacity="1" d="M 12.5 35 L 12.5 36 L 12.5 35 Z " /><path fill="rgb(102,176,222)" stroke="rgb(102,176,222)" stroke-width="1" opacity="1" d="M 22.5 36 L 22.5 37 L 22.5 36 Z " /><path fill="rgb(102,176,222)" stroke="rgb(102,176,222)" stroke-width="1" opacity="1" d="M 25.5 36 L 25.5 37 L 25.5 36 Z " /><path fill="rgb(102,176,222)" stroke="rgb(102,176,222)" stroke-width="1" opacity="1" d="M 22.5 39 L 22.5 40 L 22.5 39 Z " /><path fill="rgb(102,176,222)" stroke="rgb(102,176,222)" stroke-width="1" opacity="1" d="M 25.5 39 L 25.5 40 L 25.5 39 Z " /><path fill="rgb(70,161,218)" stroke="rgb(70,161,218)" stroke-width="1" opacity="1" d="M 23.5 8 L 26 9.5 L 24.5 12 L 22 10.5 L 23.5 8 Z " /><path fill="rgb(70,161,218)" stroke="rgb(70,161,218)" stroke-width="1" opacity="1" d="M 24.5 21 L 26 24.5 L 13.5 36 L 12 33.5 L 22.5 22 L 24.5 21 Z " /><path fill="rgb(70,161,218)" stroke="rgb(70,161,218)" stroke-width="1" opacity="1" d="M 37.5 22 L 40 23.5 L 38.5 26 L 36 24.5 L 37.5 22 Z " /><path fill="rgb(70,161,218)" stroke="rgb(70,161,218)" stroke-width="1" opacity="1" d="M 23.5 36 L 26 37.5 L 24.5 40 L 22 38.5 L 23.5 36 Z " /><path fill="rgb(123,195,104)" stroke="rgb(123,195,104)" stroke-width="1" opacity="1" d="M 33 12 L 36 13.5 L 36 15 Q 33.33 13.88 34 16.5 L 29.5 20 Q 26.75 18.75 29 17.5 L 31.5 14 Q 34.13 14.67 33 12 Z " /><path fill="rgb(123,195,104)" stroke="rgb(123,195,104)" stroke-width="1" opacity="1" d="M 10.5 22 L 12 24.5 Q 10.5 27.5 9 24.5 L 10.5 22 Z " /><path fill="rgb(123,195,104)" stroke="rgb(123,195,104)" stroke-width="1" opacity="1" d="M 30.5 28 L 36 33.5 L 36 35 Q 33.42 34.25 32.5 36 L 28 31.5 L 28 29 L 30.5 28 Z " /><path fill="rgb(186,221,242)" stroke="rgb(186,221,242)" stroke-width="1" opacity="1" d="M 21.5 10 L 21.5 11 L 21.5 10 Z " /><path fill="rgb(186,221,242)" stroke="rgb(186,221,242)" stroke-width="1" opacity="1" d="M 26.5 10 L 26.5 11 L 26.5 10 Z " /><path fill="rgb(186,221,242)" stroke="rgb(186,221,242)" stroke-width="1" opacity="1" d="M 23.5 12 L 25 12.5 L 23.5 13 L 23.5 12 Z " /><path fill="rgb(186,221,242)" stroke="rgb(186,221,242)" stroke-width="1" opacity="1" d="M 11.5 15 L 11.5 16 L 11.5 15 Z " /><path fill="rgb(186,221,242)" stroke="rgb(186,221,242)" stroke-width="1" opacity="1" d="M 37.5 21 L 37.5 22 L 37.5 21 Z " /><path fill="rgb(186,221,242)" stroke="rgb(186,221,242)" stroke-width="1" opacity="1" d="M 26.5 23 L 27 24.5 L 26 24.5 L 26.5 23 Z " /><path fill="rgb(186,221,242)" stroke="rgb(186,221,242)" stroke-width="1" opacity="1" d="M 35.5 23 L 36 24.5 L 35 24.5 L 35.5 23 Z " /><path fill="rgb(186,221,242)" stroke="rgb(186,221,242)" stroke-width="1" opacity="1" d="M 37.5 26 L 37.5 27 L 37.5 26 Z " /><path fill="rgb(186,221,242)" stroke="rgb(186,221,242)" stroke-width="1" opacity="1" d="M 23.5 35 L 25 35.5 L 23.5 36 L 23.5 35 Z " /><path fill="rgb(186,221,242)" stroke="rgb(186,221,242)" stroke-width="1" opacity="1" d="M 21.5 37 L 21.5 38 L 21.5 37 Z " /><path fill="rgb(186,221,242)" stroke="rgb(186,221,242)" stroke-width="1" opacity="1" d="M 26.5 37 L 26.5 38 L 26.5 37 Z " /><path fill="rgb(159,207,236)" stroke="rgb(159,207,236)" stroke-width="1" opacity="1" d="M 23.5 7 L 25 7.5 L 23.5 8 L 23.5 7 Z " /><path fill="rgb(159,207,236)" stroke="rgb(159,207,236)" stroke-width="1" opacity="1" d="M 21.5 9 L 21.5 10 L 21.5 9 Z " /><path fill="rgb(159,207,236)" stroke="rgb(159,207,236)" stroke-width="1" opacity="1" d="M 26.5 9 L 26.5 10 L 26.5 9 Z " /><path fill="rgb(159,207,236)" stroke="rgb(159,207,236)" stroke-width="1" opacity="1" d="M 14.5 11 L 14.5 12 L 14.5 11 Z " /><path fill="rgb(159,207,236)" stroke="rgb(159,207,236)" stroke-width="1" opacity="1" d="M 12.5 16 L 20 23.5 L 19.5 24 L 12 16.5 L 12.5 16 Z " /><path fill="rgb(159,207,236)" stroke="rgb(159,207,236)" stroke-width="1" opacity="1" d="M 38.5 21 L 38.5 22 L 38.5 21 Z " /><path fill="rgb(159,207,236)" stroke="rgb(159,207,236)" stroke-width="1" opacity="1" d="M 40.5 23 L 41 24.5 L 40 24.5 L 40.5 23 Z " /><path fill="rgb(159,207,236)" stroke="rgb(159,207,236)" stroke-width="1" opacity="1" d="M 38.5 26 L 38.5 27 L 38.5 26 Z " /><path fill="rgb(159,207,236)" stroke="rgb(159,207,236)" stroke-width="1" opacity="1" d="M 11.5 33 L 12 34.5 L 11 34.5 L 11.5 33 Z " /><path fill="rgb(159,207,236)" stroke="rgb(159,207,236)" stroke-width="1" opacity="1" d="M 13.5 36 L 15 36.5 L 13.5 37 L 13.5 36 Z " /><path fill="rgb(159,207,236)" stroke="rgb(159,207,236)" stroke-width="1" opacity="1" d="M 21.5 38 L 21.5 39 L 21.5 38 Z " /><path fill="rgb(159,207,236)" stroke="rgb(159,207,236)" stroke-width="1" opacity="1" d="M 26.5 38 L 26.5 39 L 26.5 38 Z " /><path fill="rgb(159,207,236)" stroke="rgb(159,207,236)" stroke-width="1" opacity="1" d="M 23.5 40 L 25 40.5 L 23.5 41 L 23.5 40 Z " /><path fill="rgb(255,255,255)" stroke="rgb(255,255,255)" stroke-width="1" opacity="0.8980392156862745" d="M 21.5 0 L 21.5 1 L 21.5 0 Z " /><path fill="rgb(255,255,255)" stroke="rgb(255,255,255)" stroke-width="1" opacity="0.8980392156862745" d="M 26.5 0 L 26.5 1 L 26.5 0 Z " /><path fill="rgb(255,255,255)" stroke="rgb(255,255,255)" stroke-width="1" opacity="0.8980392156862745" d="M 17.5 1 L 17.5 2 L 17.5 1 Z " /><path fill="rgb(255,255,255)" stroke="rgb(255,255,255)" stroke-width="1" opacity="0.8980392156862745" d="M 30.5 1 L 30.5 2 L 30.5 1 Z " /><path fill="rgb(255,255,255)" stroke="rgb(255,255,255)" stroke-width="1" opacity="0.8980392156862745" d="M 14.5 2 L 14.5 3 L 14.5 2 Z " /><path fill="rgb(255,255,255)" stroke="rgb(255,255,255)" stroke-width="1" opacity="0.8980392156862745" d="M 33.5 2 L 33.5 3 L 33.5 2 Z " /><path fill="rgb(255,255,255)" stroke="rgb(255,255,255)" stroke-width="1" opacity="0.8980392156862745" d="M 12.5 3 L 12.5 4 L 12.5 3 Z " /><path fill="rgb(255,255,255)" stroke="rgb(255,255,255)" stroke-width="1" opacity="0.8980392156862745" d="M 35.5 3 L 35.5 4 L 35.5 3 Z " /><path fill="rgb(255,255,255)" stroke="rgb(255,255,255)" stroke-width="1" opacity="0.8980392156862745" d="M 9.5 5 L 9.5 6 L 9.5 5 Z " /><path fill="rgb(255,255,255)" stroke="rgb(255,255,255)" stroke-width="1" opacity="0.8980392156862745" d="M 38.5 5 L 38.5 6 L 38.5 5 Z " /><path fill="rgb(255,255,255)" stroke="rgb(255,255,255)" stroke-width="1" opacity="0.8980392156862745" d="M 5.5 9 L 5.5 10 L 5.5 9 Z " /><path fill="rgb(255,255,255)" stroke="rgb(255,255,255)" stroke-width="1" opacity="0.8980392156862745" d="M 42.5 9 L 42.5 10 L 42.5 9 Z " /><path fill="rgb(255,255,255)" stroke="rgb(255,255,255)" stroke-width="1" opacity="0.8980392156862745" d="M 3.5 12 L 3.5 13 L 3.5 12 Z " /><path fill="rgb(255,255,255)" stroke="rgb(255,255,255)" stroke-width="1" opacity="0.8980392156862745" d="M 44.5 12 L 44.5 13 L 44.5 12 Z " /><path fill="rgb(255,255,255)" stroke="rgb(255,255,255)" stroke-width="1" opacity="0.8980392156862745" d="M 2.5 14 L 2.5 15 L 2.5 14 Z " /><path fill="rgb(255,255,255)" stroke="rgb(255,255,255)" stroke-width="1" opacity="0.8980392156862745" d="M 45.5 14 L 45.5 15 L 45.5 14 Z " /><path fill="rgb(255,255,255)" stroke="rgb(255,255,255)" stroke-width="1" opacity="0.8980392156862745" d="M 1.5 17 L 1.5 18 L 1.5 17 Z " /><path fill="rgb(255,255,255)" stroke="rgb(255,255,255)" stroke-width="1" opacity="0.8980392156862745" d="M 47.5 20 L 47.5 21 L 47.5 20 Z " /><path fill="rgb(255,255,255)" stroke="rgb(255,255,255)" stroke-width="1" opacity="0.8980392156862745" d="M 0.5 21 L 0.5 22 L 0.5 21 Z " /><path fill="rgb(255,255,255)" stroke="rgb(255,255,255)" stroke-width="1" opacity="0.8980392156862745" d="M 0.5 26 L 0.5 27 L 0.5 26 Z " /><path fill="rgb(255,255,255)" stroke="rgb(255,255,255)" stroke-width="1" opacity="0.8980392156862745" d="M 47.5 27 L 47.5 28 L 47.5 27 Z " /><path fill="rgb(255,255,255)" stroke="rgb(255,255,255)" stroke-width="1" opacity="0.8980392156862745" d="M 1.5 30 L 1.5 31 L 1.5 30 Z " /><path fill="rgb(255,255,255)" stroke="rgb(255,255,255)" stroke-width="1" opacity="0.8980392156862745" d="M 2.5 33 L 2.5 34 L 2.5 33 Z " /><path fill="rgb(255,255,255)" stroke="rgb(255,255,255)" stroke-width="1" opacity="0.8980392156862745" d="M 45.5 33 L 45.5 34 L 45.5 33 Z " /><path fill="rgb(255,255,255)" stroke="rgb(255,255,255)" stroke-width="1" opacity="0.8980392156862745" d="M 3.5 35 L 3.5 36 L 3.5 35 Z " /><path fill="rgb(255,255,255)" stroke="rgb(255,255,255)" stroke-width="1" opacity="0.8980392156862745" d="M 44.5 35 L 44.5 36 L 44.5 35 Z " /><path fill="rgb(255,255,255)" stroke="rgb(255,255,255)" stroke-width="1" opacity="0.8980392156862745" d="M 5.5 38 L 5.5 39 L 5.5 38 Z " /><path fill="rgb(255,255,255)" stroke="rgb(255,255,255)" stroke-width="1" opacity="0.8980392156862745" d="M 42.5 38 L 42.5 39 L 42.5 38 Z " /><path fill="rgb(255,255,255)" stroke="rgb(255,255,255)" stroke-width="1" opacity="0.8980392156862745" d="M 9.5 42 L 9.5 43 L 9.5 42 Z " /><path fill="rgb(255,255,255)" stroke="rgb(255,255,255)" stroke-width="1" opacity="0.8980392156862745" d="M 38.5 42 L 38.5 43 L 38.5 42 Z " /><path fill="rgb(255,255,255)" stroke="rgb(255,255,255)" stroke-width="1" opacity="0.8980392156862745" d="M 12.5 44 L 12.5 45 L 12.5 44 Z " /><path fill="rgb(255,255,255)" stroke="rgb(255,255,255)" stroke-width="1" opacity="0.8980392156862745" d="M 35.5 44 L 35.5 45 L 35.5 44 Z " /><path fill="rgb(255,255,255)" stroke="rgb(255,255,255)" stroke-width="1" opacity="0.8980392156862745" d="M 14.5 45 L 14.5 46 L 14.5 45 Z " /><path fill="rgb(255,255,255)" stroke="rgb(255,255,255)" stroke-width="1" opacity="0.8980392156862745" d="M 33.5 45 L 33.5 46 L 33.5 45 Z " /><path fill="rgb(255,255,255)" stroke="rgb(255,255,255)" stroke-width="1" opacity="0.8980392156862745" d="M 20.5 47 L 20.5 48 L 20.5 47 Z " /><path fill="rgb(255,255,255)" stroke="rgb(255,255,255)" stroke-width="1" opacity="0.8980392156862745" d="M 27.5 47 L 27.5 48 L 27.5 47 Z " /><path fill="rgb(255,255,255)" stroke="rgb(255,255,255)" stroke-width="1" opacity="0.23529411764705882" d="M 16.5 0 L 19 0.5 Q 8.9 2.9 4 10.5 L 2.5 13 L 3 11.5 L 7.5 5 L 16.5 0 Z " /><path fill="rgb(255,255,255)" stroke="rgb(255,255,255)" stroke-width="1" opacity="0.23529411764705882" d="M 29.5 0 L 36.5 2 L 43 7.5 L 45 10.5 L 44.5 11 L 36.5 3 L 29.5 1 L 29.5 0 Z " /><path fill="rgb(255,255,255)" stroke="rgb(255,255,255)" stroke-width="1" opacity="0.23529411764705882" d="M 45.5 12 L 47 13.5 L 48 18.5 L 47 18.5 L 45.5 12 Z " /><path fill="rgb(255,255,255)" stroke="rgb(255,255,255)" stroke-width="1" opacity="0.23529411764705882" d="M 1.5 14 L 2 15.5 L 0.5 19 L 0 16.5 L 1.5 14 Z " /><path fill="rgb(255,255,255)" stroke="rgb(255,255,255)" stroke-width="1" opacity="0.23529411764705882" d="M 0.5 29 L 3 35.5 Q 2 37 1 34.5 L 0 31.5 L 0.5 29 Z " /><path fill="rgb(255,255,255)" stroke="rgb(255,255,255)" stroke-width="1" opacity="0.23529411764705882" d="M 47.5 29 L 48 31.5 L 47 31.5 L 47.5 29 Z " /><path fill="rgb(255,255,255)" stroke="rgb(255,255,255)" stroke-width="1" opacity="0.23529411764705882" d="M 46.5 33 L 47 34.5 L 39.5 44 L 33.5 47 L 33.5 46 L 36.5 45 L 42 40.5 L 46.5 33 Z " /><path fill="rgb(255,255,255)" stroke="rgb(255,255,255)" stroke-width="1" opacity="0.23529411764705882" d="M 3.5 37 L 11.5 45 L 19 47.5 L 16.5 48 L 11.5 46 L 5 40.5 L 3 37.5 L 3.5 37 Z " /><path fill="rgb(255,255,255)" stroke="rgb(255,255,255)" stroke-width="1" opacity="0.23529411764705882" d="M 29.5 47 L 32 47.5 L 29.5 48 L 29.5 47 Z " /></svg>