<svg width="48" height="48" version="1.1" xmlns="http://www.w3.org/2000/svg" desc="Created with imagetracer.js version 1.2.6" ><path fill="rgb(252,252,251)" stroke="rgb(252,252,251)" stroke-width="1" opacity="1" d="M 0.5 12 L 0.5 13 L 0.5 12 Z " /><path fill="rgb(252,252,251)" stroke="rgb(252,252,251)" stroke-width="1" opacity="1" d="M 25.5 14 L 29 14.5 L 25.5 15 L 25.5 14 Z " /><path fill="rgb(252,252,251)" stroke="rgb(252,252,251)" stroke-width="1" opacity="1" d="M 43.5 14 L 47 14.5 L 44.5 16 Q 42 15 43.5 14 Z " /><path fill="rgb(252,252,251)" stroke="rgb(252,252,251)" stroke-width="1" opacity="1" d="M 2.5 16 L 2.5 17 L 2.5 16 Z " /><path fill="rgb(252,252,251)" stroke="rgb(252,252,251)" stroke-width="1" opacity="1" d="M 39.5 17 Q 42 18 40.5 19 Q 37.71 19.67 39.5 17 Z " /><path fill="rgb(252,252,251)" stroke="rgb(252,252,251)" stroke-width="1" opacity="1" d="M 9.5 18 L 9.5 19 L 9.5 18 Z " /><path fill="rgb(252,252,251)" stroke="rgb(252,252,251)" stroke-width="1" opacity="1" d="M 24.5 20 L 24.5 21 L 24.5 20 Z " /><path fill="rgb(252,252,251)" stroke="rgb(252,252,251)" stroke-width="1" opacity="1" d="M 44.5 20 L 44.5 21 L 44.5 20 Z " /><path fill="rgb(252,252,251)" stroke="rgb(252,252,251)" stroke-width="1" opacity="1" d="M 39.5 21 L 39.5 22 L 39.5 21 Z " /><path fill="rgb(252,252,251)" stroke="rgb(252,252,251)" stroke-width="1" opacity="1" d="M 17.5 25 L 17.5 26 L 17.5 25 Z " /><path fill="rgb(252,252,251)" stroke="rgb(252,252,251)" stroke-width="1" opacity="1" d="M 28.5 25 L 28.5 26 L 28.5 25 Z " /><path fill="rgb(252,252,251)" stroke="rgb(252,252,251)" stroke-width="1" opacity="1" d="M 44.5 25 Q 46 26 43.5 27 Q 42 26 44.5 25 Z " /><path fill="rgb(252,252,251)" stroke="rgb(252,252,251)" stroke-width="1" opacity="1" d="M 2.5 26 L 3 27.5 L 2 27.5 L 2.5 26 Z " /><path fill="rgb(252,252,251)" stroke="rgb(252,252,251)" stroke-width="1" opacity="1" d="M 10.5 26 L 10.5 27 L 10.5 26 Z " /><path fill="rgb(252,252,251)" stroke="rgb(252,252,251)" stroke-width="1" opacity="1" d="M 0.5 28 L 0.5 29 L 0.5 28 Z " /><path fill="rgb(252,252,251)" stroke="rgb(252,252,251)" stroke-width="1" opacity="1" d="M 0.5 30 L 0.5 31 L 0.5 30 Z " /><path fill="rgb(255,255,255)" stroke="rgb(255,255,255)" stroke-width="1" opacity="1" d="M 0 0 L 48 0 L 48 48 L 0.5 48 L 0 47.5 L 0 34 L 46.5 34 L 47 33.5 L 47 27 L 44 26.5 Q 46.25 25.25 45 20.5 Q 43 19.5 45 18.5 L 45 15 Q 48.33 16.13 47 12 L 0.5 12 L 0 11.5 L 0 0 Z " /><path fill="rgb(255,255,255)" stroke="rgb(255,255,255)" stroke-width="1" opacity="1" d="M 0.5 14 L 3 17.5 L 3 25.5 L 2 28 L 0 27.5 L 0.5 14 Z " /><path fill="rgb(255,255,255)" stroke="rgb(255,255,255)" stroke-width="1" opacity="1" d="M 26.5 15 Q 29.5 14.5 30 16.5 L 29.5 20 Q 26.31 18.06 26.5 15 Z " /><path fill="rgb(255,255,255)" stroke="rgb(255,255,255)" stroke-width="1" opacity="1" d="M 7.5 16 L 9.5 19 L 10 17 L 12 17.5 L 12 24.5 Q 10.83 27.75 7 27 L 7.5 16 Z " /><path fill="rgb(255,255,255)" stroke="rgb(255,255,255)" stroke-width="1" opacity="1" d="M 20.5 16 L 21 24.5 L 20 27 L 18 27 Q 19 24 16 25 L 16 17 L 20 18 L 20.5 16 Z " /><path fill="rgb(255,255,255)" stroke="rgb(255,255,255)" stroke-width="1" opacity="1" d="M 33 16 L 35 16.5 L 35 27 L 33 26.5 L 33 16 Z " /><path fill="rgb(255,255,255)" stroke="rgb(255,255,255)" stroke-width="1" opacity="1" d="M 40.5 17 L 40.5 18 L 40.5 17 Z " /><path fill="rgb(255,255,255)" stroke="rgb(255,255,255)" stroke-width="1" opacity="1" d="M 24.5 21 L 29 26.5 L 25 27 L 24 24.5 L 24.5 21 Z " /><path fill="rgb(255,255,255)" stroke="rgb(255,255,255)" stroke-width="1" opacity="1" d="M 39 22 Q 42.33 20.88 41 25 Q 37.67 26.13 39 22 Z " /><path fill="rgb(33,29,147)" stroke="rgb(33,29,147)" stroke-width="1" opacity="1" d="M 3.5 15 L 3.5 16 L 3.5 15 Z " /><path fill="rgb(33,29,147)" stroke="rgb(33,29,147)" stroke-width="1" opacity="1" d="M 10.5 15 L 13 15.5 L 10.5 16 L 10.5 15 Z " /><path fill="rgb(33,29,147)" stroke="rgb(33,29,147)" stroke-width="1" opacity="1" d="M 15.5 15 L 15.5 16 L 15.5 15 Z " /><path fill="rgb(33,29,147)" stroke="rgb(33,29,147)" stroke-width="1" opacity="1" d="M 17.5 15 L 17.5 16 L 17.5 15 Z " /><path fill="rgb(33,29,147)" stroke="rgb(33,29,147)" stroke-width="1" opacity="1" d="M 31.5 15 L 31.5 16 L 31.5 15 Z " /><path fill="rgb(33,29,147)" stroke="rgb(33,29,147)" stroke-width="1" opacity="1" d="M 36.5 15 L 36.5 16 L 36.5 15 Z " /><path fill="rgb(33,29,147)" stroke="rgb(33,29,147)" stroke-width="1" opacity="1" d="M 38.5 15 L 38.5 16 L 38.5 15 Z " /><path fill="rgb(33,29,147)" stroke="rgb(33,29,147)" stroke-width="1" opacity="1" d="M 42.5 15 Q 45 16 43.5 17 Q 41 16 42.5 15 Z " /><path fill="rgb(33,29,147)" stroke="rgb(33,29,147)" stroke-width="1" opacity="1" d="M 5.5 16 L 5.5 17 L 5.5 16 Z " /><path fill="rgb(33,29,147)" stroke="rgb(33,29,147)" stroke-width="1" opacity="1" d="M 22.5 16 L 22.5 17 L 22.5 16 Z " /><path fill="rgb(33,29,147)" stroke="rgb(33,29,147)" stroke-width="1" opacity="1" d="M 24.5 18 L 24.5 19 L 24.5 18 Z " /><path fill="rgb(33,29,147)" stroke="rgb(33,29,147)" stroke-width="1" opacity="1" d="M 26.5 18 L 26.5 19 L 26.5 18 Z " /><path fill="rgb(33,29,147)" stroke="rgb(33,29,147)" stroke-width="1" opacity="1" d="M 41.5 19 L 42 20.5 L 41 20.5 L 41.5 19 Z " /><path fill="rgb(33,29,147)" stroke="rgb(33,29,147)" stroke-width="1" opacity="1" d="M 38.5 20 L 38.5 21 L 38.5 20 Z " /><path fill="rgb(33,29,147)" stroke="rgb(33,29,147)" stroke-width="1" opacity="1" d="M 43.5 21 L 43.5 22 L 43.5 21 Z " /><path fill="rgb(33,29,147)" stroke="rgb(33,29,147)" stroke-width="1" opacity="1" d="M 28.5 23 Q 31 24 29.5 25 Q 27 24 28.5 23 Z " /><path fill="rgb(33,29,147)" stroke="rgb(33,29,147)" stroke-width="1" opacity="1" d="M 31.5 23 L 31.5 24 L 31.5 23 Z " /><path fill="rgb(33,29,147)" stroke="rgb(33,29,147)" stroke-width="1" opacity="1" d="M 42.5 23 Q 45 24 43.5 25 Q 41 24 42.5 23 Z " /><path fill="rgb(33,29,147)" stroke="rgb(33,29,147)" stroke-width="1" opacity="1" d="M 22.5 24 L 22.5 25 L 22.5 24 Z " /><path fill="rgb(33,29,147)" stroke="rgb(33,29,147)" stroke-width="1" opacity="1" d="M 36.5 25 L 36.5 26 L 36.5 25 Z " /><path fill="rgb(33,29,147)" stroke="rgb(33,29,147)" stroke-width="1" opacity="1" d="M 41.5 25 L 41.5 26 L 41.5 25 Z " /><path fill="rgb(33,29,147)" stroke="rgb(33,29,147)" stroke-width="1" opacity="1" d="M 2.5 29 L 2.5 30 L 2.5 29 Z " /><path fill="rgb(224,198,197)" stroke="rgb(224,198,197)" stroke-width="1" opacity="1" d="M 1.5 12 L 45.5 12 L 47 13.5 L 45.5 13 L 1.5 13 L 1.5 12 Z " /><path fill="rgb(224,198,197)" stroke="rgb(224,198,197)" stroke-width="1" opacity="1" d="M 6.5 27 Q 8 28 5.5 29 Q 4 28 6.5 27 Z " /><path fill="rgb(224,198,197)" stroke="rgb(224,198,197)" stroke-width="1" opacity="1" d="M 46.5 27 L 46.5 28 L 46.5 27 Z " /><path fill="rgb(224,198,197)" stroke="rgb(224,198,197)" stroke-width="1" opacity="1" d="M 46.5 32 L 47 33.5 L 46 33.5 L 46.5 32 Z " /><path fill="rgb(238,237,245)" stroke="rgb(238,237,245)" stroke-width="1" opacity="1" d="M 46.5 12 L 46.5 13 L 46.5 12 Z " /><path fill="rgb(238,237,245)" stroke="rgb(238,237,245)" stroke-width="1" opacity="1" d="M 34.5 14 L 34.5 15 L 34.5 14 Z " /><path fill="rgb(238,237,245)" stroke="rgb(238,237,245)" stroke-width="1" opacity="1" d="M 16.5 16 L 16.5 17 L 16.5 16 Z " /><path fill="rgb(238,237,245)" stroke="rgb(238,237,245)" stroke-width="1" opacity="1" d="M 30.5 16 L 31 21.5 Q 30 23 29 20.5 L 30.5 16 Z " /><path fill="rgb(238,237,245)" stroke="rgb(238,237,245)" stroke-width="1" opacity="1" d="M 35.5 16 L 36 22.5 L 35 22.5 L 35.5 16 Z " /><path fill="rgb(238,237,245)" stroke="rgb(238,237,245)" stroke-width="1" opacity="1" d="M 40.5 16 L 40.5 17 L 40.5 16 Z " /><path fill="rgb(238,237,245)" stroke="rgb(238,237,245)" stroke-width="1" opacity="1" d="M 6.5 17 L 7 25.5 L 6 25.5 L 6.5 17 Z " /><path fill="rgb(238,237,245)" stroke="rgb(238,237,245)" stroke-width="1" opacity="1" d="M 44.5 18 L 44.5 19 L 44.5 18 Z " /><path fill="rgb(238,237,245)" stroke="rgb(238,237,245)" stroke-width="1" opacity="1" d="M 25.5 21 L 25.5 22 L 25.5 21 Z " /><path fill="rgb(238,237,245)" stroke="rgb(238,237,245)" stroke-width="1" opacity="1" d="M 40.5 21 L 40.5 22 L 40.5 21 Z " /><path fill="rgb(238,237,245)" stroke="rgb(238,237,245)" stroke-width="1" opacity="1" d="M 35.5 24 L 35.5 25 L 35.5 24 Z " /><path fill="rgb(238,237,245)" stroke="rgb(238,237,245)" stroke-width="1" opacity="1" d="M 20.5 25 L 20.5 26 L 20.5 25 Z " /><path fill="rgb(238,237,245)" stroke="rgb(238,237,245)" stroke-width="1" opacity="1" d="M 0.5 29 L 0.5 30 L 0.5 29 Z " /><path fill="rgb(216,215,229)" stroke="rgb(216,215,229)" stroke-width="1" opacity="1" d="M 7.5 14 L 9 14.5 L 7.5 15 L 7.5 14 Z " /><path fill="rgb(216,215,229)" stroke="rgb(216,215,229)" stroke-width="1" opacity="1" d="M 19.5 14 Q 21.75 13.25 21 15.5 L 20.5 16 Q 18 15 19.5 14 Z " /><path fill="rgb(216,215,229)" stroke="rgb(216,215,229)" stroke-width="1" opacity="1" d="M 24.5 14 L 24.5 15 L 24.5 14 Z " /><path fill="rgb(216,215,229)" stroke="rgb(216,215,229)" stroke-width="1" opacity="1" d="M 42.5 14 L 42.5 15 L 42.5 14 Z " /><path fill="rgb(216,215,229)" stroke="rgb(216,215,229)" stroke-width="1" opacity="1" d="M 1.5 15 L 1.5 16 L 1.5 15 Z " /><path fill="rgb(216,215,229)" stroke="rgb(216,215,229)" stroke-width="1" opacity="1" d="M 29.5 15 L 29.5 16 L 29.5 15 Z " /><path fill="rgb(216,215,229)" stroke="rgb(216,215,229)" stroke-width="1" opacity="1" d="M 10.5 16 L 10.5 17 L 10.5 16 Z " /><path fill="rgb(216,215,229)" stroke="rgb(216,215,229)" stroke-width="1" opacity="1" d="M 28.5 19 L 28.5 20 L 28.5 19 Z " /><path fill="rgb(216,215,229)" stroke="rgb(216,215,229)" stroke-width="1" opacity="1" d="M 43.5 19 L 43.5 20 L 43.5 19 Z " /><path fill="rgb(216,215,229)" stroke="rgb(216,215,229)" stroke-width="1" opacity="1" d="M 26.5 22 L 26.5 23 L 26.5 22 Z " /><path fill="rgb(216,215,229)" stroke="rgb(216,215,229)" stroke-width="1" opacity="1" d="M 41.5 23 L 41.5 24 L 41.5 23 Z " /><path fill="rgb(216,215,229)" stroke="rgb(216,215,229)" stroke-width="1" opacity="1" d="M 11.5 25 L 11.5 26 L 11.5 25 Z " /><path fill="rgb(216,215,229)" stroke="rgb(216,215,229)" stroke-width="1" opacity="1" d="M 16.5 25 L 16.5 26 L 16.5 25 Z " /><path fill="rgb(216,215,229)" stroke="rgb(216,215,229)" stroke-width="1" opacity="1" d="M 2.5 28 L 2.5 29 L 2.5 28 Z " /><path fill="rgb(245,243,242)" stroke="rgb(245,243,242)" stroke-width="1" opacity="1" d="M 0.5 13 L 0.5 14 L 0.5 13 Z " /><path fill="rgb(245,243,242)" stroke="rgb(245,243,242)" stroke-width="1" opacity="1" d="M 26.5 16 L 26.5 17 L 26.5 16 Z " /><path fill="rgb(245,243,242)" stroke="rgb(245,243,242)" stroke-width="1" opacity="1" d="M 39.5 16 L 39.5 17 L 39.5 16 Z " /><path fill="rgb(245,243,242)" stroke="rgb(245,243,242)" stroke-width="1" opacity="1" d="M 35.5 23 L 35.5 24 L 35.5 23 Z " /><path fill="rgb(245,243,242)" stroke="rgb(245,243,242)" stroke-width="1" opacity="1" d="M 6.5 26 L 6.5 27 L 6.5 26 Z " /><path fill="rgb(245,243,242)" stroke="rgb(245,243,242)" stroke-width="1" opacity="1" d="M 17.5 26 L 17.5 27 L 17.5 26 Z " /><path fill="rgb(245,243,242)" stroke="rgb(245,243,242)" stroke-width="1" opacity="1" d="M 29.5 26 L 29.5 27 L 29.5 26 Z " /><path fill="rgb(245,243,242)" stroke="rgb(245,243,242)" stroke-width="1" opacity="1" d="M 0.5 31 L 1 33.5 L 0 33.5 L 0.5 31 Z " /><path fill="rgb(158,156,202)" stroke="rgb(158,156,202)" stroke-width="1" opacity="1" d="M 21.5 14 L 21.5 15 L 21.5 14 Z " /><path fill="rgb(158,156,202)" stroke="rgb(158,156,202)" stroke-width="1" opacity="1" d="M 39.5 14 L 41 14.5 L 39.5 15 L 39.5 14 Z " /><path fill="rgb(158,156,202)" stroke="rgb(158,156,202)" stroke-width="1" opacity="1" d="M 8.5 15 L 10 17.5 Q 9 19 8 16.5 L 8.5 15 Z " /><path fill="rgb(158,156,202)" stroke="rgb(158,156,202)" stroke-width="1" opacity="1" d="M 19.5 15 L 20 16.5 L 19 16.5 L 19.5 15 Z " /><path fill="rgb(158,156,202)" stroke="rgb(158,156,202)" stroke-width="1" opacity="1" d="M 33.5 15 L 33 16.5 L 32.5 18 L 32 16.5 L 33.5 15 Z " /><path fill="rgb(158,156,202)" stroke="rgb(158,156,202)" stroke-width="1" opacity="1" d="M 12.5 16 L 12.5 17 L 12.5 16 Z " /><path fill="rgb(158,156,202)" stroke="rgb(158,156,202)" stroke-width="1" opacity="1" d="M 15.5 16 L 15.5 17 L 15.5 16 Z " /><path fill="rgb(158,156,202)" stroke="rgb(158,156,202)" stroke-width="1" opacity="1" d="M 26.5 17 L 26.5 18 L 26.5 17 Z " /><path fill="rgb(158,156,202)" stroke="rgb(158,156,202)" stroke-width="1" opacity="1" d="M 41.5 17 L 41.5 18 L 41.5 17 Z " /><path fill="rgb(158,156,202)" stroke="rgb(158,156,202)" stroke-width="1" opacity="1" d="M 24.5 19 L 24.5 20 L 24.5 19 Z " /><path fill="rgb(158,156,202)" stroke="rgb(158,156,202)" stroke-width="1" opacity="1" d="M 39.5 19 L 39.5 20 L 39.5 19 Z " /><path fill="rgb(158,156,202)" stroke="rgb(158,156,202)" stroke-width="1" opacity="1" d="M 41.5 24 L 41.5 25 L 41.5 24 Z " /><path fill="rgb(158,156,202)" stroke="rgb(158,156,202)" stroke-width="1" opacity="1" d="M 21.5 25 L 21.5 26 L 21.5 25 Z " /><path fill="rgb(158,156,202)" stroke="rgb(158,156,202)" stroke-width="1" opacity="1" d="M 29.5 25 L 29.5 26 L 29.5 25 Z " /><path fill="rgb(158,156,202)" stroke="rgb(158,156,202)" stroke-width="1" opacity="1" d="M 24.5 26 L 24.5 27 L 24.5 26 Z " /><path fill="rgb(158,156,202)" stroke="rgb(158,156,202)" stroke-width="1" opacity="1" d="M 2.5 30 L 2.5 31 L 2.5 30 Z " /><path fill="rgb(14,9,142)" stroke="rgb(14,9,142)" stroke-width="1" opacity="1" d="M 4.5 15 L 6 15.5 L 4.5 16 L 4.5 15 Z " /><path fill="rgb(14,9,142)" stroke="rgb(14,9,142)" stroke-width="1" opacity="1" d="M 9.5 15 L 9.5 16 L 9.5 15 Z " /><path fill="rgb(14,9,142)" stroke="rgb(14,9,142)" stroke-width="1" opacity="1" d="M 13 15 L 15 15.5 L 15 25 L 13 24.5 L 13 15 Z " /><path fill="rgb(14,9,142)" stroke="rgb(14,9,142)" stroke-width="1" opacity="1" d="M 18.5 15 L 18.5 16 L 18.5 15 Z " /><path fill="rgb(14,9,142)" stroke="rgb(14,9,142)" stroke-width="1" opacity="1" d="M 22.5 15 L 22.5 16 L 22.5 15 Z " /><path fill="rgb(14,9,142)" stroke="rgb(14,9,142)" stroke-width="1" opacity="1" d="M 37.5 15 L 37.5 16 L 37.5 15 Z " /><path fill="rgb(14,9,142)" stroke="rgb(14,9,142)" stroke-width="1" opacity="1" d="M 41.5 15 L 41.5 16 L 41.5 15 Z " /><path fill="rgb(14,9,142)" stroke="rgb(14,9,142)" stroke-width="1" opacity="1" d="M 23.5 17 L 23.5 18 L 23.5 17 Z " /><path fill="rgb(14,9,142)" stroke="rgb(14,9,142)" stroke-width="1" opacity="1" d="M 25.5 17 L 25.5 18 L 25.5 17 Z " /><path fill="rgb(14,9,142)" stroke="rgb(14,9,142)" stroke-width="1" opacity="1" d="M 43.5 17 L 43.5 18 L 43.5 17 Z " /><path fill="rgb(14,9,142)" stroke="rgb(14,9,142)" stroke-width="1" opacity="1" d="M 25.5 19 Q 28 20 26.5 21 Q 24 20 25.5 19 Z " /><path fill="rgb(14,9,142)" stroke="rgb(14,9,142)" stroke-width="1" opacity="1" d="M 29.5 22 Q 32.5 23.13 32 26 L 30 25.5 L 31 24.5 L 29 22.5 L 29.5 22 Z " /><path fill="rgb(14,9,142)" stroke="rgb(14,9,142)" stroke-width="1" opacity="1" d="M 42.5 22 L 42.5 23 L 42.5 22 Z " /><path fill="rgb(14,9,142)" stroke="rgb(14,9,142)" stroke-width="1" opacity="1" d="M 22.5 25 L 22.5 26 L 22.5 25 Z " /><path fill="rgb(14,9,142)" stroke="rgb(14,9,142)" stroke-width="1" opacity="1" d="M 42.5 25 L 42.5 26 L 42.5 25 Z " /><path fill="rgb(3,0,138)" stroke="rgb(3,0,138)" stroke-width="1" opacity="1" d="M 23.5 15 L 31 24.5 L 30.5 25 L 27 21.5 L 23 16.5 L 23.5 15 Z " /><path fill="rgb(3,0,138)" stroke="rgb(3,0,138)" stroke-width="1" opacity="1" d="M 4.5 16 L 5 27.5 L 4 27.5 L 4.5 16 Z " /><path fill="rgb(3,0,138)" stroke="rgb(3,0,138)" stroke-width="1" opacity="1" d="M 37.5 16 L 38 25.5 L 37 25.5 L 37.5 16 Z " /><path fill="rgb(3,0,138)" stroke="rgb(3,0,138)" stroke-width="1" opacity="1" d="M 42.5 16 L 43 18.5 L 42 18.5 L 42.5 16 Z " /><path fill="rgb(3,0,138)" stroke="rgb(3,0,138)" stroke-width="1" opacity="1" d="M 42.5 21 L 44 23.5 Q 43 26 42 24.5 L 43 22.5 L 42.5 21 Z " /><path fill="rgb(3,0,138)" stroke="rgb(3,0,138)" stroke-width="1" opacity="1" d="M 13.5 25 L 15 25.5 L 13.5 26 L 13.5 25 Z " /><path fill="rgb(225,225,236)" stroke="rgb(225,225,236)" stroke-width="1" opacity="1" d="M 1.5 14 L 1.5 15 L 1.5 14 Z " /><path fill="rgb(225,225,236)" stroke="rgb(225,225,236)" stroke-width="1" opacity="1" d="M 29.5 14 L 29.5 15 L 29.5 14 Z " /><path fill="rgb(225,225,236)" stroke="rgb(225,225,236)" stroke-width="1" opacity="1" d="M 25.5 15 L 25.5 16 L 25.5 15 Z " /><path fill="rgb(225,225,236)" stroke="rgb(225,225,236)" stroke-width="1" opacity="1" d="M 34.5 15 L 34.5 16 L 34.5 15 Z " /><path fill="rgb(225,225,236)" stroke="rgb(225,225,236)" stroke-width="1" opacity="1" d="M 6.5 16 L 6.5 17 L 6.5 16 Z " /><path fill="rgb(225,225,236)" stroke="rgb(225,225,236)" stroke-width="1" opacity="1" d="M 11.5 16 L 11.5 17 L 11.5 16 Z " /><path fill="rgb(225,225,236)" stroke="rgb(225,225,236)" stroke-width="1" opacity="1" d="M 17.5 16 L 17.5 17 L 17.5 16 Z " /><path fill="rgb(225,225,236)" stroke="rgb(225,225,236)" stroke-width="1" opacity="1" d="M 21.5 16 L 22 24.5 L 21 24.5 L 21.5 16 Z " /><path fill="rgb(225,225,236)" stroke="rgb(225,225,236)" stroke-width="1" opacity="1" d="M 24.5 25 L 24.5 26 L 24.5 25 Z " /><path fill="rgb(225,225,236)" stroke="rgb(225,225,236)" stroke-width="1" opacity="1" d="M 35.5 25 L 35.5 26 L 35.5 25 Z " /><path fill="rgb(98,96,176)" stroke="rgb(98,96,176)" stroke-width="1" opacity="1" d="M 30.5 15 L 30.5 16 L 30.5 15 Z " /><path fill="rgb(98,96,176)" stroke="rgb(98,96,176)" stroke-width="1" opacity="1" d="M 25.5 16 L 25.5 17 L 25.5 16 Z " /><path fill="rgb(98,96,176)" stroke="rgb(98,96,176)" stroke-width="1" opacity="1" d="M 3.5 17 L 4 25.5 L 3 25.5 L 3.5 17 Z " /><path fill="rgb(98,96,176)" stroke="rgb(98,96,176)" stroke-width="1" opacity="1" d="M 41.5 18 Q 44 19 42.5 20 L 41.5 19 L 40 19.5 L 41.5 18 Z " /><path fill="rgb(98,96,176)" stroke="rgb(98,96,176)" stroke-width="1" opacity="1" d="M 29.5 21 L 29.5 22 L 29.5 21 Z " /><path fill="rgb(98,96,176)" stroke="rgb(98,96,176)" stroke-width="1" opacity="1" d="M 38.5 21 L 39 24.5 L 38 24.5 L 38.5 21 Z " /><path fill="rgb(98,96,176)" stroke="rgb(98,96,176)" stroke-width="1" opacity="1" d="M 41.5 21 L 41.5 22 L 41.5 21 Z " /><path fill="rgb(98,96,176)" stroke="rgb(98,96,176)" stroke-width="1" opacity="1" d="M 41.5 26 L 41.5 27 L 41.5 26 Z " /><path fill="rgb(177,176,213)" stroke="rgb(177,176,213)" stroke-width="1" opacity="1" d="M 2.5 14 L 7 14.5 L 2.5 15 L 2.5 14 Z " /><path fill="rgb(177,176,213)" stroke="rgb(177,176,213)" stroke-width="1" opacity="1" d="M 9.5 14 L 13 14.5 L 9.5 15 L 9.5 14 Z " /><path fill="rgb(177,176,213)" stroke="rgb(177,176,213)" stroke-width="1" opacity="1" d="M 15.5 14 L 19 14.5 L 15.5 15 L 15.5 14 Z " /><path fill="rgb(177,176,213)" stroke="rgb(177,176,213)" stroke-width="1" opacity="1" d="M 22.5 14 L 24 14.5 L 22.5 15 L 22.5 14 Z " /><path fill="rgb(177,176,213)" stroke="rgb(177,176,213)" stroke-width="1" opacity="1" d="M 30.5 14 L 33 14.5 L 30.5 15 L 30.5 14 Z " /><path fill="rgb(177,176,213)" stroke="rgb(177,176,213)" stroke-width="1" opacity="1" d="M 35.5 14 L 39 14.5 L 35.5 15 L 35.5 14 Z " /><path fill="rgb(177,176,213)" stroke="rgb(177,176,213)" stroke-width="1" opacity="1" d="M 41.5 14 L 41.5 15 L 41.5 14 Z " /><path fill="rgb(177,176,213)" stroke="rgb(177,176,213)" stroke-width="1" opacity="1" d="M 12.5 17 L 13 24.5 L 12 24.5 L 12.5 17 Z " /><path fill="rgb(177,176,213)" stroke="rgb(177,176,213)" stroke-width="1" opacity="1" d="M 15.5 17 L 16 24.5 L 15 24.5 L 15.5 17 Z " /><path fill="rgb(177,176,213)" stroke="rgb(177,176,213)" stroke-width="1" opacity="1" d="M 18.5 17 L 18.5 18 L 18.5 17 Z " /><path fill="rgb(177,176,213)" stroke="rgb(177,176,213)" stroke-width="1" opacity="1" d="M 27.5 18 L 27.5 19 L 27.5 18 Z " /><path fill="rgb(177,176,213)" stroke="rgb(177,176,213)" stroke-width="1" opacity="1" d="M 32.5 18 L 33 26.5 L 32 26.5 L 32.5 18 Z " /><path fill="rgb(177,176,213)" stroke="rgb(177,176,213)" stroke-width="1" opacity="1" d="M 43.5 20 L 43.5 21 L 43.5 20 Z " /><path fill="rgb(177,176,213)" stroke="rgb(177,176,213)" stroke-width="1" opacity="1" d="M 23.5 24 L 23.5 25 L 23.5 24 Z " /><path fill="rgb(177,176,213)" stroke="rgb(177,176,213)" stroke-width="1" opacity="1" d="M 28.5 24 L 28.5 25 L 28.5 24 Z " /><path fill="rgb(177,176,213)" stroke="rgb(177,176,213)" stroke-width="1" opacity="1" d="M 39.5 25 L 39.5 26 L 39.5 25 Z " /><path fill="rgb(177,176,213)" stroke="rgb(177,176,213)" stroke-width="1" opacity="1" d="M 20.5 26 L 20.5 27 L 20.5 26 Z " /><path fill="rgb(177,176,213)" stroke="rgb(177,176,213)" stroke-width="1" opacity="1" d="M 35.5 26 L 35.5 27 L 35.5 26 Z " /><path fill="rgb(177,176,213)" stroke="rgb(177,176,213)" stroke-width="1" opacity="1" d="M 1.5 30 L 1.5 31 L 1.5 30 Z " /><path fill="rgb(57,53,159)" stroke="rgb(57,53,159)" stroke-width="1" opacity="1" d="M 16.5 15 L 16.5 16 L 16.5 15 Z " /><path fill="rgb(57,53,159)" stroke="rgb(57,53,159)" stroke-width="1" opacity="1" d="M 32.5 15 L 32 16.5 L 31.5 23 L 31 16.5 L 32.5 15 Z " /><path fill="rgb(57,53,159)" stroke="rgb(57,53,159)" stroke-width="1" opacity="1" d="M 40.5 15 L 40.5 16 L 40.5 15 Z " /><path fill="rgb(57,53,159)" stroke="rgb(57,53,159)" stroke-width="1" opacity="1" d="M 36.5 16 L 37 24.5 L 36 24.5 L 36.5 16 Z " /><path fill="rgb(57,53,159)" stroke="rgb(57,53,159)" stroke-width="1" opacity="1" d="M 5.5 17 L 6 25.5 L 5 25.5 L 5.5 17 Z " /><path fill="rgb(57,53,159)" stroke="rgb(57,53,159)" stroke-width="1" opacity="1" d="M 22.5 17 L 23 23.5 L 22 23.5 L 22.5 17 Z " /><path fill="rgb(57,53,159)" stroke="rgb(57,53,159)" stroke-width="1" opacity="1" d="M 43.5 18 L 43.5 19 L 43.5 18 Z " /><path fill="rgb(57,53,159)" stroke="rgb(57,53,159)" stroke-width="1" opacity="1" d="M 27.5 19 L 27.5 20 L 27.5 19 Z " /><path fill="rgb(57,53,159)" stroke="rgb(57,53,159)" stroke-width="1" opacity="1" d="M 38.5 19 L 38.5 20 L 38.5 19 Z " /><path fill="rgb(57,53,159)" stroke="rgb(57,53,159)" stroke-width="1" opacity="1" d="M 40.5 20 L 40.5 21 L 40.5 20 Z " /><path fill="rgb(57,53,159)" stroke="rgb(57,53,159)" stroke-width="1" opacity="1" d="M 27.5 22 L 27.5 23 L 27.5 22 Z " /><path fill="rgb(57,53,159)" stroke="rgb(57,53,159)" stroke-width="1" opacity="1" d="M 38.5 25 L 38.5 26 L 38.5 25 Z " /><path fill="rgb(57,53,159)" stroke="rgb(57,53,159)" stroke-width="1" opacity="1" d="M 31.5 26 L 31.5 27 L 31.5 26 Z " /><path fill="rgb(57,53,159)" stroke="rgb(57,53,159)" stroke-width="1" opacity="1" d="M 3.5 28 L 3.5 29 L 3.5 28 Z " /><path fill="rgb(80,79,167)" stroke="rgb(80,79,167)" stroke-width="1" opacity="1" d="M 6.5 15 L 6.5 16 L 6.5 15 Z " /><path fill="rgb(80,79,167)" stroke="rgb(80,79,167)" stroke-width="1" opacity="1" d="M 21.5 15 L 21.5 16 L 21.5 15 Z " /><path fill="rgb(80,79,167)" stroke="rgb(80,79,167)" stroke-width="1" opacity="1" d="M 24.5 15 L 24.5 16 L 24.5 15 Z " /><path fill="rgb(80,79,167)" stroke="rgb(80,79,167)" stroke-width="1" opacity="1" d="M 39.5 15 L 39 16.5 L 38.5 19 L 38 16.5 L 39.5 15 Z " /><path fill="rgb(80,79,167)" stroke="rgb(80,79,167)" stroke-width="1" opacity="1" d="M 3.5 16 L 3.5 17 L 3.5 16 Z " /><path fill="rgb(80,79,167)" stroke="rgb(80,79,167)" stroke-width="1" opacity="1" d="M 9.5 16 L 9.5 17 L 9.5 16 Z " /><path fill="rgb(80,79,167)" stroke="rgb(80,79,167)" stroke-width="1" opacity="1" d="M 18.5 16 L 18.5 17 L 18.5 16 Z " /><path fill="rgb(80,79,167)" stroke="rgb(80,79,167)" stroke-width="1" opacity="1" d="M 41.5 16 L 41.5 17 L 41.5 16 Z " /><path fill="rgb(80,79,167)" stroke="rgb(80,79,167)" stroke-width="1" opacity="1" d="M 28.5 20 L 28.5 21 L 28.5 20 Z " /><path fill="rgb(80,79,167)" stroke="rgb(80,79,167)" stroke-width="1" opacity="1" d="M 39.5 20 L 39.5 21 L 39.5 20 Z " /><path fill="rgb(80,79,167)" stroke="rgb(80,79,167)" stroke-width="1" opacity="1" d="M 42.5 20 L 42.5 21 L 42.5 20 Z " /><path fill="rgb(80,79,167)" stroke="rgb(80,79,167)" stroke-width="1" opacity="1" d="M 26.5 21 L 26.5 22 L 26.5 21 Z " /><path fill="rgb(80,79,167)" stroke="rgb(80,79,167)" stroke-width="1" opacity="1" d="M 3.5 26 L 5 28.5 Q 4 31 3 29.5 Q 5 28.5 3 27.5 L 3.5 26 Z " /><path fill="rgb(80,79,167)" stroke="rgb(80,79,167)" stroke-width="1" opacity="1" d="M 5.5 26 L 5.5 27 L 5.5 26 Z " /><path fill="rgb(80,79,167)" stroke="rgb(80,79,167)" stroke-width="1" opacity="1" d="M 12.5 26 L 16 26.5 L 12.5 27 L 12.5 26 Z " /><path fill="rgb(80,79,167)" stroke="rgb(80,79,167)" stroke-width="1" opacity="1" d="M 21.5 26 L 24 26.5 L 21.5 27 L 21.5 26 Z " /><path fill="rgb(80,79,167)" stroke="rgb(80,79,167)" stroke-width="1" opacity="1" d="M 36.5 26 L 41 26.5 L 36.5 27 L 36.5 26 Z " /><path fill="rgb(80,79,167)" stroke="rgb(80,79,167)" stroke-width="1" opacity="1" d="M 1.5 29 L 1.5 30 L 1.5 29 Z " /><path fill="rgb(197,195,221)" stroke="rgb(197,195,221)" stroke-width="1" opacity="1" d="M 13.5 14 L 15 14.5 L 13.5 15 L 13.5 14 Z " /><path fill="rgb(197,195,221)" stroke="rgb(197,195,221)" stroke-width="1" opacity="1" d="M 33.5 14 L 33.5 15 L 33.5 14 Z " /><path fill="rgb(197,195,221)" stroke="rgb(197,195,221)" stroke-width="1" opacity="1" d="M 7.5 15 L 7.5 16 L 7.5 15 Z " /><path fill="rgb(197,195,221)" stroke="rgb(197,195,221)" stroke-width="1" opacity="1" d="M 44.5 16 L 45 17.5 L 44 17.5 L 44.5 16 Z " /><path fill="rgb(197,195,221)" stroke="rgb(197,195,221)" stroke-width="1" opacity="1" d="M 8.5 17 L 8.5 18 L 8.5 17 Z " /><path fill="rgb(197,195,221)" stroke="rgb(197,195,221)" stroke-width="1" opacity="1" d="M 19.5 17 L 19.5 18 L 19.5 17 Z " /><path fill="rgb(197,195,221)" stroke="rgb(197,195,221)" stroke-width="1" opacity="1" d="M 23.5 19 L 24 23.5 L 23 23.5 L 23.5 19 Z " /><path fill="rgb(197,195,221)" stroke="rgb(197,195,221)" stroke-width="1" opacity="1" d="M 44.5 21 L 44.5 22 L 44.5 21 Z " /><path fill="rgb(197,195,221)" stroke="rgb(197,195,221)" stroke-width="1" opacity="1" d="M 41.5 22 L 41.5 23 L 41.5 22 Z " /><path fill="rgb(197,195,221)" stroke="rgb(197,195,221)" stroke-width="1" opacity="1" d="M 27.5 23 L 27.5 24 L 27.5 23 Z " /><path fill="rgb(197,195,221)" stroke="rgb(197,195,221)" stroke-width="1" opacity="1" d="M 44.5 24 L 44.5 25 L 44.5 24 Z " /><path fill="rgb(197,195,221)" stroke="rgb(197,195,221)" stroke-width="1" opacity="1" d="M 42.5 26 L 42.5 27 L 42.5 26 Z " /><path fill="rgb(197,195,221)" stroke="rgb(197,195,221)" stroke-width="1" opacity="1" d="M 1.5 28 L 1.5 29 L 1.5 28 Z " /><path fill="rgb(197,195,221)" stroke="rgb(197,195,221)" stroke-width="1" opacity="1" d="M 4.5 29 L 4.5 30 L 4.5 29 Z " /><path fill="rgb(126,125,188)" stroke="rgb(126,125,188)" stroke-width="1" opacity="1" d="M 2.5 15 L 2.5 16 L 2.5 15 Z " /><path fill="rgb(126,125,188)" stroke="rgb(126,125,188)" stroke-width="1" opacity="1" d="M 35.5 15 L 35.5 16 L 35.5 15 Z " /><path fill="rgb(126,125,188)" stroke="rgb(126,125,188)" stroke-width="1" opacity="1" d="M 43.5 15 L 43.5 16 L 43.5 15 Z " /><path fill="rgb(126,125,188)" stroke="rgb(126,125,188)" stroke-width="1" opacity="1" d="M 23.5 18 L 23.5 19 L 23.5 18 Z " /><path fill="rgb(126,125,188)" stroke="rgb(126,125,188)" stroke-width="1" opacity="1" d="M 25.5 20 L 25.5 21 L 25.5 20 Z " /><path fill="rgb(126,125,188)" stroke="rgb(126,125,188)" stroke-width="1" opacity="1" d="M 30.5 22 L 30.5 23 L 30.5 22 Z " /><path fill="rgb(126,125,188)" stroke="rgb(126,125,188)" stroke-width="1" opacity="1" d="M 44.5 22 L 45 23.5 L 44 23.5 L 44.5 22 Z " /><path fill="rgb(126,125,188)" stroke="rgb(126,125,188)" stroke-width="1" opacity="1" d="M 12.5 25 Q 14 26 11.5 27 Q 10 26 12.5 25 Z " /><path fill="rgb(126,125,188)" stroke="rgb(126,125,188)" stroke-width="1" opacity="1" d="M 15.5 25 Q 18 26 16.5 27 Q 14 26 15.5 25 Z " /><path fill="rgb(126,125,188)" stroke="rgb(126,125,188)" stroke-width="1" opacity="1" d="M 23.5 25 L 23.5 26 L 23.5 25 Z " /><path fill="rgb(126,125,188)" stroke="rgb(126,125,188)" stroke-width="1" opacity="1" d="M 40.5 25 L 40.5 26 L 40.5 25 Z " /><path fill="rgb(126,125,188)" stroke="rgb(126,125,188)" stroke-width="1" opacity="1" d="M 43.5 25 L 43.5 26 L 43.5 25 Z " /><path fill="rgb(126,125,188)" stroke="rgb(126,125,188)" stroke-width="1" opacity="1" d="M 30.5 26 L 30.5 27 L 30.5 26 Z " /><path fill="rgb(126,125,188)" stroke="rgb(126,125,188)" stroke-width="1" opacity="1" d="M 5.5 27 L 5.5 28 L 5.5 27 Z " /><path fill="rgb(188,130,129)" stroke="rgb(188,130,129)" stroke-width="1" opacity="1" d="M 2.5 33 L 46 33.5 L 2.5 34 L 2.5 33 Z " /><path fill="rgb(139,18,17)" stroke="rgb(139,18,17)" stroke-width="1" opacity="1" d="M 6 28 L 45.5 28 Q 46.5 28.12 46 32 L 3 31.5 L 6 30 L 6 28 Z " /><path fill="rgb(178,107,105)" stroke="rgb(178,107,105)" stroke-width="1" opacity="1" d="M 2.5 13 L 46 13.5 L 2.5 14 L 2.5 13 Z " /><path fill="rgb(178,107,105)" stroke="rgb(178,107,105)" stroke-width="1" opacity="1" d="M 11.5 27 L 17 27.5 L 11.5 28 L 11.5 27 Z " /><path fill="rgb(178,107,105)" stroke="rgb(178,107,105)" stroke-width="1" opacity="1" d="M 21.5 27 L 24 27.5 L 21.5 28 L 21.5 27 Z " /><path fill="rgb(178,107,105)" stroke="rgb(178,107,105)" stroke-width="1" opacity="1" d="M 27.5 27 L 27.5 28 L 27.5 27 Z " /><path fill="rgb(178,107,105)" stroke="rgb(178,107,105)" stroke-width="1" opacity="1" d="M 31.5 27 L 33 27.5 L 31.5 28 L 31.5 27 Z " /><path fill="rgb(178,107,105)" stroke="rgb(178,107,105)" stroke-width="1" opacity="1" d="M 35.5 27 L 41 27.5 L 35.5 28 L 35.5 27 Z " /><path fill="rgb(178,107,105)" stroke="rgb(178,107,105)" stroke-width="1" opacity="1" d="M 44.5 27 L 46 27.5 L 44.5 28 L 44.5 27 Z " /><path fill="rgb(178,107,105)" stroke="rgb(178,107,105)" stroke-width="1" opacity="1" d="M 5.5 29 L 5.5 30 L 5.5 29 Z " /><path fill="rgb(178,107,105)" stroke="rgb(178,107,105)" stroke-width="1" opacity="1" d="M 2.5 31 L 2.5 32 L 2.5 31 Z " /><path fill="rgb(185,113,112)" stroke="rgb(185,113,112)" stroke-width="1" opacity="1" d="M 7.5 27 L 11 27.5 L 7.5 28 L 7.5 27 Z " /><path fill="rgb(185,113,112)" stroke="rgb(185,113,112)" stroke-width="1" opacity="1" d="M 17.5 27 L 21 27.5 L 17.5 28 L 17.5 27 Z " /><path fill="rgb(185,113,112)" stroke="rgb(185,113,112)" stroke-width="1" opacity="1" d="M 24.5 27 L 27 27.5 L 24.5 28 L 24.5 27 Z " /><path fill="rgb(185,113,112)" stroke="rgb(185,113,112)" stroke-width="1" opacity="1" d="M 28.5 27 L 31 27.5 L 28.5 28 L 28.5 27 Z " /><path fill="rgb(185,113,112)" stroke="rgb(185,113,112)" stroke-width="1" opacity="1" d="M 33.5 27 L 35 27.5 L 33.5 28 L 33.5 27 Z " /><path fill="rgb(185,113,112)" stroke="rgb(185,113,112)" stroke-width="1" opacity="1" d="M 41.5 27 L 44 27.5 L 41.5 28 L 41.5 27 Z " /><path fill="rgb(195,144,143)" stroke="rgb(195,144,143)" stroke-width="1" opacity="1" d="M 1.5 13 L 1.5 14 L 1.5 13 Z " /><path fill="rgb(195,144,143)" stroke="rgb(195,144,143)" stroke-width="1" opacity="1" d="M 46.5 28 L 47 30.5 L 46 30.5 L 46.5 28 Z " /><path fill="rgb(195,144,143)" stroke="rgb(195,144,143)" stroke-width="1" opacity="1" d="M 1.5 31 L 1.5 32 L 1.5 31 Z " /><path fill="rgb(199,154,152)" stroke="rgb(199,154,152)" stroke-width="1" opacity="1" d="M 3.5 30 L 3.5 31 L 3.5 30 Z " /><path fill="rgb(199,154,152)" stroke="rgb(199,154,152)" stroke-width="1" opacity="1" d="M 46.5 31 Q 48 32 45.5 33 L 2.5 33 L 1.5 34 L 1 32 L 45.5 32 L 46.5 31 Z " /></svg>