<svg width="48" height="48" version="1.1" xmlns="http://www.w3.org/2000/svg" desc="Created with imagetracer.js version 1.2.6" ><path fill="rgb(0,0,0)" stroke="rgb(0,0,0)" stroke-width="1" opacity="0" d="M 0 0 L 47.5 0 L 48 0.5 L 48 15.5 L 47 15.5 L 45.5 13 L 11.5 13 L 10 14.5 L 5.5 20 Q 0.13 20.62 0 19.5 L 0 0 Z " /><path fill="rgb(0,0,0)" stroke="rgb(0,0,0)" stroke-width="1" opacity="0" d="M 17.5 17 L 18 19 L 41 19.5 L 19.5 20 L 18 21.5 L 17.5 29 L 13 22.5 L 17.5 17 Z " /><path fill="rgb(0,0,0)" stroke="rgb(0,0,0)" stroke-width="1" opacity="0" d="M 47.5 22 L 48 23.5 L 47 23.5 L 47.5 22 Z " /><path fill="rgb(0,0,0)" stroke="rgb(0,0,0)" stroke-width="1" opacity="0" d="M 6.5 27 L 12.5 34 L 25.5 34 L 26 33.5 L 26 27 L 33 27 L 33 34 L 44.5 34 L 47.5 32 L 48 48 L 0.5 48 L 0 47.5 L 0 34 L 6 34 L 6.5 27 Z " /><path fill="rgb(0,0,0)" stroke="rgb(0,0,0)" stroke-width="1" opacity="0" d="M 18.5 30 L 18.5 31 L 18.5 30 Z " /><path fill="rgb(0,74,160)" stroke="rgb(0,74,160)" stroke-width="1" opacity="0.8549019607843137" d="M 10.5 16 L 10.5 17 L 10.5 16 Z " /><path fill="rgb(0,74,160)" stroke="rgb(0,74,160)" stroke-width="1" opacity="0.8549019607843137" d="M 46.5 16 L 46.5 17 L 46.5 16 Z " /><path fill="rgb(0,74,160)" stroke="rgb(0,74,160)" stroke-width="1" opacity="0.8549019607843137" d="M 41.5 18 L 41.5 19 L 41.5 18 Z " /><path fill="rgb(0,74,160)" stroke="rgb(0,74,160)" stroke-width="1" opacity="0.8549019607843137" d="M 4.5 21 L 4.5 22 L 4.5 21 Z " /><path fill="rgb(0,74,160)" stroke="rgb(0,74,160)" stroke-width="1" opacity="0.8549019607843137" d="M 24.5 26 L 25 31.5 L 24 31.5 L 24.5 26 Z " /><path fill="rgb(0,74,160)" stroke="rgb(0,74,160)" stroke-width="1" opacity="0.8549019607843137" d="M 17.5 31 L 17.5 32 L 17.5 31 Z " /><path fill="rgb(0,74,160)" stroke="rgb(0,74,160)" stroke-width="1" opacity="0.5882352941176471" d="M 7.5 19 L 7.5 20 L 7.5 19 Z " /><path fill="rgb(0,74,160)" stroke="rgb(0,74,160)" stroke-width="1" opacity="0.5882352941176471" d="M 0.5 21 L 0.5 22 L 0.5 21 Z " /><path fill="rgb(0,74,160)" stroke="rgb(0,74,160)" stroke-width="1" opacity="0.5882352941176471" d="M 19.5 21 L 19.5 22 L 19.5 21 Z " /><path fill="rgb(0,74,160)" stroke="rgb(0,74,160)" stroke-width="1" opacity="0.5882352941176471" d="M 41.5 26 L 42 27.5 L 41 27.5 L 41.5 26 Z " /><path fill="rgb(0,74,160)" stroke="rgb(0,74,160)" stroke-width="1" opacity="0.5882352941176471" d="M 10.5 30 L 10.5 31 L 10.5 30 Z " /><path fill="rgb(0,74,160)" stroke="rgb(0,74,160)" stroke-width="1" opacity="0.9725490196078431" d="M 12.5 14 L 12.5 15 L 12.5 14 Z " /><path fill="rgb(0,74,160)" stroke="rgb(0,74,160)" stroke-width="1" opacity="0.9725490196078431" d="M 14.5 14 L 17 15.5 L 15.5 15 Q 13.13 14.88 14.5 14 Z " /><path fill="rgb(0,74,160)" stroke="rgb(0,74,160)" stroke-width="1" opacity="0.9725490196078431" d="M 21.5 14 L 31 14.5 L 21.5 15 L 21.5 14 Z " /><path fill="rgb(0,74,160)" stroke="rgb(0,74,160)" stroke-width="1" opacity="0.9725490196078431" d="M 34.5 14 L 44 14.5 L 34.5 15 L 34.5 14 Z " /><path fill="rgb(0,74,160)" stroke="rgb(0,74,160)" stroke-width="1" opacity="0.9725490196078431" d="M 45.5 15 L 45.5 16 L 45.5 15 Z " /><path fill="rgb(0,74,160)" stroke="rgb(0,74,160)" stroke-width="1" opacity="0.9725490196078431" d="M 46.5 17 L 46.5 18 L 46.5 17 Z " /><path fill="rgb(0,74,160)" stroke="rgb(0,74,160)" stroke-width="1" opacity="0.9725490196078431" d="M 7.5 20 L 7.5 21 L 7.5 20 Z " /><path fill="rgb(0,74,160)" stroke="rgb(0,74,160)" stroke-width="1" opacity="0.9725490196078431" d="M 12.5 20 Q 14 21 11.5 22 Q 10 21 12.5 20 Z " /><path fill="rgb(0,74,160)" stroke="rgb(0,74,160)" stroke-width="1" opacity="0.9725490196078431" d="M 4.5 22 L 5 31.5 L 4 31.5 L 4.5 22 Z " /><path fill="rgb(0,74,160)" stroke="rgb(0,74,160)" stroke-width="1" opacity="0.9725490196078431" d="M 12.5 25 L 12.5 26 L 12.5 25 Z " /><path fill="rgb(0,74,160)" stroke="rgb(0,74,160)" stroke-width="1" opacity="0.9725490196078431" d="M 24.5 25 L 24.5 26 L 24.5 25 Z " /><path fill="rgb(0,74,160)" stroke="rgb(0,74,160)" stroke-width="1" opacity="0.9725490196078431" d="M 46.5 25 L 46.5 26 L 46.5 25 Z " /><path fill="rgb(0,74,160)" stroke="rgb(0,74,160)" stroke-width="1" opacity="0.9725490196078431" d="M 41.5 28 L 41.5 29 L 41.5 28 Z " /><path fill="rgb(0,74,160)" stroke="rgb(0,74,160)" stroke-width="1" opacity="0.9725490196078431" d="M 10.5 29 L 10.5 30 L 10.5 29 Z " /><path fill="rgb(0,74,160)" stroke="rgb(0,74,160)" stroke-width="1" opacity="0.9725490196078431" d="M 16.5 30 L 16.5 31 L 16.5 30 Z " /><path fill="rgb(0,74,160)" stroke="rgb(0,74,160)" stroke-width="1" opacity="0.9725490196078431" d="M 45.5 31 L 45.5 32 L 45.5 31 Z " /><path fill="rgb(0,74,160)" stroke="rgb(0,74,160)" stroke-width="1" opacity="1" d="M 13.5 14 L 15.5 15 L 17 14.5 L 11 21.5 L 11 23.5 L 17 31.5 L 12.5 32 L 7 25.5 L 7 21.5 L 13.5 14 Z " /><path fill="rgb(0,74,160)" stroke="rgb(0,74,160)" stroke-width="1" opacity="1" d="M 20.5 14 L 21.5 15 L 30.5 15 L 32 14.5 Q 32.38 18.13 31.5 18 L 20 18 L 20.5 14 Z " /><path fill="rgb(0,74,160)" stroke="rgb(0,74,160)" stroke-width="1" opacity="1" d="M 34 15 L 44.5 15 L 46 16.5 L 47 19.5 L 45 23.5 Q 47.6 24.9 47 29.5 L 44.5 32 L 34 32 L 34 29 L 42 29 L 42 25 L 34 25 L 34 22 L 40.5 22 L 42 20.5 L 42 18 L 34 18 L 34 15 Z " /><path fill="rgb(0,74,160)" stroke="rgb(0,74,160)" stroke-width="1" opacity="1" d="M 1 22 Q 3.96 21.63 4 22.5 L 4 32 Q 1.04 32.38 1 31.5 L 1 22 Z " /><path fill="rgb(0,74,160)" stroke="rgb(0,74,160)" stroke-width="1" opacity="1" d="M 20 22 L 31.5 22 Q 32.38 22.04 32 25 L 24 25 L 24 32 L 20 32 L 20 22 Z " /><path fill="rgb(0,74,160)" stroke="rgb(0,74,160)" stroke-width="1" opacity="0.4470588235294118" d="M 11.5 14 L 11.5 15 L 11.5 14 Z " /><path fill="rgb(0,74,160)" stroke="rgb(0,74,160)" stroke-width="1" opacity="0.4470588235294118" d="M 32 14 L 34 14 L 34 18 L 40.5 18 Q 43 19 41.5 20 L 40.5 19 Q 35 20 32.5 18 L 31.5 19 L 20.5 19 L 20.5 18 L 32 18 L 32 14 Z " /><path fill="rgb(0,74,160)" stroke="rgb(0,74,160)" stroke-width="1" opacity="0.4470588235294118" d="M 17.5 15 L 17.5 16 L 17.5 15 Z " /><path fill="rgb(0,74,160)" stroke="rgb(0,74,160)" stroke-width="1" opacity="0.4470588235294118" d="M 47.5 18 L 48 19.5 L 47 19.5 L 47.5 18 Z " /><path fill="rgb(0,74,160)" stroke="rgb(0,74,160)" stroke-width="1" opacity="0.4470588235294118" d="M 6.5 20 L 6.5 21 L 6.5 20 Z " /><path fill="rgb(0,74,160)" stroke="rgb(0,74,160)" stroke-width="1" opacity="0.4470588235294118" d="M 12.5 21 L 12.5 22 L 12.5 21 Z " /><path fill="rgb(0,74,160)" stroke="rgb(0,74,160)" stroke-width="1" opacity="0.4470588235294118" d="M 33.5 23 Q 35 24 32.5 25 Q 31 24 33.5 23 Z " /><path fill="rgb(0,74,160)" stroke="rgb(0,74,160)" stroke-width="1" opacity="0.4470588235294118" d="M 6.5 25 L 6.5 26 L 6.5 25 Z " /><path fill="rgb(0,74,160)" stroke="rgb(0,74,160)" stroke-width="1" opacity="0.4470588235294118" d="M 13.5 25 L 13.5 26 L 13.5 25 Z " /><path fill="rgb(0,74,160)" stroke="rgb(0,74,160)" stroke-width="1" opacity="0.4470588235294118" d="M 16.5 29 L 16.5 30 L 16.5 29 Z " /><path fill="rgb(0,74,160)" stroke="rgb(0,74,160)" stroke-width="1" opacity="0.4470588235294118" d="M 33.5 29 L 34 31.5 L 33 31.5 L 33.5 29 Z " /><path fill="rgb(0,74,160)" stroke="rgb(0,74,160)" stroke-width="1" opacity="0.4470588235294118" d="M 46.5 31 L 46.5 32 L 46.5 31 Z " /><path fill="rgb(0,74,160)" stroke="rgb(0,74,160)" stroke-width="1" opacity="0.4470588235294118" d="M 0.5 32 L 0.5 33 L 0.5 32 Z " /><path fill="rgb(0,74,160)" stroke="rgb(0,74,160)" stroke-width="1" opacity="0.4470588235294118" d="M 19.5 32 L 19.5 33 L 19.5 32 Z " /><path fill="rgb(0,74,160)" stroke="rgb(0,74,160)" stroke-width="1" opacity="0.9098039215686274" d="M 17.5 14 L 17.5 15 L 17.5 14 Z " /><path fill="rgb(0,74,160)" stroke="rgb(0,74,160)" stroke-width="1" opacity="0.9098039215686274" d="M 11.5 15 L 11.5 16 L 11.5 15 Z " /><path fill="rgb(0,74,160)" stroke="rgb(0,74,160)" stroke-width="1" opacity="0.9098039215686274" d="M 46.5 20 L 46.5 21 L 46.5 20 Z " /><path fill="rgb(0,74,160)" stroke="rgb(0,74,160)" stroke-width="1" opacity="0.9098039215686274" d="M 1.5 21 L 4 21.5 L 1.5 22 L 1.5 21 Z " /><path fill="rgb(0,74,160)" stroke="rgb(0,74,160)" stroke-width="1" opacity="0.9098039215686274" d="M 20.5 21 L 20.5 22 L 20.5 21 Z " /><path fill="rgb(0,74,160)" stroke="rgb(0,74,160)" stroke-width="1" opacity="0.9098039215686274" d="M 40.5 21 L 40.5 22 L 40.5 21 Z " /><path fill="rgb(0,74,160)" stroke="rgb(0,74,160)" stroke-width="1" opacity="0.9098039215686274" d="M 41.5 25 L 41.5 26 L 41.5 25 Z " /><path fill="rgb(0,74,160)" stroke="rgb(0,74,160)" stroke-width="1" opacity="0.9098039215686274" d="M 13.5 26 L 13.5 27 L 13.5 26 Z " /><path fill="rgb(0,74,160)" stroke="rgb(0,74,160)" stroke-width="1" opacity="0.9098039215686274" d="M 9.5 28 L 9.5 29 L 9.5 28 Z " /><path fill="rgb(0,74,160)" stroke="rgb(0,74,160)" stroke-width="1" opacity="0.9098039215686274" d="M 46.5 30 L 46.5 31 L 46.5 30 Z " /><path fill="rgb(0,74,160)" stroke="rgb(0,74,160)" stroke-width="1" opacity="0.8784313725490196" d="M 13.5 19 L 13.5 20 L 13.5 19 Z " /><path fill="rgb(0,74,160)" stroke="rgb(0,74,160)" stroke-width="1" opacity="0.8784313725490196" d="M 21.5 21 L 32 21.5 L 21.5 22 L 21.5 21 Z " /><path fill="rgb(0,74,160)" stroke="rgb(0,74,160)" stroke-width="1" opacity="0.8784313725490196" d="M 34.5 21 L 40 21.5 L 34.5 22 L 34.5 21 Z " /><path fill="rgb(0,74,160)" stroke="rgb(0,74,160)" stroke-width="1" opacity="0.3843137254901961" d="M 18.5 14 L 18.5 15 L 18.5 14 Z " /><path fill="rgb(0,74,160)" stroke="rgb(0,74,160)" stroke-width="1" opacity="0.3843137254901961" d="M 45.5 14 Q 48 15 46.5 16 Q 44 15 45.5 14 Z " /><path fill="rgb(0,74,160)" stroke="rgb(0,74,160)" stroke-width="1" opacity="0.3843137254901961" d="M 47.5 17 L 47.5 18 L 47.5 17 Z " /><path fill="rgb(0,74,160)" stroke="rgb(0,74,160)" stroke-width="1" opacity="0.3843137254901961" d="M 13.5 20 L 13.5 21 L 13.5 20 Z " /><path fill="rgb(0,74,160)" stroke="rgb(0,74,160)" stroke-width="1" opacity="0.3843137254901961" d="M 32 22 L 34 22.5 L 33 23.5 L 33.5 25 L 32 22 Z " /><path fill="rgb(0,74,160)" stroke="rgb(0,74,160)" stroke-width="1" opacity="0.3843137254901961" d="M 47.5 25 L 47.5 26 L 47.5 25 Z " /><path fill="rgb(0,74,160)" stroke="rgb(0,74,160)" stroke-width="1" opacity="0.3843137254901961" d="M 9.5 29 L 9.5 30 L 9.5 29 Z " /><path fill="rgb(0,74,160)" stroke="rgb(0,74,160)" stroke-width="1" opacity="0.3843137254901961" d="M 18.5 32 L 18.5 33 L 18.5 32 Z " /><path fill="rgb(0,74,160)" stroke="rgb(0,74,160)" stroke-width="1" opacity="0.3843137254901961" d="M 45.5 32 L 45.5 33 L 45.5 32 Z " /><path fill="rgb(0,74,160)" stroke="rgb(0,74,160)" stroke-width="1" opacity="0.6549019607843137" d="M 19.5 14 L 19.5 15 L 19.5 14 Z " /><path fill="rgb(0,74,160)" stroke="rgb(0,74,160)" stroke-width="1" opacity="0.6549019607843137" d="M 41.5 20 L 41.5 21 L 41.5 20 Z " /><path fill="rgb(0,74,160)" stroke="rgb(0,74,160)" stroke-width="1" opacity="0.6549019607843137" d="M 0.5 22 L 1 31.5 L 0 31.5 L 0.5 22 Z " /><path fill="rgb(0,74,160)" stroke="rgb(0,74,160)" stroke-width="1" opacity="0.6549019607843137" d="M 11.5 22 L 11.5 23 L 11.5 22 Z " /><path fill="rgb(0,74,160)" stroke="rgb(0,74,160)" stroke-width="1" opacity="0.6549019607843137" d="M 7.5 26 L 7.5 27 L 7.5 26 Z " /><path fill="rgb(0,74,160)" stroke="rgb(0,74,160)" stroke-width="1" opacity="0.6549019607843137" d="M 15.5 28 L 15.5 29 L 15.5 28 Z " /><path fill="rgb(0,74,160)" stroke="rgb(0,74,160)" stroke-width="1" opacity="0.6549019607843137" d="M 12.5 32 L 12.5 33 L 12.5 32 Z " /><path fill="rgb(0,74,160)" stroke="rgb(0,74,160)" stroke-width="1" opacity="0.3215686274509804" d="M 13.5 13 L 18 13.5 L 13.5 14 L 13.5 13 Z " /><path fill="rgb(0,74,160)" stroke="rgb(0,74,160)" stroke-width="1" opacity="0.3215686274509804" d="M 20.5 13 L 32 13.5 L 20.5 14 L 20.5 13 Z " /><path fill="rgb(0,74,160)" stroke="rgb(0,74,160)" stroke-width="1" opacity="0.3215686274509804" d="M 10.5 15 L 10.5 16 L 10.5 15 Z " /><path fill="rgb(0,74,160)" stroke="rgb(0,74,160)" stroke-width="1" opacity="0.3215686274509804" d="M 32.5 21 L 34 21.5 L 32.5 22 L 32.5 21 Z " /><path fill="rgb(0,74,160)" stroke="rgb(0,74,160)" stroke-width="1" opacity="0.3215686274509804" d="M 5.5 22 L 6 24.5 L 5 24.5 L 5.5 22 Z " /><path fill="rgb(0,74,160)" stroke="rgb(0,74,160)" stroke-width="1" opacity="0.3215686274509804" d="M 14.5 26 L 14.5 27 L 14.5 26 Z " /><path fill="rgb(0,74,160)" stroke="rgb(0,74,160)" stroke-width="1" opacity="0.3215686274509804" d="M 33.5 28 L 33.5 29 L 33.5 28 Z " /><path fill="rgb(0,74,160)" stroke="rgb(0,74,160)" stroke-width="1" opacity="0.3215686274509804" d="M 17.5 30 L 17.5 31 L 17.5 30 Z " /><path fill="rgb(0,74,160)" stroke="rgb(0,74,160)" stroke-width="1" opacity="0.3215686274509804" d="M 33.5 32 L 33.5 33 L 33.5 32 Z " /><path fill="rgb(0,74,160)" stroke="rgb(0,74,160)" stroke-width="1" opacity="0.027450980392156862" d="M 11.5 13 Q 13 14 10.5 15 Q 9 14 11.5 13 Z " /><path fill="rgb(0,74,160)" stroke="rgb(0,74,160)" stroke-width="1" opacity="0.027450980392156862" d="M 45.5 13 Q 48 14 46.5 15 Q 44 14 45.5 13 Z " /><path fill="rgb(0,74,160)" stroke="rgb(0,74,160)" stroke-width="1" opacity="0.027450980392156862" d="M 18.5 15 L 19 18.5 L 18 18.5 L 17 16.5 L 18.5 15 Z " /><path fill="rgb(0,74,160)" stroke="rgb(0,74,160)" stroke-width="1" opacity="0.027450980392156862" d="M 6.5 19 Q 8 20 5.5 21 Q 4 20 6.5 19 Z " /><path fill="rgb(0,74,160)" stroke="rgb(0,74,160)" stroke-width="1" opacity="0.027450980392156862" d="M 19.5 20 L 19 21.5 L 19 29.5 L 17.5 30 Q 15 29 16.5 28 L 18 28.5 L 18 21.5 L 19.5 20 Z " /><path fill="rgb(0,74,160)" stroke="rgb(0,74,160)" stroke-width="1" opacity="0.027450980392156862" d="M 32.5 20 L 34 20.5 L 32.5 21 L 32.5 20 Z " /><path fill="rgb(0,74,160)" stroke="rgb(0,74,160)" stroke-width="1" opacity="0.027450980392156862" d="M 13.5 21 Q 15 22 12.5 23 Q 11 22 13.5 21 Z " /><path fill="rgb(0,74,160)" stroke="rgb(0,74,160)" stroke-width="1" opacity="0.027450980392156862" d="M 47.5 21 L 47.5 22 L 47.5 21 Z " /><path fill="rgb(0,74,160)" stroke="rgb(0,74,160)" stroke-width="1" opacity="0.027450980392156862" d="M 13.5 24 Q 16 25 14.5 26 Q 12 25 13.5 24 Z " /><path fill="rgb(0,74,160)" stroke="rgb(0,74,160)" stroke-width="1" opacity="0.027450980392156862" d="M 47.5 24 L 47.5 25 L 47.5 24 Z " /><path fill="rgb(0,74,160)" stroke="rgb(0,74,160)" stroke-width="1" opacity="0.027450980392156862" d="M 6.5 26 L 6.5 27 L 6.5 26 Z " /><path fill="rgb(0,74,160)" stroke="rgb(0,74,160)" stroke-width="1" opacity="0.027450980392156862" d="M 26.5 26 L 40.5 26 L 41 28 L 26.5 27 L 26.5 26 Z " /><path fill="rgb(0,74,160)" stroke="rgb(0,74,160)" stroke-width="1" opacity="0.027450980392156862" d="M 9.5 30 L 9.5 31 L 9.5 30 Z " /><path fill="rgb(0,74,160)" stroke="rgb(0,74,160)" stroke-width="1" opacity="0.027450980392156862" d="M 47.5 31 Q 49 32 46.5 33 Q 45 32 47.5 31 Z " /><path fill="rgb(0,74,160)" stroke="rgb(0,74,160)" stroke-width="1" opacity="0.027450980392156862" d="M 0.5 33 L 6 33.5 L 0.5 34 L 0.5 33 Z " /><path fill="rgb(0,74,160)" stroke="rgb(0,74,160)" stroke-width="1" opacity="0.027450980392156862" d="M 12.5 33 L 26 33.5 L 12.5 34 L 12.5 33 Z " /><path fill="rgb(0,74,160)" stroke="rgb(0,74,160)" stroke-width="1" opacity="0.027450980392156862" d="M 33.5 33 L 45 33.5 L 33.5 34 L 33.5 33 Z " /><path fill="rgb(0,74,160)" stroke="rgb(0,74,160)" stroke-width="1" opacity="0.6352941176470588" d="M 16.5 16 L 16.5 17 L 16.5 16 Z " /><path fill="rgb(0,74,160)" stroke="rgb(0,74,160)" stroke-width="1" opacity="0.6352941176470588" d="M 46.5 21 L 46.5 22 L 46.5 21 Z " /><path fill="rgb(0,74,160)" stroke="rgb(0,74,160)" stroke-width="1" opacity="0.6352941176470588" d="M 19.5 22 L 20 31.5 L 19 31.5 L 19.5 22 Z " /><path fill="rgb(0,74,160)" stroke="rgb(0,74,160)" stroke-width="1" opacity="0.6352941176470588" d="M 12.5 24 L 12.5 25 L 12.5 24 Z " /><path fill="rgb(0,74,160)" stroke="rgb(0,74,160)" stroke-width="1" opacity="0.6352941176470588" d="M 46.5 24 L 46.5 25 L 46.5 24 Z " /><path fill="rgb(0,74,160)" stroke="rgb(0,74,160)" stroke-width="1" opacity="0.6352941176470588" d="M 47.5 29 L 47.5 30 L 47.5 29 Z " /><path fill="rgb(0,74,160)" stroke="rgb(0,74,160)" stroke-width="1" opacity="0.25098039215686274" d="M 12.5 13 L 12.5 14 L 12.5 13 Z " /><path fill="rgb(0,74,160)" stroke="rgb(0,74,160)" stroke-width="1" opacity="0.25098039215686274" d="M 18.5 13 L 20 13.5 L 18.5 14 L 18.5 13 Z " /><path fill="rgb(0,74,160)" stroke="rgb(0,74,160)" stroke-width="1" opacity="0.25098039215686274" d="M 34.5 13 L 44 13.5 L 34.5 14 L 34.5 13 Z " /><path fill="rgb(0,74,160)" stroke="rgb(0,74,160)" stroke-width="1" opacity="0.25098039215686274" d="M 9.5 16 L 9.5 17 L 9.5 16 Z " /><path fill="rgb(0,74,160)" stroke="rgb(0,74,160)" stroke-width="1" opacity="0.25098039215686274" d="M 19.5 18 L 19.5 19 L 19.5 18 Z " /><path fill="rgb(0,74,160)" stroke="rgb(0,74,160)" stroke-width="1" opacity="0.25098039215686274" d="M 32.5 18 L 32.5 19 L 32.5 18 Z " /><path fill="rgb(0,74,160)" stroke="rgb(0,74,160)" stroke-width="1" opacity="0.25098039215686274" d="M 14.5 19 L 14.5 20 L 14.5 19 Z " /><path fill="rgb(0,74,160)" stroke="rgb(0,74,160)" stroke-width="1" opacity="0.25098039215686274" d="M 47.5 20 L 47.5 21 L 47.5 20 Z " /><path fill="rgb(0,74,160)" stroke="rgb(0,74,160)" stroke-width="1" opacity="0.25098039215686274" d="M 5.5 21 L 5.5 22 L 5.5 21 Z " /><path fill="rgb(0,74,160)" stroke="rgb(0,74,160)" stroke-width="1" opacity="0.25098039215686274" d="M 5.5 25 L 6 32.5 L 5 32.5 L 5.5 25 Z " /><path fill="rgb(0,74,160)" stroke="rgb(0,74,160)" stroke-width="1" opacity="0.25098039215686274" d="M 32.5 25 L 34 25.5 L 32.5 26 L 32.5 25 Z " /><path fill="rgb(0,74,160)" stroke="rgb(0,74,160)" stroke-width="1" opacity="0.25098039215686274" d="M 8.5 28 L 8.5 29 L 8.5 28 Z " /><path fill="rgb(0,74,160)" stroke="rgb(0,74,160)" stroke-width="1" opacity="0.25098039215686274" d="M 47.5 30 L 47.5 31 L 47.5 30 Z " /><path fill="rgb(0,74,160)" stroke="rgb(0,74,160)" stroke-width="1" opacity="0.25098039215686274" d="M 18.5 31 L 18.5 32 L 18.5 31 Z " /><path fill="rgb(0,74,160)" stroke="rgb(0,74,160)" stroke-width="1" opacity="0.25098039215686274" d="M 11.5 32 L 11.5 33 L 11.5 32 Z " /><path fill="rgb(0,74,160)" stroke="rgb(0,74,160)" stroke-width="1" opacity="0.12549019607843137" d="M 32.5 13 L 34 13.5 L 32.5 14 L 32.5 13 Z " /><path fill="rgb(0,74,160)" stroke="rgb(0,74,160)" stroke-width="1" opacity="0.12549019607843137" d="M 44.5 13 L 44.5 14 L 44.5 13 Z " /><path fill="rgb(0,74,160)" stroke="rgb(0,74,160)" stroke-width="1" opacity="0.12549019607843137" d="M 47.5 16 L 47.5 17 L 47.5 16 Z " /><path fill="rgb(0,74,160)" stroke="rgb(0,74,160)" stroke-width="1" opacity="0.12549019607843137" d="M 8.5 17 Q 10 18 7.5 19 Q 6 18 8.5 17 Z " /><path fill="rgb(0,74,160)" stroke="rgb(0,74,160)" stroke-width="1" opacity="0.12549019607843137" d="M 16.5 17 Q 18 18 15.5 19 Q 14 18 16.5 17 Z " /><path fill="rgb(0,74,160)" stroke="rgb(0,74,160)" stroke-width="1" opacity="0.12549019607843137" d="M 33.5 18 L 33.5 19 L 33.5 18 Z " /><path fill="rgb(0,74,160)" stroke="rgb(0,74,160)" stroke-width="1" opacity="0.12549019607843137" d="M 0.5 20 L 5 20.5 L 0.5 21 L 0.5 20 Z " /><path fill="rgb(0,74,160)" stroke="rgb(0,74,160)" stroke-width="1" opacity="0.12549019607843137" d="M 20.5 20 L 32 20.5 L 20.5 21 L 20.5 20 Z " /><path fill="rgb(0,74,160)" stroke="rgb(0,74,160)" stroke-width="1" opacity="0.12549019607843137" d="M 34.5 20 L 41 20.5 L 34.5 21 L 34.5 20 Z " /><path fill="rgb(0,74,160)" stroke="rgb(0,74,160)" stroke-width="1" opacity="0.12549019607843137" d="M 46.5 22 L 47 23.5 L 46 23.5 L 46.5 22 Z " /><path fill="rgb(0,74,160)" stroke="rgb(0,74,160)" stroke-width="1" opacity="0.12549019607843137" d="M 12.5 23 L 12.5 24 L 12.5 23 Z " /><path fill="rgb(0,74,160)" stroke="rgb(0,74,160)" stroke-width="1" opacity="0.12549019607843137" d="M 25.5 26 L 26 32.5 L 25 32.5 L 25.5 26 Z " /><path fill="rgb(0,74,160)" stroke="rgb(0,74,160)" stroke-width="1" opacity="0.12549019607843137" d="M 7.5 27 L 7.5 28 L 7.5 27 Z " /><path fill="rgb(0,74,160)" stroke="rgb(0,74,160)" stroke-width="1" opacity="0.12549019607843137" d="M 15.5 27 L 15.5 28 L 15.5 27 Z " /><path fill="rgb(0,74,160)" stroke="rgb(0,74,160)" stroke-width="1" opacity="0.12549019607843137" d="M 10.5 31 L 10.5 32 L 10.5 31 Z " /><path fill="rgb(0,74,160)" stroke="rgb(0,74,160)" stroke-width="1" opacity="0.6901960784313725" d="M 19.5 15 L 20 17.5 L 19 17.5 L 19.5 15 Z " /><path fill="rgb(0,74,160)" stroke="rgb(0,74,160)" stroke-width="1" opacity="0.6901960784313725" d="M 15.5 17 L 15.5 18 L 15.5 17 Z " /><path fill="rgb(0,74,160)" stroke="rgb(0,74,160)" stroke-width="1" opacity="0.6901960784313725" d="M 8.5 18 L 8.5 19 L 8.5 18 Z " /><path fill="rgb(0,74,160)" stroke="rgb(0,74,160)" stroke-width="1" opacity="0.6901960784313725" d="M 45.5 23 L 45.5 24 L 45.5 23 Z " /><path fill="rgb(0,74,160)" stroke="rgb(0,74,160)" stroke-width="1" opacity="0.6901960784313725" d="M 25.5 25 L 32 25.5 L 25.5 26 L 25.5 25 Z " /><path fill="rgb(0,74,160)" stroke="rgb(0,74,160)" stroke-width="1" opacity="0.6901960784313725" d="M 34.5 25 L 41 25.5 L 34.5 26 L 34.5 25 Z " /><path fill="rgb(0,74,160)" stroke="rgb(0,74,160)" stroke-width="1" opacity="0.6901960784313725" d="M 47.5 26 L 47.5 27 L 47.5 26 Z " /><path fill="rgb(0,74,160)" stroke="rgb(0,74,160)" stroke-width="1" opacity="0.6901960784313725" d="M 11.5 31 L 11.5 32 L 11.5 31 Z " /><path fill="rgb(0,74,160)" stroke="rgb(0,74,160)" stroke-width="1" opacity="0.6901960784313725" d="M 4.5 32 L 4.5 33 L 4.5 32 Z " /><path fill="rgb(0,74,160)" stroke="rgb(0,74,160)" stroke-width="1" opacity="0.6901960784313725" d="M 13.5 32 L 18 32.5 L 13.5 33 L 13.5 32 Z " /><path fill="rgb(0,74,160)" stroke="rgb(0,74,160)" stroke-width="1" opacity="0.6901960784313725" d="M 24.5 32 L 24.5 33 L 24.5 32 Z " /><path fill="rgb(0,74,160)" stroke="rgb(0,74,160)" stroke-width="1" opacity="0.6901960784313725" d="M 44.5 32 L 44.5 33 L 44.5 32 Z " /><path fill="rgb(0,74,160)" stroke="rgb(0,74,160)" stroke-width="1" opacity="0.7725490196078432" d="M 6.5 21 L 7 24.5 L 6 24.5 L 6.5 21 Z " /><path fill="rgb(0,74,160)" stroke="rgb(0,74,160)" stroke-width="1" opacity="0.7725490196078432" d="M 45.5 22 L 45.5 23 L 45.5 22 Z " /><path fill="rgb(0,74,160)" stroke="rgb(0,74,160)" stroke-width="1" opacity="0.7725490196078432" d="M 11.5 23 L 11.5 24 L 11.5 23 Z " /><path fill="rgb(0,74,160)" stroke="rgb(0,74,160)" stroke-width="1" opacity="0.7725490196078432" d="M 35.5 28 L 40 28.5 L 35.5 29 L 35.5 28 Z " /><path fill="rgb(0,74,160)" stroke="rgb(0,74,160)" stroke-width="1" opacity="0.7725490196078432" d="M 1.5 32 L 4 32.5 L 1.5 33 L 1.5 32 Z " /><path fill="rgb(0,74,160)" stroke="rgb(0,74,160)" stroke-width="1" opacity="0.8" d="M 44.5 14 L 44.5 15 L 44.5 14 Z " /><path fill="rgb(0,74,160)" stroke="rgb(0,74,160)" stroke-width="1" opacity="0.8" d="M 14.5 18 L 14.5 19 L 14.5 18 Z " /><path fill="rgb(0,74,160)" stroke="rgb(0,74,160)" stroke-width="1" opacity="0.8" d="M 14.5 27 L 14.5 28 L 14.5 27 Z " /><path fill="rgb(0,74,160)" stroke="rgb(0,74,160)" stroke-width="1" opacity="0.8" d="M 47.5 27 L 47.5 28 L 47.5 27 Z " /><path fill="rgb(0,74,160)" stroke="rgb(0,74,160)" stroke-width="1" opacity="0.8" d="M 40.5 28 L 40.5 29 L 40.5 28 Z " /><path fill="rgb(0,74,160)" stroke="rgb(0,74,160)" stroke-width="1" opacity="0.8" d="M 20.5 32 L 20.5 33 L 20.5 32 Z " /><path fill="rgb(0,74,160)" stroke="rgb(0,74,160)" stroke-width="1" opacity="0.8" d="M 23.5 32 L 23.5 33 L 23.5 32 Z " /><path fill="rgb(0,74,160)" stroke="rgb(0,74,160)" stroke-width="1" opacity="0.8" d="M 34.5 32 L 34.5 33 L 34.5 32 Z " /><path fill="rgb(0,74,160)" stroke="rgb(0,74,160)" stroke-width="1" opacity="0.796078431372549" d="M 9.5 17 L 9.5 18 L 9.5 17 Z " /><path fill="rgb(0,74,160)" stroke="rgb(0,74,160)" stroke-width="1" opacity="0.796078431372549" d="M 8.5 27 L 8.5 28 L 8.5 27 Z " /><path fill="rgb(0,74,160)" stroke="rgb(0,74,160)" stroke-width="1" opacity="0.796078431372549" d="M 34.5 28 L 34.5 29 L 34.5 28 Z " /><path fill="rgb(0,74,160)" stroke="rgb(0,74,160)" stroke-width="1" opacity="0.796078431372549" d="M 47.5 28 L 47.5 29 L 47.5 28 Z " /><path fill="rgb(0,74,160)" stroke="rgb(0,74,160)" stroke-width="1" opacity="0.796078431372549" d="M 21.5 32 L 23 32.5 L 21.5 33 L 21.5 32 Z " /><path fill="rgb(0,74,160)" stroke="rgb(0,74,160)" stroke-width="1" opacity="0.796078431372549" d="M 35.5 32 L 44 32.5 L 35.5 33 L 35.5 32 Z " /></svg>