<svg width="128" height="128" version="1.1" xmlns="http://www.w3.org/2000/svg" desc="Created with imagetracer.js version 1.2.6" ><path fill="rgb(2,115,178)" stroke="rgb(2,115,178)" stroke-width="1" opacity="0.9529411764705882" d="M 6.5 1 L 6.5 2 L 6.5 1 Z " /><path fill="rgb(2,115,178)" stroke="rgb(2,115,178)" stroke-width="1" opacity="0.9529411764705882" d="M 121.5 1 L 121.5 2 L 121.5 1 Z " /><path fill="rgb(2,115,178)" stroke="rgb(2,115,178)" stroke-width="1" opacity="0.9529411764705882" d="M 4.5 2 L 4.5 3 L 4.5 2 Z " /><path fill="rgb(2,115,178)" stroke="rgb(2,115,178)" stroke-width="1" opacity="0.9529411764705882" d="M 123.5 2 L 123.5 3 L 123.5 2 Z " /><path fill="rgb(2,115,178)" stroke="rgb(2,115,178)" stroke-width="1" opacity="0.9529411764705882" d="M 2.5 4 L 2.5 5 L 2.5 4 Z " /><path fill="rgb(2,115,178)" stroke="rgb(2,115,178)" stroke-width="1" opacity="0.9529411764705882" d="M 125.5 4 L 125.5 5 L 125.5 4 Z " /><path fill="rgb(2,115,178)" stroke="rgb(2,115,178)" stroke-width="1" opacity="0.9529411764705882" d="M 1.5 121 L 1.5 122 L 1.5 121 Z " /><path fill="rgb(2,115,178)" stroke="rgb(2,115,178)" stroke-width="1" opacity="0.9529411764705882" d="M 126.5 121 L 126.5 122 L 126.5 121 Z " /><path fill="rgb(2,115,178)" stroke="rgb(2,115,178)" stroke-width="1" opacity="0.9529411764705882" d="M 2.5 123 L 2.5 124 L 2.5 123 Z " /><path fill="rgb(2,115,178)" stroke="rgb(2,115,178)" stroke-width="1" opacity="0.9529411764705882" d="M 125.5 123 L 125.5 124 L 125.5 123 Z " /><path fill="rgb(2,115,178)" stroke="rgb(2,115,178)" stroke-width="1" opacity="0.9529411764705882" d="M 4.5 125 L 4.5 126 L 4.5 125 Z " /><path fill="rgb(2,115,178)" stroke="rgb(2,115,178)" stroke-width="1" opacity="0.9529411764705882" d="M 123.5 125 L 123.5 126 L 123.5 125 Z " /><path fill="rgb(2,115,178)" stroke="rgb(2,115,178)" stroke-width="1" opacity="0.9529411764705882" d="M 6.5 126 L 6.5 127 L 6.5 126 Z " /><path fill="rgb(2,115,178)" stroke="rgb(2,115,178)" stroke-width="1" opacity="0.9529411764705882" d="M 121.5 126 L 121.5 127 L 121.5 126 Z " /><path fill="rgb(2,116,179)" stroke="rgb(2,116,179)" stroke-width="1" opacity="1" d="M 7.5 1 L 120.5 1 L 125 3 Q 124.5 5.5 127 6.5 L 127 120.5 L 125 125 L 120.5 127 L 7.5 127 L 3 125 L 1 120.5 L 1 6.5 Q 3.5 5.5 3 3 L 7.5 1 Z M 26 18 L 24 19 L 18 26 Q 17 32 19 35 L 24 39 L 27 40 L 31 40 L 37 37 L 40 31 L 40 28 L 38 23 L 35 19 L 32 18 L 26 18 Z M 80 47 L 74 50 L 69 56 L 68 56 L 68 48 L 50 48 L 50 109 L 51 109 L 69 109 L 69 72 L 71 68 L 75 64 L 78 63 L 83 63 L 87 65 L 90 73 L 90 109 L 109 109 L 109 68 L 108 67 L 107 59 L 104 54 L 101 50 L 94 47 L 80 47 Z M 19 48 L 19 109 L 20 109 L 38 109 L 38 49 L 38 48 L 19 48 Z " /><path fill="rgb(0,58,90)" stroke="rgb(0,58,90)" stroke-width="1" opacity="0.44313725490196076" d="M 0 0 L 9 0.5 L 5.5 1 L 1 5.5 L 0.5 8 L 0 0 Z " /><path fill="rgb(0,58,90)" stroke="rgb(0,58,90)" stroke-width="1" opacity="0.44313725490196076" d="M 119.5 0 L 128 0 L 128 7.5 L 127 7.5 L 127 5.5 L 122.5 1 Q 118.5 1.75 119.5 0 Z " /><path fill="rgb(0,58,90)" stroke="rgb(0,58,90)" stroke-width="1" opacity="0.44313725490196076" d="M 0.5 120 L 1 122.5 L 5.5 127 L 9 127.5 L 0 128 L 0.5 120 Z " /><path fill="rgb(0,58,90)" stroke="rgb(0,58,90)" stroke-width="1" opacity="0.44313725490196076" d="M 127.5 120 L 128 128 L 119 127.5 L 122.5 127 L 127 122.5 L 127.5 120 Z " /><path fill="rgb(2,96,148)" stroke="rgb(2,96,148)" stroke-width="1" opacity="0.6431372549019608" d="M 9.5 0 L 119 0.5 L 9.5 1 L 9.5 0 Z " /><path fill="rgb(2,96,148)" stroke="rgb(2,96,148)" stroke-width="1" opacity="0.6431372549019608" d="M 0.5 8 L 1 9.5 L 0 9.5 L 0.5 8 Z " /><path fill="rgb(2,96,148)" stroke="rgb(2,96,148)" stroke-width="1" opacity="0.6431372549019608" d="M 127.5 8 L 128 9.5 L 127 9.5 L 127.5 8 Z " /><path fill="rgb(2,96,148)" stroke="rgb(2,96,148)" stroke-width="1" opacity="0.6431372549019608" d="M 0.5 118 L 1 119.5 L 0 119.5 L 0.5 118 Z " /><path fill="rgb(2,96,148)" stroke="rgb(2,96,148)" stroke-width="1" opacity="0.6431372549019608" d="M 127.5 118 L 128 119.5 L 127 119.5 L 127.5 118 Z " /><path fill="rgb(2,96,148)" stroke="rgb(2,96,148)" stroke-width="1" opacity="0.6431372549019608" d="M 1.5 122 L 1.5 123 L 1.5 122 Z " /><path fill="rgb(2,96,148)" stroke="rgb(2,96,148)" stroke-width="1" opacity="0.6431372549019608" d="M 126.5 122 L 126.5 123 L 126.5 122 Z " /><path fill="rgb(2,96,148)" stroke="rgb(2,96,148)" stroke-width="1" opacity="0.6431372549019608" d="M 122.5 126 L 122.5 127 L 122.5 126 Z " /><path fill="rgb(2,96,148)" stroke="rgb(2,96,148)" stroke-width="1" opacity="0.6431372549019608" d="M 9.5 127 L 119 127.5 L 9.5 128 L 9.5 127 Z " /><path fill="rgb(218,234,244)" stroke="rgb(218,234,244)" stroke-width="1" opacity="1" d="M 25.5 18 L 27 18.5 L 25.5 19 L 25.5 18 Z " /><path fill="rgb(218,234,244)" stroke="rgb(218,234,244)" stroke-width="1" opacity="1" d="M 30.5 18 L 32 18.5 L 30.5 19 L 30.5 18 Z " /><path fill="rgb(218,234,244)" stroke="rgb(218,234,244)" stroke-width="1" opacity="1" d="M 23.5 19 L 23.5 20 L 23.5 19 Z " /><path fill="rgb(218,234,244)" stroke="rgb(218,234,244)" stroke-width="1" opacity="1" d="M 34.5 19 L 38 22.5 L 37.5 23 L 34 19.5 L 34.5 19 Z " /><path fill="rgb(218,234,244)" stroke="rgb(218,234,244)" stroke-width="1" opacity="1" d="M 19.5 23 L 19.5 24 L 19.5 23 Z " /><path fill="rgb(218,234,244)" stroke="rgb(218,234,244)" stroke-width="1" opacity="1" d="M 38.5 24 L 38.5 25 L 38.5 24 Z " /><path fill="rgb(218,234,244)" stroke="rgb(218,234,244)" stroke-width="1" opacity="1" d="M 18.5 25 L 19 26.5 L 18 26.5 L 18.5 25 Z " /><path fill="rgb(218,234,244)" stroke="rgb(218,234,244)" stroke-width="1" opacity="1" d="M 39.5 27 L 40 30.5 L 39 30.5 L 39.5 27 Z " /><path fill="rgb(218,234,244)" stroke="rgb(218,234,244)" stroke-width="1" opacity="1" d="M 18.5 31 L 19 32.5 L 18 32.5 L 18.5 31 Z " /><path fill="rgb(218,234,244)" stroke="rgb(218,234,244)" stroke-width="1" opacity="1" d="M 38.5 33 Q 40 34 37.5 35 Q 36 34 38.5 33 Z " /><path fill="rgb(218,234,244)" stroke="rgb(218,234,244)" stroke-width="1" opacity="1" d="M 19.5 34 Q 22 35 20.5 36 Q 18 35 19.5 34 Z " /><path fill="rgb(218,234,244)" stroke="rgb(218,234,244)" stroke-width="1" opacity="1" d="M 36.5 36 L 36.5 37 L 36.5 36 Z " /><path fill="rgb(218,234,244)" stroke="rgb(218,234,244)" stroke-width="1" opacity="1" d="M 22.5 37 L 25 38.5 L 23.5 39 Q 21 38 22.5 37 Z " /><path fill="rgb(218,234,244)" stroke="rgb(218,234,244)" stroke-width="1" opacity="1" d="M 33.5 38 L 33.5 39 L 33.5 38 Z " /><path fill="rgb(218,234,244)" stroke="rgb(218,234,244)" stroke-width="1" opacity="1" d="M 26.5 39 L 31 39.5 L 26.5 40 L 26.5 39 Z " /><path fill="rgb(218,234,244)" stroke="rgb(218,234,244)" stroke-width="1" opacity="1" d="M 79.5 47 L 81 47.5 L 79.5 48 L 79.5 47 Z " /><path fill="rgb(218,234,244)" stroke="rgb(218,234,244)" stroke-width="1" opacity="1" d="M 92.5 47 L 94 47.5 L 92.5 48 L 92.5 47 Z " /><path fill="rgb(218,234,244)" stroke="rgb(218,234,244)" stroke-width="1" opacity="1" d="M 19 48 L 38 48.5 L 20 49 L 20 107.5 L 20.5 108 L 37.5 108 L 37.5 109 L 19.5 109 L 19 108.5 L 19 48 Z " /><path fill="rgb(218,234,244)" stroke="rgb(218,234,244)" stroke-width="1" opacity="1" d="M 50.5 48 L 68 48.5 L 50.5 49 L 50.5 48 Z " /><path fill="rgb(218,234,244)" stroke="rgb(218,234,244)" stroke-width="1" opacity="1" d="M 77.5 48 L 77.5 49 L 77.5 48 Z " /><path fill="rgb(218,234,244)" stroke="rgb(218,234,244)" stroke-width="1" opacity="1" d="M 96.5 48 L 96.5 49 L 96.5 48 Z " /><path fill="rgb(218,234,244)" stroke="rgb(218,234,244)" stroke-width="1" opacity="1" d="M 75.5 49 L 75.5 50 L 75.5 49 Z " /><path fill="rgb(218,234,244)" stroke="rgb(218,234,244)" stroke-width="1" opacity="1" d="M 98.5 49 L 98.5 50 L 98.5 49 Z " /><path fill="rgb(218,234,244)" stroke="rgb(218,234,244)" stroke-width="1" opacity="1" d="M 73.5 50 L 74 50.5 L 69.5 55 L 69 54.5 L 73.5 50 Z " /><path fill="rgb(218,234,244)" stroke="rgb(218,234,244)" stroke-width="1" opacity="1" d="M 100.5 50 L 104 53.5 L 103.5 54 L 100 50.5 L 100.5 50 Z " /><path fill="rgb(218,234,244)" stroke="rgb(218,234,244)" stroke-width="1" opacity="1" d="M 68.5 56 L 68.5 57 L 68.5 56 Z " /><path fill="rgb(218,234,244)" stroke="rgb(218,234,244)" stroke-width="1" opacity="1" d="M 105.5 56 L 105.5 57 L 105.5 56 Z " /><path fill="rgb(218,234,244)" stroke="rgb(218,234,244)" stroke-width="1" opacity="1" d="M 106.5 58 L 107 59.5 L 106 59.5 L 106.5 58 Z " /><path fill="rgb(218,234,244)" stroke="rgb(218,234,244)" stroke-width="1" opacity="1" d="M 107.5 62 L 108 63.5 L 107 63.5 L 107.5 62 Z " /><path fill="rgb(218,234,244)" stroke="rgb(218,234,244)" stroke-width="1" opacity="1" d="M 75.5 63 L 77 63.5 L 75.5 64 L 75.5 63 Z " /><path fill="rgb(218,234,244)" stroke="rgb(218,234,244)" stroke-width="1" opacity="1" d="M 83.5 63 L 86 64.5 L 84.5 64 Q 82.13 63.87 83.5 63 Z " /><path fill="rgb(218,234,244)" stroke="rgb(218,234,244)" stroke-width="1" opacity="1" d="M 73.5 64 L 74 64.5 L 71 67.5 L 70.5 69 L 70 67.5 L 73.5 64 Z " /><path fill="rgb(218,234,244)" stroke="rgb(218,234,244)" stroke-width="1" opacity="1" d="M 87.5 66 Q 90 67 88.5 68 Q 86 67 87.5 66 Z " /><path fill="rgb(218,234,244)" stroke="rgb(218,234,244)" stroke-width="1" opacity="1" d="M 108.5 67 L 109 109 L 90 108.5 L 108 108 L 108.5 67 Z " /><path fill="rgb(218,234,244)" stroke="rgb(218,234,244)" stroke-width="1" opacity="1" d="M 69.5 70 L 69.5 71 L 69.5 70 Z " /><path fill="rgb(218,234,244)" stroke="rgb(218,234,244)" stroke-width="1" opacity="1" d="M 89.5 70 L 90 71.5 L 89 71.5 L 89.5 70 Z " /><path fill="rgb(218,234,244)" stroke="rgb(218,234,244)" stroke-width="1" opacity="1" d="M 68.5 75 L 69 109 L 50 108.5 L 68 108 L 68.5 75 Z " /><path fill="rgb(2,97,149)" stroke="rgb(2,97,149)" stroke-width="1" opacity="0.6431372549019608" d="M 5.5 1 L 5.5 2 L 5.5 1 Z " /><path fill="rgb(2,97,149)" stroke="rgb(2,97,149)" stroke-width="1" opacity="0.6431372549019608" d="M 122.5 1 L 122.5 2 L 122.5 1 Z " /><path fill="rgb(2,97,149)" stroke="rgb(2,97,149)" stroke-width="1" opacity="0.6431372549019608" d="M 1.5 5 L 1.5 6 L 1.5 5 Z " /><path fill="rgb(2,97,149)" stroke="rgb(2,97,149)" stroke-width="1" opacity="0.6431372549019608" d="M 126.5 5 L 126.5 6 L 126.5 5 Z " /><path fill="rgb(2,97,149)" stroke="rgb(2,97,149)" stroke-width="1" opacity="0.6431372549019608" d="M 0.5 10 L 1 117.5 L 0 117.5 L 0.5 10 Z " /><path fill="rgb(2,97,149)" stroke="rgb(2,97,149)" stroke-width="1" opacity="0.6431372549019608" d="M 127.5 10 L 128 117.5 L 127 117.5 L 127.5 10 Z " /><path fill="rgb(2,97,149)" stroke="rgb(2,97,149)" stroke-width="1" opacity="0.6431372549019608" d="M 5.5 126 L 5.5 127 L 5.5 126 Z " /><path fill="rgb(254,254,254)" stroke="rgb(254,254,254)" stroke-width="1" opacity="1" d="M 27.5 18 L 30 18.5 L 27.5 19 L 27.5 18 Z " /><path fill="rgb(254,254,254)" stroke="rgb(254,254,254)" stroke-width="1" opacity="1" d="M 33.5 19 L 33.5 20 L 33.5 19 Z " /><path fill="rgb(254,254,254)" stroke="rgb(254,254,254)" stroke-width="1" opacity="1" d="M 22.5 20 L 23 20.5 L 20.5 23 L 20 22.5 L 22.5 20 Z " /><path fill="rgb(254,254,254)" stroke="rgb(254,254,254)" stroke-width="1" opacity="1" d="M 37.5 23 L 37.5 24 L 37.5 23 Z " /><path fill="rgb(254,254,254)" stroke="rgb(254,254,254)" stroke-width="1" opacity="1" d="M 38.5 25 L 38.5 26 L 38.5 25 Z " /><path fill="rgb(254,254,254)" stroke="rgb(254,254,254)" stroke-width="1" opacity="1" d="M 18.5 30 L 18.5 31 L 18.5 30 Z " /><path fill="rgb(254,254,254)" stroke="rgb(254,254,254)" stroke-width="1" opacity="1" d="M 38.5 32 L 38.5 33 L 38.5 32 Z " /><path fill="rgb(254,254,254)" stroke="rgb(254,254,254)" stroke-width="1" opacity="1" d="M 19.5 33 L 19.5 34 L 19.5 33 Z " /><path fill="rgb(254,254,254)" stroke="rgb(254,254,254)" stroke-width="1" opacity="1" d="M 21.5 36 L 21.5 37 L 21.5 36 Z " /><path fill="rgb(254,254,254)" stroke="rgb(254,254,254)" stroke-width="1" opacity="1" d="M 34.5 37 L 34.5 38 L 34.5 37 Z " /><path fill="rgb(254,254,254)" stroke="rgb(254,254,254)" stroke-width="1" opacity="1" d="M 32.5 38 L 32.5 39 L 32.5 38 Z " /><path fill="rgb(254,254,254)" stroke="rgb(254,254,254)" stroke-width="1" opacity="1" d="M 81.5 47 L 81.5 48 L 81.5 47 Z " /><path fill="rgb(254,254,254)" stroke="rgb(254,254,254)" stroke-width="1" opacity="1" d="M 91.5 47 L 91.5 48 L 91.5 47 Z " /><path fill="rgb(254,254,254)" stroke="rgb(254,254,254)" stroke-width="1" opacity="1" d="M 78.5 48 L 78.5 49 L 78.5 48 Z " /><path fill="rgb(254,254,254)" stroke="rgb(254,254,254)" stroke-width="1" opacity="1" d="M 95.5 48 L 95.5 49 L 95.5 48 Z " /><path fill="rgb(254,254,254)" stroke="rgb(254,254,254)" stroke-width="1" opacity="1" d="M 37.5 49 L 38 107.5 L 37 107.5 L 37.5 49 Z " /><path fill="rgb(254,254,254)" stroke="rgb(254,254,254)" stroke-width="1" opacity="1" d="M 50.5 49 L 51 107.5 L 50 107.5 L 50.5 49 Z " /><path fill="rgb(254,254,254)" stroke="rgb(254,254,254)" stroke-width="1" opacity="1" d="M 67.5 49 L 68 56.5 L 67 56.5 L 67.5 49 Z " /><path fill="rgb(254,254,254)" stroke="rgb(254,254,254)" stroke-width="1" opacity="1" d="M 76.5 49 L 76.5 50 L 76.5 49 Z " /><path fill="rgb(254,254,254)" stroke="rgb(254,254,254)" stroke-width="1" opacity="1" d="M 74.5 50 L 74.5 51 L 74.5 50 Z " /><path fill="rgb(254,254,254)" stroke="rgb(254,254,254)" stroke-width="1" opacity="1" d="M 99.5 50 L 99.5 51 L 99.5 50 Z " /><path fill="rgb(254,254,254)" stroke="rgb(254,254,254)" stroke-width="1" opacity="1" d="M 69.5 55 L 69.5 56 L 69.5 55 Z " /><path fill="rgb(254,254,254)" stroke="rgb(254,254,254)" stroke-width="1" opacity="1" d="M 104.5 55 L 104.5 56 L 104.5 55 Z " /><path fill="rgb(254,254,254)" stroke="rgb(254,254,254)" stroke-width="1" opacity="1" d="M 105.5 57 L 105.5 58 L 105.5 57 Z " /><path fill="rgb(254,254,254)" stroke="rgb(254,254,254)" stroke-width="1" opacity="1" d="M 106.5 60 L 106.5 61 L 106.5 60 Z " /><path fill="rgb(254,254,254)" stroke="rgb(254,254,254)" stroke-width="1" opacity="1" d="M 86.5 64 Q 89 65 87.5 66 Q 85 65 86.5 64 Z " /><path fill="rgb(254,254,254)" stroke="rgb(254,254,254)" stroke-width="1" opacity="1" d="M 107.5 64 L 107.5 65 L 107.5 64 Z " /><path fill="rgb(254,254,254)" stroke="rgb(254,254,254)" stroke-width="1" opacity="1" d="M 69.5 69 L 69.5 70 L 69.5 69 Z " /><path fill="rgb(254,254,254)" stroke="rgb(254,254,254)" stroke-width="1" opacity="1" d="M 89.5 69 L 89.5 70 L 89.5 69 Z " /><path fill="rgb(254,254,254)" stroke="rgb(254,254,254)" stroke-width="1" opacity="1" d="M 68.5 74 L 68.5 75 L 68.5 74 Z " /><path fill="rgb(254,254,254)" stroke="rgb(254,254,254)" stroke-width="1" opacity="1" d="M 90.5 75 L 91 107.5 L 90 107.5 L 90.5 75 Z " /><path fill="rgb(255,255,255)" stroke="rgb(255,255,255)" stroke-width="1" opacity="1" d="M 24.5 19 Q 34.25 17.25 37 22.5 L 39 26.5 L 39 31.5 L 35.5 37 L 31.5 39 L 25.5 39 L 20 34.5 L 18 27.5 L 19 24.5 L 24.5 19 Z " /><path fill="rgb(255,255,255)" stroke="rgb(255,255,255)" stroke-width="1" opacity="1" d="M 82.5 47 L 90.5 47 L 91.5 48 L 97.5 49 L 104 54.5 L 108 65.5 L 108 108 L 91 108 L 91 75.5 Q 88.75 74.25 90 69.5 L 86.5 64 L 84.5 63 L 75.5 63 L 70 67.5 Q 68.33 69.33 69 73.5 L 68 74.5 L 68 108 L 51.5 108 L 51 107.5 L 51 49 L 67 49 L 67 56.5 L 68.5 57 L 73.5 51 L 82.5 47 Z " /><path fill="rgb(255,255,255)" stroke="rgb(255,255,255)" stroke-width="1" opacity="1" d="M 20 49 L 36.5 49 L 37 49.5 L 37 108 L 20.5 108 L 20 107.5 L 20 49 Z " /></svg>