<svg width="128" height="128" version="1.1" xmlns="http://www.w3.org/2000/svg" desc="Created with imagetracer.js version 1.2.6" ><path fill="rgb(241,249,240)" stroke="rgb(241,249,240)" stroke-width="1" opacity="1" d="M 119.5 28 L 120 30.5 L 119 30.5 L 119.5 28 Z " /><path fill="rgb(241,249,240)" stroke="rgb(241,249,240)" stroke-width="1" opacity="1" d="M 9.5 33 L 119 33.5 L 9.5 34 L 9.5 33 Z " /><path fill="rgb(241,249,240)" stroke="rgb(241,249,240)" stroke-width="1" opacity="1" d="M 116.5 49 L 117 50.5 L 116 50.5 L 116.5 49 Z " /><path fill="rgb(241,249,240)" stroke="rgb(241,249,240)" stroke-width="1" opacity="1" d="M 9.5 60 L 115 60.5 L 9.5 61 L 9.5 60 Z " /><path fill="rgb(241,249,240)" stroke="rgb(241,249,240)" stroke-width="1" opacity="1" d="M 114.5 66 L 115 67.5 L 114 67.5 L 114.5 66 Z " /><path fill="rgb(241,249,240)" stroke="rgb(241,249,240)" stroke-width="1" opacity="1" d="M 9.5 68 L 9.5 69 L 9.5 68 Z " /><path fill="rgb(241,249,240)" stroke="rgb(241,249,240)" stroke-width="1" opacity="1" d="M 112.5 82 L 113 83.5 L 112 83.5 L 112.5 82 Z " /><path fill="rgb(241,249,240)" stroke="rgb(241,249,240)" stroke-width="1" opacity="1" d="M 111.5 86 L 111.5 87 L 111.5 86 Z " /><path fill="rgb(241,249,240)" stroke="rgb(241,249,240)" stroke-width="1" opacity="1" d="M 9.5 104 L 9.5 105 L 9.5 104 Z " /><path fill="rgb(241,249,240)" stroke="rgb(241,249,240)" stroke-width="1" opacity="1" d="M 109.5 104 L 109.5 105 L 109.5 104 Z " /><path fill="rgb(255,255,255)" stroke="rgb(255,255,255)" stroke-width="1" opacity="1" d="M 0 0 L 128 0 L 128 128 L 0 128 L 0 0 Z M 9 25 L 9 34 L 10 34 L 119 34 Q 118 31 120 31 Q 121 25 120 25 L 9 25 Z M 9 43 L 9 51 L 10 51 L 117 51 L 117 44 L 117 43 L 9 43 Z M 9 60 L 9 69 L 114 69 L 115 68 L 115 61 L 115 60 L 9 60 Z M 9 79 L 9 87 L 10 87 L 112 87 Q 111 84 113 84 Q 113 79 113 79 L 9 79 Z M 9 97 L 9 105 L 10 105 L 110 105 L 110 98 L 110 97 L 9 97 Z " /><path fill="rgb(88,185,66)" stroke="rgb(88,185,66)" stroke-width="1" opacity="1" d="M 118.5 29 L 118.5 30 L 118.5 29 Z " /><path fill="rgb(88,185,66)" stroke="rgb(88,185,66)" stroke-width="1" opacity="1" d="M 10.5 32 L 118 32.5 L 10.5 33 L 10.5 32 Z " /><path fill="rgb(88,185,66)" stroke="rgb(88,185,66)" stroke-width="1" opacity="1" d="M 10.5 61 L 114 61.5 L 10.5 62 L 10.5 61 Z " /><path fill="rgb(88,185,66)" stroke="rgb(88,185,66)" stroke-width="1" opacity="1" d="M 113.5 66 L 114 67.5 L 113 67.5 L 113.5 66 Z " /><path fill="rgb(88,185,66)" stroke="rgb(88,185,66)" stroke-width="1" opacity="1" d="M 10.5 79 L 111.5 79 L 112 80.5 L 110.5 80 L 10.5 80 L 10.5 79 Z " /><path fill="rgb(88,185,66)" stroke="rgb(88,185,66)" stroke-width="1" opacity="1" d="M 10.5 97 L 109 97.5 L 10.5 98 L 10.5 97 Z " /><path fill="rgb(67,176,42)" stroke="rgb(67,176,42)" stroke-width="1" opacity="1" d="M 10 26 L 118.5 26 Q 119.25 25.75 119 28.5 Q 117.25 29.42 118 32 L 10.5 32 L 10 31.5 L 10 26 Z " /><path fill="rgb(67,176,42)" stroke="rgb(67,176,42)" stroke-width="1" opacity="1" d="M 10 44 L 115.5 44 L 116 44.5 L 116 50 L 10.5 50 L 10 49.5 L 10 44 Z " /><path fill="rgb(67,176,42)" stroke="rgb(67,176,42)" stroke-width="1" opacity="1" d="M 10 62 L 113.5 62 Q 114.38 61.87 114 65.5 L 113 68 L 10.5 68 L 10 67.5 L 10 62 Z " /><path fill="rgb(67,176,42)" stroke="rgb(67,176,42)" stroke-width="1" opacity="1" d="M 10 80 L 110.5 80 L 111 80.5 L 111 86 L 10.5 86 L 10 85.5 L 10 80 Z " /><path fill="rgb(67,176,42)" stroke="rgb(67,176,42)" stroke-width="1" opacity="1" d="M 10 98 L 108.5 98 L 109 98.5 L 109 104 L 10.5 104 L 10 103.5 L 10 98 Z " /><path fill="rgb(131,203,115)" stroke="rgb(131,203,115)" stroke-width="1" opacity="1" d="M 10.5 25 L 119 25.5 L 10.5 26 L 10.5 25 Z " /><path fill="rgb(131,203,115)" stroke="rgb(131,203,115)" stroke-width="1" opacity="1" d="M 118.5 30 L 118.5 31 L 118.5 30 Z " /><path fill="rgb(131,203,115)" stroke="rgb(131,203,115)" stroke-width="1" opacity="1" d="M 116.5 44 L 116.5 45 L 116.5 44 Z " /><path fill="rgb(131,203,115)" stroke="rgb(131,203,115)" stroke-width="1" opacity="1" d="M 111.5 81 L 112 82.5 L 111 82.5 L 111.5 81 Z " /><path fill="rgb(131,203,115)" stroke="rgb(131,203,115)" stroke-width="1" opacity="1" d="M 109.5 97 L 110 98.5 L 109 98.5 L 109.5 97 Z " /><path fill="rgb(144,208,130)" stroke="rgb(144,208,130)" stroke-width="1" opacity="1" d="M 118.5 31 L 118.5 32 L 118.5 31 Z " /><path fill="rgb(144,208,130)" stroke="rgb(144,208,130)" stroke-width="1" opacity="1" d="M 10.5 50 L 115 50.5 L 10.5 51 L 10.5 50 Z " /><path fill="rgb(144,208,130)" stroke="rgb(144,208,130)" stroke-width="1" opacity="1" d="M 111.5 83 L 111.5 84 L 111.5 83 Z " /><path fill="rgb(144,208,130)" stroke="rgb(144,208,130)" stroke-width="1" opacity="1" d="M 109.5 99 L 109.5 100 L 109.5 99 Z " /><path fill="rgb(142,208,127)" stroke="rgb(142,208,127)" stroke-width="1" opacity="1" d="M 10.5 43 L 116 43.5 L 10.5 44 L 10.5 43 Z " /><path fill="rgb(189,227,180)" stroke="rgb(189,227,180)" stroke-width="1" opacity="1" d="M 9.5 25 L 9.5 26 L 9.5 25 Z " /><path fill="rgb(189,227,180)" stroke="rgb(189,227,180)" stroke-width="1" opacity="1" d="M 119.5 25 L 120 27.5 L 119 27.5 L 119.5 25 Z " /><path fill="rgb(189,227,180)" stroke="rgb(189,227,180)" stroke-width="1" opacity="1" d="M 9.5 32 L 9.5 33 L 9.5 32 Z " /><path fill="rgb(189,227,180)" stroke="rgb(189,227,180)" stroke-width="1" opacity="1" d="M 9.5 43 L 9.5 44 L 9.5 43 Z " /><path fill="rgb(189,227,180)" stroke="rgb(189,227,180)" stroke-width="1" opacity="1" d="M 116.5 43 L 116.5 44 L 116.5 43 Z " /><path fill="rgb(189,227,180)" stroke="rgb(189,227,180)" stroke-width="1" opacity="1" d="M 116.5 46 L 117 48.5 L 116 48.5 L 116.5 46 Z " /><path fill="rgb(189,227,180)" stroke="rgb(189,227,180)" stroke-width="1" opacity="1" d="M 9.5 50 L 9.5 51 L 9.5 50 Z " /><path fill="rgb(189,227,180)" stroke="rgb(189,227,180)" stroke-width="1" opacity="1" d="M 114.5 63 L 115 65.5 L 114 65.5 L 114.5 63 Z " /><path fill="rgb(189,227,180)" stroke="rgb(189,227,180)" stroke-width="1" opacity="1" d="M 10.5 68 L 114 68.5 L 10.5 69 L 10.5 68 Z " /><path fill="rgb(189,227,180)" stroke="rgb(189,227,180)" stroke-width="1" opacity="1" d="M 112.5 79 L 113 81.5 L 112 81.5 L 112.5 79 Z " /><path fill="rgb(189,227,180)" stroke="rgb(189,227,180)" stroke-width="1" opacity="1" d="M 111.5 85 L 111.5 86 L 111.5 85 Z " /><path fill="rgb(189,227,180)" stroke="rgb(189,227,180)" stroke-width="1" opacity="1" d="M 9.5 86 L 9.5 87 L 9.5 86 Z " /><path fill="rgb(189,227,180)" stroke="rgb(189,227,180)" stroke-width="1" opacity="1" d="M 9.5 97 L 9.5 98 L 9.5 97 Z " /><path fill="rgb(189,227,180)" stroke="rgb(189,227,180)" stroke-width="1" opacity="1" d="M 109.5 102 L 110 103.5 L 108.5 105 L 10.5 105 L 10.5 104 L 108.5 104 L 109.5 102 Z " /><path fill="rgb(161,216,149)" stroke="rgb(161,216,149)" stroke-width="1" opacity="1" d="M 9.5 26 L 10 31.5 L 9 31.5 L 9.5 26 Z " /><path fill="rgb(161,216,149)" stroke="rgb(161,216,149)" stroke-width="1" opacity="1" d="M 118.5 32 L 118.5 33 L 118.5 32 Z " /><path fill="rgb(161,216,149)" stroke="rgb(161,216,149)" stroke-width="1" opacity="1" d="M 9.5 44 L 10 49.5 L 9 49.5 L 9.5 44 Z " /><path fill="rgb(161,216,149)" stroke="rgb(161,216,149)" stroke-width="1" opacity="1" d="M 116.5 45 L 116.5 46 L 116.5 45 Z " /><path fill="rgb(161,216,149)" stroke="rgb(161,216,149)" stroke-width="1" opacity="1" d="M 115.5 50 L 115.5 51 L 115.5 50 Z " /><path fill="rgb(161,216,149)" stroke="rgb(161,216,149)" stroke-width="1" opacity="1" d="M 9.5 61 L 10 67.5 L 9 67.5 L 9.5 61 Z " /><path fill="rgb(161,216,149)" stroke="rgb(161,216,149)" stroke-width="1" opacity="1" d="M 114.5 61 L 115 62.5 L 114 62.5 L 114.5 61 Z " /><path fill="rgb(161,216,149)" stroke="rgb(161,216,149)" stroke-width="1" opacity="1" d="M 9.5 79 L 10 86 L 111 86.5 L 10.5 87 L 9 85.5 L 9.5 79 Z " /><path fill="rgb(161,216,149)" stroke="rgb(161,216,149)" stroke-width="1" opacity="1" d="M 111.5 84 L 111.5 85 L 111.5 84 Z " /><path fill="rgb(161,216,149)" stroke="rgb(161,216,149)" stroke-width="1" opacity="1" d="M 9.5 98 L 10 103.5 L 9 103.5 L 9.5 98 Z " /><path fill="rgb(161,216,149)" stroke="rgb(161,216,149)" stroke-width="1" opacity="1" d="M 109.5 100 L 110 101.5 L 109 101.5 L 109.5 100 Z " /></svg>