<svg width="16" height="16" version="1.1" xmlns="http://www.w3.org/2000/svg" desc="Created with imagetracer.js version 1.2.6" ><path fill="rgb(200,213,209)" stroke="rgb(200,213,209)" stroke-width="1" opacity="0" d="M 1.5 1 L 1.5 2 L 1.5 1 Z " /><path fill="rgb(200,213,209)" stroke="rgb(200,213,209)" stroke-width="1" opacity="0" d="M 1.5 14 L 1.5 15 L 1.5 14 Z " /><path fill="rgb(255,255,255)" stroke="rgb(255,255,255)" stroke-width="1" opacity="0" d="M 0 0 L 16 0 L 16 16 L 0 16 L 0 0 Z M 1 1 L 1 15 L 15 15 L 15 1 L 1 1 Z " /><path fill="rgb(126,155,146)" stroke="rgb(126,155,146)" stroke-width="1" opacity="0" d="M 1.5 2 L 1.5 3 L 1.5 2 Z " /><path fill="rgb(126,155,146)" stroke="rgb(126,155,146)" stroke-width="1" opacity="0" d="M 1.5 13 L 1.5 14 L 1.5 13 Z " /><path fill="rgb(0,55,37)" stroke="rgb(0,55,37)" stroke-width="1" opacity="0" d="M 2.5 2 L 2.5 3 L 2.5 2 Z " /><path fill="rgb(0,55,37)" stroke="rgb(0,55,37)" stroke-width="1" opacity="0" d="M 13.5 2 L 13.5 3 L 13.5 2 Z " /><path fill="rgb(0,55,37)" stroke="rgb(0,55,37)" stroke-width="1" opacity="0" d="M 2.5 13 L 2.5 14 L 2.5 13 Z " /><path fill="rgb(0,55,37)" stroke="rgb(0,55,37)" stroke-width="1" opacity="0" d="M 13.5 13 L 13.5 14 L 13.5 13 Z " /><path fill="rgb(11,65,48)" stroke="rgb(11,65,48)" stroke-width="1" opacity="0.43137254901960786" d="M 11.5 2 L 11.5 3 L 11.5 2 Z " /><path fill="rgb(11,65,48)" stroke="rgb(11,65,48)" stroke-width="1" opacity="0.43137254901960786" d="M 13.5 4 L 13.5 5 L 13.5 4 Z " /><path fill="rgb(11,65,48)" stroke="rgb(11,65,48)" stroke-width="1" opacity="0.43137254901960786" d="M 13.5 10 L 13.5 11 L 13.5 10 Z " /><path fill="rgb(11,65,48)" stroke="rgb(11,65,48)" stroke-width="1" opacity="0.43137254901960786" d="M 2.5 11 L 2.5 12 L 2.5 11 Z " /><path fill="rgb(11,65,48)" stroke="rgb(11,65,48)" stroke-width="1" opacity="0.43137254901960786" d="M 11.5 13 L 11.5 14 L 11.5 13 Z " /><path fill="rgb(10,65,48)" stroke="rgb(10,65,48)" stroke-width="1" opacity="0.0784313725490196" d="M 7.5 2 L 9 2.5 L 7.5 3 L 7.5 2 Z " /><path fill="rgb(10,65,48)" stroke="rgb(10,65,48)" stroke-width="1" opacity="0.0784313725490196" d="M 12.5 2 Q 15 3 13.5 4 Q 11 3 12.5 2 Z " /><path fill="rgb(10,65,48)" stroke="rgb(10,65,48)" stroke-width="1" opacity="0.0784313725490196" d="M 13.5 6 L 13.5 7 L 13.5 6 Z " /><path fill="rgb(10,65,48)" stroke="rgb(10,65,48)" stroke-width="1" opacity="0.0784313725490196" d="M 2.5 7 L 3 8.5 L 2 8.5 L 2.5 7 Z " /><path fill="rgb(10,65,48)" stroke="rgb(10,65,48)" stroke-width="1" opacity="0.0784313725490196" d="M 2.5 12 L 2.5 13 L 2.5 12 Z " /><path fill="rgb(10,65,48)" stroke="rgb(10,65,48)" stroke-width="1" opacity="0.0784313725490196" d="M 13.5 12 Q 15 13 12.5 14 Q 11 13 13.5 12 Z " /><path fill="rgb(10,65,48)" stroke="rgb(10,65,48)" stroke-width="1" opacity="0.0784313725490196" d="M 7.5 13 L 9 13.5 L 7.5 14 L 7.5 13 Z " /><path fill="rgb(11,65,48)" stroke="rgb(11,65,48)" stroke-width="1" opacity="0.16470588235294117" d="M 6.5 2 L 6.5 3 L 6.5 2 Z " /><path fill="rgb(11,65,48)" stroke="rgb(11,65,48)" stroke-width="1" opacity="0.16470588235294117" d="M 9.5 2 L 9.5 3 L 9.5 2 Z " /><path fill="rgb(11,65,48)" stroke="rgb(11,65,48)" stroke-width="1" opacity="0.16470588235294117" d="M 2.5 6 L 2.5 7 L 2.5 6 Z " /><path fill="rgb(11,65,48)" stroke="rgb(11,65,48)" stroke-width="1" opacity="0.16470588235294117" d="M 2.5 9 L 2.5 10 L 2.5 9 Z " /><path fill="rgb(11,65,48)" stroke="rgb(11,65,48)" stroke-width="1" opacity="0.16470588235294117" d="M 13.5 9 L 13.5 10 L 13.5 9 Z " /><path fill="rgb(11,65,48)" stroke="rgb(11,65,48)" stroke-width="1" opacity="0.16470588235294117" d="M 6.5 13 L 6.5 14 L 6.5 13 Z " /><path fill="rgb(11,65,48)" stroke="rgb(11,65,48)" stroke-width="1" opacity="0.16470588235294117" d="M 9.5 13 L 9.5 14 L 9.5 13 Z " /><path fill="rgb(12,66,49)" stroke="rgb(12,66,49)" stroke-width="1" opacity="0.3137254901960784" d="M 4.5 2 L 4.5 3 L 4.5 2 Z " /><path fill="rgb(12,66,49)" stroke="rgb(12,66,49)" stroke-width="1" opacity="0.3137254901960784" d="M 13.5 5 L 13.5 6 L 13.5 5 Z " /><path fill="rgb(24,75,59)" stroke="rgb(24,75,59)" stroke-width="1" opacity="0" d="M 6.5 3 L 7 4.5 L 6 4.5 L 6.5 3 Z " /><path fill="rgb(24,75,59)" stroke="rgb(24,75,59)" stroke-width="1" opacity="0" d="M 9 3 Q 11.87 2.5 13 5.5 L 12.5 7 Q 11.58 5.25 9 6 L 9 3 Z " /><path fill="rgb(24,75,59)" stroke="rgb(24,75,59)" stroke-width="1" opacity="0" d="M 3.5 5 L 4 10 Q 6.67 11.13 6 8.5 L 7 8.5 L 8 13 Q 4.17 13.75 3 10.5 L 3.5 5 Z " /><path fill="rgb(24,75,59)" stroke="rgb(24,75,59)" stroke-width="1" opacity="0" d="M 11.5 10 L 12 11.5 L 11 11.5 L 11.5 10 Z " /><path fill="rgb(24,75,59)" stroke="rgb(24,75,59)" stroke-width="1" opacity="0.49019607843137253" d="M 3.5 3 L 3.5 4 L 3.5 3 Z " /><path fill="rgb(24,75,59)" stroke="rgb(24,75,59)" stroke-width="1" opacity="0.49019607843137253" d="M 5.5 5 L 6 6.5 L 5 6.5 L 5.5 5 Z " /><path fill="rgb(24,75,59)" stroke="rgb(24,75,59)" stroke-width="1" opacity="0.49019607843137253" d="M 11.5 7 L 11.5 8 L 11.5 7 Z " /><path fill="rgb(24,75,59)" stroke="rgb(24,75,59)" stroke-width="1" opacity="0.49019607843137253" d="M 9.5 8 L 10 11.5 L 9 11.5 L 9.5 8 Z " /><path fill="rgb(85,124,112)" stroke="rgb(85,124,112)" stroke-width="1" opacity="0" d="M 14.5 2 L 14.5 3 L 14.5 2 Z " /><path fill="rgb(85,124,112)" stroke="rgb(85,124,112)" stroke-width="1" opacity="0" d="M 14.5 13 L 14.5 14 L 14.5 13 Z " /><path fill="rgb(133,160,152)" stroke="rgb(133,160,152)" stroke-width="1" opacity="0.15294117647058825" d="M 1.5 5 L 1.5 6 L 1.5 5 Z " /><path fill="rgb(133,160,152)" stroke="rgb(133,160,152)" stroke-width="1" opacity="0.15294117647058825" d="M 1.5 10 L 1.5 11 L 1.5 10 Z " /><path fill="rgb(24,75,59)" stroke="rgb(24,75,59)" stroke-width="1" opacity="0.14901960784313725" d="M 7.5 3 Q 10 4 8.5 5 Q 6 4 7.5 3 Z " /><path fill="rgb(24,75,59)" stroke="rgb(24,75,59)" stroke-width="1" opacity="0.14901960784313725" d="M 3.5 4 L 3.5 5 L 3.5 4 Z " /><path fill="rgb(24,75,59)" stroke="rgb(24,75,59)" stroke-width="1" opacity="0.14901960784313725" d="M 6.5 5 L 6.5 6 L 6.5 5 Z " /><path fill="rgb(24,75,59)" stroke="rgb(24,75,59)" stroke-width="1" opacity="0.28627450980392155" d="M 4.5 7 L 4.5 8 L 4.5 7 Z " /><path fill="rgb(24,75,59)" stroke="rgb(24,75,59)" stroke-width="1" opacity="0.28627450980392155" d="M 6.5 7 L 6.5 8 L 6.5 7 Z " /><path fill="rgb(24,75,59)" stroke="rgb(24,75,59)" stroke-width="1" opacity="0.6666666666666666" d="M 7.5 5 L 7.5 6 L 7.5 5 Z " /><path fill="rgb(21,73,57)" stroke="rgb(21,73,57)" stroke-width="1" opacity="0.5647058823529412" d="M 4.5 4 L 4.5 5 L 4.5 4 Z " /><path fill="rgb(21,73,57)" stroke="rgb(21,73,57)" stroke-width="1" opacity="0.5647058823529412" d="M 9.5 7 L 9.5 8 L 9.5 7 Z " /><path fill="rgb(21,73,57)" stroke="rgb(21,73,57)" stroke-width="1" opacity="0.5647058823529412" d="M 11.5 8 L 11.5 9 L 11.5 8 Z " /><path fill="rgb(21,73,57)" stroke="rgb(21,73,57)" stroke-width="1" opacity="0.5647058823529412" d="M 12.5 11 L 14 11.5 L 12.5 12 L 12.5 11 Z " /><path fill="rgb(24,75,59)" stroke="rgb(24,75,59)" stroke-width="1" opacity="0.10196078431372549" d="M 8.5 3 L 8.5 4 L 8.5 3 Z " /><path fill="rgb(24,75,59)" stroke="rgb(24,75,59)" stroke-width="1" opacity="0.10196078431372549" d="M 12.5 4 L 12.5 5 L 12.5 4 Z " /><path fill="rgb(24,75,59)" stroke="rgb(24,75,59)" stroke-width="1" opacity="0.10196078431372549" d="M 8.5 5 L 8.5 6 L 8.5 5 Z " /><path fill="rgb(95,131,119)" stroke="rgb(95,131,119)" stroke-width="1" opacity="0.24705882352941178" d="M 14.5 5 L 14.5 6 L 14.5 5 Z " /><path fill="rgb(133,160,152)" stroke="rgb(133,160,152)" stroke-width="1" opacity="0.3568627450980392" d="M 1.5 7 L 2 8.5 L 1 8.5 L 1.5 7 Z " /><path fill="rgb(24,75,59)" stroke="rgb(24,75,59)" stroke-width="1" opacity="0.23921568627450981" d="M 4.5 6 L 4.5 7 L 4.5 6 Z " /><path fill="rgb(24,75,59)" stroke="rgb(24,75,59)" stroke-width="1" opacity="0.23921568627450981" d="M 10.5 8 L 10.5 9 L 10.5 8 Z " /><path fill="rgb(24,75,59)" stroke="rgb(24,75,59)" stroke-width="1" opacity="0.403921568627451" d="M 4.5 3 L 4.5 4 L 4.5 3 Z " /><path fill="rgb(24,75,59)" stroke="rgb(24,75,59)" stroke-width="1" opacity="0.403921568627451" d="M 4.5 5 L 4.5 6 L 4.5 5 Z " /><path fill="rgb(24,75,59)" stroke="rgb(24,75,59)" stroke-width="1" opacity="0.403921568627451" d="M 7.5 7 L 7.5 8 L 7.5 7 Z " /><path fill="rgb(24,75,59)" stroke="rgb(24,75,59)" stroke-width="1" opacity="0.403921568627451" d="M 7.5 9 L 7.5 10 L 7.5 9 Z " /><path fill="rgb(24,75,59)" stroke="rgb(24,75,59)" stroke-width="1" opacity="0.1843137254901961" d="M 9.5 6 L 11 6.5 L 8.5 8 Q 7 7 9.5 6 Z " /><path fill="rgb(24,75,59)" stroke="rgb(24,75,59)" stroke-width="1" opacity="0.07058823529411765" d="M 10.5 7 L 10.5 8 L 10.5 7 Z " /><path fill="rgb(24,75,59)" stroke="rgb(24,75,59)" stroke-width="1" opacity="0.13725490196078433" d="M 11.5 6 Q 14 7 12.5 8 Q 10 7 11.5 6 Z " /><path fill="rgb(24,75,59)" stroke="rgb(24,75,59)" stroke-width="1" opacity="0.13725490196078433" d="M 8.5 8 L 8.5 9 L 8.5 8 Z " /><path fill="rgb(95,131,119)" stroke="rgb(95,131,119)" stroke-width="1" opacity="0.37254901960784315" d="M 14.5 6 L 15 9.5 L 14 9.5 L 14.5 6 Z " /><path fill="rgb(133,160,152)" stroke="rgb(133,160,152)" stroke-width="1" opacity="0.3176470588235294" d="M 1.5 6 L 1.5 7 L 1.5 6 Z " /><path fill="rgb(133,160,152)" stroke="rgb(133,160,152)" stroke-width="1" opacity="0.3176470588235294" d="M 1.5 9 L 1.5 10 L 1.5 9 Z " /><path fill="rgb(24,75,59)" stroke="rgb(24,75,59)" stroke-width="1" opacity="0.12156862745098039" d="M 11.5 3 L 11.5 4 L 11.5 3 Z " /><path fill="rgb(24,75,59)" stroke="rgb(24,75,59)" stroke-width="1" opacity="0.12156862745098039" d="M 5.5 9 L 5.5 10 L 5.5 9 Z " /><path fill="rgb(24,75,59)" stroke="rgb(24,75,59)" stroke-width="1" opacity="0.3764705882352941" d="M 4.5 9 L 4.5 10 L 4.5 9 Z " /><path fill="rgb(24,75,59)" stroke="rgb(24,75,59)" stroke-width="1" opacity="0.20784313725490197" d="M 5.5 7 L 5.5 8 L 5.5 7 Z " /><path fill="rgb(24,75,59)" stroke="rgb(24,75,59)" stroke-width="1" opacity="0.20784313725490197" d="M 8.5 9 L 8.5 10 L 8.5 9 Z " /><path fill="rgb(24,75,59)" stroke="rgb(24,75,59)" stroke-width="1" opacity="0.023529411764705882" d="M 5.5 8 L 5.5 9 L 5.5 8 Z " /><path fill="rgb(24,75,59)" stroke="rgb(24,75,59)" stroke-width="1" opacity="0.023529411764705882" d="M 10.5 9 L 10.5 10 L 10.5 9 Z " /><path fill="rgb(24,75,59)" stroke="rgb(24,75,59)" stroke-width="1" opacity="0.023529411764705882" d="M 8.5 10 L 8.5 11 L 8.5 10 Z " /><path fill="rgb(24,75,59)" stroke="rgb(24,75,59)" stroke-width="1" opacity="0.4470588235294118" d="M 12.5 3 L 12.5 4 L 12.5 3 Z " /><path fill="rgb(24,75,59)" stroke="rgb(24,75,59)" stroke-width="1" opacity="0.4470588235294118" d="M 6.5 6 L 8 6.5 L 6.5 7 L 6.5 6 Z " /><path fill="rgb(24,75,59)" stroke="rgb(24,75,59)" stroke-width="1" opacity="0.4470588235294118" d="M 7.5 8 L 7.5 9 L 7.5 8 Z " /><path fill="rgb(24,75,59)" stroke="rgb(24,75,59)" stroke-width="1" opacity="0.4470588235294118" d="M 12.5 9 L 12.5 10 L 12.5 9 Z " /><path fill="rgb(24,75,59)" stroke="rgb(24,75,59)" stroke-width="1" opacity="0.4470588235294118" d="M 3.5 12 L 3.5 13 L 3.5 12 Z " /><path fill="rgb(24,75,59)" stroke="rgb(24,75,59)" stroke-width="1" opacity="0.4470588235294118" d="M 9.5 12 L 9.5 13 L 9.5 12 Z " /><path fill="rgb(24,75,59)" stroke="rgb(24,75,59)" stroke-width="1" opacity="0.4470588235294118" d="M 11.5 12 L 11.5 13 L 11.5 12 Z " /><path fill="rgb(24,75,59)" stroke="rgb(24,75,59)" stroke-width="1" opacity="0.30980392156862746" d="M 5.5 4 L 5.5 5 L 5.5 4 Z " /><path fill="rgb(24,75,59)" stroke="rgb(24,75,59)" stroke-width="1" opacity="0.30980392156862746" d="M 4.5 8 L 4.5 9 L 4.5 8 Z " /><path fill="rgb(24,75,59)" stroke="rgb(24,75,59)" stroke-width="1" opacity="0.30980392156862746" d="M 12.5 10 L 12.5 11 L 12.5 10 Z " /><path fill="rgb(95,131,119)" stroke="rgb(95,131,119)" stroke-width="1" opacity="0.2235294117647059" d="M 14.5 10 L 14.5 11 L 14.5 10 Z " /><path fill="rgb(133,160,152)" stroke="rgb(133,160,152)" stroke-width="1" opacity="0" d="M 1.5 3 L 2 4.5 L 1 4.5 L 1.5 3 Z " /><path fill="rgb(133,160,152)" stroke="rgb(133,160,152)" stroke-width="1" opacity="0" d="M 1.5 11 L 2 12.5 L 1 12.5 L 1.5 11 Z " /><path fill="rgb(24,75,59)" stroke="rgb(24,75,59)" stroke-width="1" opacity="0.17647058823529413" d="M 8.5 6 L 8.5 7 L 8.5 6 Z " /><path fill="rgb(24,75,59)" stroke="rgb(24,75,59)" stroke-width="1" opacity="0.17647058823529413" d="M 3.5 11 Q 6 12 4.5 13 Q 2 12 3.5 11 Z " /><path fill="rgb(24,75,59)" stroke="rgb(24,75,59)" stroke-width="1" opacity="0.011764705882352941" d="M 5.5 3 L 5.5 4 L 5.5 3 Z " /><path fill="rgb(24,75,59)" stroke="rgb(24,75,59)" stroke-width="1" opacity="0.011764705882352941" d="M 10.5 10 L 11 11.5 L 10 11.5 L 10.5 10 Z " /><path fill="rgb(24,75,59)" stroke="rgb(24,75,59)" stroke-width="1" opacity="0.011764705882352941" d="M 8.5 11 L 8.5 12 L 8.5 11 Z " /><path fill="rgb(24,75,59)" stroke="rgb(24,75,59)" stroke-width="1" opacity="0.058823529411764705" d="M 11.5 9 L 11.5 10 L 11.5 9 Z " /><path fill="rgb(24,75,59)" stroke="rgb(24,75,59)" stroke-width="1" opacity="0.058823529411764705" d="M 8.5 12 L 8.5 13 L 8.5 12 Z " /><path fill="rgb(24,75,59)" stroke="rgb(24,75,59)" stroke-width="1" opacity="0.16470588235294117" d="M 12.5 8 L 12.5 9 L 12.5 8 Z " /><path fill="rgb(24,75,59)" stroke="rgb(24,75,59)" stroke-width="1" opacity="0.16470588235294117" d="M 10.5 12 L 10.5 13 L 10.5 12 Z " /><path fill="rgb(24,75,59)" stroke="rgb(24,75,59)" stroke-width="1" opacity="0.6862745098039216" d="M 7.5 4 L 7.5 5 L 7.5 4 Z " /><path fill="rgb(24,75,59)" stroke="rgb(24,75,59)" stroke-width="1" opacity="0.6862745098039216" d="M 12.5 12 L 12.5 13 L 12.5 12 Z " /><path fill="rgb(95,131,119)" stroke="rgb(95,131,119)" stroke-width="1" opacity="0.00392156862745098" d="M 14.5 3 L 15 4.5 L 14 4.5 L 14.5 3 Z " /><path fill="rgb(95,131,119)" stroke="rgb(95,131,119)" stroke-width="1" opacity="0.00392156862745098" d="M 14.5 11 L 15 12.5 L 14 12.5 L 14.5 11 Z " /><path fill="rgb(11,65,48)" stroke="rgb(11,65,48)" stroke-width="1" opacity="0.027450980392156862" d="M 3.5 2 Q 5 3 2.5 4 Q 1 3 3.5 2 Z " /><path fill="rgb(11,65,48)" stroke="rgb(11,65,48)" stroke-width="1" opacity="0.027450980392156862" d="M 13.5 7 L 14 8.5 L 13 8.5 L 13.5 7 Z " /><path fill="rgb(11,65,48)" stroke="rgb(11,65,48)" stroke-width="1" opacity="0.027450980392156862" d="M 3.5 13 L 3.5 14 L 3.5 13 Z " /><path fill="rgb(10,65,48)" stroke="rgb(10,65,48)" stroke-width="1" opacity="0.37254901960784315" d="M 5.5 2 L 5.5 3 L 5.5 2 Z " /><path fill="rgb(10,65,48)" stroke="rgb(10,65,48)" stroke-width="1" opacity="0.37254901960784315" d="M 10.5 2 L 10.5 3 L 10.5 2 Z " /><path fill="rgb(10,65,48)" stroke="rgb(10,65,48)" stroke-width="1" opacity="0.37254901960784315" d="M 2.5 4 L 3 5.5 L 2 5.5 L 2.5 4 Z " /><path fill="rgb(10,65,48)" stroke="rgb(10,65,48)" stroke-width="1" opacity="0.37254901960784315" d="M 2.5 10 L 2.5 11 L 2.5 10 Z " /><path fill="rgb(10,65,48)" stroke="rgb(10,65,48)" stroke-width="1" opacity="0.37254901960784315" d="M 4.5 13 L 6 13.5 L 4.5 14 L 4.5 13 Z " /><path fill="rgb(10,65,48)" stroke="rgb(10,65,48)" stroke-width="1" opacity="0.37254901960784315" d="M 10.5 13 L 10.5 14 L 10.5 13 Z " /><path fill="rgb(151,175,168)" stroke="rgb(151,175,168)" stroke-width="1" opacity="0.10980392156862745" d="M 5.5 1 L 5.5 2 L 5.5 1 Z " /><path fill="rgb(151,175,168)" stroke="rgb(151,175,168)" stroke-width="1" opacity="0.10980392156862745" d="M 5.5 14 L 5.5 15 L 5.5 14 Z " /><path fill="rgb(152,175,168)" stroke="rgb(152,175,168)" stroke-width="1" opacity="0.2980392156862745" d="M 6.5 1 L 10 1.5 L 6.5 2 L 6.5 1 Z " /><path fill="rgb(152,175,168)" stroke="rgb(152,175,168)" stroke-width="1" opacity="0.2980392156862745" d="M 6.5 14 L 6.5 15 L 6.5 14 Z " /><path fill="rgb(152,175,168)" stroke="rgb(152,175,168)" stroke-width="1" opacity="0.2980392156862745" d="M 9.5 14 L 9.5 15 L 9.5 14 Z " /><path fill="rgb(149,173,166)" stroke="rgb(149,173,166)" stroke-width="1" opacity="0.3333333333333333" d="M 7.5 14 L 9 14.5 L 7.5 15 L 7.5 14 Z " /><path fill="rgb(151,175,168)" stroke="rgb(151,175,168)" stroke-width="1" opacity="0.1411764705882353" d="M 10.5 1 L 10.5 2 L 10.5 1 Z " /><path fill="rgb(151,175,168)" stroke="rgb(151,175,168)" stroke-width="1" opacity="0.1411764705882353" d="M 10.5 14 L 10.5 15 L 10.5 14 Z " /><path fill="rgb(149,173,166)" stroke="rgb(149,173,166)" stroke-width="1" opacity="0" d="M 2.5 1 L 5 1.5 L 2.5 2 L 2.5 1 Z " /><path fill="rgb(149,173,166)" stroke="rgb(149,173,166)" stroke-width="1" opacity="0" d="M 11.5 1 L 14 1.5 L 11.5 2 L 11.5 1 Z " /><path fill="rgb(149,173,166)" stroke="rgb(149,173,166)" stroke-width="1" opacity="0" d="M 2.5 14 L 5 14.5 L 2.5 15 L 2.5 14 Z " /><path fill="rgb(149,173,166)" stroke="rgb(149,173,166)" stroke-width="1" opacity="0" d="M 11.5 14 L 14 14.5 L 11.5 15 L 11.5 14 Z " /><path fill="rgb(183,199,194)" stroke="rgb(183,199,194)" stroke-width="1" opacity="0" d="M 14.5 1 L 14.5 2 L 14.5 1 Z " /><path fill="rgb(183,199,194)" stroke="rgb(183,199,194)" stroke-width="1" opacity="0" d="M 14.5 14 L 14.5 15 L 14.5 14 Z " /></svg>