<svg width="48" height="48" version="1.1" xmlns="http://www.w3.org/2000/svg" desc="Created with imagetracer.js version 1.2.6" ><path fill="rgb(77,76,77)" stroke="rgb(77,76,77)" stroke-width="1" opacity="0.9333333333333333" d="M 6.5 0 L 20 0.5 L 6.5 1 L 6.5 0 Z " /><path fill="rgb(77,76,77)" stroke="rgb(77,76,77)" stroke-width="1" opacity="0.9333333333333333" d="M 28.5 0 L 42 0.5 L 28.5 1 L 28.5 0 Z " /><path fill="rgb(77,76,77)" stroke="rgb(77,76,77)" stroke-width="1" opacity="0.9333333333333333" d="M 22.5 12 L 22.5 13 L 22.5 12 Z " /><path fill="rgb(77,76,77)" stroke="rgb(77,76,77)" stroke-width="1" opacity="0.9333333333333333" d="M 25.5 12 L 25.5 13 L 25.5 12 Z " /><path fill="rgb(77,76,77)" stroke="rgb(77,76,77)" stroke-width="1" opacity="0.9333333333333333" d="M 23.5 18 L 25 18.5 L 23.5 19 L 23.5 18 Z " /><path fill="rgb(77,76,77)" stroke="rgb(77,76,77)" stroke-width="1" opacity="0.9333333333333333" d="M 16.5 23 L 16.5 24 L 16.5 23 Z " /><path fill="rgb(77,76,77)" stroke="rgb(77,76,77)" stroke-width="1" opacity="0.9333333333333333" d="M 31.5 23 L 31.5 24 L 31.5 23 Z " /><path fill="rgb(77,76,77)" stroke="rgb(77,76,77)" stroke-width="1" opacity="0.9333333333333333" d="M 17.5 29 L 17.5 30 L 17.5 29 Z " /><path fill="rgb(77,76,77)" stroke="rgb(77,76,77)" stroke-width="1" opacity="0.9333333333333333" d="M 30.5 29 L 30.5 30 L 30.5 29 Z " /><path fill="rgb(77,76,77)" stroke="rgb(77,76,77)" stroke-width="1" opacity="0.9333333333333333" d="M 18.5 35 L 18.5 36 L 18.5 35 Z " /><path fill="rgb(77,76,77)" stroke="rgb(77,76,77)" stroke-width="1" opacity="0.9333333333333333" d="M 29.5 35 L 29.5 36 L 29.5 35 Z " /><path fill="rgb(77,76,77)" stroke="rgb(77,76,77)" stroke-width="1" opacity="0.9333333333333333" d="M 6.5 47 L 14 47.5 L 6.5 48 L 6.5 47 Z " /><path fill="rgb(77,76,77)" stroke="rgb(77,76,77)" stroke-width="1" opacity="0.9333333333333333" d="M 20.5 47 L 28 47.5 L 20.5 48 L 20.5 47 Z " /><path fill="rgb(77,76,77)" stroke="rgb(77,76,77)" stroke-width="1" opacity="0.9333333333333333" d="M 34.5 47 L 42 47.5 L 34.5 48 L 34.5 47 Z " /><path fill="rgb(77,76,77)" stroke="rgb(77,76,77)" stroke-width="1" opacity="0.9568627450980393" d="M 20.5 0 L 20.5 1 L 20.5 0 Z " /><path fill="rgb(77,76,77)" stroke="rgb(77,76,77)" stroke-width="1" opacity="0.9568627450980393" d="M 27.5 0 L 27.5 1 L 27.5 0 Z " /><path fill="rgb(77,76,77)" stroke="rgb(77,76,77)" stroke-width="1" opacity="0.9568627450980393" d="M 21.5 5 L 21.5 6 L 21.5 5 Z " /><path fill="rgb(77,76,77)" stroke="rgb(77,76,77)" stroke-width="1" opacity="0.9568627450980393" d="M 26.5 5 L 26.5 6 L 26.5 5 Z " /><path fill="rgb(77,76,77)" stroke="rgb(77,76,77)" stroke-width="1" opacity="0.9568627450980393" d="M 15.5 22 L 15.5 23 L 15.5 22 Z " /><path fill="rgb(77,76,77)" stroke="rgb(77,76,77)" stroke-width="1" opacity="0.9568627450980393" d="M 32.5 22 L 32.5 23 L 32.5 22 Z " /><path fill="rgb(77,76,77)" stroke="rgb(77,76,77)" stroke-width="1" opacity="0.9568627450980393" d="M 19.5 41 L 19.5 42 L 19.5 41 Z " /><path fill="rgb(77,76,77)" stroke="rgb(77,76,77)" stroke-width="1" opacity="0.9568627450980393" d="M 28.5 41 L 28.5 42 L 28.5 41 Z " /><path fill="rgb(77,76,77)" stroke="rgb(77,76,77)" stroke-width="1" opacity="0.9568627450980393" d="M 14.5 47 L 14.5 48 L 14.5 47 Z " /><path fill="rgb(77,76,77)" stroke="rgb(77,76,77)" stroke-width="1" opacity="0.9568627450980393" d="M 33.5 47 L 33.5 48 L 33.5 47 Z " /><path fill="rgb(77,76,77)" stroke="rgb(77,76,77)" stroke-width="1" opacity="0.9882352941176471" d="M 21.5 6 L 21.5 7 L 21.5 6 Z " /><path fill="rgb(77,76,77)" stroke="rgb(77,76,77)" stroke-width="1" opacity="0.9882352941176471" d="M 26.5 6 L 26.5 7 L 26.5 6 Z " /><path fill="rgb(77,76,77)" stroke="rgb(77,76,77)" stroke-width="1" opacity="0.9882352941176471" d="M 22.5 13 L 22.5 14 L 22.5 13 Z " /><path fill="rgb(77,76,77)" stroke="rgb(77,76,77)" stroke-width="1" opacity="0.9882352941176471" d="M 25.5 13 L 25.5 14 L 25.5 13 Z " /><path fill="rgb(77,76,77)" stroke="rgb(77,76,77)" stroke-width="1" opacity="0.9882352941176471" d="M 16.5 22 L 16.5 23 L 16.5 22 Z " /><path fill="rgb(77,76,77)" stroke="rgb(77,76,77)" stroke-width="1" opacity="0.9882352941176471" d="M 31.5 22 L 31.5 23 L 31.5 22 Z " /><path fill="rgb(77,76,77)" stroke="rgb(77,76,77)" stroke-width="1" opacity="0.9882352941176471" d="M 17.5 28 L 17.5 29 L 17.5 28 Z " /><path fill="rgb(77,76,77)" stroke="rgb(77,76,77)" stroke-width="1" opacity="0.9882352941176471" d="M 30.5 28 L 30.5 29 L 30.5 28 Z " /><path fill="rgb(77,76,77)" stroke="rgb(77,76,77)" stroke-width="1" opacity="0.9882352941176471" d="M 18.5 34 L 18.5 35 L 18.5 34 Z " /><path fill="rgb(77,76,77)" stroke="rgb(77,76,77)" stroke-width="1" opacity="0.9882352941176471" d="M 29.5 34 L 29.5 35 L 29.5 34 Z " /><path fill="rgb(77,76,77)" stroke="rgb(77,76,77)" stroke-width="1" opacity="1" d="M 6 1 L 21 1 L 21 6.5 L 22 7.5 L 22 13.5 L 23 14.5 L 23 19 Q 26.67 20.35 25 14.5 L 26 13.5 L 26 7.5 L 27 6.5 L 27 1 L 41.5 1 L 42 1.5 L 42 47 L 33 47 L 33 22.5 L 31 22 L 28 47 L 20 47 L 20 41.5 L 19 40.5 L 19 34.5 L 18 33.5 L 17 22 L 15 22.5 L 15 47 L 6 47 L 6 1 Z " /><path fill="rgb(77,76,77)" stroke="rgb(77,76,77)" stroke-width="1" opacity="0.8470588235294118" d="M 5.5 0 L 5.5 1 L 5.5 0 Z " /><path fill="rgb(77,76,77)" stroke="rgb(77,76,77)" stroke-width="1" opacity="0.8470588235294118" d="M 42.5 0 L 42.5 1 L 42.5 0 Z " /><path fill="rgb(77,76,77)" stroke="rgb(77,76,77)" stroke-width="1" opacity="0.8470588235294118" d="M 21.5 3 L 21.5 4 L 21.5 3 Z " /><path fill="rgb(77,76,77)" stroke="rgb(77,76,77)" stroke-width="1" opacity="0.8470588235294118" d="M 26.5 3 L 26.5 4 L 26.5 3 Z " /><path fill="rgb(77,76,77)" stroke="rgb(77,76,77)" stroke-width="1" opacity="0.8470588235294118" d="M 22.5 10 L 23 11.5 L 22 11.5 L 22.5 10 Z " /><path fill="rgb(77,76,77)" stroke="rgb(77,76,77)" stroke-width="1" opacity="0.8470588235294118" d="M 25.5 10 L 26 11.5 L 25 11.5 L 25.5 10 Z " /><path fill="rgb(77,76,77)" stroke="rgb(77,76,77)" stroke-width="1" opacity="0.8470588235294118" d="M 23.5 17 L 25 17.5 L 23.5 18 L 23.5 17 Z " /><path fill="rgb(77,76,77)" stroke="rgb(77,76,77)" stroke-width="1" opacity="0.8470588235294118" d="M 15.5 23 Q 18 24 16.5 25 Q 13.71 25.67 15.5 23 Z " /><path fill="rgb(77,76,77)" stroke="rgb(77,76,77)" stroke-width="1" opacity="0.8470588235294118" d="M 32.5 23 L 33 25 L 31 24.5 L 32.5 23 Z " /><path fill="rgb(77,76,77)" stroke="rgb(77,76,77)" stroke-width="1" opacity="0.8470588235294118" d="M 17.5 30 L 17.5 31 L 17.5 30 Z " /><path fill="rgb(77,76,77)" stroke="rgb(77,76,77)" stroke-width="1" opacity="0.8470588235294118" d="M 30.5 30 L 30.5 31 L 30.5 30 Z " /><path fill="rgb(77,76,77)" stroke="rgb(77,76,77)" stroke-width="1" opacity="0.8470588235294118" d="M 18.5 36 L 19 37.5 L 18 37.5 L 18.5 36 Z " /><path fill="rgb(77,76,77)" stroke="rgb(77,76,77)" stroke-width="1" opacity="0.8470588235294118" d="M 29.5 36 L 30 37.5 L 29 37.5 L 29.5 36 Z " /><path fill="rgb(77,76,77)" stroke="rgb(77,76,77)" stroke-width="1" opacity="0.8470588235294118" d="M 19.5 43 L 19.5 44 L 19.5 43 Z " /><path fill="rgb(77,76,77)" stroke="rgb(77,76,77)" stroke-width="1" opacity="0.8470588235294118" d="M 28.5 43 L 28.5 44 L 28.5 43 Z " /><path fill="rgb(77,76,77)" stroke="rgb(77,76,77)" stroke-width="1" opacity="0.8470588235294118" d="M 5.5 47 L 5.5 48 L 5.5 47 Z " /><path fill="rgb(77,76,77)" stroke="rgb(77,76,77)" stroke-width="1" opacity="0.8470588235294118" d="M 42.5 47 L 42.5 48 L 42.5 47 Z " /><path fill="rgb(0,0,0)" stroke="rgb(0,0,0)" stroke-width="1" opacity="0" d="M 0 0 Q 3.88 -0.5 4 0.5 L 4 48 Q 0.12 48.5 0 47.5 L 0 0 Z " /><path fill="rgb(0,0,0)" stroke="rgb(0,0,0)" stroke-width="1" opacity="0" d="M 22 0 L 26 0 L 26 1.5 L 25 2.5 L 25 9 L 23 8.5 L 23 2.5 L 22 0 Z " /><path fill="rgb(0,0,0)" stroke="rgb(0,0,0)" stroke-width="1" opacity="0" d="M 44 0 Q 47.88 -0.5 48 0.5 L 48 48 Q 44.13 48.5 44 47.5 L 44 0 Z " /><path fill="rgb(0,0,0)" stroke="rgb(0,0,0)" stroke-width="1" opacity="0" d="M 16.5 34 L 16.5 35 L 16.5 34 Z " /><path fill="rgb(0,0,0)" stroke="rgb(0,0,0)" stroke-width="1" opacity="0" d="M 31.5 34 L 31.5 35 L 31.5 34 Z " /><path fill="rgb(0,0,0)" stroke="rgb(0,0,0)" stroke-width="1" opacity="0" d="M 17.5 39 L 19 48 L 17 47.5 L 17.5 39 Z " /><path fill="rgb(0,0,0)" stroke="rgb(0,0,0)" stroke-width="1" opacity="0" d="M 30.5 39 L 31 48 Q 28 49.25 29 45.5 L 30 44.5 L 30.5 39 Z " /><path fill="rgb(77,76,77)" stroke="rgb(77,76,77)" stroke-width="1" opacity="0.8941176470588236" d="M 5.5 1 L 6 46.5 L 5 46.5 L 5.5 1 Z " /><path fill="rgb(77,76,77)" stroke="rgb(77,76,77)" stroke-width="1" opacity="0.8941176470588236" d="M 42.5 1 L 43 46.5 L 42 46.5 L 42.5 1 Z " /><path fill="rgb(77,76,77)" stroke="rgb(77,76,77)" stroke-width="1" opacity="0.8941176470588236" d="M 21.5 4 L 21.5 5 L 21.5 4 Z " /><path fill="rgb(77,76,77)" stroke="rgb(77,76,77)" stroke-width="1" opacity="0.8941176470588236" d="M 26.5 4 L 26.5 5 L 26.5 4 Z " /><path fill="rgb(77,76,77)" stroke="rgb(77,76,77)" stroke-width="1" opacity="0.8941176470588236" d="M 19.5 42 L 19.5 43 L 19.5 42 Z " /><path fill="rgb(77,76,77)" stroke="rgb(77,76,77)" stroke-width="1" opacity="0.8941176470588236" d="M 28.5 42 L 28.5 43 L 28.5 42 Z " /><path fill="rgb(77,76,77)" stroke="rgb(77,76,77)" stroke-width="1" opacity="0.4196078431372549" d="M 21.5 0 L 21.5 1 L 21.5 0 Z " /><path fill="rgb(77,76,77)" stroke="rgb(77,76,77)" stroke-width="1" opacity="0.4196078431372549" d="M 26.5 0 L 26.5 1 L 26.5 0 Z " /><path fill="rgb(77,76,77)" stroke="rgb(77,76,77)" stroke-width="1" opacity="0.4196078431372549" d="M 22.5 6 L 23 7.5 L 22 7.5 L 22.5 6 Z " /><path fill="rgb(77,76,77)" stroke="rgb(77,76,77)" stroke-width="1" opacity="0.4196078431372549" d="M 25.5 6 L 26 7.5 L 25 7.5 L 25.5 6 Z " /><path fill="rgb(77,76,77)" stroke="rgb(77,76,77)" stroke-width="1" opacity="0.4196078431372549" d="M 23 14 Q 26 13 25 16 Q 22 17 23 14 Z " /><path fill="rgb(77,76,77)" stroke="rgb(77,76,77)" stroke-width="1" opacity="0.4196078431372549" d="M 16.5 27 L 17 28.5 L 16 28.5 L 16.5 27 Z " /><path fill="rgb(77,76,77)" stroke="rgb(77,76,77)" stroke-width="1" opacity="0.4196078431372549" d="M 31.5 27 L 32 28.5 L 31 28.5 L 31.5 27 Z " /><path fill="rgb(77,76,77)" stroke="rgb(77,76,77)" stroke-width="1" opacity="0.4196078431372549" d="M 17.5 33 L 18 34.5 L 17 34.5 L 17.5 33 Z " /><path fill="rgb(77,76,77)" stroke="rgb(77,76,77)" stroke-width="1" opacity="0.4196078431372549" d="M 30.5 33 L 31 34.5 L 30 34.5 L 30.5 33 Z " /><path fill="rgb(77,76,77)" stroke="rgb(77,76,77)" stroke-width="1" opacity="0.4196078431372549" d="M 18.5 39 L 19 40.5 L 18 40.5 L 18.5 39 Z " /><path fill="rgb(77,76,77)" stroke="rgb(77,76,77)" stroke-width="1" opacity="0.4196078431372549" d="M 29.5 39 L 30 40.5 L 29 40.5 L 29.5 39 Z " /><path fill="rgb(77,76,77)" stroke="rgb(77,76,77)" stroke-width="1" opacity="0.4196078431372549" d="M 19.5 45 L 20 46.5 L 19 46.5 L 19.5 45 Z " /><path fill="rgb(77,76,77)" stroke="rgb(77,76,77)" stroke-width="1" opacity="0.4196078431372549" d="M 28.5 45 L 29 46.5 L 28 46.5 L 28.5 45 Z " /><path fill="rgb(77,76,77)" stroke="rgb(77,76,77)" stroke-width="1" opacity="0.1411764705882353" d="M 4.5 0 L 5 47.5 L 4 47.5 L 4.5 0 Z " /><path fill="rgb(77,76,77)" stroke="rgb(77,76,77)" stroke-width="1" opacity="0.1411764705882353" d="M 43.5 0 L 44 47.5 L 43 47.5 L 43.5 0 Z " /><path fill="rgb(77,76,77)" stroke="rgb(77,76,77)" stroke-width="1" opacity="0.1411764705882353" d="M 22.5 4 L 23 5.5 L 22 5.5 L 22.5 4 Z " /><path fill="rgb(77,76,77)" stroke="rgb(77,76,77)" stroke-width="1" opacity="0.1411764705882353" d="M 25.5 4 L 26 5.5 L 25 5.5 L 25.5 4 Z " /><path fill="rgb(77,76,77)" stroke="rgb(77,76,77)" stroke-width="1" opacity="0.1411764705882353" d="M 23 11 Q 26.33 9.88 25 14 Q 21.67 15.13 23 11 Z " /><path fill="rgb(77,76,77)" stroke="rgb(77,76,77)" stroke-width="1" opacity="0.1411764705882353" d="M 16.5 29 L 17 30.5 L 16 30.5 L 16.5 29 Z " /><path fill="rgb(77,76,77)" stroke="rgb(77,76,77)" stroke-width="1" opacity="0.1411764705882353" d="M 31.5 29 L 32 30.5 L 31 30.5 L 31.5 29 Z " /><path fill="rgb(77,76,77)" stroke="rgb(77,76,77)" stroke-width="1" opacity="0.1411764705882353" d="M 17.5 35 L 18 36.5 L 17 36.5 L 17.5 35 Z " /><path fill="rgb(77,76,77)" stroke="rgb(77,76,77)" stroke-width="1" opacity="0.1411764705882353" d="M 30.5 35 L 31 36.5 L 30 36.5 L 30.5 35 Z " /><path fill="rgb(77,76,77)" stroke="rgb(77,76,77)" stroke-width="1" opacity="0.1411764705882353" d="M 18.5 41 L 19 42.5 L 18 42.5 L 18.5 41 Z " /><path fill="rgb(77,76,77)" stroke="rgb(77,76,77)" stroke-width="1" opacity="0.1411764705882353" d="M 29.5 41 L 30 42.5 L 29 42.5 L 29.5 41 Z " /><path fill="rgb(77,76,77)" stroke="rgb(77,76,77)" stroke-width="1" opacity="0.1411764705882353" d="M 19.5 47 L 19.5 48 L 19.5 47 Z " /><path fill="rgb(77,76,77)" stroke="rgb(77,76,77)" stroke-width="1" opacity="0.1411764705882353" d="M 28.5 47 L 28.5 48 L 28.5 47 Z " /><path fill="rgb(77,76,77)" stroke="rgb(77,76,77)" stroke-width="1" opacity="0.6901960784313725" d="M 21.5 1 L 22 2.5 L 21 2.5 L 21.5 1 Z " /><path fill="rgb(77,76,77)" stroke="rgb(77,76,77)" stroke-width="1" opacity="0.6901960784313725" d="M 26.5 1 L 27 2.5 L 26 2.5 L 26.5 1 Z " /><path fill="rgb(77,76,77)" stroke="rgb(77,76,77)" stroke-width="1" opacity="0.6901960784313725" d="M 22.5 8 L 23 9.5 L 22 9.5 L 22.5 8 Z " /><path fill="rgb(77,76,77)" stroke="rgb(77,76,77)" stroke-width="1" opacity="0.6901960784313725" d="M 25.5 8 L 26 9.5 L 25 9.5 L 25.5 8 Z " /><path fill="rgb(77,76,77)" stroke="rgb(77,76,77)" stroke-width="1" opacity="0.6901960784313725" d="M 23.5 16 L 25 16.5 L 23.5 17 L 23.5 16 Z " /><path fill="rgb(77,76,77)" stroke="rgb(77,76,77)" stroke-width="1" opacity="0.6901960784313725" d="M 15 25 Q 17.67 23.88 17 26.5 L 16 27.5 L 15.5 48 L 15 25 Z " /><path fill="rgb(77,76,77)" stroke="rgb(77,76,77)" stroke-width="1" opacity="0.6901960784313725" d="M 31 25 L 33 25.5 L 33 47.5 L 32 47.5 L 32 27.5 L 31 25 Z " /><path fill="rgb(77,76,77)" stroke="rgb(77,76,77)" stroke-width="1" opacity="0.6901960784313725" d="M 17.5 31 L 18 32.5 L 17 32.5 L 17.5 31 Z " /><path fill="rgb(77,76,77)" stroke="rgb(77,76,77)" stroke-width="1" opacity="0.6901960784313725" d="M 30.5 31 L 31 32.5 L 30 32.5 L 30.5 31 Z " /><path fill="rgb(77,76,77)" stroke="rgb(77,76,77)" stroke-width="1" opacity="0.6901960784313725" d="M 18.5 38 L 18.5 39 L 18.5 38 Z " /><path fill="rgb(77,76,77)" stroke="rgb(77,76,77)" stroke-width="1" opacity="0.6901960784313725" d="M 29.5 38 L 29.5 39 L 29.5 38 Z " /><path fill="rgb(77,76,77)" stroke="rgb(77,76,77)" stroke-width="1" opacity="0.6901960784313725" d="M 19.5 44 L 19.5 45 L 19.5 44 Z " /><path fill="rgb(77,76,77)" stroke="rgb(77,76,77)" stroke-width="1" opacity="0.6901960784313725" d="M 28.5 44 L 28.5 45 L 28.5 44 Z " /><path fill="rgb(77,76,77)" stroke="rgb(77,76,77)" stroke-width="1" opacity="0.00392156862745098" d="M 16.5 33 L 16.5 34 L 16.5 33 Z " /><path fill="rgb(77,76,77)" stroke="rgb(77,76,77)" stroke-width="1" opacity="0.00392156862745098" d="M 31.5 33 L 31.5 34 L 31.5 33 Z " /><path fill="rgb(77,76,77)" stroke="rgb(77,76,77)" stroke-width="1" opacity="0.00392156862745098" d="M 16.5 35 L 17 36.5 L 16 36.5 L 16.5 35 Z " /><path fill="rgb(77,76,77)" stroke="rgb(77,76,77)" stroke-width="1" opacity="0.00392156862745098" d="M 31.5 35 L 32 36.5 L 31 36.5 L 31.5 35 Z " /><path fill="rgb(77,76,77)" stroke="rgb(77,76,77)" stroke-width="1" opacity="0.00392156862745098" d="M 17.5 38 L 17.5 39 L 17.5 38 Z " /><path fill="rgb(77,76,77)" stroke="rgb(77,76,77)" stroke-width="1" opacity="0.00392156862745098" d="M 30.5 38 L 30.5 39 L 30.5 38 Z " /><path fill="rgb(77,76,77)" stroke="rgb(77,76,77)" stroke-width="1" opacity="0.023529411764705882" d="M 22.5 2 L 23 3.5 L 22 3.5 L 22.5 2 Z " /><path fill="rgb(77,76,77)" stroke="rgb(77,76,77)" stroke-width="1" opacity="0.023529411764705882" d="M 25.5 2 L 26 3.5 L 25 3.5 L 25.5 2 Z " /><path fill="rgb(77,76,77)" stroke="rgb(77,76,77)" stroke-width="1" opacity="0.023529411764705882" d="M 23 9 Q 26 8 25 11 Q 22 12 23 9 Z " /><path fill="rgb(77,76,77)" stroke="rgb(77,76,77)" stroke-width="1" opacity="0.023529411764705882" d="M 16.5 31 L 17 32.5 L 16 32.5 L 16.5 31 Z " /><path fill="rgb(77,76,77)" stroke="rgb(77,76,77)" stroke-width="1" opacity="0.023529411764705882" d="M 31.5 31 L 32 32.5 L 31 32.5 L 31.5 31 Z " /><path fill="rgb(77,76,77)" stroke="rgb(77,76,77)" stroke-width="1" opacity="0.023529411764705882" d="M 16 37 L 18 37.5 L 17 38.5 L 16.5 48 L 16 37 Z " /><path fill="rgb(77,76,77)" stroke="rgb(77,76,77)" stroke-width="1" opacity="0.023529411764705882" d="M 30.5 37 L 32 37.5 L 32 47.5 L 31 47.5 L 31 38.5 L 30.5 37 Z " /><path fill="rgb(77,76,77)" stroke="rgb(77,76,77)" stroke-width="1" opacity="0.023529411764705882" d="M 18.5 43 L 19 44.5 L 18 44.5 L 18.5 43 Z " /><path fill="rgb(77,76,77)" stroke="rgb(77,76,77)" stroke-width="1" opacity="0.023529411764705882" d="M 29.5 43 L 30 44.5 L 29 44.5 L 29.5 43 Z " /></svg>