<svg width="128" height="128" version="1.1" xmlns="http://www.w3.org/2000/svg" desc="Created with imagetracer.js version 1.2.6" ><path fill="rgb(254,254,252)" stroke="rgb(254,254,252)" stroke-width="1" opacity="1" d="M 31 20 Q 34 19 33 22 Q 30 23 31 20 Z " /><path fill="rgb(254,254,252)" stroke="rgb(254,254,252)" stroke-width="1" opacity="1" d="M 34.5 20 Q 36.75 19.25 36 21.5 L 35.5 22 Q 33 21 34.5 20 Z " /><path fill="rgb(254,254,252)" stroke="rgb(254,254,252)" stroke-width="1" opacity="1" d="M 37 20 L 39 20 Q 38.63 22.96 39.5 23 L 60.5 23 L 60.5 24 L 37.5 24 Q 36.5 23.87 37 20 Z " /><path fill="rgb(254,254,252)" stroke="rgb(254,254,252)" stroke-width="1" opacity="1" d="M 64.5 20 Q 69 19 70 21.5 L 62.5 22 L 62.5 21 L 64.5 20 Z " /><path fill="rgb(254,254,252)" stroke="rgb(254,254,252)" stroke-width="1" opacity="1" d="M 31 23 Q 34 22 33 25 Q 30 26 31 23 Z " /><path fill="rgb(254,254,252)" stroke="rgb(254,254,252)" stroke-width="1" opacity="1" d="M 69.5 23 Q 72.83 21.88 72 24.5 L 70.5 24 Q 68.13 23.87 69.5 23 Z " /><path fill="rgb(254,254,252)" stroke="rgb(254,254,252)" stroke-width="1" opacity="1" d="M 31.5 26 L 31.5 27 L 31.5 26 Z " /><path fill="rgb(254,254,252)" stroke="rgb(254,254,252)" stroke-width="1" opacity="1" d="M 71.5 29 L 72 31.5 L 71 31.5 L 71.5 29 Z " /><path fill="rgb(254,254,252)" stroke="rgb(254,254,252)" stroke-width="1" opacity="1" d="M 49.5 36 Q 52.25 37.25 50 38.5 L 49.5 40 L 48 37.5 L 49.5 36 Z " /><path fill="rgb(254,254,252)" stroke="rgb(254,254,252)" stroke-width="1" opacity="1" d="M 61 36 L 68 37.5 L 62.5 39 L 61 36 Z " /><path fill="rgb(254,254,252)" stroke="rgb(254,254,252)" stroke-width="1" opacity="1" d="M 70.5 36 L 72 36.5 L 70.5 37 L 70.5 36 Z " /><path fill="rgb(254,254,252)" stroke="rgb(254,254,252)" stroke-width="1" opacity="1" d="M 45.5 39 L 46 40.5 L 45 40.5 L 45.5 39 Z " /><path fill="rgb(254,254,252)" stroke="rgb(254,254,252)" stroke-width="1" opacity="1" d="M 67.5 39 Q 72.31 37.67 71 41 L 65 40.5 L 67.5 39 Z " /><path fill="rgb(254,254,252)" stroke="rgb(254,254,252)" stroke-width="1" opacity="1" d="M 50.5 41 L 51 45 L 54 45.5 L 52.5 47 L 51 46.5 L 51 51 L 53.5 51 Q 55 52 52.5 53 L 51 53.5 Q 53 54.5 51 55.5 L 50.5 61 L 50.5 41 Z " /><path fill="rgb(254,254,252)" stroke="rgb(254,254,252)" stroke-width="1" opacity="1" d="M 53.5 41 L 55 41.5 L 53.5 42 L 53.5 41 Z " /><path fill="rgb(254,254,252)" stroke="rgb(254,254,252)" stroke-width="1" opacity="1" d="M 95.5 41 L 97 41.5 L 95.5 42 L 95.5 41 Z " /><path fill="rgb(254,254,252)" stroke="rgb(254,254,252)" stroke-width="1" opacity="1" d="M 59 42 L 62 42.5 L 61 43.5 L 61.5 45 Q 57.33 46.13 59 42 Z " /><path fill="rgb(254,254,252)" stroke="rgb(254,254,252)" stroke-width="1" opacity="1" d="M 62.5 46 L 92 46.5 L 62.5 47 L 62.5 46 Z " /><path fill="rgb(254,254,252)" stroke="rgb(254,254,252)" stroke-width="1" opacity="1" d="M 95.5 51 L 96 101.5 L 97 103.5 L 96 103.5 L 95 101.5 L 95.5 51 Z " /><path fill="rgb(254,254,252)" stroke="rgb(254,254,252)" stroke-width="1" opacity="1" d="M 54.5 54 L 54.5 57 Q 51.5 55.5 54.5 54 Z " /><path fill="rgb(254,254,252)" stroke="rgb(254,254,252)" stroke-width="1" opacity="1" d="M 53.5 59 L 53.5 60 L 53.5 59 Z " /><path fill="rgb(254,254,252)" stroke="rgb(254,254,252)" stroke-width="1" opacity="1" d="M 62.5 59 L 82 59.5 L 62.5 60 L 62.5 59 Z " /><path fill="rgb(254,254,252)" stroke="rgb(254,254,252)" stroke-width="1" opacity="1" d="M 59.5 60 L 59.5 61 L 59.5 60 Z " /><path fill="rgb(254,254,252)" stroke="rgb(254,254,252)" stroke-width="1" opacity="1" d="M 55.5 61 L 55.5 62 L 55.5 61 Z " /><path fill="rgb(254,254,252)" stroke="rgb(254,254,252)" stroke-width="1" opacity="1" d="M 77 62 L 80 62.5 L 77 64 L 77 62 Z " /><path fill="rgb(254,254,252)" stroke="rgb(254,254,252)" stroke-width="1" opacity="1" d="M 45.5 63 L 47 63.5 L 45.5 64 L 45.5 63 Z " /><path fill="rgb(254,254,252)" stroke="rgb(254,254,252)" stroke-width="1" opacity="1" d="M 49.5 63 L 49.5 64 L 49.5 63 Z " /><path fill="rgb(254,254,252)" stroke="rgb(254,254,252)" stroke-width="1" opacity="1" d="M 72.5 64 L 75 66.5 L 74.5 67 L 72 64.5 L 72.5 64 Z " /><path fill="rgb(254,254,252)" stroke="rgb(254,254,252)" stroke-width="1" opacity="1" d="M 45.5 65 Q 48.13 64.17 47 67.5 L 46 67.5 L 45.5 65 Z " /><path fill="rgb(254,254,252)" stroke="rgb(254,254,252)" stroke-width="1" opacity="1" d="M 49.5 65 L 50 67 L 71 67.5 L 48.5 68 L 49 66.5 L 49.5 65 Z " /><path fill="rgb(254,254,252)" stroke="rgb(254,254,252)" stroke-width="1" opacity="1" d="M 51.5 65 L 71 65.5 L 51.5 66 L 51.5 65 Z " /><path fill="rgb(254,254,252)" stroke="rgb(254,254,252)" stroke-width="1" opacity="1" d="M 81.5 65 L 82 72.5 L 81 72.5 L 81.5 65 Z " /><path fill="rgb(254,254,252)" stroke="rgb(254,254,252)" stroke-width="1" opacity="1" d="M 76.5 66 L 76.5 67 L 76.5 66 Z " /><path fill="rgb(254,254,252)" stroke="rgb(254,254,252)" stroke-width="1" opacity="1" d="M 76.5 68 L 77 72 L 74.5 73 L 75 71.5 Q 74.5 68.5 76.5 68 Z " /><path fill="rgb(254,254,252)" stroke="rgb(254,254,252)" stroke-width="1" opacity="1" d="M 31.5 71 L 32 72.5 L 31 72.5 L 31.5 71 Z " /><path fill="rgb(254,254,252)" stroke="rgb(254,254,252)" stroke-width="1" opacity="1" d="M 77.5 73 L 78 79.5 L 77 79.5 L 77.5 73 Z " /><path fill="rgb(254,254,252)" stroke="rgb(254,254,252)" stroke-width="1" opacity="1" d="M 31.5 77 L 31.5 78 L 31.5 77 Z " /><path fill="rgb(254,254,252)" stroke="rgb(254,254,252)" stroke-width="1" opacity="1" d="M 32.5 80 L 33 81.5 L 32 81.5 L 32.5 80 Z " /><path fill="rgb(254,254,252)" stroke="rgb(254,254,252)" stroke-width="1" opacity="1" d="M 73.5 81 L 73.5 82 L 73.5 81 Z " /><path fill="rgb(254,254,252)" stroke="rgb(254,254,252)" stroke-width="1" opacity="1" d="M 51 92 L 53 92.5 Q 52 95 51 93.5 L 51 92 Z " /><path fill="rgb(254,254,252)" stroke="rgb(254,254,252)" stroke-width="1" opacity="1" d="M 56.5 96 L 56.5 97 L 56.5 96 Z " /><path fill="rgb(254,254,252)" stroke="rgb(254,254,252)" stroke-width="1" opacity="1" d="M 51.5 98 L 52 99.5 L 51 99.5 L 51.5 98 Z " /><path fill="rgb(254,254,252)" stroke="rgb(254,254,252)" stroke-width="1" opacity="1" d="M 51 103 Q 55.13 101.67 54 105 Q 49.88 106.33 51 103 Z " /><path fill="rgb(254,254,252)" stroke="rgb(254,254,252)" stroke-width="1" opacity="1" d="M 101.5 103 L 103 106 L 100 106 L 100 104.5 L 101.5 103 Z " /><path fill="rgb(254,254,252)" stroke="rgb(254,254,252)" stroke-width="1" opacity="1" d="M 58.5 106 L 60 106.5 L 58.5 107 L 58.5 106 Z " /><path fill="rgb(254,254,252)" stroke="rgb(254,254,252)" stroke-width="1" opacity="1" d="M 61.5 106 L 62 107.5 L 61 107.5 L 61.5 106 Z " /><path fill="rgb(254,254,252)" stroke="rgb(254,254,252)" stroke-width="1" opacity="1" d="M 54.5 107 L 56 109.5 L 53.5 110 L 51 108.5 L 54.5 107 Z " /><path fill="rgb(254,254,252)" stroke="rgb(254,254,252)" stroke-width="1" opacity="1" d="M 94.5 107 L 95.5 108 L 97 107.5 L 97 109 L 101.5 109 Q 104.5 110.5 101.5 112 L 96.5 109 L 92 108.5 L 94.5 107 Z " /><path fill="rgb(254,254,252)" stroke="rgb(254,254,252)" stroke-width="1" opacity="1" d="M 92.5 111 L 93 112.5 L 92 112.5 L 92.5 111 Z " /><path fill="rgb(255,255,255)" stroke="rgb(255,255,255)" stroke-width="1" opacity="1" d="M 0 0 L 128 0 L 128 128 L 0 128 L 0 0 Z M 31 20 L 32 23 L 31 25 L 32 28 L 32 71 L 31 72 L 32 74 Q 33 77 31 78 L 32 82 L 40 81 Q 41 83 42 81 L 71 81 L 72 82 Q 75 83 74 81 Q 76 80 74 79 Q 73 74 75 74 Q 74 71 77 72 L 77 69 L 76 69 L 76 68 L 75 65 L 73 64 L 72 66 L 74 68 L 74 68 L 73 67 L 50 67 L 50 65 L 49 67 L 48 68 L 49 69 Q 45 70 47 66 Q 45 65 47 64 L 45 63 L 46 61 L 46 40 L 45 38 Q 45 36 49 36 L 48 38 L 50 40 L 52 37 L 61 37 L 63 39 L 68 38 Q 69 34 71 37 Q 73 38 72 36 L 71 33 L 72 32 L 72 24 L 71 23 L 71 22 L 69 20 Q 64 19 63 21 L 63 22 Q 67 21 66 24 Q 63 25 63 23 L 40 23 Q 39 23 39 20 Q 36 19 37 24 L 36 24 L 36 20 L 31 20 Z M 68 39 L 65 41 L 63 40 L 52 40 L 52 42 L 52 43 L 51 41 L 50 61 L 54 62 L 55 59 L 55 62 L 57 62 Q 56 59 59 60 Q 60 62 61 60 L 82 60 L 83 62 L 83 92 L 57 92 L 56 95 L 55 92 L 54 100 L 55 100 Q 54 96 57 97 L 57 102 Q 54 101 55 104 L 58 105 L 92 105 L 93 106 L 97 104 L 96 102 L 96 46 L 56 46 L 54 48 Q 53 51 55 52 Q 56 55 53 54 L 54 52 L 51 51 L 53 50 Q 52 46 55 45 Q 58 46 57 43 Q 60 42 59 45 L 62 45 L 61 44 L 62 43 L 56 42 L 56 41 L 62 41 L 63 42 L 92 42 L 92 41 L 72 41 L 71 39 L 68 39 Z M 95 41 Q 94 43 97 43 Q 98 40 95 41 Z M 102 41 L 101 43 L 102 43 L 102 41 Z M 100 45 L 99 48 L 100 48 L 100 45 Z M 101 48 L 100 51 L 102 51 L 101 48 Z M 100 51 L 99 102 L 100 102 L 100 51 Z M 77 62 L 77 64 L 80 63 L 77 62 Z M 50 63 L 50 64 L 50 63 Z M 52 65 L 52 66 L 71 66 L 52 65 Z M 82 65 L 81 73 L 82 73 L 82 65 Z M 77 66 L 77 67 L 77 66 Z M 78 73 L 76 79 Q 77 81 78 80 L 78 73 Z M 51 92 L 51 94 Q 52 95 53 93 L 51 92 Z M 52 97 L 51 101 Q 52 102 53 100 L 52 97 Z M 51 103 L 52 106 L 54 105 Q 55 102 51 103 Z M 102 103 L 100 105 L 100 106 L 103 106 L 102 103 Z M 56 106 Q 54 108 51 109 L 54 110 L 57 109 Q 60 108 62 110 L 92 110 L 92 109 L 63 109 Q 62 109 62 106 L 56 106 Z M 94 107 L 92 109 Q 94 111 99 110 L 101 112 L 103 111 Q 102 108 99 109 Q 97 105 96 108 L 94 107 Z M 61 110 L 58 111 L 58 113 L 62 113 L 61 110 Z M 93 111 L 92 113 L 93 113 L 93 111 Z " /><path fill="rgb(255,255,255)" stroke="rgb(255,255,255)" stroke-width="1" opacity="1" d="M 67.5 22 L 69 22.5 L 67.5 23 L 67.5 22 Z " /><path fill="rgb(255,255,255)" stroke="rgb(255,255,255)" stroke-width="1" opacity="1" d="M 64.5 36 L 67 36.5 L 64.5 37 L 64.5 36 Z " /><path fill="rgb(255,255,255)" stroke="rgb(255,255,255)" stroke-width="1" opacity="1" d="M 51.5 55 L 52 59.5 L 51 59.5 L 51.5 55 Z " /><path fill="rgb(255,255,255)" stroke="rgb(255,255,255)" stroke-width="1" opacity="1" d="M 54.5 55 L 54.5 56 L 54.5 55 Z " /><path fill="rgb(255,255,255)" stroke="rgb(255,255,255)" stroke-width="1" opacity="1" d="M 51.5 68 L 71 68.5 L 51.5 69 L 51.5 68 Z " /><path fill="rgb(212,235,213)" stroke="rgb(212,235,213)" stroke-width="1" opacity="1" d="M 33.5 24 L 69.5 24 L 71 25.5 L 70.5 35 L 70 25 L 33.5 25 L 33.5 24 Z " /><path fill="rgb(212,235,213)" stroke="rgb(212,235,213)" stroke-width="1" opacity="1" d="M 56.5 47 L 94 47.5 L 56.5 48 L 56.5 47 Z " /><path fill="rgb(212,235,213)" stroke="rgb(212,235,213)" stroke-width="1" opacity="1" d="M 83.5 59 L 83.5 60 L 83.5 59 Z " /><path fill="rgb(212,235,213)" stroke="rgb(212,235,213)" stroke-width="1" opacity="1" d="M 83.5 61 L 84 93 L 58 93 L 58 103 L 95 103.5 L 57 104 L 57 93.5 L 58.5 92 L 83 92 L 83.5 61 Z " /><path fill="rgb(40,45,124)" stroke="rgb(40,45,124)" stroke-width="1" opacity="1" d="M 36.5 25 L 39 25.5 L 37 26 Q 35.75 29 39.5 28 Q 40.5 26 41.5 28 L 60.5 28 L 61 30 L 39.5 30 L 37 29 L 37 70.5 Q 36.96 71.38 34 71 L 34 31.5 L 36 31 L 36 27 L 34 26.5 L 36.5 25 Z " /><path fill="rgb(40,45,124)" stroke="rgb(40,45,124)" stroke-width="1" opacity="1" d="M 40.5 25 L 60.5 25 L 63.5 26 L 65 25.5 L 63.5 29 L 63 27 L 60.5 26 L 40.5 26 L 40.5 25 Z " /><path fill="rgb(40,45,124)" stroke="rgb(40,45,124)" stroke-width="1" opacity="1" d="M 66.5 25 L 69 26.5 L 67 30.5 L 67 33 Q 70.67 34.35 69 28.5 L 70 28.5 Q 71 33 68.5 34 Q 64.75 35.25 66 31.5 Q 64 30.5 66 29.5 L 67 27.5 Q 65.25 26.75 66.5 25 Z " /><path fill="rgb(40,45,124)" stroke="rgb(40,45,124)" stroke-width="1" opacity="1" d="M 39.5 31 L 40 71 L 42 71.5 L 41.5 73 L 70.5 73 L 71 75 L 41.5 75 L 41 73 L 39 73 L 39 77 L 37.5 77 Q 36.25 74.75 35 77.5 Q 35.67 80.13 33 79 L 34 76.5 L 33 74 L 37 74 L 37 72.5 L 39 70.5 L 39.5 31 Z " /><path fill="rgb(40,45,124)" stroke="rgb(40,45,124)" stroke-width="1" opacity="1" d="M 44.5 31 L 46 31.5 L 44.5 32 L 44.5 31 Z " /><path fill="rgb(40,45,124)" stroke="rgb(40,45,124)" stroke-width="1" opacity="1" d="M 47.5 31 L 50 31.5 L 47.5 32 L 47.5 31 Z " /><path fill="rgb(40,45,124)" stroke="rgb(40,45,124)" stroke-width="1" opacity="1" d="M 51.5 32 L 61 32.5 L 51.5 33 L 51.5 32 Z " /><path fill="rgb(40,45,124)" stroke="rgb(40,45,124)" stroke-width="1" opacity="1" d="M 63.5 32 L 64 33.5 L 63 33.5 L 63.5 32 Z " /><path fill="rgb(40,45,124)" stroke="rgb(40,45,124)" stroke-width="1" opacity="1" d="M 44.5 33 L 45 33.5 L 42 36.5 L 43 37.5 Q 43.75 40.75 42 41.5 L 42 62.5 L 43 65.5 L 42 65.5 L 41 63.5 L 41 41.5 Q 42.75 40.75 42 37.5 L 41 35 Q 43.5 35.5 44.5 33 Z " /><path fill="rgb(40,45,124)" stroke="rgb(40,45,124)" stroke-width="1" opacity="1" d="M 46.5 33 L 50 33.5 L 46.5 34 L 46.5 33 Z " /><path fill="rgb(40,45,124)" stroke="rgb(40,45,124)" stroke-width="1" opacity="1" d="M 41.5 67 L 41.5 68 L 41.5 67 Z " /><path fill="rgb(40,45,124)" stroke="rgb(40,45,124)" stroke-width="1" opacity="1" d="M 44.5 70 L 46.5 71 L 47.5 70 L 70.5 70 L 70.5 71 L 47.5 71 L 45.5 72 Q 43 71 44.5 70 Z " /><path fill="rgb(40,45,124)" stroke="rgb(40,45,124)" stroke-width="1" opacity="1" d="M 71.5 76 L 71.5 77 L 71.5 76 Z " /><path fill="rgb(40,45,124)" stroke="rgb(40,45,124)" stroke-width="1" opacity="1" d="M 40.5 77 L 41.5 78 L 71 78.5 L 39.5 79 Q 38 78 40.5 77 Z " /><path fill="rgb(77,79,137)" stroke="rgb(77,79,137)" stroke-width="1" opacity="1" d="M 43.5 35 L 44 68.5 L 43 68.5 L 43.5 35 Z " /><path fill="rgb(77,79,137)" stroke="rgb(77,79,137)" stroke-width="1" opacity="1" d="M 72.5 70 L 73 79.5 L 72 79.5 L 72.5 70 Z " /><path fill="rgb(236,240,252)" stroke="rgb(236,240,252)" stroke-width="1" opacity="1" d="M 70.5 24 L 70.5 25 L 70.5 24 Z " /><path fill="rgb(236,240,252)" stroke="rgb(236,240,252)" stroke-width="1" opacity="1" d="M 44.5 35 L 71 35.5 L 44.5 36 L 44.5 35 Z " /><path fill="rgb(236,240,252)" stroke="rgb(236,240,252)" stroke-width="1" opacity="1" d="M 55.5 47 L 55.5 48 L 55.5 47 Z " /><path fill="rgb(236,240,252)" stroke="rgb(236,240,252)" stroke-width="1" opacity="1" d="M 94.5 47 L 94.5 48 L 94.5 47 Z " /><path fill="rgb(236,240,252)" stroke="rgb(236,240,252)" stroke-width="1" opacity="1" d="M 83.5 60 L 83.5 61 L 83.5 60 Z " /><path fill="rgb(236,240,252)" stroke="rgb(236,240,252)" stroke-width="1" opacity="1" d="M 33.5 80 L 73 80.5 L 33.5 81 L 33.5 80 Z " /><path fill="rgb(236,240,252)" stroke="rgb(236,240,252)" stroke-width="1" opacity="1" d="M 57.5 92 L 57.5 93 L 57.5 92 Z " /><path fill="rgb(251,252,253)" stroke="rgb(251,252,253)" stroke-width="1" opacity="1" d="M 33.5 23 L 33.5 24 L 33.5 23 Z " /><path fill="rgb(251,252,253)" stroke="rgb(251,252,253)" stroke-width="1" opacity="1" d="M 32.5 25 L 32.5 26 L 32.5 25 Z " /><path fill="rgb(251,252,253)" stroke="rgb(251,252,253)" stroke-width="1" opacity="1" d="M 44.5 36 L 45 38.5 L 44 38.5 L 44.5 36 Z " /><path fill="rgb(251,252,253)" stroke="rgb(251,252,253)" stroke-width="1" opacity="1" d="M 44.5 41 L 45 68.5 L 44 68.5 L 44.5 41 Z " /><path fill="rgb(251,252,253)" stroke="rgb(251,252,253)" stroke-width="1" opacity="1" d="M 52.5 56 L 52.5 57 L 52.5 56 Z " /><path fill="rgb(251,252,253)" stroke="rgb(251,252,253)" stroke-width="1" opacity="1" d="M 72.5 68 L 72.5 69 L 72.5 68 Z " /><path fill="rgb(251,252,253)" stroke="rgb(251,252,253)" stroke-width="1" opacity="1" d="M 73.5 70 L 73.5 71 L 73.5 70 Z " /><path fill="rgb(251,252,253)" stroke="rgb(251,252,253)" stroke-width="1" opacity="1" d="M 32.5 72 L 33 79.5 L 32 79.5 L 32.5 72 Z " /><path fill="rgb(43,44,129)" stroke="rgb(43,44,129)" stroke-width="1" opacity="1" d="M 39.5 25 L 39.5 26 L 39.5 25 Z " /><path fill="rgb(43,44,129)" stroke="rgb(43,44,129)" stroke-width="1" opacity="1" d="M 65.5 25 L 65.5 26 L 65.5 25 Z " /><path fill="rgb(43,44,129)" stroke="rgb(43,44,129)" stroke-width="1" opacity="1" d="M 37.5 26 L 37.5 27 L 37.5 26 Z " /><path fill="rgb(43,44,129)" stroke="rgb(43,44,129)" stroke-width="1" opacity="1" d="M 33.5 28 L 34 72.5 L 35 73.5 L 33 74 L 33.5 28 Z " /><path fill="rgb(43,44,129)" stroke="rgb(43,44,129)" stroke-width="1" opacity="1" d="M 37 29 L 40 30.5 L 37 31 L 37 29 Z " /><path fill="rgb(43,44,129)" stroke="rgb(43,44,129)" stroke-width="1" opacity="1" d="M 64.5 29 L 65 30.5 L 64 30.5 L 64.5 29 Z " /><path fill="rgb(43,44,129)" stroke="rgb(43,44,129)" stroke-width="1" opacity="1" d="M 41.5 30 L 61 30.5 L 41.5 31 L 41.5 30 Z " /><path fill="rgb(43,44,129)" stroke="rgb(43,44,129)" stroke-width="1" opacity="1" d="M 68.5 30 L 68.5 31 L 68.5 30 Z " /><path fill="rgb(43,44,129)" stroke="rgb(43,44,129)" stroke-width="1" opacity="1" d="M 65.5 33 L 65.5 34 L 65.5 33 Z " /><path fill="rgb(43,44,129)" stroke="rgb(43,44,129)" stroke-width="1" opacity="1" d="M 42.5 41 L 43 62.5 L 42 62.5 L 42.5 41 Z " /><path fill="rgb(43,44,129)" stroke="rgb(43,44,129)" stroke-width="1" opacity="1" d="M 42.5 66 L 43 67.5 L 42 67.5 L 42.5 66 Z " /><path fill="rgb(43,44,129)" stroke="rgb(43,44,129)" stroke-width="1" opacity="1" d="M 43.5 69 L 45 71.5 Q 44 73 43 70.5 L 43.5 69 Z " /><path fill="rgb(43,44,129)" stroke="rgb(43,44,129)" stroke-width="1" opacity="1" d="M 39 73 L 41 73.5 L 39.5 76 L 39 73 Z " /><path fill="rgb(43,44,129)" stroke="rgb(43,44,129)" stroke-width="1" opacity="1" d="M 35.5 78 L 35.5 79 L 35.5 78 Z " /><path fill="rgb(43,44,129)" stroke="rgb(43,44,129)" stroke-width="1" opacity="1" d="M 38.5 78 L 38.5 79 L 38.5 78 Z " /><path fill="rgb(129,190,127)" stroke="rgb(129,190,127)" stroke-width="1" opacity="1" d="M 55.5 48 L 56 53.5 L 55 53.5 L 55.5 48 Z " /><path fill="rgb(129,190,127)" stroke="rgb(129,190,127)" stroke-width="1" opacity="1" d="M 94.5 48 L 95 102.5 L 94 102.5 L 94.5 48 Z " /><path fill="rgb(129,190,127)" stroke="rgb(129,190,127)" stroke-width="1" opacity="1" d="M 55.5 55 L 56 58 L 84 58.5 L 55 59 L 55.5 55 Z " /><path fill="rgb(129,190,127)" stroke="rgb(129,190,127)" stroke-width="1" opacity="1" d="M 84.5 60 L 84.5 61 L 84.5 60 Z " /><path fill="rgb(129,190,127)" stroke="rgb(129,190,127)" stroke-width="1" opacity="1" d="M 44.5 69 L 73 69.5 L 44.5 70 L 44.5 69 Z " /><path fill="rgb(102,182,80)" stroke="rgb(102,182,80)" stroke-width="1" opacity="1" d="M 56.5 48 L 93.5 48 L 94 50 L 91.5 49 L 56.5 49 L 56.5 48 Z " /><path fill="rgb(102,182,80)" stroke="rgb(102,182,80)" stroke-width="1" opacity="1" d="M 59.5 50 L 59.5 51 L 59.5 50 Z " /><path fill="rgb(102,182,80)" stroke="rgb(102,182,80)" stroke-width="1" opacity="1" d="M 55.5 54 L 58 57.5 L 56 58 L 55.5 54 Z " /><path fill="rgb(102,182,80)" stroke="rgb(102,182,80)" stroke-width="1" opacity="1" d="M 59.5 55 L 61 55.5 L 59.5 56 L 59.5 55 Z " /><path fill="rgb(102,182,80)" stroke="rgb(102,182,80)" stroke-width="1" opacity="1" d="M 62.5 57 L 84 57.5 L 62.5 58 L 62.5 57 Z " /><path fill="rgb(102,182,80)" stroke="rgb(102,182,80)" stroke-width="1" opacity="1" d="M 84.5 59 L 86 61.5 L 85 62.5 L 85 94 L 82.5 95 L 81.5 94 L 62.5 94 Q 61.37 96 58 95 L 58.5 93 L 84 93 L 84 61.5 L 85 60.5 L 84.5 59 Z " /><path fill="rgb(102,182,80)" stroke="rgb(102,182,80)" stroke-width="1" opacity="1" d="M 58.5 99 L 58.5 100 L 58.5 99 Z " /><path fill="rgb(102,182,80)" stroke="rgb(102,182,80)" stroke-width="1" opacity="1" d="M 60.5 99 L 60.5 100 L 60.5 99 Z " /><path fill="rgb(102,182,80)" stroke="rgb(102,182,80)" stroke-width="1" opacity="1" d="M 58.5 102 L 58.5 103 L 58.5 102 Z " /><path fill="rgb(102,182,80)" stroke="rgb(102,182,80)" stroke-width="1" opacity="1" d="M 62.5 102 L 94 102.5 L 62.5 103 L 62.5 102 Z " /><path fill="rgb(92,188,65)" stroke="rgb(92,188,65)" stroke-width="1" opacity="1" d="M 57.5 49 L 59 49.5 L 57.5 50 L 57.5 49 Z " /><path fill="rgb(92,188,65)" stroke="rgb(92,188,65)" stroke-width="1" opacity="1" d="M 60.5 49 L 62 49.5 L 60.5 50 L 60.5 49 Z " /><path fill="rgb(92,188,65)" stroke="rgb(92,188,65)" stroke-width="1" opacity="1" d="M 92.5 50 L 92.5 51 L 92.5 50 Z " /><path fill="rgb(92,188,65)" stroke="rgb(92,188,65)" stroke-width="1" opacity="1" d="M 82.5 51 L 83 52.5 L 81.5 54 L 59.5 54 L 57 55 L 57.5 52 L 59.5 53 Q 60.5 51 61.5 53 L 81.5 53 L 82.5 51 Z " /><path fill="rgb(92,188,65)" stroke="rgb(92,188,65)" stroke-width="1" opacity="1" d="M 87.5 51 L 90 51.5 L 87.5 52 L 87.5 51 Z " /><path fill="rgb(92,188,65)" stroke="rgb(92,188,65)" stroke-width="1" opacity="1" d="M 91.5 54 L 91.5 55 L 91.5 54 Z " /><path fill="rgb(92,188,65)" stroke="rgb(92,188,65)" stroke-width="1" opacity="1" d="M 85 56 L 88 57.5 L 87.5 61 L 85 56 Z " /><path fill="rgb(92,188,65)" stroke="rgb(92,188,65)" stroke-width="1" opacity="1" d="M 86.5 62 L 87 91.5 L 86 91.5 L 86.5 62 Z " /><path fill="rgb(92,188,65)" stroke="rgb(92,188,65)" stroke-width="1" opacity="1" d="M 62.5 94 L 82 94.5 L 62.5 95 L 62.5 94 Z " /><path fill="rgb(92,188,65)" stroke="rgb(92,188,65)" stroke-width="1" opacity="1" d="M 59 95 Q 61.67 93.88 61 96.5 Q 60 99 59 97.5 L 59 95 Z " /><path fill="rgb(92,188,65)" stroke="rgb(92,188,65)" stroke-width="1" opacity="1" d="M 86.5 96 L 86.5 97 L 86.5 96 Z " /><path fill="rgb(92,188,65)" stroke="rgb(92,188,65)" stroke-width="1" opacity="1" d="M 62.5 97 L 82 97.5 L 62.5 98 L 62.5 97 Z " /><path fill="rgb(92,188,65)" stroke="rgb(92,188,65)" stroke-width="1" opacity="1" d="M 59.5 101 L 61 101.5 L 59.5 102 L 59.5 101 Z " /><path fill="rgb(251,254,252)" stroke="rgb(251,254,252)" stroke-width="1" opacity="1" d="M 33.5 21 L 36 22.5 L 34.5 22 Q 32.13 21.88 33.5 21 Z " /><path fill="rgb(251,254,252)" stroke="rgb(251,254,252)" stroke-width="1" opacity="1" d="M 32.5 26 L 33 71.5 L 32 71.5 L 32.5 26 Z " /><path fill="rgb(251,254,252)" stroke="rgb(251,254,252)" stroke-width="1" opacity="1" d="M 44.5 39 L 44.5 40 L 44.5 39 Z " /><path fill="rgb(251,254,252)" stroke="rgb(251,254,252)" stroke-width="1" opacity="1" d="M 51.5 46 Q 53.75 47 53 50 L 51 50 L 51.5 46 Z " /><path fill="rgb(251,254,252)" stroke="rgb(251,254,252)" stroke-width="1" opacity="1" d="M 55.5 46 L 58 46.5 L 55.5 47 L 55.5 46 Z " /><path fill="rgb(251,254,252)" stroke="rgb(251,254,252)" stroke-width="1" opacity="1" d="M 61.5 46 L 61.5 47 L 61.5 46 Z " /><path fill="rgb(251,254,252)" stroke="rgb(251,254,252)" stroke-width="1" opacity="1" d="M 92.5 46 Q 95.5 45.5 96 47.5 L 95.5 51 L 95 47 Q 91.67 47.75 92.5 46 Z " /><path fill="rgb(251,254,252)" stroke="rgb(251,254,252)" stroke-width="1" opacity="1" d="M 54.5 48 L 55 50.5 L 54 50.5 L 54.5 48 Z " /><path fill="rgb(251,254,252)" stroke="rgb(251,254,252)" stroke-width="1" opacity="1" d="M 52.5 54 L 54 54.5 L 52.5 55 L 52.5 54 Z " /><path fill="rgb(251,254,252)" stroke="rgb(251,254,252)" stroke-width="1" opacity="1" d="M 53.5 56 L 55 59 Q 58 58 57 61 Q 54 62 55 59 L 52 59 L 52 57.5 L 53.5 56 Z " /><path fill="rgb(251,254,252)" stroke="rgb(251,254,252)" stroke-width="1" opacity="1" d="M 58.5 59 L 60 59.5 L 58.5 60 L 58.5 59 Z " /><path fill="rgb(251,254,252)" stroke="rgb(251,254,252)" stroke-width="1" opacity="1" d="M 82.5 59 L 82.5 60 L 82.5 59 Z " /><path fill="rgb(251,254,252)" stroke="rgb(251,254,252)" stroke-width="1" opacity="1" d="M 52 60 Q 55 59 54 62 Q 51 63 52 60 Z " /><path fill="rgb(251,254,252)" stroke="rgb(251,254,252)" stroke-width="1" opacity="1" d="M 74.5 67 L 76 67.5 L 74.5 68 L 74.5 67 Z " /><path fill="rgb(251,254,252)" stroke="rgb(251,254,252)" stroke-width="1" opacity="1" d="M 73.5 79 L 74 80.5 L 71.5 82 L 71.5 81 L 73 81 L 73.5 79 Z " /><path fill="rgb(251,254,252)" stroke="rgb(251,254,252)" stroke-width="1" opacity="1" d="M 34.5 81 L 36 81.5 L 34.5 82 L 34.5 81 Z " /><path fill="rgb(251,254,252)" stroke="rgb(251,254,252)" stroke-width="1" opacity="1" d="M 56.5 102 L 57 103.5 L 56 103.5 L 56.5 102 Z " /><path fill="rgb(251,254,252)" stroke="rgb(251,254,252)" stroke-width="1" opacity="1" d="M 95.5 102 L 96 105 L 92 104.5 L 95 104 L 95.5 102 Z " /><path fill="rgb(251,254,252)" stroke="rgb(251,254,252)" stroke-width="1" opacity="1" d="M 58.5 104 L 62 104.5 L 58.5 105 L 58.5 104 Z " /><path fill="rgb(251,254,252)" stroke="rgb(251,254,252)" stroke-width="1" opacity="1" d="M 57.5 106 L 59.5 107 L 61 106.5 Q 61.75 108.75 59.5 108 Q 58.37 110 55 109 Q 53.88 106.33 56.5 107 L 57.5 106 Z " /><path fill="rgb(251,254,252)" stroke="rgb(251,254,252)" stroke-width="1" opacity="1" d="M 60.5 111 L 61 112.5 L 60 112.5 L 60.5 111 Z " /><path fill="rgb(39,44,132)" stroke="rgb(39,44,132)" stroke-width="1" opacity="1" d="M 38 26 L 41 26.5 L 38.5 28 L 38 26 Z " /><path fill="rgb(39,44,132)" stroke="rgb(39,44,132)" stroke-width="1" opacity="1" d="M 64 26 L 67 27.5 L 64 29 L 64 26 Z " /><path fill="rgb(39,44,132)" stroke="rgb(39,44,132)" stroke-width="1" opacity="1" d="M 33.5 27 L 36 27 L 36 31 Q 33 32.25 34 28.5 L 33.5 27 Z " /><path fill="rgb(39,44,132)" stroke="rgb(39,44,132)" stroke-width="1" opacity="1" d="M 61.5 27 Q 64.5 26.12 63 30.5 Q 61 31.5 63 32.5 L 62.5 34 L 50 34 L 50 31 L 60.5 31 L 61 29.5 L 62 28.5 L 61.5 27 Z M 52 32 L 52 33 L 62 33 L 52 32 Z " /><path fill="rgb(39,44,132)" stroke="rgb(39,44,132)" stroke-width="1" opacity="1" d="M 68.5 27 L 69 29.5 L 68 29.5 L 68.5 27 Z " /><path fill="rgb(39,44,132)" stroke="rgb(39,44,132)" stroke-width="1" opacity="1" d="M 37.5 31 L 38 70.5 Q 36.25 71.42 37 74 L 34 72.5 L 37 71 L 37.5 31 Z " /><path fill="rgb(39,44,132)" stroke="rgb(39,44,132)" stroke-width="1" opacity="1" d="M 42.5 31 L 45 32.5 Q 44 34.75 41 34 L 42.5 31 Z " /><path fill="rgb(39,44,132)" stroke="rgb(39,44,132)" stroke-width="1" opacity="1" d="M 64.5 31 Q 67.5 32.5 64.5 34 L 64.5 31 Z " /><path fill="rgb(39,44,132)" stroke="rgb(39,44,132)" stroke-width="1" opacity="1" d="M 68.5 31 L 69 32.5 L 68 32.5 L 68.5 31 Z " /><path fill="rgb(39,44,132)" stroke="rgb(39,44,132)" stroke-width="1" opacity="1" d="M 46.5 32 L 49 32.5 L 46.5 33 L 46.5 32 Z " /><path fill="rgb(39,44,132)" stroke="rgb(39,44,132)" stroke-width="1" opacity="1" d="M 41.5 37 L 42 40.5 L 41 40.5 L 41.5 37 Z " /><path fill="rgb(39,44,132)" stroke="rgb(39,44,132)" stroke-width="1" opacity="1" d="M 41.5 64 L 41.5 65 L 41.5 64 Z " /><path fill="rgb(39,44,132)" stroke="rgb(39,44,132)" stroke-width="1" opacity="1" d="M 41.5 69 L 43 69 L 43 72 L 47.5 72 Q 48.5 70 49.5 72 L 71 72.5 L 41.5 73 L 42 71.5 L 41.5 69 Z " /><path fill="rgb(39,44,132)" stroke="rgb(39,44,132)" stroke-width="1" opacity="1" d="M 40.5 74 L 40.5 75 L 40.5 74 Z " /><path fill="rgb(39,44,132)" stroke="rgb(39,44,132)" stroke-width="1" opacity="1" d="M 41.5 76 L 71 76.5 L 41.5 77 L 41.5 76 Z " /><path fill="rgb(39,44,132)" stroke="rgb(39,44,132)" stroke-width="1" opacity="1" d="M 35.5 77 L 40 77.5 L 36.5 79 Q 34 78 35.5 77 Z " /><path fill="rgb(39,44,128)" stroke="rgb(39,44,128)" stroke-width="1" opacity="1" d="M 41 26 L 60.5 26 L 61 27.5 L 61.5 29 L 60.5 28 L 41 28 L 41 26 Z " /><path fill="rgb(39,44,128)" stroke="rgb(39,44,128)" stroke-width="1" opacity="1" d="M 37.5 27 L 37.5 28 L 37.5 27 Z " /><path fill="rgb(39,44,128)" stroke="rgb(39,44,128)" stroke-width="1" opacity="1" d="M 39.5 27 L 39.5 28 L 39.5 27 Z " /><path fill="rgb(39,44,128)" stroke="rgb(39,44,128)" stroke-width="1" opacity="1" d="M 65.5 29 L 65.5 30 L 65.5 29 Z " /><path fill="rgb(39,44,128)" stroke="rgb(39,44,128)" stroke-width="1" opacity="1" d="M 40.5 30 L 41 34 L 43 34.5 L 41 35 L 41 64.5 L 42 66.5 L 41 69.5 L 41.5 71 L 40 70.5 L 40.5 30 Z " /><path fill="rgb(39,44,128)" stroke="rgb(39,44,128)" stroke-width="1" opacity="1" d="M 38.5 31 L 39 70.5 Q 38 73 37 71.5 L 38 70.5 L 38.5 31 Z " /><path fill="rgb(39,44,128)" stroke="rgb(39,44,128)" stroke-width="1" opacity="1" d="M 43.5 31 L 43.5 32 L 43.5 31 Z " /><path fill="rgb(39,44,128)" stroke="rgb(39,44,128)" stroke-width="1" opacity="1" d="M 46.5 31 Q 48 32 45.5 33 Q 44 32 46.5 31 Z " /><path fill="rgb(39,44,128)" stroke="rgb(39,44,128)" stroke-width="1" opacity="1" d="M 62.5 31 Q 64 32 61.5 33 Q 60 32 62.5 31 Z " /><path fill="rgb(39,44,128)" stroke="rgb(39,44,128)" stroke-width="1" opacity="1" d="M 65.5 31 L 65.5 32 L 65.5 31 Z " /><path fill="rgb(39,44,128)" stroke="rgb(39,44,128)" stroke-width="1" opacity="1" d="M 49.5 32 L 49.5 33 L 49.5 32 Z " /><path fill="rgb(39,44,128)" stroke="rgb(39,44,128)" stroke-width="1" opacity="1" d="M 34.5 71 L 34.5 72 L 34.5 71 Z " /><path fill="rgb(39,44,128)" stroke="rgb(39,44,128)" stroke-width="1" opacity="1" d="M 43.5 71 L 43.5 72 L 43.5 71 Z " /><path fill="rgb(39,44,128)" stroke="rgb(39,44,128)" stroke-width="1" opacity="1" d="M 47.5 71 L 47.5 72 L 47.5 71 Z " /><path fill="rgb(39,44,128)" stroke="rgb(39,44,128)" stroke-width="1" opacity="1" d="M 49.5 71 L 71 71.5 L 49.5 72 L 49.5 71 Z " /><path fill="rgb(39,44,128)" stroke="rgb(39,44,128)" stroke-width="1" opacity="1" d="M 40.5 75 L 71 75.5 L 41 76.5 L 71 77.5 L 41.5 78 L 39 76.5 L 40.5 75 Z " /><path fill="rgb(39,44,128)" stroke="rgb(39,44,128)" stroke-width="1" opacity="1" d="M 36.5 76 L 36.5 77 L 36.5 76 Z " /><path fill="rgb(43,46,113)" stroke="rgb(43,46,113)" stroke-width="1" opacity="1" d="M 33 25 L 36 25.5 L 33.5 27 L 33 25 Z " /><path fill="rgb(43,46,113)" stroke="rgb(43,46,113)" stroke-width="1" opacity="1" d="M 61.5 25 L 64 25.5 L 61.5 26 L 61.5 25 Z " /><path fill="rgb(43,46,113)" stroke="rgb(43,46,113)" stroke-width="1" opacity="1" d="M 67.5 25 Q 71.25 23.75 70 27.5 L 69 27.5 Q 69.75 25.25 67.5 26 L 67.5 25 Z " /><path fill="rgb(43,46,113)" stroke="rgb(43,46,113)" stroke-width="1" opacity="1" d="M 63.5 29 L 64 31.5 L 63 31.5 L 63.5 29 Z " /><path fill="rgb(43,46,113)" stroke="rgb(43,46,113)" stroke-width="1" opacity="1" d="M 67.5 30 L 68 32.5 L 67 32.5 L 67.5 30 Z " /><path fill="rgb(43,46,113)" stroke="rgb(43,46,113)" stroke-width="1" opacity="1" d="M 41.5 31 L 41.5 32 L 41.5 31 Z " /><path fill="rgb(43,46,113)" stroke="rgb(43,46,113)" stroke-width="1" opacity="1" d="M 45.5 33 L 46.5 34 L 68.5 34 L 70 33.5 L 69.5 35 L 44.5 35 Q 43 34 45.5 33 Z " /><path fill="rgb(43,46,113)" stroke="rgb(43,46,113)" stroke-width="1" opacity="1" d="M 42.5 36 L 42.5 37 L 42.5 36 Z " /><path fill="rgb(43,46,113)" stroke="rgb(43,46,113)" stroke-width="1" opacity="1" d="M 41.5 68 L 43 68.5 L 41.5 69 L 41.5 68 Z " /><path fill="rgb(43,46,113)" stroke="rgb(43,46,113)" stroke-width="1" opacity="1" d="M 45.5 70 L 47 70.5 L 45.5 71 L 45.5 70 Z " /><path fill="rgb(43,46,113)" stroke="rgb(43,46,113)" stroke-width="1" opacity="1" d="M 71.5 70 L 72 75.5 L 71 75.5 L 71.5 70 Z " /><path fill="rgb(43,46,113)" stroke="rgb(43,46,113)" stroke-width="1" opacity="1" d="M 33.5 76 L 33.5 77 L 33.5 76 Z " /><path fill="rgb(43,46,113)" stroke="rgb(43,46,113)" stroke-width="1" opacity="1" d="M 71.5 77 L 72 80 L 33 79.5 L 71 79 L 71.5 77 Z " /><path fill="rgb(95,186,70)" stroke="rgb(95,186,70)" stroke-width="1" opacity="1" d="M 56.5 50 L 56.5 51 L 56.5 50 Z " /><path fill="rgb(95,186,70)" stroke="rgb(95,186,70)" stroke-width="1" opacity="1" d="M 58.5 50 L 58.5 51 L 58.5 50 Z " /><path fill="rgb(95,186,70)" stroke="rgb(95,186,70)" stroke-width="1" opacity="1" d="M 62.5 50 L 91.5 50 Q 92.38 49.88 92 53.5 L 91 54.5 L 91 59 Q 88 58 89 61 L 91.5 60 L 92 93.5 Q 90.25 94.25 91 97.5 L 92 100.5 Q 91.5 102.5 88.5 102 Q 87.5 100 83.5 101 Q 82.5 103 81.5 101 L 61 100.5 L 88 100 L 91 91.5 L 91 62 L 89 62.5 L 89 91.5 L 88 91.5 L 88 62.5 L 87 61.5 L 89 58.5 Q 86.5 57.5 87 55 L 91 54 L 91 51 L 87 51 L 88 53.5 L 85 52.5 L 86 54.5 L 84.5 55 Q 82.25 54 83 51 L 62.5 51 L 62.5 50 Z " /><path fill="rgb(95,186,70)" stroke="rgb(95,186,70)" stroke-width="1" opacity="1" d="M 59.5 54 L 59.5 55 L 59.5 54 Z " /><path fill="rgb(95,186,70)" stroke="rgb(95,186,70)" stroke-width="1" opacity="1" d="M 61.5 54 L 82 54.5 L 61.5 55 L 61.5 54 Z " /><path fill="rgb(95,186,70)" stroke="rgb(95,186,70)" stroke-width="1" opacity="1" d="M 58.5 56 Q 60.75 55.25 60 57.5 L 59.5 58 Q 57 57 58.5 56 Z " /><path fill="rgb(95,186,70)" stroke="rgb(95,186,70)" stroke-width="1" opacity="1" d="M 62.5 56 L 83 56.5 L 62.5 57 L 62.5 56 Z " /><path fill="rgb(95,186,70)" stroke="rgb(95,186,70)" stroke-width="1" opacity="1" d="M 84.5 57 Q 87 58 85.5 59 Q 83 58 84.5 57 Z " /><path fill="rgb(95,186,70)" stroke="rgb(95,186,70)" stroke-width="1" opacity="1" d="M 86.5 92 L 87 94.5 Q 86 97 85 95.5 L 86.5 92 Z " /><path fill="rgb(95,186,70)" stroke="rgb(95,186,70)" stroke-width="1" opacity="1" d="M 61.5 96 L 62 97.5 L 61 97.5 L 61.5 96 Z " /><path fill="rgb(95,186,70)" stroke="rgb(95,186,70)" stroke-width="1" opacity="1" d="M 82.5 96 L 82.5 97 L 82.5 96 Z " /><path fill="rgb(95,186,70)" stroke="rgb(95,186,70)" stroke-width="1" opacity="1" d="M 58.5 97 L 58.5 98 L 58.5 97 Z " /><path fill="rgb(95,186,70)" stroke="rgb(95,186,70)" stroke-width="1" opacity="1" d="M 58.5 101 L 58.5 102 L 58.5 101 Z " /><path fill="rgb(253,255,254)" stroke="rgb(253,255,254)" stroke-width="1" opacity="1" d="M 33.5 20 L 33.5 21 L 33.5 20 Z " /><path fill="rgb(253,255,254)" stroke="rgb(253,255,254)" stroke-width="1" opacity="1" d="M 33.5 22 L 36 23.5 L 34.5 24 Q 32 23 33.5 22 Z " /><path fill="rgb(253,255,254)" stroke="rgb(253,255,254)" stroke-width="1" opacity="1" d="M 61.5 23 L 63 23.5 L 61.5 24 L 61.5 23 Z " /><path fill="rgb(253,255,254)" stroke="rgb(253,255,254)" stroke-width="1" opacity="1" d="M 66.5 23 L 69 23.5 L 66.5 24 L 66.5 23 Z " /><path fill="rgb(253,255,254)" stroke="rgb(253,255,254)" stroke-width="1" opacity="1" d="M 71.5 25 L 72 28.5 L 71 28.5 L 71.5 25 Z " /><path fill="rgb(253,255,254)" stroke="rgb(253,255,254)" stroke-width="1" opacity="1" d="M 71.5 33 L 71.5 34 L 71.5 33 Z " /><path fill="rgb(253,255,254)" stroke="rgb(253,255,254)" stroke-width="1" opacity="1" d="M 45.5 36 L 45.5 37 L 45.5 36 Z " /><path fill="rgb(253,255,254)" stroke="rgb(253,255,254)" stroke-width="1" opacity="1" d="M 50.5 36 L 61 36.5 L 50.5 37 L 50.5 36 Z " /><path fill="rgb(253,255,254)" stroke="rgb(253,255,254)" stroke-width="1" opacity="1" d="M 67.5 36 L 69 36.5 L 67.5 37 L 67.5 36 Z " /><path fill="rgb(253,255,254)" stroke="rgb(253,255,254)" stroke-width="1" opacity="1" d="M 44.5 40 L 46 41.5 L 46 60.5 L 45 60.5 L 45 41.5 L 44.5 40 Z " /><path fill="rgb(253,255,254)" stroke="rgb(253,255,254)" stroke-width="1" opacity="1" d="M 51.5 40 L 62.5 40 L 63.5 41 L 92 41.5 L 62.5 42 L 61.5 41 L 51.5 41 L 51.5 40 Z " /><path fill="rgb(253,255,254)" stroke="rgb(253,255,254)" stroke-width="1" opacity="1" d="M 94.5 41 L 97 42.5 L 95.5 43 Q 93 42 94.5 41 Z " /><path fill="rgb(253,255,254)" stroke="rgb(253,255,254)" stroke-width="1" opacity="1" d="M 101.5 41 L 102 42.5 L 101 42.5 L 101.5 41 Z " /><path fill="rgb(253,255,254)" stroke="rgb(253,255,254)" stroke-width="1" opacity="1" d="M 52.5 42 L 59 42.5 L 57 43 L 57 45 L 51 45 L 52.5 42 Z " /><path fill="rgb(253,255,254)" stroke="rgb(253,255,254)" stroke-width="1" opacity="1" d="M 99.5 45 L 102 50.5 L 100 51 L 99.5 102 L 99 51.5 L 100 48.5 Q 98.08 47.58 99.5 45 Z " /><path fill="rgb(253,255,254)" stroke="rgb(253,255,254)" stroke-width="1" opacity="1" d="M 58.5 46 L 61 46.5 L 58.5 47 L 58.5 46 Z " /><path fill="rgb(253,255,254)" stroke="rgb(253,255,254)" stroke-width="1" opacity="1" d="M 51.5 53 L 51.5 54 L 51.5 53 Z " /><path fill="rgb(253,255,254)" stroke="rgb(253,255,254)" stroke-width="1" opacity="1" d="M 57.5 59 L 57.5 60 L 57.5 59 Z " /><path fill="rgb(253,255,254)" stroke="rgb(253,255,254)" stroke-width="1" opacity="1" d="M 60.5 59 L 62 59.5 L 60.5 60 L 60.5 59 Z " /><path fill="rgb(253,255,254)" stroke="rgb(253,255,254)" stroke-width="1" opacity="1" d="M 82.5 60 L 82.5 61 L 82.5 60 Z " /><path fill="rgb(253,255,254)" stroke="rgb(253,255,254)" stroke-width="1" opacity="1" d="M 56.5 61 L 56.5 62 L 56.5 61 Z " /><path fill="rgb(253,255,254)" stroke="rgb(253,255,254)" stroke-width="1" opacity="1" d="M 45.5 64 L 45.5 65 L 45.5 64 Z " /><path fill="rgb(253,255,254)" stroke="rgb(253,255,254)" stroke-width="1" opacity="1" d="M 72.5 65 L 73.5 66 L 75 65.5 L 73 67.5 L 73.5 68 Q 76.5 67.12 75 71.5 L 74 72.5 L 73.5 79 L 73 71.5 Q 75 70.5 73 69.5 L 72.5 68 L 71 68.5 Q 70.25 66.25 72.5 67 L 72.5 65 Z " /><path fill="rgb(253,255,254)" stroke="rgb(253,255,254)" stroke-width="1" opacity="1" d="M 45.5 66 L 47 68.5 L 45 69 L 45.5 66 Z " /><path fill="rgb(253,255,254)" stroke="rgb(253,255,254)" stroke-width="1" opacity="1" d="M 49.5 68 L 51 68.5 L 49.5 69 L 49.5 68 Z " /><path fill="rgb(253,255,254)" stroke="rgb(253,255,254)" stroke-width="1" opacity="1" d="M 33.5 81 L 33.5 82 L 33.5 81 Z " /><path fill="rgb(253,255,254)" stroke="rgb(253,255,254)" stroke-width="1" opacity="1" d="M 36.5 81 L 36.5 82 L 36.5 81 Z " /><path fill="rgb(253,255,254)" stroke="rgb(253,255,254)" stroke-width="1" opacity="1" d="M 40.5 81 L 40.5 82 L 40.5 81 Z " /><path fill="rgb(253,255,254)" stroke="rgb(253,255,254)" stroke-width="1" opacity="1" d="M 54.5 92 L 55 95 L 57 95.5 Q 54.58 96.58 54.5 100 L 54.5 92 Z " /><path fill="rgb(253,255,254)" stroke="rgb(253,255,254)" stroke-width="1" opacity="1" d="M 51.5 97 L 51.5 98 L 51.5 97 Z " /><path fill="rgb(253,255,254)" stroke="rgb(253,255,254)" stroke-width="1" opacity="1" d="M 52.5 99 Q 54 100 51.5 101 Q 50 100 52.5 99 Z " /><path fill="rgb(253,255,254)" stroke="rgb(253,255,254)" stroke-width="1" opacity="1" d="M 55.5 102 L 56 103.5 L 55 103.5 L 55.5 102 Z " /><path fill="rgb(253,255,254)" stroke="rgb(253,255,254)" stroke-width="1" opacity="1" d="M 57.5 104 L 57.5 105 L 57.5 104 Z " /><path fill="rgb(253,255,254)" stroke="rgb(253,255,254)" stroke-width="1" opacity="1" d="M 62.5 104 L 92 104.5 L 62.5 105 L 62.5 104 Z " /><path fill="rgb(253,255,254)" stroke="rgb(253,255,254)" stroke-width="1" opacity="1" d="M 51.5 105 L 51.5 106 L 51.5 105 Z " /><path fill="rgb(253,255,254)" stroke="rgb(253,255,254)" stroke-width="1" opacity="1" d="M 55.5 106 L 57 106.5 L 55.5 107 L 55.5 106 Z " /><path fill="rgb(253,255,254)" stroke="rgb(253,255,254)" stroke-width="1" opacity="1" d="M 59.5 108 L 62.5 109 L 92 109.5 L 62.5 110 L 59.5 109 L 59.5 108 Z " /><path fill="rgb(253,255,254)" stroke="rgb(253,255,254)" stroke-width="1" opacity="1" d="M 97.5 108 Q 99 109 96.5 110 L 94 109.5 L 97.5 108 Z " /><path fill="rgb(253,255,254)" stroke="rgb(253,255,254)" stroke-width="1" opacity="1" d="M 58 111 Q 61 110 60 113 Q 57 114 58 111 Z " /><path fill="rgb(253,255,254)" stroke="rgb(253,255,254)" stroke-width="1" opacity="1" d="M 61.5 111 L 62 112.5 L 61 112.5 L 61.5 111 Z " /><path fill="rgb(97,185,72)" stroke="rgb(97,185,72)" stroke-width="1" opacity="1" d="M 56.5 49 L 56.5 50 L 56.5 49 Z " /><path fill="rgb(97,185,72)" stroke="rgb(97,185,72)" stroke-width="1" opacity="1" d="M 59.5 49 L 59.5 50 L 59.5 49 Z " /><path fill="rgb(97,185,72)" stroke="rgb(97,185,72)" stroke-width="1" opacity="1" d="M 93.5 50 L 94 102 Q 90.67 103.31 92 98.5 Q 90.25 97.75 91 94.5 L 92 93.5 L 92 51.5 L 93.5 50 Z " /><path fill="rgb(97,185,72)" stroke="rgb(97,185,72)" stroke-width="1" opacity="1" d="M 56.5 51 L 57 53.5 L 56 53.5 L 56.5 51 Z " /><path fill="rgb(97,185,72)" stroke="rgb(97,185,72)" stroke-width="1" opacity="1" d="M 59.5 51 L 60 52.5 L 59 52.5 L 59.5 51 Z " /><path fill="rgb(97,185,72)" stroke="rgb(97,185,72)" stroke-width="1" opacity="1" d="M 62.5 51 L 82 51.5 L 62.5 52 L 62.5 51 Z " /><path fill="rgb(97,185,72)" stroke="rgb(97,185,72)" stroke-width="1" opacity="1" d="M 85.5 52 L 89 54.5 L 86.5 55 Q 84.13 54.12 85.5 52 Z " /><path fill="rgb(97,185,72)" stroke="rgb(97,185,72)" stroke-width="1" opacity="1" d="M 57 55 L 59 55.5 L 58 56.5 L 58.5 58 L 57 55 Z " /><path fill="rgb(97,185,72)" stroke="rgb(97,185,72)" stroke-width="1" opacity="1" d="M 61.5 55 L 62 58 Q 59.33 59.13 60 56.5 L 61.5 55 Z " /><path fill="rgb(97,185,72)" stroke="rgb(97,185,72)" stroke-width="1" opacity="1" d="M 84.5 58 Q 87 59 85.5 60 Q 83 59 84.5 58 Z " /><path fill="rgb(97,185,72)" stroke="rgb(97,185,72)" stroke-width="1" opacity="1" d="M 89 59 Q 92 58 91 61 Q 88 62 89 59 Z " /><path fill="rgb(97,185,72)" stroke="rgb(97,185,72)" stroke-width="1" opacity="1" d="M 85.5 62 L 86 94.5 L 83.5 97 Q 82.5 95 81.5 97 L 62 96.5 L 81.5 96 Q 82.5 93.5 85 94 L 85.5 62 Z " /><path fill="rgb(97,185,72)" stroke="rgb(97,185,72)" stroke-width="1" opacity="1" d="M 87.5 62 L 88 91.5 L 87 91.5 L 87.5 62 Z " /><path fill="rgb(97,185,72)" stroke="rgb(97,185,72)" stroke-width="1" opacity="1" d="M 60.5 97 L 62 99.5 L 60.5 101 L 59.5 100 L 58 100.5 L 59 99.5 L 58.5 98 L 60 98.5 L 60.5 97 Z M 61 99 L 61 100 L 61 99 Z " /><path fill="rgb(97,185,72)" stroke="rgb(97,185,72)" stroke-width="1" opacity="1" d="M 83.5 101 L 88 101.5 L 83.5 102 L 83.5 101 Z " /><path fill="rgb(97,185,72)" stroke="rgb(97,185,72)" stroke-width="1" opacity="1" d="M 59.5 102 L 62 102.5 L 59.5 103 L 59.5 102 Z " /><path fill="rgb(92,188,69)" stroke="rgb(92,188,69)" stroke-width="1" opacity="1" d="M 62.5 49 L 92 49.5 L 62 50 L 62.5 52 L 81.5 52 Q 82.75 55.25 87 55.5 L 83.5 57 L 82.5 56 L 62 55.5 L 82 55 L 81.5 53 L 61.5 53 L 60 50 L 62.5 49 Z " /><path fill="rgb(92,188,69)" stroke="rgb(92,188,69)" stroke-width="1" opacity="1" d="M 57.5 50 L 59 52.5 Q 58 54 57 51.5 L 57.5 50 Z " /><path fill="rgb(92,188,69)" stroke="rgb(92,188,69)" stroke-width="1" opacity="1" d="M 90.5 51 L 91 54 Q 88 54.75 87 52.5 L 90.5 51 Z " /><path fill="rgb(92,188,69)" stroke="rgb(92,188,69)" stroke-width="1" opacity="1" d="M 56.5 54 L 56.5 55 L 56.5 54 Z " /><path fill="rgb(92,188,69)" stroke="rgb(92,188,69)" stroke-width="1" opacity="1" d="M 60.5 54 L 60.5 55 L 60.5 54 Z " /><path fill="rgb(92,188,69)" stroke="rgb(92,188,69)" stroke-width="1" opacity="1" d="M 91.5 55 L 92 59.5 L 91 59.5 L 91.5 55 Z " /><path fill="rgb(92,188,69)" stroke="rgb(92,188,69)" stroke-width="1" opacity="1" d="M 88.5 58 L 88.5 59 L 88.5 58 Z " /><path fill="rgb(92,188,69)" stroke="rgb(92,188,69)" stroke-width="1" opacity="1" d="M 86.5 60 L 87 61.5 L 86 61.5 L 86.5 60 Z " /><path fill="rgb(92,188,69)" stroke="rgb(92,188,69)" stroke-width="1" opacity="1" d="M 89 62 L 91 62.5 L 91 91.5 L 88 100 L 62.5 100 L 62 98 L 81.5 98 L 87 94.5 L 87 92 L 89 91.5 L 89 62 Z M 87 96 L 87 97 L 87 96 Z " /><path fill="rgb(92,188,69)" stroke="rgb(92,188,69)" stroke-width="1" opacity="1" d="M 58.5 95 L 59 96.5 L 58 96.5 L 58.5 95 Z " /><path fill="rgb(92,188,69)" stroke="rgb(92,188,69)" stroke-width="1" opacity="1" d="M 61.5 95 L 82 95.5 L 61.5 96 L 61.5 95 Z " /><path fill="rgb(92,188,69)" stroke="rgb(92,188,69)" stroke-width="1" opacity="1" d="M 59.5 98 L 59.5 99 L 59.5 98 Z " /><path fill="rgb(92,188,69)" stroke="rgb(92,188,69)" stroke-width="1" opacity="1" d="M 59.5 100 L 59.5 101 L 59.5 100 Z " /><path fill="rgb(92,188,69)" stroke="rgb(92,188,69)" stroke-width="1" opacity="1" d="M 61.5 101 L 82 101.5 L 61.5 102 L 61.5 101 Z " /><path fill="rgb(92,188,69)" stroke="rgb(92,188,69)" stroke-width="1" opacity="1" d="M 91.5 101 L 91.5 102 L 91.5 101 Z " /><path fill="rgb(254,253,254)" stroke="rgb(254,253,254)" stroke-width="1" opacity="1" d="M 70.5 21 Q 72 22 69.5 23 Q 68 22 70.5 21 Z " /><path fill="rgb(254,253,254)" stroke="rgb(254,253,254)" stroke-width="1" opacity="1" d="M 32.5 22 L 32.5 23 L 32.5 22 Z " /><path fill="rgb(254,253,254)" stroke="rgb(254,253,254)" stroke-width="1" opacity="1" d="M 66.5 22 L 66.5 23 L 66.5 22 Z " /><path fill="rgb(254,253,254)" stroke="rgb(254,253,254)" stroke-width="1" opacity="1" d="M 71.5 35 L 71.5 36 L 71.5 35 Z " /><path fill="rgb(254,253,254)" stroke="rgb(254,253,254)" stroke-width="1" opacity="1" d="M 52.5 41 L 52.5 42 L 52.5 41 Z " /><path fill="rgb(254,253,254)" stroke="rgb(254,253,254)" stroke-width="1" opacity="1" d="M 95.5 46 L 95.5 47 L 95.5 46 Z " /><path fill="rgb(254,253,254)" stroke="rgb(254,253,254)" stroke-width="1" opacity="1" d="M 54.5 47 L 54.5 48 L 54.5 47 Z " /><path fill="rgb(254,253,254)" stroke="rgb(254,253,254)" stroke-width="1" opacity="1" d="M 52.5 53 L 52.5 54 L 52.5 53 Z " /><path fill="rgb(254,253,254)" stroke="rgb(254,253,254)" stroke-width="1" opacity="1" d="M 52.5 55 L 52.5 56 L 52.5 55 Z " /><path fill="rgb(254,253,254)" stroke="rgb(254,253,254)" stroke-width="1" opacity="1" d="M 52.5 59 Q 54 60 51.5 61 Q 50 60 52.5 59 Z " /><path fill="rgb(254,253,254)" stroke="rgb(254,253,254)" stroke-width="1" opacity="1" d="M 74.5 73 L 74.5 74 L 74.5 73 Z " /><path fill="rgb(254,253,254)" stroke="rgb(254,253,254)" stroke-width="1" opacity="1" d="M 76.5 77 L 77 78.5 L 76 78.5 L 76.5 77 Z " /><path fill="rgb(254,253,254)" stroke="rgb(254,253,254)" stroke-width="1" opacity="1" d="M 31.5 78 L 32 79.5 L 31 79.5 L 31.5 78 Z " /><path fill="rgb(254,253,254)" stroke="rgb(254,253,254)" stroke-width="1" opacity="1" d="M 74.5 79 L 74.5 80 L 74.5 79 Z " /><path fill="rgb(254,253,254)" stroke="rgb(254,253,254)" stroke-width="1" opacity="1" d="M 56.5 94 L 56.5 95 L 56.5 94 Z " /><path fill="rgb(254,253,254)" stroke="rgb(254,253,254)" stroke-width="1" opacity="1" d="M 92.5 105 L 92.5 106 L 92.5 105 Z " /><path fill="rgb(254,253,254)" stroke="rgb(254,253,254)" stroke-width="1" opacity="1" d="M 93.5 107 L 93.5 108 L 93.5 107 Z " /><path fill="rgb(254,253,254)" stroke="rgb(254,253,254)" stroke-width="1" opacity="1" d="M 61.5 109 Q 63 110 60.5 111 Q 59 110 61.5 109 Z " /></svg>