<svg width="16" height="16" version="1.1" xmlns="http://www.w3.org/2000/svg" desc="Created with imagetracer.js version 1.2.6" ><path fill="rgb(31,26,23)" stroke="rgb(31,26,23)" stroke-width="1" opacity="0" d="M 0 0 L 4 0.5 L 0.5 4 L 0 3.5 L 0 0 Z " /><path fill="rgb(31,26,23)" stroke="rgb(31,26,23)" stroke-width="1" opacity="0" d="M 11.5 0 L 16 0 L 16 3.5 L 15.5 4 L 12.5 1 Q 10.13 0.87 11.5 0 Z " /><path fill="rgb(31,26,23)" stroke="rgb(31,26,23)" stroke-width="1" opacity="0" d="M 6.5 2 L 6.5 3 L 6.5 2 Z " /><path fill="rgb(31,26,23)" stroke="rgb(31,26,23)" stroke-width="1" opacity="0" d="M 9.5 2 L 13 3 L 12.5 5 L 9 2.5 L 9.5 2 Z " /><path fill="rgb(31,26,23)" stroke="rgb(31,26,23)" stroke-width="1" opacity="0" d="M 3.5 3 Q 5 4 2.5 5 Q 1 4 3.5 3 Z " /><path fill="rgb(31,26,23)" stroke="rgb(31,26,23)" stroke-width="1" opacity="0" d="M 8.5 4 L 9 6 L 7 5.5 L 8.5 4 Z " /><path fill="rgb(31,26,23)" stroke="rgb(31,26,23)" stroke-width="1" opacity="0" d="M 1.5 8 L 3 8.5 L 1.5 9 L 1.5 8 Z " /><path fill="rgb(31,26,23)" stroke="rgb(31,26,23)" stroke-width="1" opacity="0" d="M 14.5 8 L 14.5 9 L 14.5 8 Z " /><path fill="rgb(31,26,23)" stroke="rgb(31,26,23)" stroke-width="1" opacity="0" d="M 0.5 12 L 4 15.5 L 3.5 16 L 0 16 L 0.5 12 Z " /><path fill="rgb(31,26,23)" stroke="rgb(31,26,23)" stroke-width="1" opacity="0" d="M 15.5 12 L 16 16 L 12 15.5 L 15.5 12 Z " /><path fill="rgb(31,26,23)" stroke="rgb(31,26,23)" stroke-width="1" opacity="0" d="M 4.5 13 L 12 13.5 L 7.5 15 L 4.5 14 L 4.5 13 Z " /><path fill="rgb(14,12,10)" stroke="rgb(14,12,10)" stroke-width="1" opacity="0.6941176470588235" d="M 3.5 2 L 3.5 3 L 3.5 2 Z " /><path fill="rgb(14,12,10)" stroke="rgb(14,12,10)" stroke-width="1" opacity="0.6941176470588235" d="M 13.5 7 L 13.5 8 L 13.5 7 Z " /><path fill="rgb(14,12,10)" stroke="rgb(14,12,10)" stroke-width="1" opacity="0.6941176470588235" d="M 8.5 9 L 8.5 10 L 8.5 9 Z " /><path fill="rgb(14,12,10)" stroke="rgb(14,12,10)" stroke-width="1" opacity="0.6941176470588235" d="M 2.5 13 L 2.5 14 L 2.5 13 Z " /><path fill="rgb(14,12,10)" stroke="rgb(14,12,10)" stroke-width="1" opacity="0.6941176470588235" d="M 9.5 15 L 9.5 16 L 9.5 15 Z " /><path fill="rgb(10,9,8)" stroke="rgb(10,9,8)" stroke-width="1" opacity="0.047058823529411764" d="M 4.5 0 L 4.5 1 L 4.5 0 Z " /><path fill="rgb(10,9,8)" stroke="rgb(10,9,8)" stroke-width="1" opacity="0.047058823529411764" d="M 4.5 2 L 6 2.5 L 4.5 3 L 4.5 2 Z " /><path fill="rgb(10,9,8)" stroke="rgb(10,9,8)" stroke-width="1" opacity="0.047058823529411764" d="M 15.5 4 L 15.5 5 L 15.5 4 Z " /><path fill="rgb(10,9,8)" stroke="rgb(10,9,8)" stroke-width="1" opacity="0.047058823529411764" d="M 13.5 5 L 13.5 6 L 13.5 5 Z " /><path fill="rgb(10,9,8)" stroke="rgb(10,9,8)" stroke-width="1" opacity="0.047058823529411764" d="M 5.5 10 L 11 10.5 L 5.5 11 L 5.5 10 Z " /><path fill="rgb(12,10,9)" stroke="rgb(12,10,9)" stroke-width="1" opacity="0.25098039215686274" d="M 9.5 6 L 9.5 7 L 9.5 6 Z " /><path fill="rgb(12,10,9)" stroke="rgb(12,10,9)" stroke-width="1" opacity="0.25098039215686274" d="M 2.5 10 L 3 11.5 L 2 11.5 L 2.5 10 Z " /><path fill="rgb(13,11,10)" stroke="rgb(13,11,10)" stroke-width="1" opacity="0.5019607843137255" d="M 2.5 2 L 2.5 3 L 2.5 2 Z " /><path fill="rgb(13,11,10)" stroke="rgb(13,11,10)" stroke-width="1" opacity="0.5019607843137255" d="M 13.5 2 L 13.5 3 L 13.5 2 Z " /><path fill="rgb(13,11,10)" stroke="rgb(13,11,10)" stroke-width="1" opacity="0.5019607843137255" d="M 7.5 6 L 7.5 7 L 7.5 6 Z " /><path fill="rgb(13,11,10)" stroke="rgb(13,11,10)" stroke-width="1" opacity="0.5019607843137255" d="M 10.5 15 L 10.5 16 L 10.5 15 Z " /><path fill="rgb(12,10,9)" stroke="rgb(12,10,9)" stroke-width="1" opacity="0.21568627450980393" d="M 10.5 3 L 10.5 4 L 10.5 3 Z " /><path fill="rgb(12,10,9)" stroke="rgb(12,10,9)" stroke-width="1" opacity="0.21568627450980393" d="M 4.5 15 L 4.5 16 L 4.5 15 Z " /><path fill="rgb(12,10,9)" stroke="rgb(12,10,9)" stroke-width="1" opacity="0.3333333333333333" d="M 9.5 1 L 9.5 2 L 9.5 1 Z " /><path fill="rgb(12,10,9)" stroke="rgb(12,10,9)" stroke-width="1" opacity="0.3333333333333333" d="M 12.5 1 L 12.5 2 L 12.5 1 Z " /><path fill="rgb(12,10,9)" stroke="rgb(12,10,9)" stroke-width="1" opacity="0.3333333333333333" d="M 4.5 3 L 4.5 4 L 4.5 3 Z " /><path fill="rgb(12,10,9)" stroke="rgb(12,10,9)" stroke-width="1" opacity="0.3333333333333333" d="M 14.5 3 L 14.5 4 L 14.5 3 Z " /><path fill="rgb(12,10,9)" stroke="rgb(12,10,9)" stroke-width="1" opacity="0.3333333333333333" d="M 2.5 5 L 2.5 6 L 2.5 5 Z " /><path fill="rgb(12,10,9)" stroke="rgb(12,10,9)" stroke-width="1" opacity="0.3333333333333333" d="M 13.5 9 L 14 10.5 L 13 10.5 L 13.5 9 Z " /><path fill="rgb(11,9,8)" stroke="rgb(11,9,8)" stroke-width="1" opacity="0.07058823529411765" d="M 0.5 4 L 0.5 5 L 0.5 4 Z " /><path fill="rgb(11,9,8)" stroke="rgb(11,9,8)" stroke-width="1" opacity="0.07058823529411765" d="M 13.5 4 L 13.5 5 L 13.5 4 Z " /><path fill="rgb(11,9,8)" stroke="rgb(11,9,8)" stroke-width="1" opacity="0.07058823529411765" d="M 6.5 5 L 6.5 6 L 6.5 5 Z " /><path fill="rgb(11,9,8)" stroke="rgb(11,9,8)" stroke-width="1" opacity="0.07058823529411765" d="M 14.5 9 L 14.5 10 L 14.5 9 Z " /><path fill="rgb(11,9,8)" stroke="rgb(11,9,8)" stroke-width="1" opacity="0.07058823529411765" d="M 9.5 14 L 9.5 15 L 9.5 14 Z " /><path fill="rgb(14,12,11)" stroke="rgb(14,12,11)" stroke-width="1" opacity="0.7372549019607844" d="M 5.5 3 L 5.5 4 L 5.5 3 Z " /><path fill="rgb(14,12,11)" stroke="rgb(14,12,11)" stroke-width="1" opacity="0.7372549019607844" d="M 1.5 4 L 1.5 5 L 1.5 4 Z " /><path fill="rgb(14,12,11)" stroke="rgb(14,12,11)" stroke-width="1" opacity="0.7372549019607844" d="M 5.5 5 L 5.5 6 L 5.5 5 Z " /><path fill="rgb(14,12,11)" stroke="rgb(14,12,11)" stroke-width="1" opacity="0.7372549019607844" d="M 13.5 8 L 13.5 9 L 13.5 8 Z " /><path fill="rgb(14,12,11)" stroke="rgb(14,12,11)" stroke-width="1" opacity="0.7372549019607844" d="M 1.5 11 L 1.5 12 L 1.5 11 Z " /><path fill="rgb(14,12,11)" stroke="rgb(14,12,11)" stroke-width="1" opacity="0.7372549019607844" d="M 8.5 15 L 8.5 16 L 8.5 15 Z " /><path fill="rgb(12,10,9)" stroke="rgb(12,10,9)" stroke-width="1" opacity="0.3607843137254902" d="M 5.5 0 L 5.5 1 L 5.5 0 Z " /><path fill="rgb(12,10,9)" stroke="rgb(12,10,9)" stroke-width="1" opacity="0.3607843137254902" d="M 10.5 0 L 10.5 1 L 10.5 0 Z " /><path fill="rgb(12,10,9)" stroke="rgb(12,10,9)" stroke-width="1" opacity="0.3607843137254902" d="M 3.5 1 L 3.5 2 L 3.5 1 Z " /><path fill="rgb(12,10,9)" stroke="rgb(12,10,9)" stroke-width="1" opacity="0.3607843137254902" d="M 1.5 3 L 1.5 4 L 1.5 3 Z " /><path fill="rgb(12,10,9)" stroke="rgb(12,10,9)" stroke-width="1" opacity="0.3607843137254902" d="M 3.5 4 Q 6 5 4.5 6 Q 2 5 3.5 4 Z " /><path fill="rgb(12,10,9)" stroke="rgb(12,10,9)" stroke-width="1" opacity="0.3607843137254902" d="M 1.5 10 L 1.5 11 L 1.5 10 Z " /><path fill="rgb(12,10,9)" stroke="rgb(12,10,9)" stroke-width="1" opacity="0.3607843137254902" d="M 13.5 11 L 13.5 12 L 13.5 11 Z " /><path fill="rgb(12,10,9)" stroke="rgb(12,10,9)" stroke-width="1" opacity="0.12549019607843137" d="M 8.5 1 L 8.5 2 L 8.5 1 Z " /><path fill="rgb(12,10,9)" stroke="rgb(12,10,9)" stroke-width="1" opacity="0.12549019607843137" d="M 5.5 4 L 5.5 5 L 5.5 4 Z " /><path fill="rgb(12,10,9)" stroke="rgb(12,10,9)" stroke-width="1" opacity="0.12549019607843137" d="M 7.5 4 L 7.5 5 L 7.5 4 Z " /><path fill="rgb(12,10,9)" stroke="rgb(12,10,9)" stroke-width="1" opacity="0.12549019607843137" d="M 9.5 4 L 9.5 5 L 9.5 4 Z " /><path fill="rgb(12,10,9)" stroke="rgb(12,10,9)" stroke-width="1" opacity="0.12549019607843137" d="M 15.5 11 L 15.5 12 L 15.5 11 Z " /><path fill="rgb(12,10,9)" stroke="rgb(12,10,9)" stroke-width="1" opacity="0.30980392156862746" d="M 6.5 1 L 6.5 2 L 6.5 1 Z " /><path fill="rgb(12,10,9)" stroke="rgb(12,10,9)" stroke-width="1" opacity="0.30980392156862746" d="M 10.5 5 L 10.5 6 L 10.5 5 Z " /><path fill="rgb(12,10,9)" stroke="rgb(12,10,9)" stroke-width="1" opacity="0.30980392156862746" d="M 1.5 7 L 1.5 8 L 1.5 7 Z " /><path fill="rgb(12,10,9)" stroke="rgb(12,10,9)" stroke-width="1" opacity="0.30980392156862746" d="M 2.5 9 L 2.5 10 L 2.5 9 Z " /><path fill="rgb(12,10,9)" stroke="rgb(12,10,9)" stroke-width="1" opacity="0.30980392156862746" d="M 14.5 10 L 14.5 11 L 14.5 10 Z " /><path fill="rgb(15,12,11)" stroke="rgb(15,12,11)" stroke-width="1" opacity="0.7607843137254902" d="M 12.5 5 L 12.5 6 L 12.5 5 Z " /><path fill="rgb(13,11,10)" stroke="rgb(13,11,10)" stroke-width="1" opacity="0.5333333333333333" d="M 14.5 5 L 14.5 6 L 14.5 5 Z " /><path fill="rgb(13,11,10)" stroke="rgb(13,11,10)" stroke-width="1" opacity="0.5333333333333333" d="M 1.5 12 L 1.5 13 L 1.5 12 Z " /><path fill="rgb(14,11,10)" stroke="rgb(14,11,10)" stroke-width="1" opacity="0.6313725490196078" d="M 6.5 0 Q 8 1 5.5 2 Q 4 1 6.5 0 Z " /><path fill="rgb(14,11,10)" stroke="rgb(14,11,10)" stroke-width="1" opacity="0.6313725490196078" d="M 9.5 0 L 9.5 1 L 9.5 0 Z " /><path fill="rgb(14,11,10)" stroke="rgb(14,11,10)" stroke-width="1" opacity="0.6313725490196078" d="M 7.5 3 L 7.5 4 L 7.5 3 Z " /><path fill="rgb(14,11,10)" stroke="rgb(14,11,10)" stroke-width="1" opacity="0.6313725490196078" d="M 9.5 5 Q 11 6 8.5 7 Q 7 6 9.5 5 Z " /><path fill="rgb(14,11,10)" stroke="rgb(14,11,10)" stroke-width="1" opacity="0.6313725490196078" d="M 11.5 5 L 11.5 6 L 11.5 5 Z " /><path fill="rgb(14,11,10)" stroke="rgb(14,11,10)" stroke-width="1" opacity="0.6313725490196078" d="M 0.5 6 L 0.5 7 L 0.5 6 Z " /><path fill="rgb(14,11,10)" stroke="rgb(14,11,10)" stroke-width="1" opacity="0.6313725490196078" d="M 15.5 6 L 16 9.5 L 15 9.5 L 15.5 6 Z " /><path fill="rgb(14,11,10)" stroke="rgb(14,11,10)" stroke-width="1" opacity="0.6313725490196078" d="M 13.5 12 L 13.5 13 L 13.5 12 Z " /><path fill="rgb(14,11,10)" stroke="rgb(14,11,10)" stroke-width="1" opacity="0.6313725490196078" d="M 11.5 14 L 11.5 15 L 11.5 14 Z " /><path fill="rgb(14,11,10)" stroke="rgb(14,11,10)" stroke-width="1" opacity="0.6313725490196078" d="M 5.5 15 L 5.5 16 L 5.5 15 Z " /><path fill="rgb(13,11,10)" stroke="rgb(13,11,10)" stroke-width="1" opacity="0.5490196078431373" d="M 1.5 6 L 1.5 7 L 1.5 6 Z " /><path fill="rgb(13,11,10)" stroke="rgb(13,11,10)" stroke-width="1" opacity="0.5490196078431373" d="M 14.5 6 L 14.5 7 L 14.5 6 Z " /><path fill="rgb(13,11,10)" stroke="rgb(13,11,10)" stroke-width="1" opacity="0.5490196078431373" d="M 3.5 7 L 3.5 8 L 3.5 7 Z " /><path fill="rgb(13,11,10)" stroke="rgb(13,11,10)" stroke-width="1" opacity="0.5490196078431373" d="M 4.5 11 L 4.5 12 L 4.5 11 Z " /><path fill="rgb(13,11,10)" stroke="rgb(13,11,10)" stroke-width="1" opacity="0.5490196078431373" d="M 11.5 11 L 11.5 12 L 11.5 11 Z " /><path fill="rgb(17,14,13)" stroke="rgb(17,14,13)" stroke-width="1" opacity="0.984313725490196" d="M 13.5 6 L 13.5 7 L 13.5 6 Z " /><path fill="rgb(17,14,13)" stroke="rgb(17,14,13)" stroke-width="1" opacity="0.984313725490196" d="M 6.5 7 L 6.5 8 L 6.5 7 Z " /><path fill="rgb(13,11,10)" stroke="rgb(13,11,10)" stroke-width="1" opacity="0.5843137254901961" d="M 4.5 4 L 4.5 5 L 4.5 4 Z " /><path fill="rgb(13,11,10)" stroke="rgb(13,11,10)" stroke-width="1" opacity="0.5843137254901961" d="M 2.5 12 L 2.5 13 L 2.5 12 Z " /><path fill="rgb(13,11,10)" stroke="rgb(13,11,10)" stroke-width="1" opacity="0.5843137254901961" d="M 3.5 14 L 3.5 15 L 3.5 14 Z " /><path fill="rgb(13,11,10)" stroke="rgb(13,11,10)" stroke-width="1" opacity="0.5137254901960784" d="M 8.5 2 L 8.5 3 L 8.5 2 Z " /><path fill="rgb(21,18,16)" stroke="rgb(21,18,16)" stroke-width="1" opacity="1" d="M 12.5 6 L 12.5 7 L 12.5 6 Z " /><path fill="rgb(21,18,16)" stroke="rgb(21,18,16)" stroke-width="1" opacity="1" d="M 7 7 L 9 7.5 Q 8 10 7 8.5 L 7 7 Z " /><path fill="rgb(21,18,16)" stroke="rgb(21,18,16)" stroke-width="1" opacity="1" d="M 10.5 8 L 10.5 9 L 10.5 8 Z " /><path fill="rgb(19,16,14)" stroke="rgb(19,16,14)" stroke-width="1" opacity="1" d="M 2.5 6 L 2.5 7 L 2.5 6 Z " /><path fill="rgb(19,16,14)" stroke="rgb(19,16,14)" stroke-width="1" opacity="1" d="M 6.5 8 L 6.5 9 L 6.5 8 Z " /><path fill="rgb(19,16,14)" stroke="rgb(19,16,14)" stroke-width="1" opacity="1" d="M 11.5 8 L 11.5 9 L 11.5 8 Z " /><path fill="rgb(15,13,11)" stroke="rgb(15,13,11)" stroke-width="1" opacity="0.8509803921568627" d="M 10.5 7 Q 12 8 9.5 9 Q 8 8 10.5 7 Z " /><path fill="rgb(18,15,13)" stroke="rgb(18,15,13)" stroke-width="1" opacity="1" d="M 3.5 6 L 3.5 7 L 3.5 6 Z " /><path fill="rgb(18,15,13)" stroke="rgb(18,15,13)" stroke-width="1" opacity="1" d="M 11.5 6 L 13 8.5 Q 12 10 11 7.5 L 11.5 6 Z " /><path fill="rgb(18,15,13)" stroke="rgb(18,15,13)" stroke-width="1" opacity="1" d="M 8.5 8 L 8.5 9 L 8.5 8 Z " /><path fill="rgb(13,11,9)" stroke="rgb(13,11,9)" stroke-width="1" opacity="0.41568627450980394" d="M 0.5 5 L 0.5 6 L 0.5 5 Z " /><path fill="rgb(13,11,9)" stroke="rgb(13,11,9)" stroke-width="1" opacity="0.41568627450980394" d="M 15.5 5 L 15.5 6 L 15.5 5 Z " /><path fill="rgb(13,11,9)" stroke="rgb(13,11,9)" stroke-width="1" opacity="0.41568627450980394" d="M 14.5 7 L 14.5 8 L 14.5 7 Z " /><path fill="rgb(15,13,11)" stroke="rgb(15,13,11)" stroke-width="1" opacity="0.8588235294117647" d="M 4.5 7 L 4.5 8 L 4.5 7 Z " /><path fill="rgb(15,13,11)" stroke="rgb(15,13,11)" stroke-width="1" opacity="0.8588235294117647" d="M 0.5 8 L 0.5 9 L 0.5 8 Z " /><path fill="rgb(15,12,11)" stroke="rgb(15,12,11)" stroke-width="1" opacity="0.7764705882352941" d="M 7.5 0 L 9 0.5 L 7.5 1 L 7.5 0 Z " /><path fill="rgb(15,12,11)" stroke="rgb(15,12,11)" stroke-width="1" opacity="0.7764705882352941" d="M 4.5 1 L 4.5 2 L 4.5 1 Z " /><path fill="rgb(15,12,11)" stroke="rgb(15,12,11)" stroke-width="1" opacity="0.7764705882352941" d="M 13.5 3 L 13.5 4 L 13.5 3 Z " /><path fill="rgb(15,12,11)" stroke="rgb(15,12,11)" stroke-width="1" opacity="0.7764705882352941" d="M 0.5 9 L 0.5 10 L 0.5 9 Z " /><path fill="rgb(15,12,11)" stroke="rgb(15,12,11)" stroke-width="1" opacity="0.7764705882352941" d="M 4.5 14 L 4.5 15 L 4.5 14 Z " /><path fill="rgb(15,12,11)" stroke="rgb(15,12,11)" stroke-width="1" opacity="0.7764705882352941" d="M 6.5 15 L 8 15.5 L 6.5 16 L 6.5 15 Z " /><path fill="rgb(11,9,8)" stroke="rgb(11,9,8)" stroke-width="1" opacity="0.09411764705882353" d="M 1.5 9 L 1.5 10 L 1.5 9 Z " /><path fill="rgb(11,9,8)" stroke="rgb(11,9,8)" stroke-width="1" opacity="0.09411764705882353" d="M 6.5 14 L 6.5 15 L 6.5 14 Z " /><path fill="rgb(15,12,11)" stroke="rgb(15,12,11)" stroke-width="1" opacity="0.803921568627451" d="M 11.5 1 Q 14 2 12.5 3 Q 10 2 11.5 1 Z " /><path fill="rgb(15,12,11)" stroke="rgb(15,12,11)" stroke-width="1" opacity="0.803921568627451" d="M 6.5 4 L 6.5 5 L 6.5 4 Z " /><path fill="rgb(15,12,11)" stroke="rgb(15,12,11)" stroke-width="1" opacity="0.803921568627451" d="M 14.5 4 L 14.5 5 L 14.5 4 Z " /><path fill="rgb(15,12,11)" stroke="rgb(15,12,11)" stroke-width="1" opacity="0.803921568627451" d="M 3.5 5 L 3.5 6 L 3.5 5 Z " /><path fill="rgb(15,12,11)" stroke="rgb(15,12,11)" stroke-width="1" opacity="0.803921568627451" d="M 10.5 6 L 10.5 7 L 10.5 6 Z " /><path fill="rgb(15,12,11)" stroke="rgb(15,12,11)" stroke-width="1" opacity="0.803921568627451" d="M 0.5 7 L 0.5 8 L 0.5 7 Z " /><path fill="rgb(15,12,11)" stroke="rgb(15,12,11)" stroke-width="1" opacity="0.803921568627451" d="M 3.5 9 L 3.5 10 L 3.5 9 Z " /><path fill="rgb(14,12,11)" stroke="rgb(14,12,11)" stroke-width="1" opacity="0.7098039215686275" d="M 9.5 3 L 9.5 4 L 9.5 3 Z " /><path fill="rgb(14,12,11)" stroke="rgb(14,12,11)" stroke-width="1" opacity="0.7098039215686275" d="M 5.5 9 L 5.5 10 L 5.5 9 Z " /><path fill="rgb(14,12,11)" stroke="rgb(14,12,11)" stroke-width="1" opacity="0.7098039215686275" d="M 9.5 9 L 9.5 10 L 9.5 9 Z " /><path fill="rgb(14,12,11)" stroke="rgb(14,12,11)" stroke-width="1" opacity="0.7098039215686275" d="M 11.5 9 L 11.5 10 L 11.5 9 Z " /><path fill="rgb(14,12,10)" stroke="rgb(14,12,10)" stroke-width="1" opacity="0.6705882352941176" d="M 10.5 1 L 10.5 2 L 10.5 1 Z " /><path fill="rgb(14,12,10)" stroke="rgb(14,12,10)" stroke-width="1" opacity="0.6705882352941176" d="M 2.5 3 L 2.5 4 L 2.5 3 Z " /><path fill="rgb(14,12,10)" stroke="rgb(14,12,10)" stroke-width="1" opacity="0.6705882352941176" d="M 10.5 4 L 10.5 5 L 10.5 4 Z " /><path fill="rgb(14,12,10)" stroke="rgb(14,12,10)" stroke-width="1" opacity="0.6705882352941176" d="M 6.5 6 L 6.5 7 L 6.5 6 Z " /><path fill="rgb(14,12,10)" stroke="rgb(14,12,10)" stroke-width="1" opacity="0.6705882352941176" d="M 6.5 9 L 6.5 10 L 6.5 9 Z " /><path fill="rgb(14,12,10)" stroke="rgb(14,12,10)" stroke-width="1" opacity="0.6705882352941176" d="M 14.5 11 L 14.5 12 L 14.5 11 Z " /><path fill="rgb(14,12,10)" stroke="rgb(14,12,10)" stroke-width="1" opacity="0.6705882352941176" d="M 3.5 12 L 3.5 13 L 3.5 12 Z " /><path fill="rgb(14,12,10)" stroke="rgb(14,12,10)" stroke-width="1" opacity="0.6705882352941176" d="M 13.5 13 L 13.5 14 L 13.5 13 Z " /><path fill="rgb(14,12,10)" stroke="rgb(14,12,10)" stroke-width="1" opacity="0.6862745098039216" d="M 7.5 9 L 7.5 10 L 7.5 9 Z " /><path fill="rgb(14,12,10)" stroke="rgb(14,12,10)" stroke-width="1" opacity="0.6862745098039216" d="M 10.5 9 L 10.5 10 L 10.5 9 Z " /><path fill="rgb(14,12,11)" stroke="rgb(14,12,11)" stroke-width="1" opacity="0.7176470588235294" d="M 4.5 9 L 4.5 10 L 4.5 9 Z " /><path fill="rgb(16,13,12)" stroke="rgb(16,13,12)" stroke-width="1" opacity="0.8784313725490196" d="M 12.5 10 L 12.5 11 L 12.5 10 Z " /><path fill="rgb(11,10,8)" stroke="rgb(11,10,8)" stroke-width="1" opacity="0.1568627450980392" d="M 7.5 1 L 7.5 2 L 7.5 1 Z " /><path fill="rgb(11,10,8)" stroke="rgb(11,10,8)" stroke-width="1" opacity="0.1568627450980392" d="M 11.5 2 L 11.5 3 L 11.5 2 Z " /><path fill="rgb(11,10,8)" stroke="rgb(11,10,8)" stroke-width="1" opacity="0.1568627450980392" d="M 4.5 10 L 4.5 11 L 4.5 10 Z " /><path fill="rgb(11,10,8)" stroke="rgb(11,10,8)" stroke-width="1" opacity="0.1568627450980392" d="M 11.5 10 L 11.5 11 L 11.5 10 Z " /><path fill="rgb(11,10,8)" stroke="rgb(11,10,8)" stroke-width="1" opacity="0.1568627450980392" d="M 0.5 11 L 0.5 12 L 0.5 11 Z " /><path fill="rgb(11,10,8)" stroke="rgb(11,10,8)" stroke-width="1" opacity="0.1568627450980392" d="M 11.5 15 L 11.5 16 L 11.5 15 Z " /><path fill="rgb(16,14,12)" stroke="rgb(16,14,12)" stroke-width="1" opacity="0.9333333333333333" d="M 4.5 6 L 4.5 7 L 4.5 6 Z " /><path fill="rgb(16,14,12)" stroke="rgb(16,14,12)" stroke-width="1" opacity="0.9333333333333333" d="M 4.5 8 L 6 8.5 L 4.5 9 L 4.5 8 Z " /><path fill="rgb(16,14,12)" stroke="rgb(16,14,12)" stroke-width="1" opacity="0.9333333333333333" d="M 3.5 11 L 3.5 12 L 3.5 11 Z " /><path fill="rgb(13,11,9)" stroke="rgb(13,11,9)" stroke-width="1" opacity="0.4745098039215686" d="M 8.5 3 L 8.5 4 L 8.5 3 Z " /><path fill="rgb(13,11,10)" stroke="rgb(13,11,10)" stroke-width="1" opacity="0.48627450980392156" d="M 11.5 4 L 11.5 5 L 11.5 4 Z " /><path fill="rgb(13,11,10)" stroke="rgb(13,11,10)" stroke-width="1" opacity="0.48627450980392156" d="M 5.5 6 L 5.5 7 L 5.5 6 Z " /><path fill="rgb(13,11,10)" stroke="rgb(13,11,10)" stroke-width="1" opacity="0.48627450980392156" d="M 5.5 11 L 11 11.5 L 5.5 12 L 5.5 11 Z " /><path fill="rgb(13,11,10)" stroke="rgb(13,11,10)" stroke-width="1" opacity="0.48627450980392156" d="M 3.5 13 L 3.5 14 L 3.5 13 Z " /><path fill="rgb(16,13,12)" stroke="rgb(16,13,12)" stroke-width="1" opacity="0.8941176470588236" d="M 9.5 7 L 9.5 8 L 9.5 7 Z " /><path fill="rgb(16,13,12)" stroke="rgb(16,13,12)" stroke-width="1" opacity="0.8941176470588236" d="M 3.5 10 L 3.5 11 L 3.5 10 Z " /><path fill="rgb(16,13,12)" stroke="rgb(16,13,12)" stroke-width="1" opacity="0.8941176470588236" d="M 12.5 11 Q 14 12 11.5 13 L 4 12.5 L 11.5 12 L 12.5 11 Z " /><path fill="rgb(14,12,11)" stroke="rgb(14,12,11)" stroke-width="1" opacity="0.7215686274509804" d="M 6.5 3 L 6.5 4 L 6.5 3 Z " /><path fill="rgb(14,12,11)" stroke="rgb(14,12,11)" stroke-width="1" opacity="0.7215686274509804" d="M 12.5 9 L 12.5 10 L 12.5 9 Z " /><path fill="rgb(14,12,11)" stroke="rgb(14,12,11)" stroke-width="1" opacity="0.7215686274509804" d="M 12.5 12 L 12.5 13 L 12.5 12 Z " /><path fill="rgb(13,11,9)" stroke="rgb(13,11,9)" stroke-width="1" opacity="0.4549019607843137" d="M 2.5 7 L 2.5 8 L 2.5 7 Z " /><path fill="rgb(13,11,9)" stroke="rgb(13,11,9)" stroke-width="1" opacity="0.4549019607843137" d="M 15.5 10 L 15.5 11 L 15.5 10 Z " /><path fill="rgb(13,11,9)" stroke="rgb(13,11,9)" stroke-width="1" opacity="0.4549019607843137" d="M 14.5 12 L 14.5 13 L 14.5 12 Z " /><path fill="rgb(13,11,9)" stroke="rgb(13,11,9)" stroke-width="1" opacity="0.4549019607843137" d="M 12.5 13 L 12.5 14 L 12.5 13 Z " /><path fill="rgb(13,11,9)" stroke="rgb(13,11,9)" stroke-width="1" opacity="0.38823529411764707" d="M 1.5 5 L 1.5 6 L 1.5 5 Z " /><path fill="rgb(13,11,9)" stroke="rgb(13,11,9)" stroke-width="1" opacity="0.38823529411764707" d="M 5.5 14 L 5.5 15 L 5.5 14 Z " /><path fill="rgb(12,10,9)" stroke="rgb(12,10,9)" stroke-width="1" opacity="0.27450980392156865" d="M 7.5 2 L 7.5 3 L 7.5 2 Z " /><path fill="rgb(12,10,9)" stroke="rgb(12,10,9)" stroke-width="1" opacity="0.27450980392156865" d="M 10.5 14 L 10.5 15 L 10.5 14 Z " /><path fill="rgb(13,11,10)" stroke="rgb(13,11,10)" stroke-width="1" opacity="0.5176470588235295" d="M 5.5 7 L 5.5 8 L 5.5 7 Z " /><path fill="rgb(13,11,10)" stroke="rgb(13,11,10)" stroke-width="1" opacity="0.5176470588235295" d="M 3.5 8 L 3.5 9 L 3.5 8 Z " /><path fill="rgb(13,11,10)" stroke="rgb(13,11,10)" stroke-width="1" opacity="0.5176470588235295" d="M 0.5 10 L 0.5 11 L 0.5 10 Z " /><path fill="rgb(13,11,10)" stroke="rgb(13,11,10)" stroke-width="1" opacity="0.5176470588235295" d="M 12.5 14 L 12.5 15 L 12.5 14 Z " /></svg>