<svg width="128" height="128" version="1.1" xmlns="http://www.w3.org/2000/svg" desc="Created with imagetracer.js version 1.2.6" ><path fill="rgb(0,123,199)" stroke="rgb(0,123,199)" stroke-width="1" opacity="1" d="M 0 0 L 43 0 L 43 64 L 85 64 L 85 0 L 128 0 L 128 128 L 0 128 L 0 0 Z " /><path fill="rgb(37,79,125)" stroke="rgb(37,79,125)" stroke-width="1" opacity="1" d="M 62.5 22 L 62.5 23 L 62.5 22 Z " /><path fill="rgb(37,79,125)" stroke="rgb(37,79,125)" stroke-width="1" opacity="1" d="M 65.5 22 L 65.5 23 L 65.5 22 Z " /><path fill="rgb(37,79,125)" stroke="rgb(37,79,125)" stroke-width="1" opacity="1" d="M 60.5 24 L 60.5 25 L 60.5 24 Z " /><path fill="rgb(37,79,125)" stroke="rgb(37,79,125)" stroke-width="1" opacity="1" d="M 62.5 24 L 62.5 25 L 62.5 24 Z " /><path fill="rgb(37,79,125)" stroke="rgb(37,79,125)" stroke-width="1" opacity="1" d="M 65.5 24 L 65.5 25 L 65.5 24 Z " /><path fill="rgb(37,79,125)" stroke="rgb(37,79,125)" stroke-width="1" opacity="1" d="M 67.5 24 L 67.5 25 L 67.5 24 Z " /><path fill="rgb(37,79,125)" stroke="rgb(37,79,125)" stroke-width="1" opacity="1" d="M 58.5 25 L 58.5 26 L 58.5 25 Z " /><path fill="rgb(37,79,125)" stroke="rgb(37,79,125)" stroke-width="1" opacity="1" d="M 69.5 25 L 69.5 26 L 69.5 25 Z " /><path fill="rgb(37,79,125)" stroke="rgb(37,79,125)" stroke-width="1" opacity="1" d="M 60.5 26 L 60.5 27 L 60.5 26 Z " /><path fill="rgb(37,79,125)" stroke="rgb(37,79,125)" stroke-width="1" opacity="1" d="M 62.5 26 L 62.5 27 L 62.5 26 Z " /><path fill="rgb(37,79,125)" stroke="rgb(37,79,125)" stroke-width="1" opacity="1" d="M 65.5 26 L 65.5 27 L 65.5 26 Z " /><path fill="rgb(37,79,125)" stroke="rgb(37,79,125)" stroke-width="1" opacity="1" d="M 51.5 29 L 53 29.5 L 51.5 30 L 51.5 29 Z " /><path fill="rgb(37,79,125)" stroke="rgb(37,79,125)" stroke-width="1" opacity="1" d="M 75.5 29 L 75.5 30 L 75.5 29 Z " /><path fill="rgb(37,79,125)" stroke="rgb(37,79,125)" stroke-width="1" opacity="1" d="M 61.5 31 L 61.5 32 L 61.5 31 Z " /><path fill="rgb(37,79,125)" stroke="rgb(37,79,125)" stroke-width="1" opacity="1" d="M 66.5 31 L 66.5 32 L 66.5 31 Z " /><path fill="rgb(37,79,125)" stroke="rgb(37,79,125)" stroke-width="1" opacity="1" d="M 72.5 31 L 72.5 32 L 72.5 31 Z " /><path fill="rgb(37,79,125)" stroke="rgb(37,79,125)" stroke-width="1" opacity="1" d="M 49.5 33 L 49.5 34 L 49.5 33 Z " /><path fill="rgb(37,79,125)" stroke="rgb(37,79,125)" stroke-width="1" opacity="1" d="M 54.5 33 L 56 33.5 L 54.5 34 L 54.5 33 Z " /><path fill="rgb(37,79,125)" stroke="rgb(37,79,125)" stroke-width="1" opacity="1" d="M 72.5 33 L 74 33.5 L 72.5 34 L 72.5 33 Z " /><path fill="rgb(37,79,125)" stroke="rgb(37,79,125)" stroke-width="1" opacity="1" d="M 78.5 33 L 78.5 34 L 78.5 33 Z " /><path fill="rgb(37,79,125)" stroke="rgb(37,79,125)" stroke-width="1" opacity="1" d="M 57.5 34 L 57.5 35 L 57.5 34 Z " /><path fill="rgb(37,79,125)" stroke="rgb(37,79,125)" stroke-width="1" opacity="1" d="M 70.5 34 L 70.5 35 L 70.5 34 Z " /><path fill="rgb(37,79,125)" stroke="rgb(37,79,125)" stroke-width="1" opacity="1" d="M 49.5 35 L 52 37.5 L 50.5 39 L 49 38.5 L 51 37.5 L 49 35.5 L 49.5 35 Z " /><path fill="rgb(37,79,125)" stroke="rgb(37,79,125)" stroke-width="1" opacity="1" d="M 64.5 35 L 66 35.5 L 64.5 36 L 64.5 35 Z " /><path fill="rgb(37,79,125)" stroke="rgb(37,79,125)" stroke-width="1" opacity="1" d="M 78.5 35 L 79 35.5 L 76.5 38 L 76 37.5 L 78.5 35 Z " /><path fill="rgb(37,79,125)" stroke="rgb(37,79,125)" stroke-width="1" opacity="1" d="M 81.5 36 L 81.5 37 L 81.5 36 Z " /><path fill="rgb(37,79,125)" stroke="rgb(37,79,125)" stroke-width="1" opacity="1" d="M 47.5 38 L 47.5 39 L 47.5 38 Z " /><path fill="rgb(37,79,125)" stroke="rgb(37,79,125)" stroke-width="1" opacity="1" d="M 64.5 38 L 66 40.5 L 65 40.5 L 64.5 39 L 63 39.5 L 64.5 38 Z " /><path fill="rgb(37,79,125)" stroke="rgb(37,79,125)" stroke-width="1" opacity="1" d="M 78.5 38 L 78.5 39 L 78.5 38 Z " /><path fill="rgb(37,79,125)" stroke="rgb(37,79,125)" stroke-width="1" opacity="1" d="M 80.5 38 L 80.5 39 L 80.5 38 Z " /><path fill="rgb(37,79,125)" stroke="rgb(37,79,125)" stroke-width="1" opacity="1" d="M 74.5 39 L 74.5 40 L 74.5 39 Z " /><path fill="rgb(37,79,125)" stroke="rgb(37,79,125)" stroke-width="1" opacity="1" d="M 49.5 40 L 49.5 41 L 49.5 40 Z " /><path fill="rgb(37,79,125)" stroke="rgb(37,79,125)" stroke-width="1" opacity="1" d="M 57.5 40 L 58 41.5 L 57 41.5 L 57.5 40 Z " /><path fill="rgb(37,79,125)" stroke="rgb(37,79,125)" stroke-width="1" opacity="1" d="M 70.5 40 L 71 44 L 69 43.5 L 70.5 40 Z " /><path fill="rgb(37,79,125)" stroke="rgb(37,79,125)" stroke-width="1" opacity="1" d="M 78.5 40 L 78.5 41 L 78.5 40 Z " /><path fill="rgb(37,79,125)" stroke="rgb(37,79,125)" stroke-width="1" opacity="1" d="M 53.5 42 L 53.5 43 L 53.5 42 Z " /><path fill="rgb(37,79,125)" stroke="rgb(37,79,125)" stroke-width="1" opacity="1" d="M 74.5 42 L 74.5 43 L 74.5 42 Z " /><path fill="rgb(37,79,125)" stroke="rgb(37,79,125)" stroke-width="1" opacity="1" d="M 78.5 42 L 78.5 43 L 78.5 42 Z " /><path fill="rgb(37,79,125)" stroke="rgb(37,79,125)" stroke-width="1" opacity="1" d="M 47.5 43 L 48 48 Q 50.67 46.88 50 49.5 L 49.5 50 L 47 47.5 L 47.5 43 Z " /><path fill="rgb(37,79,125)" stroke="rgb(37,79,125)" stroke-width="1" opacity="1" d="M 57.5 43 L 57.5 44 L 57.5 43 Z " /><path fill="rgb(37,79,125)" stroke="rgb(37,79,125)" stroke-width="1" opacity="1" d="M 64.5 43 L 64.5 44 L 64.5 43 Z " /><path fill="rgb(37,79,125)" stroke="rgb(37,79,125)" stroke-width="1" opacity="1" d="M 80.5 43 L 81 47.5 L 78.5 49 L 78.5 48 L 80 48 L 80.5 43 Z " /><path fill="rgb(37,79,125)" stroke="rgb(37,79,125)" stroke-width="1" opacity="1" d="M 54.5 44 Q 57 45 55.5 46 Q 52.71 46.67 54.5 44 Z " /><path fill="rgb(37,79,125)" stroke="rgb(37,79,125)" stroke-width="1" opacity="1" d="M 60.5 44 L 60.5 45 L 60.5 44 Z " /><path fill="rgb(37,79,125)" stroke="rgb(37,79,125)" stroke-width="1" opacity="1" d="M 67.5 44 L 67.5 45 L 67.5 44 Z " /><path fill="rgb(37,79,125)" stroke="rgb(37,79,125)" stroke-width="1" opacity="1" d="M 73.5 44 L 74 46 L 72 45.5 L 73.5 44 Z " /><path fill="rgb(37,79,125)" stroke="rgb(37,79,125)" stroke-width="1" opacity="1" d="M 50.5 45 L 50.5 46 L 50.5 45 Z " /><path fill="rgb(37,79,125)" stroke="rgb(37,79,125)" stroke-width="1" opacity="1" d="M 77.5 45 L 77.5 46 L 77.5 45 Z " /><path fill="rgb(37,79,125)" stroke="rgb(37,79,125)" stroke-width="1" opacity="1" d="M 60.5 46 L 63 46.5 L 60.5 47 L 60.5 46 Z " /><path fill="rgb(37,79,125)" stroke="rgb(37,79,125)" stroke-width="1" opacity="1" d="M 65.5 46 L 68 46.5 L 65.5 47 L 65.5 46 Z " /><path fill="rgb(37,79,125)" stroke="rgb(37,79,125)" stroke-width="1" opacity="1" d="M 76.5 47 L 77 49 L 75 48.5 L 76.5 47 Z " /><path fill="rgb(37,79,125)" stroke="rgb(37,79,125)" stroke-width="1" opacity="1" d="M 52.5 48 L 52.5 49 L 52.5 48 Z " /><path fill="rgb(37,79,125)" stroke="rgb(37,79,125)" stroke-width="1" opacity="1" d="M 61.5 49 L 67 49.5 L 61.5 50 L 61.5 49 Z " /><path fill="rgb(37,79,125)" stroke="rgb(37,79,125)" stroke-width="1" opacity="1" d="M 57.5 50 L 58 51.5 L 57 51.5 L 57.5 50 Z " /><path fill="rgb(37,79,125)" stroke="rgb(37,79,125)" stroke-width="1" opacity="1" d="M 70.5 50 L 71 51.5 L 70 51.5 L 70.5 50 Z " /><path fill="rgb(37,79,125)" stroke="rgb(37,79,125)" stroke-width="1" opacity="1" d="M 49.5 51 L 49.5 52 L 49.5 51 Z " /><path fill="rgb(37,79,125)" stroke="rgb(37,79,125)" stroke-width="1" opacity="1" d="M 53.5 51 L 53.5 52 L 53.5 51 Z " /><path fill="rgb(37,79,125)" stroke="rgb(37,79,125)" stroke-width="1" opacity="1" d="M 74.5 51 L 74.5 52 L 74.5 51 Z " /><path fill="rgb(37,79,125)" stroke="rgb(37,79,125)" stroke-width="1" opacity="1" d="M 78.5 51 L 78.5 52 L 78.5 51 Z " /><path fill="rgb(21,66,115)" stroke="rgb(21,66,115)" stroke-width="1" opacity="1" d="M 43 0 L 85 0 L 85 64 L 43 64 L 43 0 Z M 64 21 Q 61 22 63 24 L 58 25 L 58 28 L 61 32 L 60 32 Q 58 29 57 33 L 55 30 L 52 29 Q 50 30 50 33 Q 48 34 50 35 L 45 36 L 47 36 L 48 37 L 49 37 Q 50 39 47 38 L 47 42 L 50 43 L 47 43 L 47 48 Q 49 48 49 52 L 51 51 L 54 52 Q 59 54 58 50 L 70 50 L 70 52 L 75 52 L 76 51 L 79 52 Q 79 49 81 48 L 81 43 L 79 43 L 81 42 L 81 38 Q 78 39 79 37 L 81 37 L 83 36 L 79 35 L 79 34 L 77 29 L 74 30 L 72 33 L 72 33 L 70 31 L 69 32 L 67 32 L 70 28 L 70 25 L 66 24 L 66 23 L 64 21 Z " /><path fill="rgb(21,66,115)" stroke="rgb(21,66,115)" stroke-width="1" opacity="1" d="M 60.5 27 L 60.5 28 L 60.5 27 Z " /><path fill="rgb(21,66,115)" stroke="rgb(21,66,115)" stroke-width="1" opacity="1" d="M 67.5 27 L 67.5 28 L 67.5 27 Z " /><path fill="rgb(21,66,115)" stroke="rgb(21,66,115)" stroke-width="1" opacity="1" d="M 65.5 34 L 65.5 35 L 65.5 34 Z " /><path fill="rgb(21,66,115)" stroke="rgb(21,66,115)" stroke-width="1" opacity="1" d="M 56 35 Q 59 33.75 58 37.5 Q 57 39 56 36.5 L 56 35 Z " /><path fill="rgb(21,66,115)" stroke="rgb(21,66,115)" stroke-width="1" opacity="1" d="M 70 35 Q 72.67 33.88 72 36.5 Q 71 39 70 37.5 L 70 35 Z " /><path fill="rgb(21,66,115)" stroke="rgb(21,66,115)" stroke-width="1" opacity="1" d="M 63.5 36 L 65 36.5 L 63.5 37 L 63.5 36 Z " /><path fill="rgb(21,66,115)" stroke="rgb(21,66,115)" stroke-width="1" opacity="1" d="M 50.5 37 L 50.5 38 L 50.5 37 Z " /><path fill="rgb(21,66,115)" stroke="rgb(21,66,115)" stroke-width="1" opacity="1" d="M 77.5 37 L 77.5 38 L 77.5 37 Z " /><path fill="rgb(21,66,115)" stroke="rgb(21,66,115)" stroke-width="1" opacity="1" d="M 49.5 39 L 49.5 40 L 49.5 39 Z " /><path fill="rgb(21,66,115)" stroke="rgb(21,66,115)" stroke-width="1" opacity="1" d="M 54.5 39 Q 57.83 37.88 57 40.5 L 55.5 40 Q 53.12 39.87 54.5 39 Z " /><path fill="rgb(21,66,115)" stroke="rgb(21,66,115)" stroke-width="1" opacity="1" d="M 71 39 L 74 39.5 L 71.5 41 L 71 39 Z " /><path fill="rgb(21,66,115)" stroke="rgb(21,66,115)" stroke-width="1" opacity="1" d="M 78.5 39 L 78.5 40 L 78.5 39 Z " /><path fill="rgb(21,66,115)" stroke="rgb(21,66,115)" stroke-width="1" opacity="1" d="M 61.5 42 L 61.5 43 L 61.5 42 Z " /><path fill="rgb(21,66,115)" stroke="rgb(21,66,115)" stroke-width="1" opacity="1" d="M 53.5 43 L 55 43.5 L 54 46 L 59 46 L 59 44.5 L 58.5 43 L 62 45.5 Q 59.74 47.94 55 47 Q 56.13 49.67 53.5 49 L 51 44 L 53.5 43 Z " /><path fill="rgb(21,66,115)" stroke="rgb(21,66,115)" stroke-width="1" opacity="1" d="M 73.5 43 L 77 44 L 74.5 49 Q 71.88 49.67 73 47 L 68.5 47 L 66 45.5 L 68.5 44 L 69 46 L 74 46 L 74 44.5 L 73.5 43 Z " /><path fill="rgb(220,227,234)" stroke="rgb(220,227,234)" stroke-width="1" opacity="1" d="M 63 22 Q 66 21 65 24 Q 62 25 63 22 Z " /><path fill="rgb(220,227,234)" stroke="rgb(220,227,234)" stroke-width="1" opacity="1" d="M 61.5 24 L 61.5 25 L 61.5 24 Z " /><path fill="rgb(220,227,234)" stroke="rgb(220,227,234)" stroke-width="1" opacity="1" d="M 66.5 24 L 66.5 25 L 66.5 24 Z " /><path fill="rgb(220,227,234)" stroke="rgb(220,227,234)" stroke-width="1" opacity="1" d="M 61.5 26 L 62.5 28 L 63 26 Q 65.67 24.87 65 27.5 L 66 27.5 L 66.5 26 L 67.5 28 L 69.5 26 L 70 26.5 Q 67.5 27.5 68 30 L 60.5 30 L 60 28.5 L 59.5 27 L 61 27.5 L 61.5 26 Z M 62 28 L 62 29 L 62 28 Z M 67 28 L 67 29 L 67 28 Z " /><path fill="rgb(220,227,234)" stroke="rgb(220,227,234)" stroke-width="1" opacity="1" d="M 51.5 30 L 54 30.5 Q 52.25 31.42 53 34 L 55.5 35 Q 56.75 31.5 60 32 L 60.5 34 L 61 32 L 69.5 32 L 72.5 35 L 75 34 Q 75.75 31.42 74 30.5 L 76.5 30 Q 78.5 30.5 78 33.5 Q 76.25 34.42 77 37 L 73 37.5 L 77 38 L 78.5 41 L 80 41.5 L 78 42.5 Q 80.5 43 80 46.5 L 77 48 L 78 44 Q 74.67 45.31 76 40.5 L 75 40.5 Q 75.67 43.13 73 42 L 73 44.5 L 70 46 Q 68.88 43.33 71.5 44 L 71 42.5 Q 70.25 40.25 72.5 41 L 75 39.5 L 71.5 39 L 66.5 45 L 63.5 46 L 58 41.5 L 58 39 L 53.5 39 L 53.5 40 L 57 41 L 56 43.5 L 58 44 Q 59.13 46.67 56.5 46 Q 54.25 45 55 42 Q 52.33 43.13 53 40.5 L 52 40.5 L 52 44 Q 49.33 42.88 50 45.5 L 51 48 Q 48.33 49.13 49 46.5 Q 47 45.5 49 44.5 L 50 42.5 L 48 41.5 L 51 39.5 Q 50.12 36.5 54.5 38 L 54.5 37 Q 49.69 38.67 51 34.5 L 50 31.5 L 51.5 30 Z M 66 33 L 64 34 L 64 36 L 62 37 L 64 38 L 60 39 L 62 40 L 65 39 L 66 43 L 68 43 L 67 40 Q 63 38 66 37 L 66 33 Z M 58 34 L 55 37 L 58 38 L 58 34 Z M 62 34 L 60 36 L 62 36 L 62 34 Z M 68 34 L 68 35 L 68 34 Z M 71 34 L 70 38 L 72 38 L 73 37 L 71 34 Z M 67 37 L 67 38 L 68 38 L 67 37 Z M 63 40 L 61 43 L 63 43 L 63 40 Z M 65 43 L 64 45 L 65 45 L 65 43 Z " /><path fill="rgb(220,227,234)" stroke="rgb(220,227,234)" stroke-width="1" opacity="1" d="M 46.5 35 L 46.5 36 L 46.5 35 Z " /><path fill="rgb(220,227,234)" stroke="rgb(220,227,234)" stroke-width="1" opacity="1" d="M 49.5 36 L 50 37.5 L 49 37.5 L 49.5 36 Z " /><path fill="rgb(220,227,234)" stroke="rgb(220,227,234)" stroke-width="1" opacity="1" d="M 78.5 36 L 79 37.5 L 78 37.5 L 78.5 36 Z " /><path fill="rgb(220,227,234)" stroke="rgb(220,227,234)" stroke-width="1" opacity="1" d="M 56.5 47 L 71.5 47 L 73 48.5 L 73.5 50 Q 74.62 48 78 49 Q 79.35 52.67 73.5 51 L 71 52 Q 71.38 49.04 70.5 49 L 57 49 L 57 52 L 55.5 52 L 54.5 51 L 50 51 Q 48.65 47.33 54.5 49 L 56.5 47 Z M 56 50 L 56 51 L 56 50 Z M 73 50 L 73 51 L 73 50 Z " /><path fill="rgb(104,133,165)" stroke="rgb(104,133,165)" stroke-width="1" opacity="1" d="M 63.5 21 L 65 21.5 L 63.5 22 L 63.5 21 Z " /><path fill="rgb(104,133,165)" stroke="rgb(104,133,165)" stroke-width="1" opacity="1" d="M 63.5 24 L 69 25 L 70 27.5 Q 69 30 68 28.5 L 68.5 27 Q 66 25 60.5 26 L 59 27.5 L 59.5 29 L 58 26.5 L 59.5 25 Q 62.75 25.75 63.5 24 Z " /><path fill="rgb(104,133,165)" stroke="rgb(104,133,165)" stroke-width="1" opacity="1" d="M 62.5 27 Q 64 28 61.5 29 Q 60 28 62.5 27 Z " /><path fill="rgb(104,133,165)" stroke="rgb(104,133,165)" stroke-width="1" opacity="1" d="M 65.5 27 Q 68 28 66.5 29 Q 64 28 65.5 27 Z " /><path fill="rgb(104,133,165)" stroke="rgb(104,133,165)" stroke-width="1" opacity="1" d="M 76.5 29 Q 79 30 77.5 31 Q 75 30 76.5 29 Z " /><path fill="rgb(104,133,165)" stroke="rgb(104,133,165)" stroke-width="1" opacity="1" d="M 50.5 30 L 50.5 31 L 50.5 30 Z " /><path fill="rgb(104,133,165)" stroke="rgb(104,133,165)" stroke-width="1" opacity="1" d="M 54.5 30 L 56.5 33 L 58.5 31 L 59 31.5 L 55.5 35 L 55 34.5 L 55.5 33 L 53.5 34 L 53 31.5 L 54.5 30 Z " /><path fill="rgb(104,133,165)" stroke="rgb(104,133,165)" stroke-width="1" opacity="1" d="M 60.5 30 L 68 30.5 Q 66.56 32.56 62.5 32 L 60 30.5 L 60.5 30 Z " /><path fill="rgb(104,133,165)" stroke="rgb(104,133,165)" stroke-width="1" opacity="1" d="M 73.5 30 Q 75.5 30.5 75 33.5 L 73.5 33 L 72 33.5 L 72.5 35 L 69 31.5 L 69.5 31 Q 71.25 34.75 73 31.5 L 73.5 30 Z " /><path fill="rgb(104,133,165)" stroke="rgb(104,133,165)" stroke-width="1" opacity="1" d="M 60.5 32 L 63 36.5 L 61.5 36 L 60 35.5 Q 62 34.5 60 33.5 L 60.5 32 Z " /><path fill="rgb(104,133,165)" stroke="rgb(104,133,165)" stroke-width="1" opacity="1" d="M 65.5 33 Q 67 34 64.5 35 L 63 34.5 L 65.5 33 Z " /><path fill="rgb(104,133,165)" stroke="rgb(104,133,165)" stroke-width="1" opacity="1" d="M 50.5 34 L 51 35.5 L 50 35.5 L 50.5 34 Z " /><path fill="rgb(104,133,165)" stroke="rgb(104,133,165)" stroke-width="1" opacity="1" d="M 67.5 34 L 67.5 35 L 67.5 34 Z " /><path fill="rgb(104,133,165)" stroke="rgb(104,133,165)" stroke-width="1" opacity="1" d="M 77.5 34 L 78 35.5 L 77 35.5 L 77.5 34 Z " /><path fill="rgb(104,133,165)" stroke="rgb(104,133,165)" stroke-width="1" opacity="1" d="M 45.5 35 L 45.5 36 L 45.5 35 Z " /><path fill="rgb(104,133,165)" stroke="rgb(104,133,165)" stroke-width="1" opacity="1" d="M 47 35 L 49 35.5 Q 48 38 47 36.5 L 47 35 Z " /><path fill="rgb(104,133,165)" stroke="rgb(104,133,165)" stroke-width="1" opacity="1" d="M 79.5 35 L 83 35.5 L 80.5 37 Q 78 36 79.5 35 Z " /><path fill="rgb(104,133,165)" stroke="rgb(104,133,165)" stroke-width="1" opacity="1" d="M 55.5 36 Q 58 37 56.5 38 Q 55.5 36 54.5 38 L 52 37.5 L 55.5 36 Z " /><path fill="rgb(104,133,165)" stroke="rgb(104,133,165)" stroke-width="1" opacity="1" d="M 65.5 36 L 68 37.5 L 66 38.5 L 68.5 43 L 70 42.5 Q 68 43.5 70 44.5 L 69.5 46 L 67.5 43 Q 64.5 43.87 66 39.5 Q 64.75 36.75 63.5 39 L 62 39.5 L 63 42.5 L 62 42.5 Q 62.5 39 60 38.5 L 63.5 38 L 65.5 36 Z M 66 37 L 66 38 L 66 37 Z " /><path fill="rgb(104,133,165)" stroke="rgb(104,133,165)" stroke-width="1" opacity="1" d="M 72.5 36 L 76 37.5 L 73.5 38 L 72.5 37 L 71 37.5 L 72.5 36 Z " /><path fill="rgb(104,133,165)" stroke="rgb(104,133,165)" stroke-width="1" opacity="1" d="M 48.5 38 L 49 40.5 Q 48 43 47 41.5 Q 46.5 38.5 48.5 38 Z " /><path fill="rgb(104,133,165)" stroke="rgb(104,133,165)" stroke-width="1" opacity="1" d="M 77.5 38 L 78 39.5 L 77 39.5 L 77.5 38 Z " /><path fill="rgb(104,133,165)" stroke="rgb(104,133,165)" stroke-width="1" opacity="1" d="M 79.5 38 Q 81.5 38.5 81 41.5 Q 80 43 79 40.5 L 79.5 38 Z " /><path fill="rgb(104,133,165)" stroke="rgb(104,133,165)" stroke-width="1" opacity="1" d="M 50.5 39 L 50.5 40 L 50.5 39 Z " /><path fill="rgb(104,133,165)" stroke="rgb(104,133,165)" stroke-width="1" opacity="1" d="M 53.5 39 L 53 40.5 L 52.5 44 L 52 40.5 L 53.5 39 Z " /><path fill="rgb(104,133,165)" stroke="rgb(104,133,165)" stroke-width="1" opacity="1" d="M 57.5 39 L 57.5 40 L 57.5 39 Z " /><path fill="rgb(104,133,165)" stroke="rgb(104,133,165)" stroke-width="1" opacity="1" d="M 55.5 40 L 55.5 41 L 55.5 40 Z " /><path fill="rgb(104,133,165)" stroke="rgb(104,133,165)" stroke-width="1" opacity="1" d="M 72.5 40 L 72.5 41 L 72.5 40 Z " /><path fill="rgb(104,133,165)" stroke="rgb(104,133,165)" stroke-width="1" opacity="1" d="M 75.5 40 L 76 43.5 L 75 43.5 L 75.5 40 Z " /><path fill="rgb(104,133,165)" stroke="rgb(104,133,165)" stroke-width="1" opacity="1" d="M 54.5 42 L 54.5 43 L 54.5 42 Z " /><path fill="rgb(104,133,165)" stroke="rgb(104,133,165)" stroke-width="1" opacity="1" d="M 57.5 42 L 60 43.5 L 58.5 46 L 58 44.5 L 58.5 43 L 56.5 44 Q 55 43 57.5 42 Z " /><path fill="rgb(104,133,165)" stroke="rgb(104,133,165)" stroke-width="1" opacity="1" d="M 73.5 42 L 73.5 43 L 73.5 42 Z " /><path fill="rgb(104,133,165)" stroke="rgb(104,133,165)" stroke-width="1" opacity="1" d="M 48.5 43 L 49 44.5 L 48 44.5 L 48.5 43 Z " /><path fill="rgb(104,133,165)" stroke="rgb(104,133,165)" stroke-width="1" opacity="1" d="M 71.5 43 L 71.5 44 L 71.5 43 Z " /><path fill="rgb(104,133,165)" stroke="rgb(104,133,165)" stroke-width="1" opacity="1" d="M 79.5 43 L 79.5 44 L 79.5 43 Z " /><path fill="rgb(104,133,165)" stroke="rgb(104,133,165)" stroke-width="1" opacity="1" d="M 50.5 44 L 50.5 45 L 50.5 44 Z " /><path fill="rgb(104,133,165)" stroke="rgb(104,133,165)" stroke-width="1" opacity="1" d="M 64.5 44 Q 67.5 45.5 64.5 47 L 62 45.5 L 63.5 46 L 65 45.5 L 64.5 44 Z " /><path fill="rgb(104,133,165)" stroke="rgb(104,133,165)" stroke-width="1" opacity="1" d="M 77.5 44 L 77.5 45 L 77.5 44 Z " /><path fill="rgb(104,133,165)" stroke="rgb(104,133,165)" stroke-width="1" opacity="1" d="M 48.5 46 L 49 47.5 L 48 47.5 L 48.5 46 Z " /><path fill="rgb(104,133,165)" stroke="rgb(104,133,165)" stroke-width="1" opacity="1" d="M 51.5 46 L 52 49 L 50 48.5 L 51.5 46 Z " /><path fill="rgb(104,133,165)" stroke="rgb(104,133,165)" stroke-width="1" opacity="1" d="M 76.5 46 L 76.5 47 L 76.5 46 Z " /><path fill="rgb(104,133,165)" stroke="rgb(104,133,165)" stroke-width="1" opacity="1" d="M 55.5 47 L 55.5 48 L 55.5 47 Z " /><path fill="rgb(104,133,165)" stroke="rgb(104,133,165)" stroke-width="1" opacity="1" d="M 72.5 47 L 72.5 48 L 72.5 47 Z " /><path fill="rgb(104,133,165)" stroke="rgb(104,133,165)" stroke-width="1" opacity="1" d="M 79.5 47 L 79.5 48 L 79.5 47 Z " /><path fill="rgb(104,133,165)" stroke="rgb(104,133,165)" stroke-width="1" opacity="1" d="M 77.5 48 L 79 50.5 L 78 50.5 L 77.5 48 Z " /><path fill="rgb(104,133,165)" stroke="rgb(104,133,165)" stroke-width="1" opacity="1" d="M 57.5 49 L 61 49.5 L 57.5 50 L 57.5 49 Z " /><path fill="rgb(104,133,165)" stroke="rgb(104,133,165)" stroke-width="1" opacity="1" d="M 67.5 49 L 71 49.5 L 67.5 50 L 67.5 49 Z " /><path fill="rgb(104,133,165)" stroke="rgb(104,133,165)" stroke-width="1" opacity="1" d="M 73.5 49 L 73.5 52 Q 70.5 50.5 73.5 49 Z " /><path fill="rgb(104,133,165)" stroke="rgb(104,133,165)" stroke-width="1" opacity="1" d="M 49.5 50 L 49.5 51 L 49.5 50 Z " /><path fill="rgb(104,133,165)" stroke="rgb(104,133,165)" stroke-width="1" opacity="1" d="M 55.5 50 Q 57 51 54.5 52 Q 53 51 55.5 50 Z " /></svg>