<svg width="32" height="31" version="1.1" xmlns="http://www.w3.org/2000/svg" desc="Created with imagetracer.js version 1.2.6" ><path fill="rgb(0,0,0)" stroke="rgb(0,0,0)" stroke-width="1" opacity="0" d="M 0.5 0 L 32 0 L 32 31 L 0 31 L 0 17 L 5 17 L 5 18.5 L 6 21.5 Q 4 22.62 5 26 L 10.5 25 L 11.5 26 Q 16.25 24.75 17.5 27 L 22.5 27 L 29 22.5 L 28 18.5 Q 30 17.37 29 14 L 24 12.5 L 27 7.5 L 23.5 4 L 19.5 4 L 17.5 6 L 17 5.5 L 17 1 L 10 1 L 9.5 4 L 7.5 1 L 0.5 1 L 0.5 0 Z " /><path fill="rgb(0,0,0)" stroke="rgb(0,0,0)" stroke-width="1" opacity="0" d="M 17.5 10 L 19 13 Q 15.48 14.13 17.5 10 Z " /><path fill="rgb(30,19,95)" stroke="rgb(30,19,95)" stroke-width="1" opacity="0.12941176470588237" d="M 2.5 1 L 6 1.5 L 2 2 L 2 15.5 L 3 16.5 Q 2 18 1 15.5 L 1 2.5 L 2.5 1 Z " /><path fill="rgb(30,19,95)" stroke="rgb(30,19,95)" stroke-width="1" opacity="0.12941176470588237" d="M 12.5 1 Q 15.5 0.5 16 2.5 L 16 15.5 L 14.5 17 L 13 16.5 L 15 16 L 15 2.5 Q 14.96 1.63 12 2 L 11.5 10 Q 8.75 8.75 11 7.5 Q 9.75 2.25 12.5 1 Z " /><path fill="rgb(30,19,95)" stroke="rgb(30,19,95)" stroke-width="1" opacity="0.12941176470588237" d="M 7.5 3 L 7.5 4 L 7.5 3 Z " /><path fill="rgb(30,19,95)" stroke="rgb(30,19,95)" stroke-width="1" opacity="0.12941176470588237" d="M 9.5 6 L 9.5 7 L 9.5 6 Z " /><path fill="rgb(30,19,95)" stroke="rgb(30,19,95)" stroke-width="1" opacity="0.12941176470588237" d="M 5.5 7 Q 8.25 8.25 6 9.5 L 6 15.5 L 4.5 17 L 5 15.5 L 5.5 7 Z " /><path fill="rgb(30,19,95)" stroke="rgb(30,19,95)" stroke-width="1" opacity="0.12941176470588237" d="M 7.5 10 L 7.5 11 L 7.5 10 Z " /><path fill="rgb(30,19,95)" stroke="rgb(30,19,95)" stroke-width="1" opacity="0.12941176470588237" d="M 8.5 12 L 8.5 13 L 8.5 12 Z " /><path fill="rgb(62,46,90)" stroke="rgb(62,46,90)" stroke-width="1" opacity="0.9882352941176471" d="M 10.5 13 L 12 13.5 L 10.5 14 L 10.5 13 Z " /><path fill="rgb(62,46,90)" stroke="rgb(62,46,90)" stroke-width="1" opacity="0.9882352941176471" d="M 12.5 15 L 12.5 16 L 12.5 15 Z " /><path fill="rgb(32,20,95)" stroke="rgb(32,20,95)" stroke-width="1" opacity="0.4745098039215686" d="M 6.5 2 L 6.5 3 L 6.5 2 Z " /><path fill="rgb(32,20,95)" stroke="rgb(32,20,95)" stroke-width="1" opacity="0.4745098039215686" d="M 7.5 4 Q 10 5 8.5 6 Q 6 5 7.5 4 Z " /><path fill="rgb(32,20,95)" stroke="rgb(32,20,95)" stroke-width="1" opacity="0.4745098039215686" d="M 5.5 6 L 5.5 7 L 5.5 6 Z " /><path fill="rgb(32,20,95)" stroke="rgb(32,20,95)" stroke-width="1" opacity="0.4745098039215686" d="M 9.5 7 L 9.5 8 L 9.5 7 Z " /><path fill="rgb(32,20,95)" stroke="rgb(32,20,95)" stroke-width="1" opacity="0.4745098039215686" d="M 7.5 9 L 7.5 10 L 7.5 9 Z " /><path fill="rgb(32,20,95)" stroke="rgb(32,20,95)" stroke-width="1" opacity="0.4745098039215686" d="M 11.5 10 L 11.5 11 L 11.5 10 Z " /><path fill="rgb(32,20,95)" stroke="rgb(32,20,95)" stroke-width="1" opacity="0.4745098039215686" d="M 8.5 11 L 8.5 12 L 8.5 11 Z " /><path fill="rgb(32,20,95)" stroke="rgb(32,20,95)" stroke-width="1" opacity="0.4745098039215686" d="M 3.5 16 L 3.5 17 L 3.5 16 Z " /><path fill="rgb(32,20,94)" stroke="rgb(32,20,94)" stroke-width="1" opacity="0" d="M 6.5 13 L 6.5 14 L 6.5 13 Z " /><path fill="rgb(32,20,94)" stroke="rgb(32,20,94)" stroke-width="1" opacity="0" d="M 16.5 13 L 16.5 14 L 16.5 13 Z " /><path fill="rgb(32,20,95)" stroke="rgb(32,20,95)" stroke-width="1" opacity="0" d="M 0 1 L 2 1.5 L 1 2.5 L 1 15.5 L 1.5 17 L 0 16.5 L 0 1 Z " /><path fill="rgb(32,20,95)" stroke="rgb(32,20,95)" stroke-width="1" opacity="0" d="M 6.5 1 L 9 2.5 L 9.5 4 L 10 1 L 12 1.5 L 11 2.5 L 10.5 8 L 6 1.5 L 6.5 1 Z " /><path fill="rgb(32,20,95)" stroke="rgb(32,20,95)" stroke-width="1" opacity="0" d="M 15.5 1 L 17 1.5 L 17 12.5 L 16 12.5 L 16 2.5 L 15.5 1 Z " /><path fill="rgb(32,20,95)" stroke="rgb(32,20,95)" stroke-width="1" opacity="0" d="M 6.5 9 L 8 13 L 6 13 L 6.5 9 Z " /><path fill="rgb(32,20,95)" stroke="rgb(32,20,95)" stroke-width="1" opacity="0" d="M 5.5 16 L 5.5 17 L 5.5 16 Z " /><path fill="rgb(31,19,95)" stroke="rgb(31,19,95)" stroke-width="1" opacity="0.9921568627450981" d="M 3.5 2 L 6 2.5 L 3.5 3 L 3.5 2 Z " /><path fill="rgb(31,19,95)" stroke="rgb(31,19,95)" stroke-width="1" opacity="0.9921568627450981" d="M 13.5 2 L 13.5 3 L 13.5 2 Z " /><path fill="rgb(31,19,95)" stroke="rgb(31,19,95)" stroke-width="1" opacity="0.9921568627450981" d="M 4.5 5 L 4.5 6 L 4.5 5 Z " /><path fill="rgb(31,19,95)" stroke="rgb(31,19,95)" stroke-width="1" opacity="0.9921568627450981" d="M 7.5 5 Q 9 6 6.5 7 Q 5 6 7.5 5 Z " /><path fill="rgb(31,19,95)" stroke="rgb(31,19,95)" stroke-width="1" opacity="0.9921568627450981" d="M 10.5 10 Q 12 11 9.5 12 Q 8 11 10.5 10 Z " /><path fill="rgb(31,19,95)" stroke="rgb(31,19,95)" stroke-width="1" opacity="0.9921568627450981" d="M 11.5 12 L 11.5 13 L 11.5 12 Z " /><path fill="rgb(31,19,95)" stroke="rgb(31,19,95)" stroke-width="1" opacity="0.9921568627450981" d="M 13.5 14 L 13.5 15 L 13.5 14 Z " /><path fill="rgb(32,20,95)" stroke="rgb(32,20,95)" stroke-width="1" opacity="1" d="M 3 3 Q 6 2.25 7 4.5 L 11 12.5 L 10 12.5 L 5.5 5 L 4 5.5 L 4 15.5 L 3 15.5 L 3 3 Z " /><path fill="rgb(32,20,95)" stroke="rgb(32,20,95)" stroke-width="1" opacity="1" d="M 13.5 3 L 14 13.5 Q 13 16 12 14.5 L 13 11.5 L 13.5 3 Z " /><path fill="rgb(32,20,95)" stroke="rgb(32,20,95)" stroke-width="1" opacity="0.8235294117647058" d="M 2.5 2 L 3 15.5 L 2 15.5 L 2.5 2 Z " /><path fill="rgb(32,20,95)" stroke="rgb(32,20,95)" stroke-width="1" opacity="0.8235294117647058" d="M 12.5 2 L 13 10.5 Q 12 13 11 11.5 L 12 10.5 L 12.5 2 Z " /><path fill="rgb(32,20,95)" stroke="rgb(32,20,95)" stroke-width="1" opacity="0.8235294117647058" d="M 14.5 2 L 14.5 3 L 14.5 2 Z " /><path fill="rgb(32,20,95)" stroke="rgb(32,20,95)" stroke-width="1" opacity="0.8235294117647058" d="M 8.5 6 L 8.5 7 L 8.5 6 Z " /><path fill="rgb(32,20,95)" stroke="rgb(32,20,95)" stroke-width="1" opacity="0.8235294117647058" d="M 6.5 7 L 6.5 8 L 6.5 7 Z " /><path fill="rgb(32,20,95)" stroke="rgb(32,20,95)" stroke-width="1" opacity="0.8235294117647058" d="M 10.5 9 L 10.5 10 L 10.5 9 Z " /><path fill="rgb(32,20,95)" stroke="rgb(32,20,95)" stroke-width="1" opacity="0.8235294117647058" d="M 9.5 12 L 9.5 13 L 9.5 12 Z " /><path fill="rgb(32,20,95)" stroke="rgb(32,20,95)" stroke-width="1" opacity="0.8235294117647058" d="M 14.5 15 L 14.5 16 L 14.5 15 Z " /><path fill="rgb(145,117,76)" stroke="rgb(145,117,76)" stroke-width="1" opacity="0.011764705882352941" d="M 17.5 13 L 19 13.5 L 17.5 14 L 17.5 13 Z " /><path fill="rgb(145,117,76)" stroke="rgb(145,117,76)" stroke-width="1" opacity="0.011764705882352941" d="M 25.5 13 L 25.5 14 L 25.5 13 Z " /><path fill="rgb(145,117,76)" stroke="rgb(145,117,76)" stroke-width="1" opacity="0.011764705882352941" d="M 20.5 16 L 20.5 17 L 20.5 16 Z " /><path fill="rgb(145,118,75)" stroke="rgb(145,118,75)" stroke-width="1" opacity="1" d="M 11.5 14 L 11.5 15 L 11.5 14 Z " /><path fill="rgb(154,126,73)" stroke="rgb(154,126,73)" stroke-width="1" opacity="0.09803921568627451" d="M 20.5 13 L 20.5 14 L 20.5 13 Z " /><path fill="rgb(154,126,73)" stroke="rgb(154,126,73)" stroke-width="1" opacity="0.09803921568627451" d="M 24.5 13 L 24.5 14 L 24.5 13 Z " /><path fill="rgb(154,126,73)" stroke="rgb(154,126,73)" stroke-width="1" opacity="0.09803921568627451" d="M 8.5 15 L 8.5 16 L 8.5 15 Z " /><path fill="rgb(154,126,73)" stroke="rgb(154,126,73)" stroke-width="1" opacity="0.09803921568627451" d="M 27.5 15 L 27.5 16 L 27.5 15 Z " /><path fill="rgb(154,126,73)" stroke="rgb(154,126,73)" stroke-width="1" opacity="0.09803921568627451" d="M 15.5 16 L 15.5 17 L 15.5 16 Z " /><path fill="rgb(33,21,94)" stroke="rgb(33,21,94)" stroke-width="1" opacity="0.8823529411764706" d="M 5.5 5 L 5.5 6 L 5.5 5 Z " /><path fill="rgb(33,21,94)" stroke="rgb(33,21,94)" stroke-width="1" opacity="0.8823529411764706" d="M 4.5 7 L 5 14.5 L 4 14.5 L 4.5 7 Z " /><path fill="rgb(33,21,94)" stroke="rgb(33,21,94)" stroke-width="1" opacity="0.8823529411764706" d="M 7.5 8 L 7.5 9 L 7.5 8 Z " /><path fill="rgb(33,21,94)" stroke="rgb(33,21,94)" stroke-width="1" opacity="0.8823529411764706" d="M 9.5 8 L 9.5 9 L 9.5 8 Z " /><path fill="rgb(33,21,94)" stroke="rgb(33,21,94)" stroke-width="1" opacity="0.8823529411764706" d="M 12.5 11 L 12.5 12 L 12.5 11 Z " /><path fill="rgb(162,132,72)" stroke="rgb(162,132,72)" stroke-width="1" opacity="0.9882352941176471" d="M 21.5 6 Q 26.5 8.5 21.5 11 Q 19.5 10.5 20 7.5 L 21.5 6 Z " /><path fill="rgb(162,132,72)" stroke="rgb(162,132,72)" stroke-width="1" opacity="0.9882352941176471" d="M 11.5 15 L 12 16.5 L 11 16.5 L 11.5 15 Z " /><path fill="rgb(162,132,72)" stroke="rgb(162,132,72)" stroke-width="1" opacity="0.9882352941176471" d="M 19.5 22 L 19.5 23 L 19.5 22 Z " /><path fill="rgb(162,132,71)" stroke="rgb(162,132,71)" stroke-width="1" opacity="0.00392156862745098" d="M 20.5 4 L 20.5 5 L 20.5 4 Z " /><path fill="rgb(162,132,71)" stroke="rgb(162,132,71)" stroke-width="1" opacity="0.00392156862745098" d="M 22.5 4 Q 25 5 23.5 6 Q 21 5 22.5 4 Z " /><path fill="rgb(162,132,71)" stroke="rgb(162,132,71)" stroke-width="1" opacity="0.00392156862745098" d="M 24.5 9 L 24.5 10 L 24.5 9 Z " /><path fill="rgb(162,132,71)" stroke="rgb(162,132,71)" stroke-width="1" opacity="0.00392156862745098" d="M 19.5 10 L 19.5 11 L 19.5 10 Z " /><path fill="rgb(162,132,71)" stroke="rgb(162,132,71)" stroke-width="1" opacity="0.00392156862745098" d="M 21.5 12 L 23 12.5 L 21.5 13 L 21.5 12 Z " /><path fill="rgb(162,132,71)" stroke="rgb(162,132,71)" stroke-width="1" opacity="0.00392156862745098" d="M 19.5 13 L 19.5 14 L 19.5 13 Z " /><path fill="rgb(162,132,71)" stroke="rgb(162,132,71)" stroke-width="1" opacity="0.00392156862745098" d="M 6.5 14 L 6.5 15 L 6.5 14 Z " /><path fill="rgb(162,132,71)" stroke="rgb(162,132,71)" stroke-width="1" opacity="0.00392156862745098" d="M 16.5 14 L 16.5 15 L 16.5 14 Z " /><path fill="rgb(162,132,71)" stroke="rgb(162,132,71)" stroke-width="1" opacity="0.00392156862745098" d="M 27.5 14 L 27.5 15 L 27.5 14 Z " /><path fill="rgb(162,132,71)" stroke="rgb(162,132,71)" stroke-width="1" opacity="0.00392156862745098" d="M 9.5 15 L 9.5 16 L 9.5 15 Z " /><path fill="rgb(162,132,71)" stroke="rgb(162,132,71)" stroke-width="1" opacity="0.00392156862745098" d="M 24.5 15 L 25 16.5 Q 24 19 23 17.5 L 24.5 15 Z " /><path fill="rgb(162,132,71)" stroke="rgb(162,132,71)" stroke-width="1" opacity="0.00392156862745098" d="M 6.5 18 L 8 18.5 L 6.5 19 L 6.5 18 Z " /><path fill="rgb(162,132,71)" stroke="rgb(162,132,71)" stroke-width="1" opacity="0.00392156862745098" d="M 19.5 18 L 19.5 19 L 19.5 18 Z " /><path fill="rgb(162,132,71)" stroke="rgb(162,132,71)" stroke-width="1" opacity="0.00392156862745098" d="M 26.5 18 L 26.5 19 L 26.5 18 Z " /><path fill="rgb(162,132,71)" stroke="rgb(162,132,71)" stroke-width="1" opacity="0.00392156862745098" d="M 10.5 19 L 10.5 20 L 10.5 19 Z " /><path fill="rgb(162,132,71)" stroke="rgb(162,132,71)" stroke-width="1" opacity="0.00392156862745098" d="M 7.5 20 L 7.5 21 L 7.5 20 Z " /><path fill="rgb(162,132,71)" stroke="rgb(162,132,71)" stroke-width="1" opacity="0.00392156862745098" d="M 23.5 20 L 23.5 21 L 23.5 20 Z " /><path fill="rgb(162,132,71)" stroke="rgb(162,132,71)" stroke-width="1" opacity="0.00392156862745098" d="M 9.5 21 L 9.5 22 L 9.5 21 Z " /><path fill="rgb(162,132,71)" stroke="rgb(162,132,71)" stroke-width="1" opacity="0.00392156862745098" d="M 21.5 21 Q 24 22 22.5 23 Q 20 22 21.5 21 Z " /><path fill="rgb(162,132,71)" stroke="rgb(162,132,71)" stroke-width="1" opacity="0.00392156862745098" d="M 27.5 21 L 27.5 22 L 27.5 21 Z " /><path fill="rgb(162,132,71)" stroke="rgb(162,132,71)" stroke-width="1" opacity="0.00392156862745098" d="M 17.5 22 L 17 23.5 L 16.5 25 L 16 23.5 L 17.5 22 Z " /><path fill="rgb(162,132,71)" stroke="rgb(162,132,71)" stroke-width="1" opacity="0.00392156862745098" d="M 26.5 23 Q 28 24 25.5 25 Q 24 24 26.5 23 Z " /><path fill="rgb(162,132,71)" stroke="rgb(162,132,71)" stroke-width="1" opacity="0.00392156862745098" d="M 8.5 24 Q 10 25 7.5 26 L 6 25.5 L 8.5 24 Z " /><path fill="rgb(162,132,71)" stroke="rgb(162,132,71)" stroke-width="1" opacity="0.00392156862745098" d="M 23.5 25 L 23.5 26 L 23.5 25 Z " /><path fill="rgb(162,132,71)" stroke="rgb(162,132,71)" stroke-width="1" opacity="0.00392156862745098" d="M 18.5 26 L 21 26.5 L 18.5 27 L 18.5 26 Z " /><path fill="rgb(161,131,72)" stroke="rgb(161,131,72)" stroke-width="1" opacity="0.6470588235294118" d="M 19.5 7 L 19.5 8 L 19.5 7 Z " /><path fill="rgb(161,131,72)" stroke="rgb(161,131,72)" stroke-width="1" opacity="0.6470588235294118" d="M 21.5 14 L 21.5 15 L 21.5 14 Z " /><path fill="rgb(161,131,72)" stroke="rgb(161,131,72)" stroke-width="1" opacity="0.6470588235294118" d="M 25 15 L 27 15.5 Q 26 18 25 16.5 L 25 15 Z " /><path fill="rgb(161,131,72)" stroke="rgb(161,131,72)" stroke-width="1" opacity="0.6470588235294118" d="M 21.5 16 L 21.5 17 L 21.5 16 Z " /><path fill="rgb(161,131,72)" stroke="rgb(161,131,72)" stroke-width="1" opacity="0.6470588235294118" d="M 9.5 18 L 9.5 19 L 9.5 18 Z " /><path fill="rgb(161,131,72)" stroke="rgb(161,131,72)" stroke-width="1" opacity="0.6470588235294118" d="M 24.5 18 L 24.5 19 L 24.5 18 Z " /><path fill="rgb(161,131,72)" stroke="rgb(161,131,72)" stroke-width="1" opacity="0.6470588235294118" d="M 11.5 20 L 11.5 21 L 11.5 20 Z " /><path fill="rgb(161,131,72)" stroke="rgb(161,131,72)" stroke-width="1" opacity="0.6470588235294118" d="M 14.5 20 L 14.5 21 L 14.5 20 Z " /><path fill="rgb(161,131,72)" stroke="rgb(161,131,72)" stroke-width="1" opacity="0.6470588235294118" d="M 8.5 21 L 8.5 22 L 8.5 21 Z " /><path fill="rgb(161,131,72)" stroke="rgb(161,131,72)" stroke-width="1" opacity="0.6470588235294118" d="M 20.5 22 L 20.5 23 L 20.5 22 Z " /><path fill="rgb(161,131,72)" stroke="rgb(161,131,72)" stroke-width="1" opacity="0.6470588235294118" d="M 7.5 23 L 7.5 24 L 7.5 23 Z " /><path fill="rgb(161,131,72)" stroke="rgb(161,131,72)" stroke-width="1" opacity="0.6470588235294118" d="M 18.5 24 L 18.5 25 L 18.5 24 Z " /><path fill="rgb(161,131,72)" stroke="rgb(161,131,72)" stroke-width="1" opacity="0.6470588235294118" d="M 23.5 24 L 23.5 25 L 23.5 24 Z " /><path fill="rgb(161,131,72)" stroke="rgb(161,131,72)" stroke-width="1" opacity="0.6470588235294118" d="M 20.5 25 L 20.5 26 L 20.5 25 Z " /><path fill="rgb(117,93,80)" stroke="rgb(117,93,80)" stroke-width="1" opacity="0.6666666666666666" d="M 9.5 13 Q 12 14 10.5 15 Q 8 14 9.5 13 Z " /><path fill="rgb(32,20,95)" stroke="rgb(32,20,95)" stroke-width="1" opacity="0.8705882352941177" d="M 6.5 3 L 6.5 4 L 6.5 3 Z " /><path fill="rgb(32,20,95)" stroke="rgb(32,20,95)" stroke-width="1" opacity="0.8705882352941177" d="M 14.5 3 L 15 14.5 Q 14 17 13 15.5 L 14 14.5 L 14.5 3 Z " /><path fill="rgb(32,20,95)" stroke="rgb(32,20,95)" stroke-width="1" opacity="0.8705882352941177" d="M 4.5 6 L 4.5 7 L 4.5 6 Z " /><path fill="rgb(32,20,95)" stroke="rgb(32,20,95)" stroke-width="1" opacity="0.8705882352941177" d="M 8.5 10 L 8.5 11 L 8.5 10 Z " /><path fill="rgb(32,20,95)" stroke="rgb(32,20,95)" stroke-width="1" opacity="0.8705882352941177" d="M 4.5 15 L 4.5 16 L 4.5 15 Z " /><path fill="rgb(157,128,72)" stroke="rgb(157,128,72)" stroke-width="1" opacity="0.3254901960784314" d="M 20.5 5 L 20.5 6 L 20.5 5 Z " /><path fill="rgb(157,128,72)" stroke="rgb(157,128,72)" stroke-width="1" opacity="0.3254901960784314" d="M 17.5 14 Q 19 15 16.5 16 Q 15 15 17.5 14 Z " /><path fill="rgb(157,128,72)" stroke="rgb(157,128,72)" stroke-width="1" opacity="0.3254901960784314" d="M 19.5 14 L 19.5 15 L 19.5 14 Z " /><path fill="rgb(157,128,72)" stroke="rgb(157,128,72)" stroke-width="1" opacity="0.3254901960784314" d="M 6.5 15 L 6.5 16 L 6.5 15 Z " /><path fill="rgb(157,128,72)" stroke="rgb(157,128,72)" stroke-width="1" opacity="0.3254901960784314" d="M 21.5 15 L 21.5 16 L 21.5 15 Z " /><path fill="rgb(157,128,72)" stroke="rgb(157,128,72)" stroke-width="1" opacity="0.3254901960784314" d="M 8.5 19 L 8.5 20 L 8.5 19 Z " /><path fill="rgb(157,128,72)" stroke="rgb(157,128,72)" stroke-width="1" opacity="0.3254901960784314" d="M 11.5 22 L 11.5 23 L 11.5 22 Z " /><path fill="rgb(157,128,72)" stroke="rgb(157,128,72)" stroke-width="1" opacity="0.3254901960784314" d="M 20.5 23 L 20.5 24 L 20.5 23 Z " /><path fill="rgb(157,128,72)" stroke="rgb(157,128,72)" stroke-width="1" opacity="0.3254901960784314" d="M 25.5 23 L 25.5 24 L 25.5 23 Z " /><path fill="rgb(153,124,73)" stroke="rgb(153,124,73)" stroke-width="1" opacity="0.6509803921568628" d="M 8.5 14 L 8.5 15 L 8.5 14 Z " /><path fill="rgb(153,124,73)" stroke="rgb(153,124,73)" stroke-width="1" opacity="0.6509803921568628" d="M 20.5 14 Q 22 15 19.5 16 Q 18 15 20.5 14 Z " /><path fill="rgb(162,132,72)" stroke="rgb(162,132,72)" stroke-width="1" opacity="0.5450980392156862" d="M 23.5 9 L 23.5 10 L 23.5 9 Z " /><path fill="rgb(162,132,72)" stroke="rgb(162,132,72)" stroke-width="1" opacity="0.5450980392156862" d="M 20.5 10 L 20.5 11 L 20.5 10 Z " /><path fill="rgb(162,132,72)" stroke="rgb(162,132,72)" stroke-width="1" opacity="0.5450980392156862" d="M 10.5 15 L 10.5 16 L 10.5 15 Z " /><path fill="rgb(162,132,72)" stroke="rgb(162,132,72)" stroke-width="1" opacity="0.5450980392156862" d="M 6.5 16 L 6.5 17 L 6.5 16 Z " /><path fill="rgb(162,132,72)" stroke="rgb(162,132,72)" stroke-width="1" opacity="0.5450980392156862" d="M 10.5 17 L 10.5 18 L 10.5 17 Z " /><path fill="rgb(162,132,72)" stroke="rgb(162,132,72)" stroke-width="1" opacity="0.5450980392156862" d="M 12.5 18 L 12.5 19 L 12.5 18 Z " /><path fill="rgb(162,132,72)" stroke="rgb(162,132,72)" stroke-width="1" opacity="0.5450980392156862" d="M 9.5 19 L 9.5 20 L 9.5 19 Z " /><path fill="rgb(162,132,72)" stroke="rgb(162,132,72)" stroke-width="1" opacity="0.5450980392156862" d="M 7.5 22 L 7.5 23 L 7.5 22 Z " /><path fill="rgb(162,132,72)" stroke="rgb(162,132,72)" stroke-width="1" opacity="0.5450980392156862" d="M 18.5 25 L 18.5 26 L 18.5 25 Z " /><path fill="rgb(162,132,72)" stroke="rgb(162,132,72)" stroke-width="1" opacity="0" d="M 19.5 4 L 20 5.5 L 18 8.5 L 21 12.5 L 19 13 Q 19.5 10.5 17 9.5 L 17 6.5 L 19.5 4 Z " /><path fill="rgb(162,132,72)" stroke="rgb(162,132,72)" stroke-width="1" opacity="0" d="M 23.5 4 L 27 8.5 L 23.5 13 L 23 11.5 Q 25.5 11 25 7.5 L 23 4.5 L 23.5 4 Z " /><path fill="rgb(162,132,72)" stroke="rgb(162,132,72)" stroke-width="1" opacity="0" d="M 26.5 13 L 26.5 14 L 26.5 13 Z " /><path fill="rgb(162,132,72)" stroke="rgb(162,132,72)" stroke-width="1" opacity="0" d="M 28.5 15 L 29 17.5 L 28 19.5 L 29 22.5 L 26.5 25 L 26 24.5 L 28 21.5 Q 26.25 20.75 27 17.5 L 28.5 15 Z " /><path fill="rgb(162,132,72)" stroke="rgb(162,132,72)" stroke-width="1" opacity="0" d="M 8.5 16 L 9 17.5 L 8 17.5 L 8.5 16 Z " /><path fill="rgb(162,132,72)" stroke="rgb(162,132,72)" stroke-width="1" opacity="0" d="M 5.5 17 L 6 19 L 8 19.5 L 5.5 26 L 5 22.5 L 6 19.5 Q 4.25 18.75 5.5 17 Z " /><path fill="rgb(162,132,72)" stroke="rgb(162,132,72)" stroke-width="1" opacity="0" d="M 13 17 L 15 17.5 L 13.5 20 L 13 17 Z " /><path fill="rgb(162,132,72)" stroke="rgb(162,132,72)" stroke-width="1" opacity="0" d="M 17 17 L 20 17.5 L 16 24.5 L 18 26.5 L 17.5 27 L 15 26 L 15 21.5 L 17 17 Z " /><path fill="rgb(162,132,72)" stroke="rgb(162,132,72)" stroke-width="1" opacity="0" d="M 10.5 20 L 12 25.5 L 10.5 25 L 8.5 26 L 9 24.5 L 10.5 20 Z " /><path fill="rgb(162,132,72)" stroke="rgb(162,132,72)" stroke-width="1" opacity="0" d="M 22.5 20 Q 25 21 23.5 22 Q 20.71 22.67 22.5 20 Z " /><path fill="rgb(162,132,72)" stroke="rgb(162,132,72)" stroke-width="1" opacity="0" d="M 24.5 25 L 24.5 26 L 24.5 25 Z " /><path fill="rgb(162,132,72)" stroke="rgb(162,132,72)" stroke-width="1" opacity="0" d="M 21.5 26 L 23 26.5 L 21.5 27 L 21.5 26 Z " /><path fill="rgb(162,132,72)" stroke="rgb(162,132,72)" stroke-width="1" opacity="0.8823529411764706" d="M 21.5 5 Q 24 6 22.5 7 Q 20 6 21.5 5 Z " /><path fill="rgb(162,132,72)" stroke="rgb(162,132,72)" stroke-width="1" opacity="0.8823529411764706" d="M 22.5 14 L 23 15.5 L 22 15.5 L 22.5 14 Z " /><path fill="rgb(162,132,72)" stroke="rgb(162,132,72)" stroke-width="1" opacity="0.8823529411764706" d="M 26.5 16 Q 28 17 25.5 18 Q 24 17 26.5 16 Z " /><path fill="rgb(162,132,72)" stroke="rgb(162,132,72)" stroke-width="1" opacity="0.8823529411764706" d="M 11.5 17 L 11.5 18 L 11.5 17 Z " /><path fill="rgb(162,132,72)" stroke="rgb(162,132,72)" stroke-width="1" opacity="0.8823529411764706" d="M 21.5 17 L 22 18.5 L 20.5 21 L 20 19.5 L 21.5 17 Z " /><path fill="rgb(162,132,72)" stroke="rgb(162,132,72)" stroke-width="1" opacity="0.8823529411764706" d="M 25.5 20 L 26 22.5 Q 25 25 24 23.5 L 25.5 20 Z " /><path fill="rgb(162,132,72)" stroke="rgb(162,132,72)" stroke-width="1" opacity="0.8823529411764706" d="M 12.5 22 L 13 23.5 L 12 23.5 L 12.5 22 Z " /><path fill="rgb(162,132,72)" stroke="rgb(162,132,72)" stroke-width="1" opacity="0.8823529411764706" d="M 22.5 24 L 22.5 25 L 22.5 24 Z " /><path fill="rgb(161,131,72)" stroke="rgb(161,131,72)" stroke-width="1" opacity="0.403921568627451" d="M 22.5 5 L 22.5 6 L 22.5 5 Z " /><path fill="rgb(161,131,72)" stroke="rgb(161,131,72)" stroke-width="1" opacity="0.403921568627451" d="M 19.5 9 L 19.5 10 L 19.5 9 Z " /><path fill="rgb(161,131,72)" stroke="rgb(161,131,72)" stroke-width="1" opacity="0.403921568627451" d="M 18.5 15 L 18.5 16 L 18.5 15 Z " /><path fill="rgb(161,131,72)" stroke="rgb(161,131,72)" stroke-width="1" opacity="0.403921568627451" d="M 7.5 16 Q 9 17 6.5 18 Q 5 17 7.5 16 Z " /><path fill="rgb(161,131,72)" stroke="rgb(161,131,72)" stroke-width="1" opacity="0.403921568627451" d="M 12.5 16 L 13 17.5 L 12 17.5 L 12.5 16 Z " /><path fill="rgb(161,131,72)" stroke="rgb(161,131,72)" stroke-width="1" opacity="0.403921568627451" d="M 9.5 17 L 9.5 18 L 9.5 17 Z " /><path fill="rgb(161,131,72)" stroke="rgb(161,131,72)" stroke-width="1" opacity="0.403921568627451" d="M 15.5 17 L 17 17.5 L 15.5 18 L 15.5 17 Z " /><path fill="rgb(161,131,72)" stroke="rgb(161,131,72)" stroke-width="1" opacity="0.403921568627451" d="M 22.5 17 L 23 18.5 L 22 18.5 L 22.5 17 Z " /><path fill="rgb(161,131,72)" stroke="rgb(161,131,72)" stroke-width="1" opacity="0.403921568627451" d="M 24.5 17 L 24.5 18 L 24.5 17 Z " /><path fill="rgb(161,131,72)" stroke="rgb(161,131,72)" stroke-width="1" opacity="0.403921568627451" d="M 26.5 17 L 26.5 18 L 26.5 17 Z " /><path fill="rgb(161,131,72)" stroke="rgb(161,131,72)" stroke-width="1" opacity="0.403921568627451" d="M 15.5 19 L 15.5 20 L 15.5 19 Z " /><path fill="rgb(161,131,72)" stroke="rgb(161,131,72)" stroke-width="1" opacity="0.403921568627451" d="M 13.5 21 L 13.5 22 L 13.5 21 Z " /><path fill="rgb(161,131,72)" stroke="rgb(161,131,72)" stroke-width="1" opacity="0.403921568627451" d="M 8.5 22 L 8.5 23 L 8.5 22 Z " /><path fill="rgb(161,131,72)" stroke="rgb(161,131,72)" stroke-width="1" opacity="0.403921568627451" d="M 18.5 22 Q 20 23 17.5 24 Q 16 23 18.5 22 Z " /><path fill="rgb(161,131,72)" stroke="rgb(161,131,72)" stroke-width="1" opacity="0.403921568627451" d="M 22.5 23 L 22.5 24 L 22.5 23 Z " /><path fill="rgb(161,131,72)" stroke="rgb(161,131,72)" stroke-width="1" opacity="0.403921568627451" d="M 19.5 24 L 19.5 25 L 19.5 24 Z " /><path fill="rgb(161,131,72)" stroke="rgb(161,131,72)" stroke-width="1" opacity="0.403921568627451" d="M 13.5 25 L 13.5 26 L 13.5 25 Z " /><path fill="rgb(160,130,72)" stroke="rgb(160,130,72)" stroke-width="1" opacity="0.16470588235294117" d="M 19.5 6 L 19.5 7 L 19.5 6 Z " /><path fill="rgb(160,130,72)" stroke="rgb(160,130,72)" stroke-width="1" opacity="0.16470588235294117" d="M 21.5 13 L 21.5 14 L 21.5 13 Z " /><path fill="rgb(160,130,72)" stroke="rgb(160,130,72)" stroke-width="1" opacity="0.16470588235294117" d="M 18.5 14 L 18.5 15 L 18.5 14 Z " /><path fill="rgb(160,130,72)" stroke="rgb(160,130,72)" stroke-width="1" opacity="0.16470588235294117" d="M 26.5 14 L 26.5 15 L 26.5 14 Z " /><path fill="rgb(160,130,72)" stroke="rgb(160,130,72)" stroke-width="1" opacity="0.16470588235294117" d="M 7.5 17 L 7.5 18 L 7.5 17 Z " /><path fill="rgb(160,130,72)" stroke="rgb(160,130,72)" stroke-width="1" opacity="0.16470588235294117" d="M 19.5 19 L 19.5 20 L 19.5 19 Z " /><path fill="rgb(160,130,72)" stroke="rgb(160,130,72)" stroke-width="1" opacity="0.16470588235294117" d="M 21.5 20 L 21.5 21 L 21.5 20 Z " /><path fill="rgb(160,130,72)" stroke="rgb(160,130,72)" stroke-width="1" opacity="0.16470588235294117" d="M 24.5 20 L 25 21.5 L 24 21.5 L 24.5 20 Z " /><path fill="rgb(162,132,72)" stroke="rgb(162,132,72)" stroke-width="1" opacity="0.23529411764705882" d="M 21.5 4 L 21.5 5 L 21.5 4 Z " /><path fill="rgb(162,132,72)" stroke="rgb(162,132,72)" stroke-width="1" opacity="0.23529411764705882" d="M 23.5 6 L 23.5 7 L 23.5 6 Z " /><path fill="rgb(162,132,72)" stroke="rgb(162,132,72)" stroke-width="1" opacity="0.23529411764705882" d="M 24.5 8 L 24.5 9 L 24.5 8 Z " /><path fill="rgb(162,132,72)" stroke="rgb(162,132,72)" stroke-width="1" opacity="0.23529411764705882" d="M 22.5 11 L 22.5 12 L 22.5 11 Z " /><path fill="rgb(162,132,72)" stroke="rgb(162,132,72)" stroke-width="1" opacity="0.23529411764705882" d="M 22.5 13 L 24 13.5 L 22.5 14 L 22.5 13 Z " /><path fill="rgb(162,132,72)" stroke="rgb(162,132,72)" stroke-width="1" opacity="0.23529411764705882" d="M 18.5 16 L 18.5 17 L 18.5 16 Z " /><path fill="rgb(162,132,72)" stroke="rgb(162,132,72)" stroke-width="1" opacity="0.23529411764705882" d="M 20.5 17 L 20.5 18 L 20.5 17 Z " /><path fill="rgb(162,132,72)" stroke="rgb(162,132,72)" stroke-width="1" opacity="0.23529411764705882" d="M 10.5 18 L 10.5 19 L 10.5 18 Z " /><path fill="rgb(162,132,72)" stroke="rgb(162,132,72)" stroke-width="1" opacity="0.23529411764705882" d="M 25.5 18 L 25.5 19 L 25.5 18 Z " /><path fill="rgb(162,132,72)" stroke="rgb(162,132,72)" stroke-width="1" opacity="0.23529411764705882" d="M 9.5 20 L 9.5 21 L 9.5 20 Z " /><path fill="rgb(162,132,72)" stroke="rgb(162,132,72)" stroke-width="1" opacity="0.23529411764705882" d="M 7.5 21 L 7.5 22 L 7.5 21 Z " /><path fill="rgb(162,132,72)" stroke="rgb(162,132,72)" stroke-width="1" opacity="0.23529411764705882" d="M 14.5 22 L 14.5 23 L 14.5 22 Z " /><path fill="rgb(162,132,72)" stroke="rgb(162,132,72)" stroke-width="1" opacity="0.23529411764705882" d="M 21.5 22 L 22 23.5 L 21 23.5 L 21.5 22 Z " /><path fill="rgb(162,132,72)" stroke="rgb(162,132,72)" stroke-width="1" opacity="0.23529411764705882" d="M 26.5 22 L 26.5 23 L 26.5 22 Z " /><path fill="rgb(162,132,72)" stroke="rgb(162,132,72)" stroke-width="1" opacity="0.23529411764705882" d="M 6.5 24 L 6.5 25 L 6.5 24 Z " /><path fill="rgb(162,132,72)" stroke="rgb(162,132,72)" stroke-width="1" opacity="0.23529411764705882" d="M 24.5 24 L 24.5 25 L 24.5 24 Z " /><path fill="rgb(162,132,72)" stroke="rgb(162,132,72)" stroke-width="1" opacity="0.23529411764705882" d="M 14.5 25 L 14.5 26 L 14.5 25 Z " /><path fill="rgb(162,132,72)" stroke="rgb(162,132,72)" stroke-width="1" opacity="0.23529411764705882" d="M 22.5 25 L 22.5 26 L 22.5 25 Z " /><path fill="rgb(161,131,72)" stroke="rgb(161,131,72)" stroke-width="1" opacity="0.5254901960784314" d="M 25.5 14 L 25.5 15 L 25.5 14 Z " /><path fill="rgb(161,131,72)" stroke="rgb(161,131,72)" stroke-width="1" opacity="0.5254901960784314" d="M 26.5 20 L 26.5 21 L 26.5 20 Z " /><path fill="rgb(161,131,72)" stroke="rgb(161,131,72)" stroke-width="1" opacity="0.5254901960784314" d="M 11.5 21 L 11.5 22 L 11.5 21 Z " /><path fill="rgb(161,131,72)" stroke="rgb(161,131,72)" stroke-width="1" opacity="0.5254901960784314" d="M 14.5 21 L 14.5 22 L 14.5 21 Z " /><path fill="rgb(161,131,72)" stroke="rgb(161,131,72)" stroke-width="1" opacity="0.5254901960784314" d="M 7.5 24 L 7.5 25 L 7.5 24 Z " /><path fill="rgb(161,131,72)" stroke="rgb(161,131,72)" stroke-width="1" opacity="0.5254901960784314" d="M 20.5 24 L 20.5 25 L 20.5 24 Z " /><path fill="rgb(160,130,72)" stroke="rgb(160,130,72)" stroke-width="1" opacity="0.4745098039215686" d="M 8.5 13 L 8.5 14 L 8.5 13 Z " /><path fill="rgb(160,130,72)" stroke="rgb(160,130,72)" stroke-width="1" opacity="0.4745098039215686" d="M 24.5 14 Q 26 15 23.5 16 Q 22 15 24.5 14 Z " /><path fill="rgb(160,130,72)" stroke="rgb(160,130,72)" stroke-width="1" opacity="0.4745098039215686" d="M 17.5 15 L 17.5 16 L 17.5 15 Z " /><path fill="rgb(160,130,72)" stroke="rgb(160,130,72)" stroke-width="1" opacity="0.4745098039215686" d="M 14.5 19 L 14.5 20 L 14.5 19 Z " /><path fill="rgb(160,130,72)" stroke="rgb(160,130,72)" stroke-width="1" opacity="0.4745098039215686" d="M 25.5 19 L 25.5 20 L 25.5 19 Z " /><path fill="rgb(160,130,72)" stroke="rgb(160,130,72)" stroke-width="1" opacity="0.4745098039215686" d="M 19.5 20 L 19.5 21 L 19.5 20 Z " /><path fill="rgb(160,130,72)" stroke="rgb(160,130,72)" stroke-width="1" opacity="0.4745098039215686" d="M 12.5 24 L 12.5 25 L 12.5 24 Z " /><path fill="rgb(160,130,72)" stroke="rgb(160,130,72)" stroke-width="1" opacity="0.4745098039215686" d="M 21.5 25 L 21.5 26 L 21.5 25 Z " /><path fill="rgb(162,132,72)" stroke="rgb(162,132,72)" stroke-width="1" opacity="0.10588235294117647" d="M 18.5 7 L 19 8.5 L 18 8.5 L 18.5 7 Z " /><path fill="rgb(162,132,72)" stroke="rgb(162,132,72)" stroke-width="1" opacity="0.10588235294117647" d="M 24.5 7 L 24.5 8 L 24.5 7 Z " /><path fill="rgb(162,132,72)" stroke="rgb(162,132,72)" stroke-width="1" opacity="0.10588235294117647" d="M 23.5 10 L 23.5 11 L 23.5 10 Z " /><path fill="rgb(162,132,72)" stroke="rgb(162,132,72)" stroke-width="1" opacity="0.10588235294117647" d="M 20.5 11 L 20.5 12 L 20.5 11 Z " /><path fill="rgb(162,132,72)" stroke="rgb(162,132,72)" stroke-width="1" opacity="0.10588235294117647" d="M 7.5 13 L 7.5 14 L 7.5 13 Z " /><path fill="rgb(162,132,72)" stroke="rgb(162,132,72)" stroke-width="1" opacity="0.10588235294117647" d="M 9.5 16 L 9.5 17 L 9.5 16 Z " /><path fill="rgb(162,132,72)" stroke="rgb(162,132,72)" stroke-width="1" opacity="0.10588235294117647" d="M 17.5 16 L 17.5 17 L 17.5 16 Z " /><path fill="rgb(162,132,72)" stroke="rgb(162,132,72)" stroke-width="1" opacity="0.10588235294117647" d="M 19.5 16 L 19.5 17 L 19.5 16 Z " /><path fill="rgb(162,132,72)" stroke="rgb(162,132,72)" stroke-width="1" opacity="0.10588235294117647" d="M 23.5 16 L 23.5 17 L 23.5 16 Z " /><path fill="rgb(162,132,72)" stroke="rgb(162,132,72)" stroke-width="1" opacity="0.10588235294117647" d="M 27.5 16 L 27.5 17 L 27.5 16 Z " /><path fill="rgb(162,132,72)" stroke="rgb(162,132,72)" stroke-width="1" opacity="0.10588235294117647" d="M 8.5 18 L 8.5 19 L 8.5 18 Z " /><path fill="rgb(162,132,72)" stroke="rgb(162,132,72)" stroke-width="1" opacity="0.10588235294117647" d="M 14.5 18 L 14.5 19 L 14.5 18 Z " /><path fill="rgb(162,132,72)" stroke="rgb(162,132,72)" stroke-width="1" opacity="0.10588235294117647" d="M 16.5 18 L 16.5 19 L 16.5 18 Z " /><path fill="rgb(162,132,72)" stroke="rgb(162,132,72)" stroke-width="1" opacity="0.10588235294117647" d="M 26.5 19 L 26.5 20 L 26.5 19 Z " /><path fill="rgb(162,132,72)" stroke="rgb(162,132,72)" stroke-width="1" opacity="0.10588235294117647" d="M 13.5 20 L 13.5 21 L 13.5 20 Z " /><path fill="rgb(162,132,72)" stroke="rgb(162,132,72)" stroke-width="1" opacity="0.10588235294117647" d="M 15.5 20 L 15.5 21 L 15.5 20 Z " /><path fill="rgb(162,132,72)" stroke="rgb(162,132,72)" stroke-width="1" opacity="0.10588235294117647" d="M 18.5 21 L 18.5 22 L 18.5 21 Z " /><path fill="rgb(162,132,72)" stroke="rgb(162,132,72)" stroke-width="1" opacity="0.10588235294117647" d="M 23.5 22 L 23.5 23 L 23.5 22 Z " /><path fill="rgb(162,132,72)" stroke="rgb(162,132,72)" stroke-width="1" opacity="0.10588235294117647" d="M 6.5 23 L 6.5 24 L 6.5 23 Z " /><path fill="rgb(162,132,72)" stroke="rgb(162,132,72)" stroke-width="1" opacity="0.10588235294117647" d="M 8.5 23 L 8.5 24 L 8.5 23 Z " /><path fill="rgb(162,132,72)" stroke="rgb(162,132,72)" stroke-width="1" opacity="0.10588235294117647" d="M 11.5 23 L 11.5 24 L 11.5 23 Z " /><path fill="rgb(162,132,72)" stroke="rgb(162,132,72)" stroke-width="1" opacity="0.10588235294117647" d="M 14.5 23 L 15 24.5 L 14 24.5 L 14.5 23 Z " /><path fill="rgb(162,132,72)" stroke="rgb(162,132,72)" stroke-width="1" opacity="0.10588235294117647" d="M 12.5 25 L 12.5 26 L 12.5 25 Z " /><path fill="rgb(162,132,72)" stroke="rgb(162,132,72)" stroke-width="1" opacity="0.10588235294117647" d="M 17.5 25 L 17.5 26 L 17.5 25 Z " /><path fill="rgb(162,132,72)" stroke="rgb(162,132,72)" stroke-width="1" opacity="0.5843137254901961" d="M 21.5 11 L 21.5 12 L 21.5 11 Z " /><path fill="rgb(162,132,72)" stroke="rgb(162,132,72)" stroke-width="1" opacity="0.5843137254901961" d="M 7.5 14 L 7.5 15 L 7.5 14 Z " /><path fill="rgb(162,132,72)" stroke="rgb(162,132,72)" stroke-width="1" opacity="0.5843137254901961" d="M 16.5 16 L 16.5 17 L 16.5 16 Z " /><path fill="rgb(162,132,72)" stroke="rgb(162,132,72)" stroke-width="1" opacity="0.5843137254901961" d="M 15.5 18 L 15.5 19 L 15.5 18 Z " /><path fill="rgb(162,132,72)" stroke="rgb(162,132,72)" stroke-width="1" opacity="0.5843137254901961" d="M 20.5 18 L 20.5 19 L 20.5 18 Z " /><path fill="rgb(162,132,72)" stroke="rgb(162,132,72)" stroke-width="1" opacity="0.5843137254901961" d="M 23.5 18 Q 26 19 24.5 20 L 22 19.5 L 23.5 18 Z " /><path fill="rgb(162,132,72)" stroke="rgb(162,132,72)" stroke-width="1" opacity="0.5843137254901961" d="M 12.5 19 L 12.5 20 L 12.5 19 Z " /><path fill="rgb(162,132,72)" stroke="rgb(162,132,72)" stroke-width="1" opacity="0.5843137254901961" d="M 8.5 20 L 8.5 21 L 8.5 20 Z " /><path fill="rgb(162,132,72)" stroke="rgb(162,132,72)" stroke-width="1" opacity="0.5843137254901961" d="M 20.5 21 L 20.5 22 L 20.5 21 Z " /><path fill="rgb(162,132,72)" stroke="rgb(162,132,72)" stroke-width="1" opacity="0.5843137254901961" d="M 26.5 21 L 26.5 22 L 26.5 21 Z " /><path fill="rgb(162,132,72)" stroke="rgb(162,132,72)" stroke-width="1" opacity="0.5843137254901961" d="M 19.5 23 L 19.5 24 L 19.5 23 Z " /><path fill="rgb(162,132,72)" stroke="rgb(162,132,72)" stroke-width="1" opacity="0.5843137254901961" d="M 17.5 24 L 17.5 25 L 17.5 24 Z " /><path fill="rgb(161,132,72)" stroke="rgb(161,132,72)" stroke-width="1" opacity="0.7803921568627451" d="M 20.5 6 L 20.5 7 L 20.5 6 Z " /><path fill="rgb(161,132,72)" stroke="rgb(161,132,72)" stroke-width="1" opacity="0.7803921568627451" d="M 23.5 7 L 23.5 8 L 23.5 7 Z " /><path fill="rgb(161,132,72)" stroke="rgb(161,132,72)" stroke-width="1" opacity="0.7803921568627451" d="M 19.5 8 L 19.5 9 L 19.5 8 Z " /><path fill="rgb(161,132,72)" stroke="rgb(161,132,72)" stroke-width="1" opacity="0.7803921568627451" d="M 22.5 10 L 22.5 11 L 22.5 10 Z " /><path fill="rgb(161,132,72)" stroke="rgb(161,132,72)" stroke-width="1" opacity="0.7803921568627451" d="M 23.5 14 L 23.5 15 L 23.5 14 Z " /><path fill="rgb(161,132,72)" stroke="rgb(161,132,72)" stroke-width="1" opacity="0.7803921568627451" d="M 7.5 15 L 7.5 16 L 7.5 15 Z " /><path fill="rgb(161,132,72)" stroke="rgb(161,132,72)" stroke-width="1" opacity="0.7803921568627451" d="M 10.5 16 L 10.5 17 L 10.5 16 Z " /><path fill="rgb(161,132,72)" stroke="rgb(161,132,72)" stroke-width="1" opacity="0.7803921568627451" d="M 22.5 16 L 22.5 17 L 22.5 16 Z " /><path fill="rgb(161,132,72)" stroke="rgb(161,132,72)" stroke-width="1" opacity="0.7803921568627451" d="M 11.5 18 L 14 22.5 L 14 24.5 L 13 24.5 L 13 22.5 L 11 19.5 L 11.5 18 Z " /><path fill="rgb(161,132,72)" stroke="rgb(161,132,72)" stroke-width="1" opacity="0.7803921568627451" d="M 21.5 19 L 21.5 20 L 21.5 19 Z " /><path fill="rgb(161,132,72)" stroke="rgb(161,132,72)" stroke-width="1" opacity="0.7803921568627451" d="M 19.5 21 L 19.5 22 L 19.5 21 Z " /><path fill="rgb(161,132,72)" stroke="rgb(161,132,72)" stroke-width="1" opacity="0.7803921568627451" d="M 24.5 22 Q 26 23 23.5 24 Q 22 23 24.5 22 Z " /><path fill="rgb(161,132,72)" stroke="rgb(161,132,72)" stroke-width="1" opacity="0.7803921568627451" d="M 18.5 23 L 18.5 24 L 18.5 23 Z " /><path fill="rgb(161,132,72)" stroke="rgb(161,132,72)" stroke-width="1" opacity="0.7803921568627451" d="M 21.5 24 L 21.5 25 L 21.5 24 Z " /><path fill="rgb(161,132,72)" stroke="rgb(161,132,72)" stroke-width="1" opacity="0.7803921568627451" d="M 19.5 25 L 19.5 26 L 19.5 25 Z " /><path fill="rgb(119,95,79)" stroke="rgb(119,95,79)" stroke-width="1" opacity="0.1607843137254902" d="M 9.5 14 L 9.5 15 L 9.5 14 Z " /><path fill="rgb(119,95,79)" stroke="rgb(119,95,79)" stroke-width="1" opacity="0.1607843137254902" d="M 28.5 14 L 28.5 15 L 28.5 14 Z " /><path fill="rgb(119,95,79)" stroke="rgb(119,95,79)" stroke-width="1" opacity="0.1607843137254902" d="M 20.5 15 L 20.5 16 L 20.5 15 Z " /></svg>