<svg width="128" height="128" version="1.1" xmlns="http://www.w3.org/2000/svg" desc="Created with imagetracer.js version 1.2.6" ><path fill="rgb(0,0,0)" stroke="rgb(0,0,0)" stroke-width="1" opacity="1" d="M 0 0 L 128 0 L 128 128 L 0 128 L 0 0 Z M 24 43 L 18 49 L 9 62 L 9 64 L 7 67 L 7 72 L 6 73 Q 8 74 7 79 L 15 85 L 30 85 Q 31 82 36 83 L 46 78 L 48 78 L 50 76 L 57 74 L 62 71 L 64 71 L 66 69 L 68 69 L 75 65 L 80 64 L 86 60 L 88 60 L 93 57 L 96 57 L 98 55 L 100 55 L 102 53 L 104 53 L 111 49 L 116 48 L 118 46 L 122 45 L 122 43 L 118 45 L 114 45 L 111 47 L 103 48 L 85 54 L 77 55 L 74 57 L 70 57 L 52 63 L 44 64 L 41 66 Q 36 65 35 67 L 26 66 L 21 62 L 20 59 L 21 51 L 25 44 L 24 43 Z " /><path fill="rgb(217,217,217)" stroke="rgb(217,217,217)" stroke-width="1" opacity="1" d="M 22.5 45 L 23 45.5 L 21 47.5 L 21.5 49 L 20.5 48 L 18.5 50 L 18 49.5 L 22.5 45 Z " /><path fill="rgb(217,217,217)" stroke="rgb(217,217,217)" stroke-width="1" opacity="1" d="M 113.5 46 L 114 47.5 L 113 47.5 L 113.5 46 Z " /><path fill="rgb(217,217,217)" stroke="rgb(217,217,217)" stroke-width="1" opacity="1" d="M 115.5 46 L 115.5 47 L 115.5 46 Z " /><path fill="rgb(217,217,217)" stroke="rgb(217,217,217)" stroke-width="1" opacity="1" d="M 110.5 47 L 111 48.5 L 110 48.5 L 110.5 47 Z " /><path fill="rgb(217,217,217)" stroke="rgb(217,217,217)" stroke-width="1" opacity="1" d="M 105.5 48 L 107 48.5 L 105.5 49 L 105.5 48 Z " /><path fill="rgb(217,217,217)" stroke="rgb(217,217,217)" stroke-width="1" opacity="1" d="M 101.5 49 L 101.5 50 L 101.5 49 Z " /><path fill="rgb(217,217,217)" stroke="rgb(217,217,217)" stroke-width="1" opacity="1" d="M 108.5 49 L 108.5 50 L 108.5 49 Z " /><path fill="rgb(217,217,217)" stroke="rgb(217,217,217)" stroke-width="1" opacity="1" d="M 20.5 50 L 20.5 51 L 20.5 50 Z " /><path fill="rgb(217,217,217)" stroke="rgb(217,217,217)" stroke-width="1" opacity="1" d="M 98.5 50 L 100 50.5 L 98.5 51 L 98.5 50 Z " /><path fill="rgb(217,217,217)" stroke="rgb(217,217,217)" stroke-width="1" opacity="1" d="M 105.5 50 Q 107 51 104.5 52 Q 103 51 105.5 50 Z " /><path fill="rgb(217,217,217)" stroke="rgb(217,217,217)" stroke-width="1" opacity="1" d="M 94.5 51 L 94.5 52 L 94.5 51 Z " /><path fill="rgb(217,217,217)" stroke="rgb(217,217,217)" stroke-width="1" opacity="1" d="M 16.5 52 L 16.5 53 L 16.5 52 Z " /><path fill="rgb(217,217,217)" stroke="rgb(217,217,217)" stroke-width="1" opacity="1" d="M 91.5 52 L 93 52.5 L 91.5 53 L 91.5 52 Z " /><path fill="rgb(217,217,217)" stroke="rgb(217,217,217)" stroke-width="1" opacity="1" d="M 101.5 52 L 101.5 53 L 101.5 52 Z " /><path fill="rgb(217,217,217)" stroke="rgb(217,217,217)" stroke-width="1" opacity="1" d="M 87.5 53 L 87.5 54 L 87.5 53 Z " /><path fill="rgb(217,217,217)" stroke="rgb(217,217,217)" stroke-width="1" opacity="1" d="M 99.5 53 L 99.5 54 L 99.5 53 Z " /><path fill="rgb(217,217,217)" stroke="rgb(217,217,217)" stroke-width="1" opacity="1" d="M 84.5 54 L 84.5 55 L 84.5 54 Z " /><path fill="rgb(217,217,217)" stroke="rgb(217,217,217)" stroke-width="1" opacity="1" d="M 97.5 54 L 97.5 55 L 97.5 54 Z " /><path fill="rgb(217,217,217)" stroke="rgb(217,217,217)" stroke-width="1" opacity="1" d="M 19.5 55 L 20 58.5 L 19 58.5 L 19.5 55 Z " /><path fill="rgb(217,217,217)" stroke="rgb(217,217,217)" stroke-width="1" opacity="1" d="M 79.5 55 L 81 55.5 L 79.5 56 L 79.5 55 Z " /><path fill="rgb(217,217,217)" stroke="rgb(217,217,217)" stroke-width="1" opacity="1" d="M 94.5 55 L 94.5 56 L 94.5 55 Z " /><path fill="rgb(217,217,217)" stroke="rgb(217,217,217)" stroke-width="1" opacity="1" d="M 77.5 56 L 77.5 57 L 77.5 56 Z " /><path fill="rgb(217,217,217)" stroke="rgb(217,217,217)" stroke-width="1" opacity="1" d="M 92.5 56 L 92.5 57 L 92.5 56 Z " /><path fill="rgb(217,217,217)" stroke="rgb(217,217,217)" stroke-width="1" opacity="1" d="M 73.5 57 L 73.5 58 L 73.5 57 Z " /><path fill="rgb(217,217,217)" stroke="rgb(217,217,217)" stroke-width="1" opacity="1" d="M 89.5 57 Q 91 58 88.5 59 Q 87 58 89.5 57 Z " /><path fill="rgb(217,217,217)" stroke="rgb(217,217,217)" stroke-width="1" opacity="1" d="M 69.5 58 L 69.5 59 L 69.5 58 Z " /><path fill="rgb(217,217,217)" stroke="rgb(217,217,217)" stroke-width="1" opacity="1" d="M 65.5 59 L 67 59.5 L 65.5 60 L 65.5 59 Z " /><path fill="rgb(217,217,217)" stroke="rgb(217,217,217)" stroke-width="1" opacity="1" d="M 85.5 59 L 85.5 60 L 85.5 59 Z " /><path fill="rgb(217,217,217)" stroke="rgb(217,217,217)" stroke-width="1" opacity="1" d="M 62.5 60 L 62.5 61 L 62.5 60 Z " /><path fill="rgb(217,217,217)" stroke="rgb(217,217,217)" stroke-width="1" opacity="1" d="M 83.5 60 L 83.5 61 L 83.5 60 Z " /><path fill="rgb(217,217,217)" stroke="rgb(217,217,217)" stroke-width="1" opacity="1" d="M 10.5 61 L 10.5 62 L 10.5 61 Z " /><path fill="rgb(217,217,217)" stroke="rgb(217,217,217)" stroke-width="1" opacity="1" d="M 58.5 61 L 60 61.5 L 58.5 62 L 58.5 61 Z " /><path fill="rgb(217,217,217)" stroke="rgb(217,217,217)" stroke-width="1" opacity="1" d="M 81.5 61 L 81.5 62 L 81.5 61 Z " /><path fill="rgb(217,217,217)" stroke="rgb(217,217,217)" stroke-width="1" opacity="1" d="M 20.5 62 L 24 65.5 L 23.5 66 L 20 62.5 L 20.5 62 Z " /><path fill="rgb(217,217,217)" stroke="rgb(217,217,217)" stroke-width="1" opacity="1" d="M 54.5 62 L 54.5 63 L 54.5 62 Z " /><path fill="rgb(217,217,217)" stroke="rgb(217,217,217)" stroke-width="1" opacity="1" d="M 79.5 62 L 79.5 63 L 79.5 62 Z " /><path fill="rgb(217,217,217)" stroke="rgb(217,217,217)" stroke-width="1" opacity="1" d="M 51.5 63 L 53 63.5 L 51.5 64 L 51.5 63 Z " /><path fill="rgb(217,217,217)" stroke="rgb(217,217,217)" stroke-width="1" opacity="1" d="M 47.5 64 L 47.5 65 L 47.5 64 Z " /><path fill="rgb(217,217,217)" stroke="rgb(217,217,217)" stroke-width="1" opacity="1" d="M 73.5 64 L 75 64.5 L 72.5 66 Q 71 65 73.5 64 Z " /><path fill="rgb(217,217,217)" stroke="rgb(217,217,217)" stroke-width="1" opacity="1" d="M 43.5 65 L 43.5 66 L 43.5 65 Z " /><path fill="rgb(217,217,217)" stroke="rgb(217,217,217)" stroke-width="1" opacity="1" d="M 25.5 66 L 25.5 67 L 25.5 66 Z " /><path fill="rgb(217,217,217)" stroke="rgb(217,217,217)" stroke-width="1" opacity="1" d="M 39.5 66 L 41 66.5 L 39.5 67 L 39.5 66 Z " /><path fill="rgb(217,217,217)" stroke="rgb(217,217,217)" stroke-width="1" opacity="1" d="M 69.5 66 L 69.5 67 L 69.5 66 Z " /><path fill="rgb(217,217,217)" stroke="rgb(217,217,217)" stroke-width="1" opacity="1" d="M 8.5 67 L 8.5 68 L 8.5 67 Z " /><path fill="rgb(217,217,217)" stroke="rgb(217,217,217)" stroke-width="1" opacity="1" d="M 28.5 67 L 30 67.5 L 28.5 68 L 28.5 67 Z " /><path fill="rgb(217,217,217)" stroke="rgb(217,217,217)" stroke-width="1" opacity="1" d="M 34.5 67 L 36 67.5 L 34.5 68 L 34.5 67 Z " /><path fill="rgb(217,217,217)" stroke="rgb(217,217,217)" stroke-width="1" opacity="1" d="M 65.5 68 L 65.5 69 L 65.5 68 Z " /><path fill="rgb(217,217,217)" stroke="rgb(217,217,217)" stroke-width="1" opacity="1" d="M 7.5 69 L 8 70.5 L 7 70.5 L 7.5 69 Z " /><path fill="rgb(217,217,217)" stroke="rgb(217,217,217)" stroke-width="1" opacity="1" d="M 63.5 69 L 63.5 70 L 63.5 69 Z " /><path fill="rgb(217,217,217)" stroke="rgb(217,217,217)" stroke-width="1" opacity="1" d="M 61.5 70 L 61.5 71 L 61.5 70 Z " /><path fill="rgb(217,217,217)" stroke="rgb(217,217,217)" stroke-width="1" opacity="1" d="M 58.5 71 L 58.5 72 L 58.5 71 Z " /><path fill="rgb(217,217,217)" stroke="rgb(217,217,217)" stroke-width="1" opacity="1" d="M 56.5 72 L 56.5 73 L 56.5 72 Z " /><path fill="rgb(217,217,217)" stroke="rgb(217,217,217)" stroke-width="1" opacity="1" d="M 53.5 73 L 53.5 74 L 53.5 73 Z " /><path fill="rgb(217,217,217)" stroke="rgb(217,217,217)" stroke-width="1" opacity="1" d="M 7.5 74 L 8 75.5 L 7 75.5 L 7.5 74 Z " /><path fill="rgb(217,217,217)" stroke="rgb(217,217,217)" stroke-width="1" opacity="1" d="M 49.5 75 L 49.5 76 L 49.5 75 Z " /><path fill="rgb(217,217,217)" stroke="rgb(217,217,217)" stroke-width="1" opacity="1" d="M 47.5 76 L 47.5 77 L 47.5 76 Z " /><path fill="rgb(217,217,217)" stroke="rgb(217,217,217)" stroke-width="1" opacity="1" d="M 8.5 77 L 8.5 78 L 8.5 77 Z " /><path fill="rgb(217,217,217)" stroke="rgb(217,217,217)" stroke-width="1" opacity="1" d="M 45.5 77 L 45.5 78 L 45.5 77 Z " /><path fill="rgb(217,217,217)" stroke="rgb(217,217,217)" stroke-width="1" opacity="1" d="M 43.5 78 L 43.5 79 L 43.5 78 Z " /><path fill="rgb(217,217,217)" stroke="rgb(217,217,217)" stroke-width="1" opacity="1" d="M 40.5 79 L 40.5 80 L 40.5 79 Z " /><path fill="rgb(217,217,217)" stroke="rgb(217,217,217)" stroke-width="1" opacity="1" d="M 37.5 80 L 37.5 81 L 37.5 80 Z " /><path fill="rgb(217,217,217)" stroke="rgb(217,217,217)" stroke-width="1" opacity="1" d="M 12.5 82 L 12.5 83 L 12.5 82 Z " /><path fill="rgb(217,217,217)" stroke="rgb(217,217,217)" stroke-width="1" opacity="1" d="M 32.5 82 L 32.5 83 L 32.5 82 Z " /><path fill="rgb(217,217,217)" stroke="rgb(217,217,217)" stroke-width="1" opacity="1" d="M 14.5 83 L 14.5 84 L 14.5 83 Z " /><path fill="rgb(217,217,217)" stroke="rgb(217,217,217)" stroke-width="1" opacity="1" d="M 29.5 83 L 29.5 84 L 29.5 83 Z " /><path fill="rgb(217,217,217)" stroke="rgb(217,217,217)" stroke-width="1" opacity="1" d="M 17.5 84 L 25 84.5 L 17.5 85 L 17.5 84 Z " /><path fill="rgb(125,125,125)" stroke="rgb(125,125,125)" stroke-width="1" opacity="1" d="M 23.5 44 L 23.5 45 L 23.5 44 Z " /><path fill="rgb(125,125,125)" stroke="rgb(125,125,125)" stroke-width="1" opacity="1" d="M 119.5 44 L 121 44.5 L 116.5 47 Q 114 46 115.5 45 Q 118.75 45.75 119.5 44 Z " /><path fill="rgb(125,125,125)" stroke="rgb(125,125,125)" stroke-width="1" opacity="1" d="M 22.5 46 L 23 47.5 L 22 47.5 L 22.5 46 Z " /><path fill="rgb(125,125,125)" stroke="rgb(125,125,125)" stroke-width="1" opacity="1" d="M 112.5 46 L 112.5 47 L 112.5 46 Z " /><path fill="rgb(125,125,125)" stroke="rgb(125,125,125)" stroke-width="1" opacity="1" d="M 108.5 47 L 110 47.5 L 108.5 48 L 108.5 47 Z " /><path fill="rgb(125,125,125)" stroke="rgb(125,125,125)" stroke-width="1" opacity="1" d="M 114.5 47 L 114.5 48 L 114.5 47 Z " /><path fill="rgb(125,125,125)" stroke="rgb(125,125,125)" stroke-width="1" opacity="1" d="M 103.5 48 L 105 48.5 L 103.5 49 L 103.5 48 Z " /><path fill="rgb(125,125,125)" stroke="rgb(125,125,125)" stroke-width="1" opacity="1" d="M 111.5 48 L 111.5 49 L 111.5 48 Z " /><path fill="rgb(125,125,125)" stroke="rgb(125,125,125)" stroke-width="1" opacity="1" d="M 100.5 49 L 100.5 50 L 100.5 49 Z " /><path fill="rgb(125,125,125)" stroke="rgb(125,125,125)" stroke-width="1" opacity="1" d="M 109.5 49 L 109.5 50 L 109.5 49 Z " /><path fill="rgb(125,125,125)" stroke="rgb(125,125,125)" stroke-width="1" opacity="1" d="M 17.5 50 Q 19 51 16.5 52 Q 15 51 17.5 50 Z " /><path fill="rgb(125,125,125)" stroke="rgb(125,125,125)" stroke-width="1" opacity="1" d="M 96.5 50 L 98 50.5 L 96.5 51 L 96.5 50 Z " /><path fill="rgb(125,125,125)" stroke="rgb(125,125,125)" stroke-width="1" opacity="1" d="M 106.5 50 L 106.5 51 L 106.5 50 Z " /><path fill="rgb(125,125,125)" stroke="rgb(125,125,125)" stroke-width="1" opacity="1" d="M 20.5 51 L 21 52.5 L 20 52.5 L 20.5 51 Z " /><path fill="rgb(125,125,125)" stroke="rgb(125,125,125)" stroke-width="1" opacity="1" d="M 93.5 51 L 93.5 52 L 93.5 51 Z " /><path fill="rgb(125,125,125)" stroke="rgb(125,125,125)" stroke-width="1" opacity="1" d="M 89.5 52 L 91 52.5 L 89.5 53 L 89.5 52 Z " /><path fill="rgb(125,125,125)" stroke="rgb(125,125,125)" stroke-width="1" opacity="1" d="M 102.5 52 L 102.5 53 L 102.5 52 Z " /><path fill="rgb(125,125,125)" stroke="rgb(125,125,125)" stroke-width="1" opacity="1" d="M 15.5 53 L 15.5 54 L 15.5 53 Z " /><path fill="rgb(125,125,125)" stroke="rgb(125,125,125)" stroke-width="1" opacity="1" d="M 86.5 53 L 86.5 54 L 86.5 53 Z " /><path fill="rgb(125,125,125)" stroke="rgb(125,125,125)" stroke-width="1" opacity="1" d="M 100.5 53 L 100.5 54 L 100.5 53 Z " /><path fill="rgb(125,125,125)" stroke="rgb(125,125,125)" stroke-width="1" opacity="1" d="M 82.5 54 L 84 54.5 L 82.5 55 L 82.5 54 Z " /><path fill="rgb(125,125,125)" stroke="rgb(125,125,125)" stroke-width="1" opacity="1" d="M 98.5 54 L 98.5 55 L 98.5 54 Z " /><path fill="rgb(125,125,125)" stroke="rgb(125,125,125)" stroke-width="1" opacity="1" d="M 78.5 55 L 78.5 56 L 78.5 55 Z " /><path fill="rgb(125,125,125)" stroke="rgb(125,125,125)" stroke-width="1" opacity="1" d="M 95.5 55 Q 97 56 94.5 57 L 93 56.5 L 95.5 55 Z " /><path fill="rgb(125,125,125)" stroke="rgb(125,125,125)" stroke-width="1" opacity="1" d="M 13.5 56 Q 15 57 12.5 58 Q 11 57 13.5 56 Z " /><path fill="rgb(125,125,125)" stroke="rgb(125,125,125)" stroke-width="1" opacity="1" d="M 75.5 56 L 77 56.5 L 75.5 57 L 75.5 56 Z " /><path fill="rgb(125,125,125)" stroke="rgb(125,125,125)" stroke-width="1" opacity="1" d="M 71.5 57 L 73 57.5 L 71.5 58 L 71.5 57 Z " /><path fill="rgb(125,125,125)" stroke="rgb(125,125,125)" stroke-width="1" opacity="1" d="M 90.5 57 L 92 57.5 L 90.5 58 L 90.5 57 Z " /><path fill="rgb(125,125,125)" stroke="rgb(125,125,125)" stroke-width="1" opacity="1" d="M 67.5 58 L 69 58.5 L 67.5 59 L 67.5 58 Z " /><path fill="rgb(125,125,125)" stroke="rgb(125,125,125)" stroke-width="1" opacity="1" d="M 11.5 59 L 11.5 60 L 11.5 59 Z " /><path fill="rgb(125,125,125)" stroke="rgb(125,125,125)" stroke-width="1" opacity="1" d="M 64.5 59 L 64.5 60 L 64.5 59 Z " /><path fill="rgb(125,125,125)" stroke="rgb(125,125,125)" stroke-width="1" opacity="1" d="M 86.5 59 L 86.5 60 L 86.5 59 Z " /><path fill="rgb(125,125,125)" stroke="rgb(125,125,125)" stroke-width="1" opacity="1" d="M 60.5 60 L 62 60.5 L 60.5 61 L 60.5 60 Z " /><path fill="rgb(125,125,125)" stroke="rgb(125,125,125)" stroke-width="1" opacity="1" d="M 84.5 60 L 84.5 61 L 84.5 60 Z " /><path fill="rgb(125,125,125)" stroke="rgb(125,125,125)" stroke-width="1" opacity="1" d="M 20.5 61 L 20.5 62 L 20.5 61 Z " /><path fill="rgb(125,125,125)" stroke="rgb(125,125,125)" stroke-width="1" opacity="1" d="M 57.5 61 L 57.5 62 L 57.5 61 Z " /><path fill="rgb(125,125,125)" stroke="rgb(125,125,125)" stroke-width="1" opacity="1" d="M 82.5 61 L 82.5 62 L 82.5 61 Z " /><path fill="rgb(125,125,125)" stroke="rgb(125,125,125)" stroke-width="1" opacity="1" d="M 9.5 62 L 10 63.5 L 9 63.5 L 9.5 62 Z " /><path fill="rgb(125,125,125)" stroke="rgb(125,125,125)" stroke-width="1" opacity="1" d="M 53.5 62 L 53.5 63 L 53.5 62 Z " /><path fill="rgb(125,125,125)" stroke="rgb(125,125,125)" stroke-width="1" opacity="1" d="M 49.5 63 L 51 63.5 L 49.5 64 L 49.5 63 Z " /><path fill="rgb(125,125,125)" stroke="rgb(125,125,125)" stroke-width="1" opacity="1" d="M 77.5 63 L 79 63.5 L 77.5 64 L 77.5 63 Z " /><path fill="rgb(125,125,125)" stroke="rgb(125,125,125)" stroke-width="1" opacity="1" d="M 45.5 64 L 47 64.5 L 45.5 65 L 45.5 64 Z " /><path fill="rgb(125,125,125)" stroke="rgb(125,125,125)" stroke-width="1" opacity="1" d="M 75.5 64 L 75.5 65 L 75.5 64 Z " /><path fill="rgb(125,125,125)" stroke="rgb(125,125,125)" stroke-width="1" opacity="1" d="M 8.5 65 L 9 66.5 L 7.5 69 L 7 67.5 L 8.5 65 Z " /><path fill="rgb(125,125,125)" stroke="rgb(125,125,125)" stroke-width="1" opacity="1" d="M 24.5 65 L 24.5 66 L 24.5 65 Z " /><path fill="rgb(125,125,125)" stroke="rgb(125,125,125)" stroke-width="1" opacity="1" d="M 41.5 65 L 43 65.5 L 41.5 66 L 41.5 65 Z " /><path fill="rgb(125,125,125)" stroke="rgb(125,125,125)" stroke-width="1" opacity="1" d="M 26.5 66 L 26.5 67 L 26.5 66 Z " /><path fill="rgb(125,125,125)" stroke="rgb(125,125,125)" stroke-width="1" opacity="1" d="M 37.5 66 L 39 66.5 L 37.5 67 L 37.5 66 Z " /><path fill="rgb(125,125,125)" stroke="rgb(125,125,125)" stroke-width="1" opacity="1" d="M 70.5 66 L 70.5 67 L 70.5 66 Z " /><path fill="rgb(125,125,125)" stroke="rgb(125,125,125)" stroke-width="1" opacity="1" d="M 30.5 67 L 34 67.5 L 30.5 68 L 30.5 67 Z " /><path fill="rgb(125,125,125)" stroke="rgb(125,125,125)" stroke-width="1" opacity="1" d="M 68.5 67 L 68.5 68 L 68.5 67 Z " /><path fill="rgb(125,125,125)" stroke="rgb(125,125,125)" stroke-width="1" opacity="1" d="M 66.5 68 L 66.5 69 L 66.5 68 Z " /><path fill="rgb(125,125,125)" stroke="rgb(125,125,125)" stroke-width="1" opacity="1" d="M 62.5 70 L 62.5 71 L 62.5 70 Z " /><path fill="rgb(125,125,125)" stroke="rgb(125,125,125)" stroke-width="1" opacity="1" d="M 59.5 71 L 59.5 72 L 59.5 71 Z " /><path fill="rgb(125,125,125)" stroke="rgb(125,125,125)" stroke-width="1" opacity="1" d="M 57.5 72 L 57.5 73 L 57.5 72 Z " /><path fill="rgb(125,125,125)" stroke="rgb(125,125,125)" stroke-width="1" opacity="1" d="M 54.5 73 L 54.5 74 L 54.5 73 Z " /><path fill="rgb(125,125,125)" stroke="rgb(125,125,125)" stroke-width="1" opacity="1" d="M 52.5 74 L 52.5 75 L 52.5 74 Z " /><path fill="rgb(125,125,125)" stroke="rgb(125,125,125)" stroke-width="1" opacity="1" d="M 50.5 75 L 50.5 76 L 50.5 75 Z " /><path fill="rgb(125,125,125)" stroke="rgb(125,125,125)" stroke-width="1" opacity="1" d="M 7.5 76 L 9 78.5 Q 8 80 7 77.5 L 7.5 76 Z " /><path fill="rgb(125,125,125)" stroke="rgb(125,125,125)" stroke-width="1" opacity="1" d="M 46.5 77 L 46.5 78 L 46.5 77 Z " /><path fill="rgb(125,125,125)" stroke="rgb(125,125,125)" stroke-width="1" opacity="1" d="M 41.5 79 L 41.5 80 L 41.5 79 Z " /><path fill="rgb(125,125,125)" stroke="rgb(125,125,125)" stroke-width="1" opacity="1" d="M 9.5 80 L 12 82.5 L 11.5 83 L 9 80.5 L 9.5 80 Z " /><path fill="rgb(125,125,125)" stroke="rgb(125,125,125)" stroke-width="1" opacity="1" d="M 38.5 80 L 38.5 81 L 38.5 80 Z " /><path fill="rgb(125,125,125)" stroke="rgb(125,125,125)" stroke-width="1" opacity="1" d="M 36.5 81 L 36.5 82 L 36.5 81 Z " /><path fill="rgb(125,125,125)" stroke="rgb(125,125,125)" stroke-width="1" opacity="1" d="M 33.5 82 L 35 82.5 L 33.5 83 L 33.5 82 Z " /><path fill="rgb(125,125,125)" stroke="rgb(125,125,125)" stroke-width="1" opacity="1" d="M 13.5 83 L 13.5 84 L 13.5 83 Z " /><path fill="rgb(125,125,125)" stroke="rgb(125,125,125)" stroke-width="1" opacity="1" d="M 30.5 83 L 30.5 84 L 30.5 83 Z " /><path fill="rgb(125,125,125)" stroke="rgb(125,125,125)" stroke-width="1" opacity="1" d="M 16.5 84 L 16.5 85 L 16.5 84 Z " /><path fill="rgb(125,125,125)" stroke="rgb(125,125,125)" stroke-width="1" opacity="1" d="M 25.5 84 L 28 84.5 L 25.5 85 L 25.5 84 Z " /><path fill="rgb(252,252,252)" stroke="rgb(252,252,252)" stroke-width="1" opacity="1" d="M 114.5 46 L 114.5 47 L 114.5 46 Z " /><path fill="rgb(252,252,252)" stroke="rgb(252,252,252)" stroke-width="1" opacity="1" d="M 111.5 47 L 113 47.5 L 111.5 48 L 111.5 47 Z " /><path fill="rgb(252,252,252)" stroke="rgb(252,252,252)" stroke-width="1" opacity="1" d="M 107.5 48 L 108 49.5 L 107 49.5 L 107.5 48 Z " /><path fill="rgb(252,252,252)" stroke="rgb(252,252,252)" stroke-width="1" opacity="1" d="M 109.5 48 L 109.5 49 L 109.5 48 Z " /><path fill="rgb(252,252,252)" stroke="rgb(252,252,252)" stroke-width="1" opacity="1" d="M 19.5 49 L 21 49.5 L 19 50.5 L 19.5 52 Q 16.5 50.5 19.5 49 Z " /><path fill="rgb(252,252,252)" stroke="rgb(252,252,252)" stroke-width="1" opacity="1" d="M 102.5 49 L 102.5 50 L 102.5 49 Z " /><path fill="rgb(252,252,252)" stroke="rgb(252,252,252)" stroke-width="1" opacity="1" d="M 95.5 51 L 97 51.5 L 95.5 52 L 95.5 51 Z " /><path fill="rgb(252,252,252)" stroke="rgb(252,252,252)" stroke-width="1" opacity="1" d="M 103.5 51 L 103.5 52 L 103.5 51 Z " /><path fill="rgb(252,252,252)" stroke="rgb(252,252,252)" stroke-width="1" opacity="1" d="M 93.5 52 L 95 54.5 Q 93.5 57.5 92 54.5 L 93.5 52 Z M 94 54 L 94 55 L 94 54 Z " /><path fill="rgb(252,252,252)" stroke="rgb(252,252,252)" stroke-width="1" opacity="1" d="M 100.5 52 L 100.5 53 L 100.5 52 Z " /><path fill="rgb(252,252,252)" stroke="rgb(252,252,252)" stroke-width="1" opacity="1" d="M 16.5 53 L 17 53.5 L 14.5 56 L 14 55.5 L 16.5 53 Z " /><path fill="rgb(252,252,252)" stroke="rgb(252,252,252)" stroke-width="1" opacity="1" d="M 19.5 53 L 20 54.5 L 19 54.5 L 19.5 53 Z " /><path fill="rgb(252,252,252)" stroke="rgb(252,252,252)" stroke-width="1" opacity="1" d="M 88.5 53 L 88.5 54 L 88.5 53 Z " /><path fill="rgb(252,252,252)" stroke="rgb(252,252,252)" stroke-width="1" opacity="1" d="M 96.5 53 L 97 54.5 L 96 54.5 L 96.5 53 Z " /><path fill="rgb(252,252,252)" stroke="rgb(252,252,252)" stroke-width="1" opacity="1" d="M 85.5 54 L 85.5 55 L 85.5 54 Z " /><path fill="rgb(252,252,252)" stroke="rgb(252,252,252)" stroke-width="1" opacity="1" d="M 17.5 55 L 18 60.5 L 17 60.5 L 17.5 55 Z " /><path fill="rgb(252,252,252)" stroke="rgb(252,252,252)" stroke-width="1" opacity="1" d="M 78.5 56 L 80 56.5 L 78.5 57 L 78.5 56 Z " /><path fill="rgb(252,252,252)" stroke="rgb(252,252,252)" stroke-width="1" opacity="1" d="M 85.5 56 L 85.5 57 L 85.5 56 Z " /><path fill="rgb(252,252,252)" stroke="rgb(252,252,252)" stroke-width="1" opacity="1" d="M 13.5 57 L 15 57.5 L 13 58.5 L 15 60.5 L 14.5 61 L 13.5 60 L 10.5 63 L 10 62.5 L 11 60 L 13 59.5 Q 10.75 58.25 13.5 57 Z " /><path fill="rgb(252,252,252)" stroke="rgb(252,252,252)" stroke-width="1" opacity="1" d="M 74.5 57 L 75 58.5 L 71.5 61 L 71.5 60 L 74 58.5 L 74.5 57 Z " /><path fill="rgb(252,252,252)" stroke="rgb(252,252,252)" stroke-width="1" opacity="1" d="M 83.5 57 Q 85 58 82.5 59 Q 81 58 83.5 57 Z " /><path fill="rgb(252,252,252)" stroke="rgb(252,252,252)" stroke-width="1" opacity="1" d="M 76.5 58 L 76.5 59 L 76.5 58 Z " /><path fill="rgb(252,252,252)" stroke="rgb(252,252,252)" stroke-width="1" opacity="1" d="M 86.5 58 L 88 58.5 L 86.5 59 L 86.5 58 Z " /><path fill="rgb(252,252,252)" stroke="rgb(252,252,252)" stroke-width="1" opacity="1" d="M 19.5 59 L 20 62.5 L 19 62.5 L 19.5 59 Z " /><path fill="rgb(252,252,252)" stroke="rgb(252,252,252)" stroke-width="1" opacity="1" d="M 67.5 59 Q 70 60 68.5 61 Q 65.71 61.67 67.5 59 Z " /><path fill="rgb(252,252,252)" stroke="rgb(252,252,252)" stroke-width="1" opacity="1" d="M 84.5 59 L 84.5 60 L 84.5 59 Z " /><path fill="rgb(252,252,252)" stroke="rgb(252,252,252)" stroke-width="1" opacity="1" d="M 75.5 60 L 75.5 61 L 75.5 60 Z " /><path fill="rgb(252,252,252)" stroke="rgb(252,252,252)" stroke-width="1" opacity="1" d="M 60.5 61 L 60.5 62 L 60.5 61 Z " /><path fill="rgb(252,252,252)" stroke="rgb(252,252,252)" stroke-width="1" opacity="1" d="M 80.5 61 L 80.5 62 L 80.5 61 Z " /><path fill="rgb(252,252,252)" stroke="rgb(252,252,252)" stroke-width="1" opacity="1" d="M 55.5 62 Q 57.75 61.25 57 63.5 L 56.5 64 Q 54 63 55.5 62 Z " /><path fill="rgb(252,252,252)" stroke="rgb(252,252,252)" stroke-width="1" opacity="1" d="M 58.5 62 L 58.5 63 L 58.5 62 Z " /><path fill="rgb(252,252,252)" stroke="rgb(252,252,252)" stroke-width="1" opacity="1" d="M 66.5 62 L 66.5 63 L 66.5 62 Z " /><path fill="rgb(252,252,252)" stroke="rgb(252,252,252)" stroke-width="1" opacity="1" d="M 69.5 62 L 69.5 63 L 69.5 62 Z " /><path fill="rgb(252,252,252)" stroke="rgb(252,252,252)" stroke-width="1" opacity="1" d="M 74.5 62 L 76.5 63 L 78 62.5 L 75.5 64 Q 73 63 74.5 62 Z " /><path fill="rgb(252,252,252)" stroke="rgb(252,252,252)" stroke-width="1" opacity="1" d="M 53.5 63 L 53.5 64 L 53.5 63 Z " /><path fill="rgb(252,252,252)" stroke="rgb(252,252,252)" stroke-width="1" opacity="1" d="M 9.5 64 L 9.5 65 L 9.5 64 Z " /><path fill="rgb(252,252,252)" stroke="rgb(252,252,252)" stroke-width="1" opacity="1" d="M 21.5 64 Q 24 65 22.5 66 Q 19.71 66.67 21.5 64 Z " /><path fill="rgb(252,252,252)" stroke="rgb(252,252,252)" stroke-width="1" opacity="1" d="M 48.5 64 L 48.5 65 L 48.5 64 Z " /><path fill="rgb(252,252,252)" stroke="rgb(252,252,252)" stroke-width="1" opacity="1" d="M 67.5 64 L 68.5 66 L 71.5 64 L 72 66 Q 68.58 65.25 67.5 68 L 68 66.5 L 67 65.5 L 67.5 64 Z " /><path fill="rgb(252,252,252)" stroke="rgb(252,252,252)" stroke-width="1" opacity="1" d="M 46.5 65 L 46.5 66 L 46.5 65 Z " /><path fill="rgb(252,252,252)" stroke="rgb(252,252,252)" stroke-width="1" opacity="1" d="M 53.5 65 L 53.5 66 L 53.5 65 Z " /><path fill="rgb(252,252,252)" stroke="rgb(252,252,252)" stroke-width="1" opacity="1" d="M 58.5 65 L 60 65.5 L 58.5 66 L 58.5 65 Z " /><path fill="rgb(252,252,252)" stroke="rgb(252,252,252)" stroke-width="1" opacity="1" d="M 24.5 66 L 24.5 67 L 24.5 66 Z " /><path fill="rgb(252,252,252)" stroke="rgb(252,252,252)" stroke-width="1" opacity="1" d="M 41.5 66 Q 43 67 40.5 68 L 39 67.5 L 41.5 66 Z " /><path fill="rgb(252,252,252)" stroke="rgb(252,252,252)" stroke-width="1" opacity="1" d="M 27.5 67 L 27.5 68 L 27.5 67 Z " /><path fill="rgb(252,252,252)" stroke="rgb(252,252,252)" stroke-width="1" opacity="1" d="M 36.5 67 L 36.5 68 L 36.5 67 Z " /><path fill="rgb(252,252,252)" stroke="rgb(252,252,252)" stroke-width="1" opacity="1" d="M 58.5 67 L 60 67.5 L 58.5 68 L 58.5 67 Z " /><path fill="rgb(252,252,252)" stroke="rgb(252,252,252)" stroke-width="1" opacity="1" d="M 65.5 67 Q 67 68 64.5 69 Q 63 68 65.5 67 Z " /><path fill="rgb(252,252,252)" stroke="rgb(252,252,252)" stroke-width="1" opacity="1" d="M 8.5 68 L 8.5 69 L 8.5 68 Z " /><path fill="rgb(252,252,252)" stroke="rgb(252,252,252)" stroke-width="1" opacity="1" d="M 56.5 68 L 59 69 L 57.5 72 L 58 70.5 L 56 68.5 L 56.5 68 Z " /><path fill="rgb(252,252,252)" stroke="rgb(252,252,252)" stroke-width="1" opacity="1" d="M 28.5 69 L 30 69.5 L 28.5 70 L 28.5 69 Z " /><path fill="rgb(252,252,252)" stroke="rgb(252,252,252)" stroke-width="1" opacity="1" d="M 62.5 69 L 62.5 70 L 62.5 69 Z " /><path fill="rgb(252,252,252)" stroke="rgb(252,252,252)" stroke-width="1" opacity="1" d="M 31.5 70 L 31.5 71 L 31.5 70 Z " /><path fill="rgb(252,252,252)" stroke="rgb(252,252,252)" stroke-width="1" opacity="1" d="M 60.5 70 L 60.5 71 L 60.5 70 Z " /><path fill="rgb(252,252,252)" stroke="rgb(252,252,252)" stroke-width="1" opacity="1" d="M 7.5 71 L 8 73.5 L 7 73.5 L 7.5 71 Z " /><path fill="rgb(252,252,252)" stroke="rgb(252,252,252)" stroke-width="1" opacity="1" d="M 49.5 71 L 50 72.5 L 49 72.5 L 49.5 71 Z " /><path fill="rgb(252,252,252)" stroke="rgb(252,252,252)" stroke-width="1" opacity="1" d="M 52.5 72 L 52 73.5 L 51.5 75 L 51 73.5 L 52.5 72 Z " /><path fill="rgb(252,252,252)" stroke="rgb(252,252,252)" stroke-width="1" opacity="1" d="M 55.5 72 L 55.5 73 L 55.5 72 Z " /><path fill="rgb(252,252,252)" stroke="rgb(252,252,252)" stroke-width="1" opacity="1" d="M 47.5 74 Q 50 75 48.5 76 Q 46 75 47.5 74 Z " /><path fill="rgb(252,252,252)" stroke="rgb(252,252,252)" stroke-width="1" opacity="1" d="M 8.5 76 L 8.5 77 L 8.5 76 Z " /><path fill="rgb(252,252,252)" stroke="rgb(252,252,252)" stroke-width="1" opacity="1" d="M 12.5 77 L 12.5 78 L 12.5 77 Z " /><path fill="rgb(252,252,252)" stroke="rgb(252,252,252)" stroke-width="1" opacity="1" d="M 44.5 77 L 44.5 78 L 44.5 77 Z " /><path fill="rgb(252,252,252)" stroke="rgb(252,252,252)" stroke-width="1" opacity="1" d="M 9 78 Q 12 76.75 11 80.5 L 13 80.5 L 14 82.5 L 12.5 82 L 9 79.5 L 9 78 Z " /><path fill="rgb(252,252,252)" stroke="rgb(252,252,252)" stroke-width="1" opacity="1" d="M 14.5 78 L 14.5 79 L 14.5 78 Z " /><path fill="rgb(252,252,252)" stroke="rgb(252,252,252)" stroke-width="1" opacity="1" d="M 38.5 78 Q 40.75 77.25 40 79.5 L 39.5 80 Q 37 79 38.5 78 Z " /><path fill="rgb(252,252,252)" stroke="rgb(252,252,252)" stroke-width="1" opacity="1" d="M 42.5 78 L 42.5 79 L 42.5 78 Z " /><path fill="rgb(252,252,252)" stroke="rgb(252,252,252)" stroke-width="1" opacity="1" d="M 35.5 80 L 37 80.5 L 34.5 82 Q 33 81 35.5 80 Z " /><path fill="rgb(252,252,252)" stroke="rgb(252,252,252)" stroke-width="1" opacity="1" d="M 28.5 82 L 28.5 83 L 28.5 82 Z " /><path fill="rgb(252,252,252)" stroke="rgb(252,252,252)" stroke-width="1" opacity="1" d="M 31.5 82 L 31.5 83 L 31.5 82 Z " /><path fill="rgb(255,255,255)" stroke="rgb(255,255,255)" stroke-width="1" opacity="1" d="M 21.5 47 Q 23 48 20.5 49 Q 19 48 21.5 47 Z " /><path fill="rgb(255,255,255)" stroke="rgb(255,255,255)" stroke-width="1" opacity="1" d="M 108.5 48 L 108.5 49 L 108.5 48 Z " /><path fill="rgb(255,255,255)" stroke="rgb(255,255,255)" stroke-width="1" opacity="1" d="M 103.5 49 L 107 49.5 L 97.5 54 L 96 53.5 L 95.5 55 L 94.5 54 L 91.5 57 L 86.5 58 L 78.5 63 L 75.5 62 L 74 62.5 L 74.5 64 L 72.5 65 Q 71.5 63 70.5 65 L 66.5 68 Q 65 65.5 63.5 69 L 59.5 71 L 59 69 L 57 69.5 Q 59.25 70.75 56.5 72 L 52.5 74 L 51 73.5 Q 51.83 76.13 48.5 75 L 46.5 77 L 40.5 79 L 38.5 78 L 38.5 80 L 35.5 80 L 33.5 82 L 31.5 82 L 28.5 84 L 15.5 84 L 12.5 80 L 11 80.5 L 11 78 Q 8.33 79.13 9 76.5 L 8 75.5 L 8 69.5 L 10 63.5 L 13 60.5 Q 10.75 59.25 13.5 58 L 15 57.5 L 14 56.5 L 17 53.5 Q 15.87 50.17 18.5 51 L 20 50.5 L 19 53.5 L 19 63 Q 22.33 61.88 21 66 L 23.5 66 L 27.5 68 L 36.5 68 L 38.5 67 L 40.5 68 L 45.5 65 Q 46.5 67 47.5 65 L 55.5 63 L 57 63.5 L 57.5 62 Q 58.5 64 59.5 62 L 63.5 60 L 66.5 60 L 68.5 61 L 68.5 59 L 73.5 58 L 75 58.5 L 75 57 L 79.5 57 L 81.5 55 L 85.5 55 L 89.5 53 L 92.5 53 L 94 53.5 Q 93.17 50.88 96.5 52 L 103.5 49 Z M 93 54 L 93 55 L 93 54 Z M 18 55 L 17 61 L 18 61 L 18 55 Z M 86 56 L 86 57 L 86 56 Z M 84 57 L 84 58 L 84 57 Z M 77 58 L 77 59 L 77 58 Z M 83 58 L 83 59 L 83 58 Z M 14 59 L 14 60 L 14 59 Z M 74 59 L 74 60 L 74 59 Z M 15 60 L 15 61 L 15 60 Z M 72 60 L 72 61 L 73 61 L 72 60 Z M 76 60 L 76 61 L 76 60 Z M 67 62 L 67 63 L 67 62 Z M 70 62 L 70 63 L 70 62 Z M 68 64 L 67 66 L 68 66 L 68 64 Z M 54 65 L 54 66 L 54 65 Z M 59 65 L 59 66 L 60 66 L 59 65 Z M 59 67 L 59 68 L 60 68 L 59 67 Z M 57 68 L 57 69 L 57 68 Z M 29 69 L 29 70 L 30 70 L 29 69 Z M 32 70 L 32 71 L 32 70 Z M 50 71 L 49 73 L 50 73 L 50 71 Z M 53 72 L 53 73 L 53 72 Z M 48 74 L 48 75 L 48 74 Z M 13 77 L 13 78 L 13 77 Z M 15 78 L 15 79 L 15 78 Z M 29 82 L 29 83 L 29 82 Z " /><path fill="rgb(27,27,27)" stroke="rgb(27,27,27)" stroke-width="1" opacity="1" d="M 23.5 43 L 25 43.5 L 23 44.5 L 23.5 46 L 22.5 45 L 18.5 49 L 18 48.5 L 23.5 43 Z " /><path fill="rgb(27,27,27)" stroke="rgb(27,27,27)" stroke-width="1" opacity="1" d="M 121.5 43 L 122 44.5 L 121 44.5 L 121.5 43 Z " /><path fill="rgb(27,27,27)" stroke="rgb(27,27,27)" stroke-width="1" opacity="1" d="M 118.5 44 Q 121 45 119.5 46 Q 117 45 118.5 44 Z " /><path fill="rgb(27,27,27)" stroke="rgb(27,27,27)" stroke-width="1" opacity="1" d="M 113.5 45 L 115 45.5 L 113.5 46 L 113.5 45 Z " /><path fill="rgb(27,27,27)" stroke="rgb(27,27,27)" stroke-width="1" opacity="1" d="M 111.5 46 L 111.5 47 L 111.5 46 Z " /><path fill="rgb(27,27,27)" stroke="rgb(27,27,27)" stroke-width="1" opacity="1" d="M 106.5 47 L 108 47.5 L 106.5 48 L 106.5 47 Z " /><path fill="rgb(27,27,27)" stroke="rgb(27,27,27)" stroke-width="1" opacity="1" d="M 115.5 47 L 115.5 48 L 115.5 47 Z " /><path fill="rgb(27,27,27)" stroke="rgb(27,27,27)" stroke-width="1" opacity="1" d="M 102.5 48 L 102.5 49 L 102.5 48 Z " /><path fill="rgb(27,27,27)" stroke="rgb(27,27,27)" stroke-width="1" opacity="1" d="M 112.5 48 L 112.5 49 L 112.5 48 Z " /><path fill="rgb(27,27,27)" stroke="rgb(27,27,27)" stroke-width="1" opacity="1" d="M 21.5 49 L 21.5 50 L 21.5 49 Z " /><path fill="rgb(27,27,27)" stroke="rgb(27,27,27)" stroke-width="1" opacity="1" d="M 99.5 49 L 99.5 50 L 99.5 49 Z " /><path fill="rgb(27,27,27)" stroke="rgb(27,27,27)" stroke-width="1" opacity="1" d="M 95.5 50 L 95.5 51 L 95.5 50 Z " /><path fill="rgb(27,27,27)" stroke="rgb(27,27,27)" stroke-width="1" opacity="1" d="M 107.5 50 L 107.5 51 L 107.5 50 Z " /><path fill="rgb(27,27,27)" stroke="rgb(27,27,27)" stroke-width="1" opacity="1" d="M 92.5 51 L 92.5 52 L 92.5 51 Z " /><path fill="rgb(27,27,27)" stroke="rgb(27,27,27)" stroke-width="1" opacity="1" d="M 105.5 51 L 105.5 52 L 105.5 51 Z " /><path fill="rgb(27,27,27)" stroke="rgb(27,27,27)" stroke-width="1" opacity="1" d="M 15.5 52 L 15.5 53 L 15.5 52 Z " /><path fill="rgb(27,27,27)" stroke="rgb(27,27,27)" stroke-width="1" opacity="1" d="M 88.5 52 L 88.5 53 L 88.5 52 Z " /><path fill="rgb(27,27,27)" stroke="rgb(27,27,27)" stroke-width="1" opacity="1" d="M 103.5 52 L 103.5 53 L 103.5 52 Z " /><path fill="rgb(27,27,27)" stroke="rgb(27,27,27)" stroke-width="1" opacity="1" d="M 20.5 53 L 21 54.5 L 20 54.5 L 20.5 53 Z " /><path fill="rgb(27,27,27)" stroke="rgb(27,27,27)" stroke-width="1" opacity="1" d="M 85.5 53 L 85.5 54 L 85.5 53 Z " /><path fill="rgb(27,27,27)" stroke="rgb(27,27,27)" stroke-width="1" opacity="1" d="M 14.5 54 Q 16 55 13.5 56 Q 12 55 14.5 54 Z " /><path fill="rgb(27,27,27)" stroke="rgb(27,27,27)" stroke-width="1" opacity="1" d="M 81.5 54 L 81.5 55 L 81.5 54 Z " /><path fill="rgb(27,27,27)" stroke="rgb(27,27,27)" stroke-width="1" opacity="1" d="M 99.5 54 L 99.5 55 L 99.5 54 Z " /><path fill="rgb(27,27,27)" stroke="rgb(27,27,27)" stroke-width="1" opacity="1" d="M 76.5 55 L 78 55.5 L 76.5 56 L 76.5 55 Z " /><path fill="rgb(27,27,27)" stroke="rgb(27,27,27)" stroke-width="1" opacity="1" d="M 96.5 55 Q 98 56 95.5 57 Q 94 56 96.5 55 Z " /><path fill="rgb(27,27,27)" stroke="rgb(27,27,27)" stroke-width="1" opacity="1" d="M 74.5 56 L 74.5 57 L 74.5 56 Z " /><path fill="rgb(27,27,27)" stroke="rgb(27,27,27)" stroke-width="1" opacity="1" d="M 69.5 57 L 71 57.5 L 69.5 58 L 69.5 57 Z " /><path fill="rgb(27,27,27)" stroke="rgb(27,27,27)" stroke-width="1" opacity="1" d="M 11.5 58 L 11.5 59 L 11.5 58 Z " /><path fill="rgb(27,27,27)" stroke="rgb(27,27,27)" stroke-width="1" opacity="1" d="M 66.5 58 L 66.5 59 L 66.5 58 Z " /><path fill="rgb(27,27,27)" stroke="rgb(27,27,27)" stroke-width="1" opacity="1" d="M 89.5 58 L 89.5 59 L 89.5 58 Z " /><path fill="rgb(27,27,27)" stroke="rgb(27,27,27)" stroke-width="1" opacity="1" d="M 20.5 59 L 21 60.5 L 20 60.5 L 20.5 59 Z " /><path fill="rgb(27,27,27)" stroke="rgb(27,27,27)" stroke-width="1" opacity="1" d="M 62.5 59 L 64 59.5 L 62.5 60 L 62.5 59 Z " /><path fill="rgb(27,27,27)" stroke="rgb(27,27,27)" stroke-width="1" opacity="1" d="M 87.5 59 L 87.5 60 L 87.5 59 Z " /><path fill="rgb(27,27,27)" stroke="rgb(27,27,27)" stroke-width="1" opacity="1" d="M 10.5 60 Q 12 61 9.5 62 Q 8 61 10.5 60 Z " /><path fill="rgb(27,27,27)" stroke="rgb(27,27,27)" stroke-width="1" opacity="1" d="M 59.5 60 L 59.5 61 L 59.5 60 Z " /><path fill="rgb(27,27,27)" stroke="rgb(27,27,27)" stroke-width="1" opacity="1" d="M 55.5 61 L 57 61.5 L 55.5 62 L 55.5 61 Z " /><path fill="rgb(27,27,27)" stroke="rgb(27,27,27)" stroke-width="1" opacity="1" d="M 83.5 61 L 83.5 62 L 83.5 61 Z " /><path fill="rgb(27,27,27)" stroke="rgb(27,27,27)" stroke-width="1" opacity="1" d="M 21.5 62 L 24 64.5 L 23.5 65 L 21 62.5 L 21.5 62 Z " /><path fill="rgb(27,27,27)" stroke="rgb(27,27,27)" stroke-width="1" opacity="1" d="M 52.5 62 L 52.5 63 L 52.5 62 Z " /><path fill="rgb(27,27,27)" stroke="rgb(27,27,27)" stroke-width="1" opacity="1" d="M 80.5 62 Q 82 63 79.5 64 Q 78 63 80.5 62 Z " /><path fill="rgb(27,27,27)" stroke="rgb(27,27,27)" stroke-width="1" opacity="1" d="M 48.5 63 L 48.5 64 L 48.5 63 Z " /><path fill="rgb(27,27,27)" stroke="rgb(27,27,27)" stroke-width="1" opacity="1" d="M 8.5 64 L 8.5 65 L 8.5 64 Z " /><path fill="rgb(27,27,27)" stroke="rgb(27,27,27)" stroke-width="1" opacity="1" d="M 43.5 64 L 45 64.5 L 43.5 65 L 43.5 64 Z " /><path fill="rgb(27,27,27)" stroke="rgb(27,27,27)" stroke-width="1" opacity="1" d="M 76.5 64 L 76.5 65 L 76.5 64 Z " /><path fill="rgb(27,27,27)" stroke="rgb(27,27,27)" stroke-width="1" opacity="1" d="M 73.5 65 L 73.5 66 L 73.5 65 Z " /><path fill="rgb(27,27,27)" stroke="rgb(27,27,27)" stroke-width="1" opacity="1" d="M 7.5 66 L 7.5 67 L 7.5 66 Z " /><path fill="rgb(27,27,27)" stroke="rgb(27,27,27)" stroke-width="1" opacity="1" d="M 27.5 66 L 29 66.5 L 27.5 67 L 27.5 66 Z " /><path fill="rgb(27,27,27)" stroke="rgb(27,27,27)" stroke-width="1" opacity="1" d="M 35.5 66 L 37 66.5 L 35.5 67 L 35.5 66 Z " /><path fill="rgb(27,27,27)" stroke="rgb(27,27,27)" stroke-width="1" opacity="1" d="M 71.5 66 L 71.5 67 L 71.5 66 Z " /><path fill="rgb(27,27,27)" stroke="rgb(27,27,27)" stroke-width="1" opacity="1" d="M 69.5 67 L 69.5 68 L 69.5 67 Z " /><path fill="rgb(27,27,27)" stroke="rgb(27,27,27)" stroke-width="1" opacity="1" d="M 67.5 68 L 67.5 69 L 67.5 68 Z " /><path fill="rgb(27,27,27)" stroke="rgb(27,27,27)" stroke-width="1" opacity="1" d="M 64.5 69 Q 66 70 63.5 71 Q 62 70 64.5 69 Z " /><path fill="rgb(27,27,27)" stroke="rgb(27,27,27)" stroke-width="1" opacity="1" d="M 60.5 71 L 60.5 72 L 60.5 71 Z " /><path fill="rgb(27,27,27)" stroke="rgb(27,27,27)" stroke-width="1" opacity="1" d="M 6.5 72 L 6.5 73 L 6.5 72 Z " /><path fill="rgb(27,27,27)" stroke="rgb(27,27,27)" stroke-width="1" opacity="1" d="M 58.5 72 L 58.5 73 L 58.5 72 Z " /><path fill="rgb(27,27,27)" stroke="rgb(27,27,27)" stroke-width="1" opacity="1" d="M 55.5 73 L 57 73.5 L 55.5 74 L 55.5 73 Z " /><path fill="rgb(27,27,27)" stroke="rgb(27,27,27)" stroke-width="1" opacity="1" d="M 53.5 74 L 53.5 75 L 53.5 74 Z " /><path fill="rgb(27,27,27)" stroke="rgb(27,27,27)" stroke-width="1" opacity="1" d="M 51.5 75 L 51.5 76 L 51.5 75 Z " /><path fill="rgb(27,27,27)" stroke="rgb(27,27,27)" stroke-width="1" opacity="1" d="M 48.5 76 Q 50 77 47.5 78 Q 46 77 48.5 76 Z " /><path fill="rgb(27,27,27)" stroke="rgb(27,27,27)" stroke-width="1" opacity="1" d="M 7.5 78 Q 10 79 8.5 80 Q 6 79 7.5 78 Z " /><path fill="rgb(27,27,27)" stroke="rgb(27,27,27)" stroke-width="1" opacity="1" d="M 44.5 78 L 44.5 79 L 44.5 78 Z " /><path fill="rgb(27,27,27)" stroke="rgb(27,27,27)" stroke-width="1" opacity="1" d="M 42.5 79 L 42.5 80 L 42.5 79 Z " /><path fill="rgb(27,27,27)" stroke="rgb(27,27,27)" stroke-width="1" opacity="1" d="M 39.5 80 L 41 80.5 L 39.5 81 L 39.5 80 Z " /><path fill="rgb(27,27,27)" stroke="rgb(27,27,27)" stroke-width="1" opacity="1" d="M 37.5 81 L 37.5 82 L 37.5 81 Z " /><path fill="rgb(27,27,27)" stroke="rgb(27,27,27)" stroke-width="1" opacity="1" d="M 35.5 82 L 35.5 83 L 35.5 82 Z " /><path fill="rgb(27,27,27)" stroke="rgb(27,27,27)" stroke-width="1" opacity="1" d="M 31.5 83 L 31.5 84 L 31.5 83 Z " /><path fill="rgb(27,27,27)" stroke="rgb(27,27,27)" stroke-width="1" opacity="1" d="M 14.5 84 L 16 84.5 L 14.5 85 L 14.5 84 Z " /><path fill="rgb(27,27,27)" stroke="rgb(27,27,27)" stroke-width="1" opacity="1" d="M 28.5 84 L 30 84.5 L 28.5 85 L 28.5 84 Z " /></svg>