<svg width="48" height="48" version="1.1" xmlns="http://www.w3.org/2000/svg" desc="Created with imagetracer.js version 1.2.6" ><path fill="rgb(0,0,0)" stroke="rgb(0,0,0)" stroke-width="1" opacity="0" d="M 0 0 L 48 0 L 48 23.5 Q 47 25 46 22.5 Q 47.67 20.67 47 16.5 L 44.5 14 L 22.5 14 L 17.5 20 L 17 17 L 20 15.5 L 19.5 14 L 12 14 L 12 17 L 14 17.5 L 14 21.5 L 13.5 22 L 10 18.5 L 8 14 L 0 14 L 0 0 Z " /><path fill="rgb(0,0,0)" stroke="rgb(0,0,0)" stroke-width="1" opacity="0" d="M 0.5 16 L 3 17 L 3 28.5 Q 2.96 29.38 0 29 L 0.5 16 Z " /><path fill="rgb(0,0,0)" stroke="rgb(0,0,0)" stroke-width="1" opacity="0" d="M 26.5 16 L 30 18.5 L 31.5 21 L 33 21 L 33 16.5 Q 34 15 35 17.5 L 35 22 L 26 22 L 26 25 L 28 25 L 28 29 Q 24.19 30 23 27.5 Q 21.17 25.33 22 20.5 L 24.5 17 L 26.5 16 Z " /><path fill="rgb(0,0,0)" stroke="rgb(0,0,0)" stroke-width="1" opacity="0" d="M 40 17 L 42 17 L 42 21 L 40 21 L 40 17 Z " /><path fill="rgb(0,0,0)" stroke="rgb(0,0,0)" stroke-width="1" opacity="0" d="M 6.5 21 L 14 30.5 L 14 32 L 17 32 L 17 26.5 L 18 26.5 L 19 30 L 23.5 32 L 30.5 32 Q 31.5 30 32.5 32 L 43.5 32 L 47.5 29 L 48 48 L 0 48 L 0 32 L 8 32 L 8 29 L 6 28.5 L 6.5 21 Z " /><path fill="rgb(0,0,0)" stroke="rgb(0,0,0)" stroke-width="1" opacity="0" d="M 40 24 L 43 25.5 Q 43.5 28.5 41.5 29 L 40 29 L 40 24 Z " /><path fill="rgb(0,0,0)" stroke="rgb(0,0,0)" stroke-width="1" opacity="0" d="M 33 25 L 35 25 L 35 29 L 33 29 L 33 25 Z " /><path fill="rgb(0,88,167)" stroke="rgb(0,88,167)" stroke-width="1" opacity="0.9803921568627451" d="M 4.5 15 L 6 15.5 L 4.5 16 L 4.5 15 Z " /><path fill="rgb(0,88,167)" stroke="rgb(0,88,167)" stroke-width="1" opacity="0.9803921568627451" d="M 15.5 15 L 15.5 16 L 15.5 15 Z " /><path fill="rgb(0,88,167)" stroke="rgb(0,88,167)" stroke-width="1" opacity="0.9803921568627451" d="M 36.5 15 L 38 15.5 L 36.5 16 L 36.5 15 Z " /><path fill="rgb(0,88,167)" stroke="rgb(0,88,167)" stroke-width="1" opacity="0.9803921568627451" d="M 22.5 16 L 22.5 17 L 22.5 16 Z " /><path fill="rgb(0,88,167)" stroke="rgb(0,88,167)" stroke-width="1" opacity="0.9803921568627451" d="M 43.5 16 L 43.5 17 L 43.5 16 Z " /><path fill="rgb(0,88,167)" stroke="rgb(0,88,167)" stroke-width="1" opacity="0.9803921568627451" d="M 4.5 17 L 6 17.5 L 4.5 18 L 4.5 17 Z " /><path fill="rgb(0,88,167)" stroke="rgb(0,88,167)" stroke-width="1" opacity="0.9803921568627451" d="M 36.5 17 L 37 27.5 L 36 27.5 L 36.5 17 Z " /><path fill="rgb(0,88,167)" stroke="rgb(0,88,167)" stroke-width="1" opacity="0.9803921568627451" d="M 45.5 17 L 45.5 18 L 45.5 17 Z " /><path fill="rgb(0,88,167)" stroke="rgb(0,88,167)" stroke-width="1" opacity="0.9803921568627451" d="M 8.5 18 L 8.5 19 L 8.5 18 Z " /><path fill="rgb(0,88,167)" stroke="rgb(0,88,167)" stroke-width="1" opacity="0.9803921568627451" d="M 19.5 19 L 19.5 20 L 19.5 19 Z " /><path fill="rgb(0,88,167)" stroke="rgb(0,88,167)" stroke-width="1" opacity="0.9803921568627451" d="M 45.5 19 L 45.5 20 L 45.5 19 Z " /><path fill="rgb(0,88,167)" stroke="rgb(0,88,167)" stroke-width="1" opacity="0.9803921568627451" d="M 20.5 21 L 21 23.5 L 20 23.5 L 20.5 21 Z " /><path fill="rgb(0,88,167)" stroke="rgb(0,88,167)" stroke-width="1" opacity="0.9803921568627451" d="M 9.5 22 L 9.5 23 L 9.5 22 Z " /><path fill="rgb(0,88,167)" stroke="rgb(0,88,167)" stroke-width="1" opacity="0.9803921568627451" d="M 11.5 22 L 11.5 23 L 11.5 22 Z " /><path fill="rgb(0,88,167)" stroke="rgb(0,88,167)" stroke-width="1" opacity="0.9803921568627451" d="M 42.5 22 L 45 23.5 L 43.5 24 Q 41 23 42.5 22 Z " /><path fill="rgb(0,88,167)" stroke="rgb(0,88,167)" stroke-width="1" opacity="0.9803921568627451" d="M 29.5 24 L 29.5 25 L 29.5 24 Z " /><path fill="rgb(0,88,167)" stroke="rgb(0,88,167)" stroke-width="1" opacity="0.9803921568627451" d="M 31.5 25 L 31.5 26 L 31.5 25 Z " /><path fill="rgb(0,88,167)" stroke="rgb(0,88,167)" stroke-width="1" opacity="0.9803921568627451" d="M 44.5 25 L 44.5 26 L 44.5 25 Z " /><path fill="rgb(0,88,167)" stroke="rgb(0,88,167)" stroke-width="1" opacity="0.9803921568627451" d="M 46.5 26 L 46.5 27 L 46.5 26 Z " /><path fill="rgb(0,88,167)" stroke="rgb(0,88,167)" stroke-width="1" opacity="0.9803921568627451" d="M 13.5 27 L 13.5 28 L 13.5 27 Z " /><path fill="rgb(0,88,167)" stroke="rgb(0,88,167)" stroke-width="1" opacity="0.9803921568627451" d="M 21.5 27 L 21.5 28 L 21.5 27 Z " /><path fill="rgb(0,88,167)" stroke="rgb(0,88,167)" stroke-width="1" opacity="0.9803921568627451" d="M 31.5 27 L 32 29.5 L 31 29.5 L 31.5 27 Z " /><path fill="rgb(0,88,167)" stroke="rgb(0,88,167)" stroke-width="1" opacity="0.9803921568627451" d="M 44.5 27 L 44.5 28 L 44.5 27 Z " /><path fill="rgb(0,88,167)" stroke="rgb(0,88,167)" stroke-width="1" opacity="0.9803921568627451" d="M 4.5 29 L 4.5 30 L 4.5 29 Z " /><path fill="rgb(0,88,167)" stroke="rgb(0,88,167)" stroke-width="1" opacity="0.9803921568627451" d="M 43.5 29 L 43.5 30 L 43.5 29 Z " /><path fill="rgb(0,88,167)" stroke="rgb(0,88,167)" stroke-width="1" opacity="0.6705882352941176" d="M 2.5 15 L 2.5 16 L 2.5 15 Z " /><path fill="rgb(0,88,167)" stroke="rgb(0,88,167)" stroke-width="1" opacity="0.6705882352941176" d="M 13.5 15 L 13.5 16 L 13.5 15 Z " /><path fill="rgb(0,88,167)" stroke="rgb(0,88,167)" stroke-width="1" opacity="0.6705882352941176" d="M 17.5 15 L 19 15.5 L 16.5 17 Q 15 16 17.5 15 Z " /><path fill="rgb(0,88,167)" stroke="rgb(0,88,167)" stroke-width="1" opacity="0.6705882352941176" d="M 34.5 15 L 34.5 16 L 34.5 15 Z " /><path fill="rgb(0,88,167)" stroke="rgb(0,88,167)" stroke-width="1" opacity="0.6705882352941176" d="M 39.5 15 L 41 15.5 L 39.5 16 L 39.5 15 Z " /><path fill="rgb(0,88,167)" stroke="rgb(0,88,167)" stroke-width="1" opacity="0.6705882352941176" d="M 44.5 15 L 44.5 16 L 44.5 15 Z " /><path fill="rgb(0,88,167)" stroke="rgb(0,88,167)" stroke-width="1" opacity="0.6705882352941176" d="M 29.5 16 L 29.5 17 L 29.5 16 Z " /><path fill="rgb(0,88,167)" stroke="rgb(0,88,167)" stroke-width="1" opacity="0.6705882352941176" d="M 22.5 17 L 22.5 18 L 22.5 17 Z " /><path fill="rgb(0,88,167)" stroke="rgb(0,88,167)" stroke-width="1" opacity="0.6705882352941176" d="M 5.5 18 L 5.5 19 L 5.5 18 Z " /><path fill="rgb(0,88,167)" stroke="rgb(0,88,167)" stroke-width="1" opacity="0.6705882352941176" d="M 43.5 18 L 43.5 19 L 43.5 18 Z " /><path fill="rgb(0,88,167)" stroke="rgb(0,88,167)" stroke-width="1" opacity="0.6705882352941176" d="M 21.5 19 L 21.5 20 L 21.5 19 Z " /><path fill="rgb(0,88,167)" stroke="rgb(0,88,167)" stroke-width="1" opacity="0.6705882352941176" d="M 18.5 20 L 18.5 21 L 18.5 20 Z " /><path fill="rgb(0,88,167)" stroke="rgb(0,88,167)" stroke-width="1" opacity="0.6705882352941176" d="M 11.5 21 L 11.5 22 L 11.5 21 Z " /><path fill="rgb(0,88,167)" stroke="rgb(0,88,167)" stroke-width="1" opacity="0.6705882352941176" d="M 44.5 21 L 44.5 22 L 44.5 21 Z " /><path fill="rgb(0,88,167)" stroke="rgb(0,88,167)" stroke-width="1" opacity="0.6705882352941176" d="M 27.5 23 L 27.5 24 L 27.5 23 Z " /><path fill="rgb(0,88,167)" stroke="rgb(0,88,167)" stroke-width="1" opacity="0.6705882352941176" d="M 32.5 24 L 32.5 25 L 32.5 24 Z " /><path fill="rgb(0,88,167)" stroke="rgb(0,88,167)" stroke-width="1" opacity="0.6705882352941176" d="M 46.5 24 L 46.5 25 L 46.5 24 Z " /><path fill="rgb(0,88,167)" stroke="rgb(0,88,167)" stroke-width="1" opacity="0.6705882352941176" d="M 13.5 28 L 13.5 29 L 13.5 28 Z " /><path fill="rgb(0,88,167)" stroke="rgb(0,88,167)" stroke-width="1" opacity="0.6705882352941176" d="M 43.5 28 L 43.5 31 Q 40.5 29.5 43.5 28 Z " /><path fill="rgb(0,88,167)" stroke="rgb(0,88,167)" stroke-width="1" opacity="0.6705882352941176" d="M 46.5 28 L 46.5 29 L 46.5 28 Z " /><path fill="rgb(0,88,167)" stroke="rgb(0,88,167)" stroke-width="1" opacity="0.6705882352941176" d="M 3.5 29 L 3.5 30 L 3.5 29 Z " /><path fill="rgb(0,88,167)" stroke="rgb(0,88,167)" stroke-width="1" opacity="0.6705882352941176" d="M 35.5 29 L 35.5 30 L 35.5 29 Z " /><path fill="rgb(0,88,167)" stroke="rgb(0,88,167)" stroke-width="1" opacity="0.6705882352941176" d="M 1.5 30 L 1.5 31 L 1.5 30 Z " /><path fill="rgb(0,88,167)" stroke="rgb(0,88,167)" stroke-width="1" opacity="0.6705882352941176" d="M 6.5 30 L 6.5 31 L 6.5 30 Z " /><path fill="rgb(0,88,167)" stroke="rgb(0,88,167)" stroke-width="1" opacity="0.6705882352941176" d="M 26.5 30 L 26.5 31 L 26.5 30 Z " /><path fill="rgb(0,88,167)" stroke="rgb(0,88,167)" stroke-width="1" opacity="0.6705882352941176" d="M 30.5 30 L 30.5 31 L 30.5 30 Z " /><path fill="rgb(0,88,167)" stroke="rgb(0,88,167)" stroke-width="1" opacity="0.6705882352941176" d="M 39.5 30 L 41 30.5 L 39.5 31 L 39.5 30 Z " /><path fill="rgb(0,88,167)" stroke="rgb(0,88,167)" stroke-width="1" opacity="0.7647058823529411" d="M 14.5 15 L 14.5 16 L 14.5 15 Z " /><path fill="rgb(0,88,167)" stroke="rgb(0,88,167)" stroke-width="1" opacity="0.7647058823529411" d="M 24.5 15 L 24.5 16 L 24.5 15 Z " /><path fill="rgb(0,88,167)" stroke="rgb(0,88,167)" stroke-width="1" opacity="0.7647058823529411" d="M 41.5 15 L 41.5 16 L 41.5 15 Z " /><path fill="rgb(0,88,167)" stroke="rgb(0,88,167)" stroke-width="1" opacity="0.7647058823529411" d="M 7.5 16 L 7.5 17 L 7.5 16 Z " /><path fill="rgb(0,88,167)" stroke="rgb(0,88,167)" stroke-width="1" opacity="0.7647058823529411" d="M 45.5 16 L 45.5 17 L 45.5 16 Z " /><path fill="rgb(0,88,167)" stroke="rgb(0,88,167)" stroke-width="1" opacity="0.7647058823529411" d="M 15.5 17 L 16 24.5 Q 15 27 14 25.5 L 15 24.5 L 15.5 17 Z " /><path fill="rgb(0,88,167)" stroke="rgb(0,88,167)" stroke-width="1" opacity="0.7647058823529411" d="M 30.5 17 L 30.5 18 L 30.5 17 Z " /><path fill="rgb(0,88,167)" stroke="rgb(0,88,167)" stroke-width="1" opacity="0.7647058823529411" d="M 38.5 17 L 39 20.5 L 38 20.5 L 38.5 17 Z " /><path fill="rgb(0,88,167)" stroke="rgb(0,88,167)" stroke-width="1" opacity="0.7647058823529411" d="M 19.5 18 L 19.5 19 L 19.5 18 Z " /><path fill="rgb(0,88,167)" stroke="rgb(0,88,167)" stroke-width="1" opacity="0.7647058823529411" d="M 6.5 19 L 6.5 20 L 6.5 19 Z " /><path fill="rgb(0,88,167)" stroke="rgb(0,88,167)" stroke-width="1" opacity="0.7647058823529411" d="M 43.5 19 L 43.5 20 L 43.5 19 Z " /><path fill="rgb(0,88,167)" stroke="rgb(0,88,167)" stroke-width="1" opacity="0.7647058823529411" d="M 10.5 20 L 10.5 21 L 10.5 20 Z " /><path fill="rgb(0,88,167)" stroke="rgb(0,88,167)" stroke-width="1" opacity="0.7647058823529411" d="M 45.5 20 L 45.5 21 L 45.5 20 Z " /><path fill="rgb(0,88,167)" stroke="rgb(0,88,167)" stroke-width="1" opacity="0.7647058823529411" d="M 39.5 22 L 41 22.5 L 39.5 23 L 39.5 22 Z " /><path fill="rgb(0,88,167)" stroke="rgb(0,88,167)" stroke-width="1" opacity="0.7647058823529411" d="M 43.5 22 L 43.5 23 L 43.5 22 Z " /><path fill="rgb(0,88,167)" stroke="rgb(0,88,167)" stroke-width="1" opacity="0.7647058823529411" d="M 28.5 23 L 34 23.5 L 28.5 24 L 28.5 23 Z " /><path fill="rgb(0,88,167)" stroke="rgb(0,88,167)" stroke-width="1" opacity="0.7647058823529411" d="M 45.5 23 L 45.5 24 L 45.5 23 Z " /><path fill="rgb(0,88,167)" stroke="rgb(0,88,167)" stroke-width="1" opacity="0.7647058823529411" d="M 10.5 24 L 10.5 25 L 10.5 24 Z " /><path fill="rgb(0,88,167)" stroke="rgb(0,88,167)" stroke-width="1" opacity="0.7647058823529411" d="M 38.5 24 L 39 28.5 L 38 28.5 L 38.5 24 Z " /><path fill="rgb(0,88,167)" stroke="rgb(0,88,167)" stroke-width="1" opacity="0.7647058823529411" d="M 18.5 25 L 18.5 26 L 18.5 25 Z " /><path fill="rgb(0,88,167)" stroke="rgb(0,88,167)" stroke-width="1" opacity="0.7647058823529411" d="M 21.5 26 L 21.5 27 L 21.5 26 Z " /><path fill="rgb(0,88,167)" stroke="rgb(0,88,167)" stroke-width="1" opacity="0.7647058823529411" d="M 45.5 29 L 45.5 30 L 45.5 29 Z " /><path fill="rgb(0,88,167)" stroke="rgb(0,88,167)" stroke-width="1" opacity="0.7647058823529411" d="M 2.5 30 L 6 30.5 L 2.5 31 L 2.5 30 Z " /><path fill="rgb(0,88,167)" stroke="rgb(0,88,167)" stroke-width="1" opacity="0.7647058823529411" d="M 23.5 30 L 23.5 31 L 23.5 30 Z " /><path fill="rgb(0,88,167)" stroke="rgb(0,88,167)" stroke-width="1" opacity="0.7647058823529411" d="M 25.5 30 L 25.5 31 L 25.5 30 Z " /><path fill="rgb(0,88,167)" stroke="rgb(0,88,167)" stroke-width="1" opacity="0.7647058823529411" d="M 27.5 30 L 27.5 31 L 27.5 30 Z " /><path fill="rgb(0,88,167)" stroke="rgb(0,88,167)" stroke-width="1" opacity="0.7647058823529411" d="M 29.5 30 L 29.5 31 L 29.5 30 Z " /><path fill="rgb(0,88,167)" stroke="rgb(0,88,167)" stroke-width="1" opacity="0.7647058823529411" d="M 34.5 30 L 36 30.5 L 34.5 31 L 34.5 30 Z " /><path fill="rgb(0,88,167)" stroke="rgb(0,88,167)" stroke-width="1" opacity="0.7647058823529411" d="M 38.5 30 L 38.5 31 L 38.5 30 Z " /><path fill="rgb(0,88,167)" stroke="rgb(0,88,167)" stroke-width="1" opacity="0.7647058823529411" d="M 41.5 30 L 43 30.5 L 41.5 31 L 41.5 30 Z " /><path fill="rgb(0,88,167)" stroke="rgb(0,88,167)" stroke-width="1" opacity="0.19215686274509805" d="M 6.5 14 Q 9 15 7.5 16 Q 5 15 6.5 14 Z " /><path fill="rgb(0,88,167)" stroke="rgb(0,88,167)" stroke-width="1" opacity="0.19215686274509805" d="M 31.5 14 L 32.5 15 L 34 14.5 L 32.5 19 L 31.5 14 Z " /><path fill="rgb(0,88,167)" stroke="rgb(0,88,167)" stroke-width="1" opacity="0.19215686274509805" d="M 42.5 14 L 44 14.5 L 42.5 15 L 42.5 14 Z " /><path fill="rgb(0,88,167)" stroke="rgb(0,88,167)" stroke-width="1" opacity="0.19215686274509805" d="M 0.5 15 L 0.5 16 L 0.5 15 Z " /><path fill="rgb(0,88,167)" stroke="rgb(0,88,167)" stroke-width="1" opacity="0.19215686274509805" d="M 19.5 15 Q 22.5 16.5 19.5 18 L 19.5 15 Z " /><path fill="rgb(0,88,167)" stroke="rgb(0,88,167)" stroke-width="1" opacity="0.19215686274509805" d="M 45.5 15 L 45.5 16 L 45.5 15 Z " /><path fill="rgb(0,88,167)" stroke="rgb(0,88,167)" stroke-width="1" opacity="0.19215686274509805" d="M 22.5 18 L 22.5 19 L 22.5 18 Z " /><path fill="rgb(0,88,167)" stroke="rgb(0,88,167)" stroke-width="1" opacity="0.19215686274509805" d="M 5.5 19 Q 8 20 6.5 21 Q 4 20 5.5 19 Z " /><path fill="rgb(0,88,167)" stroke="rgb(0,88,167)" stroke-width="1" opacity="0.19215686274509805" d="M 10.5 19 L 10.5 20 L 10.5 19 Z " /><path fill="rgb(0,88,167)" stroke="rgb(0,88,167)" stroke-width="1" opacity="0.19215686274509805" d="M 42.5 20 L 42.5 21 L 42.5 20 Z " /><path fill="rgb(0,88,167)" stroke="rgb(0,88,167)" stroke-width="1" opacity="0.19215686274509805" d="M 39.5 21 L 41 21.5 L 39.5 22 L 39.5 21 Z " /><path fill="rgb(0,88,167)" stroke="rgb(0,88,167)" stroke-width="1" opacity="0.19215686274509805" d="M 45.5 21 L 45.5 22 L 45.5 21 Z " /><path fill="rgb(0,88,167)" stroke="rgb(0,88,167)" stroke-width="1" opacity="0.19215686274509805" d="M 17.5 22 L 18 24.5 L 17 24.5 L 17.5 22 Z " /><path fill="rgb(0,88,167)" stroke="rgb(0,88,167)" stroke-width="1" opacity="0.19215686274509805" d="M 39.5 23 L 39.5 24 L 39.5 23 Z " /><path fill="rgb(0,88,167)" stroke="rgb(0,88,167)" stroke-width="1" opacity="0.19215686274509805" d="M 41.5 23 L 41.5 24 L 41.5 23 Z " /><path fill="rgb(0,88,167)" stroke="rgb(0,88,167)" stroke-width="1" opacity="0.19215686274509805" d="M 46.5 23 L 46.5 24 L 46.5 23 Z " /><path fill="rgb(0,88,167)" stroke="rgb(0,88,167)" stroke-width="1" opacity="0.19215686274509805" d="M 14.5 24 L 14.5 25 L 14.5 24 Z " /><path fill="rgb(0,88,167)" stroke="rgb(0,88,167)" stroke-width="1" opacity="0.19215686274509805" d="M 27.5 24 L 27.5 25 L 27.5 24 Z " /><path fill="rgb(0,88,167)" stroke="rgb(0,88,167)" stroke-width="1" opacity="0.19215686274509805" d="M 33.5 24 L 33.5 25 L 33.5 24 Z " /><path fill="rgb(0,88,167)" stroke="rgb(0,88,167)" stroke-width="1" opacity="0.19215686274509805" d="M 10.5 25 L 10.5 26 L 10.5 25 Z " /><path fill="rgb(0,88,167)" stroke="rgb(0,88,167)" stroke-width="1" opacity="0.19215686274509805" d="M 47.5 25 L 47.5 26 L 47.5 25 Z " /><path fill="rgb(0,88,167)" stroke="rgb(0,88,167)" stroke-width="1" opacity="0.19215686274509805" d="M 32.5 26 L 32.5 27 L 32.5 26 Z " /><path fill="rgb(0,88,167)" stroke="rgb(0,88,167)" stroke-width="1" opacity="0.19215686274509805" d="M 43.5 26 L 43.5 27 L 43.5 26 Z " /><path fill="rgb(0,88,167)" stroke="rgb(0,88,167)" stroke-width="1" opacity="0.19215686274509805" d="M 18.5 27 L 18.5 28 L 18.5 27 Z " /><path fill="rgb(0,88,167)" stroke="rgb(0,88,167)" stroke-width="1" opacity="0.19215686274509805" d="M 47.5 27 L 47.5 28 L 47.5 27 Z " /><path fill="rgb(0,88,167)" stroke="rgb(0,88,167)" stroke-width="1" opacity="0.19215686274509805" d="M 23.5 28 L 23.5 29 L 23.5 28 Z " /><path fill="rgb(0,88,167)" stroke="rgb(0,88,167)" stroke-width="1" opacity="0.19215686274509805" d="M 1.5 29 L 3 29.5 L 0.5 31 Q -1 30 1.5 29 Z " /><path fill="rgb(0,88,167)" stroke="rgb(0,88,167)" stroke-width="1" opacity="0.19215686274509805" d="M 6.5 29 L 6.5 30 L 6.5 29 Z " /><path fill="rgb(0,88,167)" stroke="rgb(0,88,167)" stroke-width="1" opacity="0.19215686274509805" d="M 13.5 29 L 13.5 30 L 13.5 29 Z " /><path fill="rgb(0,88,167)" stroke="rgb(0,88,167)" stroke-width="1" opacity="0.19215686274509805" d="M 34.5 29 L 34.5 30 L 34.5 29 Z " /><path fill="rgb(0,88,167)" stroke="rgb(0,88,167)" stroke-width="1" opacity="0.19215686274509805" d="M 39.5 29 L 41 29.5 L 39.5 30 L 39.5 29 Z " /><path fill="rgb(0,88,167)" stroke="rgb(0,88,167)" stroke-width="1" opacity="0.19215686274509805" d="M 46.5 29 L 46.5 30 L 46.5 29 Z " /><path fill="rgb(0,88,167)" stroke="rgb(0,88,167)" stroke-width="1" opacity="0.19215686274509805" d="M 25.5 31 L 29 31.5 L 25.5 32 L 25.5 31 Z " /><path fill="rgb(0,88,167)" stroke="rgb(0,88,167)" stroke-width="1" opacity="1" d="M 29.5 15 Q 31.75 14.25 31 16.5 L 30.5 17 Q 28 16 29.5 15 Z " /><path fill="rgb(0,88,167)" stroke="rgb(0,88,167)" stroke-width="1" opacity="1" d="M 4.5 16 Q 7.5 15.5 8 17.5 L 14.5 26 Q 17.5 25.12 16 29.5 Q 15 31 14 28.5 L 6 18.5 L 6 17 L 4 16.5 L 4.5 16 Z " /><path fill="rgb(0,88,167)" stroke="rgb(0,88,167)" stroke-width="1" opacity="1" d="M 36.5 16 L 38 16.5 L 38 30 Q 35.33 31.13 36 28.5 L 37 27.5 L 37 17.5 L 36.5 16 Z " /><path fill="rgb(0,88,167)" stroke="rgb(0,88,167)" stroke-width="1" opacity="1" d="M 44.5 16 L 46 18.5 L 44.5 21 L 44.5 16 Z " /><path fill="rgb(0,88,167)" stroke="rgb(0,88,167)" stroke-width="1" opacity="1" d="M 21.5 17 L 21 18.5 L 20 23.5 Q 21.75 24.25 21 27.5 L 23 29.5 L 22.5 30 L 19 26.5 Q 17.75 19.25 21.5 17 Z " /><path fill="rgb(0,88,167)" stroke="rgb(0,88,167)" stroke-width="1" opacity="1" d="M 30 24 L 32 24.5 L 31 25.5 L 30.5 30 L 30 24 Z " /><path fill="rgb(0,88,167)" stroke="rgb(0,88,167)" stroke-width="1" opacity="1" d="M 44.5 24 L 46 24 L 46 28.5 Q 45 31 44 29.5 L 45 25.5 L 44.5 24 Z " /><path fill="rgb(0,88,167)" stroke="rgb(0,88,167)" stroke-width="1" opacity="0.5450980392156862" d="M 26.5 14 L 29 14.5 L 27.5 16 L 26.5 15 L 25 15.5 L 26.5 14 Z " /><path fill="rgb(0,88,167)" stroke="rgb(0,88,167)" stroke-width="1" opacity="0.5450980392156862" d="M 1.5 15 L 1.5 16 L 1.5 15 Z " /><path fill="rgb(0,88,167)" stroke="rgb(0,88,167)" stroke-width="1" opacity="0.5450980392156862" d="M 22.5 15 Q 25 16 23.5 17 Q 21 16 22.5 15 Z " /><path fill="rgb(0,88,167)" stroke="rgb(0,88,167)" stroke-width="1" opacity="0.5450980392156862" d="M 3.5 16 L 3.5 17 L 3.5 16 Z " /><path fill="rgb(0,88,167)" stroke="rgb(0,88,167)" stroke-width="1" opacity="0.5450980392156862" d="M 42.5 16 L 42.5 17 L 42.5 16 Z " /><path fill="rgb(0,88,167)" stroke="rgb(0,88,167)" stroke-width="1" opacity="0.5450980392156862" d="M 8.5 17 L 8.5 18 L 8.5 17 Z " /><path fill="rgb(0,88,167)" stroke="rgb(0,88,167)" stroke-width="1" opacity="0.5450980392156862" d="M 16.5 17 L 17 29.5 L 16 29.5 L 16.5 17 Z " /><path fill="rgb(0,88,167)" stroke="rgb(0,88,167)" stroke-width="1" opacity="0.5450980392156862" d="M 31.5 19 L 31.5 20 L 31.5 19 Z " /><path fill="rgb(0,88,167)" stroke="rgb(0,88,167)" stroke-width="1" opacity="0.5450980392156862" d="M 9.5 23 L 9.5 24 L 9.5 23 Z " /><path fill="rgb(0,88,167)" stroke="rgb(0,88,167)" stroke-width="1" opacity="0.5450980392156862" d="M 42.5 23 Q 45 24 43.5 25 Q 41 24 42.5 23 Z " /><path fill="rgb(0,88,167)" stroke="rgb(0,88,167)" stroke-width="1" opacity="0.5450980392156862" d="M 21.5 25 L 21.5 26 L 21.5 25 Z " /><path fill="rgb(0,88,167)" stroke="rgb(0,88,167)" stroke-width="1" opacity="0.5450980392156862" d="M 18.5 26 L 18.5 27 L 18.5 26 Z " /><path fill="rgb(0,88,167)" stroke="rgb(0,88,167)" stroke-width="1" opacity="0.5450980392156862" d="M 12.5 27 L 12.5 28 L 12.5 27 Z " /><path fill="rgb(0,88,167)" stroke="rgb(0,88,167)" stroke-width="1" opacity="0.5450980392156862" d="M 33.5 30 L 33.5 31 L 33.5 30 Z " /><path fill="rgb(0,88,167)" stroke="rgb(0,88,167)" stroke-width="1" opacity="0.3176470588235294" d="M 1.5 14 L 6 14.5 L 1.5 15 L 1.5 14 Z " /><path fill="rgb(0,88,167)" stroke="rgb(0,88,167)" stroke-width="1" opacity="0.3176470588235294" d="M 13.5 14 L 19 14.5 L 13.5 15 L 12.5 16 Q 11 15 13.5 14 Z " /><path fill="rgb(0,88,167)" stroke="rgb(0,88,167)" stroke-width="1" opacity="0.3176470588235294" d="M 24.5 14 L 24.5 15 L 24.5 14 Z " /><path fill="rgb(0,88,167)" stroke="rgb(0,88,167)" stroke-width="1" opacity="0.3176470588235294" d="M 30.5 14 L 30.5 15 L 30.5 14 Z " /><path fill="rgb(0,88,167)" stroke="rgb(0,88,167)" stroke-width="1" opacity="0.3176470588235294" d="M 34.5 14 L 42 14.5 L 34.5 15 L 34.5 14 Z " /><path fill="rgb(0,88,167)" stroke="rgb(0,88,167)" stroke-width="1" opacity="0.3176470588235294" d="M 3.5 17 L 4 27.5 L 3 27.5 L 3.5 17 Z " /><path fill="rgb(0,88,167)" stroke="rgb(0,88,167)" stroke-width="1" opacity="0.3176470588235294" d="M 35.5 17 L 36 28.5 L 35 28.5 L 35.5 17 Z " /><path fill="rgb(0,88,167)" stroke="rgb(0,88,167)" stroke-width="1" opacity="0.3176470588235294" d="M 46.5 17 L 47 19.5 L 46 19.5 L 46.5 17 Z " /><path fill="rgb(0,88,167)" stroke="rgb(0,88,167)" stroke-width="1" opacity="0.3176470588235294" d="M 30.5 18 L 30.5 19 L 30.5 18 Z " /><path fill="rgb(0,88,167)" stroke="rgb(0,88,167)" stroke-width="1" opacity="0.3176470588235294" d="M 18.5 19 L 18.5 20 L 18.5 19 Z " /><path fill="rgb(0,88,167)" stroke="rgb(0,88,167)" stroke-width="1" opacity="0.3176470588235294" d="M 7.5 21 L 7.5 22 L 7.5 21 Z " /><path fill="rgb(0,88,167)" stroke="rgb(0,88,167)" stroke-width="1" opacity="0.3176470588235294" d="M 21.5 21 L 22 24.5 L 21 24.5 L 21.5 21 Z " /><path fill="rgb(0,88,167)" stroke="rgb(0,88,167)" stroke-width="1" opacity="0.3176470588235294" d="M 41.5 21 L 41.5 22 L 41.5 21 Z " /><path fill="rgb(0,88,167)" stroke="rgb(0,88,167)" stroke-width="1" opacity="0.3176470588235294" d="M 13.5 23 L 13.5 24 L 13.5 23 Z " /><path fill="rgb(0,88,167)" stroke="rgb(0,88,167)" stroke-width="1" opacity="0.3176470588235294" d="M 26.5 23 L 26.5 24 L 26.5 23 Z " /><path fill="rgb(0,88,167)" stroke="rgb(0,88,167)" stroke-width="1" opacity="0.3176470588235294" d="M 32.5 25 L 32.5 26 L 32.5 25 Z " /><path fill="rgb(0,88,167)" stroke="rgb(0,88,167)" stroke-width="1" opacity="0.3176470588235294" d="M 43.5 25 L 43.5 26 L 43.5 25 Z " /><path fill="rgb(0,88,167)" stroke="rgb(0,88,167)" stroke-width="1" opacity="0.3176470588235294" d="M 11.5 26 L 11.5 27 L 11.5 26 Z " /><path fill="rgb(0,88,167)" stroke="rgb(0,88,167)" stroke-width="1" opacity="0.3176470588235294" d="M 47.5 26 L 47.5 27 L 47.5 26 Z " /><path fill="rgb(0,88,167)" stroke="rgb(0,88,167)" stroke-width="1" opacity="0.3176470588235294" d="M 22.5 27 L 22.5 28 L 22.5 27 Z " /><path fill="rgb(0,88,167)" stroke="rgb(0,88,167)" stroke-width="1" opacity="0.3176470588235294" d="M 32.5 27 L 33 29.5 Q 32 32 31 30.5 L 32.5 27 Z " /><path fill="rgb(0,88,167)" stroke="rgb(0,88,167)" stroke-width="1" opacity="0.3176470588235294" d="M 43.5 27 L 43.5 28 L 43.5 27 Z " /><path fill="rgb(0,88,167)" stroke="rgb(0,88,167)" stroke-width="1" opacity="0.3176470588235294" d="M 19.5 28 Q 22 29 20.5 30 Q 18 29 19.5 28 Z " /><path fill="rgb(0,88,167)" stroke="rgb(0,88,167)" stroke-width="1" opacity="0.3176470588235294" d="M 24.5 29 L 24.5 30 L 24.5 29 Z " /><path fill="rgb(0,88,167)" stroke="rgb(0,88,167)" stroke-width="1" opacity="0.3176470588235294" d="M 28.5 29 L 28.5 30 L 28.5 29 Z " /><path fill="rgb(0,88,167)" stroke="rgb(0,88,167)" stroke-width="1" opacity="0.3176470588235294" d="M 41.5 29 L 41.5 30 L 41.5 29 Z " /><path fill="rgb(0,88,167)" stroke="rgb(0,88,167)" stroke-width="1" opacity="0.3176470588235294" d="M 7.5 30 L 7.5 31 L 7.5 30 Z " /><path fill="rgb(0,88,167)" stroke="rgb(0,88,167)" stroke-width="1" opacity="0.3176470588235294" d="M 14.5 30 L 14.5 31 L 14.5 30 Z " /><path fill="rgb(0,88,167)" stroke="rgb(0,88,167)" stroke-width="1" opacity="0.8392156862745098" d="M 6.5 15 L 6.5 16 L 6.5 15 Z " /><path fill="rgb(0,88,167)" stroke="rgb(0,88,167)" stroke-width="1" opacity="0.8392156862745098" d="M 23.5 15 L 23.5 16 L 23.5 15 Z " /><path fill="rgb(0,88,167)" stroke="rgb(0,88,167)" stroke-width="1" opacity="0.8392156862745098" d="M 28.5 15 L 28.5 16 L 28.5 15 Z " /><path fill="rgb(0,88,167)" stroke="rgb(0,88,167)" stroke-width="1" opacity="0.8392156862745098" d="M 31.5 15 L 31.5 16 L 31.5 15 Z " /><path fill="rgb(0,88,167)" stroke="rgb(0,88,167)" stroke-width="1" opacity="0.8392156862745098" d="M 15.5 16 L 15.5 17 L 15.5 16 Z " /><path fill="rgb(0,88,167)" stroke="rgb(0,88,167)" stroke-width="1" opacity="0.8392156862745098" d="M 21.5 16 Q 23 17 20.5 18 Q 19 17 21.5 16 Z " /><path fill="rgb(0,88,167)" stroke="rgb(0,88,167)" stroke-width="1" opacity="0.8392156862745098" d="M 38.5 16 L 38.5 17 L 38.5 16 Z " /><path fill="rgb(0,88,167)" stroke="rgb(0,88,167)" stroke-width="1" opacity="0.8392156862745098" d="M 43.5 17 L 43.5 18 L 43.5 17 Z " /><path fill="rgb(0,88,167)" stroke="rgb(0,88,167)" stroke-width="1" opacity="0.8392156862745098" d="M 4.5 18 L 5 27.5 L 4 27.5 L 4.5 18 Z " /><path fill="rgb(0,88,167)" stroke="rgb(0,88,167)" stroke-width="1" opacity="0.8392156862745098" d="M 31.5 18 L 31.5 19 L 31.5 18 Z " /><path fill="rgb(0,88,167)" stroke="rgb(0,88,167)" stroke-width="1" opacity="0.8392156862745098" d="M 9.5 19 L 9.5 20 L 9.5 19 Z " /><path fill="rgb(0,88,167)" stroke="rgb(0,88,167)" stroke-width="1" opacity="0.8392156862745098" d="M 7.5 20 L 7.5 21 L 7.5 20 Z " /><path fill="rgb(0,88,167)" stroke="rgb(0,88,167)" stroke-width="1" opacity="0.8392156862745098" d="M 18.5 21 L 18.5 22 L 18.5 21 Z " /><path fill="rgb(0,88,167)" stroke="rgb(0,88,167)" stroke-width="1" opacity="0.8392156862745098" d="M 38.5 21 L 38.5 22 L 38.5 21 Z " /><path fill="rgb(0,88,167)" stroke="rgb(0,88,167)" stroke-width="1" opacity="0.8392156862745098" d="M 42.5 21 L 42.5 22 L 42.5 21 Z " /><path fill="rgb(0,88,167)" stroke="rgb(0,88,167)" stroke-width="1" opacity="0.8392156862745098" d="M 38.5 23 L 38.5 24 L 38.5 23 Z " /><path fill="rgb(0,88,167)" stroke="rgb(0,88,167)" stroke-width="1" opacity="0.8392156862745098" d="M 13.5 24 L 13.5 25 L 13.5 24 Z " /><path fill="rgb(0,88,167)" stroke="rgb(0,88,167)" stroke-width="1" opacity="0.8392156862745098" d="M 11.5 25 L 11.5 26 L 11.5 25 Z " /><path fill="rgb(0,88,167)" stroke="rgb(0,88,167)" stroke-width="1" opacity="0.8392156862745098" d="M 15.5 25 L 15.5 26 L 15.5 25 Z " /><path fill="rgb(0,88,167)" stroke="rgb(0,88,167)" stroke-width="1" opacity="0.8392156862745098" d="M 29.5 25 L 30 28.5 L 29 28.5 L 29.5 25 Z " /><path fill="rgb(0,88,167)" stroke="rgb(0,88,167)" stroke-width="1" opacity="0.8392156862745098" d="M 19.5 27 L 19.5 28 L 19.5 27 Z " /><path fill="rgb(0,88,167)" stroke="rgb(0,88,167)" stroke-width="1" opacity="0.8392156862745098" d="M 22.5 28 L 25 30.5 L 24.5 31 L 22.5 29 L 21 29.5 L 22.5 28 Z " /><path fill="rgb(0,88,167)" stroke="rgb(0,88,167)" stroke-width="1" opacity="0.8392156862745098" d="M 14.5 29 L 14.5 30 L 14.5 29 Z " /><path fill="rgb(0,88,167)" stroke="rgb(0,88,167)" stroke-width="1" opacity="0.8392156862745098" d="M 38.5 29 Q 40 30 37.5 31 L 36 30.5 L 38.5 29 Z " /><path fill="rgb(0,88,167)" stroke="rgb(0,88,167)" stroke-width="1" opacity="0.8392156862745098" d="M 28.5 30 L 28.5 31 L 28.5 30 Z " /><path fill="rgb(0,88,167)" stroke="rgb(0,88,167)" stroke-width="1" opacity="0.0392156862745098" d="M 0.5 14 L 0.5 15 L 0.5 14 Z " /><path fill="rgb(0,88,167)" stroke="rgb(0,88,167)" stroke-width="1" opacity="0.0392156862745098" d="M 7.5 14 L 7.5 15 L 7.5 14 Z " /><path fill="rgb(0,88,167)" stroke="rgb(0,88,167)" stroke-width="1" opacity="0.0392156862745098" d="M 19.5 14 L 19.5 15 L 19.5 14 Z " /><path fill="rgb(0,88,167)" stroke="rgb(0,88,167)" stroke-width="1" opacity="0.0392156862745098" d="M 22.5 14 L 22.5 15 L 22.5 14 Z " /><path fill="rgb(0,88,167)" stroke="rgb(0,88,167)" stroke-width="1" opacity="0.0392156862745098" d="M 32.5 14 L 32.5 15 L 32.5 14 Z " /><path fill="rgb(0,88,167)" stroke="rgb(0,88,167)" stroke-width="1" opacity="0.0392156862745098" d="M 44.5 14 L 44.5 15 L 44.5 14 Z " /><path fill="rgb(0,88,167)" stroke="rgb(0,88,167)" stroke-width="1" opacity="0.0392156862745098" d="M 1.5 16 L 3 16.5 L 1.5 17 L 1.5 16 Z " /><path fill="rgb(0,88,167)" stroke="rgb(0,88,167)" stroke-width="1" opacity="0.0392156862745098" d="M 12.5 16 L 15 17.5 L 14.5 24 L 12 21.5 L 12.5 21 L 14 21.5 L 14 17 L 12.5 17 L 12.5 16 Z " /><path fill="rgb(0,88,167)" stroke="rgb(0,88,167)" stroke-width="1" opacity="0.0392156862745098" d="M 17.5 16 L 19 16.5 L 17.5 17 L 17.5 16 Z " /><path fill="rgb(0,88,167)" stroke="rgb(0,88,167)" stroke-width="1" opacity="0.0392156862745098" d="M 25.5 16 L 25.5 17 L 25.5 16 Z " /><path fill="rgb(0,88,167)" stroke="rgb(0,88,167)" stroke-width="1" opacity="0.0392156862745098" d="M 34.5 16 L 34.5 17 L 34.5 16 Z " /><path fill="rgb(0,88,167)" stroke="rgb(0,88,167)" stroke-width="1" opacity="0.0392156862745098" d="M 40.5 16 L 40 17.5 L 39.5 21 L 39 17.5 L 40.5 16 Z " /><path fill="rgb(0,88,167)" stroke="rgb(0,88,167)" stroke-width="1" opacity="0.0392156862745098" d="M 9.5 17 L 9.5 18 L 9.5 17 Z " /><path fill="rgb(0,88,167)" stroke="rgb(0,88,167)" stroke-width="1" opacity="0.0392156862745098" d="M 23.5 17 L 23.5 18 L 23.5 17 Z " /><path fill="rgb(0,88,167)" stroke="rgb(0,88,167)" stroke-width="1" opacity="0.0392156862745098" d="M 18.5 18 L 18.5 19 L 18.5 18 Z " /><path fill="rgb(0,88,167)" stroke="rgb(0,88,167)" stroke-width="1" opacity="0.0392156862745098" d="M 42.5 18 L 43 19.5 L 42 19.5 L 42.5 18 Z " /><path fill="rgb(0,88,167)" stroke="rgb(0,88,167)" stroke-width="1" opacity="0.0392156862745098" d="M 22.5 19 L 22.5 20 L 22.5 19 Z " /><path fill="rgb(0,88,167)" stroke="rgb(0,88,167)" stroke-width="1" opacity="0.0392156862745098" d="M 30.5 19 L 33 20.5 L 31.5 21 Q 29 20 30.5 19 Z " /><path fill="rgb(0,88,167)" stroke="rgb(0,88,167)" stroke-width="1" opacity="0.0392156862745098" d="M 5.5 20 L 5.5 21 L 5.5 20 Z " /><path fill="rgb(0,88,167)" stroke="rgb(0,88,167)" stroke-width="1" opacity="0.0392156862745098" d="M 17.5 20 L 17.5 21 L 17.5 20 Z " /><path fill="rgb(0,88,167)" stroke="rgb(0,88,167)" stroke-width="1" opacity="0.0392156862745098" d="M 7.5 22 Q 10 23 8.5 24 Q 6 23 7.5 22 Z " /><path fill="rgb(0,88,167)" stroke="rgb(0,88,167)" stroke-width="1" opacity="0.0392156862745098" d="M 26.5 22 L 35 22.5 L 26.5 23 L 26.5 22 Z " /><path fill="rgb(0,88,167)" stroke="rgb(0,88,167)" stroke-width="1" opacity="0.0392156862745098" d="M 39.5 24 L 40 28.5 L 39 28.5 L 39.5 24 Z " /><path fill="rgb(0,88,167)" stroke="rgb(0,88,167)" stroke-width="1" opacity="0.0392156862745098" d="M 42.5 24 L 42.5 25 L 42.5 24 Z " /><path fill="rgb(0,88,167)" stroke="rgb(0,88,167)" stroke-width="1" opacity="0.0392156862745098" d="M 47.5 24 L 47.5 25 L 47.5 24 Z " /><path fill="rgb(0,88,167)" stroke="rgb(0,88,167)" stroke-width="1" opacity="0.0392156862745098" d="M 17.5 25 L 17.5 26 L 17.5 25 Z " /><path fill="rgb(0,88,167)" stroke="rgb(0,88,167)" stroke-width="1" opacity="0.0392156862745098" d="M 11.5 27 Q 14 28 12.5 29 Q 10 28 11.5 27 Z " /><path fill="rgb(0,88,167)" stroke="rgb(0,88,167)" stroke-width="1" opacity="0.0392156862745098" d="M 42.5 28 L 42.5 29 L 42.5 28 Z " /><path fill="rgb(0,88,167)" stroke="rgb(0,88,167)" stroke-width="1" opacity="0.0392156862745098" d="M 47.5 28 L 47.5 29 L 47.5 28 Z " /><path fill="rgb(0,88,167)" stroke="rgb(0,88,167)" stroke-width="1" opacity="0.0392156862745098" d="M 0.5 29 L 0.5 30 L 0.5 29 Z " /><path fill="rgb(0,88,167)" stroke="rgb(0,88,167)" stroke-width="1" opacity="0.0392156862745098" d="M 19.5 29 L 19.5 30 L 19.5 29 Z " /><path fill="rgb(0,88,167)" stroke="rgb(0,88,167)" stroke-width="1" opacity="0.0392156862745098" d="M 26.5 29 L 28 29.5 L 26.5 30 L 26.5 29 Z " /><path fill="rgb(0,88,167)" stroke="rgb(0,88,167)" stroke-width="1" opacity="0.0392156862745098" d="M 0.5 31 L 2 31.5 L 0.5 32 L 0.5 31 Z " /><path fill="rgb(0,88,167)" stroke="rgb(0,88,167)" stroke-width="1" opacity="0.0392156862745098" d="M 3.5 31 L 8 31.5 L 3.5 32 L 3.5 31 Z " /><path fill="rgb(0,88,167)" stroke="rgb(0,88,167)" stroke-width="1" opacity="0.0392156862745098" d="M 14.5 31 L 14.5 32 L 14.5 31 Z " /><path fill="rgb(0,88,167)" stroke="rgb(0,88,167)" stroke-width="1" opacity="0.0392156862745098" d="M 23.5 31 L 23.5 32 L 23.5 31 Z " /><path fill="rgb(0,88,167)" stroke="rgb(0,88,167)" stroke-width="1" opacity="0.0392156862745098" d="M 29.5 31 L 31 31.5 L 29.5 32 L 29.5 31 Z " /><path fill="rgb(0,88,167)" stroke="rgb(0,88,167)" stroke-width="1" opacity="0.0392156862745098" d="M 32.5 31 L 34 31.5 L 32.5 32 L 32.5 31 Z " /><path fill="rgb(0,88,167)" stroke="rgb(0,88,167)" stroke-width="1" opacity="0.0392156862745098" d="M 35.5 31 L 44 31.5 L 35.5 32 L 35.5 31 Z " /><path fill="rgb(0,88,167)" stroke="rgb(0,88,167)" stroke-width="1" opacity="0.09803921568627451" d="M 12.5 14 L 12.5 15 L 12.5 14 Z " /><path fill="rgb(0,88,167)" stroke="rgb(0,88,167)" stroke-width="1" opacity="0.09803921568627451" d="M 23.5 14 L 23.5 15 L 23.5 14 Z " /><path fill="rgb(0,88,167)" stroke="rgb(0,88,167)" stroke-width="1" opacity="0.09803921568627451" d="M 21.5 15 L 21.5 16 L 21.5 15 Z " /><path fill="rgb(0,88,167)" stroke="rgb(0,88,167)" stroke-width="1" opacity="0.09803921568627451" d="M 8.5 16 L 8.5 17 L 8.5 16 Z " /><path fill="rgb(0,88,167)" stroke="rgb(0,88,167)" stroke-width="1" opacity="0.09803921568627451" d="M 14.5 16 L 14.5 17 L 14.5 16 Z " /><path fill="rgb(0,88,167)" stroke="rgb(0,88,167)" stroke-width="1" opacity="0.09803921568627451" d="M 24.5 16 L 24.5 17 L 24.5 16 Z " /><path fill="rgb(0,88,167)" stroke="rgb(0,88,167)" stroke-width="1" opacity="0.09803921568627451" d="M 28.5 16 Q 31 17 29.5 18 Q 27 17 28.5 16 Z " /><path fill="rgb(0,88,167)" stroke="rgb(0,88,167)" stroke-width="1" opacity="0.09803921568627451" d="M 39.5 16 L 39.5 17 L 39.5 16 Z " /><path fill="rgb(0,88,167)" stroke="rgb(0,88,167)" stroke-width="1" opacity="0.09803921568627451" d="M 41.5 16 Q 44 17 42.5 18 Q 40 17 41.5 16 Z " /><path fill="rgb(0,88,167)" stroke="rgb(0,88,167)" stroke-width="1" opacity="0.09803921568627451" d="M 46.5 16 L 46.5 17 L 46.5 16 Z " /><path fill="rgb(0,88,167)" stroke="rgb(0,88,167)" stroke-width="1" opacity="0.09803921568627451" d="M 32.5 19 L 32.5 20 L 32.5 19 Z " /><path fill="rgb(0,88,167)" stroke="rgb(0,88,167)" stroke-width="1" opacity="0.09803921568627451" d="M 11.5 20 L 11.5 21 L 11.5 20 Z " /><path fill="rgb(0,88,167)" stroke="rgb(0,88,167)" stroke-width="1" opacity="0.09803921568627451" d="M 46.5 20 L 46.5 21 L 46.5 20 Z " /><path fill="rgb(0,88,167)" stroke="rgb(0,88,167)" stroke-width="1" opacity="0.09803921568627451" d="M 5.5 21 L 6 28.5 L 5 28.5 L 5.5 21 Z " /><path fill="rgb(0,88,167)" stroke="rgb(0,88,167)" stroke-width="1" opacity="0.09803921568627451" d="M 17.5 21 L 17.5 22 L 17.5 21 Z " /><path fill="rgb(0,88,167)" stroke="rgb(0,88,167)" stroke-width="1" opacity="0.09803921568627451" d="M 45.5 22 L 45.5 23 L 45.5 22 Z " /><path fill="rgb(0,88,167)" stroke="rgb(0,88,167)" stroke-width="1" opacity="0.09803921568627451" d="M 40.5 23 L 40.5 24 L 40.5 23 Z " /><path fill="rgb(0,88,167)" stroke="rgb(0,88,167)" stroke-width="1" opacity="0.09803921568627451" d="M 9.5 24 L 9.5 25 L 9.5 24 Z " /><path fill="rgb(0,88,167)" stroke="rgb(0,88,167)" stroke-width="1" opacity="0.09803921568627451" d="M 26.5 24 L 26.5 25 L 26.5 24 Z " /><path fill="rgb(0,88,167)" stroke="rgb(0,88,167)" stroke-width="1" opacity="0.09803921568627451" d="M 34.5 24 L 34.5 25 L 34.5 24 Z " /><path fill="rgb(0,88,167)" stroke="rgb(0,88,167)" stroke-width="1" opacity="0.09803921568627451" d="M 28.5 25 L 29 28.5 L 28 28.5 L 28.5 25 Z " /><path fill="rgb(0,88,167)" stroke="rgb(0,88,167)" stroke-width="1" opacity="0.09803921568627451" d="M 22.5 26 L 22.5 27 L 22.5 26 Z " /><path fill="rgb(0,88,167)" stroke="rgb(0,88,167)" stroke-width="1" opacity="0.09803921568627451" d="M 7.5 29 L 7.5 30 L 7.5 29 Z " /><path fill="rgb(0,88,167)" stroke="rgb(0,88,167)" stroke-width="1" opacity="0.09803921568627451" d="M 25.5 29 L 25.5 30 L 25.5 29 Z " /><path fill="rgb(0,88,167)" stroke="rgb(0,88,167)" stroke-width="1" opacity="0.09803921568627451" d="M 33.5 29 Q 35 30 32.5 31 Q 31 30 33.5 29 Z " /><path fill="rgb(0,88,167)" stroke="rgb(0,88,167)" stroke-width="1" opacity="0.09803921568627451" d="M 21.5 30 L 21.5 31 L 21.5 30 Z " /><path fill="rgb(0,88,167)" stroke="rgb(0,88,167)" stroke-width="1" opacity="0.09803921568627451" d="M 45.5 30 L 45.5 31 L 45.5 30 Z " /><path fill="rgb(0,88,167)" stroke="rgb(0,88,167)" stroke-width="1" opacity="0.09803921568627451" d="M 2.5 31 L 2.5 32 L 2.5 31 Z " /><path fill="rgb(0,88,167)" stroke="rgb(0,88,167)" stroke-width="1" opacity="0.09803921568627451" d="M 15.5 31 L 17 31.5 L 15.5 32 L 15.5 31 Z " /><path fill="rgb(0,88,167)" stroke="rgb(0,88,167)" stroke-width="1" opacity="0.09803921568627451" d="M 24.5 31 L 24.5 32 L 24.5 31 Z " /><path fill="rgb(0,88,167)" stroke="rgb(0,88,167)" stroke-width="1" opacity="0.09803921568627451" d="M 34.5 31 L 34.5 32 L 34.5 31 Z " /><path fill="rgb(0,88,167)" stroke="rgb(0,88,167)" stroke-width="1" opacity="0.47058823529411764" d="M 25.5 14 Q 28 15 26.5 16 Q 24 15 25.5 14 Z " /><path fill="rgb(0,88,167)" stroke="rgb(0,88,167)" stroke-width="1" opacity="0.47058823529411764" d="M 29.5 14 L 29.5 15 L 29.5 14 Z " /><path fill="rgb(0,88,167)" stroke="rgb(0,88,167)" stroke-width="1" opacity="0.47058823529411764" d="M 33.5 15 L 33.5 16 L 33.5 15 Z " /><path fill="rgb(0,88,167)" stroke="rgb(0,88,167)" stroke-width="1" opacity="0.47058823529411764" d="M 35.5 16 L 35.5 17 L 35.5 16 Z " /><path fill="rgb(0,88,167)" stroke="rgb(0,88,167)" stroke-width="1" opacity="0.47058823529411764" d="M 9.5 18 L 9.5 19 L 9.5 18 Z " /><path fill="rgb(0,88,167)" stroke="rgb(0,88,167)" stroke-width="1" opacity="0.47058823529411764" d="M 21.5 20 L 21.5 21 L 21.5 20 Z " /><path fill="rgb(0,88,167)" stroke="rgb(0,88,167)" stroke-width="1" opacity="0.47058823529411764" d="M 8.5 22 L 8.5 23 L 8.5 22 Z " /><path fill="rgb(0,88,167)" stroke="rgb(0,88,167)" stroke-width="1" opacity="0.47058823529411764" d="M 12.5 22 L 12.5 23 L 12.5 22 Z " /><path fill="rgb(0,88,167)" stroke="rgb(0,88,167)" stroke-width="1" opacity="0.47058823529411764" d="M 44.5 22 L 44.5 23 L 44.5 22 Z " /><path fill="rgb(0,88,167)" stroke="rgb(0,88,167)" stroke-width="1" opacity="0.47058823529411764" d="M 34.5 23 L 34.5 24 L 34.5 23 Z " /><path fill="rgb(0,88,167)" stroke="rgb(0,88,167)" stroke-width="1" opacity="0.47058823529411764" d="M 28.5 24 L 28.5 25 L 28.5 24 Z " /><path fill="rgb(0,88,167)" stroke="rgb(0,88,167)" stroke-width="1" opacity="0.47058823529411764" d="M 3.5 28 L 3.5 29 L 3.5 28 Z " /><path fill="rgb(0,88,167)" stroke="rgb(0,88,167)" stroke-width="1" opacity="0.47058823529411764" d="M 5.5 29 L 5.5 30 L 5.5 29 Z " /><path fill="rgb(0,88,167)" stroke="rgb(0,88,167)" stroke-width="1" opacity="0.47058823529411764" d="M 16.5 30 L 16.5 31 L 16.5 30 Z " /><path fill="rgb(0,88,167)" stroke="rgb(0,88,167)" stroke-width="1" opacity="0.47058823529411764" d="M 22.5 30 L 22.5 31 L 22.5 30 Z " /><path fill="rgb(0,88,167)" stroke="rgb(0,88,167)" stroke-width="1" opacity="0.47058823529411764" d="M 44.5 30 L 44.5 31 L 44.5 30 Z " /><path fill="rgb(0,88,167)" stroke="rgb(0,88,167)" stroke-width="1" opacity="0.9333333333333333" d="M 3.5 15 L 3.5 16 L 3.5 15 Z " /><path fill="rgb(0,88,167)" stroke="rgb(0,88,167)" stroke-width="1" opacity="0.9333333333333333" d="M 16.5 15 L 16.5 16 L 16.5 15 Z " /><path fill="rgb(0,88,167)" stroke="rgb(0,88,167)" stroke-width="1" opacity="0.9333333333333333" d="M 35.5 15 L 35.5 16 L 35.5 15 Z " /><path fill="rgb(0,88,167)" stroke="rgb(0,88,167)" stroke-width="1" opacity="0.9333333333333333" d="M 38.5 15 L 38.5 16 L 38.5 15 Z " /><path fill="rgb(0,88,167)" stroke="rgb(0,88,167)" stroke-width="1" opacity="0.9333333333333333" d="M 42.5 15 L 44 15.5 L 42.5 16 L 42.5 15 Z " /><path fill="rgb(0,88,167)" stroke="rgb(0,88,167)" stroke-width="1" opacity="0.9333333333333333" d="M 31.5 16 L 32 17.5 L 31 17.5 L 31.5 16 Z " /><path fill="rgb(0,88,167)" stroke="rgb(0,88,167)" stroke-width="1" opacity="0.9333333333333333" d="M 21.5 18 L 21.5 19 L 21.5 18 Z " /><path fill="rgb(0,88,167)" stroke="rgb(0,88,167)" stroke-width="1" opacity="0.9333333333333333" d="M 43.5 20 L 44 21.5 L 43 21.5 L 43.5 20 Z " /><path fill="rgb(0,88,167)" stroke="rgb(0,88,167)" stroke-width="1" opacity="0.9333333333333333" d="M 8.5 21 L 8.5 22 L 8.5 21 Z " /><path fill="rgb(0,88,167)" stroke="rgb(0,88,167)" stroke-width="1" opacity="0.9333333333333333" d="M 18.5 22 L 19 24.5 L 18 24.5 L 18.5 22 Z " /><path fill="rgb(0,88,167)" stroke="rgb(0,88,167)" stroke-width="1" opacity="0.9333333333333333" d="M 38.5 22 L 38.5 23 L 38.5 22 Z " /><path fill="rgb(0,88,167)" stroke="rgb(0,88,167)" stroke-width="1" opacity="0.9333333333333333" d="M 41.5 22 L 41.5 23 L 41.5 22 Z " /><path fill="rgb(0,88,167)" stroke="rgb(0,88,167)" stroke-width="1" opacity="0.9333333333333333" d="M 12.5 23 L 12.5 24 L 12.5 23 Z " /><path fill="rgb(0,88,167)" stroke="rgb(0,88,167)" stroke-width="1" opacity="0.9333333333333333" d="M 46.5 25 L 46.5 26 L 46.5 25 Z " /><path fill="rgb(0,88,167)" stroke="rgb(0,88,167)" stroke-width="1" opacity="0.9333333333333333" d="M 12.5 26 L 12.5 27 L 12.5 26 Z " /><path fill="rgb(0,88,167)" stroke="rgb(0,88,167)" stroke-width="1" opacity="0.9333333333333333" d="M 31.5 26 L 31.5 27 L 31.5 26 Z " /><path fill="rgb(0,88,167)" stroke="rgb(0,88,167)" stroke-width="1" opacity="0.9333333333333333" d="M 44.5 26 L 44.5 27 L 44.5 26 Z " /><path fill="rgb(0,88,167)" stroke="rgb(0,88,167)" stroke-width="1" opacity="0.9333333333333333" d="M 46.5 27 L 46.5 28 L 46.5 27 Z " /><path fill="rgb(0,88,167)" stroke="rgb(0,88,167)" stroke-width="1" opacity="0.9333333333333333" d="M 4.5 28 L 4.5 29 L 4.5 28 Z " /><path fill="rgb(0,88,167)" stroke="rgb(0,88,167)" stroke-width="1" opacity="0.9333333333333333" d="M 20.5 28 L 20.5 29 L 20.5 28 Z " /><path fill="rgb(0,88,167)" stroke="rgb(0,88,167)" stroke-width="1" opacity="0.9333333333333333" d="M 29.5 29 L 29.5 30 L 29.5 29 Z " /><path fill="rgb(0,88,167)" stroke="rgb(0,88,167)" stroke-width="1" opacity="0.9333333333333333" d="M 15.5 30 L 15.5 31 L 15.5 30 Z " /></svg>