<svg width="64" height="64" version="1.1" xmlns="http://www.w3.org/2000/svg" desc="Created with imagetracer.js version 1.2.6" ><path fill="rgb(0,0,0)" stroke="rgb(0,0,0)" stroke-width="1" opacity="0" d="M 0 0 L 64 0 L 64 64 L 0 64 L 0 0 Z M 30 3 L 29 6 Q 28 9 30 10 L 25 15 L 19 17 L 15 17 L 16 22 L 18 23 L 43 23 L 44 22 L 44 19 Q 47 20 46 17 L 44 17 L 39 14 L 36 11 Q 38 9 37 5 L 36 3 L 30 3 Z M 16 28 L 16 45 L 18 45 L 18 29 L 16 28 Z M 21 28 L 21 45 L 40 45 L 40 28 L 21 28 Z M 41 28 L 41 46 L 42 47 L 16 47 L 16 52 L 17 54 L 24 57 Q 26 58 26 61 L 37 61 L 38 62 L 44 58 L 48 57 L 48 53 L 44 49 L 46 48 L 46 33 L 44 30 L 41 28 Z " /><path fill="rgb(0,0,0)" stroke="rgb(0,0,0)" stroke-width="1" opacity="0" d="M 41.5 52 L 41.5 53 L 41.5 52 Z " /><path fill="rgb(86,4,10)" stroke="rgb(86,4,10)" stroke-width="1" opacity="0.9882352941176471" d="M 30.5 5 L 30.5 6 L 30.5 5 Z " /><path fill="rgb(86,4,10)" stroke="rgb(86,4,10)" stroke-width="1" opacity="0.9882352941176471" d="M 30.5 7 L 30.5 8 L 30.5 7 Z " /><path fill="rgb(86,4,10)" stroke="rgb(86,4,10)" stroke-width="1" opacity="0.9882352941176471" d="M 34.5 10 L 34.5 11 L 34.5 10 Z " /><path fill="rgb(86,4,10)" stroke="rgb(86,4,10)" stroke-width="1" opacity="0.9882352941176471" d="M 36.5 13 Q 39 14 37.5 15 Q 35 14 36.5 13 Z " /><path fill="rgb(86,4,10)" stroke="rgb(86,4,10)" stroke-width="1" opacity="0.9882352941176471" d="M 25.5 15 L 25.5 16 L 25.5 15 Z " /><path fill="rgb(86,4,10)" stroke="rgb(86,4,10)" stroke-width="1" opacity="0.9882352941176471" d="M 21.5 17 L 42 17.5 L 21.5 18 L 21.5 17 Z " /><path fill="rgb(86,4,10)" stroke="rgb(86,4,10)" stroke-width="1" opacity="0.9882352941176471" d="M 42.5 20 L 42.5 21 L 42.5 20 Z " /><path fill="rgb(86,4,10)" stroke="rgb(86,4,10)" stroke-width="1" opacity="0.9882352941176471" d="M 43.5 31 L 43.5 32 L 43.5 31 Z " /><path fill="rgb(86,4,10)" stroke="rgb(86,4,10)" stroke-width="1" opacity="0.9882352941176471" d="M 42.5 44 L 42.5 45 L 42.5 44 Z " /><path fill="rgb(86,4,10)" stroke="rgb(86,4,10)" stroke-width="1" opacity="0.9882352941176471" d="M 20.5 53 L 20.5 54 L 20.5 53 Z " /><path fill="rgb(86,4,10)" stroke="rgb(86,4,10)" stroke-width="1" opacity="0.9882352941176471" d="M 41.5 54 L 44 56.5 L 43.5 57 L 41 54.5 L 41.5 54 Z " /><path fill="rgb(86,4,10)" stroke="rgb(86,4,10)" stroke-width="1" opacity="0.9882352941176471" d="M 23.5 55 L 23.5 56 L 23.5 55 Z " /><path fill="rgb(86,4,10)" stroke="rgb(86,4,10)" stroke-width="1" opacity="0.9882352941176471" d="M 36.5 56 L 36.5 57 L 36.5 56 Z " /><path fill="rgb(86,4,10)" stroke="rgb(86,4,10)" stroke-width="1" opacity="0.9882352941176471" d="M 27.5 59 L 27.5 60 L 27.5 59 Z " /><path fill="rgb(86,4,11)" stroke="rgb(86,4,11)" stroke-width="1" opacity="0.996078431372549" d="M 35.5 5 L 35.5 6 L 35.5 5 Z " /><path fill="rgb(86,4,11)" stroke="rgb(86,4,11)" stroke-width="1" opacity="0.996078431372549" d="M 30.5 11 L 30.5 12 L 30.5 11 Z " /><path fill="rgb(86,4,11)" stroke="rgb(86,4,11)" stroke-width="1" opacity="0.996078431372549" d="M 35.5 12 L 35.5 13 L 35.5 12 Z " /><path fill="rgb(86,4,11)" stroke="rgb(86,4,11)" stroke-width="1" opacity="0.996078431372549" d="M 46.5 54 L 46.5 55 L 46.5 54 Z " /><path fill="rgb(87,5,11)" stroke="rgb(87,5,11)" stroke-width="1" opacity="1" d="M 31 4 L 35 4 L 35 5.5 L 36 7.5 L 34 10.5 L 37.5 15 L 40 16.5 L 23.5 17 L 23.5 16 L 25.5 16 L 29.5 12 L 31 12 L 31 7.5 L 30 6.5 L 31 4 Z " /><path fill="rgb(87,5,11)" stroke="rgb(87,5,11)" stroke-width="1" opacity="1" d="M 17.5 20 L 41.5 20 L 42 22 L 18.5 22 Q 16 21 17.5 20 Z " /><path fill="rgb(87,5,11)" stroke="rgb(87,5,11)" stroke-width="1" opacity="1" d="M 22 29 L 39 29 L 39 43 L 22 43 L 22 29 Z " /><path fill="rgb(87,5,11)" stroke="rgb(87,5,11)" stroke-width="1" opacity="1" d="M 42.5 30 L 44 32.5 L 44 45.5 L 43 45.5 L 42 43.5 L 42.5 30 Z " /><path fill="rgb(87,5,11)" stroke="rgb(87,5,11)" stroke-width="1" opacity="1" d="M 17 48 L 41.5 48 L 47 53.5 L 45.5 54 L 42.5 51 L 17 51 L 17 48 Z " /><path fill="rgb(87,5,11)" stroke="rgb(87,5,11)" stroke-width="1" opacity="1" d="M 21.5 53 L 39 53.5 Q 35.35 55.65 35 60 L 28.5 60 L 21 53.5 L 21.5 53 Z " /><path fill="rgb(87,5,11)" stroke="rgb(87,5,11)" stroke-width="1" opacity="1" d="M 40.5 55 L 43 56.5 L 37.5 60 L 37 59.5 L 39 57.5 L 40.5 55 Z " /><path fill="rgb(86,4,10)" stroke="rgb(86,4,10)" stroke-width="1" opacity="0.6470588235294118" d="M 32.5 3 L 32.5 4 L 32.5 3 Z " /><path fill="rgb(86,4,10)" stroke="rgb(86,4,10)" stroke-width="1" opacity="0.6470588235294118" d="M 35.5 4 L 35.5 5 L 35.5 4 Z " /><path fill="rgb(86,4,10)" stroke="rgb(86,4,10)" stroke-width="1" opacity="0.6470588235294118" d="M 30.5 8 L 30.5 9 L 30.5 8 Z " /><path fill="rgb(86,4,10)" stroke="rgb(86,4,10)" stroke-width="1" opacity="0.6470588235294118" d="M 29.5 11 L 29.5 12 L 29.5 11 Z " /><path fill="rgb(86,4,10)" stroke="rgb(86,4,10)" stroke-width="1" opacity="0.6470588235294118" d="M 35.5 11 L 35.5 12 L 35.5 11 Z " /><path fill="rgb(86,4,10)" stroke="rgb(86,4,10)" stroke-width="1" opacity="0.6470588235294118" d="M 27.5 13 L 27.5 14 L 27.5 13 Z " /><path fill="rgb(86,4,10)" stroke="rgb(86,4,10)" stroke-width="1" opacity="0.6470588235294118" d="M 24.5 15 L 24.5 16 L 24.5 15 Z " /><path fill="rgb(86,4,10)" stroke="rgb(86,4,10)" stroke-width="1" opacity="0.6470588235294118" d="M 39.5 15 L 39.5 16 L 39.5 15 Z " /><path fill="rgb(86,4,10)" stroke="rgb(86,4,10)" stroke-width="1" opacity="0.6470588235294118" d="M 17.5 21 L 17.5 22 L 17.5 21 Z " /><path fill="rgb(86,4,10)" stroke="rgb(86,4,10)" stroke-width="1" opacity="0.6470588235294118" d="M 42.5 48 L 42.5 49 L 42.5 48 Z " /><path fill="rgb(86,4,10)" stroke="rgb(86,4,10)" stroke-width="1" opacity="0.6470588235294118" d="M 40.5 54 Q 42 55 39.5 56 Q 38 55 40.5 54 Z " /><path fill="rgb(86,4,10)" stroke="rgb(86,4,10)" stroke-width="1" opacity="0.6470588235294118" d="M 45.5 54 L 45.5 55 L 45.5 54 Z " /><path fill="rgb(86,4,10)" stroke="rgb(86,4,10)" stroke-width="1" opacity="0.6470588235294118" d="M 36.5 57 L 36.5 58 L 36.5 57 Z " /><path fill="rgb(86,4,10)" stroke="rgb(86,4,10)" stroke-width="1" opacity="0.7725490196078432" d="M 33.5 3 L 33.5 4 L 33.5 3 Z " /><path fill="rgb(86,4,10)" stroke="rgb(86,4,10)" stroke-width="1" opacity="0.7725490196078432" d="M 35.5 8 L 35.5 9 L 35.5 8 Z " /><path fill="rgb(86,4,10)" stroke="rgb(86,4,10)" stroke-width="1" opacity="0.7725490196078432" d="M 30.5 10 L 30.5 11 L 30.5 10 Z " /><path fill="rgb(86,4,10)" stroke="rgb(86,4,10)" stroke-width="1" opacity="0.7725490196078432" d="M 22.5 16 L 22.5 17 L 22.5 16 Z " /><path fill="rgb(86,4,10)" stroke="rgb(86,4,10)" stroke-width="1" opacity="0.7725490196078432" d="M 19.5 17 L 19.5 18 L 19.5 17 Z " /><path fill="rgb(86,4,10)" stroke="rgb(86,4,10)" stroke-width="1" opacity="0.7725490196078432" d="M 41.5 29 L 42 43.5 L 41 43.5 L 41.5 29 Z " /><path fill="rgb(86,4,10)" stroke="rgb(86,4,10)" stroke-width="1" opacity="0.7725490196078432" d="M 43.5 49 L 46 51.5 L 45.5 52 L 43 49.5 L 43.5 49 Z " /><path fill="rgb(86,4,10)" stroke="rgb(86,4,10)" stroke-width="1" opacity="0.7725490196078432" d="M 43.5 52 Q 46 53 44.5 54 Q 42 53 43.5 52 Z " /><path fill="rgb(86,4,10)" stroke="rgb(86,4,10)" stroke-width="1" opacity="0.7725490196078432" d="M 19.5 53 L 19.5 54 L 19.5 53 Z " /><path fill="rgb(86,4,10)" stroke="rgb(86,4,10)" stroke-width="1" opacity="0.7725490196078432" d="M 39.5 53 L 39.5 54 L 39.5 53 Z " /><path fill="rgb(86,4,10)" stroke="rgb(86,4,10)" stroke-width="1" opacity="0.7725490196078432" d="M 37.5 58 L 37.5 59 L 37.5 58 Z " /><path fill="rgb(86,4,10)" stroke="rgb(86,4,10)" stroke-width="1" opacity="0.7725490196078432" d="M 37.5 60 L 39 60.5 L 37.5 61 L 37.5 60 Z " /><path fill="rgb(86,4,10)" stroke="rgb(86,4,10)" stroke-width="1" opacity="0.050980392156862744" d="M 30.5 3 L 30.5 4 L 30.5 3 Z " /><path fill="rgb(86,4,10)" stroke="rgb(86,4,10)" stroke-width="1" opacity="0.050980392156862744" d="M 35.5 3 Q 38 4 36.5 5 Q 34 4 35.5 3 Z " /><path fill="rgb(86,4,10)" stroke="rgb(86,4,10)" stroke-width="1" opacity="0.050980392156862744" d="M 29.5 5 L 29.5 6 L 29.5 5 Z " /><path fill="rgb(86,4,10)" stroke="rgb(86,4,10)" stroke-width="1" opacity="0.050980392156862744" d="M 29.5 7 L 30 8.5 L 29 8.5 L 29.5 7 Z " /><path fill="rgb(86,4,10)" stroke="rgb(86,4,10)" stroke-width="1" opacity="0.050980392156862744" d="M 36.5 8 L 36 9.5 L 37 11.5 Q 36 13 35 10.5 L 36.5 8 Z " /><path fill="rgb(86,4,10)" stroke="rgb(86,4,10)" stroke-width="1" opacity="0.050980392156862744" d="M 29.5 10 L 30 10.5 L 26.5 14 L 26 13.5 L 29.5 10 Z " /><path fill="rgb(86,4,10)" stroke="rgb(86,4,10)" stroke-width="1" opacity="0.050980392156862744" d="M 39.5 14 Q 42 15 40.5 16 Q 38 15 39.5 14 Z " /><path fill="rgb(86,4,10)" stroke="rgb(86,4,10)" stroke-width="1" opacity="0.050980392156862744" d="M 19.5 16 L 21 16.5 L 19.5 17 L 19.5 16 Z " /><path fill="rgb(86,4,10)" stroke="rgb(86,4,10)" stroke-width="1" opacity="0.050980392156862744" d="M 42.5 16 L 42.5 17 L 42.5 16 Z " /><path fill="rgb(86,4,10)" stroke="rgb(86,4,10)" stroke-width="1" opacity="0.050980392156862744" d="M 15 17 L 17.5 18 L 43.5 18 L 46 17 Q 47.12 19.67 44.5 19 L 43.5 20 L 16.5 20 L 15 17 Z " /><path fill="rgb(86,4,10)" stroke="rgb(86,4,10)" stroke-width="1" opacity="0.050980392156862744" d="M 16.5 21 Q 19 22 17.5 23 Q 15 22 16.5 21 Z " /><path fill="rgb(86,4,10)" stroke="rgb(86,4,10)" stroke-width="1" opacity="0.050980392156862744" d="M 43.5 21 Q 45 22 42.5 23 Q 41 22 43.5 21 Z " /><path fill="rgb(86,4,10)" stroke="rgb(86,4,10)" stroke-width="1" opacity="0.050980392156862744" d="M 16.5 28 L 17 43.5 L 18 44.5 L 16 45 L 16.5 28 Z " /><path fill="rgb(86,4,10)" stroke="rgb(86,4,10)" stroke-width="1" opacity="0.050980392156862744" d="M 42.5 28 Q 45 29 43.5 30 Q 41 29 42.5 28 Z " /><path fill="rgb(86,4,10)" stroke="rgb(86,4,10)" stroke-width="1" opacity="0.050980392156862744" d="M 45.5 32 L 46 47.5 L 45 47.5 L 45.5 32 Z " /><path fill="rgb(86,4,10)" stroke="rgb(86,4,10)" stroke-width="1" opacity="0.050980392156862744" d="M 21.5 44 L 40 44.5 L 21.5 45 L 21.5 44 Z " /><path fill="rgb(86,4,10)" stroke="rgb(86,4,10)" stroke-width="1" opacity="0.050980392156862744" d="M 41.5 45 L 48 52.5 L 48 57 L 44.5 58 L 45 56.5 L 42 53.5 L 42.5 52 L 46.5 56 L 47 55.5 L 47 52.5 L 42.5 48 L 16 47.5 L 42 46.5 L 41.5 45 Z " /><path fill="rgb(86,4,10)" stroke="rgb(86,4,10)" stroke-width="1" opacity="0.050980392156862744" d="M 17.5 52 L 18 53.5 L 17 53.5 L 17.5 52 Z " /><path fill="rgb(86,4,10)" stroke="rgb(86,4,10)" stroke-width="1" opacity="0.050980392156862744" d="M 40.5 52 L 41 53.5 Q 40 56 39 54.5 L 40.5 52 Z " /><path fill="rgb(86,4,10)" stroke="rgb(86,4,10)" stroke-width="1" opacity="0.050980392156862744" d="M 19.5 54 L 19.5 55 L 19.5 54 Z " /><path fill="rgb(86,4,10)" stroke="rgb(86,4,10)" stroke-width="1" opacity="0.050980392156862744" d="M 21.5 55 Q 24 56 22.5 57 Q 20 56 21.5 55 Z " /><path fill="rgb(86,4,10)" stroke="rgb(86,4,10)" stroke-width="1" opacity="0.050980392156862744" d="M 36.5 58 L 36.5 59 L 36.5 58 Z " /><path fill="rgb(86,4,10)" stroke="rgb(86,4,10)" stroke-width="1" opacity="0.050980392156862744" d="M 42.5 58 Q 44 59 41.5 60 Q 40 59 42.5 58 Z " /><path fill="rgb(86,4,10)" stroke="rgb(86,4,10)" stroke-width="1" opacity="0.050980392156862744" d="M 26.5 60 L 36 60.5 L 26.5 61 L 26.5 60 Z " /><path fill="rgb(86,4,10)" stroke="rgb(86,4,10)" stroke-width="1" opacity="0.050980392156862744" d="M 39.5 60 Q 41 61 38.5 62 L 37 61.5 L 39.5 60 Z " /><path fill="rgb(86,4,10)" stroke="rgb(86,4,10)" stroke-width="1" opacity="0.4666666666666667" d="M 34.5 3 L 34.5 4 L 34.5 3 Z " /><path fill="rgb(86,4,10)" stroke="rgb(86,4,10)" stroke-width="1" opacity="0.4666666666666667" d="M 36.5 6 L 36.5 7 L 36.5 6 Z " /><path fill="rgb(86,4,10)" stroke="rgb(86,4,10)" stroke-width="1" opacity="0.4666666666666667" d="M 36.5 12 L 36.5 13 L 36.5 12 Z " /><path fill="rgb(86,4,10)" stroke="rgb(86,4,10)" stroke-width="1" opacity="0.4666666666666667" d="M 38.5 14 L 38.5 15 L 38.5 14 Z " /><path fill="rgb(86,4,10)" stroke="rgb(86,4,10)" stroke-width="1" opacity="0.4666666666666667" d="M 21.5 16 L 21.5 17 L 21.5 16 Z " /><path fill="rgb(86,4,10)" stroke="rgb(86,4,10)" stroke-width="1" opacity="0.4666666666666667" d="M 41.5 16 L 41.5 17 L 41.5 16 Z " /><path fill="rgb(86,4,10)" stroke="rgb(86,4,10)" stroke-width="1" opacity="0.4666666666666667" d="M 16.5 20 L 16.5 21 L 16.5 20 Z " /><path fill="rgb(86,4,10)" stroke="rgb(86,4,10)" stroke-width="1" opacity="0.4666666666666667" d="M 17.5 28 L 17.5 29 L 17.5 28 Z " /><path fill="rgb(86,4,10)" stroke="rgb(86,4,10)" stroke-width="1" opacity="0.4666666666666667" d="M 21.5 28 L 21.5 29 L 21.5 28 Z " /><path fill="rgb(86,4,10)" stroke="rgb(86,4,10)" stroke-width="1" opacity="0.4666666666666667" d="M 41.5 28 L 41.5 29 L 41.5 28 Z " /><path fill="rgb(86,4,10)" stroke="rgb(86,4,10)" stroke-width="1" opacity="0.4666666666666667" d="M 43.5 30 L 43.5 31 L 43.5 30 Z " /><path fill="rgb(86,4,10)" stroke="rgb(86,4,10)" stroke-width="1" opacity="0.4666666666666667" d="M 17.5 43 L 17.5 44 L 17.5 43 Z " /><path fill="rgb(86,4,10)" stroke="rgb(86,4,10)" stroke-width="1" opacity="0.4666666666666667" d="M 21.5 43 L 21.5 44 L 21.5 43 Z " /><path fill="rgb(86,4,10)" stroke="rgb(86,4,10)" stroke-width="1" opacity="0.4666666666666667" d="M 41.5 44 Q 44 45 42.5 46 Q 40 45 41.5 44 Z " /><path fill="rgb(86,4,10)" stroke="rgb(86,4,10)" stroke-width="1" opacity="0.4666666666666667" d="M 17.5 51 L 38 51.5 L 17.5 52 L 17.5 51 Z " /><path fill="rgb(86,4,10)" stroke="rgb(86,4,10)" stroke-width="1" opacity="0.4666666666666667" d="M 42.5 54 L 45 56.5 L 43.5 58 L 44 56.5 L 42 54.5 L 42.5 54 Z " /><path fill="rgb(86,4,10)" stroke="rgb(86,4,10)" stroke-width="1" opacity="0.4666666666666667" d="M 38.5 56 L 38.5 57 L 38.5 56 Z " /><path fill="rgb(86,4,10)" stroke="rgb(86,4,10)" stroke-width="1" opacity="0.4666666666666667" d="M 35.5 59 L 35.5 60 L 35.5 59 Z " /><path fill="rgb(86,5,11)" stroke="rgb(86,5,11)" stroke-width="1" opacity="0.5333333333333333" d="M 30.5 4 L 30.5 5 L 30.5 4 Z " /><path fill="rgb(86,5,11)" stroke="rgb(86,5,11)" stroke-width="1" opacity="0.5333333333333333" d="M 28.5 12 L 28.5 13 L 28.5 12 Z " /><path fill="rgb(86,5,11)" stroke="rgb(86,5,11)" stroke-width="1" opacity="0.5333333333333333" d="M 18.5 17 L 18.5 18 L 18.5 17 Z " /><path fill="rgb(86,5,11)" stroke="rgb(86,5,11)" stroke-width="1" opacity="0.5333333333333333" d="M 43.5 17 L 43.5 18 L 43.5 17 Z " /><path fill="rgb(86,5,11)" stroke="rgb(86,5,11)" stroke-width="1" opacity="0.5333333333333333" d="M 42.5 21 L 42.5 22 L 42.5 21 Z " /><path fill="rgb(86,5,11)" stroke="rgb(86,5,11)" stroke-width="1" opacity="0.5333333333333333" d="M 17.5 29 L 18 42.5 L 17 42.5 L 17.5 29 Z " /><path fill="rgb(86,5,11)" stroke="rgb(86,5,11)" stroke-width="1" opacity="0.5333333333333333" d="M 21.5 29 L 22 42.5 L 21 42.5 L 21.5 29 Z " /><path fill="rgb(86,5,11)" stroke="rgb(86,5,11)" stroke-width="1" opacity="0.5333333333333333" d="M 42.5 29 L 42.5 30 L 42.5 29 Z " /><path fill="rgb(86,5,11)" stroke="rgb(86,5,11)" stroke-width="1" opacity="0.5333333333333333" d="M 43.5 46 Q 46 47 44.5 48 Q 42 47 43.5 46 Z " /><path fill="rgb(86,5,11)" stroke="rgb(86,5,11)" stroke-width="1" opacity="0.5333333333333333" d="M 38.5 51 L 42 51.5 L 38.5 52 L 38.5 51 Z " /><path fill="rgb(86,5,11)" stroke="rgb(86,5,11)" stroke-width="1" opacity="0.5333333333333333" d="M 22.5 55 L 22.5 56 L 22.5 55 Z " /><path fill="rgb(86,5,11)" stroke="rgb(86,5,11)" stroke-width="1" opacity="0.5333333333333333" d="M 46.5 55 L 46.5 56 L 46.5 55 Z " /><path fill="rgb(86,5,11)" stroke="rgb(86,5,11)" stroke-width="1" opacity="0.5333333333333333" d="M 41.5 58 L 41.5 59 L 41.5 58 Z " /><path fill="rgb(86,4,10)" stroke="rgb(86,4,10)" stroke-width="1" opacity="0.2980392156862745" d="M 31.5 3 L 31.5 4 L 31.5 3 Z " /><path fill="rgb(86,4,10)" stroke="rgb(86,4,10)" stroke-width="1" opacity="0.2980392156862745" d="M 36.5 5 L 36.5 6 L 36.5 5 Z " /><path fill="rgb(86,4,10)" stroke="rgb(86,4,10)" stroke-width="1" opacity="0.2980392156862745" d="M 29.5 6 L 29.5 7 L 29.5 6 Z " /><path fill="rgb(86,4,10)" stroke="rgb(86,4,10)" stroke-width="1" opacity="0.2980392156862745" d="M 36.5 7 L 36.5 8 L 36.5 7 Z " /><path fill="rgb(86,4,10)" stroke="rgb(86,4,10)" stroke-width="1" opacity="0.2980392156862745" d="M 30.5 9 L 30.5 10 L 30.5 9 Z " /><path fill="rgb(86,4,10)" stroke="rgb(86,4,10)" stroke-width="1" opacity="0.2980392156862745" d="M 37.5 13 L 37.5 14 L 37.5 13 Z " /><path fill="rgb(86,4,10)" stroke="rgb(86,4,10)" stroke-width="1" opacity="0.2980392156862745" d="M 25.5 14 L 25.5 15 L 25.5 14 Z " /><path fill="rgb(86,4,10)" stroke="rgb(86,4,10)" stroke-width="1" opacity="0.2980392156862745" d="M 23.5 15 L 23.5 16 L 23.5 15 Z " /><path fill="rgb(86,4,10)" stroke="rgb(86,4,10)" stroke-width="1" opacity="0.2980392156862745" d="M 17.5 17 L 17.5 18 L 17.5 17 Z " /><path fill="rgb(86,4,10)" stroke="rgb(86,4,10)" stroke-width="1" opacity="0.2980392156862745" d="M 43.5 20 L 43.5 21 L 43.5 20 Z " /><path fill="rgb(86,4,10)" stroke="rgb(86,4,10)" stroke-width="1" opacity="0.2980392156862745" d="M 18.5 22 L 42 22.5 L 18.5 23 L 18.5 22 Z " /><path fill="rgb(86,4,10)" stroke="rgb(86,4,10)" stroke-width="1" opacity="0.2980392156862745" d="M 39.5 28 L 40 43.5 L 39 43.5 L 39.5 28 Z " /><path fill="rgb(86,4,10)" stroke="rgb(86,4,10)" stroke-width="1" opacity="0.2980392156862745" d="M 44.5 31 L 44.5 32 L 44.5 31 Z " /><path fill="rgb(86,4,10)" stroke="rgb(86,4,10)" stroke-width="1" opacity="0.2980392156862745" d="M 16.5 51 L 16.5 52 L 16.5 51 Z " /><path fill="rgb(86,4,10)" stroke="rgb(86,4,10)" stroke-width="1" opacity="0.2980392156862745" d="M 18 52 L 40 52.5 L 19.5 53 L 18.5 54 L 18 52 Z " /><path fill="rgb(86,4,10)" stroke="rgb(86,4,10)" stroke-width="1" opacity="0.2980392156862745" d="M 41.5 53 L 41.5 54 L 41.5 53 Z " /><path fill="rgb(86,4,10)" stroke="rgb(86,4,10)" stroke-width="1" opacity="0.2980392156862745" d="M 20.5 54 L 20.5 55 L 20.5 54 Z " /><path fill="rgb(86,4,10)" stroke="rgb(86,4,10)" stroke-width="1" opacity="0.2980392156862745" d="M 38.5 55 L 38 56.5 L 37.5 58 L 37 56.5 L 38.5 55 Z " /><path fill="rgb(86,4,10)" stroke="rgb(86,4,10)" stroke-width="1" opacity="0.2980392156862745" d="M 23.5 56 L 27 59.5 L 26.5 60 L 23 56.5 L 23.5 56 Z " /><path fill="rgb(86,4,10)" stroke="rgb(86,4,10)" stroke-width="1" opacity="0.2980392156862745" d="M 36.5 59 L 37 60.5 L 36 60.5 L 36.5 59 Z " /><path fill="rgb(86,4,10)" stroke="rgb(86,4,10)" stroke-width="1" opacity="0.2980392156862745" d="M 40.5 59 L 40.5 60 L 40.5 59 Z " /><path fill="rgb(87,5,10)" stroke="rgb(87,5,10)" stroke-width="1" opacity="0.9333333333333333" d="M 20.5 17 L 20.5 18 L 20.5 17 Z " /><path fill="rgb(87,5,10)" stroke="rgb(87,5,10)" stroke-width="1" opacity="0.9333333333333333" d="M 37.5 55 L 37.5 56 L 37.5 55 Z " /><path fill="rgb(87,5,10)" stroke="rgb(87,5,10)" stroke-width="1" opacity="0.9333333333333333" d="M 24.5 56 L 27 58.5 L 26.5 59 L 24 56.5 L 24.5 56 Z " /><path fill="rgb(87,5,10)" stroke="rgb(87,5,10)" stroke-width="1" opacity="0.9333333333333333" d="M 38.5 57 L 38.5 58 L 38.5 57 Z " /><path fill="rgb(87,5,10)" stroke="rgb(87,5,10)" stroke-width="1" opacity="0.9333333333333333" d="M 40.5 58 L 40.5 59 L 40.5 58 Z " /><path fill="rgb(86,4,11)" stroke="rgb(86,4,11)" stroke-width="1" opacity="0.9098039215686274" d="M 40.5 16 L 40.5 17 L 40.5 16 Z " /><path fill="rgb(86,4,11)" stroke="rgb(86,4,11)" stroke-width="1" opacity="0.9098039215686274" d="M 44.5 33 L 45 46.5 L 44 46.5 L 44.5 33 Z " /><path fill="rgb(86,4,11)" stroke="rgb(86,4,11)" stroke-width="1" opacity="0.9098039215686274" d="M 22.5 43 L 39 43.5 L 22.5 44 L 22.5 43 Z " /><path fill="rgb(86,4,11)" stroke="rgb(86,4,11)" stroke-width="1" opacity="0.9098039215686274" d="M 42.5 57 L 42.5 58 L 42.5 57 Z " /><path fill="rgb(86,4,11)" stroke="rgb(86,4,11)" stroke-width="1" opacity="0.9098039215686274" d="M 35.5 58 L 35.5 59 L 35.5 58 Z " /><path fill="rgb(86,4,10)" stroke="rgb(86,4,10)" stroke-width="1" opacity="0.8784313725490196" d="M 34.5 9 L 34.5 10 L 34.5 9 Z " /><path fill="rgb(86,4,10)" stroke="rgb(86,4,10)" stroke-width="1" opacity="0.8784313725490196" d="M 26.5 14 L 26.5 15 L 26.5 14 Z " /><path fill="rgb(86,4,10)" stroke="rgb(86,4,10)" stroke-width="1" opacity="0.8784313725490196" d="M 42.5 17 L 42.5 18 L 42.5 17 Z " /><path fill="rgb(86,4,10)" stroke="rgb(86,4,10)" stroke-width="1" opacity="0.8784313725490196" d="M 22.5 28 L 39 28.5 L 22.5 29 L 22.5 28 Z " /><path fill="rgb(86,4,10)" stroke="rgb(86,4,10)" stroke-width="1" opacity="0.8784313725490196" d="M 44.5 32 L 44.5 33 L 44.5 32 Z " /><path fill="rgb(86,4,10)" stroke="rgb(86,4,10)" stroke-width="1" opacity="0.8784313725490196" d="M 16.5 48 L 17 50.5 L 16 50.5 L 16.5 48 Z " /><path fill="rgb(86,4,10)" stroke="rgb(86,4,10)" stroke-width="1" opacity="0.8784313725490196" d="M 42.5 51 L 42.5 52 L 42.5 51 Z " /><path fill="rgb(86,4,10)" stroke="rgb(86,4,10)" stroke-width="1" opacity="0.8784313725490196" d="M 46.5 52 L 46.5 53 L 46.5 52 Z " /><path fill="rgb(86,4,10)" stroke="rgb(86,4,10)" stroke-width="1" opacity="0.8784313725490196" d="M 21.5 54 L 21.5 55 L 21.5 54 Z " /><path fill="rgb(86,4,10)" stroke="rgb(86,4,10)" stroke-width="1" opacity="0.8784313725490196" d="M 38.5 54 L 38.5 55 L 38.5 54 Z " /><path fill="rgb(86,4,10)" stroke="rgb(86,4,10)" stroke-width="1" opacity="0.8784313725490196" d="M 39.5 59 L 39.5 60 L 39.5 59 Z " /></svg>