<svg width="48" height="48" version="1.1" xmlns="http://www.w3.org/2000/svg" desc="Created with imagetracer.js version 1.2.6" ><path fill="rgb(0,0,0)" stroke="rgb(0,0,0)" stroke-width="1" opacity="0" d="M 0 0 L 48 0 L 48 33.5 L 47 33.5 L 33 14.5 L 32 11 L 29 12.5 L 20.5 25 Q 17.5 23.87 18 21 L 15 21 L 15 22.5 L 11.5 27 Q 10.25 23.5 7 24 L 7 25.5 L 0.5 34 L 0 0 Z " /><path fill="rgb(0,0,0)" stroke="rgb(0,0,0)" stroke-width="1" opacity="0" d="M 35.5 26 L 37 26.5 L 35.5 27 L 35.5 26 Z " /><path fill="rgb(0,0,0)" stroke="rgb(0,0,0)" stroke-width="1" opacity="0" d="M 32.5 27 L 32.5 28 L 32.5 27 Z " /><path fill="rgb(0,0,0)" stroke="rgb(0,0,0)" stroke-width="1" opacity="0" d="M 29.5 28 L 29.5 29 L 29.5 28 Z " /><path fill="rgb(0,0,0)" stroke="rgb(0,0,0)" stroke-width="1" opacity="0" d="M 26.5 29 L 26.5 30 L 26.5 29 Z " /><path fill="rgb(0,0,0)" stroke="rgb(0,0,0)" stroke-width="1" opacity="0" d="M 35.5 30 L 35.5 31 L 35.5 30 Z " /><path fill="rgb(0,0,0)" stroke="rgb(0,0,0)" stroke-width="1" opacity="0" d="M 32.5 31 L 32.5 32 L 32.5 31 Z " /><path fill="rgb(0,0,0)" stroke="rgb(0,0,0)" stroke-width="1" opacity="0" d="M 29.5 32 L 29.5 33 L 29.5 32 Z " /><path fill="rgb(0,0,0)" stroke="rgb(0,0,0)" stroke-width="1" opacity="0" d="M 0 37 L 47.5 37 L 48 37.5 L 48 48 L 0.5 48 L 0 47.5 L 0 37 Z " /><path fill="rgb(66,149,123)" stroke="rgb(66,149,123)" stroke-width="1" opacity="0.011764705882352941" d="M 26.5 16 L 26.5 17 L 26.5 16 Z " /><path fill="rgb(66,149,123)" stroke="rgb(66,149,123)" stroke-width="1" opacity="0.011764705882352941" d="M 23.5 20 L 23.5 21 L 23.5 20 Z " /><path fill="rgb(66,149,123)" stroke="rgb(66,149,123)" stroke-width="1" opacity="0.011764705882352941" d="M 38.5 21 L 38.5 22 L 38.5 21 Z " /><path fill="rgb(66,149,123)" stroke="rgb(66,149,123)" stroke-width="1" opacity="0.011764705882352941" d="M 10.5 26 L 10.5 27 L 10.5 26 Z " /><path fill="rgb(66,149,123)" stroke="rgb(66,149,123)" stroke-width="1" opacity="0.011764705882352941" d="M 31.5 27 L 31.5 28 L 31.5 27 Z " /><path fill="rgb(66,149,123)" stroke="rgb(66,149,123)" stroke-width="1" opacity="0.011764705882352941" d="M 33.5 27 L 33.5 28 L 33.5 27 Z " /><path fill="rgb(66,149,123)" stroke="rgb(66,149,123)" stroke-width="1" opacity="0.011764705882352941" d="M 43.5 28 L 44 29.5 L 43 29.5 L 43.5 28 Z " /><path fill="rgb(66,149,123)" stroke="rgb(66,149,123)" stroke-width="1" opacity="0.011764705882352941" d="M 27.5 29 L 27.5 30 L 27.5 29 Z " /><path fill="rgb(66,149,123)" stroke="rgb(66,149,123)" stroke-width="1" opacity="0.011764705882352941" d="M 38.5 29 L 38.5 30 L 38.5 29 Z " /><path fill="rgb(66,149,123)" stroke="rgb(66,149,123)" stroke-width="1" opacity="0.011764705882352941" d="M 36.5 30 L 36.5 31 L 36.5 30 Z " /><path fill="rgb(66,149,123)" stroke="rgb(66,149,123)" stroke-width="1" opacity="0.011764705882352941" d="M 33.5 31 L 33.5 32 L 33.5 31 Z " /><path fill="rgb(66,149,123)" stroke="rgb(66,149,123)" stroke-width="1" opacity="0.011764705882352941" d="M 28.5 32 L 28.5 33 L 28.5 32 Z " /><path fill="rgb(66,149,123)" stroke="rgb(66,149,123)" stroke-width="1" opacity="0.011764705882352941" d="M 30.5 32 L 30.5 33 L 30.5 32 Z " /><path fill="rgb(66,149,123)" stroke="rgb(66,149,123)" stroke-width="1" opacity="0.011764705882352941" d="M 24.5 33 L 24.5 34 L 24.5 33 Z " /><path fill="rgb(4,106,69)" stroke="rgb(4,106,69)" stroke-width="1" opacity="0.996078431372549" d="M 28.5 16 L 28.5 17 L 28.5 16 Z " /><path fill="rgb(4,106,69)" stroke="rgb(4,106,69)" stroke-width="1" opacity="0.996078431372549" d="M 33.5 17 L 33.5 18 L 33.5 17 Z " /><path fill="rgb(4,106,69)" stroke="rgb(4,106,69)" stroke-width="1" opacity="0.996078431372549" d="M 25.5 20 L 25.5 21 L 25.5 20 Z " /><path fill="rgb(4,106,69)" stroke="rgb(4,106,69)" stroke-width="1" opacity="0.996078431372549" d="M 36.5 21 L 36.5 22 L 36.5 21 Z " /><path fill="rgb(4,106,69)" stroke="rgb(4,106,69)" stroke-width="1" opacity="0.996078431372549" d="M 14.5 25 L 14.5 26 L 14.5 25 Z " /><path fill="rgb(4,106,69)" stroke="rgb(4,106,69)" stroke-width="1" opacity="0.996078431372549" d="M 18.5 25 L 18.5 26 L 18.5 25 Z " /><path fill="rgb(4,106,69)" stroke="rgb(4,106,69)" stroke-width="1" opacity="0.996078431372549" d="M 8.5 26 L 8.5 27 L 8.5 26 Z " /><path fill="rgb(4,106,69)" stroke="rgb(4,106,69)" stroke-width="1" opacity="0.996078431372549" d="M 17.5 27 L 17.5 28 L 17.5 27 Z " /><path fill="rgb(4,106,69)" stroke="rgb(4,106,69)" stroke-width="1" opacity="0.996078431372549" d="M 26.5 27 L 26.5 28 L 26.5 27 Z " /><path fill="rgb(4,106,69)" stroke="rgb(4,106,69)" stroke-width="1" opacity="0.996078431372549" d="M 9.5 28 L 9.5 29 L 9.5 28 Z " /><path fill="rgb(4,106,69)" stroke="rgb(4,106,69)" stroke-width="1" opacity="0.996078431372549" d="M 12.5 28 L 12.5 29 L 12.5 28 Z " /><path fill="rgb(4,106,69)" stroke="rgb(4,106,69)" stroke-width="1" opacity="0.996078431372549" d="M 18.5 30 Q 20 31 17.5 32 Q 16 31 18.5 30 Z " /><path fill="rgb(4,106,69)" stroke="rgb(4,106,69)" stroke-width="1" opacity="0.996078431372549" d="M 3.5 32 L 3.5 33 L 3.5 32 Z " /><path fill="rgb(4,106,69)" stroke="rgb(4,106,69)" stroke-width="1" opacity="0.996078431372549" d="M 6.5 32 L 6.5 33 L 6.5 32 Z " /><path fill="rgb(4,106,69)" stroke="rgb(4,106,69)" stroke-width="1" opacity="0.996078431372549" d="M 9.5 32 L 9.5 33 L 9.5 32 Z " /><path fill="rgb(4,106,69)" stroke="rgb(4,106,69)" stroke-width="1" opacity="0.996078431372549" d="M 44.5 32 L 44.5 33 L 44.5 32 Z " /><path fill="rgb(4,106,69)" stroke="rgb(4,106,69)" stroke-width="1" opacity="0.996078431372549" d="M 21.5 34 L 21.5 35 L 21.5 34 Z " /><path fill="rgb(5,107,71)" stroke="rgb(5,107,71)" stroke-width="1" opacity="0.9882352941176471" d="M 35.5 24 L 35.5 25 L 35.5 24 Z " /><path fill="rgb(5,107,71)" stroke="rgb(5,107,71)" stroke-width="1" opacity="0.9882352941176471" d="M 29.5 26 L 29.5 27 L 29.5 26 Z " /><path fill="rgb(5,107,71)" stroke="rgb(5,107,71)" stroke-width="1" opacity="0.9882352941176471" d="M 35.5 28 L 35.5 29 L 35.5 28 Z " /><path fill="rgb(5,107,71)" stroke="rgb(5,107,71)" stroke-width="1" opacity="0.9882352941176471" d="M 32.5 29 L 32.5 30 L 32.5 29 Z " /><path fill="rgb(5,107,71)" stroke="rgb(5,107,71)" stroke-width="1" opacity="0.9882352941176471" d="M 29.5 30 L 29.5 31 L 29.5 30 Z " /><path fill="rgb(5,107,71)" stroke="rgb(5,107,71)" stroke-width="1" opacity="0.9882352941176471" d="M 38.5 31 L 38.5 32 L 38.5 31 Z " /><path fill="rgb(5,107,71)" stroke="rgb(5,107,71)" stroke-width="1" opacity="0.9882352941176471" d="M 35.5 32 L 35.5 33 L 35.5 32 Z " /><path fill="rgb(5,107,71)" stroke="rgb(5,107,71)" stroke-width="1" opacity="0.9882352941176471" d="M 29.5 34 L 29.5 35 L 29.5 34 Z " /><path fill="rgb(4,107,71)" stroke="rgb(4,107,71)" stroke-width="1" opacity="1" d="M 29.5 15 L 29.5 16 L 29.5 15 Z " /><path fill="rgb(4,107,71)" stroke="rgb(4,107,71)" stroke-width="1" opacity="1" d="M 32.5 16 L 32.5 17 L 32.5 16 Z " /><path fill="rgb(4,107,71)" stroke="rgb(4,107,71)" stroke-width="1" opacity="1" d="M 26.5 19 L 26.5 20 L 26.5 19 Z " /><path fill="rgb(4,107,71)" stroke="rgb(4,107,71)" stroke-width="1" opacity="1" d="M 35.5 20 L 35.5 21 L 35.5 20 Z " /><path fill="rgb(4,107,71)" stroke="rgb(4,107,71)" stroke-width="1" opacity="1" d="M 24.5 22 Q 26 23 23.5 24 Q 22 23 24.5 22 Z " /><path fill="rgb(4,107,71)" stroke="rgb(4,107,71)" stroke-width="1" opacity="1" d="M 16.5 23 Q 19 24 17.5 25 L 16.5 24 L 15 24.5 L 16.5 23 Z " /><path fill="rgb(4,107,71)" stroke="rgb(4,107,71)" stroke-width="1" opacity="1" d="M 37.5 23 L 37.5 24 L 37.5 23 Z " /><path fill="rgb(4,107,71)" stroke="rgb(4,107,71)" stroke-width="1" opacity="1" d="M 34.5 24 L 34.5 25 L 34.5 24 Z " /><path fill="rgb(4,107,71)" stroke="rgb(4,107,71)" stroke-width="1" opacity="1" d="M 31.5 25 L 31.5 26 L 31.5 25 Z " /><path fill="rgb(4,107,71)" stroke="rgb(4,107,71)" stroke-width="1" opacity="1" d="M 21.5 26 Q 24 27 22.5 28 Q 20 27 21.5 26 Z " /><path fill="rgb(4,107,71)" stroke="rgb(4,107,71)" stroke-width="1" opacity="1" d="M 28.5 26 L 28.5 27 L 28.5 26 Z " /><path fill="rgb(4,107,71)" stroke="rgb(4,107,71)" stroke-width="1" opacity="1" d="M 7.5 27 Q 9 28 6.5 29 Q 5 28 7.5 27 Z " /><path fill="rgb(4,107,71)" stroke="rgb(4,107,71)" stroke-width="1" opacity="1" d="M 13.5 27 L 13.5 28 L 13.5 27 Z " /><path fill="rgb(4,107,71)" stroke="rgb(4,107,71)" stroke-width="1" opacity="1" d="M 25.5 27 L 25.5 28 L 25.5 27 Z " /><path fill="rgb(4,107,71)" stroke="rgb(4,107,71)" stroke-width="1" opacity="1" d="M 16.5 28 L 16.5 29 L 16.5 28 Z " /><path fill="rgb(4,107,71)" stroke="rgb(4,107,71)" stroke-width="1" opacity="1" d="M 8.5 29 L 8.5 30 L 8.5 29 Z " /><path fill="rgb(4,107,71)" stroke="rgb(4,107,71)" stroke-width="1" opacity="1" d="M 4.5 31 L 4.5 32 L 4.5 31 Z " /><path fill="rgb(4,107,71)" stroke="rgb(4,107,71)" stroke-width="1" opacity="1" d="M 10.5 31 L 10.5 32 L 10.5 31 Z " /><path fill="rgb(4,107,71)" stroke="rgb(4,107,71)" stroke-width="1" opacity="1" d="M 14.5 31 Q 16 32 13.5 33 Q 12 32 14.5 31 Z " /><path fill="rgb(4,107,71)" stroke="rgb(4,107,71)" stroke-width="1" opacity="1" d="M 18.5 31 L 18.5 32 L 18.5 31 Z " /><path fill="rgb(4,107,71)" stroke="rgb(4,107,71)" stroke-width="1" opacity="1" d="M 39.5 31 L 39.5 32 L 39.5 31 Z " /><path fill="rgb(4,107,71)" stroke="rgb(4,107,71)" stroke-width="1" opacity="1" d="M 42.5 31 L 44 31.5 L 42.5 32 L 42.5 31 Z " /><path fill="rgb(4,107,71)" stroke="rgb(4,107,71)" stroke-width="1" opacity="1" d="M 36.5 32 L 36.5 33 L 36.5 32 Z " /><path fill="rgb(4,107,71)" stroke="rgb(4,107,71)" stroke-width="1" opacity="1" d="M 5.5 33 L 5.5 34 L 5.5 33 Z " /><path fill="rgb(4,107,71)" stroke="rgb(4,107,71)" stroke-width="1" opacity="1" d="M 33.5 33 L 33.5 34 L 33.5 33 Z " /><path fill="rgb(4,107,71)" stroke="rgb(4,107,71)" stroke-width="1" opacity="1" d="M 15.5 34 L 15.5 35 L 15.5 34 Z " /><path fill="rgb(4,107,71)" stroke="rgb(4,107,71)" stroke-width="1" opacity="1" d="M 30.5 34 L 30.5 35 L 30.5 34 Z " /><path fill="rgb(12,108,71)" stroke="rgb(12,108,71)" stroke-width="1" opacity="0.5686274509803921" d="M 31.5 13 L 31.5 14 L 31.5 13 Z " /><path fill="rgb(12,108,71)" stroke="rgb(12,108,71)" stroke-width="1" opacity="0.5686274509803921" d="M 27.5 16 L 27.5 17 L 27.5 16 Z " /><path fill="rgb(12,108,71)" stroke="rgb(12,108,71)" stroke-width="1" opacity="0.5686274509803921" d="M 34.5 17 L 34.5 18 L 34.5 17 Z " /><path fill="rgb(12,108,71)" stroke="rgb(12,108,71)" stroke-width="1" opacity="0.5686274509803921" d="M 37.5 21 L 37.5 22 L 37.5 21 Z " /><path fill="rgb(12,108,71)" stroke="rgb(12,108,71)" stroke-width="1" opacity="0.5686274509803921" d="M 22.5 23 L 22.5 24 L 22.5 23 Z " /><path fill="rgb(12,108,71)" stroke="rgb(12,108,71)" stroke-width="1" opacity="0.5686274509803921" d="M 39.5 24 L 39.5 25 L 39.5 24 Z " /><path fill="rgb(12,108,71)" stroke="rgb(12,108,71)" stroke-width="1" opacity="0.5686274509803921" d="M 13.5 25 L 13.5 26 L 13.5 25 Z " /><path fill="rgb(12,108,71)" stroke="rgb(12,108,71)" stroke-width="1" opacity="0.5686274509803921" d="M 19.5 25 L 19.5 26 L 19.5 25 Z " /><path fill="rgb(12,108,71)" stroke="rgb(12,108,71)" stroke-width="1" opacity="0.5686274509803921" d="M 34.5 25 L 34.5 26 L 34.5 25 Z " /><path fill="rgb(12,108,71)" stroke="rgb(12,108,71)" stroke-width="1" opacity="0.5686274509803921" d="M 9.5 26 L 9.5 27 L 9.5 26 Z " /><path fill="rgb(12,108,71)" stroke="rgb(12,108,71)" stroke-width="1" opacity="0.5686274509803921" d="M 31.5 26 L 31.5 27 L 31.5 26 Z " /><path fill="rgb(12,108,71)" stroke="rgb(12,108,71)" stroke-width="1" opacity="0.5686274509803921" d="M 18.5 27 Q 21 28 19.5 29 Q 17 28 18.5 27 Z " /><path fill="rgb(12,108,71)" stroke="rgb(12,108,71)" stroke-width="1" opacity="0.5686274509803921" d="M 36.5 27 L 36.5 28 L 36.5 27 Z " /><path fill="rgb(12,108,71)" stroke="rgb(12,108,71)" stroke-width="1" opacity="0.5686274509803921" d="M 5.5 28 L 5.5 29 L 5.5 28 Z " /><path fill="rgb(12,108,71)" stroke="rgb(12,108,71)" stroke-width="1" opacity="0.5686274509803921" d="M 10 28 L 12 28.5 Q 11 31 10 29.5 L 10 28 Z " /><path fill="rgb(12,108,71)" stroke="rgb(12,108,71)" stroke-width="1" opacity="0.5686274509803921" d="M 33.5 28 L 33.5 29 L 33.5 28 Z " /><path fill="rgb(12,108,71)" stroke="rgb(12,108,71)" stroke-width="1" opacity="0.5686274509803921" d="M 39.5 28 L 42 28.5 L 39.5 29 L 39.5 28 Z " /><path fill="rgb(12,108,71)" stroke="rgb(12,108,71)" stroke-width="1" opacity="0.5686274509803921" d="M 30.5 29 L 30.5 30 L 30.5 29 Z " /><path fill="rgb(12,108,71)" stroke="rgb(12,108,71)" stroke-width="1" opacity="0.5686274509803921" d="M 35.5 29 L 35.5 30 L 35.5 29 Z " /><path fill="rgb(12,108,71)" stroke="rgb(12,108,71)" stroke-width="1" opacity="0.5686274509803921" d="M 22.5 30 L 22.5 31 L 22.5 30 Z " /><path fill="rgb(12,108,71)" stroke="rgb(12,108,71)" stroke-width="1" opacity="0.5686274509803921" d="M 27.5 30 L 27.5 31 L 27.5 30 Z " /><path fill="rgb(12,108,71)" stroke="rgb(12,108,71)" stroke-width="1" opacity="0.5686274509803921" d="M 32.5 30 L 32.5 31 L 32.5 30 Z " /><path fill="rgb(12,108,71)" stroke="rgb(12,108,71)" stroke-width="1" opacity="0.5686274509803921" d="M 39.5 30 L 39.5 31 L 39.5 30 Z " /><path fill="rgb(12,108,71)" stroke="rgb(12,108,71)" stroke-width="1" opacity="0.5686274509803921" d="M 43.5 30 L 43.5 31 L 43.5 30 Z " /><path fill="rgb(12,108,71)" stroke="rgb(12,108,71)" stroke-width="1" opacity="0.5686274509803921" d="M 15.5 31 L 17 31.5 L 15.5 32 L 15.5 31 Z " /><path fill="rgb(12,108,71)" stroke="rgb(12,108,71)" stroke-width="1" opacity="0.5686274509803921" d="M 36.5 31 L 36.5 32 L 36.5 31 Z " /><path fill="rgb(12,108,71)" stroke="rgb(12,108,71)" stroke-width="1" opacity="0.5686274509803921" d="M 2.5 32 L 2.5 33 L 2.5 32 Z " /><path fill="rgb(12,108,71)" stroke="rgb(12,108,71)" stroke-width="1" opacity="0.5686274509803921" d="M 7.5 32 L 9 32.5 L 7.5 33 L 7.5 32 Z " /><path fill="rgb(12,108,71)" stroke="rgb(12,108,71)" stroke-width="1" opacity="0.5686274509803921" d="M 33.5 32 L 33.5 33 L 33.5 32 Z " /><path fill="rgb(12,108,71)" stroke="rgb(12,108,71)" stroke-width="1" opacity="0.5686274509803921" d="M 45.5 32 L 45.5 33 L 45.5 32 Z " /><path fill="rgb(12,108,71)" stroke="rgb(12,108,71)" stroke-width="1" opacity="0.5686274509803921" d="M 21.5 33 L 21.5 34 L 21.5 33 Z " /><path fill="rgb(12,108,71)" stroke="rgb(12,108,71)" stroke-width="1" opacity="0.5686274509803921" d="M 30.5 33 L 30.5 34 L 30.5 33 Z " /><path fill="rgb(12,108,71)" stroke="rgb(12,108,71)" stroke-width="1" opacity="0.5686274509803921" d="M 13.5 34 Q 15 35 12.5 36 Q 11 35 13.5 34 Z " /><path fill="rgb(12,108,71)" stroke="rgb(12,108,71)" stroke-width="1" opacity="0.5686274509803921" d="M 0.5 35 L 0.5 36 L 0.5 35 Z " /><path fill="rgb(12,108,71)" stroke="rgb(12,108,71)" stroke-width="1" opacity="0.5686274509803921" d="M 6.5 35 L 6.5 36 L 6.5 35 Z " /><path fill="rgb(12,108,71)" stroke="rgb(12,108,71)" stroke-width="1" opacity="0.5686274509803921" d="M 47.5 35 L 47.5 36 L 47.5 35 Z " /><path fill="rgb(40,128,97)" stroke="rgb(40,128,97)" stroke-width="1" opacity="0.054901960784313725" d="M 29.5 12 L 29.5 13 L 29.5 12 Z " /><path fill="rgb(40,128,97)" stroke="rgb(40,128,97)" stroke-width="1" opacity="0.054901960784313725" d="M 32.5 13 L 32.5 14 L 32.5 13 Z " /><path fill="rgb(40,128,97)" stroke="rgb(40,128,97)" stroke-width="1" opacity="0.054901960784313725" d="M 27.5 15 L 27.5 16 L 27.5 15 Z " /><path fill="rgb(40,128,97)" stroke="rgb(40,128,97)" stroke-width="1" opacity="0.054901960784313725" d="M 35.5 17 L 35.5 18 L 35.5 17 Z " /><path fill="rgb(40,128,97)" stroke="rgb(40,128,97)" stroke-width="1" opacity="0.054901960784313725" d="M 24.5 19 L 24.5 20 L 24.5 19 Z " /><path fill="rgb(40,128,97)" stroke="rgb(40,128,97)" stroke-width="1" opacity="0.054901960784313725" d="M 15.5 21 L 15.5 22 L 15.5 21 Z " /><path fill="rgb(40,128,97)" stroke="rgb(40,128,97)" stroke-width="1" opacity="0.054901960784313725" d="M 21.5 23 L 21.5 24 L 21.5 23 Z " /><path fill="rgb(40,128,97)" stroke="rgb(40,128,97)" stroke-width="1" opacity="0.054901960784313725" d="M 7.5 24 L 7.5 25 L 7.5 24 Z " /><path fill="rgb(40,128,97)" stroke="rgb(40,128,97)" stroke-width="1" opacity="0.054901960784313725" d="M 13.5 24 L 13.5 25 L 13.5 24 Z " /><path fill="rgb(40,128,97)" stroke="rgb(40,128,97)" stroke-width="1" opacity="0.054901960784313725" d="M 40.5 24 L 42 26.5 Q 41 28 40 25.5 L 40.5 24 Z " /><path fill="rgb(40,128,97)" stroke="rgb(40,128,97)" stroke-width="1" opacity="0.054901960784313725" d="M 9.5 25 L 9.5 26 L 9.5 25 Z " /><path fill="rgb(40,128,97)" stroke="rgb(40,128,97)" stroke-width="1" opacity="0.054901960784313725" d="M 33.5 26 L 33.5 27 L 33.5 26 Z " /><path fill="rgb(40,128,97)" stroke="rgb(40,128,97)" stroke-width="1" opacity="0.054901960784313725" d="M 37.5 26 L 37.5 27 L 37.5 26 Z " /><path fill="rgb(40,128,97)" stroke="rgb(40,128,97)" stroke-width="1" opacity="0.054901960784313725" d="M 4.5 28 L 4.5 29 L 4.5 28 Z " /><path fill="rgb(40,128,97)" stroke="rgb(40,128,97)" stroke-width="1" opacity="0.054901960784313725" d="M 28.5 28 L 28.5 29 L 28.5 28 Z " /><path fill="rgb(40,128,97)" stroke="rgb(40,128,97)" stroke-width="1" opacity="0.054901960784313725" d="M 30.5 28 L 30.5 29 L 30.5 28 Z " /><path fill="rgb(40,128,97)" stroke="rgb(40,128,97)" stroke-width="1" opacity="0.054901960784313725" d="M 25.5 29 L 25.5 30 L 25.5 29 Z " /><path fill="rgb(40,128,97)" stroke="rgb(40,128,97)" stroke-width="1" opacity="0.054901960784313725" d="M 37.5 29 L 37.5 30 L 37.5 29 Z " /><path fill="rgb(40,128,97)" stroke="rgb(40,128,97)" stroke-width="1" opacity="0.054901960784313725" d="M 40.5 29 L 40.5 30 L 40.5 29 Z " /><path fill="rgb(40,128,97)" stroke="rgb(40,128,97)" stroke-width="1" opacity="0.054901960784313725" d="M 42.5 29 L 42.5 30 L 42.5 29 Z " /><path fill="rgb(40,128,97)" stroke="rgb(40,128,97)" stroke-width="1" opacity="0.054901960784313725" d="M 34.5 30 L 34.5 31 L 34.5 30 Z " /><path fill="rgb(40,128,97)" stroke="rgb(40,128,97)" stroke-width="1" opacity="0.054901960784313725" d="M 20.5 31 L 20.5 32 L 20.5 31 Z " /><path fill="rgb(40,128,97)" stroke="rgb(40,128,97)" stroke-width="1" opacity="0.054901960784313725" d="M 31.5 31 L 31.5 32 L 31.5 31 Z " /><path fill="rgb(40,128,97)" stroke="rgb(40,128,97)" stroke-width="1" opacity="0.054901960784313725" d="M 1.5 32 L 1.5 33 L 1.5 32 Z " /><path fill="rgb(40,128,97)" stroke="rgb(40,128,97)" stroke-width="1" opacity="0.054901960784313725" d="M 22.5 32 L 23.5 33 L 25 32.5 L 23.5 34 Q 21 33 22.5 32 Z " /><path fill="rgb(40,128,97)" stroke="rgb(40,128,97)" stroke-width="1" opacity="0.054901960784313725" d="M 27.5 32 Q 29 33 26.5 34 Q 25 33 27.5 32 Z " /><path fill="rgb(40,128,97)" stroke="rgb(40,128,97)" stroke-width="1" opacity="0.054901960784313725" d="M 46.5 32 L 46.5 33 L 46.5 32 Z " /><path fill="rgb(5,107,71)" stroke="rgb(5,107,71)" stroke-width="1" opacity="0.03137254901960784" d="M 23.5 29 L 23.5 30 L 23.5 29 Z " /><path fill="rgb(5,107,71)" stroke="rgb(5,107,71)" stroke-width="1" opacity="0.03137254901960784" d="M 0.5 36 L 5 36.5 L 0.5 37 L 0.5 36 Z " /><path fill="rgb(5,107,71)" stroke="rgb(5,107,71)" stroke-width="1" opacity="0.03137254901960784" d="M 6.5 36 L 48 36.5 L 6.5 37 L 6.5 36 Z " /><path fill="rgb(17,110,74)" stroke="rgb(17,110,74)" stroke-width="1" opacity="0.39215686274509803" d="M 30.5 12 Q 32 13 29.5 14 Q 28 13 30.5 12 Z " /><path fill="rgb(17,110,74)" stroke="rgb(17,110,74)" stroke-width="1" opacity="0.39215686274509803" d="M 32.5 14 L 32.5 15 L 32.5 14 Z " /><path fill="rgb(17,110,74)" stroke="rgb(17,110,74)" stroke-width="1" opacity="0.39215686274509803" d="M 26.5 17 L 26.5 18 L 26.5 17 Z " /><path fill="rgb(17,110,74)" stroke="rgb(17,110,74)" stroke-width="1" opacity="0.39215686274509803" d="M 35.5 18 L 35.5 19 L 35.5 18 Z " /><path fill="rgb(17,110,74)" stroke="rgb(17,110,74)" stroke-width="1" opacity="0.39215686274509803" d="M 24.5 20 L 24.5 21 L 24.5 20 Z " /><path fill="rgb(17,110,74)" stroke="rgb(17,110,74)" stroke-width="1" opacity="0.39215686274509803" d="M 15.5 22 L 15.5 23 L 15.5 22 Z " /><path fill="rgb(17,110,74)" stroke="rgb(17,110,74)" stroke-width="1" opacity="0.39215686274509803" d="M 17.5 22 L 17.5 23 L 17.5 22 Z " /><path fill="rgb(17,110,74)" stroke="rgb(17,110,74)" stroke-width="1" opacity="0.39215686274509803" d="M 38.5 22 L 38.5 23 L 38.5 22 Z " /><path fill="rgb(17,110,74)" stroke="rgb(17,110,74)" stroke-width="1" opacity="0.39215686274509803" d="M 21.5 24 L 21.5 25 L 21.5 24 Z " /><path fill="rgb(17,110,74)" stroke="rgb(17,110,74)" stroke-width="1" opacity="0.39215686274509803" d="M 7.5 25 L 7.5 26 L 7.5 25 Z " /><path fill="rgb(17,110,74)" stroke="rgb(17,110,74)" stroke-width="1" opacity="0.39215686274509803" d="M 19.5 26 L 20 27.5 Q 17.75 28.75 20.5 30 L 21.5 28 L 22 29.5 Q 20 30.5 22 31.5 L 20.5 33 L 20.5 31 Q 18.25 31.75 19 29.5 L 16 30.5 L 19.5 26 Z " /><path fill="rgb(17,110,74)" stroke="rgb(17,110,74)" stroke-width="1" opacity="0.39215686274509803" d="M 10.5 27 L 10.5 28 L 10.5 27 Z " /><path fill="rgb(17,110,74)" stroke="rgb(17,110,74)" stroke-width="1" opacity="0.39215686274509803" d="M 29.5 27 L 29.5 28 L 29.5 27 Z " /><path fill="rgb(17,110,74)" stroke="rgb(17,110,74)" stroke-width="1" opacity="0.39215686274509803" d="M 35.5 27 L 35.5 28 L 35.5 27 Z " /><path fill="rgb(17,110,74)" stroke="rgb(17,110,74)" stroke-width="1" opacity="0.39215686274509803" d="M 26.5 28 L 26.5 29 L 26.5 28 Z " /><path fill="rgb(17,110,74)" stroke="rgb(17,110,74)" stroke-width="1" opacity="0.39215686274509803" d="M 42.5 28 L 42.5 29 L 42.5 28 Z " /><path fill="rgb(17,110,74)" stroke="rgb(17,110,74)" stroke-width="1" opacity="0.39215686274509803" d="M 4.5 29 L 4.5 30 L 4.5 29 Z " /><path fill="rgb(17,110,74)" stroke="rgb(17,110,74)" stroke-width="1" opacity="0.39215686274509803" d="M 9.5 30 Q 11 31 8.5 32 Q 7 31 9.5 30 Z " /><path fill="rgb(17,110,74)" stroke="rgb(17,110,74)" stroke-width="1" opacity="0.39215686274509803" d="M 26.5 30 L 26.5 31 L 26.5 30 Z " /><path fill="rgb(17,110,74)" stroke="rgb(17,110,74)" stroke-width="1" opacity="0.39215686274509803" d="M 38.5 30 L 38.5 31 L 38.5 30 Z " /><path fill="rgb(17,110,74)" stroke="rgb(17,110,74)" stroke-width="1" opacity="0.39215686274509803" d="M 29.5 31 L 29.5 32 L 29.5 31 Z " /><path fill="rgb(17,110,74)" stroke="rgb(17,110,74)" stroke-width="1" opacity="0.39215686274509803" d="M 15.5 32 Q 17 33 14.5 34 Q 13 33 15.5 32 Z " /><path fill="rgb(17,110,74)" stroke="rgb(17,110,74)" stroke-width="1" opacity="0.39215686274509803" d="M 1.5 33 L 1.5 34 L 1.5 33 Z " /><path fill="rgb(17,110,74)" stroke="rgb(17,110,74)" stroke-width="1" opacity="0.39215686274509803" d="M 7.5 33 L 8 33.5 L 5.5 36 L 5 35.5 L 7.5 33 Z " /><path fill="rgb(17,110,74)" stroke="rgb(17,110,74)" stroke-width="1" opacity="0.39215686274509803" d="M 29.5 33 L 29.5 34 L 29.5 33 Z " /><path fill="rgb(17,110,74)" stroke="rgb(17,110,74)" stroke-width="1" opacity="0.39215686274509803" d="M 46.5 33 L 46.5 34 L 46.5 33 Z " /><path fill="rgb(17,110,74)" stroke="rgb(17,110,74)" stroke-width="1" opacity="0.39215686274509803" d="M 13.5 35 L 13.5 36 L 13.5 35 Z " /><path fill="rgb(4,108,71)" stroke="rgb(4,108,71)" stroke-width="1" opacity="1" d="M 30.5 14 L 35 19.5 L 35 22 Q 38 21 37 24 L 34.5 24 L 23.5 28 L 22 25.5 L 30.5 14 Z " /><path fill="rgb(4,108,71)" stroke="rgb(4,108,71)" stroke-width="1" opacity="1" d="M 16.5 24 L 18 26.5 L 11.5 35 L 8 34.5 L 11 33 L 11 30.5 L 16.5 24 Z " /><path fill="rgb(4,108,71)" stroke="rgb(4,108,71)" stroke-width="1" opacity="1" d="M 8.5 27 L 9 28.5 L 5 33.5 L 5 35 L 2 34.5 L 8.5 27 Z " /><path fill="rgb(4,108,71)" stroke="rgb(4,108,71)" stroke-width="1" opacity="1" d="M 40.5 31 Q 44.38 31.63 46 34.5 L 31.5 35 L 31.5 34 L 40.5 31 Z " /><path fill="rgb(4,108,71)" stroke="rgb(4,108,71)" stroke-width="1" opacity="1" d="M 17.5 32 L 21 34.5 L 16 35 L 17.5 32 Z " /><path fill="rgb(6,107,70)" stroke="rgb(6,107,70)" stroke-width="1" opacity="0.7450980392156863" d="M 28.5 15 L 28.5 16 L 28.5 15 Z " /><path fill="rgb(6,107,70)" stroke="rgb(6,107,70)" stroke-width="1" opacity="0.7450980392156863" d="M 33.5 16 L 33.5 17 L 33.5 16 Z " /><path fill="rgb(6,107,70)" stroke="rgb(6,107,70)" stroke-width="1" opacity="0.7450980392156863" d="M 25.5 19 L 25.5 20 L 25.5 19 Z " /><path fill="rgb(6,107,70)" stroke="rgb(6,107,70)" stroke-width="1" opacity="0.7450980392156863" d="M 36.5 20 L 36.5 21 L 36.5 20 Z " /><path fill="rgb(6,107,70)" stroke="rgb(6,107,70)" stroke-width="1" opacity="0.7450980392156863" d="M 23.5 22 L 23.5 23 L 23.5 22 Z " /><path fill="rgb(6,107,70)" stroke="rgb(6,107,70)" stroke-width="1" opacity="0.7450980392156863" d="M 14.5 24 L 14.5 25 L 14.5 24 Z " /><path fill="rgb(6,107,70)" stroke="rgb(6,107,70)" stroke-width="1" opacity="0.7450980392156863" d="M 18.5 24 L 18.5 25 L 18.5 24 Z " /><path fill="rgb(6,107,70)" stroke="rgb(6,107,70)" stroke-width="1" opacity="0.7450980392156863" d="M 8.5 25 L 8.5 26 L 8.5 25 Z " /><path fill="rgb(6,107,70)" stroke="rgb(6,107,70)" stroke-width="1" opacity="0.7450980392156863" d="M 33.5 25 L 33.5 26 L 33.5 25 Z " /><path fill="rgb(6,107,70)" stroke="rgb(6,107,70)" stroke-width="1" opacity="0.7450980392156863" d="M 20.5 26 L 20.5 27 L 20.5 26 Z " /><path fill="rgb(6,107,70)" stroke="rgb(6,107,70)" stroke-width="1" opacity="0.7450980392156863" d="M 6.5 27 L 6.5 28 L 6.5 27 Z " /><path fill="rgb(6,107,70)" stroke="rgb(6,107,70)" stroke-width="1" opacity="0.7450980392156863" d="M 12.5 27 L 12.5 28 L 12.5 27 Z " /><path fill="rgb(6,107,70)" stroke="rgb(6,107,70)" stroke-width="1" opacity="0.7450980392156863" d="M 28.5 27 L 28.5 28 L 28.5 27 Z " /><path fill="rgb(6,107,70)" stroke="rgb(6,107,70)" stroke-width="1" opacity="0.7450980392156863" d="M 37.5 27 Q 40 28 38.5 29 Q 36 28 37.5 27 Z " /><path fill="rgb(6,107,70)" stroke="rgb(6,107,70)" stroke-width="1" opacity="0.7450980392156863" d="M 41.5 27 L 41.5 28 L 41.5 27 Z " /><path fill="rgb(6,107,70)" stroke="rgb(6,107,70)" stroke-width="1" opacity="0.7450980392156863" d="M 17.5 28 L 17.5 29 L 17.5 28 Z " /><path fill="rgb(6,107,70)" stroke="rgb(6,107,70)" stroke-width="1" opacity="0.7450980392156863" d="M 20.5 28 L 21 29.5 L 20 29.5 L 20.5 28 Z " /><path fill="rgb(6,107,70)" stroke="rgb(6,107,70)" stroke-width="1" opacity="0.7450980392156863" d="M 25.5 28 L 25.5 29 L 25.5 28 Z " /><path fill="rgb(6,107,70)" stroke="rgb(6,107,70)" stroke-width="1" opacity="0.7450980392156863" d="M 9.5 29 L 9.5 30 L 9.5 29 Z " /><path fill="rgb(6,107,70)" stroke="rgb(6,107,70)" stroke-width="1" opacity="0.7450980392156863" d="M 34.5 29 L 34.5 30 L 34.5 29 Z " /><path fill="rgb(6,107,70)" stroke="rgb(6,107,70)" stroke-width="1" opacity="0.7450980392156863" d="M 17.5 30 L 17.5 31 L 17.5 30 Z " /><path fill="rgb(6,107,70)" stroke="rgb(6,107,70)" stroke-width="1" opacity="0.7450980392156863" d="M 31.5 30 L 31.5 31 L 31.5 30 Z " /><path fill="rgb(6,107,70)" stroke="rgb(6,107,70)" stroke-width="1" opacity="0.7450980392156863" d="M 40.5 30 L 40.5 31 L 40.5 30 Z " /><path fill="rgb(6,107,70)" stroke="rgb(6,107,70)" stroke-width="1" opacity="0.7450980392156863" d="M 42.5 30 L 42.5 31 L 42.5 30 Z " /><path fill="rgb(6,107,70)" stroke="rgb(6,107,70)" stroke-width="1" opacity="0.7450980392156863" d="M 3.5 31 L 3.5 32 L 3.5 31 Z " /><path fill="rgb(6,107,70)" stroke="rgb(6,107,70)" stroke-width="1" opacity="0.7450980392156863" d="M 9.5 31 L 9.5 32 L 9.5 31 Z " /><path fill="rgb(6,107,70)" stroke="rgb(6,107,70)" stroke-width="1" opacity="0.7450980392156863" d="M 19.5 31 L 19.5 32 L 19.5 31 Z " /><path fill="rgb(6,107,70)" stroke="rgb(6,107,70)" stroke-width="1" opacity="0.7450980392156863" d="M 22.5 31 L 22.5 32 L 22.5 31 Z " /><path fill="rgb(6,107,70)" stroke="rgb(6,107,70)" stroke-width="1" opacity="0.7450980392156863" d="M 27.5 31 L 29 31.5 L 27.5 32 L 27.5 31 Z " /><path fill="rgb(6,107,70)" stroke="rgb(6,107,70)" stroke-width="1" opacity="0.7450980392156863" d="M 44.5 31 L 44.5 32 L 44.5 31 Z " /><path fill="rgb(6,107,70)" stroke="rgb(6,107,70)" stroke-width="1" opacity="0.7450980392156863" d="M 14.5 32 L 14.5 33 L 14.5 32 Z " /><path fill="rgb(6,107,70)" stroke="rgb(6,107,70)" stroke-width="1" opacity="0.7450980392156863" d="M 6.5 33 L 6.5 34 L 6.5 33 Z " /><path fill="rgb(6,107,70)" stroke="rgb(6,107,70)" stroke-width="1" opacity="0.7450980392156863" d="M 14.5 34 L 15.5 35 L 22.5 35 Q 23.25 33.25 26.5 34 L 27.5 35 L 47 35.5 L 14 36 L 14.5 34 Z " /><path fill="rgb(6,107,70)" stroke="rgb(6,107,70)" stroke-width="1" opacity="0.7450980392156863" d="M 1.5 35 L 5 35.5 L 1.5 36 L 1.5 35 Z " /><path fill="rgb(6,107,70)" stroke="rgb(6,107,70)" stroke-width="1" opacity="0.7450980392156863" d="M 7.5 35 L 12 35.5 L 7.5 36 L 7.5 35 Z " /><path fill="rgb(5,106,69)" stroke="rgb(5,106,69)" stroke-width="1" opacity="0.9607843137254902" d="M 30.5 13 Q 33 14 31.5 15 Q 29 14 30.5 13 Z " /><path fill="rgb(5,106,69)" stroke="rgb(5,106,69)" stroke-width="1" opacity="0.9607843137254902" d="M 27.5 17 L 27.5 18 L 27.5 17 Z " /><path fill="rgb(5,106,69)" stroke="rgb(5,106,69)" stroke-width="1" opacity="0.9607843137254902" d="M 34.5 18 L 34.5 19 L 34.5 18 Z " /><path fill="rgb(5,106,69)" stroke="rgb(5,106,69)" stroke-width="1" opacity="0.9607843137254902" d="M 37.5 22 L 37.5 23 L 37.5 22 Z " /><path fill="rgb(5,106,69)" stroke="rgb(5,106,69)" stroke-width="1" opacity="0.9607843137254902" d="M 22.5 24 L 22.5 25 L 22.5 24 Z " /><path fill="rgb(5,106,69)" stroke="rgb(5,106,69)" stroke-width="1" opacity="0.9607843137254902" d="M 32.5 25 L 32.5 26 L 32.5 25 Z " /><path fill="rgb(5,106,69)" stroke="rgb(5,106,69)" stroke-width="1" opacity="0.9607843137254902" d="M 18.5 26 L 18.5 27 L 18.5 26 Z " /><path fill="rgb(5,106,69)" stroke="rgb(5,106,69)" stroke-width="1" opacity="0.9607843137254902" d="M 9.5 27 L 9.5 28 L 9.5 27 Z " /><path fill="rgb(5,106,69)" stroke="rgb(5,106,69)" stroke-width="1" opacity="0.9607843137254902" d="M 39.5 27 L 41 27.5 L 39.5 28 L 39.5 27 Z " /><path fill="rgb(5,106,69)" stroke="rgb(5,106,69)" stroke-width="1" opacity="0.9607843137254902" d="M 23.5 28 L 23.5 29 L 23.5 28 Z " /><path fill="rgb(5,106,69)" stroke="rgb(5,106,69)" stroke-width="1" opacity="0.9607843137254902" d="M 36.5 28 L 36.5 29 L 36.5 28 Z " /><path fill="rgb(5,106,69)" stroke="rgb(5,106,69)" stroke-width="1" opacity="0.9607843137254902" d="M 5.5 29 L 5.5 30 L 5.5 29 Z " /><path fill="rgb(5,106,69)" stroke="rgb(5,106,69)" stroke-width="1" opacity="0.9607843137254902" d="M 11.5 29 L 11.5 30 L 11.5 29 Z " /><path fill="rgb(5,106,69)" stroke="rgb(5,106,69)" stroke-width="1" opacity="0.9607843137254902" d="M 33.5 29 L 33.5 30 L 33.5 29 Z " /><path fill="rgb(5,106,69)" stroke="rgb(5,106,69)" stroke-width="1" opacity="0.9607843137254902" d="M 15.5 30 L 15.5 31 L 15.5 30 Z " /><path fill="rgb(5,106,69)" stroke="rgb(5,106,69)" stroke-width="1" opacity="0.9607843137254902" d="M 30.5 30 L 30.5 31 L 30.5 30 Z " /><path fill="rgb(5,106,69)" stroke="rgb(5,106,69)" stroke-width="1" opacity="0.9607843137254902" d="M 7.5 31 L 7.5 32 L 7.5 31 Z " /><path fill="rgb(5,106,69)" stroke="rgb(5,106,69)" stroke-width="1" opacity="0.9607843137254902" d="M 16.5 32 L 16.5 33 L 16.5 32 Z " /><path fill="rgb(5,106,69)" stroke="rgb(5,106,69)" stroke-width="1" opacity="0.9607843137254902" d="M 19.5 32 Q 22 33 20.5 34 Q 18 33 19.5 32 Z " /><path fill="rgb(5,106,69)" stroke="rgb(5,106,69)" stroke-width="1" opacity="0.9607843137254902" d="M 2.5 33 L 2.5 34 L 2.5 33 Z " /><path fill="rgb(5,106,69)" stroke="rgb(5,106,69)" stroke-width="1" opacity="0.9607843137254902" d="M 8.5 33 L 8.5 34 L 8.5 33 Z " /><path fill="rgb(5,106,69)" stroke="rgb(5,106,69)" stroke-width="1" opacity="0.9607843137254902" d="M 32.5 33 L 32.5 34 L 32.5 33 Z " /><path fill="rgb(5,106,69)" stroke="rgb(5,106,69)" stroke-width="1" opacity="0.9607843137254902" d="M 45.5 33 L 45.5 34 L 45.5 33 Z " /><path fill="rgb(5,106,69)" stroke="rgb(5,106,69)" stroke-width="1" opacity="0.9607843137254902" d="M 12.5 34 L 12.5 35 L 12.5 34 Z " /><path fill="rgb(5,106,69)" stroke="rgb(5,106,69)" stroke-width="1" opacity="0.9607843137254902" d="M 28.5 34 L 28.5 35 L 28.5 34 Z " /><path fill="rgb(4,108,72)" stroke="rgb(4,108,72)" stroke-width="1" opacity="1" d="M 35.5 21 L 35.5 22 L 35.5 21 Z " /><path fill="rgb(4,108,72)" stroke="rgb(4,108,72)" stroke-width="1" opacity="1" d="M 10.5 32 L 10.5 33 L 10.5 32 Z " /><path fill="rgb(6,106,69)" stroke="rgb(6,106,69)" stroke-width="1" opacity="0.8941176470588236" d="M 29.5 14 L 29.5 15 L 29.5 14 Z " /><path fill="rgb(6,106,69)" stroke="rgb(6,106,69)" stroke-width="1" opacity="0.8941176470588236" d="M 32.5 15 L 32.5 16 L 32.5 15 Z " /><path fill="rgb(6,106,69)" stroke="rgb(6,106,69)" stroke-width="1" opacity="0.8941176470588236" d="M 26.5 18 L 26.5 19 L 26.5 18 Z " /><path fill="rgb(6,106,69)" stroke="rgb(6,106,69)" stroke-width="1" opacity="0.8941176470588236" d="M 35.5 19 L 35.5 20 L 35.5 19 Z " /><path fill="rgb(6,106,69)" stroke="rgb(6,106,69)" stroke-width="1" opacity="0.8941176470588236" d="M 24.5 21 L 24.5 22 L 24.5 21 Z " /><path fill="rgb(6,106,69)" stroke="rgb(6,106,69)" stroke-width="1" opacity="0.8941176470588236" d="M 16.5 22 Q 19 23 17.5 24 L 16.5 23 L 15 23.5 L 16.5 22 Z " /><path fill="rgb(6,106,69)" stroke="rgb(6,106,69)" stroke-width="1" opacity="0.8941176470588236" d="M 38.5 23 L 39 25 L 36 24.5 L 38.5 23 Z " /><path fill="rgb(6,106,69)" stroke="rgb(6,106,69)" stroke-width="1" opacity="0.8941176470588236" d="M 21.5 25 L 21.5 26 L 21.5 25 Z " /><path fill="rgb(6,106,69)" stroke="rgb(6,106,69)" stroke-width="1" opacity="0.8941176470588236" d="M 7.5 26 L 7.5 27 L 7.5 26 Z " /><path fill="rgb(6,106,69)" stroke="rgb(6,106,69)" stroke-width="1" opacity="0.8941176470588236" d="M 13.5 26 L 13.5 27 L 13.5 26 Z " /><path fill="rgb(6,106,69)" stroke="rgb(6,106,69)" stroke-width="1" opacity="0.8941176470588236" d="M 30.5 26 L 30.5 27 L 30.5 26 Z " /><path fill="rgb(6,106,69)" stroke="rgb(6,106,69)" stroke-width="1" opacity="0.8941176470588236" d="M 20.5 27 L 23 28.5 L 21.5 28 Q 19.13 27.88 20.5 27 Z " /><path fill="rgb(6,106,69)" stroke="rgb(6,106,69)" stroke-width="1" opacity="0.8941176470588236" d="M 27.5 27 L 27.5 28 L 27.5 27 Z " /><path fill="rgb(6,106,69)" stroke="rgb(6,106,69)" stroke-width="1" opacity="0.8941176470588236" d="M 38.5 27 Q 40 28 37.5 29 Q 36 28 38.5 27 Z " /><path fill="rgb(6,106,69)" stroke="rgb(6,106,69)" stroke-width="1" opacity="0.8941176470588236" d="M 24.5 28 L 24.5 29 L 24.5 28 Z " /><path fill="rgb(6,106,69)" stroke="rgb(6,106,69)" stroke-width="1" opacity="0.8941176470588236" d="M 34.5 28 L 34.5 29 L 34.5 28 Z " /><path fill="rgb(6,106,69)" stroke="rgb(6,106,69)" stroke-width="1" opacity="0.8941176470588236" d="M 16.5 29 L 16.5 30 L 16.5 29 Z " /><path fill="rgb(6,106,69)" stroke="rgb(6,106,69)" stroke-width="1" opacity="0.8941176470588236" d="M 18.5 29 L 18.5 30 L 18.5 29 Z " /><path fill="rgb(6,106,69)" stroke="rgb(6,106,69)" stroke-width="1" opacity="0.8941176470588236" d="M 31.5 29 L 31.5 30 L 31.5 29 Z " /><path fill="rgb(6,106,69)" stroke="rgb(6,106,69)" stroke-width="1" opacity="0.8941176470588236" d="M 4.5 30 L 4.5 31 L 4.5 30 Z " /><path fill="rgb(6,106,69)" stroke="rgb(6,106,69)" stroke-width="1" opacity="0.8941176470588236" d="M 8.5 30 L 8.5 31 L 8.5 30 Z " /><path fill="rgb(6,106,69)" stroke="rgb(6,106,69)" stroke-width="1" opacity="0.8941176470588236" d="M 10.5 30 L 10.5 31 L 10.5 30 Z " /><path fill="rgb(6,106,69)" stroke="rgb(6,106,69)" stroke-width="1" opacity="0.8941176470588236" d="M 21.5 30 L 21.5 31 L 21.5 30 Z " /><path fill="rgb(6,106,69)" stroke="rgb(6,106,69)" stroke-width="1" opacity="0.8941176470588236" d="M 28.5 30 L 28.5 31 L 28.5 30 Z " /><path fill="rgb(6,106,69)" stroke="rgb(6,106,69)" stroke-width="1" opacity="0.8941176470588236" d="M 41.5 30 L 41.5 31 L 41.5 30 Z " /><path fill="rgb(6,106,69)" stroke="rgb(6,106,69)" stroke-width="1" opacity="0.8941176470588236" d="M 23.5 31 L 27 31.5 L 23.5 32 L 23.5 31 Z " /><path fill="rgb(6,106,69)" stroke="rgb(6,106,69)" stroke-width="1" opacity="0.8941176470588236" d="M 37.5 31 L 37.5 32 L 37.5 31 Z " /><path fill="rgb(6,106,69)" stroke="rgb(6,106,69)" stroke-width="1" opacity="0.8941176470588236" d="M 34.5 32 L 34.5 33 L 34.5 32 Z " /><path fill="rgb(6,106,69)" stroke="rgb(6,106,69)" stroke-width="1" opacity="0.8941176470588236" d="M 13.5 33 L 13.5 34 L 13.5 33 Z " /><path fill="rgb(6,106,69)" stroke="rgb(6,106,69)" stroke-width="1" opacity="0.8941176470588236" d="M 15.5 33 L 15.5 34 L 15.5 33 Z " /><path fill="rgb(6,106,69)" stroke="rgb(6,106,69)" stroke-width="1" opacity="0.8941176470588236" d="M 31.5 33 L 31.5 34 L 31.5 33 Z " /><path fill="rgb(6,106,69)" stroke="rgb(6,106,69)" stroke-width="1" opacity="0.8941176470588236" d="M 1.5 34 L 1.5 35 L 1.5 34 Z " /><path fill="rgb(6,106,69)" stroke="rgb(6,106,69)" stroke-width="1" opacity="0.8941176470588236" d="M 5.5 34 L 5.5 35 L 5.5 34 Z " /><path fill="rgb(6,106,69)" stroke="rgb(6,106,69)" stroke-width="1" opacity="0.8941176470588236" d="M 7.5 34 L 7.5 35 L 7.5 34 Z " /><path fill="rgb(6,106,69)" stroke="rgb(6,106,69)" stroke-width="1" opacity="0.8941176470588236" d="M 22.5 34 L 22.5 35 L 22.5 34 Z " /><path fill="rgb(6,106,69)" stroke="rgb(6,106,69)" stroke-width="1" opacity="0.8941176470588236" d="M 27.5 34 L 27.5 35 L 27.5 34 Z " /><path fill="rgb(6,106,69)" stroke="rgb(6,106,69)" stroke-width="1" opacity="0.8941176470588236" d="M 46.5 34 L 46.5 35 L 46.5 34 Z " /><path fill="rgb(137,193,179)" stroke="rgb(137,193,179)" stroke-width="1" opacity="0.00784313725490196" d="M 30.5 11 L 32 11.5 L 30.5 12 L 30.5 11 Z " /><path fill="rgb(137,193,179)" stroke="rgb(137,193,179)" stroke-width="1" opacity="0.00784313725490196" d="M 12.5 25 L 12.5 26 L 12.5 25 Z " /><path fill="rgb(137,193,179)" stroke="rgb(137,193,179)" stroke-width="1" opacity="0.00784313725490196" d="M 34.5 26 L 34.5 27 L 34.5 26 Z " /><path fill="rgb(137,193,179)" stroke="rgb(137,193,179)" stroke-width="1" opacity="0.00784313725490196" d="M 39.5 29 L 39.5 30 L 39.5 29 Z " /><path fill="rgb(137,193,179)" stroke="rgb(137,193,179)" stroke-width="1" opacity="0.00784313725490196" d="M 21.5 32 L 21.5 33 L 21.5 32 Z " /><path fill="rgb(137,193,179)" stroke="rgb(137,193,179)" stroke-width="1" opacity="0.00784313725490196" d="M 25.5 33 L 25.5 34 L 25.5 33 Z " /><path fill="rgb(25,117,83)" stroke="rgb(25,117,83)" stroke-width="1" opacity="0.12549019607843137" d="M 31.5 12 L 31.5 13 L 31.5 12 Z " /><path fill="rgb(25,117,83)" stroke="rgb(25,117,83)" stroke-width="1" opacity="0.12549019607843137" d="M 28.5 14 L 28.5 15 L 28.5 14 Z " /><path fill="rgb(25,117,83)" stroke="rgb(25,117,83)" stroke-width="1" opacity="0.12549019607843137" d="M 34.5 16 L 34.5 17 L 34.5 16 Z " /><path fill="rgb(25,117,83)" stroke="rgb(25,117,83)" stroke-width="1" opacity="0.12549019607843137" d="M 25.5 18 L 25.5 19 L 25.5 18 Z " /><path fill="rgb(25,117,83)" stroke="rgb(25,117,83)" stroke-width="1" opacity="0.12549019607843137" d="M 37.5 20 L 37.5 21 L 37.5 20 Z " /><path fill="rgb(25,117,83)" stroke="rgb(25,117,83)" stroke-width="1" opacity="0.12549019607843137" d="M 17.5 21 L 17.5 22 L 17.5 21 Z " /><path fill="rgb(25,117,83)" stroke="rgb(25,117,83)" stroke-width="1" opacity="0.12549019607843137" d="M 22.5 22 L 22.5 23 L 22.5 22 Z " /><path fill="rgb(25,117,83)" stroke="rgb(25,117,83)" stroke-width="1" opacity="0.12549019607843137" d="M 14.5 23 L 14.5 24 L 14.5 23 Z " /><path fill="rgb(25,117,83)" stroke="rgb(25,117,83)" stroke-width="1" opacity="0.12549019607843137" d="M 39.5 23 L 39.5 24 L 39.5 23 Z " /><path fill="rgb(25,117,83)" stroke="rgb(25,117,83)" stroke-width="1" opacity="0.12549019607843137" d="M 8.5 24 L 8.5 25 L 8.5 24 Z " /><path fill="rgb(25,117,83)" stroke="rgb(25,117,83)" stroke-width="1" opacity="0.12549019607843137" d="M 19.5 24 L 19.5 25 L 19.5 24 Z " /><path fill="rgb(25,117,83)" stroke="rgb(25,117,83)" stroke-width="1" opacity="0.12549019607843137" d="M 36.5 25 Q 40.25 24.25 41 26.5 L 38.5 27 L 36 25.5 L 36.5 25 Z " /><path fill="rgb(25,117,83)" stroke="rgb(25,117,83)" stroke-width="1" opacity="0.12549019607843137" d="M 5.5 27 L 5.5 28 L 5.5 27 Z " /><path fill="rgb(25,117,83)" stroke="rgb(25,117,83)" stroke-width="1" opacity="0.12549019607843137" d="M 11.5 27 L 11.5 28 L 11.5 27 Z " /><path fill="rgb(25,117,83)" stroke="rgb(25,117,83)" stroke-width="1" opacity="0.12549019607843137" d="M 30.5 27 Q 33 28 31.5 29 Q 29 28 30.5 27 Z " /><path fill="rgb(25,117,83)" stroke="rgb(25,117,83)" stroke-width="1" opacity="0.12549019607843137" d="M 34.5 27 L 34.5 28 L 34.5 27 Z " /><path fill="rgb(25,117,83)" stroke="rgb(25,117,83)" stroke-width="1" opacity="0.12549019607843137" d="M 42.5 27 L 42.5 28 L 42.5 27 Z " /><path fill="rgb(25,117,83)" stroke="rgb(25,117,83)" stroke-width="1" opacity="0.12549019607843137" d="M 22.5 29 L 22.5 30 L 22.5 29 Z " /><path fill="rgb(25,117,83)" stroke="rgb(25,117,83)" stroke-width="1" opacity="0.12549019607843137" d="M 24.5 29 L 24.5 30 L 24.5 29 Z " /><path fill="rgb(25,117,83)" stroke="rgb(25,117,83)" stroke-width="1" opacity="0.12549019607843137" d="M 28.5 29 L 28.5 30 L 28.5 29 Z " /><path fill="rgb(25,117,83)" stroke="rgb(25,117,83)" stroke-width="1" opacity="0.12549019607843137" d="M 41.5 29 L 41.5 30 L 41.5 29 Z " /><path fill="rgb(25,117,83)" stroke="rgb(25,117,83)" stroke-width="1" opacity="0.12549019607843137" d="M 37.5 30 L 37.5 31 L 37.5 30 Z " /><path fill="rgb(25,117,83)" stroke="rgb(25,117,83)" stroke-width="1" opacity="0.12549019607843137" d="M 2.5 31 L 2.5 32 L 2.5 31 Z " /><path fill="rgb(25,117,83)" stroke="rgb(25,117,83)" stroke-width="1" opacity="0.12549019607843137" d="M 34.5 31 L 34.5 32 L 34.5 31 Z " /><path fill="rgb(25,117,83)" stroke="rgb(25,117,83)" stroke-width="1" opacity="0.12549019607843137" d="M 45.5 31 L 45.5 32 L 45.5 31 Z " /><path fill="rgb(25,117,83)" stroke="rgb(25,117,83)" stroke-width="1" opacity="0.12549019607843137" d="M 23.5 32 Q 25 33 22.5 34 Q 21 33 23.5 32 Z " /><path fill="rgb(25,117,83)" stroke="rgb(25,117,83)" stroke-width="1" opacity="0.12549019607843137" d="M 25.5 32 L 28 33.5 L 26.5 33 Q 24.13 32.88 25.5 32 Z " /><path fill="rgb(25,117,83)" stroke="rgb(25,117,83)" stroke-width="1" opacity="0.12549019607843137" d="M 31.5 32 L 31.5 33 L 31.5 32 Z " /><path fill="rgb(25,117,83)" stroke="rgb(25,117,83)" stroke-width="1" opacity="0.12549019607843137" d="M 5.5 36 L 5.5 37 L 5.5 36 Z " /><path fill="rgb(21,114,79)" stroke="rgb(21,114,79)" stroke-width="1" opacity="0.2784313725490196" d="M 33.5 15 L 33.5 16 L 33.5 15 Z " /><path fill="rgb(21,114,79)" stroke="rgb(21,114,79)" stroke-width="1" opacity="0.2784313725490196" d="M 36.5 19 L 36.5 20 L 36.5 19 Z " /><path fill="rgb(21,114,79)" stroke="rgb(21,114,79)" stroke-width="1" opacity="0.2784313725490196" d="M 16.5 21 L 16.5 22 L 16.5 21 Z " /><path fill="rgb(21,114,79)" stroke="rgb(21,114,79)" stroke-width="1" opacity="0.2784313725490196" d="M 23.5 21 L 23.5 22 L 23.5 21 Z " /><path fill="rgb(21,114,79)" stroke="rgb(21,114,79)" stroke-width="1" opacity="0.2784313725490196" d="M 18.5 23 L 18.5 24 L 18.5 23 Z " /><path fill="rgb(21,114,79)" stroke="rgb(21,114,79)" stroke-width="1" opacity="0.2784313725490196" d="M 20.5 25 L 20.5 26 L 20.5 25 Z " /><path fill="rgb(21,114,79)" stroke="rgb(21,114,79)" stroke-width="1" opacity="0.2784313725490196" d="M 35.5 25 L 35.5 26 L 35.5 25 Z " /><path fill="rgb(21,114,79)" stroke="rgb(21,114,79)" stroke-width="1" opacity="0.2784313725490196" d="M 6.5 26 L 6.5 27 L 6.5 26 Z " /><path fill="rgb(21,114,79)" stroke="rgb(21,114,79)" stroke-width="1" opacity="0.2784313725490196" d="M 12.5 26 L 12.5 27 L 12.5 26 Z " /><path fill="rgb(21,114,79)" stroke="rgb(21,114,79)" stroke-width="1" opacity="0.2784313725490196" d="M 32.5 26 L 32.5 27 L 32.5 26 Z " /><path fill="rgb(21,114,79)" stroke="rgb(21,114,79)" stroke-width="1" opacity="0.2784313725490196" d="M 27.5 28 L 27.5 29 L 27.5 28 Z " /><path fill="rgb(21,114,79)" stroke="rgb(21,114,79)" stroke-width="1" opacity="0.2784313725490196" d="M 32.5 28 L 32.5 29 L 32.5 28 Z " /><path fill="rgb(21,114,79)" stroke="rgb(21,114,79)" stroke-width="1" opacity="0.2784313725490196" d="M 29.5 29 L 29.5 30 L 29.5 29 Z " /><path fill="rgb(21,114,79)" stroke="rgb(21,114,79)" stroke-width="1" opacity="0.2784313725490196" d="M 36.5 29 L 36.5 30 L 36.5 29 Z " /><path fill="rgb(21,114,79)" stroke="rgb(21,114,79)" stroke-width="1" opacity="0.2784313725490196" d="M 3.5 30 L 3.5 31 L 3.5 30 Z " /><path fill="rgb(21,114,79)" stroke="rgb(21,114,79)" stroke-width="1" opacity="0.2784313725490196" d="M 23.5 30 L 26 30.5 L 23.5 31 L 23.5 30 Z " /><path fill="rgb(21,114,79)" stroke="rgb(21,114,79)" stroke-width="1" opacity="0.2784313725490196" d="M 33.5 30 L 33.5 31 L 33.5 30 Z " /><path fill="rgb(21,114,79)" stroke="rgb(21,114,79)" stroke-width="1" opacity="0.2784313725490196" d="M 44.5 30 L 44.5 31 L 44.5 30 Z " /><path fill="rgb(21,114,79)" stroke="rgb(21,114,79)" stroke-width="1" opacity="0.2784313725490196" d="M 30.5 31 L 30.5 32 L 30.5 31 Z " /><path fill="rgb(21,114,79)" stroke="rgb(21,114,79)" stroke-width="1" opacity="0.2784313725490196" d="M 35.5 31 L 35.5 32 L 35.5 31 Z " /><path fill="rgb(21,114,79)" stroke="rgb(21,114,79)" stroke-width="1" opacity="0.2784313725490196" d="M 32.5 32 L 32.5 33 L 32.5 32 Z " /><path fill="rgb(21,114,79)" stroke="rgb(21,114,79)" stroke-width="1" opacity="0.2784313725490196" d="M 28.5 33 L 28.5 34 L 28.5 33 Z " /><path fill="rgb(21,114,79)" stroke="rgb(21,114,79)" stroke-width="1" opacity="0.2784313725490196" d="M 0.5 34 L 0.5 35 L 0.5 34 Z " /><path fill="rgb(21,114,79)" stroke="rgb(21,114,79)" stroke-width="1" opacity="0.2784313725490196" d="M 47.5 34 L 47.5 35 L 47.5 34 Z " /></svg>