<svg width="128" height="128" version="1.1" xmlns="http://www.w3.org/2000/svg" desc="Created with imagetracer.js version 1.2.6" ><path fill="rgb(86,0,24)" stroke="rgb(86,0,24)" stroke-width="1" opacity="0.38823529411764707" d="M 0 0 L 3 0.5 L 0.5 3 L 0 2.5 L 0 0 Z " /><path fill="rgb(86,0,24)" stroke="rgb(86,0,24)" stroke-width="1" opacity="0.38823529411764707" d="M 125.5 0 Q 129.25 -1.25 128 2.5 L 127.5 3 L 125 0.5 L 125.5 0 Z " /><path fill="rgb(86,0,24)" stroke="rgb(86,0,24)" stroke-width="1" opacity="0.38823529411764707" d="M 0.5 125 L 3 127.5 L 2.5 128 Q -1.85 129.13 0.5 125 Z " /><path fill="rgb(86,0,24)" stroke="rgb(86,0,24)" stroke-width="1" opacity="0.38823529411764707" d="M 127.5 125 L 128 128 L 125 127.5 L 127.5 125 Z " /><path fill="rgb(129,0,38)" stroke="rgb(129,0,38)" stroke-width="1" opacity="1" d="M 3.5 0 L 124.5 0 L 128 3.5 L 128 124.5 L 124.5 128 L 3.5 128 L 0 124.5 L 0 3.5 L 3.5 0 Z M 34 25 L 34 28 L 38 32 Q 37 35 39 36 L 39 94 L 38 97 L 33 103 L 56 103 L 56 102 L 51 97 Q 52 93 50 93 L 50 78 L 52 76 L 65 76 L 73 73 L 76 73 L 87 67 L 92 61 L 95 53 L 95 45 L 92 37 L 86 30 L 73 25 L 34 25 Z " /><path fill="rgb(129,0,38)" stroke="rgb(129,0,38)" stroke-width="1" opacity="1" d="M 52.5 30 L 67.5 30 Q 68.25 31.75 71.5 31 L 79 36.5 L 82 42.5 L 82 54.5 L 80 59.5 L 75.5 65 L 65.5 70 L 50 71 L 50 32.5 L 52.5 30 Z " /><path fill="rgb(224,192,202)" stroke="rgb(224,192,202)" stroke-width="1" opacity="1" d="M 67.5 25 L 73 25.5 L 67.5 26 L 67.5 25 Z " /><path fill="rgb(224,192,202)" stroke="rgb(224,192,202)" stroke-width="1" opacity="1" d="M 76.5 26 L 76.5 27 L 76.5 26 Z " /><path fill="rgb(224,192,202)" stroke="rgb(224,192,202)" stroke-width="1" opacity="1" d="M 34.5 27 L 38 30.5 L 37.5 31 L 34 27.5 L 34.5 27 Z " /><path fill="rgb(224,192,202)" stroke="rgb(224,192,202)" stroke-width="1" opacity="1" d="M 78.5 27 L 78.5 28 L 78.5 27 Z " /><path fill="rgb(224,192,202)" stroke="rgb(224,192,202)" stroke-width="1" opacity="1" d="M 80.5 28 L 82 28.5 L 80.5 29 L 80.5 28 Z " /><path fill="rgb(224,192,202)" stroke="rgb(224,192,202)" stroke-width="1" opacity="1" d="M 83.5 29 L 86 30.5 L 84.5 31 Q 82 30 83.5 29 Z " /><path fill="rgb(224,192,202)" stroke="rgb(224,192,202)" stroke-width="1" opacity="1" d="M 50 30 L 52 30.5 Q 51 33 50 31.5 L 50 30 Z " /><path fill="rgb(224,192,202)" stroke="rgb(224,192,202)" stroke-width="1" opacity="1" d="M 68.5 30 L 71 30.5 L 68.5 31 L 68.5 30 Z " /><path fill="rgb(224,192,202)" stroke="rgb(224,192,202)" stroke-width="1" opacity="1" d="M 72.5 31 L 76 33.5 L 74.5 33 Q 70.69 32.31 72.5 31 Z " /><path fill="rgb(224,192,202)" stroke="rgb(224,192,202)" stroke-width="1" opacity="1" d="M 38.5 32 L 39 34.5 L 38 34.5 L 38.5 32 Z " /><path fill="rgb(224,192,202)" stroke="rgb(224,192,202)" stroke-width="1" opacity="1" d="M 87.5 32 L 92 36.5 L 91.5 37 L 87 32.5 L 87.5 32 Z " /><path fill="rgb(224,192,202)" stroke="rgb(224,192,202)" stroke-width="1" opacity="1" d="M 79.5 37 L 81 39.5 L 80 39.5 L 79.5 37 Z " /><path fill="rgb(224,192,202)" stroke="rgb(224,192,202)" stroke-width="1" opacity="1" d="M 92.5 38 L 94 40.5 Q 93 42 92 39.5 L 92.5 38 Z " /><path fill="rgb(224,192,202)" stroke="rgb(224,192,202)" stroke-width="1" opacity="1" d="M 81.5 41 L 81.5 42 L 81.5 41 Z " /><path fill="rgb(224,192,202)" stroke="rgb(224,192,202)" stroke-width="1" opacity="1" d="M 82.5 44 L 83 52.5 L 82 52.5 L 82.5 44 Z " /><path fill="rgb(224,192,202)" stroke="rgb(224,192,202)" stroke-width="1" opacity="1" d="M 94.5 44 L 95 52.5 L 94 52.5 L 94.5 44 Z " /><path fill="rgb(224,192,202)" stroke="rgb(224,192,202)" stroke-width="1" opacity="1" d="M 81.5 55 L 81.5 56 L 81.5 55 Z " /><path fill="rgb(224,192,202)" stroke="rgb(224,192,202)" stroke-width="1" opacity="1" d="M 93.5 55 L 93.5 56 L 93.5 55 Z " /><path fill="rgb(224,192,202)" stroke="rgb(224,192,202)" stroke-width="1" opacity="1" d="M 80.5 58 L 81 59.5 L 77.5 63 L 77 62.5 L 80.5 58 Z " /><path fill="rgb(224,192,202)" stroke="rgb(224,192,202)" stroke-width="1" opacity="1" d="M 92.5 58 L 92.5 59 L 92.5 58 Z " /><path fill="rgb(224,192,202)" stroke="rgb(224,192,202)" stroke-width="1" opacity="1" d="M 91.5 60 L 92 60.5 L 89.5 63 L 89 62.5 L 91.5 60 Z " /><path fill="rgb(224,192,202)" stroke="rgb(224,192,202)" stroke-width="1" opacity="1" d="M 88.5 64 L 89 64.5 L 86.5 67 L 86 66.5 L 88.5 64 Z " /><path fill="rgb(224,192,202)" stroke="rgb(224,192,202)" stroke-width="1" opacity="1" d="M 74.5 65 L 74.5 66 L 74.5 65 Z " /><path fill="rgb(224,192,202)" stroke="rgb(224,192,202)" stroke-width="1" opacity="1" d="M 71.5 67 L 71.5 68 L 71.5 67 Z " /><path fill="rgb(224,192,202)" stroke="rgb(224,192,202)" stroke-width="1" opacity="1" d="M 84.5 67 L 84.5 68 L 84.5 67 Z " /><path fill="rgb(224,192,202)" stroke="rgb(224,192,202)" stroke-width="1" opacity="1" d="M 68.5 68 L 68.5 69 L 68.5 68 Z " /><path fill="rgb(224,192,202)" stroke="rgb(224,192,202)" stroke-width="1" opacity="1" d="M 66.5 69 L 66.5 70 L 66.5 69 Z " /><path fill="rgb(224,192,202)" stroke="rgb(224,192,202)" stroke-width="1" opacity="1" d="M 60.5 70 L 65 70.5 L 60.5 71 L 60.5 70 Z " /><path fill="rgb(224,192,202)" stroke="rgb(224,192,202)" stroke-width="1" opacity="1" d="M 79.5 70 L 81 70.5 L 79.5 71 L 79.5 70 Z " /><path fill="rgb(224,192,202)" stroke="rgb(224,192,202)" stroke-width="1" opacity="1" d="M 77.5 71 L 77.5 72 L 77.5 71 Z " /><path fill="rgb(224,192,202)" stroke="rgb(224,192,202)" stroke-width="1" opacity="1" d="M 74.5 72 L 76 72.5 L 74.5 73 L 74.5 72 Z " /><path fill="rgb(224,192,202)" stroke="rgb(224,192,202)" stroke-width="1" opacity="1" d="M 71.5 73 L 71.5 74 L 71.5 73 Z " /><path fill="rgb(224,192,202)" stroke="rgb(224,192,202)" stroke-width="1" opacity="1" d="M 68.5 74 L 68.5 75 L 68.5 74 Z " /><path fill="rgb(224,192,202)" stroke="rgb(224,192,202)" stroke-width="1" opacity="1" d="M 59.5 75 L 65 75.5 L 59.5 76 L 59.5 75 Z " /><path fill="rgb(224,192,202)" stroke="rgb(224,192,202)" stroke-width="1" opacity="1" d="M 50.5 76 L 50.5 77 L 50.5 76 Z " /><path fill="rgb(224,192,202)" stroke="rgb(224,192,202)" stroke-width="1" opacity="1" d="M 50.5 93 L 51 94.5 L 50 94.5 L 50.5 93 Z " /><path fill="rgb(224,192,202)" stroke="rgb(224,192,202)" stroke-width="1" opacity="1" d="M 38.5 94 L 39 95.5 L 38 95.5 L 38.5 94 Z " /><path fill="rgb(224,192,202)" stroke="rgb(224,192,202)" stroke-width="1" opacity="1" d="M 37.5 97 L 38 97.5 L 35.5 100 L 35 99.5 L 37.5 97 Z " /><path fill="rgb(224,192,202)" stroke="rgb(224,192,202)" stroke-width="1" opacity="1" d="M 52.5 98 L 56 102.5 L 55 102.5 L 52 98.5 L 52.5 98 Z " /><path fill="rgb(224,192,202)" stroke="rgb(224,192,202)" stroke-width="1" opacity="1" d="M 33.5 102 L 33.5 103 L 33.5 102 Z " /><path fill="rgb(255,255,255)" stroke="rgb(255,255,255)" stroke-width="1" opacity="1" d="M 34 25 L 66.5 25 L 67.5 26 L 75.5 26 L 80.5 29 L 82.5 29 L 84.5 31 L 87 31 L 87 32.5 L 92 37.5 Q 91.5 41 94 41.5 L 94 54.5 L 92 59.5 L 85.5 67 L 81.5 70 L 79.5 70 L 76.5 72 L 67.5 75 L 59.5 75 L 58.5 76 L 50 76 L 50 94.5 L 55 101.5 L 55 103 L 34.5 103 L 34 101.5 L 39 95.5 L 39 32.5 L 34 26.5 L 34 25 Z M 50 30 L 50 71 L 65 71 L 75 66 L 81 60 L 81 57 L 83 53 L 83 45 L 81 39 Q 77 33 71 30 L 50 30 Z " /></svg>