<svg width="32" height="32" version="1.1" xmlns="http://www.w3.org/2000/svg" desc="Created with imagetracer.js version 1.2.6" ><path fill="rgb(252,252,252)" stroke="rgb(252,252,252)" stroke-width="1" opacity="1" d="M 22.5 6 L 22.5 7 L 22.5 6 Z " /><path fill="rgb(252,252,252)" stroke="rgb(252,252,252)" stroke-width="1" opacity="1" d="M 24.5 12 L 24.5 13 L 24.5 12 Z " /><path fill="rgb(252,252,252)" stroke="rgb(252,252,252)" stroke-width="1" opacity="1" d="M 14.5 20 L 14.5 21 L 14.5 20 Z " /><path fill="rgb(252,252,252)" stroke="rgb(252,252,252)" stroke-width="1" opacity="1" d="M 21.5 20 L 24 22.5 L 23.5 23 L 21 20.5 L 21.5 20 Z " /><path fill="rgb(252,252,252)" stroke="rgb(252,252,252)" stroke-width="1" opacity="1" d="M 16.5 23 L 16.5 24 L 16.5 23 Z " /><path fill="rgb(252,252,252)" stroke="rgb(252,252,252)" stroke-width="1" opacity="1" d="M 26.5 24 L 26.5 25 L 26.5 24 Z " /><path fill="rgb(255,255,255)" stroke="rgb(255,255,255)" stroke-width="1" opacity="1" d="M 5.5 3 L 26.5 3 L 29 5.5 L 30 7.5 L 30 25.5 L 27.5 29 L 25.5 30 L 6.5 30 L 3 27.5 L 2 25.5 L 2 7.5 L 5.5 3 Z M 4 5 L 4 7 L 7 9 L 7 24 L 6 25 Q 3 24 4 27 L 17 27 L 17 25 Q 14 26 13 24 L 14 19 L 20 27 L 28 27 L 28 26 L 20 19 Q 19 16 22 17 L 25 13 L 25 11 L 23 6 L 21 5 L 4 5 Z " /><path fill="rgb(255,255,255)" stroke="rgb(255,255,255)" stroke-width="1" opacity="1" d="M 13 8 Q 16.81 7 18 9.5 Q 18.75 14.25 15.5 15 L 13 15 L 13 8 Z " /><path fill="rgb(157,98,103)" stroke="rgb(157,98,103)" stroke-width="1" opacity="1" d="M 3.5 3 L 3.5 4 L 3.5 3 Z " /><path fill="rgb(157,98,103)" stroke="rgb(157,98,103)" stroke-width="1" opacity="1" d="M 28.5 3 L 28.5 4 L 28.5 3 Z " /><path fill="rgb(157,98,103)" stroke="rgb(157,98,103)" stroke-width="1" opacity="1" d="M 17.5 5 L 17.5 6 L 17.5 5 Z " /><path fill="rgb(157,98,103)" stroke="rgb(157,98,103)" stroke-width="1" opacity="1" d="M 7.5 7 L 7.5 8 L 7.5 7 Z " /><path fill="rgb(157,98,103)" stroke="rgb(157,98,103)" stroke-width="1" opacity="1" d="M 23.5 12 L 23.5 13 L 23.5 12 Z " /><path fill="rgb(157,98,103)" stroke="rgb(157,98,103)" stroke-width="1" opacity="1" d="M 18.5 13 L 18.5 14 L 18.5 13 Z " /><path fill="rgb(157,98,103)" stroke="rgb(157,98,103)" stroke-width="1" opacity="1" d="M 18.5 18 L 18.5 19 L 18.5 18 Z " /><path fill="rgb(157,98,103)" stroke="rgb(157,98,103)" stroke-width="1" opacity="1" d="M 15.5 20 L 15.5 21 L 15.5 20 Z " /><path fill="rgb(157,98,103)" stroke="rgb(157,98,103)" stroke-width="1" opacity="1" d="M 7.5 24 L 7.5 25 L 7.5 24 Z " /><path fill="rgb(157,98,103)" stroke="rgb(157,98,103)" stroke-width="1" opacity="1" d="M 24.5 24 L 24.5 25 L 24.5 24 Z " /><path fill="rgb(157,98,103)" stroke="rgb(157,98,103)" stroke-width="1" opacity="1" d="M 26.5 25 L 26.5 26 L 26.5 25 Z " /><path fill="rgb(141,38,51)" stroke="rgb(141,38,51)" stroke-width="1" opacity="0.4470588235294118" d="M 5.5 0 L 27 0.5 L 5.5 1 L 5.5 0 Z " /><path fill="rgb(141,38,51)" stroke="rgb(141,38,51)" stroke-width="1" opacity="0.4470588235294118" d="M 3.5 1 L 3.5 2 L 3.5 1 Z " /><path fill="rgb(141,38,51)" stroke="rgb(141,38,51)" stroke-width="1" opacity="0.4470588235294118" d="M 28.5 1 L 28.5 2 L 28.5 1 Z " /><path fill="rgb(141,38,51)" stroke="rgb(141,38,51)" stroke-width="1" opacity="0.4470588235294118" d="M 1.5 2 L 1.5 3 L 1.5 2 Z " /><path fill="rgb(141,38,51)" stroke="rgb(141,38,51)" stroke-width="1" opacity="0.4470588235294118" d="M 30.5 2 L 30.5 3 L 30.5 2 Z " /><path fill="rgb(141,38,51)" stroke="rgb(141,38,51)" stroke-width="1" opacity="0.4470588235294118" d="M 0.5 4 L 0.5 5 L 0.5 4 Z " /><path fill="rgb(141,38,51)" stroke="rgb(141,38,51)" stroke-width="1" opacity="0.4470588235294118" d="M 31.5 4 L 31.5 5 L 31.5 4 Z " /><path fill="rgb(141,38,51)" stroke="rgb(141,38,51)" stroke-width="1" opacity="0.4470588235294118" d="M 0.5 27 L 3.5 31 L 5 31.5 L 3.5 32 L 0 28.5 L 0.5 27 Z " /><path fill="rgb(141,38,51)" stroke="rgb(141,38,51)" stroke-width="1" opacity="0.4470588235294118" d="M 31.5 27 L 32 28.5 L 27.5 32 L 27.5 31 L 31 28.5 L 31.5 27 Z " /><path fill="rgb(241,237,237)" stroke="rgb(241,237,237)" stroke-width="1" opacity="1" d="M 3.5 4 L 3.5 5 L 3.5 4 Z " /><path fill="rgb(241,237,237)" stroke="rgb(241,237,237)" stroke-width="1" opacity="1" d="M 28.5 4 L 28.5 5 L 28.5 4 Z " /><path fill="rgb(241,237,237)" stroke="rgb(241,237,237)" stroke-width="1" opacity="1" d="M 20.5 5 L 20.5 6 L 20.5 5 Z " /><path fill="rgb(241,237,237)" stroke="rgb(241,237,237)" stroke-width="1" opacity="1" d="M 13.5 24 L 13.5 25 L 13.5 24 Z " /><path fill="rgb(241,237,237)" stroke="rgb(241,237,237)" stroke-width="1" opacity="1" d="M 17.5 24 L 17.5 25 L 17.5 24 Z " /><path fill="rgb(241,237,237)" stroke="rgb(241,237,237)" stroke-width="1" opacity="1" d="M 2.5 26 L 2.5 27 L 2.5 26 Z " /><path fill="rgb(241,237,237)" stroke="rgb(241,237,237)" stroke-width="1" opacity="1" d="M 16.5 26 L 16.5 27 L 16.5 26 Z " /><path fill="rgb(241,237,237)" stroke="rgb(241,237,237)" stroke-width="1" opacity="1" d="M 29.5 26 L 29.5 27 L 29.5 26 Z " /><path fill="rgb(241,237,237)" stroke="rgb(241,237,237)" stroke-width="1" opacity="1" d="M 5.5 29 L 5.5 30 L 5.5 29 Z " /><path fill="rgb(241,237,237)" stroke="rgb(241,237,237)" stroke-width="1" opacity="1" d="M 26.5 29 L 26.5 30 L 26.5 29 Z " /><path fill="rgb(154,91,96)" stroke="rgb(154,91,96)" stroke-width="1" opacity="1" d="M 2.5 4 L 2.5 5 L 2.5 4 Z " /><path fill="rgb(154,91,96)" stroke="rgb(154,91,96)" stroke-width="1" opacity="1" d="M 29.5 4 L 29.5 5 L 29.5 4 Z " /><path fill="rgb(154,91,96)" stroke="rgb(154,91,96)" stroke-width="1" opacity="1" d="M 5.5 5 L 17 5.5 L 7.5 6 L 6.5 7 Q 4 6 5.5 5 Z " /><path fill="rgb(154,91,96)" stroke="rgb(154,91,96)" stroke-width="1" opacity="1" d="M 23.5 10 L 24 11.5 L 23 11.5 L 23.5 10 Z " /><path fill="rgb(154,91,96)" stroke="rgb(154,91,96)" stroke-width="1" opacity="1" d="M 16.5 15 L 16.5 16 L 16.5 15 Z " /><path fill="rgb(154,91,96)" stroke="rgb(154,91,96)" stroke-width="1" opacity="1" d="M 13.5 17 L 13.5 18 L 13.5 17 Z " /><path fill="rgb(154,91,96)" stroke="rgb(154,91,96)" stroke-width="1" opacity="1" d="M 12.5 24 L 15 26.5 L 14.5 27 L 5 26.5 Q 6.25 23.75 7.5 26 L 13 25.5 L 12.5 24 Z " /><path fill="rgb(154,91,96)" stroke="rgb(154,91,96)" stroke-width="1" opacity="1" d="M 18.5 24 L 18.5 25 L 18.5 24 Z " /><path fill="rgb(154,91,96)" stroke="rgb(154,91,96)" stroke-width="1" opacity="1" d="M 20.5 26 L 27 26.5 L 20.5 27 L 20.5 26 Z " /><path fill="rgb(141,38,51)" stroke="rgb(141,38,51)" stroke-width="1" opacity="0.8313725490196079" d="M 4.5 1 L 4.5 2 L 4.5 1 Z " /><path fill="rgb(141,38,51)" stroke="rgb(141,38,51)" stroke-width="1" opacity="0.8313725490196079" d="M 27.5 1 L 27.5 2 L 27.5 1 Z " /><path fill="rgb(141,38,51)" stroke="rgb(141,38,51)" stroke-width="1" opacity="0.8313725490196079" d="M 2.5 2 Q 4 3 1.5 4 Q 0 3 2.5 2 Z " /><path fill="rgb(141,38,51)" stroke="rgb(141,38,51)" stroke-width="1" opacity="0.8313725490196079" d="M 29.5 2 Q 32 3 30.5 4 Q 28 3 29.5 2 Z " /><path fill="rgb(141,38,51)" stroke="rgb(141,38,51)" stroke-width="1" opacity="0.8313725490196079" d="M 0.5 5 L 0.5 6 L 0.5 5 Z " /><path fill="rgb(141,38,51)" stroke="rgb(141,38,51)" stroke-width="1" opacity="0.8313725490196079" d="M 31.5 5 L 31.5 6 L 31.5 5 Z " /><path fill="rgb(141,38,51)" stroke="rgb(141,38,51)" stroke-width="1" opacity="0.8313725490196079" d="M 0.5 26 L 0.5 27 L 0.5 26 Z " /><path fill="rgb(141,38,51)" stroke="rgb(141,38,51)" stroke-width="1" opacity="0.8313725490196079" d="M 31.5 26 L 31.5 27 L 31.5 26 Z " /><path fill="rgb(141,38,51)" stroke="rgb(141,38,51)" stroke-width="1" opacity="0.8313725490196079" d="M 5.5 31 L 5.5 32 L 5.5 31 Z " /><path fill="rgb(141,38,51)" stroke="rgb(141,38,51)" stroke-width="1" opacity="0.8313725490196079" d="M 26.5 31 L 26.5 32 L 26.5 31 Z " /><path fill="rgb(230,221,222)" stroke="rgb(230,221,222)" stroke-width="1" opacity="1" d="M 4.5 3 L 4.5 4 L 4.5 3 Z " /><path fill="rgb(230,221,222)" stroke="rgb(230,221,222)" stroke-width="1" opacity="1" d="M 27.5 3 L 27.5 4 L 27.5 3 Z " /><path fill="rgb(230,221,222)" stroke="rgb(230,221,222)" stroke-width="1" opacity="1" d="M 13.5 7 L 15 7.5 L 13.5 8 L 13.5 7 Z " /><path fill="rgb(230,221,222)" stroke="rgb(230,221,222)" stroke-width="1" opacity="1" d="M 23.5 14 L 23.5 15 L 23.5 14 Z " /><path fill="rgb(230,221,222)" stroke="rgb(230,221,222)" stroke-width="1" opacity="1" d="M 21.5 16 L 21.5 17 L 21.5 16 Z " /><path fill="rgb(230,221,222)" stroke="rgb(230,221,222)" stroke-width="1" opacity="1" d="M 19.5 17 L 19.5 18 L 19.5 17 Z " /><path fill="rgb(230,221,222)" stroke="rgb(230,221,222)" stroke-width="1" opacity="1" d="M 13.5 18 L 13.5 19 L 13.5 18 Z " /><path fill="rgb(230,221,222)" stroke="rgb(230,221,222)" stroke-width="1" opacity="1" d="M 15.5 21 L 15.5 22 L 15.5 21 Z " /><path fill="rgb(230,221,222)" stroke="rgb(230,221,222)" stroke-width="1" opacity="1" d="M 25.5 24 L 25.5 25 L 25.5 24 Z " /><path fill="rgb(230,221,222)" stroke="rgb(230,221,222)" stroke-width="1" opacity="1" d="M 3.5 28 L 3.5 29 L 3.5 28 Z " /><path fill="rgb(230,221,222)" stroke="rgb(230,221,222)" stroke-width="1" opacity="1" d="M 28.5 28 L 28.5 29 L 28.5 28 Z " /><path fill="rgb(145,62,70)" stroke="rgb(145,62,70)" stroke-width="1" opacity="1" d="M 12.5 6 L 14 6.5 L 12.5 7 L 12.5 6 Z " /><path fill="rgb(145,62,70)" stroke="rgb(145,62,70)" stroke-width="1" opacity="1" d="M 18.5 8 L 18.5 9 L 18.5 8 Z " /><path fill="rgb(145,62,70)" stroke="rgb(145,62,70)" stroke-width="1" opacity="1" d="M 22.5 8 L 22.5 9 L 22.5 8 Z " /><path fill="rgb(145,62,70)" stroke="rgb(145,62,70)" stroke-width="1" opacity="1" d="M 17.5 17 L 17.5 18 L 17.5 17 Z " /><path fill="rgb(145,62,70)" stroke="rgb(145,62,70)" stroke-width="1" opacity="1" d="M 1.5 25 L 1.5 26 L 1.5 25 Z " /><path fill="rgb(145,62,70)" stroke="rgb(145,62,70)" stroke-width="1" opacity="1" d="M 19.5 25 L 19.5 26 L 19.5 25 Z " /><path fill="rgb(145,62,70)" stroke="rgb(145,62,70)" stroke-width="1" opacity="1" d="M 25.5 25 L 25.5 26 L 25.5 25 Z " /><path fill="rgb(145,62,70)" stroke="rgb(145,62,70)" stroke-width="1" opacity="1" d="M 30.5 25 L 30.5 26 L 30.5 25 Z " /><path fill="rgb(145,62,70)" stroke="rgb(145,62,70)" stroke-width="1" opacity="1" d="M 6.5 30 L 6.5 31 L 6.5 30 Z " /><path fill="rgb(145,62,70)" stroke="rgb(145,62,70)" stroke-width="1" opacity="1" d="M 25.5 30 L 25.5 31 L 25.5 30 Z " /><path fill="rgb(140,42,54)" stroke="rgb(140,42,54)" stroke-width="1" opacity="1" d="M 21.5 7 L 21.5 8 L 21.5 7 Z " /><path fill="rgb(140,42,54)" stroke="rgb(140,42,54)" stroke-width="1" opacity="1" d="M 15.5 19 L 15.5 20 L 15.5 19 Z " /><path fill="rgb(140,42,54)" stroke="rgb(140,42,54)" stroke-width="1" opacity="1" d="M 20.5 21 L 23 23.5 L 22.5 24 L 20 21.5 L 20.5 21 Z " /><path fill="rgb(140,42,54)" stroke="rgb(140,42,54)" stroke-width="1" opacity="1" d="M 2.5 28 Q 5 29 3.5 30 Q 1 29 2.5 28 Z " /><path fill="rgb(140,42,54)" stroke="rgb(140,42,54)" stroke-width="1" opacity="1" d="M 29.5 28 Q 31 29 28.5 30 Q 27 29 29.5 28 Z " /><path fill="rgb(140,38,51)" stroke="rgb(140,38,51)" stroke-width="1" opacity="1" d="M 15.5 6 L 15.5 7 L 15.5 6 Z " /><path fill="rgb(140,38,51)" stroke="rgb(140,38,51)" stroke-width="1" opacity="1" d="M 19.5 11 L 19.5 12 L 19.5 11 Z " /><path fill="rgb(248,246,246)" stroke="rgb(248,246,246)" stroke-width="1" opacity="1" d="M 2.5 6 L 2.5 7 L 2.5 6 Z " /><path fill="rgb(248,246,246)" stroke="rgb(248,246,246)" stroke-width="1" opacity="1" d="M 29.5 6 L 29.5 7 L 29.5 6 Z " /><path fill="rgb(248,246,246)" stroke="rgb(248,246,246)" stroke-width="1" opacity="1" d="M 6.5 7 L 6.5 8 L 6.5 7 Z " /><path fill="rgb(248,246,246)" stroke="rgb(248,246,246)" stroke-width="1" opacity="1" d="M 24.5 10 L 25 11.5 L 24 11.5 L 24.5 10 Z " /><path fill="rgb(248,246,246)" stroke="rgb(248,246,246)" stroke-width="1" opacity="1" d="M 17.5 13 Q 19 14 16.5 15 Q 15 14 17.5 13 Z " /><path fill="rgb(248,246,246)" stroke="rgb(248,246,246)" stroke-width="1" opacity="1" d="M 19.5 18 Q 22 19 20.5 20 Q 18 19 19.5 18 Z " /><path fill="rgb(248,246,246)" stroke="rgb(248,246,246)" stroke-width="1" opacity="1" d="M 24.5 23 L 24.5 24 L 24.5 23 Z " /><path fill="rgb(248,246,246)" stroke="rgb(248,246,246)" stroke-width="1" opacity="1" d="M 6.5 24 L 6.5 25 L 6.5 24 Z " /><path fill="rgb(248,246,246)" stroke="rgb(248,246,246)" stroke-width="1" opacity="1" d="M 16.5 25 L 16.5 26 L 16.5 25 Z " /><path fill="rgb(141,38,51)" stroke="rgb(141,38,51)" stroke-width="1" opacity="1" d="M 5.5 1 L 26.5 1 L 31 4.5 L 32 6.5 L 32 25.5 L 31 28.5 L 28.5 31 L 25.5 32 L 6.5 32 L 3.5 31 L 1 28.5 L 0 25.5 L 0 6.5 L 3.5 2 L 5.5 1 Z M 6 2 L 4 3 L 1 8 L 1 26 L 2 29 L 7 31 L 26 31 L 29 30 L 31 26 L 31 8 L 30 5 L 27 2 L 6 2 Z " /><path fill="rgb(141,38,51)" stroke="rgb(141,38,51)" stroke-width="1" opacity="1" d="M 7.5 6 L 12 6 L 12 16 L 16.5 16 L 20 11.5 L 17.5 7 L 16 6.5 L 19.5 6 L 23 9.5 L 23 13.5 L 17 17.5 L 22.5 24 L 25 25.5 L 20.5 26 L 13.5 17 L 12 17.5 L 12 24.5 L 12.5 26 L 7 25.5 L 8 24.5 L 8 7.5 L 7.5 6 Z " /><path fill="rgb(193,165,167)" stroke="rgb(193,165,167)" stroke-width="1" opacity="1" d="M 6.5 2 L 6.5 3 L 6.5 2 Z " /><path fill="rgb(193,165,167)" stroke="rgb(193,165,167)" stroke-width="1" opacity="1" d="M 25.5 2 L 25.5 3 L 25.5 2 Z " /><path fill="rgb(193,165,167)" stroke="rgb(193,165,167)" stroke-width="1" opacity="1" d="M 18.5 10 L 18.5 11 L 18.5 10 Z " /><path fill="rgb(193,165,167)" stroke="rgb(193,165,167)" stroke-width="1" opacity="1" d="M 16.5 22 L 16.5 23 L 16.5 22 Z " /><path fill="rgb(193,165,167)" stroke="rgb(193,165,167)" stroke-width="1" opacity="1" d="M 2.5 27 L 2.5 28 L 2.5 27 Z " /><path fill="rgb(193,165,167)" stroke="rgb(193,165,167)" stroke-width="1" opacity="1" d="M 29.5 27 L 29.5 28 L 29.5 27 Z " /><path fill="rgb(193,165,167)" stroke="rgb(193,165,167)" stroke-width="1" opacity="1" d="M 4.5 29 L 4.5 30 L 4.5 29 Z " /><path fill="rgb(193,165,167)" stroke="rgb(193,165,167)" stroke-width="1" opacity="1" d="M 27.5 29 L 27.5 30 L 27.5 29 Z " /><path fill="rgb(168,121,125)" stroke="rgb(168,121,125)" stroke-width="1" opacity="1" d="M 5.5 2 L 5.5 3 L 5.5 2 Z " /><path fill="rgb(168,121,125)" stroke="rgb(168,121,125)" stroke-width="1" opacity="1" d="M 26.5 2 L 26.5 3 L 26.5 2 Z " /><path fill="rgb(168,121,125)" stroke="rgb(168,121,125)" stroke-width="1" opacity="1" d="M 7.5 8 L 7.5 9 L 7.5 8 Z " /><path fill="rgb(168,121,125)" stroke="rgb(168,121,125)" stroke-width="1" opacity="1" d="M 17.5 14 L 17.5 15 L 17.5 14 Z " /><path fill="rgb(168,121,125)" stroke="rgb(168,121,125)" stroke-width="1" opacity="1" d="M 15.5 15 L 15.5 16 L 15.5 15 Z " /><path fill="rgb(168,121,125)" stroke="rgb(168,121,125)" stroke-width="1" opacity="1" d="M 12.5 22 L 12.5 23 L 12.5 22 Z " /><path fill="rgb(168,121,125)" stroke="rgb(168,121,125)" stroke-width="1" opacity="1" d="M 7.5 23 L 7.5 24 L 7.5 23 Z " /><path fill="rgb(168,121,125)" stroke="rgb(168,121,125)" stroke-width="1" opacity="1" d="M 23.5 23 L 23.5 24 L 23.5 23 Z " /><path fill="rgb(186,156,158)" stroke="rgb(186,156,158)" stroke-width="1" opacity="1" d="M 19.5 5 L 19.5 6 L 19.5 5 Z " /><path fill="rgb(186,156,158)" stroke="rgb(186,156,158)" stroke-width="1" opacity="1" d="M 21.5 6 L 21.5 7 L 21.5 6 Z " /><path fill="rgb(186,156,158)" stroke="rgb(186,156,158)" stroke-width="1" opacity="1" d="M 7.5 10 L 8 21.5 L 7 21.5 L 7.5 10 Z " /><path fill="rgb(186,156,158)" stroke="rgb(186,156,158)" stroke-width="1" opacity="1" d="M 18.5 12 L 18.5 13 L 18.5 12 Z " /><path fill="rgb(186,156,158)" stroke="rgb(186,156,158)" stroke-width="1" opacity="1" d="M 18.5 17 L 18.5 18 L 18.5 17 Z " /><path fill="rgb(186,156,158)" stroke="rgb(186,156,158)" stroke-width="1" opacity="1" d="M 14.5 19 L 14.5 20 L 14.5 19 Z " /><path fill="rgb(150,79,85)" stroke="rgb(150,79,85)" stroke-width="1" opacity="1" d="M 4.5 5 L 4.5 6 L 4.5 5 Z " /><path fill="rgb(150,79,85)" stroke="rgb(150,79,85)" stroke-width="1" opacity="1" d="M 20.5 6 L 20.5 7 L 20.5 6 Z " /><path fill="rgb(150,79,85)" stroke="rgb(150,79,85)" stroke-width="1" opacity="1" d="M 1.5 7 L 2 24.5 L 1 24.5 L 1.5 7 Z " /><path fill="rgb(150,79,85)" stroke="rgb(150,79,85)" stroke-width="1" opacity="1" d="M 17.5 7 L 17.5 8 L 17.5 7 Z " /><path fill="rgb(150,79,85)" stroke="rgb(150,79,85)" stroke-width="1" opacity="1" d="M 30.5 7 L 31 24.5 L 30 24.5 L 30.5 7 Z " /><path fill="rgb(150,79,85)" stroke="rgb(150,79,85)" stroke-width="1" opacity="1" d="M 22.5 14 Q 24 15 21.5 16 Q 20 15 22.5 14 Z " /><path fill="rgb(150,79,85)" stroke="rgb(150,79,85)" stroke-width="1" opacity="1" d="M 12.5 15 L 12.5 16 L 12.5 15 Z " /><path fill="rgb(150,79,85)" stroke="rgb(150,79,85)" stroke-width="1" opacity="1" d="M 19.5 16 L 19.5 17 L 19.5 16 Z " /><path fill="rgb(150,79,85)" stroke="rgb(150,79,85)" stroke-width="1" opacity="1" d="M 12.5 17 L 12.5 18 L 12.5 17 Z " /><path fill="rgb(150,79,85)" stroke="rgb(150,79,85)" stroke-width="1" opacity="1" d="M 14.5 18 L 14.5 19 L 14.5 18 Z " /><path fill="rgb(150,79,85)" stroke="rgb(150,79,85)" stroke-width="1" opacity="1" d="M 16.5 21 L 16.5 22 L 16.5 21 Z " /><path fill="rgb(150,79,85)" stroke="rgb(150,79,85)" stroke-width="1" opacity="1" d="M 4.5 26 L 4.5 27 L 4.5 26 Z " /><path fill="rgb(150,79,85)" stroke="rgb(150,79,85)" stroke-width="1" opacity="1" d="M 15.5 26 L 15.5 27 L 15.5 26 Z " /><path fill="rgb(150,79,85)" stroke="rgb(150,79,85)" stroke-width="1" opacity="1" d="M 27.5 26 L 27.5 27 L 27.5 26 Z " /><path fill="rgb(150,79,85)" stroke="rgb(150,79,85)" stroke-width="1" opacity="1" d="M 7.5 30 L 25 30.5 L 7.5 31 L 7.5 30 Z " /><path fill="rgb(170,127,130)" stroke="rgb(170,127,130)" stroke-width="1" opacity="1" d="M 4.5 6 L 4.5 7 L 4.5 6 Z " /><path fill="rgb(170,127,130)" stroke="rgb(170,127,130)" stroke-width="1" opacity="1" d="M 12.5 7 L 12.5 8 L 12.5 7 Z " /><path fill="rgb(170,127,130)" stroke="rgb(170,127,130)" stroke-width="1" opacity="1" d="M 16.5 7 L 16.5 8 L 16.5 7 Z " /><path fill="rgb(170,127,130)" stroke="rgb(170,127,130)" stroke-width="1" opacity="1" d="M 23.5 13 L 23.5 14 L 23.5 13 Z " /><path fill="rgb(170,127,130)" stroke="rgb(170,127,130)" stroke-width="1" opacity="1" d="M 21.5 21 Q 24 22 22.5 23 Q 20 22 21.5 21 Z " /><path fill="rgb(170,127,130)" stroke="rgb(170,127,130)" stroke-width="1" opacity="1" d="M 4.5 25 L 4.5 26 L 4.5 25 Z " /><path fill="rgb(170,127,130)" stroke="rgb(170,127,130)" stroke-width="1" opacity="1" d="M 15.5 25 L 15.5 26 L 15.5 25 Z " /><path fill="rgb(170,127,130)" stroke="rgb(170,127,130)" stroke-width="1" opacity="1" d="M 27.5 25 L 27.5 26 L 27.5 25 Z " /><path fill="rgb(170,127,130)" stroke="rgb(170,127,130)" stroke-width="1" opacity="1" d="M 19.5 26 L 19.5 27 L 19.5 26 Z " /><path fill="rgb(177,140,142)" stroke="rgb(177,140,142)" stroke-width="1" opacity="1" d="M 22.5 7 L 22.5 8 L 22.5 7 Z " /><path fill="rgb(177,140,142)" stroke="rgb(177,140,142)" stroke-width="1" opacity="1" d="M 12.5 8 L 13 15 L 15 15.5 L 13.5 16 L 12 14.5 L 12.5 8 Z " /><path fill="rgb(177,140,142)" stroke="rgb(177,140,142)" stroke-width="1" opacity="1" d="M 7.5 9 L 7.5 10 L 7.5 9 Z " /><path fill="rgb(177,140,142)" stroke="rgb(177,140,142)" stroke-width="1" opacity="1" d="M 12.5 18 L 13 21.5 L 12 21.5 L 12.5 18 Z " /><path fill="rgb(177,140,142)" stroke="rgb(177,140,142)" stroke-width="1" opacity="1" d="M 7.5 22 L 7.5 23 L 7.5 22 Z " /><path fill="rgb(163,113,117)" stroke="rgb(163,113,117)" stroke-width="1" opacity="1" d="M 18.5 5 L 18.5 6 L 18.5 5 Z " /><path fill="rgb(163,113,117)" stroke="rgb(163,113,117)" stroke-width="1" opacity="1" d="M 5.5 6 L 5.5 7 L 5.5 6 Z " /><path fill="rgb(163,113,117)" stroke="rgb(163,113,117)" stroke-width="1" opacity="1" d="M 18.5 9 L 18.5 10 L 18.5 9 Z " /><path fill="rgb(163,113,117)" stroke="rgb(163,113,117)" stroke-width="1" opacity="1" d="M 23.5 9 L 23.5 10 L 23.5 9 Z " /><path fill="rgb(163,113,117)" stroke="rgb(163,113,117)" stroke-width="1" opacity="1" d="M 20.5 16 L 20.5 17 L 20.5 16 Z " /><path fill="rgb(163,113,117)" stroke="rgb(163,113,117)" stroke-width="1" opacity="1" d="M 19.5 19 Q 22 20 20.5 21 Q 18 20 19.5 19 Z " /><path fill="rgb(163,113,117)" stroke="rgb(163,113,117)" stroke-width="1" opacity="1" d="M 12.5 23 L 12.5 24 L 12.5 23 Z " /><path fill="rgb(163,113,117)" stroke="rgb(163,113,117)" stroke-width="1" opacity="1" d="M 17.5 23 L 17.5 24 L 17.5 23 Z " /><path fill="rgb(163,113,117)" stroke="rgb(163,113,117)" stroke-width="1" opacity="1" d="M 5.5 25 L 5.5 26 L 5.5 25 Z " /><path fill="rgb(163,113,117)" stroke="rgb(163,113,117)" stroke-width="1" opacity="1" d="M 14.5 25 L 14.5 26 L 14.5 25 Z " /><path fill="rgb(207,187,188)" stroke="rgb(207,187,188)" stroke-width="1" opacity="1" d="M 7.5 2 L 25 2.5 L 7.5 3 L 7.5 2 Z " /><path fill="rgb(207,187,188)" stroke="rgb(207,187,188)" stroke-width="1" opacity="1" d="M 2.5 5 L 2.5 6 L 2.5 5 Z " /><path fill="rgb(207,187,188)" stroke="rgb(207,187,188)" stroke-width="1" opacity="1" d="M 29.5 5 L 29.5 6 L 29.5 5 Z " /><path fill="rgb(207,187,188)" stroke="rgb(207,187,188)" stroke-width="1" opacity="1" d="M 15.5 7 L 15.5 8 L 15.5 7 Z " /><path fill="rgb(207,187,188)" stroke="rgb(207,187,188)" stroke-width="1" opacity="1" d="M 17.5 8 L 17.5 9 L 17.5 8 Z " /><path fill="rgb(207,187,188)" stroke="rgb(207,187,188)" stroke-width="1" opacity="1" d="M 23.5 8 L 23.5 9 L 23.5 8 Z " /><path fill="rgb(207,187,188)" stroke="rgb(207,187,188)" stroke-width="1" opacity="1" d="M 18.5 11 L 18.5 12 L 18.5 11 Z " /><path fill="rgb(207,187,188)" stroke="rgb(207,187,188)" stroke-width="1" opacity="1" d="M 22.5 15 L 22.5 16 L 22.5 15 Z " /><path fill="rgb(207,187,188)" stroke="rgb(207,187,188)" stroke-width="1" opacity="1" d="M 18.5 25 L 18.5 26 L 18.5 25 Z " /><path fill="rgb(0,0,0)" stroke="rgb(0,0,0)" stroke-width="1" opacity="0" d="M 0 0 L 5 0.5 L 1 2 L 0.5 4 L 0 0 Z " /><path fill="rgb(0,0,0)" stroke="rgb(0,0,0)" stroke-width="1" opacity="0" d="M 27.5 0 L 32 0 L 32 3.5 L 31 3.5 Q 31.75 1.25 29.5 2 L 27 0.5 L 27.5 0 Z " /><path fill="rgb(0,0,0)" stroke="rgb(0,0,0)" stroke-width="1" opacity="0" d="M 0.5 29 L 3 31.5 L 2.5 32 Q -1.85 33.13 0.5 29 Z " /><path fill="rgb(0,0,0)" stroke="rgb(0,0,0)" stroke-width="1" opacity="0" d="M 31.5 29 L 32 32 L 29 31.5 L 31.5 29 Z " /><path fill="rgb(142,50,60)" stroke="rgb(142,50,60)" stroke-width="1" opacity="1" d="M 14.5 6 L 14.5 7 L 14.5 6 Z " /><path fill="rgb(142,50,60)" stroke="rgb(142,50,60)" stroke-width="1" opacity="1" d="M 17.5 22 L 17.5 23 L 17.5 22 Z " /></svg>