<svg width="16" height="16" version="1.1" xmlns="http://www.w3.org/2000/svg" desc="Created with imagetracer.js version 1.2.6" ><path fill="rgb(220,91,98)" stroke="rgb(220,91,98)" stroke-width="1" opacity="0" d="M 1.5 0 L 1.5 1 L 1.5 0 Z " /><path fill="rgb(220,91,98)" stroke="rgb(220,91,98)" stroke-width="1" opacity="0" d="M 14.5 0 L 14.5 1 L 14.5 0 Z " /><path fill="rgb(220,91,98)" stroke="rgb(220,91,98)" stroke-width="1" opacity="0" d="M 14.5 7 L 14.5 8 L 14.5 7 Z " /><path fill="rgb(0,0,0)" stroke="rgb(0,0,0)" stroke-width="1" opacity="0" d="M 0.5 0 L 1 8.5 L 0 8.5 L 0.5 0 Z " /><path fill="rgb(0,0,0)" stroke="rgb(0,0,0)" stroke-width="1" opacity="0" d="M 15.5 0 L 16 8.5 L 15 8.5 L 15.5 0 Z " /><path fill="rgb(0,0,0)" stroke="rgb(0,0,0)" stroke-width="1" opacity="0" d="M 0 13 L 15.5 13 Q 16.38 13.04 16 16 L 0.5 16 Q -0.38 15.96 0 13 Z " /><path fill="rgb(214,63,72)" stroke="rgb(214,63,72)" stroke-width="1" opacity="0.0784313725490196" d="M 9.5 0 L 10 6.5 L 9 6.5 L 9.5 0 Z " /><path fill="rgb(214,63,72)" stroke="rgb(214,63,72)" stroke-width="1" opacity="0.0784313725490196" d="M 2.5 2 L 2.5 3 L 2.5 2 Z " /><path fill="rgb(214,63,72)" stroke="rgb(214,63,72)" stroke-width="1" opacity="0.0784313725490196" d="M 2.5 6 L 2.5 7 L 2.5 6 Z " /><path fill="rgb(209,40,50)" stroke="rgb(209,40,50)" stroke-width="1" opacity="0.7529411764705882" d="M 3.5 1 L 3.5 2 L 3.5 1 Z " /><path fill="rgb(209,40,50)" stroke="rgb(209,40,50)" stroke-width="1" opacity="0.7529411764705882" d="M 12.5 1 L 12.5 2 L 12.5 1 Z " /><path fill="rgb(213,58,67)" stroke="rgb(213,58,67)" stroke-width="1" opacity="0.24313725490196078" d="M 3.5 0 L 3.5 1 L 3.5 0 Z " /><path fill="rgb(213,58,67)" stroke="rgb(213,58,67)" stroke-width="1" opacity="0.24313725490196078" d="M 5.5 0 L 7 0.5 L 7 6.5 L 6 6.5 L 6 1.5 L 5.5 0 Z " /><path fill="rgb(213,58,67)" stroke="rgb(213,58,67)" stroke-width="1" opacity="0.24313725490196078" d="M 10.5 0 L 10.5 1 L 10.5 0 Z " /><path fill="rgb(213,58,67)" stroke="rgb(213,58,67)" stroke-width="1" opacity="0.24313725490196078" d="M 12.5 0 L 12.5 1 L 12.5 0 Z " /><path fill="rgb(207,33,44)" stroke="rgb(207,33,44)" stroke-width="1" opacity="1" d="M 4.5 1 L 5 6.5 L 4 6.5 L 4.5 1 Z " /><path fill="rgb(207,33,44)" stroke="rgb(207,33,44)" stroke-width="1" opacity="1" d="M 11.5 1 L 12 6.5 L 11 6.5 L 11.5 1 Z " /><path fill="rgb(208,35,46)" stroke="rgb(208,35,46)" stroke-width="1" opacity="0.8901960784313725" d="M 8.5 0 L 9 5.5 Q 8 8 7 6.5 L 8 5.5 L 8.5 0 Z " /><path fill="rgb(212,44,54)" stroke="rgb(212,44,54)" stroke-width="1" opacity="0.3568627450980392" d="M 10.5 6 L 10.5 7 L 10.5 6 Z " /><path fill="rgb(210,44,54)" stroke="rgb(210,44,54)" stroke-width="1" opacity="0.3607843137254902" d="M 10.5 1 L 11 5.5 L 10 5.5 L 10.5 1 Z " /><path fill="rgb(208,39,49)" stroke="rgb(208,39,49)" stroke-width="1" opacity="0.807843137254902" d="M 12.5 2 L 13 6.5 L 12 6.5 L 12.5 2 Z " /><path fill="rgb(208,39,49)" stroke="rgb(208,39,49)" stroke-width="1" opacity="0.807843137254902" d="M 8.5 6 L 8.5 7 L 8.5 6 Z " /><path fill="rgb(218,85,94)" stroke="rgb(218,85,94)" stroke-width="1" opacity="0.06274509803921569" d="M 13.5 1 L 14 7.5 L 13 7.5 L 13.5 1 Z " /><path fill="rgb(216,70,79)" stroke="rgb(216,70,79)" stroke-width="1" opacity="0" d="M 1.5 1 L 3 1.5 L 1.5 2 L 1.5 1 Z " /><path fill="rgb(216,70,79)" stroke="rgb(216,70,79)" stroke-width="1" opacity="0" d="M 1.5 7 L 1.5 8 L 1.5 7 Z " /><path fill="rgb(208,37,47)" stroke="rgb(208,37,47)" stroke-width="1" opacity="0.788235294117647" d="M 3.5 2 L 4 5.5 L 3 5.5 L 3.5 2 Z " /><path fill="rgb(211,52,62)" stroke="rgb(211,52,62)" stroke-width="1" opacity="0.38823529411764707" d="M 5.5 1 L 6 6.5 L 5 6.5 L 5.5 1 Z " /><path fill="rgb(207,34,45)" stroke="rgb(207,34,45)" stroke-width="1" opacity="0.9725490196078431" d="M 7.5 0 L 8 5.5 L 7 5.5 L 7.5 0 Z " /><path fill="rgb(219,88,97)" stroke="rgb(219,88,97)" stroke-width="1" opacity="0" d="M 14.5 1 L 15 6.5 L 14 6.5 L 14.5 1 Z " /><path fill="rgb(216,69,78)" stroke="rgb(216,69,78)" stroke-width="1" opacity="0" d="M 1.5 2 Q 3.5 2.5 3 5.5 L 2 6.5 L 2.5 8 Q -0.4 6.6 1.5 2 Z " /><path fill="rgb(208,36,47)" stroke="rgb(208,36,47)" stroke-width="1" opacity="0.788235294117647" d="M 3.5 6 L 3.5 7 L 3.5 6 Z " /><path fill="rgb(210,47,57)" stroke="rgb(210,47,57)" stroke-width="1" opacity="0.6078431372549019" d="M 4.5 0 L 4.5 1 L 4.5 0 Z " /><path fill="rgb(210,47,57)" stroke="rgb(210,47,57)" stroke-width="1" opacity="0.6078431372549019" d="M 11.5 0 L 11.5 1 L 11.5 0 Z " /><path fill="rgb(210,47,57)" stroke="rgb(210,47,57)" stroke-width="1" opacity="0.6078431372549019" d="M 3.5 7 L 3.5 8 L 3.5 7 Z " /><path fill="rgb(210,47,57)" stroke="rgb(210,47,57)" stroke-width="1" opacity="0.6078431372549019" d="M 12.5 7 L 12.5 8 L 12.5 7 Z " /><path fill="rgb(68,72,99)" stroke="rgb(68,72,99)" stroke-width="1" opacity="0.3607843137254902" d="M 6.5 7 L 6.5 8 L 6.5 7 Z " /><path fill="rgb(98,60,84)" stroke="rgb(98,60,84)" stroke-width="1" opacity="0.5647058823529412" d="M 7.5 7 L 7.5 8 L 7.5 7 Z " /><path fill="rgb(94,61,85)" stroke="rgb(94,61,85)" stroke-width="1" opacity="0.5411764705882353" d="M 8.5 7 L 8.5 8 L 8.5 7 Z " /><path fill="rgb(117,66,88)" stroke="rgb(117,66,88)" stroke-width="1" opacity="0.3607843137254902" d="M 5.5 7 L 5.5 8 L 5.5 7 Z " /><path fill="rgb(117,66,88)" stroke="rgb(117,66,88)" stroke-width="1" opacity="0.3607843137254902" d="M 10.5 7 L 10.5 8 L 10.5 7 Z " /><path fill="rgb(189,49,62)" stroke="rgb(189,49,62)" stroke-width="1" opacity="0.6470588235294118" d="M 4.5 7 L 4.5 8 L 4.5 7 Z " /><path fill="rgb(189,49,62)" stroke="rgb(189,49,62)" stroke-width="1" opacity="0.6470588235294118" d="M 11.5 7 L 11.5 8 L 11.5 7 Z " /><path fill="rgb(226,121,128)" stroke="rgb(226,121,128)" stroke-width="1" opacity="0.00392156862745098" d="M 2.5 0 L 2.5 1 L 2.5 0 Z " /><path fill="rgb(226,121,128)" stroke="rgb(226,121,128)" stroke-width="1" opacity="0.00392156862745098" d="M 13.5 0 L 13.5 1 L 13.5 0 Z " /><path fill="rgb(114,105,126)" stroke="rgb(114,105,126)" stroke-width="1" opacity="0.027450980392156862" d="M 1.5 8 Q 3.75 7.25 3 9.5 L 0 9.5 L 1.5 8 Z " /><path fill="rgb(114,105,126)" stroke="rgb(114,105,126)" stroke-width="1" opacity="0.027450980392156862" d="M 13.5 8 L 16 9.5 L 14.5 9 Q 12.12 8.88 13.5 8 Z " /><path fill="rgb(114,105,126)" stroke="rgb(114,105,126)" stroke-width="1" opacity="0.027450980392156862" d="M 2.5 12 L 2.5 13 L 2.5 12 Z " /><path fill="rgb(114,105,126)" stroke="rgb(114,105,126)" stroke-width="1" opacity="0.027450980392156862" d="M 14.5 12 L 14.5 13 L 14.5 12 Z " /><path fill="rgb(0,24,61)" stroke="rgb(0,24,61)" stroke-width="1" opacity="0" d="M 1.5 9 L 1.5 10 L 1.5 9 Z " /><path fill="rgb(0,24,61)" stroke="rgb(0,24,61)" stroke-width="1" opacity="0" d="M 14.5 9 L 14.5 10 L 14.5 9 Z " /><path fill="rgb(32,61,92)" stroke="rgb(32,61,92)" stroke-width="1" opacity="0.8" d="M 3.5 9 L 3.5 10 L 3.5 9 Z " /><path fill="rgb(32,61,92)" stroke="rgb(32,61,92)" stroke-width="1" opacity="0.8" d="M 12.5 9 L 12.5 10 L 12.5 9 Z " /><path fill="rgb(48,75,104)" stroke="rgb(48,75,104)" stroke-width="1" opacity="0.9921568627450981" d="M 7.5 8 L 9 8.5 L 7.5 9 L 7.5 8 Z " /><path fill="rgb(48,75,104)" stroke="rgb(48,75,104)" stroke-width="1" opacity="0.9921568627450981" d="M 5.5 9 Q 8 10 6.5 11 Q 4 10 5.5 9 Z " /><path fill="rgb(48,75,104)" stroke="rgb(48,75,104)" stroke-width="1" opacity="0.9921568627450981" d="M 10.5 9 Q 12 10 9.5 11 Q 8 10 10.5 9 Z " /><path fill="rgb(109,127,148)" stroke="rgb(109,127,148)" stroke-width="1" opacity="1" d="M 4.5 9 L 4.5 10 L 4.5 9 Z " /><path fill="rgb(109,127,148)" stroke="rgb(109,127,148)" stroke-width="1" opacity="1" d="M 7.5 9 L 7.5 10 L 7.5 9 Z " /><path fill="rgb(109,127,148)" stroke="rgb(109,127,148)" stroke-width="1" opacity="1" d="M 11.5 9 L 11.5 10 L 11.5 9 Z " /><path fill="rgb(127,143,161)" stroke="rgb(127,143,161)" stroke-width="1" opacity="1" d="M 8.5 9 L 8.5 10 L 8.5 9 Z " /><path fill="rgb(18,48,82)" stroke="rgb(18,48,82)" stroke-width="1" opacity="0.9686274509803922" d="M 5.5 8 Q 7.75 7.25 7 9.5 L 6.5 10 Q 4 9 5.5 8 Z " /><path fill="rgb(18,48,82)" stroke="rgb(18,48,82)" stroke-width="1" opacity="0.9686274509803922" d="M 9 8 L 11 8.5 Q 10 11 9 9.5 L 9 8 Z " /><path fill="rgb(27,56,88)" stroke="rgb(27,56,88)" stroke-width="1" opacity="0.7215686274509804" d="M 0.5 10 L 0.5 11 L 0.5 10 Z " /><path fill="rgb(27,56,88)" stroke="rgb(27,56,88)" stroke-width="1" opacity="0.7215686274509804" d="M 15.5 10 Q 17 11 14.5 12 L 13 11.5 L 15.5 10 Z " /><path fill="rgb(27,56,88)" stroke="rgb(27,56,88)" stroke-width="1" opacity="0.7215686274509804" d="M 2.5 11 L 2.5 12 L 2.5 11 Z " /><path fill="rgb(54,80,108)" stroke="rgb(54,80,108)" stroke-width="1" opacity="0.807843137254902" d="M 4.5 8 L 4.5 9 L 4.5 8 Z " /><path fill="rgb(54,80,108)" stroke="rgb(54,80,108)" stroke-width="1" opacity="0.807843137254902" d="M 11.5 8 L 11.5 9 L 11.5 8 Z " /><path fill="rgb(54,80,108)" stroke="rgb(54,80,108)" stroke-width="1" opacity="0.807843137254902" d="M 12.5 10 L 12.5 11 L 12.5 10 Z " /><path fill="rgb(54,80,108)" stroke="rgb(54,80,108)" stroke-width="1" opacity="0.807843137254902" d="M 4.5 11 L 4.5 12 L 4.5 11 Z " /><path fill="rgb(54,70,99)" stroke="rgb(54,70,99)" stroke-width="1" opacity="0.403921568627451" d="M 9.5 7 L 9.5 8 L 9.5 7 Z " /><path fill="rgb(54,70,99)" stroke="rgb(54,70,99)" stroke-width="1" opacity="0.403921568627451" d="M 3.5 8 L 3.5 9 L 3.5 8 Z " /><path fill="rgb(54,70,99)" stroke="rgb(54,70,99)" stroke-width="1" opacity="0.403921568627451" d="M 12.5 8 L 12.5 9 L 12.5 8 Z " /><path fill="rgb(54,70,99)" stroke="rgb(54,70,99)" stroke-width="1" opacity="0.403921568627451" d="M 2.5 10 L 2.5 11 L 2.5 10 Z " /><path fill="rgb(54,70,99)" stroke="rgb(54,70,99)" stroke-width="1" opacity="0.403921568627451" d="M 13.5 10 L 13.5 11 L 13.5 10 Z " /><path fill="rgb(31,59,91)" stroke="rgb(31,59,91)" stroke-width="1" opacity="0.5137254901960784" d="M 1.5 10 Q 3 11 0.5 12 Q -1 11 1.5 10 Z " /><path fill="rgb(31,59,91)" stroke="rgb(31,59,91)" stroke-width="1" opacity="0.5137254901960784" d="M 14.5 10 L 14.5 11 L 14.5 10 Z " /><path fill="rgb(26,55,88)" stroke="rgb(26,55,88)" stroke-width="1" opacity="0.6274509803921569" d="M 1.5 11 L 1.5 12 L 1.5 11 Z " /><path fill="rgb(26,55,88)" stroke="rgb(26,55,88)" stroke-width="1" opacity="0.6274509803921569" d="M 15.5 11 L 15.5 12 L 15.5 11 Z " /><path fill="rgb(42,69,99)" stroke="rgb(42,69,99)" stroke-width="1" opacity="0.7725490196078432" d="M 3.5 11 L 3.5 12 L 3.5 11 Z " /><path fill="rgb(42,69,99)" stroke="rgb(42,69,99)" stroke-width="1" opacity="0.7725490196078432" d="M 12.5 11 L 12.5 12 L 12.5 11 Z " /><path fill="rgb(66,89,116)" stroke="rgb(66,89,116)" stroke-width="1" opacity="0.9098039215686274" d="M 5.5 11 L 5.5 12 L 5.5 11 Z " /><path fill="rgb(66,89,116)" stroke="rgb(66,89,116)" stroke-width="1" opacity="0.9098039215686274" d="M 10.5 11 L 12 11.5 L 10.5 12 L 10.5 11 Z " /><path fill="rgb(76,98,123)" stroke="rgb(76,98,123)" stroke-width="1" opacity="0.8980392156862745" d="M 3.5 10 L 3.5 11 L 3.5 10 Z " /><path fill="rgb(76,98,123)" stroke="rgb(76,98,123)" stroke-width="1" opacity="0.8980392156862745" d="M 6.5 11 L 10 11.5 L 6.5 12 L 6.5 11 Z " /><path fill="rgb(72,95,121)" stroke="rgb(72,95,121)" stroke-width="1" opacity="1" d="M 4.5 10 L 6 10.5 L 4.5 11 L 4.5 10 Z " /><path fill="rgb(72,95,121)" stroke="rgb(72,95,121)" stroke-width="1" opacity="1" d="M 7.5 10 L 9 10.5 L 7.5 11 L 7.5 10 Z " /><path fill="rgb(72,95,121)" stroke="rgb(72,95,121)" stroke-width="1" opacity="1" d="M 10.5 10 L 12 10.5 L 10.5 11 L 10.5 10 Z " /><path fill="rgb(29,57,89)" stroke="rgb(29,57,89)" stroke-width="1" opacity="0.12941176470588237" d="M 4.5 12 L 4.5 13 L 4.5 12 Z " /><path fill="rgb(29,57,89)" stroke="rgb(29,57,89)" stroke-width="1" opacity="0.12941176470588237" d="M 6.5 12 L 10 12.5 L 6.5 13 L 6.5 12 Z " /><path fill="rgb(29,57,89)" stroke="rgb(29,57,89)" stroke-width="1" opacity="0.12941176470588237" d="M 11.5 12 L 11.5 13 L 11.5 12 Z " /><path fill="rgb(16,46,80)" stroke="rgb(16,46,80)" stroke-width="1" opacity="0.12156862745098039" d="M 5.5 12 L 5.5 13 L 5.5 12 Z " /><path fill="rgb(16,46,80)" stroke="rgb(16,46,80)" stroke-width="1" opacity="0.12156862745098039" d="M 10.5 12 L 10.5 13 L 10.5 12 Z " /><path fill="rgb(49,75,105)" stroke="rgb(49,75,105)" stroke-width="1" opacity="0.058823529411764705" d="M 13.5 9 L 13.5 10 L 13.5 9 Z " /><path fill="rgb(49,75,105)" stroke="rgb(49,75,105)" stroke-width="1" opacity="0.058823529411764705" d="M 3.5 12 L 3.5 13 L 3.5 12 Z " /><path fill="rgb(49,75,105)" stroke="rgb(49,75,105)" stroke-width="1" opacity="0.058823529411764705" d="M 12.5 12 L 14 12.5 L 12.5 13 L 12.5 12 Z " /><path fill="rgb(142,156,172)" stroke="rgb(142,156,172)" stroke-width="1" opacity="0.00392156862745098" d="M 0.5 12 L 2 12.5 L 0.5 13 L 0.5 12 Z " /><path fill="rgb(255,255,255)" stroke="rgb(255,255,255)" stroke-width="1" opacity="0" d="M 15.5 12 L 15.5 13 L 15.5 12 Z " /></svg>