<svg width="128" height="128" version="1.1" xmlns="http://www.w3.org/2000/svg" desc="Created with imagetracer.js version 1.2.6" ><path fill="rgb(229,0,39)" stroke="rgb(229,0,39)" stroke-width="1" opacity="1" d="M 4.5 4 L 4.5 5 L 4.5 4 Z " /><path fill="rgb(229,0,39)" stroke="rgb(229,0,39)" stroke-width="1" opacity="1" d="M 6.5 4 L 15 4.5 L 6.5 5 L 6.5 4 Z " /><path fill="rgb(229,0,39)" stroke="rgb(229,0,39)" stroke-width="1" opacity="1" d="M 123.5 4 L 123.5 5 L 123.5 4 Z " /><path fill="rgb(229,0,39)" stroke="rgb(229,0,39)" stroke-width="1" opacity="1" d="M 4.5 6 L 5 60.5 L 4 60.5 L 4.5 6 Z " /><path fill="rgb(229,0,39)" stroke="rgb(229,0,39)" stroke-width="1" opacity="1" d="M 8.5 6 L 8.5 7 L 8.5 6 Z " /><path fill="rgb(229,0,39)" stroke="rgb(229,0,39)" stroke-width="1" opacity="1" d="M 10 7 L 120.5 7 L 121 9 L 10.5 9 L 10 7 Z " /><path fill="rgb(229,0,39)" stroke="rgb(229,0,39)" stroke-width="1" opacity="1" d="M 123.5 7 L 124 8.5 L 123 8.5 L 123.5 7 Z " /><path fill="rgb(229,0,39)" stroke="rgb(229,0,39)" stroke-width="1" opacity="1" d="M 6.5 8 L 6.5 9 L 6.5 8 Z " /><path fill="rgb(229,0,39)" stroke="rgb(229,0,39)" stroke-width="1" opacity="1" d="M 123.5 10 L 124 60.5 L 123 60.5 L 123.5 10 Z " /><path fill="rgb(229,0,39)" stroke="rgb(229,0,39)" stroke-width="1" opacity="1" d="M 20.5 51 Q 21.58 53.75 25 53 L 25 57 L 23 57 L 21.5 54 Q 18.37 54.75 20.5 51 Z " /><path fill="rgb(229,0,39)" stroke="rgb(229,0,39)" stroke-width="1" opacity="1" d="M 26.5 51 L 31 51.5 L 27.5 53 Q 25 52 26.5 51 Z " /><path fill="rgb(229,0,39)" stroke="rgb(229,0,39)" stroke-width="1" opacity="1" d="M 104 51 Q 107 50 106 53 Q 103 54 104 51 Z " /><path fill="rgb(229,0,39)" stroke="rgb(229,0,39)" stroke-width="1" opacity="1" d="M 108.5 51 L 111 51 L 111 53 Q 114 52 113 55 Q 110 55.75 109 53.5 L 108.5 51 Z " /><path fill="rgb(229,0,39)" stroke="rgb(229,0,39)" stroke-width="1" opacity="1" d="M 96 52 L 102 52 L 102 54 L 96 54 L 96 52 Z " /><path fill="rgb(229,0,39)" stroke="rgb(229,0,39)" stroke-width="1" opacity="1" d="M 31.5 54 L 92 54.5 L 31.5 55 L 31.5 54 Z " /><path fill="rgb(229,0,39)" stroke="rgb(229,0,39)" stroke-width="1" opacity="1" d="M 104.5 54 Q 106.75 53.25 106 55.5 Q 108.04 58.83 113 58 Q 114.31 61.33 109.5 60 L 108.5 61 L 106 58.5 Q 106.75 56.25 104.5 57 Q 101.5 55.5 104.5 54 Z " /><path fill="rgb(229,0,39)" stroke="rgb(229,0,39)" stroke-width="1" opacity="1" d="M 28.5 55 L 31 56.5 L 27.5 57 Q 26 56 28.5 55 Z " /><path fill="rgb(229,0,39)" stroke="rgb(229,0,39)" stroke-width="1" opacity="1" d="M 21.5 57 L 22 59.5 Q 21 62 20 60.5 Q 19.5 57.5 21.5 57 Z " /><path fill="rgb(229,0,39)" stroke="rgb(229,0,39)" stroke-width="1" opacity="1" d="M 25.5 59 L 28 59.5 Q 24.58 59.58 23.5 62 L 23 60 L 25.5 59 Z " /><path fill="rgb(229,0,39)" stroke="rgb(229,0,39)" stroke-width="1" opacity="1" d="M 92.5 59 L 94 59.5 L 92.5 60 L 92.5 59 Z " /><path fill="rgb(229,0,39)" stroke="rgb(229,0,39)" stroke-width="1" opacity="1" d="M 103 59 Q 106 57.75 105 61.5 Q 104 63 103 60.5 L 103 59 Z " /><path fill="rgb(229,0,39)" stroke="rgb(229,0,39)" stroke-width="1" opacity="1" d="M 4.5 63 L 4.5 64 L 4.5 63 Z " /><path fill="rgb(229,0,39)" stroke="rgb(229,0,39)" stroke-width="1" opacity="1" d="M 6.5 63 L 8 63.5 L 6.5 64 L 6.5 63 Z " /><path fill="rgb(229,0,39)" stroke="rgb(229,0,39)" stroke-width="1" opacity="1" d="M 20.5 63 L 24 63.5 L 20.5 64 L 20.5 63 Z " /><path fill="rgb(229,0,39)" stroke="rgb(229,0,39)" stroke-width="1" opacity="1" d="M 104.5 63 L 108 63.5 L 104.5 64 L 104.5 63 Z " /><path fill="rgb(229,0,39)" stroke="rgb(229,0,39)" stroke-width="1" opacity="1" d="M 113.5 63 L 121 63.5 L 113.5 64 L 113.5 63 Z " /><path fill="rgb(229,0,39)" stroke="rgb(229,0,39)" stroke-width="1" opacity="1" d="M 123.5 63 L 123.5 64 L 123.5 63 Z " /><path fill="rgb(230,0,39)" stroke="rgb(230,0,39)" stroke-width="1" opacity="1" d="M 15.5 4 L 121 4.5 L 15.5 5 L 15.5 4 Z " /><path fill="rgb(230,0,39)" stroke="rgb(230,0,39)" stroke-width="1" opacity="1" d="M 123.5 6 L 123.5 7 L 123.5 6 Z " /><path fill="rgb(230,0,39)" stroke="rgb(230,0,39)" stroke-width="1" opacity="1" d="M 7 7 L 10 7 L 10 8.5 L 9 9.5 L 9 61 L 7 60.5 L 7 7 Z " /><path fill="rgb(230,0,39)" stroke="rgb(230,0,39)" stroke-width="1" opacity="1" d="M 117.5 9 L 120 9.5 L 119 10.5 L 119 57 Q 122.33 55.69 121 60.5 L 120.5 62 L 122 62.5 L 108.5 64 L 107 62.5 Q 109.25 61.25 106.5 60 L 105 60.5 Q 105.75 58.25 103.5 59 L 102.5 60 L 94.5 60 L 94.5 59 L 102.5 59 L 103 57 L 98 56.5 L 102 56 Q 101 52.62 103 51.5 L 26.5 51 L 26.5 53 L 22 53 Q 23 50 20 51 L 20 54 L 21.5 54 L 21.5 55 Q 19.25 54.25 20 56.5 Q 22 57.5 20 58.5 L 20 64 L 8.5 64 Q 7 63 9.5 62 L 16 61.5 L 10 61 L 10 10 L 113 10 L 113 50.5 L 111.5 53 L 111 51 L 108 51.5 L 110.5 55 Q 114.67 53.88 113 58 Q 108.04 58.83 106 55.5 Q 106.75 53.25 104.5 54 Q 101.5 55.5 104.5 57 Q 106.75 56.25 106 58.5 L 108.5 61 L 109.5 60 L 112 60.5 L 110 61.5 L 112.5 63 L 116 61.5 L 114 61 L 114 10.5 Q 113.75 9.75 116.5 10 L 117.5 9 Z M 104 51 Q 103 54 106 53 Q 107 50 104 51 Z " /><path fill="rgb(230,0,39)" stroke="rgb(230,0,39)" stroke-width="1" opacity="1" d="M 123.5 9 L 123.5 10 L 123.5 9 Z " /><path fill="rgb(230,0,39)" stroke="rgb(230,0,39)" stroke-width="1" opacity="1" d="M 29.5 52 L 29.5 53 L 29.5 52 Z " /><path fill="rgb(230,0,39)" stroke="rgb(230,0,39)" stroke-width="1" opacity="1" d="M 31 52 L 95.5 52 L 96 54 L 31.5 54 L 31 52 Z " /><path fill="rgb(230,0,39)" stroke="rgb(230,0,39)" stroke-width="1" opacity="1" d="M 25 55 L 28 55.5 L 25 57 L 25 55 Z " /><path fill="rgb(230,0,39)" stroke="rgb(230,0,39)" stroke-width="1" opacity="1" d="M 29.5 55 L 35.5 55 L 36.5 56 L 97 56.5 L 31.5 57 L 29 55.5 L 29.5 55 Z " /><path fill="rgb(230,0,39)" stroke="rgb(230,0,39)" stroke-width="1" opacity="1" d="M 22.5 59 L 25 59.5 L 22.5 60 L 22.5 59 Z " /><path fill="rgb(230,0,39)" stroke="rgb(230,0,39)" stroke-width="1" opacity="1" d="M 28.5 59 L 92 59.5 L 28.5 60 L 28.5 59 Z " /><path fill="rgb(230,0,39)" stroke="rgb(230,0,39)" stroke-width="1" opacity="1" d="M 4.5 61 L 5 62.5 L 4 62.5 L 4.5 61 Z " /><path fill="rgb(230,0,39)" stroke="rgb(230,0,39)" stroke-width="1" opacity="1" d="M 103.5 61 Q 106 62 104.5 63 Q 102 62 103.5 61 Z " /><path fill="rgb(230,0,39)" stroke="rgb(230,0,39)" stroke-width="1" opacity="1" d="M 123.5 61 L 124 62.5 L 123 62.5 L 123.5 61 Z " /><path fill="rgb(230,0,39)" stroke="rgb(230,0,39)" stroke-width="1" opacity="1" d="M 23.5 62 L 23.5 63 L 23.5 62 Z " /><path fill="rgb(232,0,36)" stroke="rgb(232,0,36)" stroke-width="1" opacity="1" d="M 112.5 5 Q 114 6 111.5 7 L 10 6.5 L 111.5 6 L 112.5 5 Z " /><path fill="rgb(232,0,36)" stroke="rgb(232,0,36)" stroke-width="1" opacity="1" d="M 123.5 5 L 123.5 6 L 123.5 5 Z " /><path fill="rgb(232,0,36)" stroke="rgb(232,0,36)" stroke-width="1" opacity="1" d="M 10.5 9 L 117 9.5 L 10.5 10 L 10.5 9 Z " /><path fill="rgb(232,0,36)" stroke="rgb(232,0,36)" stroke-width="1" opacity="1" d="M 120.5 9 L 120.5 10 L 120.5 9 Z " /><path fill="rgb(232,0,36)" stroke="rgb(232,0,36)" stroke-width="1" opacity="1" d="M 6.5 10 L 7 59.5 L 6 59.5 L 6.5 10 Z " /><path fill="rgb(232,0,36)" stroke="rgb(232,0,36)" stroke-width="1" opacity="1" d="M 31.5 51 L 92 51.5 L 31.5 52 L 30.5 53 Q 29 52 31.5 51 Z " /><path fill="rgb(232,0,36)" stroke="rgb(232,0,36)" stroke-width="1" opacity="1" d="M 102.5 51 L 102.5 52 L 102.5 51 Z " /><path fill="rgb(232,0,36)" stroke="rgb(232,0,36)" stroke-width="1" opacity="1" d="M 112.5 51 L 113 52.5 L 112 52.5 L 112.5 51 Z " /><path fill="rgb(232,0,36)" stroke="rgb(232,0,36)" stroke-width="1" opacity="1" d="M 25 53 Q 28 52 27 55 Q 24 56 25 53 Z " /><path fill="rgb(232,0,36)" stroke="rgb(232,0,36)" stroke-width="1" opacity="1" d="M 30.5 54 L 30.5 55 L 30.5 54 Z " /><path fill="rgb(232,0,36)" stroke="rgb(232,0,36)" stroke-width="1" opacity="1" d="M 20 55 Q 23 54 22 57 Q 19 58 20 55 Z " /><path fill="rgb(232,0,36)" stroke="rgb(232,0,36)" stroke-width="1" opacity="1" d="M 96.5 55 L 101 55.5 Q 97.58 55.58 96.5 58 L 96.5 55 Z " /><path fill="rgb(232,0,36)" stroke="rgb(232,0,36)" stroke-width="1" opacity="1" d="M 24.5 57 L 26 57.5 Q 25.5 59.5 22.5 59 L 22.5 58 L 24.5 57 Z " /><path fill="rgb(232,0,36)" stroke="rgb(232,0,36)" stroke-width="1" opacity="1" d="M 22.5 60 L 23 63 L 20 63 L 20 61.5 L 22 61.5 L 22.5 60 Z " /><path fill="rgb(232,0,36)" stroke="rgb(232,0,36)" stroke-width="1" opacity="1" d="M 112.5 60 L 116 61.5 L 111.5 63 Q 109 62 110.5 61 L 112.5 60 Z " /><path fill="rgb(232,0,36)" stroke="rgb(232,0,36)" stroke-width="1" opacity="1" d="M 6.5 61 L 16 61.5 L 5.5 63 Q 4 62 6.5 61 Z " /><path fill="rgb(232,0,36)" stroke="rgb(232,0,36)" stroke-width="1" opacity="1" d="M 105 61 L 108 61.5 L 105 63 L 105 61 Z " /><path fill="rgb(232,0,36)" stroke="rgb(232,0,36)" stroke-width="1" opacity="1" d="M 120.5 61 L 123 62.5 L 121.5 62 Q 119.12 61.87 120.5 61 Z " /><path fill="rgb(253,248,250)" stroke="rgb(253,248,250)" stroke-width="1" opacity="1" d="M 3.5 2 Q 5 3 2.5 4 Q 1 3 3.5 2 Z " /><path fill="rgb(253,248,250)" stroke="rgb(253,248,250)" stroke-width="1" opacity="1" d="M 124.5 2 Q 127 3 125.5 4 Q 123 3 124.5 2 Z " /><path fill="rgb(253,248,250)" stroke="rgb(253,248,250)" stroke-width="1" opacity="1" d="M 126.5 9 L 126.5 10 L 126.5 9 Z " /><path fill="rgb(253,248,250)" stroke="rgb(253,248,250)" stroke-width="1" opacity="1" d="M 26.5 61 L 101.5 61 L 103 62.5 L 102.5 66 L 102 62 L 26.5 62 L 26.5 61 Z " /><path fill="rgb(253,248,250)" stroke="rgb(253,248,250)" stroke-width="1" opacity="1" d="M 27.5 66 L 29 66.5 L 27.5 67 L 27.5 66 Z " /><path fill="rgb(253,248,250)" stroke="rgb(253,248,250)" stroke-width="1" opacity="1" d="M 30.5 66 L 92 66.5 L 30.5 67 L 30.5 66 Z " /><path fill="rgb(253,248,250)" stroke="rgb(253,248,250)" stroke-width="1" opacity="1" d="M 95.5 66 L 101 66.5 L 95.5 67 L 95.5 66 Z " /><path fill="rgb(253,248,250)" stroke="rgb(253,248,250)" stroke-width="1" opacity="1" d="M 2.5 124 Q 5 125 3.5 126 Q 1 125 2.5 124 Z " /><path fill="rgb(253,248,250)" stroke="rgb(253,248,250)" stroke-width="1" opacity="1" d="M 125.5 124 Q 127 125 124.5 126 Q 123 125 125.5 124 Z " /><path fill="rgb(229,0,37)" stroke="rgb(229,0,37)" stroke-width="1" opacity="1" d="M 7.5 6 Q 9 7 6.5 8 Q 5 7 7.5 6 Z " /><path fill="rgb(229,0,37)" stroke="rgb(229,0,37)" stroke-width="1" opacity="1" d="M 113.5 6 L 113.5 7 L 113.5 6 Z " /><path fill="rgb(229,0,37)" stroke="rgb(229,0,37)" stroke-width="1" opacity="1" d="M 118.5 6 L 118.5 7 L 118.5 6 Z " /><path fill="rgb(229,0,37)" stroke="rgb(229,0,37)" stroke-width="1" opacity="1" d="M 121.5 8 L 121.5 9 L 121.5 8 Z " /><path fill="rgb(229,0,37)" stroke="rgb(229,0,37)" stroke-width="1" opacity="1" d="M 21.5 51 L 21.5 52 L 21.5 51 Z " /><path fill="rgb(229,0,37)" stroke="rgb(229,0,37)" stroke-width="1" opacity="1" d="M 92 54 L 97 54.5 Q 95.23 56.56 92 56 L 92 54 Z " /><path fill="rgb(229,0,37)" stroke="rgb(229,0,37)" stroke-width="1" opacity="1" d="M 101.5 54 L 101.5 55 L 101.5 54 Z " /><path fill="rgb(229,0,37)" stroke="rgb(229,0,37)" stroke-width="1" opacity="1" d="M 22.5 55 L 23 57.5 L 22 57.5 L 22.5 55 Z " /><path fill="rgb(229,0,37)" stroke="rgb(229,0,37)" stroke-width="1" opacity="1" d="M 9.5 60 L 9.5 61 L 9.5 60 Z " /><path fill="rgb(229,0,37)" stroke="rgb(229,0,37)" stroke-width="1" opacity="1" d="M 121.5 60 L 121.5 61 L 121.5 60 Z " /><path fill="rgb(229,0,37)" stroke="rgb(229,0,37)" stroke-width="1" opacity="1" d="M 5.5 63 L 5.5 64 L 5.5 63 Z " /><path fill="rgb(254,254,254)" stroke="rgb(254,254,254)" stroke-width="1" opacity="1" d="M 0 0 L 3 0.5 L 1 1 L 0.5 3 L 0 0 Z " /><path fill="rgb(254,254,254)" stroke="rgb(254,254,254)" stroke-width="1" opacity="1" d="M 4 0 L 8 0 L 8 2 L 4 2 L 4 0 Z " /><path fill="rgb(254,254,254)" stroke="rgb(254,254,254)" stroke-width="1" opacity="1" d="M 9.5 0 L 9.5 1 L 9.5 0 Z " /><path fill="rgb(254,254,254)" stroke="rgb(254,254,254)" stroke-width="1" opacity="1" d="M 117.5 0 L 118 2 L 114 1.5 L 117.5 0 Z " /><path fill="rgb(254,254,254)" stroke="rgb(254,254,254)" stroke-width="1" opacity="1" d="M 127.5 0 L 128 3.5 L 127 3.5 L 127.5 0 Z " /><path fill="rgb(254,254,254)" stroke="rgb(254,254,254)" stroke-width="1" opacity="1" d="M 121.5 1 L 123 1.5 L 121.5 2 L 121.5 1 Z " /><path fill="rgb(254,254,254)" stroke="rgb(254,254,254)" stroke-width="1" opacity="1" d="M 2.5 2 L 2.5 3 L 2.5 2 Z " /><path fill="rgb(254,254,254)" stroke="rgb(254,254,254)" stroke-width="1" opacity="1" d="M 125.5 2 L 125.5 3 L 125.5 2 Z " /><path fill="rgb(254,254,254)" stroke="rgb(254,254,254)" stroke-width="1" opacity="1" d="M 0 4 L 2 4 L 2 8 L 0 8 L 0 4 Z " /><path fill="rgb(254,254,254)" stroke="rgb(254,254,254)" stroke-width="1" opacity="1" d="M 126.5 6 L 127 7.5 L 126 7.5 L 126.5 6 Z " /><path fill="rgb(254,254,254)" stroke="rgb(254,254,254)" stroke-width="1" opacity="1" d="M 0.5 9 L 2 9.5 L 2 62.5 L 1 62.5 L 1 10.5 L 0.5 9 Z " /><path fill="rgb(254,254,254)" stroke="rgb(254,254,254)" stroke-width="1" opacity="1" d="M 126.5 10 L 127 14.5 L 126 14.5 L 126.5 10 Z " /><path fill="rgb(254,254,254)" stroke="rgb(254,254,254)" stroke-width="1" opacity="1" d="M 126.5 21 L 127 57.5 L 128 58.5 L 127 59.5 L 126.5 64 L 126.5 21 Z " /><path fill="rgb(254,254,254)" stroke="rgb(254,254,254)" stroke-width="1" opacity="1" d="M 26.5 62 L 31 65.5 Q 29.5 68.5 28 65.5 Q 28.67 62.88 26 64 L 26.5 62 Z " /><path fill="rgb(254,254,254)" stroke="rgb(254,254,254)" stroke-width="1" opacity="1" d="M 99.5 62 Q 102.13 61.33 101 64 L 98 63.5 L 99.5 62 Z " /><path fill="rgb(254,254,254)" stroke="rgb(254,254,254)" stroke-width="1" opacity="1" d="M 1.5 64 L 2 66.5 Q 1 68 0 65.5 L 1.5 64 Z " /><path fill="rgb(254,254,254)" stroke="rgb(254,254,254)" stroke-width="1" opacity="1" d="M 127.5 65 L 128 66.5 L 127 66.5 L 127.5 65 Z " /><path fill="rgb(254,254,254)" stroke="rgb(254,254,254)" stroke-width="1" opacity="1" d="M 92.5 66 L 95 66.5 L 92.5 67 L 92.5 66 Z " /><path fill="rgb(254,254,254)" stroke="rgb(254,254,254)" stroke-width="1" opacity="1" d="M 101.5 66 L 101.5 67 L 101.5 66 Z " /><path fill="rgb(254,254,254)" stroke="rgb(254,254,254)" stroke-width="1" opacity="1" d="M 126.5 69 L 127 71.5 L 126 71.5 L 126.5 69 Z " /><path fill="rgb(254,254,254)" stroke="rgb(254,254,254)" stroke-width="1" opacity="1" d="M 1.5 113 L 2 117.5 L 1 117.5 L 1.5 113 Z " /><path fill="rgb(254,254,254)" stroke="rgb(254,254,254)" stroke-width="1" opacity="1" d="M 126.5 117 L 126.5 118 L 126.5 117 Z " /><path fill="rgb(254,254,254)" stroke="rgb(254,254,254)" stroke-width="1" opacity="1" d="M 126.5 123 L 127 124.5 Q 125.25 125.42 126 128 Q 123.33 129.12 124 126.5 L 126.5 123 Z " /><path fill="rgb(254,254,254)" stroke="rgb(254,254,254)" stroke-width="1" opacity="1" d="M 0 125 Q 3 124.25 4 126.5 Q 3 129 2 127.5 L 2.5 126 L 0.5 127 L 0 125 Z " /><path fill="rgb(254,254,254)" stroke="rgb(254,254,254)" stroke-width="1" opacity="1" d="M 10.5 126 L 91.5 126 L 93 127.5 L 91.5 127 L 10.5 127 L 10.5 126 Z " /><path fill="rgb(254,254,254)" stroke="rgb(254,254,254)" stroke-width="1" opacity="1" d="M 105.5 126 L 107 126.5 L 105.5 127 L 105.5 126 Z " /><path fill="rgb(254,254,254)" stroke="rgb(254,254,254)" stroke-width="1" opacity="1" d="M 108.5 126 L 113 126.5 L 108.5 127 L 108.5 126 Z " /><path fill="rgb(254,254,254)" stroke="rgb(254,254,254)" stroke-width="1" opacity="1" d="M 127.5 126 L 127.5 127 L 127.5 126 Z " /><path fill="rgb(254,254,254)" stroke="rgb(254,254,254)" stroke-width="1" opacity="1" d="M 117.5 127 L 117.5 128 L 117.5 127 Z " /><path fill="rgb(230,0,37)" stroke="rgb(230,0,37)" stroke-width="1" opacity="1" d="M 121.5 4 L 121.5 5 L 121.5 4 Z " /><path fill="rgb(230,0,37)" stroke="rgb(230,0,37)" stroke-width="1" opacity="1" d="M 113.5 5 Q 115 6 112.5 7 Q 111 6 113.5 5 Z " /><path fill="rgb(230,0,37)" stroke="rgb(230,0,37)" stroke-width="1" opacity="1" d="M 113.5 10 L 114 60.5 L 113 60.5 L 113.5 10 Z " /><path fill="rgb(230,0,37)" stroke="rgb(230,0,37)" stroke-width="1" opacity="1" d="M 119 10 Q 121.96 9.63 122 10.5 L 122 59.5 L 121 59.5 L 121 57 L 119 56.5 L 119 10 Z " /><path fill="rgb(230,0,37)" stroke="rgb(230,0,37)" stroke-width="1" opacity="1" d="M 92.5 51 L 102 51.5 L 92.5 52 L 92.5 51 Z " /><path fill="rgb(230,0,37)" stroke="rgb(230,0,37)" stroke-width="1" opacity="1" d="M 27.5 53 L 27.5 54 L 27.5 53 Z " /><path fill="rgb(230,0,37)" stroke="rgb(230,0,37)" stroke-width="1" opacity="1" d="M 97.5 54 Q 101.25 53.25 102 55.5 L 100.5 55 Q 96.5 55.75 97.5 54 Z " /><path fill="rgb(230,0,37)" stroke="rgb(230,0,37)" stroke-width="1" opacity="1" d="M 36.5 55 L 92 55.5 L 36.5 56 L 36.5 55 Z " /><path fill="rgb(230,0,37)" stroke="rgb(230,0,37)" stroke-width="1" opacity="1" d="M 95.5 55 L 95.5 56 L 95.5 55 Z " /><path fill="rgb(230,0,37)" stroke="rgb(230,0,37)" stroke-width="1" opacity="1" d="M 23.5 57 L 23.5 58 L 23.5 57 Z " /><path fill="rgb(230,0,37)" stroke="rgb(230,0,37)" stroke-width="1" opacity="1" d="M 95.5 57 L 95.5 58 L 95.5 57 Z " /><path fill="rgb(230,0,37)" stroke="rgb(230,0,37)" stroke-width="1" opacity="1" d="M 102.5 57 L 102.5 58 L 102.5 57 Z " /><path fill="rgb(230,0,37)" stroke="rgb(230,0,37)" stroke-width="1" opacity="1" d="M 6.5 60 L 6.5 61 L 6.5 60 Z " /><path fill="rgb(230,0,37)" stroke="rgb(230,0,37)" stroke-width="1" opacity="1" d="M 106.5 60 L 106.5 61 L 106.5 60 Z " /><path fill="rgb(255,255,255)" stroke="rgb(255,255,255)" stroke-width="1" opacity="1" d="M 3.5 0 L 4 2 L 2 2 Q 3.13 4.67 0.5 4 L 1 2.5 Q 0.25 0.25 2.5 1 L 3.5 0 Z " /><path fill="rgb(255,255,255)" stroke="rgb(255,255,255)" stroke-width="1" opacity="1" d="M 8.5 0 Q 9.5 2 10.5 0 L 117 0.5 L 113.5 2 L 8 2 L 8.5 0 Z " /><path fill="rgb(255,255,255)" stroke="rgb(255,255,255)" stroke-width="1" opacity="1" d="M 118 0 L 127 0 L 127 3.5 L 128 4.5 L 128 57.5 L 127 57.5 L 127 21.5 Q 124.75 20.25 126 15.5 Q 128.25 14.25 127 9.5 Q 125 8.5 127 7.5 L 126 2 L 121.5 1 Q 120.58 2.75 118 2 L 118 0 Z " /><path fill="rgb(255,255,255)" stroke="rgb(255,255,255)" stroke-width="1" opacity="1" d="M 0.5 8 L 2 8.5 L 0.5 9 L 0.5 8 Z " /><path fill="rgb(255,255,255)" stroke="rgb(255,255,255)" stroke-width="1" opacity="1" d="M 0.5 10 L 1 62.5 L 2 63.5 Q 1 66 0 64.5 L 0.5 10 Z " /><path fill="rgb(255,255,255)" stroke="rgb(255,255,255)" stroke-width="1" opacity="1" d="M 127.5 59 L 128 64.5 L 127 66.5 L 128 67.5 L 128 125.5 L 127 126.5 L 127.5 128 Q 124.88 128.83 126 125.5 L 127 123.5 Q 125 122.5 126 118.5 Q 128 117.5 126 116.5 L 126 72.5 L 127 69.5 Q 125 68.5 126 64.5 L 127 63.5 L 127.5 59 Z " /><path fill="rgb(255,255,255)" stroke="rgb(255,255,255)" stroke-width="1" opacity="1" d="M 27.5 62 L 99 62.5 L 98.5 64 Q 101.83 65.13 101 62.5 L 102 62.5 Q 102.38 66.13 101.5 66 L 31.5 66 Q 30.5 63.5 28 64 L 26.5 67 L 26 64 L 28 63.5 L 27.5 62 Z " /><path fill="rgb(255,255,255)" stroke="rgb(255,255,255)" stroke-width="1" opacity="1" d="M 0.5 66 L 2 67.5 L 2 112.5 Q 0 113.5 1 117.5 L 2 118.5 L 2 125 L 0 124.5 L 0.5 66 Z " /><path fill="rgb(255,255,255)" stroke="rgb(255,255,255)" stroke-width="1" opacity="1" d="M 1.5 126 L 3.5 127 Q 4.75 124.75 9.5 126 L 10.5 127 L 91.5 127 L 92.5 126 L 104.5 126 L 106.5 127 Q 107.5 125 108.5 127 Q 112.5 128 113.5 126 L 124 126 L 124 128 L 118.5 128 Q 117.5 126 116.5 128 L 93.5 128 L 92.5 127 L 91.5 128 L 3.5 128 Q 2.5 126 1.5 128 L 0 127.5 L 1.5 126 Z " /><path fill="rgb(241,225,228)" stroke="rgb(241,225,228)" stroke-width="1" opacity="1" d="M 4.5 2 L 123.5 2 L 126 4.5 L 126 123.5 L 123.5 126 L 4.5 126 L 2 123.5 L 2 4.5 L 4.5 2 Z M 5 3 L 3 5 L 3 124 L 5 125 L 124 125 L 125 124 L 125 5 L 124 3 L 5 3 Z " /><path fill="rgb(241,225,228)" stroke="rgb(241,225,228)" stroke-width="1" opacity="1" d="M 25 60 L 102.5 60 L 103 61.5 L 101.5 61 L 26.5 61 Q 25.38 61.12 26 66.5 L 26.5 68 L 25 66.5 L 25 60 Z " /><path fill="rgb(241,225,228)" stroke="rgb(241,225,228)" stroke-width="1" opacity="1" d="M 102.5 66 Q 104 67 101.5 68 Q 100 67 102.5 66 Z " /><path fill="rgb(168,132,137)" stroke="rgb(168,132,137)" stroke-width="1" opacity="1" d="M 4.5 3 L 123.5 3 L 125 4.5 L 125 123.5 L 123.5 125 L 4.5 125 L 3 123.5 L 3 4.5 L 4.5 3 Z M 4 4 L 4 124 L 124 124 L 124 4 L 4 4 Z " /><path fill="rgb(168,132,137)" stroke="rgb(168,132,137)" stroke-width="1" opacity="1" d="M 24.5 61 L 25 64.5 L 24 64.5 L 24.5 61 Z " /><path fill="rgb(168,132,137)" stroke="rgb(168,132,137)" stroke-width="1" opacity="1" d="M 103.5 62 L 104 64.5 L 103 64.5 L 103.5 62 Z " /><path fill="rgb(168,132,137)" stroke="rgb(168,132,137)" stroke-width="1" opacity="1" d="M 24.5 66 Q 27 67 25.5 68 Q 23 67 24.5 66 Z " /><path fill="rgb(168,132,137)" stroke="rgb(168,132,137)" stroke-width="1" opacity="1" d="M 27.5 67 L 101 67.5 L 27.5 68 L 27.5 67 Z " /><path fill="rgb(168,132,137)" stroke="rgb(168,132,137)" stroke-width="1" opacity="1" d="M 102.5 67 L 102.5 68 L 102.5 67 Z " /><path fill="rgb(226,0,29)" stroke="rgb(226,0,29)" stroke-width="1" opacity="1" d="M 5.5 4 Q 7 5 4.5 6 Q 3 5 5.5 4 Z " /><path fill="rgb(226,0,29)" stroke="rgb(226,0,29)" stroke-width="1" opacity="1" d="M 122.5 4 L 123 8.5 L 122 8.5 L 121 5.5 L 122.5 4 Z " /><path fill="rgb(226,0,29)" stroke="rgb(226,0,29)" stroke-width="1" opacity="1" d="M 7.5 5 L 10 5.5 L 7.5 6 L 7.5 5 Z " /><path fill="rgb(226,0,29)" stroke="rgb(226,0,29)" stroke-width="1" opacity="1" d="M 5.5 7 L 6 60.5 L 5 60.5 L 5.5 7 Z " /><path fill="rgb(226,0,29)" stroke="rgb(226,0,29)" stroke-width="1" opacity="1" d="M 27 57 Q 30.37 56 31.5 58 L 100.5 58 Q 101.75 55.75 103 58.5 L 31.5 59 L 28.5 58 L 27 58.5 L 27 57 Z " /><path fill="rgb(226,0,29)" stroke="rgb(226,0,29)" stroke-width="1" opacity="1" d="M 122.5 60 L 122.5 61 L 122.5 60 Z " /><path fill="rgb(226,0,29)" stroke="rgb(226,0,29)" stroke-width="1" opacity="1" d="M 121.5 63 L 123 63.5 L 121.5 64 L 121.5 63 Z " /><path fill="rgb(228,0,35)" stroke="rgb(228,0,35)" stroke-width="1" opacity="1" d="M 121.5 7 L 121.5 8 L 121.5 7 Z " /><path fill="rgb(228,0,35)" stroke="rgb(228,0,35)" stroke-width="1" opacity="1" d="M 9.5 9 L 10 59.5 L 9 59.5 L 9.5 9 Z " /><path fill="rgb(228,0,35)" stroke="rgb(228,0,35)" stroke-width="1" opacity="1" d="M 122.5 10 L 123 59.5 L 122 59.5 L 122.5 10 Z " /><path fill="rgb(228,0,35)" stroke="rgb(228,0,35)" stroke-width="1" opacity="1" d="M 27.5 54 L 29 54.5 L 27.5 55 L 27.5 54 Z " /><path fill="rgb(228,0,35)" stroke="rgb(228,0,35)" stroke-width="1" opacity="1" d="M 92.5 57 L 92.5 58 L 92.5 57 Z " /><path fill="rgb(228,0,35)" stroke="rgb(228,0,35)" stroke-width="1" opacity="1" d="M 100.5 57 L 100.5 58 L 100.5 57 Z " /><path fill="rgb(228,0,35)" stroke="rgb(228,0,35)" stroke-width="1" opacity="1" d="M 21.5 60 L 21.5 61 L 21.5 60 Z " /><path fill="rgb(229,1,35)" stroke="rgb(229,1,35)" stroke-width="1" opacity="1" d="M 9.5 6 L 9.5 7 L 9.5 6 Z " /><path fill="rgb(229,1,35)" stroke="rgb(229,1,35)" stroke-width="1" opacity="1" d="M 114.5 6 L 118 6.5 L 114.5 7 L 114.5 6 Z " /><path fill="rgb(229,1,35)" stroke="rgb(229,1,35)" stroke-width="1" opacity="1" d="M 119.5 6 L 121 6.5 L 119.5 7 L 119.5 6 Z " /><path fill="rgb(229,1,35)" stroke="rgb(229,1,35)" stroke-width="1" opacity="1" d="M 6.5 9 L 6.5 10 L 6.5 9 Z " /><path fill="rgb(229,1,35)" stroke="rgb(229,1,35)" stroke-width="1" opacity="1" d="M 29.5 54 L 29.5 55 L 29.5 54 Z " /><path fill="rgb(229,1,35)" stroke="rgb(229,1,35)" stroke-width="1" opacity="1" d="M 31.5 57 L 92 57.5 L 31.5 58 L 31.5 57 Z " /><path fill="rgb(229,1,35)" stroke="rgb(229,1,35)" stroke-width="1" opacity="1" d="M 93.5 57 L 95 57.5 L 93.5 58 L 93.5 57 Z " /><path fill="rgb(229,1,35)" stroke="rgb(229,1,35)" stroke-width="1" opacity="1" d="M 97.5 57 L 100 57.5 L 97.5 58 L 97.5 57 Z " /><path fill="rgb(232,0,30)" stroke="rgb(232,0,30)" stroke-width="1" opacity="1" d="M 5 5 Q 8 4 7 7 Q 4 8 5 5 Z " /><path fill="rgb(232,0,30)" stroke="rgb(232,0,30)" stroke-width="1" opacity="1" d="M 10.5 5 L 112 5.5 L 10.5 6 L 10.5 5 Z " /><path fill="rgb(232,0,30)" stroke="rgb(232,0,30)" stroke-width="1" opacity="1" d="M 114.5 5 L 121 5.5 L 114.5 6 L 114.5 5 Z " /><path fill="rgb(232,0,30)" stroke="rgb(232,0,30)" stroke-width="1" opacity="1" d="M 121.5 9 L 123 9.5 L 121.5 10 L 121.5 9 Z " /><path fill="rgb(232,0,30)" stroke="rgb(232,0,30)" stroke-width="1" opacity="1" d="M 28.5 53 L 31 53.5 L 28.5 54 L 28.5 53 Z " /><path fill="rgb(232,0,30)" stroke="rgb(232,0,30)" stroke-width="1" opacity="1" d="M 26.5 57 L 27 59 L 25 58.5 L 26.5 57 Z " /><path fill="rgb(232,0,30)" stroke="rgb(232,0,30)" stroke-width="1" opacity="1" d="M 28.5 58 L 31 58.5 L 28.5 59 L 28.5 58 Z " /><path fill="rgb(232,0,30)" stroke="rgb(232,0,30)" stroke-width="1" opacity="1" d="M 5.5 61 L 5.5 62 L 5.5 61 Z " /><path fill="rgb(232,0,30)" stroke="rgb(232,0,30)" stroke-width="1" opacity="1" d="M 21.5 61 L 21.5 62 L 21.5 61 Z " /><path fill="rgb(232,0,30)" stroke="rgb(232,0,30)" stroke-width="1" opacity="1" d="M 122.5 61 L 122.5 62 L 122.5 61 Z " /><path fill="rgb(13,12,12)" stroke="rgb(13,12,12)" stroke-width="1" opacity="1" d="M 23.5 64 L 25 65.5 Q 22.75 66.75 25.5 68 L 102.5 68 Q 103.25 68.25 103 65.5 Q 104 63 105 64.5 Q 105.75 68.25 103.5 69 L 25.5 69 L 23 68 L 23.5 64 Z " /><path fill="rgb(13,12,12)" stroke="rgb(13,12,12)" stroke-width="1" opacity="1" d="M 118.5 64 L 118.5 65 L 118.5 64 Z " /><path fill="rgb(13,12,12)" stroke="rgb(13,12,12)" stroke-width="1" opacity="1" d="M 123.5 65 L 124 124 L 4 123.5 L 123 123 L 123.5 65 Z " /><path fill="rgb(13,12,12)" stroke="rgb(13,12,12)" stroke-width="1" opacity="1" d="M 4.5 66 L 5 121.5 L 4 121.5 L 4.5 66 Z " /><path fill="rgb(1,2,0)" stroke="rgb(1,2,0)" stroke-width="1" opacity="1" d="M 105.5 64 L 106 67.5 L 107.5 69 Q 110.13 68.33 109 71 L 106 71 L 106 69.5 Q 105 68 104 70.5 Q 104.75 72.75 102.5 72 Q 100 71 101.5 70 L 105 67.5 L 105.5 64 Z " /><path fill="rgb(1,2,0)" stroke="rgb(1,2,0)" stroke-width="1" opacity="1" d="M 122.5 64 L 123 67.5 L 121.5 67 L 120.5 68 Q 118.25 68.75 119 66.5 L 117.5 67 L 116 66.5 L 122.5 64 Z " /><path fill="rgb(1,2,0)" stroke="rgb(1,2,0)" stroke-width="1" opacity="1" d="M 5 65 L 7 65.5 Q 6 68 5 66.5 L 5 65 Z " /><path fill="rgb(1,2,0)" stroke="rgb(1,2,0)" stroke-width="1" opacity="1" d="M 9.5 65 L 9.5 66 L 9.5 65 Z " /><path fill="rgb(1,2,0)" stroke="rgb(1,2,0)" stroke-width="1" opacity="1" d="M 21.5 65 L 24.5 69 L 26 69.5 L 23.5 71 L 21.5 66 L 20 66.5 L 21.5 65 Z " /><path fill="rgb(1,2,0)" stroke="rgb(1,2,0)" stroke-width="1" opacity="1" d="M 113.5 66 L 115 66.5 L 113.5 67 L 113.5 66 Z " /><path fill="rgb(1,2,0)" stroke="rgb(1,2,0)" stroke-width="1" opacity="1" d="M 8.5 68 L 9 70 L 5.5 71 Q 4 70 6.5 69 L 8.5 68 Z " /><path fill="rgb(1,2,0)" stroke="rgb(1,2,0)" stroke-width="1" opacity="1" d="M 20 69 Q 23 67.75 22 71.5 Q 21 73 20 70.5 L 20 69 Z " /><path fill="rgb(1,2,0)" stroke="rgb(1,2,0)" stroke-width="1" opacity="1" d="M 27.5 69 L 28 72 L 26 71.5 L 27.5 69 Z " /><path fill="rgb(1,2,0)" stroke="rgb(1,2,0)" stroke-width="1" opacity="1" d="M 110 69 L 123 69.5 L 119.5 71 L 118.5 70 L 112.5 70 L 110.5 72 L 110 71.5 L 110 69 Z " /><path fill="rgb(1,2,0)" stroke="rgb(1,2,0)" stroke-width="1" opacity="1" d="M 30.5 70 L 31 72 L 29 71.5 L 30.5 70 Z " /><path fill="rgb(1,2,0)" stroke="rgb(1,2,0)" stroke-width="1" opacity="1" d="M 99.5 71 L 99.5 72 L 99.5 71 Z " /><path fill="rgb(1,2,0)" stroke="rgb(1,2,0)" stroke-width="1" opacity="1" d="M 119.5 119 Q 122.83 117.88 122 120.5 L 120.5 120 Q 118.12 119.87 119.5 119 Z " /><path fill="rgb(1,0,1)" stroke="rgb(1,0,1)" stroke-width="1" opacity="1" d="M 10 65 L 19.5 65 L 20 66.5 L 22 66.5 L 23 69.5 L 22.5 70 L 20.5 68 L 10 68.5 L 20 69.5 L 10.5 70 L 8 66.5 L 9 66.5 L 9.5 68 L 10 65 Z " /><path fill="rgb(1,0,1)" stroke="rgb(1,0,1)" stroke-width="1" opacity="1" d="M 106.5 65 L 107 67 L 112 68.5 L 110 69 L 109.5 72 L 109 68 Q 104.25 69.5 106.5 65 Z " /><path fill="rgb(1,0,1)" stroke="rgb(1,0,1)" stroke-width="1" opacity="1" d="M 115.5 66 L 119 67.5 L 113.5 68 L 113.5 67 L 115.5 66 Z " /><path fill="rgb(1,0,1)" stroke="rgb(1,0,1)" stroke-width="1" opacity="1" d="M 5 68 L 7 68.5 Q 6 71 5 69.5 L 5 68 Z " /><path fill="rgb(1,0,1)" stroke="rgb(1,0,1)" stroke-width="1" opacity="1" d="M 28.5 69 L 28.5 70 L 28.5 69 Z " /><path fill="rgb(1,0,1)" stroke="rgb(1,0,1)" stroke-width="1" opacity="1" d="M 105.5 69 L 105.5 70 L 105.5 69 Z " /><path fill="rgb(1,0,1)" stroke="rgb(1,0,1)" stroke-width="1" opacity="1" d="M 7.5 71 L 7.5 72 L 7.5 71 Z " /><path fill="rgb(1,0,1)" stroke="rgb(1,0,1)" stroke-width="1" opacity="1" d="M 24.5 71 L 24.5 72 L 24.5 71 Z " /><path fill="rgb(1,0,1)" stroke="rgb(1,0,1)" stroke-width="1" opacity="1" d="M 112.5 71 L 112.5 72 L 112.5 71 Z " /><path fill="rgb(1,1,1)" stroke="rgb(1,1,1)" stroke-width="1" opacity="1" d="M 20.5 65 L 20.5 66 L 20.5 65 Z " /><path fill="rgb(1,1,1)" stroke="rgb(1,1,1)" stroke-width="1" opacity="1" d="M 107.5 65 L 108 66.5 L 107 66.5 L 107.5 65 Z " /><path fill="rgb(1,1,1)" stroke="rgb(1,1,1)" stroke-width="1" opacity="1" d="M 112.5 65 L 113 66.5 L 112 66.5 L 112.5 65 Z " /><path fill="rgb(1,1,1)" stroke="rgb(1,1,1)" stroke-width="1" opacity="1" d="M 6.5 66 L 6.5 67 L 6.5 66 Z " /><path fill="rgb(1,1,1)" stroke="rgb(1,1,1)" stroke-width="1" opacity="1" d="M 9.5 66 L 9.5 67 L 9.5 66 Z " /><path fill="rgb(1,1,1)" stroke="rgb(1,1,1)" stroke-width="1" opacity="1" d="M 118.5 66 L 118.5 67 L 118.5 66 Z " /><path fill="rgb(1,1,1)" stroke="rgb(1,1,1)" stroke-width="1" opacity="1" d="M 7.5 68 L 7.5 69 L 7.5 68 Z " /><path fill="rgb(1,1,1)" stroke="rgb(1,1,1)" stroke-width="1" opacity="1" d="M 10.5 68 L 20 68.5 L 10.5 69 L 10.5 68 Z " /><path fill="rgb(1,1,1)" stroke="rgb(1,1,1)" stroke-width="1" opacity="1" d="M 29.5 69 L 31.5 70 L 91.5 70 L 92.5 71 L 93.5 70 Q 98.25 71.25 99.5 69 L 100.5 70 L 102 69.5 L 101 70.5 L 101.5 72 L 99.5 71 L 98.5 72 L 31 72 Q 32.13 69.33 29.5 70 L 29.5 69 Z " /><path fill="rgb(1,1,1)" stroke="rgb(1,1,1)" stroke-width="1" opacity="1" d="M 7.5 70 L 9 70.5 L 7.5 71 L 7.5 70 Z " /><path fill="rgb(1,1,1)" stroke="rgb(1,1,1)" stroke-width="1" opacity="1" d="M 24.5 70 L 27 70.5 L 25.5 72 Q 23 71 24.5 70 Z " /><path fill="rgb(1,1,1)" stroke="rgb(1,1,1)" stroke-width="1" opacity="1" d="M 104.5 70 L 105 71.5 L 104 71.5 L 104.5 70 Z " /><path fill="rgb(1,1,1)" stroke="rgb(1,1,1)" stroke-width="1" opacity="1" d="M 112.5 70 L 119 70.5 L 112.5 71 L 111.5 72 Q 110 71 112.5 70 Z " /><path fill="rgb(1,1,1)" stroke="rgb(1,1,1)" stroke-width="1" opacity="1" d="M 121.5 70 L 123 70.5 L 121.5 71 L 121.5 70 Z " /><path fill="rgb(1,1,1)" stroke="rgb(1,1,1)" stroke-width="1" opacity="1" d="M 20.5 71 L 20.5 72 L 20.5 71 Z " /><path fill="rgb(1,1,1)" stroke="rgb(1,1,1)" stroke-width="1" opacity="1" d="M 106.5 71 L 108 71.5 L 106.5 72 L 106.5 71 Z " /><path fill="rgb(1,1,1)" stroke="rgb(1,1,1)" stroke-width="1" opacity="1" d="M 118.5 118 L 122 118.5 L 119 119 L 119 121 Q 123.13 119.67 122 123 L 118 122.5 L 118.5 121 L 82.5 121 L 82 119 L 117.5 119 L 118.5 118 Z " /><path fill="rgb(1,1,1)" stroke="rgb(1,1,1)" stroke-width="1" opacity="1" d="M 5 119 L 15.5 119 L 16 121 L 5.5 121 L 5 119 Z " /><path fill="rgb(1,1,1)" stroke="rgb(1,1,1)" stroke-width="1" opacity="1" d="M 36 119 L 41 119 L 41 121 L 36 121 L 36 119 Z " /><path fill="rgb(4,3,2)" stroke="rgb(4,3,2)" stroke-width="1" opacity="1" d="M 4 64 L 23 64.5 L 9.5 65 L 7.5 67 L 7 65 L 4.5 66 L 4 64 Z " /><path fill="rgb(4,3,2)" stroke="rgb(4,3,2)" stroke-width="1" opacity="1" d="M 106.5 64 L 118 64.5 L 106.5 65 L 106.5 64 Z " /><path fill="rgb(4,3,2)" stroke="rgb(4,3,2)" stroke-width="1" opacity="1" d="M 119.5 64 L 122 64.5 L 119.5 65 L 119.5 64 Z " /><path fill="rgb(4,3,2)" stroke="rgb(4,3,2)" stroke-width="1" opacity="1" d="M 123.5 64 L 123.5 65 L 123.5 64 Z " /><path fill="rgb(4,3,2)" stroke="rgb(4,3,2)" stroke-width="1" opacity="1" d="M 110.5 67 L 113 68.5 L 111.5 68 Q 109.12 67.88 110.5 67 Z " /><path fill="rgb(4,3,2)" stroke="rgb(4,3,2)" stroke-width="1" opacity="1" d="M 20.5 68 L 20.5 69 L 20.5 68 Z " /><path fill="rgb(4,3,2)" stroke="rgb(4,3,2)" stroke-width="1" opacity="1" d="M 24.5 68 L 24.5 69 L 24.5 68 Z " /><path fill="rgb(4,3,2)" stroke="rgb(4,3,2)" stroke-width="1" opacity="1" d="M 22.5 70 L 23 71.5 L 22 71.5 L 22.5 70 Z " /><path fill="rgb(4,3,2)" stroke="rgb(4,3,2)" stroke-width="1" opacity="1" d="M 28 70 L 30 70.5 Q 29 73 28 71.5 L 28 70 Z " /><path fill="rgb(4,3,2)" stroke="rgb(4,3,2)" stroke-width="1" opacity="1" d="M 105.5 70 L 106 71.5 L 105 71.5 L 105.5 70 Z " /><path fill="rgb(4,3,2)" stroke="rgb(4,3,2)" stroke-width="1" opacity="1" d="M 119.5 120 L 121 120.5 L 119.5 121 L 119.5 120 Z " /><path fill="rgb(4,3,2)" stroke="rgb(4,3,2)" stroke-width="1" opacity="1" d="M 4.5 122 L 4.5 123 L 4.5 122 Z " /><path fill="rgb(1,0,2)" stroke="rgb(1,0,2)" stroke-width="1" opacity="1" d="M 108 65 L 112 65 L 112 66.5 L 113.5 68 L 123 68.5 L 113.5 69 L 110.5 67 Q 109.25 69.25 108 66.5 L 108 65 Z " /><path fill="rgb(1,0,2)" stroke="rgb(1,0,2)" stroke-width="1" opacity="1" d="M 5.5 67 L 8 67.5 L 5.5 68 L 5.5 67 Z " /><path fill="rgb(1,0,2)" stroke="rgb(1,0,2)" stroke-width="1" opacity="1" d="M 9.5 70 L 19.5 70 L 20 72 L 8 71.5 L 9.5 70 Z " /><path fill="rgb(1,0,2)" stroke="rgb(1,0,2)" stroke-width="1" opacity="1" d="M 23.5 71 L 23.5 72 L 23.5 71 Z " /><path fill="rgb(1,0,2)" stroke="rgb(1,0,2)" stroke-width="1" opacity="1" d="M 113.5 71 L 123 71.5 L 113.5 72 L 113.5 71 Z " /><path fill="rgb(0,0,0)" stroke="rgb(0,0,0)" stroke-width="1" opacity="1" d="M 22.5 65 L 22.5 66 L 22.5 65 Z " /><path fill="rgb(0,0,0)" stroke="rgb(0,0,0)" stroke-width="1" opacity="1" d="M 113.5 65 L 118 65.5 L 113.5 66 L 113.5 65 Z " /><path fill="rgb(0,0,0)" stroke="rgb(0,0,0)" stroke-width="1" opacity="1" d="M 9.5 67 L 9.5 68 L 9.5 67 Z " /><path fill="rgb(0,0,0)" stroke="rgb(0,0,0)" stroke-width="1" opacity="1" d="M 121.5 67 L 121.5 68 L 121.5 67 Z " /><path fill="rgb(0,0,0)" stroke="rgb(0,0,0)" stroke-width="1" opacity="1" d="M 107.5 68 L 109 68.5 L 107.5 69 L 107.5 68 Z " /><path fill="rgb(0,0,0)" stroke="rgb(0,0,0)" stroke-width="1" opacity="1" d="M 9.5 69 L 9.5 70 L 9.5 69 Z " /><path fill="rgb(0,0,0)" stroke="rgb(0,0,0)" stroke-width="1" opacity="1" d="M 26.5 69 L 26.5 70 L 26.5 69 Z " /><path fill="rgb(0,0,0)" stroke="rgb(0,0,0)" stroke-width="1" opacity="1" d="M 31.5 69 L 99 69.5 L 93.5 70 L 92.5 71 L 91.5 70 L 31.5 70 L 31.5 69 Z " /><path fill="rgb(0,0,0)" stroke="rgb(0,0,0)" stroke-width="1" opacity="1" d="M 100.5 69 L 100.5 70 L 100.5 69 Z " /><path fill="rgb(0,0,0)" stroke="rgb(0,0,0)" stroke-width="1" opacity="1" d="M 102.5 69 L 102.5 70 L 102.5 69 Z " /><path fill="rgb(0,0,0)" stroke="rgb(0,0,0)" stroke-width="1" opacity="1" d="M 5 71 L 7.5 72 L 107.5 72 Q 108.5 70 109.5 72 L 122.5 72 L 123 72.5 L 123 122.5 L 122 122.5 L 122 118 L 118.5 118 L 117.5 119 L 82 119 L 82.5 121 L 118.5 121 Q 120 122 117.5 123 L 5.5 123 L 5 121 L 15.5 121 L 16 119 L 5.5 119 L 5 118.5 L 5 71 Z M 36 119 L 36 121 L 41 121 L 41 119 L 36 119 Z " /></svg>