<svg width="128" height="128" version="1.1" xmlns="http://www.w3.org/2000/svg" desc="Created with imagetracer.js version 1.2.6" ><path fill="rgb(85,131,183)" stroke="rgb(85,131,183)" stroke-width="1" opacity="1" d="M 0 0 L 128 0 L 128 128 L 0 128 L 0 0 Z M 40 24 L 40 32 L 32 32 L 32 64 L 33 64 L 40 64 L 40 72 L 32 72 L 32 96 L 33 96 L 40 96 L 40 104 L 56 104 L 57 105 L 69 105 Q 70 103 71 105 L 79 105 L 80 104 L 88 104 L 88 96 L 96 96 L 96 65 L 96 64 L 88 64 L 88 56 L 96 56 L 96 33 L 96 32 L 88 32 L 88 24 L 40 24 Z " /><path fill="rgb(246,248,251)" stroke="rgb(246,248,251)" stroke-width="1" opacity="1" d="M 55.5 24 L 56 31.5 L 55 31.5 L 55.5 24 Z " /><path fill="rgb(246,248,251)" stroke="rgb(246,248,251)" stroke-width="1" opacity="1" d="M 72.5 24 L 73 31.5 L 72 31.5 L 72.5 24 Z " /><path fill="rgb(246,248,251)" stroke="rgb(246,248,251)" stroke-width="1" opacity="1" d="M 40.5 32 L 41 63.5 L 40 63.5 L 40.5 32 Z " /><path fill="rgb(246,248,251)" stroke="rgb(246,248,251)" stroke-width="1" opacity="1" d="M 87.5 32 L 88 40 L 96 40 L 96 47 L 88 47 L 88 40.5 L 87 39.5 L 87.5 32 Z " /><path fill="rgb(246,248,251)" stroke="rgb(246,248,251)" stroke-width="1" opacity="1" d="M 55.5 40 L 56 47.5 L 55 47.5 L 55.5 40 Z " /><path fill="rgb(246,248,251)" stroke="rgb(246,248,251)" stroke-width="1" opacity="1" d="M 72.5 40 L 73 46.5 L 72 46.5 L 72.5 40 Z " /><path fill="rgb(246,248,251)" stroke="rgb(246,248,251)" stroke-width="1" opacity="1" d="M 72.5 56 L 73 63.5 L 72 63.5 L 72.5 56 Z " /><path fill="rgb(246,248,251)" stroke="rgb(246,248,251)" stroke-width="1" opacity="1" d="M 55.5 64 L 56 71.5 L 55 71.5 L 55.5 64 Z " /><path fill="rgb(246,248,251)" stroke="rgb(246,248,251)" stroke-width="1" opacity="1" d="M 87.5 64 L 88 72 L 96 72.5 L 88.5 73 L 87 71.5 L 87.5 64 Z " /><path fill="rgb(246,248,251)" stroke="rgb(246,248,251)" stroke-width="1" opacity="1" d="M 72.5 72 L 73 87.5 L 72 87.5 L 72.5 72 Z " /><path fill="rgb(246,248,251)" stroke="rgb(246,248,251)" stroke-width="1" opacity="1" d="M 40.5 81 L 41 95.5 L 40 95.5 L 40.5 81 Z " /><path fill="rgb(246,248,251)" stroke="rgb(246,248,251)" stroke-width="1" opacity="1" d="M 55.5 81 L 56 86.5 L 55 86.5 L 55.5 81 Z " /><path fill="rgb(246,248,251)" stroke="rgb(246,248,251)" stroke-width="1" opacity="1" d="M 88.5 87 L 96 87.5 L 88 88 L 87.5 96 L 87 88.5 L 88.5 87 Z " /><path fill="rgb(246,248,251)" stroke="rgb(246,248,251)" stroke-width="1" opacity="1" d="M 79.5 96 L 80 103.5 L 79 103.5 L 79.5 96 Z " /><path fill="rgb(156,183,213)" stroke="rgb(156,183,213)" stroke-width="1" opacity="1" d="M 40.5 24 L 41 31.5 L 40 31.5 L 40.5 24 Z " /><path fill="rgb(156,183,213)" stroke="rgb(156,183,213)" stroke-width="1" opacity="1" d="M 87.5 24 L 88 31.5 L 87 31.5 L 87.5 24 Z " /><path fill="rgb(156,183,213)" stroke="rgb(156,183,213)" stroke-width="1" opacity="1" d="M 88.5 48 L 96 48.5 L 88.5 49 L 88.5 48 Z " /><path fill="rgb(156,183,213)" stroke="rgb(156,183,213)" stroke-width="1" opacity="1" d="M 64 49 L 72 49 L 72 55 L 64 55 L 64 49 Z " /><path fill="rgb(156,183,213)" stroke="rgb(156,183,213)" stroke-width="1" opacity="1" d="M 87.5 56 L 88 63.5 L 87 63.5 L 87.5 56 Z " /><path fill="rgb(156,183,213)" stroke="rgb(156,183,213)" stroke-width="1" opacity="1" d="M 56.5 72 L 64 72.5 L 56.5 73 L 56.5 72 Z " /><path fill="rgb(156,183,213)" stroke="rgb(156,183,213)" stroke-width="1" opacity="1" d="M 40.5 79 L 40.5 80 L 40.5 79 Z " /><path fill="rgb(156,183,213)" stroke="rgb(156,183,213)" stroke-width="1" opacity="1" d="M 56.5 79 L 64 79.5 L 56.5 80 L 56.5 79 Z " /><path fill="rgb(164,189,217)" stroke="rgb(164,189,217)" stroke-width="1" opacity="1" d="M 41 24 L 47 24 L 47 32 L 41 32 L 41 24 Z " /><path fill="rgb(164,189,217)" stroke="rgb(164,189,217)" stroke-width="1" opacity="1" d="M 81 24 L 87 24 L 87 32 L 81 32 L 81 24 Z " /><path fill="rgb(164,189,217)" stroke="rgb(164,189,217)" stroke-width="1" opacity="1" d="M 32 32 L 40 32 L 40 40 L 32 40 L 32 32 Z " /><path fill="rgb(164,189,217)" stroke="rgb(164,189,217)" stroke-width="1" opacity="1" d="M 88 32 L 96 32 L 96 40 L 88 40 L 88 32 Z " /><path fill="rgb(164,189,217)" stroke="rgb(164,189,217)" stroke-width="1" opacity="1" d="M 64.5 48 L 88 48.5 L 64.5 49 L 64.5 48 Z " /><path fill="rgb(164,189,217)" stroke="rgb(164,189,217)" stroke-width="1" opacity="1" d="M 64.5 55 L 72 55.5 L 64.5 56 L 64.5 55 Z " /><path fill="rgb(164,189,217)" stroke="rgb(164,189,217)" stroke-width="1" opacity="1" d="M 81 56 L 87 56 L 87 64 L 81 64 L 81 56 Z " /><path fill="rgb(164,189,217)" stroke="rgb(164,189,217)" stroke-width="1" opacity="1" d="M 47.5 64 L 48 71.5 L 47 71.5 L 47.5 64 Z " /><path fill="rgb(164,189,217)" stroke="rgb(164,189,217)" stroke-width="1" opacity="1" d="M 41.5 79 L 56 79.5 L 41.5 80 L 41.5 79 Z " /><path fill="rgb(164,189,217)" stroke="rgb(164,189,217)" stroke-width="1" opacity="1" d="M 64 80 L 72 80 L 72 87 L 64 87 L 64 80 Z " /><path fill="rgb(164,189,217)" stroke="rgb(164,189,217)" stroke-width="1" opacity="1" d="M 47.5 96 L 48 103.5 L 47 103.5 L 47.5 96 Z " /><path fill="rgb(254,255,255)" stroke="rgb(254,255,255)" stroke-width="1" opacity="1" d="M 87.5 40 L 88 46.5 L 87 46.5 L 87.5 40 Z " /><path fill="rgb(254,255,255)" stroke="rgb(254,255,255)" stroke-width="1" opacity="1" d="M 55.5 48 L 56 55.5 L 55 55.5 L 55.5 48 Z " /><path fill="rgb(254,255,255)" stroke="rgb(254,255,255)" stroke-width="1" opacity="1" d="M 87.5 72 L 87.5 73 L 87.5 72 Z " /><path fill="rgb(254,255,255)" stroke="rgb(254,255,255)" stroke-width="1" opacity="1" d="M 55.5 87 L 55.5 88 L 55.5 87 Z " /><path fill="rgb(254,255,255)" stroke="rgb(254,255,255)" stroke-width="1" opacity="1" d="M 87.5 87 L 87.5 88 L 87.5 87 Z " /><path fill="rgb(199,214,231)" stroke="rgb(199,214,231)" stroke-width="1" opacity="1" d="M 32.5 40 L 40 40.5 L 32.5 41 L 32.5 40 Z " /><path fill="rgb(199,214,231)" stroke="rgb(199,214,231)" stroke-width="1" opacity="1" d="M 56.5 40 L 72 40.5 L 56.5 41 L 56.5 40 Z " /><path fill="rgb(199,214,231)" stroke="rgb(199,214,231)" stroke-width="1" opacity="1" d="M 56.5 47 L 64 47.5 L 56.5 48 L 56.5 47 Z " /><path fill="rgb(199,214,231)" stroke="rgb(199,214,231)" stroke-width="1" opacity="1" d="M 32.5 55 L 40 55.5 L 32.5 56 L 32.5 55 Z " /><path fill="rgb(199,214,231)" stroke="rgb(199,214,231)" stroke-width="1" opacity="1" d="M 64.5 72 L 72 72.5 L 64.5 73 L 64.5 72 Z " /><path fill="rgb(199,214,231)" stroke="rgb(199,214,231)" stroke-width="1" opacity="1" d="M 32.5 87 L 40 87.5 L 32.5 88 L 32.5 87 Z " /><path fill="rgb(199,214,231)" stroke="rgb(199,214,231)" stroke-width="1" opacity="1" d="M 48.5 96 L 49 103.5 L 48 103.5 L 48.5 96 Z " /><path fill="rgb(199,214,231)" stroke="rgb(199,214,231)" stroke-width="1" opacity="1" d="M 80.5 96 L 81 103.5 L 80 103.5 L 80.5 96 Z " /><path fill="rgb(198,214,231)" stroke="rgb(198,214,231)" stroke-width="1" opacity="1" d="M 56 41 L 72 41 L 72 47 L 56 47 L 56 41 Z " /><path fill="rgb(198,214,231)" stroke="rgb(198,214,231)" stroke-width="1" opacity="1" d="M 64 73 L 72 73 L 72 79 L 64 79 L 64 73 Z " /><path fill="rgb(198,214,231)" stroke="rgb(198,214,231)" stroke-width="1" opacity="1" d="M 56.5 80 L 64 80.5 L 56.5 81 L 56.5 80 Z " /><path fill="rgb(198,214,231)" stroke="rgb(198,214,231)" stroke-width="1" opacity="1" d="M 88 88 L 96 88 L 96 96 L 88 96 L 88 88 Z " /><path fill="rgb(255,255,255)" stroke="rgb(255,255,255)" stroke-width="1" opacity="1" d="M 56 24 L 71.5 24 L 72 24.5 L 72 32 L 87 32 L 87 47 L 73 47 L 73 40.5 L 72.5 40 L 55 40 L 55 56 L 71.5 56 L 72 56.5 L 72 64 L 87 64 L 87 73 L 96 73 L 96 87 L 87 87 L 87 96 L 79 96 L 79 104 L 56 104 L 56 96 L 41 96 L 41 81 L 55 81 L 55 87.5 L 55.5 88 L 73 88 L 73 72 L 56.5 72 L 56 71.5 L 56 64 L 41 64 L 41 32 L 56 32 L 56 24 Z " /><path fill="rgb(128,162,201)" stroke="rgb(128,162,201)" stroke-width="1" opacity="1" d="M 72 49 L 95.5 49 L 96 49.5 L 96 56 L 81.5 56 L 80.5 55 L 72 55 L 72 49 Z " /><path fill="rgb(128,162,201)" stroke="rgb(128,162,201)" stroke-width="1" opacity="1" d="M 40.5 64 L 41 72 L 56 73 L 56 78.5 L 55.5 79 L 32 79 L 32 72 L 40 72 L 40.5 64 Z " /><path fill="rgb(128,162,201)" stroke="rgb(128,162,201)" stroke-width="1" opacity="1" d="M 40.5 96 L 41 103.5 L 40 103.5 L 40.5 96 Z " /><path fill="rgb(128,162,201)" stroke="rgb(128,162,201)" stroke-width="1" opacity="1" d="M 56.5 104 L 69 104.5 L 56.5 105 L 56.5 104 Z " /><path fill="rgb(128,162,201)" stroke="rgb(128,162,201)" stroke-width="1" opacity="1" d="M 70.5 104 L 79 104.5 L 70.5 105 L 70.5 104 Z " /><path fill="rgb(221,230,240)" stroke="rgb(221,230,240)" stroke-width="1" opacity="1" d="M 48 24 L 55 24 L 55 32 L 48 32 L 48 24 Z " /><path fill="rgb(221,230,240)" stroke="rgb(221,230,240)" stroke-width="1" opacity="1" d="M 73 24 L 80 24 L 80 32 L 73 32 L 73 24 Z " /><path fill="rgb(221,230,240)" stroke="rgb(221,230,240)" stroke-width="1" opacity="1" d="M 32 41 L 40 41 L 40 55 L 32 55 L 32 41 Z " /><path fill="rgb(221,230,240)" stroke="rgb(221,230,240)" stroke-width="1" opacity="1" d="M 72.5 47 L 96 47.5 L 72.5 48 L 72.5 47 Z " /><path fill="rgb(221,230,240)" stroke="rgb(221,230,240)" stroke-width="1" opacity="1" d="M 56 48 L 64 48 L 64 56 L 56 56 L 56 48 Z " /><path fill="rgb(221,230,240)" stroke="rgb(221,230,240)" stroke-width="1" opacity="1" d="M 73 56 L 80 56 L 80 64 L 73 64 L 73 56 Z " /><path fill="rgb(221,230,240)" stroke="rgb(221,230,240)" stroke-width="1" opacity="1" d="M 48 64 L 55 64 L 55 72 L 48 72 L 48 64 Z " /><path fill="rgb(221,230,240)" stroke="rgb(221,230,240)" stroke-width="1" opacity="1" d="M 40.5 80 L 55.5 80 L 56.5 81 L 64 81 L 64 88 L 56 88 L 56 81 L 40 81 L 40 87 L 32 87 L 32 81 L 39.5 81 L 40.5 80 Z " /><path fill="rgb(221,230,240)" stroke="rgb(221,230,240)" stroke-width="1" opacity="1" d="M 49 96 L 56 96 L 56 104 L 49 104 L 49 96 Z " /><path fill="rgb(185,204,225)" stroke="rgb(185,204,225)" stroke-width="1" opacity="1" d="M 47.5 24 L 48 31.5 L 47 31.5 L 47.5 24 Z " /><path fill="rgb(185,204,225)" stroke="rgb(185,204,225)" stroke-width="1" opacity="1" d="M 80.5 24 L 81 31.5 L 80 31.5 L 80.5 24 Z " /><path fill="rgb(185,204,225)" stroke="rgb(185,204,225)" stroke-width="1" opacity="1" d="M 64.5 47 L 72 47.5 L 64.5 48 L 64.5 47 Z " /><path fill="rgb(185,204,225)" stroke="rgb(185,204,225)" stroke-width="1" opacity="1" d="M 80.5 56 L 81 63.5 L 80 63.5 L 80.5 56 Z " /><path fill="rgb(185,204,225)" stroke="rgb(185,204,225)" stroke-width="1" opacity="1" d="M 88 64 L 96 64 L 96 72 L 88 72 L 88 64 Z " /><path fill="rgb(185,204,225)" stroke="rgb(185,204,225)" stroke-width="1" opacity="1" d="M 64.5 79 L 72 79.5 L 64.5 80 L 64.5 79 Z " /><path fill="rgb(185,204,225)" stroke="rgb(185,204,225)" stroke-width="1" opacity="1" d="M 32.5 80 L 40 80.5 L 32.5 81 L 32.5 80 Z " /><path fill="rgb(185,204,225)" stroke="rgb(185,204,225)" stroke-width="1" opacity="1" d="M 64.5 87 L 72 87.5 L 64.5 88 L 64.5 87 Z " /><path fill="rgb(185,204,225)" stroke="rgb(185,204,225)" stroke-width="1" opacity="1" d="M 81 96 L 88 96 L 88 104 L 81 104 L 81 96 Z " /><path fill="rgb(142,172,207)" stroke="rgb(142,172,207)" stroke-width="1" opacity="1" d="M 72.5 55 L 81 55.5 L 72.5 56 L 72.5 55 Z " /><path fill="rgb(142,172,207)" stroke="rgb(142,172,207)" stroke-width="1" opacity="1" d="M 32 56 L 40 56 L 40 64 L 32 64 L 32 56 Z " /><path fill="rgb(142,172,207)" stroke="rgb(142,172,207)" stroke-width="1" opacity="1" d="M 41 64 L 47 64 L 47 72 L 41 72 L 41 64 Z " /><path fill="rgb(142,172,207)" stroke="rgb(142,172,207)" stroke-width="1" opacity="1" d="M 48.5 72 L 55.5 72 L 56.5 73 L 64 73 L 64 79 L 56 79 L 56 73 L 48.5 73 L 48.5 72 Z " /><path fill="rgb(142,172,207)" stroke="rgb(142,172,207)" stroke-width="1" opacity="1" d="M 32.5 79 L 40 79.5 L 32.5 80 L 32.5 79 Z " /><path fill="rgb(142,172,207)" stroke="rgb(142,172,207)" stroke-width="1" opacity="1" d="M 32 88 L 40 88 L 40 96 L 32 96 L 32 88 Z " /><path fill="rgb(142,172,207)" stroke="rgb(142,172,207)" stroke-width="1" opacity="1" d="M 41 96 L 47 96 L 47 104 L 41 104 L 41 96 Z " /></svg>