<svg width="64" height="43" version="1.1" xmlns="http://www.w3.org/2000/svg" desc="Created with imagetracer.js version 1.2.6" ><path fill="rgb(225,57,45)" stroke="rgb(225,57,45)" stroke-width="1" opacity="1" d="M 14.5 0 L 63.5 0 L 64 0.5 L 64 14 L 34.5 14 Q 26.59 10.91 21.5 5 L 18.5 4 L 14 0.5 L 14.5 0 Z " /><path fill="rgb(80,134,89)" stroke="rgb(80,134,89)" stroke-width="1" opacity="1" d="M 8.5 0 L 8.5 1 L 8.5 0 Z " /><path fill="rgb(80,134,89)" stroke="rgb(80,134,89)" stroke-width="1" opacity="1" d="M 6.5 9 L 6.5 10 L 6.5 9 Z " /><path fill="rgb(80,134,89)" stroke="rgb(80,134,89)" stroke-width="1" opacity="1" d="M 24.5 11 L 24.5 12 L 24.5 11 Z " /><path fill="rgb(80,134,89)" stroke="rgb(80,134,89)" stroke-width="1" opacity="1" d="M 12.5 13 L 12.5 14 L 12.5 13 Z " /><path fill="rgb(80,134,89)" stroke="rgb(80,134,89)" stroke-width="1" opacity="1" d="M 18.5 17 L 18.5 18 L 18.5 17 Z " /><path fill="rgb(80,134,89)" stroke="rgb(80,134,89)" stroke-width="1" opacity="1" d="M 18.5 25 L 18.5 26 L 18.5 25 Z " /><path fill="rgb(80,134,89)" stroke="rgb(80,134,89)" stroke-width="1" opacity="1" d="M 12.5 29 L 12.5 30 L 12.5 29 Z " /><path fill="rgb(80,134,89)" stroke="rgb(80,134,89)" stroke-width="1" opacity="1" d="M 31.5 30 L 31.5 31 L 31.5 30 Z " /><path fill="rgb(80,134,89)" stroke="rgb(80,134,89)" stroke-width="1" opacity="1" d="M 24.5 31 L 24.5 32 L 24.5 31 Z " /><path fill="rgb(80,134,89)" stroke="rgb(80,134,89)" stroke-width="1" opacity="1" d="M 6.5 33 L 6.5 34 L 6.5 33 Z " /><path fill="rgb(80,134,89)" stroke="rgb(80,134,89)" stroke-width="1" opacity="1" d="M 22.5 36 L 22.5 37 L 22.5 36 Z " /><path fill="rgb(80,134,89)" stroke="rgb(80,134,89)" stroke-width="1" opacity="1" d="M 8.5 42 L 8.5 43 L 8.5 42 Z " /><path fill="rgb(0,119,71)" stroke="rgb(0,119,71)" stroke-width="1" opacity="1" d="M 3.5 7 L 3.5 8 L 3.5 7 Z " /><path fill="rgb(0,119,71)" stroke="rgb(0,119,71)" stroke-width="1" opacity="1" d="M 5.5 8 L 5.5 9 L 5.5 8 Z " /><path fill="rgb(0,119,71)" stroke="rgb(0,119,71)" stroke-width="1" opacity="1" d="M 11.5 12 L 11.5 13 L 11.5 12 Z " /><path fill="rgb(0,119,71)" stroke="rgb(0,119,71)" stroke-width="1" opacity="1" d="M 21.5 19 L 21.5 20 L 21.5 19 Z " /><path fill="rgb(0,119,71)" stroke="rgb(0,119,71)" stroke-width="1" opacity="1" d="M 23.5 20 Q 26.5 21.5 23.5 23 L 23.5 20 Z " /><path fill="rgb(0,119,71)" stroke="rgb(0,119,71)" stroke-width="1" opacity="1" d="M 21.5 23 L 21.5 24 L 21.5 23 Z " /><path fill="rgb(0,119,71)" stroke="rgb(0,119,71)" stroke-width="1" opacity="1" d="M 11.5 30 L 11.5 31 L 11.5 30 Z " /><path fill="rgb(0,119,71)" stroke="rgb(0,119,71)" stroke-width="1" opacity="1" d="M 5.5 34 L 5.5 35 L 5.5 34 Z " /><path fill="rgb(0,119,71)" stroke="rgb(0,119,71)" stroke-width="1" opacity="1" d="M 3.5 35 L 3.5 36 L 3.5 35 Z " /><path fill="rgb(0,120,71)" stroke="rgb(0,120,71)" stroke-width="1" opacity="1" d="M 0 0 L 7.5 0 L 33.5 18 L 64 18 L 64 24.5 L 63.5 25 L 33.5 25 L 7.5 43 L 0 43 L 0 37.5 L 1.5 37 L 25 21.5 L 15.5 16 L 11.5 12 L 9.5 12 L 5.5 8 L 0 6 L 0 0 Z " /><path fill="rgb(224,51,38)" stroke="rgb(224,51,38)" stroke-width="1" opacity="1" d="M 15.5 1 L 15.5 2 L 15.5 1 Z " /><path fill="rgb(224,51,38)" stroke="rgb(224,51,38)" stroke-width="1" opacity="1" d="M 21.5 5 L 21.5 6 L 21.5 5 Z " /><path fill="rgb(224,51,38)" stroke="rgb(224,51,38)" stroke-width="1" opacity="1" d="M 33.5 13 L 33.5 14 L 33.5 13 Z " /><path fill="rgb(0,0,0)" stroke="rgb(0,0,0)" stroke-width="1" opacity="1" d="M 0.5 9 L 19 21.5 L 0.5 34 L 0.5 9 Z " /><path fill="rgb(232,172,21)" stroke="rgb(232,172,21)" stroke-width="1" opacity="1" d="M 1.5 9 L 1.5 10 L 1.5 9 Z " /><path fill="rgb(232,172,21)" stroke="rgb(232,172,21)" stroke-width="1" opacity="1" d="M 31.5 12 L 31.5 13 L 31.5 12 Z " /><path fill="rgb(232,172,21)" stroke="rgb(232,172,21)" stroke-width="1" opacity="1" d="M 13.5 14 L 13.5 15 L 13.5 14 Z " /><path fill="rgb(232,172,21)" stroke="rgb(232,172,21)" stroke-width="1" opacity="1" d="M 13.5 28 L 13.5 29 L 13.5 28 Z " /><path fill="rgb(232,172,21)" stroke="rgb(232,172,21)" stroke-width="1" opacity="1" d="M 1.5 33 L 1.5 34 L 1.5 33 Z " /><path fill="rgb(166,176,159)" stroke="rgb(166,176,159)" stroke-width="1" opacity="1" d="M 14.5 4 L 14.5 5 L 14.5 4 Z " /><path fill="rgb(166,176,159)" stroke="rgb(166,176,159)" stroke-width="1" opacity="1" d="M 22.5 6 L 22.5 7 L 22.5 6 Z " /><path fill="rgb(166,176,159)" stroke="rgb(166,176,159)" stroke-width="1" opacity="1" d="M 26.5 12 L 26.5 13 L 26.5 12 Z " /><path fill="rgb(166,176,159)" stroke="rgb(166,176,159)" stroke-width="1" opacity="1" d="M 30.5 15 L 30.5 16 L 30.5 15 Z " /><path fill="rgb(166,176,159)" stroke="rgb(166,176,159)" stroke-width="1" opacity="1" d="M 30.5 27 L 30.5 28 L 30.5 27 Z " /><path fill="rgb(166,176,159)" stroke="rgb(166,176,159)" stroke-width="1" opacity="1" d="M 26.5 30 L 26.5 31 L 26.5 30 Z " /><path fill="rgb(166,176,159)" stroke="rgb(166,176,159)" stroke-width="1" opacity="1" d="M 14.5 38 L 14.5 39 L 14.5 38 Z " /><path fill="rgb(220,220,222)" stroke="rgb(220,220,222)" stroke-width="1" opacity="1" d="M 13.5 0 L 13.5 1 L 13.5 0 Z " /><path fill="rgb(220,220,222)" stroke="rgb(220,220,222)" stroke-width="1" opacity="1" d="M 11.5 2 L 11.5 3 L 11.5 2 Z " /><path fill="rgb(220,220,222)" stroke="rgb(220,220,222)" stroke-width="1" opacity="1" d="M 16.5 2 L 16.5 3 L 16.5 2 Z " /><path fill="rgb(220,220,222)" stroke="rgb(220,220,222)" stroke-width="1" opacity="1" d="M 20.5 8 L 20.5 9 L 20.5 8 Z " /><path fill="rgb(220,220,222)" stroke="rgb(220,220,222)" stroke-width="1" opacity="1" d="M 25.5 8 L 25.5 9 L 25.5 8 Z " /><path fill="rgb(220,220,222)" stroke="rgb(220,220,222)" stroke-width="1" opacity="1" d="M 23.5 10 L 23.5 11 L 23.5 10 Z " /><path fill="rgb(220,220,222)" stroke="rgb(220,220,222)" stroke-width="1" opacity="1" d="M 32.5 16 L 32.5 17 L 32.5 16 Z " /><path fill="rgb(220,220,222)" stroke="rgb(220,220,222)" stroke-width="1" opacity="1" d="M 32.5 26 L 32.5 27 L 32.5 26 Z " /><path fill="rgb(220,220,222)" stroke="rgb(220,220,222)" stroke-width="1" opacity="1" d="M 23.5 32 L 23.5 33 L 23.5 32 Z " /><path fill="rgb(220,220,222)" stroke="rgb(220,220,222)" stroke-width="1" opacity="1" d="M 20.5 34 L 20.5 35 L 20.5 34 Z " /><path fill="rgb(220,220,222)" stroke="rgb(220,220,222)" stroke-width="1" opacity="1" d="M 25.5 34 L 25.5 35 L 25.5 34 Z " /><path fill="rgb(220,220,222)" stroke="rgb(220,220,222)" stroke-width="1" opacity="1" d="M 19.5 38 L 19.5 39 L 19.5 38 Z " /><path fill="rgb(220,220,222)" stroke="rgb(220,220,222)" stroke-width="1" opacity="1" d="M 11.5 40 L 11.5 41 L 11.5 40 Z " /><path fill="rgb(220,220,222)" stroke="rgb(220,220,222)" stroke-width="1" opacity="1" d="M 16.5 40 L 16.5 41 L 16.5 40 Z " /><path fill="rgb(220,220,222)" stroke="rgb(220,220,222)" stroke-width="1" opacity="1" d="M 13.5 42 L 13.5 43 L 13.5 42 Z " /><path fill="rgb(255,255,255)" stroke="rgb(255,255,255)" stroke-width="1" opacity="1" d="M 9.5 0 L 14.5 1 L 33.5 14 L 64 14 Q 64.38 16.96 63.5 17 L 33.5 17 L 10.5 2 Q 8 1 9.5 0 Z " /><path fill="rgb(255,255,255)" stroke="rgb(255,255,255)" stroke-width="1" opacity="1" d="M 33.5 26 L 63.5 26 Q 64.38 26.04 64 29 L 33.5 29 L 14.5 42 L 9.5 43 Q 8 42 10.5 41 L 33.5 26 Z " /><path fill="rgb(255,185,21)" stroke="rgb(255,185,21)" stroke-width="1" opacity="1" d="M 0 6 L 1.5 6 L 24 21.5 L 1.5 37 L 0 37 L 0 34 L 1.5 34 L 19 21.5 L 1.5 9 L 0 9 L 0 6 Z " /><path fill="rgb(0,117,67)" stroke="rgb(0,117,67)" stroke-width="1" opacity="1" d="M 9.5 1 L 9.5 2 L 9.5 1 Z " /><path fill="rgb(0,117,67)" stroke="rgb(0,117,67)" stroke-width="1" opacity="1" d="M 12.5 3 L 12.5 4 L 12.5 3 Z " /><path fill="rgb(0,117,67)" stroke="rgb(0,117,67)" stroke-width="1" opacity="1" d="M 15.5 5 L 15.5 6 L 15.5 5 Z " /><path fill="rgb(0,117,67)" stroke="rgb(0,117,67)" stroke-width="1" opacity="1" d="M 21.5 9 L 21.5 10 L 21.5 9 Z " /><path fill="rgb(0,117,67)" stroke="rgb(0,117,67)" stroke-width="1" opacity="1" d="M 27.5 13 L 27.5 14 L 27.5 13 Z " /><path fill="rgb(0,117,67)" stroke="rgb(0,117,67)" stroke-width="1" opacity="1" d="M 33.5 17 L 64 17.5 L 33.5 18 L 33.5 17 Z " /><path fill="rgb(0,117,67)" stroke="rgb(0,117,67)" stroke-width="1" opacity="1" d="M 33.5 25 L 64 25.5 L 33.5 26 L 33.5 25 Z " /><path fill="rgb(0,117,67)" stroke="rgb(0,117,67)" stroke-width="1" opacity="1" d="M 27.5 29 L 27.5 30 L 27.5 29 Z " /><path fill="rgb(0,117,67)" stroke="rgb(0,117,67)" stroke-width="1" opacity="1" d="M 21.5 33 L 21.5 34 L 21.5 33 Z " /><path fill="rgb(0,117,67)" stroke="rgb(0,117,67)" stroke-width="1" opacity="1" d="M 15.5 37 L 15.5 38 L 15.5 37 Z " /><path fill="rgb(0,117,67)" stroke="rgb(0,117,67)" stroke-width="1" opacity="1" d="M 12.5 39 L 12.5 40 L 12.5 39 Z " /><path fill="rgb(0,117,67)" stroke="rgb(0,117,67)" stroke-width="1" opacity="1" d="M 9.5 41 L 9.5 42 L 9.5 41 Z " /><path fill="rgb(75,55,6)" stroke="rgb(75,55,6)" stroke-width="1" opacity="1" d="M 14.5 18 L 14.5 19 L 14.5 18 Z " /><path fill="rgb(75,55,6)" stroke="rgb(75,55,6)" stroke-width="1" opacity="1" d="M 14.5 24 L 14.5 25 L 14.5 24 Z " /><path fill="rgb(0,12,138)" stroke="rgb(0,12,138)" stroke-width="1" opacity="1" d="M 33.5 29 L 64 29 L 64 43 L 14 42.5 L 33.5 29 Z " /></svg>