<svg width="16" height="16" version="1.1" xmlns="http://www.w3.org/2000/svg" desc="Created with imagetracer.js version 1.2.6" ><path fill="rgb(254,254,254)" stroke="rgb(254,254,254)" stroke-width="1" opacity="0" d="M 14.5 11 L 14.5 12 L 14.5 11 Z " /><path fill="rgb(254,254,254)" stroke="rgb(254,254,254)" stroke-width="1" opacity="0" d="M 0.5 13 L 0.5 14 L 0.5 13 Z " /><path fill="rgb(255,255,255)" stroke="rgb(255,255,255)" stroke-width="1" opacity="0" d="M 0 0 L 6.5 0 L 7 1.5 L 0.5 13 L 0 0 Z " /><path fill="rgb(255,255,255)" stroke="rgb(255,255,255)" stroke-width="1" opacity="0" d="M 9.5 0 L 16 0 L 16 12.5 L 15 12.5 L 9 0.5 L 9.5 0 Z " /><path fill="rgb(255,255,255)" stroke="rgb(255,255,255)" stroke-width="1" opacity="0" d="M 7.5 11 L 7.5 12 L 7.5 11 Z " /><path fill="rgb(115,151,67)" stroke="rgb(115,151,67)" stroke-width="1" opacity="0.9686274509803922" d="M 7.5 2 L 7.5 3 L 7.5 2 Z " /><path fill="rgb(182,200,156)" stroke="rgb(182,200,156)" stroke-width="1" opacity="1" d="M 8.5 2 L 8.5 3 L 8.5 2 Z " /><path fill="rgb(182,200,156)" stroke="rgb(182,200,156)" stroke-width="1" opacity="1" d="M 10.5 6 Q 12 7 9.5 8 Q 8 7 10.5 6 Z " /><path fill="rgb(182,200,156)" stroke="rgb(182,200,156)" stroke-width="1" opacity="1" d="M 3.5 11 L 4 12.5 L 3 12.5 L 3.5 11 Z " /><path fill="rgb(182,200,156)" stroke="rgb(182,200,156)" stroke-width="1" opacity="1" d="M 11.5 14 Q 13 15 10.5 16 Q 9 15 11.5 14 Z " /><path fill="rgb(251,251,250)" stroke="rgb(251,251,250)" stroke-width="1" opacity="0.07450980392156863" d="M 0.5 14 L 0.5 15 L 0.5 14 Z " /><path fill="rgb(241,244,237)" stroke="rgb(241,244,237)" stroke-width="1" opacity="0.1411764705882353" d="M 5.5 4 L 5.5 5 L 5.5 4 Z " /><path fill="rgb(241,244,237)" stroke="rgb(241,244,237)" stroke-width="1" opacity="0.1411764705882353" d="M 4.5 6 L 4.5 7 L 4.5 6 Z " /><path fill="rgb(241,244,237)" stroke="rgb(241,244,237)" stroke-width="1" opacity="0.1411764705882353" d="M 3.5 8 L 3.5 9 L 3.5 8 Z " /><path fill="rgb(241,244,237)" stroke="rgb(241,244,237)" stroke-width="1" opacity="0.1411764705882353" d="M 2.5 10 L 2.5 11 L 2.5 10 Z " /><path fill="rgb(241,244,237)" stroke="rgb(241,244,237)" stroke-width="1" opacity="0.1411764705882353" d="M 1.5 12 L 1.5 13 L 1.5 12 Z " /><path fill="rgb(109,147,59)" stroke="rgb(109,147,59)" stroke-width="1" opacity="1" d="M 2.5 14 L 2.5 15 L 2.5 14 Z " /><path fill="rgb(113,150,63)" stroke="rgb(113,150,63)" stroke-width="1" opacity="1" d="M 7.5 3 L 8 8.5 L 7 8.5 L 7.5 3 Z " /><path fill="rgb(113,150,63)" stroke="rgb(113,150,63)" stroke-width="1" opacity="1" d="M 4.5 13 L 5 15.5 L 4 15.5 L 4.5 13 Z " /><path fill="rgb(147,174,109)" stroke="rgb(147,174,109)" stroke-width="1" opacity="1" d="M 8.5 5 L 8.5 6 L 8.5 5 Z " /><path fill="rgb(147,174,109)" stroke="rgb(147,174,109)" stroke-width="1" opacity="1" d="M 10.5 11 L 12 11.5 L 10.5 12 L 10.5 11 Z " /><path fill="rgb(147,174,109)" stroke="rgb(147,174,109)" stroke-width="1" opacity="1" d="M 7.5 14 L 8 15.5 L 7 15.5 L 7.5 14 Z " /><path fill="rgb(205,218,188)" stroke="rgb(205,218,188)" stroke-width="1" opacity="0.9490196078431372" d="M 9.5 3 L 11 5.5 Q 10 7 9 4.5 L 9.5 3 Z " /><path fill="rgb(205,218,188)" stroke="rgb(205,218,188)" stroke-width="1" opacity="0.9490196078431372" d="M 2.5 12 L 2.5 13 L 2.5 12 Z " /><path fill="rgb(205,218,188)" stroke="rgb(205,218,188)" stroke-width="1" opacity="0.9490196078431372" d="M 1.5 14 L 1.5 15 L 1.5 14 Z " /><path fill="rgb(205,218,188)" stroke="rgb(205,218,188)" stroke-width="1" opacity="0.9490196078431372" d="M 12.5 15 L 14 15.5 L 12.5 16 L 12.5 15 Z " /><path fill="rgb(149,175,112)" stroke="rgb(149,175,112)" stroke-width="1" opacity="1" d="M 5.5 7 L 6 10.5 L 5 10.5 L 5.5 7 Z " /><path fill="rgb(149,175,112)" stroke="rgb(149,175,112)" stroke-width="1" opacity="1" d="M 9.5 11 L 9.5 12 L 9.5 11 Z " /><path fill="rgb(129,161,86)" stroke="rgb(129,161,86)" stroke-width="1" opacity="0.9921568627450981" d="M 6.5 4 L 7 9.5 L 6 9.5 L 6.5 4 Z " /><path fill="rgb(129,161,86)" stroke="rgb(129,161,86)" stroke-width="1" opacity="0.9921568627450981" d="M 8.5 7 L 8.5 8 L 8.5 7 Z " /><path fill="rgb(129,161,86)" stroke="rgb(129,161,86)" stroke-width="1" opacity="0.9921568627450981" d="M 4.5 12 L 4.5 13 L 4.5 12 Z " /><path fill="rgb(129,161,86)" stroke="rgb(129,161,86)" stroke-width="1" opacity="0.9921568627450981" d="M 12.5 13 Q 15 14 13.5 15 Q 11 14 12.5 13 Z " /><path fill="rgb(172,192,141)" stroke="rgb(172,192,141)" stroke-width="1" opacity="1" d="M 8.5 3 L 8.5 4 L 8.5 3 Z " /><path fill="rgb(172,192,141)" stroke="rgb(172,192,141)" stroke-width="1" opacity="1" d="M 9.5 8 L 11 8.5 L 9.5 9 L 9.5 8 Z " /><path fill="rgb(172,192,141)" stroke="rgb(172,192,141)" stroke-width="1" opacity="1" d="M 9.5 15 L 9.5 16 L 9.5 15 Z " /><path fill="rgb(251,252,251)" stroke="rgb(251,252,251)" stroke-width="1" opacity="0.011764705882352941" d="M 9.5 1 L 9.5 2 L 9.5 1 Z " /><path fill="rgb(251,252,251)" stroke="rgb(251,252,251)" stroke-width="1" opacity="0.011764705882352941" d="M 10.5 3 L 10.5 4 L 10.5 3 Z " /><path fill="rgb(251,252,251)" stroke="rgb(251,252,251)" stroke-width="1" opacity="0.011764705882352941" d="M 11.5 5 L 11.5 6 L 11.5 5 Z " /><path fill="rgb(251,252,251)" stroke="rgb(251,252,251)" stroke-width="1" opacity="0.011764705882352941" d="M 12.5 7 L 12.5 8 L 12.5 7 Z " /><path fill="rgb(251,252,251)" stroke="rgb(251,252,251)" stroke-width="1" opacity="0.011764705882352941" d="M 13.5 9 L 13.5 10 L 13.5 9 Z " /><path fill="rgb(251,252,251)" stroke="rgb(251,252,251)" stroke-width="1" opacity="0.011764705882352941" d="M 7.5 10 Q 9 11 6.5 12 Q 5 11 7.5 10 Z " /><path fill="rgb(251,252,251)" stroke="rgb(251,252,251)" stroke-width="1" opacity="0.011764705882352941" d="M 15.5 13 L 15.5 14 L 15.5 13 Z " /><path fill="rgb(214,224,200)" stroke="rgb(214,224,200)" stroke-width="1" opacity="0.6313725490196078" d="M 3.5 9 L 3.5 10 L 3.5 9 Z " /><path fill="rgb(214,224,200)" stroke="rgb(214,224,200)" stroke-width="1" opacity="0.6313725490196078" d="M 2.5 11 L 2.5 12 L 2.5 11 Z " /><path fill="rgb(148,175,111)" stroke="rgb(148,175,111)" stroke-width="1" opacity="0.792156862745098" d="M 7.5 9 L 7.5 10 L 7.5 9 Z " /><path fill="rgb(148,175,111)" stroke="rgb(148,175,111)" stroke-width="1" opacity="0.792156862745098" d="M 6.5 12 L 6.5 13 L 6.5 12 Z " /><path fill="rgb(148,175,111)" stroke="rgb(148,175,111)" stroke-width="1" opacity="0.792156862745098" d="M 14.5 13 L 14.5 14 L 14.5 13 Z " /><path fill="rgb(220,229,208)" stroke="rgb(220,229,208)" stroke-width="1" opacity="0.3764705882352941" d="M 8.5 0 L 8.5 1 L 8.5 0 Z " /><path fill="rgb(220,229,208)" stroke="rgb(220,229,208)" stroke-width="1" opacity="0.3764705882352941" d="M 11.5 6 L 11.5 7 L 11.5 6 Z " /><path fill="rgb(220,229,208)" stroke="rgb(220,229,208)" stroke-width="1" opacity="0.3764705882352941" d="M 12.5 8 L 12.5 9 L 12.5 8 Z " /><path fill="rgb(220,229,208)" stroke="rgb(220,229,208)" stroke-width="1" opacity="0.3764705882352941" d="M 8.5 9 L 8.5 10 L 8.5 9 Z " /><path fill="rgb(167,189,136)" stroke="rgb(167,189,136)" stroke-width="1" opacity="0.996078431372549" d="M 4.5 8 L 5 11.5 L 4 11.5 L 4.5 8 Z " /><path fill="rgb(167,189,136)" stroke="rgb(167,189,136)" stroke-width="1" opacity="0.996078431372549" d="M 11.5 8 L 11.5 9 L 11.5 8 Z " /><path fill="rgb(167,189,136)" stroke="rgb(167,189,136)" stroke-width="1" opacity="0.996078431372549" d="M 9.5 9 L 9.5 10 L 9.5 9 Z " /><path fill="rgb(167,189,136)" stroke="rgb(167,189,136)" stroke-width="1" opacity="0.996078431372549" d="M 9.5 14 L 9.5 15 L 9.5 14 Z " /><path fill="rgb(169,191,139)" stroke="rgb(169,191,139)" stroke-width="1" opacity="0.803921568627451" d="M 12.5 9 L 12.5 10 L 12.5 9 Z " /><path fill="rgb(169,191,139)" stroke="rgb(169,191,139)" stroke-width="1" opacity="0.803921568627451" d="M 13.5 11 L 13.5 12 L 13.5 11 Z " /><path fill="rgb(169,191,139)" stroke="rgb(169,191,139)" stroke-width="1" opacity="0.803921568627451" d="M 15.5 15 L 15.5 16 L 15.5 15 Z " /><path fill="rgb(151,177,115)" stroke="rgb(151,177,115)" stroke-width="1" opacity="0.9882352941176471" d="M 5.5 6 L 5.5 7 L 5.5 6 Z " /><path fill="rgb(151,177,115)" stroke="rgb(151,177,115)" stroke-width="1" opacity="0.9882352941176471" d="M 11.5 10 L 13 10.5 L 11.5 11 L 11.5 10 Z " /><path fill="rgb(190,207,167)" stroke="rgb(190,207,167)" stroke-width="1" opacity="0.9725490196078431" d="M 8.5 1 L 8.5 2 L 8.5 1 Z " /><path fill="rgb(190,207,167)" stroke="rgb(190,207,167)" stroke-width="1" opacity="0.9725490196078431" d="M 9.5 5 L 10 6.5 L 9 6.5 L 9.5 5 Z " /><path fill="rgb(190,207,167)" stroke="rgb(190,207,167)" stroke-width="1" opacity="0.9725490196078431" d="M 11.5 7 L 11.5 8 L 11.5 7 Z " /><path fill="rgb(190,207,167)" stroke="rgb(190,207,167)" stroke-width="1" opacity="0.9725490196078431" d="M 3.5 10 L 3.5 11 L 3.5 10 Z " /><path fill="rgb(190,207,167)" stroke="rgb(190,207,167)" stroke-width="1" opacity="0.9725490196078431" d="M 2.5 13 L 2.5 14 L 2.5 13 Z " /><path fill="rgb(190,207,167)" stroke="rgb(190,207,167)" stroke-width="1" opacity="0.9725490196078431" d="M 11.5 15 L 11.5 16 L 11.5 15 Z " /><path fill="rgb(190,207,167)" stroke="rgb(190,207,167)" stroke-width="1" opacity="0.9725490196078431" d="M 14.5 15 L 14.5 16 L 14.5 15 Z " /><path fill="rgb(176,196,149)" stroke="rgb(176,196,149)" stroke-width="1" opacity="0.6196078431372549" d="M 7.5 1 L 7.5 2 L 7.5 1 Z " /><path fill="rgb(176,196,149)" stroke="rgb(176,196,149)" stroke-width="1" opacity="0.6196078431372549" d="M 6.5 3 L 6.5 4 L 6.5 3 Z " /><path fill="rgb(176,196,149)" stroke="rgb(176,196,149)" stroke-width="1" opacity="0.6196078431372549" d="M 5.5 5 L 5.5 6 L 5.5 5 Z " /><path fill="rgb(176,196,149)" stroke="rgb(176,196,149)" stroke-width="1" opacity="0.6196078431372549" d="M 6.5 10 Q 8 11 5.5 12 Q 4 11 6.5 10 Z " /><path fill="rgb(234,239,227)" stroke="rgb(234,239,227)" stroke-width="1" opacity="0.15294117647058825" d="M 7.5 0 L 7.5 1 L 7.5 0 Z " /><path fill="rgb(234,239,227)" stroke="rgb(234,239,227)" stroke-width="1" opacity="0.15294117647058825" d="M 6.5 2 L 6.5 3 L 6.5 2 Z " /><path fill="rgb(234,239,227)" stroke="rgb(234,239,227)" stroke-width="1" opacity="0.15294117647058825" d="M 8.5 11 L 9 12.5 L 8 12.5 L 8.5 11 Z " /><path fill="rgb(232,238,224)" stroke="rgb(232,238,224)" stroke-width="1" opacity="0.3176470588235294" d="M 9.5 2 L 9.5 3 L 9.5 2 Z " /><path fill="rgb(232,238,224)" stroke="rgb(232,238,224)" stroke-width="1" opacity="0.3176470588235294" d="M 10.5 4 L 10.5 5 L 10.5 4 Z " /><path fill="rgb(232,238,224)" stroke="rgb(232,238,224)" stroke-width="1" opacity="0.3176470588235294" d="M 8.5 10 L 8.5 11 L 8.5 10 Z " /><path fill="rgb(138,168,98)" stroke="rgb(138,168,98)" stroke-width="1" opacity="1" d="M 8.5 6 L 8.5 7 L 8.5 6 Z " /><path fill="rgb(138,168,98)" stroke="rgb(138,168,98)" stroke-width="1" opacity="1" d="M 10.5 12 L 12 12.5 L 10.5 13 L 10.5 12 Z " /><path fill="rgb(138,168,98)" stroke="rgb(138,168,98)" stroke-width="1" opacity="1" d="M 6.5 15 L 6.5 16 L 6.5 15 Z " /><path fill="rgb(134,164,92)" stroke="rgb(134,164,92)" stroke-width="1" opacity="1" d="M 12.5 12 L 14 12.5 L 11.5 14 Q 10 13 12.5 12 Z " /><path fill="rgb(134,164,92)" stroke="rgb(134,164,92)" stroke-width="1" opacity="1" d="M 6.5 13 L 7 14.5 L 6 14.5 L 6.5 13 Z " /><path fill="rgb(215,224,201)" stroke="rgb(215,224,201)" stroke-width="1" opacity="0.3058823529411765" d="M 13.5 10 L 13.5 11 L 13.5 10 Z " /><path fill="rgb(215,224,201)" stroke="rgb(215,224,201)" stroke-width="1" opacity="0.3058823529411765" d="M 14.5 12 L 14.5 13 L 14.5 12 Z " /><path fill="rgb(215,224,201)" stroke="rgb(215,224,201)" stroke-width="1" opacity="0.3058823529411765" d="M 15.5 14 L 15.5 15 L 15.5 14 Z " /><path fill="rgb(234,239,226)" stroke="rgb(234,239,226)" stroke-width="1" opacity="0.6470588235294118" d="M 1.5 13 L 1.5 14 L 1.5 13 Z " /><path fill="rgb(120,155,74)" stroke="rgb(120,155,74)" stroke-width="1" opacity="1" d="M 5.5 12 L 5.5 13 L 5.5 12 Z " /><path fill="rgb(120,155,74)" stroke="rgb(120,155,74)" stroke-width="1" opacity="1" d="M 3.5 13 L 3.5 14 L 3.5 13 Z " /><path fill="rgb(122,156,77)" stroke="rgb(122,156,77)" stroke-width="1" opacity="1" d="M 5.5 13 L 6 14.5 L 5 14.5 L 5.5 13 Z " /><path fill="rgb(125,159,81)" stroke="rgb(125,159,81)" stroke-width="1" opacity="1" d="M 8.5 8 L 8.5 9 L 8.5 8 Z " /><path fill="rgb(125,159,81)" stroke="rgb(125,159,81)" stroke-width="1" opacity="1" d="M 13.5 13 L 13.5 14 L 13.5 13 Z " /><path fill="rgb(125,159,81)" stroke="rgb(125,159,81)" stroke-width="1" opacity="1" d="M 5.5 15 L 5.5 16 L 5.5 15 Z " /><path fill="rgb(144,172,105)" stroke="rgb(144,172,105)" stroke-width="1" opacity="1" d="M 12.5 11 L 12.5 12 L 12.5 11 Z " /><path fill="rgb(144,172,105)" stroke="rgb(144,172,105)" stroke-width="1" opacity="1" d="M 9.5 12 Q 12 13 10.5 14 Q 8 13 9.5 12 Z " /><path fill="rgb(144,172,105)" stroke="rgb(144,172,105)" stroke-width="1" opacity="1" d="M 7.5 13 L 7.5 14 L 7.5 13 Z " /><path fill="rgb(155,180,121)" stroke="rgb(155,180,121)" stroke-width="1" opacity="0.9921568627450981" d="M 10.5 10 L 10.5 11 L 10.5 10 Z " /><path fill="rgb(155,180,121)" stroke="rgb(155,180,121)" stroke-width="1" opacity="0.9921568627450981" d="M 8 13 L 10 13.5 Q 9 16 8 14.5 L 8 13 Z " /><path fill="rgb(178,197,151)" stroke="rgb(178,197,151)" stroke-width="1" opacity="1" d="M 10.5 7 L 10.5 8 L 10.5 7 Z " /><path fill="rgb(178,197,151)" stroke="rgb(178,197,151)" stroke-width="1" opacity="1" d="M 10.5 14 L 10.5 15 L 10.5 14 Z " /><path fill="rgb(159,183,125)" stroke="rgb(159,183,125)" stroke-width="1" opacity="1" d="M 8.5 4 L 8.5 5 L 8.5 4 Z " /><path fill="rgb(159,183,125)" stroke="rgb(159,183,125)" stroke-width="1" opacity="1" d="M 10.5 9 L 12 9.5 L 9.5 11 Q 8 10 10.5 9 Z " /><path fill="rgb(159,183,125)" stroke="rgb(159,183,125)" stroke-width="1" opacity="1" d="M 12.5 14 L 12.5 15 L 12.5 14 Z " /><path fill="rgb(159,183,125)" stroke="rgb(159,183,125)" stroke-width="1" opacity="1" d="M 8.5 15 L 8.5 16 L 8.5 15 Z " /><path fill="rgb(117,153,69)" stroke="rgb(117,153,69)" stroke-width="1" opacity="0.9921568627450981" d="M 14.5 14 L 14.5 15 L 14.5 14 Z " /><path fill="rgb(199,213,180)" stroke="rgb(199,213,180)" stroke-width="1" opacity="0.5803921568627451" d="M 4.5 7 L 4.5 8 L 4.5 7 Z " /><path fill="rgb(199,213,180)" stroke="rgb(199,213,180)" stroke-width="1" opacity="0.5803921568627451" d="M 7.5 12 L 7.5 13 L 7.5 12 Z " /><path fill="rgb(199,213,180)" stroke="rgb(199,213,180)" stroke-width="1" opacity="0.5803921568627451" d="M 0.5 15 L 0.5 16 L 0.5 15 Z " /><path fill="rgb(100,140,48)" stroke="rgb(100,140,48)" stroke-width="1" opacity="1" d="M 3.5 14 L 4 16 L 1 15.5 L 3.5 14 Z " /></svg>