<svg width="16" height="16" version="1.1" xmlns="http://www.w3.org/2000/svg" desc="Created with imagetracer.js version 1.2.6" ><path fill="rgb(255,254,252)" stroke="rgb(255,254,252)" stroke-width="1" opacity="1" d="M 9.5 1 L 9.5 2 L 9.5 1 Z " /><path fill="rgb(255,254,252)" stroke="rgb(255,254,252)" stroke-width="1" opacity="1" d="M 13 2 L 15 2.5 L 14 5.5 L 14.5 7 Q 12 5.81 13 2 Z " /><path fill="rgb(255,254,252)" stroke="rgb(255,254,252)" stroke-width="1" opacity="1" d="M 8.5 3 L 8.5 4 L 8.5 3 Z " /><path fill="rgb(255,254,252)" stroke="rgb(255,254,252)" stroke-width="1" opacity="1" d="M 15.5 9 L 15.5 10 L 15.5 9 Z " /><path fill="rgb(255,254,252)" stroke="rgb(255,254,252)" stroke-width="1" opacity="1" d="M 3.5 15 L 3.5 16 L 3.5 15 Z " /><path fill="rgb(255,255,255)" stroke="rgb(255,255,255)" stroke-width="1" opacity="1" d="M 0 0 L 8 0 L 8 8 L 0 8 L 0 0 Z " /><path fill="rgb(255,255,255)" stroke="rgb(255,255,255)" stroke-width="1" opacity="1" d="M 14.5 0 L 15 1.5 L 14 1.5 L 14.5 0 Z " /><path fill="rgb(255,255,255)" stroke="rgb(255,255,255)" stroke-width="1" opacity="1" d="M 2.5 9 L 2.5 10 L 2.5 9 Z " /><path fill="rgb(255,255,255)" stroke="rgb(255,255,255)" stroke-width="1" opacity="1" d="M 2.5 14 L 3 16 L 1 15.5 L 2.5 14 Z " /><path fill="rgb(254,249,242)" stroke="rgb(254,249,242)" stroke-width="1" opacity="1" d="M 8 0 L 10 0.5 L 8.5 3 L 8 0 Z " /><path fill="rgb(243,251,255)" stroke="rgb(243,251,255)" stroke-width="1" opacity="1" d="M 10.5 2 L 10.5 3 L 10.5 2 Z " /><path fill="rgb(243,251,255)" stroke="rgb(243,251,255)" stroke-width="1" opacity="1" d="M 12.5 4 L 13 5.5 L 12 5.5 L 12.5 4 Z " /><path fill="rgb(243,251,255)" stroke="rgb(243,251,255)" stroke-width="1" opacity="1" d="M 2.5 12 L 2.5 13 L 2.5 12 Z " /><path fill="rgb(243,251,255)" stroke="rgb(243,251,255)" stroke-width="1" opacity="1" d="M 10.5 15 L 10.5 16 L 10.5 15 Z " /><path fill="rgb(224,241,252)" stroke="rgb(224,241,252)" stroke-width="1" opacity="1" d="M 10.5 3 L 10.5 4 L 10.5 3 Z " /><path fill="rgb(224,241,252)" stroke="rgb(224,241,252)" stroke-width="1" opacity="1" d="M 5.5 10 L 5.5 11 L 5.5 10 Z " /><path fill="rgb(224,241,252)" stroke="rgb(224,241,252)" stroke-width="1" opacity="1" d="M 10.5 11 L 10.5 12 L 10.5 11 Z " /><path fill="rgb(224,241,252)" stroke="rgb(224,241,252)" stroke-width="1" opacity="1" d="M 3.5 12 L 3.5 13 L 3.5 12 Z " /><path fill="rgb(247,249,252)" stroke="rgb(247,249,252)" stroke-width="1" opacity="1" d="M 12.5 3 L 12.5 4 L 12.5 3 Z " /><path fill="rgb(247,249,252)" stroke="rgb(247,249,252)" stroke-width="1" opacity="1" d="M 0.5 10 L 0.5 11 L 0.5 10 Z " /><path fill="rgb(247,249,252)" stroke="rgb(247,249,252)" stroke-width="1" opacity="1" d="M 0.5 13 L 0.5 14 L 0.5 13 Z " /><path fill="rgb(247,249,252)" stroke="rgb(247,249,252)" stroke-width="1" opacity="1" d="M 0.5 15 L 0.5 16 L 0.5 15 Z " /><path fill="rgb(253,251,250)" stroke="rgb(253,251,250)" stroke-width="1" opacity="1" d="M 14.5 4 L 14.5 5 L 14.5 4 Z " /><path fill="rgb(253,251,250)" stroke="rgb(253,251,250)" stroke-width="1" opacity="1" d="M 1.5 8 L 3 8.5 L 1.5 9 L 1.5 8 Z " /><path fill="rgb(246,254,255)" stroke="rgb(246,254,255)" stroke-width="1" opacity="1" d="M 15.5 0 L 15.5 1 L 15.5 0 Z " /><path fill="rgb(246,254,255)" stroke="rgb(246,254,255)" stroke-width="1" opacity="1" d="M 11.5 1 L 11.5 2 L 11.5 1 Z " /><path fill="rgb(246,254,255)" stroke="rgb(246,254,255)" stroke-width="1" opacity="1" d="M 8.5 5 L 8.5 6 L 8.5 5 Z " /><path fill="rgb(246,254,255)" stroke="rgb(246,254,255)" stroke-width="1" opacity="1" d="M 14.5 8 L 14.5 9 L 14.5 8 Z " /><path fill="rgb(246,254,255)" stroke="rgb(246,254,255)" stroke-width="1" opacity="1" d="M 3.5 10 L 3.5 11 L 3.5 10 Z " /><path fill="rgb(184,219,237)" stroke="rgb(184,219,237)" stroke-width="1" opacity="1" d="M 10.5 5 L 10.5 6 L 10.5 5 Z " /><path fill="rgb(184,219,237)" stroke="rgb(184,219,237)" stroke-width="1" opacity="1" d="M 10.5 8 L 10.5 9 L 10.5 8 Z " /><path fill="rgb(184,219,237)" stroke="rgb(184,219,237)" stroke-width="1" opacity="1" d="M 6.5 11 L 6.5 12 L 6.5 11 Z " /><path fill="rgb(184,219,237)" stroke="rgb(184,219,237)" stroke-width="1" opacity="1" d="M 11.5 13 L 11.5 14 L 11.5 13 Z " /><path fill="rgb(238,244,254)" stroke="rgb(238,244,254)" stroke-width="1" opacity="1" d="M 12.5 6 L 12.5 7 L 12.5 6 Z " /><path fill="rgb(238,244,254)" stroke="rgb(238,244,254)" stroke-width="1" opacity="1" d="M 6.5 8 L 6.5 9 L 6.5 8 Z " /><path fill="rgb(238,244,254)" stroke="rgb(238,244,254)" stroke-width="1" opacity="1" d="M 8.5 15 L 10 15.5 L 8.5 16 L 8.5 15 Z " /><path fill="rgb(255,250,249)" stroke="rgb(255,250,249)" stroke-width="1" opacity="1" d="M 13.5 0 L 14 1.5 L 13 1.5 L 13.5 0 Z " /><path fill="rgb(214,237,246)" stroke="rgb(214,237,246)" stroke-width="1" opacity="1" d="M 8.5 7 L 8.5 8 L 8.5 7 Z " /><path fill="rgb(214,237,246)" stroke="rgb(214,237,246)" stroke-width="1" opacity="1" d="M 12.5 8 L 12.5 9 L 12.5 8 Z " /><path fill="rgb(214,237,246)" stroke="rgb(214,237,246)" stroke-width="1" opacity="1" d="M 8.5 13 L 8.5 14 L 8.5 13 Z " /><path fill="rgb(167,200,226)" stroke="rgb(167,200,226)" stroke-width="1" opacity="1" d="M 10.5 7 L 10.5 8 L 10.5 7 Z " /><path fill="rgb(167,200,226)" stroke="rgb(167,200,226)" stroke-width="1" opacity="1" d="M 7.5 13 L 7.5 14 L 7.5 13 Z " /><path fill="rgb(167,200,226)" stroke="rgb(167,200,226)" stroke-width="1" opacity="1" d="M 13.5 14 L 13.5 15 L 13.5 14 Z " /><path fill="rgb(233,245,253)" stroke="rgb(233,245,253)" stroke-width="1" opacity="1" d="M 11.5 2 L 11.5 3 L 11.5 2 Z " /><path fill="rgb(233,245,253)" stroke="rgb(233,245,253)" stroke-width="1" opacity="1" d="M 12.5 7 L 12.5 8 L 12.5 7 Z " /><path fill="rgb(233,245,253)" stroke="rgb(233,245,253)" stroke-width="1" opacity="1" d="M 7.5 15 L 7.5 16 L 7.5 15 Z " /><path fill="rgb(254,252,249)" stroke="rgb(254,252,249)" stroke-width="1" opacity="1" d="M 14.5 3 L 14.5 4 L 14.5 3 Z " /><path fill="rgb(254,252,249)" stroke="rgb(254,252,249)" stroke-width="1" opacity="1" d="M 14.5 5 L 14.5 6 L 14.5 5 Z " /><path fill="rgb(254,252,249)" stroke="rgb(254,252,249)" stroke-width="1" opacity="1" d="M 14.5 7 L 14.5 8 L 14.5 7 Z " /><path fill="rgb(254,252,249)" stroke="rgb(254,252,249)" stroke-width="1" opacity="1" d="M 3.5 8 L 3.5 9 L 3.5 8 Z " /><path fill="rgb(254,252,249)" stroke="rgb(254,252,249)" stroke-width="1" opacity="1" d="M 15.5 15 L 15.5 16 L 15.5 15 Z " /><path fill="rgb(250,253,254)" stroke="rgb(250,253,254)" stroke-width="1" opacity="1" d="M 0.5 8 L 0.5 9 L 0.5 8 Z " /><path fill="rgb(250,253,254)" stroke="rgb(250,253,254)" stroke-width="1" opacity="1" d="M 1.5 10 L 3 10.5 L 1.5 11 L 1.5 10 Z " /><path fill="rgb(253,255,255)" stroke="rgb(253,255,255)" stroke-width="1" opacity="1" d="M 15.5 1 L 16 3.5 L 15 3.5 L 15.5 1 Z " /><path fill="rgb(253,255,255)" stroke="rgb(253,255,255)" stroke-width="1" opacity="1" d="M 15.5 6 L 15.5 7 L 15.5 6 Z " /><path fill="rgb(253,255,255)" stroke="rgb(253,255,255)" stroke-width="1" opacity="1" d="M 0.5 11 L 1 12.5 L 0 12.5 L 0.5 11 Z " /><path fill="rgb(253,255,255)" stroke="rgb(253,255,255)" stroke-width="1" opacity="1" d="M 14.5 15 L 14.5 16 L 14.5 15 Z " /><path fill="rgb(254,255,255)" stroke="rgb(254,255,255)" stroke-width="1" opacity="1" d="M 9.5 2 L 9.5 3 L 9.5 2 Z " /><path fill="rgb(254,255,255)" stroke="rgb(254,255,255)" stroke-width="1" opacity="1" d="M 15.5 7 L 15.5 8 L 15.5 7 Z " /><path fill="rgb(254,255,255)" stroke="rgb(254,255,255)" stroke-width="1" opacity="1" d="M 4.5 8 Q 6 9 3.5 10 Q 2 9 4.5 8 Z " /><path fill="rgb(254,255,255)" stroke="rgb(254,255,255)" stroke-width="1" opacity="1" d="M 0.5 9 L 2 9.5 L 0.5 10 L 0.5 9 Z " /><path fill="rgb(254,255,255)" stroke="rgb(254,255,255)" stroke-width="1" opacity="1" d="M 1.5 14 L 1.5 15 L 1.5 14 Z " /><path fill="rgb(240,252,255)" stroke="rgb(240,252,255)" stroke-width="1" opacity="1" d="M 9.5 4 L 9.5 5 L 9.5 4 Z " /><path fill="rgb(240,252,255)" stroke="rgb(240,252,255)" stroke-width="1" opacity="1" d="M 5.5 9 L 5.5 10 L 5.5 9 Z " /><path fill="rgb(240,252,255)" stroke="rgb(240,252,255)" stroke-width="1" opacity="1" d="M 6.5 15 L 6.5 16 L 6.5 15 Z " /><path fill="rgb(200,219,248)" stroke="rgb(200,219,248)" stroke-width="1" opacity="1" d="M 6.5 10 L 6.5 11 L 6.5 10 Z " /><path fill="rgb(200,219,248)" stroke="rgb(200,219,248)" stroke-width="1" opacity="1" d="M 10.5 10 L 10.5 11 L 10.5 10 Z " /><path fill="rgb(200,219,248)" stroke="rgb(200,219,248)" stroke-width="1" opacity="1" d="M 12.5 11 L 12.5 12 L 12.5 11 Z " /><path fill="rgb(200,219,248)" stroke="rgb(200,219,248)" stroke-width="1" opacity="1" d="M 15.5 13 L 15.5 14 L 15.5 13 Z " /><path fill="rgb(165,219,255)" stroke="rgb(165,219,255)" stroke-width="1" opacity="1" d="M 8.5 8 L 9 9.5 L 8 9.5 L 8.5 8 Z " /><path fill="rgb(187,213,231)" stroke="rgb(187,213,231)" stroke-width="1" opacity="1" d="M 9.5 6 L 9.5 7 L 9.5 6 Z " /><path fill="rgb(187,213,231)" stroke="rgb(187,213,231)" stroke-width="1" opacity="1" d="M 10.5 9 L 10.5 10 L 10.5 9 Z " /><path fill="rgb(187,213,231)" stroke="rgb(187,213,231)" stroke-width="1" opacity="1" d="M 5.5 12 Q 8 13 6.5 14 Q 4 13 5.5 12 Z " /><path fill="rgb(187,213,231)" stroke="rgb(187,213,231)" stroke-width="1" opacity="1" d="M 11.5 14 L 11.5 15 L 11.5 14 Z " /><path fill="rgb(218,236,250)" stroke="rgb(218,236,250)" stroke-width="1" opacity="1" d="M 9.5 5 L 9.5 6 L 9.5 5 Z " /><path fill="rgb(218,236,250)" stroke="rgb(218,236,250)" stroke-width="1" opacity="1" d="M 7.5 8 Q 9 9 6.5 10 Q 5 9 7.5 8 Z " /><path fill="rgb(218,236,250)" stroke="rgb(218,236,250)" stroke-width="1" opacity="1" d="M 12.5 9 L 12.5 10 L 12.5 9 Z " /><path fill="rgb(218,236,250)" stroke="rgb(218,236,250)" stroke-width="1" opacity="1" d="M 11.5 15 L 11.5 16 L 11.5 15 Z " /><path fill="rgb(202,227,246)" stroke="rgb(202,227,246)" stroke-width="1" opacity="1" d="M 10.5 4 Q 13 5 11.5 6 Q 9 5 10.5 4 Z " /><path fill="rgb(202,227,246)" stroke="rgb(202,227,246)" stroke-width="1" opacity="1" d="M 12.5 10 L 12.5 11 L 12.5 10 Z " /><path fill="rgb(199,215,217)" stroke="rgb(199,215,217)" stroke-width="1" opacity="1" d="M 14.5 10 L 14.5 11 L 14.5 10 Z " /><path fill="rgb(251,254,255)" stroke="rgb(251,254,255)" stroke-width="1" opacity="1" d="M 10.5 0 L 12 0.5 L 10.5 1 L 10.5 0 Z " /><path fill="rgb(251,254,255)" stroke="rgb(251,254,255)" stroke-width="1" opacity="1" d="M 8.5 4 L 8.5 5 L 8.5 4 Z " /><path fill="rgb(251,254,255)" stroke="rgb(251,254,255)" stroke-width="1" opacity="1" d="M 15.5 4 L 16 5.5 L 15 5.5 L 15.5 4 Z " /><path fill="rgb(251,254,255)" stroke="rgb(251,254,255)" stroke-width="1" opacity="1" d="M 5.5 8 Q 7 9 4.5 10 Q 3 9 5.5 8 Z " /><path fill="rgb(251,254,255)" stroke="rgb(251,254,255)" stroke-width="1" opacity="1" d="M 15.5 10 L 15.5 11 L 15.5 10 Z " /><path fill="rgb(251,254,255)" stroke="rgb(251,254,255)" stroke-width="1" opacity="1" d="M 1 11 L 3 11.5 Q 2 14 1 12.5 L 1 11 Z " /><path fill="rgb(251,254,255)" stroke="rgb(251,254,255)" stroke-width="1" opacity="1" d="M 0.5 14 L 0.5 15 L 0.5 14 Z " /><path fill="rgb(251,254,255)" stroke="rgb(251,254,255)" stroke-width="1" opacity="1" d="M 3.5 14 Q 6 15 4.5 16 Q 2 15 3.5 14 Z " /><path fill="rgb(249,255,254)" stroke="rgb(249,255,254)" stroke-width="1" opacity="1" d="M 10.5 1 L 10.5 2 L 10.5 1 Z " /><path fill="rgb(249,255,254)" stroke="rgb(249,255,254)" stroke-width="1" opacity="1" d="M 9.5 3 L 9.5 4 L 9.5 3 Z " /><path fill="rgb(249,255,254)" stroke="rgb(249,255,254)" stroke-width="1" opacity="1" d="M 4.5 14 Q 7 15 5.5 16 Q 3 15 4.5 14 Z " /><path fill="rgb(243,254,255)" stroke="rgb(243,254,255)" stroke-width="1" opacity="1" d="M 3.5 11 L 3.5 12 L 3.5 11 Z " /><path fill="rgb(209,237,253)" stroke="rgb(209,237,253)" stroke-width="1" opacity="1" d="M 11.5 7 L 11.5 8 L 11.5 7 Z " /><path fill="rgb(209,237,253)" stroke="rgb(209,237,253)" stroke-width="1" opacity="1" d="M 5.5 11 L 5.5 12 L 5.5 11 Z " /><path fill="rgb(209,237,253)" stroke="rgb(209,237,253)" stroke-width="1" opacity="1" d="M 11.5 11 L 12 12.5 L 11 12.5 L 11.5 11 Z " /><path fill="rgb(209,237,253)" stroke="rgb(209,237,253)" stroke-width="1" opacity="1" d="M 9.5 12 L 9.5 13 L 9.5 12 Z " /><path fill="rgb(209,237,253)" stroke="rgb(209,237,253)" stroke-width="1" opacity="1" d="M 12.5 15 L 12.5 16 L 12.5 15 Z " /><path fill="rgb(156,201,234)" stroke="rgb(156,201,234)" stroke-width="1" opacity="1" d="M 7.5 11 L 7.5 12 L 7.5 11 Z " /><path fill="rgb(156,201,234)" stroke="rgb(156,201,234)" stroke-width="1" opacity="1" d="M 13.5 12 L 15 12.5 L 12.5 14 Q 11 13 13.5 12 Z " /><path fill="rgb(135,173,209)" stroke="rgb(135,173,209)" stroke-width="1" opacity="1" d="M 9.5 8 L 10 9.5 L 9 9.5 L 9.5 8 Z " /><path fill="rgb(135,173,209)" stroke="rgb(135,173,209)" stroke-width="1" opacity="1" d="M 8.5 11 Q 10 12 7.5 13 Q 6 12 8.5 11 Z " /><path fill="rgb(135,173,209)" stroke="rgb(135,173,209)" stroke-width="1" opacity="1" d="M 13.5 13 L 15 13.5 L 13.5 14 L 13.5 13 Z " /><path fill="rgb(163,198,219)" stroke="rgb(163,198,219)" stroke-width="1" opacity="1" d="M 9.5 7 L 9.5 8 L 9.5 7 Z " /><path fill="rgb(163,198,219)" stroke="rgb(163,198,219)" stroke-width="1" opacity="1" d="M 6.5 12 L 6.5 13 L 6.5 12 Z " /><path fill="rgb(163,198,219)" stroke="rgb(163,198,219)" stroke-width="1" opacity="1" d="M 8.5 12 L 8.5 13 L 8.5 12 Z " /><path fill="rgb(228,253,255)" stroke="rgb(228,253,255)" stroke-width="1" opacity="1" d="M 13.5 8 L 13.5 9 L 13.5 8 Z " /><path fill="rgb(228,253,255)" stroke="rgb(228,253,255)" stroke-width="1" opacity="1" d="M 10.5 12 L 10.5 13 L 10.5 12 Z " /><path fill="rgb(172,219,249)" stroke="rgb(172,219,249)" stroke-width="1" opacity="1" d="M 12.5 12 L 12.5 13 L 12.5 12 Z " /><path fill="rgb(149,179,229)" stroke="rgb(149,179,229)" stroke-width="1" opacity="1" d="M 8.5 10 L 10 10.5 L 8.5 11 L 8.5 10 Z " /><path fill="rgb(208,233,252)" stroke="rgb(208,233,252)" stroke-width="1" opacity="1" d="M 11.5 6 L 11.5 7 L 11.5 6 Z " /><path fill="rgb(208,233,252)" stroke="rgb(208,233,252)" stroke-width="1" opacity="1" d="M 15.5 12 L 15.5 13 L 15.5 12 Z " /><path fill="rgb(244,244,247)" stroke="rgb(244,244,247)" stroke-width="1" opacity="1" d="M 13.5 7 L 13.5 8 L 13.5 7 Z " /><path fill="rgb(244,244,247)" stroke="rgb(244,244,247)" stroke-width="1" opacity="1" d="M 1.5 13 L 3 13.5 L 1.5 14 L 1.5 13 Z " /><path fill="rgb(224,232,240)" stroke="rgb(224,232,240)" stroke-width="1" opacity="1" d="M 11.5 3 L 11.5 4 L 11.5 3 Z " /><path fill="rgb(224,232,240)" stroke="rgb(224,232,240)" stroke-width="1" opacity="1" d="M 14.5 9 L 14.5 10 L 14.5 9 Z " /><path fill="rgb(224,232,240)" stroke="rgb(224,232,240)" stroke-width="1" opacity="1" d="M 3.5 13 L 3.5 14 L 3.5 13 Z " /><path fill="rgb(224,232,240)" stroke="rgb(224,232,240)" stroke-width="1" opacity="1" d="M 9.5 14 L 9.5 15 L 9.5 14 Z " /><path fill="rgb(224,232,240)" stroke="rgb(224,232,240)" stroke-width="1" opacity="1" d="M 15.5 14 L 15.5 15 L 15.5 14 Z " /><path fill="rgb(200,220,236)" stroke="rgb(200,220,236)" stroke-width="1" opacity="1" d="M 11.5 4 L 11.5 5 L 11.5 4 Z " /><path fill="rgb(200,220,236)" stroke="rgb(200,220,236)" stroke-width="1" opacity="1" d="M 7.5 9 L 7.5 10 L 7.5 9 Z " /><path fill="rgb(200,220,236)" stroke="rgb(200,220,236)" stroke-width="1" opacity="1" d="M 13.5 9 L 13.5 10 L 13.5 9 Z " /><path fill="rgb(200,220,236)" stroke="rgb(200,220,236)" stroke-width="1" opacity="1" d="M 5.5 13 L 5.5 14 L 5.5 13 Z " /><path fill="rgb(244,255,255)" stroke="rgb(244,255,255)" stroke-width="1" opacity="1" d="M 5.5 14 L 5.5 15 L 5.5 14 Z " /><path fill="rgb(226,247,254)" stroke="rgb(226,247,254)" stroke-width="1" opacity="1" d="M 8.5 6 L 8.5 7 L 8.5 6 Z " /><path fill="rgb(226,247,254)" stroke="rgb(226,247,254)" stroke-width="1" opacity="1" d="M 11.5 8 L 11.5 9 L 11.5 8 Z " /><path fill="rgb(226,247,254)" stroke="rgb(226,247,254)" stroke-width="1" opacity="1" d="M 11.5 10 L 11.5 11 L 11.5 10 Z " /><path fill="rgb(226,247,254)" stroke="rgb(226,247,254)" stroke-width="1" opacity="1" d="M 4.5 11 L 4.5 12 L 4.5 11 Z " /><path fill="rgb(226,247,254)" stroke="rgb(226,247,254)" stroke-width="1" opacity="1" d="M 7.5 14 L 7.5 15 L 7.5 14 Z " /><path fill="rgb(235,252,255)" stroke="rgb(235,252,255)" stroke-width="1" opacity="1" d="M 11.5 9 L 11.5 10 L 11.5 9 Z " /><path fill="rgb(235,252,255)" stroke="rgb(235,252,255)" stroke-width="1" opacity="1" d="M 4.5 10 L 4.5 11 L 4.5 10 Z " /><path fill="rgb(235,252,255)" stroke="rgb(235,252,255)" stroke-width="1" opacity="1" d="M 15.5 11 L 15.5 12 L 15.5 11 Z " /><path fill="rgb(235,252,255)" stroke="rgb(235,252,255)" stroke-width="1" opacity="1" d="M 6.5 14 L 6.5 15 L 6.5 14 Z " /><path fill="rgb(235,252,255)" stroke="rgb(235,252,255)" stroke-width="1" opacity="1" d="M 8.5 14 L 8.5 15 L 8.5 14 Z " /><path fill="rgb(235,252,255)" stroke="rgb(235,252,255)" stroke-width="1" opacity="1" d="M 13.5 15 L 13.5 16 L 13.5 15 Z " /><path fill="rgb(208,230,236)" stroke="rgb(208,230,236)" stroke-width="1" opacity="1" d="M 4.5 12 L 5 13.5 L 4 13.5 L 4.5 12 Z " /><path fill="rgb(208,230,236)" stroke="rgb(208,230,236)" stroke-width="1" opacity="1" d="M 9.5 13 Q 11.75 12.25 11 14.5 L 10.5 15 Q 8 14 9.5 13 Z " /><path fill="rgb(175,206,230)" stroke="rgb(175,206,230)" stroke-width="1" opacity="1" d="M 10.5 6 L 10.5 7 L 10.5 6 Z " /><path fill="rgb(175,206,230)" stroke="rgb(175,206,230)" stroke-width="1" opacity="1" d="M 7.5 10 L 7.5 11 L 7.5 10 Z " /><path fill="rgb(175,206,230)" stroke="rgb(175,206,230)" stroke-width="1" opacity="1" d="M 9.5 11 L 9.5 12 L 9.5 11 Z " /><path fill="rgb(175,206,230)" stroke="rgb(175,206,230)" stroke-width="1" opacity="1" d="M 13.5 11 L 15 11.5 L 13.5 12 L 13.5 11 Z " /><path fill="rgb(175,206,230)" stroke="rgb(175,206,230)" stroke-width="1" opacity="1" d="M 12.5 14 L 12.5 15 L 12.5 14 Z " /><path fill="rgb(178,199,217)" stroke="rgb(178,199,217)" stroke-width="1" opacity="1" d="M 13.5 10 L 13.5 11 L 13.5 10 Z " /><path fill="rgb(178,199,217)" stroke="rgb(178,199,217)" stroke-width="1" opacity="1" d="M 14.5 14 L 14.5 15 L 14.5 14 Z " /><path fill="rgb(248,248,248)" stroke="rgb(248,248,248)" stroke-width="1" opacity="1" d="M 12.5 0 L 13 2.5 L 12 2.5 L 12.5 0 Z " /><path fill="rgb(248,248,248)" stroke="rgb(248,248,248)" stroke-width="1" opacity="1" d="M 13.5 6 L 13.5 7 L 13.5 6 Z " /><path fill="rgb(248,248,248)" stroke="rgb(248,248,248)" stroke-width="1" opacity="1" d="M 15.5 8 L 15.5 9 L 15.5 8 Z " /></svg>