<svg width="16" height="16" version="1.1" xmlns="http://www.w3.org/2000/svg" desc="Created with imagetracer.js version 1.2.6" ><path fill="rgb(4,157,87)" stroke="rgb(4,157,87)" stroke-width="1" opacity="0" d="M 1.5 1 L 1.5 2 L 1.5 1 Z " /><path fill="rgb(4,157,87)" stroke="rgb(4,157,87)" stroke-width="1" opacity="0" d="M 1.5 14 L 1.5 15 L 1.5 14 Z " /><path fill="rgb(8,160,91)" stroke="rgb(8,160,91)" stroke-width="1" opacity="0" d="M 0.5 2 L 0.5 3 L 0.5 2 Z " /><path fill="rgb(8,160,91)" stroke="rgb(8,160,91)" stroke-width="1" opacity="0" d="M 15.5 2 L 15.5 3 L 15.5 2 Z " /><path fill="rgb(8,160,91)" stroke="rgb(8,160,91)" stroke-width="1" opacity="0" d="M 0.5 13 L 0.5 14 L 0.5 13 Z " /><path fill="rgb(8,160,91)" stroke="rgb(8,160,91)" stroke-width="1" opacity="0" d="M 15.5 13 L 15.5 14 L 15.5 13 Z " /><path fill="rgb(0,134,49)" stroke="rgb(0,134,49)" stroke-width="1" opacity="0.00392156862745098" d="M 2.5 0 L 4 0.5 L 2.5 1 L 2.5 0 Z " /><path fill="rgb(0,134,49)" stroke="rgb(0,134,49)" stroke-width="1" opacity="0.00392156862745098" d="M 12.5 0 L 14 0.5 L 12.5 1 L 12.5 0 Z " /><path fill="rgb(0,134,49)" stroke="rgb(0,134,49)" stroke-width="1" opacity="0.00392156862745098" d="M 2.5 15 L 4 15.5 L 2.5 16 L 2.5 15 Z " /><path fill="rgb(0,134,49)" stroke="rgb(0,134,49)" stroke-width="1" opacity="0.00392156862745098" d="M 12.5 15 L 14 15.5 L 12.5 16 L 12.5 15 Z " /><path fill="rgb(149,214,184)" stroke="rgb(149,214,184)" stroke-width="1" opacity="0.984313725490196" d="M 3.5 2 Q 5 3 2.5 4 Q 1 3 3.5 2 Z " /><path fill="rgb(166,221,196)" stroke="rgb(166,221,196)" stroke-width="1" opacity="1" d="M 7.5 1 L 9 1.5 L 7.5 2 L 7.5 1 Z " /><path fill="rgb(166,221,196)" stroke="rgb(166,221,196)" stroke-width="1" opacity="1" d="M 5.5 2 L 5.5 3 L 5.5 2 Z " /><path fill="rgb(166,221,196)" stroke="rgb(166,221,196)" stroke-width="1" opacity="1" d="M 10.5 2 L 12 2.5 L 10.5 3 L 10.5 2 Z " /><path fill="rgb(166,221,196)" stroke="rgb(166,221,196)" stroke-width="1" opacity="1" d="M 13.5 4 L 13.5 5 L 13.5 4 Z " /><path fill="rgb(166,221,196)" stroke="rgb(166,221,196)" stroke-width="1" opacity="1" d="M 2.5 5 L 2.5 6 L 2.5 5 Z " /><path fill="rgb(166,221,196)" stroke="rgb(166,221,196)" stroke-width="1" opacity="1" d="M 2.5 10 L 2.5 11 L 2.5 10 Z " /><path fill="rgb(166,221,196)" stroke="rgb(166,221,196)" stroke-width="1" opacity="1" d="M 13.5 11 L 13.5 12 L 13.5 11 Z " /><path fill="rgb(166,221,196)" stroke="rgb(166,221,196)" stroke-width="1" opacity="1" d="M 4.5 13 L 6 13.5 L 4.5 14 L 4.5 13 Z " /><path fill="rgb(166,221,196)" stroke="rgb(166,221,196)" stroke-width="1" opacity="1" d="M 11.5 13 L 11.5 14 L 11.5 13 Z " /><path fill="rgb(166,221,196)" stroke="rgb(166,221,196)" stroke-width="1" opacity="1" d="M 7.5 14 L 9 14.5 L 7.5 15 L 7.5 14 Z " /><path fill="rgb(208,237,224)" stroke="rgb(208,237,224)" stroke-width="1" opacity="1" d="M 2.5 7 L 3 8.5 L 2 8.5 L 2.5 7 Z " /><path fill="rgb(208,237,224)" stroke="rgb(208,237,224)" stroke-width="1" opacity="1" d="M 13.5 7 L 14 8.5 L 13 8.5 L 13.5 7 Z " /><path fill="rgb(210,239,227)" stroke="rgb(210,239,227)" stroke-width="1" opacity="1" d="M 7.5 2 L 9 2.5 L 7.5 3 L 7.5 2 Z " /><path fill="rgb(210,239,227)" stroke="rgb(210,239,227)" stroke-width="1" opacity="1" d="M 7.5 13 L 9 13.5 L 7.5 14 L 7.5 13 Z " /><path fill="rgb(233,247,241)" stroke="rgb(233,247,241)" stroke-width="1" opacity="1" d="M 3.5 5 L 3.5 6 L 3.5 5 Z " /><path fill="rgb(161,219,192)" stroke="rgb(161,219,192)" stroke-width="1" opacity="1" d="M 3.5 3 L 3.5 4 L 3.5 3 Z " /><path fill="rgb(161,219,192)" stroke="rgb(161,219,192)" stroke-width="1" opacity="1" d="M 12.5 3 L 12.5 4 L 12.5 3 Z " /><path fill="rgb(161,219,192)" stroke="rgb(161,219,192)" stroke-width="1" opacity="1" d="M 3.5 12 L 3.5 13 L 3.5 12 Z " /><path fill="rgb(161,219,192)" stroke="rgb(161,219,192)" stroke-width="1" opacity="1" d="M 12.5 12 L 12.5 13 L 12.5 12 Z " /><path fill="rgb(42,173,113)" stroke="rgb(42,173,113)" stroke-width="1" opacity="0.4627450980392157" d="M 1.5 3 L 1.5 4 L 1.5 3 Z " /><path fill="rgb(42,173,113)" stroke="rgb(42,173,113)" stroke-width="1" opacity="0.4627450980392157" d="M 1.5 12 L 1.5 13 L 1.5 12 Z " /><path fill="rgb(4,158,88)" stroke="rgb(4,158,88)" stroke-width="1" opacity="0.19215686274509805" d="M 0.5 4 L 0.5 5 L 0.5 4 Z " /><path fill="rgb(4,158,88)" stroke="rgb(4,158,88)" stroke-width="1" opacity="0.19215686274509805" d="M 15.5 4 L 15.5 5 L 15.5 4 Z " /><path fill="rgb(4,158,88)" stroke="rgb(4,158,88)" stroke-width="1" opacity="0.19215686274509805" d="M 0.5 11 L 0.5 12 L 0.5 11 Z " /><path fill="rgb(4,158,88)" stroke="rgb(4,158,88)" stroke-width="1" opacity="0.19215686274509805" d="M 15.5 11 L 15.5 12 L 15.5 11 Z " /><path fill="rgb(113,200,161)" stroke="rgb(113,200,161)" stroke-width="1" opacity="0.8745098039215686" d="M 1.5 4 L 1.5 5 L 1.5 4 Z " /><path fill="rgb(193,231,214)" stroke="rgb(193,231,214)" stroke-width="1" opacity="1" d="M 6.5 2 L 6.5 3 L 6.5 2 Z " /><path fill="rgb(193,231,214)" stroke="rgb(193,231,214)" stroke-width="1" opacity="1" d="M 9.5 2 L 9.5 3 L 9.5 2 Z " /><path fill="rgb(193,231,214)" stroke="rgb(193,231,214)" stroke-width="1" opacity="1" d="M 11.5 3 Q 14 4 12.5 5 Q 10 4 11.5 3 Z " /><path fill="rgb(193,231,214)" stroke="rgb(193,231,214)" stroke-width="1" opacity="1" d="M 2.5 6 L 2.5 7 L 2.5 6 Z " /><path fill="rgb(193,231,214)" stroke="rgb(193,231,214)" stroke-width="1" opacity="1" d="M 13.5 6 L 13.5 7 L 13.5 6 Z " /><path fill="rgb(193,231,214)" stroke="rgb(193,231,214)" stroke-width="1" opacity="1" d="M 2.5 9 L 2.5 10 L 2.5 9 Z " /><path fill="rgb(193,231,214)" stroke="rgb(193,231,214)" stroke-width="1" opacity="1" d="M 13.5 9 L 13.5 10 L 13.5 9 Z " /><path fill="rgb(193,231,214)" stroke="rgb(193,231,214)" stroke-width="1" opacity="1" d="M 12.5 11 Q 14 12 11.5 13 Q 10 12 12.5 11 Z " /><path fill="rgb(193,231,214)" stroke="rgb(193,231,214)" stroke-width="1" opacity="1" d="M 4.5 12 L 4.5 13 L 4.5 12 Z " /><path fill="rgb(193,231,214)" stroke="rgb(193,231,214)" stroke-width="1" opacity="1" d="M 6.5 13 L 6.5 14 L 6.5 13 Z " /><path fill="rgb(193,231,214)" stroke="rgb(193,231,214)" stroke-width="1" opacity="1" d="M 9.5 13 L 9.5 14 L 9.5 13 Z " /><path fill="rgb(244,246,239)" stroke="rgb(244,246,239)" stroke-width="1" opacity="1" d="M 5.5 4 L 5.5 5 L 5.5 4 Z " /><path fill="rgb(244,246,239)" stroke="rgb(244,246,239)" stroke-width="1" opacity="1" d="M 3.5 8 L 3.5 9 L 3.5 8 Z " /><path fill="rgb(194,168,116)" stroke="rgb(194,168,116)" stroke-width="1" opacity="1" d="M 7.5 4 L 7.5 5 L 7.5 4 Z " /><path fill="rgb(194,168,116)" stroke="rgb(194,168,116)" stroke-width="1" opacity="1" d="M 5.5 7 L 5.5 8 L 5.5 7 Z " /><path fill="rgb(194,168,116)" stroke="rgb(194,168,116)" stroke-width="1" opacity="1" d="M 7.5 11 L 7.5 12 L 7.5 11 Z " /><path fill="rgb(207,187,145)" stroke="rgb(207,187,145)" stroke-width="1" opacity="1" d="M 5.5 5 L 5.5 6 L 5.5 5 Z " /><path fill="rgb(207,187,145)" stroke="rgb(207,187,145)" stroke-width="1" opacity="1" d="M 8.5 6 L 8.5 7 L 8.5 6 Z " /><path fill="rgb(207,187,145)" stroke="rgb(207,187,145)" stroke-width="1" opacity="1" d="M 6.5 9 L 6.5 10 L 6.5 9 Z " /><path fill="rgb(207,187,145)" stroke="rgb(207,187,145)" stroke-width="1" opacity="1" d="M 9.5 9 Q 12 10 10.5 11 Q 8 10 9.5 9 Z " /><path fill="rgb(209,190,150)" stroke="rgb(209,190,150)" stroke-width="1" opacity="1" d="M 7.5 5 L 9 5.5 L 7.5 6 L 7.5 5 Z " /><path fill="rgb(209,190,150)" stroke="rgb(209,190,150)" stroke-width="1" opacity="1" d="M 5.5 10 L 5.5 11 L 5.5 10 Z " /><path fill="rgb(202,180,135)" stroke="rgb(202,180,135)" stroke-width="1" opacity="1" d="M 10.5 5 L 10.5 6 L 10.5 5 Z " /><path fill="rgb(202,180,135)" stroke="rgb(202,180,135)" stroke-width="1" opacity="1" d="M 8.5 7 L 8.5 8 L 8.5 7 Z " /><path fill="rgb(233,246,239)" stroke="rgb(233,246,239)" stroke-width="1" opacity="1" d="M 12.5 5 L 12.5 6 L 12.5 5 Z " /><path fill="rgb(233,246,239)" stroke="rgb(233,246,239)" stroke-width="1" opacity="1" d="M 12.5 10 L 12.5 11 L 12.5 10 Z " /><path fill="rgb(160,219,192)" stroke="rgb(160,219,192)" stroke-width="1" opacity="1" d="M 14.5 5 L 14.5 6 L 14.5 5 Z " /><path fill="rgb(160,219,192)" stroke="rgb(160,219,192)" stroke-width="1" opacity="1" d="M 14.5 10 L 14.5 11 L 14.5 10 Z " /><path fill="rgb(81,188,140)" stroke="rgb(81,188,140)" stroke-width="1" opacity="0.7843137254901961" d="M 0.5 6 L 0.5 7 L 0.5 6 Z " /><path fill="rgb(167,221,196)" stroke="rgb(167,221,196)" stroke-width="1" opacity="1" d="M 6.5 1 L 6.5 2 L 6.5 1 Z " /><path fill="rgb(167,221,196)" stroke="rgb(167,221,196)" stroke-width="1" opacity="1" d="M 9.5 1 L 9.5 2 L 9.5 1 Z " /><path fill="rgb(167,221,196)" stroke="rgb(167,221,196)" stroke-width="1" opacity="1" d="M 4.5 2 L 4.5 3 L 4.5 2 Z " /><path fill="rgb(167,221,196)" stroke="rgb(167,221,196)" stroke-width="1" opacity="1" d="M 2.5 4 L 2.5 5 L 2.5 4 Z " /><path fill="rgb(167,221,196)" stroke="rgb(167,221,196)" stroke-width="1" opacity="1" d="M 13.5 5 Q 16 6 14.5 7 Q 12 6 13.5 5 Z " /><path fill="rgb(167,221,196)" stroke="rgb(167,221,196)" stroke-width="1" opacity="1" d="M 1.5 6 L 1.5 7 L 1.5 6 Z " /><path fill="rgb(167,221,196)" stroke="rgb(167,221,196)" stroke-width="1" opacity="1" d="M 1.5 9 L 1.5 10 L 1.5 9 Z " /><path fill="rgb(167,221,196)" stroke="rgb(167,221,196)" stroke-width="1" opacity="1" d="M 14.5 9 Q 16 10 13.5 11 Q 12 10 14.5 9 Z " /><path fill="rgb(167,221,196)" stroke="rgb(167,221,196)" stroke-width="1" opacity="1" d="M 2.5 11 L 2.5 12 L 2.5 11 Z " /><path fill="rgb(167,221,196)" stroke="rgb(167,221,196)" stroke-width="1" opacity="1" d="M 10.5 13 Q 12 14 9.5 15 Q 8 14 10.5 13 Z " /><path fill="rgb(167,221,196)" stroke="rgb(167,221,196)" stroke-width="1" opacity="1" d="M 6.5 14 L 6.5 15 L 6.5 14 Z " /><path fill="rgb(230,241,232)" stroke="rgb(230,241,232)" stroke-width="1" opacity="1" d="M 3.5 10 L 3.5 11 L 3.5 10 Z " /><path fill="rgb(243,242,235)" stroke="rgb(243,242,235)" stroke-width="1" opacity="1" d="M 3.5 7 L 3.5 8 L 3.5 7 Z " /><path fill="rgb(243,242,235)" stroke="rgb(243,242,235)" stroke-width="1" opacity="1" d="M 9.5 11 L 9.5 12 L 9.5 11 Z " /><path fill="rgb(196,171,121)" stroke="rgb(196,171,121)" stroke-width="1" opacity="1" d="M 8.5 4 L 8.5 5 L 8.5 4 Z " /><path fill="rgb(196,171,121)" stroke="rgb(196,171,121)" stroke-width="1" opacity="1" d="M 7.5 6 L 7.5 7 L 7.5 6 Z " /><path fill="rgb(196,171,121)" stroke="rgb(196,171,121)" stroke-width="1" opacity="1" d="M 4.5 7 L 4.5 8 L 4.5 7 Z " /><path fill="rgb(196,171,121)" stroke="rgb(196,171,121)" stroke-width="1" opacity="1" d="M 6.5 8 L 6.5 9 L 6.5 8 Z " /><path fill="rgb(188,160,102)" stroke="rgb(188,160,102)" stroke-width="1" opacity="1" d="M 7.5 7 L 7.5 8 L 7.5 7 Z " /><path fill="rgb(200,178,131)" stroke="rgb(200,178,131)" stroke-width="1" opacity="1" d="M 4.5 6 L 4.5 7 L 4.5 6 Z " /><path fill="rgb(200,178,131)" stroke="rgb(200,178,131)" stroke-width="1" opacity="1" d="M 9.5 8 L 9.5 9 L 9.5 8 Z " /><path fill="rgb(224,214,189)" stroke="rgb(224,214,189)" stroke-width="1" opacity="1" d="M 7.5 3 L 9 3.5 L 7.5 4 L 7.5 3 Z " /><path fill="rgb(224,214,189)" stroke="rgb(224,214,189)" stroke-width="1" opacity="1" d="M 4.5 5 Q 7 6 5.5 7 Q 3 6 4.5 5 Z " /><path fill="rgb(224,214,189)" stroke="rgb(224,214,189)" stroke-width="1" opacity="1" d="M 9.5 5 L 9.5 6 L 9.5 5 Z " /><path fill="rgb(224,214,189)" stroke="rgb(224,214,189)" stroke-width="1" opacity="1" d="M 11.5 6 L 11.5 7 L 11.5 6 Z " /><path fill="rgb(224,214,189)" stroke="rgb(224,214,189)" stroke-width="1" opacity="1" d="M 4.5 8 L 4.5 9 L 4.5 8 Z " /><path fill="rgb(224,214,189)" stroke="rgb(224,214,189)" stroke-width="1" opacity="1" d="M 10.5 8 L 10.5 9 L 10.5 8 Z " /><path fill="rgb(224,214,189)" stroke="rgb(224,214,189)" stroke-width="1" opacity="1" d="M 6 10 L 8 10.5 L 7 11.5 L 7.5 13 L 6 10 Z " /><path fill="rgb(224,214,189)" stroke="rgb(224,214,189)" stroke-width="1" opacity="1" d="M 9.5 10 L 9.5 11 L 9.5 10 Z " /><path fill="rgb(245,248,244)" stroke="rgb(245,248,244)" stroke-width="1" opacity="1" d="M 9.5 3 Q 12 4 10.5 5 Q 8 4 9.5 3 Z " /><path fill="rgb(245,248,244)" stroke="rgb(245,248,244)" stroke-width="1" opacity="1" d="M 12.5 7 L 12.5 8 L 12.5 7 Z " /><path fill="rgb(245,248,244)" stroke="rgb(245,248,244)" stroke-width="1" opacity="1" d="M 5.5 11 L 5.5 12 L 5.5 11 Z " /><path fill="rgb(245,248,244)" stroke="rgb(245,248,244)" stroke-width="1" opacity="1" d="M 10.5 11 Q 12 12 9.5 13 Q 8 12 10.5 11 Z " /><path fill="rgb(165,220,195)" stroke="rgb(165,220,195)" stroke-width="1" opacity="1" d="M 1.5 7 L 2 8.5 L 1 8.5 L 1.5 7 Z " /><path fill="rgb(165,220,195)" stroke="rgb(165,220,195)" stroke-width="1" opacity="1" d="M 14.5 7 L 15 8.5 L 14 8.5 L 14.5 7 Z " /><path fill="rgb(99,195,151)" stroke="rgb(99,195,151)" stroke-width="1" opacity="0.9019607843137255" d="M 7.5 0 L 9 0.5 L 7.5 1 L 7.5 0 Z " /><path fill="rgb(99,195,151)" stroke="rgb(99,195,151)" stroke-width="1" opacity="0.9019607843137255" d="M 0.5 7 L 1 8.5 L 0 8.5 L 0.5 7 Z " /><path fill="rgb(99,195,151)" stroke="rgb(99,195,151)" stroke-width="1" opacity="0.9019607843137255" d="M 15.5 7 L 16 8.5 L 15 8.5 L 15.5 7 Z " /><path fill="rgb(99,195,151)" stroke="rgb(99,195,151)" stroke-width="1" opacity="0.9019607843137255" d="M 7.5 15 L 9 15.5 L 7.5 16 L 7.5 15 Z " /><path fill="rgb(82,188,140)" stroke="rgb(82,188,140)" stroke-width="1" opacity="0.792156862745098" d="M 6.5 0 L 6.5 1 L 6.5 0 Z " /><path fill="rgb(82,188,140)" stroke="rgb(82,188,140)" stroke-width="1" opacity="0.792156862745098" d="M 9.5 0 L 9.5 1 L 9.5 0 Z " /><path fill="rgb(82,188,140)" stroke="rgb(82,188,140)" stroke-width="1" opacity="0.792156862745098" d="M 15.5 6 L 15.5 7 L 15.5 6 Z " /><path fill="rgb(82,188,140)" stroke="rgb(82,188,140)" stroke-width="1" opacity="0.792156862745098" d="M 0.5 9 L 0.5 10 L 0.5 9 Z " /><path fill="rgb(82,188,140)" stroke="rgb(82,188,140)" stroke-width="1" opacity="0.792156862745098" d="M 15.5 9 L 15.5 10 L 15.5 9 Z " /><path fill="rgb(82,188,140)" stroke="rgb(82,188,140)" stroke-width="1" opacity="0.792156862745098" d="M 6.5 15 L 6.5 16 L 6.5 15 Z " /><path fill="rgb(82,188,140)" stroke="rgb(82,188,140)" stroke-width="1" opacity="0.792156862745098" d="M 9.5 15 L 9.5 16 L 9.5 15 Z " /><path fill="rgb(235,238,227)" stroke="rgb(235,238,227)" stroke-width="1" opacity="1" d="M 3.5 9 L 3.5 10 L 3.5 9 Z " /><path fill="rgb(235,238,227)" stroke="rgb(235,238,227)" stroke-width="1" opacity="1" d="M 6.5 12 L 6.5 13 L 6.5 12 Z " /><path fill="rgb(216,202,170)" stroke="rgb(216,202,170)" stroke-width="1" opacity="1" d="M 6.5 5 L 7 7.5 L 6 7.5 L 6.5 5 Z " /><path fill="rgb(216,202,170)" stroke="rgb(216,202,170)" stroke-width="1" opacity="1" d="M 11.5 5 L 11.5 6 L 11.5 5 Z " /><path fill="rgb(216,202,170)" stroke="rgb(216,202,170)" stroke-width="1" opacity="1" d="M 11.5 10 L 11.5 11 L 11.5 10 Z " /><path fill="rgb(239,232,219)" stroke="rgb(239,232,219)" stroke-width="1" opacity="1" d="M 9.5 4 L 9.5 5 L 9.5 4 Z " /><path fill="rgb(239,232,219)" stroke="rgb(239,232,219)" stroke-width="1" opacity="1" d="M 7.5 9 L 7.5 10 L 7.5 9 Z " /><path fill="rgb(239,232,219)" stroke="rgb(239,232,219)" stroke-width="1" opacity="1" d="M 11.5 9 L 11.5 10 L 11.5 9 Z " /><path fill="rgb(231,222,202)" stroke="rgb(231,222,202)" stroke-width="1" opacity="1" d="M 6.5 4 L 6.5 5 L 6.5 4 Z " /><path fill="rgb(231,222,202)" stroke="rgb(231,222,202)" stroke-width="1" opacity="1" d="M 10.5 7 L 10.5 8 L 10.5 7 Z " /><path fill="rgb(231,222,202)" stroke="rgb(231,222,202)" stroke-width="1" opacity="1" d="M 8.5 8 L 9 9.5 L 8 9.5 L 8.5 8 Z " /><path fill="rgb(213,195,159)" stroke="rgb(213,195,159)" stroke-width="1" opacity="1" d="M 9.5 6 L 11 6.5 L 9.5 7 L 9.5 6 Z " /><path fill="rgb(213,195,159)" stroke="rgb(213,195,159)" stroke-width="1" opacity="1" d="M 7.5 8 L 7.5 9 L 7.5 8 Z " /><path fill="rgb(213,195,159)" stroke="rgb(213,195,159)" stroke-width="1" opacity="1" d="M 5.5 9 Q 7 10 4.5 11 Q 3 10 5.5 9 Z " /><path fill="rgb(213,195,159)" stroke="rgb(213,195,159)" stroke-width="1" opacity="1" d="M 10.5 9 L 10.5 10 L 10.5 9 Z " /><path fill="rgb(213,195,159)" stroke="rgb(213,195,159)" stroke-width="1" opacity="1" d="M 8.5 10 L 8.5 11 L 8.5 10 Z " /><path fill="rgb(237,242,234)" stroke="rgb(237,242,234)" stroke-width="1" opacity="1" d="M 6.5 3 L 6.5 4 L 6.5 3 Z " /><path fill="rgb(237,242,234)" stroke="rgb(237,242,234)" stroke-width="1" opacity="1" d="M 3.5 6 L 3.5 7 L 3.5 6 Z " /><path fill="rgb(237,242,234)" stroke="rgb(237,242,234)" stroke-width="1" opacity="1" d="M 12.5 6 L 12.5 7 L 12.5 6 Z " /><path fill="rgb(237,242,234)" stroke="rgb(237,242,234)" stroke-width="1" opacity="1" d="M 12.5 9 L 12.5 10 L 12.5 9 Z " /><path fill="rgb(236,245,238)" stroke="rgb(236,245,238)" stroke-width="1" opacity="1" d="M 11.5 4 L 11.5 5 L 11.5 4 Z " /><path fill="rgb(236,245,238)" stroke="rgb(236,245,238)" stroke-width="1" opacity="1" d="M 4.5 11 L 4.5 12 L 4.5 11 Z " /><path fill="rgb(236,245,238)" stroke="rgb(236,245,238)" stroke-width="1" opacity="1" d="M 11.5 11 L 11.5 12 L 11.5 11 Z " /><path fill="rgb(8,158,88)" stroke="rgb(8,158,88)" stroke-width="1" opacity="0.19215686274509805" d="M 4.5 0 L 4.5 1 L 4.5 0 Z " /><path fill="rgb(8,158,88)" stroke="rgb(8,158,88)" stroke-width="1" opacity="0.19215686274509805" d="M 11.5 0 L 11.5 1 L 11.5 0 Z " /><path fill="rgb(8,158,88)" stroke="rgb(8,158,88)" stroke-width="1" opacity="0.19215686274509805" d="M 4.5 15 L 4.5 16 L 4.5 15 Z " /><path fill="rgb(8,158,88)" stroke="rgb(8,158,88)" stroke-width="1" opacity="0.19215686274509805" d="M 11.5 15 L 11.5 16 L 11.5 15 Z " /><path fill="rgb(114,201,161)" stroke="rgb(114,201,161)" stroke-width="1" opacity="0.8784313725490196" d="M 4.5 1 L 4.5 2 L 4.5 1 Z " /><path fill="rgb(114,201,161)" stroke="rgb(114,201,161)" stroke-width="1" opacity="0.8784313725490196" d="M 11.5 1 L 11.5 2 L 11.5 1 Z " /><path fill="rgb(114,201,161)" stroke="rgb(114,201,161)" stroke-width="1" opacity="0.8784313725490196" d="M 14.5 4 L 14.5 5 L 14.5 4 Z " /><path fill="rgb(114,201,161)" stroke="rgb(114,201,161)" stroke-width="1" opacity="0.8784313725490196" d="M 1.5 11 L 1.5 12 L 1.5 11 Z " /><path fill="rgb(114,201,161)" stroke="rgb(114,201,161)" stroke-width="1" opacity="0.8784313725490196" d="M 14.5 11 L 14.5 12 L 14.5 11 Z " /><path fill="rgb(114,201,161)" stroke="rgb(114,201,161)" stroke-width="1" opacity="0.8784313725490196" d="M 4.5 14 L 4.5 15 L 4.5 14 Z " /><path fill="rgb(114,201,161)" stroke="rgb(114,201,161)" stroke-width="1" opacity="0.8784313725490196" d="M 11.5 14 L 11.5 15 L 11.5 14 Z " /><path fill="rgb(192,231,213)" stroke="rgb(192,231,213)" stroke-width="1" opacity="1" d="M 4.5 3 Q 6 4 3.5 5 Q 2 4 4.5 3 Z " /><path fill="rgb(192,231,213)" stroke="rgb(192,231,213)" stroke-width="1" opacity="1" d="M 3.5 11 L 3.5 12 L 3.5 11 Z " /><path fill="rgb(251,251,249)" stroke="rgb(251,251,249)" stroke-width="1" opacity="1" d="M 11.5 7 Q 14 8 12.5 9 Q 9.71 9.67 11.5 7 Z " /><path fill="rgb(192,165,111)" stroke="rgb(192,165,111)" stroke-width="1" opacity="1" d="M 5.5 8 L 5.5 9 L 5.5 8 Z " /><path fill="rgb(204,182,138)" stroke="rgb(204,182,138)" stroke-width="1" opacity="1" d="M 9.5 7 L 9.5 8 L 9.5 7 Z " /><path fill="rgb(204,182,138)" stroke="rgb(204,182,138)" stroke-width="1" opacity="1" d="M 8.5 11 L 8.5 12 L 8.5 11 Z " /><path fill="rgb(233,228,211)" stroke="rgb(233,228,211)" stroke-width="1" opacity="1" d="M 4.5 9 L 4.5 10 L 4.5 9 Z " /><path fill="rgb(233,228,211)" stroke="rgb(233,228,211)" stroke-width="1" opacity="1" d="M 8.5 12 L 8.5 13 L 8.5 12 Z " /><path fill="rgb(234,247,242)" stroke="rgb(234,247,242)" stroke-width="1" opacity="1" d="M 5.5 3 Q 7 4 4.5 5 Q 3 4 5.5 3 Z " /><path fill="rgb(234,247,242)" stroke="rgb(234,247,242)" stroke-width="1" opacity="1" d="M 10.5 3 L 10.5 4 L 10.5 3 Z " /><path fill="rgb(234,247,242)" stroke="rgb(234,247,242)" stroke-width="1" opacity="1" d="M 5.5 12 L 5.5 13 L 5.5 12 Z " /><path fill="rgb(234,247,242)" stroke="rgb(234,247,242)" stroke-width="1" opacity="1" d="M 10.5 12 L 10.5 13 L 10.5 12 Z " /><path fill="rgb(43,173,114)" stroke="rgb(43,173,114)" stroke-width="1" opacity="0.4666666666666667" d="M 3.5 1 L 3.5 2 L 3.5 1 Z " /><path fill="rgb(43,173,114)" stroke="rgb(43,173,114)" stroke-width="1" opacity="0.4666666666666667" d="M 12.5 1 L 12.5 2 L 12.5 1 Z " /><path fill="rgb(43,173,114)" stroke="rgb(43,173,114)" stroke-width="1" opacity="0.4666666666666667" d="M 14.5 3 L 14.5 4 L 14.5 3 Z " /><path fill="rgb(43,173,114)" stroke="rgb(43,173,114)" stroke-width="1" opacity="0.4666666666666667" d="M 14.5 12 L 14.5 13 L 14.5 12 Z " /><path fill="rgb(43,173,114)" stroke="rgb(43,173,114)" stroke-width="1" opacity="0.4666666666666667" d="M 3.5 14 L 3.5 15 L 3.5 14 Z " /><path fill="rgb(43,173,114)" stroke="rgb(43,173,114)" stroke-width="1" opacity="0.4666666666666667" d="M 12.5 14 L 12.5 15 L 12.5 14 Z " /><path fill="rgb(0,28,0)" stroke="rgb(0,28,0)" stroke-width="1" opacity="0.00392156862745098" d="M 15.5 3 L 15.5 4 L 15.5 3 Z " /><path fill="rgb(0,28,0)" stroke="rgb(0,28,0)" stroke-width="1" opacity="0.00392156862745098" d="M 15.5 12 L 15.5 13 L 15.5 12 Z " /><path fill="rgb(0,150,75)" stroke="rgb(0,150,75)" stroke-width="1" opacity="0.050980392156862744" d="M 2.5 1 Q 4 2 1.5 3 Q 0 2 2.5 1 Z " /><path fill="rgb(0,150,75)" stroke="rgb(0,150,75)" stroke-width="1" opacity="0.050980392156862744" d="M 13.5 1 Q 16 2 14.5 3 Q 12 2 13.5 1 Z " /><path fill="rgb(0,150,75)" stroke="rgb(0,150,75)" stroke-width="1" opacity="0.050980392156862744" d="M 1.5 13 Q 4 14 2.5 15 Q 0 14 1.5 13 Z " /><path fill="rgb(0,150,75)" stroke="rgb(0,150,75)" stroke-width="1" opacity="0.050980392156862744" d="M 14.5 13 Q 16 14 13.5 15 Q 12 14 14.5 13 Z " /><path fill="rgb(149,214,185)" stroke="rgb(149,214,185)" stroke-width="1" opacity="0.984313725490196" d="M 12.5 2 Q 15 3 13.5 4 Q 11 3 12.5 2 Z " /><path fill="rgb(149,214,185)" stroke="rgb(149,214,185)" stroke-width="1" opacity="0.984313725490196" d="M 2.5 12 Q 5 13 3.5 14 Q 1 13 2.5 12 Z " /><path fill="rgb(149,214,185)" stroke="rgb(149,214,185)" stroke-width="1" opacity="0.984313725490196" d="M 13.5 12 Q 15 13 12.5 14 Q 11 13 13.5 12 Z " /><path fill="rgb(160,218,192)" stroke="rgb(160,218,192)" stroke-width="1" opacity="0.996078431372549" d="M 5.5 1 L 5.5 2 L 5.5 1 Z " /><path fill="rgb(160,218,192)" stroke="rgb(160,218,192)" stroke-width="1" opacity="0.996078431372549" d="M 10.5 1 L 10.5 2 L 10.5 1 Z " /><path fill="rgb(160,218,192)" stroke="rgb(160,218,192)" stroke-width="1" opacity="0.996078431372549" d="M 1.5 5 L 1.5 6 L 1.5 5 Z " /><path fill="rgb(160,218,192)" stroke="rgb(160,218,192)" stroke-width="1" opacity="0.996078431372549" d="M 1.5 10 L 1.5 11 L 1.5 10 Z " /><path fill="rgb(160,218,192)" stroke="rgb(160,218,192)" stroke-width="1" opacity="0.996078431372549" d="M 5.5 14 L 5.5 15 L 5.5 14 Z " /><path fill="rgb(160,218,192)" stroke="rgb(160,218,192)" stroke-width="1" opacity="0.996078431372549" d="M 10.5 14 L 10.5 15 L 10.5 14 Z " /><path fill="rgb(50,176,118)" stroke="rgb(50,176,118)" stroke-width="1" opacity="0.5529411764705883" d="M 5.5 0 L 5.5 1 L 5.5 0 Z " /><path fill="rgb(50,176,118)" stroke="rgb(50,176,118)" stroke-width="1" opacity="0.5529411764705883" d="M 10.5 0 L 10.5 1 L 10.5 0 Z " /><path fill="rgb(50,176,118)" stroke="rgb(50,176,118)" stroke-width="1" opacity="0.5529411764705883" d="M 2.5 2 L 2.5 3 L 2.5 2 Z " /><path fill="rgb(50,176,118)" stroke="rgb(50,176,118)" stroke-width="1" opacity="0.5529411764705883" d="M 13.5 2 L 13.5 3 L 13.5 2 Z " /><path fill="rgb(50,176,118)" stroke="rgb(50,176,118)" stroke-width="1" opacity="0.5529411764705883" d="M 0.5 5 L 0.5 6 L 0.5 5 Z " /><path fill="rgb(50,176,118)" stroke="rgb(50,176,118)" stroke-width="1" opacity="0.5529411764705883" d="M 15.5 5 L 15.5 6 L 15.5 5 Z " /><path fill="rgb(50,176,118)" stroke="rgb(50,176,118)" stroke-width="1" opacity="0.5529411764705883" d="M 0.5 10 L 0.5 11 L 0.5 10 Z " /><path fill="rgb(50,176,118)" stroke="rgb(50,176,118)" stroke-width="1" opacity="0.5529411764705883" d="M 15.5 10 L 15.5 11 L 15.5 10 Z " /><path fill="rgb(50,176,118)" stroke="rgb(50,176,118)" stroke-width="1" opacity="0.5529411764705883" d="M 2.5 13 L 2.5 14 L 2.5 13 Z " /><path fill="rgb(50,176,118)" stroke="rgb(50,176,118)" stroke-width="1" opacity="0.5529411764705883" d="M 13.5 13 L 13.5 14 L 13.5 13 Z " /><path fill="rgb(50,176,118)" stroke="rgb(50,176,118)" stroke-width="1" opacity="0.5529411764705883" d="M 5.5 15 L 5.5 16 L 5.5 15 Z " /><path fill="rgb(50,176,118)" stroke="rgb(50,176,118)" stroke-width="1" opacity="0.5529411764705883" d="M 10.5 15 L 10.5 16 L 10.5 15 Z " /><path fill="rgb(5,158,87)" stroke="rgb(5,158,87)" stroke-width="1" opacity="0" d="M 14.5 1 L 14.5 2 L 14.5 1 Z " /><path fill="rgb(5,158,87)" stroke="rgb(5,158,87)" stroke-width="1" opacity="0" d="M 14.5 14 L 14.5 15 L 14.5 14 Z " /><path fill="rgb(0,0,0)" stroke="rgb(0,0,0)" stroke-width="1" opacity="0" d="M 0 0 L 2 0.5 Q 1 3 0 1.5 L 0 0 Z " /><path fill="rgb(0,0,0)" stroke="rgb(0,0,0)" stroke-width="1" opacity="0" d="M 14.5 0 Q 16.75 -0.75 16 1.5 Q 15 3 14 0.5 L 14.5 0 Z " /><path fill="rgb(0,0,0)" stroke="rgb(0,0,0)" stroke-width="1" opacity="0" d="M 0.5 3 L 0.5 4 L 0.5 3 Z " /><path fill="rgb(0,0,0)" stroke="rgb(0,0,0)" stroke-width="1" opacity="0" d="M 0.5 12 L 0.5 13 L 0.5 12 Z " /><path fill="rgb(0,0,0)" stroke="rgb(0,0,0)" stroke-width="1" opacity="0" d="M 0.5 14 Q 3 15 1.5 16 Q -1.29 16.67 0.5 14 Z " /><path fill="rgb(0,0,0)" stroke="rgb(0,0,0)" stroke-width="1" opacity="0" d="M 15.5 14 L 16 16 L 14 15.5 L 15.5 14 Z " /></svg>