<svg width="32" height="32" version="1.1" xmlns="http://www.w3.org/2000/svg" desc="Created with imagetracer.js version 1.2.6" ><path fill="rgb(245,182,61)" stroke="rgb(245,182,61)" stroke-width="1" opacity="1" d="M 19 3 Q 23.12 2.37 25 5.5 L 22 7.5 L 24.5 11 L 26 11.5 L 24.5 12 L 22 11 L 21 7 Q 18 7.75 17 5.5 L 19 5 L 19 3 Z " /><path fill="rgb(234,182,100)" stroke="rgb(234,182,100)" stroke-width="1" opacity="0.7411764705882353" d="M 14.5 0 L 18 0.5 L 14.5 1 L 14.5 0 Z " /><path fill="rgb(234,182,100)" stroke="rgb(234,182,100)" stroke-width="1" opacity="0.7411764705882353" d="M 20.5 1 L 20.5 2 L 20.5 1 Z " /><path fill="rgb(234,182,100)" stroke="rgb(234,182,100)" stroke-width="1" opacity="0.7411764705882353" d="M 23.5 2 Q 26 3 24.5 4 Q 22 3 23.5 2 Z " /><path fill="rgb(234,182,100)" stroke="rgb(234,182,100)" stroke-width="1" opacity="0.7411764705882353" d="M 29.5 8 L 29.5 9 L 29.5 8 Z " /><path fill="rgb(234,182,100)" stroke="rgb(234,182,100)" stroke-width="1" opacity="0.7411764705882353" d="M 30.5 10 L 31 11.5 L 30 11.5 L 30.5 10 Z " /><path fill="rgb(0,0,0)" stroke="rgb(0,0,0)" stroke-width="1" opacity="0" d="M 0 0 L 8 0.5 L 2 4.5 L 0.5 7 L 0 0 Z " /><path fill="rgb(0,0,0)" stroke="rgb(0,0,0)" stroke-width="1" opacity="0" d="M 24.5 0 L 32 0 L 32 6.5 L 31.5 7 L 25.5 1 Q 23.13 0.87 24.5 0 Z " /><path fill="rgb(0,0,0)" stroke="rgb(0,0,0)" stroke-width="1" opacity="0" d="M 0.5 25 L 4.5 30 L 6.5 31 L 8 30.5 L 7.5 32 L 0 32 L 0.5 25 Z " /><path fill="rgb(0,0,0)" stroke="rgb(0,0,0)" stroke-width="1" opacity="0" d="M 31.5 25 L 32 32 L 24 31.5 L 30 27.5 L 31.5 25 Z " /><path fill="rgb(0,0,0)" stroke="rgb(0,0,0)" stroke-width="1" opacity="0" d="M 9.5 31 L 9.5 32 L 9.5 31 Z " /><path fill="rgb(251,184,72)" stroke="rgb(251,184,72)" stroke-width="1" opacity="0.047058823529411764" d="M 8.5 0 L 8.5 1 L 8.5 0 Z " /><path fill="rgb(251,184,72)" stroke="rgb(251,184,72)" stroke-width="1" opacity="0.047058823529411764" d="M 11.5 0 L 11.5 1 L 11.5 0 Z " /><path fill="rgb(251,184,72)" stroke="rgb(251,184,72)" stroke-width="1" opacity="0.047058823529411764" d="M 20.5 0 Q 27.13 0.87 30 5.5 L 28.5 6 Q 26.45 1.55 20.5 1 L 20.5 0 Z " /><path fill="rgb(251,184,72)" stroke="rgb(251,184,72)" stroke-width="1" opacity="0.047058823529411764" d="M 29.5 7 L 32 8.5 L 31.5 10 L 29 7.5 L 29.5 7 Z " /><path fill="rgb(251,184,72)" stroke="rgb(251,184,72)" stroke-width="1" opacity="0.047058823529411764" d="M 31.5 11 L 31.5 12 L 31.5 11 Z " /><path fill="rgb(251,184,72)" stroke="rgb(251,184,72)" stroke-width="1" opacity="0.047058823529411764" d="M 1.5 26 L 1.5 27 L 1.5 26 Z " /><path fill="rgb(251,184,72)" stroke="rgb(251,184,72)" stroke-width="1" opacity="0.047058823529411764" d="M 4.5 29 L 4.5 30 L 4.5 29 Z " /><path fill="rgb(228,111,35)" stroke="rgb(228,111,35)" stroke-width="1" opacity="0.996078431372549" d="M 6.5 4 L 8 4.5 L 5.5 6 Q 4 5 6.5 4 Z " /><path fill="rgb(228,111,35)" stroke="rgb(228,111,35)" stroke-width="1" opacity="0.996078431372549" d="M 20.5 16 L 20.5 17 L 20.5 16 Z " /><path fill="rgb(228,111,35)" stroke="rgb(228,111,35)" stroke-width="1" opacity="0.996078431372549" d="M 23.5 16 L 23.5 17 L 23.5 16 Z " /><path fill="rgb(228,111,35)" stroke="rgb(228,111,35)" stroke-width="1" opacity="0.996078431372549" d="M 28.5 16 L 28.5 17 L 28.5 16 Z " /><path fill="rgb(228,111,35)" stroke="rgb(228,111,35)" stroke-width="1" opacity="0.996078431372549" d="M 30.5 17 L 31 18.5 L 28.5 21 L 28 20.5 L 30.5 17 Z " /><path fill="rgb(228,111,35)" stroke="rgb(228,111,35)" stroke-width="1" opacity="0.996078431372549" d="M 18.5 20 L 18.5 21 L 18.5 20 Z " /><path fill="rgb(239,140,35)" stroke="rgb(239,140,35)" stroke-width="1" opacity="1" d="M 10 3 L 12 3 L 12 7 L 10 7 L 10 3 Z " /><path fill="rgb(239,140,35)" stroke="rgb(239,140,35)" stroke-width="1" opacity="1" d="M 16.5 10 Q 19 11 17.5 12 Q 15 11 16.5 10 Z " /><path fill="rgb(239,140,35)" stroke="rgb(239,140,35)" stroke-width="1" opacity="1" d="M 26.5 12 L 27.5 13 L 29 12.5 L 27.5 15 Q 25.13 14.13 26.5 12 Z " /><path fill="rgb(240,154,35)" stroke="rgb(240,154,35)" stroke-width="1" opacity="1" d="M 14.5 2 L 15 5 L 17 5.5 L 13.5 7 L 13 3.5 L 14.5 2 Z " /><path fill="rgb(240,154,35)" stroke="rgb(240,154,35)" stroke-width="1" opacity="1" d="M 16.5 8 L 16.5 9 L 16.5 8 Z " /><path fill="rgb(240,154,35)" stroke="rgb(240,154,35)" stroke-width="1" opacity="1" d="M 27.5 8 L 28 12 Q 25.33 13.13 26 10.5 L 27.5 8 Z " /><path fill="rgb(240,154,35)" stroke="rgb(240,154,35)" stroke-width="1" opacity="1" d="M 21.5 10 L 21.5 11 L 21.5 10 Z " /><path fill="rgb(240,154,35)" stroke="rgb(240,154,35)" stroke-width="1" opacity="1" d="M 27.5 15 L 27.5 16 L 27.5 15 Z " /><path fill="rgb(237,119,36)" stroke="rgb(237,119,36)" stroke-width="1" opacity="1" d="M 7.5 5 L 9 9.5 L 6.5 11 L 5 7.5 L 7.5 5 Z " /><path fill="rgb(237,119,36)" stroke="rgb(237,119,36)" stroke-width="1" opacity="1" d="M 15.5 11 L 15.5 12 L 15.5 11 Z " /><path fill="rgb(237,119,36)" stroke="rgb(237,119,36)" stroke-width="1" opacity="1" d="M 16.5 13 L 16.5 14 L 16.5 13 Z " /><path fill="rgb(237,119,36)" stroke="rgb(237,119,36)" stroke-width="1" opacity="1" d="M 19.5 14 L 19.5 15 L 19.5 14 Z " /><path fill="rgb(237,119,36)" stroke="rgb(237,119,36)" stroke-width="1" opacity="1" d="M 24.5 16 L 24.5 17 L 24.5 16 Z " /><path fill="rgb(237,119,36)" stroke="rgb(237,119,36)" stroke-width="1" opacity="1" d="M 29.5 16 L 30 18.5 L 29 18.5 L 29.5 16 Z " /><path fill="rgb(237,119,36)" stroke="rgb(237,119,36)" stroke-width="1" opacity="1" d="M 19.5 21 L 22 21.5 L 19.5 22 L 19.5 21 Z " /><path fill="rgb(224,129,34)" stroke="rgb(224,129,34)" stroke-width="1" opacity="1" d="M 12.5 2 L 12.5 3 L 12.5 2 Z " /><path fill="rgb(224,129,34)" stroke="rgb(224,129,34)" stroke-width="1" opacity="1" d="M 9.5 3 L 9.5 4 L 9.5 3 Z " /><path fill="rgb(224,129,34)" stroke="rgb(224,129,34)" stroke-width="1" opacity="1" d="M 10.5 7 L 12.5 7 L 16 9.5 L 14.5 10 Q 14 7.5 10.5 8 L 10.5 7 Z " /><path fill="rgb(224,129,34)" stroke="rgb(224,129,34)" stroke-width="1" opacity="1" d="M 9.5 9 L 9.5 10 L 9.5 9 Z " /><path fill="rgb(224,129,34)" stroke="rgb(224,129,34)" stroke-width="1" opacity="1" d="M 28.5 9 L 28.5 10 L 28.5 9 Z " /><path fill="rgb(224,129,34)" stroke="rgb(224,129,34)" stroke-width="1" opacity="1" d="M 16.5 11 L 16.5 12 L 16.5 11 Z " /><path fill="rgb(224,129,34)" stroke="rgb(224,129,34)" stroke-width="1" opacity="1" d="M 18 11 L 21 11.5 L 20.5 13 Q 23.5 12.5 24 14.5 L 22.5 14 L 18 13 L 18 11 Z " /><path fill="rgb(224,129,34)" stroke="rgb(224,129,34)" stroke-width="1" opacity="1" d="M 29.5 12 L 29.5 13 L 29.5 12 Z " /><path fill="rgb(224,129,34)" stroke="rgb(224,129,34)" stroke-width="1" opacity="1" d="M 25.5 16 L 25.5 17 L 25.5 16 Z " /><path fill="rgb(224,129,34)" stroke="rgb(224,129,34)" stroke-width="1" opacity="1" d="M 27.5 18 L 27.5 19 L 27.5 18 Z " /><path fill="rgb(220,149,41)" stroke="rgb(220,149,41)" stroke-width="1" opacity="1" d="M 19.5 2 L 21 2.5 L 19.5 3 L 19.5 2 Z " /><path fill="rgb(220,149,41)" stroke="rgb(220,149,41)" stroke-width="1" opacity="1" d="M 22.5 3 L 22.5 4 L 22.5 3 Z " /><path fill="rgb(220,149,41)" stroke="rgb(220,149,41)" stroke-width="1" opacity="1" d="M 25.5 5 L 25.5 6 L 25.5 5 Z " /><path fill="rgb(220,149,41)" stroke="rgb(220,149,41)" stroke-width="1" opacity="1" d="M 14 6 Q 16.67 4.88 16 7.5 Q 15 10 14 8.5 L 14 6 Z " /><path fill="rgb(220,149,41)" stroke="rgb(220,149,41)" stroke-width="1" opacity="1" d="M 17.5 7 Q 18.5 9.5 21 9 Q 19.88 11.67 22.5 11 Q 23.75 14.5 27 14 L 26.5 16 Q 25.25 12.25 21 13 Q 22.31 9.67 17.5 11 Q 14.75 9.75 17 8.5 L 17.5 7 Z " /><path fill="rgb(215,161,69)" stroke="rgb(215,161,69)" stroke-width="1" opacity="0.9882352941176471" d="M 19.5 1 L 19.5 2 L 19.5 1 Z " /><path fill="rgb(215,161,69)" stroke="rgb(215,161,69)" stroke-width="1" opacity="0.9882352941176471" d="M 21.5 2 L 24 3.5 L 22.5 3 Q 20.13 2.87 21.5 2 Z " /><path fill="rgb(215,161,69)" stroke="rgb(215,161,69)" stroke-width="1" opacity="0.9882352941176471" d="M 25.5 4 L 29 7.5 L 28.5 8 L 25 4.5 L 25.5 4 Z " /><path fill="rgb(215,161,69)" stroke="rgb(215,161,69)" stroke-width="1" opacity="0.9882352941176471" d="M 16.5 6 L 21 7 L 22 9.5 L 20.5 9 L 16.5 7 L 16.5 6 Z " /><path fill="rgb(215,161,69)" stroke="rgb(215,161,69)" stroke-width="1" opacity="0.9882352941176471" d="M 29.5 9 L 29.5 10 L 29.5 9 Z " /><path fill="rgb(215,161,69)" stroke="rgb(215,161,69)" stroke-width="1" opacity="0.9882352941176471" d="M 23.5 11 L 23.5 12 L 23.5 11 Z " /><path fill="rgb(215,161,69)" stroke="rgb(215,161,69)" stroke-width="1" opacity="0.9882352941176471" d="M 25.5 12 L 25.5 13 L 25.5 12 Z " /><path fill="rgb(215,161,69)" stroke="rgb(215,161,69)" stroke-width="1" opacity="0.9882352941176471" d="M 30.5 12 L 30.5 13 L 30.5 12 Z " /><path fill="rgb(248,197,110)" stroke="rgb(248,197,110)" stroke-width="1" opacity="0.45098039215686275" d="M 12.5 0 L 14 0.5 L 12.5 1 L 12.5 0 Z " /><path fill="rgb(248,197,110)" stroke="rgb(248,197,110)" stroke-width="1" opacity="0.45098039215686275" d="M 18.5 0 L 20 0.5 L 18.5 1 L 18.5 0 Z " /><path fill="rgb(248,197,110)" stroke="rgb(248,197,110)" stroke-width="1" opacity="0.45098039215686275" d="M 21.5 1 L 23 1.5 L 21.5 2 L 21.5 1 Z " /><path fill="rgb(248,197,110)" stroke="rgb(248,197,110)" stroke-width="1" opacity="0.45098039215686275" d="M 24.5 2 L 29 6.5 L 28.5 7 L 24 2.5 L 24.5 2 Z " /><path fill="rgb(248,197,110)" stroke="rgb(248,197,110)" stroke-width="1" opacity="0.45098039215686275" d="M 30.5 9 L 30.5 10 L 30.5 9 Z " /><path fill="rgb(248,197,110)" stroke="rgb(248,197,110)" stroke-width="1" opacity="0.45098039215686275" d="M 31.5 12 L 31.5 13 L 31.5 12 Z " /><path fill="rgb(246,174,38)" stroke="rgb(246,174,38)" stroke-width="1" opacity="1" d="M 17 3 Q 20 2 19 5 Q 16 6 17 3 Z " /><path fill="rgb(246,174,38)" stroke="rgb(246,174,38)" stroke-width="1" opacity="1" d="M 24.5 6 Q 27.13 5.33 26 8 Q 23.33 6.88 24 9.5 L 23 9.5 L 22 7.5 L 24.5 6 Z " /><path fill="rgb(230,154,80)" stroke="rgb(230,154,80)" stroke-width="1" opacity="0.7176470588235294" d="M 31.5 13 L 32 14.5 L 31 14.5 L 31.5 13 Z " /><path fill="rgb(237,102,33)" stroke="rgb(237,102,33)" stroke-width="1" opacity="0.0196078431372549" d="M 9.5 0 L 11 0.5 Q 4.9 2.4 2 7.5 L 0.5 10 L 0 7.5 L 3.5 3 L 9.5 0 Z " /><path fill="rgb(237,102,33)" stroke="rgb(237,102,33)" stroke-width="1" opacity="0.0196078431372549" d="M 25.5 1 L 25.5 2 L 25.5 1 Z " /><path fill="rgb(237,102,33)" stroke="rgb(237,102,33)" stroke-width="1" opacity="0.0196078431372549" d="M 30.5 6 L 30.5 7 L 30.5 6 Z " /><path fill="rgb(237,102,33)" stroke="rgb(237,102,33)" stroke-width="1" opacity="0.0196078431372549" d="M 31.5 20 L 32 23.5 L 27.5 29 L 27 27.5 L 30 26 L 31.5 20 Z " /><path fill="rgb(237,102,33)" stroke="rgb(237,102,33)" stroke-width="1" opacity="0.0196078431372549" d="M 2.5 27 Q 5 28 3.5 29 Q 1 28 2.5 27 Z " /><path fill="rgb(243,164,32)" stroke="rgb(243,164,32)" stroke-width="1" opacity="1" d="M 15 2 L 19 2.5 L 17 3 Q 18 6 15 5 L 15 2 Z " /><path fill="rgb(243,164,32)" stroke="rgb(243,164,32)" stroke-width="1" opacity="1" d="M 26.5 7 L 27 9.5 L 24 11 L 24 8 L 25.5 8 L 26.5 7 Z " /><path fill="rgb(237,146,32)" stroke="rgb(237,146,32)" stroke-width="1" opacity="1" d="M 13.5 2 L 13 3.5 Q 12.25 6.75 14 7.5 Q 13 9 12 6.5 Q 11.25 2.75 13.5 2 Z " /><path fill="rgb(237,146,32)" stroke="rgb(237,146,32)" stroke-width="1" opacity="1" d="M 15.5 8 L 15.5 9 L 15.5 8 Z " /><path fill="rgb(237,146,32)" stroke="rgb(237,146,32)" stroke-width="1" opacity="1" d="M 28.5 10 L 29 11.5 Q 28 14 27 12.5 L 28.5 10 Z " /><path fill="rgb(232,99,34)" stroke="rgb(232,99,34)" stroke-width="1" opacity="0.3764705882352941" d="M 9.5 1 L 9.5 2 L 9.5 1 Z " /><path fill="rgb(232,99,34)" stroke="rgb(232,99,34)" stroke-width="1" opacity="0.3764705882352941" d="M 7.5 2 Q 9 3 6.5 4 Q 5 3 7.5 2 Z " /><path fill="rgb(232,99,34)" stroke="rgb(232,99,34)" stroke-width="1" opacity="0.3764705882352941" d="M 2.5 7 L 2.5 8 L 2.5 7 Z " /><path fill="rgb(232,99,34)" stroke="rgb(232,99,34)" stroke-width="1" opacity="0.3764705882352941" d="M 1.5 9 L 1.5 10 L 1.5 9 Z " /><path fill="rgb(232,99,34)" stroke="rgb(232,99,34)" stroke-width="1" opacity="0.3764705882352941" d="M 0.5 11 L 1 12.5 L 0 12.5 L 0.5 11 Z " /><path fill="rgb(232,99,34)" stroke="rgb(232,99,34)" stroke-width="1" opacity="0.3764705882352941" d="M 31.5 19 L 31.5 20 L 31.5 19 Z " /><path fill="rgb(232,99,34)" stroke="rgb(232,99,34)" stroke-width="1" opacity="0.3764705882352941" d="M 30.5 22 L 30.5 23 L 30.5 22 Z " /><path fill="rgb(232,99,34)" stroke="rgb(232,99,34)" stroke-width="1" opacity="0.3764705882352941" d="M 29.5 24 Q 31 25 28.5 26 Q 27 25 29.5 24 Z " /><path fill="rgb(232,99,34)" stroke="rgb(232,99,34)" stroke-width="1" opacity="0.3764705882352941" d="M 25.5 28 Q 27 29 24.5 30 Q 23 29 25.5 28 Z " /><path fill="rgb(232,99,34)" stroke="rgb(232,99,34)" stroke-width="1" opacity="0.3764705882352941" d="M 22.5 30 L 22.5 31 L 22.5 30 Z " /><path fill="rgb(234,96,37)" stroke="rgb(234,96,37)" stroke-width="1" opacity="0.996078431372549" d="M 3.5 10 L 5 14.5 L 4 14.5 Q 4.67 11.87 2 13 L 2 11.5 L 3.5 10 Z " /><path fill="rgb(234,96,37)" stroke="rgb(234,96,37)" stroke-width="1" opacity="0.996078431372549" d="M 11.5 21 L 13 21.5 L 11.5 22 L 11.5 21 Z " /><path fill="rgb(234,96,37)" stroke="rgb(234,96,37)" stroke-width="1" opacity="0.996078431372549" d="M 27.5 22 Q 29.75 21.25 29 23.5 L 25.5 28 L 24 27.5 L 27 25.5 L 26.5 24 L 25.5 25 L 19.5 25 L 19.5 24 Q 21.67 22.17 26.5 23 L 27.5 22 Z " /><path fill="rgb(212,106,52)" stroke="rgb(212,106,52)" stroke-width="1" opacity="0.996078431372549" d="M 7.5 11 L 10 11.5 L 7.5 12 L 7.5 11 Z " /><path fill="rgb(212,106,52)" stroke="rgb(212,106,52)" stroke-width="1" opacity="0.996078431372549" d="M 12.5 11 L 12.5 12 L 12.5 11 Z " /><path fill="rgb(212,106,52)" stroke="rgb(212,106,52)" stroke-width="1" opacity="0.996078431372549" d="M 1.5 12 L 1.5 13 L 1.5 12 Z " /><path fill="rgb(212,106,52)" stroke="rgb(212,106,52)" stroke-width="1" opacity="0.996078431372549" d="M 11.5 13 L 11.5 14 L 11.5 13 Z " /><path fill="rgb(212,106,52)" stroke="rgb(212,106,52)" stroke-width="1" opacity="0.996078431372549" d="M 16.5 16 L 16.5 17 L 16.5 16 Z " /><path fill="rgb(212,106,52)" stroke="rgb(212,106,52)" stroke-width="1" opacity="0.996078431372549" d="M 25.5 19 L 25.5 20 L 25.5 19 Z " /><path fill="rgb(212,106,52)" stroke="rgb(212,106,52)" stroke-width="1" opacity="0.996078431372549" d="M 18.5 21 L 18.5 22 L 18.5 21 Z " /><path fill="rgb(212,106,52)" stroke="rgb(212,106,52)" stroke-width="1" opacity="0.996078431372549" d="M 20.5 22 L 20.5 23 L 20.5 22 Z " /><path fill="rgb(212,106,52)" stroke="rgb(212,106,52)" stroke-width="1" opacity="0.996078431372549" d="M 19.5 30 L 19.5 31 L 19.5 30 Z " /><path fill="rgb(186,95,50)" stroke="rgb(186,95,50)" stroke-width="1" opacity="0.9803921568627451" d="M 14.5 15 L 14.5 16 L 14.5 15 Z " /><path fill="rgb(186,95,50)" stroke="rgb(186,95,50)" stroke-width="1" opacity="0.9803921568627451" d="M 20.5 15 L 20.5 16 L 20.5 15 Z " /><path fill="rgb(186,95,50)" stroke="rgb(186,95,50)" stroke-width="1" opacity="0.9803921568627451" d="M 11.5 17 L 11.5 18 L 11.5 17 Z " /><path fill="rgb(186,95,50)" stroke="rgb(186,95,50)" stroke-width="1" opacity="0.9803921568627451" d="M 26.5 17 L 26.5 18 L 26.5 17 Z " /><path fill="rgb(186,95,50)" stroke="rgb(186,95,50)" stroke-width="1" opacity="0.9803921568627451" d="M 15.5 18 Q 18 19 16.5 20 Q 14 19 15.5 18 Z " /><path fill="rgb(186,95,50)" stroke="rgb(186,95,50)" stroke-width="1" opacity="0.9803921568627451" d="M 12.5 19 L 12.5 20 L 12.5 19 Z " /><path fill="rgb(186,95,50)" stroke="rgb(186,95,50)" stroke-width="1" opacity="0.9803921568627451" d="M 1.5 20 L 1.5 21 L 1.5 20 Z " /><path fill="rgb(186,95,50)" stroke="rgb(186,95,50)" stroke-width="1" opacity="0.9803921568627451" d="M 19.5 22 L 19.5 23 L 19.5 22 Z " /><path fill="rgb(186,95,50)" stroke="rgb(186,95,50)" stroke-width="1" opacity="0.9803921568627451" d="M 3.5 24 L 3.5 25 L 3.5 24 Z " /><path fill="rgb(186,95,50)" stroke="rgb(186,95,50)" stroke-width="1" opacity="0.9803921568627451" d="M 7.5 28 L 7.5 29 L 7.5 28 Z " /><path fill="rgb(186,95,50)" stroke="rgb(186,95,50)" stroke-width="1" opacity="0.9803921568627451" d="M 11.5 30 L 11.5 31 L 11.5 30 Z " /><path fill="rgb(217,111,36)" stroke="rgb(217,111,36)" stroke-width="1" opacity="0.996078431372549" d="M 9.5 2 Q 11 3 8.5 4 Q 7 3 9.5 2 Z " /><path fill="rgb(217,111,36)" stroke="rgb(217,111,36)" stroke-width="1" opacity="0.996078431372549" d="M 12.5 9 L 13 11 L 16 12.5 L 14.5 13 Q 10.87 11.87 12.5 9 Z " /><path fill="rgb(217,111,36)" stroke="rgb(217,111,36)" stroke-width="1" opacity="0.996078431372549" d="M 20.5 14 L 20.5 15 L 20.5 14 Z " /><path fill="rgb(217,111,36)" stroke="rgb(217,111,36)" stroke-width="1" opacity="0.996078431372549" d="M 30.5 15 L 31 16.5 L 30 16.5 L 30.5 15 Z " /><path fill="rgb(217,111,36)" stroke="rgb(217,111,36)" stroke-width="1" opacity="0.996078431372549" d="M 23.5 17 Q 26.5 16.5 27 18.5 L 25.5 18 Q 22.5 18.5 23.5 17 Z " /><path fill="rgb(223,134,53)" stroke="rgb(223,134,53)" stroke-width="1" opacity="0.8705882352941177" d="M 11.5 1 L 11.5 2 L 11.5 1 Z " /><path fill="rgb(197,73,23)" stroke="rgb(197,73,23)" stroke-width="1" opacity="1" d="M 7.5 13 L 7.5 14 L 7.5 13 Z " /><path fill="rgb(197,73,23)" stroke="rgb(197,73,23)" stroke-width="1" opacity="1" d="M 9.5 14 Q 12.5 13.5 13 15.5 L 11.5 16 L 9 14.5 L 9.5 14 Z " /><path fill="rgb(197,73,23)" stroke="rgb(197,73,23)" stroke-width="1" opacity="1" d="M 3.5 16 L 3.5 17 L 3.5 16 Z " /><path fill="rgb(197,73,23)" stroke="rgb(197,73,23)" stroke-width="1" opacity="1" d="M 14.5 17 L 18 17.5 L 14.5 18 L 14.5 17 Z " /><path fill="rgb(197,73,23)" stroke="rgb(197,73,23)" stroke-width="1" opacity="1" d="M 5.5 20 L 5.5 21 L 5.5 20 Z " /><path fill="rgb(203,92,35)" stroke="rgb(203,92,35)" stroke-width="1" opacity="1" d="M 11.5 10 L 11.5 13 Q 10.5 11 9.5 13 L 8 12.5 L 11.5 10 Z " /><path fill="rgb(203,92,35)" stroke="rgb(203,92,35)" stroke-width="1" opacity="1" d="M 6.5 11 L 6.5 12 L 6.5 11 Z " /><path fill="rgb(203,92,35)" stroke="rgb(203,92,35)" stroke-width="1" opacity="1" d="M 5.5 13 L 5.5 14 L 5.5 13 Z " /><path fill="rgb(203,92,35)" stroke="rgb(203,92,35)" stroke-width="1" opacity="1" d="M 14.5 13 L 15 14.5 L 14.5 16 L 16 16.5 L 14.5 17 Q 11.75 15.75 14 14.5 L 14.5 13 Z " /><path fill="rgb(203,92,35)" stroke="rgb(203,92,35)" stroke-width="1" opacity="1" d="M 17.5 13 Q 19.75 12.25 19 14.5 Q 18 17 17 15.5 L 18 14.5 L 17.5 13 Z " /><path fill="rgb(203,92,35)" stroke="rgb(203,92,35)" stroke-width="1" opacity="1" d="M 19.5 16 L 19.5 17 L 19.5 16 Z " /><path fill="rgb(203,92,35)" stroke="rgb(203,92,35)" stroke-width="1" opacity="1" d="M 20.5 18 L 23 18.5 L 20.5 19 L 20.5 18 Z " /><path fill="rgb(203,92,35)" stroke="rgb(203,92,35)" stroke-width="1" opacity="1" d="M 25.5 18 L 25.5 19 L 25.5 18 Z " /><path fill="rgb(203,92,35)" stroke="rgb(203,92,35)" stroke-width="1" opacity="1" d="M 2.5 19 L 2.5 20 L 2.5 19 Z " /><path fill="rgb(203,92,35)" stroke="rgb(203,92,35)" stroke-width="1" opacity="1" d="M 12.5 20 L 12.5 21 L 12.5 20 Z " /><path fill="rgb(203,92,35)" stroke="rgb(203,92,35)" stroke-width="1" opacity="1" d="M 20.5 23 L 20.5 24 L 20.5 23 Z " /><path fill="rgb(203,92,35)" stroke="rgb(203,92,35)" stroke-width="1" opacity="1" d="M 13.5 24 L 13.5 25 L 13.5 24 Z " /><path fill="rgb(203,92,35)" stroke="rgb(203,92,35)" stroke-width="1" opacity="1" d="M 17.5 24 L 17.5 25 L 17.5 24 Z " /><path fill="rgb(190,91,31)" stroke="rgb(190,91,31)" stroke-width="1" opacity="1" d="M 10.5 8 L 12 8.5 L 10.5 9 L 10.5 8 Z " /><path fill="rgb(190,91,31)" stroke="rgb(190,91,31)" stroke-width="1" opacity="1" d="M 7.5 12 L 7.5 13 L 7.5 12 Z " /><path fill="rgb(190,91,31)" stroke="rgb(190,91,31)" stroke-width="1" opacity="1" d="M 17.5 12 L 17.5 13 L 17.5 12 Z " /><path fill="rgb(190,91,31)" stroke="rgb(190,91,31)" stroke-width="1" opacity="1" d="M 9.5 13 L 9.5 14 L 9.5 13 Z " /><path fill="rgb(190,91,31)" stroke="rgb(190,91,31)" stroke-width="1" opacity="1" d="M 15.5 14 L 16.5 15 L 18 14.5 L 16.5 16 Q 14 15 15.5 14 Z " /><path fill="rgb(190,91,31)" stroke="rgb(190,91,31)" stroke-width="1" opacity="1" d="M 5.5 15 L 5.5 16 L 5.5 15 Z " /><path fill="rgb(190,91,31)" stroke="rgb(190,91,31)" stroke-width="1" opacity="1" d="M 10.5 15 L 10.5 16 L 10.5 15 Z " /><path fill="rgb(190,91,31)" stroke="rgb(190,91,31)" stroke-width="1" opacity="1" d="M 19.5 15 L 19.5 16 L 19.5 15 Z " /><path fill="rgb(190,91,31)" stroke="rgb(190,91,31)" stroke-width="1" opacity="1" d="M 12.5 17 L 12.5 18 L 12.5 17 Z " /><path fill="rgb(190,91,31)" stroke="rgb(190,91,31)" stroke-width="1" opacity="1" d="M 18.5 17 L 18.5 18 L 18.5 17 Z " /><path fill="rgb(190,91,31)" stroke="rgb(190,91,31)" stroke-width="1" opacity="1" d="M 26 19 L 29 19.5 L 26.5 21 L 26 19 Z " /><path fill="rgb(190,91,31)" stroke="rgb(190,91,31)" stroke-width="1" opacity="1" d="M 19.5 20 L 19.5 21 L 19.5 20 Z " /><path fill="rgb(190,91,31)" stroke="rgb(190,91,31)" stroke-width="1" opacity="1" d="M 11.5 22 L 11.5 23 L 11.5 22 Z " /><path fill="rgb(208,119,37)" stroke="rgb(208,119,37)" stroke-width="1" opacity="1" d="M 10.5 2 L 12 2.5 L 10.5 3 L 10.5 2 Z " /><path fill="rgb(208,119,37)" stroke="rgb(208,119,37)" stroke-width="1" opacity="1" d="M 27.5 7 L 27.5 8 L 27.5 7 Z " /><path fill="rgb(208,119,37)" stroke="rgb(208,119,37)" stroke-width="1" opacity="1" d="M 12.5 8 L 14 10.5 L 13 10.5 L 12.5 9 L 10.5 11 L 10 10.5 Q 9.25 8.25 11.5 9 L 12.5 8 Z " /><path fill="rgb(208,119,37)" stroke="rgb(208,119,37)" stroke-width="1" opacity="1" d="M 8.5 10 L 8.5 11 L 8.5 10 Z " /><path fill="rgb(208,119,37)" stroke="rgb(208,119,37)" stroke-width="1" opacity="1" d="M 29.5 11 L 29.5 12 L 29.5 11 Z " /><path fill="rgb(208,119,37)" stroke="rgb(208,119,37)" stroke-width="1" opacity="1" d="M 16.5 12 L 16.5 13 L 16.5 12 Z " /><path fill="rgb(208,119,37)" stroke="rgb(208,119,37)" stroke-width="1" opacity="1" d="M 20.5 12 L 20.5 13 L 20.5 12 Z " /><path fill="rgb(208,119,37)" stroke="rgb(208,119,37)" stroke-width="1" opacity="1" d="M 30.5 13 L 31 14.5 L 30 14.5 L 30.5 13 Z " /><path fill="rgb(208,119,37)" stroke="rgb(208,119,37)" stroke-width="1" opacity="1" d="M 21 14 L 24 15.5 L 21 16 L 21 14 Z " /><path fill="rgb(208,119,37)" stroke="rgb(208,119,37)" stroke-width="1" opacity="1" d="M 25.5 15 L 28 16 L 27.5 18 L 25 15.5 L 25.5 15 Z " /><path fill="rgb(206,139,46)" stroke="rgb(206,139,46)" stroke-width="1" opacity="0.996078431372549" d="M 12.5 1 L 19 1.5 L 12.5 2 L 12.5 1 Z " /><path fill="rgb(206,139,46)" stroke="rgb(206,139,46)" stroke-width="1" opacity="0.996078431372549" d="M 24.5 4 L 24.5 5 L 24.5 4 Z " /><path fill="rgb(206,139,46)" stroke="rgb(206,139,46)" stroke-width="1" opacity="0.996078431372549" d="M 26.5 6 L 26.5 7 L 26.5 6 Z " /><path fill="rgb(206,139,46)" stroke="rgb(206,139,46)" stroke-width="1" opacity="0.996078431372549" d="M 16.5 7 L 16.5 8 L 16.5 7 Z " /><path fill="rgb(206,139,46)" stroke="rgb(206,139,46)" stroke-width="1" opacity="0.996078431372549" d="M 28.5 8 L 28.5 9 L 28.5 8 Z " /><path fill="rgb(206,139,46)" stroke="rgb(206,139,46)" stroke-width="1" opacity="0.996078431372549" d="M 29.5 10 L 29.5 11 L 29.5 10 Z " /><path fill="rgb(206,139,46)" stroke="rgb(206,139,46)" stroke-width="1" opacity="0.996078431372549" d="M 24.5 12 Q 27.5 13.5 24.5 15 Q 21.5 13.5 24.5 12 Z M 25 13 L 25 14 L 25 13 Z " /><path fill="rgb(238,129,36)" stroke="rgb(238,129,36)" stroke-width="1" opacity="1" d="M 8 4 L 10 4 L 10 9 L 8 9 L 8 4 Z " /><path fill="rgb(238,129,36)" stroke="rgb(238,129,36)" stroke-width="1" opacity="1" d="M 7.5 10 L 7.5 11 L 7.5 10 Z " /><path fill="rgb(238,129,36)" stroke="rgb(238,129,36)" stroke-width="1" opacity="1" d="M 14.5 10 L 16 10.5 L 14.5 11 L 14.5 10 Z " /><path fill="rgb(238,129,36)" stroke="rgb(238,129,36)" stroke-width="1" opacity="1" d="M 19.5 13 L 19.5 14 L 19.5 13 Z " /><path fill="rgb(238,129,36)" stroke="rgb(238,129,36)" stroke-width="1" opacity="1" d="M 29.5 13 L 30 16 Q 27.33 17.13 28 14.5 L 29.5 13 Z " /><path fill="rgb(238,129,36)" stroke="rgb(238,129,36)" stroke-width="1" opacity="1" d="M 24.5 15 L 24.5 16 L 24.5 15 Z " /><path fill="rgb(238,129,36)" stroke="rgb(238,129,36)" stroke-width="1" opacity="1" d="M 28.5 17 L 29 18.5 L 28 18.5 L 28.5 17 Z " /><path fill="rgb(202,81,37)" stroke="rgb(202,81,37)" stroke-width="1" opacity="0.7333333333333333" d="M 0.5 13 L 1 16.5 L 0 16.5 L 0.5 13 Z " /><path fill="rgb(202,81,37)" stroke="rgb(202,81,37)" stroke-width="1" opacity="0.7333333333333333" d="M 23.5 29 L 23.5 30 L 23.5 29 Z " /><path fill="rgb(202,81,37)" stroke="rgb(202,81,37)" stroke-width="1" opacity="0.7333333333333333" d="M 21.5 30 L 21.5 31 L 21.5 30 Z " /><path fill="rgb(231,86,36)" stroke="rgb(231,86,36)" stroke-width="1" opacity="1" d="M 2.5 15 L 2.5 16 L 2.5 15 Z " /><path fill="rgb(231,86,36)" stroke="rgb(231,86,36)" stroke-width="1" opacity="1" d="M 7.5 21 Q 10.5 20.5 11 22.5 L 9.5 23 L 7 21.5 L 7.5 21 Z " /><path fill="rgb(231,86,36)" stroke="rgb(231,86,36)" stroke-width="1" opacity="1" d="M 12.5 24 L 12.5 25 L 12.5 24 Z " /><path fill="rgb(231,86,36)" stroke="rgb(231,86,36)" stroke-width="1" opacity="1" d="M 14.5 25 L 16 25.5 L 14.5 26 L 14.5 25 Z " /><path fill="rgb(231,86,36)" stroke="rgb(231,86,36)" stroke-width="1" opacity="1" d="M 18.5 26 L 25 26.5 L 18.5 27 L 18.5 26 Z " /><path fill="rgb(171,65,33)" stroke="rgb(171,65,33)" stroke-width="1" opacity="0.7294117647058823" d="M 0.5 17 L 1 18.5 L 0 18.5 L 0.5 17 Z " /><path fill="rgb(171,65,33)" stroke="rgb(171,65,33)" stroke-width="1" opacity="0.7294117647058823" d="M 1.5 21 L 1.5 22 L 1.5 21 Z " /><path fill="rgb(171,65,33)" stroke="rgb(171,65,33)" stroke-width="1" opacity="0.7294117647058823" d="M 2.5 23 L 2.5 24 L 2.5 23 Z " /><path fill="rgb(171,65,33)" stroke="rgb(171,65,33)" stroke-width="1" opacity="0.7294117647058823" d="M 4.5 26 Q 7 27 5.5 28 Q 3 27 4.5 26 Z " /><path fill="rgb(171,65,33)" stroke="rgb(171,65,33)" stroke-width="1" opacity="0.7294117647058823" d="M 8.5 29 L 8.5 30 L 8.5 29 Z " /><path fill="rgb(171,65,33)" stroke="rgb(171,65,33)" stroke-width="1" opacity="0.7294117647058823" d="M 10.5 30 L 10.5 31 L 10.5 30 Z " /><path fill="rgb(171,65,33)" stroke="rgb(171,65,33)" stroke-width="1" opacity="0.7294117647058823" d="M 13.5 31 L 19 31.5 L 13.5 32 L 13.5 31 Z " /><path fill="rgb(135,39,15)" stroke="rgb(135,39,15)" stroke-width="1" opacity="1" d="M 4.5 17 L 6 17.5 L 4 18 L 3.5 20 L 3 18.5 L 4.5 17 Z " /><path fill="rgb(135,39,15)" stroke="rgb(135,39,15)" stroke-width="1" opacity="1" d="M 13.5 18 L 13.5 19 L 13.5 18 Z " /><path fill="rgb(135,39,15)" stroke="rgb(135,39,15)" stroke-width="1" opacity="1" d="M 13.5 22 L 16 22.5 L 14.5 24 Q 12 23 13.5 22 Z " /><path fill="rgb(135,39,15)" stroke="rgb(135,39,15)" stroke-width="1" opacity="1" d="M 17.5 23 L 17.5 24 L 17.5 23 Z " /><path fill="rgb(152,68,33)" stroke="rgb(152,68,33)" stroke-width="1" opacity="1" d="M 6.5 16 L 6.5 17 L 6.5 16 Z " /><path fill="rgb(152,68,33)" stroke="rgb(152,68,33)" stroke-width="1" opacity="1" d="M 6.5 18 L 9 19.5 L 7.5 19 Q 5.12 18.88 6.5 18 Z " /><path fill="rgb(152,68,33)" stroke="rgb(152,68,33)" stroke-width="1" opacity="1" d="M 13.5 19 L 13.5 20 L 13.5 19 Z " /><path fill="rgb(152,68,33)" stroke="rgb(152,68,33)" stroke-width="1" opacity="1" d="M 20.5 19 Q 23 20 21.5 21 Q 19 20 20.5 19 Z " /><path fill="rgb(161,54,20)" stroke="rgb(161,54,20)" stroke-width="1" opacity="1" d="M 6.5 13 L 7 14.5 L 6 14.5 L 6.5 13 Z " /><path fill="rgb(161,54,20)" stroke="rgb(161,54,20)" stroke-width="1" opacity="1" d="M 9.5 17 L 12 18.5 L 8.5 19 Q 7 18 9.5 17 Z " /><path fill="rgb(161,54,20)" stroke="rgb(161,54,20)" stroke-width="1" opacity="1" d="M 14.5 19 L 15 21.5 L 14 21.5 L 14.5 19 Z " /><path fill="rgb(161,54,20)" stroke="rgb(161,54,20)" stroke-width="1" opacity="1" d="M 16.5 22 L 16.5 23 L 16.5 22 Z " /><path fill="rgb(174,70,27)" stroke="rgb(174,70,27)" stroke-width="1" opacity="1" d="M 8.5 13 L 9 16 L 12 16.5 L 10.5 18 L 9.5 17 L 8 17.5 Q 10.5 16 7 14.5 L 8.5 13 Z " /><path fill="rgb(174,70,27)" stroke="rgb(174,70,27)" stroke-width="1" opacity="1" d="M 5.5 14 L 5.5 15 L 5.5 14 Z " /><path fill="rgb(174,70,27)" stroke="rgb(174,70,27)" stroke-width="1" opacity="1" d="M 4.5 16 L 4.5 17 L 4.5 16 Z " /><path fill="rgb(174,70,27)" stroke="rgb(174,70,27)" stroke-width="1" opacity="1" d="M 13.5 16 L 13.5 17 L 13.5 16 Z " /><path fill="rgb(174,70,27)" stroke="rgb(174,70,27)" stroke-width="1" opacity="1" d="M 14.5 18 Q 17 19 15.5 20 Q 13 19 14.5 18 Z " /><path fill="rgb(174,70,27)" stroke="rgb(174,70,27)" stroke-width="1" opacity="1" d="M 19.5 18 L 19.5 19 L 19.5 18 Z " /><path fill="rgb(174,70,27)" stroke="rgb(174,70,27)" stroke-width="1" opacity="1" d="M 17.5 19 L 18 20.5 L 17 20.5 L 17.5 19 Z " /><path fill="rgb(174,70,27)" stroke="rgb(174,70,27)" stroke-width="1" opacity="1" d="M 11.5 20 L 11.5 21 L 11.5 20 Z " /><path fill="rgb(174,70,27)" stroke="rgb(174,70,27)" stroke-width="1" opacity="1" d="M 11.5 23 L 13 23.5 L 11.5 24 L 11.5 23 Z " /><path fill="rgb(174,70,27)" stroke="rgb(174,70,27)" stroke-width="1" opacity="1" d="M 19.5 23 L 19.5 24 L 19.5 23 Z " /><path fill="rgb(160,64,26)" stroke="rgb(160,64,26)" stroke-width="1" opacity="1" d="M 7.5 15 Q 10.5 16.5 7.5 18 L 5 16.5 L 7 16.5 L 7.5 15 Z " /><path fill="rgb(160,64,26)" stroke="rgb(160,64,26)" stroke-width="1" opacity="1" d="M 3.5 17 Q 6 18 4.5 19 Q 2 18 3.5 17 Z " /><path fill="rgb(160,64,26)" stroke="rgb(160,64,26)" stroke-width="1" opacity="1" d="M 13.5 17 L 13.5 18 L 13.5 17 Z " /><path fill="rgb(160,64,26)" stroke="rgb(160,64,26)" stroke-width="1" opacity="1" d="M 17.5 18 L 17.5 19 L 17.5 18 Z " /><path fill="rgb(160,64,26)" stroke="rgb(160,64,26)" stroke-width="1" opacity="1" d="M 9.5 19 Q 12 20 10.5 21 Q 8 20 9.5 19 Z " /><path fill="rgb(160,64,26)" stroke="rgb(160,64,26)" stroke-width="1" opacity="1" d="M 21.5 19 L 21.5 20 L 21.5 19 Z " /><path fill="rgb(160,64,26)" stroke="rgb(160,64,26)" stroke-width="1" opacity="1" d="M 13.5 20 L 13.5 21 L 13.5 20 Z " /><path fill="rgb(160,64,26)" stroke="rgb(160,64,26)" stroke-width="1" opacity="1" d="M 15.5 20 L 16 21.5 L 15 21.5 L 15.5 20 Z " /><path fill="rgb(160,64,26)" stroke="rgb(160,64,26)" stroke-width="1" opacity="1" d="M 23.5 20 L 23.5 21 L 23.5 20 Z " /><path fill="rgb(160,64,26)" stroke="rgb(160,64,26)" stroke-width="1" opacity="1" d="M 17.5 22 Q 19.75 21.25 19 23.5 L 18.5 24 Q 16 23 17.5 22 Z " /><path fill="rgb(212,92,33)" stroke="rgb(212,92,33)" stroke-width="1" opacity="0.9921568627450981" d="M 9.5 10 L 9.5 11 L 9.5 10 Z " /><path fill="rgb(212,92,33)" stroke="rgb(212,92,33)" stroke-width="1" opacity="0.9921568627450981" d="M 11.5 11 L 13 13.5 L 12 13.5 L 11.5 12 L 10.5 14 L 10 12.5 L 11.5 11 Z " /><path fill="rgb(212,92,33)" stroke="rgb(212,92,33)" stroke-width="1" opacity="0.9921568627450981" d="M 5.5 12 L 5.5 13 L 5.5 12 Z " /><path fill="rgb(212,92,33)" stroke="rgb(212,92,33)" stroke-width="1" opacity="0.9921568627450981" d="M 16.5 14 L 16.5 15 L 16.5 14 Z " /><path fill="rgb(212,92,33)" stroke="rgb(212,92,33)" stroke-width="1" opacity="0.9921568627450981" d="M 18.5 15 Q 20 16 17.5 17 Q 16 16 18.5 15 Z " /><path fill="rgb(212,92,33)" stroke="rgb(212,92,33)" stroke-width="1" opacity="0.9921568627450981" d="M 19.5 17 Q 23.56 16.44 25 18.5 L 23.5 19 Q 22.75 17.25 19.5 18 L 19.5 17 Z " /><path fill="rgb(212,92,33)" stroke="rgb(212,92,33)" stroke-width="1" opacity="0.9921568627450981" d="M 2.5 18 L 2.5 19 L 2.5 18 Z " /><path fill="rgb(212,92,33)" stroke="rgb(212,92,33)" stroke-width="1" opacity="0.9921568627450981" d="M 27.5 20 L 27.5 21 L 27.5 20 Z " /><path fill="rgb(212,92,33)" stroke="rgb(212,92,33)" stroke-width="1" opacity="0.9921568627450981" d="M 14.5 24 L 14.5 25 L 14.5 24 Z " /><path fill="rgb(212,92,33)" stroke="rgb(212,92,33)" stroke-width="1" opacity="0.9921568627450981" d="M 18.5 24 L 18.5 25 L 18.5 24 Z " /><path fill="rgb(212,92,33)" stroke="rgb(212,92,33)" stroke-width="1" opacity="0.9921568627450981" d="M 20.5 30 L 20.5 31 L 20.5 30 Z " /><path fill="rgb(135,52,23)" stroke="rgb(135,52,23)" stroke-width="1" opacity="1" d="M 6.5 15 L 6.5 16 L 6.5 15 Z " /><path fill="rgb(135,52,23)" stroke="rgb(135,52,23)" stroke-width="1" opacity="1" d="M 5.5 18 L 9.5 20 L 12.5 18 Q 14 19 11.5 20 L 6.5 21 L 4 19.5 L 5.5 18 Z " /><path fill="rgb(135,52,23)" stroke="rgb(135,52,23)" stroke-width="1" opacity="1" d="M 18.5 18 Q 21 19 19.5 20 Q 17 19 18.5 18 Z " /><path fill="rgb(135,52,23)" stroke="rgb(135,52,23)" stroke-width="1" opacity="1" d="M 22.5 20 L 22.5 21 L 22.5 20 Z " /><path fill="rgb(135,52,23)" stroke="rgb(135,52,23)" stroke-width="1" opacity="1" d="M 13.5 21 L 13.5 22 L 13.5 21 Z " /><path fill="rgb(135,52,23)" stroke="rgb(135,52,23)" stroke-width="1" opacity="1" d="M 13.5 23 L 13.5 24 L 13.5 23 Z " /><path fill="rgb(135,52,23)" stroke="rgb(135,52,23)" stroke-width="1" opacity="1" d="M 15.5 23 L 17 23.5 L 15.5 24 L 15.5 23 Z " /><path fill="rgb(171,80,34)" stroke="rgb(171,80,34)" stroke-width="1" opacity="1" d="M 6.5 12 L 6.5 13 L 6.5 12 Z " /><path fill="rgb(171,80,34)" stroke="rgb(171,80,34)" stroke-width="1" opacity="1" d="M 15.5 13 L 15.5 14 L 15.5 13 Z " /><path fill="rgb(171,80,34)" stroke="rgb(171,80,34)" stroke-width="1" opacity="1" d="M 12.5 14 L 14 14.5 L 12.5 15 L 12.5 14 Z " /><path fill="rgb(171,80,34)" stroke="rgb(171,80,34)" stroke-width="1" opacity="1" d="M 9.5 15 L 9.5 16 L 9.5 15 Z " /><path fill="rgb(171,80,34)" stroke="rgb(171,80,34)" stroke-width="1" opacity="1" d="M 15.5 15 L 15.5 16 L 15.5 15 Z " /><path fill="rgb(171,80,34)" stroke="rgb(171,80,34)" stroke-width="1" opacity="1" d="M 12.5 16 L 12.5 17 L 12.5 16 Z " /><path fill="rgb(171,80,34)" stroke="rgb(171,80,34)" stroke-width="1" opacity="1" d="M 18.5 16 L 18.5 17 L 18.5 16 Z " /><path fill="rgb(171,80,34)" stroke="rgb(171,80,34)" stroke-width="1" opacity="1" d="M 16.5 18 L 16.5 19 L 16.5 18 Z " /><path fill="rgb(171,80,34)" stroke="rgb(171,80,34)" stroke-width="1" opacity="1" d="M 18.5 19 L 18.5 20 L 18.5 19 Z " /><path fill="rgb(171,80,34)" stroke="rgb(171,80,34)" stroke-width="1" opacity="1" d="M 22.5 19 Q 25.5 18.5 26 20.5 L 24.5 21 L 22 19.5 L 22.5 19 Z " /><path fill="rgb(171,80,34)" stroke="rgb(171,80,34)" stroke-width="1" opacity="1" d="M 16.5 20 Q 19 21 17.5 22 Q 14.71 22.67 16.5 20 Z " /><path fill="rgb(171,80,34)" stroke="rgb(171,80,34)" stroke-width="1" opacity="1" d="M 20.5 20 L 20.5 21 L 20.5 20 Z " /><path fill="rgb(171,80,34)" stroke="rgb(171,80,34)" stroke-width="1" opacity="1" d="M 12.5 22 L 12.5 23 L 12.5 22 Z " /><path fill="rgb(228,113,35)" stroke="rgb(228,113,35)" stroke-width="1" opacity="0.9254901960784314" d="M 7.5 3 L 7.5 4 L 7.5 3 Z " /><path fill="rgb(232,102,38)" stroke="rgb(232,102,38)" stroke-width="1" opacity="0.9294117647058824" d="M 3.5 7 L 3.5 8 L 3.5 7 Z " /><path fill="rgb(232,102,38)" stroke="rgb(232,102,38)" stroke-width="1" opacity="0.9294117647058824" d="M 1.5 11 L 1.5 12 L 1.5 11 Z " /><path fill="rgb(232,102,38)" stroke="rgb(232,102,38)" stroke-width="1" opacity="0.9294117647058824" d="M 30.5 20 L 30.5 21 L 30.5 20 Z " /><path fill="rgb(232,102,38)" stroke="rgb(232,102,38)" stroke-width="1" opacity="0.9294117647058824" d="M 28.5 24 L 28.5 25 L 28.5 24 Z " /><path fill="rgb(232,102,38)" stroke="rgb(232,102,38)" stroke-width="1" opacity="0.9294117647058824" d="M 24.5 28 L 24.5 29 L 24.5 28 Z " /><path fill="rgb(234,105,36)" stroke="rgb(234,105,36)" stroke-width="1" opacity="0.996078431372549" d="M 4 6 L 6 6.5 Q 4 7.5 6 8.5 Q 7.33 13.31 4 12 L 3.5 10 L 2 10.5 L 4 6 Z " /><path fill="rgb(234,105,36)" stroke="rgb(234,105,36)" stroke-width="1" opacity="0.996078431372549" d="M 13.5 12 L 13.5 13 L 13.5 12 Z " /><path fill="rgb(234,105,36)" stroke="rgb(234,105,36)" stroke-width="1" opacity="0.996078431372549" d="M 22.5 16 L 22.5 17 L 22.5 16 Z " /><path fill="rgb(234,105,36)" stroke="rgb(234,105,36)" stroke-width="1" opacity="0.996078431372549" d="M 30.5 19 L 30 20.5 L 29.5 23 L 27.5 22 Q 26.25 24.25 21.5 23 Q 20 22 22.5 21 Q 29 22.5 30.5 19 Z " /><path fill="rgb(143,45,18)" stroke="rgb(143,45,18)" stroke-width="1" opacity="0" d="M 0.5 22 L 0.5 23 L 0.5 22 Z " /><path fill="rgb(143,45,18)" stroke="rgb(143,45,18)" stroke-width="1" opacity="0" d="M 1.5 24 L 1.5 25 L 1.5 24 Z " /><path fill="rgb(143,45,18)" stroke="rgb(143,45,18)" stroke-width="1" opacity="0" d="M 2.5 26 L 5 28.5 L 4.5 29 L 2 26.5 L 2.5 26 Z " /><path fill="rgb(233,99,54)" stroke="rgb(233,99,54)" stroke-width="1" opacity="0.996078431372549" d="M 1.5 13 L 2 14.5 L 1 14.5 L 1.5 13 Z " /><path fill="rgb(233,99,54)" stroke="rgb(233,99,54)" stroke-width="1" opacity="0.996078431372549" d="M 2.5 20 L 2.5 21 L 2.5 20 Z " /><path fill="rgb(233,99,54)" stroke="rgb(233,99,54)" stroke-width="1" opacity="0.996078431372549" d="M 3.5 22 L 3.5 23 L 3.5 22 Z " /><path fill="rgb(233,99,54)" stroke="rgb(233,99,54)" stroke-width="1" opacity="0.996078431372549" d="M 4.5 24 L 7 26.5 L 6.5 27 L 4 24.5 L 4.5 24 Z " /><path fill="rgb(233,99,54)" stroke="rgb(233,99,54)" stroke-width="1" opacity="0.996078431372549" d="M 9.5 28 L 9.5 29 L 9.5 28 Z " /><path fill="rgb(233,99,54)" stroke="rgb(233,99,54)" stroke-width="1" opacity="0.996078431372549" d="M 22 28 L 24 28.5 Q 23 31 22 29.5 L 22 28 Z " /><path fill="rgb(233,99,54)" stroke="rgb(233,99,54)" stroke-width="1" opacity="0.996078431372549" d="M 11.5 29 L 11.5 30 L 11.5 29 Z " /><path fill="rgb(233,99,54)" stroke="rgb(233,99,54)" stroke-width="1" opacity="0.996078431372549" d="M 19.5 29 L 21 29.5 L 19.5 30 L 19.5 29 Z " /><path fill="rgb(231,82,33)" stroke="rgb(231,82,33)" stroke-width="1" opacity="1" d="M 5.5 21 L 7 21 Q 5.88 23.67 8.5 23 L 9.5 24 L 11 23.5 Q 9.75 26.25 8.5 24 L 5 21.5 L 5.5 21 Z " /><path fill="rgb(231,82,33)" stroke="rgb(231,82,33)" stroke-width="1" opacity="1" d="M 11.5 25 L 11.5 26 L 11.5 25 Z " /><path fill="rgb(231,82,33)" stroke="rgb(231,82,33)" stroke-width="1" opacity="1" d="M 13.5 26 L 15 26.5 L 13.5 27 L 13.5 26 Z " /><path fill="rgb(231,82,33)" stroke="rgb(231,82,33)" stroke-width="1" opacity="1" d="M 16.5 27 L 20 27.5 L 16.5 28 L 16.5 27 Z " /><path fill="rgb(231,82,33)" stroke="rgb(231,82,33)" stroke-width="1" opacity="1" d="M 21.5 27 L 23 27.5 L 21.5 28 L 21.5 27 Z " /><path fill="rgb(232,73,22)" stroke="rgb(232,73,22)" stroke-width="1" opacity="0.011764705882352941" d="M 31.5 7 L 31.5 8 L 31.5 7 Z " /><path fill="rgb(232,73,22)" stroke="rgb(232,73,22)" stroke-width="1" opacity="0.011764705882352941" d="M 0.5 10 L 0.5 11 L 0.5 10 Z " /><path fill="rgb(232,73,22)" stroke="rgb(232,73,22)" stroke-width="1" opacity="0.011764705882352941" d="M 31.5 10 L 31.5 11 L 31.5 10 Z " /><path fill="rgb(232,73,22)" stroke="rgb(232,73,22)" stroke-width="1" opacity="0.011764705882352941" d="M 0.5 23 L 1 25 L 3 25.5 L 1.5 26 Q -0.88 25.13 0.5 23 Z " /><path fill="rgb(232,73,22)" stroke="rgb(232,73,22)" stroke-width="1" opacity="0.011764705882352941" d="M 31.5 24 L 31.5 25 L 31.5 24 Z " /><path fill="rgb(232,73,22)" stroke="rgb(232,73,22)" stroke-width="1" opacity="0.011764705882352941" d="M 29.5 25 L 29.5 26 L 29.5 25 Z " /><path fill="rgb(232,73,22)" stroke="rgb(232,73,22)" stroke-width="1" opacity="0.011764705882352941" d="M 26.5 28 L 27 29.5 L 23.5 32 L 21.5 32 L 21.5 31 L 26.5 28 Z " /><path fill="rgb(232,73,22)" stroke="rgb(232,73,22)" stroke-width="1" opacity="0.011764705882352941" d="M 6.5 30 L 6.5 31 L 6.5 30 Z " /><path fill="rgb(232,73,22)" stroke="rgb(232,73,22)" stroke-width="1" opacity="0.011764705882352941" d="M 8.5 31 L 8.5 32 L 8.5 31 Z " /><path fill="rgb(165,55,23)" stroke="rgb(165,55,23)" stroke-width="1" opacity="0.5215686274509804" d="M 0.5 19 L 0.5 20 L 0.5 19 Z " /><path fill="rgb(165,55,23)" stroke="rgb(165,55,23)" stroke-width="1" opacity="0.5215686274509804" d="M 1.5 22 L 1.5 23 L 1.5 22 Z " /><path fill="rgb(165,55,23)" stroke="rgb(165,55,23)" stroke-width="1" opacity="0.5215686274509804" d="M 3.5 25 L 3.5 26 L 3.5 25 Z " /><path fill="rgb(165,55,23)" stroke="rgb(165,55,23)" stroke-width="1" opacity="0.5215686274509804" d="M 6.5 28 L 6.5 29 L 6.5 28 Z " /><path fill="rgb(165,55,23)" stroke="rgb(165,55,23)" stroke-width="1" opacity="0.5215686274509804" d="M 9.5 30 L 9.5 31 L 9.5 30 Z " /><path fill="rgb(165,55,23)" stroke="rgb(165,55,23)" stroke-width="1" opacity="0.5215686274509804" d="M 12.5 31 L 12.5 32 L 12.5 31 Z " /><path fill="rgb(165,55,23)" stroke="rgb(165,55,23)" stroke-width="1" opacity="0.5215686274509804" d="M 19.5 31 L 19.5 32 L 19.5 31 Z " /><path fill="rgb(230,74,28)" stroke="rgb(230,74,28)" stroke-width="1" opacity="1" d="M 3.5 20 L 3.5 21 L 3.5 20 Z " /><path fill="rgb(230,74,28)" stroke="rgb(230,74,28)" stroke-width="1" opacity="1" d="M 5.5 24 L 10 27.5 L 8.5 27 L 5 24.5 L 5.5 24 Z " /><path fill="rgb(230,74,28)" stroke="rgb(230,74,28)" stroke-width="1" opacity="1" d="M 11.5 28 L 13 28.5 L 11.5 29 L 11.5 28 Z " /><path fill="rgb(231,79,31)" stroke="rgb(231,79,31)" stroke-width="1" opacity="1" d="M 4.5 20 L 7.5 24 L 13.5 27 L 21 28.5 L 17.5 30 L 15.5 28 L 13.5 28 L 7.5 25 L 3 21.5 L 4.5 20 Z " /><path fill="rgb(231,79,31)" stroke="rgb(231,79,31)" stroke-width="1" opacity="1" d="M 13.5 29 L 13.5 30 L 13.5 29 Z " /><path fill="rgb(232,85,34)" stroke="rgb(232,85,34)" stroke-width="1" opacity="1" d="M 2.5 16 L 3 17.5 L 2 17.5 L 2.5 16 Z " /><path fill="rgb(232,85,34)" stroke="rgb(232,85,34)" stroke-width="1" opacity="1" d="M 7.5 22 L 14 25.5 L 12.5 26 L 7.5 23 L 7.5 22 Z " /><path fill="rgb(232,85,34)" stroke="rgb(232,85,34)" stroke-width="1" opacity="1" d="M 15.5 26 L 18 26.5 L 15.5 27 L 15.5 26 Z " /><path fill="rgb(232,85,34)" stroke="rgb(232,85,34)" stroke-width="1" opacity="1" d="M 20.5 27 L 20.5 28 L 20.5 27 Z " /><path fill="rgb(234,90,38)" stroke="rgb(234,90,38)" stroke-width="1" opacity="1" d="M 2 13 L 4 13.5 Q 3 16 2 14.5 L 2 13 Z " /><path fill="rgb(234,90,38)" stroke="rgb(234,90,38)" stroke-width="1" opacity="1" d="M 26.5 24 L 26.5 25 L 26.5 24 Z " /><path fill="rgb(234,90,38)" stroke="rgb(234,90,38)" stroke-width="1" opacity="1" d="M 17.5 25 L 19 25.5 L 17.5 26 L 17.5 25 Z " /><path fill="rgb(234,90,38)" stroke="rgb(234,90,38)" stroke-width="1" opacity="1" d="M 25.5 26 L 25.5 27 L 25.5 26 Z " /><path fill="rgb(234,90,38)" stroke="rgb(234,90,38)" stroke-width="1" opacity="1" d="M 12.5 29 L 12.5 30 L 12.5 29 Z " /><path fill="rgb(228,91,35)" stroke="rgb(228,91,35)" stroke-width="1" opacity="1" d="M 13.5 13 L 13.5 14 L 13.5 13 Z " /><path fill="rgb(228,91,35)" stroke="rgb(228,91,35)" stroke-width="1" opacity="1" d="M 4.5 15 L 4.5 16 L 4.5 15 Z " /><path fill="rgb(228,91,35)" stroke="rgb(228,91,35)" stroke-width="1" opacity="1" d="M 21.5 16 L 21.5 17 L 21.5 16 Z " /><path fill="rgb(228,91,35)" stroke="rgb(228,91,35)" stroke-width="1" opacity="1" d="M 10.5 21 L 10.5 22 L 10.5 21 Z " /><path fill="rgb(228,91,35)" stroke="rgb(228,91,35)" stroke-width="1" opacity="1" d="M 15.5 24 L 17 24.5 L 15.5 25 L 15.5 24 Z " /><path fill="rgb(233,90,37)" stroke="rgb(233,90,37)" stroke-width="1" opacity="1" d="M 3.5 14 L 4 15.5 L 3 15.5 L 3.5 14 Z " /><path fill="rgb(233,90,37)" stroke="rgb(233,90,37)" stroke-width="1" opacity="1" d="M 16.5 25 L 16.5 26 L 16.5 25 Z " /><path fill="rgb(233,90,37)" stroke="rgb(233,90,37)" stroke-width="1" opacity="1" d="M 19.5 25 L 27 25.5 L 19.5 26 L 19.5 25 Z " /><path fill="rgb(232,77,30)" stroke="rgb(232,77,30)" stroke-width="1" opacity="1" d="M 4.5 22 L 7.5 25 L 13.5 28 L 15.5 28 L 17 29.5 L 14.5 30 L 11.5 28 L 10 28.5 L 9.5 27 L 8 27.5 L 8.5 26 L 4 24 L 4.5 22 Z " /><path fill="rgb(233,84,37)" stroke="rgb(233,84,37)" stroke-width="1" opacity="1" d="M 23.5 27 L 23.5 28 L 23.5 27 Z " /><path fill="rgb(233,84,37)" stroke="rgb(233,84,37)" stroke-width="1" opacity="1" d="M 21.5 28 L 21.5 29 L 21.5 28 Z " /><path fill="rgb(233,84,37)" stroke="rgb(233,84,37)" stroke-width="1" opacity="1" d="M 18.5 29 L 18.5 30 L 18.5 29 Z " /><path fill="rgb(233,107,38)" stroke="rgb(233,107,38)" stroke-width="1" opacity="0.6745098039215687" d="M 10.5 1 L 10.5 2 L 10.5 1 Z " /><path fill="rgb(233,107,38)" stroke="rgb(233,107,38)" stroke-width="1" opacity="0.6745098039215687" d="M 8.5 2 L 8.5 3 L 8.5 2 Z " /><path fill="rgb(233,107,38)" stroke="rgb(233,107,38)" stroke-width="1" opacity="0.6745098039215687" d="M 5.5 4 L 6 4.5 L 3.5 7 L 3 6.5 L 5.5 4 Z " /><path fill="rgb(233,107,38)" stroke="rgb(233,107,38)" stroke-width="1" opacity="0.6745098039215687" d="M 2.5 8 L 2.5 9 L 2.5 8 Z " /><path fill="rgb(233,107,38)" stroke="rgb(233,107,38)" stroke-width="1" opacity="0.6745098039215687" d="M 1.5 10 L 1.5 11 L 1.5 10 Z " /><path fill="rgb(233,107,38)" stroke="rgb(233,107,38)" stroke-width="1" opacity="0.6745098039215687" d="M 31.5 15 L 32 18.5 L 31 18.5 L 31.5 15 Z " /><path fill="rgb(233,107,38)" stroke="rgb(233,107,38)" stroke-width="1" opacity="0.6745098039215687" d="M 30.5 21 L 30.5 22 L 30.5 21 Z " /><path fill="rgb(233,107,38)" stroke="rgb(233,107,38)" stroke-width="1" opacity="0.6745098039215687" d="M 29.5 23 L 29.5 24 L 29.5 23 Z " /><path fill="rgb(233,107,38)" stroke="rgb(233,107,38)" stroke-width="1" opacity="0.6745098039215687" d="M 27.5 26 Q 29 27 26.5 28 Q 25 27 27.5 26 Z " /><path fill="rgb(218,37,12)" stroke="rgb(218,37,12)" stroke-width="1" opacity="0.03137254901960784" d="M 23.5 0 L 23.5 1 L 23.5 0 Z " /><path fill="rgb(218,37,12)" stroke="rgb(218,37,12)" stroke-width="1" opacity="0.03137254901960784" d="M 29.5 6 L 29.5 7 L 29.5 6 Z " /><path fill="rgb(218,37,12)" stroke="rgb(218,37,12)" stroke-width="1" opacity="0.03137254901960784" d="M 0.5 21 L 0.5 22 L 0.5 21 Z " /><path fill="rgb(218,37,12)" stroke="rgb(218,37,12)" stroke-width="1" opacity="0.03137254901960784" d="M 1.5 23 L 1.5 24 L 1.5 23 Z " /><path fill="rgb(218,37,12)" stroke="rgb(218,37,12)" stroke-width="1" opacity="0.03137254901960784" d="M 29.5 27 Q 31 28 28.5 29 Q 27 28 29.5 27 Z " /><path fill="rgb(218,37,12)" stroke="rgb(218,37,12)" stroke-width="1" opacity="0.03137254901960784" d="M 5.5 29 L 7 29.5 L 5.5 30 L 5.5 29 Z " /><path fill="rgb(218,37,12)" stroke="rgb(218,37,12)" stroke-width="1" opacity="0.03137254901960784" d="M 8.5 30 L 8.5 31 L 8.5 30 Z " /><path fill="rgb(218,37,12)" stroke="rgb(218,37,12)" stroke-width="1" opacity="0.03137254901960784" d="M 10.5 31 L 10.5 32 L 10.5 31 Z " /><path fill="rgb(182,54,18)" stroke="rgb(182,54,18)" stroke-width="1" opacity="0.26666666666666666" d="M 0.5 20 L 0.5 21 L 0.5 20 Z " /><path fill="rgb(182,54,18)" stroke="rgb(182,54,18)" stroke-width="1" opacity="0.26666666666666666" d="M 2.5 24 L 2.5 25 L 2.5 24 Z " /><path fill="rgb(182,54,18)" stroke="rgb(182,54,18)" stroke-width="1" opacity="0.26666666666666666" d="M 3.5 26 L 6 28.5 L 5.5 29 L 3 26.5 L 3.5 26 Z " /><path fill="rgb(182,54,18)" stroke="rgb(182,54,18)" stroke-width="1" opacity="0.26666666666666666" d="M 7.5 29 L 7.5 30 L 7.5 29 Z " /><path fill="rgb(182,54,18)" stroke="rgb(182,54,18)" stroke-width="1" opacity="0.26666666666666666" d="M 11.5 31 L 11.5 32 L 11.5 31 Z " /><path fill="rgb(182,54,18)" stroke="rgb(182,54,18)" stroke-width="1" opacity="0.26666666666666666" d="M 20.5 31 L 20.5 32 L 20.5 31 Z " /><path fill="rgb(218,109,72)" stroke="rgb(218,109,72)" stroke-width="1" opacity="0.996078431372549" d="M 1.5 15 L 2 19.5 L 1 19.5 L 1.5 15 Z " /><path fill="rgb(218,109,72)" stroke="rgb(218,109,72)" stroke-width="1" opacity="0.996078431372549" d="M 2.5 21 L 4 23.5 Q 3 25 2 22.5 L 2.5 21 Z " /><path fill="rgb(218,109,72)" stroke="rgb(218,109,72)" stroke-width="1" opacity="0.996078431372549" d="M 4.5 25 L 11 29.5 L 9.5 30 L 4 25.5 L 4.5 25 Z " /><path fill="rgb(218,109,72)" stroke="rgb(218,109,72)" stroke-width="1" opacity="0.996078431372549" d="M 21.5 29 L 21.5 30 L 21.5 29 Z " /><path fill="rgb(218,109,72)" stroke="rgb(218,109,72)" stroke-width="1" opacity="0.996078431372549" d="M 12.5 30 L 19 30.5 L 12.5 31 L 12.5 30 Z " /></svg>