<svg width="16" height="16" version="1.1" xmlns="http://www.w3.org/2000/svg" desc="Created with imagetracer.js version 1.2.6" ><path fill="rgb(252,252,252)" stroke="rgb(252,252,252)" stroke-width="1" opacity="1" d="M 0.5 1 L 3 1.5 L 0.5 2 L 0.5 1 Z " /><path fill="rgb(252,252,252)" stroke="rgb(252,252,252)" stroke-width="1" opacity="1" d="M 14.5 1 L 16 1.5 L 14.5 2 L 14.5 1 Z " /><path fill="rgb(252,252,252)" stroke="rgb(252,252,252)" stroke-width="1" opacity="1" d="M 14.5 4 L 14.5 5 L 14.5 4 Z " /><path fill="rgb(252,252,252)" stroke="rgb(252,252,252)" stroke-width="1" opacity="1" d="M 7.5 14 L 7.5 15 L 7.5 14 Z " /><path fill="rgb(254,254,254)" stroke="rgb(254,254,254)" stroke-width="1" opacity="1" d="M 0.5 2 L 3 2.5 L 0.5 3 L 0.5 2 Z " /><path fill="rgb(254,254,254)" stroke="rgb(254,254,254)" stroke-width="1" opacity="1" d="M 14 2 L 16 2.5 Q 15 5 14 3.5 L 14 2 Z " /><path fill="rgb(254,254,254)" stroke="rgb(254,254,254)" stroke-width="1" opacity="1" d="M 2.5 4 L 3 5.5 L 2 5.5 L 2.5 4 Z " /><path fill="rgb(254,254,254)" stroke="rgb(254,254,254)" stroke-width="1" opacity="1" d="M 15.5 7 L 16 8.5 L 15 8.5 L 15.5 7 Z " /><path fill="rgb(254,254,254)" stroke="rgb(254,254,254)" stroke-width="1" opacity="1" d="M 1.5 9 L 2 10.5 L 1 10.5 L 1.5 9 Z " /><path fill="rgb(254,254,254)" stroke="rgb(254,254,254)" stroke-width="1" opacity="1" d="M 8.5 13 L 9 14.5 Q 8 17 7 15.5 L 8.5 13 Z " /><path fill="rgb(254,254,254)" stroke="rgb(254,254,254)" stroke-width="1" opacity="1" d="M 0.5 14 L 1 15.5 L 0 15.5 L 0.5 14 Z " /><path fill="rgb(230,231,232)" stroke="rgb(230,231,232)" stroke-width="1" opacity="1" d="M 8.5 1 L 8.5 2 L 8.5 1 Z " /><path fill="rgb(230,231,232)" stroke="rgb(230,231,232)" stroke-width="1" opacity="1" d="M 13.5 2 L 13.5 3 L 13.5 2 Z " /><path fill="rgb(230,231,232)" stroke="rgb(230,231,232)" stroke-width="1" opacity="1" d="M 14.5 6 L 14.5 7 L 14.5 6 Z " /><path fill="rgb(230,231,232)" stroke="rgb(230,231,232)" stroke-width="1" opacity="1" d="M 15.5 10 L 15.5 11 L 15.5 10 Z " /><path fill="rgb(230,231,232)" stroke="rgb(230,231,232)" stroke-width="1" opacity="1" d="M 7.5 12 L 7.5 13 L 7.5 12 Z " /><path fill="rgb(230,231,232)" stroke="rgb(230,231,232)" stroke-width="1" opacity="1" d="M 9.5 15 L 9.5 16 L 9.5 15 Z " /><path fill="rgb(198,208,232)" stroke="rgb(198,208,232)" stroke-width="1" opacity="1" d="M 10.5 1 L 10.5 2 L 10.5 1 Z " /><path fill="rgb(198,208,232)" stroke="rgb(198,208,232)" stroke-width="1" opacity="1" d="M 7.5 6 L 7.5 7 L 7.5 6 Z " /><path fill="rgb(198,208,232)" stroke="rgb(198,208,232)" stroke-width="1" opacity="1" d="M 9.5 6 L 9.5 7 L 9.5 6 Z " /><path fill="rgb(198,208,232)" stroke="rgb(198,208,232)" stroke-width="1" opacity="1" d="M 6.5 10 L 6.5 11 L 6.5 10 Z " /><path fill="rgb(185,198,227)" stroke="rgb(185,198,227)" stroke-width="1" opacity="1" d="M 7.5 2 L 7.5 3 L 7.5 2 Z " /><path fill="rgb(185,198,227)" stroke="rgb(185,198,227)" stroke-width="1" opacity="1" d="M 9.5 3 L 9.5 4 L 9.5 3 Z " /><path fill="rgb(185,198,227)" stroke="rgb(185,198,227)" stroke-width="1" opacity="1" d="M 13.5 7 L 13.5 8 L 13.5 7 Z " /><path fill="rgb(185,198,227)" stroke="rgb(185,198,227)" stroke-width="1" opacity="1" d="M 10.5 11 L 10.5 12 L 10.5 11 Z " /><path fill="rgb(173,191,222)" stroke="rgb(173,191,222)" stroke-width="1" opacity="1" d="M 4.5 6 L 4.5 7 L 4.5 6 Z " /><path fill="rgb(173,191,222)" stroke="rgb(173,191,222)" stroke-width="1" opacity="1" d="M 6.5 11 L 6.5 12 L 6.5 11 Z " /><path fill="rgb(173,191,222)" stroke="rgb(173,191,222)" stroke-width="1" opacity="1" d="M 14.5 11 L 14.5 12 L 14.5 11 Z " /><path fill="rgb(206,221,235)" stroke="rgb(206,221,235)" stroke-width="1" opacity="1" d="M 2.5 7 L 2.5 8 L 2.5 7 Z " /><path fill="rgb(211,216,237)" stroke="rgb(211,216,237)" stroke-width="1" opacity="1" d="M 6.5 1 L 8 5.5 L 7 6.5 L 6 13 L 3 12.5 L 4 11.5 L 5 3.5 L 6.5 1 Z " /><path fill="rgb(211,216,237)" stroke="rgb(211,216,237)" stroke-width="1" opacity="1" d="M 11.5 1 L 14 8.5 L 14 11.5 L 15 12.5 L 11 13 L 9 4.5 L 11.5 1 Z " /><path fill="rgb(194,204,230)" stroke="rgb(194,204,230)" stroke-width="1" opacity="1" d="M 5.5 2 L 5.5 3 L 5.5 2 Z " /><path fill="rgb(194,204,230)" stroke="rgb(194,204,230)" stroke-width="1" opacity="1" d="M 12.5 3 L 12.5 4 L 12.5 3 Z " /><path fill="rgb(194,204,230)" stroke="rgb(194,204,230)" stroke-width="1" opacity="1" d="M 3.5 11 L 3.5 12 L 3.5 11 Z " /><path fill="rgb(194,204,230)" stroke="rgb(194,204,230)" stroke-width="1" opacity="1" d="M 1.5 12 L 1.5 13 L 1.5 12 Z " /><path fill="rgb(255,255,255)" stroke="rgb(255,255,255)" stroke-width="1" opacity="1" d="M 0 3 L 3 3.5 L 2 4.5 L 2 8.5 L 1 9.5 L 0.5 14 L 0 3 Z " /><path fill="rgb(255,255,255)" stroke="rgb(255,255,255)" stroke-width="1" opacity="1" d="M 15.5 3 L 16 6.5 L 15 6.5 L 15.5 3 Z " /><path fill="rgb(255,255,255)" stroke="rgb(255,255,255)" stroke-width="1" opacity="1" d="M 8.5 15 L 8.5 16 L 8.5 15 Z " /><path fill="rgb(121,158,201)" stroke="rgb(121,158,201)" stroke-width="1" opacity="1" d="M 5.5 0 L 7 0.5 L 5.5 1 L 5.5 0 Z " /><path fill="rgb(121,158,201)" stroke="rgb(121,158,201)" stroke-width="1" opacity="1" d="M 3.5 4 Q 6 5 4.5 6 Q 2 5 3.5 4 Z " /><path fill="rgb(121,158,201)" stroke="rgb(121,158,201)" stroke-width="1" opacity="1" d="M 8.5 4 L 8.5 5 L 8.5 4 Z " /><path fill="rgb(121,158,201)" stroke="rgb(121,158,201)" stroke-width="1" opacity="1" d="M 9.5 8 L 9.5 9 L 9.5 8 Z " /><path fill="rgb(121,158,201)" stroke="rgb(121,158,201)" stroke-width="1" opacity="1" d="M 3.5 9 L 3.5 10 L 3.5 9 Z " /><path fill="rgb(121,158,201)" stroke="rgb(121,158,201)" stroke-width="1" opacity="1" d="M 11.5 13 L 16 13.5 L 11.5 14 L 11.5 13 Z " /><path fill="rgb(79,131,188)" stroke="rgb(79,131,188)" stroke-width="1" opacity="1" d="M 4.5 4 L 4.5 5 L 4.5 4 Z " /><path fill="rgb(79,131,188)" stroke="rgb(79,131,188)" stroke-width="1" opacity="1" d="M 8.5 5 L 8.5 6 L 8.5 5 Z " /><path fill="rgb(79,131,188)" stroke="rgb(79,131,188)" stroke-width="1" opacity="1" d="M 1.5 14 L 1.5 15 L 1.5 14 Z " /><path fill="rgb(246,246,246)" stroke="rgb(246,246,246)" stroke-width="1" opacity="1" d="M 8.5 0 L 8.5 1 L 8.5 0 Z " /><path fill="rgb(246,246,246)" stroke="rgb(246,246,246)" stroke-width="1" opacity="1" d="M 13.5 1 L 13.5 2 L 13.5 1 Z " /><path fill="rgb(246,246,246)" stroke="rgb(246,246,246)" stroke-width="1" opacity="1" d="M 14.5 5 L 14.5 6 L 14.5 5 Z " /><path fill="rgb(246,246,246)" stroke="rgb(246,246,246)" stroke-width="1" opacity="1" d="M 1.5 11 L 1.5 12 L 1.5 11 Z " /><path fill="rgb(246,246,246)" stroke="rgb(246,246,246)" stroke-width="1" opacity="1" d="M 7.5 13 L 7.5 14 L 7.5 13 Z " /><path fill="rgb(31,103,170)" stroke="rgb(31,103,170)" stroke-width="1" opacity="1" d="M 2.5 10 L 2.5 11 L 2.5 10 Z " /><path fill="rgb(31,103,170)" stroke="rgb(31,103,170)" stroke-width="1" opacity="1" d="M 9.5 12 L 9.5 13 L 9.5 12 Z " /><path fill="rgb(0,83,160)" stroke="rgb(0,83,160)" stroke-width="1" opacity="1" d="M 4.5 2 L 4.5 3 L 4.5 2 Z " /><path fill="rgb(0,83,160)" stroke="rgb(0,83,160)" stroke-width="1" opacity="1" d="M 8.5 6 L 8.5 7 L 8.5 6 Z " /><path fill="rgb(0,83,160)" stroke="rgb(0,83,160)" stroke-width="1" opacity="1" d="M 3.5 7 L 3.5 8 L 3.5 7 Z " /><path fill="rgb(0,83,160)" stroke="rgb(0,83,160)" stroke-width="1" opacity="1" d="M 2.5 11 L 2.5 12 L 2.5 11 Z " /><path fill="rgb(0,83,160)" stroke="rgb(0,83,160)" stroke-width="1" opacity="1" d="M 9.5 11 L 9.5 12 L 9.5 11 Z " /><path fill="rgb(0,83,160)" stroke="rgb(0,83,160)" stroke-width="1" opacity="1" d="M 2.5 13 L 6 14.5 L 2 15 L 2.5 13 Z " /><path fill="rgb(0,83,160)" stroke="rgb(0,83,160)" stroke-width="1" opacity="1" d="M 10.5 14 L 15 14.5 L 10.5 15 L 10.5 14 Z " /><path fill="rgb(157,183,214)" stroke="rgb(157,183,214)" stroke-width="1" opacity="1" d="M 4.5 0 L 4.5 1 L 4.5 0 Z " /><path fill="rgb(157,183,214)" stroke="rgb(157,183,214)" stroke-width="1" opacity="1" d="M 7.5 7 L 7.5 8 L 7.5 7 Z " /><path fill="rgb(157,183,214)" stroke="rgb(157,183,214)" stroke-width="1" opacity="1" d="M 9.5 7 L 9.5 8 L 9.5 7 Z " /><path fill="rgb(157,183,214)" stroke="rgb(157,183,214)" stroke-width="1" opacity="1" d="M 2.5 8 L 2.5 9 L 2.5 8 Z " /><path fill="rgb(157,183,214)" stroke="rgb(157,183,214)" stroke-width="1" opacity="1" d="M 8.5 10 L 8.5 11 L 8.5 10 Z " /><path fill="rgb(0,82,160)" stroke="rgb(0,82,160)" stroke-width="1" opacity="1" d="M 8.5 7 L 8.5 8 L 8.5 7 Z " /><path fill="rgb(175,197,219)" stroke="rgb(175,197,219)" stroke-width="1" opacity="1" d="M 12.5 0 L 12.5 1 L 12.5 0 Z " /><path fill="rgb(175,197,219)" stroke="rgb(175,197,219)" stroke-width="1" opacity="1" d="M 3.5 3 L 3.5 4 L 3.5 3 Z " /><path fill="rgb(175,197,219)" stroke="rgb(175,197,219)" stroke-width="1" opacity="1" d="M 14.5 7 L 14.5 8 L 14.5 7 Z " /><path fill="rgb(175,197,219)" stroke="rgb(175,197,219)" stroke-width="1" opacity="1" d="M 9.5 14 L 9.5 15 L 9.5 14 Z " /><path fill="rgb(117,149,178)" stroke="rgb(117,149,178)" stroke-width="1" opacity="1" d="M 2.5 9 L 2.5 10 L 2.5 9 Z " /><path fill="rgb(117,149,178)" stroke="rgb(117,149,178)" stroke-width="1" opacity="1" d="M 6.5 13 L 6.5 14 L 6.5 13 Z " /><path fill="rgb(117,149,178)" stroke="rgb(117,149,178)" stroke-width="1" opacity="1" d="M 9.5 13 L 9.5 14 L 9.5 13 Z " /><path fill="rgb(117,149,178)" stroke="rgb(117,149,178)" stroke-width="1" opacity="1" d="M 15.5 14 Q 17 15 14.5 16 L 10 15.5 L 14.5 15 L 15.5 14 Z " /><path fill="rgb(117,149,178)" stroke="rgb(117,149,178)" stroke-width="1" opacity="1" d="M 2.5 15 L 6 15.5 L 2.5 16 L 2.5 15 Z " /><path fill="rgb(153,170,191)" stroke="rgb(153,170,191)" stroke-width="1" opacity="1" d="M 7.5 8 L 7.5 9 L 7.5 8 Z " /><path fill="rgb(153,170,191)" stroke="rgb(153,170,191)" stroke-width="1" opacity="1" d="M 14.5 8 L 14.5 9 L 14.5 8 Z " /><path fill="rgb(153,170,191)" stroke="rgb(153,170,191)" stroke-width="1" opacity="1" d="M 7.5 10 L 7.5 11 L 7.5 10 Z " /><path fill="rgb(153,170,191)" stroke="rgb(153,170,191)" stroke-width="1" opacity="1" d="M 6.5 12 L 6.5 13 L 6.5 12 Z " /><path fill="rgb(153,170,191)" stroke="rgb(153,170,191)" stroke-width="1" opacity="1" d="M 6.5 14 L 6.5 15 L 6.5 14 Z " /><path fill="rgb(75,125,177)" stroke="rgb(75,125,177)" stroke-width="1" opacity="1" d="M 8.5 3 L 8.5 4 L 8.5 3 Z " /><path fill="rgb(75,125,177)" stroke="rgb(75,125,177)" stroke-width="1" opacity="1" d="M 3.5 5 L 3.5 6 L 3.5 5 Z " /><path fill="rgb(75,125,177)" stroke="rgb(75,125,177)" stroke-width="1" opacity="1" d="M 3.5 8 L 3.5 9 L 3.5 8 Z " /><path fill="rgb(75,125,177)" stroke="rgb(75,125,177)" stroke-width="1" opacity="1" d="M 8.5 9 L 10 9.5 L 8.5 10 L 8.5 9 Z " /><path fill="rgb(75,125,177)" stroke="rgb(75,125,177)" stroke-width="1" opacity="1" d="M 10.5 13 L 10.5 14 L 10.5 13 Z " /><path fill="rgb(147,174,211)" stroke="rgb(147,174,211)" stroke-width="1" opacity="1" d="M 7.5 0 L 8 1.5 L 7 1.5 L 7.5 0 Z " /><path fill="rgb(147,174,211)" stroke="rgb(147,174,211)" stroke-width="1" opacity="1" d="M 5.5 1 L 5.5 2 L 5.5 1 Z " /><path fill="rgb(147,174,211)" stroke="rgb(147,174,211)" stroke-width="1" opacity="1" d="M 9.5 1 L 9.5 2 L 9.5 1 Z " /><path fill="rgb(147,174,211)" stroke="rgb(147,174,211)" stroke-width="1" opacity="1" d="M 12.5 2 L 12.5 3 L 12.5 2 Z " /><path fill="rgb(147,174,211)" stroke="rgb(147,174,211)" stroke-width="1" opacity="1" d="M 13.5 6 L 13.5 7 L 13.5 6 Z " /><path fill="rgb(147,174,211)" stroke="rgb(147,174,211)" stroke-width="1" opacity="1" d="M 3.5 10 L 3.5 11 L 3.5 10 Z " /><path fill="rgb(147,174,211)" stroke="rgb(147,174,211)" stroke-width="1" opacity="1" d="M 14.5 10 L 14.5 11 L 14.5 10 Z " /><path fill="rgb(202,208,213)" stroke="rgb(202,208,213)" stroke-width="1" opacity="1" d="M 7.5 11 L 7.5 12 L 7.5 11 Z " /><path fill="rgb(202,208,213)" stroke="rgb(202,208,213)" stroke-width="1" opacity="1" d="M 15.5 11 L 15.5 12 L 15.5 11 Z " /><path fill="rgb(202,208,213)" stroke="rgb(202,208,213)" stroke-width="1" opacity="1" d="M 6.5 15 L 6.5 16 L 6.5 15 Z " /><path fill="rgb(202,208,213)" stroke="rgb(202,208,213)" stroke-width="1" opacity="1" d="M 15.5 15 L 15.5 16 L 15.5 15 Z " /><path fill="rgb(221,229,238)" stroke="rgb(221,229,238)" stroke-width="1" opacity="1" d="M 9.5 0 L 9.5 1 L 9.5 0 Z " /><path fill="rgb(221,229,238)" stroke="rgb(221,229,238)" stroke-width="1" opacity="1" d="M 3.5 2 L 3.5 3 L 3.5 2 Z " /><path fill="rgb(221,229,238)" stroke="rgb(221,229,238)" stroke-width="1" opacity="1" d="M 8.5 11 L 8.5 12 L 8.5 11 Z " /><path fill="rgb(250,250,250)" stroke="rgb(250,250,250)" stroke-width="1" opacity="1" d="M 0.5 0 Q 4.88 -1.5 4 1.5 L 2.5 1 Q -0.5 1.5 0.5 0 Z " /><path fill="rgb(250,250,250)" stroke="rgb(250,250,250)" stroke-width="1" opacity="1" d="M 13.5 0 L 16 0.5 L 13.5 1 L 13.5 0 Z " /><path fill="rgb(250,250,250)" stroke="rgb(250,250,250)" stroke-width="1" opacity="1" d="M 2.5 6 L 2.5 7 L 2.5 6 Z " /><path fill="rgb(250,250,250)" stroke="rgb(250,250,250)" stroke-width="1" opacity="1" d="M 15.5 9 L 15.5 10 L 15.5 9 Z " /><path fill="rgb(250,250,250)" stroke="rgb(250,250,250)" stroke-width="1" opacity="1" d="M 8.5 12 L 8.5 13 L 8.5 12 Z " /><path fill="rgb(138,168,208)" stroke="rgb(138,168,208)" stroke-width="1" opacity="1" d="M 9.5 2 L 9.5 3 L 9.5 2 Z " /><path fill="rgb(138,168,208)" stroke="rgb(138,168,208)" stroke-width="1" opacity="1" d="M 10.5 12 L 10.5 13 L 10.5 12 Z " /><path fill="rgb(154,170,190)" stroke="rgb(154,170,190)" stroke-width="1" opacity="1" d="M 7.5 9 L 7.5 10 L 7.5 9 Z " /><path fill="rgb(154,170,190)" stroke="rgb(154,170,190)" stroke-width="1" opacity="1" d="M 15.5 12 L 15.5 13 L 15.5 12 Z " /><path fill="rgb(137,167,200)" stroke="rgb(137,167,200)" stroke-width="1" opacity="1" d="M 10.5 0 L 13 1.5 L 11.5 1 Q 9.12 0.87 10.5 0 Z " /><path fill="rgb(137,167,200)" stroke="rgb(137,167,200)" stroke-width="1" opacity="1" d="M 13.5 4 L 14 5.5 L 13 5.5 L 13.5 4 Z " /><path fill="rgb(137,167,200)" stroke="rgb(137,167,200)" stroke-width="1" opacity="1" d="M 14.5 9 L 14.5 10 L 14.5 9 Z " /><path fill="rgb(137,167,200)" stroke="rgb(137,167,200)" stroke-width="1" opacity="1" d="M 1.5 13 L 1.5 14 L 1.5 13 Z " /><path fill="rgb(25,96,168)" stroke="rgb(25,96,168)" stroke-width="1" opacity="1" d="M 4.5 1 L 4.5 2 L 4.5 1 Z " /><path fill="rgb(25,96,168)" stroke="rgb(25,96,168)" stroke-width="1" opacity="1" d="M 4.5 3 L 4.5 4 L 4.5 3 Z " /><path fill="rgb(25,96,168)" stroke="rgb(25,96,168)" stroke-width="1" opacity="1" d="M 3.5 6 L 3.5 7 L 3.5 6 Z " /><path fill="rgb(25,96,168)" stroke="rgb(25,96,168)" stroke-width="1" opacity="1" d="M 8.5 8 L 8.5 9 L 8.5 8 Z " /><path fill="rgb(25,96,168)" stroke="rgb(25,96,168)" stroke-width="1" opacity="1" d="M 9.5 10 L 9.5 11 L 9.5 10 Z " /><path fill="rgb(25,96,168)" stroke="rgb(25,96,168)" stroke-width="1" opacity="1" d="M 2.5 12 L 6 13.5 L 3.5 14 Q 1 13 2.5 12 Z " /><path fill="rgb(174,190,206)" stroke="rgb(174,190,206)" stroke-width="1" opacity="1" d="M 8.5 2 L 8.5 3 L 8.5 2 Z " /><path fill="rgb(174,190,206)" stroke="rgb(174,190,206)" stroke-width="1" opacity="1" d="M 13.5 3 L 13.5 4 L 13.5 3 Z " /><path fill="rgb(174,190,206)" stroke="rgb(174,190,206)" stroke-width="1" opacity="1" d="M 1.5 15 L 1.5 16 L 1.5 15 Z " /></svg>