<svg width="16" height="16" version="1.1" xmlns="http://www.w3.org/2000/svg" desc="Created with imagetracer.js version 1.2.6" ><path fill="rgb(5,35,189)" stroke="rgb(5,35,189)" stroke-width="1" opacity="0.2" d="M 7.5 1 L 7.5 2 L 7.5 1 Z " /><path fill="rgb(5,35,189)" stroke="rgb(5,35,189)" stroke-width="1" opacity="0.2" d="M 14.5 1 L 14.5 2 L 14.5 1 Z " /><path fill="rgb(5,35,189)" stroke="rgb(5,35,189)" stroke-width="1" opacity="0.2" d="M 12.5 4 L 12.5 5 L 12.5 4 Z " /><path fill="rgb(5,35,189)" stroke="rgb(5,35,189)" stroke-width="1" opacity="0.2" d="M 10.5 14 L 10.5 15 L 10.5 14 Z " /><path fill="rgb(5,35,189)" stroke="rgb(5,35,189)" stroke-width="1" opacity="0.2" d="M 4.5 15 L 4.5 16 L 4.5 15 Z " /><path fill="rgb(0,0,0)" stroke="rgb(0,0,0)" stroke-width="1" opacity="0" d="M 0 0 L 4 0.5 L 0.5 4 L 0 3.5 L 0 0 Z " /><path fill="rgb(0,0,0)" stroke="rgb(0,0,0)" stroke-width="1" opacity="0" d="M 8.5 1 L 12 3.5 L 13.5 6 L 15 6 L 15 11 Q 12.33 9.88 13 12.5 L 8.5 15 Q 3.25 13.25 5 4.5 L 6 2 L 8.5 1 Z " /><path fill="rgb(0,0,0)" stroke="rgb(0,0,0)" stroke-width="1" opacity="0" d="M 0.5 12 L 4 15.5 L 3.5 16 L 0 16 L 0.5 12 Z " /><path fill="rgb(0,0,0)" stroke="rgb(0,0,0)" stroke-width="1" opacity="0" d="M 14.5 13 L 15 16 L 12 15.5 L 14.5 13 Z " /><path fill="rgb(5,35,189)" stroke="rgb(5,35,189)" stroke-width="1" opacity="1" d="M 7.5 0 L 12.5 1 L 14 0.5 L 13.5 5 L 10.5 1 Q 6.5 1.75 7.5 0 Z " /><path fill="rgb(5,35,189)" stroke="rgb(5,35,189)" stroke-width="1" opacity="1" d="M 4.5 1 L 6 1.5 Q 2.6 4.1 4 11.5 L 6.5 15 L 10 15.5 L 6.5 16 L 1 11.5 Q -0.31 3.19 4.5 1 Z " /><path fill="rgb(5,35,189)" stroke="rgb(5,35,189)" stroke-width="1" opacity="0.8" d="M 6.5 0 L 6.5 1 L 6.5 0 Z " /><path fill="rgb(5,35,189)" stroke="rgb(5,35,189)" stroke-width="1" opacity="0.8" d="M 5.5 2 L 5.5 3 L 5.5 2 Z " /><path fill="rgb(5,35,189)" stroke="rgb(5,35,189)" stroke-width="1" opacity="0.8" d="M 13.5 5 L 13.5 6 L 13.5 5 Z " /><path fill="rgb(5,35,189)" stroke="rgb(5,35,189)" stroke-width="1" opacity="0.8" d="M 13.5 12 L 13.5 13 L 13.5 12 Z " /><path fill="rgb(5,35,189)" stroke="rgb(5,35,189)" stroke-width="1" opacity="0.8" d="M 2.5 13 L 2.5 14 L 2.5 13 Z " /><path fill="rgb(5,35,189)" stroke="rgb(5,35,189)" stroke-width="1" opacity="0.6666666666666666" d="M 12.5 3 L 12.5 4 L 12.5 3 Z " /><path fill="rgb(5,35,189)" stroke="rgb(5,35,189)" stroke-width="1" opacity="0.6666666666666666" d="M 4.5 5 L 4.5 6 L 4.5 5 Z " /><path fill="rgb(5,35,189)" stroke="rgb(5,35,189)" stroke-width="1" opacity="0.6666666666666666" d="M 4.5 10 L 4.5 11 L 4.5 10 Z " /><path fill="rgb(5,35,189)" stroke="rgb(5,35,189)" stroke-width="1" opacity="0.6666666666666666" d="M 13.5 13 Q 15 14 12.5 15 L 10.5 16 Q 9 15 11.5 14 L 13.5 13 Z " /><path fill="rgb(5,35,189)" stroke="rgb(5,35,189)" stroke-width="1" opacity="0.6666666666666666" d="M 3.5 14 L 3.5 15 L 3.5 14 Z " /><path fill="rgb(5,35,189)" stroke="rgb(5,35,189)" stroke-width="1" opacity="0.26666666666666666" d="M 14.5 2 L 15 5.5 L 14 5.5 L 14.5 2 Z " /><path fill="rgb(5,35,189)" stroke="rgb(5,35,189)" stroke-width="1" opacity="0.26666666666666666" d="M 5.5 3 L 5.5 4 L 5.5 3 Z " /><path fill="rgb(5,35,189)" stroke="rgb(5,35,189)" stroke-width="1" opacity="0.26666666666666666" d="M 13.5 11 L 13.5 12 L 13.5 11 Z " /><path fill="rgb(5,35,189)" stroke="rgb(5,35,189)" stroke-width="1" opacity="0.06666666666666667" d="M 4.5 0 L 4.5 1 L 4.5 0 Z " /><path fill="rgb(5,35,189)" stroke="rgb(5,35,189)" stroke-width="1" opacity="0.06666666666666667" d="M 0.5 4 L 0.5 5 L 0.5 4 Z " /><path fill="rgb(5,35,189)" stroke="rgb(5,35,189)" stroke-width="1" opacity="0.06666666666666667" d="M 6.5 13 L 6.5 14 L 6.5 13 Z " /><path fill="rgb(5,35,189)" stroke="rgb(5,35,189)" stroke-width="1" opacity="0.9333333333333333" d="M 1.5 4 L 1.5 5 L 1.5 4 Z " /><path fill="rgb(5,35,189)" stroke="rgb(5,35,189)" stroke-width="1" opacity="0.9333333333333333" d="M 4.5 4 L 4.5 5 L 4.5 4 Z " /><path fill="rgb(5,35,189)" stroke="rgb(5,35,189)" stroke-width="1" opacity="0.9333333333333333" d="M 4.5 11 L 4.5 12 L 4.5 11 Z " /><path fill="rgb(5,35,189)" stroke="rgb(5,35,189)" stroke-width="1" opacity="0.5333333333333333" d="M 10.5 1 L 10.5 2 L 10.5 1 Z " /><path fill="rgb(5,35,189)" stroke="rgb(5,35,189)" stroke-width="1" opacity="0.5333333333333333" d="M 0.5 6 L 0.5 7 L 0.5 6 Z " /><path fill="rgb(5,35,189)" stroke="rgb(5,35,189)" stroke-width="1" opacity="0.5333333333333333" d="M 1.5 12 L 1.5 13 L 1.5 12 Z " /><path fill="rgb(5,35,189)" stroke="rgb(5,35,189)" stroke-width="1" opacity="0.7333333333333333" d="M 6.5 1 L 6.5 2 L 6.5 1 Z " /><path fill="rgb(5,35,189)" stroke="rgb(5,35,189)" stroke-width="1" opacity="0.7333333333333333" d="M 0.5 7 L 1 8.5 L 0 8.5 L 0.5 7 Z " /><path fill="rgb(5,35,189)" stroke="rgb(5,35,189)" stroke-width="1" opacity="0.6" d="M 2.5 2 L 2.5 3 L 2.5 2 Z " /><path fill="rgb(5,35,189)" stroke="rgb(5,35,189)" stroke-width="1" opacity="0.6" d="M 4.5 6 L 4.5 7 L 4.5 6 Z " /><path fill="rgb(5,35,189)" stroke="rgb(5,35,189)" stroke-width="1" opacity="0.6" d="M 0.5 9 L 0.5 10 L 0.5 9 Z " /><path fill="rgb(5,35,189)" stroke="rgb(5,35,189)" stroke-width="1" opacity="0.6" d="M 4.5 9 L 4.5 10 L 4.5 9 Z " /><path fill="rgb(5,35,189)" stroke="rgb(5,35,189)" stroke-width="1" opacity="0.6" d="M 14.5 11 L 14.5 12 L 14.5 11 Z " /><path fill="rgb(5,35,189)" stroke="rgb(5,35,189)" stroke-width="1" opacity="0.6" d="M 12.5 13 L 12.5 14 L 12.5 13 Z " /><path fill="rgb(5,35,189)" stroke="rgb(5,35,189)" stroke-width="1" opacity="0.13333333333333333" d="M 14.5 0 L 14.5 1 L 14.5 0 Z " /><path fill="rgb(5,35,189)" stroke="rgb(5,35,189)" stroke-width="1" opacity="0.13333333333333333" d="M 0.5 11 L 0.5 12 L 0.5 11 Z " /><path fill="rgb(5,35,189)" stroke="rgb(5,35,189)" stroke-width="1" opacity="0.45098039215686275" d="M 5.5 0 L 5.5 1 L 5.5 0 Z " /><path fill="rgb(5,35,189)" stroke="rgb(5,35,189)" stroke-width="1" opacity="0.45098039215686275" d="M 12.5 0 L 12.5 1 L 12.5 0 Z " /><path fill="rgb(5,35,189)" stroke="rgb(5,35,189)" stroke-width="1" opacity="0.45098039215686275" d="M 3.5 1 L 3.5 2 L 3.5 1 Z " /><path fill="rgb(5,35,189)" stroke="rgb(5,35,189)" stroke-width="1" opacity="0.45098039215686275" d="M 1.5 3 L 1.5 4 L 1.5 3 Z " /><path fill="rgb(5,35,189)" stroke="rgb(5,35,189)" stroke-width="1" opacity="0.45098039215686275" d="M 4.5 7 L 5 8.5 L 4 8.5 L 4.5 7 Z " /><path fill="rgb(5,35,189)" stroke="rgb(5,35,189)" stroke-width="1" opacity="0.45098039215686275" d="M 0.5 10 L 0.5 11 L 0.5 10 Z " /><path fill="rgb(5,35,189)" stroke="rgb(5,35,189)" stroke-width="1" opacity="0.45098039215686275" d="M 5.5 12 L 5.5 13 L 5.5 12 Z " /><path fill="rgb(5,35,189)" stroke="rgb(5,35,189)" stroke-width="1" opacity="0.45098039215686275" d="M 14.5 12 L 14.5 13 L 14.5 12 Z " /><path fill="rgb(5,35,189)" stroke="rgb(5,35,189)" stroke-width="1" opacity="0.45098039215686275" d="M 5.5 15 L 5.5 16 L 5.5 15 Z " /><path fill="rgb(255,255,255)" stroke="rgb(255,255,255)" stroke-width="1" opacity="0" d="M 15.5 0 L 16 15.5 L 15 15.5 L 15.5 0 Z " /><path fill="rgb(5,35,189)" stroke="rgb(5,35,189)" stroke-width="1" opacity="0.8666666666666667" d="M 11.5 0 L 11.5 1 L 11.5 0 Z " /><path fill="rgb(5,35,189)" stroke="rgb(5,35,189)" stroke-width="1" opacity="0.8666666666666667" d="M 5.5 13 Q 8 14 6.5 15 Q 4 14 5.5 13 Z " /><path fill="rgb(5,35,189)" stroke="rgb(5,35,189)" stroke-width="1" opacity="0.3333333333333333" d="M 11.5 2 L 11.5 3 L 11.5 2 Z " /><path fill="rgb(5,35,189)" stroke="rgb(5,35,189)" stroke-width="1" opacity="0.3333333333333333" d="M 0.5 5 L 0.5 6 L 0.5 5 Z " /><path fill="rgb(5,35,189)" stroke="rgb(5,35,189)" stroke-width="1" opacity="0.3333333333333333" d="M 7.5 14 L 7.5 15 L 7.5 14 Z " /><path fill="rgb(5,35,189)" stroke="rgb(5,35,189)" stroke-width="1" opacity="0.3333333333333333" d="M 11.5 15 L 11.5 16 L 11.5 15 Z " /></svg>