<svg width="48" height="48" version="1.1" xmlns="http://www.w3.org/2000/svg" desc="Created with imagetracer.js version 1.2.6" ><path fill="rgb(0,0,0)" stroke="rgb(0,0,0)" stroke-width="1" opacity="0" d="M 0 0 L 48 0 L 48 48 L 0 48 L 0 0 Z M 20 7 L 9 11 Q 3 14 1 21 L 1 28 L 3 32 L 8 36 L 14 39 L 17 40 L 24 40 L 25 41 Q 27 39 33 40 L 42 36 L 47 31 L 47 28 L 41 28 L 41 30 L 40 30 L 34 34 L 32 34 L 34 33 L 36 30 Q 37 24 33 24 L 35 23 L 36 21 L 36 18 L 33 15 L 34 14 Q 39 15 42 19 L 47 19 L 46 16 L 40 10 L 35 8 Q 31 9 31 7 L 20 7 Z " /><path fill="rgb(0,0,0)" stroke="rgb(0,0,0)" stroke-width="1" opacity="0" d="M 22.5 12 L 27 12.5 L 22.5 13 L 22.5 12 Z " /><path fill="rgb(0,0,0)" stroke="rgb(0,0,0)" stroke-width="1" opacity="0" d="M 17.5 13 L 19 13.5 L 19 34 L 30.5 34 L 30.5 35 L 19.5 35 Q 18.37 33 15 34 L 15 14.5 L 16.5 14 L 17.5 13 Z " /><path fill="rgb(0,0,0)" stroke="rgb(0,0,0)" stroke-width="1" opacity="0" d="M 30.5 13 L 32 13.5 L 30.5 14 L 30.5 13 Z " /><path fill="rgb(9,46,110)" stroke="rgb(9,46,110)" stroke-width="1" opacity="0.4666666666666667" d="M 31.5 8 L 31.5 9 L 31.5 8 Z " /><path fill="rgb(9,46,110)" stroke="rgb(9,46,110)" stroke-width="1" opacity="0.4666666666666667" d="M 14.5 9 L 14.5 10 L 14.5 9 Z " /><path fill="rgb(9,46,110)" stroke="rgb(9,46,110)" stroke-width="1" opacity="0.4666666666666667" d="M 37.5 10 L 37.5 11 L 37.5 10 Z " /><path fill="rgb(9,46,110)" stroke="rgb(9,46,110)" stroke-width="1" opacity="0.4666666666666667" d="M 39.5 11 L 39.5 12 L 39.5 11 Z " /><path fill="rgb(9,46,110)" stroke="rgb(9,46,110)" stroke-width="1" opacity="0.4666666666666667" d="M 17.5 12 L 17.5 13 L 17.5 12 Z " /><path fill="rgb(9,46,110)" stroke="rgb(9,46,110)" stroke-width="1" opacity="0.4666666666666667" d="M 14.5 13 L 14.5 14 L 14.5 13 Z " /><path fill="rgb(9,46,110)" stroke="rgb(9,46,110)" stroke-width="1" opacity="0.4666666666666667" d="M 42.5 13 L 45 15.5 L 44.5 16 L 42 13.5 L 42.5 13 Z " /><path fill="rgb(9,46,110)" stroke="rgb(9,46,110)" stroke-width="1" opacity="0.4666666666666667" d="M 3.5 17 L 3.5 18 L 3.5 17 Z " /><path fill="rgb(9,46,110)" stroke="rgb(9,46,110)" stroke-width="1" opacity="0.4666666666666667" d="M 2.5 19 L 2.5 20 L 2.5 19 Z " /><path fill="rgb(9,46,110)" stroke="rgb(9,46,110)" stroke-width="1" opacity="0.4666666666666667" d="M 32.5 24 L 32.5 25 L 32.5 24 Z " /><path fill="rgb(9,46,110)" stroke="rgb(9,46,110)" stroke-width="1" opacity="0.4666666666666667" d="M 34.5 30 L 34.5 31 L 34.5 30 Z " /><path fill="rgb(9,46,110)" stroke="rgb(9,46,110)" stroke-width="1" opacity="0.4666666666666667" d="M 4.5 31 L 4.5 32 L 4.5 31 Z " /><path fill="rgb(9,46,110)" stroke="rgb(9,46,110)" stroke-width="1" opacity="0.4666666666666667" d="M 39.5 31 L 39.5 32 L 39.5 31 Z " /><path fill="rgb(9,46,110)" stroke="rgb(9,46,110)" stroke-width="1" opacity="0.4666666666666667" d="M 19.5 35 L 19.5 36 L 19.5 35 Z " /><path fill="rgb(9,46,110)" stroke="rgb(9,46,110)" stroke-width="1" opacity="0.4666666666666667" d="M 29.5 35 L 29.5 36 L 29.5 35 Z " /><path fill="rgb(9,46,110)" stroke="rgb(9,46,110)" stroke-width="1" opacity="0.4666666666666667" d="M 36.5 37 L 36.5 38 L 36.5 37 Z " /><path fill="rgb(9,46,110)" stroke="rgb(9,46,110)" stroke-width="1" opacity="0.4666666666666667" d="M 33.5 38 L 33.5 39 L 33.5 38 Z " /><path fill="rgb(9,46,110)" stroke="rgb(9,46,110)" stroke-width="1" opacity="0.4666666666666667" d="M 21.5 39 L 21.5 40 L 21.5 39 Z " /><path fill="rgb(9,46,110)" stroke="rgb(9,46,110)" stroke-width="1" opacity="0.4666666666666667" d="M 28.5 39 L 28.5 40 L 28.5 39 Z " /><path fill="rgb(9,46,110)" stroke="rgb(9,46,110)" stroke-width="1" opacity="0.8235294117647058" d="M 20.5 8 L 22 8.5 L 20.5 9 L 20.5 8 Z " /><path fill="rgb(9,46,110)" stroke="rgb(9,46,110)" stroke-width="1" opacity="0.8235294117647058" d="M 27.5 8 L 29 8.5 L 27.5 9 L 27.5 8 Z " /><path fill="rgb(9,46,110)" stroke="rgb(9,46,110)" stroke-width="1" opacity="0.8235294117647058" d="M 15.5 9 L 15.5 10 L 15.5 9 Z " /><path fill="rgb(9,46,110)" stroke="rgb(9,46,110)" stroke-width="1" opacity="0.8235294117647058" d="M 33.5 9 L 33.5 10 L 33.5 9 Z " /><path fill="rgb(9,46,110)" stroke="rgb(9,46,110)" stroke-width="1" opacity="0.8235294117647058" d="M 36.5 10 L 36.5 11 L 36.5 10 Z " /><path fill="rgb(9,46,110)" stroke="rgb(9,46,110)" stroke-width="1" opacity="0.8235294117647058" d="M 19.5 11 L 21 11.5 L 19.5 12 L 19.5 11 Z " /><path fill="rgb(9,46,110)" stroke="rgb(9,46,110)" stroke-width="1" opacity="0.8235294117647058" d="M 29.5 11 L 29.5 12 L 29.5 11 Z " /><path fill="rgb(9,46,110)" stroke="rgb(9,46,110)" stroke-width="1" opacity="0.8235294117647058" d="M 38.5 11 L 38.5 12 L 38.5 11 Z " /><path fill="rgb(9,46,110)" stroke="rgb(9,46,110)" stroke-width="1" opacity="0.8235294117647058" d="M 33.5 12 L 33.5 13 L 33.5 12 Z " /><path fill="rgb(9,46,110)" stroke="rgb(9,46,110)" stroke-width="1" opacity="0.8235294117647058" d="M 40.5 12 L 40.5 13 L 40.5 12 Z " /><path fill="rgb(9,46,110)" stroke="rgb(9,46,110)" stroke-width="1" opacity="0.8235294117647058" d="M 13.5 13 L 13.5 14 L 13.5 13 Z " /><path fill="rgb(9,46,110)" stroke="rgb(9,46,110)" stroke-width="1" opacity="0.8235294117647058" d="M 6.5 14 Q 8 15 5.5 16 Q 4 15 6.5 14 Z " /><path fill="rgb(9,46,110)" stroke="rgb(9,46,110)" stroke-width="1" opacity="0.8235294117647058" d="M 20.5 14 L 25 14.5 L 20.5 15 L 20.5 14 Z " /><path fill="rgb(9,46,110)" stroke="rgb(9,46,110)" stroke-width="1" opacity="0.8235294117647058" d="M 27.5 14 L 29 14.5 L 27.5 15 L 27.5 14 Z " /><path fill="rgb(9,46,110)" stroke="rgb(9,46,110)" stroke-width="1" opacity="0.8235294117647058" d="M 39.5 15 L 39.5 16 L 39.5 15 Z " /><path fill="rgb(9,46,110)" stroke="rgb(9,46,110)" stroke-width="1" opacity="0.8235294117647058" d="M 33.5 16 L 33.5 17 L 33.5 16 Z " /><path fill="rgb(9,46,110)" stroke="rgb(9,46,110)" stroke-width="1" opacity="0.8235294117647058" d="M 45.5 17 L 45.5 18 L 45.5 17 Z " /><path fill="rgb(9,46,110)" stroke="rgb(9,46,110)" stroke-width="1" opacity="0.8235294117647058" d="M 3.5 18 L 3.5 19 L 3.5 18 Z " /><path fill="rgb(9,46,110)" stroke="rgb(9,46,110)" stroke-width="1" opacity="0.8235294117647058" d="M 34.5 18 L 35 19.5 L 34 19.5 L 34.5 18 Z " /><path fill="rgb(9,46,110)" stroke="rgb(9,46,110)" stroke-width="1" opacity="0.8235294117647058" d="M 2.5 20 L 2.5 21 L 2.5 20 Z " /><path fill="rgb(9,46,110)" stroke="rgb(9,46,110)" stroke-width="1" opacity="0.8235294117647058" d="M 32.5 22 L 32.5 23 L 32.5 22 Z " /><path fill="rgb(9,46,110)" stroke="rgb(9,46,110)" stroke-width="1" opacity="0.8235294117647058" d="M 31.5 24 L 31.5 25 L 31.5 24 Z " /><path fill="rgb(9,46,110)" stroke="rgb(9,46,110)" stroke-width="1" opacity="0.8235294117647058" d="M 2.5 26 L 2.5 27 L 2.5 26 Z " /><path fill="rgb(9,46,110)" stroke="rgb(9,46,110)" stroke-width="1" opacity="0.8235294117647058" d="M 34.5 27 L 35 29.5 L 34 29.5 L 34.5 27 Z " /><path fill="rgb(9,46,110)" stroke="rgb(9,46,110)" stroke-width="1" opacity="0.8235294117647058" d="M 41.5 30 L 41.5 31 L 41.5 30 Z " /><path fill="rgb(9,46,110)" stroke="rgb(9,46,110)" stroke-width="1" opacity="0.8235294117647058" d="M 44.5 31 L 45 31.5 L 42.5 34 L 42 33.5 L 44.5 31 Z " /><path fill="rgb(9,46,110)" stroke="rgb(9,46,110)" stroke-width="1" opacity="0.8235294117647058" d="M 30.5 32 L 30.5 33 L 30.5 32 Z " /><path fill="rgb(9,46,110)" stroke="rgb(9,46,110)" stroke-width="1" opacity="0.8235294117647058" d="M 8.5 34 L 8.5 35 L 8.5 34 Z " /><path fill="rgb(9,46,110)" stroke="rgb(9,46,110)" stroke-width="1" opacity="0.8235294117647058" d="M 14.5 34 L 14.5 35 L 14.5 34 Z " /><path fill="rgb(9,46,110)" stroke="rgb(9,46,110)" stroke-width="1" opacity="0.8235294117647058" d="M 17.5 35 L 17.5 36 L 17.5 35 Z " /><path fill="rgb(9,46,110)" stroke="rgb(9,46,110)" stroke-width="1" opacity="0.8235294117647058" d="M 31.5 35 L 31.5 36 L 31.5 35 Z " /><path fill="rgb(9,46,110)" stroke="rgb(9,46,110)" stroke-width="1" opacity="0.8235294117647058" d="M 39.5 35 L 39.5 36 L 39.5 35 Z " /><path fill="rgb(9,46,110)" stroke="rgb(9,46,110)" stroke-width="1" opacity="0.8235294117647058" d="M 37.5 36 L 37.5 37 L 37.5 36 Z " /><path fill="rgb(9,46,110)" stroke="rgb(9,46,110)" stroke-width="1" opacity="0.8235294117647058" d="M 14.5 37 L 14.5 38 L 14.5 37 Z " /><path fill="rgb(9,46,110)" stroke="rgb(9,46,110)" stroke-width="1" opacity="0.8235294117647058" d="M 35.5 37 L 35.5 38 L 35.5 37 Z " /><path fill="rgb(9,46,110)" stroke="rgb(9,46,110)" stroke-width="1" opacity="0.8235294117647058" d="M 17.5 38 L 17.5 39 L 17.5 38 Z " /><path fill="rgb(9,46,110)" stroke="rgb(9,46,110)" stroke-width="1" opacity="0.8235294117647058" d="M 31.5 38 L 31.5 39 L 31.5 38 Z " /><path fill="rgb(9,46,110)" stroke="rgb(9,46,110)" stroke-width="1" opacity="0.9607843137254902" d="M 22.5 8 L 27 8.5 L 22.5 9 L 22.5 8 Z " /><path fill="rgb(9,46,110)" stroke="rgb(9,46,110)" stroke-width="1" opacity="0.9607843137254902" d="M 16.5 9 L 16.5 10 L 16.5 9 Z " /><path fill="rgb(9,46,110)" stroke="rgb(9,46,110)" stroke-width="1" opacity="0.9607843137254902" d="M 32.5 9 L 32.5 10 L 32.5 9 Z " /><path fill="rgb(9,46,110)" stroke="rgb(9,46,110)" stroke-width="1" opacity="0.9607843137254902" d="M 13.5 10 L 13.5 11 L 13.5 10 Z " /><path fill="rgb(9,46,110)" stroke="rgb(9,46,110)" stroke-width="1" opacity="0.9607843137254902" d="M 11.5 11 L 11.5 12 L 11.5 11 Z " /><path fill="rgb(9,46,110)" stroke="rgb(9,46,110)" stroke-width="1" opacity="0.9607843137254902" d="M 18.5 11 L 18.5 12 L 18.5 11 Z " /><path fill="rgb(9,46,110)" stroke="rgb(9,46,110)" stroke-width="1" opacity="0.9607843137254902" d="M 30.5 11 L 30.5 12 L 30.5 11 Z " /><path fill="rgb(9,46,110)" stroke="rgb(9,46,110)" stroke-width="1" opacity="0.9607843137254902" d="M 9.5 12 L 9.5 13 L 9.5 12 Z " /><path fill="rgb(9,46,110)" stroke="rgb(9,46,110)" stroke-width="1" opacity="0.9607843137254902" d="M 15.5 12 L 15.5 13 L 15.5 12 Z " /><path fill="rgb(9,46,110)" stroke="rgb(9,46,110)" stroke-width="1" opacity="0.9607843137254902" d="M 34.5 12 L 34.5 13 L 34.5 12 Z " /><path fill="rgb(9,46,110)" stroke="rgb(9,46,110)" stroke-width="1" opacity="0.9607843137254902" d="M 36.5 13 L 36.5 14 L 36.5 13 Z " /><path fill="rgb(9,46,110)" stroke="rgb(9,46,110)" stroke-width="1" opacity="0.9607843137254902" d="M 41.5 13 L 45 16.5 L 44.5 17 L 41 13.5 L 41.5 13 Z " /><path fill="rgb(9,46,110)" stroke="rgb(9,46,110)" stroke-width="1" opacity="0.9607843137254902" d="M 38.5 14 L 38.5 15 L 38.5 14 Z " /><path fill="rgb(9,46,110)" stroke="rgb(9,46,110)" stroke-width="1" opacity="0.9607843137254902" d="M 24.5 15 L 25 32.5 L 24 32.5 L 24.5 15 Z " /><path fill="rgb(9,46,110)" stroke="rgb(9,46,110)" stroke-width="1" opacity="0.9607843137254902" d="M 31.5 15 L 31.5 16 L 31.5 15 Z " /><path fill="rgb(9,46,110)" stroke="rgb(9,46,110)" stroke-width="1" opacity="0.9607843137254902" d="M 2.5 21 L 3 22.5 L 2 22.5 L 2.5 21 Z " /><path fill="rgb(9,46,110)" stroke="rgb(9,46,110)" stroke-width="1" opacity="0.9607843137254902" d="M 33.5 21 L 33.5 22 L 33.5 21 Z " /><path fill="rgb(9,46,110)" stroke="rgb(9,46,110)" stroke-width="1" opacity="0.9607843137254902" d="M 30.5 23 L 30.5 24 L 30.5 23 Z " /><path fill="rgb(9,46,110)" stroke="rgb(9,46,110)" stroke-width="1" opacity="0.9607843137254902" d="M 2.5 25 L 2.5 26 L 2.5 25 Z " /><path fill="rgb(9,46,110)" stroke="rgb(9,46,110)" stroke-width="1" opacity="0.9607843137254902" d="M 3.5 28 L 3.5 29 L 3.5 28 Z " /><path fill="rgb(9,46,110)" stroke="rgb(9,46,110)" stroke-width="1" opacity="0.9607843137254902" d="M 4.5 30 Q 7 31 5.5 32 Q 3 31 4.5 30 Z " /><path fill="rgb(9,46,110)" stroke="rgb(9,46,110)" stroke-width="1" opacity="0.9607843137254902" d="M 32.5 31 L 32.5 32 L 32.5 31 Z " /><path fill="rgb(9,46,110)" stroke="rgb(9,46,110)" stroke-width="1" opacity="0.9607843137254902" d="M 40.5 31 Q 42 32 39.5 33 Q 38 32 40.5 31 Z " /><path fill="rgb(9,46,110)" stroke="rgb(9,46,110)" stroke-width="1" opacity="0.9607843137254902" d="M 29.5 32 L 29.5 33 L 29.5 32 Z " /><path fill="rgb(9,46,110)" stroke="rgb(9,46,110)" stroke-width="1" opacity="0.9607843137254902" d="M 7.5 33 L 7.5 34 L 7.5 33 Z " /><path fill="rgb(9,46,110)" stroke="rgb(9,46,110)" stroke-width="1" opacity="0.9607843137254902" d="M 37.5 33 L 37.5 34 L 37.5 33 Z " /><path fill="rgb(9,46,110)" stroke="rgb(9,46,110)" stroke-width="1" opacity="0.9607843137254902" d="M 35.5 34 L 35.5 35 L 35.5 34 Z " /><path fill="rgb(9,46,110)" stroke="rgb(9,46,110)" stroke-width="1" opacity="0.9607843137254902" d="M 40.5 34 L 40.5 35 L 40.5 34 Z " /><path fill="rgb(9,46,110)" stroke="rgb(9,46,110)" stroke-width="1" opacity="0.9607843137254902" d="M 10.5 35 L 10.5 36 L 10.5 35 Z " /><path fill="rgb(9,46,110)" stroke="rgb(9,46,110)" stroke-width="1" opacity="0.9607843137254902" d="M 16.5 35 L 16.5 36 L 16.5 35 Z " /><path fill="rgb(9,46,110)" stroke="rgb(9,46,110)" stroke-width="1" opacity="0.9607843137254902" d="M 32.5 35 L 32.5 36 L 32.5 35 Z " /><path fill="rgb(9,46,110)" stroke="rgb(9,46,110)" stroke-width="1" opacity="0.9607843137254902" d="M 12.5 36 L 12.5 37 L 12.5 36 Z " /><path fill="rgb(9,46,110)" stroke="rgb(9,46,110)" stroke-width="1" opacity="0.9607843137254902" d="M 21.5 36 L 28 36.5 L 21.5 37 L 21.5 36 Z " /><path fill="rgb(9,46,110)" stroke="rgb(9,46,110)" stroke-width="1" opacity="0.9607843137254902" d="M 34.5 37 L 34.5 38 L 34.5 37 Z " /><path fill="rgb(9,46,110)" stroke="rgb(9,46,110)" stroke-width="1" opacity="0.9607843137254902" d="M 18.5 38 L 20 38.5 L 18.5 39 L 18.5 38 Z " /><path fill="rgb(9,46,110)" stroke="rgb(9,46,110)" stroke-width="1" opacity="0.9607843137254902" d="M 30.5 38 L 30.5 39 L 30.5 38 Z " /><path fill="rgb(9,46,110)" stroke="rgb(9,46,110)" stroke-width="1" opacity="0.6784313725490196" d="M 19.5 8 L 19.5 9 L 19.5 8 Z " /><path fill="rgb(9,46,110)" stroke="rgb(9,46,110)" stroke-width="1" opacity="0.6784313725490196" d="M 29.5 8 L 29.5 9 L 29.5 8 Z " /><path fill="rgb(9,46,110)" stroke="rgb(9,46,110)" stroke-width="1" opacity="0.6784313725490196" d="M 12.5 10 L 12.5 11 L 12.5 10 Z " /><path fill="rgb(9,46,110)" stroke="rgb(9,46,110)" stroke-width="1" opacity="0.6784313725490196" d="M 10.5 11 L 10.5 12 L 10.5 11 Z " /><path fill="rgb(9,46,110)" stroke="rgb(9,46,110)" stroke-width="1" opacity="0.6784313725490196" d="M 21.5 11 L 21.5 12 L 21.5 11 Z " /><path fill="rgb(9,46,110)" stroke="rgb(9,46,110)" stroke-width="1" opacity="0.6784313725490196" d="M 27.5 11 L 29 11.5 L 27.5 12 L 27.5 11 Z " /><path fill="rgb(9,46,110)" stroke="rgb(9,46,110)" stroke-width="1" opacity="0.6784313725490196" d="M 16.5 12 L 16.5 13 L 16.5 12 Z " /><path fill="rgb(9,46,110)" stroke="rgb(9,46,110)" stroke-width="1" opacity="0.6784313725490196" d="M 7.5 13 L 7.5 14 L 7.5 13 Z " /><path fill="rgb(9,46,110)" stroke="rgb(9,46,110)" stroke-width="1" opacity="0.6784313725490196" d="M 13.5 14 L 14 33.5 L 13 33.5 L 13.5 14 Z " /><path fill="rgb(9,46,110)" stroke="rgb(9,46,110)" stroke-width="1" opacity="0.6784313725490196" d="M 29.5 14 L 29.5 15 L 29.5 14 Z " /><path fill="rgb(9,46,110)" stroke="rgb(9,46,110)" stroke-width="1" opacity="0.6784313725490196" d="M 32.5 15 L 32.5 16 L 32.5 15 Z " /><path fill="rgb(9,46,110)" stroke="rgb(9,46,110)" stroke-width="1" opacity="0.6784313725490196" d="M 4.5 16 L 4.5 17 L 4.5 16 Z " /><path fill="rgb(9,46,110)" stroke="rgb(9,46,110)" stroke-width="1" opacity="0.6784313725490196" d="M 40.5 16 Q 43 17 41.5 18 Q 39 17 40.5 16 Z " /><path fill="rgb(9,46,110)" stroke="rgb(9,46,110)" stroke-width="1" opacity="0.6784313725490196" d="M 34.5 17 L 34.5 18 L 34.5 17 Z " /><path fill="rgb(9,46,110)" stroke="rgb(9,46,110)" stroke-width="1" opacity="0.6784313725490196" d="M 34.5 20 L 34.5 21 L 34.5 20 Z " /><path fill="rgb(9,46,110)" stroke="rgb(9,46,110)" stroke-width="1" opacity="0.6784313725490196" d="M 33.5 25 L 33.5 26 L 33.5 25 Z " /><path fill="rgb(9,46,110)" stroke="rgb(9,46,110)" stroke-width="1" opacity="0.6784313725490196" d="M 2.5 27 L 2.5 28 L 2.5 27 Z " /><path fill="rgb(9,46,110)" stroke="rgb(9,46,110)" stroke-width="1" opacity="0.6784313725490196" d="M 3.5 29 L 3.5 30 L 3.5 29 Z " /><path fill="rgb(9,46,110)" stroke="rgb(9,46,110)" stroke-width="1" opacity="0.6784313725490196" d="M 42.5 29 L 46 29.5 L 42.5 30 L 42.5 29 Z " /><path fill="rgb(9,46,110)" stroke="rgb(9,46,110)" stroke-width="1" opacity="0.6784313725490196" d="M 31.5 32 L 31.5 33 L 31.5 32 Z " /><path fill="rgb(9,46,110)" stroke="rgb(9,46,110)" stroke-width="1" opacity="0.6784313725490196" d="M 38.5 32 L 38.5 33 L 38.5 32 Z " /><path fill="rgb(9,46,110)" stroke="rgb(9,46,110)" stroke-width="1" opacity="0.6784313725490196" d="M 34.5 34 L 34.5 35 L 34.5 34 Z " /><path fill="rgb(9,46,110)" stroke="rgb(9,46,110)" stroke-width="1" opacity="0.6784313725490196" d="M 41.5 34 L 41.5 35 L 41.5 34 Z " /><path fill="rgb(9,46,110)" stroke="rgb(9,46,110)" stroke-width="1" opacity="0.6784313725490196" d="M 9.5 35 L 9.5 36 L 9.5 35 Z " /><path fill="rgb(9,46,110)" stroke="rgb(9,46,110)" stroke-width="1" opacity="0.6784313725490196" d="M 18.5 35 L 18.5 36 L 18.5 35 Z " /><path fill="rgb(9,46,110)" stroke="rgb(9,46,110)" stroke-width="1" opacity="0.6784313725490196" d="M 11.5 36 L 11.5 37 L 11.5 36 Z " /><path fill="rgb(9,46,110)" stroke="rgb(9,46,110)" stroke-width="1" opacity="0.6784313725490196" d="M 13.5 37 L 13.5 38 L 13.5 37 Z " /><path fill="rgb(9,46,110)" stroke="rgb(9,46,110)" stroke-width="1" opacity="0.6784313725490196" d="M 32.5 38 L 32.5 39 L 32.5 38 Z " /><path fill="rgb(9,46,110)" stroke="rgb(9,46,110)" stroke-width="1" opacity="0.6078431372549019" d="M 30.5 8 L 30.5 9 L 30.5 8 Z " /><path fill="rgb(9,46,110)" stroke="rgb(9,46,110)" stroke-width="1" opacity="0.6078431372549019" d="M 34.5 9 L 34.5 10 L 34.5 9 Z " /><path fill="rgb(9,46,110)" stroke="rgb(9,46,110)" stroke-width="1" opacity="0.6078431372549019" d="M 22.5 11 L 24 11.5 L 22.5 12 L 22.5 11 Z " /><path fill="rgb(9,46,110)" stroke="rgb(9,46,110)" stroke-width="1" opacity="0.6078431372549019" d="M 26.5 11 L 26.5 12 L 26.5 11 Z " /><path fill="rgb(9,46,110)" stroke="rgb(9,46,110)" stroke-width="1" opacity="0.6078431372549019" d="M 32.5 12 L 32.5 13 L 32.5 12 Z " /><path fill="rgb(9,46,110)" stroke="rgb(9,46,110)" stroke-width="1" opacity="0.6078431372549019" d="M 35.5 13 L 35.5 14 L 35.5 13 Z " /><path fill="rgb(9,46,110)" stroke="rgb(9,46,110)" stroke-width="1" opacity="0.6078431372549019" d="M 37.5 14 L 37.5 15 L 37.5 14 Z " /><path fill="rgb(9,46,110)" stroke="rgb(9,46,110)" stroke-width="1" opacity="0.6078431372549019" d="M 31.5 23 L 31.5 24 L 31.5 23 Z " /><path fill="rgb(9,46,110)" stroke="rgb(9,46,110)" stroke-width="1" opacity="0.6078431372549019" d="M 45.5 30 L 45.5 31 L 45.5 30 Z " /><path fill="rgb(9,46,110)" stroke="rgb(9,46,110)" stroke-width="1" opacity="0.6078431372549019" d="M 30.5 35 L 30.5 36 L 30.5 35 Z " /><path fill="rgb(9,46,110)" stroke="rgb(9,46,110)" stroke-width="1" opacity="0.6078431372549019" d="M 16.5 38 L 16.5 39 L 16.5 38 Z " /><path fill="rgb(9,46,110)" stroke="rgb(9,46,110)" stroke-width="1" opacity="0.6078431372549019" d="M 23.5 39 L 27 39.5 L 23.5 40 L 23.5 39 Z " /><path fill="rgb(9,46,110)" stroke="rgb(9,46,110)" stroke-width="1" opacity="0.996078431372549" d="M 17.5 9 L 17.5 10 L 17.5 9 Z " /><path fill="rgb(9,46,110)" stroke="rgb(9,46,110)" stroke-width="1" opacity="0.996078431372549" d="M 35.5 10 L 35.5 11 L 35.5 10 Z " /><path fill="rgb(9,46,110)" stroke="rgb(9,46,110)" stroke-width="1" opacity="0.996078431372549" d="M 31.5 11 L 31.5 12 L 31.5 11 Z " /><path fill="rgb(9,46,110)" stroke="rgb(9,46,110)" stroke-width="1" opacity="0.996078431372549" d="M 37.5 11 L 37.5 12 L 37.5 11 Z " /><path fill="rgb(9,46,110)" stroke="rgb(9,46,110)" stroke-width="1" opacity="0.996078431372549" d="M 14.5 12 L 14.5 13 L 14.5 12 Z " /><path fill="rgb(9,46,110)" stroke="rgb(9,46,110)" stroke-width="1" opacity="0.996078431372549" d="M 39.5 12 L 39.5 13 L 39.5 12 Z " /><path fill="rgb(9,46,110)" stroke="rgb(9,46,110)" stroke-width="1" opacity="0.996078431372549" d="M 8.5 13 L 8.5 14 L 8.5 13 Z " /><path fill="rgb(9,46,110)" stroke="rgb(9,46,110)" stroke-width="1" opacity="0.996078431372549" d="M 20.5 15 L 21 32.5 L 20 32.5 L 20.5 15 Z " /><path fill="rgb(9,46,110)" stroke="rgb(9,46,110)" stroke-width="1" opacity="0.996078431372549" d="M 41.5 16 L 45 17.5 L 42.5 18 Q 40 17 41.5 16 Z " /><path fill="rgb(9,46,110)" stroke="rgb(9,46,110)" stroke-width="1" opacity="0.996078431372549" d="M 4.5 17 L 4.5 18 L 4.5 17 Z " /><path fill="rgb(9,46,110)" stroke="rgb(9,46,110)" stroke-width="1" opacity="0.996078431372549" d="M 31.5 22 L 31.5 23 L 31.5 22 Z " /><path fill="rgb(9,46,110)" stroke="rgb(9,46,110)" stroke-width="1" opacity="0.996078431372549" d="M 2.5 23 L 3 24.5 L 2 24.5 L 2.5 23 Z " /><path fill="rgb(9,46,110)" stroke="rgb(9,46,110)" stroke-width="1" opacity="0.996078431372549" d="M 30.5 24 L 30.5 25 L 30.5 24 Z " /><path fill="rgb(9,46,110)" stroke="rgb(9,46,110)" stroke-width="1" opacity="0.996078431372549" d="M 32.5 25 L 32.5 26 L 32.5 25 Z " /><path fill="rgb(9,46,110)" stroke="rgb(9,46,110)" stroke-width="1" opacity="0.996078431372549" d="M 33.5 30 L 33.5 31 L 33.5 30 Z " /><path fill="rgb(9,46,110)" stroke="rgb(9,46,110)" stroke-width="1" opacity="0.996078431372549" d="M 6.5 32 L 6.5 33 L 6.5 32 Z " /><path fill="rgb(9,46,110)" stroke="rgb(9,46,110)" stroke-width="1" opacity="0.996078431372549" d="M 28.5 32 L 28.5 33 L 28.5 32 Z " /><path fill="rgb(9,46,110)" stroke="rgb(9,46,110)" stroke-width="1" opacity="0.996078431372549" d="M 13.5 34 L 13.5 35 L 13.5 34 Z " /><path fill="rgb(9,46,110)" stroke="rgb(9,46,110)" stroke-width="1" opacity="0.996078431372549" d="M 33.5 35 L 33.5 36 L 33.5 35 Z " /><path fill="rgb(9,46,110)" stroke="rgb(9,46,110)" stroke-width="1" opacity="0.996078431372549" d="M 20.5 36 L 20.5 37 L 20.5 36 Z " /><path fill="rgb(9,46,110)" stroke="rgb(9,46,110)" stroke-width="1" opacity="0.996078431372549" d="M 28.5 36 L 28.5 37 L 28.5 36 Z " /><path fill="rgb(9,46,110)" stroke="rgb(9,46,110)" stroke-width="1" opacity="0.996078431372549" d="M 36.5 36 L 36.5 37 L 36.5 36 Z " /><path fill="rgb(9,46,110)" stroke="rgb(9,46,110)" stroke-width="1" opacity="0.996078431372549" d="M 15.5 37 L 15.5 38 L 15.5 37 Z " /><path fill="rgb(9,46,110)" stroke="rgb(9,46,110)" stroke-width="1" opacity="0.996078431372549" d="M 29.5 38 L 29.5 39 L 29.5 38 Z " /><path fill="rgb(9,46,110)" stroke="rgb(9,46,110)" stroke-width="1" opacity="1" d="M 18.5 9 L 31.5 9 L 40.5 13 L 44 16.5 L 42.5 17 L 38.5 14 L 31.5 11 L 18.5 11 Q 17.75 12.75 14.5 12 L 13 13.5 L 13 34.5 Q 12.75 35.25 15.5 35 L 20.5 37 L 28.5 37 Q 29.5 35 33.5 36 L 39.5 33 L 42.5 30 L 44.5 30 L 45 30.5 L 41.5 34 L 33.5 38 Q 29.5 37 28.5 39 L 20.5 39 L 9.5 35 L 4 29.5 Q 1.67 26.33 3 19.5 L 7.5 14 L 14.5 10 Q 17.75 10.75 18.5 9 Z " /><path fill="rgb(9,46,110)" stroke="rgb(9,46,110)" stroke-width="1" opacity="1" d="M 21 15 Q 23.96 14.63 24 15.5 L 24 33 Q 21.04 33.38 21 32.5 L 21 15 Z " /><path fill="rgb(9,46,110)" stroke="rgb(9,46,110)" stroke-width="1" opacity="1" d="M 27 15 Q 31.96 14.17 34 17.5 Q 34.75 21.25 32.5 22 L 30 23.5 Q 29.25 25.75 31.5 25 L 34 26 Q 35 30.69 31.5 32 Q 28.25 31.25 27.5 33 L 27 15 Z " /><path fill="rgb(9,46,110)" stroke="rgb(9,46,110)" stroke-width="1" opacity="0.3568627450980392" d="M 17.5 8 L 17.5 9 L 17.5 8 Z " /><path fill="rgb(9,46,110)" stroke="rgb(9,46,110)" stroke-width="1" opacity="0.3568627450980392" d="M 35.5 9 L 35.5 10 L 35.5 9 Z " /><path fill="rgb(9,46,110)" stroke="rgb(9,46,110)" stroke-width="1" opacity="0.3568627450980392" d="M 11.5 10 L 11.5 11 L 11.5 10 Z " /><path fill="rgb(9,46,110)" stroke="rgb(9,46,110)" stroke-width="1" opacity="0.3568627450980392" d="M 31.5 12 L 31.5 13 L 31.5 12 Z " /><path fill="rgb(9,46,110)" stroke="rgb(9,46,110)" stroke-width="1" opacity="0.3568627450980392" d="M 19.5 15 L 20 32.5 L 19 32.5 L 19.5 15 Z " /><path fill="rgb(9,46,110)" stroke="rgb(9,46,110)" stroke-width="1" opacity="0.3568627450980392" d="M 45.5 16 L 45.5 17 L 45.5 16 Z " /><path fill="rgb(9,46,110)" stroke="rgb(9,46,110)" stroke-width="1" opacity="0.3568627450980392" d="M 33.5 22 L 33.5 23 L 33.5 22 Z " /><path fill="rgb(9,46,110)" stroke="rgb(9,46,110)" stroke-width="1" opacity="0.3568627450980392" d="M 1.5 23 L 1.5 24 L 1.5 23 Z " /><path fill="rgb(9,46,110)" stroke="rgb(9,46,110)" stroke-width="1" opacity="0.3568627450980392" d="M 2.5 28 L 2.5 29 L 2.5 28 Z " /><path fill="rgb(9,46,110)" stroke="rgb(9,46,110)" stroke-width="1" opacity="0.3568627450980392" d="M 28.5 33 L 28.5 34 L 28.5 33 Z " /><path fill="rgb(9,46,110)" stroke="rgb(9,46,110)" stroke-width="1" opacity="0.3568627450980392" d="M 20.5 35 L 20.5 36 L 20.5 35 Z " /><path fill="rgb(9,46,110)" stroke="rgb(9,46,110)" stroke-width="1" opacity="0.3568627450980392" d="M 10.5 36 L 10.5 37 L 10.5 36 Z " /><path fill="rgb(9,46,110)" stroke="rgb(9,46,110)" stroke-width="1" opacity="0.3568627450980392" d="M 29.5 39 L 29.5 40 L 29.5 39 Z " /><path fill="rgb(9,46,110)" stroke="rgb(9,46,110)" stroke-width="1" opacity="0.3803921568627451" d="M 20.5 33 L 24 33.5 L 20.5 34 L 20.5 33 Z " /><path fill="rgb(9,46,110)" stroke="rgb(9,46,110)" stroke-width="1" opacity="0.3803921568627451" d="M 27.5 33 L 27.5 34 L 27.5 33 Z " /><path fill="rgb(9,46,110)" stroke="rgb(9,46,110)" stroke-width="1" opacity="0.3803921568627451" d="M 7.5 34 L 7.5 35 L 7.5 34 Z " /><path fill="rgb(9,46,110)" stroke="rgb(9,46,110)" stroke-width="1" opacity="0.3803921568627451" d="M 33.5 34 L 33.5 35 L 33.5 34 Z " /><path fill="rgb(9,46,110)" stroke="rgb(9,46,110)" stroke-width="1" opacity="0.3803921568627451" d="M 40.5 35 L 40.5 36 L 40.5 35 Z " /><path fill="rgb(9,46,110)" stroke="rgb(9,46,110)" stroke-width="1" opacity="0.3803921568627451" d="M 20.5 39 L 20.5 40 L 20.5 39 Z " /><path fill="rgb(9,46,110)" stroke="rgb(9,46,110)" stroke-width="1" opacity="0.37254901960784315" d="M 26.5 15 L 27 32.5 L 26 32.5 L 26.5 15 Z " /><path fill="rgb(9,46,110)" stroke="rgb(9,46,110)" stroke-width="1" opacity="0.37254901960784315" d="M 24.5 33 L 24.5 34 L 24.5 33 Z " /><path fill="rgb(9,46,110)" stroke="rgb(9,46,110)" stroke-width="1" opacity="0.37254901960784315" d="M 15.5 38 L 15.5 39 L 15.5 38 Z " /><path fill="rgb(9,46,110)" stroke="rgb(9,46,110)" stroke-width="1" opacity="0.5411764705882353" d="M 18.5 8 L 18.5 9 L 18.5 8 Z " /><path fill="rgb(9,46,110)" stroke="rgb(9,46,110)" stroke-width="1" opacity="0.5411764705882353" d="M 24.5 11 L 26 11.5 L 24.5 12 L 24.5 11 Z " /><path fill="rgb(9,46,110)" stroke="rgb(9,46,110)" stroke-width="1" opacity="0.5411764705882353" d="M 8.5 12 L 8.5 13 L 8.5 12 Z " /><path fill="rgb(9,46,110)" stroke="rgb(9,46,110)" stroke-width="1" opacity="0.5411764705882353" d="M 30.5 14 L 30.5 15 L 30.5 14 Z " /><path fill="rgb(9,46,110)" stroke="rgb(9,46,110)" stroke-width="1" opacity="0.5411764705882353" d="M 34.5 26 L 34.5 27 L 34.5 26 Z " /><path fill="rgb(9,46,110)" stroke="rgb(9,46,110)" stroke-width="1" opacity="0.5411764705882353" d="M 33.5 31 L 33.5 32 L 33.5 31 Z " /><path fill="rgb(9,46,110)" stroke="rgb(9,46,110)" stroke-width="1" opacity="0.5411764705882353" d="M 5.5 32 Q 8 33 6.5 34 Q 4 33 5.5 32 Z " /><path fill="rgb(9,46,110)" stroke="rgb(9,46,110)" stroke-width="1" opacity="0.5411764705882353" d="M 36.5 33 L 36.5 34 L 36.5 33 Z " /><path fill="rgb(9,46,110)" stroke="rgb(9,46,110)" stroke-width="1" opacity="0.5411764705882353" d="M 15.5 34 L 15.5 35 L 15.5 34 Z " /><path fill="rgb(9,46,110)" stroke="rgb(9,46,110)" stroke-width="1" opacity="0.5411764705882353" d="M 38.5 36 L 38.5 37 L 38.5 36 Z " /><path fill="rgb(9,46,110)" stroke="rgb(9,46,110)" stroke-width="1" opacity="0.5411764705882353" d="M 22.5 39 L 22.5 40 L 22.5 39 Z " /><path fill="rgb(9,46,110)" stroke="rgb(9,46,110)" stroke-width="1" opacity="0.5411764705882353" d="M 27.5 39 L 27.5 40 L 27.5 39 Z " /><path fill="rgb(9,46,110)" stroke="rgb(9,46,110)" stroke-width="1" opacity="0.29411764705882354" d="M 32.5 8 L 32.5 9 L 32.5 8 Z " /><path fill="rgb(9,46,110)" stroke="rgb(9,46,110)" stroke-width="1" opacity="0.29411764705882354" d="M 9.5 11 L 9.5 12 L 9.5 11 Z " /><path fill="rgb(9,46,110)" stroke="rgb(9,46,110)" stroke-width="1" opacity="0.29411764705882354" d="M 18.5 12 L 18.5 13 L 18.5 12 Z " /><path fill="rgb(9,46,110)" stroke="rgb(9,46,110)" stroke-width="1" opacity="0.29411764705882354" d="M 41.5 12 L 41.5 13 L 41.5 12 Z " /><path fill="rgb(9,46,110)" stroke="rgb(9,46,110)" stroke-width="1" opacity="0.29411764705882354" d="M 34.5 13 L 34.5 14 L 34.5 13 Z " /><path fill="rgb(9,46,110)" stroke="rgb(9,46,110)" stroke-width="1" opacity="0.29411764705882354" d="M 19.5 14 L 19.5 15 L 19.5 14 Z " /><path fill="rgb(9,46,110)" stroke="rgb(9,46,110)" stroke-width="1" opacity="0.29411764705882354" d="M 26.5 14 L 26.5 15 L 26.5 14 Z " /><path fill="rgb(9,46,110)" stroke="rgb(9,46,110)" stroke-width="1" opacity="0.29411764705882354" d="M 31.5 14 L 31.5 15 L 31.5 14 Z " /><path fill="rgb(9,46,110)" stroke="rgb(9,46,110)" stroke-width="1" opacity="0.29411764705882354" d="M 38.5 15 L 38.5 16 L 38.5 15 Z " /><path fill="rgb(9,46,110)" stroke="rgb(9,46,110)" stroke-width="1" opacity="0.29411764705882354" d="M 42.5 18 L 46 18.5 L 42.5 19 L 42.5 18 Z " /><path fill="rgb(9,46,110)" stroke="rgb(9,46,110)" stroke-width="1" opacity="0.29411764705882354" d="M 34.5 21 L 34.5 22 L 34.5 21 Z " /><path fill="rgb(9,46,110)" stroke="rgb(9,46,110)" stroke-width="1" opacity="0.29411764705882354" d="M 1.5 22 L 1.5 23 L 1.5 22 Z " /><path fill="rgb(9,46,110)" stroke="rgb(9,46,110)" stroke-width="1" opacity="0.29411764705882354" d="M 1.5 24 L 1.5 25 L 1.5 24 Z " /><path fill="rgb(9,46,110)" stroke="rgb(9,46,110)" stroke-width="1" opacity="0.29411764705882354" d="M 41.5 29 Q 43 30 40.5 31 Q 39 30 41.5 29 Z " /><path fill="rgb(9,46,110)" stroke="rgb(9,46,110)" stroke-width="1" opacity="0.29411764705882354" d="M 3.5 30 L 3.5 31 L 3.5 30 Z " /><path fill="rgb(9,46,110)" stroke="rgb(9,46,110)" stroke-width="1" opacity="0.29411764705882354" d="M 32.5 32 L 32.5 33 L 32.5 32 Z " /><path fill="rgb(9,46,110)" stroke="rgb(9,46,110)" stroke-width="1" opacity="0.29411764705882354" d="M 29.5 33 L 29.5 34 L 29.5 33 Z " /><path fill="rgb(9,46,110)" stroke="rgb(9,46,110)" stroke-width="1" opacity="0.29411764705882354" d="M 16.5 34 L 16.5 35 L 16.5 34 Z " /><path fill="rgb(9,46,110)" stroke="rgb(9,46,110)" stroke-width="1" opacity="0.29411764705882354" d="M 21.5 35 L 21.5 36 L 21.5 35 Z " /><path fill="rgb(9,46,110)" stroke="rgb(9,46,110)" stroke-width="1" opacity="0.29411764705882354" d="M 28.5 35 L 28.5 36 L 28.5 35 Z " /><path fill="rgb(9,46,110)" stroke="rgb(9,46,110)" stroke-width="1" opacity="0.29411764705882354" d="M 12.5 37 L 12.5 38 L 12.5 37 Z " /><path fill="rgb(9,46,110)" stroke="rgb(9,46,110)" stroke-width="1" opacity="0.29411764705882354" d="M 19.5 39 L 19.5 40 L 19.5 39 Z " /><path fill="rgb(9,46,110)" stroke="rgb(9,46,110)" stroke-width="1" opacity="0.2" d="M 22.5 7 L 28 7.5 L 22.5 8 L 22.5 7 Z " /><path fill="rgb(9,46,110)" stroke="rgb(9,46,110)" stroke-width="1" opacity="0.2" d="M 16.5 8 L 16.5 9 L 16.5 8 Z " /><path fill="rgb(9,46,110)" stroke="rgb(9,46,110)" stroke-width="1" opacity="0.2" d="M 13.5 9 L 13.5 10 L 13.5 9 Z " /><path fill="rgb(9,46,110)" stroke="rgb(9,46,110)" stroke-width="1" opacity="0.2" d="M 38.5 10 L 38.5 11 L 38.5 10 Z " /><path fill="rgb(9,46,110)" stroke="rgb(9,46,110)" stroke-width="1" opacity="0.2" d="M 19.5 12 L 19.5 13 L 19.5 12 Z " /><path fill="rgb(9,46,110)" stroke="rgb(9,46,110)" stroke-width="1" opacity="0.2" d="M 30.5 12 L 30.5 13 L 30.5 12 Z " /><path fill="rgb(9,46,110)" stroke="rgb(9,46,110)" stroke-width="1" opacity="0.2" d="M 6.5 13 L 7 13.5 L 4.5 16 L 4 15.5 L 6.5 13 Z " /><path fill="rgb(9,46,110)" stroke="rgb(9,46,110)" stroke-width="1" opacity="0.2" d="M 15.5 13 L 15.5 14 L 15.5 13 Z " /><path fill="rgb(9,46,110)" stroke="rgb(9,46,110)" stroke-width="1" opacity="0.2" d="M 25.5 14 L 26 32.5 L 27 33.5 Q 26 35 25 32.5 L 25.5 14 Z " /><path fill="rgb(9,46,110)" stroke="rgb(9,46,110)" stroke-width="1" opacity="0.2" d="M 36.5 14 L 36.5 15 L 36.5 14 Z " /><path fill="rgb(9,46,110)" stroke="rgb(9,46,110)" stroke-width="1" opacity="0.2" d="M 33.5 15 Q 36 16 34.5 17 Q 32 16 33.5 15 Z " /><path fill="rgb(9,46,110)" stroke="rgb(9,46,110)" stroke-width="1" opacity="0.2" d="M 39.5 16 L 39.5 17 L 39.5 16 Z " /><path fill="rgb(9,46,110)" stroke="rgb(9,46,110)" stroke-width="1" opacity="0.2" d="M 2.5 18 L 2.5 19 L 2.5 18 Z " /><path fill="rgb(9,46,110)" stroke="rgb(9,46,110)" stroke-width="1" opacity="0.2" d="M 1.5 21 L 1.5 22 L 1.5 21 Z " /><path fill="rgb(9,46,110)" stroke="rgb(9,46,110)" stroke-width="1" opacity="0.2" d="M 32.5 23 L 32.5 24 L 32.5 23 Z " /><path fill="rgb(9,46,110)" stroke="rgb(9,46,110)" stroke-width="1" opacity="0.2" d="M 1.5 25 L 1.5 26 L 1.5 25 Z " /><path fill="rgb(9,46,110)" stroke="rgb(9,46,110)" stroke-width="1" opacity="0.2" d="M 35.5 28 L 35.5 29 L 35.5 28 Z " /><path fill="rgb(9,46,110)" stroke="rgb(9,46,110)" stroke-width="1" opacity="0.2" d="M 46.5 29 L 46.5 30 L 46.5 29 Z " /><path fill="rgb(9,46,110)" stroke="rgb(9,46,110)" stroke-width="1" opacity="0.2" d="M 45.5 31 L 46 31.5 L 42.5 35 L 42 34.5 L 45.5 31 Z " /><path fill="rgb(9,46,110)" stroke="rgb(9,46,110)" stroke-width="1" opacity="0.2" d="M 37.5 32 L 37.5 33 L 37.5 32 Z " /><path fill="rgb(9,46,110)" stroke="rgb(9,46,110)" stroke-width="1" opacity="0.2" d="M 19.5 33 L 19.5 34 L 19.5 33 Z " /><path fill="rgb(9,46,110)" stroke="rgb(9,46,110)" stroke-width="1" opacity="0.2" d="M 30.5 33 L 30.5 34 L 30.5 33 Z " /><path fill="rgb(9,46,110)" stroke="rgb(9,46,110)" stroke-width="1" opacity="0.2" d="M 35.5 33 L 35.5 34 L 35.5 33 Z " /><path fill="rgb(9,46,110)" stroke="rgb(9,46,110)" stroke-width="1" opacity="0.2" d="M 32.5 34 L 32.5 35 L 32.5 34 Z " /><path fill="rgb(9,46,110)" stroke="rgb(9,46,110)" stroke-width="1" opacity="0.2" d="M 8.5 35 L 8.5 36 L 8.5 35 Z " /><path fill="rgb(9,46,110)" stroke="rgb(9,46,110)" stroke-width="1" opacity="0.2" d="M 22.5 35 L 28 35.5 L 22.5 36 L 22.5 35 Z " /><path fill="rgb(9,46,110)" stroke="rgb(9,46,110)" stroke-width="1" opacity="0.2" d="M 39.5 36 L 39.5 37 L 39.5 36 Z " /><path fill="rgb(9,46,110)" stroke="rgb(9,46,110)" stroke-width="1" opacity="0.2" d="M 37.5 37 L 37.5 38 L 37.5 37 Z " /><path fill="rgb(9,46,110)" stroke="rgb(9,46,110)" stroke-width="1" opacity="0.2" d="M 14.5 38 L 14.5 39 L 14.5 38 Z " /><path fill="rgb(9,46,110)" stroke="rgb(9,46,110)" stroke-width="1" opacity="0.2" d="M 34.5 38 L 34.5 39 L 34.5 38 Z " /><path fill="rgb(9,46,110)" stroke="rgb(9,46,110)" stroke-width="1" opacity="0.2" d="M 18.5 39 L 18.5 40 L 18.5 39 Z " /><path fill="rgb(9,46,110)" stroke="rgb(9,46,110)" stroke-width="1" opacity="0.2" d="M 30.5 39 L 30.5 40 L 30.5 39 Z " /><path fill="rgb(9,46,110)" stroke="rgb(9,46,110)" stroke-width="1" opacity="0.047058823529411764" d="M 19.5 7 L 22 7.5 L 19.5 8 L 19.5 7 Z " /><path fill="rgb(9,46,110)" stroke="rgb(9,46,110)" stroke-width="1" opacity="0.047058823529411764" d="M 28.5 7 L 31 7.5 L 28.5 8 L 28.5 7 Z " /><path fill="rgb(9,46,110)" stroke="rgb(9,46,110)" stroke-width="1" opacity="0.047058823529411764" d="M 15.5 8 L 15.5 9 L 15.5 8 Z " /><path fill="rgb(9,46,110)" stroke="rgb(9,46,110)" stroke-width="1" opacity="0.047058823529411764" d="M 33.5 8 L 35 8.5 L 33.5 9 L 33.5 8 Z " /><path fill="rgb(9,46,110)" stroke="rgb(9,46,110)" stroke-width="1" opacity="0.047058823529411764" d="M 12.5 9 L 12.5 10 L 12.5 9 Z " /><path fill="rgb(9,46,110)" stroke="rgb(9,46,110)" stroke-width="1" opacity="0.047058823529411764" d="M 36.5 9 L 38 9.5 L 36.5 10 L 36.5 9 Z " /><path fill="rgb(9,46,110)" stroke="rgb(9,46,110)" stroke-width="1" opacity="0.047058823529411764" d="M 10.5 10 L 10.5 11 L 10.5 10 Z " /><path fill="rgb(9,46,110)" stroke="rgb(9,46,110)" stroke-width="1" opacity="0.047058823529411764" d="M 39.5 10 Q 42 11 40.5 12 Q 38 11 39.5 10 Z " /><path fill="rgb(9,46,110)" stroke="rgb(9,46,110)" stroke-width="1" opacity="0.047058823529411764" d="M 8.5 11 Q 10 12 7.5 13 Q 6 12 8.5 11 Z " /><path fill="rgb(9,46,110)" stroke="rgb(9,46,110)" stroke-width="1" opacity="0.047058823529411764" d="M 20.5 12 Q 22.33 13.67 26.5 13 Q 27.42 11.25 30 12 L 29.5 14 L 19.5 14 Q 18 13 20.5 12 Z " /><path fill="rgb(9,46,110)" stroke="rgb(9,46,110)" stroke-width="1" opacity="0.047058823529411764" d="M 42.5 12 L 46 15.5 L 45.5 16 L 42 12.5 L 42.5 12 Z " /><path fill="rgb(9,46,110)" stroke="rgb(9,46,110)" stroke-width="1" opacity="0.047058823529411764" d="M 16.5 13 L 16.5 14 L 16.5 13 Z " /><path fill="rgb(9,46,110)" stroke="rgb(9,46,110)" stroke-width="1" opacity="0.047058823529411764" d="M 32 13 L 34 13.5 Q 33 16 32 14.5 L 32 13 Z " /><path fill="rgb(9,46,110)" stroke="rgb(9,46,110)" stroke-width="1" opacity="0.047058823529411764" d="M 14.5 14 L 15 33.5 L 14 33.5 L 14.5 14 Z " /><path fill="rgb(9,46,110)" stroke="rgb(9,46,110)" stroke-width="1" opacity="0.047058823529411764" d="M 35.5 14 L 35.5 15 L 35.5 14 Z " /><path fill="rgb(9,46,110)" stroke="rgb(9,46,110)" stroke-width="1" opacity="0.047058823529411764" d="M 37.5 15 L 37.5 16 L 37.5 15 Z " /><path fill="rgb(9,46,110)" stroke="rgb(9,46,110)" stroke-width="1" opacity="0.047058823529411764" d="M 3.5 16 L 3.5 17 L 3.5 16 Z " /><path fill="rgb(9,46,110)" stroke="rgb(9,46,110)" stroke-width="1" opacity="0.047058823529411764" d="M 35.5 17 L 36 20.5 L 35 20.5 L 35.5 17 Z " /><path fill="rgb(9,46,110)" stroke="rgb(9,46,110)" stroke-width="1" opacity="0.047058823529411764" d="M 40.5 17 Q 43 18 41.5 19 Q 39 18 40.5 17 Z " /><path fill="rgb(9,46,110)" stroke="rgb(9,46,110)" stroke-width="1" opacity="0.047058823529411764" d="M 46.5 17 L 47 18.5 L 46 18.5 L 46.5 17 Z " /><path fill="rgb(9,46,110)" stroke="rgb(9,46,110)" stroke-width="1" opacity="0.047058823529411764" d="M 1.5 20 L 1.5 21 L 1.5 20 Z " /><path fill="rgb(9,46,110)" stroke="rgb(9,46,110)" stroke-width="1" opacity="0.047058823529411764" d="M 34.5 22 L 34.5 23 L 34.5 22 Z " /><path fill="rgb(9,46,110)" stroke="rgb(9,46,110)" stroke-width="1" opacity="0.047058823529411764" d="M 33.5 24 L 36 27.5 L 35 27.5 L 33 24.5 L 33.5 24 Z " /><path fill="rgb(9,46,110)" stroke="rgb(9,46,110)" stroke-width="1" opacity="0.047058823529411764" d="M 1.5 26 L 2 27.5 L 1 27.5 L 1.5 26 Z " /><path fill="rgb(9,46,110)" stroke="rgb(9,46,110)" stroke-width="1" opacity="0.047058823529411764" d="M 41.5 28 L 47 28.5 L 41.5 29 L 41.5 28 Z " /><path fill="rgb(9,46,110)" stroke="rgb(9,46,110)" stroke-width="1" opacity="0.047058823529411764" d="M 2.5 29 L 2.5 30 L 2.5 29 Z " /><path fill="rgb(9,46,110)" stroke="rgb(9,46,110)" stroke-width="1" opacity="0.047058823529411764" d="M 35.5 29 L 35.5 30 L 35.5 29 Z " /><path fill="rgb(9,46,110)" stroke="rgb(9,46,110)" stroke-width="1" opacity="0.047058823529411764" d="M 39.5 30 Q 41 31 38.5 32 Q 37 31 39.5 30 Z " /><path fill="rgb(9,46,110)" stroke="rgb(9,46,110)" stroke-width="1" opacity="0.047058823529411764" d="M 46.5 30 L 46.5 31 L 46.5 30 Z " /><path fill="rgb(9,46,110)" stroke="rgb(9,46,110)" stroke-width="1" opacity="0.047058823529411764" d="M 3.5 31 L 8 35.5 L 7.5 36 L 3 31.5 L 3.5 31 Z " /><path fill="rgb(9,46,110)" stroke="rgb(9,46,110)" stroke-width="1" opacity="0.047058823529411764" d="M 34.5 31 L 34.5 34 Q 31.5 32.5 34.5 31 Z " /><path fill="rgb(9,46,110)" stroke="rgb(9,46,110)" stroke-width="1" opacity="0.047058823529411764" d="M 36.5 32 L 36.5 33 L 36.5 32 Z " /><path fill="rgb(9,46,110)" stroke="rgb(9,46,110)" stroke-width="1" opacity="0.047058823529411764" d="M 25.5 33 L 25.5 34 L 25.5 33 Z " /><path fill="rgb(9,46,110)" stroke="rgb(9,46,110)" stroke-width="1" opacity="0.047058823529411764" d="M 31.5 33 L 32 34.5 L 31 34.5 L 31.5 33 Z " /><path fill="rgb(9,46,110)" stroke="rgb(9,46,110)" stroke-width="1" opacity="0.047058823529411764" d="M 17.5 34 L 19 34.5 L 17.5 35 L 17.5 34 Z " /><path fill="rgb(9,46,110)" stroke="rgb(9,46,110)" stroke-width="1" opacity="0.047058823529411764" d="M 41.5 35 L 41.5 36 L 41.5 35 Z " /><path fill="rgb(9,46,110)" stroke="rgb(9,46,110)" stroke-width="1" opacity="0.047058823529411764" d="M 9.5 36 L 9.5 37 L 9.5 36 Z " /><path fill="rgb(9,46,110)" stroke="rgb(9,46,110)" stroke-width="1" opacity="0.047058823529411764" d="M 11.5 37 L 11.5 38 L 11.5 37 Z " /><path fill="rgb(9,46,110)" stroke="rgb(9,46,110)" stroke-width="1" opacity="0.047058823529411764" d="M 38.5 37 L 38.5 38 L 38.5 37 Z " /><path fill="rgb(9,46,110)" stroke="rgb(9,46,110)" stroke-width="1" opacity="0.047058823529411764" d="M 13.5 38 L 13.5 39 L 13.5 38 Z " /><path fill="rgb(9,46,110)" stroke="rgb(9,46,110)" stroke-width="1" opacity="0.047058823529411764" d="M 35.5 38 L 35.5 39 L 35.5 38 Z " /><path fill="rgb(9,46,110)" stroke="rgb(9,46,110)" stroke-width="1" opacity="0.047058823529411764" d="M 16.5 39 L 18 39.5 L 16.5 40 L 16.5 39 Z " /><path fill="rgb(9,46,110)" stroke="rgb(9,46,110)" stroke-width="1" opacity="0.047058823529411764" d="M 31.5 39 L 33 39.5 L 31.5 40 L 31.5 39 Z " /><path fill="rgb(9,46,110)" stroke="rgb(9,46,110)" stroke-width="1" opacity="0.047058823529411764" d="M 24.5 40 L 26 40.5 L 24.5 41 L 24.5 40 Z " /></svg>