<svg width="48" height="48" version="1.1" xmlns="http://www.w3.org/2000/svg" desc="Created with imagetracer.js version 1.2.6" ><path fill="rgb(20,49,111)" stroke="rgb(20,49,111)" stroke-width="1" opacity="0.07450980392156863" d="M 23.5 3 Q 26.13 2.17 25 5.5 L 24 5.5 L 23.5 4 L 20.5 7 L 20 6.5 L 23.5 3 Z " /><path fill="rgb(20,49,111)" stroke="rgb(20,49,111)" stroke-width="1" opacity="0.07450980392156863" d="M 25.5 7 L 32 13.5 L 31.5 14 L 25 7.5 L 25.5 7 Z " /><path fill="rgb(20,49,111)" stroke="rgb(20,49,111)" stroke-width="1" opacity="0.07450980392156863" d="M 19.5 8 L 19.5 9 L 19.5 8 Z " /><path fill="rgb(20,49,111)" stroke="rgb(20,49,111)" stroke-width="1" opacity="0.07450980392156863" d="M 20.5 14 L 23 16.5 L 22.5 17 L 20 14.5 L 20.5 14 Z " /><path fill="rgb(20,49,111)" stroke="rgb(20,49,111)" stroke-width="1" opacity="0.07450980392156863" d="M 11.5 15 L 12 16.5 L 8.5 20 L 8 19.5 L 11.5 15 Z " /><path fill="rgb(20,49,111)" stroke="rgb(20,49,111)" stroke-width="1" opacity="0.07450980392156863" d="M 34.5 15 L 40 20.5 L 39.5 21 L 34 15.5 L 34.5 15 Z " /><path fill="rgb(20,49,111)" stroke="rgb(20,49,111)" stroke-width="1" opacity="0.07450980392156863" d="M 13.5 19 L 13.5 20 L 13.5 19 Z " /><path fill="rgb(20,49,111)" stroke="rgb(20,49,111)" stroke-width="1" opacity="0.07450980392156863" d="M 7.5 21 L 7.5 22 L 7.5 21 Z " /><path fill="rgb(20,49,111)" stroke="rgb(20,49,111)" stroke-width="1" opacity="0.07450980392156863" d="M 28.5 21 L 34 26.5 L 33.5 27 L 28 21.5 L 28.5 21 Z " /><path fill="rgb(20,49,111)" stroke="rgb(20,49,111)" stroke-width="1" opacity="0.07450980392156863" d="M 40.5 22 L 40.5 23 L 40.5 22 Z " /><path fill="rgb(20,49,111)" stroke="rgb(20,49,111)" stroke-width="1" opacity="0.07450980392156863" d="M 7.5 25 L 17 34.5 L 16.5 35 L 7 25.5 L 7.5 25 Z " /><path fill="rgb(20,49,111)" stroke="rgb(20,49,111)" stroke-width="1" opacity="0.07450980392156863" d="M 19.5 25 L 19.5 26 L 19.5 25 Z " /><path fill="rgb(20,49,111)" stroke="rgb(20,49,111)" stroke-width="1" opacity="0.07450980392156863" d="M 40.5 26 L 40.5 27 L 40.5 26 Z " /><path fill="rgb(20,49,111)" stroke="rgb(20,49,111)" stroke-width="1" opacity="0.07450980392156863" d="M 22.5 28 L 22.5 29 L 22.5 28 Z " /><path fill="rgb(20,49,111)" stroke="rgb(20,49,111)" stroke-width="1" opacity="0.07450980392156863" d="M 39.5 28 L 40 28.5 L 37.5 31 L 37 30.5 L 39.5 28 Z " /><path fill="rgb(20,49,111)" stroke="rgb(20,49,111)" stroke-width="1" opacity="0.07450980392156863" d="M 35.5 30 L 35.5 31 L 35.5 30 Z " /><path fill="rgb(20,49,111)" stroke="rgb(20,49,111)" stroke-width="1" opacity="0.07450980392156863" d="M 28.5 34 L 28.5 35 L 28.5 34 Z " /><path fill="rgb(20,49,111)" stroke="rgb(20,49,111)" stroke-width="1" opacity="0.07450980392156863" d="M 29.5 38 L 29.5 39 L 29.5 38 Z " /><path fill="rgb(20,49,111)" stroke="rgb(20,49,111)" stroke-width="1" opacity="0.07450980392156863" d="M 22.5 40 L 22.5 41 L 22.5 40 Z " /><path fill="rgb(20,49,111)" stroke="rgb(20,49,111)" stroke-width="1" opacity="0.07450980392156863" d="M 27.5 41 L 28 41.5 L 24.5 45 Q 22.25 45.75 23 43.5 L 24.5 44 L 27.5 41 Z " /><path fill="rgb(0,0,0)" stroke="rgb(0,0,0)" stroke-width="1" opacity="0" d="M 0 0 L 48 0 L 48 48 L 0 48 L 0 0 Z M 24 3 L 20 8 L 18 9 L 15 13 Q 14 16 11 15 L 11 17 L 7 22 L 7 26 L 18 35 L 23 42 Q 21 46 25 45 L 35 34 Q 34 31 37 32 L 41 27 Q 42 22 40 21 L 25 7 Q 26 2 24 3 Z " /><path fill="rgb(242,204,7)" stroke="rgb(242,204,7)" stroke-width="1" opacity="0.12156862745098039" d="M 17.5 9 L 19 9.5 L 15.5 12 L 15 11.5 L 17.5 9 Z " /><path fill="rgb(242,204,7)" stroke="rgb(242,204,7)" stroke-width="1" opacity="0.12156862745098039" d="M 14.5 13 L 14 14.5 L 13.5 16 L 13 14.5 L 14.5 13 Z " /><path fill="rgb(242,204,7)" stroke="rgb(242,204,7)" stroke-width="1" opacity="0.12156862745098039" d="M 19.5 13 L 19.5 14 L 19.5 13 Z " /><path fill="rgb(242,204,7)" stroke="rgb(242,204,7)" stroke-width="1" opacity="0.12156862745098039" d="M 23.5 17 L 27 20.5 L 26.5 21 L 23 17.5 L 23.5 17 Z " /><path fill="rgb(242,204,7)" stroke="rgb(242,204,7)" stroke-width="1" opacity="0.12156862745098039" d="M 13.5 18 L 13.5 19 L 13.5 18 Z " /><path fill="rgb(242,204,7)" stroke="rgb(242,204,7)" stroke-width="1" opacity="0.12156862745098039" d="M 14.5 20 L 19 24.5 L 18.5 25 L 14 20.5 L 14.5 20 Z " /><path fill="rgb(242,204,7)" stroke="rgb(242,204,7)" stroke-width="1" opacity="0.12156862745098039" d="M 21.5 26 L 28 32.5 L 27.5 33 L 21 26.5 L 21.5 26 Z " /><path fill="rgb(242,204,7)" stroke="rgb(242,204,7)" stroke-width="1" opacity="0.12156862745098039" d="M 34.5 28 L 34.5 29 L 34.5 28 Z " /><path fill="rgb(242,204,7)" stroke="rgb(242,204,7)" stroke-width="1" opacity="0.12156862745098039" d="M 35.5 31 L 35.5 32 L 35.5 31 Z " /><path fill="rgb(242,204,7)" stroke="rgb(242,204,7)" stroke-width="1" opacity="0.12156862745098039" d="M 34.5 33 L 35 33.5 L 30.5 38 Q 28.25 38.75 29 36.5 L 30.5 37 L 34.5 33 Z " /><path fill="rgb(12,44,115)" stroke="rgb(12,44,115)" stroke-width="1" opacity="0.984313725490196" d="M 22.5 6 L 22.5 7 L 22.5 6 Z " /><path fill="rgb(12,44,115)" stroke="rgb(12,44,115)" stroke-width="1" opacity="0.984313725490196" d="M 25.5 9 L 25.5 10 L 25.5 9 Z " /><path fill="rgb(12,44,115)" stroke="rgb(12,44,115)" stroke-width="1" opacity="0.984313725490196" d="M 27.5 11 Q 30 12 28.5 13 Q 26 12 27.5 11 Z " /><path fill="rgb(12,44,115)" stroke="rgb(12,44,115)" stroke-width="1" opacity="0.984313725490196" d="M 21.5 13 L 24 15.5 L 23.5 16 L 21 13.5 L 21.5 13 Z " /><path fill="rgb(12,44,115)" stroke="rgb(12,44,115)" stroke-width="1" opacity="0.984313725490196" d="M 35.5 18 L 39 21.5 L 38.5 22 L 35 18.5 L 35.5 18 Z " /><path fill="rgb(12,44,115)" stroke="rgb(12,44,115)" stroke-width="1" opacity="0.984313725490196" d="M 10.5 19 L 10.5 20 L 10.5 19 Z " /><path fill="rgb(12,44,115)" stroke="rgb(12,44,115)" stroke-width="1" opacity="0.984313725490196" d="M 12.5 20 L 12.5 21 L 12.5 20 Z " /><path fill="rgb(12,44,115)" stroke="rgb(12,44,115)" stroke-width="1" opacity="0.984313725490196" d="M 8.5 22 L 9 23.5 L 8 23.5 L 8.5 22 Z " /><path fill="rgb(12,44,115)" stroke="rgb(12,44,115)" stroke-width="1" opacity="0.984313725490196" d="M 18.5 26 Q 21 27 19.5 28 Q 17 27 18.5 26 Z " /><path fill="rgb(12,44,115)" stroke="rgb(12,44,115)" stroke-width="1" opacity="0.984313725490196" d="M 14.5 30 Q 17 31 15.5 32 Q 13 31 14.5 30 Z " /><path fill="rgb(12,44,115)" stroke="rgb(12,44,115)" stroke-width="1" opacity="0.984313725490196" d="M 23.5 39 L 23.5 40 L 23.5 39 Z " /><path fill="rgb(12,44,115)" stroke="rgb(12,44,115)" stroke-width="1" opacity="1" d="M 23.5 6 Q 24.8 10.7 28.5 13 L 40 23.5 L 40 25.5 L 36.5 29 L 20 11.5 L 20 9.5 L 23.5 6 Z " /><path fill="rgb(12,44,115)" stroke="rgb(12,44,115)" stroke-width="1" opacity="1" d="M 11.5 18 L 12 20.5 L 19.5 28 L 28 35.5 L 28 38.5 L 24.5 42 L 24 39.5 L 14.5 30 L 9 25.5 L 9 21.5 L 11.5 18 Z " /><path fill="rgb(255,208,3)" stroke="rgb(255,208,3)" stroke-width="1" opacity="0.9568627450980393" d="M 17.5 11 Q 19 12 16.5 13 Q 15 12 17.5 11 Z " /><path fill="rgb(255,208,3)" stroke="rgb(255,208,3)" stroke-width="1" opacity="0.9568627450980393" d="M 14.5 15 L 14.5 16 L 14.5 15 Z " /><path fill="rgb(255,208,3)" stroke="rgb(255,208,3)" stroke-width="1" opacity="0.9568627450980393" d="M 19.5 15 L 23 18.5 L 22.5 19 L 19 15.5 L 19.5 15 Z " /><path fill="rgb(255,208,3)" stroke="rgb(255,208,3)" stroke-width="1" opacity="0.9568627450980393" d="M 14.5 18 L 14.5 19 L 14.5 18 Z " /><path fill="rgb(255,208,3)" stroke="rgb(255,208,3)" stroke-width="1" opacity="0.9568627450980393" d="M 26.5 21 L 31 25.5 L 30.5 26 L 26 21.5 L 26.5 21 Z " /><path fill="rgb(255,208,3)" stroke="rgb(255,208,3)" stroke-width="1" opacity="0.9568627450980393" d="M 18.5 22 L 22 25.5 L 21.5 26 L 18 22.5 L 18.5 22 Z " /><path fill="rgb(255,208,3)" stroke="rgb(255,208,3)" stroke-width="1" opacity="0.9568627450980393" d="M 32.5 27 Q 35 28 33.5 29 Q 31 28 32.5 27 Z " /><path fill="rgb(255,208,3)" stroke="rgb(255,208,3)" stroke-width="1" opacity="0.9568627450980393" d="M 33.5 32 L 33.5 33 L 33.5 32 Z " /><path fill="rgb(255,208,3)" stroke="rgb(255,208,3)" stroke-width="1" opacity="0.9568627450980393" d="M 29.5 33 L 29.5 34 L 29.5 33 Z " /><path fill="rgb(255,210,1)" stroke="rgb(255,210,1)" stroke-width="1" opacity="0.4666666666666667" d="M 17.5 10 Q 20.13 9.17 19 12.5 L 18 12.5 L 17.5 11 L 15.5 13 L 15 12.5 L 17.5 10 Z " /><path fill="rgb(255,210,1)" stroke="rgb(255,210,1)" stroke-width="1" opacity="0.4666666666666667" d="M 19.5 14 L 24 18.5 L 23.5 19 L 19 14.5 L 19.5 14 Z " /><path fill="rgb(255,210,1)" stroke="rgb(255,210,1)" stroke-width="1" opacity="0.4666666666666667" d="M 13.5 16 L 14 17.5 L 13 17.5 L 13.5 16 Z " /><path fill="rgb(255,210,1)" stroke="rgb(255,210,1)" stroke-width="1" opacity="0.4666666666666667" d="M 14.5 19 L 21 25.5 L 20.5 26 L 14 19.5 L 14.5 19 Z " /><path fill="rgb(255,210,1)" stroke="rgb(255,210,1)" stroke-width="1" opacity="0.4666666666666667" d="M 27.5 21 L 34 27.5 L 33.5 28 L 27 21.5 L 27.5 21 Z " /><path fill="rgb(255,210,1)" stroke="rgb(255,210,1)" stroke-width="1" opacity="0.4666666666666667" d="M 34.5 29 L 34.5 30 L 34.5 29 Z " /><path fill="rgb(255,210,1)" stroke="rgb(255,210,1)" stroke-width="1" opacity="0.4666666666666667" d="M 34.5 32 L 34.5 33 L 34.5 32 Z " /><path fill="rgb(255,210,1)" stroke="rgb(255,210,1)" stroke-width="1" opacity="0.4666666666666667" d="M 28.5 33 L 28.5 34 L 28.5 33 Z " /><path fill="rgb(255,210,1)" stroke="rgb(255,210,1)" stroke-width="1" opacity="0.4666666666666667" d="M 29.5 35 L 29.5 36 L 29.5 35 Z " /><path fill="rgb(255,208,3)" stroke="rgb(255,208,3)" stroke-width="1" opacity="1" d="M 17.5 12 Q 18.8 16.7 22.5 19 L 30.5 26 L 32 26 Q 31.5 28.5 34 29.5 L 34 31.5 L 30.5 36 L 30 33.5 L 18.5 22 L 15 19.5 L 14 16.5 L 17.5 12 Z " /><path fill="rgb(255,208,2)" stroke="rgb(255,208,2)" stroke-width="1" opacity="0.7490196078431373" d="M 15.5 13 Q 17 14 14.5 15 Q 13 14 15.5 13 Z " /><path fill="rgb(255,208,2)" stroke="rgb(255,208,2)" stroke-width="1" opacity="0.7490196078431373" d="M 18.5 13 L 18.5 14 L 18.5 13 Z " /><path fill="rgb(255,208,2)" stroke="rgb(255,208,2)" stroke-width="1" opacity="0.7490196078431373" d="M 24.5 19 Q 27 20 25.5 21 Q 23 20 24.5 19 Z " /><path fill="rgb(255,208,2)" stroke="rgb(255,208,2)" stroke-width="1" opacity="0.7490196078431373" d="M 22.5 26 L 29 32.5 L 28.5 33 L 22 26.5 L 22.5 26 Z " /><path fill="rgb(255,208,2)" stroke="rgb(255,208,2)" stroke-width="1" opacity="0.7490196078431373" d="M 34.5 30 L 35 31.5 L 34 31.5 L 34.5 30 Z " /><path fill="rgb(255,208,2)" stroke="rgb(255,208,2)" stroke-width="1" opacity="0.7490196078431373" d="M 33.5 33 L 34 33.5 L 30.5 37 L 30 36.5 L 33.5 33 Z " /><path fill="rgb(255,208,2)" stroke="rgb(255,208,2)" stroke-width="1" opacity="0.7490196078431373" d="M 29.5 34 L 29.5 35 L 29.5 34 Z " /><path fill="rgb(11,43,115)" stroke="rgb(11,43,115)" stroke-width="1" opacity="0.6549019607843137" d="M 22.5 5 L 22.5 6 L 22.5 5 Z " /><path fill="rgb(11,43,115)" stroke="rgb(11,43,115)" stroke-width="1" opacity="0.6549019607843137" d="M 25.5 8 L 25.5 9 L 25.5 8 Z " /><path fill="rgb(11,43,115)" stroke="rgb(11,43,115)" stroke-width="1" opacity="0.6549019607843137" d="M 19.5 10 L 19.5 11 L 19.5 10 Z " /><path fill="rgb(11,43,115)" stroke="rgb(11,43,115)" stroke-width="1" opacity="0.6549019607843137" d="M 28.5 11 L 31 13.5 L 30.5 14 L 28 11.5 L 28.5 11 Z " /><path fill="rgb(11,43,115)" stroke="rgb(11,43,115)" stroke-width="1" opacity="0.6549019607843137" d="M 20.5 13 L 23 15.5 L 22.5 16 L 20 13.5 L 20.5 13 Z " /><path fill="rgb(11,43,115)" stroke="rgb(11,43,115)" stroke-width="1" opacity="0.6549019607843137" d="M 10.5 18 Q 12 19 9.5 20 Q 8 19 10.5 18 Z " /><path fill="rgb(11,43,115)" stroke="rgb(11,43,115)" stroke-width="1" opacity="0.6549019607843137" d="M 36.5 18 L 39 20.5 L 38.5 21 L 36 18.5 L 36.5 18 Z " /><path fill="rgb(11,43,115)" stroke="rgb(11,43,115)" stroke-width="1" opacity="0.6549019607843137" d="M 12.5 19 L 12.5 20 L 12.5 19 Z " /><path fill="rgb(11,43,115)" stroke="rgb(11,43,115)" stroke-width="1" opacity="0.6549019607843137" d="M 29.5 21 L 34 25.5 L 33.5 26 L 29 21.5 L 29.5 21 Z " /><path fill="rgb(11,43,115)" stroke="rgb(11,43,115)" stroke-width="1" opacity="0.6549019607843137" d="M 40.5 24 L 40.5 25 L 40.5 24 Z " /><path fill="rgb(11,43,115)" stroke="rgb(11,43,115)" stroke-width="1" opacity="0.6549019607843137" d="M 8.5 25 L 8.5 26 L 8.5 25 Z " /><path fill="rgb(11,43,115)" stroke="rgb(11,43,115)" stroke-width="1" opacity="0.6549019607843137" d="M 19.5 26 L 22 28.5 L 21.5 29 L 19 26.5 L 19.5 26 Z " /><path fill="rgb(11,43,115)" stroke="rgb(11,43,115)" stroke-width="1" opacity="0.6549019607843137" d="M 35.5 28 L 35.5 29 L 35.5 28 Z " /><path fill="rgb(11,43,115)" stroke="rgb(11,43,115)" stroke-width="1" opacity="0.6549019607843137" d="M 12.5 29 L 15 31.5 L 14.5 32 L 12 29.5 L 12.5 29 Z " /><path fill="rgb(11,43,115)" stroke="rgb(11,43,115)" stroke-width="1" opacity="0.6549019607843137" d="M 28.5 36 L 28.5 37 L 28.5 36 Z " /><path fill="rgb(11,43,115)" stroke="rgb(11,43,115)" stroke-width="1" opacity="0.6549019607843137" d="M 28.5 38 L 28.5 39 L 28.5 38 Z " /><path fill="rgb(11,43,115)" stroke="rgb(11,43,115)" stroke-width="1" opacity="0.6549019607843137" d="M 23.5 40 L 23.5 41 L 23.5 40 Z " /><path fill="rgb(0,21,153)" stroke="rgb(0,21,153)" stroke-width="1" opacity="0.06666666666666667" d="M 12.5 15 L 12.5 16 L 12.5 15 Z " /><path fill="rgb(0,21,153)" stroke="rgb(0,21,153)" stroke-width="1" opacity="0.06666666666666667" d="M 20.5 26 Q 23 27 21.5 28 Q 19 27 20.5 26 Z " /><path fill="rgb(0,21,153)" stroke="rgb(0,21,153)" stroke-width="1" opacity="0.06666666666666667" d="M 36.5 31 L 36.5 32 L 36.5 31 Z " /><path fill="rgb(12,44,115)" stroke="rgb(12,44,115)" stroke-width="1" opacity="0.9450980392156862" d="M 23.5 5 L 23.5 6 L 23.5 5 Z " /><path fill="rgb(12,44,115)" stroke="rgb(12,44,115)" stroke-width="1" opacity="0.9450980392156862" d="M 21.5 7 L 21.5 8 L 21.5 7 Z " /><path fill="rgb(12,44,115)" stroke="rgb(12,44,115)" stroke-width="1" opacity="0.9450980392156862" d="M 26.5 10 L 26.5 11 L 26.5 10 Z " /><path fill="rgb(12,44,115)" stroke="rgb(12,44,115)" stroke-width="1" opacity="0.9450980392156862" d="M 20.5 12 L 20.5 13 L 20.5 12 Z " /><path fill="rgb(12,44,115)" stroke="rgb(12,44,115)" stroke-width="1" opacity="0.9450980392156862" d="M 24.5 16 Q 27 17 25.5 18 Q 23 17 24.5 16 Z " /><path fill="rgb(12,44,115)" stroke="rgb(12,44,115)" stroke-width="1" opacity="0.9450980392156862" d="M 33.5 16 Q 36 17 34.5 18 Q 32 17 33.5 16 Z " /><path fill="rgb(12,44,115)" stroke="rgb(12,44,115)" stroke-width="1" opacity="0.9450980392156862" d="M 9.5 20 L 9.5 21 L 9.5 20 Z " /><path fill="rgb(12,44,115)" stroke="rgb(12,44,115)" stroke-width="1" opacity="0.9450980392156862" d="M 8.5 24 L 8.5 25 L 8.5 24 Z " /><path fill="rgb(12,44,115)" stroke="rgb(12,44,115)" stroke-width="1" opacity="0.9450980392156862" d="M 17.5 25 L 17.5 26 L 17.5 25 Z " /><path fill="rgb(12,44,115)" stroke="rgb(12,44,115)" stroke-width="1" opacity="0.9450980392156862" d="M 35.5 27 L 35.5 28 L 35.5 27 Z " /><path fill="rgb(12,44,115)" stroke="rgb(12,44,115)" stroke-width="1" opacity="0.9450980392156862" d="M 38.5 27 L 39 27.5 L 36.5 30 L 36 29.5 L 38.5 27 Z " /><path fill="rgb(12,44,115)" stroke="rgb(12,44,115)" stroke-width="1" opacity="0.9450980392156862" d="M 16.5 32 Q 19 33 17.5 34 Q 15 33 16.5 32 Z " /><path fill="rgb(12,44,115)" stroke="rgb(12,44,115)" stroke-width="1" opacity="0.9450980392156862" d="M 25.5 32 Q 28 33 26.5 34 Q 24 33 25.5 32 Z " /><path fill="rgb(12,44,115)" stroke="rgb(12,44,115)" stroke-width="1" opacity="0.9450980392156862" d="M 22.5 38 L 22.5 39 L 22.5 38 Z " /><path fill="rgb(12,44,115)" stroke="rgb(12,44,115)" stroke-width="1" opacity="0.9450980392156862" d="M 26.5 40 L 27 40.5 L 24.5 43 L 24 42.5 L 26.5 40 Z " /><path fill="rgb(9,42,116)" stroke="rgb(9,42,116)" stroke-width="1" opacity="0.3607843137254902" d="M 23.5 4 L 23.5 5 L 23.5 4 Z " /><path fill="rgb(9,42,116)" stroke="rgb(9,42,116)" stroke-width="1" opacity="0.3607843137254902" d="M 21.5 6 Q 23 7 20.5 8 Q 19 7 21.5 6 Z " /><path fill="rgb(9,42,116)" stroke="rgb(9,42,116)" stroke-width="1" opacity="0.3607843137254902" d="M 24.5 6 L 24.5 7 L 24.5 6 Z " /><path fill="rgb(9,42,116)" stroke="rgb(9,42,116)" stroke-width="1" opacity="0.3607843137254902" d="M 19.5 9 L 19.5 10 L 19.5 9 Z " /><path fill="rgb(9,42,116)" stroke="rgb(9,42,116)" stroke-width="1" opacity="0.3607843137254902" d="M 26.5 9 Q 29 10 27.5 11 Q 25 10 26.5 9 Z " /><path fill="rgb(9,42,116)" stroke="rgb(9,42,116)" stroke-width="1" opacity="0.3607843137254902" d="M 19.5 11 L 20 12.5 L 19 12.5 L 19.5 11 Z " /><path fill="rgb(9,42,116)" stroke="rgb(9,42,116)" stroke-width="1" opacity="0.3607843137254902" d="M 32.5 14 L 36 17.5 L 35.5 18 L 32 14.5 L 32.5 14 Z " /><path fill="rgb(9,42,116)" stroke="rgb(9,42,116)" stroke-width="1" opacity="0.3607843137254902" d="M 12.5 16 L 13 18.5 L 12 18.5 L 12.5 16 Z " /><path fill="rgb(9,42,116)" stroke="rgb(9,42,116)" stroke-width="1" opacity="0.3607843137254902" d="M 23.5 16 L 28 20.5 L 27.5 21 L 23 16.5 L 23.5 16 Z " /><path fill="rgb(9,42,116)" stroke="rgb(9,42,116)" stroke-width="1" opacity="0.3607843137254902" d="M 8.5 20 L 8.5 21 L 8.5 20 Z " /><path fill="rgb(9,42,116)" stroke="rgb(9,42,116)" stroke-width="1" opacity="0.3607843137254902" d="M 13.5 20 L 19 25.5 L 18.5 26 L 13 20.5 L 13.5 20 Z " /><path fill="rgb(9,42,116)" stroke="rgb(9,42,116)" stroke-width="1" opacity="0.3607843137254902" d="M 39.5 21 L 39.5 22 L 39.5 21 Z " /><path fill="rgb(9,42,116)" stroke="rgb(9,42,116)" stroke-width="1" opacity="0.3607843137254902" d="M 7.5 22 L 8 24.5 L 7 24.5 L 7.5 22 Z " /><path fill="rgb(9,42,116)" stroke="rgb(9,42,116)" stroke-width="1" opacity="0.3607843137254902" d="M 40.5 23 L 40.5 24 L 40.5 23 Z " /><path fill="rgb(9,42,116)" stroke="rgb(9,42,116)" stroke-width="1" opacity="0.3607843137254902" d="M 40.5 25 L 40.5 26 L 40.5 25 Z " /><path fill="rgb(9,42,116)" stroke="rgb(9,42,116)" stroke-width="1" opacity="0.3607843137254902" d="M 34.5 27 L 34.5 28 L 34.5 27 Z " /><path fill="rgb(9,42,116)" stroke="rgb(9,42,116)" stroke-width="1" opacity="0.3607843137254902" d="M 39.5 27 L 40 27.5 L 36.5 31 Q 34 30 35.5 29 L 36.5 30 L 39.5 27 Z " /><path fill="rgb(9,42,116)" stroke="rgb(9,42,116)" stroke-width="1" opacity="0.3607843137254902" d="M 23.5 29 L 28 33.5 L 27.5 34 L 23 29.5 L 23.5 29 Z " /><path fill="rgb(9,42,116)" stroke="rgb(9,42,116)" stroke-width="1" opacity="0.3607843137254902" d="M 15.5 32 L 23 39.5 L 22.5 40 L 15 32.5 L 15.5 32 Z " /><path fill="rgb(9,42,116)" stroke="rgb(9,42,116)" stroke-width="1" opacity="0.3607843137254902" d="M 28.5 35 L 28.5 36 L 28.5 35 Z " /><path fill="rgb(9,42,116)" stroke="rgb(9,42,116)" stroke-width="1" opacity="0.3607843137254902" d="M 28.5 39 L 29 39.5 L 24.5 44 L 23 41.5 L 24 41.5 L 24.5 43 L 28.5 39 Z " /><path fill="rgb(11,43,115)" stroke="rgb(11,43,115)" stroke-width="1" opacity="0.8549019607843137" d="M 24.5 7 L 24.5 8 L 24.5 7 Z " /><path fill="rgb(11,43,115)" stroke="rgb(11,43,115)" stroke-width="1" opacity="0.8549019607843137" d="M 20.5 8 L 20.5 9 L 20.5 8 Z " /><path fill="rgb(11,43,115)" stroke="rgb(11,43,115)" stroke-width="1" opacity="0.8549019607843137" d="M 31.5 14 Q 34 15 32.5 16 Q 30 15 31.5 14 Z " /><path fill="rgb(11,43,115)" stroke="rgb(11,43,115)" stroke-width="1" opacity="0.8549019607843137" d="M 11.5 17 L 11.5 18 L 11.5 17 Z " /><path fill="rgb(11,43,115)" stroke="rgb(11,43,115)" stroke-width="1" opacity="0.8549019607843137" d="M 26.5 18 L 29 20.5 L 28.5 21 L 26 18.5 L 26.5 18 Z " /><path fill="rgb(11,43,115)" stroke="rgb(11,43,115)" stroke-width="1" opacity="0.8549019607843137" d="M 8.5 21 L 8.5 22 L 8.5 21 Z " /><path fill="rgb(11,43,115)" stroke="rgb(11,43,115)" stroke-width="1" opacity="0.8549019607843137" d="M 13.5 21 L 17 24.5 L 16.5 25 L 13 21.5 L 13.5 21 Z " /><path fill="rgb(11,43,115)" stroke="rgb(11,43,115)" stroke-width="1" opacity="0.8549019607843137" d="M 39.5 22 L 39.5 23 L 39.5 22 Z " /><path fill="rgb(11,43,115)" stroke="rgb(11,43,115)" stroke-width="1" opacity="0.8549019607843137" d="M 9.5 26 L 12 28.5 L 11.5 29 L 9 26.5 L 9.5 26 Z " /><path fill="rgb(11,43,115)" stroke="rgb(11,43,115)" stroke-width="1" opacity="0.8549019607843137" d="M 34.5 26 L 34.5 27 L 34.5 26 Z " /><path fill="rgb(11,43,115)" stroke="rgb(11,43,115)" stroke-width="1" opacity="0.8549019607843137" d="M 39.5 26 L 39.5 27 L 39.5 26 Z " /><path fill="rgb(11,43,115)" stroke="rgb(11,43,115)" stroke-width="1" opacity="0.8549019607843137" d="M 22.5 29 L 25 31.5 L 24.5 32 L 22 29.5 L 22.5 29 Z " /><path fill="rgb(11,43,115)" stroke="rgb(11,43,115)" stroke-width="1" opacity="0.8549019607843137" d="M 18.5 34 L 22 37.5 L 21.5 38 L 18 34.5 L 18.5 34 Z " /><path fill="rgb(11,43,115)" stroke="rgb(11,43,115)" stroke-width="1" opacity="0.8549019607843137" d="M 27.5 34 L 27.5 35 L 27.5 34 Z " /><path fill="rgb(11,43,115)" stroke="rgb(11,43,115)" stroke-width="1" opacity="0.8549019607843137" d="M 28.5 37 L 28.5 38 L 28.5 37 Z " /><path fill="rgb(11,43,115)" stroke="rgb(11,43,115)" stroke-width="1" opacity="0.8549019607843137" d="M 27.5 39 L 27.5 40 L 27.5 39 Z " /></svg>