<svg width="128" height="128" version="1.1" xmlns="http://www.w3.org/2000/svg" desc="Created with imagetracer.js version 1.2.6" ><path fill="rgb(71,82,129)" stroke="rgb(71,82,129)" stroke-width="1" opacity="1" d="M 32.5 45 L 32.5 46 L 32.5 45 Z " /><path fill="rgb(71,82,129)" stroke="rgb(71,82,129)" stroke-width="1" opacity="1" d="M 41.5 45 L 41.5 46 L 41.5 45 Z " /><path fill="rgb(71,82,129)" stroke="rgb(71,82,129)" stroke-width="1" opacity="1" d="M 30.5 46 L 30.5 47 L 30.5 46 Z " /><path fill="rgb(71,82,129)" stroke="rgb(71,82,129)" stroke-width="1" opacity="1" d="M 29.5 48 L 29.5 49 L 29.5 48 Z " /><path fill="rgb(71,82,129)" stroke="rgb(71,82,129)" stroke-width="1" opacity="1" d="M 27.5 51 L 27.5 52 L 27.5 51 Z " /><path fill="rgb(71,82,129)" stroke="rgb(71,82,129)" stroke-width="1" opacity="1" d="M 67.5 53 L 69 53.5 L 67.5 54 L 67.5 53 Z " /><path fill="rgb(71,82,129)" stroke="rgb(71,82,129)" stroke-width="1" opacity="1" d="M 76.5 53 L 78 53.5 L 76.5 54 L 76.5 53 Z " /><path fill="rgb(71,82,129)" stroke="rgb(71,82,129)" stroke-width="1" opacity="1" d="M 97.5 53 L 97.5 54 L 97.5 53 Z " /><path fill="rgb(71,82,129)" stroke="rgb(71,82,129)" stroke-width="1" opacity="1" d="M 103.5 53 L 103.5 54 L 103.5 53 Z " /><path fill="rgb(71,82,129)" stroke="rgb(71,82,129)" stroke-width="1" opacity="1" d="M 22.5 54 L 22.5 55 L 22.5 54 Z " /><path fill="rgb(71,82,129)" stroke="rgb(71,82,129)" stroke-width="1" opacity="1" d="M 55.5 54 L 57 54.5 L 55.5 55 L 55.5 54 Z " /><path fill="rgb(71,82,129)" stroke="rgb(71,82,129)" stroke-width="1" opacity="1" d="M 63.5 54 L 63.5 55 L 63.5 54 Z " /><path fill="rgb(71,82,129)" stroke="rgb(71,82,129)" stroke-width="1" opacity="1" d="M 80.5 54 L 80.5 55 L 80.5 54 Z " /><path fill="rgb(71,82,129)" stroke="rgb(71,82,129)" stroke-width="1" opacity="1" d="M 93.5 54 L 93.5 55 L 93.5 54 Z " /><path fill="rgb(71,82,129)" stroke="rgb(71,82,129)" stroke-width="1" opacity="1" d="M 105.5 54 L 105.5 55 L 105.5 54 Z " /><path fill="rgb(71,82,129)" stroke="rgb(71,82,129)" stroke-width="1" opacity="1" d="M 52.5 55 L 52.5 56 L 52.5 55 Z " /><path fill="rgb(71,82,129)" stroke="rgb(71,82,129)" stroke-width="1" opacity="1" d="M 83.5 55 L 89 55.5 L 83.5 56 L 83.5 55 Z " /><path fill="rgb(71,82,129)" stroke="rgb(71,82,129)" stroke-width="1" opacity="1" d="M 108.5 55 L 108.5 56 L 108.5 55 Z " /><path fill="rgb(71,82,129)" stroke="rgb(71,82,129)" stroke-width="1" opacity="1" d="M 45.5 57 L 45.5 58 L 45.5 57 Z " /><path fill="rgb(71,82,129)" stroke="rgb(71,82,129)" stroke-width="1" opacity="1" d="M 43.5 58 L 43.5 59 L 43.5 58 Z " /><path fill="rgb(71,82,129)" stroke="rgb(71,82,129)" stroke-width="1" opacity="1" d="M 41.5 59 L 41.5 60 L 41.5 59 Z " /><path fill="rgb(71,82,129)" stroke="rgb(71,82,129)" stroke-width="1" opacity="1" d="M 50.5 59 L 51 60.5 L 50 60.5 L 50.5 59 Z " /><path fill="rgb(71,82,129)" stroke="rgb(71,82,129)" stroke-width="1" opacity="1" d="M 39.5 60 L 39.5 61 L 39.5 60 Z " /><path fill="rgb(71,82,129)" stroke="rgb(71,82,129)" stroke-width="1" opacity="1" d="M 66.5 61 L 66.5 62 L 66.5 61 Z " /><path fill="rgb(71,82,129)" stroke="rgb(71,82,129)" stroke-width="1" opacity="1" d="M 71.5 61 Q 74 62 72.5 63 Q 70 62 71.5 61 Z " /><path fill="rgb(71,82,129)" stroke="rgb(71,82,129)" stroke-width="1" opacity="1" d="M 89.5 61 L 89.5 62 L 89.5 61 Z " /><path fill="rgb(71,82,129)" stroke="rgb(71,82,129)" stroke-width="1" opacity="1" d="M 93.5 61 L 93.5 62 L 93.5 61 Z " /><path fill="rgb(71,82,129)" stroke="rgb(71,82,129)" stroke-width="1" opacity="1" d="M 23.5 62 L 24 64.5 L 23 64.5 L 23.5 62 Z " /><path fill="rgb(71,82,129)" stroke="rgb(71,82,129)" stroke-width="1" opacity="1" d="M 36.5 63 L 36.5 64 L 36.5 63 Z " /><path fill="rgb(71,82,129)" stroke="rgb(71,82,129)" stroke-width="1" opacity="1" d="M 49.5 63 L 49.5 64 L 49.5 63 Z " /><path fill="rgb(71,82,129)" stroke="rgb(71,82,129)" stroke-width="1" opacity="1" d="M 86.5 63 L 86.5 64 L 86.5 63 Z " /><path fill="rgb(71,82,129)" stroke="rgb(71,82,129)" stroke-width="1" opacity="1" d="M 62.5 64 L 62.5 65 L 62.5 64 Z " /><path fill="rgb(71,82,129)" stroke="rgb(71,82,129)" stroke-width="1" opacity="1" d="M 95.5 64 L 95.5 65 L 95.5 64 Z " /><path fill="rgb(71,82,129)" stroke="rgb(71,82,129)" stroke-width="1" opacity="1" d="M 108.5 64 L 108.5 65 L 108.5 64 Z " /><path fill="rgb(71,82,129)" stroke="rgb(71,82,129)" stroke-width="1" opacity="1" d="M 35.5 65 L 35.5 66 L 35.5 65 Z " /><path fill="rgb(71,82,129)" stroke="rgb(71,82,129)" stroke-width="1" opacity="1" d="M 85.5 65 L 85.5 66 L 85.5 65 Z " /><path fill="rgb(71,82,129)" stroke="rgb(71,82,129)" stroke-width="1" opacity="1" d="M 61.5 66 L 61.5 67 L 61.5 66 Z " /><path fill="rgb(71,82,129)" stroke="rgb(71,82,129)" stroke-width="1" opacity="1" d="M 72.5 66 L 72.5 67 L 72.5 66 Z " /><path fill="rgb(71,82,129)" stroke="rgb(71,82,129)" stroke-width="1" opacity="1" d="M 107.5 66 L 107.5 67 L 107.5 66 Z " /><path fill="rgb(71,82,129)" stroke="rgb(71,82,129)" stroke-width="1" opacity="1" d="M 22.5 67 L 22.5 68 L 22.5 67 Z " /><path fill="rgb(71,82,129)" stroke="rgb(71,82,129)" stroke-width="1" opacity="1" d="M 47.5 67 L 47.5 68 L 47.5 67 Z " /><path fill="rgb(71,82,129)" stroke="rgb(71,82,129)" stroke-width="1" opacity="1" d="M 94.5 67 L 94.5 68 L 94.5 67 Z " /><path fill="rgb(71,82,129)" stroke="rgb(71,82,129)" stroke-width="1" opacity="1" d="M 71.5 68 L 72 69.5 L 71 69.5 L 71.5 68 Z " /><path fill="rgb(71,82,129)" stroke="rgb(71,82,129)" stroke-width="1" opacity="1" d="M 21.5 69 L 21.5 70 L 21.5 69 Z " /><path fill="rgb(71,82,129)" stroke="rgb(71,82,129)" stroke-width="1" opacity="1" d="M 34.5 69 L 34.5 70 L 34.5 69 Z " /><path fill="rgb(71,82,129)" stroke="rgb(71,82,129)" stroke-width="1" opacity="1" d="M 60.5 69 L 60.5 70 L 60.5 69 Z " /><path fill="rgb(71,82,129)" stroke="rgb(71,82,129)" stroke-width="1" opacity="1" d="M 83.5 70 L 83.5 71 L 83.5 70 Z " /><path fill="rgb(71,82,129)" stroke="rgb(71,82,129)" stroke-width="1" opacity="1" d="M 93.5 70 L 93.5 71 L 93.5 70 Z " /><path fill="rgb(71,82,129)" stroke="rgb(71,82,129)" stroke-width="1" opacity="1" d="M 20.5 71 L 20.5 72 L 20.5 71 Z " /><path fill="rgb(71,82,129)" stroke="rgb(71,82,129)" stroke-width="1" opacity="1" d="M 105.5 71 L 105.5 72 L 105.5 71 Z " /><path fill="rgb(71,82,129)" stroke="rgb(71,82,129)" stroke-width="1" opacity="1" d="M 33.5 72 L 34 73.5 L 33 73.5 L 33.5 72 Z " /><path fill="rgb(71,82,129)" stroke="rgb(71,82,129)" stroke-width="1" opacity="1" d="M 45.5 72 L 45.5 73 L 45.5 72 Z " /><path fill="rgb(71,82,129)" stroke="rgb(71,82,129)" stroke-width="1" opacity="1" d="M 70.5 72 L 70.5 73 L 70.5 72 Z " /><path fill="rgb(71,82,129)" stroke="rgb(71,82,129)" stroke-width="1" opacity="1" d="M 19.5 73 L 19.5 74 L 19.5 73 Z " /><path fill="rgb(71,82,129)" stroke="rgb(71,82,129)" stroke-width="1" opacity="1" d="M 92.5 73 L 92.5 74 L 92.5 73 Z " /><path fill="rgb(71,82,129)" stroke="rgb(71,82,129)" stroke-width="1" opacity="1" d="M 69.5 74 L 69.5 75 L 69.5 74 Z " /><path fill="rgb(71,82,129)" stroke="rgb(71,82,129)" stroke-width="1" opacity="1" d="M 82.5 74 L 83 75.5 L 82 75.5 L 82.5 74 Z " /><path fill="rgb(71,82,129)" stroke="rgb(71,82,129)" stroke-width="1" opacity="1" d="M 104.5 74 L 105 75.5 L 104 75.5 L 104.5 74 Z " /><path fill="rgb(71,82,129)" stroke="rgb(71,82,129)" stroke-width="1" opacity="1" d="M 91.5 75 L 91.5 76 L 91.5 75 Z " /><path fill="rgb(71,82,129)" stroke="rgb(71,82,129)" stroke-width="1" opacity="1" d="M 36.5 76 L 36.5 77 L 36.5 76 Z " /><path fill="rgb(71,82,129)" stroke="rgb(71,82,129)" stroke-width="1" opacity="1" d="M 57.5 76 L 57.5 77 L 57.5 76 Z " /><path fill="rgb(71,82,129)" stroke="rgb(71,82,129)" stroke-width="1" opacity="1" d="M 18.5 77 L 19 78.5 L 18 78.5 L 18.5 77 Z " /><path fill="rgb(71,82,129)" stroke="rgb(71,82,129)" stroke-width="1" opacity="1" d="M 103.5 77 L 103.5 78 L 103.5 77 Z " /><path fill="rgb(71,82,129)" stroke="rgb(71,82,129)" stroke-width="1" opacity="1" d="M 43.5 78 L 43.5 79 L 43.5 78 Z " /><path fill="rgb(71,82,129)" stroke="rgb(71,82,129)" stroke-width="1" opacity="1" d="M 56.5 78 L 56.5 79 L 56.5 78 Z " /><path fill="rgb(71,82,129)" stroke="rgb(71,82,129)" stroke-width="1" opacity="1" d="M 81.5 78 L 81.5 79 L 81.5 78 Z " /><path fill="rgb(71,82,129)" stroke="rgb(71,82,129)" stroke-width="1" opacity="1" d="M 90.5 78 L 90.5 79 L 90.5 78 Z " /><path fill="rgb(71,82,129)" stroke="rgb(71,82,129)" stroke-width="1" opacity="1" d="M 102.5 79 L 102.5 80 L 102.5 79 Z " /><path fill="rgb(71,82,129)" stroke="rgb(71,82,129)" stroke-width="1" opacity="1" d="M 67.5 80 L 69 82.5 Q 68 84 67 81.5 L 67.5 80 Z " /><path fill="rgb(71,82,129)" stroke="rgb(71,82,129)" stroke-width="1" opacity="1" d="M 80.5 80 L 80.5 81 L 80.5 80 Z " /><path fill="rgb(71,82,129)" stroke="rgb(71,82,129)" stroke-width="1" opacity="1" d="M 36.5 81 L 36.5 82 L 36.5 81 Z " /><path fill="rgb(71,82,129)" stroke="rgb(71,82,129)" stroke-width="1" opacity="1" d="M 101.5 81 L 101.5 82 L 101.5 81 Z " /><path fill="rgb(71,82,129)" stroke="rgb(71,82,129)" stroke-width="1" opacity="1" d="M 21.5 82 L 23 82.5 L 21.5 83 L 21.5 82 Z " /><path fill="rgb(71,82,129)" stroke="rgb(71,82,129)" stroke-width="1" opacity="1" d="M 34.5 82 L 34.5 83 L 34.5 82 Z " /><path fill="rgb(71,82,129)" stroke="rgb(71,82,129)" stroke-width="1" opacity="1" d="M 44.5 82 L 44.5 83 L 44.5 82 Z " /><path fill="rgb(71,82,129)" stroke="rgb(71,82,129)" stroke-width="1" opacity="1" d="M 52.5 82 L 52.5 83 L 52.5 82 Z " /><path fill="rgb(71,82,129)" stroke="rgb(71,82,129)" stroke-width="1" opacity="1" d="M 77.5 82 L 77.5 83 L 77.5 82 Z " /><path fill="rgb(71,82,129)" stroke="rgb(71,82,129)" stroke-width="1" opacity="1" d="M 92.5 82 L 92.5 83 L 92.5 82 Z " /><path fill="rgb(71,82,129)" stroke="rgb(71,82,129)" stroke-width="1" opacity="1" d="M 99.5 82 L 99.5 83 L 99.5 82 Z " /><path fill="rgb(21,32,118)" stroke="rgb(21,32,118)" stroke-width="1" opacity="1" d="M 31.5 45 L 31.5 46 L 31.5 45 Z " /><path fill="rgb(21,32,118)" stroke="rgb(21,32,118)" stroke-width="1" opacity="1" d="M 42.5 46 L 43 48.5 L 42 48.5 L 42.5 46 Z " /><path fill="rgb(21,32,118)" stroke="rgb(21,32,118)" stroke-width="1" opacity="1" d="M 29.5 47 L 29.5 48 L 29.5 47 Z " /><path fill="rgb(21,32,118)" stroke="rgb(21,32,118)" stroke-width="1" opacity="1" d="M 20.5 56 L 20.5 57 L 20.5 56 Z " /><path fill="rgb(21,32,118)" stroke="rgb(21,32,118)" stroke-width="1" opacity="1" d="M 46.5 56 L 46.5 57 L 46.5 56 Z " /><path fill="rgb(21,32,118)" stroke="rgb(21,32,118)" stroke-width="1" opacity="1" d="M 21.5 58 L 21.5 59 L 21.5 58 Z " /><path fill="rgb(21,32,118)" stroke="rgb(21,32,118)" stroke-width="1" opacity="1" d="M 44.5 58 L 44.5 59 L 44.5 58 Z " /><path fill="rgb(21,32,118)" stroke="rgb(21,32,118)" stroke-width="1" opacity="1" d="M 50.5 58 L 50.5 59 L 50.5 58 Z " /><path fill="rgb(21,32,118)" stroke="rgb(21,32,118)" stroke-width="1" opacity="1" d="M 40.5 60 L 40.5 61 L 40.5 60 Z " /><path fill="rgb(21,32,118)" stroke="rgb(21,32,118)" stroke-width="1" opacity="1" d="M 23.5 61 L 23.5 62 L 23.5 61 Z " /><path fill="rgb(21,32,118)" stroke="rgb(21,32,118)" stroke-width="1" opacity="1" d="M 69.5 61 L 69.5 62 L 69.5 61 Z " /><path fill="rgb(21,32,118)" stroke="rgb(21,32,118)" stroke-width="1" opacity="1" d="M 49.5 62 L 49.5 63 L 49.5 62 Z " /><path fill="rgb(21,32,118)" stroke="rgb(21,32,118)" stroke-width="1" opacity="1" d="M 35.5 66 L 35.5 67 L 35.5 66 Z " /><path fill="rgb(21,32,118)" stroke="rgb(21,32,118)" stroke-width="1" opacity="1" d="M 61.5 67 L 61.5 68 L 61.5 67 Z " /><path fill="rgb(21,32,118)" stroke="rgb(21,32,118)" stroke-width="1" opacity="1" d="M 45.5 71 L 45.5 72 L 45.5 71 Z " /><path fill="rgb(21,32,118)" stroke="rgb(21,32,118)" stroke-width="1" opacity="1" d="M 35.5 82 L 35.5 83 L 35.5 82 Z " /><path fill="rgb(10,23,106)" stroke="rgb(10,23,106)" stroke-width="1" opacity="1" d="M 89.5 0 L 92 0.5 L 84.5 7 L 83 7 Q 84.13 9.67 81.5 9 Q 80.5 11.5 78 11 L 76.5 14 L 73 15 Q 73.5 17.88 70.5 19 Q 67.5 18.5 67 20.5 L 63.5 25 L 46 38.5 L 44.5 41 Q 41.5 40.5 41 42.5 L 39.5 45 L 36 44.5 L 46 36.5 Q 45.17 33.88 48.5 35 L 52.5 30 Q 56.5 30.5 57 27.5 Q 56.25 25.25 58.5 26 L 62 23.5 L 63.5 21 L 83 5.5 Q 82.25 3.25 84.5 4 L 89.5 0 Z " /><path fill="rgb(10,23,106)" stroke="rgb(10,23,106)" stroke-width="1" opacity="1" d="M 20.5 57 L 21 59.5 L 14 65.5 Q 14.75 67.75 12.5 67 L 9 69.5 L 6.5 73 Q 3.5 72.5 3 74.5 L 1.5 77 L 0 77 L 0 74 L 1.5 74 L 14 63.5 Q 13.25 61.25 15.5 62 L 19 59.5 L 20.5 57 Z " /><path fill="rgb(10,23,106)" stroke="rgb(10,23,106)" stroke-width="1" opacity="1" d="M 22.5 66 L 22.5 67 L 22.5 66 Z " /><path fill="rgb(8,22,99)" stroke="rgb(8,22,99)" stroke-width="1" opacity="1" d="M 99 0 L 103 0.5 L 95.5 7 L 94 7 Q 95.13 9.67 92.5 9 Q 91.5 11.5 89 11 L 87.5 14 L 83 16.5 L 81.5 19 Q 78.5 18.5 78 20.5 L 75.5 24 L 57 38.5 L 55.5 41 Q 51.5 40.5 51 43.5 L 49.5 46 Q 46.5 45.5 46 47.5 L 42.5 52 L 42 49.5 L 44.5 46 L 69.5 25 L 73 24 L 73 22.5 L 76.5 19 L 92.5 6 L 94 6 L 95.5 3 L 99 2 L 99 0 Z " /><path fill="rgb(8,22,99)" stroke="rgb(8,22,99)" stroke-width="1" opacity="1" d="M 22.5 65 L 22 66.5 Q 23.13 69.83 20.5 69 L 17.5 73 Q 14.5 72.5 14 74.5 L 12.5 77 L 9 78 L 7.5 81 L 3 83 L 1.5 86 L 0 86 L 0 83 L 1.5 83 L 22.5 65 Z " /><path fill="rgb(8,22,99)" stroke="rgb(8,22,99)" stroke-width="1" opacity="1" d="M 18.5 75 L 18.5 76 L 18.5 75 Z " /><path fill="rgb(7,21,90)" stroke="rgb(7,21,90)" stroke-width="1" opacity="1" d="M 113.5 0 L 121 0.5 L 115 4.5 L 112.5 8 L 94 22.5 L 92.5 25 Q 89.5 24.5 89 26.5 L 86.5 30 Q 83.5 29.5 83 31.5 L 81.5 34 L 78 35 L 76.5 38 L 62 49.5 Q 62.83 52.12 59.5 51 L 57 53.5 L 57.5 55 L 54.5 54 L 51 56.5 L 50 61 L 46 62 L 44.5 65 L 34.5 73 L 34 71.5 L 36 65.5 L 39.5 62 L 44.5 59 L 52.5 51 L 113.5 0 Z " /><path fill="rgb(7,21,90)" stroke="rgb(7,21,90)" stroke-width="1" opacity="1" d="M 47.5 66 L 47.5 67 L 47.5 66 Z " /><path fill="rgb(7,21,90)" stroke="rgb(7,21,90)" stroke-width="1" opacity="1" d="M 60.5 70 L 60.5 71 L 60.5 70 Z " /><path fill="rgb(7,21,90)" stroke="rgb(7,21,90)" stroke-width="1" opacity="1" d="M 34.5 74 L 34.5 75 L 34.5 74 Z " /><path fill="rgb(7,21,90)" stroke="rgb(7,21,90)" stroke-width="1" opacity="1" d="M 68.5 76 L 68.5 77 L 68.5 76 Z " /><path fill="rgb(7,21,90)" stroke="rgb(7,21,90)" stroke-width="1" opacity="1" d="M 17.5 81 L 21 83.5 Q 18.5 84.5 19 87 L 14 89 Q 15.13 91.67 12.5 91 L 0.5 101 L 0 95.5 L 3 94 Q 1.87 91.33 4.5 92 Q 5.75 88.5 9 89 Q 7.87 86.33 10.5 87 L 17.5 81 Z " /><path fill="rgb(6,21,83)" stroke="rgb(6,21,83)" stroke-width="1" opacity="1" d="M 127.5 3 L 128 4.5 L 124.5 9 Q 121.5 8.5 121 10.5 L 118.5 14 Q 115.5 13.5 115 15.5 L 113.5 18 L 110 19 L 108.5 22 L 94 33.5 Q 94.83 36.13 91.5 35 L 87.5 40 L 83 42.5 Q 83.75 44.75 81.5 44 Q 80.5 46.5 78 46 L 76.5 49 L 71.5 53 L 68.5 53 L 68.5 52 L 73 49.5 Q 72.25 47.25 74.5 48 Q 75.5 45.5 78 46 Q 76.88 43.33 79.5 44 L 94 31.5 Q 93.17 28.88 96.5 30 Q 99.5 28.88 99 26 L 102.5 25 L 127.5 3 Z " /><path fill="rgb(6,21,83)" stroke="rgb(6,21,83)" stroke-width="1" opacity="1" d="M 104.5 53 L 104.5 54 L 104.5 53 Z " /><path fill="rgb(6,21,83)" stroke="rgb(6,21,83)" stroke-width="1" opacity="1" d="M 44.5 73 L 45 74.5 L 43 76.5 L 43.5 78 Q 42 75.5 40.5 79 L 38.5 80 L 38 78 L 41 76.5 Q 40.25 74.25 42.5 75 L 44.5 73 Z " /><path fill="rgb(6,21,83)" stroke="rgb(6,21,83)" stroke-width="1" opacity="1" d="M 31.5 83 L 34 83.5 L 30 87.5 L 30 89 Q 26.17 88.25 25 91.5 Q 25.75 93.75 23.5 93 L 0.5 112 L 0 110 L 3 108.5 L 5.5 105 Q 8.5 105.5 9 103.5 L 10.5 101 L 30 85.5 L 31.5 83 Z " /><path fill="rgb(20,28,175)" stroke="rgb(20,28,175)" stroke-width="1" opacity="1" d="M 0 0 L 22 0.5 L 0.5 19 L 0 0 Z " /><path fill="rgb(8,21,96)" stroke="rgb(8,21,96)" stroke-width="1" opacity="1" d="M 105.5 0 L 110 0.5 Q 108.83 3.75 105 3 Q 105.5 5.88 102.5 7 L 89 17.5 Q 89.75 19.75 87.5 19 L 83 22.5 L 81.5 25 Q 78.5 24.5 78 26.5 L 76.5 29 L 73 30 L 71.5 33 L 67 35 L 65.5 38 L 57 44.5 Q 57.83 47.12 54.5 46 L 51 49.5 L 51 51 L 48.5 51 Q 48 53.5 44.5 53 Q 42 52 43.5 51 Q 46.83 52.12 46 49.5 L 60.5 37 L 62 37 Q 60.88 34.33 63.5 35 Q 64.5 32.5 67 33 L 68.5 30 L 73 28 L 74.5 25 L 78 24 L 78 22.5 L 81.5 19 Q 90.64 13.64 97.5 6 L 99 6 L 100.5 3 L 105.5 0 Z " /><path fill="rgb(8,21,96)" stroke="rgb(8,21,96)" stroke-width="1" opacity="1" d="M 17.5 73 Q 19.75 72.25 19 74.5 Q 17.25 75.42 18 78 Q 15.12 77.5 14 80.5 Q 14.75 82.75 12.5 82 L 9 84.5 Q 9.75 86.75 7.5 86 L 0.5 92 L 0 88.5 L 17.5 73 Z " /><path fill="rgb(8,21,96)" stroke="rgb(8,21,96)" stroke-width="1" opacity="1" d="M 20.5 82 L 20.5 83 L 20.5 82 Z " /><path fill="rgb(7,22,81)" stroke="rgb(7,22,81)" stroke-width="1" opacity="1" d="M 78.5 53 L 78.5 54 L 78.5 53 Z " /><path fill="rgb(7,22,81)" stroke="rgb(7,22,81)" stroke-width="1" opacity="1" d="M 95.5 53 L 95.5 54 L 95.5 53 Z " /><path fill="rgb(7,22,81)" stroke="rgb(7,22,81)" stroke-width="1" opacity="1" d="M 81.5 54 L 81.5 55 L 81.5 54 Z " /><path fill="rgb(7,22,81)" stroke="rgb(7,22,81)" stroke-width="1" opacity="1" d="M 109.5 61 L 109.5 62 L 109.5 61 Z " /><path fill="rgb(7,22,81)" stroke="rgb(7,22,81)" stroke-width="1" opacity="1" d="M 93.5 69 L 93.5 70 L 93.5 69 Z " /><path fill="rgb(7,22,81)" stroke="rgb(7,22,81)" stroke-width="1" opacity="1" d="M 69.5 73 L 69.5 74 L 69.5 73 Z " /><path fill="rgb(7,22,81)" stroke="rgb(7,22,81)" stroke-width="1" opacity="1" d="M 104.5 76 L 104.5 77 L 104.5 76 Z " /><path fill="rgb(7,22,81)" stroke="rgb(7,22,81)" stroke-width="1" opacity="1" d="M 43.5 82 L 43.5 83 L 43.5 82 Z " /><path fill="rgb(5,20,77)" stroke="rgb(5,20,77)" stroke-width="1" opacity="1" d="M 127.5 15 L 128 16.5 L 121 22.5 L 119.5 25 Q 115.5 24.5 115 27.5 L 113.5 30 Q 110.5 29.5 110 31.5 L 108.5 34 L 105 35 L 103.5 38 L 89 49.5 Q 89.83 52.12 86.5 51 L 82.5 55 L 82 54.5 L 83 51 L 85.5 51 L 94 43.5 Q 93.25 41.25 95.5 42 L 99 39.5 Q 98.25 37.25 100.5 38 L 127.5 15 Z " /><path fill="rgb(5,20,77)" stroke="rgb(5,20,77)" stroke-width="1" opacity="1" d="M 71.5 62 L 72 65 L 67 67 Q 68.13 69.67 65.5 69 L 59.5 74 L 59 73.5 L 62 70.5 Q 61.25 68.25 63.5 69 Q 64.5 66.5 67 67 L 68.5 64 L 71.5 62 Z " /><path fill="rgb(5,20,77)" stroke="rgb(5,20,77)" stroke-width="1" opacity="1" d="M 46.5 83 L 48 83.5 Q 45.5 84.5 46 87 L 41 89 Q 42.13 91.67 39.5 91 L 25 103.5 Q 25.83 106.13 22.5 105 L 0.5 124 L 0 121 L 3 121 L 3 119.5 L 19 106.5 Q 18.25 104.25 20.5 105 L 25 101.5 L 26.5 99 Q 29.5 99.5 30 97.5 L 31.5 95 L 35 94 L 36.5 91 L 41 89 L 42.5 86 L 46.5 83 Z " /><path fill="rgb(16,25,156)" stroke="rgb(16,25,156)" stroke-width="1" opacity="1" d="M 22.5 0 L 38 0.5 L 30 7.5 Q 30.83 10.13 27.5 9 Q 24.5 10.13 25 13 L 21.5 14 L 0.5 32 L 0 19.5 L 22.5 0 Z " /><path fill="rgb(14,24,145)" stroke="rgb(14,24,145)" stroke-width="1" opacity="1" d="M 38.5 0 L 50 0.5 L 9.5 35 L 4.5 39 L 3 39 Q 4.13 41.67 1.5 41 L 0 41.5 L 0 32.5 L 2.5 30 L 8.5 26 L 21.5 14 L 25 13 Q 24.5 10.13 27.5 9 Q 30.83 10.13 30 7.5 L 38.5 0 Z " /><path fill="rgb(12,23,129)" stroke="rgb(12,23,129)" stroke-width="1" opacity="1" d="M 56.5 0 L 66 0.5 L 0.5 56 L 0 46 L 3 46 L 3 44.5 L 6.5 41 L 9 41 Q 8.5 38.13 11.5 37 L 19 31.5 Q 18.25 29.25 20.5 30 L 25 26.5 Q 24.25 24.25 26.5 25 L 30 22.5 L 32.5 19 Q 35.83 20.13 35 17.5 Q 37 14.25 41 14 L 42.5 11 L 51 4.5 Q 50.25 2.25 52.5 3 L 56.5 0 Z " /><path fill="rgb(13,26,116)" stroke="rgb(13,26,116)" stroke-width="1" opacity="1" d="M 20.5 55 L 20.5 56 L 20.5 55 Z " /><path fill="rgb(5,20,76)" stroke="rgb(5,20,76)" stroke-width="1" opacity="1" d="M 127.5 17 L 128 18.5 L 90.5 51 L 85.5 55 L 83.5 55 L 83 54.5 L 86.5 51 Q 89.83 52.12 89 49.5 L 105 36.5 Q 104.25 34.25 106.5 35 L 110 32.5 L 111.5 30 Q 114.5 30.5 115 28.5 L 117.5 25 Q 120.5 25.5 121 23.5 L 123.5 20 L 127.5 17 Z " /><path fill="rgb(5,20,76)" stroke="rgb(5,20,76)" stroke-width="1" opacity="1" d="M 70.5 65 Q 73.12 64.33 72 67 L 70.5 67 L 57.5 78 L 58 76.5 L 60.5 73 L 65.5 69 L 67 69 Q 65.88 66.33 68.5 67 L 70.5 65 Z " /><path fill="rgb(5,20,76)" stroke="rgb(5,20,76)" stroke-width="1" opacity="1" d="M 83.5 71 L 83.5 72 L 83.5 71 Z " /><path fill="rgb(5,20,76)" stroke="rgb(5,20,76)" stroke-width="1" opacity="1" d="M 67.5 78 L 67.5 79 L 67.5 78 Z " /><path fill="rgb(5,20,76)" stroke="rgb(5,20,76)" stroke-width="1" opacity="1" d="M 90.5 80 L 90.5 81 L 90.5 80 Z " /><path fill="rgb(5,20,76)" stroke="rgb(5,20,76)" stroke-width="1" opacity="1" d="M 55.5 81 L 55.5 82 L 55.5 81 Z " /><path fill="rgb(5,20,76)" stroke="rgb(5,20,76)" stroke-width="1" opacity="1" d="M 48.5 83 L 51 83.5 L 47.5 87 L 46 87 Q 47.12 89.67 44.5 89 Q 40.96 94.32 35 96 L 33.5 99 L 30 100 L 30 101.5 L 26.5 105 L 10.5 118 L 9 118 L 7.5 121 L 3 123.5 L 1.5 126 Q -0.75 126.75 0 124.5 L 22.5 105 L 25 105 L 25 103.5 L 29.5 99 L 39.5 91 L 41 91 Q 39.88 88.33 42.5 89 Q 43.5 86.5 46 87 Q 45.5 84.12 48.5 83 Z " /><path fill="rgb(5,20,69)" stroke="rgb(5,20,69)" stroke-width="1" opacity="1" d="M 127.5 32 L 128 38 Q 125.33 36.88 126 39.5 L 118.5 46 L 115 47 Q 115.5 49.88 112.5 51 Q 109.17 49.88 110 52.5 L 107.5 55 L 106.5 54 L 103 52.5 L 127.5 32 Z " /><path fill="rgb(5,20,69)" stroke="rgb(5,20,69)" stroke-width="1" opacity="1" d="M 91.5 62 Q 94.5 61.5 95 63.5 L 94 67 L 89 69 Q 89.5 71.87 86.5 73 L 83.5 74 L 83 72.5 L 85 67 L 86.5 67 L 91.5 62 Z " /><path fill="rgb(5,20,69)" stroke="rgb(5,20,69)" stroke-width="1" opacity="1" d="M 108.5 65 L 108.5 66 L 108.5 65 Z " /><path fill="rgb(5,20,69)" stroke="rgb(5,20,69)" stroke-width="1" opacity="1" d="M 92.5 72 L 92.5 73 L 92.5 72 Z " /><path fill="rgb(5,20,69)" stroke="rgb(5,20,69)" stroke-width="1" opacity="1" d="M 91.5 74 L 91.5 75 L 91.5 74 Z " /><path fill="rgb(5,20,69)" stroke="rgb(5,20,69)" stroke-width="1" opacity="1" d="M 81.5 79 L 81.5 80 L 81.5 79 Z " /><path fill="rgb(5,20,69)" stroke="rgb(5,20,69)" stroke-width="1" opacity="1" d="M 80.5 81 L 80.5 82 L 80.5 81 Z " /><path fill="rgb(5,20,69)" stroke="rgb(5,20,69)" stroke-width="1" opacity="1" d="M 66.5 83 L 73 83.5 L 62 92.5 Q 62.75 94.75 60.5 94 L 57 96.5 L 55.5 99 Q 51.5 98.5 51 101.5 L 48.5 105 Q 45.17 103.88 46 106.5 L 30 119.5 Q 30.83 122.13 27.5 121 L 23.5 126 Q 20 125.5 19.5 128 L 14 128 Q 12.75 125 16.5 126 L 20.5 121 Q 24.5 121.5 25 118.5 L 26.5 116 L 30 115 L 31.5 112 L 46 100.5 Q 45.17 97.88 48.5 99 L 52.5 94 Q 56.5 94.5 57 91.5 Q 56.25 89.25 58.5 90 L 62 87.5 Q 61.25 85.25 63.5 86 L 66.5 83 Z " /><path fill="rgb(15,26,135)" stroke="rgb(15,26,135)" stroke-width="1" opacity="1" d="M 50.5 0 L 56 0.5 L 51 3 Q 51.5 5.88 48.5 7 L 41 12.5 Q 41.75 14.75 39.5 14 L 35 17.5 Q 35.83 20.13 32.5 19 L 28.5 24 L 25 25 Q 25.5 27.87 22.5 29 L 19 30 L 17.5 33 L 9 39.5 Q 9.83 42.13 6.5 41 L 3 44.5 L 3 46 Q -1.5 47.75 0 42.5 L 3 41 Q 1.87 38.33 4.5 39 L 50.5 0 Z " /><path fill="rgb(10,22,113)" stroke="rgb(10,22,113)" stroke-width="1" opacity="1" d="M 76.5 0 L 84 0.5 L 83 3 Q 79.17 2.25 78 5.5 L 76.5 8 L 73 9 L 71.5 12 L 67 14 L 65.5 17 L 57 23.5 Q 57.83 26.13 54.5 25 L 51 28.5 L 51 30 Q 47.17 29.25 46 32.5 L 44.5 35 Q 41.5 34.5 41 36.5 L 39.5 39 L 35 41 Q 36.13 43.67 33.5 43 L 19 55.5 Q 19.83 58.13 16.5 57 Q 13.5 58.12 14 61 L 9 63.5 Q 9.75 65.75 7.5 65 L 0.5 71 L 0 64.5 L 34.5 35 L 40.5 31 L 53.5 19 L 57 18 Q 56.5 15.12 59.5 14 Q 62.83 15.13 62 12.5 L 76.5 0 Z " /><path fill="rgb(9,22,103)" stroke="rgb(9,22,103)" stroke-width="1" opacity="1" d="M 92.5 0 L 98.5 0 L 99 2 L 94 4.5 Q 94.75 6.75 92.5 6 L 73 22.5 Q 73.75 24.75 71.5 24 L 43.5 47 L 40 44.5 L 42.5 41 Q 45.5 41.5 46 39.5 L 47.5 37 L 67 21.5 L 68.5 19 Q 72.5 19.5 73 16.5 Q 72.25 14.25 74.5 15 L 78 12.5 Q 77.25 10.25 79.5 11 Q 80.5 8.5 83 9 Q 81.88 6.33 84.5 7 L 92.5 0 Z " /><path fill="rgb(9,22,103)" stroke="rgb(9,22,103)" stroke-width="1" opacity="1" d="M 21.5 59 L 23 59.5 L 23 64.5 L 1.5 83 L 0 83 L 0 77.5 L 1.5 77 L 4.5 73 Q 8.5 73.5 9 70.5 L 10.5 68 L 14 67 Q 13.5 64.13 16.5 63 L 21.5 59 Z " /><path fill="rgb(9,22,103)" stroke="rgb(9,22,103)" stroke-width="1" opacity="1" d="M 19.5 72 L 19.5 73 L 19.5 72 Z " /><path fill="rgb(8,21,93)" stroke="rgb(8,21,93)" stroke-width="1" opacity="1" d="M 110.5 0 L 113 0.5 L 47.5 56 L 46 53.5 Q 47.17 50.25 51 51 L 51 49.5 L 54.5 46 Q 57.83 47.12 57 44.5 L 67 36.5 Q 66.25 34.25 68.5 35 L 73 31.5 Q 72.25 29.25 74.5 30 L 78 27.5 L 79.5 25 Q 82.5 25.5 83 23.5 L 85.5 20 L 89 19 L 90.5 16 L 105 4.5 Q 104.17 1.87 107.5 3 L 110.5 0 Z " /><path fill="rgb(8,21,93)" stroke="rgb(8,21,93)" stroke-width="1" opacity="1" d="M 92.5 54 L 92.5 55 L 92.5 54 Z " /><path fill="rgb(8,21,93)" stroke="rgb(8,21,93)" stroke-width="1" opacity="1" d="M 42.5 59 L 43 59.5 L 40.5 62 L 36.5 65 L 37 63.5 Q 36.25 61.25 38.5 62 L 42.5 59 Z " /><path fill="rgb(8,21,93)" stroke="rgb(8,21,93)" stroke-width="1" opacity="1" d="M 71.5 67 L 71.5 68 L 71.5 67 Z " /><path fill="rgb(8,21,93)" stroke="rgb(8,21,93)" stroke-width="1" opacity="1" d="M 70.5 71 L 70.5 72 L 70.5 71 Z " /><path fill="rgb(8,21,93)" stroke="rgb(8,21,93)" stroke-width="1" opacity="1" d="M 16.5 78 Q 18.75 77.25 18 79.5 L 18.5 81 Q 13.33 82.83 10.5 87 L 9 87 Q 10.13 89.67 7.5 89 Q 6.25 92.5 3 92 Q 4.13 94.67 1.5 94 L 0 94.5 L 0 92.5 L 3.5 89 L 7.5 86 L 9 86 L 10.5 83 L 14 82 Q 13.5 79.12 16.5 78 Z " /><path fill="rgb(7,21,87)" stroke="rgb(7,21,87)" stroke-width="1" opacity="1" d="M 121.5 0 L 126 0 L 126 1.5 L 121 4 L 121 5.5 L 117.5 9 Q 114.17 7.87 115 10.5 L 99 23.5 Q 99.75 25.75 97.5 25 L 94 27.5 L 92.5 30 Q 89.5 29.5 89 31.5 L 86.5 35 Q 83.5 34.5 83 36.5 L 81.5 39 L 61.5 55 L 58.5 55 L 57 53.5 L 59.5 51 Q 62.83 52.12 62 49.5 L 78 36.5 Q 77.25 34.25 79.5 35 L 83 32.5 L 84.5 30 Q 88.5 30.5 89 27.5 L 90.5 25 Q 93.5 25.5 94 23.5 L 95.5 21 L 115 5.5 L 116.5 3 L 118.5 3 L 121.5 0 Z " /><path fill="rgb(7,21,87)" stroke="rgb(7,21,87)" stroke-width="1" opacity="1" d="M 48.5 61 L 50 61.5 L 49 64.5 L 44.5 70 L 36.5 76 L 35 76 L 34 73.5 L 46 63.5 Q 45.25 61.25 47.5 62 L 48.5 61 Z " /><path fill="rgb(7,21,87)" stroke="rgb(7,21,87)" stroke-width="1" opacity="1" d="M 90.5 77 L 90.5 78 L 90.5 77 Z " /><path fill="rgb(7,21,87)" stroke="rgb(7,21,87)" stroke-width="1" opacity="1" d="M 21.5 83 L 27 83.5 L 23.5 88 L 19 90.5 Q 19.75 92.75 17.5 92 Q 16.5 94.5 14 94 Q 15.13 96.67 12.5 96 L 0.5 106 L 0 101.5 L 12.5 91 L 14 91 Q 12.88 88.33 15.5 89 Q 16.5 86.5 19 87 Q 18.5 84.12 21.5 83 Z " /><path fill="rgb(11,23,121)" stroke="rgb(11,23,121)" stroke-width="1" opacity="1" d="M 66.5 0 L 76 0.5 L 62 12.5 Q 62.83 15.13 59.5 14 Q 56.5 15.12 57 18 L 53.5 19 L 40.5 31 L 34.5 35 L 0.5 64 L 0 56.5 L 66.5 0 Z " /><path fill="rgb(9,22,110)" stroke="rgb(9,22,110)" stroke-width="1" opacity="1" d="M 84.5 0 L 89 0.5 Q 87 3.75 83 4 L 83 5.5 L 79.5 9 L 62 22.5 L 60.5 25 L 57 26 Q 57.5 28.88 54.5 30 Q 51.5 29.5 51 31.5 L 48.5 35 Q 45.17 33.88 46 36.5 L 37.5 44 L 32.5 45 Q 31 44 33.5 43 L 35 43 Q 33.88 40.33 36.5 41 L 41 37.5 L 42.5 35 Q 45.5 35.5 46 33.5 L 48.5 30 Q 51.83 31.13 51 28.5 L 54.5 25 L 57 25 Q 56.5 22.13 59.5 21 L 67 15.5 Q 66.25 13.25 68.5 14 L 73 10.5 Q 72.25 8.25 74.5 9 L 78 6.5 L 80.5 3 Q 83.83 4.13 83 1.5 L 84.5 0 Z " /><path fill="rgb(9,22,110)" stroke="rgb(9,22,110)" stroke-width="1" opacity="1" d="M 28.5 47 L 29 49.5 L 26.5 52 L 20 55 Q 20.62 59.12 17.5 61 L 14 62 Q 14.5 64.87 11.5 66 L 1.5 74 L 0 74 L 0 71.5 L 4.5 67 L 9 65 L 10.5 62 L 14 61 Q 13.5 58.12 16.5 57 Q 19.83 58.13 19 55.5 L 28.5 47 Z " /><path fill="rgb(243,244,247)" stroke="rgb(243,244,247)" stroke-width="1" opacity="1" d="M 35.5 45 L 40 45.5 L 35.5 46 L 35.5 45 Z " /><path fill="rgb(243,244,247)" stroke="rgb(243,244,247)" stroke-width="1" opacity="1" d="M 31.5 46 Q 33 47 30.5 48 Q 29 47 31.5 46 Z " /><path fill="rgb(243,244,247)" stroke="rgb(243,244,247)" stroke-width="1" opacity="1" d="M 41.5 49 L 41.5 50 L 41.5 49 Z " /><path fill="rgb(243,244,247)" stroke="rgb(243,244,247)" stroke-width="1" opacity="1" d="M 29.5 50 Q 31 51 28.5 52 Q 27 51 29.5 50 Z " /><path fill="rgb(243,244,247)" stroke="rgb(243,244,247)" stroke-width="1" opacity="1" d="M 23.5 54 L 23.5 55 L 23.5 54 Z " /><path fill="rgb(243,244,247)" stroke="rgb(243,244,247)" stroke-width="1" opacity="1" d="M 65.5 54 L 65.5 55 L 65.5 54 Z " /><path fill="rgb(243,244,247)" stroke="rgb(243,244,247)" stroke-width="1" opacity="1" d="M 78.5 54 L 78.5 55 L 78.5 54 Z " /><path fill="rgb(243,244,247)" stroke="rgb(243,244,247)" stroke-width="1" opacity="1" d="M 104.5 54 L 104.5 55 L 104.5 54 Z " /><path fill="rgb(243,244,247)" stroke="rgb(243,244,247)" stroke-width="1" opacity="1" d="M 53.5 55 Q 55 56 52.5 57 Q 51 56 53.5 55 Z " /><path fill="rgb(243,244,247)" stroke="rgb(243,244,247)" stroke-width="1" opacity="1" d="M 57.5 55 L 57.5 56 L 57.5 55 Z " /><path fill="rgb(243,244,247)" stroke="rgb(243,244,247)" stroke-width="1" opacity="1" d="M 61.5 55 L 61.5 56 L 61.5 55 Z " /><path fill="rgb(243,244,247)" stroke="rgb(243,244,247)" stroke-width="1" opacity="1" d="M 81.5 55 L 81.5 56 L 81.5 55 Z " /><path fill="rgb(243,244,247)" stroke="rgb(243,244,247)" stroke-width="1" opacity="1" d="M 91.5 55 L 91.5 56 L 91.5 55 Z " /><path fill="rgb(243,244,247)" stroke="rgb(243,244,247)" stroke-width="1" opacity="1" d="M 106.5 55 L 106.5 56 L 106.5 55 Z " /><path fill="rgb(243,244,247)" stroke="rgb(243,244,247)" stroke-width="1" opacity="1" d="M 21.5 56 L 21.5 57 L 21.5 56 Z " /><path fill="rgb(243,244,247)" stroke="rgb(243,244,247)" stroke-width="1" opacity="1" d="M 45.5 56 Q 47 57 44.5 58 Q 43 57 45.5 56 Z " /><path fill="rgb(243,244,247)" stroke="rgb(243,244,247)" stroke-width="1" opacity="1" d="M 83.5 56 L 85 56.5 L 83.5 57 L 83.5 56 Z " /><path fill="rgb(243,244,247)" stroke="rgb(243,244,247)" stroke-width="1" opacity="1" d="M 87.5 56 L 89 56.5 L 87.5 57 L 87.5 56 Z " /><path fill="rgb(243,244,247)" stroke="rgb(243,244,247)" stroke-width="1" opacity="1" d="M 42.5 58 L 42.5 59 L 42.5 58 Z " /><path fill="rgb(243,244,247)" stroke="rgb(243,244,247)" stroke-width="1" opacity="1" d="M 51.5 58 L 51.5 59 L 51.5 58 Z " /><path fill="rgb(243,244,247)" stroke="rgb(243,244,247)" stroke-width="1" opacity="1" d="M 24.5 59 L 24.5 60 L 24.5 59 Z " /><path fill="rgb(243,244,247)" stroke="rgb(243,244,247)" stroke-width="1" opacity="1" d="M 72.5 61 L 72.5 62 L 72.5 61 Z " /><path fill="rgb(243,244,247)" stroke="rgb(243,244,247)" stroke-width="1" opacity="1" d="M 87.5 61 Q 89 62 86.5 63 Q 85 62 87.5 61 Z " /><path fill="rgb(243,244,247)" stroke="rgb(243,244,247)" stroke-width="1" opacity="1" d="M 94.5 61 L 94.5 62 L 94.5 61 Z " /><path fill="rgb(243,244,247)" stroke="rgb(243,244,247)" stroke-width="1" opacity="1" d="M 63.5 62 Q 65 63 62.5 64 Q 61 63 63.5 62 Z " /><path fill="rgb(243,244,247)" stroke="rgb(243,244,247)" stroke-width="1" opacity="1" d="M 24.5 64 L 24.5 65 L 24.5 64 Z " /><path fill="rgb(243,244,247)" stroke="rgb(243,244,247)" stroke-width="1" opacity="1" d="M 35.5 64 L 35.5 65 L 35.5 64 Z " /><path fill="rgb(243,244,247)" stroke="rgb(243,244,247)" stroke-width="1" opacity="1" d="M 107.5 65 L 107.5 66 L 107.5 65 Z " /><path fill="rgb(243,244,247)" stroke="rgb(243,244,247)" stroke-width="1" opacity="1" d="M 23.5 66 L 23.5 67 L 23.5 66 Z " /><path fill="rgb(243,244,247)" stroke="rgb(243,244,247)" stroke-width="1" opacity="1" d="M 34.5 66 L 34.5 67 L 34.5 66 Z " /><path fill="rgb(243,244,247)" stroke="rgb(243,244,247)" stroke-width="1" opacity="1" d="M 95.5 66 L 95.5 67 L 95.5 66 Z " /><path fill="rgb(243,244,247)" stroke="rgb(243,244,247)" stroke-width="1" opacity="1" d="M 106.5 67 L 106.5 68 L 106.5 67 Z " /><path fill="rgb(243,244,247)" stroke="rgb(243,244,247)" stroke-width="1" opacity="1" d="M 22.5 68 L 22.5 69 L 22.5 68 Z " /><path fill="rgb(243,244,247)" stroke="rgb(243,244,247)" stroke-width="1" opacity="1" d="M 83.5 68 L 83.5 69 L 83.5 68 Z " /><path fill="rgb(243,244,247)" stroke="rgb(243,244,247)" stroke-width="1" opacity="1" d="M 72.5 69 L 72.5 70 L 72.5 69 Z " /><path fill="rgb(243,244,247)" stroke="rgb(243,244,247)" stroke-width="1" opacity="1" d="M 59.5 70 L 59.5 71 L 59.5 70 Z " /><path fill="rgb(243,244,247)" stroke="rgb(243,244,247)" stroke-width="1" opacity="1" d="M 105.5 70 L 105.5 71 L 105.5 70 Z " /><path fill="rgb(243,244,247)" stroke="rgb(243,244,247)" stroke-width="1" opacity="1" d="M 46.5 71 L 46.5 72 L 46.5 71 Z " /><path fill="rgb(243,244,247)" stroke="rgb(243,244,247)" stroke-width="1" opacity="1" d="M 71.5 71 L 71.5 72 L 71.5 71 Z " /><path fill="rgb(243,244,247)" stroke="rgb(243,244,247)" stroke-width="1" opacity="1" d="M 82.5 71 L 82.5 72 L 82.5 71 Z " /><path fill="rgb(243,244,247)" stroke="rgb(243,244,247)" stroke-width="1" opacity="1" d="M 58.5 72 L 58.5 73 L 58.5 72 Z " /><path fill="rgb(243,244,247)" stroke="rgb(243,244,247)" stroke-width="1" opacity="1" d="M 104.5 72 L 104.5 73 L 104.5 72 Z " /><path fill="rgb(243,244,247)" stroke="rgb(243,244,247)" stroke-width="1" opacity="1" d="M 70.5 73 L 70.5 74 L 70.5 73 Z " /><path fill="rgb(243,244,247)" stroke="rgb(243,244,247)" stroke-width="1" opacity="1" d="M 103.5 74 L 103.5 75 L 103.5 74 Z " /><path fill="rgb(243,244,247)" stroke="rgb(243,244,247)" stroke-width="1" opacity="1" d="M 19.5 75 L 19.5 76 L 19.5 75 Z " /><path fill="rgb(243,244,247)" stroke="rgb(243,244,247)" stroke-width="1" opacity="1" d="M 45.5 75 L 45.5 76 L 45.5 75 Z " /><path fill="rgb(243,244,247)" stroke="rgb(243,244,247)" stroke-width="1" opacity="1" d="M 35.5 76 L 35.5 77 L 35.5 76 Z " /><path fill="rgb(243,244,247)" stroke="rgb(243,244,247)" stroke-width="1" opacity="1" d="M 91.5 77 L 91.5 78 L 91.5 77 Z " /><path fill="rgb(243,244,247)" stroke="rgb(243,244,247)" stroke-width="1" opacity="1" d="M 37.5 78 L 37.5 79 L 37.5 78 Z " /><path fill="rgb(243,244,247)" stroke="rgb(243,244,247)" stroke-width="1" opacity="1" d="M 68.5 78 L 68.5 79 L 68.5 78 Z " /><path fill="rgb(243,244,247)" stroke="rgb(243,244,247)" stroke-width="1" opacity="1" d="M 102.5 78 L 102.5 79 L 102.5 78 Z " /><path fill="rgb(243,244,247)" stroke="rgb(243,244,247)" stroke-width="1" opacity="1" d="M 36.5 80 Q 38 81 35.5 82 Q 34 81 36.5 80 Z " /><path fill="rgb(243,244,247)" stroke="rgb(243,244,247)" stroke-width="1" opacity="1" d="M 43.5 80 L 43.5 81 L 43.5 80 Z " /><path fill="rgb(243,244,247)" stroke="rgb(243,244,247)" stroke-width="1" opacity="1" d="M 91.5 80 L 91.5 81 L 91.5 80 Z " /><path fill="rgb(243,244,247)" stroke="rgb(243,244,247)" stroke-width="1" opacity="1" d="M 101.5 80 Q 103 81 100.5 82 Q 99 81 101.5 80 Z " /><path fill="rgb(243,244,247)" stroke="rgb(243,244,247)" stroke-width="1" opacity="1" d="M 20.5 81 L 20.5 82 L 20.5 81 Z " /><path fill="rgb(243,244,247)" stroke="rgb(243,244,247)" stroke-width="1" opacity="1" d="M 48.5 82 L 48.5 83 L 48.5 82 Z " /><path fill="rgb(243,244,247)" stroke="rgb(243,244,247)" stroke-width="1" opacity="1" d="M 71.5 82 L 74 82.5 L 71.5 83 L 71.5 82 Z " /><path fill="rgb(243,244,247)" stroke="rgb(243,244,247)" stroke-width="1" opacity="1" d="M 94.5 82 L 98 82.5 L 94.5 83 L 94.5 82 Z " /><path fill="rgb(254,255,255)" stroke="rgb(254,255,255)" stroke-width="1" opacity="1" d="M 41.5 46 L 41.5 47 L 41.5 46 Z " /><path fill="rgb(254,255,255)" stroke="rgb(254,255,255)" stroke-width="1" opacity="1" d="M 27.5 52 L 27.5 53 L 27.5 52 Z " /><path fill="rgb(254,255,255)" stroke="rgb(254,255,255)" stroke-width="1" opacity="1" d="M 25.5 53 L 25.5 54 L 25.5 53 Z " /><path fill="rgb(254,255,255)" stroke="rgb(254,255,255)" stroke-width="1" opacity="1" d="M 43.5 53 L 43.5 54 L 43.5 53 Z " /><path fill="rgb(254,255,255)" stroke="rgb(254,255,255)" stroke-width="1" opacity="1" d="M 95.5 54 L 95.5 55 L 95.5 54 Z " /><path fill="rgb(254,255,255)" stroke="rgb(254,255,255)" stroke-width="1" opacity="1" d="M 22.5 55 L 22.5 56 L 22.5 55 Z " /><path fill="rgb(254,255,255)" stroke="rgb(254,255,255)" stroke-width="1" opacity="1" d="M 92.5 55 L 92.5 56 L 92.5 55 Z " /><path fill="rgb(254,255,255)" stroke="rgb(254,255,255)" stroke-width="1" opacity="1" d="M 23.5 58 L 23.5 59 L 23.5 58 Z " /><path fill="rgb(254,255,255)" stroke="rgb(254,255,255)" stroke-width="1" opacity="1" d="M 39.5 59 Q 41 60 38.5 61 Q 37 60 39.5 59 Z " /><path fill="rgb(254,255,255)" stroke="rgb(254,255,255)" stroke-width="1" opacity="1" d="M 36.5 61 L 36.5 62 L 36.5 61 Z " /><path fill="rgb(254,255,255)" stroke="rgb(254,255,255)" stroke-width="1" opacity="1" d="M 64.5 61 L 64.5 62 L 64.5 61 Z " /><path fill="rgb(254,255,255)" stroke="rgb(254,255,255)" stroke-width="1" opacity="1" d="M 108.5 61 L 108.5 62 L 108.5 61 Z " /><path fill="rgb(254,255,255)" stroke="rgb(254,255,255)" stroke-width="1" opacity="1" d="M 50.5 62 L 50.5 63 L 50.5 62 Z " /><path fill="rgb(254,255,255)" stroke="rgb(254,255,255)" stroke-width="1" opacity="1" d="M 61.5 64 L 61.5 65 L 61.5 64 Z " /><path fill="rgb(254,255,255)" stroke="rgb(254,255,255)" stroke-width="1" opacity="1" d="M 49.5 65 L 49.5 66 L 49.5 65 Z " /><path fill="rgb(254,255,255)" stroke="rgb(254,255,255)" stroke-width="1" opacity="1" d="M 60.5 67 L 60.5 68 L 60.5 67 Z " /><path fill="rgb(254,255,255)" stroke="rgb(254,255,255)" stroke-width="1" opacity="1" d="M 47.5 69 L 47.5 70 L 47.5 69 Z " /><path fill="rgb(254,255,255)" stroke="rgb(254,255,255)" stroke-width="1" opacity="1" d="M 94.5 69 L 94.5 70 L 94.5 69 Z " /><path fill="rgb(254,255,255)" stroke="rgb(254,255,255)" stroke-width="1" opacity="1" d="M 21.5 71 L 21.5 72 L 21.5 71 Z " /><path fill="rgb(254,255,255)" stroke="rgb(254,255,255)" stroke-width="1" opacity="1" d="M 104.5 71 L 104.5 72 L 104.5 71 Z " /><path fill="rgb(254,255,255)" stroke="rgb(254,255,255)" stroke-width="1" opacity="1" d="M 57.5 74 L 57.5 75 L 57.5 74 Z " /><path fill="rgb(254,255,255)" stroke="rgb(254,255,255)" stroke-width="1" opacity="1" d="M 45.5 76 L 45.5 77 L 45.5 76 Z " /><path fill="rgb(254,255,255)" stroke="rgb(254,255,255)" stroke-width="1" opacity="1" d="M 69.5 76 L 69.5 77 L 69.5 76 Z " /><path fill="rgb(254,255,255)" stroke="rgb(254,255,255)" stroke-width="1" opacity="1" d="M 54.5 80 Q 56 81 53.5 82 Q 52 81 54.5 80 Z " /><path fill="rgb(254,255,255)" stroke="rgb(254,255,255)" stroke-width="1" opacity="1" d="M 78.5 81 L 78.5 82 L 78.5 81 Z " /><path fill="rgb(255,255,255)" stroke="rgb(255,255,255)" stroke-width="1" opacity="1" d="M 32.5 46 L 40.5 46 L 42 47.5 L 41 51.5 L 46 55.5 L 43.5 58 L 36 61 Q 36.6 64.68 34 66.5 L 33 74.5 Q 34.13 77.5 37 77 Q 37.75 80.83 34.5 82 L 21.5 82 L 19 79.5 L 20 73.5 L 22 71.5 L 22 69.5 L 25 64.5 L 25 59.5 L 22 58 Q 21.5 55.13 24.5 54 Q 28.38 53.38 30 50.5 Q 29.5 46.5 32.5 46 Z " /><path fill="rgb(255,255,255)" stroke="rgb(255,255,255)" stroke-width="1" opacity="1" d="M 66.5 54 L 77.5 54 L 83.5 57 L 88.5 57 L 96.5 54 L 103.5 54 L 109 57.5 L 108 64.5 L 106 67.5 L 106 69.5 L 104 71.5 L 103 77.5 L 99.5 82 L 92.5 82 L 92 80.5 L 91 78.5 L 96 66.5 L 96 62.5 L 94.5 61 L 87.5 61 L 83 68.5 L 82 71.5 L 82 76.5 L 80 81 L 77.5 82 L 68 82 L 70 74.5 L 73 69.5 L 73 61 L 64.5 61 L 61 64.5 L 57 76.5 L 52.5 82 L 44 82 L 44 78.5 L 46 76.5 L 46 72.5 L 48 69.5 L 48 67.5 L 50 65.5 L 51 59.5 L 54.5 55 L 61.5 56 L 66.5 54 Z " /><path fill="rgb(7,21,85)" stroke="rgb(7,21,85)" stroke-width="1" opacity="1" d="M 126 0 Q 129 -1 128 2 L 126.5 2 L 122.5 6 L 121 6 L 119.5 9 L 115 11 L 113.5 14 L 110 15 Q 110.5 17.88 107.5 19 Q 104.17 17.88 105 20.5 L 90.5 33 L 89 33 Q 90.13 35.67 87.5 35 L 83 38.5 L 81.5 41 Q 78.5 40.5 78 42.5 L 75.5 46 Q 72.17 44.88 73 47.5 L 69.5 51 L 67 51 L 65.5 54 L 63 53.5 L 83 37.5 L 84.5 35 Q 88.5 35.5 89 32.5 L 90.5 30 Q 93.5 30.5 94 28.5 L 95.5 26 L 99 25 Q 98.5 22.13 101.5 21 L 115 10.5 Q 114.17 7.87 117.5 9 L 121 5.5 L 121 4 L 126 1.5 L 126 0 Z " /><path fill="rgb(7,21,85)" stroke="rgb(7,21,85)" stroke-width="1" opacity="1" d="M 106.5 54 L 106.5 55 L 106.5 54 Z " /><path fill="rgb(7,21,85)" stroke="rgb(7,21,85)" stroke-width="1" opacity="1" d="M 46.5 67 L 47 68.5 L 43.5 73 Q 40.17 71.88 41 74.5 Q 39.88 77.5 37 77 L 38.5 74 L 46 68.5 L 46.5 67 Z " /><path fill="rgb(7,21,85)" stroke="rgb(7,21,85)" stroke-width="1" opacity="1" d="M 56.5 79 L 56.5 80 L 56.5 79 Z " /><path fill="rgb(7,21,85)" stroke="rgb(7,21,85)" stroke-width="1" opacity="1" d="M 100.5 82 L 100.5 83 L 100.5 82 Z " /><path fill="rgb(7,21,85)" stroke="rgb(7,21,85)" stroke-width="1" opacity="1" d="M 27.5 83 L 30 83.5 L 25 87.5 Q 25.75 89.75 23.5 89 L 19 92.5 Q 19.83 95.13 16.5 94 L 12.5 99 Q 9.5 98.5 9 100.5 L 7.5 103 L 3 105 Q 4.13 107.67 1.5 107 L 0 107.5 L 1.5 105 L 12.5 96 L 14 96 Q 12.88 93.33 15.5 94 Q 16.5 91.5 19 92 L 20.5 89 L 25 86.5 L 27.5 83 Z " /><path fill="rgb(179,183,202)" stroke="rgb(179,183,202)" stroke-width="1" opacity="1" d="M 33.5 45 L 35 45.5 L 33.5 46 L 33.5 45 Z " /><path fill="rgb(179,183,202)" stroke="rgb(179,183,202)" stroke-width="1" opacity="1" d="M 40.5 45 L 40.5 46 L 40.5 45 Z " /><path fill="rgb(179,183,202)" stroke="rgb(179,183,202)" stroke-width="1" opacity="1" d="M 29.5 49 L 29.5 50 L 29.5 49 Z " /><path fill="rgb(179,183,202)" stroke="rgb(179,183,202)" stroke-width="1" opacity="1" d="M 41.5 50 L 43 52.5 Q 42 54 41 51.5 L 41.5 50 Z " /><path fill="rgb(179,183,202)" stroke="rgb(179,183,202)" stroke-width="1" opacity="1" d="M 26.5 52 L 26.5 53 L 26.5 52 Z " /><path fill="rgb(179,183,202)" stroke="rgb(179,183,202)" stroke-width="1" opacity="1" d="M 24.5 53 L 24.5 54 L 24.5 53 Z " /><path fill="rgb(179,183,202)" stroke="rgb(179,183,202)" stroke-width="1" opacity="1" d="M 44.5 53 Q 47 54 45.5 55 Q 43 54 44.5 53 Z " /><path fill="rgb(179,183,202)" stroke="rgb(179,183,202)" stroke-width="1" opacity="1" d="M 69.5 53 L 76 53.5 L 69.5 54 L 69.5 53 Z " /><path fill="rgb(179,183,202)" stroke="rgb(179,183,202)" stroke-width="1" opacity="1" d="M 98.5 53 L 103 53.5 L 98.5 54 L 98.5 53 Z " /><path fill="rgb(179,183,202)" stroke="rgb(179,183,202)" stroke-width="1" opacity="1" d="M 64.5 54 L 64.5 55 L 64.5 54 Z " /><path fill="rgb(179,183,202)" stroke="rgb(179,183,202)" stroke-width="1" opacity="1" d="M 79.5 54 L 79.5 55 L 79.5 54 Z " /><path fill="rgb(179,183,202)" stroke="rgb(179,183,202)" stroke-width="1" opacity="1" d="M 94.5 54 L 94.5 55 L 94.5 54 Z " /><path fill="rgb(179,183,202)" stroke="rgb(179,183,202)" stroke-width="1" opacity="1" d="M 21.5 55 L 21.5 56 L 21.5 55 Z " /><path fill="rgb(179,183,202)" stroke="rgb(179,183,202)" stroke-width="1" opacity="1" d="M 58.5 55 L 61 55.5 L 58.5 56 L 58.5 55 Z " /><path fill="rgb(179,183,202)" stroke="rgb(179,183,202)" stroke-width="1" opacity="1" d="M 82.5 55 L 82.5 56 L 82.5 55 Z " /><path fill="rgb(179,183,202)" stroke="rgb(179,183,202)" stroke-width="1" opacity="1" d="M 89.5 55 L 91 55.5 L 89.5 56 L 89.5 55 Z " /><path fill="rgb(179,183,202)" stroke="rgb(179,183,202)" stroke-width="1" opacity="1" d="M 107.5 55 Q 110 56 108.5 57 Q 106 56 107.5 55 Z " /><path fill="rgb(179,183,202)" stroke="rgb(179,183,202)" stroke-width="1" opacity="1" d="M 85.5 56 L 87 56.5 L 85.5 57 L 85.5 56 Z " /><path fill="rgb(179,183,202)" stroke="rgb(179,183,202)" stroke-width="1" opacity="1" d="M 21.5 57 L 25 60.5 L 25 63.5 L 24 63.5 L 24 60.5 L 21 57.5 L 21.5 57 Z " /><path fill="rgb(179,183,202)" stroke="rgb(179,183,202)" stroke-width="1" opacity="1" d="M 51.5 57 L 51.5 58 L 51.5 57 Z " /><path fill="rgb(179,183,202)" stroke="rgb(179,183,202)" stroke-width="1" opacity="1" d="M 40.5 59 L 40.5 60 L 40.5 59 Z " /><path fill="rgb(179,183,202)" stroke="rgb(179,183,202)" stroke-width="1" opacity="1" d="M 37.5 61 Q 39 62 36.5 63 Q 35 62 37.5 61 Z " /><path fill="rgb(179,183,202)" stroke="rgb(179,183,202)" stroke-width="1" opacity="1" d="M 50.5 61 L 50.5 62 L 50.5 61 Z " /><path fill="rgb(179,183,202)" stroke="rgb(179,183,202)" stroke-width="1" opacity="1" d="M 65.5 61 L 65.5 62 L 65.5 61 Z " /><path fill="rgb(179,183,202)" stroke="rgb(179,183,202)" stroke-width="1" opacity="1" d="M 88.5 61 L 88.5 62 L 88.5 61 Z " /><path fill="rgb(179,183,202)" stroke="rgb(179,183,202)" stroke-width="1" opacity="1" d="M 95.5 62 L 96 63.5 L 95 63.5 L 95.5 62 Z " /><path fill="rgb(179,183,202)" stroke="rgb(179,183,202)" stroke-width="1" opacity="1" d="M 108.5 62 L 109 63.5 L 108 63.5 L 108.5 62 Z " /><path fill="rgb(179,183,202)" stroke="rgb(179,183,202)" stroke-width="1" opacity="1" d="M 49.5 64 L 49.5 65 L 49.5 64 Z " /><path fill="rgb(179,183,202)" stroke="rgb(179,183,202)" stroke-width="1" opacity="1" d="M 85.5 64 L 85.5 65 L 85.5 64 Z " /><path fill="rgb(179,183,202)" stroke="rgb(179,183,202)" stroke-width="1" opacity="1" d="M 23.5 65 L 23.5 66 L 23.5 65 Z " /><path fill="rgb(179,183,202)" stroke="rgb(179,183,202)" stroke-width="1" opacity="1" d="M 61.5 65 L 61.5 66 L 61.5 65 Z " /><path fill="rgb(179,183,202)" stroke="rgb(179,183,202)" stroke-width="1" opacity="1" d="M 95.5 65 L 95.5 66 L 95.5 65 Z " /><path fill="rgb(179,183,202)" stroke="rgb(179,183,202)" stroke-width="1" opacity="1" d="M 48.5 66 L 48.5 67 L 48.5 66 Z " /><path fill="rgb(179,183,202)" stroke="rgb(179,183,202)" stroke-width="1" opacity="1" d="M 84.5 66 L 84.5 67 L 84.5 66 Z " /><path fill="rgb(179,183,202)" stroke="rgb(179,183,202)" stroke-width="1" opacity="1" d="M 34.5 67 L 35 68.5 L 34 68.5 L 34.5 67 Z " /><path fill="rgb(179,183,202)" stroke="rgb(179,183,202)" stroke-width="1" opacity="1" d="M 72.5 67 L 73 68.5 L 72 68.5 L 72.5 67 Z " /><path fill="rgb(179,183,202)" stroke="rgb(179,183,202)" stroke-width="1" opacity="1" d="M 47.5 68 L 47.5 69 L 47.5 68 Z " /><path fill="rgb(179,183,202)" stroke="rgb(179,183,202)" stroke-width="1" opacity="1" d="M 60.5 68 L 60.5 69 L 60.5 68 Z " /><path fill="rgb(179,183,202)" stroke="rgb(179,183,202)" stroke-width="1" opacity="1" d="M 94.5 68 L 94.5 69 L 94.5 68 Z " /><path fill="rgb(179,183,202)" stroke="rgb(179,183,202)" stroke-width="1" opacity="1" d="M 106.5 68 L 106.5 69 L 106.5 68 Z " /><path fill="rgb(179,183,202)" stroke="rgb(179,183,202)" stroke-width="1" opacity="1" d="M 83.5 69 L 83.5 70 L 83.5 69 Z " /><path fill="rgb(179,183,202)" stroke="rgb(179,183,202)" stroke-width="1" opacity="1" d="M 21.5 70 L 21.5 71 L 21.5 70 Z " /><path fill="rgb(179,183,202)" stroke="rgb(179,183,202)" stroke-width="1" opacity="1" d="M 46.5 70 L 46.5 71 L 46.5 70 Z " /><path fill="rgb(179,183,202)" stroke="rgb(179,183,202)" stroke-width="1" opacity="1" d="M 71.5 70 L 71.5 71 L 71.5 70 Z " /><path fill="rgb(179,183,202)" stroke="rgb(179,183,202)" stroke-width="1" opacity="1" d="M 33.5 71 L 33.5 72 L 33.5 71 Z " /><path fill="rgb(179,183,202)" stroke="rgb(179,183,202)" stroke-width="1" opacity="1" d="M 59.5 71 L 59.5 72 L 59.5 71 Z " /><path fill="rgb(179,183,202)" stroke="rgb(179,183,202)" stroke-width="1" opacity="1" d="M 93.5 71 L 94 72.5 L 93 72.5 L 93.5 71 Z " /><path fill="rgb(179,183,202)" stroke="rgb(179,183,202)" stroke-width="1" opacity="1" d="M 20.5 72 L 20.5 73 L 20.5 72 Z " /><path fill="rgb(179,183,202)" stroke="rgb(179,183,202)" stroke-width="1" opacity="1" d="M 82.5 72 L 83 73.5 L 82 73.5 L 82.5 72 Z " /><path fill="rgb(179,183,202)" stroke="rgb(179,183,202)" stroke-width="1" opacity="1" d="M 45.5 73 L 46 74.5 L 45 74.5 L 45.5 73 Z " /><path fill="rgb(179,183,202)" stroke="rgb(179,183,202)" stroke-width="1" opacity="1" d="M 58.5 73 L 58.5 74 L 58.5 73 Z " /><path fill="rgb(179,183,202)" stroke="rgb(179,183,202)" stroke-width="1" opacity="1" d="M 104.5 73 L 104.5 74 L 104.5 73 Z " /><path fill="rgb(179,183,202)" stroke="rgb(179,183,202)" stroke-width="1" opacity="1" d="M 19.5 74 L 19.5 75 L 19.5 74 Z " /><path fill="rgb(179,183,202)" stroke="rgb(179,183,202)" stroke-width="1" opacity="1" d="M 33.5 74 Q 36 75 34.5 76 Q 32 75 33.5 74 Z " /><path fill="rgb(179,183,202)" stroke="rgb(179,183,202)" stroke-width="1" opacity="1" d="M 92.5 74 L 92.5 75 L 92.5 74 Z " /><path fill="rgb(179,183,202)" stroke="rgb(179,183,202)" stroke-width="1" opacity="1" d="M 57.5 75 L 57.5 76 L 57.5 75 Z " /><path fill="rgb(179,183,202)" stroke="rgb(179,183,202)" stroke-width="1" opacity="1" d="M 69.5 75 L 69.5 76 L 69.5 75 Z " /><path fill="rgb(179,183,202)" stroke="rgb(179,183,202)" stroke-width="1" opacity="1" d="M 103.5 75 L 104 76.5 L 103 76.5 L 103.5 75 Z " /><path fill="rgb(179,183,202)" stroke="rgb(179,183,202)" stroke-width="1" opacity="1" d="M 91.5 76 L 91.5 77 L 91.5 76 Z " /><path fill="rgb(179,183,202)" stroke="rgb(179,183,202)" stroke-width="1" opacity="1" d="M 37.5 77 L 37.5 78 L 37.5 77 Z " /><path fill="rgb(179,183,202)" stroke="rgb(179,183,202)" stroke-width="1" opacity="1" d="M 44.5 77 L 44.5 78 L 44.5 77 Z " /><path fill="rgb(179,183,202)" stroke="rgb(179,183,202)" stroke-width="1" opacity="1" d="M 56.5 77 L 56 78.5 L 55.5 80 L 55 78.5 L 56.5 77 Z " /><path fill="rgb(179,183,202)" stroke="rgb(179,183,202)" stroke-width="1" opacity="1" d="M 68.5 77 L 68.5 78 L 68.5 77 Z " /><path fill="rgb(179,183,202)" stroke="rgb(179,183,202)" stroke-width="1" opacity="1" d="M 81.5 77 L 81.5 78 L 81.5 77 Z " /><path fill="rgb(179,183,202)" stroke="rgb(179,183,202)" stroke-width="1" opacity="1" d="M 37.5 79 L 37.5 80 L 37.5 79 Z " /><path fill="rgb(179,183,202)" stroke="rgb(179,183,202)" stroke-width="1" opacity="1" d="M 43.5 79 L 43.5 80 L 43.5 79 Z " /><path fill="rgb(179,183,202)" stroke="rgb(179,183,202)" stroke-width="1" opacity="1" d="M 80.5 79 L 80.5 80 L 80.5 79 Z " /><path fill="rgb(179,183,202)" stroke="rgb(179,183,202)" stroke-width="1" opacity="1" d="M 19.5 80 L 19.5 81 L 19.5 80 Z " /><path fill="rgb(179,183,202)" stroke="rgb(179,183,202)" stroke-width="1" opacity="1" d="M 43.5 81 L 43.5 82 L 43.5 81 Z " /><path fill="rgb(179,183,202)" stroke="rgb(179,183,202)" stroke-width="1" opacity="1" d="M 54.5 81 L 54.5 82 L 54.5 81 Z " /><path fill="rgb(179,183,202)" stroke="rgb(179,183,202)" stroke-width="1" opacity="1" d="M 79.5 81 L 79.5 82 L 79.5 81 Z " /><path fill="rgb(179,183,202)" stroke="rgb(179,183,202)" stroke-width="1" opacity="1" d="M 91.5 81 L 91.5 82 L 91.5 81 Z " /><path fill="rgb(179,183,202)" stroke="rgb(179,183,202)" stroke-width="1" opacity="1" d="M 23.5 82 L 34 82.5 L 23.5 83 L 23.5 82 Z " /><path fill="rgb(179,183,202)" stroke="rgb(179,183,202)" stroke-width="1" opacity="1" d="M 45.5 82 L 48 82.5 L 45.5 83 L 45.5 82 Z " /><path fill="rgb(179,183,202)" stroke="rgb(179,183,202)" stroke-width="1" opacity="1" d="M 49.5 82 L 52 82.5 L 49.5 83 L 49.5 82 Z " /><path fill="rgb(179,183,202)" stroke="rgb(179,183,202)" stroke-width="1" opacity="1" d="M 69.5 82 L 71 82.5 L 69.5 83 L 69.5 82 Z " /><path fill="rgb(179,183,202)" stroke="rgb(179,183,202)" stroke-width="1" opacity="1" d="M 74.5 82 L 77 82.5 L 74.5 83 L 74.5 82 Z " /><path fill="rgb(179,183,202)" stroke="rgb(179,183,202)" stroke-width="1" opacity="1" d="M 93.5 82 L 93.5 83 L 93.5 82 Z " /><path fill="rgb(179,183,202)" stroke="rgb(179,183,202)" stroke-width="1" opacity="1" d="M 98.5 82 L 98.5 83 L 98.5 82 Z " /><path fill="rgb(4,20,67)" stroke="rgb(4,20,67)" stroke-width="1" opacity="1" d="M 126 41 Q 129 39.75 128 43.5 L 121 49.5 Q 121.75 51.75 119.5 51 L 115 54.5 L 113.5 57 L 110.5 58 L 110 55.5 L 126 42.5 L 126 41 Z " /><path fill="rgb(4,20,67)" stroke="rgb(4,20,67)" stroke-width="1" opacity="1" d="M 91.5 71 L 93 71.5 L 89 76.5 L 89 78 L 86.5 78 L 83 81.5 Q 83.83 84.13 80.5 83 L 76.5 88 L 73 89 L 71.5 92 L 67 94 Q 68.13 96.67 65.5 96 L 57 103.5 Q 57.83 106.13 54.5 105 L 51 108.5 L 51 110 Q 47.17 109.25 46 112.5 Q 46.75 114.75 44.5 114 L 41 116.5 Q 41.75 118.75 39.5 118 L 29.5 127 L 25 128 Q 23.88 125.33 26.5 126 Q 27.5 123.5 30 124 L 31.5 121 L 38.5 115 L 41 115 L 41 113.5 L 44.5 110 L 57 100.5 Q 56.25 98.25 58.5 99 Q 59.5 96.5 62 97 L 63.5 94 L 67 93 Q 66.5 90.13 69.5 89 Q 72.5 89.5 73 87.5 L 75.5 84 L 81 82 L 81 80.5 L 86.5 75 L 91.5 71 Z " /><path fill="rgb(4,20,67)" stroke="rgb(4,20,67)" stroke-width="1" opacity="1" d="M 103.5 78 L 103.5 79 L 103.5 78 Z " /><path fill="rgb(4,19,63)" stroke="rgb(4,19,63)" stroke-width="1" opacity="1" d="M 127.5 56 L 128 59.5 L 121 65.5 Q 121.75 67.75 119.5 67 L 115 70.5 L 113.5 73 Q 110.5 72.5 110 74.5 L 108.5 77 L 105 78 L 103.5 81 L 103 79.5 L 106.5 73 L 127.5 56 Z " /><path fill="rgb(4,19,63)" stroke="rgb(4,19,63)" stroke-width="1" opacity="1" d="M 94.5 83 L 99 83 L 99 84.5 L 89 92.5 Q 89.83 95.13 86.5 94 L 83 97.5 L 83 99 Q 79.17 98.25 78 101.5 Q 78.75 103.75 76.5 103 Q 75.5 105.5 73 105 L 71.5 108 L 67 110 Q 68.13 112.67 65.5 112 L 57 119.5 Q 57.83 122.13 54.5 121 L 46.5 128 L 42.5 128 Q 41 127 43.5 126 L 49.5 121 L 51 121 Q 49.88 118.33 52.5 119 L 94.5 83 Z " /><path fill="rgb(49,61,109)" stroke="rgb(49,61,109)" stroke-width="1" opacity="1" d="M 28.5 50 L 28.5 51 L 28.5 50 Z " /><path fill="rgb(49,61,109)" stroke="rgb(49,61,109)" stroke-width="1" opacity="1" d="M 25.5 52 L 25.5 53 L 25.5 52 Z " /><path fill="rgb(49,61,109)" stroke="rgb(49,61,109)" stroke-width="1" opacity="1" d="M 43.5 52 L 43.5 53 L 43.5 52 Z " /><path fill="rgb(49,61,109)" stroke="rgb(49,61,109)" stroke-width="1" opacity="1" d="M 23.5 53 L 23.5 54 L 23.5 53 Z " /><path fill="rgb(49,61,109)" stroke="rgb(49,61,109)" stroke-width="1" opacity="1" d="M 45.5 53 L 45.5 54 L 45.5 53 Z " /><path fill="rgb(49,61,109)" stroke="rgb(49,61,109)" stroke-width="1" opacity="1" d="M 66.5 53 L 66.5 54 L 66.5 53 Z " /><path fill="rgb(49,61,109)" stroke="rgb(49,61,109)" stroke-width="1" opacity="1" d="M 96.5 53 L 96.5 54 L 96.5 53 Z " /><path fill="rgb(49,61,109)" stroke="rgb(49,61,109)" stroke-width="1" opacity="1" d="M 54.5 54 L 54.5 55 L 54.5 54 Z " /><path fill="rgb(49,61,109)" stroke="rgb(49,61,109)" stroke-width="1" opacity="1" d="M 62.5 54 L 62.5 55 L 62.5 54 Z " /><path fill="rgb(49,61,109)" stroke="rgb(49,61,109)" stroke-width="1" opacity="1" d="M 46.5 55 L 46.5 56 L 46.5 55 Z " /><path fill="rgb(49,61,109)" stroke="rgb(49,61,109)" stroke-width="1" opacity="1" d="M 51.5 56 L 51.5 57 L 51.5 56 Z " /><path fill="rgb(49,61,109)" stroke="rgb(49,61,109)" stroke-width="1" opacity="1" d="M 109.5 57 L 110 60.5 L 109 60.5 L 109.5 57 Z " /><path fill="rgb(49,61,109)" stroke="rgb(49,61,109)" stroke-width="1" opacity="1" d="M 23.5 60 L 23.5 61 L 23.5 60 Z " /><path fill="rgb(49,61,109)" stroke="rgb(49,61,109)" stroke-width="1" opacity="1" d="M 38.5 61 L 38.5 62 L 38.5 61 Z " /><path fill="rgb(49,61,109)" stroke="rgb(49,61,109)" stroke-width="1" opacity="1" d="M 67.5 61 L 69 61.5 L 67.5 62 L 67.5 61 Z " /><path fill="rgb(49,61,109)" stroke="rgb(49,61,109)" stroke-width="1" opacity="1" d="M 70.5 61 L 70.5 62 L 70.5 61 Z " /><path fill="rgb(49,61,109)" stroke="rgb(49,61,109)" stroke-width="1" opacity="1" d="M 90.5 61 L 93 61.5 L 90.5 62 L 90.5 61 Z " /><path fill="rgb(49,61,109)" stroke="rgb(49,61,109)" stroke-width="1" opacity="1" d="M 64.5 62 Q 66 63 63.5 64 Q 62 63 64.5 62 Z " /><path fill="rgb(49,61,109)" stroke="rgb(49,61,109)" stroke-width="1" opacity="1" d="M 87.5 62 L 87.5 63 L 87.5 62 Z " /><path fill="rgb(49,61,109)" stroke="rgb(49,61,109)" stroke-width="1" opacity="1" d="M 72.5 63 L 73 65.5 L 72 65.5 L 72.5 63 Z " /><path fill="rgb(49,61,109)" stroke="rgb(49,61,109)" stroke-width="1" opacity="1" d="M 48.5 65 L 48.5 66 L 48.5 65 Z " /><path fill="rgb(49,61,109)" stroke="rgb(49,61,109)" stroke-width="1" opacity="1" d="M 84.5 67 L 84.5 68 L 84.5 67 Z " /><path fill="rgb(49,61,109)" stroke="rgb(49,61,109)" stroke-width="1" opacity="1" d="M 46.5 69 L 46.5 70 L 46.5 69 Z " /><path fill="rgb(49,61,109)" stroke="rgb(49,61,109)" stroke-width="1" opacity="1" d="M 106.5 69 L 106.5 70 L 106.5 69 Z " /><path fill="rgb(49,61,109)" stroke="rgb(49,61,109)" stroke-width="1" opacity="1" d="M 34.5 70 L 34.5 71 L 34.5 70 Z " /><path fill="rgb(49,61,109)" stroke="rgb(49,61,109)" stroke-width="1" opacity="1" d="M 59.5 72 L 59.5 73 L 59.5 72 Z " /><path fill="rgb(49,61,109)" stroke="rgb(49,61,109)" stroke-width="1" opacity="1" d="M 58.5 74 L 58.5 75 L 58.5 74 Z " /><path fill="rgb(49,61,109)" stroke="rgb(49,61,109)" stroke-width="1" opacity="1" d="M 18.5 76 L 18.5 77 L 18.5 76 Z " /><path fill="rgb(49,61,109)" stroke="rgb(49,61,109)" stroke-width="1" opacity="1" d="M 44.5 76 L 44.5 77 L 44.5 76 Z " /><path fill="rgb(49,61,109)" stroke="rgb(49,61,109)" stroke-width="1" opacity="1" d="M 82.5 76 L 82.5 77 L 82.5 76 Z " /><path fill="rgb(49,61,109)" stroke="rgb(49,61,109)" stroke-width="1" opacity="1" d="M 18.5 79 L 18.5 80 L 18.5 79 Z " /><path fill="rgb(49,61,109)" stroke="rgb(49,61,109)" stroke-width="1" opacity="1" d="M 67.5 79 L 67.5 80 L 67.5 79 Z " /><path fill="rgb(49,61,109)" stroke="rgb(49,61,109)" stroke-width="1" opacity="1" d="M 90.5 79 L 90.5 80 L 90.5 79 Z " /><path fill="rgb(49,61,109)" stroke="rgb(49,61,109)" stroke-width="1" opacity="1" d="M 37.5 80 L 37.5 81 L 37.5 80 Z " /><path fill="rgb(49,61,109)" stroke="rgb(49,61,109)" stroke-width="1" opacity="1" d="M 55.5 80 L 55.5 81 L 55.5 80 Z " /><path fill="rgb(49,61,109)" stroke="rgb(49,61,109)" stroke-width="1" opacity="1" d="M 19.5 81 L 19.5 82 L 19.5 81 Z " /><path fill="rgb(49,61,109)" stroke="rgb(49,61,109)" stroke-width="1" opacity="1" d="M 53.5 82 L 53.5 83 L 53.5 82 Z " /><path fill="rgb(49,61,109)" stroke="rgb(49,61,109)" stroke-width="1" opacity="1" d="M 78.5 82 L 78.5 83 L 78.5 82 Z " /><path fill="rgb(5,20,73)" stroke="rgb(5,20,73)" stroke-width="1" opacity="1" d="M 127.5 22 L 128 30 L 126.5 30 L 115 39.5 Q 115.75 41.75 113.5 41 Q 112.5 43.5 110 43 L 108.5 46 L 105 47 Q 105.5 49.88 102.5 51 Q 99 50.5 98.5 53 L 95.5 53 L 91.5 55 L 89 55 Q 87.88 52.33 90.5 53 Q 91.5 50.5 94 51 Q 92.88 48.33 95.5 49 L 110 36.5 Q 109.17 33.88 112.5 35 Q 115.5 33.88 115 31 L 118.5 30 L 127.5 22 Z " /><path fill="rgb(5,20,73)" stroke="rgb(5,20,73)" stroke-width="1" opacity="1" d="M 109.5 56 L 109.5 57 L 109.5 56 Z " /><path fill="rgb(5,20,73)" stroke="rgb(5,20,73)" stroke-width="1" opacity="1" d="M 86.5 64 L 86.5 65 L 86.5 64 Z " /><path fill="rgb(5,20,73)" stroke="rgb(5,20,73)" stroke-width="1" opacity="1" d="M 85.5 66 L 85.5 67 L 85.5 66 Z " /><path fill="rgb(5,20,73)" stroke="rgb(5,20,73)" stroke-width="1" opacity="1" d="M 94.5 66 L 94.5 67 L 94.5 66 Z " /><path fill="rgb(5,20,73)" stroke="rgb(5,20,73)" stroke-width="1" opacity="1" d="M 84.5 68 L 84.5 69 L 84.5 68 Z " /><path fill="rgb(5,20,73)" stroke="rgb(5,20,73)" stroke-width="1" opacity="1" d="M 70.5 70 L 70 71.5 L 67 80.5 L 65.5 82 L 62 83 Q 62.5 85.88 59.5 87 L 46 97.5 Q 46.83 100.13 43.5 99 L 38.5 105 Q 35.5 104.5 35 106.5 L 33.5 109 L 30 110 L 28.5 113 L 14 124.5 Q 14.83 127.13 11.5 126 L 9.5 128 L 2.5 128 L 2 127.5 L 5.5 124 L 14 117.5 L 15.5 115 Q 18.5 115.5 19 113.5 L 21.5 110 Q 24.5 110.5 25 108.5 L 26.5 106 L 30 105 L 31.5 102 L 46 90.5 Q 45.17 87.88 48.5 89 L 52.5 84 L 57 81.5 Q 56.25 79.25 58.5 80 Q 59.5 77.5 62 78 L 63.5 75 L 70.5 70 Z " /><path fill="rgb(5,20,73)" stroke="rgb(5,20,73)" stroke-width="1" opacity="1" d="M 102.5 80 L 102.5 81 L 102.5 80 Z " /><path fill="rgb(4,20,68)" stroke="rgb(4,20,68)" stroke-width="1" opacity="1" d="M 126 38 Q 129.33 36.88 128 41 Q 125.33 39.88 126 42.5 L 109.5 56 Q 106.25 54.25 110 52.5 Q 109.17 49.88 112.5 51 Q 115.5 49.88 115 47 L 118.5 46 L 126 39.5 L 126 38 Z " /><path fill="rgb(4,20,68)" stroke="rgb(4,20,68)" stroke-width="1" opacity="1" d="M 94.5 65 L 94.5 66 L 94.5 65 Z " /><path fill="rgb(4,20,68)" stroke="rgb(4,20,68)" stroke-width="1" opacity="1" d="M 92.5 67 Q 94.75 66.25 94 68.5 L 93 71 L 91.5 71 L 82.5 79 L 83 77.5 Q 82.25 73.75 84.5 73 Q 88.5 73.5 89 70.5 Q 88.25 68.25 90.5 69 L 92.5 67 Z " /><path fill="rgb(4,20,68)" stroke="rgb(4,20,68)" stroke-width="1" opacity="1" d="M 73.5 83 L 77 83.5 L 73 86.5 L 71.5 89 Q 67.5 88.5 67 91.5 Q 67.75 93.75 65.5 93 L 62 95.5 Q 62.75 97.75 60.5 97 Q 59.5 99.5 57 99 L 55.5 102 L 41 113.5 Q 41.83 116.13 38.5 115 L 30 122.5 Q 30.75 124.75 28.5 124 Q 27.5 126.5 25 126 Q 26.35 129.67 20.5 128 Q 19 127 21.5 126 Q 24.5 126.5 25 124.5 L 27.5 121 Q 30.83 122.13 30 119.5 L 46 106.5 Q 45.17 103.88 48.5 105 L 53.5 99 Q 56.5 99.5 57 97.5 L 58.5 95 L 62 94 L 63.5 91 L 73.5 83 Z " /><path fill="rgb(4,19,65)" stroke="rgb(4,19,65)" stroke-width="1" opacity="1" d="M 127.5 47 L 128 50.5 Q 125.5 51.5 126 54 L 124.5 54 L 108.5 67 L 109 65.5 Q 108.5 61.5 111.5 61 L 115 58.5 Q 114.17 55.88 117.5 57 L 121 53.5 L 121 52 L 126 49.5 L 127.5 47 Z " /><path fill="rgb(4,19,65)" stroke="rgb(4,19,65)" stroke-width="1" opacity="1" d="M 89.5 79 L 91 83 L 89.5 83 L 39.5 126 L 36.5 128 L 32.5 128 Q 31 127 33.5 126 L 46 116.5 Q 45.25 114.25 47.5 115 L 51 112.5 L 52.5 110 L 57 107.5 L 58.5 105 Q 61.5 105.5 62 103.5 L 64.5 100 L 83 85.5 L 84.5 83 Q 88.5 83.5 89 80.5 L 89.5 79 Z " /><path fill="rgb(4,19,62)" stroke="rgb(4,19,62)" stroke-width="1" opacity="1" d="M 127.5 60 L 128 64.5 L 121 70.5 L 119.5 73 Q 115.5 72.5 115 75.5 L 113.5 78 Q 110.5 77.5 110 79.5 L 107.5 83 Q 104.17 81.88 105 84.5 L 89 97.5 Q 89.83 100.13 86.5 99 L 81.5 105 Q 78.5 104.5 78 106.5 L 76.5 109 L 73 110 L 71.5 113 L 67 115 Q 68.13 117.67 65.5 117 L 57 124.5 Q 57.83 127.13 54.5 126 Q 53.25 129.25 47.5 128 Q 46 127 48.5 126 L 54.5 121 L 57 121 L 57 119.5 L 60.5 116 L 65.5 112 L 67 112 Q 65.88 109.33 68.5 110 L 73 106.5 Q 72.25 104.25 74.5 105 Q 75.5 102.5 78 103 Q 77.5 100.13 80.5 99 Q 83.83 100.13 83 97.5 L 86.5 94 L 89 94 Q 88.5 91.13 91.5 90 L 99 84.5 Q 98.25 82.25 100.5 83 L 105 79.5 Q 104.25 77.25 106.5 78 L 110 75.5 L 111.5 73 Q 114.5 73.5 115 71.5 L 117.5 68 L 121 67 L 122.5 64 L 127.5 60 Z " /><path fill="rgb(3,19,60)" stroke="rgb(3,19,60)" stroke-width="1" opacity="1" d="M 127.5 68 L 128 78 Q 125.33 76.88 126 79.5 L 111.5 92 L 110 92 Q 111.13 94.67 108.5 94 Q 107.5 96.5 105 96 L 103.5 99 L 99 101.5 L 96.5 105 Q 93.17 103.88 94 106.5 L 78 119.5 Q 78.75 121.75 76.5 121 L 73 123.5 L 71.5 126 Q 68 125.5 67.5 128 L 57.5 128 Q 56 127 58.5 126 L 62 123.5 Q 61.25 121.25 63.5 122 L 67 119.5 Q 66.25 117.25 68.5 118 L 127.5 68 Z " /><path fill="rgb(8,21,98)" stroke="rgb(8,21,98)" stroke-width="1" opacity="1" d="M 103.5 0 L 105 0.5 L 99 4.5 Q 99.75 6.75 97.5 6 L 82.5 19 L 83 17.5 L 84.5 15 L 89 12.5 Q 88.25 10.25 90.5 11 Q 91.5 8.5 94 9 Q 92.88 6.33 95.5 7 L 103.5 0 Z " /><path fill="rgb(8,21,98)" stroke="rgb(8,21,98)" stroke-width="1" opacity="1" d="M 79.5 19 L 81 19.5 Q 77.5 20.75 78 24 L 73 26.5 Q 73.75 28.75 71.5 28 L 67 31.5 Q 67.75 33.75 65.5 33 Q 64.5 35.5 62 35 Q 63.13 37.67 60.5 37 L 56.5 41 L 56 40.5 L 58.5 37 L 78 21.5 L 79.5 19 Z " /><path fill="rgb(8,21,98)" stroke="rgb(8,21,98)" stroke-width="1" opacity="1" d="M 53.5 41 L 55 41.5 L 50.5 46 L 50 45.5 L 53.5 41 Z " /><path fill="rgb(8,21,98)" stroke="rgb(8,21,98)" stroke-width="1" opacity="1" d="M 47.5 46 L 49 46.5 Q 45.5 47.75 46 51 L 44 50.5 L 47.5 46 Z " /><path fill="rgb(8,21,98)" stroke="rgb(8,21,98)" stroke-width="1" opacity="1" d="M 20.5 69 L 21 70.5 L 18.5 73 L 18 72.5 L 20.5 69 Z " /><path fill="rgb(8,21,98)" stroke="rgb(8,21,98)" stroke-width="1" opacity="1" d="M 15.5 73 L 17 73.5 L 0.5 88 L 0 86 L 3 84.5 Q 2.25 82.25 4.5 83 L 9 79.5 Q 8.25 77.25 10.5 78 L 14 75.5 L 15.5 73 Z " /><path fill="rgb(6,21,84)" stroke="rgb(6,21,84)" stroke-width="1" opacity="1" d="M 126.5 2 L 128 2.5 L 102.5 25 L 99 26 Q 99.5 28.88 96.5 30 Q 93.17 28.88 94 31.5 L 79.5 44 L 78 44 Q 79.13 46.67 76.5 46 Q 75.5 48.5 73 48 L 71.5 51 L 67.5 53 L 67 51 L 69.5 51 L 73 47.5 Q 72.17 44.88 75.5 46 L 79.5 41 Q 82.5 41.5 83 39.5 L 84.5 37 L 89 35 Q 87.88 32.33 90.5 33 L 105 20.5 Q 104.17 17.88 107.5 19 Q 110.5 17.88 110 15 L 115 12.5 Q 114.25 10.25 116.5 11 L 121 7.5 Q 120.25 5.25 122.5 6 L 126.5 2 Z " /><path fill="rgb(6,21,84)" stroke="rgb(6,21,84)" stroke-width="1" opacity="1" d="M 44.5 72 L 45 72.5 L 42.5 75 Q 40.25 74.25 41 76.5 L 38.5 78 L 38 77.5 L 41 74.5 Q 40.17 71.88 43.5 73 L 44.5 72 Z " /><path fill="rgb(6,21,84)" stroke="rgb(6,21,84)" stroke-width="1" opacity="1" d="M 30.5 83 L 30 84.5 L 27.5 88 L 9 102.5 L 7.5 105 Q 3.5 104.5 3 107.5 L 1.5 110 Q -0.75 110.75 0 108.5 L 3 107 Q 1.87 104.33 4.5 105 L 9 101.5 L 10.5 99 Q 13.5 99.5 14 97.5 L 16.5 94 Q 19.83 95.13 19 92.5 Q 21 89.25 25 89 Q 24.5 86.13 27.5 85 L 30.5 83 Z " /><path fill="rgb(3,19,57)" stroke="rgb(3,19,57)" stroke-width="1" opacity="1" d="M 127.5 101 L 128 128 L 96 127.5 L 110 116.5 Q 109.25 114.25 111.5 115 L 115 112.5 L 116.5 110 L 121 107.5 L 122.5 105 Q 125.5 105.5 126 103.5 L 127.5 101 Z " /><path fill="rgb(3,19,58)" stroke="rgb(3,19,58)" stroke-width="1" opacity="1" d="M 127.5 87 L 128 100.5 L 124.5 105 Q 121.5 104.5 121 106.5 L 119.5 109 L 115 111.5 L 113.5 114 L 110 115 L 108.5 118 L 95.5 128 L 79.5 128 Q 78 127 80.5 126 Q 83.83 127.13 83 124.5 L 86.5 121 L 89 121 Q 88.5 118.12 91.5 117 L 97.5 112 L 99 112 Q 97.88 109.33 100.5 110 L 105 106.5 Q 104.25 104.25 106.5 105 L 110 102.5 L 112.5 99 Q 115.83 100.13 115 97.5 Q 117 94.25 121 94 Q 120.5 91.13 123.5 90 L 127.5 87 Z " /><path fill="rgb(6,20,81)" stroke="rgb(6,20,81)" stroke-width="1" opacity="1" d="M 127.5 5 L 128 10.5 L 86.5 46 L 83 47 Q 83.5 49.88 80.5 51 L 78 51 L 77.5 53 L 72.5 53 L 72 52.5 L 75.5 49 L 78 47.5 Q 77.25 45.25 79.5 46 Q 80.5 43.5 83 44 L 84.5 41 L 89 38.5 L 91.5 35 Q 94.83 36.13 94 33.5 L 110 20.5 Q 109.25 18.25 111.5 19 L 115 16.5 L 116.5 14 Q 120.5 14.5 121 11.5 L 122.5 9 Q 125.5 9.5 126 7.5 L 127.5 5 Z " /><path fill="rgb(6,20,81)" stroke="rgb(6,20,81)" stroke-width="1" opacity="1" d="M 65.5 62 L 66 62.5 L 62.5 66 L 62 65.5 L 65.5 62 Z " /><path fill="rgb(6,20,81)" stroke="rgb(6,20,81)" stroke-width="1" opacity="1" d="M 44.5 75 L 45 75.5 L 43 77.5 L 43 82.5 L 41.5 83 L 30 92.5 Q 30.75 94.75 28.5 94 Q 27.5 96.5 25 96 L 23.5 99 L 19 101.5 L 16.5 105 Q 13.17 103.88 14 106.5 L 0.5 118 L 0 112.5 L 21.5 94 L 25 93 Q 24.5 90.13 27.5 89 Q 30.83 90.13 30 87.5 L 44.5 75 Z " /><path fill="rgb(5,20,71)" stroke="rgb(5,20,71)" stroke-width="1" opacity="1" d="M 126.5 30 Q 128.75 29.25 128 31.5 L 105.5 51 L 102.5 53 L 99.5 53 Q 98 52 100.5 51 Q 104.5 51.5 105 48.5 Q 104.25 46.25 106.5 47 L 110 44.5 Q 109.25 42.25 111.5 43 Q 112.5 40.5 115 41 L 116.5 38 L 126.5 30 Z " /><path fill="rgb(5,20,71)" stroke="rgb(5,20,71)" stroke-width="1" opacity="1" d="M 88.5 62 L 91 62.5 L 86.5 67 L 86 66.5 L 88.5 62 Z " /><path fill="rgb(5,20,71)" stroke="rgb(5,20,71)" stroke-width="1" opacity="1" d="M 107.5 67 L 107.5 68 L 107.5 67 Z " /><path fill="rgb(5,20,71)" stroke="rgb(5,20,71)" stroke-width="1" opacity="1" d="M 82.5 77 L 82.5 78 L 82.5 77 Z " /><path fill="rgb(5,20,71)" stroke="rgb(5,20,71)" stroke-width="1" opacity="1" d="M 66.5 81 Q 69 82 67.5 83 L 63.5 86 L 62 86 L 60.5 89 L 57 90 Q 57.5 92.87 54.5 94 Q 51.5 93.5 51 95.5 L 48.5 99 Q 45.17 97.88 46 100.5 L 30 113.5 Q 30.75 115.75 28.5 115 L 25 117.5 L 22.5 121 Q 19.5 120.5 19 122.5 L 16.5 126 Q 12.75 125 14 128 L 10.5 128 Q 9 127 11.5 126 Q 14.83 127.13 14 124.5 L 30 111.5 Q 29.25 109.25 31.5 110 L 35 107.5 L 36.5 105 Q 40.5 105.5 41 102.5 L 43.5 99 Q 46.83 100.13 46 97.5 L 62 84.5 Q 61.25 82.25 63.5 83 L 66.5 81 Z " /><path fill="rgb(6,20,79)" stroke="rgb(6,20,79)" stroke-width="1" opacity="1" d="M 127.5 11 L 128 14.5 L 104.5 35 L 100.5 38 L 99 38 L 97.5 41 L 94 42 Q 94.5 44.88 91.5 46 L 85.5 51 L 83 51 L 81.5 54 Q 78.5 54.5 78 52.5 Q 77.17 49.88 80.5 51 Q 83.5 49.88 83 47 L 86.5 46 L 127.5 11 Z " /><path fill="rgb(6,20,79)" stroke="rgb(6,20,79)" stroke-width="1" opacity="1" d="M 66.5 62 L 71 62.5 L 67 65.5 Q 67.75 67.75 65.5 67 Q 64.5 69.5 62 69 L 60.5 72 L 61 70.5 Q 61.65 64.15 66.5 62 Z " /><path fill="rgb(6,20,79)" stroke="rgb(6,20,79)" stroke-width="1" opacity="1" d="M 41.5 83 L 46 83.5 L 41 87.5 Q 41.75 89.75 39.5 89 L 35 92.5 Q 35.75 94.75 33.5 94 L 30 96.5 L 28.5 99 Q 25.5 98.5 25 100.5 L 22.5 104 L 19 105 Q 19.5 107.88 16.5 109 L 3 119.5 L 3 121 L 0 121 L 0 118.5 L 5.5 113 L 14 106.5 Q 13.17 103.88 16.5 105 L 20.5 100 L 25 97.5 Q 24.25 95.25 26.5 96 Q 27.5 93.5 30 94 L 31.5 91 L 41.5 83 Z " /><path fill="rgb(5,20,75)" stroke="rgb(5,20,75)" stroke-width="1" opacity="1" d="M 127.5 19 L 128 21.5 L 118.5 30 L 115 31 Q 115.5 33.88 112.5 35 Q 109.17 33.88 110 36.5 L 95.5 49 L 94 49 Q 95.13 51.67 92.5 51 Q 91.5 53.5 89 53 Q 90.25 56 86.5 55 L 86 54.5 L 89.5 51 L 102.5 41 L 127.5 19 Z " /><path fill="rgb(5,20,75)" stroke="rgb(5,20,75)" stroke-width="1" opacity="1" d="M 94.5 62 L 94.5 63 L 94.5 62 Z " /><path fill="rgb(5,20,75)" stroke="rgb(5,20,75)" stroke-width="1" opacity="1" d="M 70.5 67 L 71 69.5 L 62 76.5 Q 62.75 78.75 60.5 78 Q 59.5 80.5 57 80 L 55.5 83 L 51 85.5 L 48.5 89 Q 45.17 87.88 46 90.5 L 30 103.5 Q 30.75 105.75 28.5 105 L 25 107.5 L 23.5 110 Q 19.5 109.5 19 112.5 L 17.5 115 Q 14.5 114.5 14 116.5 L 11.5 120 L 1.5 128 L 0 128 Q -1.13 125.33 1.5 126 L 4.5 122 L 9 119.5 Q 8.25 117.25 10.5 118 L 30 101.5 Q 29.25 99.25 31.5 100 L 35 97.5 Q 34.25 95.25 36.5 96 L 44.5 89 L 46 89 Q 44.88 86.33 47.5 87 L 51.5 83 L 56 82 L 57 78 L 58.5 78 L 70.5 67 Z " /><path fill="rgb(5,20,75)" stroke="rgb(5,20,75)" stroke-width="1" opacity="1" d="M 105.5 72 L 105.5 73 L 105.5 72 Z " /><path fill="rgb(4,20,66)" stroke="rgb(4,20,66)" stroke-width="1" opacity="1" d="M 127.5 44 L 128 46.5 L 124.5 51 L 121 52 L 121 53.5 L 117.5 57 Q 114.17 55.88 115 58.5 L 109.5 63 L 110 61.5 Q 109.25 57.75 111.5 57 Q 114.5 57.5 115 55.5 L 117.5 52 L 121 51 L 122.5 48 L 127.5 44 Z " /><path fill="rgb(4,20,66)" stroke="rgb(4,20,66)" stroke-width="1" opacity="1" d="M 90.5 75 L 91 76.5 L 86.5 83 Q 83.5 82.5 83 84.5 L 81.5 87 L 62 102.5 L 60.5 105 Q 57.5 104.5 57 106.5 L 55.5 109 L 51 111.5 L 49.5 114 L 46 115 L 44.5 118 L 31.5 128 L 28.5 128 L 28.5 127 L 39.5 118 L 41 118 L 42.5 115 L 46 114 Q 45.5 111.13 48.5 110 Q 51.83 111.13 51 108.5 L 54.5 105 L 57 105 L 57 103.5 L 60.5 100 L 65.5 96 L 67 96 Q 65.88 93.33 68.5 94 L 73 90.5 Q 72.25 88.25 74.5 89 L 78 86.5 L 80.5 83 Q 83.83 84.13 83 81.5 L 86.5 78 L 89 78 L 90.5 75 Z " /><path fill="rgb(4,20,66)" stroke="rgb(4,20,66)" stroke-width="1" opacity="1" d="M 91.5 82 L 91.5 83 L 91.5 82 Z " /><path fill="rgb(4,19,64)" stroke="rgb(4,19,64)" stroke-width="1" opacity="1" d="M 127.5 51 L 128 55.5 L 105.5 74 L 106 72.5 L 106 70.5 L 108.5 67 L 124.5 54 L 126 54 L 127.5 51 Z " /><path fill="rgb(4,19,64)" stroke="rgb(4,19,64)" stroke-width="1" opacity="1" d="M 89.5 83 L 94 83.5 L 57.5 115 L 52.5 119 L 51 119 Q 52.12 121.67 49.5 121 L 41.5 128 L 37.5 128 Q 36 127 38.5 126 L 83.5 89 L 89.5 83 Z " /><path fill="rgb(4,19,61)" stroke="rgb(4,19,61)" stroke-width="1" opacity="1" d="M 127.5 65 L 128 67.5 L 72.5 115 L 68.5 118 L 67 118 L 65.5 121 L 62 122 Q 62.5 124.88 59.5 126 L 56.5 128 L 53.5 128 Q 52 127 54.5 126 Q 57.83 127.13 57 124.5 L 65.5 117 L 67 117 Q 65.88 114.33 68.5 115 L 73 111.5 Q 72.25 109.25 74.5 110 L 78 107.5 L 79.5 105 Q 82.5 105.5 83 103.5 L 86.5 99 Q 89.83 100.13 89 97.5 L 105 84.5 Q 104.17 81.88 107.5 83 L 111.5 78 Q 114.5 78.5 115 76.5 L 117.5 73 Q 120.5 73.5 121 71.5 L 122.5 69 L 127.5 65 Z " /><path fill="rgb(3,19,59)" stroke="rgb(3,19,59)" stroke-width="1" opacity="1" d="M 126 78 L 128 78.5 L 128 86.5 L 121 92.5 Q 121.75 94.75 119.5 94 L 115 97.5 Q 115.83 100.13 112.5 99 L 108.5 104 L 105 105 L 103.5 108 L 99 110 Q 100.13 112.67 97.5 112 L 89 119.5 Q 89.83 122.13 86.5 121 L 83 124.5 L 83 126 Q 79.58 125.25 78.5 128 L 68.5 128 Q 67 127 69.5 126 Q 72.5 126.5 73 124.5 L 74.5 122 L 78 121 L 79.5 118 L 94 106.5 Q 93.17 103.88 96.5 105 L 100.5 100 L 105 97.5 Q 104.25 95.25 106.5 96 Q 107.5 93.5 110 94 Q 108.87 91.33 111.5 92 L 126 79.5 L 126 78 Z " /></svg>