<svg width="16" height="16" version="1.1" xmlns="http://www.w3.org/2000/svg" desc="Created with imagetracer.js version 1.2.6" ><path fill="rgb(0,0,0)" stroke="rgb(0,0,0)" stroke-width="1" opacity="0" d="M 0 0 L 7 0.5 L 0 4 L 0 0 Z " /><path fill="rgb(0,0,0)" stroke="rgb(0,0,0)" stroke-width="1" opacity="0" d="M 9.5 0 L 16 0 L 16 4 L 9.5 1 L 9.5 0 Z " /><path fill="rgb(0,0,0)" stroke="rgb(0,0,0)" stroke-width="1" opacity="0" d="M 0.5 6 L 1 13.5 L 0 13.5 L 0.5 6 Z " /><path fill="rgb(0,0,0)" stroke="rgb(0,0,0)" stroke-width="1" opacity="0" d="M 15.5 6 L 16 13.5 L 15 13.5 L 15.5 6 Z " /><path fill="rgb(13,113,148)" stroke="rgb(13,113,148)" stroke-width="1" opacity="1" d="M 7.5 0 L 16 4 Q 14.12 6.69 15 13.5 L 16 16 L 0.5 16 L 0 14.5 L 1 13.5 L 1 6.5 L 0 4 Q 4.52 3.37 7.5 0 Z M 9 2 Q 4 3 5 9 L 9 10 L 9 11 L 7 10 L 5 13 L 9 15 Q 11 16 10 13 L 12 13 L 12 8 L 11 8 L 10 8 L 12 6 L 9 2 Z " /><path fill="rgb(89,157,181)" stroke="rgb(89,157,181)" stroke-width="1" opacity="1" d="M 8.5 2 Q 11 3 9.5 4 Q 7 3 8.5 2 Z " /><path fill="rgb(89,157,181)" stroke="rgb(89,157,181)" stroke-width="1" opacity="1" d="M 6.5 4 Q 8 5 5.5 6 Q 4 5 6.5 4 Z " /><path fill="rgb(89,157,181)" stroke="rgb(89,157,181)" stroke-width="1" opacity="1" d="M 8.5 6 L 11 6.5 L 9.5 8 Q 7 7 8.5 6 Z " /><path fill="rgb(89,157,181)" stroke="rgb(89,157,181)" stroke-width="1" opacity="1" d="M 6.5 10 L 6.5 11 L 6.5 10 Z " /><path fill="rgb(89,157,181)" stroke="rgb(89,157,181)" stroke-width="1" opacity="1" d="M 9.5 13 L 9.5 14 L 9.5 13 Z " /><path fill="rgb(195,220,229)" stroke="rgb(195,220,229)" stroke-width="1" opacity="1" d="M 7.5 4 L 7.5 5 L 7.5 4 Z " /><path fill="rgb(195,220,229)" stroke="rgb(195,220,229)" stroke-width="1" opacity="1" d="M 9.5 10 L 9.5 11 L 9.5 10 Z " /><path fill="rgb(195,220,229)" stroke="rgb(195,220,229)" stroke-width="1" opacity="1" d="M 11.5 10 L 11.5 11 L 11.5 10 Z " /><path fill="rgb(195,220,229)" stroke="rgb(195,220,229)" stroke-width="1" opacity="1" d="M 10.5 12 L 10.5 13 L 10.5 12 Z " /><path fill="rgb(255,255,255)" stroke="rgb(255,255,255)" stroke-width="1" opacity="1" d="M 8.5 3 L 9 5 L 11 5.5 L 7 6.5 L 11 9.5 Q 11.5 13.5 8.5 14 L 6 11.5 L 6.5 11 L 8.5 12 Q 11.5 10.5 8.5 9 L 6 7.5 L 6 5 Q 8.75 6 8.5 3 Z " /><path fill="rgb(165,202,215)" stroke="rgb(165,202,215)" stroke-width="1" opacity="1" d="M 10.5 4 L 10.5 5 L 10.5 4 Z " /><path fill="rgb(165,202,215)" stroke="rgb(165,202,215)" stroke-width="1" opacity="1" d="M 11.5 9 L 11.5 10 L 11.5 9 Z " /><path fill="rgb(180,211,222)" stroke="rgb(180,211,222)" stroke-width="1" opacity="1" d="M 8.5 7 L 8.5 8 L 8.5 7 Z " /><path fill="rgb(124,178,197)" stroke="rgb(124,178,197)" stroke-width="1" opacity="1" d="M 7.5 9 L 7.5 10 L 7.5 9 Z " /><path fill="rgb(124,178,197)" stroke="rgb(124,178,197)" stroke-width="1" opacity="1" d="M 11.5 11 L 11.5 12 L 11.5 11 Z " /><path fill="rgb(124,178,197)" stroke="rgb(124,178,197)" stroke-width="1" opacity="1" d="M 7.5 13 L 7.5 14 L 7.5 13 Z " /><path fill="rgb(210,229,235)" stroke="rgb(210,229,235)" stroke-width="1" opacity="1" d="M 8.5 9 L 8.5 10 L 8.5 9 Z " /><path fill="rgb(210,229,235)" stroke="rgb(210,229,235)" stroke-width="1" opacity="1" d="M 8.5 11 L 8.5 12 L 8.5 11 Z " /><path fill="rgb(150,193,208)" stroke="rgb(150,193,208)" stroke-width="1" opacity="1" d="M 5.5 6 L 6 7.5 L 5 7.5 L 5.5 6 Z " /><path fill="rgb(150,193,208)" stroke="rgb(150,193,208)" stroke-width="1" opacity="1" d="M 5.5 11 L 5.5 12 L 5.5 11 Z " /><path fill="rgb(241,247,249)" stroke="rgb(241,247,249)" stroke-width="1" opacity="1" d="M 9.5 4 L 9.5 5 L 9.5 4 Z " /><path fill="rgb(241,247,249)" stroke="rgb(241,247,249)" stroke-width="1" opacity="1" d="M 7.5 6 L 7.5 7 L 7.5 6 Z " /><path fill="rgb(241,247,249)" stroke="rgb(241,247,249)" stroke-width="1" opacity="1" d="M 6.5 8 L 6.5 9 L 6.5 8 Z " /><path fill="rgb(241,247,249)" stroke="rgb(241,247,249)" stroke-width="1" opacity="1" d="M 7.5 11 Q 9 12 6.5 13 Q 5 12 7.5 11 Z " /><path fill="rgb(55,137,166)" stroke="rgb(55,137,166)" stroke-width="1" opacity="1" d="M 7.5 3 L 7.5 4 L 7.5 3 Z " /><path fill="rgb(55,137,166)" stroke="rgb(55,137,166)" stroke-width="1" opacity="1" d="M 11.5 5 L 11.5 6 L 11.5 5 Z " /><path fill="rgb(55,137,166)" stroke="rgb(55,137,166)" stroke-width="1" opacity="1" d="M 5.5 8 L 5.5 9 L 5.5 8 Z " /><path fill="rgb(55,137,166)" stroke="rgb(55,137,166)" stroke-width="1" opacity="1" d="M 11.5 8 L 11.5 9 L 11.5 8 Z " /><path fill="rgb(55,137,166)" stroke="rgb(55,137,166)" stroke-width="1" opacity="1" d="M 5.5 12 Q 8 13 6.5 14 Q 4 13 5.5 12 Z " /><path fill="rgb(55,137,166)" stroke="rgb(55,137,166)" stroke-width="1" opacity="1" d="M 11.5 12 L 11.5 13 L 11.5 12 Z " /><path fill="rgb(55,137,166)" stroke="rgb(55,137,166)" stroke-width="1" opacity="1" d="M 9.5 14 L 9.5 15 L 9.5 14 Z " /><path fill="rgb(226,238,242)" stroke="rgb(226,238,242)" stroke-width="1" opacity="1" d="M 10.5 8 L 10.5 9 L 10.5 8 Z " /><path fill="rgb(226,238,242)" stroke="rgb(226,238,242)" stroke-width="1" opacity="1" d="M 8.5 14 L 8.5 15 L 8.5 14 Z " /></svg>