<svg width="16" height="16" version="1.1" xmlns="http://www.w3.org/2000/svg" desc="Created with imagetracer.js version 1.2.6" ><path fill="rgb(105,11,42)" stroke="rgb(105,11,42)" stroke-width="1" opacity="1" d="M 0 0 L 16 0 L 16 16 L 0 16 L 0 0 Z M 2 1 L 1 4 L 2 7 L 5 8 L 6 8 L 3 9 L 4 12 L 4 15 L 8 15 L 9 13 L 9 15 L 12 15 L 12 14 Q 14 13 12 12 L 15 8 L 15 4 L 12 1 L 9 1 Q 8 3 7 1 L 5 2 L 2 1 Z " /><path fill="rgb(105,11,42)" stroke="rgb(105,11,42)" stroke-width="1" opacity="1" d="M 7.5 8 L 7.5 9 L 7.5 8 Z " /><path fill="rgb(105,11,42)" stroke="rgb(105,11,42)" stroke-width="1" opacity="1" d="M 8.5 11 L 8.5 12 L 8.5 11 Z " /><path fill="rgb(115,28,56)" stroke="rgb(115,28,56)" stroke-width="1" opacity="1" d="M 3.5 2 L 3.5 3 L 3.5 2 Z " /><path fill="rgb(115,28,56)" stroke="rgb(115,28,56)" stroke-width="1" opacity="1" d="M 5.5 2 L 5.5 3 L 5.5 2 Z " /><path fill="rgb(115,28,56)" stroke="rgb(115,28,56)" stroke-width="1" opacity="1" d="M 8.5 2 L 8.5 3 L 8.5 2 Z " /><path fill="rgb(115,28,56)" stroke="rgb(115,28,56)" stroke-width="1" opacity="1" d="M 11.5 2 L 11.5 3 L 11.5 2 Z " /><path fill="rgb(115,28,56)" stroke="rgb(115,28,56)" stroke-width="1" opacity="1" d="M 5.5 6 L 5.5 7 L 5.5 6 Z " /><path fill="rgb(115,28,56)" stroke="rgb(115,28,56)" stroke-width="1" opacity="1" d="M 9.5 6 L 9.5 7 L 9.5 6 Z " /><path fill="rgb(115,28,56)" stroke="rgb(115,28,56)" stroke-width="1" opacity="1" d="M 5.5 8 L 5.5 9 L 5.5 8 Z " /><path fill="rgb(115,28,56)" stroke="rgb(115,28,56)" stroke-width="1" opacity="1" d="M 4.5 13 L 4.5 14 L 4.5 13 Z " /><path fill="rgb(115,28,56)" stroke="rgb(115,28,56)" stroke-width="1" opacity="1" d="M 11.5 13 L 11.5 14 L 11.5 13 Z " /><path fill="rgb(111,21,50)" stroke="rgb(111,21,50)" stroke-width="1" opacity="1" d="M 2.5 2 L 2.5 3 L 2.5 2 Z " /><path fill="rgb(111,21,50)" stroke="rgb(111,21,50)" stroke-width="1" opacity="1" d="M 4.5 2 L 4.5 3 L 4.5 2 Z " /><path fill="rgb(111,21,50)" stroke="rgb(111,21,50)" stroke-width="1" opacity="1" d="M 7.5 2 L 7.5 3 L 7.5 2 Z " /><path fill="rgb(111,21,50)" stroke="rgb(111,21,50)" stroke-width="1" opacity="1" d="M 12.5 2 L 12.5 3 L 12.5 2 Z " /><path fill="rgb(111,21,50)" stroke="rgb(111,21,50)" stroke-width="1" opacity="1" d="M 2.5 4 L 2.5 5 L 2.5 4 Z " /><path fill="rgb(111,21,50)" stroke="rgb(111,21,50)" stroke-width="1" opacity="1" d="M 3.5 7 L 3.5 8 L 3.5 7 Z " /><path fill="rgb(111,21,50)" stroke="rgb(111,21,50)" stroke-width="1" opacity="1" d="M 7.5 9 L 7.5 10 L 7.5 9 Z " /><path fill="rgb(111,21,50)" stroke="rgb(111,21,50)" stroke-width="1" opacity="1" d="M 11.5 10 L 12 11.5 L 11 11.5 L 11.5 10 Z " /><path fill="rgb(115,29,57)" stroke="rgb(115,29,57)" stroke-width="1" opacity="1" d="M 10.5 2 L 10.5 3 L 10.5 2 Z " /><path fill="rgb(115,29,57)" stroke="rgb(115,29,57)" stroke-width="1" opacity="1" d="M 11.5 6 L 11.5 7 L 11.5 6 Z " /><path fill="rgb(181,137,150)" stroke="rgb(181,137,150)" stroke-width="1" opacity="1" d="M 3.5 3 L 3.5 4 L 3.5 3 Z " /><path fill="rgb(181,137,150)" stroke="rgb(181,137,150)" stroke-width="1" opacity="1" d="M 10.5 3 L 11 4.5 L 10 4.5 L 10.5 3 Z " /><path fill="rgb(181,137,150)" stroke="rgb(181,137,150)" stroke-width="1" opacity="1" d="M 10.5 6 L 10.5 7 L 10.5 6 Z " /><path fill="rgb(155,95,113)" stroke="rgb(155,95,113)" stroke-width="1" opacity="1" d="M 8.5 3 L 8.5 4 L 8.5 3 Z " /><path fill="rgb(155,95,113)" stroke="rgb(155,95,113)" stroke-width="1" opacity="1" d="M 12.5 3 L 12.5 4 L 12.5 3 Z " /><path fill="rgb(155,95,113)" stroke="rgb(155,95,113)" stroke-width="1" opacity="1" d="M 6.5 6 L 6.5 7 L 6.5 6 Z " /><path fill="rgb(155,95,113)" stroke="rgb(155,95,113)" stroke-width="1" opacity="1" d="M 5.5 9 L 5.5 10 L 5.5 9 Z " /><path fill="rgb(155,95,113)" stroke="rgb(155,95,113)" stroke-width="1" opacity="1" d="M 7.5 12 L 7.5 13 L 7.5 12 Z " /><path fill="rgb(104,9,40)" stroke="rgb(104,9,40)" stroke-width="1" opacity="1" d="M 14.5 3 L 15 5.5 L 14 5.5 L 14.5 3 Z " /><path fill="rgb(104,9,40)" stroke="rgb(104,9,40)" stroke-width="1" opacity="1" d="M 2.5 5 L 3 6.5 L 2 6.5 L 2.5 5 Z " /><path fill="rgb(104,9,40)" stroke="rgb(104,9,40)" stroke-width="1" opacity="1" d="M 8.5 7 L 8.5 8 L 8.5 7 Z " /><path fill="rgb(104,9,40)" stroke="rgb(104,9,40)" stroke-width="1" opacity="1" d="M 13.5 8 L 13.5 9 L 13.5 8 Z " /><path fill="rgb(104,9,40)" stroke="rgb(104,9,40)" stroke-width="1" opacity="1" d="M 3.5 10 L 3.5 11 L 3.5 10 Z " /><path fill="rgb(104,9,40)" stroke="rgb(104,9,40)" stroke-width="1" opacity="1" d="M 5.5 14 L 5.5 15 L 5.5 14 Z " /><path fill="rgb(105,10,41)" stroke="rgb(105,10,41)" stroke-width="1" opacity="1" d="M 2.5 1 L 2.5 2 L 2.5 1 Z " /><path fill="rgb(105,10,41)" stroke="rgb(105,10,41)" stroke-width="1" opacity="1" d="M 6.5 1 L 6.5 2 L 6.5 1 Z " /><path fill="rgb(105,10,41)" stroke="rgb(105,10,41)" stroke-width="1" opacity="1" d="M 9.5 1 L 9.5 2 L 9.5 1 Z " /><path fill="rgb(105,10,41)" stroke="rgb(105,10,41)" stroke-width="1" opacity="1" d="M 1.5 4 L 1.5 5 L 1.5 4 Z " /><path fill="rgb(105,10,41)" stroke="rgb(105,10,41)" stroke-width="1" opacity="1" d="M 6.5 14 L 6.5 15 L 6.5 14 Z " /><path fill="rgb(176,129,143)" stroke="rgb(176,129,143)" stroke-width="1" opacity="1" d="M 3.5 4 L 3.5 5 L 3.5 4 Z " /><path fill="rgb(176,129,143)" stroke="rgb(176,129,143)" stroke-width="1" opacity="1" d="M 6.5 4 L 7 5.5 L 6 5.5 L 6.5 4 Z " /><path fill="rgb(176,129,143)" stroke="rgb(176,129,143)" stroke-width="1" opacity="1" d="M 10.5 10 L 11 11.5 L 10 11.5 L 10.5 10 Z " /><path fill="rgb(176,129,143)" stroke="rgb(176,129,143)" stroke-width="1" opacity="1" d="M 6.5 11 L 6.5 12 L 6.5 11 Z " /><path fill="rgb(153,91,110)" stroke="rgb(153,91,110)" stroke-width="1" opacity="1" d="M 5.5 4 L 5.5 5 L 5.5 4 Z " /><path fill="rgb(153,91,110)" stroke="rgb(153,91,110)" stroke-width="1" opacity="1" d="M 3.5 5 L 3.5 6 L 3.5 5 Z " /><path fill="rgb(153,91,110)" stroke="rgb(153,91,110)" stroke-width="1" opacity="1" d="M 12.5 6 L 12.5 7 L 12.5 6 Z " /><path fill="rgb(153,91,110)" stroke="rgb(153,91,110)" stroke-width="1" opacity="1" d="M 10.5 8 L 10.5 9 L 10.5 8 Z " /><path fill="rgb(153,91,110)" stroke="rgb(153,91,110)" stroke-width="1" opacity="1" d="M 6.5 9 L 6.5 10 L 6.5 9 Z " /><path fill="rgb(153,91,110)" stroke="rgb(153,91,110)" stroke-width="1" opacity="1" d="M 5.5 12 L 5.5 13 L 5.5 12 Z " /><path fill="rgb(119,35,62)" stroke="rgb(119,35,62)" stroke-width="1" opacity="1" d="M 4.5 3 L 4.5 4 L 4.5 3 Z " /><path fill="rgb(119,35,62)" stroke="rgb(119,35,62)" stroke-width="1" opacity="1" d="M 7.5 3 L 8 4.5 L 7 4.5 L 7.5 3 Z " /><path fill="rgb(119,35,62)" stroke="rgb(119,35,62)" stroke-width="1" opacity="1" d="M 11.5 4 L 11.5 5 L 11.5 4 Z " /><path fill="rgb(119,35,62)" stroke="rgb(119,35,62)" stroke-width="1" opacity="1" d="M 6.5 7 L 6.5 8 L 6.5 7 Z " /><path fill="rgb(119,35,62)" stroke="rgb(119,35,62)" stroke-width="1" opacity="1" d="M 4.5 9 L 5 10.5 L 4 10.5 L 4.5 9 Z " /><path fill="rgb(119,35,62)" stroke="rgb(119,35,62)" stroke-width="1" opacity="1" d="M 11.5 9 L 11.5 10 L 11.5 9 Z " /><path fill="rgb(119,35,62)" stroke="rgb(119,35,62)" stroke-width="1" opacity="1" d="M 9.5 10 L 10 11.5 L 9 11.5 L 9.5 10 Z " /><path fill="rgb(119,35,62)" stroke="rgb(119,35,62)" stroke-width="1" opacity="1" d="M 11.5 12 L 11.5 13 L 11.5 12 Z " /><path fill="rgb(119,35,62)" stroke="rgb(119,35,62)" stroke-width="1" opacity="1" d="M 7.5 13 L 7.5 14 L 7.5 13 Z " /><path fill="rgb(119,35,62)" stroke="rgb(119,35,62)" stroke-width="1" opacity="1" d="M 9.5 13 L 9.5 14 L 9.5 13 Z " /><path fill="rgb(150,85,106)" stroke="rgb(150,85,106)" stroke-width="1" opacity="1" d="M 13.5 4 L 13.5 5 L 13.5 4 Z " /><path fill="rgb(150,85,106)" stroke="rgb(150,85,106)" stroke-width="1" opacity="1" d="M 7.5 5 L 7.5 6 L 7.5 5 Z " /><path fill="rgb(150,85,106)" stroke="rgb(150,85,106)" stroke-width="1" opacity="1" d="M 12.5 7 L 12.5 8 L 12.5 7 Z " /><path fill="rgb(113,24,53)" stroke="rgb(113,24,53)" stroke-width="1" opacity="1" d="M 6.5 2 L 6.5 3 L 6.5 2 Z " /><path fill="rgb(113,24,53)" stroke="rgb(113,24,53)" stroke-width="1" opacity="1" d="M 9.5 2 L 9.5 3 L 9.5 2 Z " /><path fill="rgb(113,24,53)" stroke="rgb(113,24,53)" stroke-width="1" opacity="1" d="M 9.5 4 L 10 6 L 8 5.5 L 9.5 4 Z " /><path fill="rgb(113,24,53)" stroke="rgb(113,24,53)" stroke-width="1" opacity="1" d="M 6.5 8 L 6.5 9 L 6.5 8 Z " /><path fill="rgb(113,24,53)" stroke="rgb(113,24,53)" stroke-width="1" opacity="1" d="M 8.5 10 L 8.5 11 L 8.5 10 Z " /><path fill="rgb(113,24,53)" stroke="rgb(113,24,53)" stroke-width="1" opacity="1" d="M 8.5 12 L 8.5 13 L 8.5 12 Z " /><path fill="rgb(113,24,53)" stroke="rgb(113,24,53)" stroke-width="1" opacity="1" d="M 6.5 13 L 6.5 14 L 6.5 13 Z " /><path fill="rgb(185,143,155)" stroke="rgb(185,143,155)" stroke-width="1" opacity="1" d="M 10.5 5 L 10.5 6 L 10.5 5 Z " /><path fill="rgb(185,143,155)" stroke="rgb(185,143,155)" stroke-width="1" opacity="1" d="M 4.5 6 L 4.5 7 L 4.5 6 Z " /><path fill="rgb(185,143,155)" stroke="rgb(185,143,155)" stroke-width="1" opacity="1" d="M 5.5 10 L 5.5 11 L 5.5 10 Z " /><path fill="rgb(185,143,155)" stroke="rgb(185,143,155)" stroke-width="1" opacity="1" d="M 10.5 12 L 10.5 13 L 10.5 12 Z " /><path fill="rgb(163,108,125)" stroke="rgb(163,108,125)" stroke-width="1" opacity="1" d="M 5.5 3 L 7 3.5 L 5.5 4 L 5.5 3 Z " /><path fill="rgb(163,108,125)" stroke="rgb(163,108,125)" stroke-width="1" opacity="1" d="M 12.5 4 L 12.5 5 L 12.5 4 Z " /><path fill="rgb(163,108,125)" stroke="rgb(163,108,125)" stroke-width="1" opacity="1" d="M 4.5 5 L 4.5 6 L 4.5 5 Z " /><path fill="rgb(163,108,125)" stroke="rgb(163,108,125)" stroke-width="1" opacity="1" d="M 4.5 12 L 4.5 13 L 4.5 12 Z " /><path fill="rgb(163,108,125)" stroke="rgb(163,108,125)" stroke-width="1" opacity="1" d="M 6.5 12 L 6.5 13 L 6.5 12 Z " /><path fill="rgb(128,50,75)" stroke="rgb(128,50,75)" stroke-width="1" opacity="1" d="M 4.5 4 L 4.5 5 L 4.5 4 Z " /><path fill="rgb(128,50,75)" stroke="rgb(128,50,75)" stroke-width="1" opacity="1" d="M 8.5 4 L 8.5 5 L 8.5 4 Z " /><path fill="rgb(128,50,75)" stroke="rgb(128,50,75)" stroke-width="1" opacity="1" d="M 3.5 6 L 3.5 7 L 3.5 6 Z " /><path fill="rgb(128,50,75)" stroke="rgb(128,50,75)" stroke-width="1" opacity="1" d="M 7.5 7 L 7.5 8 L 7.5 7 Z " /><path fill="rgb(128,50,75)" stroke="rgb(128,50,75)" stroke-width="1" opacity="1" d="M 9.5 7 L 9.5 8 L 9.5 7 Z " /><path fill="rgb(128,50,75)" stroke="rgb(128,50,75)" stroke-width="1" opacity="1" d="M 13.5 7 L 13.5 8 L 13.5 7 Z " /><path fill="rgb(128,50,75)" stroke="rgb(128,50,75)" stroke-width="1" opacity="1" d="M 9.5 9 L 9.5 10 L 9.5 9 Z " /><path fill="rgb(128,50,75)" stroke="rgb(128,50,75)" stroke-width="1" opacity="1" d="M 9.5 12 L 9.5 13 L 9.5 12 Z " /><path fill="rgb(128,50,75)" stroke="rgb(128,50,75)" stroke-width="1" opacity="1" d="M 5.5 13 L 5.5 14 L 5.5 13 Z " /><path fill="rgb(170,118,134)" stroke="rgb(170,118,134)" stroke-width="1" opacity="1" d="M 12.5 5 Q 15 6 13.5 7 Q 11 6 12.5 5 Z " /><path fill="rgb(170,118,134)" stroke="rgb(170,118,134)" stroke-width="1" opacity="1" d="M 7.5 6 L 7.5 7 L 7.5 6 Z " /><path fill="rgb(170,118,134)" stroke="rgb(170,118,134)" stroke-width="1" opacity="1" d="M 10.5 7 L 10.5 8 L 10.5 7 Z " /><path fill="rgb(104,10,41)" stroke="rgb(104,10,41)" stroke-width="1" opacity="1" d="M 3.5 1 L 3.5 2 L 3.5 1 Z " /><path fill="rgb(104,10,41)" stroke="rgb(104,10,41)" stroke-width="1" opacity="1" d="M 5.5 1 L 5.5 2 L 5.5 1 Z " /><path fill="rgb(104,10,41)" stroke="rgb(104,10,41)" stroke-width="1" opacity="1" d="M 8.5 1 L 8.5 2 L 8.5 1 Z " /><path fill="rgb(104,10,41)" stroke="rgb(104,10,41)" stroke-width="1" opacity="1" d="M 10.5 1 L 12 1.5 L 10.5 2 L 10.5 1 Z " /><path fill="rgb(104,10,41)" stroke="rgb(104,10,41)" stroke-width="1" opacity="1" d="M 13.5 2 L 13.5 3 L 13.5 2 Z " /><path fill="rgb(104,10,41)" stroke="rgb(104,10,41)" stroke-width="1" opacity="1" d="M 1.5 3 L 1.5 4 L 1.5 3 Z " /><path fill="rgb(104,10,41)" stroke="rgb(104,10,41)" stroke-width="1" opacity="1" d="M 8.5 6 L 8.5 7 L 8.5 6 Z " /><path fill="rgb(104,10,41)" stroke="rgb(104,10,41)" stroke-width="1" opacity="1" d="M 14.5 6 L 15 7.5 L 14 7.5 L 14.5 6 Z " /><path fill="rgb(104,10,41)" stroke="rgb(104,10,41)" stroke-width="1" opacity="1" d="M 3.5 9 L 3.5 10 L 3.5 9 Z " /><path fill="rgb(104,10,41)" stroke="rgb(104,10,41)" stroke-width="1" opacity="1" d="M 12.5 10 L 12.5 11 L 12.5 10 Z " /><path fill="rgb(104,10,41)" stroke="rgb(104,10,41)" stroke-width="1" opacity="1" d="M 12.5 12 L 12.5 13 L 12.5 12 Z " /><path fill="rgb(104,10,41)" stroke="rgb(104,10,41)" stroke-width="1" opacity="1" d="M 4.5 14 L 4.5 15 L 4.5 14 Z " /><path fill="rgb(104,10,41)" stroke="rgb(104,10,41)" stroke-width="1" opacity="1" d="M 7.5 14 L 7.5 15 L 7.5 14 Z " /><path fill="rgb(104,10,41)" stroke="rgb(104,10,41)" stroke-width="1" opacity="1" d="M 9.5 14 L 12 14.5 L 9.5 15 L 9.5 14 Z " /><path fill="rgb(138,66,89)" stroke="rgb(138,66,89)" stroke-width="1" opacity="1" d="M 11.5 3 L 11.5 4 L 11.5 3 Z " /><path fill="rgb(138,66,89)" stroke="rgb(138,66,89)" stroke-width="1" opacity="1" d="M 4.5 7 L 4.5 8 L 4.5 7 Z " /><path fill="rgb(138,66,89)" stroke="rgb(138,66,89)" stroke-width="1" opacity="1" d="M 11.5 7 L 11.5 8 L 11.5 7 Z " /><path fill="rgb(138,66,89)" stroke="rgb(138,66,89)" stroke-width="1" opacity="1" d="M 8.5 8 L 9 9.5 L 8 9.5 L 8.5 8 Z " /><path fill="rgb(138,66,89)" stroke="rgb(138,66,89)" stroke-width="1" opacity="1" d="M 7.5 11 L 7.5 12 L 7.5 11 Z " /><path fill="rgb(181,135,150)" stroke="rgb(181,135,150)" stroke-width="1" opacity="1" d="M 10.5 9 L 10.5 10 L 10.5 9 Z " /><path fill="rgb(132,56,80)" stroke="rgb(132,56,80)" stroke-width="1" opacity="1" d="M 2.5 3 L 2.5 4 L 2.5 3 Z " /><path fill="rgb(132,56,80)" stroke="rgb(132,56,80)" stroke-width="1" opacity="1" d="M 9.5 3 L 9.5 4 L 9.5 3 Z " /><path fill="rgb(132,56,80)" stroke="rgb(132,56,80)" stroke-width="1" opacity="1" d="M 13.5 3 L 13.5 4 L 13.5 3 Z " /><path fill="rgb(132,56,80)" stroke="rgb(132,56,80)" stroke-width="1" opacity="1" d="M 5.5 5 L 5.5 6 L 5.5 5 Z " /><path fill="rgb(132,56,80)" stroke="rgb(132,56,80)" stroke-width="1" opacity="1" d="M 13.5 5 L 13.5 6 L 13.5 5 Z " /><path fill="rgb(132,56,80)" stroke="rgb(132,56,80)" stroke-width="1" opacity="1" d="M 12.5 8 L 13 9.5 L 12 9.5 L 12.5 8 Z " /><path fill="rgb(132,56,80)" stroke="rgb(132,56,80)" stroke-width="1" opacity="1" d="M 10.5 13 L 10.5 14 L 10.5 13 Z " /><path fill="rgb(143,76,97)" stroke="rgb(143,76,97)" stroke-width="1" opacity="1" d="M 11.5 5 L 11.5 6 L 11.5 5 Z " /><path fill="rgb(143,76,97)" stroke="rgb(143,76,97)" stroke-width="1" opacity="1" d="M 9.5 8 L 9.5 9 L 9.5 8 Z " /><path fill="rgb(143,76,97)" stroke="rgb(143,76,97)" stroke-width="1" opacity="1" d="M 11.5 8 L 11.5 9 L 11.5 8 Z " /><path fill="rgb(143,76,97)" stroke="rgb(143,76,97)" stroke-width="1" opacity="1" d="M 6.5 10 L 8 10.5 L 4.5 12 L 4.5 11 L 6.5 10 Z " /></svg>