<svg width="32" height="32" version="1.1" xmlns="http://www.w3.org/2000/svg" desc="Created with imagetracer.js version 1.2.6" ><path fill="rgb(255,255,255)" stroke="rgb(255,255,255)" stroke-width="1" opacity="0.00392156862745098" d="M 0 0 L 32 0 L 32 19.5 Q 31 21 30 18.5 L 30 9 L 9.5 9 L 0.5 19 L 0 0 Z " /><path fill="rgb(255,255,255)" stroke="rgb(255,255,255)" stroke-width="1" opacity="0.00392156862745098" d="M 9.5 15 L 13.5 16 L 18.5 19 L 23.5 19 L 25.5 21 L 32 22 L 32 31.5 L 31.5 32 L 0 32 L 0 22.5 L 5.5 17 Q 9 17.5 9.5 15 Z " /><path fill="rgb(28,136,41)" stroke="rgb(28,136,41)" stroke-width="1" opacity="0.984313725490196" d="M 8.5 14 Q 10 15 7.5 16 Q 6 15 8.5 14 Z " /><path fill="rgb(28,136,41)" stroke="rgb(28,136,41)" stroke-width="1" opacity="0.984313725490196" d="M 11.5 14 Q 14.5 13.5 15 15.5 L 13.5 15 Q 10.5 15.5 11.5 14 Z " /><path fill="rgb(28,136,41)" stroke="rgb(28,136,41)" stroke-width="1" opacity="0.984313725490196" d="M 20.5 16 Q 22 17 19.5 18 Q 18 17 20.5 16 Z " /><path fill="rgb(28,136,41)" stroke="rgb(28,136,41)" stroke-width="1" opacity="0.984313725490196" d="M 27.5 19 L 27.5 20 L 27.5 19 Z " /><path fill="rgb(6,124,20)" stroke="rgb(6,124,20)" stroke-width="1" opacity="1" d="M 13.5 10 L 13.5 11 L 13.5 10 Z " /><path fill="rgb(6,124,20)" stroke="rgb(6,124,20)" stroke-width="1" opacity="1" d="M 21.5 13 Q 24 14 22.5 15 Q 20 14 21.5 13 Z " /><path fill="rgb(71,99,74)" stroke="rgb(71,99,74)" stroke-width="1" opacity="0.7294117647058823" d="M 9.5 9 L 9.5 12 Q 6.5 10.5 9.5 9 Z " /><path fill="rgb(71,99,74)" stroke="rgb(71,99,74)" stroke-width="1" opacity="0.7294117647058823" d="M 29.5 9 L 30 19.5 L 31 20.5 Q 30 22 29 19.5 L 29.5 9 Z " /><path fill="rgb(71,99,74)" stroke="rgb(71,99,74)" stroke-width="1" opacity="0.7294117647058823" d="M 13.5 12 L 16 14.5 L 15.5 15 L 13 12.5 L 13.5 12 Z " /><path fill="rgb(71,99,74)" stroke="rgb(71,99,74)" stroke-width="1" opacity="0.7294117647058823" d="M 20.5 15 L 22 15.5 L 20.5 16 L 20.5 15 Z " /><path fill="rgb(71,99,74)" stroke="rgb(71,99,74)" stroke-width="1" opacity="0.7294117647058823" d="M 2.5 17 Q 4 18 1.5 19 Q 0 18 2.5 17 Z " /><path fill="rgb(71,99,74)" stroke="rgb(71,99,74)" stroke-width="1" opacity="0.7294117647058823" d="M 24.5 18 L 24.5 19 L 24.5 18 Z " /><path fill="rgb(71,99,74)" stroke="rgb(71,99,74)" stroke-width="1" opacity="0.7294117647058823" d="M 27.5 18 L 27.5 19 L 27.5 18 Z " /><path fill="rgb(85,161,93)" stroke="rgb(85,161,93)" stroke-width="1" opacity="0.7607843137254902" d="M 10.5 11 L 14 13.5 L 13.5 14 L 11.5 12 Q 9.12 11.88 10.5 11 Z " /><path fill="rgb(85,161,93)" stroke="rgb(85,161,93)" stroke-width="1" opacity="0.7607843137254902" d="M 9.5 14 L 9.5 15 L 9.5 14 Z " /><path fill="rgb(85,161,93)" stroke="rgb(85,161,93)" stroke-width="1" opacity="0.7607843137254902" d="M 21.5 16 L 23 18.5 L 22 18.5 L 21.5 16 Z " /><path fill="rgb(85,161,93)" stroke="rgb(85,161,93)" stroke-width="1" opacity="0.7607843137254902" d="M 20.5 18 L 20.5 19 L 20.5 18 Z " /><path fill="rgb(85,161,93)" stroke="rgb(85,161,93)" stroke-width="1" opacity="0.7607843137254902" d="M 25 18 L 27 18.5 L 26 19.5 L 26.5 21 L 25 18 Z " /><path fill="rgb(85,161,93)" stroke="rgb(85,161,93)" stroke-width="1" opacity="0.7607843137254902" d="M 28.5 19 L 29 20.5 L 28 20.5 L 28.5 19 Z " /><path fill="rgb(4,91,15)" stroke="rgb(4,91,15)" stroke-width="1" opacity="1" d="M 11.5 9 Q 14 10 12.5 11 Q 10 10 11.5 9 Z " /><path fill="rgb(4,91,15)" stroke="rgb(4,91,15)" stroke-width="1" opacity="1" d="M 15.5 12 L 15.5 13 L 15.5 12 Z " /><path fill="rgb(4,91,15)" stroke="rgb(4,91,15)" stroke-width="1" opacity="1" d="M 17.5 15 L 19 15.5 L 17.5 16 L 17.5 15 Z " /><path fill="rgb(4,91,15)" stroke="rgb(4,91,15)" stroke-width="1" opacity="1" d="M 24.5 16 Q 28.5 15.5 29 18.5 L 28.5 19 L 26.5 17 Q 23.5 17.5 24.5 16 Z " /><path fill="rgb(6,125,20)" stroke="rgb(6,125,20)" stroke-width="1" opacity="1" d="M 12.5 9 L 29 9 L 29 17.5 L 28.5 18 L 26.5 16 L 24.5 16 L 20.5 13 L 18.5 15 L 13.5 10 Q 11.13 9.87 12.5 9 Z " /><path fill="rgb(6,125,20)" stroke="rgb(6,125,20)" stroke-width="1" opacity="1" d="M 10.5 12 L 13 13.5 L 9.5 14 Q 8 13 10.5 12 Z " /><path fill="rgb(6,125,20)" stroke="rgb(6,125,20)" stroke-width="1" opacity="1" d="M 20.5 17 L 22 17.5 L 20.5 18 L 20.5 17 Z " /><path fill="rgb(6,125,20)" stroke="rgb(6,125,20)" stroke-width="1" opacity="1" d="M 26.5 19 L 26.5 20 L 26.5 19 Z " /><path fill="rgb(125,185,132)" stroke="rgb(125,185,132)" stroke-width="1" opacity="0.1450980392156863" d="M 10.5 14 L 10.5 15 L 10.5 14 Z " /><path fill="rgb(125,185,132)" stroke="rgb(125,185,132)" stroke-width="1" opacity="0.1450980392156863" d="M 13.5 15 L 14.5 16 L 16 15.5 L 15.5 17 L 17 17.5 L 15.5 18 L 13 15.5 L 13.5 15 Z " /><path fill="rgb(125,185,132)" stroke="rgb(125,185,132)" stroke-width="1" opacity="0.1450980392156863" d="M 6.5 16 L 8 16.5 L 6.5 17 L 6.5 16 Z " /><path fill="rgb(125,185,132)" stroke="rgb(125,185,132)" stroke-width="1" opacity="0.1450980392156863" d="M 19.5 18 L 19.5 19 L 19.5 18 Z " /><path fill="rgb(125,185,132)" stroke="rgb(125,185,132)" stroke-width="1" opacity="0.1450980392156863" d="M 25.5 20 L 25.5 21 L 25.5 20 Z " /><path fill="rgb(125,185,132)" stroke="rgb(125,185,132)" stroke-width="1" opacity="0.1450980392156863" d="M 27.5 20 L 27.5 21 L 27.5 20 Z " /><path fill="rgb(125,185,132)" stroke="rgb(125,185,132)" stroke-width="1" opacity="0.1450980392156863" d="M 29.5 21 L 29.5 22 L 29.5 21 Z " /><path fill="rgb(114,177,121)" stroke="rgb(114,177,121)" stroke-width="1" opacity="0.396078431372549" d="M 7.5 14 Q 10 15 8.5 16 L 7.5 15 L 6 15.5 L 7.5 14 Z " /><path fill="rgb(114,177,121)" stroke="rgb(114,177,121)" stroke-width="1" opacity="0.396078431372549" d="M 14.5 14 L 14.5 15 L 14.5 14 Z " /><path fill="rgb(114,177,121)" stroke="rgb(114,177,121)" stroke-width="1" opacity="0.396078431372549" d="M 11.5 15 L 13 15.5 L 11.5 16 L 11.5 15 Z " /><path fill="rgb(114,177,121)" stroke="rgb(114,177,121)" stroke-width="1" opacity="0.396078431372549" d="M 18.5 18 L 18.5 19 L 18.5 18 Z " /><path fill="rgb(114,177,121)" stroke="rgb(114,177,121)" stroke-width="1" opacity="0.396078431372549" d="M 21.5 18 L 21.5 19 L 21.5 18 Z " /><path fill="rgb(114,177,121)" stroke="rgb(114,177,121)" stroke-width="1" opacity="0.396078431372549" d="M 24.5 19 L 24.5 20 L 24.5 19 Z " /><path fill="rgb(6,121,19)" stroke="rgb(6,121,19)" stroke-width="1" opacity="1" d="M 14.5 11 L 14.5 12 L 14.5 11 Z " /><path fill="rgb(6,121,19)" stroke="rgb(6,121,19)" stroke-width="1" opacity="1" d="M 16.5 13 Q 19 14 17.5 15 Q 15 14 16.5 13 Z " /><path fill="rgb(6,121,19)" stroke="rgb(6,121,19)" stroke-width="1" opacity="1" d="M 20.5 13 Q 22 14 19.5 15 Q 18 14 20.5 13 Z " /><path fill="rgb(6,121,19)" stroke="rgb(6,121,19)" stroke-width="1" opacity="1" d="M 23.5 15 L 23.5 16 L 23.5 15 Z " /><path fill="rgb(22,32,24)" stroke="rgb(22,32,24)" stroke-width="1" opacity="0.9764705882352941" d="M 10.5 9 L 17 14.5 Q 16.25 16.75 18.5 16 L 21.5 14 Q 22.75 17.25 27 17.5 L 23.5 18 L 22 15 L 17.5 17 L 13.5 12 L 9 11 L 9 12.5 L 0.5 21 L 0 20.5 L 3 17.5 L 10.5 9 Z " /><path fill="rgb(124,124,124)" stroke="rgb(124,124,124)" stroke-width="1" opacity="0.0784313725490196" d="M 3.5 15 Q 5 16 2.5 17 Q 1 16 3.5 15 Z " /><path fill="rgb(124,124,124)" stroke="rgb(124,124,124)" stroke-width="1" opacity="0.0784313725490196" d="M 5.5 16 L 6 16.5 L 2.5 20 L 2 19.5 L 5.5 16 Z " /><path fill="rgb(124,124,124)" stroke="rgb(124,124,124)" stroke-width="1" opacity="0.0784313725490196" d="M 30.5 19 Q 33.5 20.5 30.5 22 L 30.5 19 Z " /><path fill="rgb(124,124,124)" stroke="rgb(124,124,124)" stroke-width="1" opacity="0.0784313725490196" d="M 0.5 21 L 0.5 22 L 0.5 21 Z " /><path fill="rgb(116,116,116)" stroke="rgb(116,116,116)" stroke-width="1" opacity="0.28627450980392155" d="M 6.5 12 L 7 12.5 L 4.5 15 L 4 14.5 L 6.5 12 Z " /><path fill="rgb(116,116,116)" stroke="rgb(116,116,116)" stroke-width="1" opacity="0.28627450980392155" d="M 16.5 16 Q 19 17 17.5 18 Q 15 17 16.5 16 Z " /><path fill="rgb(116,116,116)" stroke="rgb(116,116,116)" stroke-width="1" opacity="0.28627450980392155" d="M 0.5 19 Q 3 20 1.5 21 Q -1 20 0.5 19 Z " /><path fill="rgb(105,155,111)" stroke="rgb(105,155,111)" stroke-width="1" opacity="0.5372549019607843" d="M 7.5 11 L 7.5 12 L 7.5 11 Z " /><path fill="rgb(105,155,111)" stroke="rgb(105,155,111)" stroke-width="1" opacity="0.5372549019607843" d="M 9.5 12 Q 11 13 8.5 14 Q 7 13 9.5 12 Z " /><path fill="rgb(105,155,111)" stroke="rgb(105,155,111)" stroke-width="1" opacity="0.5372549019607843" d="M 15.5 16 L 15.5 17 L 15.5 16 Z " /><path fill="rgb(105,155,111)" stroke="rgb(105,155,111)" stroke-width="1" opacity="0.5372549019607843" d="M 19.5 16 Q 21 17 18.5 18 Q 17 17 19.5 16 Z " /><path fill="rgb(105,155,111)" stroke="rgb(105,155,111)" stroke-width="1" opacity="0.5372549019607843" d="M 23.5 18 L 23.5 19 L 23.5 18 Z " /><path fill="rgb(105,155,111)" stroke="rgb(105,155,111)" stroke-width="1" opacity="0.5372549019607843" d="M 29.5 20 L 29.5 21 L 29.5 20 Z " /><path fill="rgb(105,155,111)" stroke="rgb(105,155,111)" stroke-width="1" opacity="0.5372549019607843" d="M 31.5 21 L 31.5 22 L 31.5 21 Z " /></svg>