<svg width="128" height="128" version="1.1" xmlns="http://www.w3.org/2000/svg" desc="Created with imagetracer.js version 1.2.6" ><path fill="rgb(243,83,37)" stroke="rgb(243,83,37)" stroke-width="1" opacity="1" d="M 6 6 L 61 6 L 61 61 L 6 61 L 6 6 Z " /><path fill="rgb(129,188,6)" stroke="rgb(129,188,6)" stroke-width="1" opacity="1" d="M 67 6 L 122 6 L 122 61 L 67 61 L 67 6 Z " /><path fill="rgb(215,214,188)" stroke="rgb(215,214,188)" stroke-width="1" opacity="1" d="M 5 5 L 60.5 5 L 62 6.5 L 62 60.5 L 60.5 62 L 6.5 62 L 5 60.5 L 5 5 Z M 6 6 L 6 61 L 61 61 L 61 6 L 6 6 Z " /><path fill="rgb(215,214,188)" stroke="rgb(215,214,188)" stroke-width="1" opacity="1" d="M 67.5 5 L 123 5 L 123 60.5 L 121.5 62 L 67.5 62 L 66 60.5 L 66 6.5 L 67.5 5 Z M 67 6 L 67 61 L 122 61 L 122 6 L 67 6 Z " /><path fill="rgb(215,214,188)" stroke="rgb(215,214,188)" stroke-width="1" opacity="1" d="M 67.5 66 L 121.5 66 L 123 67.5 L 123 121.5 L 121.5 123 L 67.5 123 L 66 121.5 L 66 67.5 L 67.5 66 Z M 67 67 L 67 122 L 122 122 L 122 67 L 67 67 Z " /><path fill="rgb(215,214,188)" stroke="rgb(215,214,188)" stroke-width="1" opacity="1" d="M 5.5 67 L 6 122 L 61 122.5 L 6.5 123 L 5 121.5 L 5.5 67 Z " /><path fill="rgb(242,242,243)" stroke="rgb(242,242,243)" stroke-width="1" opacity="1" d="M 61.5 5 L 61.5 6 L 61.5 5 Z " /><path fill="rgb(242,242,243)" stroke="rgb(242,242,243)" stroke-width="1" opacity="1" d="M 66.5 5 L 66.5 6 L 66.5 5 Z " /><path fill="rgb(242,242,243)" stroke="rgb(242,242,243)" stroke-width="1" opacity="1" d="M 5.5 61 L 5.5 62 L 5.5 61 Z " /><path fill="rgb(242,242,243)" stroke="rgb(242,242,243)" stroke-width="1" opacity="1" d="M 61.5 61 L 61.5 62 L 61.5 61 Z " /><path fill="rgb(242,242,243)" stroke="rgb(242,242,243)" stroke-width="1" opacity="1" d="M 66.5 61 L 66.5 62 L 66.5 61 Z " /><path fill="rgb(242,242,243)" stroke="rgb(242,242,243)" stroke-width="1" opacity="1" d="M 122.5 61 L 122.5 62 L 122.5 61 Z " /><path fill="rgb(242,242,243)" stroke="rgb(242,242,243)" stroke-width="1" opacity="1" d="M 5.5 66 L 62 66 L 62 122.5 L 61 122.5 L 61 67 L 5.5 67 L 5.5 66 Z " /><path fill="rgb(242,242,243)" stroke="rgb(242,242,243)" stroke-width="1" opacity="1" d="M 66.5 66 L 66.5 67 L 66.5 66 Z " /><path fill="rgb(242,242,243)" stroke="rgb(242,242,243)" stroke-width="1" opacity="1" d="M 122.5 66 L 122.5 67 L 122.5 66 Z " /><path fill="rgb(242,242,243)" stroke="rgb(242,242,243)" stroke-width="1" opacity="1" d="M 5.5 122 L 5.5 123 L 5.5 122 Z " /><path fill="rgb(242,242,243)" stroke="rgb(242,242,243)" stroke-width="1" opacity="1" d="M 66.5 122 L 66.5 123 L 66.5 122 Z " /><path fill="rgb(242,242,243)" stroke="rgb(242,242,243)" stroke-width="1" opacity="1" d="M 122.5 122 L 122.5 123 L 122.5 122 Z " /><path fill="rgb(243,243,243)" stroke="rgb(243,243,243)" stroke-width="1" opacity="1" d="M 0 0 L 128 0 L 128 128 L 0 128 L 0 0 Z M 5 5 L 5 62 L 62 62 L 62 5 L 5 5 Z M 66 5 L 66 62 L 123 62 L 123 5 L 66 5 Z M 5 66 L 5 123 L 62 123 L 62 66 L 5 66 Z M 66 66 L 66 123 L 123 123 L 123 66 L 66 66 Z " /><path fill="rgb(5,166,240)" stroke="rgb(5,166,240)" stroke-width="1" opacity="1" d="M 6 67 L 61 67 L 61 122 L 6 122 L 6 67 Z " /><path fill="rgb(255,186,8)" stroke="rgb(255,186,8)" stroke-width="1" opacity="1" d="M 67 67 L 122 67 L 122 122 L 67 122 L 67 67 Z " /></svg>